<svg xmlns="http://www.w3.org/2000/svg" xmlns:xlink="http://www.w3.org/1999/xlink" width="261" height="299" viewBox="0 0 261 299">
  <defs>
    <clipPath id="clip-path">
      <rect id="Rectangle_4632" data-name="Rectangle 4632" width="261" height="299" transform="translate(0 0.231)" fill="#fff" stroke="#707070" stroke-width="1"/>
    </clipPath>
    <clipPath id="clip-path-2">
      <rect id="Rectangle_4625" data-name="Rectangle 4625" width="303.367" height="300.8" fill="none" stroke="#fff" stroke-width="1"/>
    </clipPath>
  </defs>
  <g id="Mask_Group_4515" data-name="Mask Group 4515" transform="translate(0 -0.231)" clip-path="url(#clip-path)">
    <g id="Group_5291" data-name="Group 5291" transform="translate(-42.367 -1.529)">
      <g id="Group_5278" data-name="Group 5278">
        <g id="Group_5277" data-name="Group 5277" clip-path="url(#clip-path-2)">
          <path id="Path_10787" data-name="Path 10787" d="M204.388,425.912,234.588,376h-60.4Z" transform="translate(-52.706 -375.335)" fill="none" stroke="#fff" stroke-width="1"/>
        </g>
      </g>
      <path id="Path_10788" data-name="Path 10788" d="M204.388,275.911,234.588,226h-60.4Z" transform="translate(-52.706 -125.511)" fill="none" stroke="#fff" stroke-width="1"/>
      <g id="Group_5280" data-name="Group 5280">
        <g id="Group_5279" data-name="Group 5279" clip-path="url(#clip-path-2)">
          <path id="Path_10789" data-name="Path 10789" d="M291.029,425.912,321.229,376h-60.4Z" transform="translate(-199.774 -375.335)" fill="none" stroke="#fff" stroke-width="1"/>
          <path id="Path_10790" data-name="Path 10790" d="M117.708,425.912,147.907,376h-60.4Z" transform="translate(94.429 -375.335)" fill="none" stroke="#fff" stroke-width="1"/>
        </g>
      </g>
      <path id="Path_10791" data-name="Path 10791" d="M247.728,350.912,277.928,301h-60.4Z" transform="translate(-126.273 -250.423)" fill="none" stroke="#fff" stroke-width="1"/>
      <path id="Path_10792" data-name="Path 10792" d="M161.048,350.912,191.247,301h-60.4Z" transform="translate(20.861 -250.423)" fill="none" stroke="#fff" stroke-width="1"/>
      <path id="Path_10793" data-name="Path 10793" d="M161.067,226l-30.2,49.912h60.4Z" transform="translate(20.829 -125.511)" fill="none" stroke="#fff" stroke-width="1"/>
      <path id="Path_10794" data-name="Path 10794" d="M117.727,301l-30.2,49.912h60.4Z" transform="translate(94.396 -250.423)" fill="none" stroke="#fff" stroke-width="1"/>
      <g id="Group_5282" data-name="Group 5282">
        <g id="Group_5281" data-name="Group 5281" clip-path="url(#clip-path-2)">
          <path id="Path_10795" data-name="Path 10795" d="M31.066,425.912,61.266,376H.866Z" transform="translate(241.497 -375.335)" fill="none" stroke="#fff" stroke-width="1"/>
        </g>
      </g>
      <path id="Path_10796" data-name="Path 10796" d="M74.406,350.912,104.606,301h-60.4Z" transform="translate(167.93 -250.423)" fill="#fff" stroke="#fff" stroke-width="1"/>
      <path id="Path_10797" data-name="Path 10797" d="M74.406,350.912,104.606,301h-60.4Z" transform="translate(167.93 -250.423)" fill="none" stroke="#fff" stroke-width="1"/>
      <g id="Group_5284" data-name="Group 5284">
        <g id="Group_5283" data-name="Group 5283" clip-path="url(#clip-path-2)">
          <path id="Path_10798" data-name="Path 10798" d="M31.086,301,.886,350.912h60.4Z" transform="translate(241.464 -250.423)" fill="none" stroke="#fff" stroke-width="1"/>
          <path id="Path_10799" data-name="Path 10799" d="M377.617,425.912,407.817,376h-60.4Z" transform="translate(-346.752 -375.335)" fill="none" stroke="#fff" stroke-width="1"/>
        </g>
      </g>
      <path id="Path_10800" data-name="Path 10800" d="M334.3,226l-30.2,49.912h60.4Z" transform="translate(-273.217 -125.511)" fill="none" stroke="#fff" stroke-width="1"/>
      <g id="Group_5286" data-name="Group 5286">
        <g id="Group_5285" data-name="Group 5285" clip-path="url(#clip-path-2)">
          <path id="Path_10801" data-name="Path 10801" d="M334.3,376l-30.2,49.912h60.4Z" transform="translate(-273.217 -375.335)" fill="none" stroke="#fff" stroke-width="1"/>
        </g>
      </g>
      <path id="Path_10802" data-name="Path 10802" d="M247.655,226l-30.2,49.912h60.4Z" transform="translate(-126.149 -125.511)" fill="none" stroke="#fff" stroke-width="1"/>
      <path id="Path_10803" data-name="Path 10803" d="M290.956,301l-30.2,49.912h60.4Z" transform="translate(-199.65 -250.423)" fill="none" stroke="#fff" stroke-width="1"/>
      <g id="Group_5288" data-name="Group 5288">
        <g id="Group_5287" data-name="Group 5287" clip-path="url(#clip-path-2)">
          <path id="Path_10804" data-name="Path 10804" d="M377.636,301l-30.2,49.912h60.4Z" transform="translate(-346.785 -250.423)" fill="none" stroke="#fff" stroke-width="1"/>
        </g>
      </g>
      <path id="Path_10805" data-name="Path 10805" d="M334.365,200.912,364.564,151h-60.4Z" transform="translate(-273.333 -0.6)" fill="none" stroke="#fff" stroke-width="1"/>
      <g id="Group_5290" data-name="Group 5290">
        <g id="Group_5289" data-name="Group 5289" clip-path="url(#clip-path-2)">
          <path id="Path_10806" data-name="Path 10806" d="M334.365,50.912,364.564,1h-60.4Z" transform="translate(-273.333 249.223)" fill="none" stroke="#fff" stroke-width="1"/>
          <path id="Path_10807" data-name="Path 10807" d="M377.7,125.912,407.9,76H347.5Z" transform="translate(-346.901 124.312)" fill="none" stroke="#fff" stroke-width="1"/>
          <path id="Path_10808" data-name="Path 10808" d="M291.044,1l-30.2,49.912h60.4Z" transform="translate(-199.799 249.223)" fill="none" stroke="#fff" stroke-width="1"/>
        </g>
      </g>
    </g>
  </g>
</svg>
