<svg xmlns="http://www.w3.org/2000/svg" xmlns:xlink="http://www.w3.org/1999/xlink" width="408" height="468" viewBox="0 0 408 468">
  <defs>
    <clipPath id="clip-path">
      <rect id="Rectangle_4604" data-name="Rectangle 4604" width="408" height="468" transform="translate(0 0.231)" fill="#fff" stroke="#707070" stroke-width="1"/>
    </clipPath>
    <clipPath id="clip-path-2">
      <rect id="Rectangle_4597" data-name="Rectangle 4597" width="474.229" height="470.818" fill="none" stroke="#fff" stroke-width="1"/>
    </clipPath>
  </defs>
  <g id="Mask_Group_4513" data-name="Mask Group 4513" transform="translate(0 -0.231)" clip-path="url(#clip-path)">
    <g id="Group_5161" data-name="Group 5161" transform="translate(-66.229 -2.524)">
      <g id="Group_5148" data-name="Group 5148">
        <g id="Group_5147" data-name="Group 5147" clip-path="url(#clip-path-2)">
          <path id="Path_10710" data-name="Path 10710" d="M221.4,454.122,268.606,376H174.188Z" transform="translate(15.715 -374.958)" fill="none" stroke="#fff" stroke-width="1"/>
        </g>
      </g>
      <path id="Path_10711" data-name="Path 10711" d="M221.4,304.122,268.606,226H174.188Z" transform="translate(15.715 -68.714)" fill="none" stroke="#fff" stroke-width="1"/>
      <g id="Group_5150" data-name="Group 5150">
        <g id="Group_5149" data-name="Group 5149" clip-path="url(#clip-path-2)">
          <path id="Path_10712" data-name="Path 10712" d="M308.038,454.122,355.247,376H260.829Z" transform="translate(-165.387 -374.958)" fill="none" stroke="#fff" stroke-width="1"/>
          <path id="Path_10713" data-name="Path 10713" d="M134.717,454.122,181.926,376H87.508Z" transform="translate(196.898 -374.958)" fill="none" stroke="#fff" stroke-width="1"/>
        </g>
      </g>
      <path id="Path_10714" data-name="Path 10714" d="M264.737,379.122,311.946,301H217.528Z" transform="translate(-74.876 -221.836)" fill="none" stroke="#fff" stroke-width="1"/>
      <path id="Path_10715" data-name="Path 10715" d="M178.057,379.122,225.266,301H130.848Z" transform="translate(106.307 -221.836)" fill="none" stroke="#fff" stroke-width="1"/>
      <path id="Path_10716" data-name="Path 10716" d="M178.076,226l-47.209,78.122h94.418Z" transform="translate(106.266 -68.714)" fill="none" stroke="#fff" stroke-width="1"/>
      <path id="Path_10717" data-name="Path 10717" d="M134.736,301,87.527,379.122h94.418Z" transform="translate(196.858 -221.836)" fill="none" stroke="#fff" stroke-width="1"/>
      <g id="Group_5152" data-name="Group 5152">
        <g id="Group_5151" data-name="Group 5151" clip-path="url(#clip-path-2)">
          <path id="Path_10718" data-name="Path 10718" d="M48.075,454.122,95.284,376H.866Z" transform="translate(378.001 -374.958)" fill="none" stroke="#fff" stroke-width="1"/>
        </g>
      </g>
      <path id="Path_10719" data-name="Path 10719" d="M91.415,379.122,138.624,301H44.206Z" transform="translate(287.409 -221.836)" fill="#fff" stroke="#fff" stroke-width="1"/>
      <path id="Path_10720" data-name="Path 10720" d="M91.415,379.122,138.624,301H44.206Z" transform="translate(287.409 -221.836)" fill="none" stroke="#fff" stroke-width="1"/>
      <g id="Group_5154" data-name="Group 5154">
        <g id="Group_5153" data-name="Group 5153" clip-path="url(#clip-path-2)">
          <path id="Path_10721" data-name="Path 10721" d="M48.095,301,.886,379.122H95.3Z" transform="translate(377.96 -221.836)" fill="none" stroke="#fff" stroke-width="1"/>
          <path id="Path_10722" data-name="Path 10722" d="M394.626,454.122,441.835,376H347.417Z" transform="translate(-346.377 -374.958)" fill="none" stroke="#fff" stroke-width="1"/>
        </g>
      </g>
      <path id="Path_10723" data-name="Path 10723" d="M351.305,226,304.1,304.122h94.418Z" transform="translate(-255.826 -68.714)" fill="none" stroke="#fff" stroke-width="1"/>
      <g id="Group_5156" data-name="Group 5156">
        <g id="Group_5155" data-name="Group 5155" clip-path="url(#clip-path-2)">
          <path id="Path_10724" data-name="Path 10724" d="M351.305,376,304.1,454.122h94.418Z" transform="translate(-255.826 -374.958)" fill="none" stroke="#fff" stroke-width="1"/>
        </g>
      </g>
      <path id="Path_10725" data-name="Path 10725" d="M264.664,226l-47.209,78.122h94.418Z" transform="translate(-74.724 -68.714)" fill="none" stroke="#fff" stroke-width="1"/>
      <path id="Path_10726" data-name="Path 10726" d="M307.965,301l-47.209,78.122h94.418Z" transform="translate(-165.234 -221.836)" fill="none" stroke="#fff" stroke-width="1"/>
      <g id="Group_5158" data-name="Group 5158">
        <g id="Group_5157" data-name="Group 5157" clip-path="url(#clip-path-2)">
          <path id="Path_10727" data-name="Path 10727" d="M394.645,301l-47.209,78.122h94.418Z" transform="translate(-346.417 -221.836)" fill="none" stroke="#fff" stroke-width="1"/>
        </g>
      </g>
      <path id="Path_10728" data-name="Path 10728" d="M351.374,229.122,398.583,151H304.165Z" transform="translate(-255.969 84.409)" fill="none" stroke="#fff" stroke-width="1"/>
      <g id="Group_5160" data-name="Group 5160">
        <g id="Group_5159" data-name="Group 5159" clip-path="url(#clip-path-2)">
          <path id="Path_10729" data-name="Path 10729" d="M351.374,79.122,398.583,1H304.165Z" transform="translate(-255.969 390.654)" fill="none" stroke="#fff" stroke-width="1"/>
          <path id="Path_10730" data-name="Path 10730" d="M394.714,154.122,441.923,76H347.5Z" transform="translate(-346.56 237.531)" fill="none" stroke="#fff" stroke-width="1"/>
          <path id="Path_10731" data-name="Path 10731" d="M308.053,1,260.844,79.122h94.418Z" transform="translate(-165.418 390.654)" fill="none" stroke="#fff" stroke-width="1"/>
        </g>
      </g>
    </g>
  </g>
</svg>
