<svg xmlns="http://www.w3.org/2000/svg" xmlns:xlink="http://www.w3.org/1999/xlink" width="92" height="110" viewBox="0 0 92 110">
  <defs>
    <clipPath id="clip-path">
      <rect id="Rectangle_4951" data-name="Rectangle 4951" width="92" height="110" transform="translate(-0.057 0.57)" fill="#fff" stroke="#707070" stroke-width="1"/>
    </clipPath>
    <clipPath id="clip-path-2">
      <rect id="Rectangle_4944" data-name="Rectangle 4944" width="106.755" height="110.934" fill="none" stroke="#707070" stroke-width="0.5"/>
    </clipPath>
  </defs>
  <g id="Mask_Group_4524" data-name="Mask Group 4524" transform="translate(0.057 -0.57)" clip-path="url(#clip-path)">
    <g id="Group_5737" data-name="Group 5737" transform="translate(-15.096 0.231)">
      <g id="Group_5724" data-name="Group 5724">
        <g id="Group_5723" data-name="Group 5723" clip-path="url(#clip-path-2)">
          <path id="Path_11306" data-name="Path 11306" d="M184.815,394.407,195.443,376H174.188Z" transform="translate(-131.438 -375.755)" fill="none" stroke="#f40" stroke-width="0.5"/>
        </g>
      </g>
      <path id="Path_11307" data-name="Path 11307" d="M184.815,244.407,195.443,226H174.188Z" transform="translate(-131.438 -188.94)" fill="none" stroke="#f40" stroke-width="0.5"/>
      <g id="Group_5726" data-name="Group 5726">
        <g id="Group_5725" data-name="Group 5725" clip-path="url(#clip-path-2)">
          <path id="Path_11308" data-name="Path 11308" d="M271.457,394.407,282.084,376H260.829Z" transform="translate(-239.344 -375.755)" fill="none" stroke="#f40" stroke-width="0.5"/>
          <path id="Path_11309" data-name="Path 11309" d="M98.135,394.407,108.762,376H87.508Z" transform="translate(-23.484 -375.755)" fill="none" stroke="#f40" stroke-width="0.5"/>
        </g>
      </g>
      <path id="Path_11310" data-name="Path 11310" d="M228.155,319.407,238.783,301H217.528Z" transform="translate(-185.415 -282.347)" fill="none" stroke="#f40" stroke-width="0.5"/>
      <path id="Path_11311" data-name="Path 11311" d="M141.475,319.407,152.1,301H130.848Z" transform="translate(-77.461 -282.347)" fill="none" stroke="#f40" stroke-width="0.5"/>
      <path id="Path_11312" data-name="Path 11312" d="M141.495,226l-10.627,18.407h21.255Z" transform="translate(-77.485 -188.94)" fill="none" stroke="#f40" stroke-width="0.5"/>
      <path id="Path_11313" data-name="Path 11313" d="M98.154,301,87.527,319.407h21.255Z" transform="translate(-23.508 -282.347)" fill="none" stroke="#f40" stroke-width="0.5"/>
      <g id="Group_5728" data-name="Group 5728">
        <g id="Group_5727" data-name="Group 5727" clip-path="url(#clip-path-2)">
          <path id="Path_11314" data-name="Path 11314" d="M11.494,394.407,22.121,376H.866Z" transform="translate(84.421 -375.755)" fill="none" stroke="#f40" stroke-width="0.5"/>
        </g>
      </g>
      <path id="Path_11315" data-name="Path 11315" d="M54.834,319.407,65.461,301H44.206Z" transform="translate(30.444 -282.347)" fill="#f40" stroke="#707070" stroke-width="0.5"/>
      <path id="Path_11316" data-name="Path 11316" d="M54.834,319.407,65.461,301H44.206Z" transform="translate(30.444 -282.347)" fill="none" stroke="#f40" stroke-width="0.5"/>
      <g id="Group_5730" data-name="Group 5730">
        <g id="Group_5729" data-name="Group 5729" clip-path="url(#clip-path-2)">
          <path id="Path_11317" data-name="Path 11317" d="M11.513,301,.886,319.407H22.14Z" transform="translate(84.397 -282.347)" fill="none" stroke="#f40" stroke-width="0.5"/>
          <path id="Path_11318" data-name="Path 11318" d="M358.044,394.407,368.672,376H347.417Z" transform="translate(-347.183 -375.755)" fill="none" stroke="#f40" stroke-width="0.5"/>
        </g>
      </g>
      <path id="Path_11319" data-name="Path 11319" d="M314.724,226,304.1,244.407h21.255Z" transform="translate(-293.23 -188.94)" fill="none" stroke="#f40" stroke-width="0.5"/>
      <g id="Group_5732" data-name="Group 5732">
        <g id="Group_5731" data-name="Group 5731" clip-path="url(#clip-path-2)">
          <path id="Path_11320" data-name="Path 11320" d="M314.724,376,304.1,394.407h21.255Z" transform="translate(-293.23 -375.755)" fill="none" stroke="#f40" stroke-width="0.5"/>
        </g>
      </g>
      <path id="Path_11321" data-name="Path 11321" d="M228.082,226l-10.627,18.407H238.71Z" transform="translate(-185.324 -188.94)" fill="none" stroke="#f40" stroke-width="0.5"/>
      <path id="Path_11322" data-name="Path 11322" d="M271.384,301l-10.627,18.407h21.255Z" transform="translate(-239.253 -282.347)" fill="none" stroke="#f40" stroke-width="0.5"/>
      <g id="Group_5734" data-name="Group 5734">
        <g id="Group_5733" data-name="Group 5733" clip-path="url(#clip-path-2)">
          <path id="Path_11323" data-name="Path 11323" d="M358.064,301l-10.627,18.407h21.255Z" transform="translate(-347.207 -282.347)" fill="none" stroke="#f40" stroke-width="0.5"/>
        </g>
      </g>
      <path id="Path_11324" data-name="Path 11324" d="M314.792,169.407,325.419,151H304.165Z" transform="translate(-293.315 -95.533)" fill="none" stroke="#f40" stroke-width="0.5"/>
      <g id="Group_5736" data-name="Group 5736">
        <g id="Group_5735" data-name="Group 5735" clip-path="url(#clip-path-2)">
          <path id="Path_11325" data-name="Path 11325" d="M314.792,19.407,325.419,1H304.165Z" transform="translate(-293.315 91.282)" fill="none" stroke="#f40" stroke-width="0.5"/>
          <path id="Path_11326" data-name="Path 11326" d="M358.132,94.407,368.759,76H347.5Z" transform="translate(-347.292 -2.125)" fill="none" stroke="#f40" stroke-width="0.5"/>
          <path id="Path_11327" data-name="Path 11327" d="M271.471,1,260.844,19.407H282.1Z" transform="translate(-239.363 91.282)" fill="none" stroke="#f40" stroke-width="0.5"/>
        </g>
      </g>
    </g>
  </g>
</svg>
