<svg xmlns="http://www.w3.org/2000/svg" xmlns:xlink="http://www.w3.org/1999/xlink" width="261" height="299" viewBox="0 0 261 299">
  <defs>
    <clipPath id="clip-path">
      <rect id="Rectangle_2842" data-name="Rectangle 2842" width="261" height="299" transform="translate(0 -0.225)" fill="#fff" stroke="#707070" stroke-width="1"/>
    </clipPath>
    <clipPath id="clip-path-2">
      <rect id="Rectangle_2835" data-name="Rectangle 2835" width="302.874" height="300.695" fill="none" stroke="rgba(0,0,0,0)" stroke-width="1"/>
    </clipPath>
  </defs>
  <g id="Mask_Group_142" data-name="Mask Group 142" transform="translate(0 0.225)" clip-path="url(#clip-path)">
    <g id="Group_2889" data-name="Group 2889" transform="translate(0.518 0.252)">
      <g id="Group_2876" data-name="Group 2876" transform="translate(0 0)">
        <g id="Group_2875" data-name="Group 2875" clip-path="url(#clip-path-2)">
          <path id="Path_7014" data-name="Path 7014" d="M204.339,376l-30.151,49.894h60.3Z" transform="translate(-52.9 -125.864)" fill="none" stroke="#f40" stroke-width="1"/>
        </g>
      </g>
      <path id="Path_7015" data-name="Path 7015" d="M204.339,226l-30.151,49.894h60.3Z" transform="translate(-52.9 -75.653)" fill="none" stroke="#f40" stroke-width="1"/>
      <g id="Group_2878" data-name="Group 2878" transform="translate(0 0)">
        <g id="Group_2877" data-name="Group 2877" clip-path="url(#clip-path-2)">
          <path id="Path_7016" data-name="Path 7016" d="M290.98,376l-30.151,49.894h60.3Z" transform="translate(-79.212 -125.864)" fill="none" stroke="#f40" stroke-width="1"/>
          <path id="Path_7017" data-name="Path 7017" d="M117.658,376,87.508,425.894h60.3Z" transform="translate(-26.576 -125.864)" fill="none" stroke="#f40" stroke-width="1"/>
        </g>
      </g>
      <path id="Path_7018" data-name="Path 7018" d="M247.679,301l-30.151,49.894h60.3Z" transform="translate(-66.062 -100.759)" fill="none" stroke="#f40" stroke-width="1"/>
      <path id="Path_7019" data-name="Path 7019" d="M161,301l-30.151,49.894h60.3Z" transform="translate(-39.738 -100.759)" fill="none" stroke="#f40" stroke-width="1"/>
      <path id="Path_7020" data-name="Path 7020" d="M161.018,275.894,191.169,226h-60.3Z" transform="translate(-39.744 -75.653)" fill="none" stroke="#f40" stroke-width="1"/>
      <path id="Path_7021" data-name="Path 7021" d="M117.678,350.894,147.829,301h-60.3Z" transform="translate(-26.582 -100.759)" fill="none" stroke="#f40" stroke-width="1"/>
      <g id="Group_2880" data-name="Group 2880" transform="translate(0 0)">
        <g id="Group_2879" data-name="Group 2879" clip-path="url(#clip-path-2)">
          <path id="Path_7022" data-name="Path 7022" d="M31.017,376,.866,425.894h60.3Z" transform="translate(-0.263 -125.864)" fill="none" stroke="#f40" stroke-width="1"/>
        </g>
      </g>
      <path id="Path_7023" data-name="Path 7023" d="M74.357,301,44.206,350.894h60.3Z" transform="translate(-13.425 -100.759)" fill="#f40" stroke="rgba(0,0,0,0)" stroke-width="1"/>
      <path id="Path_7024" data-name="Path 7024" d="M74.357,301,44.206,350.894h60.3Z" transform="translate(-13.425 -100.759)" fill="none" stroke="#f40" stroke-width="1"/>
      <g id="Group_2882" data-name="Group 2882" transform="translate(0 0)">
        <g id="Group_2881" data-name="Group 2881" clip-path="url(#clip-path-2)">
          <path id="Path_7025" data-name="Path 7025" d="M31.036,350.894,61.187,301H.886Z" transform="translate(-0.269 -100.759)" fill="none" stroke="#f40" stroke-width="1"/>
          <path id="Path_7026" data-name="Path 7026" d="M377.568,376l-30.151,49.894h60.3Z" transform="translate(-105.509 -125.864)" fill="none" stroke="#f40" stroke-width="1"/>
        </g>
      </g>
      <path id="Path_7027" data-name="Path 7027" d="M334.247,275.894,364.4,226H304.1Z" transform="translate(-92.352 -75.653)" fill="none" stroke="#f40" stroke-width="1"/>
      <g id="Group_2884" data-name="Group 2884" transform="translate(0 0)">
        <g id="Group_2883" data-name="Group 2883" clip-path="url(#clip-path-2)">
          <path id="Path_7028" data-name="Path 7028" d="M334.247,425.894,364.4,376H304.1Z" transform="translate(-92.352 -125.864)" fill="none" stroke="#f40" stroke-width="1"/>
        </g>
      </g>
      <path id="Path_7029" data-name="Path 7029" d="M247.606,275.894,277.756,226h-60.3Z" transform="translate(-66.04 -75.653)" fill="none" stroke="#f40" stroke-width="1"/>
      <path id="Path_7030" data-name="Path 7030" d="M290.907,350.894,321.058,301h-60.3Z" transform="translate(-79.19 -100.759)" fill="none" stroke="#f40" stroke-width="1"/>
      <g id="Group_2886" data-name="Group 2886" transform="translate(0 0)">
        <g id="Group_2885" data-name="Group 2885" clip-path="url(#clip-path-2)">
          <path id="Path_7031" data-name="Path 7031" d="M377.587,350.894,407.738,301h-60.3Z" transform="translate(-105.515 -100.759)" fill="none" stroke="#f40" stroke-width="1"/>
        </g>
      </g>
      <path id="Path_7032" data-name="Path 7032" d="M334.315,151l-30.151,49.894h60.3Z" transform="translate(-92.373 -50.547)" fill="none" stroke="#f40" stroke-width="1"/>
      <g id="Group_2888" data-name="Group 2888" transform="translate(0 0)">
        <g id="Group_2887" data-name="Group 2887" clip-path="url(#clip-path-2)">
          <path id="Path_7033" data-name="Path 7033" d="M334.315,1,304.165,50.894h60.3Z" transform="translate(-92.373 -0.335)" fill="none" stroke="#f40" stroke-width="1"/>
          <path id="Path_7034" data-name="Path 7034" d="M377.656,76,347.5,125.894h60.3Z" transform="translate(-105.535 -25.441)" fill="none" stroke="#f40" stroke-width="1"/>
          <path id="Path_7035" data-name="Path 7035" d="M290.995,50.894,321.146,1h-60.3Z" transform="translate(-79.217 -0.335)" fill="none" stroke="#f40" stroke-width="1"/>
        </g>
      </g>
    </g>
  </g>
</svg>
