<svg xmlns="http://www.w3.org/2000/svg" xmlns:xlink="http://www.w3.org/1999/xlink" width="177" height="213" viewBox="0 0 177 213">
  <defs>
    <clipPath id="clip-path">
      <rect id="Rectangle_4941" data-name="Rectangle 4941" width="177" height="213" transform="translate(0.484 -0.397)" fill="#fff" stroke="#707070" stroke-width="1"/>
    </clipPath>
    <clipPath id="clip-path-2">
      <rect id="Rectangle_4934" data-name="Rectangle 4934" width="205.957" height="214.019" fill="none"/>
    </clipPath>
  </defs>
  <g id="Mask_Group_4522" data-name="Mask Group 4522" transform="translate(-0.484 0.397)" clip-path="url(#clip-path)">
    <g id="Group_5706" data-name="Group 5706" transform="translate(-28.763 -1.497)">
      <g id="Group_5693" data-name="Group 5693">
        <g id="Group_5692" data-name="Group 5692" clip-path="url(#clip-path-2)">
          <path id="Path_11282" data-name="Path 11282" d="M194.691,411.512,215.193,376H174.188Z" transform="translate(-91.713 -375.526)" fill="none" stroke="#f40" stroke-width="1"/>
        </g>
      </g>
      <path id="Path_11283" data-name="Path 11283" d="M194.691,261.512,215.193,226H174.188Z" transform="translate(-91.713 -154.502)" fill="none" stroke="#f40" stroke-width="1"/>
      <g id="Group_5695" data-name="Group 5695">
        <g id="Group_5694" data-name="Group 5694" clip-path="url(#clip-path-2)">
          <path id="Path_11284" data-name="Path 11284" d="M281.332,411.512,301.835,376H260.829Z" transform="translate(-219.379 -375.526)" fill="none" stroke="#f40" stroke-width="1"/>
          <path id="Path_11285" data-name="Path 11285" d="M108.01,411.512,128.513,376H87.508Z" transform="translate(36.01 -375.526)" fill="none" stroke="#f40" stroke-width="1"/>
        </g>
      </g>
      <path id="Path_11286" data-name="Path 11286" d="M238.031,336.512,258.533,301H217.528Z" transform="translate(-155.574 -265.014)" fill="none" stroke="#f40" stroke-width="1"/>
      <path id="Path_11287" data-name="Path 11287" d="M151.351,336.512,171.853,301H130.848Z" transform="translate(-27.852 -265.014)" fill="none" stroke="#f40" stroke-width="1"/>
      <path id="Path_11288" data-name="Path 11288" d="M151.37,226l-20.5,35.512h41.006Z" transform="translate(-27.88 -154.502)" fill="none" stroke="#f40" stroke-width="1"/>
      <path id="Path_11289" data-name="Path 11289" d="M108.03,301l-20.5,35.512h41.006Z" transform="translate(35.981 -265.014)" fill="none" stroke="#f40" stroke-width="1"/>
      <g id="Group_5697" data-name="Group 5697">
        <g id="Group_5696" data-name="Group 5696" clip-path="url(#clip-path-2)">
          <path id="Path_11290" data-name="Path 11290" d="M21.369,411.512,41.872,376H.866Z" transform="translate(163.675 -375.526)" fill="none" stroke="#f40" stroke-width="1"/>
        </g>
      </g>
      <path id="Path_11291" data-name="Path 11291" d="M64.709,336.512,85.212,301H44.206Z" transform="translate(99.814 -265.014)" fill="#f40"/>
      <path id="Path_11292" data-name="Path 11292" d="M64.709,336.512,85.212,301H44.206Z" transform="translate(99.814 -265.014)" fill="none" stroke="#f40" stroke-width="1"/>
      <g id="Group_5699" data-name="Group 5699">
        <g id="Group_5698" data-name="Group 5698" clip-path="url(#clip-path-2)">
          <path id="Path_11293" data-name="Path 11293" d="M21.388,301,.886,336.512H41.891Z" transform="translate(163.647 -265.014)" fill="none" stroke="#f40" stroke-width="1"/>
          <path id="Path_11294" data-name="Path 11294" d="M367.92,411.512,388.423,376H347.417Z" transform="translate(-346.965 -375.526)" fill="none" stroke="#f40" stroke-width="1"/>
        </g>
      </g>
      <path id="Path_11295" data-name="Path 11295" d="M324.6,226l-20.5,35.512H345.1Z" transform="translate(-283.132 -154.502)" fill="none" stroke="#f40" stroke-width="1"/>
      <g id="Group_5701" data-name="Group 5701">
        <g id="Group_5700" data-name="Group 5700" clip-path="url(#clip-path-2)">
          <path id="Path_11296" data-name="Path 11296" d="M324.6,376l-20.5,35.512H345.1Z" transform="translate(-283.132 -375.526)" fill="none" stroke="#f40" stroke-width="1"/>
        </g>
      </g>
      <path id="Path_11297" data-name="Path 11297" d="M237.958,226l-20.5,35.512H258.46Z" transform="translate(-155.467 -154.502)" fill="none" stroke="#f40" stroke-width="1"/>
      <path id="Path_11298" data-name="Path 11298" d="M281.259,301l-20.5,35.512h41.006Z" transform="translate(-219.271 -265.014)" fill="none" stroke="#f40" stroke-width="1"/>
      <g id="Group_5703" data-name="Group 5703">
        <g id="Group_5702" data-name="Group 5702" clip-path="url(#clip-path-2)">
          <path id="Path_11299" data-name="Path 11299" d="M367.939,301l-20.5,35.512h41.006Z" transform="translate(-346.994 -265.014)" fill="none" stroke="#f40" stroke-width="1"/>
        </g>
      </g>
      <path id="Path_11300" data-name="Path 11300" d="M324.667,186.512,345.17,151H304.165Z" transform="translate(-283.233 -43.99)" fill="none" stroke="#f40" stroke-width="1"/>
      <g id="Group_5705" data-name="Group 5705">
        <g id="Group_5704" data-name="Group 5704" clip-path="url(#clip-path-2)">
          <path id="Path_11301" data-name="Path 11301" d="M324.667,36.512,345.17,1H304.165Z" transform="translate(-283.233 177.034)" fill="none" stroke="#f40" stroke-width="1"/>
          <path id="Path_11302" data-name="Path 11302" d="M368.008,111.512,388.51,76H347.5Z" transform="translate(-347.095 66.522)" fill="none" stroke="#f40" stroke-width="1"/>
          <path id="Path_11303" data-name="Path 11303" d="M281.347,1l-20.5,35.512H301.85Z" transform="translate(-219.401 177.034)" fill="none" stroke="#f40" stroke-width="1"/>
        </g>
      </g>
    </g>
  </g>
</svg>
