<svg xmlns="http://www.w3.org/2000/svg" xmlns:xlink="http://www.w3.org/1999/xlink" width="1116.318" height="657" viewBox="0 0 1116.318 657">
  <defs>
    <clipPath id="clip-path">
      <path id="Path_12081" data-name="Path 12081" d="M883.191,107.458c98.82,28.46,264.769,116.377,257.308,318.31S956.846,523.555,824.507,706.006C725.842,842.041,312.836,656.041,556.7,256.412,653.8,97.285,797.431,82.763,883.191,107.458Z" transform="translate(-480.778 -97.911)" fill="none"/>
    </clipPath>
    <clipPath id="clip-path-2">
      <rect id="Rectangle_5251" data-name="Rectangle 5251" width="338.234" height="436.183" fill="none"/>
    </clipPath>
    <linearGradient id="linear-gradient" x1="8.411" y1="1" x2="8.411" gradientUnits="objectBoundingBox">
      <stop offset="0" stop-color="#fff" stop-opacity="0"/>
      <stop offset="1" stop-color="#fff"/>
    </linearGradient>
  </defs>
  <g id="ilustras_Oqtima_0410_Prancheta_1_copia_4" transform="translate(-242.92 -97.911)">
    <g id="Group_6322" data-name="Group 6322" transform="translate(242.92 97.911)">
      <rect id="Rectangle_5249" data-name="Rectangle 5249" width="1116.318" height="4.672" transform="translate(0 652.328)"/>
      <path id="Path_11963" data-name="Path 11963" d="M883.191,107.458c98.82,28.46,264.769,116.377,257.308,318.31S956.846,523.555,824.507,706.006C725.842,842.041,312.836,656.041,556.7,256.412,653.8,97.285,797.431,82.763,883.191,107.458Z" transform="translate(-313.672 -97.911)" fill="#e6ebf0"/>
      <path id="Path_11964" data-name="Path 11964" d="M1137.8,833.381c-87.425,26.669-99.27,66.1-98.666,101.019.688,39.588,155.832,20.36,220.824-84.573S1184,819.288,1137.8,833.388Z" transform="translate(-479.75 -305.158)" fill="#e6ebf0"/>
      <g id="Group_6321" data-name="Group 6321" transform="translate(167.106)" clip-path="url(#clip-path)">
        <g id="Group_6318" data-name="Group 6318" transform="translate(400.79 69.629)">
          <rect id="Rectangle_5250" data-name="Rectangle 5250" width="337.932" height="433.246" transform="translate(343.082 443.061) rotate(180)" fill="#e6ebf0"/>
          <g id="Group_6316" data-name="Group 6316" transform="translate(5.206 4.988)" clip-path="url(#clip-path-2)">
            <g id="Group_6315" data-name="Group 6315" transform="translate(-152.202 15.595)">
              <g id="Group_6310" data-name="Group 6310" transform="translate(260.376 83.2)">
                <g id="Group_6307" data-name="Group 6307" transform="translate(25.527 188.45)">
                  <path id="Path_11965" data-name="Path 11965" d="M1249.254,666.69c.969-5.213,5.817-6.688,4.588-12.765-.7-3.449-2.677-5.115-.407-8.712a15.089,15.089,0,0,1,4.883-4.475,7.241,7.241,0,0,1-2.543-8.29,1.224,1.224,0,0,1,2.016-.534,33.8,33.8,0,0,1,4.468,5.733c.19-1.335.365-2.684.674-3.976a2.447,2.447,0,0,1,2.178-2.115c2.136-.105,2.171,1.939,1.742,3.822,3.955-2.67,7.826-5.48,11.8-8.121,1.511-1,3.133-1.988,4.812-2.944a4.863,4.863,0,0,1-1.644-2.578c-.569-2.227,1.138-4.131,3.358-2.923a13.229,13.229,0,0,1,3.421,2.824,64.252,64.252,0,0,1,7.89-3.225,5.586,5.586,0,0,1-1.89-2,2.285,2.285,0,0,1,1.742-3.393c1.764-.253,3.407.956,4.658,2.051a10.625,10.625,0,0,1,1.574,1.756c9.646-1.848,19.32-.323,26.36,8.171.415.506.787.97,1.145,1.405a8.947,8.947,0,0,1,3.386-4.728,1.011,1.011,0,0,1,.9-.19,1.279,1.279,0,0,1,1.475.653,1.226,1.226,0,0,1,.393,1.117,19.527,19.527,0,0,1-2.023,5.958,8.361,8.361,0,0,0,2,.119c1.883-.1,3.232-.485,5.115.07a11.628,11.628,0,0,1,6.084,4.967,12.969,12.969,0,0,1,1.131,2.22c3.428,8.733-3.913,16.58-10.672,20.992a.953.953,0,0,1-1.012.07c-9.295,5.6-19.5,13.468-30.364,14.964-2.079.288-4.222-.267-6.2,0-.7.07-6.225,1.714-6.829,2.269-.576.506-1.011,2.023-1.468,2.726a16.17,16.17,0,0,1-8.276,6.4c-10.714,3.934-32.2,1.475-34.509-11.8a15.31,15.31,0,0,1,.07-5.529Z" transform="translate(-1248.979 -612.982)" fill="#c6d0db"/>
                  <path id="Path_11966" data-name="Path 11966" d="M1249.27,681.279c2.311,13.271,23.8,15.73,34.509,11.8a16.106,16.106,0,0,0,8.276-6.4c.457-.7.892-2.22,1.468-2.726.6-.555,6.133-2.192,6.829-2.269,1.981-.267,4.124.288,6.2,0,10.861-1.5,21.069-9.365,30.364-14.964a.968.968,0,0,0,1.012-.07c6.758-4.412,14.093-12.259,10.672-20.992a12.718,12.718,0,0,0-1.131-2.22c-3.625,11.585-15.716,18.266-28.095,14.627a1.213,1.213,0,0,0-1.517,1.159c.773,6.372-5.065,9.723-10.566,10.018-3.836.218-7.946-1.426-11.536-2.677a1.217,1.217,0,0,0-1.525,1.159,10.686,10.686,0,0,1-5.48,9.1c-1.229.653-2.923.625-4.075,1.328-1.862,1.089-1.595,2.122-2.578,3.815-6.105,10.257-22.9,1.981-31.277-1.475a1.154,1.154,0,0,0-1.159.316c-.141.169-.26.316-.386.485Z" transform="translate(-1249.065 -622.042)" fill="#aab6c2"/>
                  <path id="Path_11967" data-name="Path 11967" d="M1365.3,658.3a1.163,1.163,0,0,1,.351-.26c-.035-.225-.056-.457-.1-.7-.3-1.518,2.023-2.164,2.325-.639a13.564,13.564,0,0,1-2.445,11,1.225,1.225,0,0,1-2.206-.288,9.365,9.365,0,0,1,2.065-9.119Z" transform="translate(-1282.836 -625.727)" fill="#c6d0db"/>
                  <path id="Path_11968" data-name="Path 11968" d="M1322.383,673.3a.951.951,0,0,1,.977-.148,24.682,24.682,0,0,0,1.307-3.9c.358-1.51,2.691-.871,2.333.646a26.41,26.41,0,0,1-5.241,10.566,1.213,1.213,0,0,1-2.016-.534,6.512,6.512,0,0,1,2.642-6.625Z" transform="translate(-1269.993 -629.464)" fill="#c6d0db"/>
                  <path id="Path_11969" data-name="Path 11969" d="M1289.573,692.575c2.529,2.88,5.578,7.861,1.574,10.995a1.23,1.23,0,0,1-2.023-.534,17.62,17.62,0,0,1-.344-6.962.827.827,0,0,1,.2-.414c-.379-.5-.766-.977-1.117-1.377-1.026-1.159.674-2.873,1.707-1.707Z" transform="translate(-1260.451 -636.541)" fill="#c6d0db"/>
                  <path id="Path_11970" data-name="Path 11970" d="M1338.462,633.006c3.843-2.642,4.77,8.22,4.679,10.145.773,1.2-.836,2.789-1.763,1.6a17.775,17.775,0,0,1-3.295-6.47c-.365-1.44-1.173-4.208.379-5.269Z" transform="translate(-1275.323 -618.816)" fill="#aab6c2"/>
                  <path id="Path_11971" data-name="Path 11971" d="M1308.811,649.346a.454.454,0,0,1-.084-.084,25.162,25.162,0,0,1-3.857-11.873,1.233,1.233,0,0,1,.885-1.166c2.726-.85,3.941,2.445,4.63,4.5a20.42,20.42,0,0,1,.513,10.679c-.309,1.517-2.635.878-2.325-.639.1-.471.168-.948.232-1.419Z" transform="translate(-1265.603 -619.854)" fill="#aab6c2"/>
                  <path id="Path_11972" data-name="Path 11972" d="M1301.354,666.553a1.275,1.275,0,0,1,2.079,1,1.145,1.145,0,0,1,.133.576,7.62,7.62,0,0,1-2.894,5.81,1.228,1.228,0,0,1-1.9-.246c-1.56-2.831.45-5.367,2.571-7.152Z" transform="translate(-1263.626 -628.828)" fill="#c6d0db"/>
                  <path id="Path_11973" data-name="Path 11973" d="M1263.108,669.426c-.133-2.318,2.122-3.077,3.991-2.332a22.628,22.628,0,0,1,4.974,2.923,31.8,31.8,0,0,1,3.442,1.763c.955.576.639,2.382-.611,2.248a1.269,1.269,0,0,1-.162-.007,1.2,1.2,0,0,1-1.553-.035c-.014-.014-.035-.021-.049-.035-3.871-.07-9.772.126-10.032-4.517Z" transform="translate(-1253.18 -628.995)" fill="#aab6c2"/>
                </g>
                <g id="Group_6308" data-name="Group 6308" transform="translate(177.021 191.643)">
                  <path id="Path_11974" data-name="Path 11974" d="M1465.672,629.142c2.079-4.559,7.482-11.269,12.934-10.932a8.79,8.79,0,0,1,1.764.267,20.763,20.763,0,0,1,5.937,2.466c-.2-.66-.386-1.328-.646-1.974-.583-1.44,1.749-2.058,2.326-.639a23.056,23.056,0,0,1,1.335,4.644c.1.07.2.141.3.218.253-1.665.443-3.773,1.553-4.9a2.089,2.089,0,0,1,3.189.147c.97,1.307.288,3.049-.246,4.37-.457,1.117-.97,2.206-1.51,3.274a14.1,14.1,0,0,1,1.44,1.981c1.222,2.1,1.468,4.173,2.4,5.887.927-.962,1.862-1.925,2.789-2.887a1.215,1.215,0,0,1,2.016,1.173,15.562,15.562,0,0,1-2.037,4.279,6.43,6.43,0,0,0,.794.386c2.466.941,3.864.871,5.67,3.063a25.192,25.192,0,0,1,4.679,9.99,17.83,17.83,0,0,1,0,9.168,9.931,9.931,0,0,1-5.044,6.126,13.443,13.443,0,0,1-3.141.843,12.808,12.808,0,0,0-7.236,2.269,6.1,6.1,0,0,1-1.377,1.377c-12.548,4.173-13.44-19-22.32-23.289a1,1,0,0,1-.583-1.159c-4.342-4.468-7.89-9.723-5-16.145Z" transform="translate(-1464.614 -617.527)" fill="#c6d0db"/>
                  <path id="Path_11975" data-name="Path 11975" d="M1470.67,645.571a.992.992,0,0,0,.583,1.159c8.88,4.293,9.772,27.463,22.32,23.289a6.243,6.243,0,0,0,1.377-1.377,12.824,12.824,0,0,1,7.236-2.269,13.546,13.546,0,0,0,3.14-.843,9.955,9.955,0,0,0,5.044-6.126,17.83,17.83,0,0,0,0-9.168c-.773,2.023-1.11,4.222-2.192,6.056-2.508,4.222-7.6,4.707-11.922,4.054-4.2-.625-9.772-1.834-8.81-7.075.267-1.4.745-2.873.386-4.321-.843-3.471-5.142-4.609-7.412-7-6.224-6.562-5.648-16.433-.1-23.121.021-.028.049-.049.049-.07a8.721,8.721,0,0,0-1.763-.267c-5.459-.337-10.861,6.372-12.934,10.932-2.895,6.421.653,11.676,5,16.144Z" transform="translate(-1464.617 -617.811)" fill="#aab6c2"/>
                  <path id="Path_11976" data-name="Path 11976" d="M1506.235,673.127a.958.958,0,0,1,.941-.6,1.338,1.338,0,0,1,1.777,1.075,17.955,17.955,0,0,1-.443,6.534,1.22,1.22,0,0,1-2.206.288,8.1,8.1,0,0,1-.077-7.3Z" transform="translate(-1476.745 -633.866)" fill="#c6d0db"/>
                  <path id="Path_11977" data-name="Path 11977" d="M1496.884,669.679a.969.969,0,0,1,1.194-.021,1.226,1.226,0,0,1,1.658,1.651,10.483,10.483,0,0,1-4.285,4.229,1.22,1.22,0,0,1-1.77-1.363,8.107,8.107,0,0,1,3.2-4.5Z" transform="translate(-1473.246 -632.975)" fill="#c6d0db"/>
                  <path id="Path_11978" data-name="Path 11978" d="M1475.339,636.628a12.984,12.984,0,0,1,4.1-.78,22.468,22.468,0,0,1-4.033-3.161,1.219,1.219,0,0,1,.85-2.058,7.214,7.214,0,0,1,6.808,4.215,1.323,1.323,0,0,1-1.117,1.827,1.268,1.268,0,0,1-.316.1,1.19,1.19,0,0,1-.218,1.166c-.977,1.187-2.206,2.438-3.857,2.445a3.026,3.026,0,0,1-3.056-2.269,1.237,1.237,0,0,1,.843-1.482Z" transform="translate(-1467.543 -621.423)" fill="#c6d0db"/>
                  <path id="Path_11979" data-name="Path 11979" d="M1511.049,657.013a4.272,4.272,0,0,1,2.853.253,4.565,4.565,0,0,1,2.923,1.131,2.747,2.747,0,0,1,.379,3.344c-1.946,3.246-5.276-1.314-6.688-2.712a1.218,1.218,0,0,1,.534-2.016Z" transform="translate(-1478.166 -629.232)" fill="#aab6c2"/>
                  <path id="Path_11980" data-name="Path 11980" d="M1497.617,633.055a1.217,1.217,0,0,1,2.248.611,25.582,25.582,0,0,1-.126,7.025c-.176,1.173-1.581,1.061-2.122.253a1.029,1.029,0,0,1-.485-.492,7.286,7.286,0,0,1,.492-7.391Z" transform="translate(-1474.056 -621.973)" fill="#aab6c2"/>
                  <path id="Path_11981" data-name="Path 11981" d="M1498.559,651.575c.133-.4.267-.8.4-1.208.492-1.468,2.824-.836,2.325.639-.133.4-.267.808-.4,1.208-.492,1.468-2.824.836-2.332-.646Z" transform="translate(-1474.688 -627.047)" fill="#c6d0db"/>
                </g>
                <g id="Group_6309" data-name="Group 6309">
                  <path id="Path_11982" data-name="Path 11982" d="M1218.205,457.2a5.085,5.085,0,0,1-1.784-1.208c-2.873-3.386.66-5.993,3.218-7.8q4.816-3.4,9.632-6.8c2.831-3.485,5.684-6.773,8.234-9.758a29.178,29.178,0,0,1-3.681-18.168,14.576,14.576,0,0,1-1.7-12.7c1.159-3.534,6.351-2.4,6.182.829a42.5,42.5,0,0,1,5.065-6.463,13.744,13.744,0,0,1-3.513-6.2,1.212,1.212,0,0,1,.843-1.482c1.749-.372,3.028.562,4.138,1.848.1.119.2.246.3.365a8.122,8.122,0,0,1,.71.864c.337.407.674.822,1.012,1.229a75.021,75.021,0,0,1,26.725-14.627c.45-.141.871-.288,1.314-.429a11.291,11.291,0,0,1-1.258-8.388,1.222,1.222,0,0,1,2.016-.534,12.191,12.191,0,0,1,3.4,5.325,25.52,25.52,0,0,1,2.494-6.182,2.883,2.883,0,0,1,1.222-1.18,29.3,29.3,0,0,1,2.368-3.133,1.223,1.223,0,0,1,1.9.246,9.086,9.086,0,0,1,1.848,5.726c.077.555.141,1.11.218,1.658a64.7,64.7,0,0,0,11.929-10.138,53.216,53.216,0,0,1,5.241-4.693c-2.487-1.686.365-7.412,1.194-9.309.393-.892,1.637-.667,2.087,0a11.544,11.544,0,0,1,1.946,5.719,45.757,45.757,0,0,1,7.51-3.576c11.775-4.384,24.5-3.948,36.385-.485a2.609,2.609,0,0,1,.7-2.508c1.131-1.117,2.3-.176,2.909.9.646,1.138,1.258,2.29,1.883,3.443,1.447.548,2.887,1.124,4.292,1.749a88.994,88.994,0,0,0,14.606,5.107,23.981,23.981,0,0,1-.934-3.253c-.232-1.2-.7-3.084.583-3.878,1.223-.752,2.838.358,3.8,1.11,2.417,1.89,3.569,4.644,4.271,7.524a95.284,95.284,0,0,0,10.032.892,82.529,82.529,0,0,1,10.616,1.131c-1.033-2.719-1.04-6.506,1.707-8.044,3.169-1.777,6.527,2.136,8.459,4.145a38.163,38.163,0,0,1,5.986,8.388,79.167,79.167,0,0,1,19.966,11.346c1.328,1.054,2.494,1.946,3.674,2.845a24.707,24.707,0,0,1,11.683-7.531c3.646-1.075,5.276,4.11,2.318,5.74a28.2,28.2,0,0,1-6.527,6.555c4.1,1.827,8.585,2.3,15.154.653,23.128-5.712,38,1.019,48.146,14.95a11.305,11.305,0,0,1,.562-2.122c.33-.885,1.707-1.3,2.206-.288a11.875,11.875,0,0,1,1.089,3.492,14.884,14.884,0,0,1,2.438-2.452,1.313,1.313,0,0,1,.246-.2c.126-.1.232-.2.358-.288a1.094,1.094,0,0,1,1.229.049c2,.871,2.93,2.7,3.246,4.841a18.332,18.332,0,0,1-1.834,15.126c.513,1.342,1,2.733,1.475,4.124a15.867,15.867,0,0,1,8.051-3.239.945.945,0,0,1,1.1.738,1.114,1.114,0,0,1,.105,1.314,10.958,10.958,0,0,1-7.868,5.044l-.106.07c.3.955.6,1.89.892,2.866a.688.688,0,0,0,.316.063c11.922,5.424,16.84,12.049,14.887,25.418-1.075,7.25-1.7,15.456-4.981,21.884,4.693,4.588,8.81,9.386,11.479,14.852.141-.112.281-.218.429-.33a2.741,2.741,0,0,1,3.021-1.932c2.7-.66,4.813,2.789,3.161,4.946a19.359,19.359,0,0,1-1.974,9.7q3.035-.3,6.077-.6c1.138-.112,1.454,1.349.85,2.058a12.081,12.081,0,0,1-8.986,4.293,39.013,39.013,0,0,1-4.981,13.693,49.493,49.493,0,0,1-19.489,18.674c-13.875,7.313-28.762,4.791-43.586,2.08-12.618-2.269-21.765-11.227-25.987-22.833-9.52,5.424-20.753,1.574-25.481-7.946a27.428,27.428,0,0,1-27.245-8.957c-5.367-6.056-5.8-11.669-8.325-18.99-2.522-7.187-.443-4.918-7.314-5.74-3.6-.506-7.131-.379-10.658-1.012-9.084-1.574-15.456-5.613-23.655-9.084-4.728-1.953-11.479-6.562-17.156-2.4-1.637,1.2-3.091,5.8-4.356,7.573a37.544,37.544,0,0,1-14.508,11.733c-8.958,4.1-19.812,1.384-27.378,7.693-11.353,9.463-19.109,21.2-35.451,22.074-9.21.506-15.329-2.333-20.556-7.377a62.833,62.833,0,0,1-6.878-8.388c-7.194-10.278-21.385-9.716-20.5-25.228.3-5.578,2.466-11.276,5.55-16.819Z" transform="translate(-1212.643 -344.744)" fill="#c6d0db"/>
                  <path id="Path_11983" data-name="Path 11983" d="M1265.576,546.363a24.64,24.64,0,0,1-13.946-7.1,13.79,13.79,0,0,1,3.534-5.613c3.976-3.969,9.843-4.728,14.887-6.435,16.208-5.613,16.847-20.5,16.341-35.261a3.249,3.249,0,0,1,3.977-3.091,53.873,53.873,0,0,0,24.224-.7c.443-.379.942-.7,1.384-1.131,2.333-2.332,1-4.855,1.195-7.756v-.127a.48.48,0,0,1,.063-.253v-.063a2.281,2.281,0,0,1,1.138-2.08c1.89-1.637,5.487-.948,5.171,2.143a.8.8,0,0,0-.063.379c.2,2,1.637,2.88,3.478,3.2a12.678,12.678,0,0,0,4.918-3.653,7.4,7.4,0,0,0,2.311-4.77,26.06,26.06,0,0,1,.386-3.759,1.086,1.086,0,0,1,.7-.724,1.25,1.25,0,0,1,2.269-.583,7.176,7.176,0,0,1,.913,6.063c.457-.436.927-.857,1.377-1.321,2.838-2.9,4.918-6.934,8.515-9.084,7.566-4.6,15.519-5.108,21.765-12.681a3.1,3.1,0,0,1,4.412,0,146.767,146.767,0,0,0,14.381,12.554c3.6,0,6.941-.948,8.7-4.166,1.89-3.407,6.751-.7,5.613,2.585a2.561,2.561,0,0,1-.948,2.459c-4.925,4.1,3.977,7.883,6.941,8.7a2.4,2.4,0,0,1,1.258.7c7.447,1.075,14.887-.7,21.638-7.51a3.235,3.235,0,0,1,4.475,0c8.522,7.257,8.073,17.283,14.065,25.481,4.665,3.724,21.639-1.2,19.686,2.332a14.1,14.1,0,0,1-6.183,5.677,39.308,39.308,0,0,1,6.562,2.332c9.084,4.545,12.681,12.112,24.983,5.866a19.514,19.514,0,0,0,4.159-5.8c1.707-3.66,7.194-.443,5.487,3.218a27.187,27.187,0,0,1-4.159,6.182c-.885,16.84-.443,35.577,17.03,44.218,14.634,7.194,30.463,3.281,44.6-3.028a49.492,49.492,0,0,1-19.489,18.674c-10.292,5.424-21.133,5.431-32.1,3.969a17.58,17.58,0,0,1,1.1,2.354c.4,1.082-.773,1.707-1.63,1.363a1.211,1.211,0,0,1-1.251.126,12.42,12.42,0,0,1-5.438-4.967c-1.426-.246-2.852-.506-4.271-.766a32.442,32.442,0,0,1-14.044-6.182,2.392,2.392,0,0,1-2.656,1.686,1.859,1.859,0,0,1-.836-.358,1.181,1.181,0,0,1-1.166-1.152c-.063-1.489-.028-2.979.042-4.468a37.953,37.953,0,0,1-7.334-12.365c-9.52,5.424-20.753,1.574-25.481-7.946a28.88,28.88,0,0,1-8.6.583,7.478,7.478,0,0,1-.513,2.424,1.268,1.268,0,0,1-1.342.808.988.988,0,0,1-1.5-.105,11.475,11.475,0,0,1-2.15-4.131,28.163,28.163,0,0,1-13.145-8.529c-5.367-6.056-5.8-11.669-8.325-18.99-2.522-7.187-.443-4.918-7.314-5.74-3.6-.506-7.131-.379-10.657-1.012a51.813,51.813,0,0,1-12.239-3.871,17.327,17.327,0,0,1-4.257,1.834,1.217,1.217,0,0,1-1.524-1.166,2.538,2.538,0,0,1,1.222-2.227,4.322,4.322,0,0,1,.6-.26c-1.11-.52-2.234-1.054-3.379-1.581a13.028,13.028,0,0,1-.555,1.187,1.223,1.223,0,0,1-2.206-.288,8.73,8.73,0,0,1-.52-2.368c-.267-.112-.52-.239-.794-.351-4.728-1.953-11.479-6.562-17.156-2.4-1.637,1.2-3.091,5.8-4.356,7.574a37.672,37.672,0,0,1-12.653,10.742,36.186,36.186,0,0,1-4.264,6.611,1.212,1.212,0,0,1-2.016-.534,10.217,10.217,0,0,1,.155-3.632,91.7,91.7,0,0,1-10.194,1.588,6.252,6.252,0,0,1-1.932,5.136,1.216,1.216,0,0,1-2.016-.534,12.048,12.048,0,0,1-.161-3.913,19.7,19.7,0,0,0-8.8,3.955c-11.227,9.358-18.955,20.915-34.924,22.025a21.534,21.534,0,0,1-7.9,3.19c-1.061.2-2.2-1.173-1.173-2.016a22.815,22.815,0,0,1,1.925-1.405Z" transform="translate(-1224.24 -376.364)" fill="#aab6c2"/>
                  <path id="Path_11984" data-name="Path 11984" d="M1603.656,458.106a26.806,26.806,0,0,1,7.5-12,3.231,3.231,0,0,1,5.241,1.468,2.854,2.854,0,0,1,.435,2.564,19.913,19.913,0,0,1-8.543,11.529C1605.988,463.157,1602.855,460.684,1603.656,458.106Z" transform="translate(-1328.913 -374.639)" fill="#aab6c2"/>
                  <path id="Path_11985" data-name="Path 11985" d="M1510.692,427.074c-.569-3.478,4.946-4.833,6.14-1.173a25.4,25.4,0,0,1,1.187,10.131c-.239,2.824-4.377,4.658-5.873,1.588a16.338,16.338,0,0,1-1.454-10.552Z" transform="translate(-1301.209 -368.238)" fill="#aab6c2"/>
                  <path id="Path_11986" data-name="Path 11986" d="M1634.844,505.694a14.792,14.792,0,0,1,12.393-8.079c3.955-.309,4,5.67.239,6.239a2.634,2.634,0,0,1-.541,1.609,11.4,11.4,0,0,1-9.372,4.974A3.185,3.185,0,0,1,1634.844,505.694Z" transform="translate(-1338.119 -390.213)" fill="#aab6c2"/>
                  <path id="Path_11987" data-name="Path 11987" d="M1398.945,459.864a1.021,1.021,0,0,1,.632-.492.129.129,0,0,0-.014-.049c-.485-1.482,1.848-2.115,2.325-.646,1.061,3.253,1.609,7.306-.548,9.969a1.5,1.5,0,0,1-.133.162,6.31,6.31,0,0,1-1.869,1.5,1.216,1.216,0,0,1-1.771-.724,16.3,16.3,0,0,1,1.377-9.73Z" transform="translate(-1267.585 -378.386)" fill="#c6d0db"/>
                  <path id="Path_11988" data-name="Path 11988" d="M1435.84,459.426a1.237,1.237,0,0,1,1.588,1.693,9.158,9.158,0,0,1-5.276,4.433,1.216,1.216,0,0,1-1.482-1.482A5.938,5.938,0,0,1,1435.84,459.426Z" transform="translate(-1277.488 -378.825)" fill="#c6d0db"/>
                  <path id="Path_11989" data-name="Path 11989" d="M1458.343,476.092a30.712,30.712,0,0,1,7.819-7.4c1.3-.857,2.508,1.237,1.222,2.087a27.259,27.259,0,0,0-3.141,2.424c.141-.042.281-.1.429-.141.056-.014.1.014.155,0,.7-.141,1.468.211,1.37,1.1-.021.211-.014.422-.035.639a1.222,1.222,0,0,1,.934.344c0-.112.014-.218.014-.33a1.216,1.216,0,0,1,2.375-.323c1.475,4.2,1.286,9.049-2.761,11.7a1.218,1.218,0,0,1-1.77-.724,27.246,27.246,0,0,1-1.314-8.185,6.1,6.1,0,0,1-4.573.576,1.219,1.219,0,0,1-.724-1.77Z" transform="translate(-1285.673 -381.553)" fill="#c6d0db"/>
                  <path id="Path_11990" data-name="Path 11990" d="M1550.119,521.371a59.711,59.711,0,0,1,10.026-3.154,1.219,1.219,0,0,1,.976,2.178,1.237,1.237,0,0,1,.105,2.129,11.653,11.653,0,0,1-11.107,1.173A1.219,1.219,0,0,1,1550.119,521.371Z" transform="translate(-1312.773 -396.334)" fill="#c6d0db"/>
                  <path id="Path_11991" data-name="Path 11991" d="M1537.214,515.76a22.773,22.773,0,0,1,4.468-6.421,1.18,1.18,0,0,1,1.96.5c.941-1.173,3,.014,2.059,1.237a26.632,26.632,0,0,1-6.85,6.337c-1.1.7-2.122-.639-1.651-1.651Z" transform="translate(-1309.149 -393.597)" fill="#c6d0db"/>
                  <path id="Path_11992" data-name="Path 11992" d="M1599.892,560.991a33.513,33.513,0,0,1,6.246-10.981c1-1.187,2.7.527,1.707,1.707-.386.457-.731.934-1.089,1.412a1.148,1.148,0,0,1,.864,1.131,10,10,0,0,1-6.239,8.22c-.843.358-1.756-.681-1.482-1.482Z" transform="translate(-1327.819 -405.682)" fill="#c6d0db"/>
                  <path id="Path_11993" data-name="Path 11993" d="M1634.156,597.035a1.216,1.216,0,0,1,2.326,0c.288.984.625,1.946.976,2.909a1.056,1.056,0,0,1,1.265.1,1.228,1.228,0,0,1,2.115.787,25.77,25.77,0,0,1-.049,3.92,13.637,13.637,0,0,1-.12,2.494c-.147.99-1.405,1.04-2.016.534-.225-.183-.428-.386-.639-.576-.134-.042-.26-.063-.415-.126a2.861,2.861,0,0,1-1.833-2.431A9.145,9.145,0,0,1,1634.156,597.035Z" transform="translate(-1337.944 -419.533)" fill="#c6d0db"/>
                  <path id="Path_11994" data-name="Path 11994" d="M1325.334,503.483c.19-.885,1.25-1.546,1.939-.66,2.157,2.775,4.426,6.787,1.314,9.808a1.223,1.223,0,0,1-2.016-.534,35.48,35.48,0,0,1-1.9-7.306,1.264,1.264,0,0,1,.653-1.307Z" transform="translate(-1245.963 -391.64)" fill="#c6d0db"/>
                  <path id="Path_11995" data-name="Path 11995" d="M1297.728,528.043a.968.968,0,0,1,.948-.436,4.8,4.8,0,0,1,3.984,2.262,3.553,3.553,0,0,1-.555,4.117,1.221,1.221,0,0,1-1.707,0,21.473,21.473,0,0,1-3.281-4.264,1.146,1.146,0,0,1,.611-1.679Z" transform="translate(-1237.719 -399.136)" fill="#c6d0db"/>
                  <path id="Path_11996" data-name="Path 11996" d="M1278.962,550.373a1.14,1.14,0,0,1,1.138-.541,58.261,58.261,0,0,0,1-5.93c.169-1.524,2.586-1.545,2.41,0a53.245,53.245,0,0,1-2.023,10.271c-.632,1.988-1.461,3.52-3.442,4.349a1.209,1.209,0,0,1-1.525-1.166,16.283,16.283,0,0,1,2.445-6.99Z" transform="translate(-1231.641 -403.642)" fill="#c6d0db"/>
                  <path id="Path_11997" data-name="Path 11997" d="M1451.349,404.516c.26-1.742,1.2-7.061,3.534-7.384,2.353-.323,2.916,3.752,3.1,5.234a14.637,14.637,0,0,1-2.192,9.576.917.917,0,0,1-.113.119c-.028.267-.049.527-.084.794a1.219,1.219,0,0,1-2.248.611,12.29,12.29,0,0,1-1.988-8.95Z" transform="translate(-1283.605 -360.322)" fill="#aab6c2"/>
                  <path id="Path_11998" data-name="Path 11998" d="M1417.01,393.5a1.222,1.222,0,0,1,1.525-1.166,13.363,13.363,0,0,1,9.639,8.4c.105.141.225.267.33.407a.919.919,0,0,1,.063,1.019,1.237,1.237,0,0,1-1.9.8A9.406,9.406,0,0,1,1417.01,393.5Z" transform="translate(-1273.433 -358.892)" fill="#aab6c2"/>
                  <path id="Path_11999" data-name="Path 11999" d="M1372.093,427.314a1.229,1.229,0,0,1,2.087,0,12.024,12.024,0,0,1,2.051,10.58,1.027,1.027,0,0,1-.176.351,5.633,5.633,0,0,1-2.1,3.766c-.667.513-1.538-.077-1.77-.724-1.672-4.609-2.845-9.555-.091-13.981Z" transform="translate(-1259.582 -369.132)" fill="#aab6c2"/>
                  <path id="Path_12000" data-name="Path 12000" d="M1324.036,396.02a24.741,24.741,0,0,1,8.339,1.208,6.675,6.675,0,0,1,3.941,3.808,2.9,2.9,0,0,1,1.047,2.628c-.724,5.171-9.976-.267-12.042-1.363-1.51-.808-3.161-1.932-3.5-3.738-.323-1.728.611-2.522,2.213-2.536Z" transform="translate(-1245.1 -359.996)" fill="#aab6c2"/>
                  <path id="Path_12001" data-name="Path 12001" d="M1287.523,438.834a19.982,19.982,0,0,1,11.058-2.494,2.551,2.551,0,0,1,2.157,3.478,1.994,1.994,0,0,1-.815,1.384,11.891,11.891,0,0,1-11.824,2.037c-1.813-.71-2.55-3.33-.576-4.412Z" transform="translate(-1234.568 -371.976)" fill="#aab6c2"/>
                  <path id="Path_12002" data-name="Path 12002" d="M1272.242,485.962c2.318-1.356,3.906,1.04,4.595,2.88a18.515,18.515,0,0,1,1.1,6.084c.063,2.431-2.845,2.93-4.173,1.56a1.865,1.865,0,0,1-.808-.548,9.268,9.268,0,0,1-2.248-4.735c-.26-1.77-.225-4.215,1.532-5.241Z" transform="translate(-1229.88 -386.631)" fill="#aab6c2"/>
                  <path id="Path_12003" data-name="Path 12003" d="M1249.01,517.009a7.639,7.639,0,0,1,6.274-2.656,2.465,2.465,0,0,1,2.41,2.41,2.233,2.233,0,0,1-.154.731c.021.056.07.1.084.161a2.463,2.463,0,0,1-1.686,2.972,11.957,11.957,0,0,1-5.866.414c-1.96-.3-2.094-2.81-1.061-4.033Z" transform="translate(-1223.272 -395.19)" fill="#c6d0db"/>
                </g>
                <path id="Path_12004" data-name="Path 12004" d="M1330.828,624.271a2.918,2.918,0,0,0,1.518-.414A95.107,95.107,0,0,0,1374,649.984c4.3,37.572,1.749,102.466-3.1,139.744a3.361,3.361,0,0,0,3.042,3.99A71.768,71.768,0,0,0,1392.181,792c2.157-.464,2.606-2.445,1.967-4.047.26-40.874-.541-106.766-4.89-145.989-.843-7.623-1.637-15.526-2.03-23.472a62.292,62.292,0,0,0,41.359-16.686c-15.941,8.8-27.561,10.1-41.556,10.391-.218-12.161.731-24.308,4.307-35.668,6.759-21.477,22.931-38.127,38.2-53.949,2.824-2.923-16.018,7.566-21.456,13.924-.112-7.679-.014-15.358.485-23.036.26-4.061-6.59,30.02-6.442,30.371a111.707,111.707,0,0,0-12.779,20.528,80.574,80.574,0,0,0-4.728,13c-1.911-25.552-18.3-88.057-18.034-84.025,1.806,26.746,8.592,52.171,7.4,75.728-1.061,20.908-3.752,41.071-1.932,62.07.344,3.99.471,5.3.892,9.245-6.4-2.185-17.774-7.686-18.639-8.473A20.6,20.6,0,0,1,1347.4,613.7c.555-3.976-6.337,7.152-5.009,11.206a89.044,89.044,0,0,1-17.184-20.957c-2.058-3.5-.674,10.5,2,13.9a176.266,176.266,0,0,1-41.31-5.6c-3.941-1.026,29.107,12.035,44.921,12.014Z" transform="translate(-1234.336 -388.892)" fill="#aab6c2"/>
              </g>
              <path id="Path_12005" data-name="Path 12005" d="M844.909,845.175c2.361,1.44,5.852,1.117,8.445.6a.893.893,0,0,0,.267-.112,41.089,41.089,0,0,1,5.838,3.147,17.063,17.063,0,0,0-6.421,1.293c-2.115.892-5.438,3.365-3.7,5.452,2.241,2.7,11.065-.674,14.676-3.386a52.2,52.2,0,0,1,6.962,7.187,17.252,17.252,0,0,0-6.3.52c-2.206.625-5.81,2.677-4.349,4.953,1.735,2.7,9.625,1.019,13.931-1.019a84.462,84.462,0,0,1,4.735,8,17.124,17.124,0,0,0-5.979-.815c-2.29.105-6.267,1.293-5.36,3.843,1.082,3.049,9.245,3.169,13.9,2.136,1.307,2.761,2.4,5.213,3.527,7.833a17.238,17.238,0,0,0-6.555-2.108c-2.283-.232-6.393.344-5.88,3,.667,3.449,10.117,4.728,14.564,4.061.646.829,2.346-.035,2.185-1.061-.1-.239-.2-.464-.288-.7a8.837,8.837,0,0,0,3.358-4.011,2.289,2.289,0,0,0-.035.5c.12,3.365,8.5,6,13.166,6.239a1.216,1.216,0,0,0,1.869-.478,22.019,22.019,0,0,0,2.3-1.9,21.18,21.18,0,0,0,2.3,1.9,1.216,1.216,0,0,0,1.869.478c4.665-.239,13.046-2.873,13.166-6.239.1-2.7-4.054-2.642-6.274-2.058a17.026,17.026,0,0,0-5.564,2.656q.432-2.129.871-4.258c3.33-.225,8.325-1.595,11.023-3.541a21.789,21.789,0,0,0,.527,4.693,9.273,9.273,0,0,0,4,6.028c-.1.239-.19.464-.288.7-.162,1.033,1.539,1.9,2.185,1.061,4.447.667,13.9-.611,14.564-4.061.513-2.656-3.6-3.239-5.88-3a17.2,17.2,0,0,0-6.555,2.108c1.117-2.627,2.22-5.079,3.527-7.833,4.644,1.033,12.807.913,13.9-2.136.906-2.55-3.07-3.738-5.36-3.843a17.085,17.085,0,0,0-5.972.815,87.633,87.633,0,0,1,4.735-8c4.314,2.037,12.2,3.724,13.939,1.019,1.461-2.283-2.143-4.335-4.349-4.953a17.23,17.23,0,0,0-6.3-.52,51.864,51.864,0,0,1,6.969-7.187c3.611,2.712,12.435,6.077,14.669,3.386,1.735-2.087-1.588-4.559-3.7-5.452a17.067,17.067,0,0,0-6.421-1.293,41.811,41.811,0,0,1,5.838-3.147,1.137,1.137,0,0,0,.267.112c2.585.52,6.077.836,8.438-.6a6.941,6.941,0,0,0,2.859-6.07,1.136,1.136,0,0,0-.682-.927,12.188,12.188,0,0,0-7.377.112c-2.627.906-3.955,3.133-5.115,5.5a.184.184,0,0,1-.021.056,44.533,44.533,0,0,0-3.983,2.079,14.967,14.967,0,0,0,.661-4.538c-.021-1.539-.246-6.049-2.916-5.41-1.988.478-3.478,4.791-3.983,6.484a9.275,9.275,0,0,0,.667,7.335,53.041,53.041,0,0,0-6.449,6.239,15.008,15.008,0,0,0,.007-4.124c-.211-1.525-.991-5.979-3.555-5.016-1.911.717-2.859,5.185-3.154,6.92a9.212,9.212,0,0,0,1.939,7.693,1.184,1.184,0,0,0-.141.9c-1.405,2.065-2.7,4.215-3.92,6.421-.07.126-.133.253-.2.379a15.089,15.089,0,0,0-.948-4.489c-.555-1.44-2.325-5.6-4.6-4.082-1.7,1.131-1.609,5.691-1.5,7.454a9.221,9.221,0,0,0,3.632,7.054,1.248,1.248,0,0,0-.014.681c-.857,1.749-1.672,3.492-2.473,5.276a15.071,15.071,0,0,0-1.4-3.379c-.653-1.145-2.487-4.117-4.272-3.8-.583-2-4.173-1.9-6.182-1.384a17.181,17.181,0,0,0-5.417,2.543q1.107-5.132,2.333-10.236c4.5-.035,13.615-2.74,13.735-6.246.1-2.7-4.054-2.649-6.274-2.066a17.221,17.221,0,0,0-6.161,3.1q1.085-4.163,2.3-8.29c4.749.3,12.786-1.061,13.384-4.243.506-2.656-3.6-3.218-5.887-2.979a17.036,17.036,0,0,0-5.775,1.728,84.91,84.91,0,0,1,3.449-8.627c4.574,1.349,12.625,1.805,13.925-1.138,1.1-2.473-2.782-3.948-5.065-4.229a17.261,17.261,0,0,0-6.3.45,51.968,51.968,0,0,1,5.775-8.171c3.99,2.122,13.222,4.1,15.02,1.1,1.384-2.318-2.276-4.264-4.5-4.819a17.114,17.114,0,0,0-6.541-.288,40.542,40.542,0,0,1,5.283-4,.962.962,0,0,0,.281.063c2.635.119,6.14-.105,8.248-1.89a6.968,6.968,0,0,0,1.9-6.435,1.152,1.152,0,0,0-.815-.815,12.131,12.131,0,0,0-7.271,1.244c-2.459,1.3-3.428,3.7-4.2,6.225a.153.153,0,0,1-.007.056,43.345,43.345,0,0,0-3.618,2.67,15.014,15.014,0,0,0-.049-4.588c-.26-1.518-1.18-5.943-3.716-4.9-1.89.78-2.7,5.269-2.937,7.019a9.267,9.267,0,0,0,1.8,7.145,52.687,52.687,0,0,0-5.417,7.152,15.226,15.226,0,0,0-.625-4.082c-.45-1.475-1.9-5.754-4.293-4.4-1.777,1-2.023,5.564-2.044,7.327a9.186,9.186,0,0,0,3.1,7.3,1.191,1.191,0,0,0,0,.906c-1.061,2.255-2.023,4.581-2.88,6.948-.049.134-.1.281-.141.414a15.073,15.073,0,0,0-1.637-4.3c-.773-1.335-3.161-5.178-5.178-3.33-1.511,1.384-.717,5.873-.33,7.595a9.23,9.23,0,0,0,4.679,6.414,1.229,1.229,0,0,0,.119.745c-.569,1.848-1.11,3.7-1.616,5.578A15.078,15.078,0,0,0,917.419,853c-.962-1.208-3.906-4.644-5.62-2.515-1.279,1.588.176,5.915.815,7.559a9.315,9.315,0,0,0,4.89,5.346q-1.159,4.816-2.192,9.66A15.162,15.162,0,0,0,913.035,869c-.119-.148-.267-.33-.436-.527a3.186,3.186,0,0,0-.492-1.988,6.742,6.742,0,0,0-4.693,0,3.131,3.131,0,0,0-.492,1.988c-.169.2-.323.379-.436.527a15.161,15.161,0,0,0-2.283,4.054q-1.022-4.848-2.185-9.66a9.315,9.315,0,0,0,4.89-5.346c.639-1.644,2.094-5.972.815-7.559-1.714-2.129-4.658,1.307-5.62,2.515a15.076,15.076,0,0,0-1.939,3.182q-.769-2.8-1.616-5.578a1.237,1.237,0,0,0,.119-.745,9.23,9.23,0,0,0,4.679-6.414c.386-1.721,1.173-6.218-.33-7.595-2.023-1.848-4.412,2-5.178,3.33a15.075,15.075,0,0,0-1.637,4.3c-.049-.133-.091-.281-.14-.414q-1.286-3.551-2.88-6.941a1.177,1.177,0,0,0,0-.913,9.186,9.186,0,0,0,3.1-7.3c-.021-1.763-.267-6.323-2.044-7.327-2.389-1.349-3.843,2.93-4.293,4.4a15.182,15.182,0,0,0-.625,4.082,52.7,52.7,0,0,0-5.417-7.152,9.282,9.282,0,0,0,1.8-7.145c-.239-1.749-1.047-6.239-2.937-7.019-2.536-1.04-3.457,3.379-3.716,4.9a15.008,15.008,0,0,0-.049,4.588,44.536,44.536,0,0,0-3.618-2.67v-.056c-.773-2.522-1.742-4.925-4.2-6.225a12.194,12.194,0,0,0-7.271-1.244,1.151,1.151,0,0,0-.815.815,6.932,6.932,0,0,0,1.9,6.435c2.115,1.784,5.613,2,8.248,1.89a.961.961,0,0,0,.281-.063,41.186,41.186,0,0,1,5.283,4,17.257,17.257,0,0,0-6.541.288c-2.227.555-5.887,2.494-4.5,4.819,1.8,3.007,11.03,1.033,15.021-1.1a51.931,51.931,0,0,1,5.768,8.171,17.112,17.112,0,0,0-6.3-.45c-2.283.281-6.154,1.756-5.065,4.229,1.3,2.944,9.351,2.487,13.924,1.138a83.268,83.268,0,0,1,3.443,8.627,17.036,17.036,0,0,0-5.775-1.728c-2.283-.246-6.393.323-5.887,2.979.6,3.182,8.627,4.545,13.383,4.243q1.212,4.12,2.3,8.29a17.194,17.194,0,0,0-6.168-3.1c-2.22-.583-6.365-.639-6.274,2.066.126,3.506,9.231,6.21,13.735,6.246q1.233,5.1,2.333,10.236a17.146,17.146,0,0,0-5.41-2.543c-2.108-.548-5.951-.625-6.246,1.679a10.145,10.145,0,0,0-2.937,3.506,14.964,14.964,0,0,0-1.405,3.379c-.794-1.777-1.609-3.52-2.466-5.276a1.186,1.186,0,0,0-.014-.681,9.221,9.221,0,0,0,3.632-7.053c.112-1.756.2-6.323-1.5-7.454-2.283-1.518-4.054,2.642-4.6,4.082a14.877,14.877,0,0,0-.948,4.489c-.07-.127-.133-.246-.2-.379q-1.813-3.309-3.92-6.421a1.194,1.194,0,0,0-.141-.9,9.211,9.211,0,0,0,1.939-7.693c-.288-1.735-1.243-6.2-3.154-6.92-2.564-.962-3.344,3.485-3.562,5.016a14.734,14.734,0,0,0,.014,4.124,53.117,53.117,0,0,0-6.456-6.239,9.248,9.248,0,0,0,.667-7.335c-.506-1.693-2-6.007-3.983-6.484-2.67-.639-2.895,3.871-2.916,5.409a14.755,14.755,0,0,0,.66,4.539,43.735,43.735,0,0,0-3.99-2.08.094.094,0,0,0-.021-.056c-1.152-2.375-2.48-4.595-5.108-5.5a12.264,12.264,0,0,0-7.384-.112,1.174,1.174,0,0,0-.682.927,6.974,6.974,0,0,0,2.859,6.07Zm64.838,32.2c-.1-.091-.19-.183-.288-.274.1-.105.2-.218.288-.33.091.112.2.225.288.33C909.937,877.2,909.839,877.288,909.747,877.379Zm-17.079,6.049a12.088,12.088,0,0,0,.436-1.461,23.37,23.37,0,0,0,.527-3.906,26.769,26.769,0,0,0,9.758,2.754q.443,2.129.871,4.258a17.091,17.091,0,0,0-5.564-2.656C896.821,881.925,893.568,881.813,892.669,883.428Z" transform="translate(-842.027 -399.014)" fill="#aab6c2"/>
              <g id="Group_6314" data-name="Group 6314" transform="translate(105.52)">
                <g id="Group_6313" data-name="Group 6313">
                  <g id="Group_6311" data-name="Group 6311">
                    <path id="Path_12006" data-name="Path 12006" d="M1173.014,300.127a261.581,261.581,0,0,0-22.91-26.521c-7.334-7.482-15.681-16.559-27.835-19.264-23.732-5.283-46.614,16.875-59.492,29.605a154.669,154.669,0,0,0-34.348,50.59,131.277,131.277,0,0,0-9.878,61.346c3.653,42.476,31.888,91.24,88.76,101.869,1.827.337,11.494.464,12.843.063,19.418-5.915,35.809-12.309,49.08-20.107,20.739-12.182,33.8-27.758,38.774-50.064,9.934-44.281-6.407-89.42-34.987-127.512Z" transform="translate(-999.924 -234.415)" fill="#c6d0db"/>
                    <path id="Path_12007" data-name="Path 12007" d="M1112.351,499.606c-20.4-7.377-40.811-16.06-54.483-30.568-13.559-14.381-20.135-31.783-23.922-49.27-3.576-16.461-6.646-34.088-5.536-50.949a131.277,131.277,0,0,0-9.878,61.346c3.653,42.476,31.888,91.24,88.76,101.869,1.827.337,11.494.464,12.843.063,19.418-5.915,35.809-12.309,49.08-20.107-19.756-1.047-38.647-5.81-56.864-12.393Z" transform="translate(-999.918 -268.705)" fill="#aab6c2"/>
                    <path id="Path_12008" data-name="Path 12008" d="M1009.042,417.24a1.823,1.823,0,0,0-2.592,1.4c.218,5.979-.323,13.039,4.573,18.077,4.011,4.117,10.039,4.763,16.13,5.55a1.807,1.807,0,0,0,1.9-.829,1.38,1.38,0,0,0,.6-.6c5.241-11.177-10.278-18.962-20.613-23.585Z" transform="translate(-996.455 -283.059)" fill="#c6d0db"/>
                    <path id="Path_12009" data-name="Path 12009" d="M1039.961,334.3a1.994,1.994,0,0,0-2.929.892c-1.518,5.859-4.082,12.639-.759,18.421,2.719,4.735,8.4,6.456,14.1,8.318a1.993,1.993,0,0,0,2.094-.464,1.547,1.547,0,0,0,.759-.485c8.318-9.934-4.539-20.318-13.264-26.69Z" transform="translate(-1004.843 -258.339)" fill="#c6d0db"/>
                    <path id="Path_12010" data-name="Path 12010" d="M1062.265,294.319a1.981,1.981,0,0,0-2.923.892c-1.51,5.859-4.082,12.639-.759,18.421,2.719,4.735,8.4,6.456,14.1,8.318a1.989,1.989,0,0,0,2.093-.464,1.548,1.548,0,0,0,.759-.485c8.318-9.934-4.538-20.318-13.264-26.69Z" transform="translate(-1011.48 -246.446)" fill="#c6d0db"/>
                    <path id="Path_12011" data-name="Path 12011" d="M1086.164,274.339a1.981,1.981,0,0,0-2.923.892c-1.517,5.859-4.082,12.639-.759,18.421,2.719,4.735,8.4,6.449,14.1,8.318a1.989,1.989,0,0,0,2.094-.464,1.547,1.547,0,0,0,.759-.485c8.318-9.934-4.539-20.318-13.264-26.683Z" transform="translate(-1018.589 -240.503)" fill="#c6d0db"/>
                    <path id="Path_12012" data-name="Path 12012" d="M1118.169,247.76a2.054,2.054,0,0,0-3.049.59c-2.459,5.655-6.105,12.119-3.752,18.189,1.925,4.974,7.285,7.257,12.632,9.688a2.023,2.023,0,0,0,2.15-.246,1.659,1.659,0,0,0,.829-.4c9.864-9-1.194-20.613-8.817-27.814Z" transform="translate(-1027.438 -232.562)" fill="#c6d0db"/>
                    <path id="Path_12013" data-name="Path 12013" d="M1245.361,360.983a1.581,1.581,0,0,0,.752.485,1.966,1.966,0,0,0,2.094.464c5.7-1.869,11.381-3.583,14.1-8.318,3.316-5.782.752-12.562-.759-18.421a1.989,1.989,0,0,0-2.923-.892c-8.726,6.365-21.589,16.756-13.264,26.69Z" transform="translate(-1066.72 -258.339)" fill="#c6d0db"/>
                    <path id="Path_12014" data-name="Path 12014" d="M1223.062,335.932a1.579,1.579,0,0,0,.752.485,1.966,1.966,0,0,0,2.094.464c5.7-1.869,11.381-3.583,14.1-8.318,3.323-5.782.759-12.562-.759-18.421a1.981,1.981,0,0,0-2.923-.892c-8.726,6.365-21.582,16.756-13.264,26.683Z" transform="translate(-1060.088 -250.887)" fill="#aab6c2"/>
                    <path id="Path_12015" data-name="Path 12015" d="M1199.164,301.023a1.567,1.567,0,0,0,.759.485,1.962,1.962,0,0,0,2.094.464c5.7-1.869,11.381-3.583,14.1-8.318,3.316-5.782.759-12.562-.759-18.421a1.989,1.989,0,0,0-2.923-.892c-8.726,6.365-21.589,16.756-13.264,26.683Z" transform="translate(-1052.981 -240.503)" fill="#c6d0db"/>
                    <path id="Path_12016" data-name="Path 12016" d="M1172.021,275.572a1.688,1.688,0,0,0,.829.4,2.038,2.038,0,0,0,2.157.246c5.346-2.431,10.707-4.714,12.632-9.688,2.354-6.077-1.293-12.533-3.752-18.189a2.052,2.052,0,0,0-3.042-.59c-7.623,7.2-18.688,18.814-8.817,27.814Z" transform="translate(-1044.546 -232.56)" fill="#c6d0db"/>
                    <path id="Path_12017" data-name="Path 12017" d="M1151.726,226.959a2.1,2.1,0,0,0-3.133.133c-3.738,5.2-8.831,11.009-7.946,17.325.731,5.171,5.459,8.2,10.145,11.374a2.057,2.057,0,0,0,2.171.07,1.777,1.777,0,0,0,.906-.274c11.8-7.4,3.653-20.43-2.15-28.629Z" transform="translate(-1036.343 -226.317)" fill="#c6d0db"/>
                    <path id="Path_12018" data-name="Path 12018" d="M993.879,456.31a1.439,1.439,0,0,0-1.391,2.22c3.892,5.129,7.791,11.494,15.182,13.974,6.049,2.03,11.7.26,17.5-1.419a1.354,1.354,0,0,0,1.145-1.461,1.047,1.047,0,0,0,.147-.759c-2.361-11.768-20.7-12.533-32.577-12.554Z" transform="translate(-992.224 -294.729)" fill="#c6d0db"/>
                    <path id="Path_12019" data-name="Path 12019" d="M1042.189,491.63a1.443,1.443,0,0,0-1.391,2.227c3.892,5.128,7.791,11.494,15.182,13.974,6.049,2.031,11.7.253,17.493-1.419a1.351,1.351,0,0,0,1.145-1.461,1.047,1.047,0,0,0,.148-.759c-2.361-11.768-20.711-12.533-32.577-12.554Z" transform="translate(-1006.594 -305.236)" fill="#aab6c2"/>
                    <path id="Path_12020" data-name="Path 12020" d="M1072.852,521.4a1.311,1.311,0,0,0,.035,2.48c6.4,3.182,13.524,7.454,21.533,7.025,6.555-.351,10.58-3.969,14.789-7.538a1.143,1.143,0,0,0,.183-1.714,1.071,1.071,0,0,0-.3-.731c-8.831-9.646-25.636-3.759-36.23.478Z" transform="translate(-1015.948 -312.396)" fill="#c6d0db"/>
                    <path id="Path_12021" data-name="Path 12021" d="M1111.711,543.618a1.313,1.313,0,0,0,.028,2.48c6.4,3.175,13.524,7.454,21.526,7.025,6.562-.351,10.58-3.969,14.788-7.538a1.143,1.143,0,0,0,.183-1.714,1.049,1.049,0,0,0-.309-.731c-8.831-9.646-25.629-3.759-36.223.478Z" transform="translate(-1027.507 -319.005)" fill="#c6d0db"/>
                    <path id="Path_12022" data-name="Path 12022" d="M1030.063,449.867c-1.4-.239-2.361.991-1.953,1.939,2.445,5.663,4.567,12.533,11.128,16.194,5.367,2.993,11.374,2.2,17.479,1.525a1.535,1.535,0,0,0,1.511-1.244,1.087,1.087,0,0,0,.344-.717c.822-11.9-16.91-15.7-28.509-17.7Z" transform="translate(-1002.87 -292.804)" fill="#aab6c2"/>
                    <path id="Path_12023" data-name="Path 12023" d="M1088.021,586.894c-.836.569-.323,1.609.6,1.848,5.536,1.426,11.866,3.569,17.746,2.058,4.813-1.236,6.969-4.531,9.267-7.819a.893.893,0,0,0-.267-1.307.96.96,0,0,0-.4-.5C1106.1,575.274,1094.934,582.159,1088.021,586.894Z" transform="translate(-1020.594 -331.193)" fill="#c6d0db"/>
                    <path id="Path_12024" data-name="Path 12024" d="M1010.106,493.781c-1.384-.3-2.417.9-2.066,1.869,2.1,5.747,3.815,12.688,10.152,16.587,5.185,3.19,11.227,2.62,17.374,2.178a1.578,1.578,0,0,0,1.581-1.187,1.128,1.128,0,0,0,.386-.7C1039.065,500.666,1021.579,496.2,1010.106,493.781Z" transform="translate(-996.908 -305.862)" fill="#c6d0db"/>
                    <path id="Path_12025" data-name="Path 12025" d="M1258.846,401.372a1.343,1.343,0,0,0,.6.6,1.8,1.8,0,0,0,1.9.829c6.084-.787,12.112-1.433,16.13-5.55,4.9-5.03,4.356-12.091,4.573-18.077a1.823,1.823,0,0,0-2.592-1.4c-10.334,4.623-25.847,12.414-20.613,23.584Z" transform="translate(-1071.219 -271.322)" fill="#aab6c2"/>
                    <path id="Path_12026" data-name="Path 12026" d="M1272.8,426.055a1.014,1.014,0,0,0,.141.759,1.347,1.347,0,0,0,1.145,1.461c5.789,1.672,11.444,3.457,17.493,1.419,7.391-2.48,11.29-8.845,15.182-13.974a1.439,1.439,0,0,0-1.391-2.22c-11.866.014-30.217.78-32.577,12.555Z" transform="translate(-1075.676 -281.995)" fill="#aab6c2"/>
                    <path id="Path_12027" data-name="Path 12027" d="M1258.853,529.13a1.018,1.018,0,0,0-.049.766,1.228,1.228,0,0,0,.766,1.609c5.269,2.536,10.377,5.15,16.812,4.089,7.855-1.3,13.243-6.941,18.322-11.374a1.357,1.357,0,0,0-.822-2.4c-11.641-1.806-29.83-3.878-35.036,7.3Z" transform="translate(-1071.494 -313.791)" fill="#c6d0db"/>
                    <path id="Path_12028" data-name="Path 12028" d="M1216.844,562.81a.982.982,0,0,0-.042.766,1.217,1.217,0,0,0,.766,1.609c5.269,2.536,10.377,5.15,16.812,4.089,7.861-1.3,13.25-6.941,18.329-11.374a1.357,1.357,0,0,0-.822-2.4c-11.648-1.806-29.83-3.878-35.036,7.3Z" transform="translate(-1058.999 -323.809)" fill="#c6d0db"/>
                    <path id="Path_12029" data-name="Path 12029" d="M1185.773,585.481a1.034,1.034,0,0,0-.049.773,1.228,1.228,0,0,0,.766,1.609c5.276,2.536,10.384,5.15,16.812,4.089,7.861-1.3,13.25-6.941,18.329-11.374a1.357,1.357,0,0,0-.822-2.4C1209.161,576.369,1190.979,574.3,1185.773,585.481Z" transform="translate(-1049.756 -330.553)" fill="#aab6c2"/>
                    <path id="Path_12030" data-name="Path 12030" d="M1165.179,593.561a.8.8,0,0,0-.316.415.735.735,0,0,0-.183,1.082c2,2.663,3.864,5.325,7.854,6.246,4.876,1.124,10-.759,14.508-2.037.759-.218,1.145-1.075.443-1.531-5.824-3.759-15.2-9.2-22.32-4.18Z" transform="translate(-1043.473 -334.952)" fill="#c6d0db"/>
                    <path id="Path_12031" data-name="Path 12031" d="M1139.937,593.561a.727.727,0,0,1,.267.415.818.818,0,0,1,.154,1.082c-1.686,2.663-3.274,5.325-6.66,6.246-4.138,1.124-8.494-.759-12.308-2.037a.894.894,0,0,1-.372-1.531c4.939-3.759,12.9-9.2,18.926-4.18Z" transform="translate(-1030.441 -334.952)" fill="#c6d0db"/>
                    <path id="Path_12032" data-name="Path 12032" d="M1263.68,469.705a1.11,1.11,0,0,0,.386.7,1.567,1.567,0,0,0,1.581,1.18c6.14.45,12.182,1.019,17.367-2.171,6.337-3.9,8.051-10.84,10.152-16.587.358-.97-.682-2.157-2.065-1.869C1279.635,453.385,1262.149,457.846,1263.68,469.705Z" transform="translate(-1072.941 -293.125)" fill="#aab6c2"/>
                    <path id="Path_12033" data-name="Path 12033" d="M1263.68,497.558a1.145,1.145,0,0,0,.386.71,1.567,1.567,0,0,0,1.581,1.18c6.14.45,12.182,1.019,17.367-2.171,6.337-3.9,8.051-10.84,10.152-16.587.358-.97-.682-2.157-2.065-1.869-11.465,2.424-28.952,6.885-27.421,18.744Z" transform="translate(-1072.941 -301.413)" fill="#c6d0db"/>
                    <path id="Path_12034" data-name="Path 12034" d="M1054.874,560.469a1.312,1.312,0,0,0,.049,2.48c6.428,3.147,13.58,7.391,21.582,6.913,6.555-.386,10.552-4.019,14.725-7.609a1.141,1.141,0,0,0,.169-1.714,1.1,1.1,0,0,0-.316-.731c-8.908-9.6-25.664-3.625-36.216.66Z" transform="translate(-1010.602 -323.983)" fill="#c6d0db"/>
                    <path id="Path_12035" data-name="Path 12035" d="M1034.161,540.611a1.332,1.332,0,0,0-.541,2.445c5.564,4.047,11.578,9.281,19.552,10,6.526.6,11.318-2.375,16.278-5.283a1.189,1.189,0,0,0,.576-1.658.992.992,0,0,0-.133-.759c-6.464-10.763-24.336-7.391-35.732-4.749Z" transform="translate(-1004.355 -319.012)" fill="#c6d0db"/>
                    <path id="Path_12036" data-name="Path 12036" d="M1183.589,274.473a1.326,1.326,0,0,0-1.974-.1c-2.817,3.042-6.534,6.393-6.555,10.4-.014,3.281,2.67,5.452,5.318,7.7a1.287,1.287,0,0,0,1.356.169,1.144,1.144,0,0,0,.59-.119c8.065-3.962,4.145-12.59,1.258-18.055Z" transform="translate(-1046.609 -240.496)" fill="#c6d0db"/>
                    <path id="Path_12037" data-name="Path 12037" d="M1253.229,405.278c-.112-.71-1.236-.906-1.869-.513-3.738,2.332-8.459,4.777-9.836,8.627-1.124,3.154.731,5.817,2.515,8.55a1.184,1.184,0,0,0,1.251.45,1.26,1.26,0,0,0,.611.014C1255.014,420.3,1254.157,411.159,1253.229,405.278Z" transform="translate(-1066.278 -279.338)" fill="#c6d0db"/>
                    <path id="Path_12038" data-name="Path 12038" d="M1181.447,430.027a1.321,1.321,0,0,0-1.967.126c-2.241,3.33-5.325,7.061-4.623,11.03.576,3.246,3.618,5.094,6.646,7.025a1.285,1.285,0,0,0,1.37.014,1.131,1.131,0,0,0,.569-.183c7.271-4.827,1.848-12.927-1.988-18.013Z" transform="translate(-1046.518 -286.797)" fill="#aab6c2"/>
                    <path id="Path_12039" data-name="Path 12039" d="M1084.142,359.839a1.817,1.817,0,0,0-2.592,1.4c.218,5.979-.323,13.039,4.573,18.076,4.011,4.117,10.039,4.763,16.13,5.55a1.807,1.807,0,0,0,1.9-.829,1.31,1.31,0,0,0,.6-.6c5.241-11.171-10.278-18.962-20.613-23.585Z" transform="translate(-1018.794 -265.984)" fill="#c6d0db"/>
                    <path id="Path_12040" data-name="Path 12040" d="M1185.225,341.468c-.457-1.047-2.572-1.279-3.569-.653-5.972,3.7-13.679,7.6-14.81,13.419-.927,4.763,3.379,8.613,7.588,12.576a2.813,2.813,0,0,0,2.424.6,2.622,2.622,0,0,0,1.117-.021c15.8-3.667,11.023-17.226,7.257-25.924Z" transform="translate(-1044.128 -260.273)" fill="#aab6c2"/>
                    <path id="Path_12041" data-name="Path 12041" d="M1103.332,290.609a2.088,2.088,0,0,0-2.466,1.335c-.639,4.721-2.094,10.363,1.51,13.924,2.958,2.916,8.164,2.909,13.4,3a2.188,2.188,0,0,0,1.792-.822,1.638,1.638,0,0,0,.611-.534c6.147-9.309-6.4-14.135-14.845-16.9Z" transform="translate(-1024.291 -245.419)" fill="#c6d0db"/>
                    <path id="Path_12042" data-name="Path 12042" d="M1100.339,451.319a2.107,2.107,0,0,0-2.473,1.335c-.639,4.721-2.094,10.362,1.51,13.924,2.958,2.916,8.164,2.909,13.4,3a2.154,2.154,0,0,0,1.785-.822,1.637,1.637,0,0,0,.611-.534C1121.324,458.913,1108.777,454.087,1100.339,451.319Z" transform="translate(-1023.399 -293.223)" fill="#c6d0db"/>
                  </g>
                  <g id="Group_6312" data-name="Group 6312" transform="translate(8.121 231.956)">
                    <path id="Path_12043" data-name="Path 12043" d="M1050.134,569.387a103.771,103.771,0,0,0-14.065.2c-4.215.33-9.175.548-13.461,3.625-8.36,6-8.81,18.891-8.986,26.212a59.352,59.352,0,0,0,4.18,23.879,45.724,45.724,0,0,0,14.283,19.081c12.934,9.948,34.762,13.9,54.223-1a35.579,35.579,0,0,0,3.745-3.976c3.984-7.573,6.948-14.339,8.62-20.5,2.606-9.625,2.045-17.753-2.747-25.116-9.5-14.641-26.859-21.343-45.8-22.4Z" transform="translate(-1006.705 -560.276)" fill="#c6d0db"/>
                    <path id="Path_12044" data-name="Path 12044" d="M1080.491,651.534c-7.981,4.412-16.334,8.494-24.35,8.95-7.953.464-14.725-2.037-20.711-5.424-5.641-3.183-11.458-6.829-15.849-11.578a45.728,45.728,0,0,0,14.283,19.081c12.934,9.948,34.762,13.9,54.223-1a35.62,35.62,0,0,0,3.744-3.976c3.984-7.573,6.948-14.339,8.62-20.5a92.4,92.4,0,0,1-19.967,14.444Z" transform="translate(-1008.482 -580.459)" fill="#aab6c2"/>
                    <path id="Path_12045" data-name="Path 12045" d="M1044.618,574.4a.758.758,0,0,0,.471-.133,1.036,1.036,0,0,0,.949-.724c1.3-3.274,2.656-6.47,1.707-9.632-1.159-3.857-4.855-5.55-7.791-7.328a1.039,1.039,0,0,0-1.419.906c-.555,6.47-.97,16.418,6.084,16.9Z" transform="translate(-1014.038 -556.481)" fill="#aab6c2"/>
                    <path id="Path_12046" data-name="Path 12046" d="M1088.679,579.93a.8.8,0,0,0,.471-.126,1.046,1.046,0,0,0,.948-.724c1.3-3.274,2.656-6.477,1.707-9.632-1.159-3.857-4.848-5.55-7.784-7.328a1.041,1.041,0,0,0-1.419.913c-.562,6.47-.977,16.419,6.084,16.9Z" transform="translate(-1027.145 -558.131)" fill="#c6d0db"/>
                    <path id="Path_12047" data-name="Path 12047" d="M1107.462,586.32a.766.766,0,0,0,.485.014,1.043,1.043,0,0,0,1.117-.415c2.2-2.747,4.433-5.417,4.447-8.712.021-4.026-3.014-6.73-5.3-9.288a1.039,1.039,0,0,0-1.623.457c-2.431,6.021-5.74,15.414.871,17.943Z" transform="translate(-1033.465 -559.814)" fill="#c6d0db"/>
                    <path id="Path_12048" data-name="Path 12048" d="M1031.918,579.948a.749.749,0,0,0,.246-.421,1.026,1.026,0,0,0,.176-1.18c-1.349-3.253-2.606-6.492-5.494-8.093-3.52-1.96-7.349-.6-10.693.176a1.047,1.047,0,0,0-.387,1.644c4.11,5.03,10.742,12.449,16.145,7.876Z" transform="translate(-1007.275 -560.277)" fill="#c6d0db"/>
                    <path id="Path_12049" data-name="Path 12049" d="M1021.773,600.251a.752.752,0,0,1-.056.457.925.925,0,0,1-.548.969c-2.951,1.51-5.817,3.07-9,2.431-3.885-.78-6.077-4.166-8.227-6.822a.938.938,0,0,1,.653-1.433c6.133-1.068,15.631-2.3,17.177,4.4Z" transform="translate(-1003.783 -567.942)" fill="#c6d0db"/>
                    <path id="Path_12050" data-name="Path 12050" d="M1025.963,638.458a.753.753,0,0,1-.056.457.9.9,0,0,1-.548.962c-2.951,1.51-5.817,3.07-9,2.431-3.885-.78-6.077-4.166-8.227-6.822a.938.938,0,0,1,.653-1.433C1014.919,632.985,1024.417,631.756,1025.963,638.458Z" transform="translate(-1005.029 -579.305)" fill="#aab6c2"/>
                    <path id="Path_12051" data-name="Path 12051" d="M1089.523,654.911a.714.714,0,0,1,.365.281.913.913,0,0,1,.555.963c-.19,3.3-.3,6.569-2.459,8.986-2.642,2.958-6.667,3.126-10.053,3.639a.936.936,0,0,1-.9-1.293c2.178-5.824,5.936-14.634,12.491-12.576Z" transform="translate(-1025.552 -585.669)" fill="#c6d0db"/>
                    <path id="Path_12052" data-name="Path 12052" d="M1087.721,684.682c-.183.7.773,1.321,1.5,1.215,4.37-.639,9.667-.984,12.47-3.962,2.3-2.445,1.665-5.62,1.124-8.845a1.194,1.194,0,0,0-.963-.913,1.36,1.36,0,0,0-.555-.26c-9.189-1.721-12.07,7-13.573,12.758Z" transform="translate(-1028.744 -590.752)" fill="#aab6c2"/>
                    <path id="Path_12053" data-name="Path 12053" d="M1046.269,682.464c-.464.548.113,1.532.822,1.756,4.208,1.335,9.119,3.337,12.948,1.883,3.126-1.187,3.948-4.328,4.869-7.461a1.2,1.2,0,0,0-.471-1.244,1.246,1.246,0,0,0-.387-.471C1056.534,671.364,1050.134,677.947,1046.269,682.464Z" transform="translate(-1016.371 -591.675)" fill="#aab6c2"/>
                    <path id="Path_12054" data-name="Path 12054" d="M1016.987,662.476c-.576.274-.457,1.279.035,1.707,2.922,2.578,6.175,5.965,9.779,6.154,2.958.162,4.742-2.08,6.6-4.279a2.558,2.558,0,0,0-.077-1.686C1029.254,657.186,1021.722,660.214,1016.987,662.476Z" transform="translate(-1007.596 -587.234)" fill="#aab6c2"/>
                    <path id="Path_12055" data-name="Path 12055" d="M1076.371,583.174c-.485-.443-1.475,0-1.742.611-1.6,3.611-3.892,7.812-2.782,11.262.906,2.831,3.857,3.745,6.794,4.756a1.221,1.221,0,0,0,1.229-.33,1.139,1.139,0,0,0,.478-.309c5.908-6.26.07-12.3-3.976-15.99Z" transform="translate(-1023.942 -564.368)" fill="#aab6c2"/>
                    <path id="Path_12056" data-name="Path 12056" d="M1108.815,602.979c-.4-.527-1.454-.26-1.827.288-2.22,3.267-5.227,6.99-4.749,10.587.386,2.944,3.126,4.37,5.838,5.887a1.221,1.221,0,0,0,1.265-.105,1.175,1.175,0,0,0,.527-.225c6.934-5.1,2.269-12.091-1.054-16.44Z" transform="translate(-1033.054 -570.228)" fill="#aab6c2"/>
                    <path id="Path_12057" data-name="Path 12057" d="M1036.937,587.167c-.654-.1-1.223.829-1.1,1.482.7,3.892,1.131,8.655,3.984,10.9,2.332,1.834,5.29.955,8.29.148a1.23,1.23,0,0,0,.836-.963,1.165,1.165,0,0,0,.225-.527c1.405-8.487-6.815-10.243-12.231-11.037Z" transform="translate(-1013.312 -565.607)" fill="#c6d0db"/>
                    <path id="Path_12058" data-name="Path 12058" d="M1052.065,633.019c-.548.379-.33,1.44.2,1.841,3.154,2.375,6.723,5.557,10.341,5.262,2.958-.246,4.524-2.909,6.168-5.543a1.2,1.2,0,0,0-.049-1.272,1.253,1.253,0,0,0-.19-.541C1063.784,625.593,1056.575,629.907,1052.065,633.019Z" transform="translate(-1018.05 -578.011)" fill="#c6d0db"/>
                  </g>
                  <path id="Path_12059" data-name="Path 12059" d="M1143.638,522.67s2.585,257.687-5.768,354.449h28.875S1145.493,546.514,1143.638,522.67Z" transform="translate(-1035.547 -314.468)" fill="#aab6c2"/>
                  <path id="Path_12060" data-name="Path 12060" d="M1151.417,592.206s23.4-31.305,29.268-44.036c0,0-23.578,46.811-27.919,63.025l-1.356-18.99Z" transform="translate(-1039.574 -322.054)" fill="#aab6c2"/>
                  <path id="Path_12061" data-name="Path 12061" d="M1136.814,677.474s-16.7-15.772-34.8-31.8c0,0,23.03,34.6,33.448,50.8l1.356-18.99Z" transform="translate(-1024.88 -351.055)" fill="#aab6c2"/>
                  <path id="Path_12062" data-name="Path 12062" d="M1142.82,580.8s-13.643-18.379-17.17-26.022c0,0,13.749,27.687,16.355,37.425l.815-11.4Z" transform="translate(-1031.912 -324.02)" fill="#aab6c2"/>
                </g>
                <path id="Path_12063" data-name="Path 12063" d="M1004.736,923.661c3.232,1.96,8.009,1.525,11.543.815a1.3,1.3,0,0,0,.365-.155,56.014,56.014,0,0,1,7.981,4.307,23.464,23.464,0,0,0-8.782,1.763c-2.894,1.222-7.433,4.609-5.065,7.461,3.063,3.688,15.126-.92,20.072-4.63a71.256,71.256,0,0,1,9.526,9.836,23.419,23.419,0,0,0-8.62.71c-3.021.857-7.946,3.66-5.951,6.78,2.375,3.7,13.166,1.4,19.06-1.391a115.956,115.956,0,0,1,6.477,10.939,23.521,23.521,0,0,0-8.171-1.124c-3.133.154-8.571,1.77-7.335,5.262,1.482,4.173,12.653,4.328,19,2.916,1.785,3.773,3.288,7.131,4.827,10.721a23.627,23.627,0,0,0-8.972-2.888c-3.119-.323-8.747.471-8.044,4.1.913,4.728,13.833,6.47,19.924,5.564.878,1.138,3.211-.042,2.986-1.454-.133-.33-.26-.639-.393-.962a12.135,12.135,0,0,0,4.595-5.494,3.507,3.507,0,0,0-.049.681c.161,4.6,11.627,8.2,18.013,8.536a1.661,1.661,0,0,0,2.55-.646,29.513,29.513,0,0,0,3.14-2.606,29.48,29.48,0,0,0,3.147,2.606,1.653,1.653,0,0,0,2.55.646c6.379-.33,17.845-3.934,18.006-8.536.133-3.7-5.543-3.618-8.578-2.824a23.305,23.305,0,0,0-7.616,3.632c.394-1.939.794-3.885,1.194-5.824,4.56-.316,11.388-2.178,15.077-4.848a29.705,29.705,0,0,0,.717,6.421,12.751,12.751,0,0,0,5.473,8.248c-.134.323-.26.632-.394.962-.218,1.412,2.108,2.592,2.986,1.454,6.084.913,19.011-.836,19.924-5.564.7-3.632-4.918-4.426-8.044-4.1a23.543,23.543,0,0,0-8.972,2.887c1.531-3.59,3.035-6.948,4.826-10.721,6.351,1.412,17.521,1.251,19-2.916,1.237-3.492-4.194-5.115-7.335-5.262a23.194,23.194,0,0,0-8.171,1.124,116,116,0,0,1,6.477-10.939c5.894,2.789,16.686,5.093,19.06,1.391,2-3.119-2.93-5.922-5.951-6.78a23.4,23.4,0,0,0-8.62-.71,71.259,71.259,0,0,1,9.527-9.836c4.939,3.709,17.009,8.318,20.072,4.63,2.367-2.852-2.171-6.239-5.065-7.461a23.272,23.272,0,0,0-8.782-1.763,56.723,56.723,0,0,1,7.981-4.307,1.392,1.392,0,0,0,.365.155c3.534.71,8.318,1.145,11.543-.815,2.536-1.546,4.208-5.381,3.92-8.3a1.579,1.579,0,0,0-.934-1.272c-2.852-1.1-7.257-.829-10.1.155-3.6,1.244-5.417,4.285-6.99,7.531-.014.028-.014.049-.028.077a58.073,58.073,0,0,0-5.452,2.852,20.542,20.542,0,0,0,.9-6.211c-.035-2.108-.344-8.276-3.991-7.4-2.719.653-4.763,6.555-5.445,8.873a12.644,12.644,0,0,0,.913,10.032,71.273,71.273,0,0,0-8.824,8.529,20.488,20.488,0,0,0,.014-5.641c-.288-2.087-1.356-8.178-4.869-6.857-2.614.984-3.913,7.089-4.314,9.47a12.609,12.609,0,0,0,2.649,10.517,1.6,1.6,0,0,0-.19,1.229q-2.877,4.247-5.361,8.782c-.1.176-.183.344-.281.513a20.554,20.554,0,0,0-1.3-6.14c-.759-1.967-3.183-7.658-6.3-5.585-2.325,1.546-2.206,7.784-2.051,10.194a12.585,12.585,0,0,0,4.967,9.646,1.689,1.689,0,0,0-.014.934c-1.173,2.389-2.283,4.77-3.379,7.208a20.567,20.567,0,0,0-1.918-4.623c-.892-1.567-3.4-5.627-5.838-5.2-.8-2.733-5.7-2.606-8.459-1.89a23.334,23.334,0,0,0-7.405,3.478q1.518-7.018,3.19-14c6.168-.042,18.625-3.752,18.793-8.55.126-3.7-5.543-3.618-8.585-2.824a23.5,23.5,0,0,0-8.431,4.236q1.475-5.7,3.141-11.346c6.5.414,17.493-1.454,18.308-5.8.688-3.632-4.939-4.4-8.058-4.075a23.253,23.253,0,0,0-7.9,2.361,116.033,116.033,0,0,1,4.714-11.8c6.26,1.848,17.276,2.48,19.046-1.553,1.5-3.386-3.808-5.4-6.92-5.782a23.428,23.428,0,0,0-8.627.618,71.283,71.283,0,0,1,7.9-11.177c5.459,2.909,18.091,5.606,20.549,1.5,1.9-3.175-3.112-5.831-6.154-6.59a23.6,23.6,0,0,0-8.95-.4,55.761,55.761,0,0,1,7.229-5.473,1.428,1.428,0,0,0,.379.091c3.6.161,8.4-.141,11.283-2.578,2.269-1.911,3.323-5.965,2.592-8.81a1.565,1.565,0,0,0-1.117-1.11c-2.986-.653-7.3.288-9.948,1.7-3.365,1.777-4.693,5.065-5.747,8.515-.007.028,0,.049-.014.077a59.986,59.986,0,0,0-4.953,3.653,20.888,20.888,0,0,0-.063-6.274c-.358-2.08-1.616-8.128-5.079-6.7-2.585,1.061-3.7,7.208-4.018,9.6a12.676,12.676,0,0,0,2.452,9.779,71.22,71.22,0,0,0-7.405,9.779,20.438,20.438,0,0,0-.857-5.578c-.611-2.016-2.606-7.868-5.866-6.028-2.438,1.377-2.775,7.609-2.8,10.018a12.608,12.608,0,0,0,4.243,9.99,1.655,1.655,0,0,0,0,1.243c-1.461,3.091-2.768,6.267-3.941,9.5-.07.19-.126.386-.19.569a20.66,20.66,0,0,0-2.234-5.887c-1.054-1.827-4.321-7.075-7.089-4.546-2.059,1.883-.977,8.037-.45,10.391a12.62,12.62,0,0,0,6.4,8.775,1.67,1.67,0,0,0,.161,1.026q-1.159,3.794-2.22,7.63a20.53,20.53,0,0,0-2.649-4.356c-1.314-1.651-5.339-6.351-7.686-3.442-1.749,2.171.246,8.086,1.117,10.341a12.763,12.763,0,0,0,6.688,7.314q-1.591,6.586-3,13.222a20.575,20.575,0,0,0-3.119-5.543c-.162-.2-.365-.45-.6-.724a4.264,4.264,0,0,0-.674-2.712,9.131,9.131,0,0,0-6.421,0,4.32,4.32,0,0,0-.674,2.712c-.232.274-.436.52-.6.724a20.572,20.572,0,0,0-3.119,5.543q-1.412-6.629-3-13.222a12.74,12.74,0,0,0,6.688-7.314c.871-2.255,2.866-8.171,1.117-10.341-2.346-2.916-6.372,1.792-7.686,3.442a20.243,20.243,0,0,0-2.649,4.356q-1.054-3.836-2.22-7.63a1.67,1.67,0,0,0,.161-1.026,12.62,12.62,0,0,0,6.4-8.775c.52-2.353,1.6-8.508-.45-10.391-2.768-2.529-6.035,2.719-7.089,4.546a20.661,20.661,0,0,0-2.234,5.887c-.07-.19-.126-.379-.2-.569-1.166-3.232-2.48-6.407-3.941-9.491a1.622,1.622,0,0,0,0-1.244,12.609,12.609,0,0,0,4.244-9.99c-.028-2.417-.365-8.648-2.8-10.018-3.267-1.841-5.255,4.012-5.866,6.028a20.437,20.437,0,0,0-.857,5.578,71.8,71.8,0,0,0-7.405-9.779,12.648,12.648,0,0,0,2.452-9.779c-.323-2.389-1.433-8.536-4.018-9.6-3.47-1.426-4.721,4.623-5.079,6.7a20.439,20.439,0,0,0-.063,6.274,60.412,60.412,0,0,0-4.953-3.653.14.14,0,0,0-.014-.077c-1.054-3.45-2.382-6.73-5.747-8.515-2.648-1.405-6.962-2.354-9.948-1.7a1.566,1.566,0,0,0-1.117,1.11c-.738,2.845.323,6.892,2.592,8.81,2.887,2.438,7.679,2.733,11.283,2.578a1.241,1.241,0,0,0,.386-.091,56.236,56.236,0,0,1,7.229,5.473,23.456,23.456,0,0,0-8.95.4c-3.049.759-8.058,3.414-6.161,6.59,2.459,4.117,15.091,1.412,20.549-1.5a71.6,71.6,0,0,1,7.9,11.177,23.379,23.379,0,0,0-8.62-.618c-3.119.379-8.417,2.4-6.92,5.782,1.771,4.026,12.793,3.4,19.046,1.553a116,116,0,0,1,4.714,11.8,23.413,23.413,0,0,0-7.9-2.361c-3.119-.33-8.747.436-8.058,4.075.822,4.342,11.8,6.218,18.308,5.8q1.654,5.638,3.147,11.346a23.557,23.557,0,0,0-8.43-4.236c-3.035-.8-8.712-.878-8.578,2.824.169,4.8,12.632,8.5,18.793,8.55,1.124,4.651,2.178,9.33,3.189,14a23.331,23.331,0,0,0-7.4-3.478c-2.88-.759-8.136-.864-8.543,2.3-1.778,1.04-3.351,3.618-4.019,4.791a20.241,20.241,0,0,0-1.918,4.623c-1.089-2.438-2.206-4.819-3.379-7.208a1.689,1.689,0,0,0-.014-.934,12.574,12.574,0,0,0,4.967-9.646c.155-2.41.274-8.648-2.051-10.194-3.119-2.073-5.543,3.611-6.295,5.585a20.342,20.342,0,0,0-1.3,6.14c-.1-.169-.183-.337-.281-.513q-2.487-4.531-5.36-8.782a1.641,1.641,0,0,0-.19-1.229,12.568,12.568,0,0,0,2.648-10.517c-.393-2.382-1.7-8.487-4.314-9.47-3.506-1.321-4.574,4.77-4.869,6.857a20.494,20.494,0,0,0,.014,5.641,72.274,72.274,0,0,0-8.824-8.529,12.649,12.649,0,0,0,.913-10.032c-.689-2.318-2.733-8.213-5.445-8.873-3.646-.878-3.955,5.3-3.99,7.4a20.71,20.71,0,0,0,.9,6.211,59.766,59.766,0,0,0-5.452-2.852c-.007-.028-.014-.049-.021-.077-1.574-3.246-3.393-6.288-6.99-7.531-2.838-.984-7.243-1.251-10.1-.155a1.593,1.593,0,0,0-.934,1.272c-.288,2.923,1.384,6.759,3.92,8.3Zm88.689,44.057c-.126-.126-.26-.253-.393-.372.126-.155.274-.3.393-.45.126.162.267.3.393.45C1093.685,967.472,1093.552,967.592,1093.425,967.718Zm-23.367,8.269a15.575,15.575,0,0,0,.59-2,31.369,31.369,0,0,0,.717-5.339,36.532,36.532,0,0,0,13.348,3.766c.4,1.939.8,3.885,1.194,5.824a23.2,23.2,0,0,0-7.609-3.632c-2.571-.674-7.011-.822-8.248,1.384Z" transform="translate(-994.755 -418.163)" fill="#c6d0db"/>
              </g>
            </g>
          </g>
          <g id="Group_6317" data-name="Group 6317" transform="translate(0 0)">
            <rect id="Rectangle_5252" data-name="Rectangle 5252" width="338.234" height="436.183" transform="translate(5.206 4.988)" fill="#fff" opacity="0.31"/>
            <path id="Path_12064" data-name="Path 12064" d="M1210.965,634.542H1175.55L1326.036,211.23h35.415Z" transform="translate(-1088.231 -201.247)" fill="#fff" opacity="0.6"/>
            <path id="Path_12065" data-name="Path 12065" d="M1129.461,634.542H1111.75L1262.242,211.23h17.7Z" transform="translate(-1069.253 -201.247)" fill="#fff" opacity="0.6"/>
            <path id="Path_12066" data-name="Path 12066" d="M1374.385,653.927h-17.7L1481.48,276.4l3.766,24.589Z" transform="translate(-1142.109 -220.632)" fill="#fff" opacity="0.6"/>
            <rect id="Rectangle_5253" data-name="Rectangle 5253" width="9.983" height="446.798" transform="translate(0.007 0)" fill="#fff"/>
            <rect id="Rectangle_5254" data-name="Rectangle 5254" width="9.983" height="442.295" transform="translate(112.752 2.248)" fill="#fff"/>
            <rect id="Rectangle_5255" data-name="Rectangle 5255" width="9.983" height="348.217" transform="translate(0 9.983) rotate(-90)" fill="#fff"/>
            <rect id="Rectangle_5256" data-name="Rectangle 5256" width="9.983" height="348.217" transform="translate(0.007 446.166) rotate(-90)" fill="#fff"/>
            <rect id="Rectangle_5257" data-name="Rectangle 5257" width="9.983" height="442.295" transform="translate(225.496 2.248)" fill="#fff"/>
            <rect id="Rectangle_5258" data-name="Rectangle 5258" width="9.983" height="446.798" transform="translate(338.241 0)" fill="#fff"/>
            <rect id="Rectangle_5259" data-name="Rectangle 5259" width="348.217" height="9.983" transform="translate(0.007 218.408)" fill="#fff"/>
            <rect id="Rectangle_5260" data-name="Rectangle 5260" width="328.152" height="3.52" transform="translate(10.039 228.391)" fill="#aab6c2"/>
            <rect id="Rectangle_5261" data-name="Rectangle 5261" width="328.152" height="3.527" transform="translate(10.039 433.296)" fill="#aab6c2"/>
            <rect id="Rectangle_5262" data-name="Rectangle 5262" width="328.342" height="3.52" transform="translate(9.941 9.983)" fill="#aab6c2"/>
          </g>
        </g>
        <g id="Group_6319" data-name="Group 6319" transform="translate(-35.435 178.657)">
          <rect id="Rectangle_5263" data-name="Rectangle 5263" width="257.258" height="155.101" fill="#aab6c2"/>
          <rect id="Rectangle_5264" data-name="Rectangle 5264" width="231.721" height="129.283" transform="translate(12.772 12.913)" fill="#e6ebf0"/>
          <rect id="Rectangle_5265" data-name="Rectangle 5265" width="190.524" height="94.197" transform="translate(33.371 30.455)" fill="#c6d0db"/>
          <path id="Path_12067" data-name="Path 12067" d="M477.84,510.677l30.02-43.565a2.833,2.833,0,0,1,4.728.1L529.1,493.38l13.25-14.051a2.834,2.834,0,0,1,4.545.576l16.938,30.771H477.847Z" transform="translate(-444.469 -386.024)" fill="#aab6c2"/>
          <path id="Path_12068" data-name="Path 12068" d="M552.687,423.117a9.4,9.4,0,1,1-9.407-9.407A9.412,9.412,0,0,1,552.687,423.117Z" transform="translate(-461.138 -370.503)" fill="#fff"/>
          <path id="Path_12069" data-name="Path 12069" d="M636.268,423.146c-2.023-.562-2.852-2.522-4.728-3.386a6.993,6.993,0,0,0-5.22-.253,9.2,9.2,0,0,0-2.283,1.208c-1.841,1.159-1.461,1.236-3.52,1.517a23.925,23.925,0,0,0-4.307.97c-2.922.906-11.381.112-12.836,3.78-1.286,3.246,3.295,2.635,4.862,2.768,2.67.225,4.833,1.841,7.5,1.9a16.553,16.553,0,0,0,6.955-1.9c2.206,0,4.412.028,6.625-.014,3.632-.07,7.805.274,11.36-.393,1-.19,2.044-.323,2.522-1.335,1.953-4.145-5.255-4.384-6.941-4.855Z" transform="translate(-481.743 -372.113)" fill="#fff"/>
          <path id="Path_12070" data-name="Path 12070" d="M689.257,434.531a4.8,4.8,0,0,0-2.522-.126c-.738.119-1.623.674-2.368.717a12.5,12.5,0,0,1-2.7-.6,11.9,11.9,0,0,0-6.52,1.131,3.384,3.384,0,0,0-3.351.632,2.462,2.462,0,0,0-.154,3.583c1.384,1.475,4.4,1.651,6.267,1.834a26.029,26.029,0,0,0,10.138-.984c2.887-.941,5.129-4.686,1.208-6.189Z" transform="translate(-501.908 -376.627)" fill="#fff"/>
          <path id="Path_12071" data-name="Path 12071" d="M631.9,513.858l18.737-33.512a1.746,1.746,0,0,1,3.007-.063l14.205,23.184,6.014-9.372a1.743,1.743,0,0,1,3.042.2l9.267,19.559,15.6-36.216a1.746,1.746,0,0,1,3.246.105l9.161,25.727v10.384H631.89Z" transform="translate(-490.292 -389.205)" fill="#aab6c2"/>
        </g>
        <g id="Group_6320" data-name="Group 6320" transform="translate(181.012 0.323)">
          <path id="Path_12072" data-name="Path 12072" d="M872.333,283.553A58.731,58.731,0,0,0,931,224.89h-2.761a55.9,55.9,0,0,1-111.8,0H813.67A58.731,58.731,0,0,0,872.333,283.553Z" transform="translate(-760.81 -136.004)" fill="#c6d0db"/>
          <path id="Path_12073" data-name="Path 12073" d="M860.546,159.58l73.992,61.3H771.4Z" transform="translate(-748.237 -116.577)" fill="#aab6c2"/>
          <path id="Path_12074" data-name="Path 12074" d="M887.51,234.51l78.137,251.842H738.43L812.275,234.51Z" transform="translate(-738.43 -138.865)" opacity="0.22" fill="url(#linear-gradient)"/>
          <path id="Path_12075" data-name="Path 12075" d="M900.077,98.37v61.866H892.89V101.595Z" transform="translate(-784.375 -98.37)" fill="#c6d0db"/>
          <path id="Path_12076" data-name="Path 12076" d="M0,0H24.076V24.238a1.838,1.838,0,0,1-1.841,1.841H1.841A1.838,1.838,0,0,1,0,24.238V0Z" transform="translate(124.154 77.189) rotate(180)" fill="#ffbf5b"/>
          <path id="Path_12077" data-name="Path 12077" d="M878.51,243.836a14.019,14.019,0,1,1,14.023,14.016A14.016,14.016,0,0,1,878.51,243.836Z" transform="translate(-780.097 -137.47)" fill="#c6d0db"/>
          <path id="Path_12078" data-name="Path 12078" d="M897.885,259.114c3.316-.6,7.876-3.211,8.74-6.716.3-1.251,2.241-.724,1.932.534-1.026,4.18-6.126,7.391-10.138,8.114C897.161,261.271,896.62,259.346,897.885,259.114Z" transform="translate(-785.646 -143.974)" fill="#fff"/>
          <path id="Path_12079" data-name="Path 12079" d="M863.756,159.58l81.566,61.3H782.19Z" transform="translate(-751.447 -116.577)" fill="#c6d0db"/>
          <path id="Path_12080" data-name="Path 12080" d="M891.715,148.787h6.723A4.219,4.219,0,0,1,902.654,153v6.716a4.219,4.219,0,0,1-4.215,4.215h-6.723a4.219,4.219,0,0,1-4.215-4.215V153a4.219,4.219,0,0,1,4.215-4.215Z" transform="translate(-782.772 -113.365)" fill="#c6d0db"/>
        </g>
      </g>
    </g>
    <g id="Group_6325" data-name="Group 6325" transform="translate(583.662 322.065)">
      <g id="Group_6323" data-name="Group 6323" transform="translate(0 0)">
        <path id="Path_12082" data-name="Path 12082" d="M839.767,416.97H1417.26a21.084,21.084,0,0,1,21.076,21.076V785.807H818.69V438.046A21.084,21.084,0,0,1,839.767,416.97Z" transform="translate(-754.927 -416.97)" fill="#f40"/>
        <path id="Path_12083" data-name="Path 12083" d="M737.948,970.467h727.136a10.02,10.02,0,0,1,10.011,10.011v4.482a25.562,25.562,0,0,1-25.552,25.552H753.489a25.569,25.569,0,0,1-25.559-25.559v-4.482a10.021,10.021,0,0,1,10.011-10.011Z" transform="translate(-727.93 -581.608)" fill="#f40"/>
        <path id="Path_12084" data-name="Path 12084" d="M1305.89,981.535H1129.375a11.064,11.064,0,0,1-11.065-11.065h198.645A11.064,11.064,0,0,1,1305.89,981.535Z" transform="translate(-844.05 -581.611)" fill="#ff936b"/>
        <path id="Path_12085" data-name="Path 12085" d="M1466.287,961.993H749.69l48.476-20.023h619.646Z" transform="translate(-734.403 -573.133)" fill="#ff936b"/>
        <path id="Path_12086" data-name="Path 12086" d="M1449.509,961.993H791.11l44.542-20.023h569.315Z" transform="translate(-746.723 -573.133)" fill="#1a1a1a"/>
        <rect id="Rectangle_5266" data-name="Rectangle 5266" width="573.278" height="304.905" transform="translate(86.947 27.048)" fill="#fff"/>
      </g>
      <g id="Group_6324" data-name="Group 6324" transform="translate(138.402 178.721)">
        <path id="Path_12087" data-name="Path 12087" d="M924.93,683.183a10.757,10.757,0,1,1,10.742,10.925A10.819,10.819,0,0,1,924.93,683.183Zm17.212,0c0-3.808-2.7-6.934-6.471-6.934s-6.47,3.133-6.47,6.934,2.67,6.906,6.47,6.906S942.143,686.991,942.143,683.183Z" transform="translate(-924.93 -671.619)" fill="#f40"/>
        <path id="Path_12088" data-name="Path 12088" d="M976.113,692.137l2.059,3.344-3.035,1.841-2.206-3.653a10.638,10.638,0,0,1-2.979.429,10.94,10.94,0,1,1,10.77-10.925,11,11,0,0,1-4.6,8.958Zm-5.4-2.087-1.869-3.07,3.007-1.841,2.15,3.5a7.084,7.084,0,0,0,2.424-5.459c0-3.808-2.7-6.934-6.471-6.934s-6.47,3.133-6.47,6.934,2.67,6.906,6.47,6.906a6.983,6.983,0,0,0,.766-.028Z" transform="translate(-935.127 -671.616)" fill="#f40"/>
        <path id="Path_12089" data-name="Path 12089" d="M1007.307,672.75v3.773h-5.831V693.89h-4.265V676.523H991.38V672.75Z" transform="translate(-944.696 -671.773)" fill="#f40"/>
        <path id="Path_12090" data-name="Path 12090" d="M1018.59,693.89V672.75h4.264v21.14Z" transform="translate(-952.79 -671.773)" fill="#f40"/>
        <path id="Path_12091" data-name="Path 12091" d="M1055.879,693.89h-4.356l-1.532-13.1-5.156,10.707h-3.344l-5.213-10.707-1.532,13.1h-4.356L1033,672.75h3.618l6.534,13.868,6.47-13.868h3.681Z" transform="translate(-956.3 -671.773)" fill="#f40"/>
        <path id="Path_12092" data-name="Path 12092" d="M1084.364,693.89l-1.721-5.065h-7.918l-1.686,5.065H1068.5l7.883-21.14h4.6l7.854,21.14h-4.482Zm-8.375-8.775h5.4l-2.7-8.009-2.7,8.009Z" transform="translate(-967.635 -671.773)" fill="#f40"/>
        <path id="Path_12093" data-name="Path 12093" d="M1114.5,690.117h9.267v3.773H1110.24V672.75H1123.5v3.773h-8.985v5.03h7.883v3.836h-7.883v4.728Z" transform="translate(-980.051 -671.773)" fill="#f40"/>
        <path id="Path_12094" data-name="Path 12094" d="M1132.82,683.155a10.853,10.853,0,0,1,10.742-10.925,10.507,10.507,0,0,1,8.62,4.391l-3.253,2.361a6.212,6.212,0,0,0-5.213-2.733,6.927,6.927,0,0,0-.028,13.84,6.212,6.212,0,0,0,5.248-2.733l3.253,2.361a10.507,10.507,0,0,1-8.62,4.391,10.837,10.837,0,0,1-10.742-10.953Z" transform="translate(-986.768 -671.619)" fill="#f40"/>
        <path id="Path_12095" data-name="Path 12095" d="M1176.678,672.75h4.265v21.14h-3.836l-7.672-13.257V693.89h-4.264V672.75h3.955l7.545,13.1v-13.1Z" transform="translate(-996.39 -671.773)" fill="#f40"/>
        <path id="Path_12096" data-name="Path 12096" d="M1216.561,687.946v3.07h-4.784V695.8h-3.07v-4.784h-4.756v-3.07h4.756V683.19h3.07v4.756Z" transform="translate(-1007.925 -674.879)" fill="#f40"/>
        <path id="Path_12097" data-name="Path 12097" d="M1247.847,682.292h4.019v14.325h-4.019v-2.058a5.655,5.655,0,0,1-4.721,2.424c-3.955,0-6.906-3.07-6.906-7.517s2.888-7.545,7-7.545a5.48,5.48,0,0,1,4.63,2.269v-1.9Zm-.12,7.18a3.7,3.7,0,1,0-7.4,0,3.675,3.675,0,0,0,3.681,3.773,3.725,3.725,0,0,0,3.716-3.773Z" transform="translate(-1017.524 -674.501)" fill="#1a1a1a"/>
        <path id="Path_12098" data-name="Path 12098" d="M1278.245,688.766v7.854h-4.019v-7.637c0-2.241-1.349-3.253-2.733-3.253a3.078,3.078,0,0,0-3.225,3.372v7.517h-4.019V682.3h4.019v2.333c.674-1.869,2.915-2.7,4.293-2.7,3.745,0,5.7,2.543,5.676,6.843Z" transform="translate(-1025.862 -674.504)" fill="#1a1a1a"/>
        <path id="Path_12099" data-name="Path 12099" d="M1300.067,671.36h4.019v22.123h-4.019v-1.777a5.726,5.726,0,0,1-4.6,2.15c-3.681,0-7.026-2.944-7.026-7.545s3.344-7.517,7.026-7.517a5.63,5.63,0,0,1,4.6,2.115v-9.541Zm-.119,14.943a3.778,3.778,0,0,0-3.709-3.773,3.791,3.791,0,1,0,3.709,3.773Z" transform="translate(-1033.057 -671.36)" fill="#1a1a1a"/>
        <path id="Path_12100" data-name="Path 12100" d="M1325.82,683.183a10.757,10.757,0,1,1,10.742,10.925A10.819,10.819,0,0,1,1325.82,683.183Zm17.212,0c0-3.808-2.7-6.934-6.47-6.934s-6.47,3.133-6.47,6.934,2.67,6.906,6.47,6.906S1343.033,686.991,1343.033,683.183Z" transform="translate(-1044.176 -671.619)" fill="#f40"/>
        <path id="Path_12101" data-name="Path 12101" d="M1377,692.137l2.058,3.344-3.035,1.841-2.206-3.653a10.639,10.639,0,0,1-2.979.429,10.94,10.94,0,1,1,10.77-10.925,11,11,0,0,1-4.6,8.958Zm-5.4-2.087-1.869-3.07,3.007-1.841,2.15,3.5a7.084,7.084,0,0,0,2.424-5.459c0-3.808-2.7-6.934-6.47-6.934s-6.47,3.133-6.47,6.934,2.67,6.906,6.47,6.906a6.981,6.981,0,0,0,.766-.028Z" transform="translate(-1054.373 -671.616)" fill="#f40"/>
        <path id="Path_12102" data-name="Path 12102" d="M1408.207,672.75v3.773h-5.831V693.89h-4.264V676.523h-5.831V672.75Z" transform="translate(-1063.945 -671.773)" fill="#f40"/>
        <path id="Path_12103" data-name="Path 12103" d="M1419.48,693.89V672.75h4.264v21.14Z" transform="translate(-1072.036 -671.773)" fill="#f40"/>
        <path id="Path_12104" data-name="Path 12104" d="M1456.768,693.89h-4.355l-1.532-13.1-5.157,10.707h-3.344l-5.213-10.707-1.532,13.1h-4.356l2.607-21.14h3.618l6.534,13.868,6.47-13.868h3.681Z" transform="translate(-1075.546 -671.773)" fill="#f40"/>
        <path id="Path_12105" data-name="Path 12105" d="M1485.254,693.89l-1.721-5.065h-7.918l-1.686,5.065h-4.538l7.883-21.14h4.6l7.855,21.14h-4.482Zm-8.374-8.775h5.4l-2.7-8.009-2.7,8.009Z" transform="translate(-1086.882 -671.773)" fill="#f40"/>
        <path id="Path_12106" data-name="Path 12106" d="M1509.3,683.183a10.757,10.757,0,1,1,10.742,10.925A10.815,10.815,0,0,1,1509.3,683.183Zm17.212,0c0-3.808-2.7-6.934-6.47-6.934s-6.47,3.133-6.47,6.934,2.67,6.906,6.47,6.906S1526.513,686.991,1526.513,683.183Z" transform="translate(-1098.753 -671.619)" fill="#f40"/>
        <path id="Path_12107" data-name="Path 12107" d="M1556.918,672.75h4.264v21.14h-3.836l-7.672-13.257V693.89h-4.264V672.75h3.955l7.546,13.1v-13.1Z" transform="translate(-1109.494 -671.773)" fill="#f40"/>
        <path id="Path_12108" data-name="Path 12108" d="M1579.465,690.117h9.266v3.773H1575.2V672.75h13.257v3.773h-8.993v5.03h7.883v3.836h-7.883v4.728Z" transform="translate(-1118.355 -671.773)" fill="#f40"/>
      </g>
    </g>
    <g id="Group_6326" data-name="Group 6326" transform="translate(263.828 647.904)">
      <path id="Path_12109" data-name="Path 12109" d="M283.274,983.714c0,2.065-10.594,2.065-10.594,0l75.025-98.567c0-5.838,18.674-5.838,18.674,0Z" transform="translate(-272.68 -880.768)"/>
      <path id="Path_12110" data-name="Path 12110" d="M550.065,986.242c0,2.066,10.594,2.066,10.594,0l-43.375-92.6c0-5.838-18.674-5.838-18.674,0l51.455,92.6Z" transform="translate(-339.884 -883.296)"/>
    </g>
    <path id="Path_12111" data-name="Path 12111" d="M564.538,587.355c-9.618,7.51-21.652,12.836-22.545,20.2L494.74,624.871l17.184,32.352,38.1-38.479a15.5,15.5,0,0,0,4.426.021c7.679-1,22.376-13.292,23.177-20.135s-3.239-18.969-13.089-11.276Z" transform="translate(-74.905 -144.853)" fill="#fff" stroke="#000" stroke-width="2"/>
    <g id="Group_6331" data-name="Group 6331" transform="translate(472.927 374.39)">
      <path id="Path_12112" data-name="Path 12112" d="M705.527,583.132H581.76a4.628,4.628,0,0,1-4.545-5.5l15.505-80.842a6.585,6.585,0,0,1,6.463-5.339H723.211a4.336,4.336,0,0,1,4.257,5.15l-15.59,81.292a6.46,6.46,0,0,1-6.351,5.248Z" transform="translate(-572.339 -491.45)" fill="#f40"/>
      <path id="Path_12113" data-name="Path 12113" d="M725.144,491.8a4.308,4.308,0,0,1,.857,3.492l-15.59,81.292a6.46,6.46,0,0,1-6.351,5.248H580.293a4.533,4.533,0,0,1-1.553-.267,4.619,4.619,0,0,0,3.562,1.672H706.07a6.465,6.465,0,0,0,6.351-5.248L728.01,496.7a4.311,4.311,0,0,0-2.873-4.9Z" transform="translate(-572.818 -491.554)" fill="#ff936b"/>
      <path id="Path_12114" data-name="Path 12114" d="M707.329,574.431H586.92l13.9-72.461h120.41Z" transform="translate(-575.251 -494.579)" fill="#fff"/>
      <path id="Path_12115" data-name="Path 12115" d="M570.31,606.674c4.026-1.658,9.667-6.189,12.688-5.691s3.527,2.417,2.719,4.229-5.74,4.63-6.744,6.042c.1,2.016.2,6.646-2.817,7.749" transform="translate(-570.31 -524.02)" fill="#fff" stroke="#000" stroke-linecap="round" stroke-width="2"/>
      <path id="Path_12116" data-name="Path 12116" d="M661.955,616.385H651.347a1.585,1.585,0,0,1-1.581-1.756l.014-.162a1.91,1.91,0,0,1,1.9-1.707h10.608a1.586,1.586,0,0,1,1.581,1.756l-.014.162A1.91,1.91,0,0,1,661.955,616.385Z" transform="translate(-593.941 -527.534)" fill="none" stroke="#000" stroke-width="1"/>
      <g id="Group_6328" data-name="Group 6328" transform="translate(29.359 12.906)">
        <path id="Path_12117" data-name="Path 12117" d="M667.728,550.156H612.1l6.421-33.476h55.628Z" transform="translate(-612.1 -511.861)" fill="#fff" stroke="#000" stroke-linecap="round" stroke-width="1"/>
        <g id="Group_6327" data-name="Group 6327" transform="translate(5.367)">
          <path id="Path_12118" data-name="Path 12118" d="M676.843,516.206h-57.1l.611-3.6a3.35,3.35,0,0,1,3.309-2.789h50.906a2.986,2.986,0,0,1,2.909,3.653Z" transform="translate(-619.74 -509.82)"/>
          <ellipse id="Ellipse_204" data-name="Ellipse 204" cx="1.553" cy="1.412" rx="1.553" ry="1.412" transform="matrix(0.912, -0.411, 0.411, 0.912, 2.822, 2.683)" fill="#9b9b9b"/>
          <ellipse id="Ellipse_205" data-name="Ellipse 205" cx="1.553" cy="1.412" rx="1.553" ry="1.412" transform="matrix(0.912, -0.411, 0.411, 0.912, 7.141, 2.685)" fill="#fff"/>
          <ellipse id="Ellipse_206" data-name="Ellipse 206" cx="1.553" cy="1.412" rx="1.553" ry="1.412" transform="matrix(0.912, -0.411, 0.411, 0.912, 11.466, 2.681)" fill="#f40"/>
        </g>
      </g>
      <g id="Group_6330" data-name="Group 6330" transform="translate(56.14 32.05)">
        <path id="Path_12119" data-name="Path 12119" d="M705.848,577.406H650.22l6.421-33.476h55.628Z" transform="translate(-650.22 -539.111)" fill="#fff" stroke="#000" stroke-linecap="round" stroke-width="1"/>
        <path id="Path_12120" data-name="Path 12120" d="M671.426,571.736H664.71l3.836-20.016h6.716Z" transform="translate(-654.53 -541.428)" fill="#f40"/>
        <g id="Group_6329" data-name="Group 6329" transform="translate(5.374)">
          <path id="Path_12121" data-name="Path 12121" d="M714.973,543.456h-57.1l.611-3.6a3.35,3.35,0,0,1,3.309-2.789H712.7a2.986,2.986,0,0,1,2.909,3.653Z" transform="translate(-657.87 -537.07)"/>
          <ellipse id="Ellipse_207" data-name="Ellipse 207" cx="1.553" cy="1.412" rx="1.553" ry="1.412" transform="matrix(0.912, -0.411, 0.411, 0.912, 2.822, 2.681)" fill="#9b9b9b"/>
          <ellipse id="Ellipse_208" data-name="Ellipse 208" cx="1.553" cy="1.412" rx="1.553" ry="1.412" transform="matrix(0.912, -0.411, 0.411, 0.912, 7.134, 2.679)" fill="#fff"/>
          <ellipse id="Ellipse_209" data-name="Ellipse 209" cx="1.553" cy="1.412" rx="1.553" ry="1.412" transform="matrix(0.912, -0.411, 0.411, 0.912, 11.452, 2.681)" fill="#f40"/>
        </g>
        <path id="Path_12122" data-name="Path 12122" d="M682.063,562.89l-2.332,12.168h6.716l2.332-12.168Z" transform="translate(-658.998 -544.75)" fill="#1a1a1a"/>
        <path id="Path_12123" data-name="Path 12123" d="M696.713,562.89l-2.332,12.168H701.1l2.332-12.168Z" transform="translate(-663.356 -544.75)" fill="#9b9b9b"/>
      </g>
    </g>
    <g id="Group_6343" data-name="Group 6343" transform="translate(294.048 305.689)">
      <g id="Group_6332" data-name="Group 6332" transform="translate(75.717 40.515)">
        <path id="Path_12124" data-name="Path 12124" d="M449.656,467.729l-3.716,15.245s1.827,9.7-2.248,9.245c-13.854-1.539-18.632-14.838-18.632-14.838l5.719-23.472,18.877,13.819Z" transform="translate(-423.943 -452.097)" fill="#fff"/>
        <path id="Path_12125" data-name="Path 12125" d="M423.575,476.98l-.105-.3,6.168-25.348,20.76,15.2-3.829,15.723c.281,1.609,1.089,7.187-.941,9.379a2.889,2.889,0,0,1-2.529.906,23.634,23.634,0,0,1-3.056-.541c-12.014-2.972-16.285-14.48-16.468-15.006Zm7.4-22.018-5.255,21.575c.78,1.89,5.719,12.519,17.62,13.847a.746.746,0,0,0,.717-.232c1.04-1.124.836-5.206.358-7.749l3.555-15Z" transform="translate(-423.47 -451.33)"/>
      </g>
      <g id="Group_6333" data-name="Group 6333" transform="translate(76.868 8.142)">
        <path id="Path_12126" data-name="Path 12126" d="M465.6,412.584s3.175,14.922,1.553,30c-1.152,10.707-22.741,22.425-34.657,4.047s-2.171-39.68-2.171-39.68Z" transform="translate(-425.544 -405.756)" fill="#fff"/>
        <path id="Path_12127" data-name="Path 12127" d="M431.159,446.707c-12.091-18.66-2.339-40.488-2.241-40.713l.337-.745,36.806,5.873.155.724c.035.155,3.2,15.266,1.567,30.343-.653,6.049-7.194,12.224-14.894,14.058a19.273,19.273,0,0,1-9.147.035c-4.918-1.215-9.274-4.482-12.583-9.583Zm-.6-39.069c-1.539,3.878-7.819,22.116,2.4,37.9,6.47,9.983,14.943,9.7,19.425,8.627,6.871-1.637,12.7-7,13.257-12.2,1.391-12.871-.794-25.8-1.391-28.938Z" transform="translate(-425.109 -405.25)"/>
      </g>
      <path id="Path_12128" data-name="Path 12128" d="M419.721,424.016c-.084-.126-.021-.745-.119-1.475a11.021,11.021,0,0,1,4.855-10.377,2.893,2.893,0,0,1,3.9.6.427.427,0,0,1,.133,0c4.482.738,26.563,10.377,26.451,13.461-.19,5.185.857,17.17-4.173,19.376-11.768,5.164-26.247-1.286-29.528-3.176-3.948-2.283-2.529-7.461-3.183-11.065-.386-2.15-.71-3.681.372-5.733a9.828,9.828,0,0,1,1.293-1.609Z" transform="translate(-346.034 -399.013)"/>
      <path id="Path_12129" data-name="Path 12129" d="M426.826,412.137c2.185,11.346,21.695,11.051,28.973,9.47,4.953-1.082,2.347-5.986,7.728-7.391a2.5,2.5,0,0,0,3.639,1.8c4.567-2.375,10.384-6.927,7.356-12.842-2.354-4.595-7.321-4.1-11.515-2.691-10.082-12.379-39.884-7.566-36.181,11.655Z" transform="translate(-348.657 -393.661)"/>
      <g id="Group_6335" data-name="Group 6335" transform="translate(91.258 214.345)">
        <g id="Group_6334" data-name="Group 6334" transform="translate(221.966 175.367)">
          <path id="Path_12130" data-name="Path 12130" d="M788.551,950.5c-2.494-2.41-25.432,2.831-25.488,4.257-.162,4.37.85,20.887,3.344,22.77,2.417,1.827,23.065,3.8,22.987-.4-.063-3.639,1.567-24.3-.843-26.627Z" transform="translate(-761.985 -948.819)" fill="#fff"/>
          <path id="Path_12131" data-name="Path 12131" d="M765.318,977.934c-3.225-2.431-3.878-20.781-3.773-23.669.035-.913.977-1.37,1.939-1.756,4.11-1.658,22.5-6.007,25.369-3.232h0c1.855,1.784,1.9,9.351,1.328,22.685-.091,2.164-.169,3.871-.154,4.693a2.614,2.614,0,0,1-1.7,2.417,11.4,11.4,0,0,1-3.569.927c-6.449.829-17.318-.471-19.432-2.065Zm-1.637-23.177c-.148,6.105,1.194,20.156,2.93,21.463,1.707,1.286,16.735,3,20.732.941.323-.162.527-.344.527-.457-.014-.85.056-2.6.155-4.827.232-5.339.843-19.538-.667-21.041-1.925-1.553-20.7,2.136-23.676,3.927Z" transform="translate(-761.535 -948.374)"/>
        </g>
        <path id="Path_12132" data-name="Path 12132" d="M763,981.513s-8.761,16.742.471,27.807c0,0,56.267-4.581,72.812-9.386,0,0-2.22-20.669-16.924-20.564a267.959,267.959,0,0,0-30.975,2.459s-13.412,9.73-25.39-.323Z" transform="translate(-538.887 -782.227)"/>
        <path id="Path_12133" data-name="Path 12133" d="M627.03,802.743c32.619,6.562,36.413,90.79,36.413,90.79l35.514-9.1c13.341-124.463-25.32-153.5-73.8-167.361S510.14,694.256,466.73,701.113c-41.275,6.527-10.665,88.148-3.365,98.139,11.283,15.449,58.1,23.943,84.088,15.056,29.907-10.222,62.035-15.091,79.584-11.564Z" transform="translate(-445.59 -698.758)"/>
      </g>
      <g id="Group_6337" data-name="Group 6337" transform="translate(80.961 163.999)">
        <g id="Group_6336" data-name="Group 6336" transform="translate(273.563 100.808)">
          <path id="Path_12134" data-name="Path 12134" d="M840.937,772.132c-3.4-.667-19.8,16.215-19.067,17.437,2.241,3.752,12.077,17.065,15.2,17.283,3.021.211,21.421-9.365,19.067-12.843-2.037-3.014-11.915-21.238-15.2-21.877Z" transform="translate(-820.775 -771.04)" fill="#fff"/>
          <path id="Path_12135" data-name="Path 12135" d="M836.542,807.472c-4.033-.288-14.564-15.322-16.046-17.809-.464-.787.077-1.679.674-2.529,2.543-3.625,15.61-17.283,19.524-16.517h0c2.529.492,6.681,6.815,13.454,18.308,1.1,1.869,1.967,3.337,2.424,4.018a2.607,2.607,0,0,1-.112,2.951,11.491,11.491,0,0,1-2.487,2.726c-4.96,4.2-14.789,9.028-17.43,8.845Zm-13.988-18.554c3.2,5.2,11.971,16.257,14.135,16.411,2.136.147,15.667-6.59,17.908-10.5.183-.309.26-.576.2-.674-.471-.7-1.363-2.213-2.5-4.131-2.712-4.609-9.927-16.847-12.014-17.29C837.821,772.486,824.079,785.792,822.555,788.918Z" transform="translate(-820.321 -770.586)"/>
        </g>
        <path id="Path_12136" data-name="Path 12136" d="M837.08,802.913s1.756,18.814,15.533,23.072c0,0,44.71-34.467,55.979-47.5,0,0-13.117-16.13-25.383-8.037a267.33,267.33,0,0,0-24.645,18.919s-5.951,15.463-21.477,13.552Z" transform="translate(-551.743 -669.061)"/>
        <path id="Path_12137" data-name="Path 12137" d="M628.614,704.217c30.94-12.252,79.957,56.344,79.957,56.344L733.412,733.6c-56.541-111.677-104.785-115-152.994-100.239S471.5,676.818,438.814,706.2c-31.081,27.94,39.026,79.753,50.583,84.165,17.873,6.822,61.775-11.536,78.734-33.132,19.524-24.849,43.832-46.424,60.468-53.014Z" transform="translate(-430.934 -627.096)"/>
      </g>
      <path id="Path_12138" data-name="Path 12138" d="M326.389,611.09s-6.077,14.212-8.6,24.919c0,0,8.4,2.62,16.8,5.023s-1.1-27.491-1.1-27.491l-7.1-2.452Z" transform="translate(-316.318 -458.336)"/>
      <path id="Path_12139" data-name="Path 12139" d="M484.654,599.6c5.62,13.678,47.422,35.809,61.2,47.2-2.937,21.948-54.785,64.929-92.455,57.047-49.052-10.264-85.872-32.654-84.573-39.877,1.194-6.6-39.926-28.987-49.593-66.967-11.74-46.143,8.571-90.432,19.728-102.445a22.218,22.218,0,0,1,2.494-2.29c3.541-2.691,8.747-4.63,15.2-5.747,36.2-6.815,92.94,8.065,115.653,27.006,5.276,18.47-2.937,48.841,12.351,86.062Z" transform="translate(-315.695 -420.785)" fill="#f40"/>
      <path id="Path_12140" data-name="Path 12140" d="M528.262,653.385s-59.1,10.805-63.63-48.2c-8.079-105.129,41.394-14.627,41.394-14.627l-1.742,20.276c-1.215,16.9,18.568,25.355,23.985,42.553Z" transform="translate(-359.731 -441.456)"/>
      <g id="Group_6340" data-name="Group 6340" transform="translate(174.519 111.053)">
        <g id="Group_6338" data-name="Group 6338" transform="translate(0 27.605)">
          <path id="Path_12141" data-name="Path 12141" d="M567.157,661.93c21.6,48.061,127.259-52.979,127.259-52.979l10.145-17.9c-2.143-.773-38.879,16.995-64.431,22.137C617.452,617.747,555.165,635.24,567.157,661.93Z" transform="translate(-564.561 -591.025)" fill="#fff"/>
          <path id="Path_12142" data-name="Path 12142" d="M565.717,665.7a16.5,16.5,0,0,1,.372-14.964c9.288-18.062,50.492-30.673,73.367-35.275,16.25-3.274,12.505-2.712,26.184-8.241,10.9-4.405,13.341-5.318,14.4-4.932l.365.134,14.943,10.1-.7.583c-3.78,3.154-74.147,74.273-113.735,65.14a20.919,20.919,0,0,1-13.552-9.463,25.137,25.137,0,0,1-1.644-3.084ZM581.4,676.145c36.757,8.48,102.544-57.047,111.171-64.114l-13.482-7.623c-1.7.386-7.025,2.536-12.632,4.806-13.756,5.557-10.117,5.037-26.563,8.353-22.5,4.531-62.962,16.812-71.885,34.151a14.3,14.3,0,0,0-.323,13.1l-.984.443.984-.443A19.107,19.107,0,0,0,581.4,676.152Z" transform="translate(-564.104 -594.351)"/>
        </g>
        <g id="Group_6339" data-name="Group 6339" transform="translate(105.753)">
          <path id="Path_12143" data-name="Path 12143" d="M735.45,598.425c3.962-.337,5.831-1.447,10.208-5.079,4.447-3.253,5.473-7.489,4.524-10.025a3.344,3.344,0,0,0-.787-1.243,6.761,6.761,0,0,0,.815-6.295,2.965,2.965,0,0,0-1.138-1.3,7.435,7.435,0,0,0-.815-5.7,4.691,4.691,0,0,0-2.944-2.248,42.126,42.126,0,0,1,9.042-5.81c2.044-.892,3.211-2.621,2.986-4.405a3.469,3.469,0,0,0-3.112-2.937,5.491,5.491,0,0,0-1.328-.035c-2.831.239-7.321,2.354-13.348,6.281a44.614,44.614,0,0,0-13,12.625,4.126,4.126,0,0,0-.555-1.679,3.763,3.763,0,0,0-3.464-1.932,3.455,3.455,0,0,0-2.079.962c-2.3,2.129-4.405,4.616-4.222,8.3.049.885,3.021,14.149,4.876,16.945a1.839,1.839,0,0,0,1.742.808h0a6.008,6.008,0,0,0,2.8-1.391c2.838,2.972,6.281,4.44,9.772,4.145h.014Z" transform="translate(-715.106 -552.206)" fill="#fff"/>
          <path id="Path_12144" data-name="Path 12144" d="M750.749,582.453a4.869,4.869,0,0,0-.485-.955,7.721,7.721,0,0,0,.478-6.674,4.255,4.255,0,0,0-.9-1.258,8.567,8.567,0,0,0-1.117-5.838,6.5,6.5,0,0,0-1.784-1.932,40.032,40.032,0,0,1,7.377-4.524,5.555,5.555,0,0,0,3.653-5.564,4.61,4.61,0,0,0-4.04-3.9,6.7,6.7,0,0,0-1.609-.049c-3.049.26-7.58,2.368-13.861,6.463a47.115,47.115,0,0,0-12.077,11.142,4.862,4.862,0,0,0-4.412-2.311,4.619,4.619,0,0,0-2.747,1.251c-2.382,2.206-4.784,5.023-4.581,9.2.056.906,3.091,14.508,5.065,17.493a2.465,2.465,0,0,0,1.166,1c.021-.063.253-.794.443-1.405a2.066,2.066,0,0,0-.126-1.5c-1.735-3.667-4.3-15.189-4.328-15.709-.155-3.183,1.665-5.388,3.871-7.433a2.366,2.366,0,0,1,1.419-.667,2.8,2.8,0,0,1,2.375,4.265,17.332,17.332,0,0,0-1.707,3.063,15.2,15.2,0,0,1,1.524,1.068c2.7-7.285,8.873-13.369,15.323-17.578,2.81-1.834,9.126-5.8,12.836-6.112a4.1,4.1,0,0,1,1.068.028c2.937.478,2.986,3.857-.148,5.22-3.59,1.56-10.06,5.915-12.133,8.894a4.641,4.641,0,0,1,2.4-1.04c3.365-.281,5.065,4.953,3.358,7.714a1.353,1.353,0,0,1,.154-.021c2.122-.176,2.909,4.2-.176,7.44a.856.856,0,0,1,.372-.119c1.721-.148,3.211,5.417-2.937,9.92-2.487,2.065-4.082,3.295-5.719,3.934a7.192,7.192,0,0,0-2.487,1.988s1.721,0,1.946.569c2.431-.7,4.405-2.058,7.573-4.7,5-3.66,6.091-8.339,4.967-11.353Z" transform="translate(-714.633 -551.732)"/>
        </g>
      </g>
      <g id="Group_6342" data-name="Group 6342" transform="translate(106.289 86.664)">
        <g id="Group_6341" data-name="Group 6341" transform="translate(17.628 9.057)">
          <path id="Path_12145" data-name="Path 12145" d="M562.218,657.052c-16.32-1.967-24.4-8.262-36.525-17.613-1.279-.955-2.557-1.96-3.723-2.965-1.981-1.728-3.808-3.393-5.578-5.1-2.368-2.431-4.539-4.791-6.485-7.152-.3-.435-.653-.822-.948-1.2-8.5-10.559-12.2-17.269-13.882-26.837a73.914,73.914,0,0,1-1.314-16.622s-2.635-54.9,15.07-47.408c17.908,7.609,23.852,14.388,40.79,41.521.049.112.155.218.2.323.99,1.468,1.827,2.873,2.712,4.285a13.2,13.2,0,0,0,1.63,2.55c32.036,30.989,31.39,79.015,8.058,76.205Z" transform="translate(-492.538 -530.368)" fill="#fff"/>
          <path id="Path_12146" data-name="Path 12146" d="M561.625,657.654h0c-16.5-1.988-24.582-8.213-36.806-17.634l-.232-.183c-1.3-.97-2.592-1.988-3.78-3.014-2-1.742-3.843-3.421-5.642-5.157-2.508-2.564-4.651-4.932-6.6-7.3-.176-.253-.365-.485-.548-.71l-.351-.429c-8.9-11.065-12.463-17.964-14.1-27.315a74.054,74.054,0,0,1-1.335-16.763c-.077-1.651-1.812-40.453,8.894-47.928a7.537,7.537,0,0,1,7.665-.52c18.533,7.876,24.744,15.456,41.282,41.942l.176.3c.7,1.033,1.321,2.044,1.939,3.042l.794,1.279c.183.3.351.6.52.913a6.184,6.184,0,0,0,.948,1.433c22.664,21.919,29.872,53.492,22.383,69.215-2.5,5.255-6.506,8.311-11.487,8.866a16.082,16.082,0,0,1-3.716-.035Zm-13.377-83.87c-16.51-26.451-22.207-33.42-40.291-41.1a5.446,5.446,0,0,0-5.6.309c-9.744,6.8-8,45.666-7.988,46.185a74,74,0,0,0,1.307,16.362c1.588,9.063,4.9,15.47,13.671,26.36l.316.393c.225.274.457.555.6.78,1.855,2.248,3.962,4.56,6.4,7.061,1.756,1.693,3.562,3.344,5.529,5.058,1.145.984,2.4,1.974,3.674,2.923l.246.19c11.95,9.2,19.84,15.287,35.753,17.205h0c7.285.871,11.114-3.653,13-7.623,7.166-15.056.056-45.462-21.941-66.749a7.771,7.771,0,0,1-1.335-1.953c-.148-.267-.3-.541-.457-.8l-.8-1.286c-.6-.977-1.208-1.953-1.96-3.1l.913-.569-1.054.337Z" transform="translate(-492.078 -529.91)"/>
        </g>
        <path id="Path_12147" data-name="Path 12147" d="M467,544.763c-.239,15.344,2.171,21.688,2.171,21.688s20.43,52.241,25.945,60.763c31.839-7.756,49.551-37.453,50.562-60.876-13.664-27.273-17.915-36.638-33.821-47.183-9.758-6.492-44.506,1.742-44.851,25.608Z" transform="translate(-466.986 -517.019)" fill="#f40"/>
      </g>
    </g>
    <path id="Path_12148" data-name="Path 12148" d="M628.215,847.461c-21.393-19.924-52.7-14.5-97.029-2.3-37.08,10.208-49.8,6.639-94.176,9.414l109.766,24.835,81.446-31.952Z" transform="translate(-57.733 -219.023)" fill="#ff936b"/>
    <path id="Path_12149" data-name="Path 12149" d="M546.835,766.7c-160.146,87.586-303.641-7.651-303.915-190.629a44.979,44.979,0,0,1,45.961-44.907l56.731,1.145a54.51,54.51,0,0,1,53.365,57.229C390.982,745.485,465.3,777.071,546.835,766.7Z" transform="translate(0 -128.871)" fill="#f40"/>
    <path id="Path_12150" data-name="Path 12150" d="M402.464,590.521c1.553-36.329-17.543-69-59.26-69L288.6,520.99c-17.318,0-28.249,12.189-33.2,25.411,4.019-4.721,12.252-12.056,23.254-12.056h43.558c34.4,11.8,56.815,23.191,55.262,59.527-5.543,129.634,65,168.99,135.929,171.562l1.033-.934c-64.852-3.822-117.48-45.279-111.972-173.971Z" transform="translate(-3.712 -125.846)" fill="#ff936b"/>
    <g id="Group_6344" data-name="Group 6344" transform="translate(353.459 641.553)">
      <path id="Path_12151" data-name="Path 12151" d="M410.854,980.758H400.26l29.788-104.651c0-5.838,18.674-5.838,18.674,0L410.847,980.758Z" transform="translate(-400.26 -871.728)" fill="#9b9b9b"/>
      <path id="Path_12152" data-name="Path 12152" d="M677.254,980.758h10.594L644.474,876.106c0-5.838-18.674-5.838-18.674,0Z" transform="translate(-467.348 -871.728)" fill="#9b9b9b"/>
    </g>
    <g id="Group_6349" data-name="Group 6349" transform="translate(1187.163 546.982)">
      <path id="Path_12153" data-name="Path 12153" d="M1672.205,784.759a14.418,14.418,0,0,0,8.185-2.7,69.908,69.908,0,0,1-1.215,15.028c-3.21,5.185-12.133,14.718-11.529,14.662a29.1,29.1,0,0,0,7.159-1.665,53.321,53.321,0,0,1-5.452,8.915c-4.328,5.768-10.489,10.384-12.836,17.43a.462.462,0,0,1-.267.309.51.51,0,0,1-.843.372c-11.634-11.051-13.721-27.835-15.428-42.975-.084-.717-.162-1.426-.232-2.143a46.465,46.465,0,0,0,10.728,8.374c.562.309-7.286-12.259-11.135-18.048a33.961,33.961,0,0,1,2-10.749c2.726-7.3,7.391-14.128,11.929-20.409.183-.26.394-.506.576-.766a34.813,34.813,0,0,0,5.009,9.07c.372.492-.829-9.182-1.567-13.608,1.138-1.412,2.276-2.824,3.464-4.187,1.552-1.827,3.463-4.932,6.253-4.517,2.7.379,8.866,11.459,9.646,14.627.337,1.349.639,2.733.913,4.117.133.59.246,1.2.351,1.8a165.405,165.405,0,0,1,2.073,16.861c-.19.3-.379.6-.6.885-2.262,3.077-7.742,9.316-7.18,9.323Z" transform="translate(-1602.533 -737.116)" fill="#aab6c2"/>
      <path id="Path_12154" data-name="Path 12154" d="M1666.3,785.291c5.74-.871,10.131-4.5,14.346-8.241.625-.562-.148-1.616-.787-1.054-3.948,3.506-8.065,7.011-13.425,7.925,1.222-8.55,2.641-17.072,4.321-25.552.168-.829-1.138-1.033-1.3-.2q-3.341,16.861-5.445,33.9a56.412,56.412,0,0,1-7.6-15.28c-.26-.8-1.482-.316-1.222.492a57.649,57.649,0,0,0,8.156,16.13.577.577,0,0,0,.478.26c-.3,2.487-.576,4.974-.843,7.461a35.4,35.4,0,0,1-5.641-9.871c-.3-.794-1.518-.3-1.222.492a36.57,36.57,0,0,0,6.407,10.946.722.722,0,0,0,.267.19q-1.265,12.277-1.911,24.617a.722.722,0,0,0-.077.281q-.263,4.521-.309,9.014-.095,2.94-.162,5.88a.537.537,0,0,0,.19.443c.337,18.526,3.084,36.849,6.976,54.981.429-.105.857-.2,1.279-.3-4.4-20.486-7.328-41.225-6.948-62.224q.116-3.33.281-6.646a.617.617,0,0,0,.583-.077,21.817,21.817,0,0,0,6.014-6.154c.464-.7-.562-1.531-1.026-.822a20.925,20.925,0,0,1-5.508,5.719q1.1-21.234,4.061-42.314h.057Z" transform="translate(-1607.236 -743.22)"/>
      <path id="Path_12155" data-name="Path 12155" d="M1600.354,835.127a14.252,14.252,0,0,1-7.742.66,49.7,49.7,0,0,0,5.4,10.9c4.236,2.838,14.585,7.068,14.058,7.222a29.456,29.456,0,0,1-6.569,1.1,42.391,42.391,0,0,0,7.222,4.9c5.353,2.915,11.936,4.356,15.976,8.873a.368.368,0,0,0,.316.148.472.472,0,0,0,.822,0c6.688-12.133,3.576-25.432.625-37.368-.141-.569-.281-1.124-.428-1.686a42.28,42.28,0,0,1-6.688,9.822c-.394.414,2.634-11.606,4.215-17.219a24.532,24.532,0,0,0-4.827-7.419c-4.433-4.588-10.391-8.185-16.067-11.416-.232-.133-.478-.253-.709-.386a27.219,27.219,0,0,1-1.623,8.466c-.176.492-1.967-7.173-2.627-10.735-1.377-.689-2.754-1.37-4.159-2.009-1.848-.864-4.377-2.564-6.625-1.342-2.192,1.173-4.208,11.522-3.955,14.156.106,1.124.253,2.269.422,3.4.063.492.148.984.225,1.468a119.636,119.636,0,0,0,3.133,13.348c.253.162.5.323.773.471,2.817,1.567,9.288,4.454,8.817,4.644Z" transform="translate(-1586.949 -754.992)" fill="#aab6c2"/>
      <g id="Group_6345" data-name="Group 6345" transform="translate(0.464 52.881)">
        <path id="Path_12156" data-name="Path 12156" d="M1641.975,917.125c-1.96-14.908-4.946-29.577-10.039-43.607a.386.386,0,0,0,.035-.393q-.906-2.192-1.848-4.37c-.906-2.241-1.862-4.468-2.888-6.674a.428.428,0,0,0-.147-.183q-4.131-9.052-8.775-17.866a.57.57,0,0,0,.169-.232,28.624,28.624,0,0,0,2.269-10.334c.021-.7-1.159-.66-1.18.035a27.972,27.972,0,0,1-1.925,9.274c-.948-1.785-1.9-3.562-2.887-5.325a.55.55,0,0,0,.33-.351,44.4,44.4,0,0,0,2.241-14.8c-.014-.689-1.194-.653-1.18.035a43.39,43.39,0,0,1-2.023,13.974q-6.755-12.1-14.48-23.683c-.379-.569-1.426.007-1.047.583,3.892,5.817,7.574,11.754,11.1,17.775-4.819,1.075-9.337-.2-13.714-1.546-.7-.211-1.061.843-.365,1.054,4.679,1.426,9.456,2.712,14.592,1.475.014,0,.028-.014.042-.021q8.631,14.848,15.744,30.455a17.952,17.952,0,0,1-6.337-2.487c-.6-.379-1.229.576-.639.955a18.811,18.811,0,0,0,6.9,2.649.645.645,0,0,0,.52-.133c.738,1.63,1.454,3.26,2.171,4.9,6.428,15.653,9.969,32.2,12.175,49.045.394-.063.78-.133,1.173-.2Z" transform="translate(-1589.881 -812.387)"/>
        <path id="Path_12157" data-name="Path 12157" d="M1597.839,826.818a30.118,30.118,0,0,1-10.229-4c.063.492.147.984.225,1.468a31.6,31.6,0,0,0,9.639,3.583C1598.212,828,1598.57,826.965,1597.839,826.818Z" transform="translate(-1587.61 -815.49)"/>
      </g>
      <path id="Path_12158" data-name="Path 12158" d="M1734.336,838.865c-.07,4.735-11.023,7.032-14.5,8.318-7.693,2.852-15.21,5.726-20.908,11.915-6.709,7.3-12.491,15.723-18.28,23.774a1.378,1.378,0,0,1-1.37.59,22.188,22.188,0,0,1-1.595-3.464c-2-4.918-5.051-13.917-4.292-19.046a30.985,30.985,0,0,1,3.492-10.229,9.2,9.2,0,0,0,2.192,4.328c.274.281.871-6.463,1.264-9.534.506-.618,1.019-1.222,1.56-1.806a34.01,34.01,0,0,1,4.047-3.731c.309-.246.611-.492.927-.724a42.448,42.448,0,0,1,3.688-2.445q.5-.3,1.033-.59c1.187-.66,2.424-1.271,3.681-1.826a24.872,24.872,0,0,0,2.037,6.751c.211.45.724-5.332.8-7.89,1.187-.45,2.4-.822,3.639-1.173a19.281,19.281,0,0,0,1.51,4.356c.169.33,1.8-3.583,2.389-5.3a47.554,47.554,0,0,1,11.733-.92c.337.014.674.028,1,.063,1.054.077,2.093.19,3.112.351,3.773.59,12.66,2.979,12.836,8.079a1.044,1.044,0,0,1,0,.148Z" transform="translate(-1612.626 -764.793)" fill="#aab6c2"/>
      <g id="Group_6346" data-name="Group 6346" transform="translate(64.085 71.444)">
        <path id="Path_12159" data-name="Path 12159" d="M1693.66,854.992c-9.3,9.182-12.2,26.05-12.793,30.842a21.834,21.834,0,0,0-1.911,6.232c-1.11,7.566-.78,15.554-.6,23.184.063,2.508.175,5.016.309,7.517.428-.084.857-.162,1.293-.239q-.127-2.371-.211-4.742c-.232-6.829-.225-13.678.084-20.5a30.18,30.18,0,0,1,1.855-10.342,1.422,1.422,0,0,0,.414-.386c5.789-8.051,11.578-16.475,18.287-23.774,5.7-6.2,13.208-9.07,20.908-11.915,3.478-1.286,14.43-3.576,14.5-8.318C1721.207,844.25,1704.374,844.426,1693.66,854.992Z" transform="translate(-1678.167 -839.922)"/>
        <path id="Path_12160" data-name="Path 12160" d="M1699.008,849.376a30.182,30.182,0,0,1-.2-10.566c-.358.2-.7.393-1.033.59a31.211,31.211,0,0,0,.288,10.187C1698.186,850.2,1699.113,849.974,1699.008,849.376Z" transform="translate(-1683.915 -838.81)"/>
        <path id="Path_12161" data-name="Path 12161" d="M1693.61,852.541a40.418,40.418,0,0,1-1.363-9.421c-.316.232-.625.478-.927.724a40.49,40.49,0,0,0,1.349,8.915c.162.59,1.1.379.941-.218Z" transform="translate(-1682.08 -840.092)"/>
      </g>
      <g id="Group_6347" data-name="Group 6347" transform="translate(22.909 121.487)">
        <path id="Path_12162" data-name="Path 12162" d="M1674.73,945.11c-16.854-19.074-7.707-34.2-7.707-34.2h-30.392s9.147,15.126-7.707,34.2c-8.382,9.484-15.2,30.68,3.154,43.705.885.632,2.318,1.637,2.185,2.993H1669.4c-.133-1.356,1.3-2.368,2.185-2.993,18.343-13.025,11.536-34.221,3.154-43.705Z" transform="translate(-1619.818 -910.299)" fill="#fff"/>
        <path id="Path_12163" data-name="Path 12163" d="M1669.8,992.154h-36.469l.063-.66c.1-1-1.117-1.862-1.918-2.438-6.906-4.9-10.854-11.255-11.733-18.878-1.215-10.545,3.8-20.451,8.466-25.734,16.341-18.491,7.735-33.343,7.644-33.49l-.548-.913h32.521l-.548.913c-.091.148-8.7,15,7.644,33.49,4.665,5.276,9.681,15.182,8.466,25.734-.878,7.623-4.819,13.974-11.719,18.87-.815.576-2.03,1.44-1.932,2.445Zm-35.226-1.208h33.989c.239-1.342,1.56-2.283,2.4-2.873,6.618-4.7,10.391-10.763,11.234-18.034,1.173-10.152-3.667-19.7-8.171-24.793h0c-14.613-16.538-9.878-30.385-8.234-34h-28.439c1.644,3.611,6.379,17.458-8.234,34-4.5,5.093-9.337,14.641-8.171,24.793.836,7.271,4.616,13.334,11.22,18.02.85.6,2.171,1.546,2.41,2.88Z" transform="translate(-1619.558 -910.04)"/>
      </g>
      <g id="Group_6348" data-name="Group 6348" transform="translate(25.812 122.091)">
        <path id="Path_12164" data-name="Path 12164" d="M1675.9,945.11c-16.854-19.074-7.707-34.2-7.707-34.2H1661.8c-7.756,9.379-19.151,11.459-23.226,2.382,3.26,9.175.984,18.224-5.157,27.182,2.522-2.368,10.686-4.742,16.468-3.969,13.9,1.862,24.477,14.037,26.409,27.737,1.244,8.838-6.218,23.844-24.856,23.844-17.444,0-24.5-7.026-27.744-10.594a27.359,27.359,0,0,0,9.554,11.325c.885.632,2.318,1.637,2.185,2.993h35.134c-.133-1.356,1.3-2.368,2.185-2.993,18.343-13.025,11.536-34.221,3.154-43.705Z" transform="translate(-1623.69 -910.903)"/>
        <path id="Path_12165" data-name="Path 12165" d="M1632.52,957.627q1.928-2.318,3.52-4.637A16.473,16.473,0,0,0,1632.52,957.627Z" transform="translate(-1626.317 -923.42)"/>
        <path id="Path_12166" data-name="Path 12166" d="M1644.453,913.282c-.281-.794-.6-1.588-.962-2.382C1643.8,911.743,1644.123,912.537,1644.453,913.282Z" transform="translate(-1629.58 -910.9)"/>
      </g>
    </g>
  </g>
</svg>
