<svg xmlns="http://www.w3.org/2000/svg" xmlns:xlink="http://www.w3.org/1999/xlink" width="188" height="225" viewBox="0 0 188 225">
  <defs>
    <clipPath id="clip-path">
      <rect id="Rectangle_4974" data-name="Rectangle 4974" width="188" height="225" transform="translate(0.247 0.279)" fill="#fff" stroke="#707070" stroke-width="1"/>
    </clipPath>
    <clipPath id="clip-path-2">
      <rect id="Rectangle_4967" data-name="Rectangle 4967" width="218.447" height="226.998" fill="none" stroke="#707070" stroke-width="0.5"/>
    </clipPath>
  </defs>
  <g id="Mask_Group_4527" data-name="Mask Group 4527" transform="translate(-0.247 -0.28)" clip-path="url(#clip-path)">
    <g id="Group_5858" data-name="Group 5858" transform="translate(-0.028 -1.323)">
      <g id="Group_5845" data-name="Group 5845">
        <g id="Group_5844" data-name="Group 5844" clip-path="url(#clip-path-2)">
          <path id="Path_11416" data-name="Path 11416" d="M195.934,376l-21.746,37.665H217.68Z" transform="translate(-86.709 -187.17)" fill="none" stroke="#f40" stroke-width="0.5"/>
        </g>
      </g>
      <path id="Path_11417" data-name="Path 11417" d="M195.934,226l-21.746,37.665H217.68Z" transform="translate(-86.709 -112.501)" fill="none" stroke="#f40" stroke-width="0.5"/>
      <g id="Group_5847" data-name="Group 5847">
        <g id="Group_5846" data-name="Group 5846" clip-path="url(#clip-path-2)">
          <path id="Path_11418" data-name="Path 11418" d="M282.575,376l-21.746,37.665h43.492Z" transform="translate(-129.839 -187.17)" fill="none" stroke="#f40" stroke-width="0.5"/>
          <path id="Path_11419" data-name="Path 11419" d="M109.254,376,87.508,413.665H131Z" transform="translate(-43.561 -187.17)" fill="none" stroke="#f40" stroke-width="0.5"/>
        </g>
      </g>
      <path id="Path_11420" data-name="Path 11420" d="M239.274,301l-21.746,37.666H261.02Z" transform="translate(-108.284 -149.836)" fill="none" stroke="#f40" stroke-width="0.5"/>
      <path id="Path_11421" data-name="Path 11421" d="M152.594,301l-21.746,37.666H174.34Z" transform="translate(-65.135 -149.836)" fill="none" stroke="#f40" stroke-width="0.5"/>
      <path id="Path_11422" data-name="Path 11422" d="M152.613,263.665,174.359,226H130.867Z" transform="translate(-65.145 -112.501)" fill="none" stroke="#f40" stroke-width="0.5"/>
      <path id="Path_11423" data-name="Path 11423" d="M109.273,338.665,131.019,301H87.527Z" transform="translate(-43.57 -149.836)" fill="none" stroke="#f40" stroke-width="0.5"/>
      <g id="Group_5849" data-name="Group 5849">
        <g id="Group_5848" data-name="Group 5848" clip-path="url(#clip-path-2)">
          <path id="Path_11424" data-name="Path 11424" d="M22.612,376,.866,413.665H44.359Z" transform="translate(-0.431 -187.17)" fill="none" stroke="#f40" stroke-width="0.5"/>
        </g>
      </g>
      <path id="Path_11425" data-name="Path 11425" d="M65.953,301,44.206,338.665H87.7Z" transform="translate(-22.006 -149.836)" fill="#f40" stroke="#707070" stroke-width="0.5"/>
      <path id="Path_11426" data-name="Path 11426" d="M65.953,301,44.206,338.665H87.7Z" transform="translate(-22.006 -149.836)" fill="none" stroke="#f40" stroke-width="0.5"/>
      <g id="Group_5851" data-name="Group 5851">
        <g id="Group_5850" data-name="Group 5850" clip-path="url(#clip-path-2)">
          <path id="Path_11427" data-name="Path 11427" d="M22.632,338.665,44.378,301H.886Z" transform="translate(-0.441 -149.836)" fill="none" stroke="#f40" stroke-width="0.5"/>
          <path id="Path_11428" data-name="Path 11428" d="M369.163,376l-21.746,37.665h43.492Z" transform="translate(-172.941 -187.17)" fill="none" stroke="#f40" stroke-width="0.5"/>
        </g>
      </g>
      <path id="Path_11429" data-name="Path 11429" d="M325.842,263.665,347.588,226H304.1Z" transform="translate(-151.377 -112.501)" fill="none" stroke="#f40" stroke-width="0.5"/>
      <g id="Group_5853" data-name="Group 5853">
        <g id="Group_5852" data-name="Group 5852" clip-path="url(#clip-path-2)">
          <path id="Path_11430" data-name="Path 11430" d="M325.842,413.665,347.588,376H304.1Z" transform="translate(-151.377 -187.17)" fill="none" stroke="#f40" stroke-width="0.5"/>
        </g>
      </g>
      <path id="Path_11431" data-name="Path 11431" d="M239.2,263.665,260.947,226H217.455Z" transform="translate(-108.247 -112.501)" fill="none" stroke="#f40" stroke-width="0.5"/>
      <path id="Path_11432" data-name="Path 11432" d="M282.5,338.665,304.248,301H260.756Z" transform="translate(-129.802 -149.836)" fill="none" stroke="#f40" stroke-width="0.5"/>
      <g id="Group_5855" data-name="Group 5855">
        <g id="Group_5854" data-name="Group 5854" clip-path="url(#clip-path-2)">
          <path id="Path_11433" data-name="Path 11433" d="M369.182,338.665,390.929,301H347.436Z" transform="translate(-172.951 -149.836)" fill="none" stroke="#f40" stroke-width="0.5"/>
        </g>
      </g>
      <path id="Path_11434" data-name="Path 11434" d="M325.911,151l-21.746,37.666h43.492Z" transform="translate(-151.411 -75.167)" fill="none" stroke="#f40" stroke-width="0.5"/>
      <g id="Group_5857" data-name="Group 5857">
        <g id="Group_5856" data-name="Group 5856" clip-path="url(#clip-path-2)">
          <path id="Path_11435" data-name="Path 11435" d="M325.911,1,304.165,38.666h43.492Z" transform="translate(-151.411 -0.498)" fill="none" stroke="#f40" stroke-width="0.5"/>
          <path id="Path_11436" data-name="Path 11436" d="M369.251,76,347.5,113.666H391Z" transform="translate(-172.985 -37.832)" fill="none" stroke="#f40" stroke-width="0.5"/>
          <path id="Path_11437" data-name="Path 11437" d="M282.59,38.666,304.336,1H260.844Z" transform="translate(-129.846 -0.498)" fill="none" stroke="#f40" stroke-width="0.5"/>
        </g>
      </g>
    </g>
  </g>
</svg>
