<svg xmlns="http://www.w3.org/2000/svg" xmlns:xlink="http://www.w3.org/1999/xlink" width="177" height="213" viewBox="0 0 177 213">
  <defs>
    <clipPath id="clip-path">
      <rect id="Rectangle_4933" data-name="Rectangle 4933" width="177" height="213" transform="translate(-0.367 0.146)" fill="#fff" stroke="#707070" stroke-width="1"/>
    </clipPath>
    <clipPath id="clip-path-2">
      <rect id="Rectangle_4926" data-name="Rectangle 4926" width="205.957" height="214.019" fill="none"/>
    </clipPath>
  </defs>
  <g id="Mask_Group_4521" data-name="Mask Group 4521" transform="translate(0.367 -0.146)" clip-path="url(#clip-path)">
    <g id="Group_5691" data-name="Group 5691" transform="translate(-0.311 0.227)">
      <g id="Group_5678" data-name="Group 5678">
        <g id="Group_5677" data-name="Group 5677" clip-path="url(#clip-path-2)">
          <path id="Path_11260" data-name="Path 11260" d="M194.691,376l-20.5,35.512h41.006Z" transform="translate(-91.711 -197.966)" fill="none" stroke="#f40" stroke-width="1"/>
        </g>
      </g>
      <path id="Path_11261" data-name="Path 11261" d="M194.691,226l-20.5,35.512h41.006Z" transform="translate(-91.711 -118.99)" fill="none" stroke="#f40" stroke-width="1"/>
      <g id="Group_5680" data-name="Group 5680">
        <g id="Group_5679" data-name="Group 5679" clip-path="url(#clip-path-2)">
          <path id="Path_11262" data-name="Path 11262" d="M281.332,376l-20.5,35.512h41.006Z" transform="translate(-137.328 -197.966)" fill="none" stroke="#f40" stroke-width="1"/>
          <path id="Path_11263" data-name="Path 11263" d="M108.01,376l-20.5,35.512h41.006Z" transform="translate(-46.073 -197.966)" fill="none" stroke="#f40" stroke-width="1"/>
        </g>
      </g>
      <path id="Path_11264" data-name="Path 11264" d="M238.031,301l-20.5,35.512h41.006Z" transform="translate(-114.53 -158.478)" fill="none" stroke="#f40" stroke-width="1"/>
      <path id="Path_11265" data-name="Path 11265" d="M151.351,301l-20.5,35.512h41.006Z" transform="translate(-68.892 -158.478)" fill="none" stroke="#f40" stroke-width="1"/>
      <path id="Path_11266" data-name="Path 11266" d="M151.37,261.512,171.873,226H130.867Z" transform="translate(-68.902 -118.99)" fill="none" stroke="#f40" stroke-width="1"/>
      <path id="Path_11267" data-name="Path 11267" d="M108.03,336.512,128.533,301H87.527Z" transform="translate(-46.084 -158.478)" fill="none" stroke="#f40" stroke-width="1"/>
      <g id="Group_5682" data-name="Group 5682">
        <g id="Group_5681" data-name="Group 5681" clip-path="url(#clip-path-2)">
          <path id="Path_11268" data-name="Path 11268" d="M21.369,376,.866,411.512H41.872Z" transform="translate(-0.456 -197.966)" fill="none" stroke="#f40" stroke-width="1"/>
        </g>
      </g>
      <path id="Path_11269" data-name="Path 11269" d="M64.709,301l-20.5,35.512H85.212Z" transform="translate(-23.275 -158.478)" fill="#f40"/>
      <path id="Path_11270" data-name="Path 11270" d="M64.709,301l-20.5,35.512H85.212Z" transform="translate(-23.275 -158.478)" fill="none" stroke="#f40" stroke-width="1"/>
      <g id="Group_5684" data-name="Group 5684">
        <g id="Group_5683" data-name="Group 5683" clip-path="url(#clip-path-2)">
          <path id="Path_11271" data-name="Path 11271" d="M21.388,336.512,41.891,301H.886Z" transform="translate(-0.466 -158.478)" fill="none" stroke="#f40" stroke-width="1"/>
          <path id="Path_11272" data-name="Path 11272" d="M367.92,376l-20.5,35.512h41.006Z" transform="translate(-182.917 -197.966)" fill="none" stroke="#f40" stroke-width="1"/>
        </g>
      </g>
      <path id="Path_11273" data-name="Path 11273" d="M324.6,261.512,345.1,226H304.1Z" transform="translate(-160.108 -118.99)" fill="none" stroke="#f40" stroke-width="1"/>
      <g id="Group_5686" data-name="Group 5686">
        <g id="Group_5685" data-name="Group 5685" clip-path="url(#clip-path-2)">
          <path id="Path_11274" data-name="Path 11274" d="M324.6,411.512,345.1,376H304.1Z" transform="translate(-160.108 -197.966)" fill="none" stroke="#f40" stroke-width="1"/>
        </g>
      </g>
      <path id="Path_11275" data-name="Path 11275" d="M237.958,261.512,258.46,226H217.455Z" transform="translate(-114.491 -118.99)" fill="none" stroke="#f40" stroke-width="1"/>
      <path id="Path_11276" data-name="Path 11276" d="M281.259,336.512,301.762,301H260.756Z" transform="translate(-137.29 -158.478)" fill="none" stroke="#f40" stroke-width="1"/>
      <g id="Group_5688" data-name="Group 5688">
        <g id="Group_5687" data-name="Group 5687" clip-path="url(#clip-path-2)">
          <path id="Path_11277" data-name="Path 11277" d="M367.939,336.512,388.442,301H347.436Z" transform="translate(-182.927 -158.478)" fill="none" stroke="#f40" stroke-width="1"/>
        </g>
      </g>
      <path id="Path_11278" data-name="Path 11278" d="M324.667,151l-20.5,35.512H345.17Z" transform="translate(-160.144 -79.502)" fill="none" stroke="#f40" stroke-width="1"/>
      <g id="Group_5690" data-name="Group 5690">
        <g id="Group_5689" data-name="Group 5689" clip-path="url(#clip-path-2)">
          <path id="Path_11279" data-name="Path 11279" d="M324.667,1l-20.5,35.512H345.17Z" transform="translate(-160.144 -0.526)" fill="none" stroke="#f40" stroke-width="1"/>
          <path id="Path_11280" data-name="Path 11280" d="M368.008,76l-20.5,35.512H388.51Z" transform="translate(-182.963 -40.014)" fill="none" stroke="#f40" stroke-width="1"/>
          <path id="Path_11281" data-name="Path 11281" d="M281.347,36.512,301.85,1H260.844Z" transform="translate(-137.336 -0.526)" fill="none" stroke="#f40" stroke-width="1"/>
        </g>
      </g>
    </g>
  </g>
</svg>
