<svg xmlns="http://www.w3.org/2000/svg" xmlns:xlink="http://www.w3.org/1999/xlink" width="265" height="299" viewBox="0 0 265 299">
  <defs>
    <clipPath id="clip-path">
      <rect id="Rectangle_8594" data-name="Rectangle 8594" width="265" height="299" fill="#fff" stroke="#707070" stroke-width="1"/>
    </clipPath>
    <clipPath id="clip-path-2">
      <rect id="Rectangle_8587" data-name="Rectangle 8587" width="307.515" height="300.695" fill="none" stroke="#1a1a1a" stroke-width="1"/>
    </clipPath>
  </defs>
  <g id="Mask_Group_4582" data-name="Mask Group 4582" transform="translate(265 299) rotate(180)" clip-path="url(#clip-path)">
    <g id="Group_9890" data-name="Group 9890" transform="translate(-43.041 0.476)">
      <g id="Group_9877" data-name="Group 9877" transform="translate(0 0)">
        <g id="Group_9876" data-name="Group 9876" clip-path="url(#clip-path-2)">
          <path id="Path_17466" data-name="Path 17466" d="M30.613,0,61.225,49.894H0Z" transform="translate(123.143 250.136)" fill="none" stroke="#1a1a1a" stroke-width="1"/>
        </g>
      </g>
      <path id="Path_17467" data-name="Path 17467" d="M30.613,0,61.225,49.894H0Z" transform="translate(123.143 150.347)" fill="none" stroke="#1a1a1a" stroke-width="1"/>
      <g id="Group_9879" data-name="Group 9879" transform="translate(0 0)">
        <g id="Group_9878" data-name="Group 9878" clip-path="url(#clip-path-2)">
          <path id="Path_17468" data-name="Path 17468" d="M30.613,0,61.225,49.894H0Z" transform="translate(61.89 250.136)" fill="none" stroke="#1a1a1a" stroke-width="1"/>
          <path id="Path_17469" data-name="Path 17469" d="M30.613,0,61.225,49.894H0Z" transform="translate(184.424 250.136)" fill="none" stroke="#1a1a1a" stroke-width="1"/>
        </g>
      </g>
      <path id="Path_17470" data-name="Path 17470" d="M30.613,0,61.225,49.894H0Z" transform="translate(92.503 200.242)" fill="none" stroke="#1a1a1a" stroke-width="1"/>
      <path id="Path_17471" data-name="Path 17471" d="M30.613,0,61.225,49.894H0Z" transform="translate(153.783 200.242)" fill="none" stroke="#1a1a1a" stroke-width="1"/>
      <path id="Path_17472" data-name="Path 17472" d="M30.613,49.894,0,0H61.225Z" transform="translate(153.77 150.347)" fill="none" stroke="#1a1a1a" stroke-width="1"/>
      <path id="Path_17473" data-name="Path 17473" d="M30.613,49.894,0,0H61.225Z" transform="translate(184.41 200.242)" fill="none" stroke="#1a1a1a" stroke-width="1"/>
      <g id="Group_9881" data-name="Group 9881" transform="translate(0 0)">
        <g id="Group_9880" data-name="Group 9880" clip-path="url(#clip-path-2)">
          <path id="Path_17474" data-name="Path 17474" d="M30.613,0,61.225,49.894H0Z" transform="translate(245.677 250.136)" fill="none" stroke="#1a1a1a" stroke-width="1"/>
        </g>
      </g>
      <path id="Path_17475" data-name="Path 17475" d="M30.613,0,61.225,49.894H0Z" transform="translate(215.037 200.242)" fill="#1a1a1a" stroke="rgba(0,0,0,0)" stroke-width="1"/>
      <path id="Path_17476" data-name="Path 17476" d="M30.613,0,61.225,49.894H0Z" transform="translate(215.037 200.242)" fill="none" stroke="#1a1a1a" stroke-width="1"/>
      <g id="Group_9883" data-name="Group 9883" transform="translate(0 0)">
        <g id="Group_9882" data-name="Group 9882" clip-path="url(#clip-path-2)">
          <path id="Path_17477" data-name="Path 17477" d="M30.613,49.894,0,0H61.225Z" transform="translate(245.663 200.242)" fill="none" stroke="#1a1a1a" stroke-width="1"/>
          <path id="Path_17478" data-name="Path 17478" d="M30.613,0,61.225,49.894H0Z" transform="translate(0.675 250.136)" fill="none" stroke="#1a1a1a" stroke-width="1"/>
        </g>
      </g>
      <path id="Path_17479" data-name="Path 17479" d="M30.613,49.894,0,0H61.225Z" transform="translate(31.301 150.347)" fill="none" stroke="#1a1a1a" stroke-width="1"/>
      <g id="Group_9885" data-name="Group 9885" transform="translate(0 0)">
        <g id="Group_9884" data-name="Group 9884" clip-path="url(#clip-path-2)">
          <path id="Path_17480" data-name="Path 17480" d="M30.613,49.894,0,0H61.225Z" transform="translate(31.301 250.136)" fill="none" stroke="#1a1a1a" stroke-width="1"/>
        </g>
      </g>
      <path id="Path_17481" data-name="Path 17481" d="M30.613,49.894,0,0H61.225Z" transform="translate(92.554 150.347)" fill="none" stroke="#1a1a1a" stroke-width="1"/>
      <path id="Path_17482" data-name="Path 17482" d="M30.613,49.894,0,0H61.225Z" transform="translate(61.941 200.242)" fill="none" stroke="#1a1a1a" stroke-width="1"/>
      <g id="Group_9887" data-name="Group 9887" transform="translate(0 0)">
        <g id="Group_9886" data-name="Group 9886" clip-path="url(#clip-path-2)">
          <path id="Path_17483" data-name="Path 17483" d="M30.613,49.894,0,0H61.225Z" transform="translate(0.661 200.242)" fill="none" stroke="#1a1a1a" stroke-width="1"/>
        </g>
      </g>
      <path id="Path_17484" data-name="Path 17484" d="M30.613,0,61.225,49.894H0Z" transform="translate(31.253 100.453)" fill="none" stroke="#1a1a1a" stroke-width="1"/>
      <g id="Group_9889" data-name="Group 9889" transform="translate(0 0)">
        <g id="Group_9888" data-name="Group 9888" clip-path="url(#clip-path-2)">
          <path id="Path_17485" data-name="Path 17485" d="M30.613,0,61.225,49.894H0Z" transform="translate(31.253 0.665)" fill="none" stroke="#1a1a1a" stroke-width="1"/>
          <path id="Path_17486" data-name="Path 17486" d="M30.613,0,61.225,49.894H0Z" transform="translate(0.612 50.559)" fill="none" stroke="#1a1a1a" stroke-width="1"/>
          <path id="Path_17487" data-name="Path 17487" d="M30.613,49.894,0,0H61.225Z" transform="translate(61.879 0.665)" fill="none" stroke="#1a1a1a" stroke-width="1"/>
        </g>
      </g>
    </g>
  </g>
</svg>
