<svg xmlns="http://www.w3.org/2000/svg" xmlns:xlink="http://www.w3.org/1999/xlink" width="220.929" height="249.275" viewBox="0 0 220.929 249.275">
  <defs>
    <clipPath id="clip-path">
      <rect id="Rectangle_8594" data-name="Rectangle 8594" width="220.929" height="249.275" fill="#fff" stroke="#707070" stroke-width="0.5"/>
    </clipPath>
    <clipPath id="clip-path-2">
      <rect id="Rectangle_8587" data-name="Rectangle 8587" width="256.374" height="250.688" fill="none" stroke="#1a1a1a" stroke-width="0.5"/>
    </clipPath>
  </defs>
  <g id="Mask_Group_4582" data-name="Mask Group 4582" transform="translate(220.929 249.275) rotate(180)" clip-path="url(#clip-path)">
    <g id="Group_9890" data-name="Group 9890" transform="translate(-35.883 0.397)">
      <g id="Group_9877" data-name="Group 9877" transform="translate(0 0)">
        <g id="Group_9876" data-name="Group 9876" clip-path="url(#clip-path-2)">
          <path id="Path_17466" data-name="Path 17466" d="M25.522,0,51.043,41.6H0Z" transform="translate(102.664 208.537)" fill="none" stroke="#1a1a1a" stroke-width="0.5"/>
        </g>
      </g>
      <path id="Path_17467" data-name="Path 17467" d="M25.522,0,51.043,41.6H0Z" transform="translate(102.664 125.344)" fill="none" stroke="#1a1a1a" stroke-width="0.5"/>
      <g id="Group_9879" data-name="Group 9879" transform="translate(0 0)">
        <g id="Group_9878" data-name="Group 9878" clip-path="url(#clip-path-2)">
          <path id="Path_17468" data-name="Path 17468" d="M25.522,0,51.043,41.6H0Z" transform="translate(51.597 208.537)" fill="none" stroke="#1a1a1a" stroke-width="0.5"/>
          <path id="Path_17469" data-name="Path 17469" d="M25.522,0,51.043,41.6H0Z" transform="translate(153.753 208.537)" fill="none" stroke="#1a1a1a" stroke-width="0.5"/>
        </g>
      </g>
      <path id="Path_17470" data-name="Path 17470" d="M25.522,0,51.043,41.6H0Z" transform="translate(77.119 166.941)" fill="none" stroke="#1a1a1a" stroke-width="0.5"/>
      <path id="Path_17471" data-name="Path 17471" d="M25.522,0,51.043,41.6H0Z" transform="translate(128.209 166.941)" fill="none" stroke="#1a1a1a" stroke-width="0.5"/>
      <path id="Path_17472" data-name="Path 17472" d="M25.522,41.6,0,0H51.043Z" transform="translate(128.197 125.344)" fill="none" stroke="#1a1a1a" stroke-width="0.5"/>
      <path id="Path_17473" data-name="Path 17473" d="M25.522,41.6,0,0H51.043Z" transform="translate(153.742 166.941)" fill="none" stroke="#1a1a1a" stroke-width="0.5"/>
      <g id="Group_9881" data-name="Group 9881" transform="translate(0 0)">
        <g id="Group_9880" data-name="Group 9880" clip-path="url(#clip-path-2)">
          <path id="Path_17474" data-name="Path 17474" d="M25.522,0,51.043,41.6H0Z" transform="translate(204.82 208.537)" fill="none" stroke="#1a1a1a" stroke-width="0.5"/>
        </g>
      </g>
      <path id="Path_17475" data-name="Path 17475" d="M25.522,0,51.043,41.6H0Z" transform="translate(179.275 166.941)" fill="#1a1a1a" stroke="rgba(0,0,0,0)" stroke-width="0.5"/>
      <path id="Path_17476" data-name="Path 17476" d="M25.522,0,51.043,41.6H0Z" transform="translate(179.275 166.941)" fill="none" stroke="#1a1a1a" stroke-width="0.5"/>
      <g id="Group_9883" data-name="Group 9883" transform="translate(0 0)">
        <g id="Group_9882" data-name="Group 9882" clip-path="url(#clip-path-2)">
          <path id="Path_17477" data-name="Path 17477" d="M25.522,41.6,0,0H51.043Z" transform="translate(204.809 166.941)" fill="none" stroke="#1a1a1a" stroke-width="0.5"/>
          <path id="Path_17478" data-name="Path 17478" d="M25.522,0,51.043,41.6H0Z" transform="translate(0.562 208.537)" fill="none" stroke="#1a1a1a" stroke-width="0.5"/>
        </g>
      </g>
      <path id="Path_17479" data-name="Path 17479" d="M25.522,41.6,0,0H51.043Z" transform="translate(26.096 125.344)" fill="none" stroke="#1a1a1a" stroke-width="0.5"/>
      <g id="Group_9885" data-name="Group 9885" transform="translate(0 0)">
        <g id="Group_9884" data-name="Group 9884" clip-path="url(#clip-path-2)">
          <path id="Path_17480" data-name="Path 17480" d="M25.522,41.6,0,0H51.043Z" transform="translate(26.096 208.537)" fill="none" stroke="#1a1a1a" stroke-width="0.5"/>
        </g>
      </g>
      <path id="Path_17481" data-name="Path 17481" d="M25.522,41.6,0,0H51.043Z" transform="translate(77.162 125.344)" fill="none" stroke="#1a1a1a" stroke-width="0.5"/>
      <path id="Path_17482" data-name="Path 17482" d="M25.522,41.6,0,0H51.043Z" transform="translate(51.64 166.941)" fill="none" stroke="#1a1a1a" stroke-width="0.5"/>
      <g id="Group_9887" data-name="Group 9887" transform="translate(0 0)">
        <g id="Group_9886" data-name="Group 9886" clip-path="url(#clip-path-2)">
          <path id="Path_17483" data-name="Path 17483" d="M25.522,41.6,0,0H51.043Z" transform="translate(0.551 166.941)" fill="none" stroke="#1a1a1a" stroke-width="0.5"/>
        </g>
      </g>
      <path id="Path_17484" data-name="Path 17484" d="M25.522,0,51.043,41.6H0Z" transform="translate(26.055 83.748)" fill="none" stroke="#1a1a1a" stroke-width="0.5"/>
      <g id="Group_9889" data-name="Group 9889" transform="translate(0 0)">
        <g id="Group_9888" data-name="Group 9888" clip-path="url(#clip-path-2)">
          <path id="Path_17485" data-name="Path 17485" d="M25.522,0,51.043,41.6H0Z" transform="translate(26.055 0.555)" fill="none" stroke="#1a1a1a" stroke-width="0.5"/>
          <path id="Path_17486" data-name="Path 17486" d="M25.522,0,51.043,41.6H0Z" transform="translate(0.511 42.151)" fill="none" stroke="#1a1a1a" stroke-width="0.5"/>
          <path id="Path_17487" data-name="Path 17487" d="M25.522,41.6,0,0H51.043Z" transform="translate(51.589 0.555)" fill="none" stroke="#1a1a1a" stroke-width="0.5"/>
        </g>
      </g>
    </g>
  </g>
</svg>
