<svg xmlns="http://www.w3.org/2000/svg" xmlns:xlink="http://www.w3.org/1999/xlink" width="768" height="629.144" viewBox="0 0 768 629.144">
  <defs>
    <clipPath id="clip-path">
      <path id="Path_17275" data-name="Path 17275" d="M72.668,408.683c40.185,155.244,163.989,168.835,240.724,171.348,88.418,2.9,247.528-25.073,294.938-192.315s-124.39-128.7-184.345-313.093c-12.141-37.339-50.375-55.8-97.76-55.81C199.15,18.792,6.093,151.484,72.668,408.683" transform="translate(-59.079 -18.814)" fill="none"/>
    </clipPath>
    <clipPath id="clip-path-2">
      <rect id="Rectangle_8500" data-name="Rectangle 8500" width="535.758" height="610.859" fill="none"/>
    </clipPath>
    <clipPath id="clip-path-3">
      <rect id="Rectangle_8501" data-name="Rectangle 8501" width="264.485" height="592.838" fill="none"/>
    </clipPath>
    <clipPath id="clip-path-4">
      <rect id="Rectangle_8502" data-name="Rectangle 8502" width="243.694" height="592.838" fill="none"/>
    </clipPath>
    <clipPath id="clip-path-5">
      <rect id="Rectangle_8503" data-name="Rectangle 8503" width="191.107" height="529.189" fill="none"/>
    </clipPath>
    <clipPath id="clip-path-6">
      <rect id="Rectangle_8505" data-name="Rectangle 8505" width="535.759" height="610.858" fill="none"/>
    </clipPath>
    <clipPath id="clip-path-7">
      <rect id="Rectangle_8506" data-name="Rectangle 8506" width="264.483" height="592.838" fill="none"/>
    </clipPath>
    <clipPath id="clip-path-8">
      <rect id="Rectangle_8507" data-name="Rectangle 8507" width="243.695" height="592.838" fill="none"/>
    </clipPath>
    <filter id="Ellipse_350" x="611" y="52" width="157" height="157" filterUnits="userSpaceOnUse">
      <feOffset input="SourceAlpha"/>
      <feGaussianBlur stdDeviation="5" result="blur"/>
      <feFlood flood-opacity="0.161"/>
      <feComposite operator="in" in2="blur"/>
      <feComposite in="SourceGraphic"/>
    </filter>
    <filter id="Ellipse_351" x="0" y="0" width="217" height="217" filterUnits="userSpaceOnUse">
      <feOffset input="SourceAlpha"/>
      <feGaussianBlur stdDeviation="5" result="blur-2"/>
      <feFlood flood-opacity="0.161"/>
      <feComposite operator="in" in2="blur-2"/>
      <feComposite in="SourceGraphic"/>
    </filter>
    <filter id="Ellipse_352" x="64" y="460" width="157" height="157" filterUnits="userSpaceOnUse">
      <feOffset input="SourceAlpha"/>
      <feGaussianBlur stdDeviation="5" result="blur-3"/>
      <feFlood flood-opacity="0.161"/>
      <feComposite operator="in" in2="blur-3"/>
      <feComposite in="SourceGraphic"/>
    </filter>
  </defs>
  <g id="Group_9897" data-name="Group 9897" transform="translate(-132 -4014)">
    <g id="Group_9875" data-name="Group 9875" transform="translate(117.707 4030.945)">
      <g id="Group_9891" data-name="Group 9891" transform="translate(157.179 50.055)">
        <g id="Group_9871" data-name="Group 9871">
          <g id="Group_9870" data-name="Group 9870" clip-path="url(#clip-path)">
            <path id="Path_17268" data-name="Path 17268" d="M110.413,157.4V135.772h35.875V32.4h9.887V135.772h38.645V157.4h20.7V590.824H66.25V157.4Z" transform="translate(-46.245 5.499)" fill="#c6d0db"/>
            <rect id="Rectangle_8424" data-name="Rectangle 8424" width="20.696" height="389.883" transform="translate(20.005 162.898)" fill="#aab6c2"/>
            <rect id="Rectangle_8425" data-name="Rectangle 8425" width="149.265" height="330.179" transform="translate(94.639 266.143)" fill="#c6d0db"/>
            <rect id="Rectangle_8426" data-name="Rectangle 8426" width="20.696" height="330.179" transform="translate(94.639 266.143)" fill="#aab6c2"/>
            <rect id="Rectangle_8427" data-name="Rectangle 8427" width="21.419" height="8.891" transform="translate(201.658 280.208)" fill="#aab6c2"/>
            <rect id="Rectangle_8428" data-name="Rectangle 8428" width="21.422" height="8.891" transform="translate(165.594 280.208)" fill="#aab6c2"/>
            <rect id="Rectangle_8429" data-name="Rectangle 8429" width="21.419" height="8.891" transform="translate(201.658 312.577)" fill="#aab6c2"/>
            <rect id="Rectangle_8430" data-name="Rectangle 8430" width="21.422" height="8.891" transform="translate(165.594 312.577)" fill="#aab6c2"/>
            <rect id="Rectangle_8431" data-name="Rectangle 8431" width="21.419" height="8.891" transform="translate(129.535 312.577)" fill="#aab6c2"/>
            <rect id="Rectangle_8432" data-name="Rectangle 8432" width="21.419" height="8.891" transform="translate(201.658 344.945)" fill="#aab6c2"/>
            <rect id="Rectangle_8433" data-name="Rectangle 8433" width="21.419" height="8.891" transform="translate(129.535 344.945)" fill="#aab6c2"/>
            <rect id="Rectangle_8434" data-name="Rectangle 8434" width="21.422" height="8.891" transform="translate(165.594 361.13)" fill="#aab6c2"/>
            <rect id="Rectangle_8435" data-name="Rectangle 8435" width="21.419" height="8.891" transform="translate(201.658 377.313)" fill="#aab6c2"/>
            <rect id="Rectangle_8436" data-name="Rectangle 8436" width="21.422" height="8.891" transform="translate(165.594 393.499)" fill="#aab6c2"/>
            <rect id="Rectangle_8437" data-name="Rectangle 8437" width="21.419" height="8.891" transform="translate(201.658 409.681)" fill="#aab6c2"/>
            <rect id="Rectangle_8438" data-name="Rectangle 8438" width="21.419" height="8.891" transform="translate(129.535 409.681)" fill="#aab6c2"/>
            <rect id="Rectangle_8439" data-name="Rectangle 8439" width="21.419" height="8.888" transform="translate(201.658 439.595)" fill="#aab6c2"/>
            <rect id="Rectangle_8440" data-name="Rectangle 8440" width="21.422" height="8.888" transform="translate(165.594 439.595)" fill="#aab6c2"/>
            <rect id="Rectangle_8441" data-name="Rectangle 8441" width="21.419" height="8.891" transform="translate(201.658 471.96)" fill="#aab6c2"/>
            <rect id="Rectangle_8442" data-name="Rectangle 8442" width="21.422" height="8.891" transform="translate(165.594 471.96)" fill="#aab6c2"/>
            <rect id="Rectangle_8443" data-name="Rectangle 8443" width="21.419" height="8.891" transform="translate(129.535 471.96)" fill="#aab6c2"/>
            <rect id="Rectangle_8444" data-name="Rectangle 8444" width="21.419" height="8.891" transform="translate(201.658 504.328)" fill="#aab6c2"/>
            <rect id="Rectangle_8445" data-name="Rectangle 8445" width="21.419" height="8.891" transform="translate(129.535 504.328)" fill="#aab6c2"/>
            <rect id="Rectangle_8446" data-name="Rectangle 8446" width="21.422" height="8.891" transform="translate(165.594 520.514)" fill="#aab6c2"/>
            <rect id="Rectangle_8447" data-name="Rectangle 8447" width="21.419" height="8.891" transform="translate(129.535 520.514)" fill="#aab6c2"/>
            <rect id="Rectangle_8448" data-name="Rectangle 8448" width="21.419" height="8.891" transform="translate(201.658 536.697)" fill="#aab6c2"/>
            <rect id="Rectangle_8449" data-name="Rectangle 8449" width="21.422" height="8.888" transform="translate(165.594 552.882)" fill="#aab6c2"/>
            <rect id="Rectangle_8450" data-name="Rectangle 8450" width="149.268" height="330.179" transform="translate(451.786 266.143)" fill="#c6d0db"/>
            <rect id="Rectangle_8451" data-name="Rectangle 8451" width="20.696" height="330.179" transform="translate(451.786 266.143)" fill="#aab6c2"/>
            <rect id="Rectangle_8452" data-name="Rectangle 8452" width="200.274" height="487.225" transform="translate(239.748 109.097)" fill="#c6d0db"/>
            <rect id="Rectangle_8453" data-name="Rectangle 8453" width="20.696" height="487.225" transform="translate(239.748 109.097)" fill="#aab6c2"/>
            <rect id="Rectangle_8454" data-name="Rectangle 8454" width="31.277" height="12.98" transform="translate(387.649 132.433)" fill="#aab6c2"/>
            <rect id="Rectangle_8455" data-name="Rectangle 8455" width="31.277" height="12.98" transform="translate(334.986 132.433)" fill="#aab6c2"/>
            <rect id="Rectangle_8456" data-name="Rectangle 8456" width="31.277" height="12.983" transform="translate(387.649 179.698)" fill="#aab6c2"/>
            <rect id="Rectangle_8457" data-name="Rectangle 8457" width="31.277" height="12.983" transform="translate(334.986 179.698)" fill="#aab6c2"/>
            <rect id="Rectangle_8458" data-name="Rectangle 8458" width="31.277" height="12.983" transform="translate(282.326 179.698)" fill="#aab6c2"/>
            <rect id="Rectangle_8459" data-name="Rectangle 8459" width="31.277" height="12.98" transform="translate(387.649 226.968)" fill="#aab6c2"/>
            <rect id="Rectangle_8460" data-name="Rectangle 8460" width="31.277" height="12.98" transform="translate(282.326 226.968)" fill="#aab6c2"/>
            <rect id="Rectangle_8461" data-name="Rectangle 8461" width="31.277" height="12.98" transform="translate(334.986 250.599)" fill="#aab6c2"/>
            <rect id="Rectangle_8462" data-name="Rectangle 8462" width="31.277" height="12.983" transform="translate(387.649 274.23)" fill="#aab6c2"/>
            <rect id="Rectangle_8463" data-name="Rectangle 8463" width="31.277" height="12.983" transform="translate(334.986 297.864)" fill="#aab6c2"/>
            <rect id="Rectangle_8464" data-name="Rectangle 8464" width="31.277" height="12.98" transform="translate(387.649 321.501)" fill="#aab6c2"/>
            <rect id="Rectangle_8465" data-name="Rectangle 8465" width="31.277" height="12.98" transform="translate(282.326 321.501)" fill="#aab6c2"/>
            <rect id="Rectangle_8466" data-name="Rectangle 8466" width="31.277" height="12.983" transform="translate(387.649 365.175)" fill="#aab6c2"/>
            <rect id="Rectangle_8467" data-name="Rectangle 8467" width="31.277" height="12.983" transform="translate(334.986 365.175)" fill="#aab6c2"/>
            <rect id="Rectangle_8468" data-name="Rectangle 8468" width="31.277" height="12.98" transform="translate(387.649 412.446)" fill="#aab6c2"/>
            <rect id="Rectangle_8469" data-name="Rectangle 8469" width="31.277" height="12.98" transform="translate(334.986 412.446)" fill="#aab6c2"/>
            <rect id="Rectangle_8470" data-name="Rectangle 8470" width="31.277" height="12.98" transform="translate(282.326 412.446)" fill="#aab6c2"/>
            <rect id="Rectangle_8471" data-name="Rectangle 8471" width="31.277" height="12.983" transform="translate(387.649 459.711)" fill="#aab6c2"/>
            <rect id="Rectangle_8472" data-name="Rectangle 8472" width="31.277" height="12.983" transform="translate(282.326 459.711)" fill="#aab6c2"/>
            <rect id="Rectangle_8473" data-name="Rectangle 8473" width="31.277" height="12.983" transform="translate(334.986 483.342)" fill="#aab6c2"/>
            <rect id="Rectangle_8474" data-name="Rectangle 8474" width="31.277" height="12.983" transform="translate(282.326 483.342)" fill="#aab6c2"/>
            <rect id="Rectangle_8475" data-name="Rectangle 8475" width="31.277" height="12.98" transform="translate(387.649 506.978)" fill="#aab6c2"/>
            <rect id="Rectangle_8476" data-name="Rectangle 8476" width="31.277" height="12.98" transform="translate(334.986 530.612)" fill="#aab6c2"/>
            <rect id="Rectangle_8477" data-name="Rectangle 8477" width="31.277" height="12.98" transform="translate(387.649 554.243)" fill="#aab6c2"/>
            <rect id="Rectangle_8478" data-name="Rectangle 8478" width="31.277" height="12.98" transform="translate(282.326 554.243)" fill="#aab6c2"/>
            <rect id="Rectangle_8479" data-name="Rectangle 8479" width="196.29" height="450.909" transform="translate(554.623 145.413)" fill="#c6d0db"/>
            <rect id="Rectangle_8480" data-name="Rectangle 8480" width="20.283" height="450.909" transform="translate(554.623 145.413)" fill="#aab6c2"/>
            <rect id="Rectangle_8481" data-name="Rectangle 8481" width="126.418" height="307.55" transform="translate(-79.733 288.773)" fill="#c6d0db"/>
            <rect id="Rectangle_8482" data-name="Rectangle 8482" width="19.745" height="8.193" transform="translate(13.625 303.502)" fill="#aab6c2"/>
            <rect id="Rectangle_8483" data-name="Rectangle 8483" width="19.745" height="8.193" transform="translate(-19.616 303.502)" fill="#aab6c2"/>
            <rect id="Rectangle_8484" data-name="Rectangle 8484" width="19.745" height="8.196" transform="translate(13.625 333.334)" fill="#aab6c2"/>
            <rect id="Rectangle_8485" data-name="Rectangle 8485" width="19.745" height="8.196" transform="translate(-19.616 333.334)" fill="#aab6c2"/>
            <rect id="Rectangle_8486" data-name="Rectangle 8486" width="19.745" height="8.196" transform="translate(13.625 363.172)" fill="#aab6c2"/>
            <rect id="Rectangle_8487" data-name="Rectangle 8487" width="19.745" height="8.196" transform="translate(-19.616 378.089)" fill="#aab6c2"/>
            <rect id="Rectangle_8488" data-name="Rectangle 8488" width="19.745" height="8.196" transform="translate(13.625 393.008)" fill="#aab6c2"/>
            <rect id="Rectangle_8489" data-name="Rectangle 8489" width="19.745" height="8.196" transform="translate(-19.616 407.927)" fill="#aab6c2"/>
            <rect id="Rectangle_8490" data-name="Rectangle 8490" width="19.745" height="8.196" transform="translate(13.625 422.843)" fill="#aab6c2"/>
            <rect id="Rectangle_8491" data-name="Rectangle 8491" width="19.745" height="8.196" transform="translate(13.625 450.416)" fill="#aab6c2"/>
            <rect id="Rectangle_8492" data-name="Rectangle 8492" width="19.745" height="8.196" transform="translate(-19.616 450.416)" fill="#aab6c2"/>
            <rect id="Rectangle_8493" data-name="Rectangle 8493" width="19.745" height="8.196" transform="translate(13.625 480.251)" fill="#aab6c2"/>
            <rect id="Rectangle_8494" data-name="Rectangle 8494" width="19.745" height="8.196" transform="translate(-19.616 480.251)" fill="#aab6c2"/>
            <rect id="Rectangle_8495" data-name="Rectangle 8495" width="19.745" height="8.196" transform="translate(13.625 510.086)" fill="#aab6c2"/>
            <rect id="Rectangle_8496" data-name="Rectangle 8496" width="19.745" height="8.196" transform="translate(-19.616 525.005)" fill="#aab6c2"/>
            <rect id="Rectangle_8497" data-name="Rectangle 8497" width="19.745" height="8.196" transform="translate(13.625 539.924)" fill="#aab6c2"/>
            <rect id="Rectangle_8498" data-name="Rectangle 8498" width="19.745" height="8.196" transform="translate(-19.616 554.84)" fill="#aab6c2"/>
            <g id="Group_9851" data-name="Group 9851" transform="translate(-158.946 -40.397)" opacity="0.35">
              <g id="Group_9850" data-name="Group 9850" transform="translate(0 0)">
                <g id="Group_9849" data-name="Group 9849" clip-path="url(#clip-path-2)">
                  <rect id="Rectangle_8499" data-name="Rectangle 8499" width="535.759" height="610.859" transform="translate(-0.002)" fill="#fff"/>
                </g>
              </g>
            </g>
            <g id="Group_9854" data-name="Group 9854" transform="translate(-16.081 -33.406)" opacity="0.5">
              <g id="Group_9853" data-name="Group 9853">
                <g id="Group_9852" data-name="Group 9852" clip-path="url(#clip-path-3)">
                  <path id="Path_17269" data-name="Path 17269" d="M94.894,599.677H53.315L276.218,6.839H317.8Z" transform="translate(-53.314 -6.839)" fill="#fff"/>
                </g>
              </g>
            </g>
            <g id="Group_9857" data-name="Group 9857" transform="translate(-68.71 -33.406)" opacity="0.5">
              <g id="Group_9856" data-name="Group 9856">
                <g id="Group_9855" data-name="Group 9855" clip-path="url(#clip-path-4)">
                  <path id="Path_17270" data-name="Path 17270" d="M55.237,599.677H34.448L257.349,6.839H278.14Z" transform="translate(-34.448 -6.839)" fill="#fff"/>
                </g>
              </g>
            </g>
            <g id="Group_9860" data-name="Group 9860" transform="translate(179.533 30.243)" opacity="0.5">
              <g id="Group_9859" data-name="Group 9859">
                <g id="Group_9858" data-name="Group 9858" clip-path="url(#clip-path-5)">
                  <path id="Path_17271" data-name="Path 17271" d="M144.228,558.844H123.437L314.544,29.655V72.292Z" transform="translate(-123.435 -29.655)" fill="#fff"/>
                </g>
              </g>
            </g>
            <g id="Group_9863" data-name="Group 9863" transform="translate(379.632 -52.484)" opacity="0.35">
              <g id="Group_9862" data-name="Group 9862">
                <g id="Group_9861" data-name="Group 9861" clip-path="url(#clip-path-6)">
                  <rect id="Rectangle_8504" data-name="Rectangle 8504" width="535.759" height="610.859" transform="translate(0 -0.003)" fill="#fff"/>
                </g>
              </g>
            </g>
            <g id="Group_9866" data-name="Group 9866" transform="translate(426.654 -33.406)" opacity="0.5">
              <g id="Group_9865" data-name="Group 9865">
                <g id="Group_9864" data-name="Group 9864" clip-path="url(#clip-path-7)">
                  <path id="Path_17272" data-name="Path 17272" d="M253.6,599.677h-41.58L434.923,6.839H476.5Z" transform="translate(-212.02 -6.839)" fill="#fff"/>
                </g>
              </g>
            </g>
            <g id="Group_9869" data-name="Group 9869" transform="translate(374.022 -33.406)" opacity="0.5">
              <g id="Group_9868" data-name="Group 9868">
                <g id="Group_9867" data-name="Group 9867" clip-path="url(#clip-path-8)">
                  <path id="Path_17273" data-name="Path 17273" d="M213.946,599.677H193.154L416.055,6.839h20.791Z" transform="translate(-193.153 -6.839)" fill="#fff"/>
                </g>
              </g>
            </g>
            <path id="Path_17274" data-name="Path 17274" d="M1102.539,119v-6.988h-19.246V1.828H0V15.807H11.669v4.935H357.175v91.272H0V119H357.175V298.389H0v6.988H357.175V484.768H0v6.988H357.175V608.645H11.781v4.042H0v16.169H1083.291v-1.3h0v-135.8h19.246v-6.988h-19.246V305.377h19.246v-6.988h-19.246V119ZM547.531,305.377H714.4V484.765H547.531Zm0-186.376H714.4V298.389H547.531Zm0-98.26H714.4v91.269H547.531Zm0,471.014H714.4V608.645H547.59v4.042h-.059Zm178.59,0H892.984V608.645H726.122Zm0-186.379H892.984V484.765H726.122Zm0-186.376H892.984V298.389H726.122Zm0-98.26H892.984v91.269H726.122Zm-357.225,0H535.762v91.269H368.9Zm0,98.26H535.762V298.389H368.9Zm0,186.376H535.762V484.765H368.9Zm0,186.379H535.762V612.687H535.7v-4.042H368.9Z" transform="translate(-164.809 -49.213)" fill="#fff"/>
          </g>
        </g>
        <g id="Group_9873" data-name="Group 9873" transform="translate(13.586 9.537)">
          <g id="Group_9892" data-name="Group 9892">
            <rect id="Rectangle_8508" data-name="Rectangle 8508" width="529.477" height="4.023" transform="translate(0 548.584)"/>
            <path id="Path_17276" data-name="Path 17276" d="M113.139,208.54c-1.375-1.716-16.23-.285-16.378.611-.458,2.731-1.161,13.209.257,14.6,1.373,1.342,14.2,4.263,14.492,1.61.251-2.29,2.957-15.159,1.629-16.816" transform="translate(-6.273 309.754)" fill="#fff"/>
            <path id="Path_17277" data-name="Path 17277" d="M109.038,227.558c-4.123,0-10.857-1.7-12.062-2.873-1.836-1.8-.756-13.393-.452-15.2.092-.572.717-.781,1.35-.946,2.717-.711,14.646-1.967,16.236.02,1.024,1.275.438,6.028-1,14.355-.237,1.367-.421,2.444-.48,2.965a1.668,1.668,0,0,1-1.266,1.384,7.231,7.231,0,0,1-2.324.3M97.832,209.969c-.572,3.746-.859,12.793.1,13.736s10.291,3.222,12.966,2.268c.212-.075.36-.173.368-.243.059-.538.248-1.643.491-3.049.577-3.336,2.1-12.194,1.283-13.265-1.088-1.124-13.187-.332-15.209.552m.042-.259v0Z" transform="translate(-6.712 309.307)"/>
            <path id="Path_17278" data-name="Path 17278" d="M98.491,212.33s-6.863,9.817-1.956,17.53c0,0,35.766,1.685,46.562,0,0,0,.285-13.184-8.974-14.305a169.663,169.663,0,0,0-19.684-.962s-9.223,5.03-15.948-2.262" transform="translate(-8.796 317.973)"/>
            <path id="Path_17279" data-name="Path 17279" d="M82.665,208.572c-1.375-1.718-14.113-.343-14.261.552-.455,2.731-1.16,13.209.254,14.6,1.378,1.342,12.553,5.7,12.844,3.049.248-2.293,2.488-16.54,1.163-18.2" transform="translate(-57.02 309.78)" fill="#fff"/>
            <path id="Path_17280" data-name="Path 17280" d="M80.373,228.719c-3.5,0-10.606-2.946-11.756-4.067-1.827-1.791-.756-13.39-.455-15.2.089-.544.647-.8,1.512-1.018,2.371-.619,12.394-1.808,13.959.153h0c.935,1.172.731,5.694-.753,16.676-.126.929-.223,1.64-.265,2.022a1.512,1.512,0,0,1-1.071,1.272,3.6,3.6,0,0,1-1.174.162m-10.9-18.8c-.586,3.816-.882,12.793.1,13.756,1.01.985,9.421,4.343,11.51,3.593.165-.059.17-.1.173-.131.039-.385.137-1.11.265-2.056,1.3-9.568,1.646-14.83,1.041-15.639-.887-1.08-11.312-.363-13.086.477" transform="translate(-57.457 309.34)"/>
            <path id="Path_17281" data-name="Path 17281" d="M113.018,238.554c1.685,21.039.139,63.456-1.545,84.5-.1,1.412-.106,50.281-.106,50.281l19.779,1.894c10.76-32.12,31.322-104.157,31.322-136.135s-2.765-85.263-14.515-110.542c-11.17-24.033-55.249,9.161-60.432,15.05-2.391,2.728,2.137,27.062,8.4,43.184,7.273,18.682,16.191,40.461,17.1,51.773" transform="translate(-22.926 152.596)"/>
            <path id="Path_17282" data-name="Path 17282" d="M108.638,351.235l12.2,1.166c-1.11-7.674-.017-24.794.424-32.605.809-13.6,4.173-26.892,7.337-40.093,4.982-20.933,9.733-43.117,3.805-64.393-3.06-10.938-9.758-18.546-15.215-28.206a38.141,38.141,0,0,1-4.913-21.341c.3-4.073,2.826-9.223,1.445-13.3-1.716-5.15-17.114-22.554-21.056-19.932-4.745,3.2-2.346,15.563-4.268,21.318,7.273,18.679,20.984,51.293,21.893,62.605,1.682,21.04-1.8,63.28-2.949,84.353-1.147,20.981,1.3,50.423,1.3,50.423" transform="translate(-20.198 174.691)"/>
            <path id="Path_17283" data-name="Path 17283" d="M68.093,372.573l17.552,1.894c9.164-30.3,33.649-82.057,37.25-113.834,5.588-49.343,12.333-102.19,12.637-115.182.036-2.087.07-3.2.07-3.2-12.085-14.707-32.569-20.7-41.688-21.782-3.6-.438-6.229.268-7.376,2.151a137.3,137.3,0,0,0-8.849,17.307c-14.713,34.937-2.324,56.041-2.592,101.484,0,2.625-.033,5.32-.1,7.978-.471,18.783,4.595,41.914-.806,61.54-10.592,38.483-6.1,61.643-6.1,61.643" transform="translate(-58.228 153.353)"/>
            <path id="Path_17284" data-name="Path 17284" d="M107.116,146.7c.036.3.07.639.1.976a59.67,59.67,0,0,0,.976,6.093c.368,1.515.773,3.063,1.208,4.678.31.94.605,1.916.979,2.862,3.264,9.223,14.169,31.169,32.379,31.169,15.014,0,63.768,4.388,75.212-.552,3.785-1.643-6.313-8.388-6.313-8.388-.229-.36-2.617-1.319-6.316-2.647-13.82-5.016-57.564-19.48-58.811-21.567-.909-1.582-.773-9.225-.538-19.357V139.8c.036-.605,0-1.278,0-1.95.036-1.046.07-2.089.07-3.23,0-.07-.033-.173,0-.237.335-20.434-2.257-42.584-9.225-52.883-6.9-10.168-22.789,36.622-22.789,36.622A48.038,48.038,0,0,0,109,127.476c-2.427,5.724-2.762,10.6-1.889,19.221" transform="translate(12.52 81.237)" fill="#fff"/>
            <path id="Path_17285" data-name="Path 17285" d="M194.792,195.393c-10.824,0-23.235-.605-33.693-1.116-7.457-.365-13.9-.678-17.9-.678-21.221,0-31.883-28.39-33.027-31.626-.29-.739-.544-1.523-.792-2.29l-.19-.586c-.446-1.657-.856-3.214-1.225-4.731a60.066,60.066,0,0,1-.99-6.185c-.033-.338-.07-.67-.1-.965V147.2c-.929-9.15-.457-13.9,1.936-19.558a49.578,49.578,0,0,1,5.063-9.412c1.456-4.271,12.963-37.353,20.727-38.4a3.289,3.289,0,0,1,3.244,1.718c6.249,9.231,9.739,29.146,9.342,53.277v.226c0,1.152-.033,2.2-.07,3.256l.008.642c.008.46.017.909-.008,1.331-.2,8.754-.4,17.661.449,19.137,1.395,1.5,25.589,9.853,41.6,15.382,6.983,2.41,13.011,4.491,16.847,5.883,5.364,1.928,6.285,2.477,6.561,2.787,1.484,1,7.6,5.289,7.362,7.953a1.866,1.866,0,0,1-1.253,1.568c-4.221,1.824-13.3,2.4-23.9,2.4M108.238,147.06c.036.3.07.642.1.988a60.8,60.8,0,0,0,.965,6.017q.544,2.226,1.2,4.639l.184.558c.237.742.48,1.5.77,2.229,1.121,3.169,11.463,30.736,31.743,30.736,4.031,0,10.489.315,17.963.681,20.568,1,48.741,2.38,56.978-1.174.41-.179.427-.36.435-.435.126-1.4-4.02-4.86-6.857-6.757l-.2-.2a43.5,43.5,0,0,0-5.97-2.371c-3.825-1.389-9.853-3.47-16.83-5.878-28.566-9.861-41.457-14.509-42.338-15.982-.943-1.64-.915-7.552-.636-19.726v-.192c.025-.385.017-.8.008-1.216l-.008-.692c.039-1.063.073-2.1.073-3.233a.928.928,0,0,1,0-.335c.379-23.818-3.021-43.4-9.108-52.4-.775-1.147-1.478-1.191-1.925-1.13-5.922.8-16.191,27.405-19.647,37.588l-.1.19a47.833,47.833,0,0,0-4.966,9.211c-2.293,5.415-2.739,10-1.838,18.883" transform="translate(12.08 80.799)"/>
            <path id="Path_17286" data-name="Path 17286" d="M111.008,156.084c-.923-5.083-3.069-11.41-4.793-17.4-.647-2.279-1.239-4.519-1.707-6.589a28.38,28.38,0,0,1-.817-7.778,8.422,8.422,0,0,1,.572-2.776,126.356,126.356,0,0,1,7.54-12.484c10.327-15.583,26.8-35.041,32.466-28.134,9.708,11.834,10.528,35.855,12.015,55.277-8.308,13.212-24.242,22.85-45.276,19.879" transform="translate(7.098 80.244)" fill="#f40"/>
            <path id="Path_17287" data-name="Path 17287" d="M68.4,365.85l4,.388c-.1-10.3.142-24.875,1.255-35.108,1.752-16.158,6.263-31.3,11.85-46.52,8.955-24.5,14.98-48.707,13.265-75.064-.946-14.339-5.49-27.637-7.476-41.705-1.28-9.089.605-17.806,2.053-26.627a84.744,84.744,0,0,0,1.311-15.248C94.522,121.726,78,125.121,78,132.1c-14.71,34.943-2.332,57.146-2.6,102.589,0,2.625-.033,5.32-.1,7.978-.441,18.783-1.121,40.149-4.171,60.279-7.34,48.386-2.734,62.9-2.734,62.9" transform="translate(-58.536 160.076)"/>
            <path id="Path_17288" data-name="Path 17288" d="M137.307,80.317s-1.612,21.385-7.292,38.849c-1.484,4.553-7.1,24.764-10.606,35.582-2.734.4-11.619,1.858-12.732.006l19.815-47.876Z" transform="translate(12.519 81.717)"/>
            <path id="Path_17289" data-name="Path 17289" d="M69.513,219.389c.2,3,10.4,8.988,26.086,12.623a117.6,117.6,0,0,0,30.7,2.929c24.4-.873,56.822-14.473,59.04-17.234,2.458-11.981-11.541-38.274-6.461-54.362,1.618-5.085,5.487-12.724,9.627-21.14,8.955-18.141,19.357-37.936,16.292-49.72C190.729,80.1,154.98,69.766,131.921,73.5a22.385,22.385,0,0,0-9.725,3.4,14.079,14.079,0,0,0-1.615,1.414,53.514,53.514,0,0,0-6.466,8.818c-7.069,11.446-15.92,30.4-22.819,49.817-8.319,23.43-22.049,78.2-21.782,82.437" transform="translate(-53.998 68.137)" fill="#f40"/>
            <path id="Path_17290" data-name="Path 17290" d="M90.638,121.2h11.8s6.475-23.584,6.405-30.884S94.473,93.65,94.473,93.65l-6.452,19Z" transform="translate(-20.869 95.028)"/>
            <path id="Path_17291" data-name="Path 17291" d="M121.7,80.408l-2.717,6.07s2.58,5.7,0,6.031c-8.762,1.138-13.706-10.115-13.706-10.115l6.7-13.189Z" transform="translate(10.013 61.831)" fill="#fff"/>
            <path id="Path_17292" data-name="Path 17292" d="M118.2,94.056c-8.308,0-12.869-10.151-13.067-10.606l-.131-.3,7.3-14.383,10.679,12.3-2.77,6.19c.471,1.1,1.64,4.2.764,5.769a1.843,1.843,0,0,1-1.426.94,10.685,10.685,0,0,1-1.353.086M106.526,83.185c.834,1.707,5.451,10.4,12.855,9.423a.472.472,0,0,0,.4-.246c.471-.848-.265-3.331-.94-4.823l-.128-.282,2.664-5.95-8.771-10.1Z" transform="translate(9.528 61.049)"/>
            <path id="Path_17293" data-name="Path 17293" d="M134.851,71.984a68.643,68.643,0,0,1-4.957,18.4c-2.8,6.229-18.116,9.05-21.692-4.371s6.489-24.354,6.489-24.354Z" transform="translate(13.876 48.323)" fill="#fff"/>
            <path id="Path_17294" data-name="Path 17294" d="M120.3,96.807c-.368,0-.734-.017-1.1-.045-5.563-.455-9.655-4.109-11.231-10.032-3.627-13.627,6.542-24.881,6.645-25l.351-.382,21.045,10.779-.05.469a70.034,70.034,0,0,1-5.016,18.6c-1.465,3.264-6.006,5.6-10.645,5.6m-5.013-33.749c-1.688,2.045-9.052,11.82-5.992,23.321,1.942,7.295,7.108,8.779,10.015,9.016,4.505.388,9.027-1.724,10.389-4.751a68.222,68.222,0,0,0,4.843-17.723Z" transform="translate(13.442 47.779)"/>
            <path id="Path_17295" data-name="Path 17295" d="M109.373,68.529c-.025-.092.134-.46.215-.918a7.007,7.007,0,0,1,4.968-5.306,1.844,1.844,0,0,1,2.237,1.13c.028.014.053.014.075.025,2.558,1.328.728,4.3.056,6.14-1.13,3.088-1.467,7.42-4.073,9.73a4.135,4.135,0,0,1-5.917-.212c-1.93-2.156-.321-4.2-.008-6.5a4.857,4.857,0,0,1,1.35-3.375,5.964,5.964,0,0,1,1.1-.714" transform="translate(11.309 49.34)"/>
            <path id="Path_17296" data-name="Path 17296" d="M108.688,67.989c-.907,7.27,6.266,5.582,10.966,6.056,3.2.324,5.253,6.9,14.713,5.211,3.211-.577,7.423-5.044,6.285-9.1-2.533-9.038-30.418-14.484-31.964-2.165" transform="translate(15.978 46.82)"/>
            <path id="Path_17297" data-name="Path 17297" d="M70.134,212.33s-6.863,9.817-1.956,17.53c0,0,35.766,1.685,46.562,0,0,0,.285-13.184-8.974-14.305s-21.129-1.626-21.129-1.626-7.778,5.694-14.5-1.6" transform="translate(-59.545 317.973)"/>
            <path id="Path_17298" data-name="Path 17298" d="M78.152,130.121q.485,4.231,1.2,8.494c.151,1.158.368,2.279.564,3.431,1.916,10.732,4.589,20.836,7.482,27.673a26.007,26.007,0,0,0,4.257,7.393c12.534,13.493,43.507,12.291,55.321,10.838,4.011-.513,6.427-.974,6.427-.974l5.939-12.191s-42.3-14.065-43.708-16.847c-3-5.85-5.32-42.709,1-49.282,6.09-6.282-20.088-21.268-28.477-20.526-8.269.742-12.537,20.88-10,41.99" transform="translate(-39.831 95.654)" fill="#fff"/>
            <path id="Path_17299" data-name="Path 17299" d="M132.343,189.926c-13.242,0-31.548-1.995-40.754-11.906a26.581,26.581,0,0,1-4.391-7.6c-2.806-6.645-5.551-16.785-7.524-27.818l-.148-.859c-.151-.865-.3-1.724-.416-2.6-.474-2.831-.879-5.7-1.2-8.5-2.02-16.847.259-33.169,5.543-39.694a7.446,7.446,0,0,1,5.08-3.06c.22-.02.449-.031.689-.031,7.588,0,25.411,9.5,28.853,16.721,1.18,2.474.374,4.081-.51,4.993-6.2,6.45-3.66,43.072-.884,48.492,1.319,1.972,27.269,11.175,43.312,16.512l.745.245-6.433,13.2-.338.064c-.025.006-2.48.469-6.466.979a130.828,130.828,0,0,1-15.156.856M89.232,89.229c-.2,0-.4.008-.577.025a6.148,6.148,0,0,0-4.137,2.558c-5.072,6.257-7.228,22.161-5.245,38.667v.006c.318,2.779.717,5.624,1.191,8.458.114.884.262,1.721.413,2.566l.151.862c1.953,10.933,4.662,20.964,7.437,27.52a25.236,25.236,0,0,0,4.126,7.194c11.424,12.3,39.78,12.464,54.736,10.626,3.1-.4,5.253-.764,6.048-.907l5.443-11.175c-8.539-2.848-41.945-14.143-43.359-16.941-2.915-5.694-5.574-43.106,1.121-50.066.859-.887.946-2.017.257-3.451-3.127-6.564-20.688-15.943-27.6-15.943" transform="translate(-40.271 95.215)"/>
            <path id="Path_17300" data-name="Path 17300" d="M121.571,141.847c1.939-3.442,14.032-25.528,11.58-43.094-1.116-7.992-9.069-25.687-19.223-25C97.647,74.84,84.025,103.082,75.059,124c10.843,12.562,28.033,18.428,46.512,17.843" transform="translate(-44.066 69.929)" fill="#f40"/>
            <path id="Path_17301" data-name="Path 17301" d="M136.618,130.567a21.611,21.611,0,0,0-7.493-3.613,9.26,9.26,0,0,0-.912-.5,10.121,10.121,0,0,0,.837-.683c1.559-1.612,4.182-7.549,2.156-9.354-2.142-1.905-6.213,3.473-8.045,4.561a19.67,19.67,0,0,1-6.977,2.779c-2.438.128-4.815-.544-7.214-.954-1.713-.29-4.41-1.158-5.973.086-1.241.988-2.2,3.629-2.36,5.2-.206,1.961,1.071,3.375,2.391,4.659a18.733,18.733,0,0,0,3.8,2.753,15.131,15.131,0,0,0,7.78,3.314,10.8,10.8,0,0,0,1.861-.073,14.4,14.4,0,0,0,7.094,3.529,1.757,1.757,0,0,0,2.087-1.841,3.272,3.272,0,0,0,1.646-.285,2.467,2.467,0,0,0,1.205-1.373,5.783,5.783,0,0,0,1.649-.5,4.748,4.748,0,0,0,2.77-4.321c2,2.014.848,4.611.77,7.563a1.883,1.883,0,0,0,2.695,1.766c4.221-1.654,2.89-10.615.232-12.71" transform="translate(1.67 145.595)" fill="#fff"/>
            <path id="Path_17302" data-name="Path 17302" d="M136.006,144.568a2.637,2.637,0,0,1-1.523-.471,2.487,2.487,0,0,1-1.035-2.154,22.8,22.8,0,0,1,.215-2.349,8.828,8.828,0,0,0,.045-3.272,5.62,5.62,0,0,1-2.812,3.01,5.992,5.992,0,0,1-1.481.5,3,3,0,0,1-1.372,1.378,3.683,3.683,0,0,1-1.35.351,2.6,2.6,0,0,1-.84,1.361,2.359,2.359,0,0,1-1.972.471,15.071,15.071,0,0,1-7.2-3.49,10.155,10.155,0,0,1-1.674.042c-3.3-.212-6.084-1.95-8.14-3.442a18.707,18.707,0,0,1-3.878-2.815c-1.442-1.406-2.831-2.968-2.594-5.222.17-1.635,1.172-4.514,2.614-5.663,1.554-1.233,3.9-.75,5.616-.4.321.067.622.128.9.176.6.1,1.194.22,1.791.338a22.017,22.017,0,0,0,5.272.605,19.176,19.176,0,0,0,6.664-2.684,14.938,14.938,0,0,0,1.908-1.629c2.2-2.062,4.943-4.634,6.941-2.854a3.192,3.192,0,0,1,.962,2.385,13.624,13.624,0,0,1-3.08,7.956c-.031.031-.059.061-.089.089a22.227,22.227,0,0,1,7.585,3.693v0c1.911,1.5,3.141,5.869,2.628,9.343-.34,2.3-1.417,3.911-3.032,4.542a2.893,2.893,0,0,1-1.068.2m-3.35-11.85,1.191,1.2c1.7,1.713,1.431,3.813,1.177,5.847a21.97,21.97,0,0,0-.209,2.218,1.119,1.119,0,0,0,.457,1,1.376,1.376,0,0,0,1.3.112c1.459-.572,1.989-2.2,2.176-3.468.474-3.228-.748-6.988-2.117-8.068a21.009,21.009,0,0,0-7.256-3.493l-.209-.1a3.1,3.1,0,0,0-.466-.259c-.134-.067-.265-.131-.393-.206l-.84-.491.742-.628c.112-.092.229-.179.346-.268a4.03,4.03,0,0,0,.438-.363,12.552,12.552,0,0,0,2.7-6.957,1.928,1.928,0,0,0-.5-1.412c-1.071-.946-3.49,1.328-5.094,2.831a15.039,15.039,0,0,1-2.148,1.808,20.383,20.383,0,0,1-7.228,2.865,23.164,23.164,0,0,1-5.674-.622c-.583-.117-1.166-.232-1.752-.332-.293-.05-.611-.114-.946-.184-1.532-.315-3.437-.706-4.483.131-1.01.8-1.947,3.158-2.109,4.731-.176,1.649.937,2.879,2.187,4.1a18.1,18.1,0,0,0,3.654,2.642c1.983,1.428,4.547,3.038,7.5,3.23a9.966,9.966,0,0,0,1.744-.067l.3-.036.229.209a13.764,13.764,0,0,0,6.762,3.364.989.989,0,0,0,.845-.184,1.306,1.306,0,0,0,.43-.988v-.723l.723.042a2.668,2.668,0,0,0,1.311-.218,1.8,1.8,0,0,0,.868-1.018l.145-.354.379-.061a5.068,5.068,0,0,0,1.448-.435,4.082,4.082,0,0,0,2.4-3.7Z" transform="translate(1.231 145.142)"/>
            <path id="Path_17303" data-name="Path 17303" d="M102.356,117.278l14.219,4.94-1.319,12.489-8.347.357s-12.668-5.593-4.553-17.787" transform="translate(-0.071 147.864)" fill="#fff"/>
            <rect id="Rectangle_8509" data-name="Rectangle 8509" width="55.567" height="494.327" transform="translate(469.756 54.318)"/>
            <path id="Path_17304" data-name="Path 17304" d="M165.9,41.922H363.682V535.033H165.9Zm11.831,472.6H351.849V446.476H177.736Zm0-77.061H351.849V369.415H177.736Zm0-77.061H351.849V292.354H177.736Zm0-77.058H351.849V215.3H177.736Zm0-77.061H351.849V138.234H177.736Zm0-77.058H351.849V61.176H177.736Z" transform="translate(118.516 13.004)" fill="#fff"/>
            <path id="Path_17305" data-name="Path 17305" d="M363.463,42.927V534.813H166.911V42.927Zm-185.944,87.3H352.854V60.956H177.52v69.27Zm0,77.061H352.854V138.014H177.52v69.272Zm0,77.058H352.854v-69.27H177.52v69.27Zm0,77.061H352.854V292.134H177.52v69.272Zm0,77.058H352.854v-69.27H177.52v69.27Zm0,77.061H352.854v-69.27H177.52v69.27ZM364.691,41.7h-199V536.038h199V41.7ZM178.742,62.181H351.63V129H178.742Zm0,77.058H351.63v66.82H178.742Zm0,77.061H351.63v66.82H178.742Zm0,77.061H351.63v66.82H178.742Zm0,77.058H351.63v66.82H178.742Zm0,77.061H351.63V514.3H178.742Z" transform="translate(118.124 12.61)"/>
            <rect id="Rectangle_8510" data-name="Rectangle 8510" width="172.888" height="66.82" transform="translate(296.865 74.791)" fill="#aab6c2"/>
            <path id="Path_17306" data-name="Path 17306" d="M232.826,105.9h-56.9a2.532,2.532,0,0,1-2.533-2.53V53.749a2.532,2.532,0,0,1,2.533-2.53h56.9a2.53,2.53,0,0,1,2.53,2.533v49.617a2.53,2.53,0,0,1-2.53,2.53" transform="translate(131.911 29.642)"/>
            <path id="Path_17307" data-name="Path 17307" d="M233.182,105.9h-5.828a.885.885,0,0,1-.884-.887V52.106a.883.883,0,0,1,.884-.887h5.828a.885.885,0,0,1,.887.884v52.908a.888.888,0,0,1-.887.887" transform="translate(226.905 29.642)" fill="#f40"/>
            <path id="Path_17308" data-name="Path 17308" d="M222.225,63.431H179.909a4.461,4.461,0,0,1-4.461-4.461V57.646a4.461,4.461,0,0,1,4.461-4.461h42.316a4.461,4.461,0,0,1,4.461,4.461v1.328a4.459,4.459,0,0,1-4.461,4.458" transform="translate(135.594 33.161)" fill="#fff"/>
            <path id="Path_17309" data-name="Path 17309" d="M222.225,63.431H179.909a4.461,4.461,0,0,1-4.461-4.461V57.646a4.461,4.461,0,0,1,4.461-4.461h42.316a4.461,4.461,0,0,1,4.461,4.461v1.328a4.459,4.459,0,0,1-4.461,4.458" transform="translate(135.594 33.161)" fill="#fff"/>
            <rect id="Rectangle_8511" data-name="Rectangle 8511" width="29.609" height="3.596" transform="translate(321.858 89.671)"/>
            <rect id="Rectangle_8512" data-name="Rectangle 8512" width="22.766" height="11.736" transform="translate(374.356 85.328)"/>
            <rect id="Rectangle_8513" data-name="Rectangle 8513" width="22.766" height="11.736" transform="translate(407.226 85.328)"/>
            <rect id="Rectangle_8514" data-name="Rectangle 8514" width="33.442" height="11.736" transform="translate(412.49 104.49)"/>
            <rect id="Rectangle_8515" data-name="Rectangle 8515" width="28.354" height="4.31" transform="translate(415.035 108.203)" fill="#fff"/>
            <rect id="Rectangle_8516" data-name="Rectangle 8516" width="33.442" height="11.736" transform="translate(412.49 122.461)"/>
            <rect id="Rectangle_8517" data-name="Rectangle 8517" width="28.354" height="4.31" transform="translate(415.035 126.174)" fill="#fff"/>
            <path id="Path_17310" data-name="Path 17310" d="M222.225,69.429H179.909a4.461,4.461,0,0,1-4.461-4.461V63.641a4.456,4.456,0,0,1,4.458-4.458h42.319a4.459,4.459,0,0,1,4.461,4.458v1.328a4.461,4.461,0,0,1-4.461,4.461" transform="translate(135.594 43.895)" fill="#fff"/>
            <path id="Path_17311" data-name="Path 17311" d="M222.225,75.429H179.909a4.461,4.461,0,0,1-4.461-4.461V69.641a4.461,4.461,0,0,1,4.461-4.461h42.316a4.461,4.461,0,0,1,4.461,4.461v1.328a4.461,4.461,0,0,1-4.461,4.461" transform="translate(135.594 54.628)" fill="#fff"/>
            <rect id="Rectangle_8518" data-name="Rectangle 8518" width="29.609" height="3.596" transform="translate(321.858 106.403)"/>
            <rect id="Rectangle_8519" data-name="Rectangle 8519" width="29.609" height="3.596" transform="translate(321.858 123.133)"/>
            <path id="Path_17312" data-name="Path 17312" d="M198.421,64.55a3.617,3.617,0,1,1,3.613,3.774,3.7,3.7,0,0,1-3.613-3.774" transform="translate(176.708 46.741)" fill="#f40"/>
            <path id="Path_17313" data-name="Path 17313" d="M202.734,64.55a3.619,3.619,0,1,1,3.615,3.774,3.7,3.7,0,0,1-3.615-3.774" transform="translate(184.426 46.741)" fill="#fff"/>
            <path id="Path_17314" data-name="Path 17314" d="M207.048,64.55a3.619,3.619,0,1,1,3.615,3.774,3.7,3.7,0,0,1-3.615-3.774" transform="translate(192.147 46.741)" fill="#f40"/>
            <path id="Path_17315" data-name="Path 17315" d="M220.742,58.142a4.806,4.806,0,1,1,4.8,5.019,4.913,4.913,0,0,1-4.8-5.019" transform="translate(216.654 33.055)" fill="#fff"/>
            <path id="Path_17316" data-name="Path 17316" d="M198.421,69.739a3.617,3.617,0,1,1,3.613,3.777,3.7,3.7,0,0,1-3.613-3.777" transform="translate(176.708 56.032)" fill="#fff"/>
            <path id="Path_17317" data-name="Path 17317" d="M202.734,69.739a3.619,3.619,0,1,1,3.615,3.777,3.7,3.7,0,0,1-3.615-3.777" transform="translate(184.426 56.032)" fill="#f40"/>
            <path id="Path_17318" data-name="Path 17318" d="M207.048,69.739a3.619,3.619,0,1,1,3.615,3.777,3.7,3.7,0,0,1-3.615-3.777" transform="translate(192.147 56.032)" fill="#fff"/>
            <rect id="Rectangle_8520" data-name="Rectangle 8520" width="172.888" height="66.82" transform="translate(296.865 151.849)" fill="#aab6c2"/>
            <path id="Path_17319" data-name="Path 17319" d="M232.826,133.523h-56.9a2.532,2.532,0,0,1-2.533-2.53V81.373a2.532,2.532,0,0,1,2.533-2.53h56.9a2.53,2.53,0,0,1,2.53,2.53v49.619a2.53,2.53,0,0,1-2.53,2.53" transform="translate(131.911 79.079)"/>
            <path id="Path_17320" data-name="Path 17320" d="M233.182,133.523h-5.828a.883.883,0,0,1-.884-.884V79.73a.883.883,0,0,1,.884-.887h5.828a.885.885,0,0,1,.887.884v52.908a.886.886,0,0,1-.887.887" transform="translate(226.905 79.079)" fill="#f40"/>
            <path id="Path_17321" data-name="Path 17321" d="M222.225,91.055H179.909a4.461,4.461,0,0,1-4.461-4.461V85.267a4.459,4.459,0,0,1,4.461-4.458h42.316a4.459,4.459,0,0,1,4.461,4.458v1.328a4.461,4.461,0,0,1-4.461,4.461" transform="translate(135.594 82.598)" fill="#fff"/>
            <path id="Path_17322" data-name="Path 17322" d="M222.225,91.055H179.909a4.461,4.461,0,0,1-4.461-4.461V85.267a4.459,4.459,0,0,1,4.461-4.458h42.316a4.459,4.459,0,0,1,4.461,4.458v1.328a4.461,4.461,0,0,1-4.461,4.461" transform="translate(135.594 82.598)" fill="#fff"/>
            <rect id="Rectangle_8521" data-name="Rectangle 8521" width="29.609" height="3.596" transform="translate(321.858 166.732)"/>
            <rect id="Rectangle_8522" data-name="Rectangle 8522" width="22.766" height="11.736" transform="translate(374.356 162.389)"/>
            <rect id="Rectangle_8523" data-name="Rectangle 8523" width="22.766" height="11.736" transform="translate(407.226 162.389)"/>
            <rect id="Rectangle_8524" data-name="Rectangle 8524" width="33.442" height="11.733" transform="translate(412.49 181.551)"/>
            <rect id="Rectangle_8525" data-name="Rectangle 8525" width="28.354" height="4.313" transform="translate(415.035 185.261)" fill="#fff"/>
            <rect id="Rectangle_8526" data-name="Rectangle 8526" width="33.442" height="11.733" transform="translate(412.49 199.522)"/>
            <rect id="Rectangle_8527" data-name="Rectangle 8527" width="28.354" height="4.31" transform="translate(415.035 203.232)" fill="#fff"/>
            <path id="Path_17323" data-name="Path 17323" d="M222.225,97.053H179.909a4.459,4.459,0,0,1-4.461-4.461V91.265a4.456,4.456,0,0,1,4.458-4.458h42.322a4.456,4.456,0,0,1,4.458,4.458v1.328a4.461,4.461,0,0,1-4.461,4.461" transform="translate(135.594 93.332)" fill="#fff"/>
            <path id="Path_17324" data-name="Path 17324" d="M222.225,103.05H179.909a4.461,4.461,0,0,1-4.461-4.461V97.262a4.457,4.457,0,0,1,4.461-4.458h42.316a4.459,4.459,0,0,1,4.461,4.458V98.59a4.461,4.461,0,0,1-4.461,4.461" transform="translate(135.594 104.065)" fill="#fff"/>
            <rect id="Rectangle_8528" data-name="Rectangle 8528" width="29.609" height="3.596" transform="translate(321.858 183.462)"/>
            <rect id="Rectangle_8529" data-name="Rectangle 8529" width="29.609" height="3.596" transform="translate(321.858 200.194)"/>
            <path id="Path_17325" data-name="Path 17325" d="M198.421,92.171a3.617,3.617,0,1,1,3.613,3.777,3.7,3.7,0,0,1-3.613-3.777" transform="translate(176.708 96.178)" fill="#f40"/>
            <path id="Path_17326" data-name="Path 17326" d="M202.734,92.171a3.619,3.619,0,1,1,3.615,3.777,3.7,3.7,0,0,1-3.615-3.777" transform="translate(184.426 96.178)" fill="#fff"/>
            <path id="Path_17327" data-name="Path 17327" d="M207.048,92.171a3.619,3.619,0,1,1,3.615,3.777,3.7,3.7,0,0,1-3.615-3.777" transform="translate(192.147 96.178)" fill="#f40"/>
            <path id="Path_17328" data-name="Path 17328" d="M220.742,85.765a4.806,4.806,0,1,1,4.8,5.019,4.913,4.913,0,0,1-4.8-5.019" transform="translate(216.654 82.49)" fill="#fff"/>
            <path id="Path_17329" data-name="Path 17329" d="M198.421,97.365a3.617,3.617,0,1,1,3.613,3.777,3.7,3.7,0,0,1-3.613-3.777" transform="translate(176.708 105.468)" fill="#fff"/>
            <path id="Path_17330" data-name="Path 17330" d="M202.734,97.365a3.619,3.619,0,1,1,3.615,3.777,3.7,3.7,0,0,1-3.615-3.777" transform="translate(184.426 105.468)" fill="#f40"/>
            <path id="Path_17331" data-name="Path 17331" d="M207.048,97.365a3.619,3.619,0,1,1,3.615,3.777,3.7,3.7,0,0,1-3.615-3.777" transform="translate(192.147 105.468)" fill="#fff"/>
            <rect id="Rectangle_8530" data-name="Rectangle 8530" width="172.888" height="66.823" transform="translate(296.865 228.908)" fill="#aab6c2"/>
            <path id="Path_17332" data-name="Path 17332" d="M232.826,161.148h-56.9a2.532,2.532,0,0,1-2.533-2.53V109a2.535,2.535,0,0,1,2.533-2.533h56.9a2.532,2.532,0,0,1,2.53,2.533v49.619a2.53,2.53,0,0,1-2.53,2.53" transform="translate(131.911 128.513)"/>
            <path id="Path_17333" data-name="Path 17333" d="M233.182,161.148h-5.828a.883.883,0,0,1-.884-.884V107.352a.885.885,0,0,1,.884-.887h5.828a.888.888,0,0,1,.887.887V160.26a.886.886,0,0,1-.887.887" transform="translate(226.905 128.513)" fill="#f40"/>
            <path id="Path_17334" data-name="Path 17334" d="M222.226,118.679H179.907a4.459,4.459,0,0,1-4.458-4.461v-1.325a4.457,4.457,0,0,1,4.458-4.461h42.316a4.459,4.459,0,0,1,4.461,4.458v1.328a4.459,4.459,0,0,1-4.458,4.461" transform="translate(135.596 132.035)" fill="#fff"/>
            <path id="Path_17335" data-name="Path 17335" d="M222.226,118.679H179.907a4.459,4.459,0,0,1-4.458-4.461v-1.325a4.457,4.457,0,0,1,4.458-4.461h42.316a4.459,4.459,0,0,1,4.461,4.458v1.328a4.459,4.459,0,0,1-4.458,4.461" transform="translate(135.596 132.035)" fill="#fff"/>
            <rect id="Rectangle_8531" data-name="Rectangle 8531" width="29.609" height="3.596" transform="translate(321.858 243.793)"/>
            <rect id="Rectangle_8532" data-name="Rectangle 8532" width="22.766" height="11.736" transform="translate(374.356 239.447)"/>
            <rect id="Rectangle_8533" data-name="Rectangle 8533" width="22.766" height="11.736" transform="translate(407.226 239.447)"/>
            <rect id="Rectangle_8534" data-name="Rectangle 8534" width="33.442" height="11.736" transform="translate(412.49 258.609)"/>
            <rect id="Rectangle_8535" data-name="Rectangle 8535" width="28.354" height="4.31" transform="translate(415.035 262.322)" fill="#fff"/>
            <rect id="Rectangle_8536" data-name="Rectangle 8536" width="33.442" height="11.736" transform="translate(412.49 276.577)"/>
            <rect id="Rectangle_8537" data-name="Rectangle 8537" width="28.354" height="4.313" transform="translate(415.035 280.29)" fill="#fff"/>
            <path id="Path_17336" data-name="Path 17336" d="M222.225,124.676H179.909a4.461,4.461,0,0,1-4.461-4.461v-1.328a4.457,4.457,0,0,1,4.461-4.458h42.316a4.459,4.459,0,0,1,4.461,4.458v1.328a4.461,4.461,0,0,1-4.461,4.461" transform="translate(135.594 142.767)" fill="#fff"/>
            <path id="Path_17337" data-name="Path 17337" d="M222.225,130.676H179.909a4.461,4.461,0,0,1-4.461-4.461v-1.328a4.461,4.461,0,0,1,4.461-4.461h42.316a4.461,4.461,0,0,1,4.461,4.461v1.328a4.461,4.461,0,0,1-4.461,4.461" transform="translate(135.594 153.5)" fill="#fff"/>
            <rect id="Rectangle_8538" data-name="Rectangle 8538" width="29.609" height="3.596" transform="translate(321.858 260.523)"/>
            <rect id="Rectangle_8539" data-name="Rectangle 8539" width="29.609" height="3.596" transform="translate(321.858 277.255)"/>
            <path id="Path_17338" data-name="Path 17338" d="M198.421,119.8a3.617,3.617,0,1,1,3.613,3.777,3.7,3.7,0,0,1-3.613-3.777" transform="translate(176.708 145.613)" fill="#f40"/>
            <path id="Path_17339" data-name="Path 17339" d="M202.734,119.8a3.619,3.619,0,1,1,3.615,3.777,3.7,3.7,0,0,1-3.615-3.777" transform="translate(184.426 145.613)" fill="#fff"/>
            <path id="Path_17340" data-name="Path 17340" d="M207.048,119.8a3.619,3.619,0,1,1,3.615,3.777,3.7,3.7,0,0,1-3.615-3.777" transform="translate(192.147 145.613)" fill="#f40"/>
            <path id="Path_17341" data-name="Path 17341" d="M220.742,113.391a4.806,4.806,0,1,1,4.8,5.019,4.916,4.916,0,0,1-4.8-5.019" transform="translate(216.654 131.926)" fill="#fff"/>
            <path id="Path_17342" data-name="Path 17342" d="M198.421,124.988a3.617,3.617,0,1,1,3.613,3.777,3.7,3.7,0,0,1-3.613-3.777" transform="translate(176.708 154.903)" fill="#fff"/>
            <path id="Path_17343" data-name="Path 17343" d="M202.734,124.988a3.619,3.619,0,1,1,3.615,3.777,3.7,3.7,0,0,1-3.615-3.777" transform="translate(184.426 154.903)" fill="#f40"/>
            <path id="Path_17344" data-name="Path 17344" d="M207.048,124.988a3.619,3.619,0,1,1,3.615,3.777,3.7,3.7,0,0,1-3.615-3.777" transform="translate(192.147 154.903)" fill="#fff"/>
            <rect id="Rectangle_8540" data-name="Rectangle 8540" width="172.888" height="66.82" transform="translate(296.865 305.972)" fill="#aab6c2"/>
            <path id="Path_17345" data-name="Path 17345" d="M232.826,188.77h-56.9a2.533,2.533,0,0,1-2.533-2.533V136.62a2.532,2.532,0,0,1,2.533-2.53h56.9a2.53,2.53,0,0,1,2.53,2.53v49.617a2.53,2.53,0,0,1-2.53,2.533" transform="translate(131.911 177.952)"/>
            <path id="Path_17346" data-name="Path 17346" d="M233.182,188.77h-5.828a.883.883,0,0,1-.884-.887V134.977a.883.883,0,0,1,.884-.887h5.828a.886.886,0,0,1,.887.887v52.906a.888.888,0,0,1-.887.887" transform="translate(226.905 177.952)" fill="#f40"/>
            <path id="Path_17347" data-name="Path 17347" d="M222.225,146.305H179.909a4.461,4.461,0,0,1-4.461-4.461v-1.328a4.461,4.461,0,0,1,4.461-4.461h42.316a4.461,4.461,0,0,1,4.461,4.461v1.328a4.461,4.461,0,0,1-4.461,4.461" transform="translate(135.594 181.47)" fill="#fff"/>
            <path id="Path_17348" data-name="Path 17348" d="M222.225,146.305H179.909a4.461,4.461,0,0,1-4.461-4.461v-1.328a4.461,4.461,0,0,1,4.461-4.461h42.316a4.461,4.461,0,0,1,4.461,4.461v1.328a4.461,4.461,0,0,1-4.461,4.461" transform="translate(135.594 181.47)" fill="#fff"/>
            <rect id="Rectangle_8541" data-name="Rectangle 8541" width="29.609" height="3.596" transform="translate(321.858 320.851)"/>
            <rect id="Rectangle_8542" data-name="Rectangle 8542" width="22.766" height="11.736" transform="translate(374.356 316.508)"/>
            <rect id="Rectangle_8543" data-name="Rectangle 8543" width="22.766" height="11.736" transform="translate(407.226 316.508)"/>
            <rect id="Rectangle_8544" data-name="Rectangle 8544" width="33.442" height="11.736" transform="translate(412.49 335.667)"/>
            <rect id="Rectangle_8545" data-name="Rectangle 8545" width="28.354" height="4.31" transform="translate(415.035 339.38)" fill="#fff"/>
            <rect id="Rectangle_8546" data-name="Rectangle 8546" width="33.442" height="11.736" transform="translate(412.49 353.638)"/>
            <rect id="Rectangle_8547" data-name="Rectangle 8547" width="28.354" height="4.31" transform="translate(415.035 357.354)" fill="#fff"/>
            <path id="Path_17349" data-name="Path 17349" d="M222.225,152.3H179.909a4.461,4.461,0,0,1-4.461-4.461v-1.328a4.461,4.461,0,0,1,4.461-4.461h42.316a4.461,4.461,0,0,1,4.461,4.461v1.328a4.461,4.461,0,0,1-4.461,4.461" transform="translate(135.594 192.203)" fill="#fff"/>
            <path id="Path_17350" data-name="Path 17350" d="M222.225,158.3H179.909a4.461,4.461,0,0,1-4.461-4.461v-1.328a4.46,4.46,0,0,1,4.461-4.458h42.316a4.463,4.463,0,0,1,4.461,4.461v1.325a4.459,4.459,0,0,1-4.461,4.461" transform="translate(135.594 202.937)" fill="#fff"/>
            <rect id="Rectangle_8548" data-name="Rectangle 8548" width="29.609" height="3.596" transform="translate(321.858 337.581)"/>
            <rect id="Rectangle_8549" data-name="Rectangle 8549" width="29.609" height="3.596" transform="translate(321.858 354.316)"/>
            <path id="Path_17351" data-name="Path 17351" d="M198.421,147.42a3.617,3.617,0,1,1,3.613,3.777,3.7,3.7,0,0,1-3.613-3.777" transform="translate(176.708 195.048)" fill="#f40"/>
            <path id="Path_17352" data-name="Path 17352" d="M202.734,147.42a3.619,3.619,0,1,1,3.615,3.777,3.7,3.7,0,0,1-3.615-3.777" transform="translate(184.426 195.048)" fill="#fff"/>
            <path id="Path_17353" data-name="Path 17353" d="M207.048,147.42a3.619,3.619,0,1,1,3.615,3.777,3.7,3.7,0,0,1-3.615-3.777" transform="translate(192.147 195.048)" fill="#f40"/>
            <path id="Path_17354" data-name="Path 17354" d="M220.742,141.015a4.806,4.806,0,1,1,4.8,5.019,4.914,4.914,0,0,1-4.8-5.019" transform="translate(216.654 181.363)" fill="#fff"/>
            <path id="Path_17355" data-name="Path 17355" d="M198.421,152.612a3.617,3.617,0,1,1,3.613,3.777,3.7,3.7,0,0,1-3.613-3.777" transform="translate(176.708 204.34)" fill="#fff"/>
            <path id="Path_17356" data-name="Path 17356" d="M202.734,152.612a3.619,3.619,0,1,1,3.615,3.777,3.7,3.7,0,0,1-3.615-3.777" transform="translate(184.426 204.34)" fill="#f40"/>
            <path id="Path_17357" data-name="Path 17357" d="M207.048,152.612a3.619,3.619,0,1,1,3.615,3.777,3.7,3.7,0,0,1-3.615-3.777" transform="translate(192.147 204.34)" fill="#fff"/>
            <rect id="Rectangle_8550" data-name="Rectangle 8550" width="172.888" height="66.82" transform="translate(296.865 383.033)" fill="#aab6c2"/>
            <path id="Path_17358" data-name="Path 17358" d="M232.826,216.4h-56.9a2.535,2.535,0,0,1-2.533-2.533V164.246a2.535,2.535,0,0,1,2.533-2.533h56.9a2.532,2.532,0,0,1,2.53,2.533v49.617a2.532,2.532,0,0,1-2.53,2.533" transform="translate(131.911 227.387)"/>
            <path id="Path_17359" data-name="Path 17359" d="M233.182,216.4h-5.828a.885.885,0,0,1-.884-.887V162.6a.883.883,0,0,1,.884-.887h5.828a.886.886,0,0,1,.887.887v52.908a.888.888,0,0,1-.887.887" transform="translate(226.905 227.387)" fill="#f40"/>
            <path id="Path_17360" data-name="Path 17360" d="M222.225,173.926H179.909a4.461,4.461,0,0,1-4.461-4.461v-1.328a4.456,4.456,0,0,1,4.458-4.458h42.319a4.459,4.459,0,0,1,4.461,4.458v1.328a4.461,4.461,0,0,1-4.461,4.461" transform="translate(135.594 230.907)" fill="#fff"/>
            <path id="Path_17361" data-name="Path 17361" d="M222.225,173.926H179.909a4.461,4.461,0,0,1-4.461-4.461v-1.328a4.456,4.456,0,0,1,4.458-4.458h42.319a4.459,4.459,0,0,1,4.461,4.458v1.328a4.461,4.461,0,0,1-4.461,4.461" transform="translate(135.594 230.907)" fill="#fff"/>
            <rect id="Rectangle_8551" data-name="Rectangle 8551" width="29.609" height="3.596" transform="translate(321.858 397.913)"/>
            <rect id="Rectangle_8552" data-name="Rectangle 8552" width="22.766" height="11.736" transform="translate(374.356 393.569)"/>
            <rect id="Rectangle_8553" data-name="Rectangle 8553" width="22.766" height="11.736" transform="translate(407.226 393.569)"/>
            <rect id="Rectangle_8554" data-name="Rectangle 8554" width="33.442" height="11.736" transform="translate(412.49 412.728)"/>
            <rect id="Rectangle_8555" data-name="Rectangle 8555" width="28.354" height="4.313" transform="translate(415.035 416.439)" fill="#fff"/>
            <rect id="Rectangle_8556" data-name="Rectangle 8556" width="33.442" height="11.736" transform="translate(412.49 430.699)"/>
            <rect id="Rectangle_8557" data-name="Rectangle 8557" width="28.354" height="4.31" transform="translate(415.035 434.412)" fill="#fff"/>
            <path id="Path_17362" data-name="Path 17362" d="M222.226,179.923H179.907a4.459,4.459,0,0,1-4.458-4.461v-1.325a4.459,4.459,0,0,1,4.458-4.461h42.316a4.459,4.459,0,0,1,4.461,4.461v1.328a4.456,4.456,0,0,1-4.458,4.458" transform="translate(135.596 241.64)" fill="#fff"/>
            <path id="Path_17363" data-name="Path 17363" d="M222.225,185.921H179.909a4.461,4.461,0,0,1-4.461-4.461v-1.328a4.457,4.457,0,0,1,4.461-4.458h42.316a4.459,4.459,0,0,1,4.461,4.458v1.328a4.461,4.461,0,0,1-4.461,4.461" transform="translate(135.594 252.374)" fill="#fff"/>
            <rect id="Rectangle_8558" data-name="Rectangle 8558" width="29.609" height="3.596" transform="translate(321.858 414.645)"/>
            <rect id="Rectangle_8559" data-name="Rectangle 8559" width="29.609" height="3.593" transform="translate(321.858 431.377)"/>
            <path id="Path_17364" data-name="Path 17364" d="M198.421,175.044a3.617,3.617,0,1,1,3.613,3.777,3.7,3.7,0,0,1-3.613-3.777" transform="translate(176.708 244.485)" fill="#f40"/>
            <path id="Path_17365" data-name="Path 17365" d="M202.734,175.044a3.619,3.619,0,1,1,3.615,3.777,3.7,3.7,0,0,1-3.615-3.777" transform="translate(184.426 244.485)" fill="#fff"/>
            <path id="Path_17366" data-name="Path 17366" d="M207.048,175.044a3.619,3.619,0,1,1,3.615,3.777,3.7,3.7,0,0,1-3.615-3.777" transform="translate(192.147 244.485)" fill="#f40"/>
            <path id="Path_17367" data-name="Path 17367" d="M220.742,168.636a4.806,4.806,0,1,1,4.8,5.016,4.911,4.911,0,0,1-4.8-5.016" transform="translate(216.654 230.8)" fill="#fff"/>
            <path id="Path_17368" data-name="Path 17368" d="M198.421,180.236a3.617,3.617,0,1,1,3.613,3.777,3.7,3.7,0,0,1-3.613-3.777" transform="translate(176.708 253.777)" fill="#fff"/>
            <path id="Path_17369" data-name="Path 17369" d="M202.734,180.236a3.619,3.619,0,1,1,3.615,3.777,3.7,3.7,0,0,1-3.615-3.777" transform="translate(184.426 253.777)" fill="#f40"/>
            <path id="Path_17370" data-name="Path 17370" d="M207.048,180.236a3.619,3.619,0,1,1,3.615,3.777,3.7,3.7,0,0,1-3.615-3.777" transform="translate(192.147 253.777)" fill="#fff"/>
            <rect id="Rectangle_8560" data-name="Rectangle 8560" width="172.888" height="66.82" transform="translate(296.865 460.091)" fill="#aab6c2"/>
            <path id="Path_17371" data-name="Path 17371" d="M232.826,244.017h-56.9a2.532,2.532,0,0,1-2.533-2.53V191.867a2.532,2.532,0,0,1,2.533-2.53h56.9a2.532,2.532,0,0,1,2.53,2.533v49.617a2.53,2.53,0,0,1-2.53,2.53" transform="translate(131.911 276.824)"/>
            <path id="Path_17372" data-name="Path 17372" d="M233.182,244.017h-5.828a.883.883,0,0,1-.884-.884V190.224a.885.885,0,0,1,.884-.887h5.828a.888.888,0,0,1,.887.887v52.908a.885.885,0,0,1-.887.884" transform="translate(226.905 276.824)" fill="#f40"/>
            <path id="Path_17373" data-name="Path 17373" d="M222.225,201.552H179.909a4.461,4.461,0,0,1-4.461-4.461v-1.328a4.461,4.461,0,0,1,4.461-4.461h42.316a4.461,4.461,0,0,1,4.461,4.461v1.328a4.461,4.461,0,0,1-4.461,4.461" transform="translate(135.594 280.343)" fill="#fff"/>
            <path id="Path_17374" data-name="Path 17374" d="M222.225,201.552H179.909a4.461,4.461,0,0,1-4.461-4.461v-1.328a4.461,4.461,0,0,1,4.461-4.461h42.316a4.461,4.461,0,0,1,4.461,4.461v1.328a4.461,4.461,0,0,1-4.461,4.461" transform="translate(135.594 280.343)" fill="#fff"/>
            <rect id="Rectangle_8561" data-name="Rectangle 8561" width="29.609" height="3.596" transform="translate(321.858 474.974)"/>
            <rect id="Rectangle_8562" data-name="Rectangle 8562" width="22.766" height="11.736" transform="translate(374.356 470.627)"/>
            <rect id="Rectangle_8563" data-name="Rectangle 8563" width="22.766" height="11.736" transform="translate(407.226 470.627)"/>
            <rect id="Rectangle_8564" data-name="Rectangle 8564" width="33.442" height="11.736" transform="translate(412.49 489.789)"/>
            <rect id="Rectangle_8565" data-name="Rectangle 8565" width="28.354" height="4.31" transform="translate(415.035 493.503)" fill="#fff"/>
            <rect id="Rectangle_8566" data-name="Rectangle 8566" width="33.442" height="11.736" transform="translate(412.49 507.76)"/>
            <rect id="Rectangle_8567" data-name="Rectangle 8567" width="28.354" height="4.31" transform="translate(415.035 511.473)" fill="#fff"/>
            <path id="Path_17375" data-name="Path 17375" d="M222.225,207.549H179.909a4.461,4.461,0,0,1-4.461-4.461v-1.328a4.461,4.461,0,0,1,4.461-4.461h42.316a4.461,4.461,0,0,1,4.461,4.461v1.328a4.461,4.461,0,0,1-4.461,4.461" transform="translate(135.594 291.075)" fill="#fff"/>
            <path id="Path_17376" data-name="Path 17376" d="M222.225,213.547H179.909a4.461,4.461,0,0,1-4.461-4.461v-1.328a4.461,4.461,0,0,1,4.461-4.461h42.316a4.461,4.461,0,0,1,4.461,4.461v1.328a4.461,4.461,0,0,1-4.461,4.461" transform="translate(135.594 301.809)" fill="#fff"/>
            <rect id="Rectangle_8568" data-name="Rectangle 8568" width="29.609" height="3.596" transform="translate(321.858 491.703)"/>
            <rect id="Rectangle_8569" data-name="Rectangle 8569" width="29.609" height="3.596" transform="translate(321.858 508.433)"/>
            <path id="Path_17377" data-name="Path 17377" d="M198.421,202.668a3.617,3.617,0,1,1,3.613,3.777,3.7,3.7,0,0,1-3.613-3.777" transform="translate(176.708 293.922)" fill="#f40"/>
            <path id="Path_17378" data-name="Path 17378" d="M202.734,202.668a3.619,3.619,0,1,1,3.615,3.777,3.7,3.7,0,0,1-3.615-3.777" transform="translate(184.426 293.922)" fill="#fff"/>
            <path id="Path_17379" data-name="Path 17379" d="M207.048,202.668a3.619,3.619,0,1,1,3.615,3.777,3.7,3.7,0,0,1-3.615-3.777" transform="translate(192.147 293.922)" fill="#f40"/>
            <path id="Path_17380" data-name="Path 17380" d="M220.742,196.26a4.806,4.806,0,1,1,4.8,5.016,4.913,4.913,0,0,1-4.8-5.016" transform="translate(216.654 280.237)" fill="#fff"/>
            <path id="Path_17381" data-name="Path 17381" d="M198.421,207.857a3.617,3.617,0,1,1,3.613,3.777,3.7,3.7,0,0,1-3.613-3.777" transform="translate(176.708 303.214)" fill="#fff"/>
            <path id="Path_17382" data-name="Path 17382" d="M202.734,207.857a3.619,3.619,0,1,1,3.615,3.777,3.7,3.7,0,0,1-3.615-3.777" transform="translate(184.426 303.214)" fill="#f40"/>
            <path id="Path_17383" data-name="Path 17383" d="M207.048,207.857a3.619,3.619,0,1,1,3.615,3.777,3.7,3.7,0,0,1-3.615-3.777" transform="translate(192.147 303.214)" fill="#fff"/>
            <rect id="Rectangle_8570" data-name="Rectangle 8570" width="6.09" height="83.943" transform="translate(264.397 464.805)" fill="#fff"/>
            <path id="Path_17384" data-name="Path 17384" d="M165.939,273.921h-7.457V188.605h7.457Zm-6.087-1.37h4.72V189.978h-4.72Z" transform="translate(105.231 275.514)"/>
            <rect id="Rectangle_8571" data-name="Rectangle 8571" width="51.661" height="5.175" transform="translate(241.614 543.574)" fill="#fff"/>
            <path id="Path_17385" data-name="Path 17385" d="M203.342,223.386H150.314v-6.544h53.028Zm-51.659-1.37h50.292v-3.805H151.684Z" transform="translate(90.613 326.048)"/>
            <path id="Path_17386" data-name="Path 17386" d="M66.958,130.552,75.7,145.346H366.6l8.743-14.793Z" transform="translate(-58.564 171.62)" fill="#fff"/>
            <path id="Path_17387" data-name="Path 17387" d="M367.767,146.469H76.079l-9.552-16.163H377.318Zm-290.9-1.37h290.12l7.934-13.424H68.929Z" transform="translate(-59.335 171.18)"/>
            <path id="Path_17388" data-name="Path 17388" d="M66.958,130.552,75.7,145.346h67.844l5.046-14.793Z" transform="translate(-58.564 171.62)" fill="#fff"/>
            <path id="Path_17389" data-name="Path 17389" d="M144.8,146.469H76.079l-9.552-16.163h83.79ZM76.863,145.1h66.963l4.581-13.424H68.929Z" transform="translate(-59.335 171.18)"/>
            <rect id="Rectangle_8572" data-name="Rectangle 8572" width="12.339" height="158.918" transform="translate(261.272 316.993)"/>
            <rect id="Rectangle_8573" data-name="Rectangle 8573" width="65.451" height="8.662" transform="translate(39.777 438.524)" fill="#fff"/>
            <path id="Path_17390" data-name="Path 17390" d="M144.781,189.218H77.963V179.184h66.818Zm-65.451-1.37h64.084v-7.292H79.33Z" transform="translate(-38.869 258.654)"/>
            <rect id="Rectangle_8574" data-name="Rectangle 8574" width="181.639" height="8.662" transform="translate(105.228 438.524)" fill="#fff"/>
            <path id="Path_17391" data-name="Path 17391" d="M284.433,189.218H101.424V179.184H284.433Zm-181.639-1.37H283.066v-7.292H102.794Z" transform="translate(3.118 258.654)"/>
            <rect id="Rectangle_8575" data-name="Rectangle 8575" width="165.166" height="14.194" transform="translate(68.647 405.118)" fill="#aab6c2"/>
            <path id="Path_17392" data-name="Path 17392" d="M273.813,190.717a4.454,4.454,0,0,1-4,4.444H269.8a2.934,2.934,0,0,1-.449.017l-87.388.014-68.7-.011h-.02l-24.593,0a4.471,4.471,0,0,1-4.48-4.469l.008-16.172a4.446,4.446,0,0,1,4.469-4.463H101.46l94.078-.011,73.8-.014a4.579,4.579,0,0,1,.907.1,4.493,4.493,0,0,1,3.576,4.369Z" transform="translate(-27.766 242.315)" fill="#fff"/>
            <path id="Path_17393" data-name="Path 17393" d="M182.4,196.315l-68.7-.011-24.613.006h-.028a5.088,5.088,0,0,1-3.621-1.5,5.154,5.154,0,0,1-1.518-3.649l.008-16.174a5.129,5.129,0,0,1,5.141-5.147h.017l180.691-.028a5.42,5.42,0,0,1,1.038.114,5.192,5.192,0,0,1,4.131,5.035l-.011,16.2a5.169,5.169,0,0,1-4.614,5.125,3.1,3.1,0,0,1-.508.022Zm-68.717-1.381,68.717.011,87.386-.011a2.254,2.254,0,0,0,.354-.011,3.8,3.8,0,0,0,3.428-3.76l.011-16.2a3.82,3.82,0,0,0-3.032-3.7,4.022,4.022,0,0,0-.77-.089l-180.691.028h-.011A3.767,3.767,0,0,0,85.3,174.98l-.008,16.177a3.812,3.812,0,0,0,1.119,2.681,3.744,3.744,0,0,0,2.659,1.1h.02Z" transform="translate(-28.205 241.874)"/>
            <rect id="Rectangle_8576" data-name="Rectangle 8576" width="165.166" height="14.004" transform="translate(68.647 376.413)" fill="#aab6c2"/>
            <path id="Path_17394" data-name="Path 17394" d="M273.813,180.359a4.454,4.454,0,0,1-4,4.444H269.8a3.329,3.329,0,0,1-.449.02l-87.388.011-68.7-.011h-.02l-24.593.006a4.473,4.473,0,0,1-4.48-4.472l.008-16.172a4.446,4.446,0,0,1,4.469-4.463H101.46l94.078-.011,73.8-.014a4.8,4.8,0,0,1,.907.1,4.493,4.493,0,0,1,3.576,4.369Z" transform="translate(-27.766 223.777)" fill="#fff"/>
            <path id="Path_17395" data-name="Path 17395" d="M182.4,185.958l-68.7-.011-24.613.006h-.028a5.089,5.089,0,0,1-3.621-1.5,5.154,5.154,0,0,1-1.518-3.649l.008-16.177a5.063,5.063,0,0,1,1.5-3.638,5.119,5.119,0,0,1,3.643-1.509h.02l180.691-.025a5.47,5.47,0,0,1,1.041.114,5.192,5.192,0,0,1,4.129,5.035l-.011,16.2a5.169,5.169,0,0,1-4.614,5.122,4.107,4.107,0,0,1-.538.025Zm-68.717-1.381,68.717.008,87.386-.008c.123-.006.245,0,.354-.014a3.8,3.8,0,0,0,3.428-3.76l.011-16.2a3.86,3.86,0,0,0-3.8-3.786l-180.691.028h-.014A3.762,3.762,0,0,0,85.3,164.62L85.289,180.8a3.8,3.8,0,0,0,1.119,2.681,3.736,3.736,0,0,0,2.659,1.1h.02Z" transform="translate(-28.205 223.339)"/>
            <path id="Path_17396" data-name="Path 17396" d="M273.813,170a4.454,4.454,0,0,1-4,4.444H269.8a3.337,3.337,0,0,1-.449.019l-87.388.011-68.7-.011h-.02l-24.593.006A4.472,4.472,0,0,1,84.167,170l.008-16.174a4.442,4.442,0,0,1,4.469-4.461H101.46l94.078-.014,73.8-.014a4.8,4.8,0,0,1,.907.1,4.493,4.493,0,0,1,3.576,4.369Z" transform="translate(-27.766 205.242)" fill="#fff"/>
            <path id="Path_17397" data-name="Path 17397" d="M182.4,175.6l-68.7-.011-24.613.006h-.028a5.089,5.089,0,0,1-3.621-1.5,5.149,5.149,0,0,1-1.518-3.649l.008-16.172a5.129,5.129,0,0,1,5.141-5.15h.017l180.691-.028a5.47,5.47,0,0,1,1.041.114,5.192,5.192,0,0,1,4.129,5.035l-.011,16.2a5.17,5.17,0,0,1-4.614,5.127,3.989,3.989,0,0,1-.5.022h-.011Zm-68.717-1.381,68.717.011,87.386-.014a1.571,1.571,0,0,0,.354-.008,3.8,3.8,0,0,0,3.428-3.763l.011-16.2a3.812,3.812,0,0,0-3.032-3.693,3.638,3.638,0,0,0-.77-.092l-180.691.028h-.011a3.772,3.772,0,0,0-3.777,3.774l-.008,16.174a3.8,3.8,0,0,0,1.119,2.681,3.736,3.736,0,0,0,2.659,1.1h.02Z" transform="translate(-28.205 204.802)"/>
            <rect id="Rectangle_8577" data-name="Rectangle 8577" width="147.232" height="14.194" transform="translate(122.303 405.118)"/>
            <path id="Path_17398" data-name="Path 17398" d="M275.115,190.717a4.454,4.454,0,0,1-4,4.444h-.02a2.958,2.958,0,0,1-.452.017l-69.448.014-68.7-.011h-.02l-24.593,0a4.475,4.475,0,0,1-4.483-4.469l.011-16.172a4.444,4.444,0,0,1,4.469-4.463H120.7l94.078-.011,55.865-.014a4.6,4.6,0,0,1,.907.1,4.494,4.494,0,0,1,3.576,4.369Z" transform="translate(6.656 242.315)" fill="#aab6c2"/>
            <rect id="Rectangle_8578" data-name="Rectangle 8578" width="147.232" height="14.004" transform="translate(122.303 376.413)"/>
            <path id="Path_17399" data-name="Path 17399" d="M275.115,180.359a4.454,4.454,0,0,1-4,4.444h-.02a3.352,3.352,0,0,1-.452.02l-69.448.011-68.7-.011h-.02l-24.593.006a4.477,4.477,0,0,1-4.483-4.472l.011-16.172a4.444,4.444,0,0,1,4.469-4.463H120.7l94.078-.011,55.865-.014a4.827,4.827,0,0,1,.907.1,4.494,4.494,0,0,1,3.576,4.369Z" transform="translate(6.656 223.777)" fill="#aab6c2"/>
            <path id="Path_17400" data-name="Path 17400" d="M275.115,170a4.454,4.454,0,0,1-4,4.444h-.02a3.359,3.359,0,0,1-.452.019l-69.448.011-68.7-.011h-.02l-24.593.006A4.477,4.477,0,0,1,103.4,170l.011-16.174a4.44,4.44,0,0,1,4.469-4.461H120.7l94.078-.014,55.865-.014a4.823,4.823,0,0,1,.907.1,4.493,4.493,0,0,1,3.576,4.369Z" transform="translate(6.656 205.242)" fill="#aab6c2"/>
            <path id="Path_17401" data-name="Path 17401" d="M89.835,151.956a1.875,1.875,0,1,1-1.877,1.875,1.875,1.875,0,0,1,1.877-1.875" transform="translate(-20.982 209.926)" fill="#aab6c2"/>
            <path id="Path_17402" data-name="Path 17402" d="M89.835,154.389a1.875,1.875,0,1,1-1.877,1.875,1.875,1.875,0,0,1,1.877-1.875" transform="translate(-20.982 214.28)" fill="#aab6c2"/>
            <path id="Path_17403" data-name="Path 17403" d="M92.907,151.956a1.875,1.875,0,1,1-1.875,1.875,1.875,1.875,0,0,1,1.875-1.875" transform="translate(-15.48 209.926)" fill="#aab6c2"/>
            <path id="Path_17404" data-name="Path 17404" d="M92.907,154.389a1.875,1.875,0,1,1-1.875,1.875,1.875,1.875,0,0,1,1.875-1.875" transform="translate(-15.48 214.28)" fill="#aab6c2"/>
            <path id="Path_17405" data-name="Path 17405" d="M95.98,151.956a1.875,1.875,0,1,1-1.875,1.875,1.878,1.878,0,0,1,1.875-1.875" transform="translate(-9.981 209.926)" fill="#aab6c2"/>
            <path id="Path_17406" data-name="Path 17406" d="M95.98,154.389a1.875,1.875,0,1,1-1.875,1.875,1.877,1.877,0,0,1,1.875-1.875" transform="translate(-9.981 214.28)" fill="#aab6c2"/>
            <path id="Path_17407" data-name="Path 17407" d="M99.054,151.956a1.875,1.875,0,1,1-1.875,1.875,1.876,1.876,0,0,1,1.875-1.875" transform="translate(-4.479 209.926)" fill="#aab6c2"/>
            <path id="Path_17408" data-name="Path 17408" d="M99.054,154.389a1.875,1.875,0,1,1-1.875,1.875,1.876,1.876,0,0,1,1.875-1.875" transform="translate(-4.479 214.28)" fill="#aab6c2"/>
            <path id="Path_17409" data-name="Path 17409" d="M89.835,162.313a1.876,1.876,0,1,1-1.877,1.875,1.875,1.875,0,0,1,1.877-1.875" transform="translate(-20.982 228.461)" fill="#aab6c2"/>
            <path id="Path_17410" data-name="Path 17410" d="M89.835,164.746a1.876,1.876,0,1,1-1.877,1.875,1.875,1.875,0,0,1,1.877-1.875" transform="translate(-20.982 232.815)" fill="#aab6c2"/>
            <path id="Path_17411" data-name="Path 17411" d="M92.907,162.313a1.876,1.876,0,1,1-1.875,1.875,1.875,1.875,0,0,1,1.875-1.875" transform="translate(-15.48 228.461)" fill="#aab6c2"/>
            <path id="Path_17412" data-name="Path 17412" d="M92.907,164.746a1.876,1.876,0,1,1-1.875,1.875,1.875,1.875,0,0,1,1.875-1.875" transform="translate(-15.48 232.815)" fill="#aab6c2"/>
            <path id="Path_17413" data-name="Path 17413" d="M95.98,162.313a1.876,1.876,0,1,1-1.875,1.875,1.878,1.878,0,0,1,1.875-1.875" transform="translate(-9.981 228.461)" fill="#aab6c2"/>
            <path id="Path_17414" data-name="Path 17414" d="M95.98,164.746a1.876,1.876,0,1,1-1.875,1.875,1.877,1.877,0,0,1,1.875-1.875" transform="translate(-9.981 232.815)" fill="#aab6c2"/>
            <path id="Path_17415" data-name="Path 17415" d="M99.054,162.313a1.876,1.876,0,1,1-1.875,1.875,1.876,1.876,0,0,1,1.875-1.875" transform="translate(-4.479 228.461)" fill="#aab6c2"/>
            <path id="Path_17416" data-name="Path 17416" d="M99.054,164.746a1.876,1.876,0,1,1-1.875,1.875,1.876,1.876,0,0,1,1.875-1.875" transform="translate(-4.479 232.815)" fill="#aab6c2"/>
            <path id="Path_17417" data-name="Path 17417" d="M89.835,172.67a1.875,1.875,0,1,1-1.877,1.875,1.875,1.875,0,0,1,1.877-1.875" transform="translate(-20.982 246.996)" fill="#aab6c2"/>
            <path id="Path_17418" data-name="Path 17418" d="M89.835,175.1a1.876,1.876,0,1,1-1.877,1.875,1.875,1.875,0,0,1,1.877-1.875" transform="translate(-20.982 251.35)" fill="#aab6c2"/>
            <path id="Path_17419" data-name="Path 17419" d="M92.907,172.67a1.875,1.875,0,1,1-1.875,1.875,1.875,1.875,0,0,1,1.875-1.875" transform="translate(-15.48 246.996)" fill="#aab6c2"/>
            <path id="Path_17420" data-name="Path 17420" d="M92.907,175.1a1.876,1.876,0,1,1-1.875,1.875,1.875,1.875,0,0,1,1.875-1.875" transform="translate(-15.48 251.35)" fill="#aab6c2"/>
            <path id="Path_17421" data-name="Path 17421" d="M95.98,172.67a1.875,1.875,0,1,1-1.875,1.875,1.878,1.878,0,0,1,1.875-1.875" transform="translate(-9.981 246.996)" fill="#aab6c2"/>
            <path id="Path_17422" data-name="Path 17422" d="M95.98,175.1a1.876,1.876,0,1,1-1.875,1.875A1.878,1.878,0,0,1,95.98,175.1" transform="translate(-9.981 251.35)" fill="#aab6c2"/>
            <path id="Path_17423" data-name="Path 17423" d="M99.054,172.67a1.875,1.875,0,1,1-1.875,1.875,1.876,1.876,0,0,1,1.875-1.875" transform="translate(-4.479 246.996)" fill="#aab6c2"/>
            <path id="Path_17424" data-name="Path 17424" d="M99.054,175.1a1.876,1.876,0,1,1-1.875,1.875,1.876,1.876,0,0,1,1.875-1.875" transform="translate(-4.479 251.35)" fill="#aab6c2"/>
            <path id="Path_17425" data-name="Path 17425" d="M91.393,186.9h8.165a1.794,1.794,0,0,0,0-3.587H91.393a.491.491,0,0,1-.491-.488V158.494a.491.491,0,0,1,.491-.488h8.165a1.794,1.794,0,0,0,0-3.587H91.393a4.081,4.081,0,0,0-4.078,4.076v24.329a4.083,4.083,0,0,0,4.078,4.076" transform="translate(-22.132 214.332)" fill="#fff"/>
            <path id="Path_17426" data-name="Path 17426" d="M100,188.022H91.832a4.766,4.766,0,0,1-4.762-4.762V158.935a4.766,4.766,0,0,1,4.762-4.762H100a2.479,2.479,0,0,1,0,4.957H92.024v23.935H100a2.479,2.479,0,0,1,0,4.957m-8.165-32.48a3.4,3.4,0,0,0-3.4,3.392v24.326a3.4,3.4,0,0,0,3.4,3.392H100a1.109,1.109,0,1,0,0-2.218H91.832a1.174,1.174,0,0,1-1.174-1.174V158.935a1.177,1.177,0,0,1,1.174-1.177H100a1.107,1.107,0,1,0,0-2.215Z" transform="translate(-22.571 213.893)"/>
            <path id="Path_17427" data-name="Path 17427" d="M112.232,154.421h92.318a2.207,2.207,0,1,1,0,4.413H112.232a2.207,2.207,0,1,1,0-4.413" transform="translate(18.511 214.337)"/>
            <path id="Path_17428" data-name="Path 17428" d="M112.232,154.421H194.7a2.207,2.207,0,0,1,0,4.413h-82.47a2.207,2.207,0,1,1,0-4.413" transform="translate(18.511 214.337)" fill="#fff"/>
            <path id="Path_17429" data-name="Path 17429" d="M112.232,151.4h92.318a2.207,2.207,0,1,1,0,4.413H112.232a2.207,2.207,0,1,1,0-4.413" transform="translate(18.511 208.923)"/>
            <path id="Path_17430" data-name="Path 17430" d="M112.232,151.4H182.2a2.207,2.207,0,0,1,0,4.413H112.232a2.207,2.207,0,1,1,0-4.413" transform="translate(18.511 208.923)" fill="#fff"/>
            <path id="Path_17431" data-name="Path 17431" d="M159.881,152.548a3.716,3.716,0,1,1-3.716,3.716,3.716,3.716,0,0,1,3.716-3.716" transform="translate(101.085 210.985)" fill="#fff"/>
            <path id="Path_17432" data-name="Path 17432" d="M155.941,156.667a4.343,4.343,0,1,0,4.344-4.344,4.35,4.35,0,0,0-4.344,4.344m1.255,0a3.088,3.088,0,1,1,3.088,3.088,3.091,3.091,0,0,1-3.088-3.088" transform="translate(100.684 210.582)"/>
            <path id="Path_17433" data-name="Path 17433" d="M155.084,152.548a3.716,3.716,0,1,1-3.716,3.716,3.718,3.718,0,0,1,3.716-3.716" transform="translate(92.5 210.985)"/>
            <path id="Path_17434" data-name="Path 17434" d="M151.143,156.667a4.343,4.343,0,1,0,4.343-4.344,4.35,4.35,0,0,0-4.343,4.344m1.255,0a3.088,3.088,0,1,1,3.088,3.088,3.091,3.091,0,0,1-3.088-3.088" transform="translate(92.097 210.582)" fill="#aab6c2"/>
            <rect id="Rectangle_8579" data-name="Rectangle 8579" width="7.839" height="2.511" transform="translate(236.029 365.993)" fill="#aab6c2"/>
            <path id="Path_17435" data-name="Path 17435" d="M112.232,164.73h92.318a2.207,2.207,0,1,1,0,4.413H112.232a2.207,2.207,0,0,1,0-4.413" transform="translate(18.511 232.786)"/>
            <path id="Path_17436" data-name="Path 17436" d="M112.232,164.73H194.7a2.207,2.207,0,0,1,0,4.413h-82.47a2.207,2.207,0,0,1,0-4.413" transform="translate(18.511 232.786)" fill="#fff"/>
            <path id="Path_17437" data-name="Path 17437" d="M112.232,161.7h92.318a2.207,2.207,0,1,1,0,4.413H112.232a2.207,2.207,0,1,1,0-4.413" transform="translate(18.511 227.371)"/>
            <path id="Path_17438" data-name="Path 17438" d="M112.232,161.7H182.2a2.207,2.207,0,0,1,0,4.413H112.232a2.207,2.207,0,1,1,0-4.413" transform="translate(18.511 227.371)" fill="#fff"/>
            <path id="Path_17439" data-name="Path 17439" d="M159.881,162.857a3.716,3.716,0,1,1-3.716,3.716,3.715,3.715,0,0,1,3.716-3.716" transform="translate(101.085 229.434)" fill="#fff"/>
            <path id="Path_17440" data-name="Path 17440" d="M155.941,166.975a4.343,4.343,0,1,0,4.344-4.343,4.35,4.35,0,0,0-4.344,4.343m1.255,0a3.088,3.088,0,1,1,3.088,3.088,3.089,3.089,0,0,1-3.088-3.088" transform="translate(100.684 229.032)"/>
            <path id="Path_17441" data-name="Path 17441" d="M155.084,162.857a3.716,3.716,0,1,1-3.716,3.716,3.716,3.716,0,0,1,3.716-3.716" transform="translate(92.5 229.434)"/>
            <path id="Path_17442" data-name="Path 17442" d="M151.143,166.975a4.343,4.343,0,1,0,4.343-4.343,4.35,4.35,0,0,0-4.343,4.343m1.255,0a3.088,3.088,0,1,1,3.088,3.088,3.089,3.089,0,0,1-3.088-3.088" transform="translate(92.097 229.032)" fill="#aab6c2"/>
            <rect id="Rectangle_8580" data-name="Rectangle 8580" width="7.839" height="2.508" transform="translate(236.029 394.755)" fill="#aab6c2"/>
            <path id="Path_17443" data-name="Path 17443" d="M112.232,175.039h92.318a2.207,2.207,0,1,1,0,4.413H112.232a2.207,2.207,0,1,1,0-4.413" transform="translate(18.511 251.236)"/>
            <path id="Path_17444" data-name="Path 17444" d="M112.232,175.039H194.7a2.207,2.207,0,1,1,0,4.413h-82.47a2.207,2.207,0,1,1,0-4.413" transform="translate(18.511 251.236)" fill="#fff"/>
            <path id="Path_17445" data-name="Path 17445" d="M112.232,172.014h92.318a2.207,2.207,0,1,1,0,4.413H112.232a2.207,2.207,0,1,1,0-4.413" transform="translate(18.511 245.822)"/>
            <path id="Path_17446" data-name="Path 17446" d="M112.232,172.014H182.2a2.207,2.207,0,1,1,0,4.413H112.232a2.207,2.207,0,1,1,0-4.413" transform="translate(18.511 245.822)" fill="#fff"/>
            <path id="Path_17447" data-name="Path 17447" d="M159.881,173.166a3.716,3.716,0,1,1-3.716,3.716,3.716,3.716,0,0,1,3.716-3.716" transform="translate(101.085 247.884)" fill="#fff"/>
            <path id="Path_17448" data-name="Path 17448" d="M155.941,177.284a4.343,4.343,0,1,0,4.344-4.343,4.35,4.35,0,0,0-4.344,4.343m1.255,0a3.088,3.088,0,1,1,3.088,3.088,3.091,3.091,0,0,1-3.088-3.088" transform="translate(100.684 247.481)"/>
            <path id="Path_17449" data-name="Path 17449" d="M155.084,173.166a3.716,3.716,0,1,1-3.716,3.716,3.718,3.718,0,0,1,3.716-3.716" transform="translate(92.5 247.884)"/>
            <path id="Path_17450" data-name="Path 17450" d="M151.143,177.284a4.343,4.343,0,1,0,4.343-4.343,4.35,4.35,0,0,0-4.343,4.343m1.255,0a3.088,3.088,0,1,1,3.088,3.088,3.091,3.091,0,0,1-3.088-3.088" transform="translate(92.097 247.481)" fill="#aab6c2"/>
            <rect id="Rectangle_8581" data-name="Rectangle 8581" width="7.839" height="2.508" transform="translate(236.029 423.513)" fill="#aab6c2"/>
            <rect id="Rectangle_8582" data-name="Rectangle 8582" width="6.087" height="83.943" transform="translate(74.419 464.805)" fill="#fff"/>
            <path id="Path_17451" data-name="Path 17451" d="M97.835,273.921H90.381V188.605h7.454Zm-6.087-1.37h4.717V189.978H91.748Z" transform="translate(-16.645 275.514)"/>
            <rect id="Rectangle_8583" data-name="Rectangle 8583" width="12.341" height="158.918" transform="translate(71.292 316.993)"/>
            <rect id="Rectangle_8584" data-name="Rectangle 8584" width="51.661" height="5.175" transform="translate(51.633 543.574)" fill="#fff"/>
            <path id="Path_17452" data-name="Path 17452" d="M135.241,223.386H82.213v-6.544h53.028Zm-51.661-1.37h50.292v-3.805H83.58Z" transform="translate(-31.263 326.048)"/>
            <path id="Path_17453" data-name="Path 17453" d="M160.873,125.744l-58.647,5.261,47.669-.232Z" transform="translate(4.553 163.016)"/>
            <path id="Path_17454" data-name="Path 17454" d="M102.4,133.74l.19-5.716,46.3-.226.036,6.969Z" transform="translate(4.863 166.692)" fill="#fff"/>
            <path id="Path_17455" data-name="Path 17455" d="M148.658,128.95l.028,5.554-45.1-1,.145-4.338Zm1.389-1.4-47.672.232-.234,7.091,47.946,1.06Z" transform="translate(4.401 166.242)"/>
            <path id="Path_17456" data-name="Path 17456" d="M221.878,127.533l-102.564.039.039,8.383,102.525-.695Z" transform="translate(35.135 166.217)"/>
            <path id="Path_17457" data-name="Path 17457" d="M121.3,106.223a3.8,3.8,0,0,1,3.777-3.331l94.315.028a4.113,4.113,0,0,1,2.109.628l5.323,2.759-2.65,3.861-.636-.265-3.426,59-97.372,2.767-5.345-.957Z" transform="translate(31.707 122.119)"/>
            <path id="Path_17458" data-name="Path 17458" d="M123.29,106.792a3.1,3.1,0,0,1,3.085-2.67l94.309.031a3.587,3.587,0,0,1,2.709,1.236,3.517,3.517,0,0,1,.87,2.773l-3.521,60.574-101.164.039Z" transform="translate(35.611 124.32)" fill="#fff"/>
            <path id="Path_17459" data-name="Path 17459" d="M126.85,105.266l94.343.031a2.926,2.926,0,0,1,2.848,3.322l-3.479,59.868-99.769.036,3.66-61.143a2.412,2.412,0,0,1,2.4-2.115m0-1.395a3.8,3.8,0,0,0-3.777,3.328l-3.755,62.72,102.561-.039,3.557-61.18a4.314,4.314,0,0,0-4.243-4.8h-.028Z" transform="translate(35.136 123.871)"/>
            <path id="Path_17460" data-name="Path 17460" d="M158.838,284.876a2.092,2.092,0,0,1-.112-4.182c.449-.025,45.46-2.748,89.821-28.337,40.8-23.533,89.433-71.864,89.433-168.466a2.092,2.092,0,0,1,4.184,0c0,98.681-49.848,148.094-91.665,172.171-45.217,26.033-91.087,28.786-91.548,28.811l-.114,0" transform="translate(102.128 84.368)"/>
            <path id="Path_17461" data-name="Path 17461" d="M230.7,223.792a330.453,330.453,0,0,1-72.257-8.55,2.092,2.092,0,0,1,1.013-4.059c1.029.254,103.521,25.179,152.448-13.064,17.173-13.421,25.879-33.264,25.879-58.981a2.092,2.092,0,1,1,4.184,0c0,27.073-9.25,48.029-27.492,62.282-22.289,17.421-54.437,22.373-83.776,22.373" transform="translate(102.324 183.24)" fill="#f40"/>
            <path id="Path_17462" data-name="Path 17462" d="M231.81,273.478c-33.813,0-72.723-50.342-74.523-52.694a2.092,2.092,0,0,1,3.323-2.541c.469.611,46.975,60.795,79.736,49.686,22.546-7.632,33.978-46.8,33.978-116.4a2.092,2.092,0,1,1,4.184,0c0,71.6-12.389,112.093-36.826,120.365a30.664,30.664,0,0,1-9.873,1.582" transform="translate(102.325 205.421)" fill="#fff"/>
            <path id="Path_17463" data-name="Path 17463" d="M190.557,54.825a32.821,32.821,0,1,1-33.052-32.591,32.818,32.818,0,0,1,33.052,32.591" transform="translate(45.16 -22.233)" fill="#f40"/>
            <path id="Path_17464" data-name="Path 17464" d="M146.307,66.592c-1.813-.095-5.8-1.649-16.518-16.576a3.4,3.4,0,0,1,5.529-3.97,105.006,105.006,0,0,0,10.467,12.671c4.72-7.761,18.331-29.235,18.992-30.279a3.4,3.4,0,0,1,5.747,3.643c-5.133,8.1-18.772,29.7-20.208,32.332a4.16,4.16,0,0,1-3.395,2.17c-.176.008-.377.02-.614.008" transform="translate(52.742 -13.954)" fill="#fff"/>
            <path id="Path_17465" data-name="Path 17465" d="M146.956,67.721c-.078,0-.159,0-.245-.008-2.2-.114-6.366-1.989-17.039-16.861a4.085,4.085,0,0,1,3.981-6.416,4.042,4.042,0,0,1,2.658,1.649,112.843,112.843,0,0,0,9.775,11.979c5.172-8.447,18.423-29.347,18.551-29.553a4.086,4.086,0,1,1,6.9,4.377c-5.136,8.1-18.771,29.7-20.183,32.29A4.833,4.833,0,0,1,147.4,67.7c-.134.008-.282.017-.446.017m-.176-1.375c.2.006.382,0,.533-.008a3.467,3.467,0,0,0,2.837-1.816c1.724-3.155,20.049-32.075,20.233-32.368a2.718,2.718,0,0,0-4.592-2.91c-.131.215-14.188,22.384-18.983,30.265l-.438.723-.617-.577A104.811,104.811,0,0,1,135.2,46.883a2.719,2.719,0,1,0-4.416,3.172c7.649,10.654,13.03,16.135,16,16.292" transform="translate(52.302 -14.391)"/>
          </g>
        </g>
      </g>
    </g>
    <g id="Group_9893" data-name="Group 9893" transform="translate(366 45)">
      <g transform="matrix(1, 0, 0, 1, -234, 3969)" filter="url(#Ellipse_350)">
        <circle id="Ellipse_350-2" data-name="Ellipse 350" cx="63.5" cy="63.5" r="63.5" transform="translate(626 67)" fill="#fff"/>
      </g>
      <text id="_3GB_RAM" data-name="3GB 
RAM" transform="translate(455.5 4097)" fill="#f40" font-size="36" font-family="SofiaPro-Black, Sofia Pro" font-weight="800"><tspan x="-38" y="0">3GB </tspan><tspan fill="#1a1a1a" font-size="24"><tspan x="-26" y="33">RAM</tspan></tspan></text>
    </g>
    <g id="Group_9894" data-name="Group 9894" transform="translate(-1230 -103)">
      <g transform="matrix(1, 0, 0, 1, 1362, 4117)" filter="url(#Ellipse_351)">
        <circle id="Ellipse_351-2" data-name="Ellipse 351" cx="93.5" cy="93.5" r="93.5" transform="translate(15 15)" fill="#fff"/>
      </g>
      <text id="_2_CORES_CPU" data-name="2 CORES 
CPU" transform="translate(1470.5 4223)" fill="#f40" font-size="36" font-family="SofiaPro-Black, Sofia Pro" font-weight="800"><tspan x="-77" y="0">2 CORES </tspan><tspan fill="#1a1a1a" font-size="24"><tspan x="-24" y="33">CPU</tspan></tspan></text>
    </g>
    <g id="Group_9895" data-name="Group 9895" transform="translate(-1196 327)">
      <g transform="matrix(1, 0, 0, 1, 1328, 3687)" filter="url(#Ellipse_352)">
        <circle id="Ellipse_352-2" data-name="Ellipse 352" cx="63.5" cy="63.5" r="63.5" transform="translate(79 475)" fill="#fff"/>
      </g>
      <text id="_80GB_SSD" data-name="80GB 
SSD" transform="translate(1470.5 4223)" fill="#f40" font-size="36" font-family="SofiaPro-Black, Sofia Pro" font-weight="800"><tspan x="-50" y="0">80GB </tspan><tspan fill="#1a1a1a" font-size="24"><tspan x="-22" y="33">SSD</tspan></tspan></text>
    </g>
  </g>
</svg>
