<svg xmlns="http://www.w3.org/2000/svg" xmlns:xlink="http://www.w3.org/1999/xlink" width="788.73" height="660.105" viewBox="0 0 788.73 660.105">
  <defs>
    <clipPath id="clip-path">
      <path id="Path_16837" data-name="Path 16837" d="M317.351,32.8C147.361,74.429,48.009,181.282,29.584,277.554,9.915,380.321,83.017,468,239.631,467.342s57.222,127.433,187.991,135.44,194.53-72.047,178.313-249.764C591.815,198.326,587.8,20.323,409.275,20.309c-26.576,0-57,3.943-91.924,12.494" transform="translate(-26.445 -20.309)" fill="none"/>
    </clipPath>
    <clipPath id="clip-path-2">
      <rect id="Rectangle_8315" data-name="Rectangle 8315" width="540.166" height="615.883" fill="none"/>
    </clipPath>
    <clipPath id="clip-path-3">
      <rect id="Rectangle_8316" data-name="Rectangle 8316" width="266.66" height="597.716" fill="none"/>
    </clipPath>
    <clipPath id="clip-path-4">
      <rect id="Rectangle_8317" data-name="Rectangle 8317" width="245.697" height="597.716" fill="none"/>
    </clipPath>
    <clipPath id="clip-path-5">
      <rect id="Rectangle_8318" data-name="Rectangle 8318" width="192.677" height="533.544" fill="none"/>
    </clipPath>
    <clipPath id="clip-path-6">
      <rect id="Rectangle_8320" data-name="Rectangle 8320" width="540.164" height="615.885" fill="none"/>
    </clipPath>
    <clipPath id="clip-path-7">
      <rect id="Rectangle_8321" data-name="Rectangle 8321" width="266.659" height="597.716" fill="none"/>
    </clipPath>
    <clipPath id="clip-path-9">
      <rect id="Rectangle_8323" data-name="Rectangle 8323" width="191.023" height="191.024" fill="none"/>
    </clipPath>
    <clipPath id="clip-path-10">
      <rect id="Rectangle_8324" data-name="Rectangle 8324" width="94.617" height="72.011" fill="none"/>
    </clipPath>
    <clipPath id="clip-path-11">
      <rect id="Rectangle_8325" data-name="Rectangle 8325" width="57.681" height="21.948" fill="none"/>
    </clipPath>
    <clipPath id="clip-path-12">
      <rect id="Rectangle_8326" data-name="Rectangle 8326" width="91.297" height="48.299" fill="none"/>
    </clipPath>
    <clipPath id="clip-path-13">
      <rect id="Rectangle_8327" data-name="Rectangle 8327" width="32.69" height="53.858" fill="none"/>
    </clipPath>
    <clipPath id="clip-path-14">
      <rect id="Rectangle_8328" data-name="Rectangle 8328" width="18.636" height="13.852" fill="none"/>
    </clipPath>
    <clipPath id="clip-path-15">
      <rect id="Rectangle_8329" data-name="Rectangle 8329" width="52.749" height="52.75" fill="none"/>
    </clipPath>
    <clipPath id="clip-path-16">
      <rect id="Rectangle_8330" data-name="Rectangle 8330" width="52.713" height="37.458" fill="none"/>
    </clipPath>
    <clipPath id="clip-path-17">
      <rect id="Rectangle_8331" data-name="Rectangle 8331" width="136.768" height="136.765" fill="none"/>
    </clipPath>
    <clipPath id="clip-path-18">
      <rect id="Rectangle_8332" data-name="Rectangle 8332" width="68.186" height="48.669" fill="none"/>
    </clipPath>
    <clipPath id="clip-path-19">
      <rect id="Rectangle_8333" data-name="Rectangle 8333" width="39.975" height="17.905" fill="none"/>
    </clipPath>
    <clipPath id="clip-path-20">
      <rect id="Rectangle_8335" data-name="Rectangle 8335" width="66.653" height="30.32" fill="none"/>
    </clipPath>
    <clipPath id="clip-path-22">
      <rect id="Rectangle_8336" data-name="Rectangle 8336" width="25.572" height="36.867" fill="none"/>
    </clipPath>
    <clipPath id="clip-path-23">
      <rect id="Rectangle_8337" data-name="Rectangle 8337" width="10.471" height="15.672" fill="none"/>
    </clipPath>
    <clipPath id="clip-path-24">
      <rect id="Rectangle_8338" data-name="Rectangle 8338" width="37.63" height="37.63" fill="none"/>
    </clipPath>
    <clipPath id="clip-path-25">
      <rect id="Rectangle_8339" data-name="Rectangle 8339" width="37.618" height="25.192" fill="none"/>
    </clipPath>
    <clipPath id="clip-path-26">
      <rect id="Rectangle_8371" data-name="Rectangle 8371" width="183.292" height="123.69" fill="none"/>
    </clipPath>
  </defs>
  <g id="Group_9693" data-name="Group 9693" transform="translate(-9.77 -1.903)">
    <g id="Group_9776" data-name="Group 9776" transform="translate(9.77 1.903)">
      <g id="Group_9717" data-name="Group 9717" transform="translate(46.901 51.768)">
        <g id="Group_9716" data-name="Group 9716" clip-path="url(#clip-path)">
          <path id="Path_16830" data-name="Path 16830" d="M110.776,158.429V136.623h36.17V32.4h9.971V136.623h38.96v21.806h20.867v436.99H66.25V158.429Z" transform="translate(45.705 1.607)" fill="#c6d0db"/>
          <rect id="Rectangle_8221" data-name="Rectangle 8221" width="20.867" height="393.091" transform="translate(111.955 160.036)" fill="#aab6c2"/>
          <rect id="Rectangle_8222" data-name="Rectangle 8222" width="150.493" height="332.896" transform="translate(187.203 264.13)" fill="#c6d0db"/>
          <rect id="Rectangle_8223" data-name="Rectangle 8223" width="20.867" height="332.896" transform="translate(187.203 264.13)" fill="#aab6c2"/>
          <rect id="Rectangle_8224" data-name="Rectangle 8224" width="21.595" height="8.964" transform="translate(295.102 278.312)" fill="#aab6c2"/>
          <rect id="Rectangle_8225" data-name="Rectangle 8225" width="21.595" height="8.964" transform="translate(258.741 278.312)" fill="#aab6c2"/>
          <rect id="Rectangle_8226" data-name="Rectangle 8226" width="21.595" height="8.964" transform="translate(295.102 310.946)" fill="#aab6c2"/>
          <rect id="Rectangle_8227" data-name="Rectangle 8227" width="21.595" height="8.964" transform="translate(258.741 310.946)" fill="#aab6c2"/>
          <rect id="Rectangle_8228" data-name="Rectangle 8228" width="21.595" height="8.964" transform="translate(222.383 310.946)" fill="#aab6c2"/>
          <rect id="Rectangle_8229" data-name="Rectangle 8229" width="21.595" height="8.964" transform="translate(295.102 343.578)" fill="#aab6c2"/>
          <rect id="Rectangle_8230" data-name="Rectangle 8230" width="21.595" height="8.964" transform="translate(222.383 343.578)" fill="#aab6c2"/>
          <rect id="Rectangle_8231" data-name="Rectangle 8231" width="21.595" height="8.964" transform="translate(258.741 359.896)" fill="#aab6c2"/>
          <rect id="Rectangle_8232" data-name="Rectangle 8232" width="21.595" height="8.964" transform="translate(295.102 376.215)" fill="#aab6c2"/>
          <rect id="Rectangle_8233" data-name="Rectangle 8233" width="21.595" height="8.967" transform="translate(258.741 392.528)" fill="#aab6c2"/>
          <rect id="Rectangle_8234" data-name="Rectangle 8234" width="21.595" height="8.961" transform="translate(295.102 408.849)" fill="#aab6c2"/>
          <rect id="Rectangle_8235" data-name="Rectangle 8235" width="21.595" height="8.961" transform="translate(222.383 408.849)" fill="#aab6c2"/>
          <rect id="Rectangle_8236" data-name="Rectangle 8236" width="21.595" height="8.964" transform="translate(295.102 439.006)" fill="#aab6c2"/>
          <rect id="Rectangle_8237" data-name="Rectangle 8237" width="21.595" height="8.964" transform="translate(258.741 439.006)" fill="#aab6c2"/>
          <rect id="Rectangle_8238" data-name="Rectangle 8238" width="21.595" height="8.964" transform="translate(295.102 471.638)" fill="#aab6c2"/>
          <rect id="Rectangle_8239" data-name="Rectangle 8239" width="21.595" height="8.964" transform="translate(258.741 471.638)" fill="#aab6c2"/>
          <rect id="Rectangle_8240" data-name="Rectangle 8240" width="21.595" height="8.964" transform="translate(222.383 471.638)" fill="#aab6c2"/>
          <rect id="Rectangle_8241" data-name="Rectangle 8241" width="21.595" height="8.964" transform="translate(295.102 504.275)" fill="#aab6c2"/>
          <rect id="Rectangle_8242" data-name="Rectangle 8242" width="21.595" height="8.964" transform="translate(222.383 504.275)" fill="#aab6c2"/>
          <rect id="Rectangle_8243" data-name="Rectangle 8243" width="21.595" height="8.964" transform="translate(258.741 520.591)" fill="#aab6c2"/>
          <rect id="Rectangle_8244" data-name="Rectangle 8244" width="21.595" height="8.964" transform="translate(222.383 520.591)" fill="#aab6c2"/>
          <rect id="Rectangle_8245" data-name="Rectangle 8245" width="21.595" height="8.964" transform="translate(295.102 536.91)" fill="#aab6c2"/>
          <rect id="Rectangle_8246" data-name="Rectangle 8246" width="21.595" height="8.961" transform="translate(258.741 553.228)" fill="#aab6c2"/>
          <rect id="Rectangle_8247" data-name="Rectangle 8247" width="21.595" height="8.967" transform="translate(295.102 569.541)" fill="#aab6c2"/>
          <rect id="Rectangle_8248" data-name="Rectangle 8248" width="21.595" height="8.967" transform="translate(222.383 569.541)" fill="#aab6c2"/>
          <rect id="Rectangle_8249" data-name="Rectangle 8249" width="150.493" height="332.893" transform="translate(547.288 264.13)" fill="#c6d0db"/>
          <rect id="Rectangle_8250" data-name="Rectangle 8250" width="20.867" height="332.893" transform="translate(547.288 264.13)" fill="#aab6c2"/>
          <rect id="Rectangle_8251" data-name="Rectangle 8251" width="201.922" height="491.236" transform="translate(333.506 105.79)" fill="#c6d0db"/>
          <rect id="Rectangle_8252" data-name="Rectangle 8252" width="20.867" height="491.236" transform="translate(333.506 105.79)" fill="#aab6c2"/>
          <rect id="Rectangle_8253" data-name="Rectangle 8253" width="31.535" height="13.087" transform="translate(482.624 129.32)" fill="#aab6c2"/>
          <rect id="Rectangle_8254" data-name="Rectangle 8254" width="31.535" height="13.087" transform="translate(429.527 129.32)" fill="#aab6c2"/>
          <rect id="Rectangle_8255" data-name="Rectangle 8255" width="31.535" height="13.09" transform="translate(482.624 176.974)" fill="#aab6c2"/>
          <rect id="Rectangle_8256" data-name="Rectangle 8256" width="31.535" height="13.09" transform="translate(429.527 176.974)" fill="#aab6c2"/>
          <rect id="Rectangle_8257" data-name="Rectangle 8257" width="31.535" height="13.09" transform="translate(376.434 176.974)" fill="#aab6c2"/>
          <rect id="Rectangle_8258" data-name="Rectangle 8258" width="31.535" height="13.087" transform="translate(482.624 224.63)" fill="#aab6c2"/>
          <rect id="Rectangle_8259" data-name="Rectangle 8259" width="31.535" height="13.087" transform="translate(376.434 224.63)" fill="#aab6c2"/>
          <rect id="Rectangle_8260" data-name="Rectangle 8260" width="31.535" height="13.087" transform="translate(429.527 248.459)" fill="#aab6c2"/>
          <rect id="Rectangle_8261" data-name="Rectangle 8261" width="31.535" height="13.09" transform="translate(482.624 272.284)" fill="#aab6c2"/>
          <rect id="Rectangle_8262" data-name="Rectangle 8262" width="31.535" height="13.09" transform="translate(429.527 296.11)" fill="#aab6c2"/>
          <rect id="Rectangle_8263" data-name="Rectangle 8263" width="31.535" height="13.087" transform="translate(482.624 319.941)" fill="#aab6c2"/>
          <rect id="Rectangle_8264" data-name="Rectangle 8264" width="31.535" height="13.087" transform="translate(376.434 319.941)" fill="#aab6c2"/>
          <rect id="Rectangle_8265" data-name="Rectangle 8265" width="31.535" height="13.087" transform="translate(482.624 363.98)" fill="#aab6c2"/>
          <rect id="Rectangle_8266" data-name="Rectangle 8266" width="31.535" height="13.087" transform="translate(429.527 363.98)" fill="#aab6c2"/>
          <rect id="Rectangle_8267" data-name="Rectangle 8267" width="31.535" height="13.087" transform="translate(482.624 411.634)" fill="#aab6c2"/>
          <rect id="Rectangle_8268" data-name="Rectangle 8268" width="31.535" height="13.087" transform="translate(429.527 411.634)" fill="#aab6c2"/>
          <rect id="Rectangle_8269" data-name="Rectangle 8269" width="31.535" height="13.087" transform="translate(376.434 411.634)" fill="#aab6c2"/>
          <rect id="Rectangle_8270" data-name="Rectangle 8270" width="31.535" height="13.087" transform="translate(482.624 459.291)" fill="#aab6c2"/>
          <rect id="Rectangle_8271" data-name="Rectangle 8271" width="31.535" height="13.087" transform="translate(376.434 459.291)" fill="#aab6c2"/>
          <rect id="Rectangle_8272" data-name="Rectangle 8272" width="31.535" height="13.087" transform="translate(429.527 483.116)" fill="#aab6c2"/>
          <rect id="Rectangle_8273" data-name="Rectangle 8273" width="31.535" height="13.087" transform="translate(376.434 483.116)" fill="#aab6c2"/>
          <rect id="Rectangle_8274" data-name="Rectangle 8274" width="31.535" height="13.087" transform="translate(482.624 506.944)" fill="#aab6c2"/>
          <rect id="Rectangle_8275" data-name="Rectangle 8275" width="31.535" height="13.09" transform="translate(429.527 530.773)" fill="#aab6c2"/>
          <rect id="Rectangle_8276" data-name="Rectangle 8276" width="31.535" height="13.09" transform="translate(482.624 554.598)" fill="#aab6c2"/>
          <rect id="Rectangle_8277" data-name="Rectangle 8277" width="31.535" height="13.09" transform="translate(376.434 554.598)" fill="#aab6c2"/>
          <rect id="Rectangle_8278" data-name="Rectangle 8278" width="197.905" height="454.619" transform="translate(650.971 142.407)" fill="#c6d0db"/>
          <rect id="Rectangle_8279" data-name="Rectangle 8279" width="20.45" height="454.619" transform="translate(650.971 142.407)" fill="#aab6c2"/>
          <rect id="Rectangle_8280" data-name="Rectangle 8280" width="30.908" height="12.114" transform="translate(693.042 208.284)" fill="#aab6c2"/>
          <rect id="Rectangle_8281" data-name="Rectangle 8281" width="30.908" height="12.114" transform="translate(693.042 252.385)" fill="#aab6c2"/>
          <rect id="Rectangle_8282" data-name="Rectangle 8282" width="30.908" height="12.114" transform="translate(693.042 340.594)" fill="#aab6c2"/>
          <rect id="Rectangle_8283" data-name="Rectangle 8283" width="30.908" height="12.114" transform="translate(693.042 425.452)" fill="#aab6c2"/>
          <rect id="Rectangle_8284" data-name="Rectangle 8284" width="30.908" height="12.114" transform="translate(693.042 469.554)" fill="#aab6c2"/>
          <rect id="Rectangle_8285" data-name="Rectangle 8285" width="30.908" height="12.114" transform="translate(693.042 491.604)" fill="#aab6c2"/>
          <rect id="Rectangle_8286" data-name="Rectangle 8286" width="30.908" height="12.117" transform="translate(693.042 557.759)" fill="#aab6c2"/>
          <rect id="Rectangle_8287" data-name="Rectangle 8287" width="127.458" height="310.083" transform="translate(11.396 286.943)" fill="#c6d0db"/>
          <rect id="Rectangle_8288" data-name="Rectangle 8288" width="13.174" height="310.083" transform="translate(11.396 286.943)" fill="#aab6c2"/>
          <rect id="Rectangle_8289" data-name="Rectangle 8289" width="19.908" height="8.261" transform="translate(105.523 301.794)" fill="#aab6c2"/>
          <rect id="Rectangle_8290" data-name="Rectangle 8290" width="19.908" height="8.261" transform="translate(72.008 301.794)" fill="#aab6c2"/>
          <rect id="Rectangle_8291" data-name="Rectangle 8291" width="19.908" height="8.263" transform="translate(105.523 331.875)" fill="#aab6c2"/>
          <rect id="Rectangle_8292" data-name="Rectangle 8292" width="19.908" height="8.263" transform="translate(72.008 331.875)" fill="#aab6c2"/>
          <rect id="Rectangle_8293" data-name="Rectangle 8293" width="19.908" height="8.263" transform="translate(38.493 331.875)" fill="#aab6c2"/>
          <rect id="Rectangle_8294" data-name="Rectangle 8294" width="19.908" height="8.263" transform="translate(105.523 361.955)" fill="#aab6c2"/>
          <rect id="Rectangle_8295" data-name="Rectangle 8295" width="19.908" height="8.263" transform="translate(38.493 361.955)" fill="#aab6c2"/>
          <rect id="Rectangle_8296" data-name="Rectangle 8296" width="19.908" height="8.263" transform="translate(72.008 376.997)" fill="#aab6c2"/>
          <rect id="Rectangle_8297" data-name="Rectangle 8297" width="19.908" height="8.263" transform="translate(105.523 392.039)" fill="#aab6c2"/>
          <rect id="Rectangle_8298" data-name="Rectangle 8298" width="19.908" height="8.263" transform="translate(72.008 407.078)" fill="#aab6c2"/>
          <rect id="Rectangle_8299" data-name="Rectangle 8299" width="19.908" height="8.263" transform="translate(105.523 422.119)" fill="#aab6c2"/>
          <rect id="Rectangle_8300" data-name="Rectangle 8300" width="19.908" height="8.263" transform="translate(38.493 422.119)" fill="#aab6c2"/>
          <rect id="Rectangle_8301" data-name="Rectangle 8301" width="19.908" height="8.261" transform="translate(105.523 449.919)" fill="#aab6c2"/>
          <rect id="Rectangle_8302" data-name="Rectangle 8302" width="19.908" height="8.261" transform="translate(72.008 449.919)" fill="#aab6c2"/>
          <rect id="Rectangle_8303" data-name="Rectangle 8303" width="19.908" height="8.263" transform="translate(105.523 479.997)" fill="#aab6c2"/>
          <rect id="Rectangle_8304" data-name="Rectangle 8304" width="19.908" height="8.263" transform="translate(72.008 479.997)" fill="#aab6c2"/>
          <rect id="Rectangle_8305" data-name="Rectangle 8305" width="19.908" height="8.263" transform="translate(38.493 479.997)" fill="#aab6c2"/>
          <rect id="Rectangle_8306" data-name="Rectangle 8306" width="19.908" height="8.261" transform="translate(105.523 510.08)" fill="#aab6c2"/>
          <rect id="Rectangle_8307" data-name="Rectangle 8307" width="19.908" height="8.261" transform="translate(38.493 510.08)" fill="#aab6c2"/>
          <rect id="Rectangle_8308" data-name="Rectangle 8308" width="19.908" height="8.263" transform="translate(72.008 525.119)" fill="#aab6c2"/>
          <rect id="Rectangle_8309" data-name="Rectangle 8309" width="19.908" height="8.263" transform="translate(38.493 525.119)" fill="#aab6c2"/>
          <rect id="Rectangle_8310" data-name="Rectangle 8310" width="19.908" height="8.263" transform="translate(105.523 540.161)" fill="#aab6c2"/>
          <rect id="Rectangle_8311" data-name="Rectangle 8311" width="19.908" height="8.263" transform="translate(72.008 555.2)" fill="#aab6c2"/>
          <rect id="Rectangle_8312" data-name="Rectangle 8312" width="19.908" height="8.263" transform="translate(105.523 570.244)" fill="#aab6c2"/>
          <rect id="Rectangle_8313" data-name="Rectangle 8313" width="19.908" height="8.263" transform="translate(38.493 570.244)" fill="#aab6c2"/>
          <g id="Group_9697" data-name="Group 9697" transform="translate(-68.47 -44.931)" opacity="0.35">
            <g id="Group_9696" data-name="Group 9696" transform="translate(0 0)">
              <g id="Group_9695" data-name="Group 9695" clip-path="url(#clip-path-2)">
                <rect id="Rectangle_8314" data-name="Rectangle 8314" width="540.167" height="615.884" transform="translate(0 -0.003)" fill="#fff"/>
              </g>
            </g>
          </g>
          <g id="Group_9700" data-name="Group 9700" transform="translate(75.573 -37.886)" opacity="0.5">
            <g id="Group_9699" data-name="Group 9699" transform="translate(0 0)">
              <g id="Group_9698" data-name="Group 9698" clip-path="url(#clip-path-3)">
                <path id="Path_16831" data-name="Path 16831" d="M95.236,604.554H53.315L278.049,6.839h41.924Z" transform="translate(-53.314 -6.838)" fill="#fff"/>
              </g>
            </g>
          </g>
          <g id="Group_9703" data-name="Group 9703" transform="translate(22.508 -37.886)" opacity="0.5">
            <g id="Group_9702" data-name="Group 9702" transform="translate(0 0)">
              <g id="Group_9701" data-name="Group 9701" clip-path="url(#clip-path-4)">
                <path id="Path_16832" data-name="Path 16832" d="M55.41,604.554H34.448L259.185,6.839h20.959Z" transform="translate(-34.448 -6.838)" fill="#fff"/>
              </g>
            </g>
          </g>
          <g id="Group_9706" data-name="Group 9706" transform="translate(272.799 26.286)" opacity="0.5">
            <g id="Group_9705" data-name="Group 9705">
              <g id="Group_9704" data-name="Group 9704" clip-path="url(#clip-path-5)">
                <path id="Path_16833" data-name="Path 16833" d="M144.4,563.2H123.437L316.113,29.655V72.64Z" transform="translate(-123.438 -29.654)" fill="#fff"/>
              </g>
            </g>
          </g>
          <g id="Group_9709" data-name="Group 9709" transform="translate(474.54 -57.121)" opacity="0.35">
            <g id="Group_9708" data-name="Group 9708">
              <g id="Group_9707" data-name="Group 9707" clip-path="url(#clip-path-6)">
                <rect id="Rectangle_8319" data-name="Rectangle 8319" width="540.167" height="615.884" transform="translate(-0.003)" fill="#fff"/>
              </g>
            </g>
          </g>
          <g id="Group_9712" data-name="Group 9712" transform="translate(521.949 -37.886)" opacity="0.5">
            <g id="Group_9711" data-name="Group 9711" transform="translate(0 0)">
              <g id="Group_9710" data-name="Group 9710" clip-path="url(#clip-path-7)">
                <path id="Path_16834" data-name="Path 16834" d="M253.943,604.554H212.021L436.756,6.839h41.922Z" transform="translate(-212.02 -6.838)" fill="#fff"/>
              </g>
            </g>
          </g>
          <g id="Group_9715" data-name="Group 9715" transform="translate(468.884 -37.886)" opacity="0.5">
            <g id="Group_9714" data-name="Group 9714" transform="translate(0 0)">
              <g id="Group_9713" data-name="Group 9713" clip-path="url(#clip-path-4)">
                <path id="Path_16835" data-name="Path 16835" d="M214.116,604.554H193.154L417.891,6.839h20.959Z" transform="translate(-193.154 -6.838)" fill="#fff"/>
              </g>
            </g>
          </g>
          <path id="Path_16836" data-name="Path 16836" d="M1111.612,119.965V112.92h-19.4V1.831h0v0H0V15.922H11.768V20.9H360.113V112.92H0v7.046H360.113V300.832H0v7.046H360.113V488.741H0v7.048H360.113V613.637H11.878v4.075H0v16.3H1092.205v-1.308h0V495.789h19.4v-7.048h-19.4V307.877h19.4v-7.046h-19.4V119.965ZM552.036,307.877H720.274V488.741H552.036Zm0-187.912H720.274V300.829H552.036Zm0-99.068H720.274V112.92H552.036Zm0,474.892H720.276V613.637H552.095v4.075h-.059Zm180.059,0H900.333V613.637H732.095Zm0-187.912H900.333V488.741H732.095Zm0-187.912H900.333V300.829H732.095Zm0-99.068H900.333V112.92H732.095Zm180.054,0h168.238V112.92H912.149Zm-540.217,0H540.169V112.92H371.931Zm0,99.068H540.169V300.829H371.931Zm0,187.912H540.169V488.741H371.931Zm0,187.912H540.169V617.712h-.062v-4.075H371.931Zm708.455,121.923h-.062v-4.075H912.149V495.789h168.238Zm0-128.971H912.149V307.877h168.238Zm0-187.909H912.149V119.968h168.238Z" transform="translate(-74.379 -53.807)" fill="#fff"/>
        </g>
      </g>
      <g id="Group_9773" data-name="Group 9773">
        <g id="Group_9777" data-name="Group 9777">
          <path id="Path_16987" data-name="Path 16987" d="M232.562,59.474c-9.917,50.036,7.47,143.3,105.272,175.227s63.84-44.827,0-107.312S247.5-15.915,232.562,59.474" transform="translate(-163.42 511.232) rotate(-20)" fill="#e6ebf0"/>
          <path id="Path_16838" data-name="Path 16838" d="M59.995,379.267a10.517,10.517,0,0,1-10.5-10.513V55.873a13.619,13.619,0,0,1,13.6-13.613H492.6a13.62,13.62,0,0,1,13.613,13.6v312.9A10.528,10.528,0,0,1,495.7,379.267Z" transform="translate(62.242 71.247)" fill="#fff"/>
          <path id="Path_16839" data-name="Path 16839" d="M493.042,43.395A12.931,12.931,0,0,1,505.969,56.3V369.2a9.84,9.84,0,0,1-9.827,9.827H60.443a9.831,9.831,0,0,1-9.81-9.827V56.319a12.931,12.931,0,0,1,12.91-12.924Zm0-1.381H63.543a14.3,14.3,0,0,0-14.291,14.3V369.2A11.2,11.2,0,0,0,60.443,380.4h435.7A11.214,11.214,0,0,0,507.347,369.2V56.3a14.3,14.3,0,0,0-14.3-14.288" transform="translate(61.796 70.801)"/>
          <path id="Path_16840" data-name="Path 16840" d="M507.345,91.267H49.25V56.315a14.3,14.3,0,0,1,14.3-14.3h429.5a14.3,14.3,0,0,1,14.3,14.3Z" transform="translate(61.792 70.799)"/>
          <path id="Path_16841" data-name="Path 16841" d="M77.264,55.643a7.564,7.564,0,1,1,7.563,7.563,7.563,7.563,0,0,1-7.563-7.563" transform="translate(112.57 81.796)" fill="#aab6c2"/>
          <path id="Path_16842" data-name="Path 16842" d="M66.914,55.643a7.564,7.564,0,1,1,7.566,7.563,7.564,7.564,0,0,1-7.566-7.563" transform="translate(93.81 81.796)" fill="#f40"/>
          <path id="Path_16843" data-name="Path 16843" d="M63.684,62.073A6.874,6.874,0,1,1,70.558,55.2a6.88,6.88,0,0,1-6.874,6.874" transform="translate(75.495 82.24)" fill="#fff"/>
          <path id="Path_16844" data-name="Path 16844" d="M64.13,49.46a6.183,6.183,0,1,1-6.185,6.182A6.191,6.191,0,0,1,64.13,49.46m0-1.381A7.564,7.564,0,1,0,71.7,55.642a7.564,7.564,0,0,0-7.566-7.563" transform="translate(75.049 81.795)"/>
          <g id="Group_9720" data-name="Group 9720" transform="translate(183.733 246.945)" opacity="0.54">
            <g id="Group_9719" data-name="Group 9719">
              <g id="Group_9718" data-name="Group 9718" clip-path="url(#clip-path-9)">
                <path id="Path_16845" data-name="Path 16845" d="M155.476,280.113l25.707.616,5.141-18.943a77.684,77.684,0,0,0,24.143-9.332l16.544,10.564,18.611-17.745-9.76-17.03a77.629,77.629,0,0,0,10.477-23.668l19.162-4.23.616-25.707-18.94-5.139a77.7,77.7,0,0,0-9.332-24.143l10.561-16.544L230.665,110.2l-17.03,9.76a77.669,77.669,0,0,0-23.671-10.474l-4.227-19.165L160.03,89.7l-5.141,18.94a77.663,77.663,0,0,0-24.143,9.335L114.2,107.414,95.59,125.156l9.76,17.03a77.607,77.607,0,0,0-10.477,23.671l-19.165,4.23L75.1,195.794l18.94,5.139a77.657,77.657,0,0,0,9.332,24.143L92.806,241.619l17.742,18.614,17.027-9.76a77.7,77.7,0,0,0,23.671,10.474Zm-33.09-96.05a48.234,48.234,0,1,1,47.069,49.375,48.235,48.235,0,0,1-47.069-49.375" transform="translate(-75.095 -89.703)" fill="#bf7d56"/>
              </g>
            </g>
          </g>
          <g id="Group_9723" data-name="Group 9723" transform="translate(237.281 283.509)" opacity="0.39">
            <g id="Group_9722" data-name="Group 9722">
              <g id="Group_9721" data-name="Group 9721" clip-path="url(#clip-path-10)">
                <path id="Path_16846" data-name="Path 16846" d="M137.25,113.43a48.061,48.061,0,0,1,45.229,61.284,48.213,48.213,0,1,0-88.346-36.839A48.216,48.216,0,0,1,137.25,113.43" transform="translate(-94.134 -102.703)" fill="#c65000"/>
              </g>
            </g>
          </g>
          <g id="Group_9726" data-name="Group 9726" transform="translate(296.583 398.31)" opacity="0.3">
            <g id="Group_9725" data-name="Group 9725">
              <g id="Group_9724" data-name="Group 9724" clip-path="url(#clip-path-11)">
                <path id="Path_16847" data-name="Path 16847" d="M158.7,154.753l-16.544-10.561a77.8,77.8,0,0,1-24.143,9.332l-2.8,10.311a77.74,77.74,0,0,0,22.523-8.93l16.544,10.561L172.9,147.722l-2.41-4.2Z" transform="translate(-115.22 -143.52)" fill="#c65000"/>
              </g>
            </g>
          </g>
          <g id="Group_9729" data-name="Group 9729" transform="translate(201.444 389.67)" opacity="0.3">
            <g id="Group_9728" data-name="Group 9728">
              <g id="Group_9727" data-name="Group 9727" clip-path="url(#clip-path-12)">
                <path id="Path_16848" data-name="Path 16848" d="M172.689,178l-24.208-.579-4.227-19.165a77.668,77.668,0,0,1-23.671-10.474l-17.03,9.76L87.262,140.447l-5.87,9.192,17.745,18.614,17.027-9.76a77.741,77.741,0,0,0,23.671,10.477l4.23,19.162,25.707.616Z" transform="translate(-81.392 -140.45)" fill="#c65000"/>
              </g>
            </g>
          </g>
          <g id="Group_9732" data-name="Group 9732" transform="translate(183.733 326.403)" opacity="0.3">
            <g id="Group_9731" data-name="Group 9731">
              <g id="Group_9730" data-name="Group 9730" clip-path="url(#clip-path-13)">
                <path id="Path_16849" data-name="Path 16849" d="M107.786,163.155a77.683,77.683,0,0,1-9.332-24.143l-18.94-5.141.38-15.916-4.182.923L75.1,144.584l18.94,5.141a77.64,77.64,0,0,0,8.224,22.087Z" transform="translate(-75.095 -117.954)" fill="#c65000"/>
              </g>
            </g>
          </g>
          <path id="Path_16850" data-name="Path 16850" d="M96.56,112.819,89.211,99.994,82.382,106.5l9.02,15.736a77.794,77.794,0,0,1,5.158-9.419" transform="translate(121.847 175.895)" fill="#c98c5d"/>
          <g id="Group_9735" data-name="Group 9735" transform="translate(355.74 347.796)" opacity="0.3">
            <g id="Group_9734" data-name="Group 9734">
              <g id="Group_9733" data-name="Group 9733" clip-path="url(#clip-path-14)">
                <path id="Path_16851" data-name="Path 16851" d="M139.906,128.866a77.405,77.405,0,0,1-3.654,10.544l18.4-4.061.236-9.788Z" transform="translate(-136.249 -125.558)" fill="#c65000"/>
              </g>
            </g>
          </g>
          <g id="Group_9738" data-name="Group 9738" transform="translate(252.871 316.081)" opacity="0.66">
            <g id="Group_9737" data-name="Group 9737">
              <g id="Group_9736" data-name="Group 9736" clip-path="url(#clip-path-15)">
                <path id="Path_16852" data-name="Path 16852" d="M130.594,166.659a26.393,26.393,0,1,1,21.589-22.4,26.4,26.4,0,0,1-21.589,22.4" transform="translate(-99.676 -114.282)" fill="#bf7d56"/>
              </g>
            </g>
          </g>
          <g id="Group_9741" data-name="Group 9741" transform="translate(252.871 331.373)" opacity="0.3">
            <g id="Group_9740" data-name="Group 9740">
              <g id="Group_9739" data-name="Group 9739" clip-path="url(#clip-path-16)">
                <path id="Path_16853" data-name="Path 16853" d="M151.8,136.585a27.1,27.1,0,0,0,.444-8.376,26.311,26.311,0,0,1-50.092-8.488,25.249,25.249,0,0,0-1.859,5.3,26.394,26.394,0,0,0,51.507,11.56" transform="translate(-99.677 -119.721)" fill="#c65000"/>
              </g>
            </g>
          </g>
          <g id="Group_9744" data-name="Group 9744" transform="translate(336.409 178.425)" opacity="0.55">
            <g id="Group_9743" data-name="Group 9743">
              <g id="Group_9742" data-name="Group 9742" clip-path="url(#clip-path-17)">
                <path id="Path_16854" data-name="Path 16854" d="M192.965,202.109l18.307-1.178,2.464-13.782A55.4,55.4,0,0,0,230.3,179l12.42,6.466,12.111-13.776-8-11.487a55.388,55.388,0,0,0,5.96-17.477l13.354-4.208-1.179-18.307-13.782-2.464a55.463,55.463,0,0,0-8.145-16.569l6.466-12.42L235.73,76.65l-11.487,8a55.457,55.457,0,0,0-17.477-5.96l-4.208-13.354-18.307,1.178L181.788,80.3a55.464,55.464,0,0,0-16.569,8.145L152.8,81.98,140.687,95.756l8,11.487a55.479,55.479,0,0,0-5.96,17.477l-13.354,4.208,1.178,18.307,13.782,2.464a55.4,55.4,0,0,0,8.145,16.569l-6.466,12.42L159.793,190.8l11.487-8a55.451,55.451,0,0,0,17.477,5.957Zm-29.541-66.177a34.408,34.408,0,1,1,36.544,32.131,34.41,34.41,0,0,1-36.544-32.131" transform="translate(-129.378 -65.341)" fill="#dab299"/>
              </g>
            </g>
          </g>
          <g id="Group_9747" data-name="Group 9747" transform="translate(373.482 204.509)" opacity="0.38">
            <g id="Group_9746" data-name="Group 9746">
              <g id="Group_9745" data-name="Group 9745" clip-path="url(#clip-path-18)">
                <path id="Path_16855" data-name="Path 16855" d="M171.664,82.574a34.287,34.287,0,0,1,35.984,40.712,34.393,34.393,0,1,0-65.089-20.636,34.4,34.4,0,0,1,29.1-20.076" transform="translate(-142.559 -74.615)" fill="#bf7d56"/>
              </g>
            </g>
          </g>
          <g id="Group_9750" data-name="Group 9750" transform="translate(421.892 281.939)" opacity="0.38">
            <g id="Group_9749" data-name="Group 9749">
              <g id="Group_9748" data-name="Group 9748" clip-path="url(#clip-path-19)">
                <path id="Path_16856" data-name="Path 16856" d="M190.1,110.867,177.683,104.4a55.4,55.4,0,0,1-16.569,8.148l-1.342,7.5a55.373,55.373,0,0,0,15.444-7.757l12.418,6.469,12.114-13.779-1.977-2.835Z" transform="translate(-159.769 -102.145)" fill="#bf7d56"/>
              </g>
            </g>
          </g>
          <g id="Group_9756" data-name="Group 9756" transform="translate(353.049 284.87)" opacity="0.38">
            <g id="Group_9755" data-name="Group 9755">
              <g id="Group_9754" data-name="Group 9754" clip-path="url(#clip-path-20)">
                <g id="Group_9753" data-name="Group 9753" opacity="0.53">
                  <g id="Group_9752" data-name="Group 9752">
                    <g id="Group_9751" data-name="Group 9751" clip-path="url(#clip-path-20)">
                      <path id="Path_16857" data-name="Path 16857" d="M201.947,124.509l-17.238,1.108L180.5,112.263a55.435,55.435,0,0,1-17.475-5.957l-11.489,8-12.651-11.124-3.592,6.9L149.07,122.2l11.487-8a55.48,55.48,0,0,0,17.477,5.96l4.208,13.351,18.307-1.176Z" transform="translate(-135.294 -103.187)" fill="#bf7d56"/>
                    </g>
                  </g>
                </g>
              </g>
            </g>
          </g>
          <g id="Group_9759" data-name="Group 9759" transform="translate(336.409 241.092)" opacity="0.38">
            <g id="Group_9758" data-name="Group 9758">
              <g id="Group_9757" data-name="Group 9757" clip-path="url(#clip-path-22)">
                <path id="Path_16858" data-name="Path 16858" d="M154.95,117.991a55.453,55.453,0,0,1-8.148-16.572L133.02,98.955l-.729-11.332-2.914.917,1.176,18.307,13.782,2.464a55.425,55.425,0,0,0,7.228,15.177Z" transform="translate(-129.378 -87.62)" fill="#bf7d56"/>
              </g>
            </g>
          </g>
          <g id="Group_9762" data-name="Group 9762" transform="translate(347.719 203.783)" opacity="0.38">
            <g id="Group_9761" data-name="Group 9761">
              <g id="Group_9760" data-name="Group 9760" clip-path="url(#clip-path-23)">
                <path id="Path_16859" data-name="Path 16859" d="M143.868,83.009l-6.027-8.652L133.4,79.411l7.394,10.615a55.334,55.334,0,0,1,3.074-7.017" transform="translate(-133.397 -74.357)" fill="#bf7d56"/>
              </g>
            </g>
          </g>
          <path id="Path_16860" data-name="Path 16860" d="M175.381,92.171a55.2,55.2,0,0,1-1.935,7.723l12.82-4.042-.447-6.972Z" transform="translate(286.909 155.75)" fill="#c98c5d"/>
          <g id="Group_9765" data-name="Group 9765" transform="translate(385.978 227.991)" opacity="0.5">
            <g id="Group_9764" data-name="Group 9764">
              <g id="Group_9763" data-name="Group 9763" clip-path="url(#clip-path-24)">
                <path id="Path_16861" data-name="Path 16861" d="M174.678,118.5c-15.694,7.557-31.881-6.536-26.686-23.032a17.521,17.521,0,0,1,8.967-10.409c15.689-7.555,31.878,6.539,26.683,23.035a17.53,17.53,0,0,1-8.964,10.407" transform="translate(-147.002 -82.963)" fill="#dab299"/>
              </g>
            </g>
          </g>
          <g id="Group_9768" data-name="Group 9768" transform="translate(385.978 240.431)" opacity="0.38">
            <g id="Group_9767" data-name="Group 9767">
              <g id="Group_9766" data-name="Group 9766" clip-path="url(#clip-path-25)">
                <path id="Path_16862" data-name="Path 16862" d="M184.48,96.255a19.3,19.3,0,0,0-.211-5.98,18.769,18.769,0,0,1-36.128-2.889,17.914,17.914,0,0,0-.987,3.887,18.828,18.828,0,0,0,37.326,4.981" transform="translate(-147.002 -87.387)" fill="#bf7d56"/>
              </g>
            </g>
          </g>
          <path id="Path_16863" data-name="Path 16863" d="M99.435,202.657a28.047,28.047,0,0,0,15.967-5.262,136.432,136.432,0,0,1-2.377,29.33c-6.272,10.117-23.674,28.719-22.5,28.61a56.31,56.31,0,0,0,13.973-3.257,104.019,104.019,0,0,1-10.643,17.4c-8.443,11.264-20.473,20.27-25.043,34.016a.878.878,0,0,1-.526.6,1,1,0,0,1-1.654.726c-22.709-21.567-26.773-54.328-30.1-83.874-.16-1.4-.321-2.779-.447-4.185,6.286,6.292,12.983,12.049,20.937,16.344,1.1.6-14.226-23.921-21.724-35.219a66.251,66.251,0,0,1,3.91-20.979c5.316-14.24,14.426-27.569,23.274-39.832.357-.5.768-.99,1.125-1.491a67.963,67.963,0,0,0,9.774,17.7c.726.953-1.614-17.927-3.052-26.551,2.222-2.754,4.444-5.515,6.756-8.179,3.029-3.569,6.764-9.625,12.2-8.815,5.279.745,17.3,22.357,18.827,28.542.661,2.638,1.246,5.333,1.783,8.038.262,1.156.475,2.348.683,3.51a325.739,325.739,0,0,1,4.047,32.9c-.371.582-.745,1.167-1.173,1.733-4.416,6-15.1,18.186-14.015,18.192" transform="translate(36.49 193.428)" fill="#aab6c2"/>
          <path id="Path_16864" data-name="Path 16864" d="M64.75,173.644c11.2-1.693,19.77-8.775,28-16.077,1.226-1.094-.293-3.161-1.533-2.056-7.709,6.84-15.742,13.681-26.194,15.458,2.379-16.684,5.155-33.315,8.432-49.862.326-1.626-2.216-2.019-2.537-.4q-6.51,32.895-10.626,66.158A109.8,109.8,0,0,1,45.461,157.05c-.506-1.567-2.889-.613-2.388.959a112.355,112.355,0,0,0,15.919,31.484,1.135,1.135,0,0,0,.925.506q-.878,7.269-1.645,14.552a69.146,69.146,0,0,1-11.006-19.263,1.284,1.284,0,0,0-2.382.956,71.265,71.265,0,0,0,12.508,21.362,1.3,1.3,0,0,0,.529.366q-2.464,23.967-3.729,48.036a1.4,1.4,0,0,0-.155.554q-.51,8.813-.608,17.6-.19,5.738-.315,11.481a1.037,1.037,0,0,0,.374.869C54.149,322.658,59.5,358.42,67.11,393.8c.833-.2,1.668-.388,2.495-.585-8.59-39.987-14.3-80.451-13.56-121.434q.232-6.489.548-12.972a1.2,1.2,0,0,0,1.142-.146,42.653,42.653,0,0,0,11.734-12.013c.9-1.373-1.1-2.981-2-1.6a40.855,40.855,0,0,1-10.744,11.155q2.139-41.438,7.92-82.572c.037-.006.065.011.107.006" transform="translate(50.472 211.565)"/>
          <path id="Path_16865" data-name="Path 16865" d="M35.894,212.959a27.858,27.858,0,0,1-15.1,1.294,97.484,97.484,0,0,0,10.544,21.263C39.6,241.051,59.8,249.3,58.774,249.61a57.207,57.207,0,0,1-12.823,2.149,82.669,82.669,0,0,0,14.1,9.571c10.452,5.684,23.294,8.5,31.175,17.32a.722.722,0,0,0,.622.281.927.927,0,0,0,1.612.006c13.045-23.674,6.972-49.628,1.223-72.919-.27-1.108-.543-2.188-.835-3.291A82.507,82.507,0,0,1,80.8,221.889c-.768.807,5.136-22.653,8.23-33.6a47.982,47.982,0,0,0-9.417-14.474c-8.657-8.955-20.282-15.973-31.363-22.276-.447-.264-.937-.5-1.389-.757A53.166,53.166,0,0,1,43.7,167.294c-.34.953-3.842-14-5.125-20.951-2.692-1.339-5.375-2.68-8.114-3.921-3.611-1.69-8.545-5.009-12.935-2.616-4.272,2.3-8.213,22.487-7.712,27.631.208,2.2.489,4.421.818,6.632.118.953.284,1.918.444,2.863A232.62,232.62,0,0,0,17.19,202.98c.489.315.976.636,1.5.917,5.493,3.06,18.124,8.7,17.2,9.062" transform="translate(-9.77 246.539)" fill="#aab6c2"/>
          <path id="Path_16866" data-name="Path 16866" d="M104.985,350.762c-3.819-29.088-9.658-57.714-19.6-85.1a.781.781,0,0,0,.062-.773q-1.763-4.274-3.6-8.522-2.645-6.56-5.636-13.019a.959.959,0,0,0-.287-.363Q67.863,225.318,58.8,208.119a1.13,1.13,0,0,0,.338-.453A56.132,56.132,0,0,0,63.567,187.5c.042-1.353-2.264-1.283-2.3.07a54.3,54.3,0,0,1-3.76,18.091q-2.772-5.219-5.631-10.393a1.073,1.073,0,0,0,.644-.689A86.8,86.8,0,0,0,56.9,165.694c-.025-1.344-2.329-1.28-2.3.067a84.931,84.931,0,0,1-3.949,27.277q-13.192-23.6-28.255-46.214c-.745-1.114-2.784.017-2.039,1.133q11.387,17.032,21.66,34.693c-9.4,2.1-18.22-.4-26.765-3.012-1.37-.413-2.067,1.643-.709,2.053,9.127,2.784,18.459,5.288,28.48,2.877.034-.011.053-.028.084-.039Q59.94,213.5,73.83,243.965a35.033,35.033,0,0,1-12.37-4.846c-1.17-.745-2.4,1.122-1.24,1.859a36.751,36.751,0,0,0,13.467,5.167,1.206,1.206,0,0,0,1.013-.267q2.152,4.763,4.23,9.557c12.547,30.553,19.449,62.836,23.766,95.71.759-.127,1.522-.262,2.289-.383" transform="translate(-2.457 259.949)"/>
          <path id="Path_16867" data-name="Path 16867" d="M30.043,159.247a58.846,58.846,0,0,1-19.967-7.8c.118.953.281,1.918.442,2.86a61.649,61.649,0,0,0,18.8,6.989c1.44.267,2.138-1.772.72-2.05" transform="translate(-9.214 269.16)"/>
          <path id="Path_16868" data-name="Path 16868" d="M171,171.989c-.138,9.242-21.511,13.717-28.3,16.229-15.019,5.56-29.684,11.169-40.8,23.257-13.09,14.251-24.38,30.691-35.678,46.4a2.651,2.651,0,0,1-2.669,1.147c-.169-.006-1.443-2.663-3.111-6.756-3.893-9.594-9.855-27.158-8.373-37.168a60.558,60.558,0,0,1,6.806-19.955,17.992,17.992,0,0,0,4.278,8.449c.54.548,1.7-12.62,2.472-18.6.984-1.209,1.989-2.388,3.049-3.521a65.837,65.837,0,0,1,7.9-7.279c.6-.478,1.2-.959,1.811-1.406a84.728,84.728,0,0,1,7.2-4.773c.65-.388,1.322-.771,2.014-1.156,2.318-1.288,4.725-2.481,7.181-3.558A48.815,48.815,0,0,0,98.76,176.47c.411.88,1.418-10.409,1.567-15.4,2.323-.878,4.689-1.6,7.1-2.289a37.752,37.752,0,0,0,2.948,8.508c.329.65,3.5-6.989,4.655-10.348a92.7,92.7,0,0,1,22.892-1.794c.655.025,1.311.053,1.943.118,2.05.143,4.087.371,6.078.681,7.363,1.145,24.714,5.808,25.055,15.765a1.179,1.179,0,0,1,.006.281" transform="translate(66.49 275.665)" fill="#aab6c2"/>
          <path id="Path_16869" data-name="Path 16869" d="M84.457,185.351c-18.155,17.922-23.8,50.838-24.965,60.187A42.547,42.547,0,0,0,55.76,257.7c-2.163,14.775-1.53,30.362-1.162,45.252.121,4.894.34,9.785.6,14.676.841-.16,1.676-.315,2.52-.47-.16-3.083-.3-6.174-.411-9.259-.453-13.329-.436-26.689.169-40.012.321-6.882.959-13.8,3.623-20.186a2.711,2.711,0,0,0,.81-.751c11.3-15.708,22.594-32.151,35.683-46.4,11.113-12.089,25.777-17.7,40.8-23.26,6.787-2.509,28.16-6.984,28.3-16.226-28.48,3.319-61.329,3.659-82.232,24.287" transform="translate(70.799 286.59)"/>
          <path id="Path_16870" data-name="Path 16870" d="M66.6,179.866a59.055,59.055,0,0,1-.383-20.628c-.695.385-1.364.768-2.014,1.156a60.671,60.671,0,0,0,.565,19.888c.233,1.187,2.045.757,1.831-.416" transform="translate(87.878 283.28)"/>
          <path id="Path_16871" data-name="Path 16871" d="M65.1,179.73a78.308,78.308,0,0,1-2.652-18.383c-.613.447-1.215.925-1.811,1.406a79.179,79.179,0,0,0,2.63,17.4c.309,1.156,2.143.748,1.834-.425" transform="translate(82.432 287.103)"/>
          <path id="Path_16872" data-name="Path 16872" d="M52.742,280.31A65.316,65.316,0,0,1,27.67,213.444a63.253,63.253,0,0,1,3.251-10.438h120.97a65.582,65.582,0,0,1,4.826,24.672,65.2,65.2,0,0,1-26.652,52.632Z" transform="translate(19.832 362.614)" fill="#fff"/>
          <path id="Path_16873" data-name="Path 16873" d="M151.844,205.25a63.092,63.092,0,0,1,2.858,9.369,63.886,63.886,0,0,1-24.208,65.207H54.073A63.96,63.96,0,0,1,29.882,214.6a62.867,62.867,0,0,1,2.841-9.355Zm1.834-2.728H30.889a64.875,64.875,0,0,0-3.67,11.5,66.618,66.618,0,0,0,25.96,68.532h78.21a66.662,66.662,0,0,0,25.971-68.532,64.907,64.907,0,0,0-3.682-11.5" transform="translate(18.951 361.737)"/>
          <path id="Path_16874" data-name="Path 16874" d="M141.2,228.555a66.525,66.525,0,0,1-27.575,54H35.415c102.187,5.071,100.5-80.029,100.5-80.029a64.829,64.829,0,0,1,3.682,11.5,66.3,66.3,0,0,1,1.6,14.533" transform="translate(36.715 361.737)"/>
          <path id="Path_16875" data-name="Path 16875" d="M325.409,89.366h0a4.361,4.361,0,0,1-4.132-5.693A63.307,63.307,0,1,0,199.669,48.468a4.325,4.325,0,0,1-6.719,2.267,40.535,40.535,0,0,0-64.015,33.04c0,1.088.059,2.166.158,3.229a2.176,2.176,0,0,1-2.174,2.363A28.733,28.733,0,0,0,98.185,118.1v6.761a28.734,28.734,0,0,0,28.733,28.733h198.49a28.732,28.732,0,0,0,28.731-28.733V118.1a28.731,28.731,0,0,0-28.731-28.731" transform="translate(150.491 -1.903)" fill="#f88f72"/>
          <path id="Path_16876" data-name="Path 16876" d="M325.409,69.967H126.918A28.706,28.706,0,0,1,98.261,42.7c-.025.487-.076.968-.076,1.46v6.761a28.732,28.732,0,0,0,28.733,28.731h198.49a28.729,28.729,0,0,0,28.731-28.731V44.156c0-.492-.048-.973-.073-1.46a28.706,28.706,0,0,1-28.658,27.271" transform="translate(150.491 72.037)" fill="#eb5932"/>
          <path id="Path_16877" data-name="Path 16877" d="M164.515,57.557a24.871,24.871,0,0,1-17.708-7.318,23.88,23.88,0,0,1-7.2-15.216l-5.98.669-.082.008-.082,0c-.467.014-1.08.039-1.688.113-.129.017-.259.037-.391.053a33.279,33.279,0,0,0,55.552,21.263l-5.853-5.856a24.815,24.815,0,0,1-16.569,6.281" transform="translate(210.669 58.129)" fill="#8a3009"/>
          <path id="Path_16878" data-name="Path 16878" d="M159.593,22.4h0a33.074,33.074,0,0,0-23.539,9.748q-1.11,1.11-2.1,2.3l5.9,5.9a24.687,24.687,0,0,1,19.725-9.67A24.966,24.966,0,0,1,184.58,55.023q4.109-.671,8.23-1.328a33.268,33.268,0,0,0-33.217-31.3" transform="translate(215.324 35.249)" fill="#ed7845"/>
          <path id="Path_16879" data-name="Path 16879" d="M140.085,30.6l-6.072-6.072L130.57,47.814l23.229-3.5-7.822-7.822Z" transform="translate(209.192 39.103)" fill="#ed7845"/>
          <path id="Path_16880" data-name="Path 16880" d="M154.17,48.136l5.856,5.856,5.994,5.994,3.5-23.229L146.233,40.2Z" transform="translate(237.582 61.271)" fill="#8a3009"/>
          <path id="Path_16881" data-name="Path 16881" d="M146.773,213.947c1.367-1.643,16.158-.273,16.307.579.456,2.613,1.153,12.614-.256,13.936-1.367,1.283-14.139,4.07-14.429,1.541-.25-2.191-2.942-14.476-1.623-16.057" transform="translate(237.906 381.051)" fill="#fff"/>
          <path id="Path_16882" data-name="Path 16882" d="M151.629,232.053c4.087,0,10.933-1.657,12.077-2.728,1.817-1.7.742-12.766.444-14.491-.093-.534-.714-.731-1.339-.889-2.7-.672-14.555-1.865-16.127.02-1.01,1.209-.425,5.749,1.007,13.7.233,1.3.419,2.32.475,2.818.048.416.3.979,1.246,1.3a7.256,7.256,0,0,0,2.216.267m11.264-16.777c.585,3.651.878,12.226-.107,13.149-.965.906-10.266,3.091-12.932,2.174-.177-.059-.371-.158-.382-.253-.056-.509-.248-1.558-.487-2.894-.577-3.2-2.107-11.695-1.277-12.7,1.072-1.108,13.188-.346,15.185.523" transform="translate(237.483 380.639)"/>
          <path id="Path_16883" data-name="Path 16883" d="M181.243,217.527s6.837,9.374,1.949,16.738c0,0-35.613,1.609-46.366,0,0,0-.276-12.583,8.941-13.658a175.985,175.985,0,0,1,19.6-.92s9.183,4.807,15.877-2.16" transform="translate(220.531 388.935)"/>
          <path id="Path_16884" data-name="Path 16884" d="M174.674,217.547c.982-1.9,15.72-3.738,16.046-2.939,1.007,2.453,3.842,12.072,2.751,13.666-1.06,1.547-12.935,7.015-13.762,4.607-.717-2.087-5.985-13.509-5.035-15.334" transform="translate(288.927 383.295)" fill="#fff"/>
          <path id="Path_16885" data-name="Path 16885" d="M183.221,234.28c3.994-.877,10.325-3.966,11.211-5.259,1.406-2.056-2.017-12.629-2.683-14.246-.2-.5-.852-.563-1.5-.579-2.779-.079-14.617,1.305-15.748,3.485-.726,1.4.821,5.7,3.929,13.163.509,1.218.908,2.177,1.072,2.65a1.582,1.582,0,0,0,1.493,1,7.168,7.168,0,0,0,2.222-.217m7.4-18.805c1.356,3.44,3.485,11.751,2.723,12.865-.748,1.091-9.363,5.226-12.162,4.9-.188-.02-.4-.076-.428-.163-.169-.487-.579-1.471-1.1-2.723-1.252-3-4.57-10.969-3.977-12.128.807-1.313,12.806-3.173,14.943-2.754" transform="translate(288.508 382.889)"/>
          <path id="Path_16886" data-name="Path 16886" d="M207.363,218.2s8.691,7.687,5.5,15.928c0,0-34.432,9.222-45.28,9.965,0,0-2.976-12.232,5.8-15.261a176.2,176.2,0,0,1,18.943-5.11s10,2.72,15.042-5.521" transform="translate(275.397 390.162)"/>
          <path id="Path_16887" data-name="Path 16887" d="M232.562,59.474c-9.917,50.036,7.47,143.3,105.272,175.227s63.84-44.827,0-107.312S247.5-15.915,232.562,59.474" transform="translate(389.627 47.283)" fill="#e6ebf0"/>
          <path id="Path_16888" data-name="Path 16888" d="M185.432,251.276h30.2V193.545a8.629,8.629,0,0,0-8.629-8.629H194.055a8.623,8.623,0,0,0-8.623,8.626Z" transform="translate(308.634 329.824)" fill="#aab6c2"/>
          <path id="Path_16889" data-name="Path 16889" d="M152.551,253.89a13.458,13.458,0,0,0,13.464,13.464H278.153s3.085-.959,8.058-2.52c20.245-6.441,71.943-23.283,75.394-28.691,4.286-6.731,14.51-101.782,14.51-101.782H263.972a13.476,13.476,0,0,0-14.493,12.364l-2.607,59.455a37.4,37.4,0,0,1-37.09,34.246H166.015a13.46,13.46,0,0,0-13.464,13.464" transform="translate(249.035 238.11)" fill="#f40"/>
          <path id="Path_16890" data-name="Path 16890" d="M190.113,201.121h44.208c6.483,0,11.74-9.318,11.74-20.808H178.373c0,11.489,5.257,20.808,11.74,20.808" transform="translate(295.839 321.481)"/>
          <path id="Path_16891" data-name="Path 16891" d="M152.551,185.508a13.458,13.458,0,0,0,13.464,13.464h120.2V172.044h-120.2a13.459,13.459,0,0,0-13.464,13.464" transform="translate(249.035 306.492)" fill="#f40"/>
          <path id="Path_16892" data-name="Path 16892" d="M205.888,267.352h43.775A64.452,64.452,0,0,0,313.585,208.3l2.613-59.45a13.463,13.463,0,0,0-26.841-2.135l-2.613,59.45a37.386,37.386,0,0,1-37.081,34.26H205.888a13.464,13.464,0,1,0,0,26.928" transform="translate(321.308 238.112)"/>
          <path id="Path_16893" data-name="Path 16893" d="M226.978,217s.8-3.144-6.027-4.191c-10.384-1.583-59.07-43.092-65.907-71.746-6.221-26.078,2.874-56.269,3.443-71.209,2.883-2.692,8.286-3.929,10.657-4.992,5.288-2.371,7.664,48.008,30.8,70.129,29.327,28.042,68.211,58.673,73.3,69.887C278.767,217.123,226.978,217,226.978,217" transform="translate(249.625 112.071)" fill="#fff"/>
          <path id="Path_16894" data-name="Path 16894" d="M227.627,218.32h-.143l-1.029,0,.248-.982a1.482,1.482,0,0,0-.315-1.046c-.5-.712-1.789-1.668-5.051-2.169-9.988-1.522-59.579-43.066-66.566-72.354-4.427-18.563-1.105-39.548,1.322-54.871a157.132,157.132,0,0,0,2.1-16.555l.011-.329.242-.225c2.216-2.073,5.808-3.319,8.429-4.227.962-.335,1.814-.627,2.444-.911a1.628,1.628,0,0,1,1.418.022c1.868.906,3.1,5.558,5.49,15.151,4.092,16.426,10.28,41.247,24.776,55.107,10.511,10.049,22.062,20.265,33.234,30.145,19.8,17.517,36.91,32.643,40.243,39.989a4.484,4.484,0,0,1-.256,4.514c-5.546,8.564-43.516,8.742-46.6,8.742M159.779,70.743a164.413,164.413,0,0,1-2.1,16.4c-2.543,16.037-5.7,36-1.35,54.249,6.874,28.809,55.47,69.648,65.252,71.139,3.133.481,5.215,1.465,6.179,2.925a3.328,3.328,0,0,1,.512,1.257c11.717-.039,40.4-1.513,44.608-8.01a2.925,2.925,0,0,0,.138-2.981c-3.192-7.031-20.175-22.056-39.843-39.449-11.18-9.889-22.745-20.116-33.279-30.188-14.831-14.184-21.086-39.275-25.223-55.878-1.631-6.542-3.479-13.956-4.666-14.108-.695.307-1.592.619-2.6.97-2.388.83-5.625,1.952-7.622,3.67" transform="translate(249.119 111.554)"/>
          <path id="Path_16895" data-name="Path 16895" d="M167.9,65.6c.776-.54-.017-2.891-.928-3.656a1.768,1.768,0,0,1-.647-1.744c.225-.816.88-.852,1.5-.762,1.058.155,3.822,2.905,4.036,4.9.878,8.19-.962,15.123-3.468,16.991-1.049.785-6.756,2.689-10.789-1.612-4.762-7.47-4.967-11.8-3.085-14.952-2.568-1.612,12.558,1.415,13.385.835" transform="translate(250.585 102.315)" fill="#fff"/>
          <path id="Path_16896" data-name="Path 16896" d="M164.449,83.734a9.227,9.227,0,0,1-6.913-2.959c-4.357-6.809-5.426-11.557-3.488-15.371a.874.874,0,0,1-.056-.728c.338-.917,1.173-.914,8.168.053a54.286,54.286,0,0,0,5.777.658,3.625,3.625,0,0,0-.959-2.318,2.567,2.567,0,0,1-.9-2.576,1.881,1.881,0,0,1,2.382-1.339c1.454.211,4.464,3.26,4.717,5.608.844,7.867-.785,15.486-3.786,17.716a9.446,9.446,0,0,1-4.939,1.254M155.761,65.6l-.039.087c-1.33,2.233-2.188,5.856,3.074,14.108,3.732,3.963,9.054,1.837,9.633,1.4,2.18-1.623,4.005-8.3,3.15-16.262-.174-1.637-2.672-4.075-3.355-4.194-.532-.084-.554.008-.6.18a.988.988,0,0,0,.388.92,5.112,5.112,0,0,1,1.527,3.575,1.632,1.632,0,0,1-.655,1.353c-.523.368-1.493.3-6.939-.45-2.008-.278-4.849-.669-6.179-.72" transform="translate(250.066 101.801)"/>
          <path id="Path_16897" data-name="Path 16897" d="M153.169,64.145c-.3-3.066.174-3.057,3.786-3.454.07-.006.127.011.2.006a4.261,4.261,0,0,1,1.088-.3,5.361,5.361,0,0,1,1.7.112,2.838,2.838,0,0,1,.36-.442c1.465-1.342,3.631-.717,4.978.439.076.068.143.163.219.239a3.812,3.812,0,0,1,3.381-1.19,4.158,4.158,0,0,1,3.755,3.842c.827,2.86.245,6.548-1.285,6.719-2.3.259-3-2.408-2.658-4.315.014-.065-.037-.141-.062-.205a4.958,4.958,0,0,1-1.974,2.543,2.1,2.1,0,0,1-3.085-.692c-.073.16-.143.326-.219.475a2.138,2.138,0,0,1-3.606.472,7.609,7.609,0,0,1-.782-1.218c-2.526,2.4-5.507-.087-5.8-3.029" transform="translate(250.02 102.144)" fill="#fff"/>
          <path id="Path_16898" data-name="Path 16898" d="M171.554,71.446a2.833,2.833,0,0,1-2.126-.911,4.136,4.136,0,0,1-.959-1.907,5.73,5.73,0,0,1-.861.692,3.029,3.029,0,0,1-2.4.447,2.946,2.946,0,0,1-.97-.453,3.062,3.062,0,0,1-2.05,1.17,2.929,2.929,0,0,1-2.531-1.055,4.8,4.8,0,0,1-.408-.551,3.512,3.512,0,0,1-3.187.343,5.377,5.377,0,0,1-3.178-4.486c-.352-3.637.675-3.91,4.292-4.306l.284-.031.079.006a4.28,4.28,0,0,1,1.142-.3,6.477,6.477,0,0,1,1.44.034c.051-.056.1-.11.16-.163,1.659-1.519,4.078-1.063,5.752.2a4.5,4.5,0,0,1,3.474-.906,4.935,4.935,0,0,1,4.436,4.506c.675,2.306.473,5.2-.5,6.649a2.043,2.043,0,0,1-1.491,1,3.183,3.183,0,0,1-.4.022M169.1,63.824l.788,1.986a1.074,1.074,0,0,1,.1.65,3.782,3.782,0,0,0,.608,2.979,1.314,1.314,0,0,0,1.176.394c.1-.011.219-.121.335-.3.616-.923.872-3.313.264-5.406-.332-2.017-1.308-3.026-3.091-3.271a3.017,3.017,0,0,0-2.709.965L166,62.4l-.568-.579.38-.757-.006-.006-.557.554c-.9-.771-2.7-1.544-3.9-.439a1.473,1.473,0,0,0-.194.242l-.309.433-.574-.042a4.609,4.609,0,0,0-1.451-.1,3.294,3.294,0,0,0-.824.236l-.346.073-.158-.006-.149.014c-3.085.338-3.085.338-2.874,2.559a3.786,3.786,0,0,0,2.14,3.139,2.114,2.114,0,0,0,2.309-.613l.734-.7.653,1.122a5.3,5.3,0,0,0,.554.852,1.332,1.332,0,0,0,1.145.506,1.551,1.551,0,0,0,1.15-.841c.045-.09.093-.2.146-.315l.655-1.479.824,1.316a1.281,1.281,0,0,0,.807.641,1.447,1.447,0,0,0,1.139-.233,4.135,4.135,0,0,0,1.654-2.14Z" transform="translate(249.511 101.629)"/>
          <path id="Path_16899" data-name="Path 16899" d="M159.784,68.988c1.328.231,2.877-2.948,2.72-4.63a2.526,2.526,0,0,1,1.091-2.416c1.046-.6,1.747.02,2.278.726.92,1.218.962,6.767-.819,9-7.313,9.172-6.688-2.928-5.271-2.683" transform="translate(260.531 106.483)" fill="#fff"/>
          <path id="Path_16900" data-name="Path 16900" d="M161.188,76.44a2.085,2.085,0,0,1-1.029-.27c-1.839-1.018-1.758-4.666-1.2-6.255.416-1.193,1.1-1.268,1.477-1.2.039.022.152-.025.366-.225a5.456,5.456,0,0,0,1.42-3.541,3.316,3.316,0,0,1,1.491-3.184c.83-.478,2.076-.7,3.316.937,1.176,1.558,1.145,7.507-.832,9.988-2,2.512-3.654,3.752-5.009,3.752m-.672-6.123a6.413,6.413,0,0,0-.031,3.805c.16.425.366.661.6.7.27.037,1.4-.056,3.853-3.13,1.609-2.019,1.451-7.169.807-8.024-.6-.788-.877-.717-1.238-.512a1.739,1.739,0,0,0-.695,1.643,7,7,0,0,1-1.924,4.871,2.2,2.2,0,0,1-1.378.65m-.352-.022,0,0Z" transform="translate(260.015 105.967)"/>
          <path id="Path_16901" data-name="Path 16901" d="M282.625,198.533C273.284,217,239.89,224.513,215.1,231.044c-14.856,3.935-26.616,7.515-28.2,12.921-6.182,21.142-10.536,76.728-16.4,96.182-2.107,2.419-6.494,2.455-11.062,1.614a73.564,73.564,0,0,1-15.275-5.023c1.336-43.331-2.244-83.748,4.705-113.8,11.658-50.494,88.1-73.563,88.1-73.563,13.416-14.679,62.012,16.783,45.648,49.161" transform="translate(233.847 258.673)"/>
          <path id="Path_16902" data-name="Path 16902" d="M238.675,150.974a1.446,1.446,0,0,0-1.9,1.336,2.268,2.268,0,0,0-.456.208c-15.064,10.393-35.363,14.642-46.807,29.844-4.531,6.075-6.32,13.239-7.8,20.507-2.278,11.169-6.809,20.051-11.481,30.3-8.322,18.3-14.358,39.154-18.293,58.851a125.13,125.13,0,0,0-2.6,30.058,67.49,67.49,0,0,0,.914,10.184c4.568.841,8.955.8,11.062-1.614,5.861-19.455,10.215-75.04,16.4-96.179,1.581-5.406,13.34-8.989,28.2-12.921a236.213,236.213,0,0,1,17.626-19.421c8.112-8,17.522-14.673,25.42-22.889,11.52-12.046,4.39-24.157-10.286-28.267" transform="translate(243.035 268.169)"/>
          <path id="Path_16903" data-name="Path 16903" d="M293.275,199.185c-14.924,29.566-73.209,21.142-77.425,35.537-6.179,21.139-10.184,97.653-2.211,109.941a17.075,17.075,0,0,1-2.458,2.214c-6.6,4.843-18.155,7.3-18.155,7.3-13.447-29.462-26.863-86.94-28.9-120.261-3.159-51.693,83.5-83.888,83.5-83.888,10.955-11.973,45.367,6.809,48.7,31.706a29.3,29.3,0,0,1-3.054,17.449" transform="translate(269.863 259.877)"/>
          <path id="Path_16904" data-name="Path 16904" d="M274.733,160.052a16.7,16.7,0,0,0-9.093-1.685,1.768,1.768,0,0,0-.74,3.232c-7.931,22.61-33.5,28.441-54.531,32.547-14.924,2.914-26.967,7.3-30.2,23.634-1.932,9.616-1.9,19.8-2.6,29.566-.667,9.622-1.581,19.241-1.617,28.9a91.64,91.64,0,0,0,13.624,48.95,16.926,16.926,0,0,0,2.458-2.214c-7.971-12.288-3.966-88.8,2.214-109.941,4.213-14.395,62.5-5.971,77.425-35.537a29.3,29.3,0,0,0,3.054-17.449" transform="translate(291.46 281.561)"/>
          <path id="Path_16905" data-name="Path 16905" d="M172.062,230.962c.526,1.648,23.468,14.794,36.271,19.6,22.2,8.339,59.748,14.828,69.37,13.005,3.932-.737,6.458-1.794,7.057-3.054,1.859-4.005-4.548-42.968-3.777-68.88.141-5.02.248-10.114.248-15.1.141-26.053-1.688-50.461-7.586-54.989-1.333-1.052-2.88-2.14-4.6-3.3a86.359,86.359,0,0,0-8.916-5.338,83.636,83.636,0,0,0-18.366-7.091,76.205,76.205,0,0,0-36.657-.563.034.034,0,0,1-.037.034,74.491,74.491,0,0,0-10.111,3.021c-.807.281-1.617.6-2.461.911-11.515,4.638-9.864,29.707-8,50.742.838,9.76,1.719,18.642,1.367,24.191a48.186,48.186,0,0,1-.7,5.549c-2.6,15.483-11.163,29.985-13.1,41.258" transform="translate(284.4 181.87)" fill="#ff814c"/>
          <path id="Path_16906" data-name="Path 16906" d="M170.455,231.545c.526,1.654,30.725,15.8,47.842,22.824,21.938,9,53.085,11.023,62.707,9.2,3.935-.737,6.461-1.794,7.057-3.054,1.862-4.005-4.545-42.968-3.775-68.88.141-5.021.245-10.114.245-15.1.141-26.053-1.685-50.461-7.583-54.989-1.333-1.052-2.88-2.14-4.6-3.3a86.665,86.665,0,0,0-8.916-5.338,83.692,83.692,0,0,0-18.366-7.091,76.171,76.171,0,0,0-36.657-.563.035.035,0,0,1-.039.034,74.727,74.727,0,0,0-10.111,3.021c-.8.281-1.614.6-2.458.911-11.515,4.638-9.867,29.707-8,50.742.841,9.76-19.874,70.422-17.34,71.58" transform="translate(281.097 181.869)" fill="#fff"/>
          <path id="Path_16907" data-name="Path 16907" d="M272.518,265.493c-13.875,0-36.859-2.818-54.035-9.867-11.512-4.722-44.194-19.382-47.96-22.883-1.434-.844-.385-5.448,6.832-30.5,4.95-17.188,10.564-36.673,10.134-41.7-2.084-23.513-3.142-46.863,8.5-51.552l.706-.267c.6-.228,1.2-.453,1.789-.658a75.637,75.637,0,0,1,9.611-2.911v-.025l.622-.143a77.057,77.057,0,0,1,37.039.568,84.413,84.413,0,0,1,18.538,7.158,87.5,87.5,0,0,1,8.995,5.386c2,1.347,3.437,2.377,4.646,3.333,6.739,5.175,8.013,33.1,7.889,55.619,0,4.295-.079,9.1-.245,15.118-.422,14.1,1.274,31.895,2.638,46.2,1.311,13.79,1.955,21.075,1.06,23-.717,1.513-3.285,2.689-7.636,3.5a52.578,52.578,0,0,1-9.124.622m-100.84-33.774c1.876,2,29.535,15.087,47.412,22.425,21.668,8.891,52.621,10.983,62.254,9.152,5.341-1,6.312-2.25,6.483-2.61.751-1.614-.2-11.6-1.207-22.166-1.367-14.347-3.069-32.2-2.647-46.4.169-6,.247-10.792.247-15.073.166-30.865-2.484-50.674-7.273-54.353-1.184-.934-2.588-1.941-4.559-3.268a86.4,86.4,0,0,0-8.84-5.293,82.7,82.7,0,0,0-18.192-7.026,75.484,75.484,0,0,0-35.658-.7v.16l-.838.034a77.056,77.056,0,0,0-9.83,2.97c-.6.208-1.176.428-1.769.653l-.692.262c-11.5,4.627-8.986,32.978-7.484,49.918.458,5.324-4.956,24.112-10.193,42.284-3.58,12.429-7.625,26.472-7.366,28.75l.076.034Z" transform="translate(280.607 181.354)"/>
          <path id="Path_16908" data-name="Path 16908" d="M191.552,105.012l4.6,3.44-3.983,4.483-4.1-.259-1.612-4.551Z" transform="translate(310.485 184.992)" fill="#f40"/>
          <path id="Path_16909" data-name="Path 16909" d="M192.389,107.738s-10.93,25.6-7.737,53.746l7.737,8.2,5.87-6.871S192.5,126.315,196.49,108Z" transform="translate(306.161 189.932)" fill="#f40"/>
          <path id="Path_16910" data-name="Path 16910" d="M208.359,103.762l1.69.222L204.5,117.15l-10.584-7.926-9.8,5.982,6.733-11.082s4.427-1.187,6.32-.363.9,4.151.9,4.151Z" transform="translate(306.262 182.197)" fill="#fff"/>
          <path id="Path_16911" data-name="Path 16911" d="M206.39,118.922l-10.972-8.216-12.148,7.42,8.612-14.175.312-.084c.481-.129,4.753-1.235,6.846-.323,1.434.624,1.735,2.205,1.628,3.6l9.13-3.687,2.939.388Zm-10.882-10.148,10.2,7.633,4.739-11.25-.439-.059-11.627,4.7.473-1.595c.205-.686.557-2.748-.453-3.189-1.117-.484-3.825-.084-5.482.323l-4.849,7.982Z" transform="translate(304.717 181.681)"/>
          <path id="Path_16912" data-name="Path 16912" d="M188.166,103.224v11.264s-2.661,4.883,0,5.414c5.853,1.17,14.3-5.409,14.3-5.409V97.3Z" transform="translate(311.447 171.008)" fill="#fff"/>
          <path id="Path_16913" data-name="Path 16913" d="M190.153,121.616a8.412,8.412,0,0,1-1.628-.152,2.127,2.127,0,0,1-1.581-1.193c-.771-1.648.484-4.337.937-5.209v-11.6l15.9-6.59v18.788l-.309.242c-.326.253-7.414,5.715-13.32,5.715m-.669-17.084-.1,11.113c-.633,1.164-1.358,3.159-.987,3.946a.522.522,0,0,0,.439.3c4.835.953,11.8-3.89,13.343-5.023V99.27Z" transform="translate(310.931 170.235)"/>
          <path id="Path_16914" data-name="Path 16914" d="M183.119,96.812s-.419,11.9,2.464,21.514c2.048,6.823,17.666,10.018,23.19-3.375s-3.389-26.07-3.389-26.07Z" transform="translate(304.403 155.752)" fill="#fff"/>
          <path id="Path_16915" data-name="Path 16915" d="M196.361,125.644c-.256,0-.512-.008-.771-.02-4.975-.25-9.194-2.9-10.258-6.449-2.888-9.628-2.514-21.28-2.495-21.772l.017-.543,23.35-8.32.352.5c.374.534,9.1,13.191,3.476,26.838-2.543,6.162-7.617,9.768-13.672,9.768M184.427,98c-.037,2.422-.025,12.491,2.441,20.712.858,2.863,4.559,5.1,8.8,5.307,5.681.278,10.5-2.99,12.879-8.756,4.689-11.369-1.446-22.346-2.973-24.8Z" transform="translate(303.885 155.134)"/>
          <path id="Path_16916" data-name="Path 16916" d="M222.15,188.019c1.4,10.744,3.277,12.6,2.807-12.06-.093-5.021.678-33.937-.644-42.9-1.963-4.5-9.754-26.146-13.183-20.04-7.858,13.993-12.991,16.344-1.232,33.34,8.044,11.554,10.28,26.669,12.252,41.663" transform="translate(340.425 197.545)"/>
          <path id="Path_16917" data-name="Path 16917" d="M182.266,101.522c7.38,4.874,18.833.481,27.274-3.173.225.925.591,1.854.8,2.6.917,3.3.906,7.844,3.423,10.463a4.306,4.306,0,0,0,6.165.27,3.675,3.675,0,0,0,1.108-3.521c1.322-6.9-2.607-16.909-8.272-20.141-3.586-2.045-7.3-1.448-11.152-.591-3.119.692-5.651,1.311-8.927.878-1.943-.262-3.474-.728-5.454-.388-7.383,1.257-12.539,8.6-4.961,13.607" transform="translate(296.14 151.675)"/>
          <path id="Path_16918" data-name="Path 16918" d="M244.052,215.376c10.387-1.581,59.888-43.68,66.726-72.334,6.219-26.078-2.874-56.269-3.443-71.209-2.886-2.692-8.283-3.929-10.657-4.992-5.293-2.371-7.667,48.008-30.8,70.129-29.327,28.042-68.211,58.673-73.3,69.887-5.521,12.243,44.65,9.568,51.476,8.519" transform="translate(320.816 115.654)" fill="#fff"/>
          <path id="Path_16919" data-name="Path 16919" d="M223.6,217.686c-12.769,0-27.209-1.17-30.84-5.949a4.38,4.38,0,0,1-.4-4.694c3.333-7.346,20.433-22.47,40.234-39.984,11.172-9.881,22.726-20.1,33.242-30.154,14.5-13.86,20.681-38.682,24.776-55.107,2.388-9.591,3.62-14.243,5.49-15.151a1.631,1.631,0,0,1,1.415-.023c.633.284,1.482.579,2.444.911,2.621.908,6.213,2.154,8.432,4.227l.242.225.011.332a156.352,156.352,0,0,0,2.1,16.555c2.427,15.323,5.752,36.308,1.325,54.868-7.04,29.507-57.25,71.395-67.384,72.942a205.5,205.5,0,0,1-21.083,1m73.26-149.6c-1.218.143-3.063,7.557-4.694,14.1-4.137,16.606-10.393,41.7-25.226,55.878-10.536,10.075-22.1,20.3-33.284,30.2C214,185.654,197.013,200.673,193.821,207.7a2.771,2.771,0,0,0,.217,3.063c5.358,7.051,43.539,5.386,50.4,4.334h0c10.57-1.612,59.529-44.332,66.065-71.727,4.354-18.254,1.193-38.212-1.347-54.249a163.624,163.624,0,0,1-2.1-16.406c-2-1.716-5.237-2.841-7.628-3.668-1.01-.352-1.907-.667-2.571-.962" transform="translate(320.302 115.138)"/>
          <path id="Path_16920" data-name="Path 16920" d="M232.109,67.573c-.776-.54.02-2.891.928-3.656a1.768,1.768,0,0,0,.647-1.744c-.225-.816-.88-.852-1.5-.762-1.058.155-3.822,2.905-4.036,4.9-.878,8.19.962,15.123,3.468,16.991,1.049.785,6.753,2.689,10.789-1.614,4.762-7.467,4.967-11.8,3.085-14.949,2.568-1.612-12.555,1.412-13.385.835" transform="translate(385.666 105.898)" fill="#fff"/>
          <path id="Path_16921" data-name="Path 16921" d="M236.532,85.7a9.324,9.324,0,0,1-4.88-1.238c-3-2.233-4.627-9.853-3.783-17.717.25-2.351,3.263-5.4,4.717-5.611a1.892,1.892,0,0,1,2.385,1.342,2.579,2.579,0,0,1-.906,2.574,3.625,3.625,0,0,0-.959,2.318,47.862,47.862,0,0,0,5.777-.655c6.995-.968,7.833-.973,8.168-.053a.885.885,0,0,1-.056.728c1.938,3.811.872,8.553-3.4,15.25a9.413,9.413,0,0,1-7.065,3.063m-3.4-23.007a2.241,2.241,0,0,0-.315.028c-.681.118-3.178,2.559-3.355,4.194-.852,7.962.973,14.64,3.15,16.262.579.433,5.9,2.557,9.726-1.519,5.17-8.137,4.315-11.757,2.981-13.99l-.053-.09c-1.333.053-4.163.444-6.16.72-5.442.757-6.415.821-6.941.45a1.629,1.629,0,0,1-.655-1.356,5.111,5.111,0,0,1,1.527-3.572.986.986,0,0,0,.388-.917c-.037-.129-.059-.211-.292-.211" transform="translate(385.153 105.385)"/>
          <path id="Path_16922" data-name="Path 16922" d="M247.644,66.122c.3-3.066-.177-3.057-3.786-3.454-.073,0-.129.011-.2.008a4.175,4.175,0,0,0-1.091-.307,5.416,5.416,0,0,0-1.7.115,2.731,2.731,0,0,0-.36-.444c-1.468-1.342-3.634-.717-4.981.439-.073.067-.141.163-.217.239a3.818,3.818,0,0,0-3.384-1.19,4.155,4.155,0,0,0-3.752,3.842c-.827,2.86-.245,6.551,1.283,6.722,2.3.256,3-2.41,2.658-4.317a.443.443,0,0,1,.062-.205,4.975,4.975,0,0,0,1.974,2.545,2.1,2.1,0,0,0,3.085-.695c.073.163.143.326.222.475a2.134,2.134,0,0,0,3.6.473,7.633,7.633,0,0,0,.785-1.218c2.523,2.4,5.5-.087,5.8-3.029" transform="translate(385.429 105.727)" fill="#fff"/>
          <path id="Path_16923" data-name="Path 16923" d="M230.284,73.422a3.15,3.15,0,0,1-.4-.023,2.057,2.057,0,0,1-1.491-1c-.965-1.443-1.167-4.34-.472-6.742a4.881,4.881,0,0,1,4.413-4.413,4.525,4.525,0,0,1,3.479.906c1.673-1.266,4.09-1.71,5.752-.191a2.075,2.075,0,0,1,.158.158,6.12,6.12,0,0,1,1.434-.034,4.41,4.41,0,0,1,1.17.3c-.011-.008.039-.011.093-.008l.245.025c3.617.4,4.644.669,4.292,4.306a5.376,5.376,0,0,1-3.175,4.486,3.508,3.508,0,0,1-3.189-.343,4.743,4.743,0,0,1-.405.548,2.922,2.922,0,0,1-2.531,1.058,3.062,3.062,0,0,1-2.056-1.17,2.906,2.906,0,0,1-.968.453,3.039,3.039,0,0,1-2.4-.447,5.939,5.939,0,0,1-.866-.689,4.068,4.068,0,0,1-.956,1.9,2.833,2.833,0,0,1-2.126.911m2.759-10.62a3.706,3.706,0,0,0-.489.034,3.339,3.339,0,0,0-3.069,3.175c-.624,2.185-.371,4.579.245,5.5.118.177.242.284.338.3a1.317,1.317,0,0,0,1.173-.394,3.766,3.766,0,0,0,.6-2.984l-.045-.25.149-.388.83-1.772.675,1.794a4.172,4.172,0,0,0,1.657,2.143,1.441,1.441,0,0,0,1.133.231,1.279,1.279,0,0,0,.81-.641l.773-1.412.661,1.471c.1.217.146.329.2.43a1.529,1.529,0,0,0,1.139.83,1.321,1.321,0,0,0,1.147-.509,4.813,4.813,0,0,0,.551-.844l.658-1.128.734.7a2.113,2.113,0,0,0,2.306.613,3.791,3.791,0,0,0,2.14-3.139c.214-2.222.214-2.222-2.872-2.559l-.593-.059a3.571,3.571,0,0,0-.889-.259,4.74,4.74,0,0,0-1.446.1l-.518.118-.309-.428a2.425,2.425,0,0,0-.245-.318c-1.209-1.108-3.01-.337-3.924.45l-.568.577-.74-.38a3.013,3.013,0,0,0-2.219-1m.38,5.338,0,.014,0-.014" transform="translate(384.909 105.213)"/>
          <path id="Path_16924" data-name="Path 16924" d="M233.092,70.965c-1.328.231-2.877-2.948-2.72-4.63a2.527,2.527,0,0,0-1.091-2.416c-1.046-.6-1.747.02-2.281.723-.917,1.221-.959,6.77.821,9.006,7.313,9.172,6.688-2.928,5.271-2.683" transform="translate(382.852 110.067)" fill="#fff"/>
          <path id="Path_16925" data-name="Path 16925" d="M232.722,78.416c-1.356,0-3.007-1.24-5.009-3.752-1.977-2.481-2.008-8.429-.833-9.988,1.243-1.64,2.489-1.412,3.319-.937a3.321,3.321,0,0,1,1.488,3.187,5.455,5.455,0,0,0,1.42,3.538c.214.2.346.242.366.225.371-.065,1.057.008,1.477,1.2.56,1.589.641,5.237-1.2,6.255a2.067,2.067,0,0,1-1.027.27M229,64.995c-.222,0-.473.157-.847.65-.641.852-.8,6,.81,8.021,2.45,3.074,3.566,3.178,3.853,3.13.239-.037.444-.273.6-.7a6.413,6.413,0,0,0-.031-3.805,2.2,2.2,0,0,1-1.378-.65,7,7,0,0,1-1.924-4.869,1.738,1.738,0,0,0-.692-1.643.821.821,0,0,0-.4-.138m4.742,7.276h0" transform="translate(382.334 109.551)"/>
          <path id="Path_16926" data-name="Path 16926" d="M230.094,65.774a2.1,2.1,0,0,1-1.187,2.68c-1.845.658-.307,4-.307,4a20.342,20.342,0,0,0,4,2.68c1.494.571,2.461-6.241,1.01-8.041a3.656,3.656,0,0,0-3.516-1.319" transform="translate(385.791 113.761)" fill="#fff"/>
          <path id="Path_16927" data-name="Path 16927" d="M161.959,63.8a2.107,2.107,0,0,0,1.187,2.683c1.845.658.309,4,.309,4a20.493,20.493,0,0,1-4,2.683c-1.493.571-2.461-6.241-1.01-8.041a3.661,3.661,0,0,1,3.516-1.322" transform="translate(258.417 110.177)" fill="#fff"/>
          <path id="Path_16928" data-name="Path 16928" d="M222.418,106.155l2.813,1.229,2.694,36.243s-1.493,1.305,0,4.27-26.683,4.379-31.141-2.934-10.443-15.4-3.493-20.585,29.127-18.223,29.127-18.223" transform="translate(317.127 187.063)" fill="#fff"/>
          <path id="Path_16929" data-name="Path 16929" d="M203.8,103.379l3.077,2.813L186.11,134.213s-13.039-3.645-13.126-5.141.408-21.739.849-22,12.569-4.216,12.569-4.216Z" transform="translate(286.052 181.077)" fill="#fff"/>
          <path id="Path_16930" data-name="Path 16930" d="M493.909,152.144l-6.764,11.447H85.38l-6.764-11.447Z" transform="translate(115.021 270.422)" fill="#f40"/>
          <path id="Path_16931" data-name="Path 16931" d="M258.161,359.081H264.2L230.783,156.215h-12.8Z" transform="translate(367.632 277.8)" fill="#f40"/>
          <path id="Path_16932" data-name="Path 16932" d="M234.82,359.081h6.041L207.443,156.215h-12.8Z" transform="translate(325.324 277.8)" fill="#f40"/>
          <path id="Path_16933" data-name="Path 16933" d="M77.382,359.081H71.338l33.419-202.867h12.806Z" transform="translate(101.828 277.8)" fill="#f40"/>
          <path id="Path_16934" data-name="Path 16934" d="M99.931,359.081H93.887l33.419-202.867h12.806Z" transform="translate(142.701 277.8)" fill="#f40"/>
          <path id="Path_16935" data-name="Path 16935" d="M289.2,152.144l-6.764,11.447H195.459l-3.9-11.447Z" transform="translate(319.733 270.422)" fill="#aab6c2"/>
          <rect id="Rectangle_8340" data-name="Rectangle 8340" width="81.813" height="5.639" transform="translate(332.227 416.927)"/>
          <rect id="Rectangle_8341" data-name="Rectangle 8341" width="4.742" height="3.358" transform="translate(334.727 414.333)"/>
          <rect id="Rectangle_8342" data-name="Rectangle 8342" width="4.739" height="3.358" transform="translate(341.596 414.333)"/>
          <rect id="Rectangle_8343" data-name="Rectangle 8343" width="4.739" height="3.358" transform="translate(348.464 414.333)"/>
          <rect id="Rectangle_8344" data-name="Rectangle 8344" width="4.75" height="3.355" transform="translate(355.324 414.339)"/>
          <rect id="Rectangle_8345" data-name="Rectangle 8345" width="4.736" height="3.355" transform="translate(362.206 414.339)"/>
          <rect id="Rectangle_8346" data-name="Rectangle 8346" width="4.731" height="3.355" transform="translate(369.075 414.339)"/>
          <rect id="Rectangle_8347" data-name="Rectangle 8347" width="4.731" height="3.355" transform="translate(375.943 414.339)"/>
          <rect id="Rectangle_8348" data-name="Rectangle 8348" width="4.736" height="3.355" transform="translate(382.806 414.339)"/>
          <rect id="Rectangle_8349" data-name="Rectangle 8349" width="4.731" height="3.355" transform="translate(389.671 414.339)"/>
          <rect id="Rectangle_8350" data-name="Rectangle 8350" width="4.745" height="3.355" transform="translate(396.54 414.339)"/>
          <rect id="Rectangle_8351" data-name="Rectangle 8351" width="4.75" height="3.355" transform="translate(403.402 414.339)"/>
          <path id="Path_16936" data-name="Path 16936" d="M149.038,170.066h-11.9l-18.594-30.683h11.9Z" transform="translate(187.389 247.293)"/>
          <path id="Path_16937" data-name="Path 16937" d="M147.154,170.066h-11.9l-18.594-30.683h11.9Z" transform="translate(183.973 247.293)" fill="#aab6c2"/>
          <path id="Path_16938" data-name="Path 16938" d="M220.137,204.828H111.129A6.554,6.554,0,0,1,104.6,198.8l-6.851-84.338a6.551,6.551,0,0,1,6.528-7.082h109.01a6.548,6.548,0,0,1,6.525,6.019l6.854,84.344a6.552,6.552,0,0,1-6.528,7.082" transform="translate(149.658 189.289)"/>
          <path id="Path_16939" data-name="Path 16939" d="M220.429,204.828H106.834a4.272,4.272,0,0,1-4.253-3.924L95.358,112a4.264,4.264,0,0,1,4.253-4.613H213.206a4.267,4.267,0,0,1,4.25,3.921l7.226,88.912a4.269,4.269,0,0,1-4.253,4.613" transform="translate(145.341 189.289)" fill="#aab6c2"/>
          <path id="Path_16940" data-name="Path 16940" d="M195.3,160.052c-6.857-7.209-22.917-12.271-41.643-12.271s-34.786,5.063-41.64,12.271Z" transform="translate(175.561 262.514)"/>
          <path id="Path_16941" data-name="Path 16941" d="M192.622,160.052c-6.857-7.209-22.917-12.271-41.643-12.271s-34.786,5.063-41.64,12.271Z" transform="translate(170.707 262.514)" fill="#aab6c2"/>
          <path id="Path_16942" data-name="Path 16942" d="M154.35,145.457H127.8a1.5,1.5,0,0,1-1.491-1.35l-.816-8.159a1.5,1.5,0,0,1,1.493-1.648h26.551a1.5,1.5,0,0,1,1.493,1.353l.816,8.154a1.5,1.5,0,0,1-1.493,1.651" transform="translate(199.97 238.076)"/>
          <path id="Path_16943" data-name="Path 16943" d="M277.442,179.123c15.779,0,28.57-2.081,28.57-4.649s-12.792-4.649-28.57-4.649-28.57,2.081-28.57,4.649,12.792,4.649,28.57,4.649" transform="translate(423.625 302.47)" fill="#fd7044"/>
          <path id="Path_16944" data-name="Path 16944" d="M277.442,185.129c-15.779,0-28.57-2.081-28.57-4.649v15.106c0,2.568,12.792,4.649,28.57,4.649s28.57-2.081,28.57-4.649V180.48c0,2.568-12.792,4.649-28.57,4.649m21.986,8.494a2.237,2.237,0,1,1,2.239-2.239,2.239,2.239,0,0,1-2.239,2.239" transform="translate(423.625 321.783)" fill="#fd7044"/>
          <path id="Path_16945" data-name="Path 16945" d="M277.442,192.315c-15.779,0-28.57-2.081-28.57-4.649v15.106c0,2.568,12.792,4.649,28.57,4.649s28.57-2.081,28.57-4.649V187.666c0,2.568-12.792,4.649-28.57,4.649m21.986,8.494a2.237,2.237,0,1,1,2.239-2.239,2.239,2.239,0,0,1-2.239,2.239" transform="translate(423.625 334.809)" fill="#fd7044"/>
          <path id="Path_16946" data-name="Path 16946" d="M277.442,177.942c-15.779,0-28.57-2.081-28.57-4.649V188.4c0,2.568,12.792,4.649,28.57,4.649s28.57-2.081,28.57-4.649V173.293c0,2.568-12.792,4.649-28.57,4.649m21.986,8.494a2.237,2.237,0,1,1,2.239-2.239,2.239,2.239,0,0,1-2.239,2.239" transform="translate(423.625 308.756)" fill="#fd7044"/>
          <path id="Path_16947" data-name="Path 16947" d="M347.306,58.752H248.952a4.646,4.646,0,0,0-4.646,4.646v60.327a4.644,4.644,0,0,0,4.646,4.646h98.353a4.642,4.642,0,0,0,4.644-4.646V63.4a4.644,4.644,0,0,0-4.644-4.646" transform="translate(415.349 101.14)" fill="#f29d8d"/>
          <path id="Path_16948" data-name="Path 16948" d="M347.306,58.752H248.952a4.646,4.646,0,0,0-4.646,4.646v4.807H351.949V63.4a4.644,4.644,0,0,0-4.644-4.646" transform="translate(415.349 101.14)" fill="#8e4b32"/>
          <path id="Path_16949" data-name="Path 16949" d="M277.667,59.491a2.649,2.649,0,1,0,2.65,2.649,2.65,2.65,0,0,0-2.65-2.649" transform="translate(471.017 102.48)" fill="#7b2a0a"/>
          <path id="Path_16950" data-name="Path 16950" d="M280.126,59.491a2.649,2.649,0,1,0,2.647,2.649,2.651,2.651,0,0,0-2.647-2.649" transform="translate(475.469 102.48)" fill="#923e28"/>
          <path id="Path_16951" data-name="Path 16951" d="M282.644,59.491a2.649,2.649,0,1,0,2.649,2.649,2.65,2.65,0,0,0-2.649-2.649" transform="translate(480.037 102.48)" fill="#fff"/>
          <rect id="Rectangle_8352" data-name="Rectangle 8352" width="31.372" height="3.479" transform="translate(696.486 183.434)" fill="#ee6e48"/>
          <rect id="Rectangle_8353" data-name="Rectangle 8353" width="23.96" height="3.479" transform="translate(668.422 183.434)" fill="#fff"/>
          <rect id="Rectangle_8354" data-name="Rectangle 8354" width="53.788" height="3.479" transform="translate(702.448 189.551)" fill="#8e4b32"/>
          <rect id="Rectangle_8355" data-name="Rectangle 8355" width="53.788" height="3.479" transform="translate(687.817 175.196)" fill="#8e4b32"/>
          <rect id="Rectangle_8356" data-name="Rectangle 8356" width="13.073" height="3.479" transform="translate(685.157 189.551)" fill="#f48171"/>
          <rect id="Rectangle_8357" data-name="Rectangle 8357" width="12.631" height="3.479" transform="translate(668.422 189.551)" fill="#fff"/>
          <rect id="Rectangle_8358" data-name="Rectangle 8358" width="15.376" height="3.479" transform="translate(668.422 175.196)" fill="#fff"/>
          <rect id="Rectangle_8359" data-name="Rectangle 8359" width="28.379" height="3.479" transform="translate(727.855 195.669)" fill="#8e4b32"/>
          <rect id="Rectangle_8360" data-name="Rectangle 8360" width="38.482" height="3.479" transform="translate(685.157 195.669)" fill="#f48171"/>
          <rect id="Rectangle_8361" data-name="Rectangle 8361" width="17.421" height="3.479" transform="translate(727.855 201.789)" fill="#ee6e48"/>
          <rect id="Rectangle_8362" data-name="Rectangle 8362" width="55.329" height="3.479" transform="translate(668.422 201.789)" fill="#fff"/>
          <rect id="Rectangle_8363" data-name="Rectangle 8363" width="24.163" height="3.479" transform="translate(732.073 207.906)" fill="#8e4b32"/>
          <rect id="Rectangle_8364" data-name="Rectangle 8364" width="42.698" height="3.479" transform="translate(685.157 207.906)" fill="#f48171"/>
          <rect id="Rectangle_8365" data-name="Rectangle 8365" width="12.631" height="3.479" transform="translate(668.422 207.906)" fill="#fff"/>
          <rect id="Rectangle_8366" data-name="Rectangle 8366" width="40.459" height="3.479" transform="translate(715.774 214.023)" fill="#8e4b32"/>
          <rect id="Rectangle_8367" data-name="Rectangle 8367" width="15.073" height="3.479" transform="translate(696.486 214.023)" fill="#f48171"/>
          <rect id="Rectangle_8368" data-name="Rectangle 8368" width="23.96" height="3.479" transform="translate(668.422 214.023)" fill="#fff"/>
          <rect id="Rectangle_8369" data-name="Rectangle 8369" width="53.38" height="3.479" transform="translate(685.157 220.141)" fill="#ee6e48"/>
          <rect id="Rectangle_8370" data-name="Rectangle 8370" width="12.631" height="3.479" transform="translate(668.422 220.141)" fill="#fff"/>
          <path id="Path_16952" data-name="Path 16952" d="M224.737,181.985l-65.061-.61a14.505,14.505,0,0,0-12.451,6.88L138.247,203.1l-56.764-.534c-7.777-.073-14.372,6.151-14.316,13.509l1.71,65.218c.051,6.59,5.462,11.726,12.426,11.79L209.4,294.286c7.031.065,13.245-5.06,14.2-11.712l13.447-87c1.041-7.287-4.6-13.517-12.3-13.59" transform="translate(94.268 323.404)" fill="#ef7c59"/>
          <path id="Path_16953" data-name="Path 16953" d="M69.48,214.662l99.374.934,1.78-23.811-99.374-.934Z" transform="translate(98.461 340.582)" fill="#fff"/>
          <path id="Path_16954" data-name="Path 16954" d="M235.488,186.819l-27.316-.256-43.438-.411a15.765,15.765,0,0,0-13.543,7.484l-9.765,16.139L79.693,209.2c-8.455-.079-15.627,6.691-15.568,14.693l1.586,65.055.177,7.172c.053,7.169,5.94,12.752,13.512,12.826l139.308,1.311c7.647.073,14.4-5.5,15.436-12.735L248.868,201.6c1.133-7.923-5-14.7-13.38-14.777" transform="translate(88.754 332.064)" fill="#f3ce90"/>
          <g id="Group_9771" data-name="Group 9771" transform="translate(154.465 518.625)" opacity="0.31">
            <g id="Group_9770" data-name="Group 9770">
              <g id="Group_9769" data-name="Group 9769" clip-path="url(#clip-path-26)">
                <path id="Path_16955" data-name="Path 16955" d="M234.465,186.554,207.15,186.3c5.988,17.137,21.812,68.565-2.455,87.885-22.678,18.054-104.353,14.426-140.005,14.5l.177,7.172c.053,7.169,5.94,12.752,13.512,12.825l139.308,1.311c7.647.073,14.4-5.5,15.435-12.735l14.724-95.921c1.133-7.923-5-14.7-13.38-14.777" transform="translate(-64.688 -186.296)" fill="#ef7c59"/>
              </g>
            </g>
          </g>
          <path id="Path_16956" data-name="Path 16956" d="M118.9,199.9c-20.287.034-36.741,16.215-36.673,36.069s16.625,35.979,36.912,35.942,36.738-16.215,36.673-36.069S139.186,199.863,118.9,199.9m.014,4.97c5.746-.011,12.148,11.582,12.778,28.528l-25.361.045c.518-16.949,6.843-28.565,12.584-28.573M108.261,206.7c-4.073,6-6.708,15.525-7.015,26.756l-13.841.025A31.15,31.15,0,0,1,108.261,206.7M87.423,238.447l13.841-.025c.38,11.231,3.08,20.746,7.192,26.731a31.274,31.274,0,0,1-21.033-26.706m31.7,28.494c-5.743.011-12.148-11.582-12.778-28.528l25.364-.045c-.518,16.949-6.843,28.565-12.586,28.573m10.651-1.825c4.075-6,6.711-15.526,7.017-26.756l13.841-.025a31.153,31.153,0,0,1-20.858,26.782m7-31.726c-.383-11.231-3.08-20.746-7.195-26.731a31.277,31.277,0,0,1,21.035,26.706Z" transform="translate(121.562 356.984)" fill="#fff"/>
          <path id="Path_16957" data-name="Path 16957" d="M139.727,94.867H20.256a1.043,1.043,0,0,0-1.043,1.041v28.117a1.042,1.042,0,0,0,1.043,1.041h119.47a1.04,1.04,0,0,0,1.041-1.041V95.908a1.04,1.04,0,0,0-1.041-1.041" transform="translate(7.347 166.602)" fill="#fd7044"/>
          <rect id="Rectangle_8372" data-name="Rectangle 8372" width="105.939" height="5.378" transform="translate(34.371 291.665)" fill="#7e2902"/>
          <path id="Path_16958" data-name="Path 16958" d="M70.04,97.36H51.283a2.934,2.934,0,0,0-2.934,2.934v9.523a2.934,2.934,0,0,0,2.934,2.936H70.04a2.934,2.934,0,0,0,2.934-2.936v-9.523A2.934,2.934,0,0,0,70.04,97.36" transform="translate(60.159 171.121)" fill="#b53a02"/>
          <rect id="Rectangle_8373" data-name="Rectangle 8373" width="16.918" height="2.585" transform="translate(112.184 272.472)" fill="#fff"/>
          <rect id="Rectangle_8374" data-name="Rectangle 8374" width="16.918" height="2.585" transform="translate(112.184 278.08)" fill="#fff"/>
          <path id="Path_16959" data-name="Path 16959" d="M60.689,97.36H58.768a.518.518,0,0,0-.518.518v14.355a.52.52,0,0,0,.518.52h1.921a.518.518,0,0,0,.515-.52V97.878a.516.516,0,0,0-.515-.518" transform="translate(78.105 171.121)" fill="#fea9b7"/>
          <path id="Path_16960" data-name="Path 16960" d="M41.179,98.671a2.893,2.893,0,1,0,2.979,2.891,2.935,2.935,0,0,0-2.979-2.891" transform="translate(41.763 173.497)" fill="#fd4c19"/>
          <path id="Path_16961" data-name="Path 16961" d="M37.258,98.671a2.893,2.893,0,1,0,2.979,2.891,2.935,2.935,0,0,0-2.979-2.891" transform="translate(34.656 173.497)" fill="#7e2902"/>
          <path id="Path_16962" data-name="Path 16962" d="M33.337,98.671a2.893,2.893,0,1,0,2.979,2.891,2.935,2.935,0,0,0-2.979-2.891" transform="translate(27.549 173.497)" fill="#fea4a6"/>
          <path id="Path_16963" data-name="Path 16963" d="M29.417,98.671a2.893,2.893,0,1,0,2.979,2.891,2.933,2.933,0,0,0-2.979-2.891" transform="translate(20.443 173.497)" fill="#fea9b7"/>
          <path id="Path_16964" data-name="Path 16964" d="M25.5,98.671a2.893,2.893,0,1,0,2.979,2.891A2.933,2.933,0,0,0,25.5,98.671" transform="translate(13.336 173.497)" fill="#fff"/>
          <path id="Path_16965" data-name="Path 16965" d="M64.378,96.481H62.432v21.9h1.946a2.677,2.677,0,0,0,2.678-2.678V99.159a2.677,2.677,0,0,0-2.678-2.678" transform="translate(85.686 169.528)" fill="#b53a02"/>
          <path id="Path_16966" data-name="Path 16966" d="M17.569,99.16V115.7a2.677,2.677,0,0,0,2.678,2.678H22.2v-21.9H20.247a2.677,2.677,0,0,0-2.678,2.678" transform="translate(4.367 169.529)" fill="#b53a02"/>
          <rect id="Rectangle_8375" data-name="Rectangle 8375" width="105.939" height="5.378" transform="translate(34.371 256.063)" fill="#7e2902"/>
          <path id="Path_16967" data-name="Path 16967" d="M139.727,107.515H20.256a1.043,1.043,0,0,0-1.043,1.041v28.117a1.043,1.043,0,0,0,1.043,1.041h119.47a1.04,1.04,0,0,0,1.041-1.041V108.556a1.04,1.04,0,0,0-1.041-1.041" transform="translate(7.347 189.528)" fill="#fd7044"/>
          <rect id="Rectangle_8376" data-name="Rectangle 8376" width="105.939" height="5.378" transform="translate(34.371 327.242)" fill="#7e2902"/>
          <path id="Path_16968" data-name="Path 16968" d="M70.04,110.008H51.283a2.934,2.934,0,0,0-2.934,2.934v9.523a2.934,2.934,0,0,0,2.934,2.936H70.04a2.934,2.934,0,0,0,2.934-2.936v-9.523a2.934,2.934,0,0,0-2.934-2.934" transform="translate(60.159 194.047)" fill="#b53a02"/>
          <rect id="Rectangle_8377" data-name="Rectangle 8377" width="16.918" height="2.585" transform="translate(112.184 308.046)" fill="#fff"/>
          <rect id="Rectangle_8378" data-name="Rectangle 8378" width="16.918" height="2.585" transform="translate(112.184 313.654)" fill="#fff"/>
          <path id="Path_16969" data-name="Path 16969" d="M60.689,110.008H58.768a.518.518,0,0,0-.518.518v14.355a.52.52,0,0,0,.518.52h1.921a.518.518,0,0,0,.515-.52V110.526a.516.516,0,0,0-.515-.518" transform="translate(78.105 194.047)" fill="#fea9b7"/>
          <path id="Path_16970" data-name="Path 16970" d="M41.179,112.169a2.66,2.66,0,1,0,2.979,2.641,2.824,2.824,0,0,0-2.979-2.641" transform="translate(41.763 197.964)" fill="#db3d02"/>
          <path id="Path_16971" data-name="Path 16971" d="M37.258,112.169a2.66,2.66,0,1,0,2.979,2.641,2.824,2.824,0,0,0-2.979-2.641" transform="translate(34.656 197.964)" fill="#fd4c19"/>
          <path id="Path_16972" data-name="Path 16972" d="M33.337,112.169a2.66,2.66,0,1,0,2.979,2.641,2.824,2.824,0,0,0-2.979-2.641" transform="translate(27.549 197.964)" fill="#7e2902"/>
          <path id="Path_16973" data-name="Path 16973" d="M29.417,112.169a2.66,2.66,0,1,0,0,5.282,2.66,2.66,0,1,0,0-5.282" transform="translate(20.443 197.964)" fill="#fea9b7"/>
          <path id="Path_16974" data-name="Path 16974" d="M25.5,112.169a2.66,2.66,0,1,0,0,5.282,2.66,2.66,0,1,0,0-5.282" transform="translate(13.336 197.964)" fill="#fff"/>
          <path id="Path_16975" data-name="Path 16975" d="M64.378,109.13H62.432v21.9h1.946a2.677,2.677,0,0,0,2.678-2.678V111.808a2.677,2.677,0,0,0-2.678-2.678" transform="translate(85.686 192.455)" fill="#b53a02"/>
          <path id="Path_16976" data-name="Path 16976" d="M17.569,111.808v16.544a2.677,2.677,0,0,0,2.678,2.678H22.2v-21.9H20.247a2.677,2.677,0,0,0-2.678,2.678" transform="translate(4.367 192.455)" fill="#b53a02"/>
          <path id="Path_16977" data-name="Path 16977" d="M139.727,120.164H20.256a1.042,1.042,0,0,0-1.043,1.041v28.118a1.043,1.043,0,0,0,1.043,1.041h119.47a1.04,1.04,0,0,0,1.041-1.041V121.2a1.04,1.04,0,0,0-1.041-1.041" transform="translate(7.347 212.455)" fill="#fd7044"/>
          <rect id="Rectangle_8379" data-name="Rectangle 8379" width="105.939" height="5.378" transform="translate(34.371 362.815)" fill="#7e2902"/>
          <path id="Path_16978" data-name="Path 16978" d="M70.04,122.657H51.283a2.934,2.934,0,0,0-2.934,2.934v9.523a2.934,2.934,0,0,0,2.934,2.936H70.04a2.936,2.936,0,0,0,2.934-2.936v-9.523a2.934,2.934,0,0,0-2.934-2.934" transform="translate(60.159 216.974)" fill="#b53a02"/>
          <rect id="Rectangle_8380" data-name="Rectangle 8380" width="16.918" height="2.585" transform="translate(112.184 343.622)" fill="#fff"/>
          <rect id="Rectangle_8381" data-name="Rectangle 8381" width="16.918" height="2.585" transform="translate(112.184 349.23)" fill="#fff"/>
          <path id="Path_16979" data-name="Path 16979" d="M60.689,122.657H58.768a.518.518,0,0,0-.518.518V137.53a.52.52,0,0,0,.518.52h1.921a.518.518,0,0,0,.515-.52V123.175a.516.516,0,0,0-.515-.518" transform="translate(78.105 216.974)" fill="#fea9b7"/>
          <path id="Path_16980" data-name="Path 16980" d="M41.179,125.667a2.607,2.607,0,1,0,2.979,2.582,2.8,2.8,0,0,0-2.979-2.582" transform="translate(41.763 222.43)" fill="#7e2902"/>
          <path id="Path_16981" data-name="Path 16981" d="M37.258,125.667a2.607,2.607,0,1,0,0,5.161,2.607,2.607,0,1,0,0-5.161" transform="translate(34.656 222.43)" fill="#fea4a6"/>
          <path id="Path_16982" data-name="Path 16982" d="M33.337,125.667a2.607,2.607,0,1,0,0,5.161,2.607,2.607,0,1,0,0-5.161" transform="translate(27.549 222.43)" fill="#fea9b7"/>
          <path id="Path_16983" data-name="Path 16983" d="M29.417,125.667a2.607,2.607,0,1,0,0,5.161,2.607,2.607,0,1,0,0-5.161" transform="translate(20.443 222.43)" fill="#fea9b7"/>
          <path id="Path_16984" data-name="Path 16984" d="M25.5,125.667a2.607,2.607,0,1,0,0,5.161,2.607,2.607,0,1,0,0-5.161" transform="translate(13.336 222.43)" fill="#fff"/>
          <path id="Path_16985" data-name="Path 16985" d="M64.378,121.778H62.432v21.9h1.946A2.677,2.677,0,0,0,67.056,141V124.456a2.677,2.677,0,0,0-2.678-2.678" transform="translate(85.686 215.381)" fill="#b53a02"/>
          <path id="Path_16986" data-name="Path 16986" d="M17.569,124.457V141a2.677,2.677,0,0,0,2.678,2.678H22.2v-21.9H20.247a2.677,2.677,0,0,0-2.678,2.678" transform="translate(4.367 215.383)" fill="#b53a02"/>
        </g>
      </g>
    </g>
  </g>
</svg>
