<svg xmlns="http://www.w3.org/2000/svg" xmlns:xlink="http://www.w3.org/1999/xlink" width="142" height="142" viewBox="0 0 142 142">
  <defs>
    <clipPath id="clip-path">
      <rect id="Rectangle_8413" data-name="Rectangle 8413" width="82.05" height="77.813" transform="translate(0 0)" fill="none"/>
    </clipPath>
  </defs>
  <g id="Group_5677" data-name="Group 5677" transform="translate(-440 -3007)">
    <rect id="Rectangle_4906" data-name="Rectangle 4906" width="142" height="142" rx="71" transform="translate(440 3007)" fill="#fff"/>
    <g id="Group_9821" data-name="Group 9821" transform="translate(469.975 3039.094)">
      <g id="Group_9821-2" data-name="Group 9821" clip-path="url(#clip-path)">
        <path id="Path_17221" data-name="Path 17221" d="M0,52.744c7.418.007,14.837.034,22.255,0,1.162-.006,1.7.152,1.66,1.533-.094,3.2-.011,3.2-3.179,3.194L0,57.454Z" fill="#f40"/>
        <path id="Path_17222" data-name="Path 17222" d="M71.539,18.587c-1.237-1.212-1.333-2.3-.321-3.634a1.917,1.917,0,0,0,.495-1.394,2.237,2.237,0,0,0-1.02-1.361c-.291-.213-.589-.417-.886-.622L69.7,11.5c-1.83-1.261-2.329-1.18-3.572.563a1.86,1.86,0,0,1-2.7.655A30.022,30.022,0,0,0,52.663,9.252a2.551,2.551,0,0,1-1.844-.878,2.48,2.48,0,0,1-.309-1.981,2.465,2.465,0,0,0,.048-.5,1.756,1.756,0,0,1,.377-1.575,1.9,1.9,0,0,1,1.708-.413c.091.011.183.021.255.024,1.449-.089,1.672-.584,1.777-1.084.351-1.674-.094-2.242-1.04-2.7L53.343,0H41.935l-.342.141c-.968.4-1.424.952-1.062,2.734.109.539.316.989,1.748,1.046.086,0,.177,0,.271-.008a1.984,1.984,0,0,1,1.7.511A1.79,1.79,0,0,1,44.6,5.989a2.324,2.324,0,0,0,.037.471,2.165,2.165,0,0,1-2.088,2.781,33.945,33.945,0,0,0-20.29,10.683,26.5,26.5,0,0,0-1.836,2.148h.074c1.627-.006,3.176-.01,4.725.02a1.435,1.435,0,0,0,1.106-.481c7.828-7.343,17.04-10.049,27.376-8.035A30.267,30.267,0,0,1,73.159,26.86a29.48,29.48,0,0,1,4.135,22.885c-2.678,11.472-9.887,19.293-20.849,22.618-11.141,3.377-21.281.929-30.136-7.284A4.128,4.128,0,0,1,26,64.754c-.034-.04-.08-.093-.118-.133-1.775-.015-3.552-.013-5.379-.012h-.038C29,75.039,39.913,79.319,52.924,77.346a34.058,34.058,0,0,0,29.1-33.039A33.184,33.184,0,0,0,71.539,18.587Z"/>
        <path id="Path_17223" data-name="Path 17223" d="M48.048,38.368A2.193,2.193,0,0,0,49.9,37.9c4.532-2.987,9.4-5.5,13.309-9.366.5-.492,1.988.947,1.32,1.449-4.47,3.359-7.747,7.861-11.439,11.969a2.4,2.4,0,0,0-.528,1.635,4.983,4.983,0,0,1-4.031,4.664,5.049,5.049,0,0,1-5.484-2.822,5,5,0,0,1,5-7.064" fill="#f40"/>
        <path id="Path_17224" data-name="Path 17224" d="M23.754,33.882c-3.508,0-7.017-.039-10.524.027-1.058.019-1.325-.314-1.316-1.334.028-3.382-.01-3.382,3.427-3.382,6.324,0,12.648.024,18.972-.021,1.082-.008,1.541.18,1.515,1.41-.069,3.3-.009,3.3-3.349,3.3q-4.364,0-8.725,0" fill="#f40"/>
        <path id="Path_17225" data-name="Path 17225" d="M15.944,41.051c3.55,0,7.1.026,10.649-.018.9-.011,1.166.265,1.173,1.169.025,3.4.058,3.41-3.35,3.413-6.362.006-12.724-.025-19.085.027-1.148.01-1.491-.313-1.47-1.468.057-3.128,0-3.129,3.094-3.128h8.989Z" fill="#f40"/>
        <path id="Path_17226" data-name="Path 17226" d="M34.957,58.9c0-2.783,1.584-4.39,3.8-4.39s3.8,1.607,3.8,4.39-1.583,4.389-3.8,4.389-3.8-1.607-3.8-4.389m4.762,0c0-1.619-.408-2.123-.959-2.123s-.96.5-.96,2.123.408,2.122.96,2.122.959-.5.959-2.122"/>
        <path id="Path_17227" data-name="Path 17227" d="M54.811,59.356V63.1H52.1V59.824c0-.816-.3-1.127-.732-1.127-.48,0-.851.323-.851,1.2v3.2H47.807V59.824c0-.816-.276-1.127-.732-1.127-.479,0-.851.323-.851,1.2v3.2H43.513v-6.56h2.579v.611a2.561,2.561,0,0,1,1.859-.731,2.344,2.344,0,0,1,2.05,1,2.78,2.78,0,0,1,2.195-1c1.488,0,2.615.875,2.615,2.938"/>
        <path id="Path_17228" data-name="Path 17228" d="M55.586,62.571l.744-1.787a4.753,4.753,0,0,0,2.29.588c.66,0,.84-.12.84-.313,0-.672-3.778.229-3.778-2.4,0-1.236,1.151-2.243,3.358-2.243a6.18,6.18,0,0,1,2.674.54l-.743,1.787a3.885,3.885,0,0,0-1.9-.48c-.7,0-.887.156-.887.312,0,.683,3.766-.2,3.766,2.423,0,1.187-1.116,2.218-3.394,2.218a6.582,6.582,0,0,1-2.975-.647"/>
      </g>
    </g>
  </g>
</svg>
