<svg id="Group_1461" data-name="Group 1461" xmlns="http://www.w3.org/2000/svg" xmlns:xlink="http://www.w3.org/1999/xlink" width="643.346" height="591.595" viewBox="0 0 643.346 591.595">
  <defs>
    <clipPath id="clip-path">
      <rect id="Rectangle_974" data-name="Rectangle 974" width="643.346" height="591.595" fill="none"/>
    </clipPath>
    <clipPath id="clip-path-3">
      <path id="Path_1861" data-name="Path 1861" d="M444.8,6.81c-1.716.071-3.433.161-5.149.291a140.3,140.3,0,0,0-45.4,11.092c-107.74,46.695-116.353,76-216.8,72.377C47.663,85.9.435,163.794,0,256.507v2.578c.423,91.826,46.156,197.488,102.737,251.76,114.408,109.739,338.553,58.369,453.147,0S586.05,312.383,616.368,193.3C641.548,94.356,545.893,6.686,451.013,6.683q-3.108,0-6.208.127" transform="translate(0 -6.683)" fill="none"/>
    </clipPath>
    <clipPath id="clip-path-5">
      <rect id="Rectangle_972" data-name="Rectangle 972" width="119.258" height="53.532" fill="none"/>
    </clipPath>
  </defs>
  <g id="Group_661" data-name="Group 661" clip-path="url(#clip-path)">
    <g id="Group_653" data-name="Group 653">
      <g id="Group_652" data-name="Group 652" clip-path="url(#clip-path)">
        <path id="Path_1847" data-name="Path 1847" d="M102.738,510.844c114.405,109.739,338.553,58.372,453.147,0s30.163-198.462,60.483-317.54C642.1,92.2,541.665,2.863,444.8,6.809c-1.714.071-3.433.164-5.147.291a140.357,140.357,0,0,0-45.4,11.092c-107.74,46.7-116.356,76-216.8,72.38-259.168-9.339-189.12,310.536-74.715,420.272" transform="translate(-0.001 12.185)" fill="#e6ebf0"/>
        <path id="Path_1848" data-name="Path 1848" d="M102.738,510.844c114.405,109.739,338.553,58.372,453.147,0s30.163-198.462,60.483-317.54C642.1,92.2,541.665,2.863,444.8,6.809c-1.714.071-3.433.164-5.147.291a140.357,140.357,0,0,0-45.4,11.092c-107.74,46.7-116.356,76-216.8,72.38-259.168-9.339-189.12,310.536-74.715,420.272" transform="translate(-0.001 12.185)" fill="#e6ebf0"/>
        <path id="Path_1849" data-name="Path 1849" d="M64.926,59.6a9.763,9.763,0,0,0,7.467,10.784C92.147,74.948,149.6,82.438,197.663,31.715,253.784-27.524,71.982,4.593,64.926,59.6" transform="translate(118.223 0.001)" fill="#e6ebf0"/>
        <rect id="Rectangle_957" data-name="Rectangle 957" width="535.835" height="4.068" transform="translate(39.008 587.527)"/>
      </g>
    </g>
    <g id="Group_655" data-name="Group 655" transform="translate(0 18.867)">
      <g id="Group_654" data-name="Group 654" clip-path="url(#clip-path-3)">
        <path id="Path_1850" data-name="Path 1850" d="M27.921,53.164,19.9,53.118l-.079-15.731-2.916-.02L16.981,53.1l-8.021-.048.048,24.686,8.023.045.147,14.206,2.919.017-.15-14.2,8.023.045Z" transform="translate(16.337 49.261)" fill="#aab6c2"/>
        <path id="Path_1851" data-name="Path 1851" d="M46.78,47.951,38.757,47.9,38.7,36.98l-2.919-.017.056,10.923-8.023-.048.327,64.636,8.023.048.119,23.72,2.916.017-.119-23.723,8.021.048Z" transform="translate(50.715 48.522)" fill="#c6d0db"/>
        <path id="Path_1852" data-name="Path 1852" d="M65.794,78.212l-8.023-.048-.062-12.523-2.916-.017.062,12.526L46.834,78.1l.186,36.642,8.021.048.161,31.752,2.916.017-.158-31.755,8.021.048Z" transform="translate(85.385 100.775)" fill="#c6d0db"/>
        <path id="Path_1853" data-name="Path 1853" d="M84.62,58.722,76.6,58.674l-.068-13.545-2.916-.017L73.68,58.66l-8.021-.048.375,74.283,8.023.048.141,27.966,2.916.017-.141-27.966,8.021.045Z" transform="translate(119.708 63.379)" fill="#aab6c2"/>
        <path id="Path_1854" data-name="Path 1854" d="M103.535,73.528l-8.023-.048L95.4,50.76l-2.916-.017L92.6,73.466l-8.023-.048.167,32.116,8.021.048.085,16.6,2.916.02L95.675,105.6l8.023.048Z" transform="translate(154.188 73.645)" fill="#c6d0db"/>
        <path id="Path_1855" data-name="Path 1855" d="M122.518,91.326l-8.023-.048-.1-18.788-2.913-.017.093,18.788-8.021-.048.423,83.732,8.021.045.113,22.286,2.919.017-.113-22.286,8.018.048Z" transform="translate(188.803 113.262)" fill="#aab6c2"/>
        <path id="Path_1856" data-name="Path 1856" d="M141.262,64.467l-8.023-.048-.076-15.293-2.916-.017.076,15.3-8.021-.048.347,68.459,8.021.048.1,19.226,2.916.017-.1-19.226,8.023.045Z" transform="translate(222.974 70.666)" fill="#c6d0db"/>
        <path id="Path_1857" data-name="Path 1857" d="M160.034,55.84l-8.023-.048-.082-16.6-2.916-.017.082,16.6-8.021-.048.268,52.725,8.021.048.088,17.478,2.916.017-.088-17.478,8.023.045Z" transform="translate(257.199 52.55)" fill="#aab6c2"/>
        <path id="Path_1858" data-name="Path 1858" d="M178.747,27.824l-8.021-.048-.062-12.236-2.916-.017.062,12.236-8.023-.045.463,91.075,8.021.048.113,22.571,2.916.017-.113-22.571,8.023.045Z" transform="translate(291.316 9.434)" fill="#c6d0db"/>
        <path id="Path_1859" data-name="Path 1859" d="M197.674,43.137l-8.023-.048-.1-18.788-2.913-.017.093,18.791-8.023-.048.243,47.629,8.021.045.048,9.178,2.916.017-.045-9.178,8.021.048Z" transform="translate(325.817 25.406)" fill="#aab6c2"/>
        <path id="Path_1860" data-name="Path 1860" d="M216.518,30.4l-8.023-.048-.028-5.68-2.916-.017.031,5.683-8.023-.048.387,76.177,8.023.045.1,19.082,2.916.02-.1-19.082,8.023.045Z" transform="translate(360.177 26.078)" fill="#aab6c2"/>
      </g>
    </g>
    <g id="Group_660" data-name="Group 660">
      <g id="Group_659" data-name="Group 659" clip-path="url(#clip-path)">
        <rect id="Rectangle_959" data-name="Rectangle 959" width="71.381" height="200.565" transform="translate(343.039 372.078)" fill="#aab6c2"/>
        <rect id="Rectangle_960" data-name="Rectangle 960" width="71.381" height="33.505" transform="translate(343.039 462.562)"/>
        <path id="Path_1862" data-name="Path 1862" d="M321.947,223.466c-5.387-13.345-55.639-23.8-116.864-23.8s-111.475,10.46-116.862,23.8Z" transform="translate(160.84 364.013)"/>
        <path id="Path_1863" data-name="Path 1863" d="M48.18,89.65V343.2a29.076,29.076,0,0,0,29.081,29.084H526.408A29.091,29.091,0,0,0,555.5,343.2V89.65a29.034,29.034,0,0,0-29.1-29.081H77.261c-.584,0-1.169.023-1.742.056A29.083,29.083,0,0,0,48.18,89.65" transform="translate(87.84 110.427)"/>
        <path id="Path_1864" data-name="Path 1864" d="M41.672,89.65V343.2a29.146,29.146,0,0,0,29.1,29.1H519.926c.172,0,.339,0,.5-.011a29.076,29.076,0,0,0,28.6-29.084V89.65a29.088,29.088,0,0,0-29.1-29.081H70.767c-.72,0-1.44.023-2.148.079a29.089,29.089,0,0,0-26.947,29" transform="translate(75.974 110.427)" fill="#aab6c2"/>
        <rect id="Rectangle_961" data-name="Rectangle 961" width="466.224" height="277.536" rx="9.137" transform="translate(138.223 188.087)" fill="#fff"/>
        <path id="Path_1865" data-name="Path 1865" d="M489.846,67.785a25.121,25.121,0,0,1,25.092,25.089V318.819a25.121,25.121,0,0,1-25.092,25.089H75.212a25.117,25.117,0,0,1-25.089-25.089V92.874A25.119,25.119,0,0,1,75.212,67.785Zm0-1.412H75.212a26.5,26.5,0,0,0-26.5,26.5V318.819a26.5,26.5,0,0,0,26.5,26.5H489.846a26.5,26.5,0,0,0,26.5-26.5V92.874a26.5,26.5,0,0,0-26.5-26.5" transform="translate(88.808 121.008)"/>
        <path id="Path_1866" data-name="Path 1866" d="M66.632,236.573l-2.62-1.6L106.919,202.1l44.53,20.558,38.979-42.5,85.087,29.409,40.3-55.678,41.706,17.083,84.144-92.633,2.981,1.27-85.965,94.643-41.41-16.959L277.093,212.8,191.7,183.294l-39.208,42.751-45-20.776Z" transform="translate(116.704 142.822)" fill="#f40"/>
        <rect id="Rectangle_962" data-name="Rectangle 962" width="14.909" height="44.321" transform="translate(174.573 401.069)" fill="#f40"/>
        <rect id="Rectangle_963" data-name="Rectangle 963" width="14.909" height="63.775" transform="translate(216.46 381.614)"/>
        <rect id="Rectangle_964" data-name="Rectangle 964" width="14.909" height="53.524" transform="translate(258.347 391.865)" fill="#f40"/>
        <rect id="Rectangle_965" data-name="Rectangle 965" width="14.912" height="91.315" transform="translate(300.231 354.074)"/>
        <rect id="Rectangle_966" data-name="Rectangle 966" width="14.912" height="78.215" transform="translate(342.118 367.174)" fill="#f40"/>
        <rect id="Rectangle_967" data-name="Rectangle 967" width="14.912" height="67.832" transform="translate(384.005 377.557)" fill="#f40"/>
        <rect id="Rectangle_968" data-name="Rectangle 968" width="14.912" height="109.476" transform="translate(425.893 335.913)"/>
        <rect id="Rectangle_969" data-name="Rectangle 969" width="14.909" height="103.085" transform="translate(467.777 342.305)" fill="#f40"/>
        <rect id="Rectangle_970" data-name="Rectangle 970" width="14.912" height="141.324" transform="translate(509.664 304.065)"/>
        <rect id="Rectangle_971" data-name="Rectangle 971" width="14.909" height="190.258" transform="translate(551.551 255.131)" fill="#f40"/>
        <path id="Path_1867" data-name="Path 1867" d="M211.824,83.969a8.211,8.211,0,1,1-8.213-8.21,8.215,8.215,0,0,1,8.213,8.21" transform="translate(356.248 138.12)" fill="#f40"/>
        <path id="Path_1868" data-name="Path 1868" d="M177.768,115.466a5.66,5.66,0,1,1-5.66-5.66,5.662,5.662,0,0,1,5.66,5.66" transform="translate(303.459 200.193)" fill="#f40"/>
        <path id="Path_1869" data-name="Path 1869" d="M162.816,109.171a5.662,5.662,0,1,1-5.663-5.66,5.662,5.662,0,0,1,5.663,5.66" transform="translate(276.193 188.716)" fill="#f40"/>
        <path id="Path_1870" data-name="Path 1870" d="M148.628,128.8a5.662,5.662,0,1,1-5.663-5.663,5.662,5.662,0,0,1,5.663,5.663" transform="translate(250.326 224.496)" fill="#f40"/>
        <path id="Path_1871" data-name="Path 1871" d="M118.63,118.8a5.662,5.662,0,1,1-5.66-5.66,5.66,5.66,0,0,1,5.66,5.66" transform="translate(195.635 206.266)" fill="#f40"/>
        <path id="Path_1872" data-name="Path 1872" d="M104.63,133.713a5.662,5.662,0,1,1-5.66-5.66,5.662,5.662,0,0,1,5.66,5.66" transform="translate(170.111 233.46)" fill="#f40"/>
        <path id="Path_1873" data-name="Path 1873" d="M88.629,126.525a5.66,5.66,0,1,1-5.66-5.66,5.662,5.662,0,0,1,5.66,5.66" transform="translate(140.944 220.356)" fill="#f40"/>
        <path id="Path_1874" data-name="Path 1874" d="M62.8,76.779v4.13H193.959l.152-4.13Z" transform="translate(114.495 139.981)"/>
        <path id="Path_1875" data-name="Path 1875" d="M62.8,81.18v4.127H299.768l.155-4.127Z" transform="translate(114.495 148.004)"/>
        <path id="Path_1876" data-name="Path 1876" d="M62.8,85.581v4.127H282.817l.15-4.127Z" transform="translate(114.495 156.028)"/>
        <path id="Path_1877" data-name="Path 1877" d="M114.12,80.91h40.49l.152-4.13H114.27Z" transform="translate(208.058 139.981)"/>
        <path id="Path_1878" data-name="Path 1878" d="M62.8,89.693v4.127H193.959l.152-4.127Z" transform="translate(114.495 163.524)"/>
        <path id="Path_1879" data-name="Path 1879" d="M62.8,94.094v4.127H299.768l.155-4.127Z" transform="translate(114.495 171.548)"/>
        <path id="Path_1880" data-name="Path 1880" d="M62.8,98.494v4.13H282.817l.15-4.13Z" transform="translate(114.495 179.57)"/>
        <path id="Path_1881" data-name="Path 1881" d="M114.12,93.821h40.49l.152-4.127H114.27Z" transform="translate(208.058 163.525)"/>
        <path id="Path_1882" data-name="Path 1882" d="M157.871,214.036a2.356,2.356,0,0,0,2.332,2.355l16.767.051,77.874.237a2.336,2.336,0,0,0,2.346-2.335l.028-8.469a2.351,2.351,0,0,0-2.335-2.355l-8.1-.02-69.588-.217-16.95-.051a2.411,2.411,0,0,0-.864.164,2.345,2.345,0,0,0-1.479,2.171Z" transform="translate(287.823 370.523)" fill="#f40"/>
        <path id="Path_1883" data-name="Path 1883" d="M160.468,217.074a2.776,2.776,0,0,1-2.744-2.769l.028-8.469a2.76,2.76,0,0,1,1.748-2.558,2.818,2.818,0,0,1,1.014-.192l94.643.288a2.773,2.773,0,0,1,2.744,2.77l-.031,8.469a2.757,2.757,0,0,1-2.758,2.75Zm-.663-13.023a1.926,1.926,0,0,0-1.22,1.784l-.031,8.469a1.941,1.941,0,0,0,1.917,1.937l94.643.288a1.925,1.925,0,0,0,1.925-1.92l.031-8.469a1.939,1.939,0,0,0-1.92-1.934l-94.638-.291a1.986,1.986,0,0,0-.709.136" transform="translate(287.555 370.255)"/>
        <path id="Path_1884" data-name="Path 1884" d="M154.7,209.43a2.335,2.335,0,0,0,2.332,2.343l8.122.02,17.5.059,69.018.22a2.261,2.261,0,0,0,.881-.178,2.332,2.332,0,0,0,1.462-2.16l.017-8.478a2.332,2.332,0,0,0-2.332-2.346l-62.866-.192-31.763-.093a2.328,2.328,0,0,0-2.343,2.332Z" transform="translate(282.047 362.126)" fill="#f40"/>
        <path id="Path_1885" data-name="Path 1885" d="M157.3,212.456a2.761,2.761,0,0,1-2.75-2.761l.031-8.469a2.733,2.733,0,0,1,.813-1.954,2.775,2.775,0,0,1,1.948-.793l94.629.288a2.747,2.747,0,0,1,2.75,2.761l-.023,8.481a2.739,2.739,0,0,1-1.714,2.538,2.637,2.637,0,0,1-1.047.206Zm-1.318-12.594a1.911,1.911,0,0,0-.567,1.366l-.031,8.469a1.927,1.927,0,0,0,1.92,1.928l94.638.3a1.888,1.888,0,0,0,.726-.141,1.92,1.92,0,0,0,1.2-1.776l.02-8.484a1.877,1.877,0,0,0-.556-1.355,1.914,1.914,0,0,0-1.364-.57l-94.632-.285h-.011a1.894,1.894,0,0,0-1.344.55" transform="translate(281.778 361.858)"/>
        <path id="Path_1886" data-name="Path 1886" d="M156.924,204.767a2.345,2.345,0,0,0,2.335,2.355l25.555.082c.008-.011.008,0,.008,0l69.066.206a2.351,2.351,0,0,0,2.354-2.335l.023-8.469a2.339,2.339,0,0,0-1.587-2.219,2.257,2.257,0,0,0-.751-.136L198,194.079l-32.562-.093-6.138-.02a2.348,2.348,0,0,0-2.355,2.332Z" transform="translate(286.097 353.63)" fill="#f40"/>
        <path id="Path_1887" data-name="Path 1887" d="M159.524,207.807a2.75,2.75,0,0,1-1.951-.819,2.715,2.715,0,0,1-.8-1.951l.02-8.475a2.778,2.778,0,0,1,2.77-2.744l94.629.288a2.6,2.6,0,0,1,.886.158,2.742,2.742,0,0,1,1.866,2.611l-.023,8.472a2.777,2.777,0,0,1-2.772,2.747Zm-1.9-11.239-.02,8.472a1.933,1.933,0,0,0,1.92,1.937l25.394.082.087-.076.178.076,68.967.206a1.942,1.942,0,0,0,1.939-1.92l.023-8.472a1.916,1.916,0,0,0-1.3-1.824,1.878,1.878,0,0,0-.615-.11l-94.629-.291a1.946,1.946,0,0,0-1.939,1.92" transform="translate(285.829 353.36)"/>
        <path id="Path_1888" data-name="Path 1888" d="M157.871,186.235a2.353,2.353,0,0,0,2.332,2.352l16.767.054,77.874.237a2.339,2.339,0,0,0,2.346-2.338l.028-8.469a2.351,2.351,0,0,0-2.335-2.354l-8.1-.017-69.588-.217-16.95-.051a2.339,2.339,0,0,0-2.343,2.332Z" transform="translate(287.823 319.838)" fill="#f40"/>
        <path id="Path_1889" data-name="Path 1889" d="M160.468,189.272a2.774,2.774,0,0,1-2.744-2.767l.028-8.472a2.756,2.756,0,0,1,1.748-2.555,2.822,2.822,0,0,1,1.014-.195l94.643.291a2.772,2.772,0,0,1,2.744,2.767l-.031,8.469a2.757,2.757,0,0,1-2.758,2.753Zm-.663-13.02a1.926,1.926,0,0,0-1.22,1.784l-.031,8.469a1.943,1.943,0,0,0,1.917,1.937l94.643.288a1.925,1.925,0,0,0,1.925-1.92l.031-8.469a1.942,1.942,0,0,0-1.92-1.937l-94.638-.288a1.986,1.986,0,0,0-.709.136" transform="translate(287.555 319.568)"/>
        <path id="Path_1890" data-name="Path 1890" d="M159.378,200.164a2.34,2.34,0,0,0,1.587,2.219,2.213,2.213,0,0,0,.748.124l31.628.1,56.864.178,6.149.02a2.334,2.334,0,0,0,2.343-2.335l.028-8.481a2.339,2.339,0,0,0-2.332-2.343l-12.727-.04-57.366-.178c0,.011-.011,0-.011,0l-24.533-.071a2.229,2.229,0,0,0-.517.062,2.339,2.339,0,0,0-1.829,2.273Z" transform="translate(290.571 345.232)" fill="#f40"/>
        <path id="Path_1891" data-name="Path 1891" d="M161.979,203.192a2.737,2.737,0,0,1-2.747-2.758l.028-8.469a2.753,2.753,0,0,1,2.146-2.676,2.585,2.585,0,0,1,.615-.076l24.129.073,70.508.217a2.757,2.757,0,0,1,2.75,2.758l-.031,8.481a2.757,2.757,0,0,1-2.758,2.75Zm24.48-13-.073-.073-24.364-.073a1.734,1.734,0,0,0-.429.054,1.92,1.92,0,0,0-1.5,1.866l-.031,8.469a1.921,1.921,0,0,0,1.92,1.928l94.641.3a1.923,1.923,0,0,0,1.925-1.92l.034-8.478a1.925,1.925,0,0,0-1.92-1.928l-70.009-.215Z" transform="translate(290.304 344.963)"/>
        <path id="Path_1892" data-name="Path 1892" d="M154.7,195.514a2.335,2.335,0,0,0,2.332,2.343l12.727.042,24.937.071,56.98.175a2.06,2.06,0,0,0,.511-.062,2.348,2.348,0,0,0,1.832-2.261l.017-8.481a2.312,2.312,0,0,0-1.776-2.27,1.88,1.88,0,0,0-.556-.076l-53.976-.161-40.653-.124a2.459,2.459,0,0,0-.6.071,2.328,2.328,0,0,0-1.747,2.261Z" transform="translate(282.047 336.755)" fill="#f40"/>
        <path id="Path_1893" data-name="Path 1893" d="M157.3,198.543a2.761,2.761,0,0,1-2.75-2.761l.031-8.472a2.742,2.742,0,0,1,2.058-2.659,2.642,2.642,0,0,1,.706-.087l94.626.288a2.372,2.372,0,0,1,.655.082,2.718,2.718,0,0,1,2.095,2.679L254.7,196.1a2.763,2.763,0,0,1-2.143,2.659,2.6,2.6,0,0,1-.615.073Zm-.452-13.091a1.917,1.917,0,0,0-1.434,1.86l-.031,8.469a1.927,1.927,0,0,0,1.92,1.928l94.641.285a1.844,1.844,0,0,0,.424-.051,1.927,1.927,0,0,0,1.5-1.855l.02-8.484a1.9,1.9,0,0,0-1.477-1.869,1.553,1.553,0,0,0-.443-.056l-94.626-.288a1.929,1.929,0,0,0-.494.059" transform="translate(281.778 336.487)"/>
        <path id="Path_1894" data-name="Path 1894" d="M154.7,190.914a2.328,2.328,0,0,0,1.779,2.273,1.969,1.969,0,0,0,.553.071l40.419.124,54.224.167a2.209,2.209,0,0,0,.584-.073,2.354,2.354,0,0,0,1.759-2.264l.017-8.469a2.324,2.324,0,0,0-2.332-2.343l-10.1-.028-32.359-.1-52.166-.167a2.119,2.119,0,0,0-.359.031,2.34,2.34,0,0,0-1.985,2.3Z" transform="translate(282.047 328.352)" fill="#f40"/>
        <path id="Path_1895" data-name="Path 1895" d="M157.3,193.942a2.248,2.248,0,0,1-.652-.082,2.74,2.74,0,0,1-2.1-2.676l.031-8.481a2.766,2.766,0,0,1,2.323-2.71,2.45,2.45,0,0,1,.438-.04l94.629.3a2.752,2.752,0,0,1,2.75,2.761l-.023,8.472a2.764,2.764,0,0,1-2.061,2.659,2.657,2.657,0,0,1-.7.085Zm-.254-13.13a1.939,1.939,0,0,0-1.632,1.894l-.031,8.481a1.913,1.913,0,0,0,1.479,1.869,1.451,1.451,0,0,0,.44.056l94.638.288a1.7,1.7,0,0,0,.483-.062,1.929,1.929,0,0,0,1.445-1.858l.02-8.472a1.913,1.913,0,0,0-1.92-1.923l-94.629-.3a1.77,1.77,0,0,0-.294.025" transform="translate(281.778 328.082)"/>
        <g id="Group_658" data-name="Group 658" transform="translate(371.725 534.117)" opacity="0.15">
          <g id="Group_657" data-name="Group 657">
            <g id="Group_656" data-name="Group 656" clip-path="url(#clip-path-5)">
              <path id="Path_1896" data-name="Path 1896" d="M132.963,228.948a2.347,2.347,0,0,1-1.293-2.284l.028-8.475a2.747,2.747,0,0,1,2.761-2.744l3.927.011a2.742,2.742,0,0,1-.8-1.945l.023-8.475a2.759,2.759,0,0,1,2.758-2.744h.006l11.154.031a2.723,2.723,0,0,1-.774-1.911l.025-8.472a2.752,2.752,0,0,1,2.755-2.747h.006l94.641.291a2.752,2.752,0,0,1,2.744,2.761l-.025,8.475a2.759,2.759,0,0,1-2.755,2.747h-.008l-11.151-.034a2.752,2.752,0,0,1,.773,1.914l-.025,8.472a2.76,2.76,0,0,1-2.758,2.747h-.006l-3.927-.011a2.73,2.73,0,0,1,.8,1.945l-.023,8.472a2.706,2.706,0,0,1-1.27,2.25,2.531,2.531,0,0,1,.494.333,2.728,2.728,0,0,1,.8,1.948l-.023,8.472a2.757,2.757,0,0,1-2.755,2.75h-.011l-94.635-.294a2.755,2.755,0,0,1-2.747-2.761l.028-8.472a2.7,2.7,0,0,1,1.265-2.25" transform="translate(-131.67 -189.191)" fill="#191e3f"/>
            </g>
          </g>
        </g>
        <path id="Path_1897" data-name="Path 1897" d="M129.936,216.4l94.635.291a2.344,2.344,0,0,0,2.349-2.335l.025-8.472a2.342,2.342,0,0,0-2.335-2.349l-94.632-.288a2.337,2.337,0,0,0-2.346,2.332l-.028,8.472a2.343,2.343,0,0,0,2.332,2.349" transform="translate(232.642 370.545)" fill="#f40"/>
        <path id="Path_1898" data-name="Path 1898" d="M224.839,217.373l-94.635-.294a2.753,2.753,0,0,1-2.747-2.761l.025-8.472a2.763,2.763,0,0,1,2.761-2.75h0l94.635.294a2.757,2.757,0,0,1,2.75,2.761l-.028,8.475a2.757,2.757,0,0,1-2.755,2.747Zm-96.524-11.527-.028,8.475a1.928,1.928,0,0,0,1.92,1.931l94.635.291h.006a1.923,1.923,0,0,0,1.925-1.92l.025-8.475a1.923,1.923,0,0,0-1.917-1.928l-94.635-.291h-.006a1.926,1.926,0,0,0-1.925,1.917" transform="translate(232.374 370.275)"/>
        <path id="Path_1899" data-name="Path 1899" d="M136.7,202.491l94.632.288a2.34,2.34,0,0,0,2.352-2.332l.023-8.472a2.336,2.336,0,0,0-2.332-2.346l-94.635-.291a2.341,2.341,0,0,0-2.346,2.332l-.028,8.475a2.342,2.342,0,0,0,2.335,2.346" transform="translate(244.966 345.192)" fill="#f40"/>
        <path id="Path_1900" data-name="Path 1900" d="M231.6,203.466l-94.638-.291a2.757,2.757,0,0,1-2.747-2.767l.028-8.472A2.747,2.747,0,0,1,137,189.192H137l94.641.288a2.757,2.757,0,0,1,2.744,2.767l-.025,8.472a2.757,2.757,0,0,1-2.755,2.747Zm-95.956-12.885a1.9,1.9,0,0,0-.573,1.358l-.025,8.472a1.928,1.928,0,0,0,1.92,1.931l94.635.294h.006a1.928,1.928,0,0,0,1.925-1.92l.028-8.472a1.924,1.924,0,0,0-.565-1.366,1.9,1.9,0,0,0-1.352-.565L137,190.022H137a1.893,1.893,0,0,0-1.352.559" transform="translate(244.698 344.926)"/>
        <path id="Path_1901" data-name="Path 1901" d="M129.936,211.79l94.635.294a2.348,2.348,0,0,0,2.349-2.335l.025-8.475a2.34,2.34,0,0,0-2.335-2.346l-94.632-.291a2.34,2.34,0,0,0-2.346,2.335l-.028,8.472a2.339,2.339,0,0,0,2.332,2.346" transform="translate(232.642 362.146)" fill="#f40"/>
        <path id="Path_1902" data-name="Path 1902" d="M224.839,212.765l-94.635-.291a2.747,2.747,0,0,1-2.747-2.764l.025-8.475a2.758,2.758,0,0,1,.813-1.945,2.716,2.716,0,0,1,1.951-.8l94.635.288a2.762,2.762,0,0,1,2.75,2.767l-.028,8.472a2.757,2.757,0,0,1-2.755,2.747ZM128.883,199.88a1.9,1.9,0,0,0-.567,1.361l-.028,8.472a1.923,1.923,0,0,0,1.92,1.931l94.635.291h.006a1.928,1.928,0,0,0,1.925-1.92l.025-8.472a1.928,1.928,0,0,0-1.917-1.931l-94.638-.291h-.006a1.9,1.9,0,0,0-1.355.559" transform="translate(232.374 361.88)"/>
        <path id="Path_1903" data-name="Path 1903" d="M132.032,207.129l94.635.291a2.338,2.338,0,0,0,2.349-2.332l.025-8.475a2.341,2.341,0,0,0-2.332-2.346l-94.635-.288a2.336,2.336,0,0,0-2.346,2.332l-.028,8.472a2.337,2.337,0,0,0,2.332,2.346" transform="translate(236.463 353.654)" fill="#f40"/>
        <path id="Path_1904" data-name="Path 1904" d="M226.934,208.108l-94.635-.294a2.753,2.753,0,0,1-2.747-2.761l.028-8.475a2.756,2.756,0,0,1,2.755-2.747h.006l94.638.291a2.761,2.761,0,0,1,2.75,2.764l-.028,8.472a2.76,2.76,0,0,1-2.758,2.75ZM130.41,196.581l-.025,8.475a1.925,1.925,0,0,0,1.917,1.928l94.635.291h.006a1.932,1.932,0,0,0,1.928-1.917l.025-8.475a1.925,1.925,0,0,0-1.92-1.928l-94.635-.294h-.006a1.932,1.932,0,0,0-1.925,1.92" transform="translate(236.193 353.384)"/>
        <path id="Path_1905" data-name="Path 1905" d="M242.875,259.348c12.758-11.86,15.829-33.915,6.273-53.84-9.5-19.79-28.429-31.17-45.569-28.847l-.666-1.4-8.8,4.226c-19.1,9.161-25.434,35.673-14.141,59.213s35.933,35.182,55.037,26.018l8.591-3.854Z" transform="translate(317.907 319.531)"/>
        <path id="Path_1906" data-name="Path 1906" d="M252.267,203.305c11.3,23.537,4.748,50.416-14.353,59.583s-43.53-2.851-54.826-26.388-4.96-50.049,14.141-59.216,43.745,2.484,55.037,26.021" transform="translate(323.591 317.51)" fill="#f40"/>
        <path id="Path_1907" data-name="Path 1907" d="M241.456,201c9.271,19.333,3.9,41.413-11.792,48.937s-35.758-2.34-45.029-21.673-4.074-41.105,11.614-48.634,35.933,2.038,45.207,21.371" transform="translate(328.236 322.8)" fill="#f40"/>
        <path id="Path_1908" data-name="Path 1908" d="M222.045,211.227a10.421,10.421,0,0,0-1.64-2.947,10.161,10.161,0,0,0-2.3-2.055,12.723,12.723,0,0,0-2.823-1.333,22.2,22.2,0,0,0-3.2-.754,30.839,30.839,0,0,0-3.413-.39c-1.172-.088-2.338-.155-3.526-.22l-5.231-14.144a8.334,8.334,0,0,1,4.763.426,10.617,10.617,0,0,1,4,3.168l5.076-1.886a14.824,14.824,0,0,0-3.187-3.935,12.65,12.65,0,0,0-3.828-2.3,13.24,13.24,0,0,0-4.24-.836,17.142,17.142,0,0,0-4.418.415l-1.666-4.548-5.141,1.9,1.691,4.542a16.421,16.421,0,0,0-3.8,2.843,14.338,14.338,0,0,0-2.634,3.622,11.407,11.407,0,0,0-1.183,4.125,9.155,9.155,0,0,0-.048,1.005,10.105,10.105,0,0,0,.644,3.309,10.547,10.547,0,0,0,.641,1.434,8.636,8.636,0,0,0,1.855,2.445,11.336,11.336,0,0,0,3.639,2.256,17.854,17.854,0,0,0,2,.652c.342.085.7.164,1.059.243s.762.144,1.149.2c.073.014.127.017.2.031,1.578.206,3.2.364,4.839.48l4.4,11.9.195.514.006.017.189.494.9,2.445a8.763,8.763,0,0,1-2.823-.361,8.957,8.957,0,0,1-1.9-.807,5.9,5.9,0,0,1-.59-.35l-.014.006c-.042-.023-.09-.065-.133-.088-.13-.088-.263-.192-.4-.3a12.452,12.452,0,0,1-1.942-1.748,14.461,14.461,0,0,1-1.982-2.716l-5.4,2a19.828,19.828,0,0,0,2.964,4.048.414.414,0,0,0,.107.113c.079.1.169.184.246.268,0,.017.023.011.028.028a.574.574,0,0,1,.121.127,2.461,2.461,0,0,0,.3.268.722.722,0,0,0,.121.124,17.465,17.465,0,0,0,3.58,2.611c.333.189.68.361,1.022.517a3.747,3.747,0,0,0,.582.246,5.016,5.016,0,0,0,.584.248,14.89,14.89,0,0,0,2.5.728,14.278,14.278,0,0,0,4.924.155l2.665,7.21,5.121-1.9-2.614-7.083a20.665,20.665,0,0,0,4.088-2.71,14.125,14.125,0,0,0,3.128-3.741,11.765,11.765,0,0,0,1.513-4.621,11.452,11.452,0,0,0-.768-5.4M191.2,199.09a5.385,5.385,0,0,1,.127-4.173,7.792,7.792,0,0,1,3.481-3.571l4.472,12.128a25.6,25.6,0,0,1-2.77-.426,10.221,10.221,0,0,1-2.34-.793,6.6,6.6,0,0,1-1.8-1.276,5.188,5.188,0,0,1-1.169-1.889M217.2,215.933a6.9,6.9,0,0,1-.658,2.566,8.887,8.887,0,0,1-1.654,2.363,10.765,10.765,0,0,1-2.623,1.92l-5.045-13.647a29.24,29.24,0,0,1,3.142.375,13.965,13.965,0,0,1,2.834.726,7.851,7.851,0,0,1,2.225,1.214,4.357,4.357,0,0,1,1.364,1.872,6.791,6.791,0,0,1,.415,2.611" transform="translate(337.823 327.973)"/>
        <path id="Path_1909" data-name="Path 1909" d="M204.816,249.787c-8.548-4.142-15.753-11.631-20.293-21.095-9.35-19.5-4.057-41.551,11.8-49.16,7.7-3.693,16.7-3.475,25.346.613a45.7,45.7,0,0,1,23.878,50.1c-2.27,9.4-7.767,16.609-15.471,20.3a25.811,25.811,0,0,1-4.96,1.79c-6.445,1.612-13.486.751-20.3-2.552m36.529-48.358a43.126,43.126,0,0,0-20.011-20.572c-8.43-3.983-17.2-4.2-24.669-.615-15.471,7.425-20.6,29.008-11.434,48.109,4.463,9.3,11.538,16.665,19.926,20.728s17.128,4.339,24.581.759c7.487-3.588,12.831-10.609,15.045-19.773a43.158,43.158,0,0,0-3.439-28.635" transform="translate(327.992 322.54)"/>
        <path id="Path_1910" data-name="Path 1910" d="M46.485,313.367a3.719,3.719,0,0,1-3.687-4.232L61.535,153.577a3.715,3.715,0,1,1,7.357,1.036L50.155,310.169a3.714,3.714,0,0,1-3.67,3.2" transform="translate(77.962 274.159)"/>
        <path id="Path_1911" data-name="Path 1911" d="M25.461,313.367a3.574,3.574,0,0,1-.519-.037,3.722,3.722,0,0,1-3.168-4.2L40.511,153.577a3.715,3.715,0,1,1,7.357,1.036L29.134,310.169a3.716,3.716,0,0,1-3.673,3.2" transform="translate(39.633 274.159)"/>
        <path id="Path_1912" data-name="Path 1912" d="M81.4,195.584H29.205a3.715,3.715,0,0,1,0-7.431H81.4a3.715,3.715,0,0,1,0,7.431" transform="translate(46.472 343.032)"/>
        <path id="Path_1913" data-name="Path 1913" d="M54.363,310.632a3.714,3.714,0,0,1-3.67-3.2L31.956,156.11a3.715,3.715,0,0,1,7.357-1.036L58.05,306.4a3.72,3.72,0,0,1-3.162,4.2,3.68,3.68,0,0,1-.525.037" transform="translate(58.193 276.894)"/>
        <path id="Path_1914" data-name="Path 1914" d="M75.386,310.632a3.716,3.716,0,0,1-3.673-3.2L52.979,156.11a3.713,3.713,0,0,1,7.354-1.036L79.073,306.4a3.722,3.722,0,0,1-3.165,4.2,3.641,3.641,0,0,1-.522.037" transform="translate(96.522 276.894)"/>
        <path id="Path_1915" data-name="Path 1915" d="M93.248,195.584H41.059a3.715,3.715,0,1,1,0-7.431H93.248a3.715,3.715,0,0,1,0,7.431" transform="translate(68.078 343.032)"/>
        <path id="Path_1916" data-name="Path 1916" d="M28.576,144.528h95.041a6.429,6.429,0,0,1,6.425,6.425v13.723a6.424,6.424,0,0,1-6.425,6.425H28.576a6.424,6.424,0,0,1-6.425-6.425V150.954a6.429,6.429,0,0,1,6.425-6.425" transform="translate(40.385 263.497)" fill="#f40"/>
        <path id="Path_1917" data-name="Path 1917" d="M73.222,186.661c.33-2.01-9.873-11.327-10.576-10.878-2.163,1.386-9.8,7.4-9.867,9.235-.073,1.779,9.167,11.936,11.166,10.491,1.733-1.251,8.964-6.908,9.277-8.848" transform="translate(96.224 320.451)" fill="#fff"/>
        <path id="Path_1918" data-name="Path 1918" d="M63.934,196.869a3.711,3.711,0,0,1-1.654-.517c-3.179-1.705-9.844-8.828-9.762-10.886.107-2.569,9.356-9.282,10.209-9.827.517-.322,1.078,0,1.615.35,1.793,1.18,10.488,8.822,10.09,11.267-.421,2.595-9.483,9.263-9.573,9.331a1.539,1.539,0,0,1-.923.282m-.663-19.819c-2.908,1.937-9.178,7.239-9.274,8.475.1,1.067,5.1,7.106,8.543,9.263,1.093.689,1.445.587,1.462.59,3.024-2.18,8.724-7,8.966-8.348-.028-1.44-7.747-9.012-9.7-9.98" transform="translate(95.746 319.974)"/>
        <path id="Path_1919" data-name="Path 1919" d="M61.888,178.086s-11,1.375-13.258,9.531c0,0,21.03,25.617,28.884,31.992,0,0,9.235-7.987,4.26-15.039a126.3,126.3,0,0,0-10.94-13.224s-9.785-4.116-8.947-13.26" transform="translate(88.66 324.678)" fill="#aab6c2"/>
        <path id="Path_1920" data-name="Path 1920" d="M42.939,165.989c7.01,16.976,36.046,25.888,57.536,33.35,12.876,4.486,13.927,9.706,14.957,14.6,4.034,19.121-28.435,45-37.079,60.822-.22,2.843,2.493,5.638,5.867,8a65.192,65.192,0,0,0,12.687,6.527c26.557-27.831,66.824-65.568,62.711-92.63-6.889-45.464-72.956-71.064-72.956-71.064-10.872-13.893-56,10.649-43.722,40.4" transform="translate(74.456 221.695)"/>
        <path id="Path_1921" data-name="Path 1921" d="M60.257,185.5c.011-2.038-11.516-9.652-12.142-9.1-1.917,1.7-8.52,8.828-8.311,10.655.209,1.764,10.914,10.367,12.665,8.628,1.513-1.5,7.778-8.221,7.789-10.183" transform="translate(72.558 321.557)" fill="#fff"/>
        <path id="Path_1922" data-name="Path 1922" d="M52.254,197.136a4.245,4.245,0,0,1-1.364-.277c-3.4-1.189-11.1-7.188-11.346-9.237-.291-2.561,7.8-10.626,8.557-11.3.452-.4,1.062-.172,1.646.093,1.956.886,11.742,7.083,11.727,9.562v0c-.014,2.64-7.927,10.624-8.006,10.7a1.657,1.657,0,0,1-1.214.449m-3.393-19.5c-2.572,2.366-7.944,8.574-7.843,9.816.265,1.039,6.16,6.231,9.9,7.826,1.18.508,1.516.356,1.524.35,2.642-2.634,7.524-8.292,7.558-9.641-.254-1.417-9.057-7.7-11.135-8.351" transform="translate(72.081 321.079)"/>
        <path id="Path_1923" data-name="Path 1923" d="M52.244,150.563c6.431,7.809,14.308,14.347,20.939,21.981a209.487,209.487,0,0,1,14.28,18.376c12.874,4.489,13.924,9.706,14.954,14.6,4.034,19.118-28.435,45-37.076,60.822-.22,2.843,2.49,5.638,5.867,8a59.944,59.944,0,0,0,7-5.765,111.07,111.07,0,0,0,17.379-20.363c10-14.757,18.339-26.848,19.717-44.631.991-12.792.694-16.758-1.6-26.876-1.451-6.42-5.488-13.661-9.082-19.344C95.532,143.132,77.864,138,65.242,127.78a2.448,2.448,0,0,0-.39-.217,1.287,1.287,0,0,0-1.587-1.31C50,128.89,42.874,139.126,52.244,150.563" transform="translate(87.468 230.114)"/>
        <path id="Path_1924" data-name="Path 1924" d="M47.692,179.127S37.035,182.19,36.078,190.6c0,0,24.751,22.035,33.505,27.111,0,0,7.879-9.322,1.869-15.519a126.425,126.425,0,0,0-12.862-11.36s-10.3-2.544-10.9-11.7" transform="translate(65.776 326.576)" fill="#aab6c2"/>
        <path id="Path_1925" data-name="Path 1925" d="M29.7,169.07c13.241,26.236,64.964,18.763,68.7,31.535,5.48,18.757-19.948,69.221-30.9,76.228a14.723,14.723,0,0,0,1.177,2.69c3.554,6.335,11.987,12.557,11.987,12.557,21.671-18.867,61.821-62.623,63.631-92.2,2.8-45.859-74.1-74.435-74.1-74.435-9.723-10.626-40.258,6.042-43.22,28.141A26.054,26.054,0,0,0,29.7,169.07" transform="translate(48.774 222.722)"/>
        <path id="Path_1926" data-name="Path 1926" d="M29.7,159.6c13.241,26.236,64.964,18.763,68.7,31.535,5.48,18.757-19.948,69.221-30.9,76.228a14.723,14.723,0,0,0,1.177,2.69A81.289,81.289,0,0,0,97.649,235.5c3.512-7.814,6.307-15.925,9.294-23.946,3.015-8.139,5.675-7.676,3.958-16.216-2.866-14.488-13.551-18.382-26.795-20.968-18.664-3.645-41.345-8.82-48.389-28.887,1.059-.683,3.549-17.947,1.923-18.1-2.928-.285-8.461,3.368-10.649,16.741A26.054,26.054,0,0,0,29.7,159.6" transform="translate(48.774 232.196)"/>
        <path id="Path_1927" data-name="Path 1927" d="M24.234,100.949c-.776,12.526,14.446,26.219,27.037,22,7.851-2.631,13.2-10.268,15.567-17.865,1.3-4.15,1.462-8.811,3.487-12.71,3.935-7.58,8.884-6.313,14.536-10.05a1.474,1.474,0,0,0,.33-.333,1.556,1.556,0,0,0,.9-1.759C84.56,71.651,72.508,64.093,64.126,67.111c-5.293,1.908-8.972,6.767-11.5,11.547-2.055,3.882-3.312,8.108-4.873,12.193-1.1,2.88-2.527,7.193-4.506,9.319-5.288,5.677-12.628,1.262-15.982-.172-1.008-.932-2.933-.683-3.035.951" transform="translate(44.131 121.12)"/>
        <path id="Path_1928" data-name="Path 1928" d="M105.8,174.644c-1.773,2.191-10.477,6.135-12.859,5.776-15.988-2.329-24.629-16.109-30.916-22.619a32.116,32.116,0,0,1-2.908-3.408,36.61,36.61,0,0,1-6.874-16.846,39.782,39.782,0,0,1-.384-8.755s-8.277-42.195.92-37.954c9.254,4.294,20.135,21.3,28.556,35.848.251.415.469.833.72,1.22.528.915,1.025,1.8,1.525,2.634,1.3,2.273,2.524,4.4,3.628,6.231,2.383,4.046,8.444,13.32,8.444,13.32s17.515,15.55,10.149,24.553" transform="translate(88.314 165.066)" fill="#fff"/>
        <path id="Path_1929" data-name="Path 1929" d="M93.7,181.656a2.443,2.443,0,0,1-.4-.028c-13.317-1.94-21.586-11.6-27.627-18.65-1.321-1.544-2.569-3-3.71-4.187a33.089,33.089,0,0,1-2.973-3.481,37.223,37.223,0,0,1-7.01-17.176,40.978,40.978,0,0,1-.4-8.825c-.771-3.964-6.485-34.273-1.143-38.471a2.82,2.82,0,0,1,3.12-.195c9.748,4.523,21.157,22.8,28.889,36.15l.3.511c.133.232.263.46.4.678l.551.957c.336.584.661,1.152.988,1.7,1.3,2.281,2.524,4.4,3.628,6.231,2.23,3.791,7.772,12.289,8.376,13.215,1.426,1.282,17.707,16.278,10.155,25.507-1.875,2.315-10.138,6.067-13.145,6.067m-41.653-89.9a1.066,1.066,0,0,0-.694.243c-3.549,2.789-.926,23.731,1.7,37.127l.023.107-.011.107a39.493,39.493,0,0,0,.384,8.577,35.78,35.78,0,0,0,6.73,16.507,31.607,31.607,0,0,0,2.849,3.334c1.174,1.22,2.436,2.693,3.775,4.255,5.886,6.872,13.949,16.287,26.718,18.147,2.112.35,10.547-3.489,12.176-5.508l0,0c6.838-8.354-9.9-23.379-10.065-23.531l-.13-.147c-.062-.1-6.1-9.336-8.461-13.348-1.107-1.829-2.332-3.964-3.636-6.239-.325-.542-.652-1.118-.994-1.711l-.528-.92c-.136-.209-.279-.463-.426-.717l-.288-.491c-7.639-13.193-18.867-31.216-28.234-35.56a2.164,2.164,0,0,0-.889-.229" transform="translate(87.844 164.59)"/>
        <path id="Path_1930" data-name="Path 1930" d="M52.048,129.691a42.7,42.7,0,0,0,9.692,29.68c6.222,7,27.492-27.122,21.388-35.7-9.3-13.057-21.47-29.124-30.563-33.336-9.2-4.243-.517,39.352-.517,39.352" transform="translate(88.127 164.171)" fill="#f40"/>
        <path id="Path_1931" data-name="Path 1931" d="M62.447,103.512s-2.795,9.232-.946,15.248a18.7,18.7,0,0,0,6.739,9.271s-4.675,6.253-7.374,7.606-13.746-25.1-7.2-29.728,8.783-2.4,8.783-2.4" transform="translate(94.117 187.739)"/>
        <path id="Path_1932" data-name="Path 1932" d="M133.122,198.989S63.3,224.84,24.879,203.3c0,0,24.338-24.367,23.336-50.08-.037-1.138-.138-2.278-.277-3.419-.274-2.242-.689-4.554-1.172-6.936-5.248-26.128-18.26-58.4,36.757-55.119,0,0,30.894,15.383,30.2,32.607-.723,17.221-13.427,19.785-3.659,39.183a454.9,454.9,0,0,0,23.054,39.451" transform="translate(45.358 159.557)" fill="#f40"/>
        <path id="Path_1933" data-name="Path 1933" d="M46.714,128.554c-2.659,4.8-9.017,23.87-13.675,27.39-.037-1.141.9-13.418.765-14.559-.277-2.242-.689-4.554-1.172-6.936a36.659,36.659,0,0,1,7.625-9.63C50.265,115.361,49.4,92.135,49.4,92.135c2.281,11.6,1.174,29.3-2.688,36.419" transform="translate(59.493 167.976)"/>
        <path id="Path_1934" data-name="Path 1934" d="M56.752,88.722v9.734s2.617,4.8,0,5.324C51,104.933,42.7,95.958,42.7,95.958V82.9Z" transform="translate(77.841 151.136)" fill="#fff"/>
        <path id="Path_1935" data-name="Path 1935" d="M56.181,105.336c-5.926,0-13.224-7.8-13.551-8.159l-.195-.212V82.5l15.533,6.437V98.987c.438.844,1.674,3.481.926,5.09a2.037,2.037,0,0,1-1.519,1.146,6.008,6.008,0,0,1-1.194.113M43.912,96.378c1.268,1.31,8.359,8.357,13.17,7.394a.569.569,0,0,0,.471-.322c.37-.793-.347-2.772-.977-3.924l-.088-.353v-9.24L43.912,84.721Z" transform="translate(77.366 150.419)"/>
        <path id="Path_1936" data-name="Path 1936" d="M66.805,78.551s2.064,11.521.6,21.278c-1.042,6.925-15.8,12.207-23.031-.056s-.333-25.84-.333-25.84Z" transform="translate(74.869 134.789)" fill="#fff"/>
        <path id="Path_1937" data-name="Path 1937" d="M56.8,108.413c-5.07,0-9.638-2.758-12.569-7.724-7.36-12.476-.641-25.984-.353-26.555l.254-.5,23.81,4.83.088.494c.085.474,2.069,11.756.6,21.518-.539,3.583-4.257,6.733-9.043,7.662a14.568,14.568,0,0,1-2.789.274m-11.837-33.1c-1.118,2.538-5.629,14.164.542,24.624,3.125,5.3,8.286,7.82,13.8,6.753,4.116-.8,7.425-3.5,7.865-6.431,1.259-8.4-.15-18.249-.514-20.541Z" transform="translate(74.375 134.248)"/>
        <path id="Path_1938" data-name="Path 1938" d="M75.1,83.672c-.556-.615-1.437-.895-1.962-1.5-1.654-1.892-.632-2.267-1.437-3.893a8.454,8.454,0,0,0-2.693-3.343c-3.241-2.391-7.575-3.08-11.49-3.247A1.451,1.451,0,0,0,56.027,73.6c-3.825-.322-8.755,1.99-10.974,3.89-4.41,3.775-7.049,11.465-5.3,17.12,1.369,4.446,5.09,8.825,8.989,4.59,2.976-3.238,3.684-6.852,4.545-10.985A19.455,19.455,0,0,1,54.41,84.33c2.73-2.1,5.934-3.21,8.935-2.366.539.98.853,2.292,1.338,3.249a11.3,11.3,0,0,0,3.007,3.712c1.945,1.561,4.966,2.645,7.143.853a4.16,4.16,0,0,0,.268-6.106" transform="translate(71.478 130.699)"/>
        <path id="Path_1939" data-name="Path 1939" d="M48.17,78.879s-3.47-3.021-5.192-.04.655,5.728,2.363,5.587,3.368-3.933,2.829-5.548" transform="translate(77.266 141.339)" fill="#fff"/>
        <path id="Path_1940" data-name="Path 1940" d="M45.694,85.651a3.6,3.6,0,0,1-2.874-1.818,4.591,4.591,0,0,1,0-4.884,3.143,3.143,0,0,1,2.211-1.643c1.973-.33,3.887,1.307,4.1,1.493l.15.13.065.189c.455,1.344-.206,3.416-1.1,4.768a3.376,3.376,0,0,1-2.369,1.756c-.065.006-.13.008-.192.008m-.141-6.908a1.874,1.874,0,0,0-.282.023,1.7,1.7,0,0,0-1.172.923,3.133,3.133,0,0,0-.025,3.354,2.186,2.186,0,0,0,1.688,1.126c.274-.023.751-.322,1.256-1.1a5.571,5.571,0,0,0,.971-3.3,4.621,4.621,0,0,0-2.436-1.033" transform="translate(76.786 140.86)"/>
        <path id="Path_1941" data-name="Path 1941" d="M42.534,75.729C45.2,72.152,49.479,71.17,53.717,70.9c2.2-.138,2.733,3.275.511,3.416-3.241.2-6.815.635-8.9,3.427-1.33,1.784-4.13-.234-2.8-2.019" transform="translate(76.908 129.263)" fill="#f40"/>
        <path id="Path_1942" data-name="Path 1942" d="M24.152,185.653c12.021,16.868,65.379,1.013,65.379,1.013l-.748-9.328s-31.391,2.552-37.63-7.871c-1.135-1.894,2.182-23.554,8.009-29.158,2.6-2.487,5.347-4.949,7.724-7.013a33.4,33.4,0,0,0,11.228-19.322,34.577,34.577,0,0,0-1.53-18.13,10.4,10.4,0,0,0-16.318-4.3c-10.55,8.6-27.56,30.662-27.98,31.2-15.081,19.717-20.2,45.995-8.134,62.914" transform="translate(31.806 162.598)" fill="#fff"/>
        <path id="Path_1943" data-name="Path 1943" d="M48.245,194.665c-10.429,0-19.864-1.985-24.228-8.111-11.547-16.191-8.2-42.424,8.148-63.792l.119-.152C35.25,118.8,50.538,99.372,60.266,91.445a11.319,11.319,0,0,1,10.113-2.12,10.769,10.769,0,0,1,7.368,6.739,35.354,35.354,0,0,1,1.567,18.514,34.268,34.268,0,0,1-11.476,19.751c-2.77,2.408-5.432,4.828-7.7,6.99-5.652,5.437-8.724,26.473-7.882,28.251,5.931,9.9,36.625,7.527,36.93,7.5l.737-.056.858,10.663-.576.172c-1.412.418-23.271,6.815-41.963,6.815M67.383,90.4a9.777,9.777,0,0,0-6.18,2.191c-9.607,7.829-24.8,27.136-27.752,30.928l-.119.152C17.388,144.52,14.048,170.027,25.222,185.7c10.92,15.333,58.213,2.532,63.99.9l-.641-8c-4.935.325-31.653,1.626-37.587-8.277-1.324-2.222,2.069-24.242,8.134-30.072,2.284-2.182,4.963-4.619,7.75-7.041a32.765,32.765,0,0,0,10.988-18.884,33.875,33.875,0,0,0-1.5-17.755,9.332,9.332,0,0,0-6.369-5.821,9.9,9.9,0,0,0-2.606-.35" transform="translate(31.339 162.122)"/>
        <path id="Path_1944" data-name="Path 1944" d="M53.577,145.93c2.4-2.3,18.455-17,20.764-31.727,1.056-6.7-.79-23.3-9.124-25.231-13.356-3.091-32.373,16.62-44.688,31.258,5.652,12.747,18.046,21.662,33.048,25.7" transform="translate(37.428 161.621)" fill="#f40"/>
        <path id="Path_1945" data-name="Path 1945" d="M78.4,124.858l-34.714,2.1,33.229,9.316Z" transform="translate(79.642 227.635)" fill="#aab6c2"/>
        <path id="Path_1946" data-name="Path 1946" d="M43.749,128.344l.144-2.58,32.545,9.124.011,3.447Z" transform="translate(79.761 229.287)" fill="#fff"/>
        <path id="Path_1947" data-name="Path 1947" d="M44.455,126.52l31.868,8.932.006,2.7L44.353,128.38ZM43.8,125.6l-.181,3.295,33.418,10.211-.008-4.19Z" transform="translate(79.524 228.992)"/>
        <path id="Path_1948" data-name="Path 1948" d="M127.294,127.364,55.453,131.7l.011,4.19,71.813-4.8Z" transform="translate(101.1 232.205)" fill="#aab6c2"/>
        <path id="Path_1949" data-name="Path 1949" d="M61.165,118.878a2.1,2.1,0,0,1,1.956-1.832l66.082-3.995a2.158,2.158,0,0,1,1.691.711,2.082,2.082,0,0,1,.508,1.66l-5.31,37.333L55.759,157Z" transform="translate(101.657 206.109)" fill="#fff"/>
        <path id="Path_1950" data-name="Path 1950" d="M129.874,114.267a1.331,1.331,0,0,1,1.019.466,1.315,1.315,0,0,1,.33,1.056L126,152.535l-68.826,4.158,5.282-37.249a1.359,1.359,0,0,1,1.268-1.18l66.065-3.995Zm0-1.479c-.059,0-.119,0-.178.006l-66.065,3.995a2.833,2.833,0,0,0-2.642,2.465L55.453,158.28l71.841-4.339,5.4-37.943a2.845,2.845,0,0,0-2.817-3.21" transform="translate(101.099 205.63)"/>
        <path id="Path_1951" data-name="Path 1951" d="M71.917,124.482a18.534,18.534,0,0,0-7.14-.768,7.677,7.677,0,0,0-.889-.147,8.114,8.114,0,0,0,.486-.8c.8-1.759.923-4.723-1.245-5.6-2.3-.932-3.755,2-4.935,3.41a16.962,16.962,0,0,1-4.867,4.286,28.514,28.514,0,0,1-6.143,1.316c-1.477.257-3.919.336-4.83,1.8-.723,1.16-.728,3.591-.409,4.909.4,1.654,1.846,2.436,3.292,3.091a15.717,15.717,0,0,0,3.89,1.141,13.018,13.018,0,0,0,7.287.438,9.481,9.481,0,0,0,1.491-.593,12.477,12.477,0,0,0,6.79.813,1.521,1.521,0,0,0,1.169-2.1,2.936,2.936,0,0,0,1.253-.711,2.128,2.128,0,0,0,.579-1.465,5.028,5.028,0,0,0,1.194-.884,4.087,4.087,0,0,0,1-4.311,19.843,19.843,0,0,1,5.847,4.647,1.627,1.627,0,0,0,2.733-.522c1.626-3.557-3.78-7.018-6.55-7.947" transform="translate(76.101 213.286)" fill="#fff"/>
        <path id="Path_1952" data-name="Path 1952" d="M63.187,139.155a13.137,13.137,0,0,1-4.78-.9,9.213,9.213,0,0,1-1.31.5,13.893,13.893,0,0,1-7.7-.438,16.2,16.2,0,0,1-3.989-1.177c-1.541-.7-3.224-1.615-3.7-3.594-.33-1.352-.4-4.029.5-5.471.943-1.516,3.032-1.81,4.559-2.021.274-.039.536-.073.774-.116.514-.09,1.028-.169,1.547-.243a18.487,18.487,0,0,0,4.438-1.028,16.347,16.347,0,0,0,4.582-4.077c.209-.248.426-.548.658-.864,1.078-1.488,2.716-3.738,5.124-2.758A3.4,3.4,0,0,1,65.8,118.91a6.275,6.275,0,0,1-.212,4.523,19.066,19.066,0,0,1,7.047.83c2.064.689,5.782,2.812,6.973,5.564a4.018,4.018,0,0,1,.014,3.393,2.522,2.522,0,0,1-1.875,1.471,2.291,2.291,0,0,1-2.075-.757,21.362,21.362,0,0,0-4.314-3.763,5.061,5.061,0,0,1-1.451,3.439,5.668,5.668,0,0,1-1.028.819,2.722,2.722,0,0,1-.751,1.536,3.3,3.3,0,0,1-.946.661,2.367,2.367,0,0,1-.316,1.335,2.185,2.185,0,0,1-1.573,1.028,13.623,13.623,0,0,1-2.1.167m-4.825-2.521.3.127a11.739,11.739,0,0,0,6.394.765.692.692,0,0,0,.531-.325.983.983,0,0,0,.048-.8l-.257-.726.737-.229a2.178,2.178,0,0,0,.949-.519,1.4,1.4,0,0,0,.367-.977l.017-.418.364-.2a4.357,4.357,0,0,0,1.016-.751,3.351,3.351,0,0,0,.844-3.537l-.646-1.719,1.657.791a20.144,20.144,0,0,1,6.073,4.816.812.812,0,0,0,.751.3,1.048,1.048,0,0,0,.762-.627,2.575,2.575,0,0,0-.025-2.185c-.94-2.165-4.187-4.113-6.087-4.754h0a18.012,18.012,0,0,0-6.852-.731l-.136.008-.127-.037a2.172,2.172,0,0,0-.412-.071c-.133-.017-.268-.031-.4-.059l-1.039-.2.74-1.205a3.377,3.377,0,0,0,.251-.421,4.923,4.923,0,0,0,.243-3.489,1.927,1.927,0,0,0-1.093-1.121c-1.259-.514-2.185.618-3.374,2.253-.248.344-.488.672-.714.943A17.7,17.7,0,0,1,54.153,126a19.681,19.681,0,0,1-4.853,1.157c-.5.073-1.005.147-1.508.234-.251.042-.531.085-.824.127-1.3.181-2.928.407-3.5,1.335a7.207,7.207,0,0,0-.325,4.342c.325,1.333,1.547,1.988,2.882,2.594a15.209,15.209,0,0,0,3.7,1.081,12.772,12.772,0,0,0,6.968.457,9.155,9.155,0,0,0,1.378-.548Z" transform="translate(75.622 212.805)"/>
        <path id="Path_1953" data-name="Path 1953" d="M72.027,132.464c.13-.678.768-1.858,1.779-1.666a1.047,1.047,0,0,1,.322.124,3.642,3.642,0,0,1,.045-1.417c.24-1,1.211-2.467,2.589-1.632a3.991,3.991,0,0,1,1.29,1.358,2.782,2.782,0,0,1,1.863-2.089c1.632-.615,2.4.421,2.84,1.623.268-1.205.98-2.953,2.566-2.086a6.368,6.368,0,0,1,1.945,2.425,14.867,14.867,0,0,1,1.5,3.487.47.47,0,0,1,.014.141.456.456,0,0,1,.1.511c-.491,1.27-2.041,2.6-3.563,1.457a7.223,7.223,0,0,1-1.078-1.028c.11,1.141-.155,2.143-1.406,2.391-1.321.263-2.434-.663-3.244-1.781a.515.515,0,0,1-.031.073c-.356.517-.813,1.2-1.623,1.189a2.435,2.435,0,0,1-1.612-.92.435.435,0,0,1-.209.327c-2.055,1.132-4.469-.469-4.091-2.487" transform="translate(131.245 230.532)" fill="#fff"/>
        <path id="Path_1954" data-name="Path 1954" d="M82.861,137.328a3.771,3.771,0,0,1-2.758-1.366,2.23,2.23,0,0,1-1.671.8h-.025a2.585,2.585,0,0,1-1.567-.624,3.6,3.6,0,0,1-3.783-.271,3.06,3.06,0,0,1-1.279-3.06,3.44,3.44,0,0,1,.72-1.5,2.1,2.1,0,0,1,1.327-.774,4.294,4.294,0,0,1,.1-.72,3.369,3.369,0,0,1,1.742-2.292,2.079,2.079,0,0,1,1.951.2,3.863,3.863,0,0,1,.723.562,3.616,3.616,0,0,1,1.79-1.355,2.714,2.714,0,0,1,2.143-.02,2.436,2.436,0,0,1,.8.593,2.545,2.545,0,0,1,1.143-1.149,2.084,2.084,0,0,1,1.931.155,6.094,6.094,0,0,1,2.052,2.4l.172.294a15.614,15.614,0,0,1,1.578,3.659l.025.079A1.21,1.21,0,0,1,90.046,134a3.809,3.809,0,0,1-2.323,2.253,2.614,2.614,0,0,1-2.369-.48l-.048-.037a2.349,2.349,0,0,1-1.846,1.536,3.255,3.255,0,0,1-.6.059m-2.925-4.065.731,1.064c.576.79,1.493,1.68,2.5,1.491.457-.093.937-.3.813-1.6l-.223-2.315,1.519,1.756a6.2,6.2,0,0,0,.966.923,1.154,1.154,0,0,0,1.07.24,2.283,2.283,0,0,0,1.29-1.22l-.085-.082v-.316a14.235,14.235,0,0,0-1.412-3.247l-.184-.313a4.96,4.96,0,0,0-1.485-1.841c-.387-.215-.551-.136-.61-.107a2.619,2.619,0,0,0-.878,1.7l-.545,2.465-.872-2.366a2.107,2.107,0,0,0-.872-1.251,1.326,1.326,0,0,0-1.011.062,2.056,2.056,0,0,0-1.4,1.556l-.392,1.787L77.9,130.1a3.252,3.252,0,0,0-1.047-1.118.618.618,0,0,0-.61-.1,1.965,1.965,0,0,0-.872,1.27,2.889,2.889,0,0,0-.034,1.129l.243,1.561-1.352-.813c-.158-.045-.336-.079-.6.226a1.987,1.987,0,0,0-.4.816,1.6,1.6,0,0,0,.689,1.592,2.14,2.14,0,0,0,2.174.186l.212-1.358,1.036,1.09a1.873,1.873,0,0,0,1.081.695h.008c.37,0,.644-.353.982-.844Zm-3.7,1.519-.006,0,.006,0m12.433-1.33,0,.006,0-.006" transform="translate(130.767 230.054)"/>
        <path id="Path_1955" data-name="Path 1955" d="M46.141,77.743s-1.615,7.145-2.84,8.89,5.745,3.594,5.745,3.594l1.5-8.038-1.081-4.912Z" transform="translate(78.682 140.888)" fill="#fff"/>
        <path id="Path_1956" data-name="Path 1956" d="M43.24,121.038l5.816-.452v8.357a10.422,10.422,0,0,0-4.192.7c-2.357.867-5.559-4.319-4.689-5.5a27.85,27.85,0,0,1,3.066-3.1" transform="translate(72.978 219.847)" fill="#fff"/>
        <path id="Path_1957" data-name="Path 1957" d="M34.1,170.825,46.727,272.893a3.706,3.706,0,0,0,3.664,3.19c.178,0,.35-.017.525-.031a3.726,3.726,0,0,0,3.159-4.206L41.569,170.825Z" transform="translate(62.162 311.44)"/>
      </g>
    </g>
  </g>
</svg>
