<svg xmlns="http://www.w3.org/2000/svg" xmlns:xlink="http://www.w3.org/1999/xlink" width="743" height="649" viewBox="0 0 743 649">
  <defs>
    <clipPath id="clip-path">
      <path id="Path_4561" data-name="Path 4561" d="M0,0H743V649H0Z" transform="translate(5889 6290)" fill="#fff" stroke="#707070" stroke-width="1"/>
    </clipPath>
    <clipPath id="clip-path-2">
      <rect id="Rectangle_1639" data-name="Rectangle 1639" width="1090.967" height="648.506" fill="none"/>
    </clipPath>
    <clipPath id="clip-path-3">
      <path id="Path_4483" data-name="Path 4483" d="M76.448,131.258C25.376,251.977,62.147,363.4,123.432,384.041s87.586,40.844,121.423,120.025c27.143,63.513,178.046,94.1,224.8,32.847,85.516-112.027,87.879-68.264,128.737-151.84s28.9-167.736-39.837-188.816c-66.919-20.519-124.611-49.521-189.984-130-25.426-31.3-67.562-46.683-112.545-46.688-70.66-.006-148.372,37.93-179.578,111.693" transform="translate(-52.309 -19.565)" fill="none"/>
    </clipPath>
    <clipPath id="clip-path-4">
      <rect id="Rectangle_1722" data-name="Rectangle 1722" width="530.133" height="610.575" fill="none"/>
    </clipPath>
    <clipPath id="clip-path-5">
      <rect id="Rectangle_1723" data-name="Rectangle 1723" width="261.708" height="592.564" fill="none"/>
    </clipPath>
    <clipPath id="clip-path-6">
      <rect id="Rectangle_1724" data-name="Rectangle 1724" width="241.136" height="592.564" fill="none"/>
    </clipPath>
    <clipPath id="clip-path-7">
      <rect id="Rectangle_1725" data-name="Rectangle 1725" width="189.098" height="528.945" fill="none"/>
    </clipPath>
    <clipPath id="clip-path-8">
      <rect id="Rectangle_1727" data-name="Rectangle 1727" width="530.135" height="610.577" fill="none"/>
    </clipPath>
    <clipPath id="clip-path-9">
      <rect id="Rectangle_1728" data-name="Rectangle 1728" width="261.707" height="592.564" fill="none"/>
    </clipPath>
    <clipPath id="clip-path-10">
      <rect id="Rectangle_1729" data-name="Rectangle 1729" width="241.134" height="592.564" fill="none"/>
    </clipPath>
    <clipPath id="clip-path-11">
      <path id="Path_4560" data-name="Path 4560" d="M1244.557,577.931l-4.478-35.242,20.535-1.119,4.478,35.242Z" transform="translate(-1240.08 -541.57)" fill="none"/>
    </clipPath>
  </defs>
  <g id="Mask_Group_72" data-name="Mask Group 72" transform="translate(-5889 -6290)" clip-path="url(#clip-path)">
    <g id="Group_1550" data-name="Group 1550" transform="translate(5867.267 6290.677)">
      <g id="Group_1519" data-name="Group 1519" transform="translate(0 0)">
        <g id="Group_1495" data-name="Group 1495" transform="translate(0 0)">
          <g id="Group_1494" data-name="Group 1494" clip-path="url(#clip-path-2)">
            <path id="Path_4474" data-name="Path 4474" d="M558.556,196.258c-66.919-20.519-124.611-49.524-189.984-130s-241.054-55.714-292.126,65-14.3,232.15,46.99,252.786,87.581,40.838,121.417,120.022c27.143,63.516,178.046,94.1,224.8,32.847,85.516-112.03,87.879-68.264,128.735-151.837s28.9-167.739-39.835-188.816" transform="translate(92.082 34.991)" fill="#e6ebf0"/>
            <path id="Path_4475" data-name="Path 4475" d="M302.634,79.7C257.165,27.8,239.957,12.284,189.7,23.24S221.109,122.293,304.351,165.5s53.946-22.265-1.717-85.8" transform="translate(306.792 35.628)" fill="#e6ebf0"/>
            <rect id="Rectangle_1638" data-name="Rectangle 1638" width="701.738" height="4.021" transform="translate(60.154 604.299)"/>
          </g>
        </g>
        <g id="Group_1518" data-name="Group 1518" transform="translate(144.392 54.554)">
          <g id="Group_1517" data-name="Group 1517" clip-path="url(#clip-path-3)">
            <path id="Path_4476" data-name="Path 4476" d="M109.949,157.343V135.725h35.5V32.4h9.785V135.725h38.236v21.618h20.479v433.22H66.25V157.343Z" transform="translate(-27.768 3.388)" fill="#c6d0db"/>
            <rect id="Rectangle_1640" data-name="Rectangle 1640" width="20.482" height="389.702" transform="translate(38.482 160.732)" fill="#aab6c2"/>
            <rect id="Rectangle_1641" data-name="Rectangle 1641" width="147.698" height="330.023" transform="translate(112.332 263.928)" fill="#c6d0db"/>
            <rect id="Rectangle_1642" data-name="Rectangle 1642" width="20.479" height="330.023" transform="translate(112.332 263.928)" fill="#aab6c2"/>
            <rect id="Rectangle_1643" data-name="Rectangle 1643" width="21.194" height="8.886" transform="translate(218.228 277.987)" fill="#aab6c2"/>
            <rect id="Rectangle_1644" data-name="Rectangle 1644" width="21.194" height="8.886" transform="translate(182.545 277.987)" fill="#aab6c2"/>
            <rect id="Rectangle_1645" data-name="Rectangle 1645" width="21.194" height="8.886" transform="translate(218.228 310.34)" fill="#aab6c2"/>
            <rect id="Rectangle_1646" data-name="Rectangle 1646" width="21.194" height="8.886" transform="translate(182.545 310.34)" fill="#aab6c2"/>
            <rect id="Rectangle_1647" data-name="Rectangle 1647" width="21.194" height="8.886" transform="translate(146.862 310.34)" fill="#aab6c2"/>
            <rect id="Rectangle_1648" data-name="Rectangle 1648" width="21.194" height="8.886" transform="translate(218.228 342.691)" fill="#aab6c2"/>
            <rect id="Rectangle_1649" data-name="Rectangle 1649" width="21.194" height="8.886" transform="translate(146.862 342.691)" fill="#aab6c2"/>
            <rect id="Rectangle_1650" data-name="Rectangle 1650" width="21.194" height="8.886" transform="translate(182.545 358.869)" fill="#aab6c2"/>
            <rect id="Rectangle_1651" data-name="Rectangle 1651" width="21.194" height="8.886" transform="translate(218.228 375.047)" fill="#aab6c2"/>
            <rect id="Rectangle_1652" data-name="Rectangle 1652" width="21.194" height="8.889" transform="translate(182.545 391.219)" fill="#aab6c2"/>
            <rect id="Rectangle_1653" data-name="Rectangle 1653" width="21.194" height="8.886" transform="translate(218.228 407.397)" fill="#aab6c2"/>
            <rect id="Rectangle_1654" data-name="Rectangle 1654" width="21.194" height="8.886" transform="translate(146.862 407.397)" fill="#aab6c2"/>
            <rect id="Rectangle_1655" data-name="Rectangle 1655" width="21.194" height="8.886" transform="translate(218.228 437.297)" fill="#aab6c2"/>
            <rect id="Rectangle_1656" data-name="Rectangle 1656" width="21.194" height="8.886" transform="translate(182.545 437.297)" fill="#aab6c2"/>
            <rect id="Rectangle_1657" data-name="Rectangle 1657" width="21.194" height="8.886" transform="translate(218.228 469.647)" fill="#aab6c2"/>
            <rect id="Rectangle_1658" data-name="Rectangle 1658" width="21.194" height="8.886" transform="translate(182.545 469.647)" fill="#aab6c2"/>
            <rect id="Rectangle_1659" data-name="Rectangle 1659" width="21.194" height="8.886" transform="translate(146.862 469.647)" fill="#aab6c2"/>
            <rect id="Rectangle_1660" data-name="Rectangle 1660" width="21.194" height="8.886" transform="translate(218.228 502)" fill="#aab6c2"/>
            <rect id="Rectangle_1661" data-name="Rectangle 1661" width="21.194" height="8.886" transform="translate(146.862 502)" fill="#aab6c2"/>
            <rect id="Rectangle_1662" data-name="Rectangle 1662" width="21.194" height="8.886" transform="translate(182.545 518.178)" fill="#aab6c2"/>
            <rect id="Rectangle_1663" data-name="Rectangle 1663" width="21.194" height="8.886" transform="translate(146.862 518.178)" fill="#aab6c2"/>
            <rect id="Rectangle_1664" data-name="Rectangle 1664" width="21.194" height="8.884" transform="translate(218.228 534.356)" fill="#aab6c2"/>
            <rect id="Rectangle_1665" data-name="Rectangle 1665" width="21.194" height="8.884" transform="translate(182.545 550.532)" fill="#aab6c2"/>
            <rect id="Rectangle_1666" data-name="Rectangle 1666" width="147.698" height="330.023" transform="translate(465.73 263.928)" fill="#c6d0db"/>
            <rect id="Rectangle_1667" data-name="Rectangle 1667" width="20.479" height="330.023" transform="translate(465.73 263.928)" fill="#aab6c2"/>
            <rect id="Rectangle_1668" data-name="Rectangle 1668" width="198.171" height="486.999" transform="translate(255.918 106.953)" fill="#c6d0db"/>
            <rect id="Rectangle_1669" data-name="Rectangle 1669" width="20.479" height="486.999" transform="translate(255.918 106.953)" fill="#aab6c2"/>
            <rect id="Rectangle_1670" data-name="Rectangle 1670" width="30.949" height="12.977" transform="translate(402.266 130.277)" fill="#aab6c2"/>
            <rect id="Rectangle_1671" data-name="Rectangle 1671" width="30.949" height="12.977" transform="translate(350.156 130.277)" fill="#aab6c2"/>
            <rect id="Rectangle_1672" data-name="Rectangle 1672" width="30.949" height="12.977" transform="translate(402.266 177.523)" fill="#aab6c2"/>
            <rect id="Rectangle_1673" data-name="Rectangle 1673" width="30.949" height="12.977" transform="translate(350.156 177.523)" fill="#aab6c2"/>
            <rect id="Rectangle_1674" data-name="Rectangle 1674" width="30.949" height="12.977" transform="translate(298.049 177.523)" fill="#aab6c2"/>
            <rect id="Rectangle_1675" data-name="Rectangle 1675" width="30.949" height="12.974" transform="translate(402.266 224.769)" fill="#aab6c2"/>
            <rect id="Rectangle_1676" data-name="Rectangle 1676" width="30.949" height="12.974" transform="translate(298.049 224.769)" fill="#aab6c2"/>
            <rect id="Rectangle_1677" data-name="Rectangle 1677" width="30.949" height="12.974" transform="translate(350.156 248.392)" fill="#aab6c2"/>
            <rect id="Rectangle_1678" data-name="Rectangle 1678" width="30.949" height="12.974" transform="translate(402.266 272.012)" fill="#aab6c2"/>
            <rect id="Rectangle_1679" data-name="Rectangle 1679" width="30.949" height="12.974" transform="translate(350.156 295.635)" fill="#aab6c2"/>
            <rect id="Rectangle_1680" data-name="Rectangle 1680" width="30.949" height="12.974" transform="translate(402.266 319.258)" fill="#aab6c2"/>
            <rect id="Rectangle_1681" data-name="Rectangle 1681" width="30.949" height="12.974" transform="translate(298.049 319.258)" fill="#aab6c2"/>
            <rect id="Rectangle_1682" data-name="Rectangle 1682" width="30.949" height="12.977" transform="translate(402.266 362.915)" fill="#aab6c2"/>
            <rect id="Rectangle_1683" data-name="Rectangle 1683" width="30.949" height="12.977" transform="translate(350.156 362.915)" fill="#aab6c2"/>
            <rect id="Rectangle_1684" data-name="Rectangle 1684" width="30.949" height="12.974" transform="translate(402.266 410.161)" fill="#aab6c2"/>
            <rect id="Rectangle_1685" data-name="Rectangle 1685" width="30.949" height="12.974" transform="translate(350.156 410.161)" fill="#aab6c2"/>
            <rect id="Rectangle_1686" data-name="Rectangle 1686" width="30.949" height="12.974" transform="translate(298.049 410.161)" fill="#aab6c2"/>
            <rect id="Rectangle_1687" data-name="Rectangle 1687" width="30.949" height="12.974" transform="translate(402.266 457.406)" fill="#aab6c2"/>
            <rect id="Rectangle_1688" data-name="Rectangle 1688" width="30.949" height="12.974" transform="translate(298.049 457.406)" fill="#aab6c2"/>
            <rect id="Rectangle_1689" data-name="Rectangle 1689" width="30.949" height="12.974" transform="translate(350.156 481.026)" fill="#aab6c2"/>
            <rect id="Rectangle_1690" data-name="Rectangle 1690" width="30.949" height="12.974" transform="translate(298.049 481.026)" fill="#aab6c2"/>
            <rect id="Rectangle_1691" data-name="Rectangle 1691" width="30.949" height="12.974" transform="translate(402.266 504.649)" fill="#aab6c2"/>
            <rect id="Rectangle_1692" data-name="Rectangle 1692" width="30.949" height="12.977" transform="translate(350.156 528.272)" fill="#aab6c2"/>
            <rect id="Rectangle_1693" data-name="Rectangle 1693" width="30.949" height="12.977" transform="translate(402.266 551.892)" fill="#aab6c2"/>
            <rect id="Rectangle_1694" data-name="Rectangle 1694" width="30.949" height="12.977" transform="translate(298.049 551.892)" fill="#aab6c2"/>
            <rect id="Rectangle_1695" data-name="Rectangle 1695" width="194.23" height="450.698" transform="translate(567.487 143.254)" fill="#c6d0db"/>
            <rect id="Rectangle_1696" data-name="Rectangle 1696" width="20.073" height="450.698" transform="translate(567.487 143.254)" fill="#aab6c2"/>
            <rect id="Rectangle_1697" data-name="Rectangle 1697" width="125.091" height="307.407" transform="translate(-60.209 286.545)" fill="#c6d0db"/>
            <rect id="Rectangle_1698" data-name="Rectangle 1698" width="19.535" height="8.192" transform="translate(32.169 301.267)" fill="#aab6c2"/>
            <rect id="Rectangle_1699" data-name="Rectangle 1699" width="19.538" height="8.192" transform="translate(-0.724 301.267)" fill="#aab6c2"/>
            <rect id="Rectangle_1700" data-name="Rectangle 1700" width="19.535" height="8.192" transform="translate(32.169 331.086)" fill="#aab6c2"/>
            <rect id="Rectangle_1701" data-name="Rectangle 1701" width="19.538" height="8.192" transform="translate(-0.724 331.086)" fill="#aab6c2"/>
            <rect id="Rectangle_1702" data-name="Rectangle 1702" width="19.535" height="8.192" transform="translate(-33.616 331.086)" fill="#aab6c2"/>
            <rect id="Rectangle_1703" data-name="Rectangle 1703" width="19.535" height="8.192" transform="translate(32.169 360.91)" fill="#aab6c2"/>
            <rect id="Rectangle_1704" data-name="Rectangle 1704" width="19.535" height="8.192" transform="translate(-33.616 360.91)" fill="#aab6c2"/>
            <rect id="Rectangle_1705" data-name="Rectangle 1705" width="19.538" height="8.192" transform="translate(-0.724 375.822)" fill="#aab6c2"/>
            <rect id="Rectangle_1706" data-name="Rectangle 1706" width="19.535" height="8.192" transform="translate(32.169 390.734)" fill="#aab6c2"/>
            <rect id="Rectangle_1707" data-name="Rectangle 1707" width="19.538" height="8.192" transform="translate(-0.724 405.643)" fill="#aab6c2"/>
            <rect id="Rectangle_1708" data-name="Rectangle 1708" width="19.535" height="8.192" transform="translate(32.169 420.556)" fill="#aab6c2"/>
            <rect id="Rectangle_1709" data-name="Rectangle 1709" width="19.535" height="8.192" transform="translate(-33.616 420.556)" fill="#aab6c2"/>
            <rect id="Rectangle_1710" data-name="Rectangle 1710" width="19.535" height="8.192" transform="translate(32.169 448.113)" fill="#aab6c2"/>
            <rect id="Rectangle_1711" data-name="Rectangle 1711" width="19.538" height="8.192" transform="translate(-0.724 448.113)" fill="#aab6c2"/>
            <rect id="Rectangle_1712" data-name="Rectangle 1712" width="19.535" height="8.192" transform="translate(32.169 477.934)" fill="#aab6c2"/>
            <rect id="Rectangle_1713" data-name="Rectangle 1713" width="19.538" height="8.192" transform="translate(-0.724 477.934)" fill="#aab6c2"/>
            <rect id="Rectangle_1714" data-name="Rectangle 1714" width="19.535" height="8.192" transform="translate(-33.616 477.934)" fill="#aab6c2"/>
            <rect id="Rectangle_1715" data-name="Rectangle 1715" width="19.535" height="8.189" transform="translate(32.169 507.758)" fill="#aab6c2"/>
            <rect id="Rectangle_1716" data-name="Rectangle 1716" width="19.535" height="8.189" transform="translate(-33.616 507.758)" fill="#aab6c2"/>
            <rect id="Rectangle_1717" data-name="Rectangle 1717" width="19.538" height="8.192" transform="translate(-0.724 522.668)" fill="#aab6c2"/>
            <rect id="Rectangle_1718" data-name="Rectangle 1718" width="19.535" height="8.192" transform="translate(-33.616 522.668)" fill="#aab6c2"/>
            <rect id="Rectangle_1719" data-name="Rectangle 1719" width="19.535" height="8.192" transform="translate(32.169 537.58)" fill="#aab6c2"/>
            <rect id="Rectangle_1720" data-name="Rectangle 1720" width="19.538" height="8.192" transform="translate(-0.724 552.489)" fill="#aab6c2"/>
            <g id="Group_1498" data-name="Group 1498" transform="translate(-138.591 -42.469)" opacity="0.35">
              <g id="Group_1497" data-name="Group 1497" transform="translate(0 0)">
                <g id="Group_1496" data-name="Group 1496" clip-path="url(#clip-path-4)">
                  <rect id="Rectangle_1721" data-name="Rectangle 1721" width="530.135" height="610.576" transform="translate(-0.002 -0.003)" fill="#fff"/>
                </g>
              </g>
            </g>
            <g id="Group_1501" data-name="Group 1501" transform="translate(2.775 -35.485)" opacity="0.5">
              <g id="Group_1500" data-name="Group 1500">
                <g id="Group_1499" data-name="Group 1499" clip-path="url(#clip-path-5)">
                  <path id="Path_4477" data-name="Path 4477" d="M94.46,599.4H53.314L273.878,6.838h41.143Z" transform="translate(-53.315 -6.84)" fill="#fff"/>
                </g>
              </g>
            </g>
            <g id="Group_1504" data-name="Group 1504" transform="translate(-49.302 -35.485)" opacity="0.5">
              <g id="Group_1503" data-name="Group 1503">
                <g id="Group_1502" data-name="Group 1502" clip-path="url(#clip-path-6)">
                  <path id="Path_4478" data-name="Path 4478" d="M55.021,599.4H34.448L255.011,6.838h20.573Z" transform="translate(-34.449 -6.84)" fill="#fff"/>
                </g>
              </g>
            </g>
            <g id="Group_1507" data-name="Group 1507" transform="translate(196.338 28.134)" opacity="0.5">
              <g id="Group_1506" data-name="Group 1506">
                <g id="Group_1505" data-name="Group 1505" clip-path="url(#clip-path-7)">
                  <path id="Path_4479" data-name="Path 4479" d="M144.01,558.6H123.437l189.1-528.944V72.27Z" transform="translate(-123.438 -29.654)" fill="#fff"/>
                </g>
              </g>
            </g>
            <g id="Group_1510" data-name="Group 1510" transform="translate(394.333 -54.554)" opacity="0.35">
              <g id="Group_1509" data-name="Group 1509">
                <g id="Group_1508" data-name="Group 1508" clip-path="url(#clip-path-8)">
                  <rect id="Rectangle_1726" data-name="Rectangle 1726" width="530.135" height="610.579" transform="translate(0 0)" fill="#fff"/>
                </g>
              </g>
            </g>
            <g id="Group_1513" data-name="Group 1513" transform="translate(440.862 -35.485)" opacity="0.5">
              <g id="Group_1512" data-name="Group 1512">
                <g id="Group_1511" data-name="Group 1511" clip-path="url(#clip-path-9)">
                  <path id="Path_4480" data-name="Path 4480" d="M253.167,599.4H212.021L432.584,6.838h41.143Z" transform="translate(-212.021 -6.84)" fill="#fff"/>
                </g>
              </g>
            </g>
            <g id="Group_1516" data-name="Group 1516" transform="translate(388.785 -35.485)" opacity="0.5">
              <g id="Group_1515" data-name="Group 1515">
                <g id="Group_1514" data-name="Group 1514" clip-path="url(#clip-path-10)">
                  <path id="Path_4481" data-name="Path 4481" d="M213.727,599.4H193.155L413.718,6.838h20.57Z" transform="translate(-193.156 -6.84)" fill="#fff"/>
                </g>
              </g>
            </g>
            <path id="Path_4482" data-name="Path 4482" d="M1090.967,118.947v-6.985h-19.043V1.831h0v0H0V15.8H11.549v4.933H353.428v91.229H0v6.985H353.428V298.255H0v6.985H353.428v179.3H0v6.985H353.428V608.364H11.657v4.04H0v16.167H1071.921v-1.3h0V491.529h19.043v-6.985h-19.043v-179.3h19.043v-6.985h-19.043V118.947ZM541.783,305.239H706.9v179.3H541.783Zm0-186.292H706.9V298.255H541.783Zm0-98.214H706.9v91.229H541.783Zm0,470.8H706.9V608.364H541.841v4.04h-.058Zm176.712,0H883.609V608.364H718.5Zm0-186.29H883.609v179.3H718.5Zm0-186.292H883.609V298.255H718.5Zm0-98.214H883.609v91.229H718.5Zm176.713,0h165.116v91.229H895.208Zm-530.184,0H530.14v91.229H365.024Zm0,98.214H530.14V298.255H365.024Zm0,186.292H530.14v179.3H365.024Zm0,186.29H530.14V612.4h-.063v-4.04H365.024Zm695.3,120.875h-.061v-4.04H895.208V491.529h165.116Zm0-127.86H895.208v-179.3h165.116Zm0-186.29H895.208V118.947h165.116Z" transform="translate(-144.392 -51.285)" fill="#fff"/>
          </g>
        </g>
        <rect id="Rectangle_1730" data-name="Rectangle 1730" width="1090.967" height="648.506" transform="translate(0 0)" fill="none"/>
      </g>
      <g id="mind" transform="translate(52.315 123.265)">
        <g id="Camada_3" transform="translate(367.852 29.557)">
          <g id="Group_1522" data-name="Group 1522">
            <g id="Group_1520" data-name="Group 1520" transform="translate(176.113 26.715)">
              <path id="Path_4484" data-name="Path 4484" d="M1880.081,319.677a168.086,168.086,0,0,0-30.8,16.023,141.339,141.339,0,0,0-25.161,21.025q-1.829,1.946-3.36,3.752c-1.024,1.2-2.048,2.464-3.053,3.771a118.209,118.209,0,0,0-20.758,42.464c-3.314,13.268-4.031,27.476-.27,41.307l-3.444.95c-3.937-14.5-3.211-29.328.252-43.15a121.983,121.983,0,0,1,21.4-43.8c.949-1.222,2-2.52,3.174-3.893q1.7-2,3.463-3.874a144.42,144.42,0,0,1,25.8-21.561,171.688,171.688,0,0,1,31.463-16.361l1.294,3.348Z" transform="translate(-1774.413 -289.26)" fill="#e03c00" fill-rule="evenodd"/>
              <path id="Path_4485" data-name="Path 4485" d="M1793.912,474.227c-3.649-11.208-2.923-27.974,1.974-39.615,6.283-14.932,18.738-29.29,35.494-28.736,16.532.545-6.8,22.285-12.008,28.049-11.962,13.23-24.928,24.909-25.468,40.3h0Zm.084-.179c-7.6-14.932-4.533-22.953-7.391-35.036-1.173-4.955-2.662-13.23-6.814-13.992-3.3-.611-6.749,8.35-6.572,17.875.251,13.766,10.816,27.57,20.777,31.143h0Zm49.187-132.61c8.573-5.388,22.629-10.588,34.107-11.585a136.69,136.69,0,0,1,42.568,2.567c4.608,1.016,9.318,2.708,9.951,5.04,1.266,4.626-7.866,10.973-15.331,13.324-6.842,2.153-16.97,1.251-20.572.686-18.4-2.887-34.926-9.8-50.722-10.033Zm25.338-20.621c5.65.414,16.513-3.009,30.709-4.4,15.164-1.476,40.511,1.354,50.462-.715,9.067-1.881,5.967-10.625,1.517-13.785-6.684-4.73-20.069-9.271-29.424-9.836-26.4-1.58-37.262,15.355-53.264,28.726h0Zm-20.144,5.407c9.774-14.669,15.015-16.653,27.74-26.056,3.472-2.567,8-8.632,7.158-11.114-.54-1.6-4.189-2.266-9.607-.31a33.581,33.581,0,0,0-14.735,11.039c-4.9,6.883-10.314,19.022-10.537,26.432h0Zm-32.822,33.616c6.963-21.824,17.584-26.582,26.381-41.016,3.612-5.924,10.081-15.374,6.814-20.151-2.6-3.808-14.5,1.467-23.448,10.832-12.93,13.531-15.936,37.161-9.755,50.334h0Zm.428,8.134c8.434-9.93,21.661-14.509,32.562-14.227,17.574.461,36.406,14.725,16.979,17.1a70.562,70.562,0,0,1-14.372-.038c-12.362-1.147-25.8-5.068-35.159-2.84h0Zm-14.763,24.946c4.319,3.62,10.91,5.454,16.569,2.492,5.427-2.84,8.108-10.061,5.855-12.694-2.942-3.441-8.434-.574-13.386,3.047-3.807,2.783-7.3,6.018-9.039,7.156h0Z" transform="translate(-1773.213 -287.541)" fill="#e03c00" fill-rule="evenodd"/>
            </g>
            <g id="Group_1521" data-name="Group 1521">
              <path id="Path_4486" data-name="Path 4486" d="M1666.57,290.706a167.025,167.025,0,0,1,33.4,9.29,140.027,140.027,0,0,1,28.894,15.365q2.178,1.537,4.049,2.971c1.247.959,2.5,1.984,3.752,3.056a117.7,117.7,0,0,1,28.949,37.255c5.948,12.3,9.523,26.056,8.657,40.367l3.565.216c.9-15.007-2.821-29.366-9.011-42.182a121.215,121.215,0,0,0-29.843-38.421c-1.173-1-2.476-2.05-3.891-3.15-1.387-1.063-2.774-2.1-4.17-3.075a143.26,143.26,0,0,0-29.638-15.75,170.464,170.464,0,0,0-34.116-9.478l-.587,3.545Z" transform="translate(-1589.727 -260.804)" fill="#e03c00" fill-rule="evenodd"/>
              <path id="Path_4487" data-name="Path 4487" d="M1775.777,424.341c-3.659-14.951-18.72-23.7-33.12-34.161-6.274-4.56-33.511-21-17.454-24.965,16.29-4.024,31.4,7.438,40.586,20.752,7.158,10.381,11.272,26.639,9.988,38.364h0Zm-.121-.16c9.02-5.567,16.551-21.26,14-34.791-1.769-9.365-6.963-17.414-10.063-16.136-3.9,1.608-3.686,10.014-3.826,15.111-.335,12.412,4.282,19.624-.112,35.816Zm-75.092-119.587c-15.415,3.507-30.179,13.7-47.6,20.348-3.407,1.3-13.144,4.288-20.275,3.592-7.782-.752-18.012-5.068-17.7-9.854.149-2.417,4.412-5.049,8.722-7a136.763,136.763,0,0,1,41.135-11.34c11.431-1.41,26.25.771,35.736,4.26h0Zm-28.987-14.923c-18.376-9.76-32.45-24.09-57.965-17.066-9.048,2.492-21.224,9.713-26.8,15.731-3.723,4.015-4.971,13.211,4.282,13.174,10.165-.047,34.4-8.068,49.531-9.77,14.177-1.589,25.506-.489,30.951-2.069h0Zm20.814,1.11c-1.722-7.2-9.5-17.95-15.685-23.677a33.341,33.341,0,0,0-16.672-7.748c-5.706-.79-9.141.621-9.346,2.294-.326,2.6,5.343,7.6,9.262,9.394,14.354,6.563,19.893,7.419,32.441,19.746h0Zm38.956,26.093c3.379-14.18-4.375-36.681-19.771-47.241-10.658-7.316-23.374-10-25.152-5.736-2.225,5.36,6.032,13.258,10.77,18.308,11.543,12.308,22.918,14.753,34.163,34.669h0Zm1.238,8.049c-9.606-.235-21.968,6.385-33.837,10.071a71.123,71.123,0,0,1-14.065,3.018c-19.492,1.7-3.966-16.164,13.135-20.263,10.612-2.539,24.481-.8,34.758,7.165h0Zm19.52,21.354c-1.945-.752-6.013-3.188-10.3-5.125-5.576-2.52-11.533-4.184-13.712-.207-1.676,3.056,2.42,9.563,8.312,11.208,6.144,1.721,12.213-1.439,15.713-5.877h0Zm-4.291-21.636c-4.859-10.832-8.648-22.379-3.658-26.5,3.826-3.159,13.86,4.9,17.6,16.314,3.9,11.9,1.005,23.564-4.291,30.212-1.517-3.771-5.9-11.688-9.643-20.019Z" transform="translate(-1584.019 -259.13)" fill="#e03c00" fill-rule="evenodd"/>
            </g>
            <path id="Path_4488" data-name="Path 4488" d="M1755.313,722.974c-5.827-14.97-41.442-62.022,3.333-205.747,8.461-27.175-9.076-53.127-16.029-62.727h87.92c-6.953,9.6-24.612,35.59-16.03,62.727,43.173,136.466,9.16,190.777,3.333,205.747H1755.3Z" transform="translate(-1594.553 -270.794)" fill-rule="evenodd"/>
          </g>
        </g>
        <g id="Camada_2" transform="translate(144.672 149.511)">
          <g id="Group_1529" data-name="Group 1529" transform="translate(0 0)">
            <g id="Group_1523" data-name="Group 1523" transform="translate(25.62 114.117)">
              <path id="Path_4489" data-name="Path 4489" d="M1416.977,540.329c-4.505-5.8-2.644-14.405-5.6-21.138a7.225,7.225,0,0,0-3.7-4.062c-1.75-.658-4.1.113-4.608,1.928-.661,2.36,1.918,4.748,1.238,7.109a3.379,3.379,0,0,1-3.928,2.087,5.9,5.9,0,0,1-3.677-3.009c-.987-1.711-1.275-4.222.279-5.425,1.015-.79,2.495-.743,3.491-1.552,1.992-1.627.428-5.021-1.787-6.319-4.989-2.924-12.343.075-13.926,5.67a4.127,4.127,0,0,1-.689,1.664c-1.312,1.486-3.649-.273-4.58-2.031s-2.327-4.006-4.217-3.423c-1.136.348-1.7,1.617-2.029,2.774-3.007,10.6,3.407,23.009,13.73,26.573,4.626,1.6,10.007,1.721,13.646,5.021,2.448,2.219,3.956,5.755,7.093,6.751a7.227,7.227,0,0,0,6.656-1.758,21.714,21.714,0,0,0,4.291-5.773l-1.7-5.106Z" transform="translate(-1371.834 -508.107)" fill="#fff"/>
              <path id="Path_4490" data-name="Path 4490" d="M1417.532,539.927c-4.245-5.632-2.83-13.277-5.027-19.671-.931-2.717-2.774-5.943-5.976-6.112a3.892,3.892,0,0,0-4.151,4.908c.353,1.5,1.564,3.084,1.247,4.664-.419,2.106-3.072,2.172-4.515,1.2a5.914,5.914,0,0,1-2.569-4.626c.019-2.313,2.057-2.276,3.658-3.094,2.69-1.382,1.992-4.673.335-6.61-1.769-2.059-4.766-2.755-7.364-2.464a11.278,11.278,0,0,0-6.99,3.5,9.472,9.472,0,0,0-1.992,3.347c-.279.828-.382,2.191-1.527,2.1a3.626,3.626,0,0,1-2.252-1.664c-1.331-1.89-3.09-5.886-6.069-3.949-1.21.781-1.666,2.36-1.983,3.686a21.267,21.267,0,0,0-.568,4.4A24.072,24.072,0,0,0,1378,535.912a21.414,21.414,0,0,0,7.149,5.266c3.044,1.354,6.348,1.787,9.513,2.718a14.921,14.921,0,0,1,4.766,2.21,19.421,19.421,0,0,1,3.36,3.639c1.908,2.4,4.189,4.495,7.456,4.071,3.565-.461,6.041-3.263,7.866-6.159.568-.9,1.405-1.768,1.08-2.849-.288-.94-.624-1.871-.94-2.8l-.633-1.9c-.289-.856-1.638-.489-1.35.376l1.48,4.419a2.122,2.122,0,0,1,.214.649c.037-.395-.363.245-.428.357-.279.461-.549.921-.847,1.373a12.821,12.821,0,0,1-3.7,4.025,6.055,6.055,0,0,1-5.092.931,8.005,8.005,0,0,1-3.491-2.736c-1.973-2.36-3.649-4.626-6.525-5.924s-5.986-1.749-8.992-2.576a19.7,19.7,0,0,1-7.866-4.1,22.748,22.748,0,0,1-7.735-14.988,20.832,20.832,0,0,1,.047-4.241,10.243,10.243,0,0,1,1.276-4.485c1.368-1.918,3.053.273,3.807,1.542a8.461,8.461,0,0,0,2.6,3.169,2.8,2.8,0,0,0,3.193.179c1.1-.79,1.126-2.323,1.666-3.47a9.31,9.31,0,0,1,6.116-4.814c2.569-.658,5.8-.329,7.587,1.815.838,1,1.675,2.811.6,3.94s-2.942.884-4.04,2.059c-1.88,2.012-.754,5.275.745,7.128,1.685,2.078,4.756,3.178,6.991,1.251,2.439-2.116.447-4.852-.121-7.287a2.414,2.414,0,0,1,2.374-3.112c1.722-.094,3.119,1.251,3.966,2.67,3.3,5.51,2.038,12.572,4.17,18.5a14.539,14.539,0,0,0,2.085,3.921c.54.715,1.75.009,1.21-.715Z" transform="translate(-1371.784 -508.063)"/>
            </g>
            <path id="Path_4491" data-name="Path 4491" d="M1503.59,489.4c-10.668,8.745-18.766,21.655-22.741,34.932s-5.585,27.146-8,40.809c-.224,1.288-.549,2.708-1.629,3.432a4.44,4.44,0,0,1-2.495.545c-10.6.047-20.358-5.971-28.131-13.258s-14.158-15.976-22.024-23.141c0,0-12.855,15.985-18.925,21.091,0,0,19.083,28.689,28.14,37.255s19.464,15.9,31.156,20.085c8.638,3.094,18.692,4.269,26.613-.376,6.516-3.827,10.417-10.861,13.814-17.65,0,0,25.729-31.857,21.093-66.959s-16.886-36.756-16.886-36.756Z" transform="translate(-1348.092 -392.831)" fill="#aab6c2"/>
            <path id="Path_4492" data-name="Path 4492" d="M1510.194,496.79c-6.348,6-9.094,15.026-9.718,23.79s-1.275,17.828.987,26.31c3.23,12.111,8.629,20.527,4.962,39.389-2.383,12.261-2.327,25.821,3.016,23.771a4.984,4.984,0,0,0,2.244-1.392,5.886,5.886,0,0,0,.875-2.623c.949-5.106,3.435-9.76,5.194-14.65,5.678-15.8,3.537-33.174,2.858-49.967-.512-12.722-.149-25.557-2.374-38.091" transform="translate(-1355.022 -393.272)"/>
            <path id="Path_4493" data-name="Path 4493" d="M1564.479,399.253c6.479-6.695,14.773-12.562,24.044-12.553,12,0,22.108,10.118,26.269,21.486s3.724,23.837,3.547,35.957c-.065,4.457-.065,9.036,1.48,13.221s4.99,7.936,9.365,8.538c5.25.724,12.325-2.37,14.856,2.332a7.079,7.079,0,0,1,.279,5.049c-1.527,6.159-6.628,10.9-12.353,13.522a31.569,31.569,0,0,1-26.79-.395,32.123,32.123,0,0,1-16.718-21.147c-2.187-9.309-.112-19.022.2-28.595s-1.843-20.329-9.709-25.651l-14.475-11.754Z" transform="translate(-1359.487 -386.7)"/>
            <path id="Path_4494" data-name="Path 4494" d="M1580.7,417.171a3.921,3.921,0,0,1-3.863-3.347c-.772-4.993-6.981-11.838-11.058-12.214a3.956,3.956,0,0,1,.707-7.88c8.284.762,16.867,11.011,18.1,18.872a3.956,3.956,0,0,1-3.258,4.523,4.513,4.513,0,0,1-.615.047Z" transform="translate(-1359.331 -387.119)" fill="#f40"/>
            <path id="Path_4495" data-name="Path 4495" d="M1548.876,470.36c-11.626.132-23.439,3.441-32.617,10.654s-15.415,18.6-15.145,30.343c.335,14.81,10.37,27.748,12.315,42.426,1.173,8.848-.679,17.866-3.621,26.291s-16.039,34.349-19.418,42.605c12.259,30.287,108.129,26.112,123.292-3.188a7.751,7.751,0,0,0,.484-6.761c-.773-2.219-2.169-24.41-3.5-26.328-10.063-14.471-3.435-31.557-2.1-49.178.373-4.89,2.234-12.694,2.858-17.555,1.573-12.355,5.064-26.761-10.175-38.12-15.024-11.189-52.37-11.189-52.37-11.189Z" transform="translate(-1354.365 -391.694)" fill="#aab6c2"/>
            <path id="Path_4496" data-name="Path 4496" d="M1535.9,645.639c-18.077-5.962-62.87-21.73-94.315-32.6-12.976-4.485-26.064-9-39.673-10.691s-27.963-.367-40,6.262c-9.113,5.031-16.969,13.869-17.6,24.344-.9,14.772,12.017,26.291,24.026,34.772,25.366,17.922,52.631,33.841,82.521,41.947,27.87,7.56,57.071,8.086,85.927,8.575,13.246.226,27.6.094,38.165-7.983,11.971-9.159,15.424-26.178,13.5-41.223-.782-6.084-2.485-12.421-6.907-16.615-3.779-3.573-27.553-.827-45.631-6.789Z" transform="translate(-1344.262 -399.534)"/>
            <path id="Path_4497" data-name="Path 4497" d="M1351.929,638.77c-.931,7.9,2.588,15.8,7.754,21.8s11.887,10.381,18.543,14.612c25.143,15.985,51.058,31.039,78.909,41.486s57.844,16.164,87.389,12.995c2.1-.226,4.319-.536,6.013-1.824a11.9,11.9,0,0,0,3.286-4.89,111.643,111.643,0,0,0,9.336-42.7c.037-2.219-.037-4.579-1.284-6.4a10.9,10.9,0,0,0-4.347-3.206c-36.76-18.514-75.921-31.622-114.915-44.664-22.508-7.532-52.947-13.926-69.507-9.563s-20.153,13.728-21.168,22.37Z" transform="translate(-1344.782 -400.329)"/>
            <g id="Group_1524" data-name="Group 1524" transform="translate(179.793 286.161)">
              <path id="Path_4498" data-name="Path 4498" d="M1538.16,729.871a161.734,161.734,0,0,0,70.708,5.642c7.568-1.081,15.368-2.849,21.354-7.645,4.4-3.526,7.494-8.425,10.5-13.221l5.958-9.525c1.359-2.182,2.774-4.8,1.843-7.193-1.033-2.642-4.273-3.46-7.047-3.912-10.733-1.758-21.8-3.507-32.366-.95-6.563,1.589-12.632,4.767-19.092,6.732-16.737,5.106-35.4,1.928-51.532,8.726l-.326,21.336Z" transform="translate(-1537.461 -691.074)" fill="#fff"/>
              <path id="Path_4499" data-name="Path 4499" d="M1537.922,730.513a163.267,163.267,0,0,0,50.043,7.278,149.091,149.091,0,0,0,24.7-2.219c7.316-1.316,14.614-3.724,20.051-9.064a51.486,51.486,0,0,0,6.972-9.027c2.392-3.724,4.7-7.494,7.047-11.246,1.7-2.717,3.975-6.356,1.917-9.516-1.731-2.652-5.288-3.131-8.126-3.6-8.378-1.363-16.914-2.67-25.422-1.815a50.129,50.129,0,0,0-11.989,2.811c-3.891,1.4-7.875,3.169-11.9,4.513-15.341,5.115-31.919,2.8-47.4,7.231a50.916,50.916,0,0,0-5.576,1.956.721.721,0,0,0-.512.677l-.289,18.637-.037,2.7a.7.7,0,0,0,1.4,0l.288-18.637.038-2.7-.512.677c14.28-5.943,30.067-4.278,44.979-7.127a67.08,67.08,0,0,0,11.245-3.225c3.668-1.392,7.456-3.037,11.3-4.241,7.912-2.492,16.169-2.454,24.333-1.5,4.012.461,8.08,1,12.027,1.815a9.192,9.192,0,0,1,4.282,1.787c1.5,1.326,1.5,3.3.828,5.068a31.507,31.507,0,0,1-3.072,5.36l-3.481,5.557a101.118,101.118,0,0,1-6.451,9.629,28.748,28.748,0,0,1-8.313,7.316,38.124,38.124,0,0,1-10.156,3.808,122.991,122.991,0,0,1-23.6,2.84,161.581,161.581,0,0,1-48.386-5.407c-1.964-.527-3.919-1.1-5.865-1.7-.866-.263-1.228,1.091-.372,1.364Z" transform="translate(-1537.409 -691.029)"/>
            </g>
            <path id="Path_4500" data-name="Path 4500" d="M1512.02,645.639c18.077-5.962,62.87-21.73,94.315-32.6,12.976-4.485,26.064-9,39.673-10.691s27.963-.367,40,6.262c9.113,5.031,16.97,13.869,17.6,24.344.9,14.772-12.017,26.291-24.026,34.772-25.366,17.922-52.631,33.841-82.521,41.947-27.87,7.56-57.071,8.086-85.928,8.575-13.246.226-27.6.094-38.165-7.983-11.971-9.159-15.424-26.178-13.5-41.223.782-6.084,2.485-12.421,6.907-16.615,3.779-3.573,27.553-.827,45.631-6.789Z" transform="translate(-1352.193 -399.534)"/>
            <path id="Path_4501" data-name="Path 4501" d="M1698.47,638.77c.931,7.9-2.588,15.8-7.754,21.8s-11.887,10.381-18.543,14.612c-25.142,15.985-51.057,31.039-78.909,41.486s-57.844,16.164-87.389,12.995c-2.1-.226-4.319-.536-6.013-1.824a11.9,11.9,0,0,1-3.286-4.89,111.643,111.643,0,0,1-9.337-42.7c-.037-2.219.037-4.579,1.285-6.4a10.9,10.9,0,0,1,4.347-3.206c36.76-18.514,75.921-31.622,114.915-44.664,22.508-7.532,52.947-13.926,69.508-9.563s20.153,13.728,21.168,22.37Z" transform="translate(-1354.147 -400.329)"/>
            <g id="Group_1525" data-name="Group 1525" transform="translate(59.643 286.199)">
              <path id="Path_4502" data-name="Path 4502" d="M1519.72,729.871a161.734,161.734,0,0,1-70.708,5.642c-7.568-1.081-15.368-2.849-21.354-7.645-4.4-3.526-7.494-8.425-10.5-13.221l-5.958-9.525c-1.359-2.182-2.774-4.8-1.843-7.193,1.033-2.642,4.272-3.46,7.047-3.912,10.733-1.758,21.8-3.507,32.366-.95,6.563,1.589,12.632,4.767,19.092,6.732,16.737,5.106,35.4,1.928,51.532,8.726l.326,21.336Z" transform="translate(-1408.385 -691.112)" fill="#fff"/>
              <path id="Path_4503" data-name="Path 4503" d="M1519.484,729.152a161.7,161.7,0,0,1-48.144,7.231,154.8,154.8,0,0,1-24.314-1.909c-7.177-1.166-14.577-3.15-20.125-8.152a43.48,43.48,0,0,1-7.065-8.717c-2.253-3.46-4.4-6.986-6.6-10.494-1.7-2.717-5.557-7.494-2.243-10.428a9.133,9.133,0,0,1,4.282-1.786c1.852-.386,3.751-.639,5.622-.931,8.173-1.269,16.607-2.238,24.835-.827,7.987,1.373,15.126,5.4,22.871,7.6,14.745,4.2,30.448,2.266,45.175,6.544a50.108,50.108,0,0,1,5.38,1.9l-.512-.677.288,18.637.037,2.7a.7.7,0,0,0,1.4,0l-.289-18.637-.037-2.7a.733.733,0,0,0-.512-.677c-15-6.244-31.6-4.09-47.185-7.579-8.154-1.833-15.536-6.018-23.653-7.936s-16.783-1.326-25.087-.15c-2.2.31-4.384.658-6.572,1.016a21.185,21.185,0,0,0-4.757,1.157c-2.942,1.213-4.6,3.865-3.7,7.08a19.833,19.833,0,0,0,2.588,5.04l3.6,5.755c2.15,3.441,4.245,6.949,6.7,10.183a31.915,31.915,0,0,0,7.829,7.551,36.67,36.67,0,0,0,10.267,4.419c7.735,2.116,15.955,2.84,23.932,3.253a162.584,162.584,0,0,0,50.285-5.322c2.038-.545,4.058-1.138,6.078-1.758.856-.263.494-1.627-.372-1.363Z" transform="translate(-1408.335 -691.07)"/>
            </g>
            <g id="Group_1526" data-name="Group 1526" transform="translate(184.637 41.178)">
              <path id="Path_4504" data-name="Path 4504" d="M1543.435,440.324q-.209,16.742.2,33.475a7.636,7.636,0,0,0,.661,3.554c1.294,2.351,4.561,2.652,7.14,1.993a16.259,16.259,0,0,0,11.412-11.312,23.7,23.7,0,0,0,.829-6.15c0-7.6-.2-15.412,0-23.131a8.064,8.064,0,0,0-1.992-5.078,5.742,5.742,0,0,0-2.411-1.542,14.177,14.177,0,0,0-13.982,2.4l-1.88,5.8Z" transform="translate(-1542.665 -430.537)" fill="#fff"/>
              <path id="Path_4505" data-name="Path 4505" d="M1542.685,440.279q-.2,15.811.158,31.613c.046,2.078-.168,4.513,1.135,6.281a5.637,5.637,0,0,0,3.975,2.069c3.537.423,7.177-1.269,9.867-3.46a17.183,17.183,0,0,0,5.874-9.478c1.136-4.9.615-10.155.577-15.139-.019-2.558-.037-5.106-.019-7.663.009-2.341.391-4.946-.056-7.25a8.187,8.187,0,0,0-2.858-4.852,11.31,11.31,0,0,0-5.362-1.815,14.916,14.916,0,0,0-6.46.705,14.647,14.647,0,0,0-2.886,1.335,5.359,5.359,0,0,0-2.048,1.674,21.438,21.438,0,0,0-.94,2.9l-.94,2.9c-.279.865,1.07,1.232,1.35.376l1.6-4.927a3.121,3.121,0,0,1,.27-.818,3.815,3.815,0,0,0,.531-.282,12.528,12.528,0,0,1,1.35-.846,13.505,13.505,0,0,1,10.584-1.063,6.211,6.211,0,0,1,4.17,4.024c.763,2.069.335,4.448.316,6.563q-.028,3.371,0,6.742c.028,4.551.363,9.215,0,13.766a17.238,17.238,0,0,1-4.086,10.325,14.415,14.415,0,0,1-8.936,4.927,5.506,5.506,0,0,1-4.478-1.213c-1.508-1.561-1.1-4.457-1.145-6.451q-.335-15.458-.149-30.917a.7.7,0,0,0-1.4,0Z" transform="translate(-1542.614 -430.492)"/>
            </g>
            <g id="Group_1527" data-name="Group 1527" transform="translate(169.673 13.45)">
              <path id="Path_4506" data-name="Path 4506" d="M1547,402.267c7.252-1.777,15.676,1.006,19.613,7.41,3.184,5.181,3.146,11.678,2.839,17.772-.391,7.6-1.173,15.571-5.417,21.862-5.278,7.8-15.573,11.528-24.714,9.506a15.971,15.971,0,0,1-6.758-3.047c-3.379-2.764-4.989-7.259-5.231-11.641s.726-8.726,1.685-13.014c1.126-5.012,2.132-11.227,3.37-15.045,2.765-8.547,7.372-12.036,14.624-13.8Z" transform="translate(-1526.59 -401.047)" fill="#fff"/>
              <path id="Path_4507" data-name="Path 4507" d="M1547.13,402.9a18.511,18.511,0,0,1,13.758,2.125c4.645,2.821,7.019,7.635,7.68,12.957a69.424,69.424,0,0,1-.437,16.54c-.661,5.388-2.132,11.19-5.641,15.59-6.069,7.607-17.668,10.823-26.622,6.836-5.092-2.266-7.586-7.457-7.894-12.873-.344-6.15,1.583-12.262,2.783-18.232,1.089-5.425,2.011-11.19,5.166-15.853,2.662-3.93,6.739-5.98,11.208-7.09.875-.216.5-1.58-.372-1.363-4.2,1.044-8.192,2.9-10.994,6.328-3.267,4.006-4.589,9.1-5.641,14.076-.624,2.971-1.182,5.961-1.843,8.933a63.716,63.716,0,0,0-1.7,10.259c-.3,5.444,1.061,11.49,5.427,15.082s10.323,4.26,15.564,3.573a24.584,24.584,0,0,0,13.637-6.253c4.152-3.8,6.469-9.065,7.605-14.528a74.941,74.941,0,0,0,1.378-18.3c-.27-6.027-2.141-12.2-7.242-15.995a19.8,19.8,0,0,0-16.188-3.178C1545.883,401.743,1546.255,403.106,1547.13,402.9Z" transform="translate(-1526.538 -401.003)"/>
            </g>
            <path id="Path_4508" data-name="Path 4508" d="M1527.69,407.205c0,6.328,9.458,9.2,14.466,5.67,2.318-1.636,3.872-4.3,6.413-5.548,4.58-2.247,10.267,1.392,12.139,6.168s1.042,10.146.167,15.214c.093-2.191,3.035-3.357,4.952-2.323s2.718,3.451,2.634,5.642a10.082,10.082,0,0,1-4.943,8.19c-.019,4.109,5.594,6.2,9.234,4.344s5.511-5.924,6.972-9.77c1.489-3.94,2.83-8.021,2.969-12.233s-1.043-8.641-3.993-11.622-7.261-4.222-10.258-7.156c-2.737-2.68-4.1-6.507-6.711-9.309-5.753-6.15-16.56-5.209-22.564.7a42.967,42.967,0,0,1-4.087,4.072c-2.02,1.514-7.391,1.627-7.391,7.955Z" transform="translate(-1356.944 -386.914)"/>
            <path id="Path_4509" data-name="Path 4509" d="M1592.871,496.7c-4.84,18.383-9.765,31.716-10.3,50.823-.782,27.513,7.875,61.759,28.94,74.1,3.211,1.881,16.783-5.548,16.364-6.46-14.41-30.757-31.789-82.972-32.282-116.992" transform="translate(-1360.735 -393.267)"/>
            <g id="Group_1528" data-name="Group 1528" transform="translate(326.297 124.328)">
              <path id="Path_4510" data-name="Path 4510" d="M1698.039,546.789c5.455-4.9,5.139-13.7,9.234-19.8a7.155,7.155,0,0,1,4.347-3.329c1.834-.339,4.012.846,4.189,2.727.233,2.445-2.718,4.325-2.467,6.77a3.384,3.384,0,0,0,3.491,2.755,5.894,5.894,0,0,0,4.152-2.294c1.276-1.5,2-3.921.68-5.388-.866-.959-2.327-1.175-3.165-2.153-1.676-1.956.465-5.021,2.867-5.9,5.427-1.984,12.129,2.285,12.706,8.087a4.014,4.014,0,0,0,.391,1.758c1.033,1.693,3.64.385,4.859-1.175s3-3.517,4.747-2.614c1.061.545,1.387,1.9,1.508,3.094,1.089,10.973-7.4,22.031-18.189,23.686-4.831.743-10.146-.1-14.317,2.492-2.8,1.739-4.906,4.955-8.163,5.369a7.246,7.246,0,0,1-6.237-2.924,21.847,21.847,0,0,1-3.2-6.45l2.578-4.711Z" transform="translate(-1694.841 -518.967)" fill="#fff"/>
              <path id="Path_4511" data-name="Path 4511" d="M1698.486,547.242c4.319-4,5.157-10.08,7.093-15.374,1.015-2.755,2.634-6.516,5.669-7.457,1.406-.432,3.463.169,3.8,1.815.279,1.373-.884,2.689-1.527,3.78-1.294,2.2-1.275,4.852,1.284,6.1s5.4-.339,6.954-2.454c1.648-2.247,1.834-5.341-.8-6.855-1.312-.752-2.886-1.429-2.234-3.263a5.025,5.025,0,0,1,3.509-2.962,9.1,9.1,0,0,1,7.875,1.965,9.349,9.349,0,0,1,2.495,3.131,7.96,7.96,0,0,1,.642,1.965,11.738,11.738,0,0,0,.382,2.276c1.015,2.567,4.059,1.4,5.548.019,1.108-1.025,1.936-2.811,3.5-3.216,2.132-.545,2.225,2.689,2.253,4.034a21.94,21.94,0,0,1-6.814,15.929,20.832,20.832,0,0,1-7.484,4.72c-3.1,1.1-6.321,1.128-9.55,1.326s-6.321.63-8.946,2.482c-2.337,1.646-4.366,4.551-7.373,4.908-3.937.48-6.5-3.423-7.8-6.591-.177-.433-.345-.875-.512-1.316-.074-.188-.14-.376-.214-.564-.028-.075-.177.263-.2.141-.019-.15.3-.536.363-.677l1.387-2.548.8-1.467c.437-.8-.772-1.5-1.21-.715-.791,1.448-1.6,2.887-2.374,4.344-.521.969.047,1.824.437,2.8a18.274,18.274,0,0,0,2.551,4.711c1.955,2.464,5.194,4.072,8.294,2.953s4.915-4.024,7.735-5.51c3.314-1.74,7.242-1.5,10.863-1.758a22.336,22.336,0,0,0,8.946-2.407,24.027,24.027,0,0,0,11.459-13.813,20.147,20.147,0,0,0,.875-8.952,3.856,3.856,0,0,0-2.113-3.319c-1.369-.527-2.774.254-3.8,1.2-1.182,1.1-1.955,2.633-3.537,3.235-.828.32-1.648.226-1.89-.762-.2-.8-.168-1.636-.382-2.435a10.644,10.644,0,0,0-4.99-6.272,10.147,10.147,0,0,0-8.033-1.062c-2.3.752-4.915,3.3-4.124,5.99.438,1.467,1.76,1.984,2.951,2.689,1.908,1.119,1.527,3.272.344,4.852-1.042,1.392-2.876,2.689-4.682,2.172-2.011-.574-2.253-2.417-1.341-4.053,1.22-2.2,3.119-4.833.68-7s-5.622-.931-7.54,1.185c-4.338,4.8-4.459,11.876-7.419,17.4a13.712,13.712,0,0,1-2.8,3.658c-.661.611.326,1.608.987,1Z" transform="translate(-1694.795 -518.922)"/>
            </g>
            <path id="Path_4512" data-name="Path 4512" d="M1627.242,523.153c3.64,13.211,4.72,26.507,5.231,40.377.047,1.307.168,2.764,1.136,3.63a4.461,4.461,0,0,0,2.392.893c10.491,1.533,20.982-3.056,29.676-9.177s16.216-13.832,24.993-19.831c0,0,10.538,17.64,15.844,23.545,0,0-22.843,25.727-32.99,32.939s-21.457,13.014-33.614,15.515c-8.973,1.843-19.1,1.608-26.306-4.109-9.234-7.325-13.46-20.583-15.89-31.594-6.712-30.447-6.712-64.711-5.883-76.916s5.743-16.333,9.6-17.085c16.215-3.178,23.355,32.9,25.822,41.824Z" transform="translate(-1361.353 -392.338)" fill="#aab6c2"/>
          </g>
        </g>
        <g id="Camada_4">
          <g id="Group_1531" data-name="Group 1531" transform="translate(544.977 222.744)">
            <path id="Path_4513" data-name="Path 4513" d="M1907.688,731.964H1849.63v-2.238c0-2.379,1.573-4.316,3.491-4.316h51.085c1.917,0,3.491,1.946,3.491,4.316v2.238Z" transform="translate(-1779.508 -480.154)" fill="#dcdcdc" fill-rule="evenodd"/>
            <g id="Group_1530" data-name="Group 1530">
              <path id="Path_4562" data-name="Path 4562" d="M0,0,164.193-.436l-.008,2.879L-.008,2.879Z" transform="matrix(0.275, -0.962, 0.962, 0.275, 92.517, 248.913)"/>
              <path id="Path_4514" data-name="Path 4514" d="M1878.242,714.72l42.95-151.915L1812.98,498.159l2.951-5.049,106.974,63.9,3.081-10.456,5.566,1.674-3.491,11.838,10.3,5.961-2.886,5.087-9.1-5.266-42.54,150.476Z" transform="translate(-1776.974 -466.286)" fill-rule="evenodd"/>
              <path id="Path_4515" data-name="Path 4515" d="M1821.737,533.072l20.87-39.615c11.142-21.147-21.084-39.464-37.951-21.721L1774.3,503.678Z" transform="translate(-1774.3 -464.583)" fill="#f40" fill-rule="evenodd"/>
              <path id="Path_4516" data-name="Path 4516" d="M1932.128,570.07a5.266,5.266,0,1,1,.009,0Z" transform="translate(-1784.922 -470.316)" fill-rule="evenodd"/>
              <path id="Path_4517" data-name="Path 4517" d="M1832.231,476.184c-9.411-7.062-18.729-.216-26.762,8.331-1.815,1.928-3.928,4.147-5.539,6.046,1.815.574,3.621.733,6.86-1.674C1814.507,483.161,1821.554,478.61,1832.231,476.184Z" transform="translate(-1776.072 -465.1)" fill="#fff" fill-rule="evenodd"/>
            </g>
          </g>
          <g id="Group_1536" data-name="Group 1536" transform="translate(480.165 368.525)">
            <path id="Path_4518" data-name="Path 4518" d="M1815.384,719.679V628.31a13.738,13.738,0,0,1-15.564,0v91.519l1.424,1.561h12.334l1.815-1.711Z" transform="translate(-1711.253 -620.139)" fill="#fff" stroke="#000" stroke-width="0.5" fill-rule="evenodd"/>
            <path id="Path_4519" data-name="Path 4519" d="M1816.63,730.521a3.72,3.72,0,0,1-1.061,2.623,3.22,3.22,0,0,1-2.281.978h-11.6a3.22,3.22,0,0,1-2.281-.978,3.721,3.721,0,0,1-1.061-2.623c0-49.648-.028-56.333-.028-105.981h2.746v86.94a1.438,1.438,0,0,0,1.452,1.439h9.923a1.437,1.437,0,0,0,1.443-1.439V624.54h2.746c0,49.648-.019,56.333-.019,105.981Z" transform="translate(-1711.149 -619.914)" fill-rule="evenodd"/>
            <path id="Path_4520" data-name="Path 4520" d="M1795.392,718.256V640.55a15.181,15.181,0,0,1-17.212.009v77.866l1.573,1.721h13.637l2-1.89Z" transform="translate(-1709.757 -620.87)" fill="#fff" stroke="#000" stroke-width="0.5" fill-rule="evenodd"/>
            <path id="Path_4521" data-name="Path 4521" d="M1796.777,730.843a4.065,4.065,0,0,1-1.173,2.9,3.514,3.514,0,0,1-2.522,1.072h-12.818a3.585,3.585,0,0,1-2.523-1.072,4.066,4.066,0,0,1-1.173-2.9c0-54.876-.028-39.587-.028-94.463h3.035v76.427a1.6,1.6,0,0,0,1.6,1.6h10.975a1.6,1.6,0,0,0,1.6-1.6V636.38h3.035c0,54.876-.028,39.586-.028,94.463Z" transform="translate(-1709.643 -620.621)" fill="#bcb5aa" fill-rule="evenodd"/>
            <path id="Path_4522" data-name="Path 4522" d="M1839.56,729.607a4.332,4.332,0,0,1-1.238,3.065,3.765,3.765,0,0,1-2.672,1.138h-13.59a3.8,3.8,0,0,1-2.672-1.138,4.349,4.349,0,0,1-1.238-3.065V623.833a4.333,4.333,0,0,1,1.238-3.065,3.775,3.775,0,0,1,2.672-1.147h13.59a3.774,3.774,0,0,1,2.672,1.147,4.349,4.349,0,0,1,1.238,3.065Z" transform="translate(-1712.521 -619.62)" fill="#fff" stroke="#000" stroke-width="0.5" fill-rule="evenodd"/>
            <path id="Path_4523" data-name="Path 4523" d="M1875.97,731.806a3.824,3.824,0,0,0,1.1,2.718,3.361,3.361,0,0,0,2.374,1.016h6.851a3.338,3.338,0,0,0,2.374-1.016,3.841,3.841,0,0,0,1.1-2.718V652.163a3.823,3.823,0,0,0-1.1-2.717,3.359,3.359,0,0,0-2.374-1.016h-6.851a3.338,3.338,0,0,0-2.374,1.016,3.841,3.841,0,0,0-1.1,2.717Z" transform="translate(-1716.518 -621.34)" fill-rule="evenodd"/>
            <path id="Path_4524" data-name="Path 4524" d="M1862.7,731.033a3.863,3.863,0,0,0,1.1,2.727,3.355,3.355,0,0,0,2.364,1.016h5.259a3.337,3.337,0,0,0,2.374-1.016,3.847,3.847,0,0,0,1.1-2.727V639.2a3.822,3.822,0,0,0-1.1-2.717,3.358,3.358,0,0,0-2.374-1.016h-5.259a3.3,3.3,0,0,0-2.364,1.016,3.841,3.841,0,0,0-1.1,2.717Z" transform="translate(-1715.601 -620.566)" fill="#fff" stroke="#000" stroke-width="0.5" fill-rule="evenodd"/>
            <path id="Path_4525" data-name="Path 4525" d="M1775.935,730.529a3.719,3.719,0,0,1-1.061,2.623,3.21,3.21,0,0,1-2.28.968h-3.482a3.249,3.249,0,0,1-2.28-.968,3.719,3.719,0,0,1-1.061-2.623V628.271a3.736,3.736,0,0,1,1.061-2.623,3.219,3.219,0,0,1,2.28-.978h3.482a3.219,3.219,0,0,1,2.28.978,3.72,3.72,0,0,1,1.061,2.623Z" transform="translate(-1708.899 -619.922)" fill="#aab6c2" fill-rule="evenodd"/>
            <path id="Path_4526" data-name="Path 4526" d="M1717.572,732.916a3.715,3.715,0,0,1-1.741,2.219,3.191,3.191,0,0,1-2.457.291l-6.339-1.862a3.229,3.229,0,0,1-1.918-1.58,3.694,3.694,0,0,1-.289-2.812c14.26-49.591,8.164-28.388,22.415-77.951a3.714,3.714,0,0,1,1.741-2.219,3.191,3.191,0,0,1,2.457-.291l6.33,1.862a3.2,3.2,0,0,1,1.918,1.58,3.7,3.7,0,0,1,.288,2.811c-14.251,49.563-8.154,28.359-22.415,77.951Z" transform="translate(-1704.675 -621.349)" fill-rule="evenodd"/>
            <g id="Group_1533" data-name="Group 1533" transform="translate(127.048 4.692)">
              <g id="Group_1532" data-name="Group 1532" transform="translate(0 79.775)">
                <path id="Path_4527" data-name="Path 4527" d="M1845.112,711.26H1857.6a2.152,2.152,0,0,1,2.141,2.163v21.862a2.142,2.142,0,0,1-2.132,2.153h-12.492a2.152,2.152,0,0,1-2.141-2.163V713.413A2.142,2.142,0,0,1,1845.112,711.26Z" transform="translate(-1841.286 -709.558)" fill="#f40"/>
                <path id="Path_4528" data-name="Path 4528" d="M1857.478,739.041h-12.492a3.851,3.851,0,0,1-3.826-3.865V713.315a3.845,3.845,0,0,1,3.826-3.865h12.492a3.851,3.851,0,0,1,3.826,3.865v21.862A3.845,3.845,0,0,1,1857.478,739.041Zm-12.492-26.178a.455.455,0,0,0-.447.451v21.862a.455.455,0,0,0,.447.451h12.492a.455.455,0,0,0,.447-.451V713.314a.455.455,0,0,0-.447-.451Z" transform="translate(-1841.16 -709.45)" fill="#f40"/>
              </g>
              <path id="Path_4529" data-name="Path 4529" d="M1859.745,712.177V628.66a14.791,14.791,0,0,1-16.765,0v83.677l1.527,1.683h13.283Z" transform="translate(-1841.286 -624.852)" fill="#fff" stroke="#000" stroke-width="0.5" fill-rule="evenodd"/>
              <path id="Path_4530" data-name="Path 4530" d="M1844.351,624.61v86.15a1.534,1.534,0,0,0,.456,1.091,1.554,1.554,0,0,0,1.108.461H1856.6a1.565,1.565,0,0,0,1.564-1.551V624.61h2.96v86.15a4.552,4.552,0,0,1-4.515,4.542h-10.686a4.467,4.467,0,0,1-3.184-1.335,4.543,4.543,0,0,1-1.331-3.206V624.61h2.96Z" transform="translate(-1841.177 -624.61)" fill="#f40" fill-rule="evenodd"/>
            </g>
            <g id="Group_1534" data-name="Group 1534" transform="translate(111.531 13.841)">
              <path id="Path_4531" data-name="Path 4531" d="M1834.1,639.192a4.8,4.8,0,1,1-4.8-4.852A4.828,4.828,0,0,1,1834.1,639.192Z" transform="translate(-1824.49 -634.34)" fill-rule="evenodd"/>
              <rect id="Rectangle_1732" data-name="Rectangle 1732" width="9.56" height="37.114" transform="translate(0.019 42.68)"/>
              <rect id="Rectangle_1733" data-name="Rectangle 1733" width="9.56" height="3.526" transform="translate(0.019 76.268)"/>
            </g>
            <g id="Group_1535" data-name="Group 1535" transform="translate(34.493 8.293)">
              <path id="Path_4532" data-name="Path 4532" d="M1746.615,734.846a4.2,4.2,0,0,1-3-1.279,4.786,4.786,0,0,1-1.378-3.4V633.623a4.809,4.809,0,0,1,1.378-3.4,4.2,4.2,0,0,1,3-1.279h13.591a4.2,4.2,0,0,1,3,1.279,4.809,4.809,0,0,1,1.378,3.4v96.541a4.809,4.809,0,0,1-1.378,3.4,4.2,4.2,0,0,1-3,1.279Z" transform="translate(-1741.765 -628.47)" fill="#f40" fill-rule="evenodd"/>
              <path id="Path_4533" data-name="Path 4533" d="M1760.17,629.38a3.775,3.775,0,0,1,2.672,1.147,4.35,4.35,0,0,1,1.238,3.065v96.54a4.333,4.333,0,0,1-1.238,3.065,3.766,3.766,0,0,1-2.672,1.138h-13.59a3.8,3.8,0,0,1-2.672-1.138,4.35,4.35,0,0,1-1.238-3.065v-96.54a4.333,4.333,0,0,1,1.238-3.065,3.774,3.774,0,0,1,2.672-1.147h13.59m0-.94h-13.59a4.7,4.7,0,0,0-3.332,1.42,5.267,5.267,0,0,0-1.517,3.733v96.54a5.267,5.267,0,0,0,1.517,3.733,4.673,4.673,0,0,0,3.332,1.42h13.59a4.629,4.629,0,0,0,3.323-1.42,5.266,5.266,0,0,0,1.517-3.733v-96.54a5.234,5.234,0,0,0-1.517-3.733,4.667,4.667,0,0,0-3.323-1.42Z" transform="translate(-1741.73 -628.44)"/>
            </g>
            <rect id="Rectangle_1734" data-name="Rectangle 1734" width="9.56" height="3.526" transform="translate(41.363 90.109)" fill="#f40"/>
          </g>
          <g id="Group_1543" data-name="Group 1543" transform="translate(23.341 371.704)">
            <g id="Group_1537" data-name="Group 1537" transform="translate(14.838 22.605)">
              <path id="Path_4534" data-name="Path 4534" d="M1248.959,648.359H1361.23a12.451,12.451,0,0,0,0,13.879h-112.4l-1.359-1.269v-11l1.5-1.617Z" transform="translate(-1231.078 -647.118)" fill="#fff" stroke="#000" stroke-width="0.5" fill-rule="evenodd"/>
              <path id="Path_4535" data-name="Path 4535" d="M1233,647.068a3.2,3.2,0,0,0-2.29.94,2.9,2.9,0,0,0-.847,2.031v10.334a2.9,2.9,0,0,0,.847,2.031,3.2,3.2,0,0,0,2.29.94q65.053,0,130.106.019v-2.454h-87.575a1.216,1.216,0,0,1-.884-.376,1.285,1.285,0,0,1-.372-.912v-8.848a1.269,1.269,0,0,1,.372-.912,1.217,1.217,0,0,1,.884-.376H1363.1V647.04q-65.053,0-130.106.019Z" transform="translate(-1229.86 -647.04)" fill-rule="evenodd"/>
            </g>
            <path id="Path_4536" data-name="Path 4536" d="M1250.337,721.52h124.093a13.766,13.766,0,0,0,0,15.346H1250.2l-1.508-1.4V723.307l1.657-1.787Z" transform="translate(-1216.324 -628.882)" fill="#fff" stroke="#000" stroke-width="0.5" fill-rule="evenodd"/>
            <path id="Path_4537" data-name="Path 4537" d="M1218.742,720.1a3.578,3.578,0,0,0-2.532,1.044,3.2,3.2,0,0,0-.94,2.247v11.425a3.2,3.2,0,0,0,.94,2.247,3.545,3.545,0,0,0,2.532,1.044c47.93,0,108.864.019,156.8.019v-2.708H1273.384a1.373,1.373,0,0,1-.978-.414,1.434,1.434,0,0,1-.409-1.016v-9.779a1.468,1.468,0,0,1,.409-1.016,1.373,1.373,0,0,1,.978-.414h102.161V720.07c-47.939,0-108.864.019-156.8.019Z" transform="translate(-1214.013 -628.795)" fill-rule="evenodd"/>
            <path id="Path_4538" data-name="Path 4538" d="M1233.077,664.53a3.2,3.2,0,0,0-2.29.94,2.9,2.9,0,0,0-.847,2.031v3.1a2.9,2.9,0,0,0,.847,2.031,3.2,3.2,0,0,0,2.29.94H1373.72a3.2,3.2,0,0,0,2.29-.94,2.9,2.9,0,0,0,.847-2.031v-3.1a2.9,2.9,0,0,0-.847-2.031,3.2,3.2,0,0,0-2.29-.94Z" transform="translate(-1215.027 -625.479)" fill="#aab6c2" fill-rule="evenodd"/>
            <g id="Group_1538" data-name="Group 1538" transform="translate(11.096 69.61)">
              <path id="Path_4539" data-name="Path 4539" d="M1283.2,698.479H1229.55c3.1,4.814,3.109,14.114,0,18.928h53.794l1.508-1.4v-15.75l-1.657-1.787Z" transform="translate(-1226.096 -697.116)" fill="#fff" stroke="#000" stroke-width="0.5" fill-rule="evenodd"/>
              <path id="Path_4540" data-name="Path 4540" d="M1373.663,697.058a3.579,3.579,0,0,1,2.532,1.044,3.2,3.2,0,0,1,.94,2.247v15.017a3.2,3.2,0,0,1-.94,2.247,3.546,3.546,0,0,1-2.532,1.044c-47.939,0-96.484.019-144.423.019v-2.708h28.587a1.372,1.372,0,0,0,.977-.414,1.434,1.434,0,0,0,.41-1.015V701.167a1.468,1.468,0,0,0-.41-1.016,1.372,1.372,0,0,0-.977-.414H1229.24V697.03c47.939,0,96.484.019,144.423.019Z" transform="translate(-1226.075 -697.03)" fill="#b2b9d2" fill-rule="evenodd"/>
              <path id="Path_4541" data-name="Path 4541" d="M1225.84,715.836h31.677a1.481,1.481,0,0,0,1.033-.432,1.5,1.5,0,0,0,.428-1.063V701.375a1.541,1.541,0,0,0-.428-1.063,1.427,1.427,0,0,0-1.033-.433H1225.84v-2.84h31.677a4.253,4.253,0,0,1,3.025,1.279,4.375,4.375,0,0,1,1.256,3.065v12.967a4.375,4.375,0,0,1-1.256,3.065,4.219,4.219,0,0,1-3.025,1.279H1225.84v-2.84Z" transform="translate(-1225.84 -697.03)" fill="#aab6c2" fill-rule="evenodd"/>
            </g>
            <g id="Group_1540" data-name="Group 1540" transform="translate(6.209 47.203)">
              <path id="Path_4542" data-name="Path 4542" d="M1242.708,675.659H1366.8a18.752,18.752,0,0,0-2.336,8.98c0,2.736.838,7.428,2.336,9.751H1242.568l-1.508-1.4V677.437l1.657-1.787Z" transform="translate(-1222.005 -673.346)" fill="#fff" stroke="#000" stroke-width="0.5" fill-rule="evenodd"/>
              <g id="Group_1539" data-name="Group 1539">
                <path id="Path_4543" data-name="Path 4543" d="M1368.837,696.1q-35.954,0-71.9-.009t-71.9-.01a4.02,4.02,0,0,1-2.858-1.175,3.644,3.644,0,0,1-1.08-2.576V677.51a3.628,3.628,0,0,1,1.08-2.577,3.99,3.99,0,0,1,2.858-1.185q35.954,0,71.9-.009t71.9-.01h.465v3.648H1266.684a.911.911,0,0,0-.651.273.958.958,0,0,0-.27.677V691.5a.941.941,0,0,0,.27.677.911.911,0,0,0,.651.273H1369.3V696.1h-.465Z" transform="translate(-1220.625 -673.232)" fill="#f40" fill-rule="evenodd"/>
                <path id="Path_4544" data-name="Path 4544" d="M1368.8,674.159v2.708H1266.649a1.372,1.372,0,0,0-.977.414,1.428,1.428,0,0,0-.41,1.006v13.174a1.469,1.469,0,0,0,.41,1.016,1.372,1.372,0,0,0,.977.414H1368.8V695.6q-71.908,0-143.808-.019a3.54,3.54,0,0,1-2.532-1.044,3.2,3.2,0,0,1-.94-2.247V677.469a3.2,3.2,0,0,1,.94-2.247,3.507,3.507,0,0,1,2.532-1.044q71.895,0,143.808-.019m.931-.94h-.931q-35.954,0-71.909.01t-71.9.009a4.474,4.474,0,0,0-3.193,1.316,4.115,4.115,0,0,0-1.21,2.906v14.819a4.12,4.12,0,0,0,1.21,2.915,4.452,4.452,0,0,0,3.183,1.316q35.954,0,71.9.009t71.909.01h.931V691.94H1266.64a.463.463,0,0,1-.326-.141.484.484,0,0,1-.14-.348V678.278a.484.484,0,0,1,.14-.348.444.444,0,0,1,.326-.141h103.083V673.2h0Z" transform="translate(-1220.59 -673.2)"/>
              </g>
            </g>
            <g id="Group_1542" data-name="Group 1542">
              <path id="Path_4545" data-name="Path 4545" d="M1330.838,625.439h44.709c-3.1,4.814-3.109,14.114,0,18.928H1330.7l-1.508-1.4v-15.75l1.657-1.787Z" transform="translate(-1221.89 -623.145)" fill="#fff" stroke="#000" stroke-width="0.5" fill-rule="evenodd"/>
              <g id="Group_1541" data-name="Group 1541">
                <path id="Path_4546" data-name="Path 4546" d="M1371.53,646.086c-23.969,0-50.276,0-76.591-.009s-52.621-.009-76.582-.009a3.99,3.99,0,0,1-2.858-1.185,3.644,3.644,0,0,1-1.08-2.577V627.29a3.627,3.627,0,0,1,1.08-2.576,3.99,3.99,0,0,1,2.858-1.185c23.97,0,50.276,0,76.582-.009s52.622-.009,76.591-.009H1372v3.648h-32.45a.91.91,0,0,0-.652.273.967.967,0,0,0-.279.677v13.371a.94.94,0,0,0,.27.677.911.911,0,0,0,.652.273h32.45v3.648h-.466Z" transform="translate(-1213.954 -623.03)" fill="#f40" fill-rule="evenodd"/>
                <path id="Path_4547" data-name="Path 4547" d="M1371.5,623.94v2.708h-31.985a1.411,1.411,0,0,0-.987.414,1.435,1.435,0,0,0-.409,1.015v13.371a1.47,1.47,0,0,0,.409,1.016,1.378,1.378,0,0,0,.987.414H1371.5v2.708c-47.939,0-105.243-.019-153.173-.019a3.539,3.539,0,0,1-2.532-1.044,3.2,3.2,0,0,1-.94-2.247V627.26a3.2,3.2,0,0,1,.94-2.247,3.545,3.545,0,0,1,2.532-1.044c47.939,0,105.234-.019,153.173-.019m.931-.94h-.931c-23.97,0-50.276,0-76.591.009s-52.621.009-76.582.009a4.475,4.475,0,0,0-3.193,1.316,4.122,4.122,0,0,0-1.21,2.915v15.017a4.121,4.121,0,0,0,1.21,2.915,4.453,4.453,0,0,0,3.184,1.317c23.97,0,50.276,0,76.582.009s52.622.009,76.591.009h.931v-4.589H1339.5a.462.462,0,0,1-.326-.141.484.484,0,0,1-.14-.348V628.078a.486.486,0,0,1,.14-.348.443.443,0,0,1,.326-.141h32.915V623h0Z" transform="translate(-1213.92 -623)"/>
              </g>
            </g>
          </g>
          <g id="Group_1544" data-name="Group 1544" transform="translate(452.766 376.601)">
            <path id="Path_4569" data-name="Path 4569" d="M0,0,8.8-.009l-.078,78.5-8.8.009Z" transform="translate(2.427 0.889) rotate(-5.74)" fill="#fff" stroke="#000" stroke-width="0.5"/>
            <rect id="Rectangle_1736" data-name="Rectangle 1736" width="61.447" height="5.937" transform="translate(14.051 88.445) rotate(-88.92)" fill="#aab6c2"/>
            <rect id="Rectangle_1737" data-name="Rectangle 1737" width="6.356" height="3.462" transform="translate(16.38 27.055) rotate(-88.92)"/>
            <path id="Path_4567" data-name="Path 4567" d="M0,0,61.435-.091l-.009,5.95L-.009,5.95Z" transform="translate(14.751 88.022) rotate(-81.41)" fill="#aab6c2"/>
            <path id="Path_4568" data-name="Path 4568" d="M0,0,6.355-.009,6.35,3.454l-6.355.009Z" transform="translate(25.03 27.496) rotate(-81.41)" fill="#f40"/>
            <path id="Path_4566" data-name="Path 4566" d="M0,0,61.133-.139l-.013,5.523L-.013,5.523Z" transform="matrix(0.232, -0.973, 0.973, 0.232, 16.028, 95.324)" fill="#f40"/>
            <path id="Path_4548" data-name="Path 4548" d="M1707.6,665.54l5.9-12.6-.512,13.9Z" transform="translate(-1677.477 -629.684)" fill="#f40" fill-rule="evenodd"/>
            <path id="Path_4549" data-name="Path 4549" d="M1679.122,695.23h30.541l3.23,43.329H1675.24Z" transform="translate(-1675.24 -632.209)" fill="#fff" stroke="#000" stroke-width="0.5" fill-rule="evenodd"/>
            <path id="Path_4550" data-name="Path 4550" d="M1684.17,731.37h6.181l-1.461-23.376a7.707,7.707,0,0,0-3.24-6.074l-1.48,29.45Z" transform="translate(-1675.857 -632.609)" fill-rule="evenodd"/>
            <path id="Path_4551" data-name="Path 4551" d="M1708.33,695.23h3.621l3.23,43.329h-5.874Z" transform="translate(-1677.528 -632.209)" fill-rule="evenodd"/>
          </g>
          <g id="Group_1545" data-name="Group 1545" transform="translate(141.899)">
            <path id="Path_4552" data-name="Path 4552" d="M1379.175,337.781c-9.718-13.578-14.028-37.715-12.38-55.6,2.122-22.943,11.72-47.231,34.637-53.776,22.6-6.46.326,33.117-4.263,43.188-10.537,23.112-23.839,45.125-18,66.188Z" transform="translate(-1343.024 -227.697)" fill="#f40" fill-rule="evenodd"/>
            <path id="Path_4553" data-name="Path 4553" d="M1377.975,340.794c-14.4-18.891-10.854-31.077-17.9-47.212-2.895-6.62-7.084-17.79-13.069-17.781-4.757,0-7.307,13.409-4.645,26.676C1346.214,321.64,1363.9,337.615,1377.975,340.794Z" transform="translate(-1341.284 -230.568)" fill="#f40" fill-rule="evenodd"/>
          </g>
          <g id="Group_1547" data-name="Group 1547" transform="translate(0 255.934)">
            <g id="Group_1546" data-name="Group 1546">
              <path id="Path_4554" data-name="Path 4554" d="M1209.11,623.669h197.733v-3.282a6.412,6.412,0,0,0-6.572-6.338h-186.8c-2.4,0-4.366,2.849-4.366,6.338Z" transform="translate(-1190.246 -506.696)" stroke="#fff" stroke-width="1" fill-rule="evenodd"/>
              <path id="Path_4555" data-name="Path 4555" d="M1192.159,522.1l118.917-22.219,2.579,1.4a9.522,9.522,0,0,1,4.654,6.864l16.569,106.508-121.822-.386-4.487-3.188L1192.15,522.1Z" transform="translate(-1189.073 -499.88)" fill-rule="evenodd"/>
              <path id="Path_4556" data-name="Path 4556" d="M1193.141,518.856l117.726-18.966L1327.585,610.9l-119.355-.188-19.194-85.182C1188.282,522.166,1189.78,519.457,1193.141,518.856Z" transform="translate(-1188.845 -499.881)" fill="#fff" stroke="#000" stroke-width="0.5" fill-rule="evenodd"/>
              <path id="Path_4557" data-name="Path 4557" d="M1347.66,620.5h8.452v-.78c0-.827-.475-1.5-1.052-1.5h-6.349c-.577,0-1.052.677-1.052,1.5v.78Zm11.431,0h8.452v-.78c0-.827-.475-1.5-1.052-1.5h-6.349c-.577,0-1.052.677-1.052,1.5Z" transform="translate(-1199.825 -506.945)" fill="#babcbc" fill-rule="evenodd"/>
            </g>
            <path id="Path_4558" data-name="Path 4558" d="M1313.7,510.81c-.531,80.922-39.31,106.47-106.286,91.228l2.1,9.328-.53,6.14,121.03-.292-1.145-5.661Z" transform="translate(-1190.128 -500.533)" fill-rule="evenodd"/>
          </g>
          <line id="Line_65" data-name="Line 65" x2="694.328" transform="translate(9.919 482.809)" fill="none" stroke="#000" stroke-linecap="round" stroke-width="3"/>
          <g id="Group_1549" data-name="Group 1549" transform="translate(47.693 295.135)">
            <g id="Group_1548" data-name="Group 1548" transform="translate(0 0)" clip-path="url(#clip-path-11)">
              <path id="Path_4559" data-name="Path 4559" d="M1250.074,542.19a.415.415,0,0,0-.4.442l.047,6.3a9.175,9.175,0,0,0-5.092-3.056.554.554,0,0,0-.214-.019.72.72,0,0,0-.345,1.269,19.282,19.282,0,0,1,4.012,5.539,11.423,11.423,0,0,0-5.725-1.119c-.121,0-.251.019-.372.028a.741.741,0,0,0-.121,1.429,16.8,16.8,0,0,1,6.144,4.476,9.979,9.979,0,0,0-4.3,9.807c.745,5.9,5.865,10.419,11.421,10.118s9.458-5.332,8.713-11.218a11.731,11.731,0,0,0-7.615-9.563,13.435,13.435,0,0,1,4.673-4.664.774.774,0,0,0-.484-1.392,2.587,2.587,0,0,0-.382.019,10.284,10.284,0,0,0-5.362,1.73,16.165,16.165,0,0,1,2.56-5.9.8.8,0,0,0-.651-1.222.5.5,0,0,0-.2.047,7.493,7.493,0,0,0-4.254,3.564l-1.545-6.215a.483.483,0,0,0-.5-.395" transform="translate(-1240.169 -541.607)" fill="#f40"/>
            </g>
          </g>
        </g>
      </g>
    </g>
  </g>
</svg>
