<svg xmlns="http://www.w3.org/2000/svg" xmlns:xlink="http://www.w3.org/1999/xlink" width="187" height="226" viewBox="0 0 187 226">
  <defs>
    <clipPath id="clip-path">
      <rect id="Rectangle_4966" data-name="Rectangle 4966" width="187" height="226" transform="translate(0.39 0.265)" fill="#fff" stroke="#707070" stroke-width="1"/>
    </clipPath>
    <clipPath id="clip-path-2">
      <rect id="Rectangle_4959" data-name="Rectangle 4959" width="218.447" height="226.999" fill="none" stroke="#707070" stroke-width="0.5"/>
    </clipPath>
  </defs>
  <g id="Mask_Group_4526" data-name="Mask Group 4526" transform="translate(-0.39 -0.265)" clip-path="url(#clip-path)">
    <g id="Group_5843" data-name="Group 5843" transform="translate(-31.326 0.003)">
      <g id="Group_5830" data-name="Group 5830">
        <g id="Group_5829" data-name="Group 5829" clip-path="url(#clip-path-2)">
          <path id="Path_11394" data-name="Path 11394" d="M195.934,413.666,217.68,376H174.188Z" transform="translate(-86.712 -375.498)" fill="none" stroke="#f40" stroke-width="0.5"/>
        </g>
      </g>
      <path id="Path_11395" data-name="Path 11395" d="M195.934,263.666,217.68,226H174.188Z" transform="translate(-86.712 -150.166)" fill="none" stroke="#f40" stroke-width="0.5"/>
      <g id="Group_5832" data-name="Group 5832">
        <g id="Group_5831" data-name="Group 5831" clip-path="url(#clip-path-2)">
          <path id="Path_11396" data-name="Path 11396" d="M282.575,413.666,304.322,376H260.829Z" transform="translate(-216.865 -375.498)" fill="none" stroke="#f40" stroke-width="0.5"/>
          <path id="Path_11397" data-name="Path 11397" d="M109.254,413.666,131,376H87.508Z" transform="translate(43.5 -375.498)" fill="none" stroke="#f40" stroke-width="0.5"/>
        </g>
      </g>
      <path id="Path_11398" data-name="Path 11398" d="M239.274,338.666,261.02,301H217.528Z" transform="translate(-151.818 -262.832)" fill="none" stroke="#f40" stroke-width="0.5"/>
      <path id="Path_11399" data-name="Path 11399" d="M152.594,338.666,174.34,301H130.848Z" transform="translate(-21.606 -262.832)" fill="none" stroke="#f40" stroke-width="0.5"/>
      <path id="Path_11400" data-name="Path 11400" d="M152.613,226l-21.746,37.666h43.492Z" transform="translate(-21.635 -150.166)" fill="none" stroke="#f40" stroke-width="0.5"/>
      <path id="Path_11401" data-name="Path 11401" d="M109.273,301,87.527,338.666h43.492Z" transform="translate(43.471 -262.832)" fill="none" stroke="#f40" stroke-width="0.5"/>
      <g id="Group_5834" data-name="Group 5834">
        <g id="Group_5833" data-name="Group 5833" clip-path="url(#clip-path-2)">
          <path id="Path_11402" data-name="Path 11402" d="M22.612,413.666,44.359,376H.866Z" transform="translate(173.654 -375.498)" fill="none" stroke="#f40" stroke-width="0.5"/>
        </g>
      </g>
      <path id="Path_11403" data-name="Path 11403" d="M65.953,338.666,87.7,301H44.206Z" transform="translate(108.548 -262.832)" fill="#f40" stroke="#707070" stroke-width="0.5"/>
      <path id="Path_11404" data-name="Path 11404" d="M65.953,338.666,87.7,301H44.206Z" transform="translate(108.548 -262.832)" fill="none" stroke="#f40" stroke-width="0.5"/>
      <g id="Group_5836" data-name="Group 5836">
        <g id="Group_5835" data-name="Group 5835" clip-path="url(#clip-path-2)">
          <path id="Path_11405" data-name="Path 11405" d="M22.632,301,.886,338.666H44.378Z" transform="translate(173.624 -262.832)" fill="none" stroke="#f40" stroke-width="0.5"/>
          <path id="Path_11406" data-name="Path 11406" d="M369.163,413.666,390.909,376H347.417Z" transform="translate(-346.938 -375.498)" fill="none" stroke="#f40" stroke-width="0.5"/>
        </g>
      </g>
      <path id="Path_11407" data-name="Path 11407" d="M325.842,226,304.1,263.666h43.492Z" transform="translate(-281.861 -150.166)" fill="none" stroke="#f40" stroke-width="0.5"/>
      <g id="Group_5838" data-name="Group 5838">
        <g id="Group_5837" data-name="Group 5837" clip-path="url(#clip-path-2)">
          <path id="Path_11408" data-name="Path 11408" d="M325.842,376,304.1,413.666h43.492Z" transform="translate(-281.861 -375.498)" fill="none" stroke="#f40" stroke-width="0.5"/>
        </g>
      </g>
      <path id="Path_11409" data-name="Path 11409" d="M239.2,226l-21.746,37.666h43.492Z" transform="translate(-151.708 -150.166)" fill="none" stroke="#f40" stroke-width="0.5"/>
      <path id="Path_11410" data-name="Path 11410" d="M282.5,301l-21.746,37.666h43.492Z" transform="translate(-216.755 -262.832)" fill="none" stroke="#f40" stroke-width="0.5"/>
      <g id="Group_5840" data-name="Group 5840">
        <g id="Group_5839" data-name="Group 5839" clip-path="url(#clip-path-2)">
          <path id="Path_11411" data-name="Path 11411" d="M369.183,301l-21.746,37.666h43.492Z" transform="translate(-346.967 -262.832)" fill="none" stroke="#f40" stroke-width="0.5"/>
        </g>
      </g>
      <path id="Path_11412" data-name="Path 11412" d="M325.911,188.666,347.657,151H304.165Z" transform="translate(-281.964 -37.5)" fill="none" stroke="#f40" stroke-width="0.5"/>
      <g id="Group_5842" data-name="Group 5842">
        <g id="Group_5841" data-name="Group 5841" clip-path="url(#clip-path-2)">
          <path id="Path_11413" data-name="Path 11413" d="M325.911,38.666,347.657,1H304.165Z" transform="translate(-281.964 187.831)" fill="none" stroke="#f40" stroke-width="0.5"/>
          <path id="Path_11414" data-name="Path 11414" d="M369.251,113.666,391,76H347.5Z" transform="translate(-347.07 75.165)" fill="none" stroke="#f40" stroke-width="0.5"/>
          <path id="Path_11415" data-name="Path 11415" d="M282.59,1,260.844,38.666h43.492Z" transform="translate(-216.887 187.831)" fill="none" stroke="#f40" stroke-width="0.5"/>
        </g>
      </g>
    </g>
  </g>
</svg>
