<svg xmlns="http://www.w3.org/2000/svg" xmlns:xlink="http://www.w3.org/1999/xlink" width="568.552" height="565.999" viewBox="0 0 568.552 565.999">
  <defs>
    <clipPath id="clip-path">
      <path id="Path_11897" data-name="Path 11897" d="M891.873,106.135c85.133,24.518,228.1,100.257,221.668,274.221S955.326,464.6,841.317,621.779c-85,117.192-440.8-43.044-230.716-387.321,83.65-137.086,207.39-149.6,281.272-128.322Z" transform="translate(-545.198 -97.911)" fill="none"/>
    </clipPath>
    <clipPath id="clip-path-2">
      <rect id="Rectangle_5234" data-name="Rectangle 5234" width="291.385" height="375.767" fill="none"/>
    </clipPath>
    <linearGradient id="linear-gradient" x1="8.012" y1="1" x2="8.012" gradientUnits="objectBoundingBox">
      <stop offset="0" stop-color="#fff" stop-opacity="0"/>
      <stop offset="1" stop-color="#fff"/>
    </linearGradient>
  </defs>
  <g id="ilustras_Oqtima_0410_Prancheta_1_copia_3" transform="translate(-545.198 -97.911)">
    <g id="Group_6277" data-name="Group 6277" transform="translate(545.198 97.911)">
      <rect id="Rectangle_5232" data-name="Rectangle 5232" width="530.242" height="4.025" transform="translate(21.342 561.974)"/>
      <path id="Path_11779" data-name="Path 11779" d="M891.873,106.135c85.133,24.518,228.1,100.257,221.668,274.221S955.326,464.6,841.317,621.779c-85,117.192-440.8-43.044-230.716-387.321,83.65-137.086,207.39-149.6,281.272-128.322Z" transform="translate(-545.198 -97.911)" fill="#e6ebf0"/>
      <path id="Path_11780" data-name="Path 11780" d="M1188.547,828.016c-75.316,22.975-85.52,56.941-85,87.027.593,34.105,134.248,17.54,190.238-72.858s-65.438-26.31-105.239-14.163Z" transform="translate(-765.607 -372.958)" fill="#e6ebf0"/>
      <g id="Group_6276" data-name="Group 6276" clip-path="url(#clip-path)">
        <g id="Group_6273" data-name="Group 6273" transform="translate(345.276 59.985)">
          <rect id="Rectangle_5233" data-name="Rectangle 5233" width="291.125" height="373.237" transform="translate(295.555 381.692) rotate(180)" fill="#e6ebf0"/>
          <g id="Group_6271" data-name="Group 6271" transform="translate(4.479 4.297)" clip-path="url(#clip-path-2)">
            <g id="Group_6270" data-name="Group 6270" transform="translate(-131.115 13.435)">
              <g id="Group_6265" data-name="Group 6265" transform="translate(224.311 71.676)">
                <g id="Group_6262" data-name="Group 6262" transform="translate(21.991 162.347)">
                  <path id="Path_11781" data-name="Path 11781" d="M1313.635,659.251c.835-4.491,5.011-5.762,3.952-11-.605-2.972-2.306-4.406-.351-7.5a13,13,0,0,1,4.206-3.855,6.238,6.238,0,0,1-2.191-7.142,1.054,1.054,0,0,1,1.737-.46,29.127,29.127,0,0,1,3.849,4.939c.163-1.15.315-2.312.581-3.426a2.108,2.108,0,0,1,1.876-1.822c1.84-.091,1.87,1.67,1.5,3.292,3.408-2.3,6.742-4.721,10.162-7,1.3-.859,2.7-1.713,4.146-2.536a4.19,4.19,0,0,1-1.416-2.221c-.49-1.919.98-3.559,2.893-2.518a11.393,11.393,0,0,1,2.948,2.433,55.372,55.372,0,0,1,6.8-2.778,4.811,4.811,0,0,1-1.628-1.725,1.969,1.969,0,0,1,1.5-2.923c1.519-.218,2.935.823,4.013,1.767a9.16,9.16,0,0,1,1.356,1.513c8.31-1.592,16.644-.278,22.708,7.039.357.436.678.835.987,1.211a7.707,7.707,0,0,1,2.917-4.073.871.871,0,0,1,.775-.163,1.1,1.1,0,0,1,1.271.563,1.057,1.057,0,0,1,.339.962,16.825,16.825,0,0,1-1.743,5.132,7.207,7.207,0,0,0,1.719.1c1.622-.085,2.784-.418,4.406.06a10.019,10.019,0,0,1,5.241,4.279,11.187,11.187,0,0,1,.974,1.913c2.954,7.523-3.371,14.284-9.193,18.084a.821.821,0,0,1-.871.06c-8.007,4.824-16.8,11.6-26.158,12.892-1.792.248-3.638-.23-5.344,0a30.357,30.357,0,0,0-5.883,1.955,13.9,13.9,0,0,0-1.265,2.348,13.93,13.93,0,0,1-7.13,5.514c-9.23,3.389-27.738,1.271-29.729-10.168a13.184,13.184,0,0,1,.061-4.763Z" transform="translate(-1313.398 -612.982)" fill="#c6d0db"/>
                  <path id="Path_11782" data-name="Path 11782" d="M1313.69,676.038c1.991,11.433,20.5,13.551,29.729,10.168a13.874,13.874,0,0,0,7.13-5.514,13.9,13.9,0,0,1,1.265-2.348c.521-.478,5.284-1.888,5.883-1.955,1.707-.23,3.553.248,5.344,0,9.357-1.289,18.151-8.068,26.158-12.892a.834.834,0,0,0,.871-.061c5.822-3.8,12.141-10.561,9.193-18.084a10.967,10.967,0,0,0-.974-1.912,19.25,19.25,0,0,1-24.2,12.6,1.045,1.045,0,0,0-1.307,1c.666,5.49-4.364,8.377-9.1,8.631-3.3.188-6.845-1.229-9.938-2.306a1.048,1.048,0,0,0-1.313,1,9.206,9.206,0,0,1-4.721,7.838c-1.059.563-2.518.539-3.51,1.144-1.6.938-1.374,1.828-2.221,3.286-5.259,8.836-19.731,1.707-26.945-1.271a.994.994,0,0,0-1,.272c-.121.145-.224.272-.333.418Z" transform="translate(-1313.514 -625.006)" fill="#aab6c2"/>
                  <path id="Path_11783" data-name="Path 11783" d="M1429.36,657.955a1,1,0,0,1,.3-.224c-.03-.194-.048-.393-.085-.6-.26-1.307,1.743-1.864,2-.551a11.686,11.686,0,0,1-2.106,9.478,1.056,1.056,0,0,1-1.9-.248,8.068,8.068,0,0,1,1.779-7.856Z" transform="translate(-1358.328 -629.897)" fill="#c6d0db"/>
                  <path id="Path_11784" data-name="Path 11784" d="M1386.42,672.622a.82.82,0,0,1,.841-.127,21.275,21.275,0,0,0,1.126-3.359c.309-1.3,2.318-.75,2.009.557a22.75,22.75,0,0,1-4.515,9.1,1.045,1.045,0,0,1-1.737-.46,5.61,5.61,0,0,1,2.276-5.707Z" transform="translate(-1341.287 -634.856)" fill="#c6d0db"/>
                  <path id="Path_11785" data-name="Path 11785" d="M1353.712,692.521c2.179,2.481,4.806,6.773,1.356,9.472a1.059,1.059,0,0,1-1.743-.46,15.18,15.18,0,0,1-.3-6,.711.711,0,0,1,.176-.357c-.327-.43-.66-.841-.962-1.186C1351.358,692.993,1352.823,691.516,1353.712,692.521Z" transform="translate(-1328.624 -644.248)" fill="#c6d0db"/>
                  <path id="Path_11786" data-name="Path 11786" d="M1402.755,632.949c3.311-2.276,4.11,7.081,4.031,8.74.666,1.035-.72,2.4-1.519,1.38a15.313,15.313,0,0,1-2.839-5.574c-.315-1.241-1.011-3.625.327-4.539Z" transform="translate(-1348.361 -620.724)" fill="#aab6c2"/>
                  <path id="Path_11787" data-name="Path 11787" d="M1372.684,647.509a.393.393,0,0,1-.073-.073,21.678,21.678,0,0,1-3.323-10.229,1.062,1.062,0,0,1,.763-1c2.348-.732,3.4,2.106,3.989,3.88a17.59,17.59,0,0,1,.442,9.2c-.266,1.307-2.27.757-2-.551.085-.406.145-.817.2-1.223Z" transform="translate(-1335.461 -622.102)" fill="#aab6c2"/>
                  <path id="Path_11788" data-name="Path 11788" d="M1365.339,666.511a1.1,1.1,0,0,1,1.792.865.986.986,0,0,1,.115.5,6.564,6.564,0,0,1-2.494,5.005,1.058,1.058,0,0,1-1.634-.212c-1.344-2.439.387-4.624,2.215-6.161Z" transform="translate(-1332.837 -634.011)" fill="#c6d0db"/>
                  <path id="Path_11789" data-name="Path 11789" d="M1327.527,669.064c-.115-2,1.828-2.651,3.438-2.009a19.487,19.487,0,0,1,4.285,2.518,27.378,27.378,0,0,1,2.966,1.519c.823.5.551,2.052-.527,1.937a1.084,1.084,0,0,1-.139-.006,1.036,1.036,0,0,1-1.338-.03c-.012-.012-.03-.018-.042-.03-3.335-.061-8.419.109-8.643-3.892Z" transform="translate(-1318.974 -634.234)" fill="#aab6c2"/>
                </g>
                <g id="Group_6263" data-name="Group 6263" transform="translate(152.502 165.098)">
                  <path id="Path_11790" data-name="Path 11790" d="M1529.945,627.533c1.792-3.928,6.446-9.708,11.142-9.417a7.577,7.577,0,0,1,1.519.23,17.886,17.886,0,0,1,5.114,2.124c-.176-.569-.333-1.144-.557-1.7-.5-1.241,1.507-1.773,2-.551a19.858,19.858,0,0,1,1.15,4c.085.06.176.121.26.188.218-1.434.381-3.25,1.338-4.225a1.8,1.8,0,0,1,2.748.127c.835,1.126.248,2.627-.212,3.765-.393.962-.835,1.9-1.3,2.82a12.136,12.136,0,0,1,1.241,1.707c1.053,1.81,1.265,3.6,2.07,5.072.8-.829,1.6-1.658,2.4-2.487a1.047,1.047,0,0,1,1.737,1.011,13.4,13.4,0,0,1-1.755,3.686,5.528,5.528,0,0,0,.684.333c2.125.811,3.329.75,4.884,2.639a21.705,21.705,0,0,1,4.031,8.606,15.363,15.363,0,0,1,0,7.9,8.557,8.557,0,0,1-4.346,5.278,11.588,11.588,0,0,1-2.705.726,11.035,11.035,0,0,0-6.234,1.955,5.247,5.247,0,0,1-1.186,1.186c-10.809,3.6-11.578-16.366-19.228-20.064a.861.861,0,0,1-.5-1c-3.74-3.849-6.8-8.376-4.3-13.908Z" transform="translate(-1529.034 -617.527)" fill="#c6d0db"/>
                  <path id="Path_11791" data-name="Path 11791" d="M1534.252,641.819a.855.855,0,0,0,.5,1c7.65,3.7,8.419,23.659,19.228,20.064a5.382,5.382,0,0,0,1.186-1.186,11.048,11.048,0,0,1,6.234-1.955,11.666,11.666,0,0,0,2.705-.726,8.576,8.576,0,0,0,4.346-5.278,15.36,15.36,0,0,0,0-7.9c-.666,1.743-.956,3.637-1.888,5.217-2.161,3.637-6.549,4.055-10.271,3.492-3.619-.539-8.419-1.58-7.59-6.095a8.717,8.717,0,0,0,.333-3.722c-.726-2.99-4.43-3.97-6.385-6.028-5.362-5.653-4.866-14.156-.085-19.918.018-.024.042-.042.042-.061a7.514,7.514,0,0,0-1.519-.23c-4.7-.291-9.357,5.49-11.142,9.417C1527.456,633.443,1530.512,637.97,1534.252,641.819Z" transform="translate(-1529.037 -617.904)" fill="#aab6c2"/>
                  <path id="Path_11792" data-name="Path 11792" d="M1570.539,673.034a.825.825,0,0,1,.811-.514,1.153,1.153,0,0,1,1.531.926,15.469,15.469,0,0,1-.381,5.629,1.051,1.051,0,0,1-1.9.248,6.974,6.974,0,0,1-.067-6.288Z" transform="translate(-1545.133 -639.212)" fill="#c6d0db"/>
                  <path id="Path_11793" data-name="Path 11793" d="M1560.854,669.648a.835.835,0,0,1,1.029-.018,1.056,1.056,0,0,1,1.428,1.422,9.032,9.032,0,0,1-3.692,3.644,1.051,1.051,0,0,1-1.525-1.174,6.985,6.985,0,0,1,2.76-3.88Z" transform="translate(-1540.49 -638.029)" fill="#c6d0db"/>
                  <path id="Path_11794" data-name="Path 11794" d="M1539.637,635.8a11.182,11.182,0,0,1,3.528-.672,19.363,19.363,0,0,1-3.474-2.724,1.05,1.05,0,0,1,.732-1.773,6.215,6.215,0,0,1,5.865,3.631,1.139,1.139,0,0,1-.962,1.574,1.1,1.1,0,0,1-.272.085,1.025,1.025,0,0,1-.188,1c-.841,1.023-1.9,2.1-3.323,2.106a2.607,2.607,0,0,1-2.633-1.955,1.066,1.066,0,0,1,.726-1.277Z" transform="translate(-1532.921 -622.697)" fill="#c6d0db"/>
                  <path id="Path_11795" data-name="Path 11795" d="M1575.348,656.994a3.68,3.68,0,0,1,2.457.218,3.933,3.933,0,0,1,2.518.974,2.367,2.367,0,0,1,.327,2.881c-1.677,2.8-4.545-1.132-5.762-2.336a1.049,1.049,0,0,1,.46-1.737Z" transform="translate(-1547.019 -633.061)" fill="#aab6c2"/>
                  <path id="Path_11796" data-name="Path 11796" d="M1561.852,632.974a1.048,1.048,0,0,1,1.937.527,22.041,22.041,0,0,1-.109,6.052c-.151,1.011-1.362.914-1.828.218a.885.885,0,0,1-.418-.424,6.277,6.277,0,0,1,.424-6.367Z" transform="translate(-1541.56 -623.428)" fill="#aab6c2"/>
                  <path id="Path_11797" data-name="Path 11797" d="M1562.968,651.292c.115-.345.23-.69.345-1.041.424-1.265,2.433-.72,2,.551-.115.345-.23.7-.345,1.041-.424,1.265-2.433.72-2.009-.557Z" transform="translate(-1542.404 -630.162)" fill="#c6d0db"/>
                </g>
                <g id="Group_6264" data-name="Group 6264">
                  <path id="Path_11798" data-name="Path 11798" d="M1281.855,441.622a4.382,4.382,0,0,1-1.537-1.041c-2.475-2.917.569-5.163,2.772-6.718q4.149-2.932,8.3-5.859c2.439-3,4.9-5.834,7.093-8.407a25.137,25.137,0,0,1-3.171-15.651A12.557,12.557,0,0,1,1293.844,393c1-3.044,5.471-2.064,5.326.714a36.625,36.625,0,0,1,4.364-5.568,11.841,11.841,0,0,1-3.026-5.338,1.044,1.044,0,0,1,.726-1.277c1.507-.321,2.609.484,3.565,1.592.085.1.17.212.254.315a6.993,6.993,0,0,1,.611.744c.29.351.581.708.871,1.059a64.63,64.63,0,0,1,23.023-12.6c.387-.121.75-.248,1.132-.369a9.727,9.727,0,0,1-1.083-7.227,1.052,1.052,0,0,1,1.737-.46,10.5,10.5,0,0,1,2.929,4.588,21.986,21.986,0,0,1,2.149-5.326,2.485,2.485,0,0,1,1.053-1.017,25.27,25.27,0,0,1,2.04-2.7,1.054,1.054,0,0,1,1.634.212,7.828,7.828,0,0,1,1.592,4.933c.066.478.121.956.188,1.428a55.742,55.742,0,0,0,10.277-8.734,45.856,45.856,0,0,1,4.515-4.043c-2.143-1.453.315-6.385,1.029-8.019.339-.769,1.41-.575,1.8,0a9.944,9.944,0,0,1,1.677,4.927,39.422,39.422,0,0,1,6.47-3.081c10.144-3.777,21.1-3.4,31.345-.418a2.248,2.248,0,0,1,.605-2.161c.974-.962,1.979-.151,2.506.775.557.98,1.083,1.973,1.622,2.966,1.247.472,2.488.968,3.7,1.507a76.669,76.669,0,0,0,12.583,4.4,20.641,20.641,0,0,1-.8-2.8c-.2-1.035-.605-2.657.5-3.341,1.053-.648,2.445.309,3.274.956a11.178,11.178,0,0,1,3.68,6.482,82.089,82.089,0,0,0,8.643.769,71.1,71.1,0,0,1,9.145.974c-.89-2.342-.9-5.6,1.471-6.93,2.73-1.531,5.623,1.84,7.287,3.571a32.878,32.878,0,0,1,5.157,7.227,68.2,68.2,0,0,1,17.2,9.775c1.144.908,2.149,1.676,3.165,2.451a21.285,21.285,0,0,1,10.065-6.488c3.141-.926,4.545,3.541,2,4.945a24.294,24.294,0,0,1-5.623,5.647c3.535,1.574,7.4,1.979,13.055.563,19.924-4.921,32.737.878,41.477,12.879a9.734,9.734,0,0,1,.484-1.828c.284-.763,1.471-1.12,1.9-.248a10.23,10.23,0,0,1,.938,3.008,12.821,12.821,0,0,1,2.1-2.112,1.128,1.128,0,0,1,.212-.169c.109-.085.2-.169.309-.248a.943.943,0,0,1,1.059.042,4.986,4.986,0,0,1,2.8,4.17,15.792,15.792,0,0,1-1.58,13.031c.442,1.156.86,2.354,1.271,3.553a13.672,13.672,0,0,1,6.936-2.79.814.814,0,0,1,.944.635.96.96,0,0,1,.091,1.132,9.441,9.441,0,0,1-6.779,4.346l-.091.061c.254.823.521,1.628.769,2.469a.592.592,0,0,0,.272.054c10.271,4.672,14.508,10.38,12.825,21.9-.926,6.246-1.465,13.315-4.291,18.853,4.043,3.952,7.59,8.086,9.889,12.795.121-.1.242-.188.369-.284a2.361,2.361,0,0,1,2.6-1.664,2.745,2.745,0,0,1,2.723,4.261,16.678,16.678,0,0,1-1.7,8.352q2.615-.254,5.235-.514c.98-.1,1.253,1.162.732,1.773a10.407,10.407,0,0,1-7.741,3.7,33.6,33.6,0,0,1-4.291,11.8,42.638,42.638,0,0,1-16.789,16.087c-11.953,6.3-24.778,4.128-37.549,1.792-10.87-1.955-18.75-9.672-22.388-19.67a15.572,15.572,0,0,1-21.952-6.845,23.629,23.629,0,0,1-23.471-7.717c-4.624-5.217-5-10.053-7.172-16.36-2.173-6.192-.381-4.237-6.3-4.945-3.1-.436-6.143-.327-9.182-.872-7.826-1.356-13.315-4.836-20.378-7.826-4.073-1.683-9.89-5.653-14.78-2.064-1.41,1.035-2.663,5-3.752,6.524a32.343,32.343,0,0,1-12.5,10.107c-7.717,3.529-17.068,1.192-23.586,6.627-9.781,8.152-16.462,18.26-30.54,19.017-7.935.436-13.206-2.009-17.709-6.355a54.129,54.129,0,0,1-5.925-7.227c-6.2-8.855-18.423-8.37-17.661-21.734.26-4.806,2.124-9.714,4.781-14.489Z" transform="translate(-1277.063 -344.744)" fill="#c6d0db"/>
                  <path id="Path_11799" data-name="Path 11799" d="M1328.064,533.161a21.227,21.227,0,0,1-12.014-6.113,11.879,11.879,0,0,1,3.044-4.836c3.426-3.42,8.479-4.073,12.825-5.544,13.963-4.836,14.514-17.661,14.078-30.377a2.8,2.8,0,0,1,3.426-2.663,46.411,46.411,0,0,0,20.869-.6c.381-.327.811-.6,1.192-.974,2.009-2.009.865-4.182,1.029-6.682v-.109a.412.412,0,0,1,.054-.218v-.055a1.966,1.966,0,0,1,.98-1.792c1.628-1.41,4.727-.817,4.455,1.846a.691.691,0,0,0-.054.327c.176,1.719,1.41,2.482,3,2.754a10.919,10.919,0,0,0,4.237-3.147,6.372,6.372,0,0,0,1.991-4.11,22.417,22.417,0,0,1,.333-3.238.935.935,0,0,1,.6-.623,1.076,1.076,0,0,1,1.955-.5,6.181,6.181,0,0,1,.787,5.223c.393-.375.8-.738,1.186-1.138,2.445-2.5,4.237-5.974,7.335-7.826,6.519-3.964,13.37-4.4,18.75-10.924a2.671,2.671,0,0,1,3.8,0,126.425,126.425,0,0,0,12.389,10.816c3.1,0,5.98-.817,7.5-3.589,1.628-2.935,5.816-.6,4.836,2.227a2.206,2.206,0,0,1-.817,2.118c-4.243,3.535,3.426,6.791,5.98,7.5a2.071,2.071,0,0,1,1.083.6c6.415.926,12.825-.6,18.641-6.47a2.787,2.787,0,0,1,3.855,0c7.342,6.252,6.954,14.889,12.117,21.952,4.019,3.208,18.641-1.035,16.959,2.009a12.146,12.146,0,0,1-5.326,4.89,33.869,33.869,0,0,1,5.653,2.009c7.826,3.916,10.925,10.434,21.522,5.054a16.81,16.81,0,0,0,3.583-5c1.471-3.153,6.2-.381,4.727,2.772a23.424,23.424,0,0,1-3.583,5.326c-.763,14.508-.381,30.649,14.671,38.094,12.607,6.2,26.243,2.826,38.42-2.609a42.638,42.638,0,0,1-16.789,16.087c-8.867,4.672-18.206,4.678-27.653,3.42a15.145,15.145,0,0,1,.95,2.028c.345.932-.666,1.471-1.4,1.174a1.043,1.043,0,0,1-1.077.109,10.7,10.7,0,0,1-4.684-4.279c-1.229-.212-2.457-.436-3.68-.66a27.948,27.948,0,0,1-12.1-5.326,2.061,2.061,0,0,1-2.288,1.453,1.6,1.6,0,0,1-.72-.309,1.018,1.018,0,0,1-1-.993c-.054-1.283-.024-2.566.036-3.849a32.693,32.693,0,0,1-6.319-10.652,15.572,15.572,0,0,1-21.952-6.845,24.881,24.881,0,0,1-7.408.5,6.445,6.445,0,0,1-.442,2.088,1.093,1.093,0,0,1-1.156.7.851.851,0,0,1-1.3-.091,9.885,9.885,0,0,1-1.852-3.559,24.261,24.261,0,0,1-11.324-7.348c-4.624-5.217-5-10.053-7.172-16.36-2.173-6.192-.381-4.237-6.3-4.945-3.1-.436-6.143-.327-9.182-.872a44.633,44.633,0,0,1-10.543-3.335,14.93,14.93,0,0,1-3.668,1.58,1.049,1.049,0,0,1-1.313-1,2.187,2.187,0,0,1,1.053-1.919,3.7,3.7,0,0,1,.514-.224c-.956-.448-1.925-.908-2.911-1.362a11.2,11.2,0,0,1-.478,1.023,1.054,1.054,0,0,1-1.9-.248,7.513,7.513,0,0,1-.448-2.04c-.23-.1-.448-.206-.684-.3-4.073-1.683-9.89-5.653-14.78-2.064-1.41,1.035-2.663,5-3.752,6.524a32.455,32.455,0,0,1-10.9,9.254,31.17,31.17,0,0,1-3.674,5.7,1.044,1.044,0,0,1-1.737-.46,8.8,8.8,0,0,1,.133-3.129,79.013,79.013,0,0,1-8.782,1.368,5.386,5.386,0,0,1-1.664,4.424,1.048,1.048,0,0,1-1.737-.46,10.382,10.382,0,0,1-.139-3.371,16.97,16.97,0,0,0-7.578,3.408c-9.672,8.062-16.329,18.018-30.086,18.974a18.551,18.551,0,0,1-6.8,2.748c-.914.169-1.894-1.011-1.011-1.737a19.647,19.647,0,0,1,1.658-1.21Z" transform="translate(-1292.454 -386.708)" fill="#aab6c2"/>
                  <path id="Path_11800" data-name="Path 11800" d="M1668.058,456.325a23.092,23.092,0,0,1,6.458-10.337,2.783,2.783,0,0,1,4.515,1.265,2.458,2.458,0,0,1,.375,2.209,17.155,17.155,0,0,1-7.36,9.932A2.742,2.742,0,0,1,1668.058,456.325Z" transform="translate(-1431.37 -384.419)" fill="#aab6c2"/>
                  <path id="Path_11801" data-name="Path 11801" d="M1575.06,426.61c-.49-3,4.261-4.164,5.29-1.011a21.882,21.882,0,0,1,1.023,8.728c-.206,2.433-3.771,4.013-5.06,1.368a14.075,14.075,0,0,1-1.253-9.091Z" transform="translate(-1394.599 -375.924)" fill="#aab6c2"/>
                  <path id="Path_11802" data-name="Path 11802" d="M1699.213,504.574a12.743,12.743,0,0,1,10.677-6.96c3.407-.266,3.444,4.884.206,5.375a2.266,2.266,0,0,1-.466,1.386,9.822,9.822,0,0,1-8.074,4.285A2.744,2.744,0,0,1,1699.213,504.574Z" transform="translate(-1443.587 -405.087)" fill="#aab6c2"/>
                  <path id="Path_11803" data-name="Path 11803" d="M1463.144,459.584a.88.88,0,0,1,.545-.424.114.114,0,0,0-.012-.042c-.418-1.277,1.592-1.822,2-.557.914,2.8,1.386,6.294-.472,8.588a1.282,1.282,0,0,1-.115.139,5.433,5.433,0,0,1-1.61,1.3,1.048,1.048,0,0,1-1.525-.623,14.043,14.043,0,0,1,1.186-8.383Z" transform="translate(-1349.979 -389.391)" fill="#c6d0db"/>
                  <path id="Path_11804" data-name="Path 11804" d="M1499.54,459.411a1.066,1.066,0,0,1,1.368,1.459,7.889,7.889,0,0,1-4.545,3.819,1.047,1.047,0,0,1-1.277-1.277A5.115,5.115,0,0,1,1499.54,459.411Z" transform="translate(-1363.121 -389.975)" fill="#c6d0db"/>
                  <path id="Path_11805" data-name="Path 11805" d="M1522.738,475.04a26.461,26.461,0,0,1,6.736-6.373c1.12-.738,2.161,1.065,1.053,1.8a23.472,23.472,0,0,0-2.705,2.088c.121-.036.242-.085.369-.121.048-.012.085.012.133,0,.605-.121,1.265.182,1.18.95-.018.182-.012.363-.03.551a1.052,1.052,0,0,1,.8.3c0-.1.012-.188.012-.284a1.047,1.047,0,0,1,2.046-.278c1.271,3.619,1.108,7.8-2.379,10.077a1.049,1.049,0,0,1-1.525-.623,23.474,23.474,0,0,1-1.132-7.051,5.253,5.253,0,0,1-3.94.5,1.051,1.051,0,0,1-.624-1.525Z" transform="translate(-1373.984 -393.595)" fill="#c6d0db"/>
                  <path id="Path_11806" data-name="Path 11806" d="M1614.42,520.929a51.446,51.446,0,0,1,8.637-2.718,1.05,1.05,0,0,1,.841,1.876,1.065,1.065,0,0,1,.091,1.834,10.039,10.039,0,0,1-9.569,1.011A1.05,1.05,0,0,1,1614.42,520.929Z" transform="translate(-1409.949 -413.212)" fill="#c6d0db"/>
                  <path id="Path_11807" data-name="Path 11807" d="M1601.616,514.821a19.617,19.617,0,0,1,3.849-5.532,1.016,1.016,0,0,1,1.689.43c.811-1.011,2.584.012,1.773,1.065a22.942,22.942,0,0,1-5.9,5.459c-.95.605-1.828-.551-1.422-1.422Z" transform="translate(-1405.14 -409.579)" fill="#c6d0db"/>
                  <path id="Path_11808" data-name="Path 11808" d="M1664.306,559.415a28.874,28.874,0,0,1,5.381-9.46c.865-1.023,2.33.454,1.471,1.471-.333.393-.629.8-.938,1.216a.989.989,0,0,1,.744.974,8.618,8.618,0,0,1-5.375,7.081c-.726.309-1.513-.587-1.277-1.277Z" transform="translate(-1429.918 -425.617)" fill="#c6d0db"/>
                  <path id="Path_11809" data-name="Path 11809" d="M1698.539,596.916a1.047,1.047,0,0,1,2,0c.248.847.539,1.677.841,2.506a.909.909,0,0,1,1.089.085,1.058,1.058,0,0,1,1.822.678,22.2,22.2,0,0,1-.042,3.377,11.744,11.744,0,0,1-.1,2.149c-.127.853-1.21.9-1.737.46-.194-.157-.369-.333-.551-.5-.115-.036-.224-.055-.357-.109a2.464,2.464,0,0,1-1.58-2.094A7.878,7.878,0,0,1,1698.539,596.916Z" transform="translate(-1443.355 -443.999)" fill="#c6d0db"/>
                  <path id="Path_11810" data-name="Path 11810" d="M1389.66,503.333c.164-.763,1.077-1.332,1.671-.569,1.858,2.391,3.813,5.847,1.132,8.449a1.054,1.054,0,0,1-1.737-.46,30.574,30.574,0,0,1-1.634-6.294,1.088,1.088,0,0,1,.563-1.126Z" transform="translate(-1321.282 -406.982)" fill="#c6d0db"/>
                  <path id="Path_11811" data-name="Path 11811" d="M1362.039,527.982a.834.834,0,0,1,.817-.375,4.132,4.132,0,0,1,3.432,1.949,3.061,3.061,0,0,1-.478,3.547,1.052,1.052,0,0,1-1.471,0,18.5,18.5,0,0,1-2.827-3.674A.987.987,0,0,1,1362.039,527.982Z" transform="translate(-1310.342 -416.93)" fill="#c6d0db"/>
                  <path id="Path_11812" data-name="Path 11812" d="M1343.043,549.317a.982.982,0,0,1,.98-.466,50.277,50.277,0,0,0,.859-5.108c.145-1.313,2.227-1.331,2.076,0a45.9,45.9,0,0,1-1.743,8.849c-.545,1.713-1.259,3.032-2.966,3.746a1.042,1.042,0,0,1-1.313-1,14.03,14.03,0,0,1,2.106-6.022Z" transform="translate(-1302.276 -422.91)" fill="#c6d0db"/>
                  <path id="Path_11813" data-name="Path 11813" d="M1515.739,403.491c.224-1.5,1.035-6.083,3.044-6.361,2.028-.278,2.512,3.232,2.669,4.509a12.61,12.61,0,0,1-1.888,8.249.77.77,0,0,1-.1.1c-.024.23-.042.454-.073.684a1.05,1.05,0,0,1-1.937.527,10.588,10.588,0,0,1-1.713-7.711Z" transform="translate(-1371.235 -365.418)" fill="#aab6c2"/>
                  <path id="Path_11814" data-name="Path 11814" d="M1481.43,393.338a1.052,1.052,0,0,1,1.313-1,11.512,11.512,0,0,1,8.3,7.233c.091.121.194.23.284.351a.792.792,0,0,1,.054.878,1.065,1.065,0,0,1-1.64.69,8.1,8.1,0,0,1-8.316-8.146Z" transform="translate(-1357.74 -363.52)" fill="#aab6c2"/>
                  <path id="Path_11815" data-name="Path 11815" d="M1436.285,427.234a1.058,1.058,0,0,1,1.8,0,10.358,10.358,0,0,1,1.767,9.115.89.89,0,0,1-.151.3,4.853,4.853,0,0,1-1.81,3.244c-.575.442-1.325-.067-1.525-.623-1.44-3.97-2.451-8.231-.079-12.044Z" transform="translate(-1339.358 -377.11)" fill="#aab6c2"/>
                  <path id="Path_11816" data-name="Path 11816" d="M1388.141,396.019a21.312,21.312,0,0,1,7.184,1.041,5.75,5.75,0,0,1,3.4,3.28,2.494,2.494,0,0,1,.9,2.264c-.623,4.455-8.594-.23-10.374-1.174-1.3-.7-2.724-1.664-3.014-3.22-.278-1.489.526-2.173,1.906-2.185Z" transform="translate(-1320.138 -364.985)" fill="#aab6c2"/>
                  <path id="Path_11817" data-name="Path 11817" d="M1351.78,438.483a17.215,17.215,0,0,1,9.526-2.149,2.2,2.2,0,0,1,1.858,3,1.717,1.717,0,0,1-.7,1.192,10.244,10.244,0,0,1-10.186,1.755c-1.561-.611-2.2-2.869-.5-3.8Z" transform="translate(-1306.16 -380.885)" fill="#aab6c2"/>
                  <path id="Path_11818" data-name="Path 11818" d="M1336.433,485.906c2-1.168,3.365.9,3.958,2.481a15.947,15.947,0,0,1,.95,5.241c.054,2.094-2.451,2.524-3.595,1.344a1.607,1.607,0,0,1-.7-.472,7.983,7.983,0,0,1-1.937-4.079c-.224-1.525-.194-3.631,1.319-4.515Z" transform="translate(-1299.939 -400.334)" fill="#aab6c2"/>
                  <path id="Path_11819" data-name="Path 11819" d="M1313.342,516.639a6.581,6.581,0,0,1,5.4-2.288,2.124,2.124,0,0,1,2.076,2.076,1.918,1.918,0,0,1-.133.629c.018.048.061.085.073.139a2.122,2.122,0,0,1-1.453,2.56,10.3,10.3,0,0,1-5.054.357c-1.689-.26-1.8-2.421-.914-3.474Z" transform="translate(-1291.168 -411.693)" fill="#c6d0db"/>
                </g>
                <path id="Path_11820" data-name="Path 11820" d="M1388.979,606.111a2.513,2.513,0,0,0,1.307-.357,81.934,81.934,0,0,0,35.885,22.509c3.7,32.368,1.507,88.274-2.669,120.388a2.9,2.9,0,0,0,2.621,3.438,61.83,61.83,0,0,0,15.712-1.477,2.415,2.415,0,0,0,1.695-3.486c.224-35.213-.466-91.978-4.212-125.768-.726-6.567-1.41-13.376-1.749-20.221a53.663,53.663,0,0,0,35.63-14.374c-13.733,7.578-23.743,8.7-35.8,8.951-.188-10.477.63-20.941,3.71-30.728,5.822-18.5,19.755-32.846,32.913-46.476,2.433-2.518-13.8,6.518-18.484,12-.1-6.615-.012-13.23.418-19.846.224-3.5-5.677,25.862-5.55,26.164a96.226,96.226,0,0,0-11.009,17.685,69.4,69.4,0,0,0-4.073,11.2c-1.646-22.012-15.766-75.86-15.536-72.386,1.555,23.041,7.4,44.945,6.373,65.238-.914,18.012-3.232,35.382-1.664,53.473.3,3.438.406,4.57.769,7.965-5.514-1.882-15.312-6.621-16.057-7.3a17.751,17.751,0,0,1-5.949-15.694c.478-3.426-5.459,6.161-4.315,9.654a76.709,76.709,0,0,1-14.8-18.054c-1.773-3.014-.581,9.048,1.719,11.972a151.849,151.849,0,0,1-35.588-4.824c-3.4-.884,25.075,10.368,38.7,10.349Z" transform="translate(-1305.852 -403.335)" fill="#aab6c2"/>
              </g>
              <path id="Path_11821" data-name="Path 11821" d="M908.93,839.873c2.034,1.241,5.042.962,7.275.514a.777.777,0,0,0,.23-.1A35.393,35.393,0,0,1,921.464,843a14.7,14.7,0,0,0-5.532,1.114c-1.822.769-4.684,2.9-3.19,4.7,1.931,2.324,9.532-.581,12.643-2.917a44.973,44.973,0,0,1,6,6.192,14.865,14.865,0,0,0-5.429.448c-1.9.539-5.005,2.306-3.746,4.267,1.495,2.33,8.292.878,12-.878a72.778,72.778,0,0,1,4.079,6.888,14.755,14.755,0,0,0-5.151-.7c-1.973.091-5.4,1.114-4.618,3.311.932,2.627,7.965,2.73,11.972,1.84,1.126,2.379,2.07,4.491,3.038,6.748a14.85,14.85,0,0,0-5.647-1.816c-1.967-.2-5.508.3-5.066,2.584.575,2.972,8.715,4.073,12.547,3.5.557.714,2.021-.03,1.882-.914-.085-.206-.169-.4-.248-.605a7.613,7.613,0,0,0,2.893-3.456,1.97,1.97,0,0,0-.03.43c.1,2.9,7.323,5.169,11.342,5.375a1.048,1.048,0,0,0,1.61-.411,18.989,18.989,0,0,0,1.979-1.64,18.242,18.242,0,0,0,1.979,1.64,1.047,1.047,0,0,0,1.61.411c4.019-.206,11.239-2.475,11.342-5.375.085-2.33-3.492-2.276-5.4-1.773a14.668,14.668,0,0,0-4.793,2.288q.372-1.834.75-3.668c2.869-.194,7.172-1.374,9.5-3.05a18.768,18.768,0,0,0,.454,4.043,7.988,7.988,0,0,0,3.444,5.193l-.248.605c-.139.89,1.325,1.634,1.882.914,3.831.575,11.972-.527,12.547-3.5.442-2.288-3.1-2.79-5.066-2.584a14.816,14.816,0,0,0-5.647,1.816c.962-2.264,1.913-4.376,3.038-6.748,4,.89,11.033.787,11.972-1.84.781-2.2-2.645-3.22-4.618-3.311a14.722,14.722,0,0,0-5.145.7,75.473,75.473,0,0,1,4.079-6.888c3.716,1.755,10.507,3.208,12.008.878,1.259-1.967-1.846-3.734-3.746-4.267a14.841,14.841,0,0,0-5.429-.448,44.671,44.671,0,0,1,6-6.192c3.111,2.336,10.713,5.235,12.637,2.917,1.495-1.8-1.368-3.928-3.19-4.7a14.7,14.7,0,0,0-5.532-1.114,36,36,0,0,1,5.03-2.711.976.976,0,0,0,.23.1c2.227.448,5.235.72,7.269-.515a5.979,5.979,0,0,0,2.463-5.229.979.979,0,0,0-.587-.8,10.5,10.5,0,0,0-6.355.1c-2.264.781-3.407,2.7-4.406,4.739a.16.16,0,0,1-.018.048,38.292,38.292,0,0,0-3.432,1.792,12.9,12.9,0,0,0,.569-3.91c-.018-1.325-.212-5.211-2.512-4.66-1.713.411-3,4.128-3.432,5.586a7.99,7.99,0,0,0,.575,6.319,45.681,45.681,0,0,0-5.556,5.374,12.932,12.932,0,0,0,.006-3.553c-.182-1.313-.853-5.151-3.063-4.321-1.646.617-2.463,4.467-2.717,5.962a7.936,7.936,0,0,0,1.67,6.627,1.02,1.02,0,0,0-.121.775c-1.211,1.779-2.33,3.631-3.377,5.532-.061.109-.115.218-.176.327a13,13,0,0,0-.817-3.868c-.478-1.241-2-4.824-3.964-3.516-1.465.974-1.386,4.9-1.3,6.422a7.944,7.944,0,0,0,3.129,6.077,1.076,1.076,0,0,0-.012.587c-.738,1.507-1.44,3.008-2.13,4.545a12.985,12.985,0,0,0-1.2-2.911c-.563-.987-2.143-3.547-3.68-3.274-.5-1.719-3.6-1.64-5.326-1.192a14.8,14.8,0,0,0-4.666,2.191q.953-4.421,2.009-8.818c3.88-.03,11.729-2.36,11.832-5.381.085-2.33-3.492-2.282-5.4-1.779a14.835,14.835,0,0,0-5.308,2.669q.935-3.586,1.979-7.142c4.091.26,11.015-.914,11.53-3.656.436-2.288-3.1-2.772-5.072-2.566a14.674,14.674,0,0,0-4.975,1.489,73.165,73.165,0,0,1,2.972-7.432c3.94,1.162,10.876,1.556,12-.98.944-2.13-2.4-3.4-4.364-3.643a14.869,14.869,0,0,0-5.429.387,44.779,44.779,0,0,1,4.975-7.039c3.438,1.828,11.391,3.529,12.94.944,1.192-2-1.961-3.674-3.88-4.152a14.745,14.745,0,0,0-5.635-.248,34.94,34.94,0,0,1,4.551-3.444.83.83,0,0,0,.242.054c2.27.1,5.29-.091,7.105-1.628a6,6,0,0,0,1.634-5.544.992.992,0,0,0-.7-.7,10.45,10.45,0,0,0-6.264,1.071c-2.118,1.12-2.954,3.19-3.619,5.362a.135.135,0,0,1-.006.048,37.3,37.3,0,0,0-3.117,2.3,12.933,12.933,0,0,0-.042-3.952c-.224-1.307-1.017-5.12-3.2-4.224-1.628.672-2.324,4.539-2.53,6.046a7.983,7.983,0,0,0,1.549,6.155A45.4,45.4,0,0,0,982.411,826a13.118,13.118,0,0,0-.539-3.516c-.387-1.271-1.64-4.957-3.7-3.795-1.531.865-1.743,4.793-1.761,6.313a7.914,7.914,0,0,0,2.669,6.288,1.026,1.026,0,0,0,0,.781c-.914,1.943-1.743,3.946-2.481,5.986-.042.115-.085.242-.121.357a12.985,12.985,0,0,0-1.41-3.7c-.666-1.15-2.724-4.461-4.461-2.869-1.3,1.192-.617,5.06-.284,6.543a7.952,7.952,0,0,0,4.031,5.526,1.058,1.058,0,0,0,.1.641c-.49,1.592-.956,3.19-1.392,4.806a12.988,12.988,0,0,0-1.67-2.742c-.829-1.041-3.365-4-4.842-2.167-1.1,1.368.151,5.1.7,6.512a8.025,8.025,0,0,0,4.213,4.606q-1,4.149-1.888,8.322a13.061,13.061,0,0,0-1.961-3.492c-.1-.127-.23-.284-.375-.454a2.746,2.746,0,0,0-.424-1.713,5.808,5.808,0,0,0-4.043,0,2.7,2.7,0,0,0-.424,1.713c-.145.17-.278.327-.375.454a13.059,13.059,0,0,0-1.967,3.492q-.881-4.176-1.882-8.322a8.025,8.025,0,0,0,4.213-4.606c.551-1.416,1.8-5.145.7-6.512-1.477-1.834-4.013,1.126-4.842,2.167a12.994,12.994,0,0,0-1.67,2.742q-.663-2.415-1.392-4.806a1.066,1.066,0,0,0,.1-.641,7.952,7.952,0,0,0,4.031-5.526c.333-1.483,1.011-5.356-.284-6.543-1.743-1.592-3.8,1.719-4.461,2.869a12.985,12.985,0,0,0-1.41,3.7c-.042-.115-.079-.242-.121-.357q-1.107-3.06-2.481-5.98a1.013,1.013,0,0,0,0-.787A7.913,7.913,0,0,0,953.185,825c-.018-1.519-.23-5.447-1.761-6.313-2.058-1.162-3.311,2.524-3.7,3.795a13.082,13.082,0,0,0-.539,3.516,45.4,45.4,0,0,0-4.666-6.161,8,8,0,0,0,1.549-6.155c-.206-1.507-.9-5.375-2.53-6.046-2.185-.9-2.978,2.911-3.2,4.224a12.931,12.931,0,0,0-.042,3.952,38.313,38.313,0,0,0-3.117-2.3v-.048c-.666-2.173-1.5-4.243-3.619-5.362a10.5,10.5,0,0,0-6.264-1.071.992.992,0,0,0-.7.7,5.971,5.971,0,0,0,1.634,5.544c1.822,1.537,4.836,1.725,7.105,1.628a.826.826,0,0,0,.242-.054,35.47,35.47,0,0,1,4.551,3.444,14.866,14.866,0,0,0-5.635.248c-1.919.478-5.072,2.149-3.88,4.152,1.549,2.59,9.5.89,12.94-.944a44.744,44.744,0,0,1,4.969,7.039,14.74,14.74,0,0,0-5.429-.387c-1.967.242-5.3,1.513-4.364,3.643,1.12,2.536,8.056,2.143,12,.98a71.737,71.737,0,0,1,2.966,7.432,14.676,14.676,0,0,0-4.975-1.489c-1.967-.212-5.508.278-5.072,2.566.514,2.742,7.432,3.916,11.53,3.656q1.044,3.55,1.979,7.142a14.813,14.813,0,0,0-5.314-2.669c-1.912-.5-5.483-.551-5.4,1.779.109,3.02,7.953,5.35,11.832,5.381q1.062,4.394,2.009,8.818a14.772,14.772,0,0,0-4.66-2.191c-1.816-.472-5.126-.539-5.381,1.447a8.742,8.742,0,0,0-2.53,3.02,12.888,12.888,0,0,0-1.21,2.911c-.684-1.531-1.386-3.032-2.124-4.545a1.021,1.021,0,0,0-.012-.587,7.944,7.944,0,0,0,3.129-6.077c.1-1.513.169-5.447-1.3-6.422-1.967-1.307-3.492,2.276-3.964,3.516a12.81,12.81,0,0,0-.817,3.867c-.061-.109-.115-.212-.176-.327q-1.562-2.851-3.377-5.532a1.029,1.029,0,0,0-.121-.775,7.936,7.936,0,0,0,1.671-6.627c-.248-1.495-1.071-5.344-2.718-5.962-2.209-.829-2.881,3-3.069,4.321a12.7,12.7,0,0,0,.012,3.553,45.746,45.746,0,0,0-5.562-5.375,7.968,7.968,0,0,0,.575-6.319c-.436-1.459-1.719-5.175-3.432-5.586-2.3-.551-2.494,3.335-2.512,4.66a12.712,12.712,0,0,0,.569,3.91,37.638,37.638,0,0,0-3.438-1.792.081.081,0,0,0-.018-.048c-.993-2.046-2.136-3.958-4.4-4.739a10.565,10.565,0,0,0-6.361-.1,1.011,1.011,0,0,0-.587.8,6.008,6.008,0,0,0,2.463,5.229Zm55.857,27.744c-.085-.079-.163-.157-.248-.236.085-.091.169-.188.248-.284.079.1.169.194.248.284C964.951,867.46,964.866,867.539,964.787,867.617Zm-14.713,5.211a10.451,10.451,0,0,0,.375-1.259,20.151,20.151,0,0,0,.454-3.365,23.06,23.06,0,0,0,8.407,2.373q.381,1.834.75,3.668a14.727,14.727,0,0,0-4.793-2.288C953.651,871.533,950.849,871.436,950.074,872.828Z" transform="translate(-906.446 -455.51)" fill="#aab6c2"/>
              <g id="Group_6269" data-name="Group 6269" transform="translate(90.905)">
                <g id="Group_6268" data-name="Group 6268">
                  <g id="Group_6266" data-name="Group 6266">
                    <path id="Path_11822" data-name="Path 11822" d="M1215.979,293.674a225.357,225.357,0,0,0-19.737-22.848c-6.319-6.446-13.509-14.265-23.979-16.6-20.445-4.551-40.157,14.538-51.251,25.5a133.246,133.246,0,0,0-29.59,43.583,113.093,113.093,0,0,0-8.51,52.849c3.147,36.593,27.472,78.6,76.466,87.759,1.574.29,9.9.4,11.064.054,16.729-5.1,30.849-10.6,42.282-17.322,17.867-10.495,29.118-23.913,33.4-43.129,8.558-38.148-5.52-77.034-30.141-109.85Z" transform="translate(-1066.862 -237.065)" fill="#c6d0db"/>
                    <path id="Path_11823" data-name="Path 11823" d="M1163.714,481.491c-17.57-6.355-35.158-13.836-46.936-26.334-11.681-12.389-17.346-27.381-20.608-42.445-3.081-14.181-5.725-29.366-4.769-43.892a113.093,113.093,0,0,0-8.51,52.849c3.147,36.593,27.472,78.6,76.466,87.759,1.574.291,9.9.4,11.064.055,16.729-5.1,30.849-10.6,42.282-17.322-17.019-.9-33.294-5.005-48.988-10.676Z" transform="translate(-1066.854 -282.572)" fill="#aab6c2"/>
                    <path id="Path_11824" data-name="Path 11824" d="M1073.1,417.218a1.571,1.571,0,0,0-2.233,1.2c.188,5.151-.278,11.233,3.94,15.573,3.456,3.547,8.649,4.1,13.9,4.781a1.557,1.557,0,0,0,1.64-.714,1.188,1.188,0,0,0,.514-.521c4.515-9.629-8.855-16.335-17.758-20.318Z" transform="translate(-1062.259 -301.622)" fill="#c6d0db"/>
                    <path id="Path_11825" data-name="Path 11825" d="M1103.645,334.254a1.718,1.718,0,0,0-2.524.769c-1.307,5.048-3.516,10.888-.654,15.869,2.342,4.079,7.239,5.562,12.147,7.166a1.717,1.717,0,0,0,1.8-.4,1.333,1.333,0,0,0,.654-.418c7.166-8.558-3.91-17.5-11.427-22.993Z" transform="translate(-1073.392 -268.814)" fill="#c6d0db"/>
                    <path id="Path_11826" data-name="Path 11826" d="M1125.95,294.273a1.707,1.707,0,0,0-2.518.769c-1.3,5.048-3.516,10.888-.654,15.869,2.342,4.079,7.239,5.562,12.147,7.166a1.714,1.714,0,0,0,1.8-.4,1.333,1.333,0,0,0,.654-.418c7.166-8.558-3.91-17.5-11.427-22.993Z" transform="translate(-1082.2 -253.031)" fill="#c6d0db"/>
                    <path id="Path_11827" data-name="Path 11827" d="M1149.849,274.293a1.707,1.707,0,0,0-2.518.769c-1.307,5.048-3.516,10.888-.654,15.869,2.342,4.079,7.232,5.556,12.147,7.166a1.714,1.714,0,0,0,1.8-.4,1.333,1.333,0,0,0,.654-.418c7.166-8.558-3.91-17.5-11.427-22.987Z" transform="translate(-1091.634 -245.144)" fill="#c6d0db"/>
                    <path id="Path_11828" data-name="Path 11828" d="M1181.542,247.7a1.77,1.77,0,0,0-2.627.508c-2.118,4.872-5.26,10.44-3.232,15.67,1.658,4.285,6.276,6.252,10.882,8.346a1.743,1.743,0,0,0,1.852-.212,1.43,1.43,0,0,0,.714-.345c8.5-7.753-1.029-17.758-7.6-23.961Z" transform="translate(-1103.378 -234.605)" fill="#c6d0db"/>
                    <path id="Path_11829" data-name="Path 11829" d="M1309.4,357.241a1.36,1.36,0,0,0,.648.418,1.694,1.694,0,0,0,1.8.4c4.908-1.61,9.8-3.087,12.147-7.166,2.857-4.981.647-10.822-.654-15.869a1.713,1.713,0,0,0-2.518-.769c-7.517,5.483-18.6,14.435-11.427,22.993Z" transform="translate(-1155.507 -268.814)" fill="#c6d0db"/>
                    <path id="Path_11830" data-name="Path 11830" d="M1287.11,332.19a1.361,1.361,0,0,0,.648.418,1.694,1.694,0,0,0,1.8.4c4.908-1.61,9.8-3.087,12.147-7.166,2.863-4.981.654-10.822-.654-15.869a1.707,1.707,0,0,0-2.518-.769c-7.517,5.483-18.593,14.435-11.427,22.987Z" transform="translate(-1146.709 -258.925)" fill="#aab6c2"/>
                    <path id="Path_11831" data-name="Path 11831" d="M1263.212,297.281a1.35,1.35,0,0,0,.654.418,1.69,1.69,0,0,0,1.8.4c4.908-1.61,9.8-3.087,12.147-7.166,2.857-4.981.654-10.822-.654-15.869a1.713,1.713,0,0,0-2.518-.769c-7.517,5.483-18.6,14.435-11.427,22.987Z" transform="translate(-1137.277 -245.144)" fill="#c6d0db"/>
                    <path id="Path_11832" data-name="Path 11832" d="M1235.9,271.657a1.454,1.454,0,0,0,.714.345,1.755,1.755,0,0,0,1.858.212c4.606-2.094,9.224-4.061,10.882-8.346,2.027-5.235-1.114-10.8-3.232-15.67a1.767,1.767,0,0,0-2.621-.508c-6.567,6.2-16.1,16.208-7.6,23.961Z" transform="translate(-1126.083 -234.603)" fill="#c6d0db"/>
                    <path id="Path_11833" data-name="Path 11833" d="M1214.6,226.87a1.812,1.812,0,0,0-2.7.115c-3.22,4.479-7.608,9.484-6.845,14.925.629,4.455,4.7,7.063,8.74,9.8a1.772,1.772,0,0,0,1.87.061,1.531,1.531,0,0,0,.781-.236c10.168-6.373,3.147-17.6-1.852-24.663Z" transform="translate(-1115.196 -226.317)" fill="#c6d0db"/>
                    <path id="Path_11834" data-name="Path 11834" d="M1058.07,456.31a1.24,1.24,0,0,0-1.2,1.913c3.353,4.418,6.712,9.9,13.079,12.038,5.211,1.749,10.083.224,15.076-1.223a1.166,1.166,0,0,0,.987-1.259.9.9,0,0,0,.127-.654c-2.034-10.138-17.836-10.8-28.065-10.816Z" transform="translate(-1056.644 -317.11)" fill="#c6d0db"/>
                    <path id="Path_11835" data-name="Path 11835" d="M1106.38,491.63a1.243,1.243,0,0,0-1.2,1.919c3.353,4.418,6.712,9.9,13.079,12.038,5.211,1.749,10.083.218,15.07-1.223a1.164,1.164,0,0,0,.987-1.259.9.9,0,0,0,.127-.654c-2.034-10.138-17.842-10.8-28.065-10.816Z" transform="translate(-1075.715 -331.053)" fill="#aab6c2"/>
                    <path id="Path_11836" data-name="Path 11836" d="M1137.151,520.609a1.13,1.13,0,0,0,.03,2.137c5.514,2.742,11.651,6.422,18.551,6.052,5.647-.3,9.115-3.42,12.74-6.494a.984.984,0,0,0,.157-1.477.922.922,0,0,0-.26-.629c-7.608-8.31-22.085-3.238-31.212.412Z" transform="translate(-1088.129 -340.556)" fill="#c6d0db"/>
                    <path id="Path_11837" data-name="Path 11837" d="M1176.01,542.829a1.131,1.131,0,0,0,.024,2.137c5.514,2.736,11.651,6.422,18.544,6.052,5.653-.3,9.115-3.42,12.74-6.494a.984.984,0,0,0,.157-1.477.9.9,0,0,0-.266-.629c-7.608-8.31-22.079-3.238-31.206.412Z" transform="translate(-1103.469 -349.327)" fill="#c6d0db"/>
                    <path id="Path_11838" data-name="Path 11838" d="M1094.2,449.863c-1.2-.206-2.033.853-1.682,1.67,2.106,4.878,3.934,10.8,9.587,13.951,4.624,2.578,9.8,1.894,15.058,1.313a1.322,1.322,0,0,0,1.3-1.071.936.936,0,0,0,.3-.617c.708-10.253-14.568-13.527-24.561-15.246Z" transform="translate(-1070.773 -314.555)" fill="#aab6c2"/>
                    <path id="Path_11839" data-name="Path 11839" d="M1152.383,585.786c-.72.49-.278,1.386.521,1.592,4.769,1.229,10.222,3.075,15.288,1.773,4.146-1.065,6-3.9,7.983-6.736a.769.769,0,0,0-.23-1.126.827.827,0,0,0-.345-.43C1167.955,575.776,1158.338,581.707,1152.383,585.786Z" transform="translate(-1094.294 -365.503)" fill="#c6d0db"/>
                    <path id="Path_11840" data-name="Path 11840" d="M1074.231,493.774a1.392,1.392,0,0,0-1.779,1.61c1.81,4.951,3.287,10.931,8.746,14.29,4.467,2.748,9.672,2.258,14.967,1.876a1.359,1.359,0,0,0,1.362-1.023.972.972,0,0,0,.333-.605C1099.178,499.706,1084.114,495.862,1074.231,493.774Z" transform="translate(-1062.86 -331.884)" fill="#c6d0db"/>
                    <path id="Path_11841" data-name="Path 11841" d="M1323.12,398.082a1.156,1.156,0,0,0,.514.52,1.548,1.548,0,0,0,1.64.714c5.241-.678,10.434-1.235,13.9-4.781,4.219-4.333,3.752-10.416,3.94-15.573a1.571,1.571,0,0,0-2.233-1.2c-8.9,3.982-22.267,10.695-17.758,20.318Z" transform="translate(-1161.482 -286.045)" fill="#aab6c2"/>
                    <path id="Path_11842" data-name="Path 11842" d="M1337.217,424.316a.873.873,0,0,0,.121.654,1.161,1.161,0,0,0,.987,1.259c4.987,1.44,9.859,2.978,15.07,1.223,6.367-2.136,9.726-7.62,13.079-12.038a1.24,1.24,0,0,0-1.2-1.913c-10.223.012-26.031.672-28.065,10.816Z" transform="translate(-1167.396 -300.21)" fill="#aab6c2"/>
                    <path id="Path_11843" data-name="Path 11843" d="M1323.255,527.919a.876.876,0,0,0-.042.66,1.058,1.058,0,0,0,.66,1.386c4.539,2.185,8.939,4.436,14.483,3.522,6.767-1.12,11.409-5.98,15.785-9.8a1.169,1.169,0,0,0-.708-2.064c-10.029-1.556-25.7-3.341-30.183,6.288Z" transform="translate(-1161.846 -342.407)" fill="#c6d0db"/>
                    <path id="Path_11844" data-name="Path 11844" d="M1281.246,561.6a.846.846,0,0,0-.036.66,1.049,1.049,0,0,0,.66,1.386c4.539,2.185,8.939,4.436,14.483,3.523,6.773-1.12,11.415-5.98,15.791-9.8a1.169,1.169,0,0,0-.708-2.064c-10.035-1.555-25.7-3.341-30.183,6.288Z" transform="translate(-1145.264 -355.702)" fill="#c6d0db"/>
                    <path id="Path_11845" data-name="Path 11845" d="M1250.175,584.271a.891.891,0,0,0-.042.666,1.058,1.058,0,0,0,.66,1.386c4.545,2.185,8.945,4.436,14.483,3.523,6.773-1.12,11.415-5.98,15.791-9.8a1.169,1.169,0,0,0-.708-2.064C1270.323,576.421,1254.659,574.635,1250.175,584.271Z" transform="translate(-1132.997 -364.653)" fill="#aab6c2"/>
                    <path id="Path_11846" data-name="Path 11846" d="M1229.507,593.28a.693.693,0,0,0-.272.357.633.633,0,0,0-.157.932c1.719,2.294,3.329,4.588,6.767,5.381,4.2.968,8.619-.654,12.5-1.755.654-.188.987-.926.381-1.319-5.017-3.238-13.1-7.923-19.228-3.6Z" transform="translate(-1124.658 -370.49)" fill="#c6d0db"/>
                    <path id="Path_11847" data-name="Path 11847" d="M1201.693,593.28a.627.627,0,0,1,.23.357.705.705,0,0,1,.133.932c-1.453,2.294-2.82,4.588-5.738,5.381-3.565.968-7.317-.654-10.6-1.755a.77.77,0,0,1-.321-1.319c4.255-3.238,11.112-7.923,16.305-3.6Z" transform="translate(-1107.363 -370.49)" fill="#c6d0db"/>
                    <path id="Path_11848" data-name="Path 11848" d="M1328.077,467.1a.956.956,0,0,0,.333.605,1.35,1.35,0,0,0,1.362,1.017c5.29.387,10.495.878,14.961-1.87,5.459-3.359,6.936-9.339,8.746-14.29.309-.835-.587-1.858-1.779-1.61C1341.822,453.043,1326.758,456.887,1328.077,467.1Z" transform="translate(-1163.763 -314.981)" fill="#aab6c2"/>
                    <path id="Path_11849" data-name="Path 11849" d="M1328.077,494.957a.987.987,0,0,0,.333.611,1.35,1.35,0,0,0,1.362,1.017c5.29.387,10.495.878,14.961-1.87,5.459-3.359,6.936-9.339,8.746-14.29.309-.835-.587-1.858-1.779-1.61-9.877,2.088-24.942,5.931-23.622,16.148Z" transform="translate(-1163.763 -325.979)" fill="#c6d0db"/>
                    <path id="Path_11850" data-name="Path 11850" d="M1119.174,559.664a1.13,1.13,0,0,0,.042,2.136c5.538,2.711,11.7,6.367,18.593,5.956,5.647-.333,9.091-3.462,12.686-6.555a.983.983,0,0,0,.145-1.477.942.942,0,0,0-.272-.629c-7.674-8.274-22.109-3.123-31.2.569Z" transform="translate(-1081.035 -355.934)" fill="#c6d0db"/>
                    <path id="Path_11851" data-name="Path 11851" d="M1098.422,540.242a1.148,1.148,0,0,0-.466,2.106c4.793,3.486,9.974,8,16.844,8.619,5.623.514,9.75-2.046,14.023-4.551a1.025,1.025,0,0,0,.5-1.428.855.855,0,0,0-.115-.654c-5.568-9.272-20.965-6.367-30.782-4.091Z" transform="translate(-1072.744 -349.337)" fill="#c6d0db"/>
                    <path id="Path_11852" data-name="Path 11852" d="M1246.828,274.405a1.142,1.142,0,0,0-1.7-.085c-2.427,2.621-5.629,5.508-5.647,8.957-.012,2.826,2.3,4.7,4.582,6.633a1.109,1.109,0,0,0,1.168.145.984.984,0,0,0,.508-.1c6.948-3.414,3.571-10.846,1.083-15.555Z" transform="translate(-1128.821 -245.134)" fill="#c6d0db"/>
                    <path id="Path_11853" data-name="Path 11853" d="M1315.981,405.18c-.1-.611-1.065-.781-1.61-.442-3.22,2.009-7.287,4.116-8.473,7.432-.968,2.717.63,5.011,2.167,7.366a1.02,1.02,0,0,0,1.077.387,1.086,1.086,0,0,0,.527.012C1317.518,418.12,1316.78,410.245,1315.981,405.18Z" transform="translate(-1154.924 -296.683)" fill="#c6d0db"/>
                    <path id="Path_11854" data-name="Path 11854" d="M1244.94,429.974a1.138,1.138,0,0,0-1.695.109c-1.931,2.869-4.588,6.083-3.982,9.5.5,2.8,3.117,4.388,5.726,6.052a1.107,1.107,0,0,0,1.18.012.974.974,0,0,0,.49-.157c6.264-4.158,1.592-11.136-1.713-15.518Z" transform="translate(-1128.7 -306.583)" fill="#aab6c2"/>
                    <path id="Path_11855" data-name="Path 11855" d="M1148.2,359.816a1.565,1.565,0,0,0-2.233,1.2c.188,5.151-.278,11.233,3.94,15.573,3.456,3.547,8.649,4.1,13.9,4.781a1.557,1.557,0,0,0,1.64-.714,1.128,1.128,0,0,0,.514-.52c4.515-9.623-8.855-16.335-17.758-20.318Z" transform="translate(-1091.906 -278.961)" fill="#c6d0db"/>
                    <path id="Path_11856" data-name="Path 11856" d="M1247.082,341.329c-.393-.9-2.215-1.1-3.075-.563-5.145,3.184-11.784,6.549-12.758,11.56-.8,4.1,2.911,7.42,6.537,10.834a2.423,2.423,0,0,0,2.088.514,2.258,2.258,0,0,0,.962-.018c13.612-3.159,9.5-14.84,6.252-22.333Z" transform="translate(-1125.528 -271.381)" fill="#aab6c2"/>
                    <path id="Path_11857" data-name="Path 11857" d="M1167.285,290.6a1.8,1.8,0,0,0-2.125,1.15c-.551,4.067-1.8,8.927,1.3,12,2.548,2.512,7.033,2.506,11.542,2.584a1.884,1.884,0,0,0,1.543-.708,1.41,1.41,0,0,0,.527-.46c5.3-8.019-5.514-12.177-12.789-14.562Z" transform="translate(-1099.198 -251.668)" fill="#c6d0db"/>
                    <path id="Path_11858" data-name="Path 11858" d="M1164.3,451.308a1.815,1.815,0,0,0-2.13,1.15c-.551,4.067-1.8,8.927,1.3,12,2.548,2.512,7.033,2.506,11.548,2.584a1.855,1.855,0,0,0,1.537-.708,1.41,1.41,0,0,0,.527-.46C1182.379,457.851,1171.57,453.693,1164.3,451.308Z" transform="translate(-1098.017 -315.11)" fill="#c6d0db"/>
                  </g>
                  <g id="Group_6267" data-name="Group 6267" transform="translate(6.996 199.827)">
                    <path id="Path_11859" data-name="Path 11859" d="M1109.494,569.366a89.4,89.4,0,0,0-12.117.176c-3.631.284-7.9.472-11.6,3.123-7.2,5.169-7.59,16.275-7.741,22.581a51.133,51.133,0,0,0,3.6,20.572,39.393,39.393,0,0,0,12.3,16.438c11.142,8.57,29.947,11.972,46.712-.859a30.665,30.665,0,0,0,3.226-3.426,89.458,89.458,0,0,0,7.426-17.661c2.245-8.292,1.761-15.294-2.366-21.637-8.183-12.613-23.138-18.387-39.455-19.3Z" transform="translate(-1072.08 -561.517)" fill="#c6d0db"/>
                    <path id="Path_11860" data-name="Path 11860" d="M1136.474,649.534c-6.875,3.8-14.072,7.317-20.978,7.711-6.851.4-12.686-1.755-17.842-4.672-4.86-2.742-9.871-5.883-13.654-9.974a39.394,39.394,0,0,0,12.3,16.438c11.143,8.57,29.947,11.972,46.712-.859a30.677,30.677,0,0,0,3.226-3.426,89.466,89.466,0,0,0,7.426-17.661,79.606,79.606,0,0,1-17.2,12.444Z" transform="translate(-1074.439 -588.303)" fill="#aab6c2"/>
                    <path id="Path_11861" data-name="Path 11861" d="M1108.156,571.914a.654.654,0,0,0,.406-.115.892.892,0,0,0,.817-.623c1.12-2.82,2.288-5.574,1.471-8.3-1-3.323-4.182-4.781-6.712-6.313a.9.9,0,0,0-1.223.781c-.478,5.574-.835,14.144,5.241,14.562Z" transform="translate(-1081.812 -556.481)" fill="#aab6c2"/>
                    <path id="Path_11862" data-name="Path 11862" d="M1152.218,577.45a.691.691,0,0,0,.406-.109.9.9,0,0,0,.817-.623c1.12-2.82,2.288-5.58,1.471-8.3-1-3.323-4.176-4.781-6.706-6.313a.9.9,0,0,0-1.223.787c-.484,5.574-.841,14.144,5.241,14.562Z" transform="translate(-1099.207 -558.67)" fill="#c6d0db"/>
                    <path id="Path_11863" data-name="Path 11863" d="M1171.343,583.738a.66.66,0,0,0,.417.012.9.9,0,0,0,.962-.357c1.894-2.367,3.819-4.666,3.831-7.5.018-3.468-2.6-5.8-4.57-8a.9.9,0,0,0-1.4.393c-2.094,5.187-4.945,13.279.75,15.458Z" transform="translate(-1107.595 -560.904)" fill="#c6d0db"/>
                    <path id="Path_11864" data-name="Path 11864" d="M1094.068,578.465a.646.646,0,0,0,.212-.363.884.884,0,0,0,.151-1.017c-1.162-2.8-2.245-5.592-4.733-6.972-3.032-1.689-6.331-.514-9.212.151a.9.9,0,0,0-.333,1.416c3.541,4.333,9.254,10.725,13.908,6.785Z" transform="translate(-1072.838 -561.519)" fill="#c6d0db"/>
                    <path id="Path_11865" data-name="Path 11865" d="M1083.7,599.525a.648.648,0,0,1-.048.393.8.8,0,0,1-.472.835c-2.542,1.3-5.011,2.645-7.753,2.094-3.347-.672-5.235-3.589-7.087-5.877a.808.808,0,0,1,.563-1.235c5.284-.92,13.467-1.979,14.8,3.795Z" transform="translate(-1068.203 -571.691)" fill="#c6d0db"/>
                    <path id="Path_11866" data-name="Path 11866" d="M1087.881,637.731a.648.648,0,0,1-.048.393.777.777,0,0,1-.472.829c-2.542,1.3-5.011,2.645-7.753,2.094-3.347-.672-5.235-3.589-7.087-5.877a.808.808,0,0,1,.563-1.235C1078.367,633.016,1086.55,631.957,1087.881,637.731Z" transform="translate(-1069.853 -586.771)" fill="#aab6c2"/>
                    <path id="Path_11867" data-name="Path 11867" d="M1152.2,654.868a.617.617,0,0,1,.315.242.786.786,0,0,1,.478.829c-.163,2.845-.254,5.659-2.118,7.741-2.276,2.548-5.744,2.693-8.661,3.135a.807.807,0,0,1-.775-1.114C1143.319,660.685,1146.557,653.095,1152.2,654.868Z" transform="translate(-1097.093 -595.217)" fill="#c6d0db"/>
                    <path id="Path_11868" data-name="Path 11868" d="M1152.137,682.883c-.157.6.666,1.138,1.3,1.047,3.765-.551,8.328-.847,10.743-3.414,1.979-2.106,1.434-4.842.968-7.62a1.029,1.029,0,0,0-.829-.787,1.171,1.171,0,0,0-.478-.224c-7.917-1.483-10.4,6.028-11.693,10.991Z" transform="translate(-1101.329 -601.964)" fill="#aab6c2"/>
                    <path id="Path_11869" data-name="Path 11869" d="M1110.666,681.4c-.4.472.1,1.319.708,1.513,3.625,1.15,7.856,2.875,11.155,1.622,2.693-1.023,3.4-3.728,4.194-6.428a1.031,1.031,0,0,0-.406-1.071,1.075,1.075,0,0,0-.333-.406C1119.509,671.839,1113.995,677.511,1110.666,681.4Z" transform="translate(-1084.909 -603.188)" fill="#aab6c2"/>
                    <path id="Path_11870" data-name="Path 11870" d="M1081.344,662.115c-.5.236-.393,1.1.03,1.471,2.518,2.221,5.32,5.138,8.425,5.3,2.548.139,4.085-1.792,5.689-3.686a2.2,2.2,0,0,0-.067-1.453C1091.911,657.557,1085.423,660.166,1081.344,662.115Z" transform="translate(-1073.26 -597.295)" fill="#aab6c2"/>
                    <path id="Path_11871" data-name="Path 11871" d="M1140.123,583.149c-.417-.381-1.271,0-1.5.527-1.38,3.111-3.353,6.73-2.4,9.7.781,2.439,3.323,3.226,5.853,4.1a1.052,1.052,0,0,0,1.059-.284.982.982,0,0,0,.412-.266c5.09-5.393.061-10.6-3.426-13.775Z" transform="translate(-1094.956 -566.948)" fill="#aab6c2"/>
                    <path id="Path_11872" data-name="Path 11872" d="M1172.317,602.94c-.345-.454-1.253-.224-1.574.248-1.913,2.814-4.5,6.022-4.091,9.121.333,2.536,2.693,3.765,5.03,5.072a1.051,1.051,0,0,0,1.089-.091,1.012,1.012,0,0,0,.454-.194c5.974-4.394,1.955-10.416-.908-14.163Z" transform="translate(-1107.05 -574.725)" fill="#aab6c2"/>
                    <path id="Path_11873" data-name="Path 11873" d="M1101.2,587.166c-.563-.085-1.053.714-.95,1.277.6,3.353.974,7.457,3.432,9.393,2.009,1.58,4.557.823,7.142.127a1.06,1.06,0,0,0,.72-.829,1.006,1.006,0,0,0,.194-.454c1.21-7.311-5.871-8.824-10.537-9.508Z" transform="translate(-1080.849 -568.592)" fill="#c6d0db"/>
                    <path id="Path_11874" data-name="Path 11874" d="M1116.441,632.443c-.472.327-.284,1.241.176,1.586,2.718,2.046,5.792,4.787,8.909,4.533,2.548-.212,3.9-2.506,5.314-4.775a1.036,1.036,0,0,0-.042-1.1,1.081,1.081,0,0,0-.164-.466c-4.1-6.18-10.307-2.463-14.193.218Z" transform="translate(-1087.137 -585.054)" fill="#c6d0db"/>
                  </g>
                  <path id="Path_11875" data-name="Path 11875" d="M1207.259,522.67s2.227,221.995-4.969,305.354h24.875S1208.857,543.212,1207.259,522.67Z" transform="translate(-1114.14 -343.307)" fill="#aab6c2"/>
                  <path id="Path_11876" data-name="Path 11876" d="M1215.836,586.106S1236,559.137,1241.05,548.17c0,0-20.312,40.327-24.052,54.3l-1.168-16.36Z" transform="translate(-1119.484 -353.373)" fill="#aab6c2"/>
                  <path id="Path_11877" data-name="Path 11877" d="M1196.413,673.069s-14.386-13.588-29.983-27.4c0,0,19.84,29.808,28.815,43.765l1.168-16.36Z" transform="translate(-1099.983 -391.862)" fill="#aab6c2"/>
                  <path id="Path_11878" data-name="Path 11878" d="M1204.852,577.2s-11.754-15.833-14.792-22.418c0,0,11.844,23.852,14.09,32.241l.7-9.823Z" transform="translate(-1109.312 -355.982)" fill="#aab6c2"/>
                </g>
                <path id="Path_11879" data-name="Path 11879" d="M1068.6,916.406c2.784,1.688,6.9,1.313,9.944.7a1.12,1.12,0,0,0,.315-.133,48.25,48.25,0,0,1,6.875,3.71,20.214,20.214,0,0,0-7.565,1.519c-2.494,1.053-6.4,3.97-4.364,6.428,2.639,3.177,13.031-.793,17.292-3.989a61.4,61.4,0,0,1,8.207,8.473,20.176,20.176,0,0,0-7.426.611c-2.6.738-6.845,3.153-5.126,5.841,2.046,3.19,11.342,1.2,16.42-1.2a99.912,99.912,0,0,1,5.58,9.424,20.262,20.262,0,0,0-7.039-.968c-2.7.133-7.384,1.525-6.319,4.533,1.277,3.6,10.9,3.728,16.372,2.512,1.537,3.25,2.833,6.143,4.158,9.236a20.354,20.354,0,0,0-7.729-2.488c-2.687-.278-7.535.406-6.93,3.535.787,4.073,11.917,5.574,17.165,4.794.756.98,2.766-.036,2.572-1.253-.115-.285-.224-.551-.339-.829a10.454,10.454,0,0,0,3.958-4.733,3.006,3.006,0,0,0-.042.587c.139,3.964,10.017,7.063,15.518,7.354a1.431,1.431,0,0,0,2.2-.557A25.444,25.444,0,0,0,1145,967.27a25.4,25.4,0,0,0,2.711,2.245,1.424,1.424,0,0,0,2.2.557c5.5-.285,15.373-3.389,15.512-7.354.115-3.184-4.775-3.117-7.39-2.433a20.078,20.078,0,0,0-6.561,3.129c.339-1.67.684-3.347,1.029-5.017,3.928-.272,9.811-1.876,12.988-4.176a25.588,25.588,0,0,0,.617,5.532,10.987,10.987,0,0,0,4.715,7.105c-.115.278-.224.545-.339.829-.188,1.217,1.816,2.233,2.572,1.253,5.241.787,16.378-.72,17.164-4.793.605-3.129-4.237-3.813-6.93-3.535a20.284,20.284,0,0,0-7.729,2.487c1.319-3.093,2.615-5.986,4.158-9.236,5.471,1.216,15.095,1.077,16.372-2.512,1.065-3.008-3.613-4.406-6.319-4.533a19.983,19.983,0,0,0-7.039.968,99.859,99.859,0,0,1,5.58-9.423c5.078,2.4,14.374,4.388,16.42,1.2,1.719-2.687-2.524-5.1-5.126-5.84a20.16,20.16,0,0,0-7.426-.611,61.38,61.38,0,0,1,8.207-8.473c4.255,3.2,14.653,7.166,17.292,3.989,2.04-2.457-1.87-5.375-4.364-6.428a20.044,20.044,0,0,0-7.566-1.519,48.87,48.87,0,0,1,6.875-3.71,1.2,1.2,0,0,0,.315.133c3.044.611,7.166.987,9.944-.7a8.214,8.214,0,0,0,3.377-7.154,1.36,1.36,0,0,0-.8-1.1,14.413,14.413,0,0,0-8.7.133c-3.1,1.071-4.666,3.692-6.022,6.488-.012.024-.012.042-.024.067a50.006,50.006,0,0,0-4.7,2.457,17.69,17.69,0,0,0,.775-5.35c-.03-1.816-.3-7.13-3.438-6.373-2.342.563-4.1,5.647-4.691,7.644a10.893,10.893,0,0,0,.787,8.643,61.4,61.4,0,0,0-7.6,7.348,17.656,17.656,0,0,0,.012-4.86c-.248-1.8-1.168-7.045-4.194-5.907-2.251.847-3.371,6.107-3.716,8.159a10.863,10.863,0,0,0,2.282,9.06,1.381,1.381,0,0,0-.163,1.059q-2.479,3.659-4.618,7.566c-.085.151-.157.3-.242.442a17.713,17.713,0,0,0-1.12-5.29c-.654-1.695-2.742-6.6-5.429-4.812-2,1.332-1.9,6.706-1.767,8.782a10.841,10.841,0,0,0,4.279,8.31,1.454,1.454,0,0,0-.012.8c-1.011,2.058-1.967,4.11-2.911,6.21a17.719,17.719,0,0,0-1.652-3.982c-.769-1.35-2.929-4.848-5.03-4.479-.69-2.354-4.915-2.245-7.287-1.628a20.1,20.1,0,0,0-6.379,3q1.307-6.046,2.748-12.062c5.314-.036,16.045-3.232,16.19-7.366.109-3.184-4.775-3.117-7.4-2.433a20.245,20.245,0,0,0-7.263,3.65q1.271-4.911,2.705-9.775c5.6.357,15.07-1.253,15.772-4.993.593-3.129-4.255-3.795-6.942-3.51a20.033,20.033,0,0,0-6.809,2.034,99.95,99.95,0,0,1,4.061-10.168c5.393,1.592,14.883,2.136,16.408-1.338,1.289-2.917-3.28-4.654-5.962-4.981a20.183,20.183,0,0,0-7.432.533,61.418,61.418,0,0,1,6.8-9.629c4.7,2.506,15.585,4.83,17.7,1.289,1.634-2.736-2.681-5.023-5.3-5.677a20.327,20.327,0,0,0-7.711-.345,48.025,48.025,0,0,1,6.228-4.715,1.229,1.229,0,0,0,.327.079c3.1.139,7.233-.121,9.72-2.221a8.216,8.216,0,0,0,2.233-7.59,1.349,1.349,0,0,0-.962-.956,14.314,14.314,0,0,0-8.57,1.465c-2.9,1.531-4.043,4.364-4.951,7.335-.006.024,0,.042-.012.067a51.7,51.7,0,0,0-4.267,3.147,18,18,0,0,0-.054-5.4c-.309-1.792-1.392-7-4.376-5.774-2.227.914-3.183,6.21-3.462,8.267a10.921,10.921,0,0,0,2.112,8.425,61.366,61.366,0,0,0-6.379,8.425,17.613,17.613,0,0,0-.738-4.806c-.526-1.737-2.245-6.779-5.054-5.193-2.1,1.186-2.391,6.555-2.415,8.631a10.862,10.862,0,0,0,3.656,8.606,1.426,1.426,0,0,0,0,1.071c-1.259,2.663-2.385,5.4-3.4,8.183-.06.163-.109.333-.163.49a17.8,17.8,0,0,0-1.925-5.072c-.908-1.574-3.722-6.095-6.107-3.916-1.773,1.622-.841,6.924-.387,8.951a10.873,10.873,0,0,0,5.514,7.559,1.439,1.439,0,0,0,.139.884q-1,3.268-1.913,6.573a17.681,17.681,0,0,0-2.282-3.753c-1.132-1.422-4.6-5.471-6.621-2.966-1.507,1.87.212,6.966.962,8.909a10.994,10.994,0,0,0,5.762,6.3q-1.371,5.674-2.584,11.391a17.722,17.722,0,0,0-2.687-4.775c-.139-.169-.315-.387-.514-.623a3.674,3.674,0,0,0-.581-2.336,7.866,7.866,0,0,0-5.532,0,3.722,3.722,0,0,0-.581,2.336c-.2.236-.375.448-.515.623a17.719,17.719,0,0,0-2.687,4.775q-1.217-5.711-2.584-11.391a10.975,10.975,0,0,0,5.762-6.3c.75-1.943,2.469-7.039.962-8.909-2.021-2.512-5.489,1.543-6.621,2.966a17.429,17.429,0,0,0-2.282,3.753q-.908-3.3-1.912-6.573a1.439,1.439,0,0,0,.139-.884,10.873,10.873,0,0,0,5.514-7.559c.448-2.027,1.38-7.329-.387-8.951-2.385-2.179-5.2,2.342-6.107,3.916a17.8,17.8,0,0,0-1.925,5.072c-.06-.163-.109-.327-.169-.49-1-2.784-2.136-5.52-3.4-8.177a1.4,1.4,0,0,0,0-1.071,10.863,10.863,0,0,0,3.656-8.606c-.024-2.082-.315-7.45-2.409-8.631-2.814-1.586-4.527,3.456-5.054,5.193a17.6,17.6,0,0,0-.739,4.806,61.849,61.849,0,0,0-6.379-8.425,10.9,10.9,0,0,0,2.112-8.425c-.278-2.058-1.235-7.354-3.462-8.268-2.99-1.229-4.067,3.983-4.376,5.774a17.613,17.613,0,0,0-.054,5.4,52.1,52.1,0,0,0-4.267-3.147.119.119,0,0,0-.012-.067c-.908-2.972-2.052-5.8-4.951-7.335a14.36,14.36,0,0,0-8.57-1.465,1.349,1.349,0,0,0-.962.956,8.205,8.205,0,0,0,2.233,7.59c2.488,2.1,6.615,2.354,9.72,2.221a1.067,1.067,0,0,0,.333-.079,48.465,48.465,0,0,1,6.228,4.715,20.2,20.2,0,0,0-7.711.345c-2.627.654-6.942,2.941-5.308,5.677,2.118,3.547,13,1.217,17.7-1.289a61.7,61.7,0,0,1,6.8,9.629,20.139,20.139,0,0,0-7.426-.533c-2.687.327-7.251,2.064-5.962,4.981,1.525,3.468,11.021,2.929,16.408,1.338a99.939,99.939,0,0,1,4.061,10.168,20.168,20.168,0,0,0-6.809-2.034c-2.687-.284-7.535.375-6.942,3.51.708,3.74,10.168,5.356,15.772,4.993q1.425,4.857,2.711,9.775a20.292,20.292,0,0,0-7.263-3.65c-2.615-.69-7.505-.757-7.39,2.433.145,4.134,10.882,7.323,16.19,7.366.968,4.007,1.876,8.038,2.748,12.062a20.1,20.1,0,0,0-6.379-3c-2.481-.654-7.009-.744-7.36,1.979-1.531.9-2.887,3.117-3.462,4.128a17.446,17.446,0,0,0-1.652,3.982c-.938-2.1-1.9-4.152-2.911-6.21a1.454,1.454,0,0,0-.012-.8,10.833,10.833,0,0,0,4.279-8.31c.133-2.076.236-7.45-1.767-8.782-2.687-1.786-4.775,3.111-5.423,4.812a17.523,17.523,0,0,0-1.12,5.29c-.085-.145-.157-.291-.242-.442q-2.143-3.9-4.618-7.565a1.412,1.412,0,0,0-.163-1.059,10.828,10.828,0,0,0,2.282-9.06c-.339-2.052-1.465-7.311-3.716-8.159-3.02-1.138-3.94,4.109-4.194,5.907a17.66,17.66,0,0,0,.012,4.86,62.271,62.271,0,0,0-7.6-7.348,10.9,10.9,0,0,0,.787-8.643c-.593-2-2.354-7.075-4.691-7.644-3.141-.757-3.407,4.563-3.438,6.373a17.853,17.853,0,0,0,.775,5.35,51.5,51.5,0,0,0-4.7-2.457c-.006-.024-.012-.042-.018-.067-1.356-2.8-2.923-5.417-6.022-6.488a14.414,14.414,0,0,0-8.7-.133,1.372,1.372,0,0,0-.8,1.1,8.216,8.216,0,0,0,3.377,7.154Zm76.405,37.954c-.109-.109-.224-.218-.339-.321.109-.133.236-.254.339-.387.109.139.23.26.339.387C1145.231,954.148,1145.116,954.251,1145.007,954.36Zm-20.13,7.124a13.393,13.393,0,0,0,.508-1.719,27.008,27.008,0,0,0,.617-4.6,31.474,31.474,0,0,0,11.5,3.244c.345,1.67.69,3.347,1.029,5.017a19.988,19.988,0,0,0-6.555-3.129c-2.215-.581-6.04-.708-7.105,1.192Z" transform="translate(-1060.003 -480.924)" fill="#c6d0db"/>
              </g>
            </g>
          </g>
          <g id="Group_6272" data-name="Group 6272">
            <rect id="Rectangle_5235" data-name="Rectangle 5235" width="291.385" height="375.767" transform="translate(4.479 4.297)" fill="#fff" opacity="0.31"/>
            <path id="Path_11880" data-name="Path 11880" d="M1270.48,575.909h-30.51L1369.612,211.23h30.51Z" transform="translate(-1164.745 -202.63)" fill="#fff" opacity="0.6"/>
            <path id="Path_11881" data-name="Path 11881" d="M1191.422,575.909H1176.17L1305.818,211.23h15.252Z" transform="translate(-1139.559 -202.63)" fill="#fff" opacity="0.6"/>
            <path id="Path_11882" data-name="Path 11882" d="M1436.352,601.636H1421.1L1528.614,276.4l3.244,21.183Z" transform="translate(-1236.249 -228.356)" fill="#fff" opacity="0.6"/>
            <rect id="Rectangle_5236" data-name="Rectangle 5236" width="8.6" height="384.912" transform="translate(0.006 0)" fill="#fff"/>
            <rect id="Rectangle_5237" data-name="Rectangle 5237" width="8.6" height="381.033" transform="translate(97.134 1.937)" fill="#fff"/>
            <rect id="Rectangle_5238" data-name="Rectangle 5238" width="8.6" height="299.985" transform="translate(0 8.6) rotate(-90)" fill="#fff"/>
            <rect id="Rectangle_5239" data-name="Rectangle 5239" width="8.6" height="299.985" transform="translate(0 384.361) rotate(-90)" fill="#fff"/>
            <rect id="Rectangle_5240" data-name="Rectangle 5240" width="8.6" height="381.033" transform="translate(194.263 1.937)" fill="#fff"/>
            <rect id="Rectangle_5241" data-name="Rectangle 5241" width="8.6" height="384.912" transform="translate(291.391 0)" fill="#fff"/>
            <rect id="Rectangle_5242" data-name="Rectangle 5242" width="299.985" height="8.6" transform="translate(0.006 188.156)" fill="#fff"/>
            <rect id="Rectangle_5243" data-name="Rectangle 5243" width="282.7" height="3.032" transform="translate(8.649 196.756)" fill="#aab6c2"/>
            <rect id="Rectangle_5244" data-name="Rectangle 5244" width="282.7" height="3.038" transform="translate(8.649 373.28)" fill="#aab6c2"/>
            <rect id="Rectangle_5245" data-name="Rectangle 5245" width="282.863" height="3.032" transform="translate(8.564 8.6)" fill="#aab6c2"/>
          </g>
        </g>
        <g id="Group_6274" data-name="Group 6274" transform="translate(-30.527 153.911)">
          <rect id="Rectangle_5246" data-name="Rectangle 5246" width="221.625" height="133.618" fill="#aab6c2"/>
          <rect id="Rectangle_5247" data-name="Rectangle 5247" width="199.625" height="111.376" transform="translate(11.003 11.124)" fill="#e6ebf0"/>
          <rect id="Rectangle_5248" data-name="Rectangle 5248" width="164.134" height="81.15" transform="translate(28.743 26.237)" fill="#c6d0db"/>
          <path id="Path_11883" data-name="Path 11883" d="M542.25,504.473l25.862-37.531a2.441,2.441,0,0,1,4.073.085l14.229,22.545,11.415-12.1a2.441,2.441,0,0,1,3.916.5l14.592,26.509H542.256Z" transform="translate(-513.507 -397.086)" fill="#aab6c2"/>
          <path id="Path_11884" data-name="Path 11884" d="M614.492,421.814a8.1,8.1,0,1,1-8.1-8.1A8.108,8.108,0,0,1,614.492,421.814Z" transform="translate(-535.63 -376.488)" fill="#fff"/>
          <path id="Path_11885" data-name="Path 11885" d="M696.1,422.588c-1.743-.484-2.457-2.173-4.073-2.917a6.024,6.024,0,0,0-4.5-.218,7.922,7.922,0,0,0-1.967,1.041c-1.586,1-1.259,1.065-3.032,1.307a20.608,20.608,0,0,0-3.71.835c-2.518.781-9.8.1-11.058,3.256-1.108,2.8,2.839,2.27,4.188,2.385,2.3.194,4.164,1.586,6.458,1.64a14.261,14.261,0,0,0,5.992-1.634c1.9,0,3.8.024,5.707-.012,3.129-.061,6.724.236,9.787-.339.859-.163,1.761-.278,2.173-1.15,1.683-3.571-4.527-3.777-5.98-4.182Z" transform="translate(-562.979 -378.623)" fill="#fff"/>
          <path id="Path_11886" data-name="Path 11886" d="M751.14,434.5a4.135,4.135,0,0,0-2.173-.109c-.635.1-1.4.581-2.04.617a10.769,10.769,0,0,1-2.324-.514,10.253,10.253,0,0,0-5.617.974,2.915,2.915,0,0,0-2.887.545,2.121,2.121,0,0,0-.133,3.087c1.192,1.271,3.789,1.422,5.4,1.58a22.424,22.424,0,0,0,8.734-.847c2.488-.811,4.418-4.037,1.041-5.332Z" transform="translate(-589.742 -384.615)" fill="#fff"/>
          <path id="Path_11887" data-name="Path 11887" d="M696.316,508.695l16.142-28.87a1.5,1.5,0,0,1,2.59-.054l12.238,19.973,5.181-8.074a1.5,1.5,0,0,1,2.621.169l7.983,16.85,13.442-31.2a1.5,1.5,0,0,1,2.8.091l7.892,22.164v8.945H696.31Z" transform="translate(-574.325 -401.308)" fill="#aab6c2"/>
        </g>
        <g id="Group_6275" data-name="Group 6275" transform="translate(155.94 0.278)">
          <path id="Path_11888" data-name="Path 11888" d="M928.617,275.427a50.6,50.6,0,0,0,50.537-50.537h-2.379a48.159,48.159,0,1,1-96.317,0H878.08A50.6,50.6,0,0,0,928.617,275.427Z" transform="translate(-832.548 -148.315)" fill="#c6d0db"/>
          <path id="Path_11889" data-name="Path 11889" d="M912.618,159.58l63.737,52.807H835.82Z" transform="translate(-815.865 -122.533)" fill="#aab6c2"/>
          <path id="Path_11890" data-name="Path 11890" d="M931.275,234.51,998.6,451.469H802.85L866.466,234.51Z" transform="translate(-802.85 -152.113)" opacity="0.22" fill="url(#linear-gradient)"/>
          <path id="Path_11891" data-name="Path 11891" d="M963.5,98.37v53.3H957.31V101.148Z" transform="translate(-863.825 -98.37)" fill="#c6d0db"/>
          <path id="Path_11892" data-name="Path 11892" d="M0,0H20.741V20.881a1.583,1.583,0,0,1-1.586,1.586H1.586A1.583,1.583,0,0,1,0,20.881V0Z" transform="translate(106.951 66.497) rotate(180)" fill="#ffbf5b"/>
          <path id="Path_11893" data-name="Path 11893" d="M942.93,241.894a12.078,12.078,0,1,1,12.081,12.074A12.074,12.074,0,0,1,942.93,241.894Z" transform="translate(-858.148 -150.262)" fill="#c6d0db"/>
          <path id="Path_11894" data-name="Path 11894" d="M962.205,258.085c2.857-.514,6.785-2.766,7.529-5.786.26-1.077,1.931-.623,1.664.46-.884,3.6-5.278,6.367-8.734,6.99C961.582,259.943,961.116,258.284,962.205,258.085Z" transform="translate(-865.513 -158.892)" fill="#fff"/>
          <path id="Path_11895" data-name="Path 11895" d="M916.878,159.58l70.268,52.807H846.61Z" transform="translate(-820.125 -122.533)" fill="#c6d0db"/>
          <path id="Path_11896" data-name="Path 11896" d="M955.551,148.786h5.792a3.634,3.634,0,0,1,3.631,3.631V158.2a3.634,3.634,0,0,1-3.631,3.631h-5.792a3.634,3.634,0,0,1-3.631-3.631v-5.792a3.634,3.634,0,0,1,3.631-3.631Z" transform="translate(-861.697 -118.27)" fill="#c6d0db"/>
        </g>
      </g>
    </g>
    <g id="Group_6278" data-name="Group 6278" transform="translate(610.02 554.533)">
      <path id="Path_11898" data-name="Path 11898" d="M663.17,957.987c0,2.118-10.87,2.118-10.87,0l76.974-101.135c0-5.986,19.162-5.986,19.162,0L663.164,957.987Z" transform="translate(-652.3 -852.363)"/>
      <path id="Path_11899" data-name="Path 11899" d="M974.165,974.425c0,2.118,10.87,2.118,10.87,0l-44.5-75.933c0-5.986-19.162-5.986-19.162,0Z" transform="translate(-758.519 -868.8)"/>
    </g>
    <path id="Path_11900" data-name="Path 11900" d="M988.392,502.486c-9.865,7.711-22.218,13.164-23.132,20.723l-48.479,17.77,17.63,33.191L973.5,534.684a15.812,15.812,0,0,0,4.545.024c7.874-1.035,22.957-13.636,23.78-20.657s-3.323-19.464-13.43-11.566Z" transform="translate(-146.687 -158.71)" fill="#fff" stroke="#000" stroke-width="2"/>
    <g id="Group_6283" data-name="Group 6283" transform="translate(824.558 273.889)">
      <path id="Path_11901" data-name="Path 11901" d="M1146.63,482.748H1019.64a4.751,4.751,0,0,1-4.666-5.647l15.912-82.948a6.756,6.756,0,0,1,6.633-5.483h127.257a4.451,4.451,0,0,1,4.37,5.29l-16,83.408a6.64,6.64,0,0,1-6.518,5.387Z" transform="translate(-1009.974 -388.67)" fill="#f40"/>
      <path id="Path_11902" data-name="Path 11902" d="M1167.03,389.1a4.4,4.4,0,0,1,.878,3.583l-16,83.408a6.64,6.64,0,0,1-6.518,5.387H1018.4a4.752,4.752,0,0,1-1.592-.272,4.73,4.73,0,0,0,3.656,1.719h126.991a6.634,6.634,0,0,0,6.518-5.387l16-83.408a4.44,4.44,0,0,0-2.948-5.03Z" transform="translate(-1010.733 -388.84)" fill="#ff936b"/>
      <path id="Path_11903" data-name="Path 11903" d="M1150.1,475.551H1026.56l14.259-74.341H1164.36Z" transform="translate(-1014.582 -393.62)" fill="#fff"/>
      <path id="Path_11904" data-name="Path 11904" d="M1006.77,524.969c4.134-1.7,9.914-6.349,13.013-5.835s3.613,2.482,2.79,4.34-5.889,4.751-6.918,6.2c.1,2.064.206,6.815-2.893,7.953" transform="translate(-1006.77 -440.157)" fill="#fff" stroke="#000" stroke-linecap="round" stroke-width="2"/>
      <path id="Path_11905" data-name="Path 11905" d="M1113.908,536.872h-10.882a1.632,1.632,0,0,1-1.622-1.8l.018-.163a1.956,1.956,0,0,1,1.949-1.755h10.882a1.632,1.632,0,0,1,1.622,1.8l-.018.163A1.956,1.956,0,0,1,1113.908,536.872Z" transform="translate(-1044.124 -445.705)" fill="none" stroke="#000" stroke-width="1"/>
      <g id="Group_6280" data-name="Group 6280" transform="translate(30.123 13.249)">
        <path id="Path_11906" data-name="Path 11906" d="M1113.62,453.067h-57.08l6.591-34.347H1120.2Z" transform="translate(-1056.54 -413.781)" fill="#fff" stroke="#000" stroke-linecap="round" stroke-width="1"/>
        <g id="Group_6279" data-name="Group 6279" transform="translate(5.514)">
          <path id="Path_11907" data-name="Path 11907" d="M1124.237,417.109H1065.65l.629-3.686a3.439,3.439,0,0,1,3.4-2.863H1121.9a3.06,3.06,0,0,1,2.984,3.746l-.648,2.808Z" transform="translate(-1065.65 -410.56)"/>
          <ellipse id="Ellipse_198" data-name="Ellipse 198" cx="1.592" cy="1.447" rx="1.592" ry="1.447" transform="matrix(0.912, -0.411, 0.411, 0.912, 2.886, 2.745)" fill="#9b9b9b"/>
          <ellipse id="Ellipse_199" data-name="Ellipse 199" cx="1.592" cy="1.447" rx="1.592" ry="1.447" transform="matrix(0.912, -0.411, 0.411, 0.912, 7.312, 2.741)" fill="#fff"/>
          <ellipse id="Ellipse_200" data-name="Ellipse 200" cx="1.592" cy="1.447" rx="1.592" ry="1.447" transform="matrix(0.912, -0.411, 0.411, 0.912, 11.745, 2.742)" fill="#f40"/>
        </g>
      </g>
      <g id="Group_6282" data-name="Group 6282" transform="translate(57.606 32.895)">
        <path id="Path_11908" data-name="Path 11908" d="M1159.024,485.527H1101.95l6.585-34.347h57.08Z" transform="translate(-1101.95 -446.241)" fill="#fff" stroke="#000" stroke-linecap="round" stroke-width="1"/>
        <path id="Path_11909" data-name="Path 11909" d="M1126.094,481H1119.2l3.94-20.536h6.894Z" transform="translate(-1108.76 -449.905)" fill="#f40"/>
        <g id="Group_6281" data-name="Group 6281" transform="translate(5.514)">
          <path id="Path_11910" data-name="Path 11910" d="M1169.647,449.569H1111.06l.629-3.686a3.439,3.439,0,0,1,3.4-2.863h52.226a3.06,3.06,0,0,1,2.984,3.746l-.647,2.808Z" transform="translate(-1111.06 -443.02)"/>
          <ellipse id="Ellipse_201" data-name="Ellipse 201" cx="1.592" cy="1.447" rx="1.592" ry="1.447" transform="matrix(0.912, -0.411, 0.411, 0.912, 2.879, 2.745)" fill="#9b9b9b"/>
          <ellipse id="Ellipse_202" data-name="Ellipse 202" cx="1.592" cy="1.447" rx="1.592" ry="1.447" transform="matrix(0.912, -0.411, 0.411, 0.912, 7.311, 2.741)" fill="#fff"/>
          <ellipse id="Ellipse_203" data-name="Ellipse 203" cx="1.592" cy="1.447" rx="1.592" ry="1.447" transform="matrix(0.912, -0.411, 0.411, 0.912, 11.738, 2.742)" fill="#f40"/>
        </g>
        <path id="Path_11911" data-name="Path 11911" d="M1139.491,473.76l-2.391,12.486h6.888l2.4-12.486Z" transform="translate(-1115.826 -455.155)" fill="#1a1a1a"/>
        <path id="Path_11912" data-name="Path 11912" d="M1156.937,473.76l-2.4,12.486h6.894l2.391-12.486Z" transform="translate(-1122.711 -455.155)" fill="#9b9b9b"/>
      </g>
    </g>
    <g id="Group_6300" data-name="Group 6300" transform="translate(585.799 252.297)">
      <g id="Group_6284" data-name="Group 6284" transform="translate(98.75 45.063)">
        <path id="Path_11913" data-name="Path 11913" d="M799.486,439.291l.054,16.1s4.206,9.206.036,9.762c-14.181,1.882-22.212-10.2-22.212-10.2l-.085-24.784,22.206,9.115Z" transform="translate(-776.166 -428.524)" fill="#fff"/>
        <path id="Path_11914" data-name="Path 11914" d="M775.718,454.5l-.182-.278-.1-26.77,24.421,10.023.055,16.6c.678,1.531,2.857,6.888,1.374,9.569A2.96,2.96,0,0,1,799,465.168a24.081,24.081,0,0,1-3.177.212c-12.7,0-19.785-10.416-20.1-10.888Zm1.943-23.749.079,22.781c1.247,1.695,8.776,11.064,20.959,9.454a.759.759,0,0,0,.654-.406c.757-1.374-.448-5.393-1.549-7.808l-.151-15.821-19.991-8.207Z" transform="translate(-775.44 -427.45)"/>
      </g>
      <g id="Group_6285" data-name="Group 6285" transform="translate(89.222 9.838)">
        <path id="Path_11915" data-name="Path 11915" d="M798.538,371.166s6.839,14.078,8.933,29.5c1.483,10.949-17.134,27.932-33.524,12.559s-11.929-38.989-11.929-38.989l36.52-3.075Z" transform="translate(-760.394 -370.004)" fill="#fff"/>
        <path id="Path_11916" data-name="Path 11916" d="M807.863,399.766c-2.094-15.421-8.964-29.693-9.036-29.838l-.327-.678-38.106,3.208-.157.823c-.042.23-3.97,22.1,9.986,37.676,1.229,1.483,1.2-.974,1.041-1.695a6.037,6.037,0,0,0-1.077-1.8c-9.9-12.843-8.431-29.136-7.91-32.949l34.886-2.935c1.368,2.984,6.724,15.319,8.51,28.482.72,5.326-3.758,12.093-10.2,15.421a18.416,18.416,0,0,1-6.27,1.949,9.68,9.68,0,0,0,.036,1.876c.012.109.03.218.042.321a20.094,20.094,0,0,0,7.2-2.185c7.22-3.722,12.214-11.487,11.372-17.673Z" transform="translate(-759.696 -369.25)"/>
      </g>
      <path id="Path_11917" data-name="Path 11917" d="M754.857,396.171c-.109-.1-.206-.738-.484-1.44a11.3,11.3,0,0,1,2.282-11.53,2.971,2.971,0,0,1,4.031-.357c.048-.006.079-.036.133-.036,4.648-.363,29.015,3.795,29.663,6.894,1.089,5.205,5.078,16.892.617,20.324-10.446,8.038-26.461,5.187-30.2,4.1-4.5-1.307-4.358-6.809-5.9-10.241-.914-2.052-1.616-3.486-1.041-5.8A10.432,10.432,0,0,1,754.857,396.171Z" transform="translate(-668.091 -364.532)"/>
      <path id="Path_11918" data-name="Path 11918" d="M759.369,377.026c4.969,10.761,24.337,5.665,31.188,2.3,4.672-2.3.859-6.543,5.877-9.266a2.564,2.564,0,0,0,4.067.9c3.958-3.492,8.643-9.454,4.164-14.6-3.474-3.995-8.3-2.282-12.129.151-13.085-9.847-41.592,2.282-33.173,20.518Z" transform="translate(-669.74 -352.994)"/>
      <g id="Group_6287" data-name="Group 6287" transform="translate(157.645 189.66)">
        <g id="Group_6286" data-name="Group 6286" transform="translate(258.949 140.145)">
          <path id="Path_11919" data-name="Path 11919" d="M1326.755,899.871c-3.075-1.786-24.633,9.085-24.337,10.513.914,4.394,5.986,20.6,8.939,21.861,2.857,1.223,23.913-1.888,22.793-6.058C1333.188,922.58,1329.726,901.6,1326.755,899.871Z" transform="translate(-1301.314 -898.608)" fill="#fff"/>
          <path id="Path_11920" data-name="Path 11920" d="M1310.2,932.561c-3.813-1.628-8.982-19.743-9.581-22.648-.187-.92.636-1.6,1.5-2.227,3.686-2.663,20.935-11.524,24.47-9.466h0c2.288,1.326,4.188,8.849,6.906,22.267.442,2.179.787,3.9,1,4.709a2.7,2.7,0,0,1-1.1,2.826,11.712,11.712,0,0,1-3.329,1.8c-6.216,2.409-17.364,3.795-19.87,2.73Zm-7.335-22.684c1.356,6.113,6.155,19.779,8.2,20.657,2.021.859,17.406-1.132,20.881-4.17.278-.236.442-.472.412-.587-.224-.841-.581-2.6-1.035-4.848-1.083-5.381-3.976-19.664-5.847-20.8-2.294-1.071-20.088,7.22-22.618,9.744Z" transform="translate(-1300.595 -897.913)"/>
        </g>
        <path id="Path_11921" data-name="Path 11921" d="M1310.909,935.79s-4.606,18.829,7.317,27.587c0,0,54.919-18.417,70.214-27.278,0,0-7.305-20.045-21.916-16.311a273.732,273.732,0,0,0-30.244,10.077s-10.961,12.994-25.372,5.931Z" transform="translate(-1045.373 -766.22)"/>
        <path id="Path_11922" data-name="Path 11922" d="M1072.32,751.51c34.105-1.495,58.623,81.465,58.623,81.465l33.137-17.806c-17.352-127.257-63.017-146.661-114.71-148.531s-120.188,5.586-161.743,23.108c-39.51,16.662,11.082,90.428,20.808,98.581,15.04,12.613,63.768,9.539,87.463-5.707,27.272-17.546,58.078-30.3,76.423-31.115Z" transform="translate(-872.748 -666.359)"/>
      </g>
      <g id="Group_6289" data-name="Group 6289" transform="translate(151.19 120.067)">
        <g id="Group_6288" data-name="Group 6288" transform="translate(278.844 76.309)">
          <path id="Path_11923" data-name="Path 11923" d="M1339.385,679.269c-3.553.175-15.724,21.026-14.7,22.067,3.159,3.184,16.232,14.023,19.392,13.473,3.063-.533,19.029-14.6,15.827-17.485C1357.137,694.818,1342.811,679.1,1339.385,679.269Z" transform="translate(-1323.523 -678.171)" fill="#fff"/>
          <path id="Path_11924" data-name="Path 11924" d="M1343.548,715.183c-4.085.708-18.278-11.675-20.366-13.787-.66-.666-.339-1.689.048-2.681,1.64-4.237,11.294-21.062,15.379-21.256h0c2.639-.133,8.328,5.145,17.915,14.925,1.555,1.586,2.778,2.839,3.407,3.407a2.685,2.685,0,0,1,.617,2.966,11.771,11.771,0,0,1-1.81,3.323c-3.9,5.4-12.5,12.631-15.185,13.1Zm-18.5-15.04c4.467,4.394,15.93,13.249,18.121,12.867,2.161-.375,13.987-10.422,15.252-14.865.109-.351.115-.642.03-.714-.642-.587-1.9-1.87-3.5-3.5-3.837-3.922-14.035-14.338-16.22-14.265-2.512.351-12.922,16.989-13.672,20.481Z" transform="translate(-1322.802 -677.456)"/>
        </g>
        <path id="Path_11925" data-name="Path 11925" d="M1348.2,703.826s6.385,18.3,21.153,19.156c0,0,36.054-45.338,44.061-61.1,0,0-17.031-12.843-27.266-1.755a274.122,274.122,0,0,0-19.894,24.911s-2.125,16.868-18.054,18.786Z" transform="translate(-1053.984 -592.526)"/>
        <path id="Path_11926" data-name="Path 11926" d="M1055.019,627.753c27.8-19.815,93.515,36.435,93.515,36.435l18.109-32.967c-83.813-97.316-132.686-88.746-177.068-62.176s-97.788,70.1-123.117,107.411c-24.076,35.479,58.514,69.832,71.109,71.375,19.483,2.4,58.69-26.7,70.268-52.383,13.333-29.56,32.229-57.031,47.178-67.7Z" transform="translate(-862.083 -551.374)"/>
      </g>
      <g id="Group_6294" data-name="Group 6294" transform="translate(0 79.383)">
        <g id="Group_6292" data-name="Group 6292" transform="translate(147.216 121.113)">
          <g id="Group_6290" data-name="Group 6290" transform="translate(0 2.564)">
            <path id="Path_11927" data-name="Path 11927" d="M886.878,721.656c.587-.569.623-.829.623-.829-.23-.387-2.2-.926-3.262-1.21-2.1-.575-4.091-1.114-4.7-2.518a2.229,2.229,0,0,1,.139-2.009l.127-.236.309-.248c.672-.472,2-.587,4.951-.8,2.978-.218,7.469-.539,8.909-1.562.242-.248.242-.726-1.029-1.786a18.926,18.926,0,0,0-3.819-1.2c-3.728-.944-5.847-1.549-6.125-3.056a1.838,1.838,0,0,1,.926-1.882l.26-.188.49-.133c.787-.048,1.749-.073,2.8-.1,3.353-.073,7.947-.169,9.811-1.489a1.321,1.321,0,0,0,.678-1.265c-1.4-1.313-5.3-2.052-7.65-1.906-8.661.514-8.97-.357-9.242-1.126l-.284-.811.872-.787c1.265-.9,5.853-1.6,10.44-1.6a5.292,5.292,0,0,0,2.881-.654c.26-.188.387-.369.363-.551-.036-.351-.575-1.156-2.366-1.955-8.407-3.752-19.265.49-26.63,5.707a38.175,38.175,0,0,0-3.238,2.554c-1.888,1.67-6.064,10.477-5.7,17.146.151,2.669,1.017,4.582,2.578,5.671,1.586,1.108,2.518.654,4.212-.182a13.186,13.186,0,0,1,3.123-1.192c1.707-.363,4.461.024,7.65.466,4.285.6,9.629,1.35,11.651-.085,0,0,.169-.127.242-.2Z" transform="translate(-856.257 -689.222)" fill="#fff"/>
            <path id="Path_11928" data-name="Path 11928" d="M866.274,697.682c6.779-4.806,17.528-9.157,25.5-5.6a5.943,5.943,0,0,1,1.307.75,5.8,5.8,0,0,1-1.713.218c-4.255,0-9.43.617-11.106,1.81a2.517,2.517,0,0,0-1,2.905c.635,1.81,2.3,2.366,10.386,1.882a15.148,15.148,0,0,1,6.234,1.108c-1.58,1.114-6.331,1.217-9.169,1.277-1.065.024-2.046.048-2.845.1l-.563.036-.478.3-.067.042-.23.157a2.957,2.957,0,0,0-1.392,3.026c.43,2.294,3.172,2.99,6.966,3.952a22.779,22.779,0,0,1,3.444,1.035c.109.091.2.169.278.248a40.173,40.173,0,0,1-7.59,1.017c-3.4.248-4.618.363-5.526,1.011l-.442.315-.339.563a3.4,3.4,0,0,0-.188,3c.823,1.912,3.075,2.524,5.447,3.165.43.115,1,.272,1.519.436-2.209.793-7.027.121-10.319-.339s-6.137-.859-8.038-.46a14.35,14.35,0,0,0-3.389,1.283c-1.773.872-2.088.95-3.056.272-1.259-.884-1.961-2.5-2.094-4.793-.351-6.234,3.6-14.713,5.314-16.232a37.338,37.338,0,0,1,3.141-2.482h0Zm-1.319-1.864a38.7,38.7,0,0,0-3.329,2.633c-3.141,2.778-10.138,19.622-3.026,24.615,3.19,2.233,4.951-.5,8.231-1.192,3.874-.817,15.8,2.978,19.731.194a2.981,2.981,0,0,0,.369-.3c4.642-4.473-8.867-3.323-6.978-6.857a.292.292,0,0,1,.085-.091c1.126-.8,11.088-.4,13.86-2.366,1.083-.769,1.077-1.894-.962-3.589-1.622-1.344-11.863-2.36-9.078-4.333.048-.036.109-.073.169-.109,3.492-.23,10.434.157,13.188-1.792a2.486,2.486,0,0,0,1.162-2.264c-.121-2.112-6.028-3.153-8.855-2.984-6.779.406-8.752-.061-7.929-.648.884-.63,4.945-1.392,9.781-1.386a6.22,6.22,0,0,0,3.535-.859c1.543-1.1,1.083-3.02-2.2-4.479-8.721-3.886-20.045.351-27.756,5.816h0Z" transform="translate(-855.517 -688.5)"/>
          </g>
          <g id="Group_6291" data-name="Group 6291" transform="translate(3.672)">
            <path id="Path_11929" data-name="Path 11929" d="M867.142,697.383a7.847,7.847,0,0,0,1.35-1.1,13.317,13.317,0,0,0,1.374-2.215,19.636,19.636,0,0,1,1.235-2.082c.521-.732,2.1-2.966,2.258-4.842.055-.611-.054-.908-.145-.956a2.792,2.792,0,0,0-2.149.7c-1.919,1.489-3.982,5.49-6.264,12,.738-.442,1.574-.974,2.336-1.513Z" transform="translate(-862.854 -685.002)" fill="#fff"/>
            <path id="Path_11930" data-name="Path 11930" d="M870.46,687.088a2.824,2.824,0,0,1,.412-.254,11.726,11.726,0,0,1-1.967,3.759,19.712,19.712,0,0,0-1.3,2.2,12.443,12.443,0,0,1-1.253,2.021,4.135,4.135,0,0,1-.521.448c2.2-5.6,3.716-7.456,4.5-8.068l.133-.1h0Zm-1.319-1.864c-.073.055-.145.1-.212.157-3.159,2.457-6.155,11.342-7.342,14.986-.121.357,2.935-1.362,4.957-2.8a9.577,9.577,0,0,0,1.562-1.3c1.053-1.259,1.695-3,2.663-4.364a12.169,12.169,0,0,0,2.469-5.411c.254-2.99-2.354-2.512-4.091-1.277h0Z" transform="translate(-861.584 -684.264)"/>
          </g>
        </g>
        <g id="Group_6293" data-name="Group 6293" transform="translate(4.289 14.078)">
          <path id="Path_11931" data-name="Path 11931" d="M770.66,627.367l2.736,21.77s-2.863,2.76-7.844,7.009c-14.713,12.426-61.014,38.063-90.543,41.955-17.764,2.348-30.341-7.693-39.867-23.556a99.582,99.582,0,0,1-13.672-46.621c-.345-7.281-.454-15.113.188-20.548A64.78,64.78,0,0,1,624.1,595.3c.405-1.259.811-2.512,1.259-3.789l.036-.067c.042-.194.133-.284.169-.472,13.224-37.216,19.84-49.054,33.058-71.678,6.882-11.76,23.459-13.6,32.332-3.262a66.6,66.6,0,0,1,14.992,31.666c2.748,14.489-.206,29.439-7.2,42.409-2.584,4.745-5.471,10.247-8.171,15.785-.363.72-.708,1.374-1.023,2.07-6.73,14.035,1.2,38.626,2.687,42.6,1.779,4.745,7.348,5.8,14.816,4.63,22.987-3.547,63.61-27.817,63.61-27.817Z" transform="translate(-620.088 -508.145)" fill="#fff"/>
          <path id="Path_11932" data-name="Path 11932" d="M674.433,698.461c-16.523,2.185-29.923-5.7-40.962-24.082a100.965,100.965,0,0,1-13.824-47.142,137.032,137.032,0,0,1,.188-20.711,66.219,66.219,0,0,1,2.5-12.3c.406-1.265.817-2.53,1.265-3.765a4.827,4.827,0,0,1,.212-.6c13.164-37.053,19.676-48.812,33.143-71.866A21.473,21.473,0,0,1,673.519,507.5a20.459,20.459,0,0,1,17.558,7.063,67.765,67.765,0,0,1,15.24,32.174c2.675,14.114.079,29.433-7.323,43.141-2.929,5.375-5.75,10.822-8.159,15.76l-.224.436c-.272.539-.533,1.053-.793,1.616-7.051,14.707,2.627,41.471,2.724,41.737,1.422,3.8,6,5.12,13.618,3.928,22.5-3.474,62.805-27.435,63.211-27.671l1.453-.865,3.014,23.992-.393.381s-2.941,2.826-7.9,7.057c-1.562,1.319-3.486,2.79-5.726,4.376-18.659,13.224-58.817,34.329-85.387,37.833Zm94.623-70.02c-7.559,4.412-41.8,23.9-62.551,27.1-8.788,1.38-14.181-.418-16.021-5.332-.1-.278-10.1-27.938-2.657-43.45.26-.569.539-1.108.823-1.683l.212-.411c2.415-4.957,5.247-10.428,8.189-15.827,7.16-13.267,9.678-28.065,7.093-41.683A65.531,65.531,0,0,0,689.4,516.013a18.256,18.256,0,0,0-15.688-6.307,19.224,19.224,0,0,0-14.852,9.405c-13.394,22.932-19.87,34.62-32.931,71.345l-.248.684c-.442,1.265-.847,2.512-1.247,3.746a63.771,63.771,0,0,0-2.4,11.887,134.114,134.114,0,0,0-.182,20.366,98.678,98.678,0,0,0,13.515,46.107c10.537,17.552,23.223,25.087,38.778,23.035,29.372-3.874,75.618-29.554,89.974-41.707,3.849-3.286,6.446-5.689,7.4-6.585l-2.457-19.549Z" transform="translate(-619.367 -507.416)"/>
        </g>
        <path id="Path_11933" data-name="Path 11933" d="M689.2,606.374c2.778-5.768,20.033-42.663,14.271-70.77-2.627-12.789-7.475-53.509-23.816-51.366-26.158,3.438-55.046,63.4-67.375,98.1C631.067,601.507,659.428,609.218,689.2,606.374Z" transform="translate(-612.28 -484.155)" fill="#f40"/>
      </g>
      <path id="Path_11934" data-name="Path 11934" d="M701.33,641.39s-2.554,15.651-2.433,26.939c0,0,9.012.539,17.969.865S709,642.08,709,642.08Z" transform="translate(-646.472 -466.842)"/>
      <path id="Path_11935" data-name="Path 11935" d="M857.652,559.148c8.964,12.244,56.057,23.992,72.58,31.95,2.482,22.587-38.578,78.16-78.045,79.589-51.385,1.852-93.576-11.384-94.06-18.9-.436-6.863-46.906-19.041-65.886-54.5-23.06-43.075-13.727-92.184-5.568-106.9a23.366,23.366,0,0,1,1.919-2.9c2.863-3.553,7.572-6.767,13.721-9.466,34.377-15.7,94.562-14.852,121.852-1.574,9.8,17.1,9.1,49.369,33.488,82.681Z" transform="translate(-638.109 -397.752)" fill="#f40"/>
      <path id="Path_11936" data-name="Path 11936" d="M932.742,618.592s-56.2,25.311-75.249-32.344c-33.936-102.727,37.628-24.76,37.628-24.76l3.256,20.62c2.948,17.128,24.736,20.681,34.365,36.484Z" transform="translate(-705.476 -424.115)"/>
      <g id="Group_6297" data-name="Group 6297" transform="translate(230.518 56.863)">
        <g id="Group_6295" data-name="Group 6295" transform="translate(0 28.713)">
          <path id="Path_11937" data-name="Path 11937" d="M998.586,598.822c33.342,42.56,113.712-84.1,113.712-84.1l5.7-20.33c-2.324-.242-34.541,26.5-58.726,37.912C1037.8,542.427,980.066,575.188,998.586,598.822Z" transform="translate(-993.873 -494.387)" fill="#fff"/>
          <path id="Path_11938" data-name="Path 11938" d="M996.994,608.5a16.95,16.95,0,0,1-3.317-15c4.806-20.281,42.742-42.984,64.4-53.2,15.379-7.263,11.79-5.774,24.052-14.653,9.775-7.075,11.978-8.582,13.128-8.461l.393.042,17.37,6.379-.557.757c-2.99,4.073-55.567,92.232-97.249,92.886a21.461,21.461,0,0,1-15.827-6.089,26.227,26.227,0,0,1-2.4-2.669Zm18.187,6.549c38.7-.605,88.1-82.07,94.943-91.233l-15.306-4.273c-1.6.8-6.373,4.255-11.4,7.9-12.335,8.921-8.836,7.511-24.4,14.859-21.3,10.053-58.581,32.247-63.193,51.711a14.671,14.671,0,0,0,2.905,13.128l-.865.678.865-.678a19.614,19.614,0,0,0,16.45,7.91Z" transform="translate(-993.152 -503.385)"/>
        </g>
        <g id="Group_6296" data-name="Group 6296" transform="translate(89.145)">
          <path id="Path_11939" data-name="Path 11939" d="M1166.9,498.339c3.861-1.313,5.453-2.875,8.915-7.572,3.625-4.34,3.607-8.806,2.04-11.1a3.49,3.49,0,0,0-1.089-1.047,6.951,6.951,0,0,0-.738-6.47,3.024,3.024,0,0,0-1.459-1.017,7.651,7.651,0,0,0-2.215-5.471,4.856,4.856,0,0,0-3.486-1.519,43.23,43.23,0,0,1,7.578-8.013c1.816-1.386,2.554-3.4,1.888-5.12a3.563,3.563,0,0,0-3.825-2.161,5.745,5.745,0,0,0-1.332.29c-2.76.932-6.712,4.146-11.748,9.545a45.726,45.726,0,0,0-9.835,15.772,4.236,4.236,0,0,0-.962-1.537,3.855,3.855,0,0,0-3.922-1.071,3.585,3.585,0,0,0-1.84,1.471c-1.761,2.687-3.25,5.677-2.161,9.309.266.865,6.494,13.352,9.03,15.682a1.9,1.9,0,0,0,1.937.381h0a6.246,6.246,0,0,0,2.451-2.07c3.565,2.264,7.348,2.875,10.755,1.725h.018Z" transform="translate(-1141.189 -447.691)" fill="#fff"/>
          <path id="Path_11940" data-name="Path 11940" d="M1178.044,478.282a4.829,4.829,0,0,0-.72-.829,7.945,7.945,0,0,0-1.162-6.767,4.61,4.61,0,0,0-1.2-1.035,8.8,8.8,0,0,0-2.548-5.544,6.662,6.662,0,0,0-2.251-1.489,40.977,40.977,0,0,1,6.234-6.325c2.191-1.677,3.1-4.267,2.27-6.44a4.724,4.724,0,0,0-4.987-2.887,6.984,6.984,0,0,0-1.616.345c-2.972,1-6.972,4.231-12.22,9.847a48.507,48.507,0,0,0-9.29,14.072,4.98,4.98,0,0,0-4.963-1.217,4.712,4.712,0,0,0-2.427,1.925c-1.828,2.784-3.529,6.18-2.3,10.289.278.89,6.652,13.69,9.357,16.178a2.47,2.47,0,0,0,1.4.7c0-.073.054-.853.1-1.507a2.119,2.119,0,0,0-.49-1.465c-2.633-3.226-8.019-14.066-8.177-14.58-.938-3.135.333-5.774,2.028-8.358a2.417,2.417,0,0,1,1.247-1.011,2.871,2.871,0,0,1,3.414,3.662,17.561,17.561,0,0,0-.95,3.468,16.6,16.6,0,0,1,1.779.684c.9-7.923,5.544-15.5,10.937-21.28,2.348-2.518,7.662-8.019,11.282-9.248a4.633,4.633,0,0,1,1.071-.236c3.044-.248,3.922,3.1,1.144,5.235-3.19,2.433-8.564,8.37-9.9,11.844a4.826,4.826,0,0,1,2.13-1.622c3.281-1.114,6.27,3.686,5.247,6.857.054-.024.1-.042.151-.061,2.064-.7,3.928,3.468,1.658,7.45a.9.9,0,0,1,.345-.212c1.683-.569,4.533,4.606-.484,10.6-1.967,2.669-3.256,4.285-4.727,5.332a7.292,7.292,0,0,0-1.985,2.59s1.713-.43,2.082.085c2.245-1.289,3.88-3.135,6.385-6.543,4.073-4.872,4.013-9.8,2.149-12.534Z" transform="translate(-1140.441 -446.947)"/>
        </g>
      </g>
      <g id="Group_6299" data-name="Group 6299" transform="translate(140.647 75.504)">
        <g id="Group_6298" data-name="Group 6298" transform="translate(19.546 10.754)">
          <path id="Path_11941" data-name="Path 11941" d="M972.274,608.71c-16.741,2.058-26.334-2.227-40.72-8.552-1.507-.642-3.026-1.325-4.436-2.034-2.4-1.235-4.624-2.439-6.809-3.7-2.96-1.834-5.7-3.662-8.225-5.526-.406-.357-.853-.654-1.241-.962-11.064-8.425-16.408-14.193-20.433-23.314a75.918,75.918,0,0,1-5.4-16.232s-16.142-54.035,3.341-50.931c19.706,3.165,27.3,8.461,50.852,31.315.079.1.206.182.272.272,1.35,1.223,2.524,2.415,3.759,3.6a13.807,13.807,0,0,0,2.251,2.143c39.54,22.975,50.719,70.982,26.788,73.924Z" transform="translate(-877.657 -496.23)" fill="#fff"/>
          <path id="Path_11942" data-name="Path 11942" d="M971.709,609.09h0c-16.928,2.082-26.5-2.13-41-8.5l-.278-.121c-1.531-.648-3.075-1.344-4.509-2.07-2.421-1.241-4.666-2.463-6.888-3.746-3.129-1.937-5.847-3.765-8.376-5.641-.236-.206-.484-.393-.72-.569l-.454-.339c-11.6-8.83-16.838-14.822-20.772-23.737a75.655,75.655,0,0,1-5.453-16.372c-.484-1.622-11.766-39.843-2.935-49.926a7.754,7.754,0,0,1,7.511-2.409c20.4,3.28,28.452,9.3,51.445,31.612l.242.248c.95.859,1.816,1.707,2.681,2.548l1.108,1.077c.254.248.5.514.744.781a6.631,6.631,0,0,0,1.3,1.2c27.968,16.257,42.923,45.925,39.334,63.429-1.2,5.853-4.436,9.884-9.26,11.657a16.492,16.492,0,0,1-3.7.884Zm-33.972-80.242c-22.957-22.285-30.347-27.817-50.253-31.018a5.572,5.572,0,0,0-5.5,1.683c-8.031,9.175,3.274,47.457,3.42,47.971a76,76,0,0,0,5.326,15.978c3.813,8.643,8.7,14.2,20.106,22.89l.418.315c.291.218.593.442.8.629,2.4,1.779,5.066,3.571,8.116,5.459,2.161,1.253,4.37,2.457,6.755,3.674,1.386.7,2.881,1.374,4.382,2.009l.291.133c14.169,6.228,23.526,10.344,39.849,8.334h0c7.475-.926,10.168-6.379,11.076-10.791,3.432-16.759-11.136-45.3-38.287-61.08a8.139,8.139,0,0,1-1.816-1.616c-.212-.23-.43-.466-.654-.684l-1.114-1.089c-.841-.823-1.689-1.652-2.718-2.6l.769-.787-.968.6Z" transform="translate(-876.959 -495.514)"/>
        </g>
        <path id="Path_11943" data-name="Path 11943" d="M845.291,514.91c3.541,15.337,7.5,21.068,7.5,21.068s33.209,47,40.805,54.132c29.8-15.567,40.133-49.5,35.376-73.088-20.324-23.8-26.86-32.084-45.308-38.669-11.318-4.061-43.9,12.692-38.372,36.55Z" transform="translate(-844.664 -477.746)" fill="#f40"/>
      </g>
    </g>
    <path id="Path_11944" data-name="Path 11944" d="M1091.325,796.24c2.1-28.4-45.332-28.089-84.291-1.483-32.592,22.255-56.765,54.586-98.914,72.053l114.8-12.444,68.4-58.127Z" transform="translate(-143.268 -267.238)" fill="#ff936b"/>
    <path id="Path_11945" data-name="Path 11945" d="M928.59,721.489C806.115,855.663,619.6,777.515,549.519,604.908c-12.1-29.814,9.684-62.418,41.864-62.418h55.01a84.3,84.3,0,0,1,80.878,60.251C771.7,752.882,853.583,758.372,928.6,721.489Z" transform="translate(-0.367 -175.504)" fill="#f40"/>
    <path id="Path_11946" data-name="Path 11946" d="M736.533,602.741a84.3,84.3,0,0,0-80.878-60.251h-55.01A44.683,44.683,0,0,0,569.7,554.734a46.427,46.427,0,0,1,7.808-.678h55.01A84.3,84.3,0,0,1,713.4,614.307c37.779,127.656,119.347,142.37,189.046,121.247l.69-1.253c-64.216,17.879-129.091-4.83-166.6-131.566Z" transform="translate(-9.672 -175.504)" fill="#ff936b"/>
    <g id="Group_6301" data-name="Group 6301" transform="translate(701.986 579.735)">
      <path id="Path_11947" data-name="Path 11947" d="M815.12,974.152H804.25l30.564-75.661c0-5.986,19.162-5.986,19.162,0L815.12,974.152Z" transform="translate(-804.25 -894.003)" fill="#9b9b9b"/>
      <path id="Path_11948" data-name="Path 11948" d="M1125.655,974.152h10.87l-44.5-75.661c0-5.986-19.162-5.986-19.162,0l52.795,75.661Z" transform="translate(-910.287 -894.003)" fill="#9b9b9b"/>
    </g>
    <g id="Group_6306" data-name="Group 6306" transform="translate(911.901 450.979)">
      <path id="Path_11949" data-name="Path 11949" d="M1247.168,730.154a14.813,14.813,0,0,0,8.395-2.766,71.521,71.521,0,0,1-1.247,15.421c-3.3,5.32-12.45,15.1-11.832,15.04a29.387,29.387,0,0,0,7.348-1.713,54.583,54.583,0,0,1-5.6,9.145c-4.436,5.919-10.761,10.658-13.164,17.885a.448.448,0,0,1-.278.315.522.522,0,0,1-.866.381c-11.941-11.336-14.078-28.561-15.827-44.1-.085-.738-.169-1.465-.236-2.2a47.718,47.718,0,0,0,11.009,8.594c.575.315-7.481-12.577-11.421-18.514a34.835,34.835,0,0,1,2.058-11.027c2.8-7.487,7.584-14.5,12.238-20.941.188-.266.406-.521.593-.787a35.707,35.707,0,0,0,5.138,9.309c.381.5-.847-9.424-1.6-13.957,1.168-1.447,2.336-2.9,3.553-4.3,1.592-1.876,3.559-5.06,6.415-4.636,2.778.393,9.1,11.754,9.9,15.01.345,1.386.654,2.8.938,4.224.139.605.248,1.235.357,1.846a171.239,171.239,0,0,1,2.13,17.3c-.194.3-.393.611-.617.908-2.324,3.153-7.941,9.563-7.372,9.563Z" transform="translate(-1175.702 -681.267)" fill="#aab6c2"/>
      <path id="Path_11950" data-name="Path 11950" d="M1243.73,734.078c5.889-.89,10.392-4.612,14.719-8.455.642-.575-.151-1.658-.8-1.083-4.055,3.6-8.28,7.19-13.769,8.128,1.253-8.77,2.711-17.516,4.436-26.219.169-.853-1.162-1.059-1.332-.212q-3.423,17.295-5.586,34.783a57.865,57.865,0,0,1-7.8-15.676c-.266-.823-1.519-.321-1.253.5a59.057,59.057,0,0,0,8.37,16.553.593.593,0,0,0,.49.266q-.463,3.822-.866,7.65a36.486,36.486,0,0,1-5.786-10.126.675.675,0,0,0-1.253.5,37.408,37.408,0,0,0,6.579,11.233.752.752,0,0,0,.278.194q-1.3,12.6-1.961,25.256a.739.739,0,0,0-.079.291q-.272,4.63-.321,9.254c-.067,2.009-.121,4.025-.163,6.034a.554.554,0,0,0,.194.454c.345,19,3.159,37.809,7.16,56.414.436-.109.878-.206,1.313-.309-4.515-21.026-7.523-42.3-7.13-63.846.079-2.276.176-4.545.291-6.821a.625.625,0,0,0,.6-.079,22.3,22.3,0,0,0,6.167-6.319c.472-.72-.581-1.568-1.053-.841a21.527,21.527,0,0,1-5.647,5.865q1.126-21.789,4.164-43.414h.054Z" transform="translate(-1183.147 -690.91)"/>
      <path id="Path_11951" data-name="Path 11951" d="M1164.82,791.745a14.634,14.634,0,0,1-7.941.678,51.052,51.052,0,0,0,5.544,11.179c4.346,2.911,14.967,7.251,14.429,7.408a29.8,29.8,0,0,1-6.742,1.126,43.415,43.415,0,0,0,7.414,5.036c5.5,2.99,12.25,4.467,16.39,9.1a.389.389,0,0,0,.327.151.486.486,0,0,0,.847,0c6.857-12.45,3.668-26.092.642-38.336-.145-.581-.284-1.15-.442-1.731a43.659,43.659,0,0,1-6.857,10.077c-.406.424,2.7-11.911,4.327-17.667a25.26,25.26,0,0,0-4.951-7.608c-4.551-4.709-10.664-8.395-16.487-11.711-.236-.139-.49-.26-.732-.4a28.119,28.119,0,0,1-1.664,8.685c-.182.5-2.021-7.36-2.693-11.015-1.416-.7-2.826-1.41-4.267-2.064-1.9-.89-4.491-2.633-6.8-1.374-2.245,1.2-4.321,11.82-4.055,14.526.109,1.156.26,2.324.43,3.486.061.5.145,1.011.23,1.507a122.074,122.074,0,0,0,3.214,13.7c.26.163.514.333.793.484,2.887,1.61,9.526,4.576,9.042,4.763Z" transform="translate(-1151.082 -709.521)" fill="#aab6c2"/>
      <g id="Group_6302" data-name="Group 6302" transform="translate(0.459 54.262)">
        <path id="Path_11952" data-name="Path 11952" d="M1208.878,878.386c-2.009-15.294-5.078-30.347-10.307-44.739a.412.412,0,0,0,.036-.406c-.617-1.5-1.253-2.99-1.894-4.479q-1.389-3.45-2.966-6.845a.474.474,0,0,0-.151-.188q-4.24-9.287-9.006-18.333a.576.576,0,0,0,.176-.236,29.592,29.592,0,0,0,2.33-10.6c.024-.714-1.192-.678-1.21.036a28.592,28.592,0,0,1-1.979,9.514c-.974-1.828-1.955-3.65-2.96-5.465a.565.565,0,0,0,.339-.363,45.628,45.628,0,0,0,2.3-15.191c-.012-.708-1.223-.672-1.21.036a44.7,44.7,0,0,1-2.076,14.338q-6.936-12.41-14.853-24.3c-.393-.587-1.465.006-1.071.6q5.983,8.951,11.391,18.242c-4.945,1.1-9.581-.212-14.072-1.58-.72-.218-1.089.865-.375,1.077,4.8,1.465,9.7,2.784,14.974,1.513a.09.09,0,0,0,.042-.018q8.852,15.234,16.154,31.248a18.442,18.442,0,0,1-6.506-2.548c-.617-.393-1.265.593-.654.974a19.324,19.324,0,0,0,7.081,2.718.658.658,0,0,0,.533-.139c.75,1.67,1.495,3.347,2.221,5.023,6.6,16.063,10.229,33.034,12.492,50.319.4-.067.8-.139,1.2-.2Z" transform="translate(-1155.43 -770.92)"/>
        <path id="Path_11953" data-name="Path 11953" d="M1162.335,787.447a30.95,30.95,0,0,1-10.495-4.1c.061.5.145,1.011.23,1.507a32.261,32.261,0,0,0,9.89,3.674c.757.139,1.126-.932.375-1.077Z" transform="translate(-1151.84 -775.827)"/>
      </g>
      <path id="Path_11954" data-name="Path 11954" d="M1316.531,801.02c-.073,4.86-11.312,7.214-14.877,8.534-7.9,2.923-15.609,5.871-21.45,12.226-6.881,7.493-12.819,16.136-18.756,24.4a1.4,1.4,0,0,1-1.4.6,22.257,22.257,0,0,1-1.634-3.553c-2.046-5.042-5.181-14.278-4.4-19.543a31.868,31.868,0,0,1,3.577-10.495,9.42,9.42,0,0,0,2.251,4.443c.284.29.9-6.633,1.3-9.781.521-.635,1.047-1.253,1.6-1.852a34.638,34.638,0,0,1,4.152-3.825c.315-.254.63-.5.95-.738a43.729,43.729,0,0,1,3.789-2.512c.339-.206.7-.406,1.059-.605,1.217-.678,2.481-1.307,3.777-1.87a25.6,25.6,0,0,0,2.088,6.924c.218.46.745-5.471.823-8.1,1.223-.46,2.463-.841,3.728-1.2a19.691,19.691,0,0,0,1.549,4.473c.176.339,1.84-3.674,2.445-5.441a48.711,48.711,0,0,1,12.038-.944c.345.012.69.03,1.023.06,1.077.079,2.149.194,3.2.357,3.874.605,12.994,3.05,13.17,8.286a1.154,1.154,0,0,1,0,.145Z" transform="translate(-1191.666 -725.018)" fill="#aab6c2"/>
      <g id="Group_6303" data-name="Group 6303" transform="translate(65.734 73.296)">
        <path id="Path_11955" data-name="Path 11955" d="M1275.59,819.6c-9.545,9.424-12.51,26.727-13.128,31.642a22.331,22.331,0,0,0-1.961,6.4c-1.138,7.765-.8,15.96-.611,23.792.067,2.572.182,5.145.315,7.717.442-.085.884-.163,1.325-.248q-.127-2.433-.218-4.866c-.236-7.009-.23-14.029.091-21.038a30.917,30.917,0,0,1,1.906-10.61,1.438,1.438,0,0,0,.424-.393c5.943-8.261,11.881-16.9,18.762-24.4,5.841-6.355,13.551-9.3,21.45-12.226,3.571-1.319,14.8-3.674,14.877-8.534-14.974,1.743-32.241,1.925-43.232,12.771Z" transform="translate(-1259.691 -804.135)"/>
        <path id="Path_11956" data-name="Path 11956" d="M1284.266,813.216a31.1,31.1,0,0,1-.2-10.846c-.363.2-.714.406-1.059.605a31.967,31.967,0,0,0,.3,10.458C1283.425,814.057,1284.381,813.833,1284.266,813.216Z" transform="translate(-1268.778 -802.37)"/>
        <path id="Path_11957" data-name="Path 11957" d="M1277.722,817.2a40.858,40.858,0,0,1-1.392-9.666c-.321.236-.636.49-.95.738a41.264,41.264,0,0,0,1.386,9.151c.163.605,1.126.393.962-.224Z" transform="translate(-1265.884 -804.407)"/>
      </g>
      <g id="Group_6304" data-name="Group 6304" transform="translate(23.486 124.657)">
        <path id="Path_11958" data-name="Path 11958" d="M1246.638,923.342c-17.292-19.567-7.91-35.092-7.91-35.092h-31.182s9.381,15.518-7.91,35.092c-8.6,9.732-15.591,31.478,3.232,44.848.908.648,2.379,1.683,2.239,3.075h36.054c-.133-1.392,1.331-2.427,2.239-3.075,18.823-13.364,11.832-35.116,3.232-44.848Z" transform="translate(-1190.295 -887.633)" fill="#fff"/>
        <path id="Path_11959" data-name="Path 11959" d="M1241.437,971.479h-37.416l.067-.678c.1-1.029-1.144-1.913-1.973-2.5-7.087-5.036-11.136-11.548-12.038-19.368-1.247-10.822,3.9-20.984,8.685-26.4,16.765-18.974,7.935-34.208,7.844-34.365l-.563-.938h33.367l-.563.938c-.091.151-8.921,15.391,7.844,34.365,4.787,5.417,9.932,15.579,8.685,26.4-.9,7.82-4.945,14.332-12.026,19.362-.835.593-2.082,1.477-1.985,2.506l.067.678Zm-36.145-1.235h34.874c.242-1.374,1.6-2.342,2.457-2.947,6.791-4.824,10.664-11.046,11.524-18.5,1.2-10.416-3.765-20.215-8.383-25.438h0c-14.992-16.965-10.138-31.182-8.449-34.88h-29.178c1.689,3.7,6.543,17.915-8.449,34.88-4.618,5.223-9.581,15.022-8.383,25.438.859,7.457,4.733,13.678,11.512,18.49.872.617,2.227,1.586,2.469,2.96Z" transform="translate(-1189.887 -887.23)"/>
      </g>
      <g id="Group_6305" data-name="Group 6305" transform="translate(26.466 125.274)">
        <path id="Path_11960" data-name="Path 11960" d="M1248.379,923.342c-17.292-19.567-7.91-35.092-7.91-35.092h-6.561c-7.959,9.623-19.652,11.76-23.834,2.439,3.347,9.411,1.011,18.7-5.29,27.889,2.584-2.427,10.961-4.866,16.9-4.073,14.259,1.913,25.111,14.4,27.1,28.464,1.277,9.066-6.379,24.464-25.5,24.464-17.9,0-25.142-7.208-28.464-10.87a28.105,28.105,0,0,0,9.8,11.621c.908.648,2.379,1.683,2.239,3.075h36.054c-.133-1.392,1.331-2.427,2.239-3.075,18.823-13.364,11.832-35.116,3.232-44.848Z" transform="translate(-1194.81 -888.25)"/>
        <path id="Path_11961" data-name="Path 11961" d="M1205.32,943.127q1.979-2.379,3.607-4.757A16.844,16.844,0,0,0,1205.32,943.127Z" transform="translate(-1198.959 -908.036)"/>
        <path id="Path_11962" data-name="Path 11962" d="M1219.383,890.7c-.291-.811-.617-1.628-.993-2.439C1218.7,889.125,1219.038,889.936,1219.383,890.7Z" transform="translate(-1204.119 -888.254)"/>
      </g>
    </g>
  </g>
</svg>
