<svg xmlns="http://www.w3.org/2000/svg" xmlns:xlink="http://www.w3.org/1999/xlink" width="810.889" height="728.84" viewBox="0 0 810.889 728.84">
  <defs>
    <clipPath id="clip-path">
      <path id="Path_14207" data-name="Path 14207" d="M388.605,53.583c104.835,20.67,158.388,139.4,327.229,245.06s131.69,518.266-134.979,450.972c-254.416-64.2-266.16-59.112-432.808-53.2C-60.488,703.853,56.8-11.792,388.605,53.583Z" transform="translate(-43.961 -49.362)" fill="none"/>
    </clipPath>
  </defs>
  <g id="Stock_Market_01_Oqtima_stock_01_people" transform="translate(-39.26 -45.759)">
    <g id="Group_8161" data-name="Group 8161" transform="translate(57.664 45.759)">
      <path id="Path_14198" data-name="Path 14198" d="M388.605,53.583c104.835,20.67,158.388,139.4,327.229,245.06s131.69,518.266-134.979,450.972c-254.416-64.2-266.16-59.112-432.808-53.2C-60.488,703.853,56.8-11.792,388.605,53.583Z" transform="translate(-43.961 -35.259)" fill="#e6ebf0"/>
      <path id="Path_14199" data-name="Path 14199" d="M259.449,238.17c-49.208-39.147-90.194-107.5-66.9-173.342s71.4,56.724,110.12,97.554c56.019,59.073,59.738,157.762-43.257,75.788Z" transform="translate(369.559 -45.759)" fill="#e6ebf0"/>
      <g id="Group_8160" data-name="Group 8160" transform="translate(0 14.102)" clip-path="url(#clip-path)">
        <g id="Group_8156" data-name="Group 8156" transform="translate(-12.376 60.867)">
          <g id="Group_8150" data-name="Group 8150" transform="translate(125.583)">
            <path id="Path_14200" data-name="Path 14200" d="M128.469,222.32V195.074h45.176V64.91h12.449V195.074h48.66V222.32h26.072V768.067H72.88V222.32Z" transform="translate(-72.88 -64.91)" fill="#c6d0db"/>
            <rect id="Rectangle_6594" data-name="Rectangle 6594" width="26.072" height="490.902" transform="translate(0 157.41)" fill="#aab6c2"/>
          </g>
          <g id="Group_8151" data-name="Group 8151" transform="translate(219.536 287.417)">
            <rect id="Rectangle_6595" data-name="Rectangle 6595" width="187.944" height="415.74" transform="translate(0)" fill="#c6d0db"/>
            <rect id="Rectangle_6596" data-name="Rectangle 6596" width="26.072" height="415.74" transform="translate(0)" fill="#aab6c2"/>
            <rect id="Rectangle_6597" data-name="Rectangle 6597" width="26.972" height="11.196" transform="translate(134.744 17.694)" fill="#aab6c2"/>
            <rect id="Rectangle_6598" data-name="Rectangle 6598" width="26.972" height="11.196" transform="translate(89.372 17.694)" fill="#aab6c2"/>
            <rect id="Rectangle_6599" data-name="Rectangle 6599" width="26.972" height="11.196" transform="translate(134.744 58.446)" fill="#aab6c2"/>
            <rect id="Rectangle_6600" data-name="Rectangle 6600" width="26.972" height="11.196" transform="translate(89.372 58.446)" fill="#aab6c2"/>
            <rect id="Rectangle_6601" data-name="Rectangle 6601" width="26.972" height="11.196" transform="translate(43.962 58.446)" fill="#aab6c2"/>
            <rect id="Rectangle_6602" data-name="Rectangle 6602" width="26.972" height="11.196" transform="translate(134.744 99.198)" fill="#aab6c2"/>
            <rect id="Rectangle_6603" data-name="Rectangle 6603" width="26.972" height="11.196" transform="translate(43.962 99.198)" fill="#aab6c2"/>
            <rect id="Rectangle_6604" data-name="Rectangle 6604" width="26.972" height="11.196" transform="translate(89.372 119.594)" fill="#aab6c2"/>
            <rect id="Rectangle_6605" data-name="Rectangle 6605" width="26.972" height="11.196" transform="translate(134.744 139.989)" fill="#aab6c2"/>
            <rect id="Rectangle_6606" data-name="Rectangle 6606" width="26.972" height="11.196" transform="translate(89.372 160.346)" fill="#aab6c2"/>
            <rect id="Rectangle_6607" data-name="Rectangle 6607" width="26.972" height="11.196" transform="translate(134.744 180.741)" fill="#aab6c2"/>
            <rect id="Rectangle_6608" data-name="Rectangle 6608" width="26.972" height="11.196" transform="translate(43.962 180.741)" fill="#aab6c2"/>
            <rect id="Rectangle_6609" data-name="Rectangle 6609" width="26.972" height="11.196" transform="translate(134.744 218.401)" fill="#aab6c2"/>
            <rect id="Rectangle_6610" data-name="Rectangle 6610" width="26.972" height="11.196" transform="translate(89.372 218.401)" fill="#aab6c2"/>
            <rect id="Rectangle_6611" data-name="Rectangle 6611" width="26.972" height="11.196" transform="translate(134.744 259.153)" fill="#aab6c2"/>
            <rect id="Rectangle_6612" data-name="Rectangle 6612" width="26.972" height="11.196" transform="translate(89.372 259.153)" fill="#aab6c2"/>
            <rect id="Rectangle_6613" data-name="Rectangle 6613" width="26.972" height="11.196" transform="translate(43.962 259.153)" fill="#aab6c2"/>
            <rect id="Rectangle_6614" data-name="Rectangle 6614" width="26.972" height="11.196" transform="translate(134.744 299.904)" fill="#aab6c2"/>
            <rect id="Rectangle_6615" data-name="Rectangle 6615" width="26.972" height="11.196" transform="translate(43.962 299.904)" fill="#aab6c2"/>
            <rect id="Rectangle_6616" data-name="Rectangle 6616" width="26.972" height="11.196" transform="translate(89.372 320.261)" fill="#aab6c2"/>
            <rect id="Rectangle_6617" data-name="Rectangle 6617" width="26.972" height="11.196" transform="translate(43.962 320.261)" fill="#aab6c2"/>
            <rect id="Rectangle_6618" data-name="Rectangle 6618" width="26.972" height="11.196" transform="translate(134.744 340.656)" fill="#aab6c2"/>
            <rect id="Rectangle_6619" data-name="Rectangle 6619" width="26.972" height="11.196" transform="translate(89.372 361.052)" fill="#aab6c2"/>
            <rect id="Rectangle_6620" data-name="Rectangle 6620" width="26.972" height="11.196" transform="translate(134.744 381.408)" fill="#aab6c2"/>
            <rect id="Rectangle_6621" data-name="Rectangle 6621" width="26.972" height="11.196" transform="translate(43.962 381.408)" fill="#aab6c2"/>
          </g>
          <g id="Group_8152" data-name="Group 8152" transform="translate(669.256 287.417)">
            <rect id="Rectangle_6622" data-name="Rectangle 6622" width="187.944" height="415.74" fill="#c6d0db"/>
            <rect id="Rectangle_6623" data-name="Rectangle 6623" width="26.072" height="415.74" fill="#aab6c2"/>
          </g>
          <g id="Group_8153" data-name="Group 8153" transform="translate(402.274 89.646)">
            <rect id="Rectangle_6624" data-name="Rectangle 6624" width="252.184" height="613.471" fill="#c6d0db"/>
            <rect id="Rectangle_6625" data-name="Rectangle 6625" width="26.072" height="613.471" fill="#aab6c2"/>
            <rect id="Rectangle_6626" data-name="Rectangle 6626" width="39.382" height="16.363" transform="translate(186.222 29.399)" fill="#aab6c2"/>
            <rect id="Rectangle_6627" data-name="Rectangle 6627" width="39.382" height="16.363" transform="translate(119.907 29.399)" fill="#aab6c2"/>
            <rect id="Rectangle_6628" data-name="Rectangle 6628" width="39.382" height="16.363" transform="translate(186.222 88.903)" fill="#aab6c2"/>
            <rect id="Rectangle_6629" data-name="Rectangle 6629" width="39.382" height="16.363" transform="translate(119.907 88.903)" fill="#aab6c2"/>
            <rect id="Rectangle_6630" data-name="Rectangle 6630" width="39.382" height="16.363" transform="translate(53.592 88.903)" fill="#aab6c2"/>
            <rect id="Rectangle_6631" data-name="Rectangle 6631" width="39.382" height="16.363" transform="translate(186.222 148.445)" fill="#aab6c2"/>
            <rect id="Rectangle_6632" data-name="Rectangle 6632" width="39.382" height="16.363" transform="translate(53.592 148.445)" fill="#aab6c2"/>
            <rect id="Rectangle_6633" data-name="Rectangle 6633" width="39.382" height="16.363" transform="translate(119.907 178.197)" fill="#aab6c2"/>
            <rect id="Rectangle_6634" data-name="Rectangle 6634" width="39.382" height="16.363" transform="translate(186.222 207.948)" fill="#aab6c2"/>
            <rect id="Rectangle_6635" data-name="Rectangle 6635" width="39.382" height="16.363" transform="translate(119.907 237.7)" fill="#aab6c2"/>
            <rect id="Rectangle_6636" data-name="Rectangle 6636" width="39.382" height="16.363" transform="translate(186.222 267.452)" fill="#aab6c2"/>
            <rect id="Rectangle_6637" data-name="Rectangle 6637" width="39.382" height="16.363" transform="translate(53.592 267.452)" fill="#aab6c2"/>
            <rect id="Rectangle_6638" data-name="Rectangle 6638" width="39.382" height="16.363" transform="translate(186.222 322.453)" fill="#aab6c2"/>
            <rect id="Rectangle_6639" data-name="Rectangle 6639" width="39.382" height="16.363" transform="translate(119.907 322.453)" fill="#aab6c2"/>
            <rect id="Rectangle_6640" data-name="Rectangle 6640" width="39.382" height="16.363" transform="translate(186.222 381.956)" fill="#aab6c2"/>
            <rect id="Rectangle_6641" data-name="Rectangle 6641" width="39.382" height="16.363" transform="translate(119.907 381.956)" fill="#aab6c2"/>
            <rect id="Rectangle_6642" data-name="Rectangle 6642" width="39.382" height="16.363" transform="translate(53.592 381.956)" fill="#aab6c2"/>
            <rect id="Rectangle_6643" data-name="Rectangle 6643" width="39.382" height="16.363" transform="translate(186.222 441.499)" fill="#aab6c2"/>
            <rect id="Rectangle_6644" data-name="Rectangle 6644" width="39.382" height="16.363" transform="translate(53.592 441.499)" fill="#aab6c2"/>
            <rect id="Rectangle_6645" data-name="Rectangle 6645" width="39.382" height="16.363" transform="translate(119.907 471.251)" fill="#aab6c2"/>
            <rect id="Rectangle_6646" data-name="Rectangle 6646" width="39.382" height="16.363" transform="translate(53.592 471.251)" fill="#aab6c2"/>
            <rect id="Rectangle_6647" data-name="Rectangle 6647" width="39.382" height="16.363" transform="translate(186.222 501.002)" fill="#aab6c2"/>
            <rect id="Rectangle_6648" data-name="Rectangle 6648" width="39.382" height="16.363" transform="translate(119.907 530.754)" fill="#aab6c2"/>
            <rect id="Rectangle_6649" data-name="Rectangle 6649" width="39.382" height="16.363" transform="translate(186.222 560.505)" fill="#aab6c2"/>
            <rect id="Rectangle_6650" data-name="Rectangle 6650" width="39.382" height="16.363" transform="translate(53.592 560.505)" fill="#aab6c2"/>
          </g>
          <g id="Group_8154" data-name="Group 8154" transform="translate(798.714 135.409)">
            <rect id="Rectangle_6651" data-name="Rectangle 6651" width="247.174" height="567.748" fill="#c6d0db"/>
            <rect id="Rectangle_6652" data-name="Rectangle 6652" width="25.524" height="567.748" fill="#aab6c2"/>
            <rect id="Rectangle_6653" data-name="Rectangle 6653" width="38.599" height="15.111" transform="translate(117.558 27.168)" fill="#aab6c2"/>
            <rect id="Rectangle_6654" data-name="Rectangle 6654" width="38.599" height="15.111" transform="translate(117.558 82.248)" fill="#aab6c2"/>
            <rect id="Rectangle_6655" data-name="Rectangle 6655" width="38.599" height="15.111" transform="translate(52.574 82.248)" fill="#aab6c2"/>
            <rect id="Rectangle_6656" data-name="Rectangle 6656" width="38.599" height="15.111" transform="translate(52.574 137.327)" fill="#aab6c2"/>
            <rect id="Rectangle_6657" data-name="Rectangle 6657" width="38.599" height="15.111" transform="translate(117.558 164.887)" fill="#aab6c2"/>
            <rect id="Rectangle_6658" data-name="Rectangle 6658" width="38.599" height="15.111" transform="translate(117.558 219.966)" fill="#aab6c2"/>
            <rect id="Rectangle_6659" data-name="Rectangle 6659" width="38.599" height="15.111" transform="translate(52.574 247.487)" fill="#aab6c2"/>
            <rect id="Rectangle_6660" data-name="Rectangle 6660" width="38.599" height="15.111" transform="translate(117.558 298.378)" fill="#aab6c2"/>
            <rect id="Rectangle_6661" data-name="Rectangle 6661" width="38.599" height="15.111" transform="translate(117.558 353.457)" fill="#aab6c2"/>
            <rect id="Rectangle_6662" data-name="Rectangle 6662" width="38.599" height="15.111" transform="translate(52.574 353.457)" fill="#aab6c2"/>
            <rect id="Rectangle_6663" data-name="Rectangle 6663" width="38.599" height="15.111" transform="translate(52.574 408.537)" fill="#aab6c2"/>
            <rect id="Rectangle_6664" data-name="Rectangle 6664" width="38.599" height="15.111" transform="translate(117.558 436.097)" fill="#aab6c2"/>
            <rect id="Rectangle_6665" data-name="Rectangle 6665" width="38.599" height="15.111" transform="translate(52.574 436.097)" fill="#aab6c2"/>
            <rect id="Rectangle_6666" data-name="Rectangle 6666" width="38.599" height="15.111" transform="translate(117.558 491.176)" fill="#aab6c2"/>
            <rect id="Rectangle_6667" data-name="Rectangle 6667" width="38.599" height="15.111" transform="translate(52.574 518.697)" fill="#aab6c2"/>
          </g>
          <g id="Group_8155" data-name="Group 8155" transform="translate(0 315.916)">
            <rect id="Rectangle_6668" data-name="Rectangle 6668" width="159.171" height="387.241" fill="#c6d0db"/>
            <rect id="Rectangle_6669" data-name="Rectangle 6669" width="16.442" height="387.241" fill="#aab6c2"/>
            <rect id="Rectangle_6670" data-name="Rectangle 6670" width="24.858" height="10.335" transform="translate(117.519 18.516)" fill="#aab6c2"/>
            <rect id="Rectangle_6671" data-name="Rectangle 6671" width="24.858" height="10.335" transform="translate(75.671 18.516)" fill="#aab6c2"/>
            <rect id="Rectangle_6672" data-name="Rectangle 6672" width="24.858" height="10.335" transform="translate(117.519 56.098)" fill="#aab6c2"/>
            <rect id="Rectangle_6673" data-name="Rectangle 6673" width="24.858" height="10.335" transform="translate(75.671 56.098)" fill="#aab6c2"/>
            <rect id="Rectangle_6674" data-name="Rectangle 6674" width="24.858" height="10.335" transform="translate(33.823 56.098)" fill="#aab6c2"/>
            <rect id="Rectangle_6675" data-name="Rectangle 6675" width="24.858" height="10.335" transform="translate(117.519 93.679)" fill="#aab6c2"/>
            <rect id="Rectangle_6676" data-name="Rectangle 6676" width="24.858" height="10.335" transform="translate(33.823 93.679)" fill="#aab6c2"/>
            <rect id="Rectangle_6677" data-name="Rectangle 6677" width="24.858" height="10.335" transform="translate(75.671 112.469)" fill="#aab6c2"/>
            <rect id="Rectangle_6678" data-name="Rectangle 6678" width="24.858" height="10.335" transform="translate(117.519 131.22)" fill="#aab6c2"/>
            <rect id="Rectangle_6679" data-name="Rectangle 6679" width="24.858" height="10.335" transform="translate(75.671 150.011)" fill="#aab6c2"/>
            <rect id="Rectangle_6680" data-name="Rectangle 6680" width="24.858" height="10.335" transform="translate(117.519 168.801)" fill="#aab6c2"/>
            <rect id="Rectangle_6681" data-name="Rectangle 6681" width="24.858" height="10.335" transform="translate(33.823 168.801)" fill="#aab6c2"/>
            <rect id="Rectangle_6682" data-name="Rectangle 6682" width="24.858" height="10.335" transform="translate(117.519 203.525)" fill="#aab6c2"/>
            <rect id="Rectangle_6683" data-name="Rectangle 6683" width="24.858" height="10.335" transform="translate(75.671 203.525)" fill="#aab6c2"/>
            <rect id="Rectangle_6684" data-name="Rectangle 6684" width="24.858" height="10.335" transform="translate(117.519 241.106)" fill="#aab6c2"/>
            <rect id="Rectangle_6685" data-name="Rectangle 6685" width="24.858" height="10.335" transform="translate(75.671 241.106)" fill="#aab6c2"/>
            <rect id="Rectangle_6686" data-name="Rectangle 6686" width="24.858" height="10.335" transform="translate(33.823 241.106)" fill="#aab6c2"/>
            <rect id="Rectangle_6687" data-name="Rectangle 6687" width="24.858" height="10.335" transform="translate(117.519 278.648)" fill="#aab6c2"/>
            <rect id="Rectangle_6688" data-name="Rectangle 6688" width="24.858" height="10.335" transform="translate(33.823 278.648)" fill="#aab6c2"/>
            <rect id="Rectangle_6689" data-name="Rectangle 6689" width="24.858" height="10.335" transform="translate(75.671 297.438)" fill="#aab6c2"/>
            <rect id="Rectangle_6690" data-name="Rectangle 6690" width="24.858" height="10.335" transform="translate(33.823 297.438)" fill="#aab6c2"/>
            <rect id="Rectangle_6691" data-name="Rectangle 6691" width="24.858" height="10.335" transform="translate(117.519 316.229)" fill="#aab6c2"/>
            <rect id="Rectangle_6692" data-name="Rectangle 6692" width="24.858" height="10.335" transform="translate(75.671 335.019)" fill="#aab6c2"/>
            <rect id="Rectangle_6693" data-name="Rectangle 6693" width="24.858" height="10.335" transform="translate(117.519 353.81)" fill="#aab6c2"/>
            <rect id="Rectangle_6694" data-name="Rectangle 6694" width="24.858" height="10.335" transform="translate(33.823 353.81)" fill="#aab6c2"/>
          </g>
        </g>
        <g id="Group_8159" data-name="Group 8159" transform="translate(-119.521 -52.933)">
          <g id="Group_8157" data-name="Group 8157" transform="translate(7.399 15.228)">
            <rect id="Rectangle_6695" data-name="Rectangle 6695" width="674.58" height="769.159" fill="#fff" opacity="0.35"/>
            <path id="Path_14201" data-name="Path 14201" d="M113.609,788.433H61.27L341.953,41.98h52.339Z" transform="translate(118.61 -33.172)" fill="#fff" opacity="0.5"/>
            <path id="Path_14202" data-name="Path 14202" d="M70.529,788.433H44.34L325.023,41.98h26.15Z" transform="translate(69.264 -33.172)" fill="#fff" opacity="0.5"/>
            <path id="Path_14203" data-name="Path 14203" d="M150.379,728.77H124.19L364.826,62.45v53.71Z" transform="translate(302.002 26.492)" fill="#fff" opacity="0.5"/>
          </g>
          <g id="Group_8158" data-name="Group 8158" transform="translate(678.455)">
            <rect id="Rectangle_6696" data-name="Rectangle 6696" width="674.58" height="769.159" transform="translate(7.086)" fill="#fff" opacity="0.35"/>
            <path id="Path_14204" data-name="Path 14204" d="M256.049,788.433H203.67L484.353,41.98h52.339Z" transform="translate(-137.394 -17.944)" fill="#fff" opacity="0.5"/>
            <path id="Path_14205" data-name="Path 14205" d="M212.929,788.433H186.74L467.423,41.98h26.189Z" transform="translate(-186.74 -17.944)" fill="#fff" opacity="0.5"/>
          </g>
          <path id="Path_14206" data-name="Path 14206" d="M1401.7,185.025v-8.808h-24.232V37.48H13.43V55.1H28.11V61.32H463.15V176.256H13.43v8.808H463.15V410.942H13.43v8.808H463.15V645.627H13.43v8.808H463.15V801.628H28.267v5.089H13.43v20.356H1377.465v-1.644h0V654.435H1401.7v-8.808h-24.232V419.75H1401.7v-8.808h-24.232V185.064H1401.7ZM702.846,419.71h210.1V645.588h-210.1Zm0-8.808V185.025h210.1V410.9Zm0-234.686V61.281h210.1V176.217Zm0,478.14h210.1V801.549H702.925v5.089h-.078Zm224.86,147.192V654.357h210.1V801.549Zm0-155.961V419.711h210.1V645.588Zm0-234.686V185.025h210.1V410.9Zm0-234.686V61.281h210.1V176.217Zm224.86-114.935h210.1V176.217h-210.1Zm-674.658,0h210.1V176.217h-210.1Zm0,123.7h210.1V410.863h-210.1V184.986Zm0,234.686h210.1V645.549h-210.1Zm0,234.686h210.1V806.639h-.078v-5.089H477.908V654.357Zm884.759,152.281h-.078v-5.089H1152.566V654.357h210.1Zm0-161.089h-210.1V419.671h210.1Zm0-234.686h-210.1V184.986h210.1Z" transform="translate(-13.43 -31.06)" fill="#fff"/>
        </g>
      </g>
    </g>
    <rect id="Rectangle_6697" data-name="Rectangle 6697" width="810.889" height="5.637" transform="translate(39.26 768.962)"/>
    <g id="Group_8192" data-name="Group 8192" transform="translate(57.118 191.645)">
      <g id="Group_8171" data-name="Group 8171" transform="translate(248.53 38.879)">
        <g id="Group_8162" data-name="Group 8162" transform="translate(119.745 502.428)">
          <path id="Path_14208" data-name="Path 14208" d="M138.41,223.171c1.644-2.349,21.1-1.8,21.374-.666.822,3.523,2.7,17.107.94,19.025-1.683,1.879-16.637,9.121-17.264,5.676-.548-2.975-6.655-21.8-5.089-24.075Z" transform="translate(-137.262 -220.63)" fill="#fff"/>
          <path id="Path_14209" data-name="Path 14209" d="M145.7,249.679a2.8,2.8,0,0,1-1.018-.117,1.873,1.873,0,0,1-1.448-1.527c-.117-.744-.7-2.78-1.37-5.128-3.288-11.666-4.737-17.89-3.562-19.573h0c1.879-2.7,17.538-2.153,21.139-1.488.861.157,1.683.392,1.879,1.135.313,1.37,3.132,17.185.744,19.847-1.527,1.722-11.9,6.89-16.363,6.89Zm-5.95-25.328c-.861,1.566,2.427,13.114,3.836,18.086.744,2.584,1.253,4.463,1.409,5.324a1.69,1.69,0,0,0,.783.157c3.876,0,13.78-5.011,14.915-6.3,1.174-1.331,0-12.958-1.1-17.89-2.7-.979-18.516-.94-19.847.626Z" transform="translate(-137.897 -221.301)"/>
        </g>
        <path id="Path_14210" data-name="Path 14210" d="M182.484,225.589s9.513,13,3.8,23.449c0,0-37.385,1.918-51.6.7,0,0-9.63-11.9,2.349-14.21,11.979-2.271,23.371-5.285,23.371-5.285s13.975,5.4,22.079-4.7Z" transform="translate(-38.181 293.511)"/>
        <g id="Group_8163" data-name="Group 8163" transform="translate(50.678 503.443)">
          <path id="Path_14211" data-name="Path 14211" d="M121.574,222.792c1.8-2.231,21.178-.235,21.374.94.587,3.562,1.409,17.264-.47,19.065-1.8,1.722-21.178,1.527-21.531-1.918C120.634,237.863,119.812,224.945,121.574,222.792Z" transform="translate(-119.592 -220.914)" fill="#fff"/>
          <path id="Path_14212" data-name="Path 14212" d="M135.037,245.4c-4.345,0-9.16-.47-11.744-1.409-.587-.235-2.427-.9-2.584-2.388,0-.157-1.448-15.933.822-18.712h0c2.075-2.545,17.655-.822,21.178.117.822.235,1.644.509,1.762,1.253.391,2.349,1.683,17.538-.744,19.848-.9.861-4.619,1.331-8.73,1.331Zm-12.1-21.374c-1.253,1.566-.94,12.331-.431,17.42,0,.078.235.391,1.1.744,4.854,2.036,17.655,1.644,18.947.626,1.292-1.253.979-12.919.274-17.929-2.623-1.174-18.438-2.31-19.847-.861Z" transform="translate(-120.254 -221.56)"/>
        </g>
        <path id="Path_14213" data-name="Path 14213" d="M165.551,226.09s8.886,12.879,2.388,22.9c0,0-37.777-.117-51.87-2.388,0,0-8.691-12.605,3.406-13.976S143.2,229.1,143.2,229.1,156.7,235.564,165.551,226.09Z" transform="translate(-90.578 295.085)"/>
        <path id="Path_14214" data-name="Path 14214" d="M132.7,459.348l13.388,1.37,17.655,1.8h.039a1.66,1.66,0,0,1,.2-.47s0-.039.078-.078c1.527-3.484-.157-32.414-.313-56.45-.117-29.947,12.879-72.07,15.032-101.469.235-2.466.391-4.737.587-6.851,1.174-14.758,12.84-43.218,22.314-67.607,1.37-3.562,2.74-7.046,3.954-10.335,6.146-16.4,10.3-29.4,7.673-32.335-6.772-7.673-44.9-63.77-67.92-37.894C119.114,178.7,114.73,256.137,114.73,297.907s11.235,119.711,17.89,161.481Z" transform="translate(-85.676 50.748)"/>
        <path id="Path_14215" data-name="Path 14215" d="M122.91,411.224l17.655,1.8h.039a1.661,1.661,0,0,1,.2-.47s0-.039.078-.078c1.84-3.132.783-22.353,4.815-59.738,3.21-29.791,7.36-68.781,9.9-98.18.235-2.466.392-4.737.587-6.851,1.174-14.758,12.84-43.218,22.314-67.607,1.37-3.562,2.74-7.046,3.954-10.335a7.328,7.328,0,0,0-.7-.47,2.163,2.163,0,0,0-2.114-.157c-5.872-7.869-18.595-15.541-25.328-4.11-3.8,6.42.509,13.975.94,20.63.822,13.427-7.634,25.445-12.879,37.19-18.634,41.848-3.523,88-8.612,131.729-2.623,22.9-12.644,33.353-10.844,56.763Z" transform="translate(-62.46 100.204)"/>
        <path id="Path_14216" data-name="Path 14216" d="M134.531,320.452c-.392,41.77-1.683,112.312,15.306,144.844,0,0,23.606.431,24.075-1.84,3.093-14.445,5.872-56.567,9.082-84.283,7.2-62.518,8.3-48.777,11.509-76.141,6.459-55.08,23.88-80.838,15.032-122.882-.626-2.936-1.37-5.911-2.192-9.043-2.075-7.36-13.114-20.239-16.911-28.89-.548-1.214-34.567-1.018-51.322,13-1.762,1.448-3.993,100.373-4.619,165.2Z" transform="translate(-28.514 49.264)"/>
        <path id="Path_14217" data-name="Path 14217" d="M202.955,149.263c-4.619.548-15.15,3.367-19.613-5.441-1.683-3.288-1.879-9.082-2.231-13-.47-5.559-.509-11.157-1.644-16.637-1.409-6.733-4.189-13.975-9.983-18.2-9.2-6.655-26.62-1.644-31.513,8.3a1.976,1.976,0,0,0,.47,2.466,1.625,1.625,0,0,0,.274.509c5.6,6.577,12.1,6.772,14.249,17.42,1.1,5.481-.352,11.235-.235,16.794.235,10.139,4.071,21.374,12.762,27.364,13.9,9.591,37.385-1.762,40.83-17.381.47-2.036-1.8-3.014-3.367-2.231Z" transform="translate(-18.645 -92.957)"/>
        <g id="Group_8164" data-name="Group 8164" transform="translate(0 9.072)">
          <path id="Path_14218" data-name="Path 14218" d="M125.483,104.44a26.557,26.557,0,0,1,2,9.982c.157.431.2.822.313,1.214a9.173,9.173,0,0,1,1.057-.783c2.388-1.331,6.577-1.879,8.064,1.057,1.605,3.132-2.349,5.559-4.228,7.4a24,24,0,0,0-5.441,7.4c-.9,2.858-.822,5.872-1.1,8.847-.2,2.114,0,5.6-1.957,7.046-1.566,1.174-4.972,1.488-6.89,1.214-2.388-.352-3.68-2.31-4.776-4.267a22.235,22.235,0,0,1-2.075-5.363c-1.292-3.288-2.192-6.733-1.527-10.257a12.968,12.968,0,0,1,.666-2.192,17.638,17.638,0,0,1-2-9.513,2.158,2.158,0,0,1,2.819-1.918,4.136,4.136,0,0,1,.861-1.879,2.8,2.8,0,0,1,2-.979,7.847,7.847,0,0,1,1.1-1.8,5.854,5.854,0,0,1,5.989-1.957,28.2,28.2,0,0,0-7.281-7.673,2.3,2.3,0,0,1,.391-3.915c4.815-2.74,10.413,4.463,12.057,8.26Z" transform="translate(-106.607 -94.631)" fill="#fff"/>
          <path id="Path_14219" data-name="Path 14219" d="M119.49,149.476a6.875,6.875,0,0,1-1.605-.117c-2.779-.431-4.267-2.662-5.441-4.737a22.845,22.845,0,0,1-2.192-5.6c-1.1-2.779-2.31-6.655-1.527-10.648a19.834,19.834,0,0,1,.548-1.957,18.546,18.546,0,0,1-1.918-9.591,2.869,2.869,0,0,1,1.214-2.231,3.069,3.069,0,0,1,1.879-.587,4.369,4.369,0,0,1,.822-1.448,3.733,3.733,0,0,1,2.075-1.214,7.131,7.131,0,0,1,1.057-1.605,7,7,0,0,1,4.854-2.466,30.118,30.118,0,0,0-6.068-5.872,3.1,3.1,0,0,1-1.253-2.7A3.453,3.453,0,0,1,113.7,96a5.606,5.606,0,0,1,4.7-.391c3.993,1.331,7.4,6.264,8.652,9.082h0a27.045,27.045,0,0,1,2.036,10.061h.039a8.752,8.752,0,0,1,6.42-.94,4.661,4.661,0,0,1,2.9,2.388c1.644,3.171-1.292,5.715-3.249,7.4-.431.352-.822.7-1.135,1.018a22.925,22.925,0,0,0-5.246,7.125,25,25,0,0,0-.861,6.3c-.039.744-.078,1.527-.157,2.271,0,.352-.039.7-.078,1.1-.117,2.153-.274,5.128-2.231,6.577-1.409,1.057-3.954,1.488-5.95,1.488Zm-9.043-33.666a1.362,1.362,0,0,0-.822.235,1.2,1.2,0,0,0-.47.9,17.086,17.086,0,0,0,1.879,9l.2.352-.157.391a12.506,12.506,0,0,0-.626,2.036c-.666,3.523.431,7.086,1.488,9.748a22.888,22.888,0,0,0,2.036,5.246c1.057,1.84,2.153,3.523,4.15,3.836,1.879.274,4.972-.117,6.224-1.018,1.292-.979,1.409-3.367,1.527-5.246a10.419,10.419,0,0,1,.078-1.174c.078-.744.117-1.488.157-2.231a27.009,27.009,0,0,1,.979-6.812,25.555,25.555,0,0,1,5.676-7.79c.352-.352.783-.744,1.214-1.135,2.231-1.918,3.719-3.445,2.819-5.246a2.976,2.976,0,0,0-1.8-1.488,6.689,6.689,0,0,0-5.011.783,5.6,5.6,0,0,0-.587.431c-.117.117-.274.2-.391.313l-1.018.744-.352-1.214s-.078-.391-.117-.548a3.262,3.262,0,0,0-.157-.587l-.078-.313a25.16,25.16,0,0,0-1.918-9.669h0c-1.174-2.7-4.306-7.007-7.555-8.1a3.806,3.806,0,0,0-3.21.235,1.638,1.638,0,0,0-.861,1.292,1.411,1.411,0,0,0,.587,1.174,28.079,28.079,0,0,1,7.516,7.947l1.135,1.918-2.114-.587a4.856,4.856,0,0,0-5.05,1.683,7.2,7.2,0,0,0-.979,1.566l-.2.47-.509.078a2.136,2.136,0,0,0-1.448.7,3.552,3.552,0,0,0-.666,1.448l-.2.9-.9-.235a4.078,4.078,0,0,0-.431-.039Z" transform="translate(-107.308 -95.274)"/>
        </g>
        <path id="Path_14220" data-name="Path 14220" d="M116.673,181.7c-13.349-24.741-7.4-74.614-7.4-74.614l16.755-.117c.509.9,12.057,55.9,19.5,53.866,3.249-.861,33.118-45.215,68.742-33.431,7.634,2.505,5.363,2.9,3.641,10.726-3.484,15.894-25.485,44.941-46.781,56.606-25.093,13.78-41.887,10.256-54.492-13.114Z" transform="translate(-105.431 -52.113)" fill="#f40"/>
        <path id="Path_14221" data-name="Path 14221" d="M123.843,120.34s-1.018,20,6.655,32.1c0,0,11.94-7.125,15.541-14.993s-22.2-17.107-22.2-17.107Z" transform="translate(-59.244 -13.143)"/>
        <path id="Path_14222" data-name="Path 14222" d="M257.2,257.095a83.357,83.357,0,0,1-23.88,8.534c-49.4,9.9-113.957-14.015-113.957-14.015s14.21-21.452,26.111-44c1.135-2.075,2.192-4.11,3.249-6.224,5.246-10.374,4.071-17.186.94-23.253-4.306-8.338-12.449-15.189-12.958-27.912-.861-21.922,45.841-40.243,45.841-40.243,70.073-4.189,53.475,36.916,46.82,70.19-.626,3.053-1.135,5.99-1.488,8.847-.078.626-.117,1.292-.157,1.879-.078.822-.117,1.644-.2,2.466-1.292,32.727,29.713,63.77,29.713,63.77Z" transform="translate(-72.181 -44.201)" fill="#f40"/>
        <path id="Path_14223" data-name="Path 14223" d="M161.118,185.817c0-.587.078-1.135.117-1.683.078-.9.117-1.8.235-2.662.352-2.858,7.555-34.567,7.869-42.435-1.879-3.562-8.064,20.552-12.879,16.05C143.7,143.03,145.3,112.26,145.3,112.26c-2.9,14.758-5.246,43.805-.313,52.848,1.057,1.918,4.815,9.4,5.011,9.748,3.6,11.118.979,22.275,1.527,33.666.548,10.022,4.032,19.3,7.634,28.577,1.918,4.893,4.032,15.5,7.751,21.022a83.359,83.359,0,0,0,23.88-8.534s-31-31.043-29.712-63.77Z" transform="translate(-5.816 -36.694)"/>
        <g id="Group_8165" data-name="Group 8165" transform="translate(100.682 47.498)">
          <path id="Path_14224" data-name="Path 14224" d="M134.741,112.829v12.41s-3.327,6.107,0,6.772c7.32,1.448,17.89-9.943,17.89-9.943V105.43Z" transform="translate(-132.342 -104.099)" fill="#fff"/>
          <path id="Path_14225" data-name="Path 14225" d="M136.757,134.059a6.743,6.743,0,0,1-1.527-.157,2.629,2.629,0,0,1-1.918-1.448c-.94-2.036.7-5.481,1.174-6.459V113.233l19.691-8.143v18.321l-.235.274c-.431.47-9.708,10.374-17.225,10.374Zm-.431-19.613-.117,12.214c-.822,1.488-1.722,4.032-1.253,5.05a.741.741,0,0,0,.626.431c6.185,1.253,15.267-7.79,16.833-9.434V107.791Z" transform="translate(-133.027 -105.09)"/>
        </g>
        <g id="Group_8166" data-name="Group 8166" transform="translate(89.47 19.116)">
          <path id="Path_14226" data-name="Path 14226" d="M138.7,98.08s-6.577,13.388-8.26,25.837c-1.174,8.847,15.032,20.513,28.186,8.064,13.193-12.449,9.513-31.513,9.513-31.513L138.666,98.08Z" transform="translate(-129.518 -97.141)" fill="#fff"/>
          <path id="Path_14227" data-name="Path 14227" d="M146.631,139.023a17.668,17.668,0,0,1-8.064-2c-5.52-2.819-8.925-7.986-8.338-12.527,1.644-12.449,8.26-25.954,8.338-26.111l.274-.548,30.769,2.505.117.665s3.6,19.652-9.787,32.335a19.292,19.292,0,0,1-13.31,5.676ZM139.9,99.758c-1.214,2.623-6.459,14.249-7.908,25.015-.509,3.758,2.623,8.26,7.4,10.687,6.381,3.249,13.623,2,19.339-3.406,11.313-10.687,9.826-26.581,9.356-30.026Z" transform="translate(-130.163 -97.84)"/>
        </g>
        <path id="Path_14228" data-name="Path 14228" d="M132.942,105.14c.9-.548,2.075-.587,2.936-1.135,2.7-1.722,1.566-2.545,3.132-4.267a10.792,10.792,0,0,1,4.463-3.132c4.815-1.8,10.335-1.1,15.189.078a1.833,1.833,0,0,1,1.135,2.858c4.776.979,10.022,5.52,12.057,8.651,4.071,6.185,4.58,16.52.431,22.823-3.249,4.972-9.356,9-12.605,2.427-2.505-5.011-2.075-9.669-1.683-15.032a24.833,24.833,0,0,0,0-5.128c-2.584-3.523-6.146-6.029-10.1-6.068-1.018,1.018-1.84,2.505-2.779,3.484a14.669,14.669,0,0,1-4.972,3.484c-2.936,1.214-7.007,1.488-9.043-1.488a5.285,5.285,0,0,1,1.84-7.555Z" transform="translate(-40.626 -85.514)"/>
        <g id="Group_8167" data-name="Group 8167" transform="translate(114.626 32.61)">
          <path id="Path_14229" data-name="Path 14229" d="M137.434,102.228s5.285-2.466,6.342,1.8-2.819,6.772-4.854,5.989-2.74-5.989-1.488-7.79Z" transform="translate(-135.943 -100.611)" fill="#fff"/>
          <path id="Path_14230" data-name="Path 14230" d="M140.39,111.712a3.636,3.636,0,0,1-1.135-.2,4.3,4.3,0,0,1-2.231-2.936c-.587-1.918-.665-4.737.313-6.185l.157-.2.235-.117s3.21-1.488,5.52-.391a4.042,4.042,0,0,1,2.114,2.74,5.759,5.759,0,0,1-1.722,5.95,4.936,4.936,0,0,1-3.21,1.331Zm-1.683-8.1a7.045,7.045,0,0,0,0,4.424,1.984,1.984,0,0,0,3.68,1.018,4.053,4.053,0,0,0,1.174-4.15,2.132,2.132,0,0,0-1.135-1.566c-1.135-.548-2.9-.039-3.719.274Z" transform="translate(-136.589 -101.287)"/>
        </g>
        <path id="Path_14231" data-name="Path 14231" d="M152.079,105.392c-2-5.324-6.89-8.025-11.979-9.826-2.623-.94-4.5,3.053-1.84,3.993,3.876,1.409,8.1,3.171,9.669,7.32C148.908,109.541,153.058,108.054,152.079,105.392Z" transform="translate(-20.852 -85.767)" fill="#f40"/>
        <path id="Path_14232" data-name="Path 14232" d="M135.71,133.11a10.017,10.017,0,1,0,11.509-8.26A10.018,10.018,0,0,0,135.71,133.11Zm3.523.587a6.484,6.484,0,1,1,5.363,7.438A6.525,6.525,0,0,1,139.233,133.7Z" transform="translate(-24.917 -0.389)" fill-rule="evenodd"/>
        <path id="Path_14233" data-name="Path 14233" d="M134.2,209.086l43.14,7.086a8.068,8.068,0,0,0,9.278-6.655l10.922-66.706a8.076,8.076,0,0,0-6.655-9.278l-43.14-7.086a8.1,8.1,0,0,0-9.278,6.655l-10.922,66.706a8.076,8.076,0,0,0,6.655,9.278Z" transform="translate(-48.62 4.355)" fill="#aab6c2" fill-rule="evenodd"/>
        <g id="Group_8168" data-name="Group 8168" transform="translate(95.098 160.711)">
          <path id="Path_14234" data-name="Path 14234" d="M132.7,149.274c-2.427-3.132.94-14.915.94-14.954,7.438,1.488,16.52,1.409,19.1,4.737,1.214,1.566-4.7,11.313-5.167,11.157-1.1-.352-14.758-.783-14.876-.979Z" transform="translate(-130.947 -133.107)" fill="#fff"/>
          <path id="Path_14235" data-name="Path 14235" d="M148.235,152.057a.882.882,0,0,1-.274-.039c-.626-.157-5.755-.431-9.121-.587-5.872-.274-5.872-.274-6.185-.7-2.036-2.623-.744-9.826.7-15.424h0l-.509-1.292,1.644.313c2.192.431,4.5.744,6.772,1.018,5.794.744,10.8,1.409,12.84,4.032,1.722,2.231-4.189,11.157-4.267,11.235-.509.744-.979,1.409-1.605,1.409Zm-14.367-2.7c.822.078,3.053.2,5.05.274,5.167.274,7.908.392,9.043.548,1.292-1.527,5.089-8.456,4.7-9.708-1.566-2-6.459-2.623-11.627-3.288-2-.274-4.071-.548-6.068-.9-1.644,6.5-2.036,11.313-1.057,13.075Z" transform="translate(-131.601 -134.01)"/>
        </g>
        <path id="Path_14236" data-name="Path 14236" d="M232.98,223.854c11.979-27.716-5.481-67.411-13-81.073-10.687-19.378-39.46-39.108-51.4-29.125-4.619,3.836-2.153,15.072-1.409,18.556,6.068,28.264,26.972,68.507,26.776,74.262-.274,7.046-49.364-10.061-53.279-4.659,0,0-8.847,17.616-5.324,20.239,0,0,75.045,53.788,97.632,1.762Z" transform="translate(-27.999 -40.438)" fill="#f40"/>
        <g id="Group_8169" data-name="Group 8169" transform="translate(78.881 156.007)">
          <path id="Path_14237" data-name="Path 14237" d="M129.231,146.8a4.03,4.03,0,0,1-.2-4.424,2.456,2.456,0,0,1,.431-.47,2.963,2.963,0,0,1-.783-3.406,3.834,3.834,0,0,1,2.819-2.075,3.867,3.867,0,0,1,.117-1.135c1.448-5.089,9.748-.2,12.449.822a1.8,1.8,0,0,1,1.253,1.762,7.145,7.145,0,0,1,.626.509c2.466,2.623,2.505,7.986,1.331,11.157-1.566,4.15-5.4,5.794-9.63,5.363-3.014-.313-9.356-1.37-9.9-5.207a2.438,2.438,0,0,1,1.527-2.9Z" transform="translate(-126.758 -132.195)" fill="#fff"/>
          <path id="Path_14238" data-name="Path 14238" d="M139.679,156.5a9.222,9.222,0,0,1-1.448-.078c-4.541-.47-10.139-1.879-10.726-5.95a3.42,3.42,0,0,1,1.214-3.367,4.574,4.574,0,0,1,.235-4.541,3.685,3.685,0,0,1-.431-3.719,4.472,4.472,0,0,1,2.74-2.427,2.287,2.287,0,0,1,.157-.7,3.792,3.792,0,0,1,2.036-2.505c2.7-1.253,7.046.744,9.943,2.036q1,.47,1.644.7a2.741,2.741,0,0,1,1.8,2.114,2.052,2.052,0,0,1,.431.391c2.662,2.858,2.858,8.495,1.527,12.1-1.448,3.836-4.776,5.989-9.121,5.989Zm-4.15-21.961a3.175,3.175,0,0,0-1.292.235,2.316,2.316,0,0,0-1.135,2.192v.744l-.665.2a2.854,2.854,0,0,0-2.192,1.566,2.073,2.073,0,0,0,.587,2.427l.548.587-.509.626-.235.235a3.059,3.059,0,0,0,.078,3.6l.548.9-.94.391a1.578,1.578,0,0,0-.979,1.957c.47,3.171,6.538,4.15,9.121,4.424,4.228.47,7.4-1.292,8.691-4.776,1.135-3.053.94-7.986-1.135-10.217a2.153,2.153,0,0,0-.352-.274l-.352-.274-.157-.587a.847.847,0,0,0-.665-.9,14.654,14.654,0,0,1-1.762-.783c-1.957-.9-5.011-2.271-7.125-2.271Z" transform="translate(-127.458 -132.809)"/>
        </g>
        <g id="Group_8170" data-name="Group 8170" transform="translate(84.663 149.869)">
          <path id="Path_14239" data-name="Path 14239" d="M130.548,132.067c2.975-.861,6.068-.94,8.73.9,2.545,1.762,5.6,7.4,6.655,10.217,1.448.861-.47.822-2.662,1.253-2.623.509-5.637,0-6.381-2.975-.313-1.331,0-2.545-1.057-3.6-1.253-1.253-3.249-1.448-4.893-1.566-2.114-.2-2.466-3.6-.431-4.189Z" transform="translate(-128.297 -130.542)" fill="#fff"/>
          <path id="Path_14240" data-name="Path 14240" d="M142.186,146.193c-2.819,0-4.893-1.409-5.52-3.836a8.255,8.255,0,0,1-.2-1.37,2.607,2.607,0,0,0-.626-1.84c-1.018-1.018-2.779-1.174-4.306-1.331a2.94,2.94,0,0,1-2.584-2.779,2.859,2.859,0,0,1,2-3.171h0c3.758-1.1,6.929-.744,9.513,1.018,2.7,1.879,5.716,7.477,6.851,10.335a1.263,1.263,0,0,1,.666,1.253c-.157.861-1.018,1.018-2.466,1.214q-.646.118-1.409.235a11.389,11.389,0,0,1-1.918.2Zm-7.2-13.114a13.623,13.623,0,0,0-3.562.548h0a1.139,1.139,0,0,0-.7,1.292,1.173,1.173,0,0,0,.94,1.174c1.762.157,3.954.352,5.441,1.84a4.4,4.4,0,0,1,1.135,2.975,5.691,5.691,0,0,0,.157,1.1c.744,2.975,4.267,2.505,5.324,2.31a11.064,11.064,0,0,1,1.448-.235,1.663,1.663,0,0,0,.431-.078c-1.1-2.74-3.954-7.986-6.224-9.513a7.477,7.477,0,0,0-4.424-1.331Z" transform="translate(-128.935 -131.241)"/>
        </g>
        <path id="Path_14241" data-name="Path 14241" d="M145.07,138.833a3.965,3.965,0,0,1-3.093-2.427c-.783-2.153-5.441-3.367-7.2-2.153-1.057.744-2-.509-3.876-.9-1.84-.392,0,6.42,0,6.42l5.52,12.566a8.371,8.371,0,0,1,4.032-.666c2.7.078,6.068-9.865,6.068-9.865l-1.409-2.975Z" transform="translate(-40.932 24.736)" fill="#fff"/>
        <path id="Path_14242" data-name="Path 14242" d="M149.921,128.043s-1.057-1.683-1.331.626-7.4,2.975-7.438,1.8-1.683-5.167-.039-8.456c1.644-3.249,2.466-4.11,3.641-6.459s1.683-3.053,2.231-3.249c.548-.235,8.573-1.566,8.573-1.566l11.862,2.975s-5.441,7.986-5.52,8.143c-.039.157-11.979,6.185-11.979,6.185Z" transform="translate(-10.903 -41.124)" fill="#f40"/>
        <path id="Path_14243" data-name="Path 14243" d="M142.787,103.1l.274,6.89-.117,1.409a1.94,1.94,0,0,0-.117,1.527c.2,1.057-5.794,1.292-5.794,1.292a10.152,10.152,0,0,1-1.605-5.559c.157-2.975.157-5.285,1.292-6.3s1.37-2,2.9-1.448,2.858,1.174,2.858,1.174l.352,1.018Z" transform="translate(-25.378 -70.243)" fill="#fff"/>
        <path id="Path_14244" data-name="Path 14244" d="M132.89,149.52l7.438,1.1,4.463,41.535-6.968-3.954Z" transform="translate(-32.745 71.907)"/>
      </g>
      <g id="Group_8178" data-name="Group 8178" transform="translate(431.965)">
        <g id="Group_8172" data-name="Group 8172" transform="translate(53.089 539.95)">
          <path id="Path_14245" data-name="Path 14245" d="M168.948,222.2c1.762-2.192,20.63-.352,20.826.783.587,3.484,1.488,16.794-.313,18.556-1.762,1.722-20.63,1.644-20.983-1.722C168.166,236.922,167.265,224.316,168.948,222.2Z" transform="translate(-167.061 -220.301)" fill="#fff"/>
          <path id="Path_14246" data-name="Path 14246" d="M181.79,244.151c-4.11,0-8.573-.431-11-1.292-.587-.2-2.388-.861-2.545-2.31,0-.157-1.527-15.5.666-18.242h0c2-2.505,17.185-.94,20.63,0,.822.2,1.644.47,1.762,1.213.392,2.31,1.762,17.068-.587,19.339-.9.9-4.737,1.331-8.925,1.331ZM170.281,223.4c-1.214,1.527-.822,12.018-.274,16.951,0,.078.2.352,1.057.7,4.737,1.957,17.185,1.488,18.438.47,1.253-1.214.861-12.566.117-17.42C187.036,223.012,171.69,221.994,170.281,223.4Z" transform="translate(-167.728 -220.954)"/>
        </g>
        <path id="Path_14247" data-name="Path 14247" d="M216.025,225.34s8.73,12.488,2.505,22.314c0,0-45.489,2.153-59.229,0,0,0-.352-16.755,11.431-18.2a169.846,169.846,0,0,1,23.566-1.018s13.193,6.185,21.766-3.093Z" transform="translate(-139.204 331.778)"/>
        <g id="Group_8173" data-name="Group 8173" transform="translate(153.697 539.933)">
          <path id="Path_14248" data-name="Path 14248" d="M194.648,222.2c1.762-2.192,20.63-.352,20.826.783.587,3.484,1.488,16.794-.313,18.556-1.762,1.722-20.63,1.644-20.983-1.722C193.866,236.922,192.965,224.316,194.648,222.2Z" transform="translate(-192.761 -220.284)" fill="#fff"/>
          <path id="Path_14249" data-name="Path 14249" d="M207.49,244.164c-4.11,0-8.573-.431-11-1.292-.587-.2-2.388-.861-2.545-2.31,0-.157-1.527-15.5.665-18.242h0c2.036-2.545,17.225-.94,20.67,0,.822.2,1.605.47,1.722,1.213.391,2.31,1.762,17.068-.587,19.339-.9.9-4.737,1.331-8.925,1.331Zm-11.509-20.748c-1.214,1.566-.822,12.018-.274,16.951,0,.078.2.352,1.057.7,4.58,1.879,17.225,1.448,18.438.47,1.214-1.174.861-12.684.117-17.42C212.736,223.025,197.39,222.007,195.981,223.416Zm19.26.352Z" transform="translate(-193.428 -220.95)"/>
        </g>
        <path id="Path_14250" data-name="Path 14250" d="M241.725,225.34s8.73,12.488,2.505,22.314c0,0-45.489,2.153-59.229,0,0,0-.352-16.755,11.431-18.2A169.846,169.846,0,0,1,220,228.433s13.192,6.185,21.766-3.093Z" transform="translate(-64.297 331.778)"/>
        <path id="Path_14251" data-name="Path 14251" d="M162.636,299.789c0,40.674,15.385,126.21,25.719,163.086h26.776c.117-.2.313-42.435.274-58.8,0-29.6,8.025-78.215,10.178-104.992,1.135-14.367.744-50.226,9.982-73.988,1.722-4.424,3.327-8.652,4.854-12.684,5.441-14.719,8.886-26.15,6.5-28.89-6.577-7.477-63.3-63.066-77.511-32.492-14.954,32.14-6.694,108.045-6.694,148.719Z" transform="translate(-135.884 88.645)"/>
        <path id="Path_14252" data-name="Path 14252" d="M172.344,419.643c7.2.391,11,0,13.7,0,0-.039-2.584-26.933,2.31-66.276,12.723-102.252,21.413-180.115,22.9-184.147-3.171-6.068-7.634-12.292-15.072-12.449-5.99-.117-9.943,3.954-11.118,9.552-2.231,10.452,2.349,23.1,2.31,33.823-.039,15.111-3.171,29.869-6.264,44.667-2.662,12.644-5.207,25.328-5.559,38.325-.431,15.111,1.644,30.143,1.331,45.254-.548,26.424-10.609,64.749-4.541,91.291Z" transform="translate(-106.837 131.916)"/>
        <path id="Path_14253" data-name="Path 14253" d="M178.219,172.693s.039,1.409.078,4.071c.117,5.167,1.566,14.719,3.758,27.364.94,5.441,1.683,29.164,2.779,35.663,4.658,26.307,11.039,42.592,14.915,77.119,4.58,40.4,26.189,104.992,36.916,148.054h26.5s-5.676-63.066-9.082-74.927c-4.15-14.524,6.107-33.51,5.989-51.126-.117-12.488.274-24.858.431-35.741.039-3.641.078-7.2.078-10.765-.352-56.88,3.171-80.643-14.6-123.743-.274-.665-.509-1.37-.822-2.075a168.363,168.363,0,0,0-11.274-22c-1.448-2.388-4.776-3.288-9.4-2.74-11.039,1.292-29.125,11.079-44.079,28.186-.783.861-1.488,1.722-2.231,2.623Z" transform="translate(-84.174 87.965)"/>
        <path id="Path_14254" data-name="Path 14254" d="M192.412,155.657a1.629,1.629,0,0,0,0,1.644c9.943,22.94,16.285,47.563,15.111,72.735-.548,12.879-3.523,25.446-5.441,38.168a379.316,379.316,0,0,0-3.484,39.343c-.9,22.431-2.662,45.8,1.527,68.037,4.15,22,5.05,47.759,11.313,69.29h13.153c1.057-7.007,0-39.93-1.879-62.87-1.1-13.193-.9-50.265-1.253-63.144-.392-12.1.157-24.154.431-35.741.039-3.641.078-7.2.078-10.765-.352-56.88,3.171-80.643-14.6-123.743a29.464,29.464,0,0,0-14.954,3.8c-1.488.783-1.174,2.388-.078,3.249Z" transform="translate(-45.636 108.094)"/>
        <path id="Path_14255" data-name="Path 14255" d="M207.832,102.339S175.261,127.628,154.67,195l53.162,12.018.548-66.9-.548-37.816Z" transform="translate(-152.699 -26.845)"/>
        <path id="Path_14256" data-name="Path 14256" d="M159.85,296.275c.626,2,34.41,5.872,51.008,7.673,31.239,3.328,74.066-5.833,85.81-8.025,4.776-.9,7.869-2.192,8.612-3.719,2.271-4.893-5.559-52.418-4.619-84.009.157-6.107.313-12.331.313-18.4.157-31.748-2.036-61.539-9.239-67.059-1.644-1.292-3.523-2.623-5.6-4.032-1.8-1.253-3.719-2.466-5.872-3.719-1.605-.94-3.249-1.879-5.011-2.779a103.094,103.094,0,0,0-22.392-8.651,92.827,92.827,0,0,0-44.706-.7.038.038,0,0,1-.039.039,93.166,93.166,0,0,0-12.331,3.68c-.979.352-1.957.744-3.014,1.135-14.054,5.637-12.018,36.211-9.748,61.852,1.018,11.9,2.114,22.744,1.683,29.478a56.182,56.182,0,0,1-.861,6.772c-3.171,18.869-21.57,76.689-23.958,90.469Z" transform="translate(-137.6 -32.21)" fill="#aab6c2"/>
        <g id="Group_8174" data-name="Group 8174" transform="translate(80.524 46.368)">
          <path id="Path_14257" data-name="Path 14257" d="M176.405,102.423v13.741s-3.249,5.95,0,6.616c7.125,1.409,17.42-6.577,17.42-6.577V95.22l-17.42,7.242Z" transform="translate(-174.08 -93.85)" fill="#fff"/>
          <path id="Path_14258" data-name="Path 14258" d="M178.862,124.817a10.7,10.7,0,0,1-1.957-.2,2.517,2.517,0,0,1-1.879-1.409c-.94-2,.665-5.363,1.135-6.3V102.817l19.221-7.947v22.744l-.352.274c-.392.313-9,6.968-16.168,6.968Zm-.9-20.787-.117,13.545c-.783,1.448-1.683,3.915-1.214,4.893a.742.742,0,0,0,.626.431c5.95,1.174,14.563-4.815,16.363-6.185V97.532Z" transform="translate(-174.736 -94.87)"/>
        </g>
        <g id="Group_8175" data-name="Group 8175" transform="translate(67.69 18.535)">
          <path id="Path_14259" data-name="Path 14259" d="M182.986,88.01S175,100.146,171.907,111.968c-2.192,8.417,12.057,21.648,26.307,11.2s13-29.321,13-29.321L182.986,88.01Z" transform="translate(-170.802 -87.031)" fill="#fff"/>
          <path id="Path_14260" data-name="Path 14260" d="M187.909,128.629a17.159,17.159,0,0,1-9.63-3.014c-5.011-3.406-7.673-8.769-6.577-13.114,3.093-11.862,11.118-24.115,11.2-24.232l.313-.509,29.478,6.107v.665s1.174,19.456-13.31,30.065a19.507,19.507,0,0,1-11.509,4.032Zm-3.836-38.912c-1.527,2.388-7.947,13-10.609,23.214-.94,3.562,1.527,8.26,5.833,11.2,5.794,3.915,12.919,3.562,19.064-.979,12.214-8.965,12.684-24.467,12.644-27.873l-26.933-5.6Z" transform="translate(-171.458 -87.76)"/>
        </g>
        <path id="Path_14261" data-name="Path 14261" d="M219.744,121.369c2.192,4.15-2.623,6.733-7.32,7.32a6.149,6.149,0,0,1-.744,1.018c0,4.776-3.562,9.239-8.221,5.559-6.929,5.52-15.346,9.982-25.25,5.481-4.306-1.957-7.595-8.965-6.42-12.566,1.488-4.541,8.338.587,11.274-2.114a2.3,2.3,0,0,1,3.132.117c2.584,3.053,4.424,4.58,8.847,3.641a16,16,0,0,0,6.146-2.779c.626-3.288,2.623-6.616,3.641-9.591.274-.822,1.292-4.306,2.192-7.164-11.079-1.527-25.719-4.228-30.3-13.975-4.071-8.651,2.858-13.114,10.3-11.979,3.406-2.505,9.474-1.331,11.157,2.779,2.662-1.174,5.755-2,7.829.2a3.967,3.967,0,0,1,1.135,3.171,4.848,4.848,0,0,1,2.74.587,7.221,7.221,0,0,1,3.053,3.171c3.367-1.1,7.2,3.484,6.146,7.751a6.15,6.15,0,0,1,1.292,8.3c3.562,3.249,3.327,8.182-.626,10.961Z" transform="translate(-103.502 -83.025)"/>
        <path id="Path_14262" data-name="Path 14262" d="M209.1,174.1s-47.916,5.324-53.044-7.594c-4.815-12.1.352-26.933,6.577-43.531,4.776-12.84,44.9,25.915,44.9,25.915L209.1,174.1Z" transform="translate(-154.166 25.805)"/>
        <path id="Path_14263" data-name="Path 14263" d="M187.285,191.854c3.132,3.6,2.858,25.524,7.712,25.915,26.972,2.271,45.215-22.862,48.346-24.741,5.755-3.484,29.478-24.858,29.2-30.926-1.331-30.691-2.153-39.421-7.477-50.852-.861-1.879-5.285-4.619-7.4-6.029-1.8-1.253-5.559,6.577-7.712,5.324-15.111-4.619-32.649,7.086-45.606,19.065-7.634,7.046-33.9,42.553-34.332,43.884-3.093,9.552,11.235,11.548,17.264,18.36Z" transform="translate(-109.212 -18.727)"/>
        <g id="Group_8176" data-name="Group 8176" transform="translate(63.453 47.913)">
          <path id="Path_14264" data-name="Path 14264" d="M194.208,112.9A7.144,7.144,0,0,0,190.8,114a1.391,1.391,0,0,1-.352.157c2.7-4.11,4.11-9.591,2.545-14.445-.979-3.132-2.9-3.171-3.21-.2-.587,5.676-1.253,8.3-.626,1.605.157-1.722,0-5.363-1.253-5.6-2.7-.509-2.192,5.481-2.662,8.182-1.448,1.879-1.37-4.659-2.114-5.755-3.249-5.011-3.68,7.125-4.463,7.438-2.231.861-.7-7.242-3.68-4.737-2.231,1.84-.587,9.826-1.331,12.175-.626,1.957-4.15,9.4-2.74,11.353,5.4,7.438,12.84-2.153,15.7-5.481,2.623-.548,6.616-1.566,7.986-3.014.9-.94,1.488-2.623-.391-2.7Z" transform="translate(-169.762 -94.601)" fill="#fff"/>
          <path id="Path_14265" data-name="Path 14265" d="M176.187,128.4h-.2a6.655,6.655,0,0,1-5.128-3.132c-1.292-1.8.2-5.95,1.957-10.413.313-.744.548-1.331.666-1.722a16.267,16.267,0,0,0,.117-4.11c-.117-3.445-.235-7.046,1.488-8.456a2.07,2.07,0,0,1,2.075-.587c1.1.431,1.331,1.84,1.566,3.327.039.313.117.783.2,1.174.078-.391.157-.861.235-1.292.665-3.68,1.253-6.342,2.9-6.655,1.292-.274,2.192,1.135,2.505,1.566a9.131,9.131,0,0,1,.744,3.053v.157c.157-2.31.392-4.619,1.644-5.6a2.1,2.1,0,0,1,1.8-.391c.979.2,1.488,1.174,1.762,2.349a1.909,1.909,0,0,1,1.1-.548c1.174-.117,2.271.979,2.936,2.975a17.557,17.557,0,0,1-1.331,12.84,4.961,4.961,0,0,1,1.722-.235h0a2.026,2.026,0,0,1,2,1.174c.431,1.057-.274,2.31-.979,3.053-1.174,1.214-3.836,2.231-8.143,3.21l-.313.391c-2.349,2.779-6.733,7.947-11.235,7.947Zm.313-26.737-.313.235c-1.057.861-.94,4.463-.861,7.046a17.139,17.139,0,0,1-.2,4.737c-.117.391-.391,1.057-.7,1.84-.822,2.075-3.014,7.555-2.153,8.73a4.892,4.892,0,0,0,3.758,2.388h.157c3.68,0,7.673-4.776,9.865-7.32l.7-.861.274-.078c5.089-1.1,6.929-2.114,7.555-2.74a1.676,1.676,0,0,0,.587-1.135,2.53,2.53,0,0,0-.391-.078h0a7.319,7.319,0,0,0-2.936.979l-.313.117-2.584,1.018,1.37-2.271c2.858-4.424,3.8-9.513,2.466-13.7-.431-1.37-.979-1.762-1.057-1.762a2.877,2.877,0,0,0-.431,1.37c-.666,6.5-.9,6.459-1.8,6.381-1.018-.117-.979-.665-.587-4.933.2-2.114-.157-4.384-.587-4.658-.157,0-.235,0-.313.078-.7.548-.9,3.132-1.018,4.854-.078.94-.117,1.84-.235,2.505l-.157.391a1.343,1.343,0,0,1-1.448.626c-1.018-.274-1.292-1.605-1.644-4.11a12.781,12.781,0,0,0-.47-2.349c-.47-.744-.744-.822-.744-.822-.548.352-1.174,3.8-1.409,5.246-.391,2.271-.548,3.053-1.253,3.327a1.56,1.56,0,0,1-1.37-.078c-.9-.509-1.1-1.8-1.331-3.171a7.024,7.024,0,0,0-.431-1.879Z" transform="translate(-170.375 -95.265)"/>
        </g>
        <path id="Path_14266" data-name="Path 14266" d="M176.129,227.211c-36.524-8.26,14.406-125.231,14.406-125.231l12.253,5.637c.7,1.135-20.043,83.461-10.256,80.251,4.267-1.409,34.88-55.628,53.514-67.45,9.4-5.989,18.947-7.007,26.659-6.89,10.726.157,16.011,10.609,14.289,21.178-3.484,21.413-19.3,51.674-40.2,73.4-22.979,23.88-39.108,26.228-70.621,19.1Z" transform="translate(-128.59 -27.778)" fill="#aab6c2"/>
        <g id="Group_8177" data-name="Group 8177" transform="translate(47.534 186.431)">
          <path id="Path_14267" data-name="Path 14267" d="M191.322,143.65c-.078-1.174-.822-3.328-2.349-3.21a1.111,1.111,0,0,0-.509.157,7.352,7.352,0,0,0,.2-2.466c-.2-1.762-1.37-4.5-3.562-3.288a6.4,6.4,0,0,0-2.153,2.075,4.93,4.93,0,0,0-2.388-3.954c-2.31-1.37-3.641.274-4.463,2.271-.2-2.153-.94-5.285-3.445-4.071-1.409.665-2.466,2.584-3.288,3.8-1.174,1.8-2.9,5.167-2.819,6.772.157,2.427,2.31,4.932,4.737,3.249a10.982,10.982,0,0,0,1.762-1.566c-.352,1.957-.117,3.719,1.683,4.384,1.918.7,3.719-.665,5.089-2.466v.157c.431.94.979,2.231,2.192,2.349a3.45,3.45,0,0,0,2.545-1.292.779.779,0,0,0,.274.626,3.956,3.956,0,0,0,6.459-3.523Z" transform="translate(-165.637 -129.943)" fill="#fff"/>
          <path id="Path_14268" data-name="Path 14268" d="M188.04,149.719a4.773,4.773,0,0,1-3.014-1.1,3.313,3.313,0,0,1-2.427.783,3.1,3.1,0,0,1-2.349-1.762c-2.114,2.153-3.954,2.153-5.207,1.683a3.489,3.489,0,0,1-2.349-3.132c-.078.078-.2.117-.274.2a3.416,3.416,0,0,1-3.523.352,5.133,5.133,0,0,1-2.584-4.306c-.117-2.036,1.879-5.676,2.975-7.32l.313-.47a9.329,9.329,0,0,1,3.327-3.641,2.541,2.541,0,0,1,2.623,0,4.087,4.087,0,0,1,1.683,2.466,3.854,3.854,0,0,1,1.527-1.057,3.5,3.5,0,0,1,2.975.47,5.508,5.508,0,0,1,2.388,2.779,5.518,5.518,0,0,1,1.253-.94,2.721,2.721,0,0,1,2.623-.117c1.331.7,2.075,2.545,2.231,4.11a9.944,9.944,0,0,1,0,1.527,2.123,2.123,0,0,1,1.135.587,5.389,5.389,0,0,1,1.527,3.445h0a5.12,5.12,0,0,1-2.7,4.893,4.546,4.546,0,0,1-2.114.509Zm-2-4.463.117,1.957a2.861,2.861,0,0,0,3.21.392,3.271,3.271,0,0,0,1.762-3.21,3.482,3.482,0,0,0-.9-2.192.519.519,0,0,0-.47-.157l-1.723.861.274-1.8a5.9,5.9,0,0,0,.157-2.153,3.858,3.858,0,0,0-1.292-2.7.908.908,0,0,0-.94.078,5.318,5.318,0,0,0-1.84,1.8l-1.409,2.075-.235-2.505a3.973,3.973,0,0,0-1.957-3.288,1.737,1.737,0,0,0-1.488-.313c-.587.2-1.174.94-1.722,2.153l-1.37,3.21-.313-3.484c-.157-1.8-.626-3.132-1.214-3.445-.078-.039-.352-.2-.979.078-1.018.47-1.918,1.918-2.623,3.014l-.313.509c-1.331,2.075-2.74,5.05-2.662,6.224a3.471,3.471,0,0,0,1.605,2.819,1.652,1.652,0,0,0,1.762-.235,9.107,9.107,0,0,0,1.605-1.448l2.075-2.271-.548,3.014c-.509,2.779.665,3.21,1.1,3.406,1.527.548,3.093-.861,4.11-2.153l1.057-1.37.47,1.683c.47,1.018.861,1.8,1.488,1.84a2.944,2.944,0,0,0,1.8-1.018l1.409-1.409Z" transform="translate(-166.309 -130.649)"/>
        </g>
      </g>
      <g id="Group_8183" data-name="Group 8183" transform="translate(0 26.862)">
        <path id="Path_14269" data-name="Path 14269" d="M91.106,221.768c-1.683-2.114-20.122-.352-20.278.744-.587,3.406-1.448,16.363.313,18.086,1.722,1.683,17.577,5.285,17.929,2C89.383,239.736,92.75,223.8,91.106,221.768Z" transform="translate(32.748 291.616)" fill="#fff"/>
        <path id="Path_14270" data-name="Path 14270" d="M86.126,245.422c-5.128,0-13.467-2.114-14.954-3.562-2.271-2.231-.94-16.6-.548-18.83.117-.7.9-.979,1.683-1.174,3.367-.861,18.125-2.427,20.122,0h0c1.253,1.566.548,7.477-1.253,17.812-.274,1.683-.509,3.014-.587,3.641a2.06,2.06,0,0,1-1.566,1.722,9.617,9.617,0,0,1-2.858.352Zm-13.858-21.8c-.7,4.658-1.057,15.854.117,16.99,1.214,1.174,12.723,3.993,16.05,2.819.274-.078.431-.2.47-.313.078-.666.313-2.036.587-3.758.7-4.15,2.623-15.111,1.605-16.442-1.37-1.37-16.324-.391-18.83.665Z" transform="translate(32.129 290.98)"/>
        <path id="Path_14271" data-name="Path 14271" d="M73.464,224.83S64.969,237,71.037,246.557c0,0,44.314,2.075,57.7,0,0,0,.352-16.324-11.118-17.734a212.991,212.991,0,0,0-24.389-1.174S81.8,233.873,73.464,224.83Z" transform="translate(29.133 303.43)"/>
        <path id="Path_14272" data-name="Path 14272" d="M63.453,221.8c-1.722-2.114-17.46-.431-17.655.665-.587,3.406-1.448,16.363.313,18.086,1.722,1.683,15.541,7.046,15.894,3.8.313-2.858,3.093-20.474,1.448-22.549Z" transform="translate(-40.207 291.659)" fill="#fff"/>
        <path id="Path_14273" data-name="Path 14273" d="M60.7,246.848c-4.345,0-13.153-3.641-14.563-5.05-2.271-2.231-.94-16.6-.548-18.83.117-.665.783-.979,1.879-1.253,2.936-.744,15.346-2.231,17.3.2h0c1.174,1.448.9,7.086-.94,20.748-.157,1.135-.274,1.957-.313,2.427a1.83,1.83,0,0,1-1.331,1.566,4.057,4.057,0,0,1-1.448.2ZM47.2,223.556c-.7,4.619-1.057,15.854.117,17.029,1.448,1.409,11.783,5.363,14.249,4.463.2-.078.2-.117.2-.157.039-.47.157-1.331.313-2.466,1.605-11.9,2.036-18.438,1.292-19.417-1.135-1.37-13.9-.548-16.207.587Z" transform="translate(-40.825 291.041)"/>
        <path id="Path_14274" data-name="Path 14274" d="M94.244,290.222c2.075,26.072.157,78.607-1.918,104.679-.117,1.762-.117,62.283-.117,62.283l24.506,2.349c13.349-39.773,38.795-129.028,38.795-168.645S152.1,185.269,137.541,153.952c-13.858-29.791-68.429,11.353-74.849,18.634-2.975,3.367,2.662,33.51,10.413,53.475,9,23.136,20.043,50.108,21.178,64.123Z" transform="translate(8.823 65.674)"/>
        <path id="Path_14275" data-name="Path 14275" d="M88.313,425.452l15.111,1.448c-1.37-9.513,0-30.73.509-40.4,1.018-16.833,5.167-33.314,9.082-49.677,6.185-25.954,12.057-53.4,4.7-79.781-3.8-13.545-12.1-22.979-18.869-34.958a47.306,47.306,0,0,1-6.068-26.424c.391-5.05,3.484-11.431,1.8-16.481-2.114-6.381-21.218-27.951-26.072-24.7-5.872,3.954-2.9,19.26-5.285,26.424,9,23.136,25.994,63.535,27.129,77.55,2.075,26.072-2.231,78.372-3.641,104.483-1.409,25.994,1.605,62.478,1.605,62.478Z" transform="translate(12.718 97.406)"/>
        <path id="Path_14276" data-name="Path 14276" d="M45.583,456.071l21.766,2.349C78.7,420.878,109.04,356.755,113.5,317.413c6.929-61.147,15.267-126.6,15.659-142.69.039-2.584.078-3.954.078-3.954-14.954-18.2-40.36-25.641-51.635-26.972-4.463-.548-7.712.352-9.121,2.662a166.776,166.776,0,0,0-10.961,21.453c-18.2,43.3-2.9,69.447-3.21,125.74,0,3.249-.039,6.577-.117,9.865-.587,23.253,5.676,51.909-.979,76.219C40.1,427.415,45.661,456.11,45.661,456.11Z" transform="translate(-41.871 66.787)"/>
        <path id="Path_14277" data-name="Path 14277" d="M174.7,177.826c.313,29.752-12.136,56.724-30.261,52.574-17.655-4.11-30.026-11.979-38.716-20.474-.9-.861-1.84-1.762-2.662-2.662-1.409-1.527-2.662-3.014-3.915-4.541-1.644-2.114-3.132-4.189-4.424-6.224-.2-.352-.431-.7-.626-1.018-5.715-9.082-7.986-14.68-8.417-22.353a57.836,57.836,0,0,1,.509-13.193S78.2,99.219,91.434,106.775c13.388,7.634,28.382,30.809,39.186,53.71a.829.829,0,0,0,.117.274c.626,1.253,1.174,2.427,1.722,3.6.352.744.744,1.488,1.057,2.153,5.363,11.47,7.712,17.929,9.552,19.221,3.21,2.075,4.541-9.865,7.4-23.566h0c.352-1.722.665-3.367,1.018-5.011,2.036-9.708,4.11-18.047,6.459-18.83,0,0,10.883-10.374,11.861-5.363a264.88,264.88,0,0,1,4.893,44.9Z" transform="translate(72.702 -42.562)" fill="#fff"/>
        <path id="Path_14278" data-name="Path 14278" d="M148.874,232.372a16.974,16.974,0,0,1-3.915-.47c-15.62-3.641-28.773-10.57-39.108-20.67-.9-.861-1.84-1.8-2.662-2.7-1.488-1.644-2.779-3.132-3.954-4.58-1.762-2.271-3.21-4.306-4.5-6.3a5.554,5.554,0,0,0-.431-.7l-.235-.352c-5.95-9.513-8.143-15.267-8.573-22.783a60.743,60.743,0,0,1,.47-13.271c-.744-5.559-6.068-48.62,2-54.023a4.079,4.079,0,0,1,4.541.117c12.018,6.851,26.816,27.09,39.538,54.062a2.1,2.1,0,0,1,.2.431c.391.7.783,1.566,1.174,2.427l.47,1.057.47.94c.2.431.391.822.587,1.214,1.605,3.406,2.936,6.381,4.032,8.925,2.466,5.52,4.11,9.2,5.207,9.943.2.117.274.078.274.078,1.448-.626,2.819-7.908,4.15-14.915.47-2.545,1.018-5.285,1.566-8.064v-.157l1.057-4.972c2.779-13.193,4.58-18.4,6.851-19.378,1.644-1.566,8.417-7.751,11.627-6.733a2.288,2.288,0,0,1,1.566,1.918,265.673,265.673,0,0,1,4.893,45.058h0c.235,21.961-6.224,41.5-16.442,49.717a17.271,17.271,0,0,1-10.961,4.15ZM90,107.65A1.623,1.623,0,0,0,88.94,108c-6.146,4.11-2.975,39.3-1.214,52.535v.235a58.253,58.253,0,0,0-.47,12.958c.431,7.281,2.427,12.605,8.3,21.961l.2.313c.157.235.313.509.47.783,1.214,1.879,2.662,3.876,4.345,6.107,1.135,1.409,2.427,2.858,3.876,4.463.822.861,1.683,1.762,2.584,2.623,10.139,9.9,23.018,16.716,38.325,20.239a15.073,15.073,0,0,0,13.388-3.327c9.669-7.79,16.05-27.246,15.815-48.386a265.964,265.964,0,0,0-4.854-44.745c-.117-.548-.313-.587-.391-.626-1.683-.548-6.89,3.445-10.022,6.459l-.313.2c-2.231.744-4.893,13.427-5.872,18.2L152.084,163c-.587,2.819-1.1,5.6-1.605,8.182-1.957,10.256-2.975,15.267-5.167,16.168a1.878,1.878,0,0,1-1.918-.235c-1.527-1.057-2.975-4.267-5.833-10.687-1.135-2.505-2.466-5.481-4.032-8.886-.157-.391-.352-.783-.548-1.174-.157-.313-.313-.666-.47-.979L132,164.335c-.391-.822-.783-1.683-1.214-2.544-.078-.2-.157-.313-.2-.431-9.708-20.513-25.015-45.332-38.795-53.2a3.6,3.6,0,0,0-1.683-.548Z" transform="translate(71.986 -43.242)"/>
        <path id="Path_14279" data-name="Path 14279" d="M145.085,123.721q-1.409,10.511-2.819,20.944c-.352,2.505-.7,5.167-1.957,7.36-1.292,2.231-1.8,3.641-4.228,2.858-3.327-1.057-4.815-5.246-8.064-6.538-2.349-.979-5.128-.078-7.2,1.409-2.075,1.527-3.641,3.641-5.363,5.52-5.4,5.833-11,12.644-17.851,14.015-.9-.861-1.84-1.762-2.662-2.662-1.409-1.527-2.662-3.014-3.915-4.541-1.644-2.114-3.132-4.189-4.424-6.224a36.491,36.491,0,0,1,4.345-6.263c8.456-10.413,17.107-21.061,28.538-27.951a17.635,17.635,0,0,1,3.093-1.566c.626,1.253,1.174,2.427,1.722,3.6.352.744.744,1.488,1.057,2.153,5.363,11.47,7.712,17.929,9.552,19.221,3.21,2.075,4.541-9.865,7.4-23.566h0a2.023,2.023,0,0,1,.861-1.018,1.545,1.545,0,0,1,1.84,1.018,4.769,4.769,0,0,1,.117,2.231Z" transform="translate(80.863 -1.884)"/>
        <path id="Path_14280" data-name="Path 14280" d="M106.885,207.645c-3.8-5.128-9.669-11-14.876-16.716-1.957-2.192-3.836-4.345-5.52-6.381a34.79,34.79,0,0,1-5.167-8.182,11.915,11.915,0,0,1-.9-3.406c-.117-2.153.431-9.121,1.527-18.008,2.936-22.979,10.57-53.631,20.67-49.051,17.264,7.829,31.357,34.058,43.649,54.806-2,19.221-14.406,38.677-39.421,46.9Z" transform="translate(62.81 -44.547)" fill="#f40"/>
        <path id="Path_14281" data-name="Path 14281" d="M46.016,446.423l4.972.47c-.117-12.762.2-30.809,1.566-43.492,2.153-20,7.751-38.795,14.68-57.624,11.079-30.339,18.556-60.325,16.442-92.974-1.174-17.773-6.812-34.254-9.239-51.674-1.566-11.274.744-22.04,2.545-33a104.376,104.376,0,0,0,1.644-18.869C78.469,144.013,58,148.2,58,156.853c-18.2,43.3-2.9,70.778-3.21,127.071,0,3.249-.039,6.577-.117,9.865-.548,23.253-1.37,49.756-5.167,74.653-9.082,59.934-3.406,77.941-3.406,77.941Z" transform="translate(-42.304 76.435)"/>
        <path id="Path_14282" data-name="Path 14282" d="M111.357,108.329s4.189,14.876-2.858,36.485c-1.84,5.637-11.235,28.5-15.58,41.926-2.74-2.505-10.139-11.079-11.509-13.388l16.6-32.14L111.4,108.29Z" transform="translate(65.736 -36.248)"/>
        <path id="Path_14283" data-name="Path 14283" d="M193.981,187.716c-5.128,10.413-9.943,19.887-11.94,26.189-6.3,19.926,11.079,52.5,8.025,67.333-2.779,3.406-42.944,20.278-73.166,21.374-39.343,1.409-69.995-13.545-70.347-19.3-.352-5.246,16.677-73.087,26.972-102.134,11.431-32.218,27.285-63.418,36.289-72.657a18.959,18.959,0,0,1,2-1.762c2.819-2.036,6.968-3.445,12.057-4.228,28.577-4.619,72.852,8.182,90.312,23.527,3.8,14.6-9.121,39.108-20.2,61.578Z" transform="translate(-35.874 -55.819)" fill="#f40"/>
        <path id="Path_14284" data-name="Path 14284" d="M95.12,106.046v12.331s3.21,7.046,0,7.477c-10.844,1.409-16.99-12.527-16.99-12.527V99l16.99,7.046Z" transform="translate(56.176 -63.326)" fill="#fff"/>
        <path id="Path_14285" data-name="Path 14285" d="M94.2,127.766c-10.3,0-15.972-12.566-16.207-13.153l-.078-.352V98.68l18.673,7.751v12.723c.509,1.174,2.153,5.285,1.018,7.32a2.28,2.28,0,0,1-1.762,1.174,12.608,12.608,0,0,1-1.683.117ZM79.632,114.1c.7,1.488,6.577,13.114,16.011,11.861a.561.561,0,0,0,.509-.313c.587-1.057-.313-4.11-1.174-5.989l-.078-.352V107.566l-15.267-6.342v12.84Z" transform="translate(55.535 -64.259)"/>
        <path id="Path_14286" data-name="Path 14286" d="M97.616,109.239s1.605,21.413-11.822,34.058-24,16.324-24,16.324L59.33,179.938s16.207-5.363,30.613-27.442c5.95-9.082,10.726-27.755,7.673-43.3Z" transform="translate(1.38 -33.596)"/>
        <path id="Path_14287" data-name="Path 14287" d="M104.7,92.04a85.107,85.107,0,0,1,6.772,22.627c1.1,8.377-13.193,21.335-25.72,9.552C73.227,112.4,76.711,94.35,76.711,94.35l27.99-2.271Z" transform="translate(50.744 -83.612)" fill="#fff"/>
        <path id="Path_14288" data-name="Path 14288" d="M97.211,130.419a16.658,16.658,0,0,1-11.431-4.972C73.1,113.429,76.463,94.952,76.5,94.8l.117-.626,29.2-2.349.274.548a87.608,87.608,0,0,1,6.851,22.862c.626,4.737-3.21,10.687-8.769,13.506a14.993,14.993,0,0,1-6.929,1.723ZM78.068,95.735c-.431,3.249-1.84,18.36,8.886,28.46,6.812,6.42,13.193,4.619,16.4,2.975,4.933-2.545,8.377-7.712,7.829-11.783a85.41,85.41,0,0,0-6.42-21.8Z" transform="translate(50.17 -84.253)"/>
        <path id="Path_14289" data-name="Path 14289" d="M76.243,103.986s-.157-.548-.352-1.1a8.645,8.645,0,0,1,1.762-8.808,2.27,2.27,0,0,1,3.093-.274h.117c3.562-.274,3.562,4.071,4.071,6.42.822,3.993,3.288,8.769,2.036,12.919a5.154,5.154,0,0,1-6.381,3.641c-3.445-1.018-3.093-4.189-4.228-6.851-.7-1.566-1.214-2.662-.783-4.424a9.9,9.9,0,0,1,.7-1.448Z" transform="translate(48.081 -79.86)"/>
        <path id="Path_14290" data-name="Path 14290" d="M77,108.18c3.8,8.26,10.257,1.8,15.5-.744,3.562-1.762,9.043-2.388,12.919-4.463a1.96,1.96,0,0,0,3.093.7c3.053-2.662,6.655-7.2,3.21-11.157-2.662-3.053-6.342-1.762-9.278.078C92.466,85.044,70.583,94.244,77,108.219Z" transform="translate(49.512 -89.887)"/>
        <g id="Group_8179" data-name="Group 8179" transform="translate(13.714 51.966)">
          <path id="Path_14291" data-name="Path 14291" d="M157.009,224.828l-6.068,15.659s-2.936.822-7.829,1.879c-14.445,3.014-42.67,4.933-64.906-.2-20.043-4.619-31.2-28.734-30.652-53.122h0a68.248,68.248,0,0,1,7.086-29.634,50.044,50.044,0,0,1,5.011-8.025c.626-.783,1.253-1.566,1.918-2.388h.039a2.5,2.5,0,0,0,.235-.352c19.456-23.136,27.4-29.869,42.944-42.553,8.1-6.577,16.168-.431,19.73,9.356,2.584,7.046,8.456,13.036,6.577,23.723-1.918,11.118-8.064,21.061-16.559,28.5-3.132,2.7-6.655,5.872-10.1,9.121-.47.431-.861.783-1.292,1.214-8.573,8.26-9.513,28.029-9.513,31.278,0,3.876,4.893,9.239,10.335,11.157,16.794,5.95,52.966,4.345,52.966,4.345Z" transform="translate(-46.713 -102.579)" fill="#fff"/>
          <path id="Path_14292" data-name="Path 14292" d="M110.527,246.824a144.328,144.328,0,0,1-31.866-3.21c-22.235-5.128-31.826-31.552-31.318-53.984A69.409,69.409,0,0,1,54.508,159.6a51.547,51.547,0,0,1,5.089-8.143c.626-.822,1.253-1.605,1.957-2.388l.235-.235c19.456-23.136,27.285-29.83,43.14-42.748,3.21-2.623,6.694-3.484,10.022-2.584,4.58,1.253,8.691,5.872,11.039,12.292a50.44,50.44,0,0,0,2.584,5.559c2.545,4.933,5.441,10.531,4.032,18.556a50.172,50.172,0,0,1-16.833,28.969c-3.562,3.093-7.046,6.224-10.061,9.121l-.352.313c-.313.274-.626.587-.94.861-9,8.651-9.278,30.456-9.278,30.691,0,3.562,4.737,8.573,9.748,10.335,16.442,5.833,52.3,4.306,52.653,4.306h1.292l-6.694,17.225-.391.117s-3.014.822-7.869,1.879a173.756,173.756,0,0,1-33.392,3.014Zm1.8-141.947a10.211,10.211,0,0,0-6.342,2.545c-15.776,12.84-23.527,19.5-42.827,42.435l-.352.391c-.626.744-1.214,1.527-1.84,2.31a46.408,46.408,0,0,0-4.893,7.869,67.233,67.233,0,0,0-7.007,29.243c-.509,22.47,9.63,47.642,29.987,52.3,22.862,5.285,51.126,3.014,64.514.2,3.8-.822,6.42-1.488,7.36-1.762l5.441-14.054c-6.733.235-36.876.94-52.026-4.463-5.794-2.036-10.883-7.634-10.883-11.94,0-.235.274-22.744,9.787-31.9.313-.313.626-.587.979-.9l.352-.313c3.014-2.858,6.538-6.029,10.1-9.16,8.691-7.595,14.484-17.538,16.285-27.99,1.331-7.477-1.331-12.566-3.836-17.5a47.186,47.186,0,0,1-2.662-5.755c-2.192-5.95-5.872-10.139-9.9-11.235a8.238,8.238,0,0,0-2.192-.313Z" transform="translate(-47.325 -103.162)"/>
        </g>
        <path id="Path_14293" data-name="Path 14293" d="M98.058,186.708c3.523-3.406,25.8-25.211,29.243-46.937,1.566-9.865-1.488-33.705-13.819-36.563-19.691-4.541-46,24.036-64.162,45.606,8.338,18.791,26.62,31.944,48.7,37.894Z" transform="translate(-27.796 -52.462)" fill="#f40"/>
        <path id="Path_14294" data-name="Path 14294" d="M96.463,132.6,52.54,132.21l41.026,14.641Z" transform="translate(-18.411 33.471)"/>
        <g id="Group_8180" data-name="Group 8180" transform="translate(33.62 165.642)">
          <path id="Path_14295" data-name="Path 14295" d="M52.59,135.219l.352-2.779,39.812,14.171-.274,3.915Z" transform="translate(-51.885 -131.5)" fill="#fff"/>
          <path id="Path_14296" data-name="Path 14296" d="M54.015,134l38.56,13.78-.157,2.505-38.6-14.8.2-1.488h0Zm-1.1-1.8-.509,4.15,41.222,15.776.352-5.285L52.958,132.2h0Z" transform="translate(-52.41 -132.2)"/>
        </g>
        <path id="Path_14297" data-name="Path 14297" d="M154.181,136.772l-90.9-.822-.352,5.285,90.9.235Z" transform="translate(11.873 44.372)"/>
        <g id="Group_8181" data-name="Group 8181" transform="translate(75.194 128.766)">
          <path id="Path_14298" data-name="Path 14298" d="M63.259,173.175,73.477,125.3a2.939,2.939,0,0,1,2.9-2.349l83.579.744a2.818,2.818,0,0,1,2.231,1.1,2.878,2.878,0,0,1,.587,2.427L152.749,174l-89.529-.822Z" transform="translate(-62.476 -122.285)" fill="#fff"/>
          <path id="Path_14299" data-name="Path 14299" d="M76.927,122.78v1.331l83.579.744a2.264,2.264,0,0,1,1.762.861,2.337,2.337,0,0,1,.47,1.879l-9.9,46.272-88.2-.783L74.7,125.951a2.334,2.334,0,0,1,2.231-1.84V122.78Zm0,0a3.6,3.6,0,0,0-3.523,2.9L63.03,174.336l90.9.822,10.1-47.329a3.608,3.608,0,0,0-3.484-4.306l-83.579-.744h0Z" transform="translate(-63.03 -122.78)"/>
        </g>
        <g id="Group_8182" data-name="Group 8182" transform="translate(113.29 176.343)">
          <path id="Path_14300" data-name="Path 14300" d="M92.11,147.9a1.244,1.244,0,0,1-.313-.509,3.517,3.517,0,0,1-2.388,1.37c-1.214,0-1.918-1.018-2.427-1.762a.193.193,0,0,0-.039-.117c-1.214,1.683-2.9,3.053-4.854,2.662-1.879-.391-2.271-1.879-2.114-3.562a11.668,11.668,0,0,1-1.605,1.527c-2.271,1.722-4.58-.274-5.324-2.192a.781.781,0,0,1,.157-.783v-.2a23.463,23.463,0,0,1,2.231-5.207c.7-1.135,1.566-2.9,2.9-3.641,2.388-1.292,3.445,1.331,3.836,3.132.665-1.8,1.8-3.367,4.228-2.427a4.108,4.108,0,0,1,2.779,3.132,6.373,6.373,0,0,1,1.918-2.036c2.075-1.253,3.523.94,3.876,2.427a6.4,6.4,0,0,1,.078,2.114,2.4,2.4,0,0,1,.47-.2c1.488-.274,2.466,1.488,2.662,2.505.548,3.014-3.053,5.4-6.146,3.719Z" transform="translate(-72.073 -134.327)" fill="#fff"/>
          <path id="Path_14301" data-name="Path 14301" d="M83.442,151.087a3.358,3.358,0,0,1-.861-.078,3.2,3.2,0,0,1-2.7-2.466c-.117.078-.235.2-.352.274a3.589,3.589,0,0,1-3.327.665,5.369,5.369,0,0,1-3.327-3.249,1.623,1.623,0,0,1,.117-1.409v-.078a22.838,22.838,0,0,1,2.349-5.441l.274-.431a8.777,8.777,0,0,1,2.975-3.484,2.887,2.887,0,0,1,2.662-.235,3.621,3.621,0,0,1,1.762,1.957,3.511,3.511,0,0,1,1.331-1.1,4,4,0,0,1,3.014,0,5.346,5.346,0,0,1,2.74,2.192,5.96,5.96,0,0,1,1.253-1.018,2.772,2.772,0,0,1,2.7-.274,4.914,4.914,0,0,1,2.466,3.249,6.451,6.451,0,0,1,.157,1.253c1.683.078,2.819,1.879,3.053,3.21a4.4,4.4,0,0,1-1.8,4.345,5.182,5.182,0,0,1-5.559.313,3.752,3.752,0,0,1-2.31.979,3.023,3.023,0,0,1-2.545-1.331,5.512,5.512,0,0,1-4.11,2.153Zm-1.683-7.125-.274,2.7c-.2,2.075.626,2.505,1.409,2.662,1.644.313,3.093-1.1,3.993-2.349l.861-1.174.626,1.331c.548.822,1.018,1.37,1.683,1.37h0a2.859,2.859,0,0,0,1.8-1.1l1.174-1.214.313,1.605a3.484,3.484,0,0,0,3.641-.235,2.618,2.618,0,0,0,1.135-2.623c-.117-.587-.822-1.957-1.644-1.8-.078,0-.117.039-.2.078l-1.527.9.274-1.762a4.591,4.591,0,0,0-.039-1.8,3.141,3.141,0,0,0-1.448-2.075,1.154,1.154,0,0,0-1.135.157,4.808,4.808,0,0,0-1.644,1.762l-1.1,1.8-.431-2.075a3.34,3.34,0,0,0-2.271-2.505,2.222,2.222,0,0,0-1.722-.078,3.2,3.2,0,0,0-1.448,2l-1.018,2.74-.626-2.858c-.313-1.448-.861-2.466-1.448-2.74-.117-.039-.431-.2-1.135.157a7.048,7.048,0,0,0-2.31,2.858l-.274.47a22.238,22.238,0,0,0-2.153,5.011v.352l-.235.235a4.31,4.31,0,0,0,2.231,2.075,2.036,2.036,0,0,0,1.84-.391,9.973,9.973,0,0,0,1.488-1.409l1.762-2.075Z" transform="translate(-72.762 -134.934)"/>
        </g>
        <path id="Path_14302" data-name="Path 14302" d="M48.434,224.83S39.939,237,46.007,246.557c0,0,44.314,2.075,57.663,0,0,0,.352-16.324-11.118-17.734-11.47-1.37-26.189-2-26.189-2s-9.63,7.046-17.968-2Z" transform="translate(-43.822 303.43)"/>
        <path id="Path_14303" data-name="Path 14303" d="M128.714,105.307c-2.74-.235-8.26,3.836-10.609,5.637-4.854,3.719-9.317,8.886-11,14.837-.431-.274-.861-.548-1.292-.783a12.289,12.289,0,0,1,1.174-2.505c1.135-2-1.527-4.424-3.21-2.623-1.605,1.762-2.936,3.6-2.623,6.107.039.431,3.719,15.463,5.246,17.381.744.979,4.306-3.406,5.128-4.032h0a7.875,7.875,0,0,0,5.011.9c2.819-.47,4.11-1.331,7.281-4.384,4.893-4.189,2.819-8.847,1.448-7.869,2.31-2.819,1.292-6.3-.431-5.872,1.448-2.779-1.331-8.143-4.933-4.932,1.448-2.466,6.3-6.3,9.043-7.751,2.388-1.253,2.153-3.915-.2-4.11Z" transform="translate(123.15 -44.971)" fill="#fff"/>
        <path id="Path_14304" data-name="Path 14304" d="M107.33,144.971h-.078a1.212,1.212,0,0,1-.9-.47c-1.762-2.231-5.4-17.655-5.4-17.812-.352-2.9,1.135-4.972,2.819-6.772a2.67,2.67,0,0,1,3.641-.352,3.114,3.114,0,0,1,1.292,2.192,34.629,34.629,0,0,1,9.513-10.883c5.363-4.11,9-5.989,11.2-5.794h0a2.783,2.783,0,0,1,2.623,2.114,3.518,3.518,0,0,1-2.075,3.641A32.957,32.957,0,0,0,123.145,116a3.405,3.405,0,0,1,1.644.7,5.707,5.707,0,0,1,1.84,5.324,2.255,2.255,0,0,1,.9.822,5.329,5.329,0,0,1-.2,5.128,3.525,3.525,0,0,1,.352.391c1.253,1.605,1.214,5.4-2.662,8.73-3.21,3.093-4.619,4.071-7.712,4.58a8.681,8.681,0,0,1-5.011-.744c-.2.2-.431.431-.665.7-2.153,2.271-3.327,3.288-4.306,3.288ZM105.725,120.7a.88.88,0,0,0-.7.352c-1.605,1.762-2.662,3.327-2.388,5.4.2.979,3.445,14.054,4.893,16.677a22.628,22.628,0,0,0,2.9-2.662c.548-.548.979-1.018,1.214-1.214l.431-.352.47.274a7.154,7.154,0,0,0,4.5.822c2.545-.431,3.641-1.1,6.812-4.15,2.9-2.505,2.9-4.815,2.779-5.481-.078-.7-.352-1.057-.47-1.1l-4.854,3.288,3.876-4.541a4.045,4.045,0,0,0,.861-4.267c-.2-.313-.313-.274-.391-.235l-1.879.509.9-1.723a3.888,3.888,0,0,0-.979-4.306c-.783-.587-1.644-.47-2.623.391l-4.032,3.562,2.74-4.658c1.605-2.7,6.694-6.655,9.356-8.064.979-.509,1.331-1.253,1.214-1.762-.078-.431-.47-.7-1.1-.744h0c-.979-.078-3.562.509-10.022,5.441-3.132,2.427-8.73,7.477-10.687,14.367l-.313,1.135-.979-.665a7.532,7.532,0,0,0-1.214-.7l-.626-.313.2-.666a15.9,15.9,0,0,1,1.214-2.7,1.322,1.322,0,0,0-.47-1.722,1.13,1.13,0,0,0-.665-.235Z" transform="translate(122.534 -45.644)"/>
        <path id="Path_14305" data-name="Path 14305" d="M103.074,119.66s.979,1.37-.861,6.772,13.741,6.264,13.975,2.427c.2-3.836.509-8.456.509-8.456a3.543,3.543,0,0,1,1.566-3.641c2.153-1.722,0-5.637-5.128-4.189s-10.022,7.125-10.022,7.125Z" transform="translate(125.929 -24.679)" fill="#fff"/>
      </g>
      <g id="Group_8191" data-name="Group 8191" transform="translate(559.932 41.157)">
        <path id="Path_14306" data-name="Path 14306" d="M254.033,115.006c-19.652,8.1-52.613,35.663-55.98,74.34s7.751,64.514,7.751,74.3c8.495,3.367,30.574-1.409,38.638-9.826,0,0,1.37-61.852,10.961-77.041,24.623-38.99,12.8-70.073-1.37-61.813Z" transform="translate(-156.069 -34.986)" fill="#f40"/>
        <path id="Path_14307" data-name="Path 14307" d="M242.812,114.94c-19.1,14.132-28.421,29.243-33.9,48.777s-16.872,82.13,3.445,94.579c35.271,21.609,62.322-40.36,62.322-40.36L242.812,114.979Z" transform="translate(-146.374 -31.161)"/>
        <path id="Path_14308" data-name="Path 14308" d="M211,222.585c1.683-2.075,19.769-.352,19.926.744.548,3.328,1.409,16.089-.313,17.773-1.683,1.644-17.3,5.207-17.655,1.957-.313-2.779-3.6-18.477-2-20.474Z" transform="translate(-117.886 279.753)" fill="#fff"/>
        <path id="Path_14309" data-name="Path 14309" d="M214.28,245.406a2.1,2.1,0,0,1-1.527-1.644c-.078-.626-.313-1.918-.587-3.6-1.762-10.139-2.466-15.933-1.214-17.46h0c1.918-2.388,16.4-.9,19.73,0,.783.2,1.527.47,1.644,1.135.352,2.192,1.683,16.285-.548,18.477-1.409,1.37-9.787,3.484-14.758,3.484a8.524,8.524,0,0,1-2.7-.352Zm-2.075-21.727c-1.018,1.292.861,12.1,1.566,16.207.274,1.683.509,3.053.587,3.68,0,.118.235.235.47.313,3.249,1.174,14.641-1.605,15.815-2.779,1.214-1.174.861-12.1.117-16.755-2.427-1.1-17.264-2.075-18.556-.666Z" transform="translate(-118.469 279.167)"/>
        <path id="Path_14310" data-name="Path 14310" d="M256.408,225.59s8.377,11.94,2.388,21.335c0,0-43.531,2.036-56.685,0,0,0-.352-16.05,10.922-17.42a205.611,205.611,0,0,1,23.958-1.174S248.226,234.476,256.408,225.59Z" transform="translate(-142.393 291.349)"/>
        <path id="Path_14311" data-name="Path 14311" d="M235.7,222.585c1.683-2.075,19.769-.352,19.926.744.548,3.328,1.409,16.089-.313,17.773-1.683,1.644-17.3,5.207-17.655,1.957-.313-2.779-3.6-18.477-2-20.474Z" transform="translate(-45.893 279.753)" fill="#fff"/>
        <path id="Path_14312" data-name="Path 14312" d="M238.98,245.406a2.1,2.1,0,0,1-1.527-1.644c-.078-.626-.313-1.918-.587-3.6-1.762-10.139-2.466-15.933-1.214-17.46h0c1.918-2.388,16.4-.9,19.73,0,.783.2,1.527.47,1.644,1.135.352,2.192,1.683,16.285-.548,18.477-1.409,1.37-9.787,3.484-14.758,3.484a8.524,8.524,0,0,1-2.7-.352Zm-2.075-21.727c-1.018,1.292.861,12.1,1.566,16.207.274,1.683.509,3.053.587,3.68,0,.118.235.235.47.313,3.249,1.174,14.641-1.605,15.815-2.779,1.214-1.174.861-12.1.117-16.755-2.427-1.1-17.264-2.075-18.556-.666Z" transform="translate(-46.476 279.167)"/>
        <path id="Path_14313" data-name="Path 14313" d="M281.108,225.59s8.377,11.94,2.388,21.335c0,0-43.531,2.036-56.685,0,0,0-.352-16.05,10.922-17.42a205.611,205.611,0,0,1,23.958-1.174S272.926,234.476,281.108,225.59Z" transform="translate(-70.4 291.349)"/>
        <path id="Path_14314" data-name="Path 14314" d="M260.688,289.857c-2.036,25.6-.157,77.276,1.879,102.878.117,1.723.117,61.226.117,61.226l-24.075,2.31c-13.114-39.108-38.129-126.8-38.129-165.748s3.367-103.818,17.655-134.587c13.584-29.282,67.254,11.157,73.6,18.321,2.9,3.327-2.584,32.962-10.217,52.574C272.667,249.575,261.784,276.078,260.688,289.857Z" transform="translate(-147.143 57.693)"/>
        <path id="Path_14315" data-name="Path 14315" d="M242.01,361.32c-1.409-25.641-5.637-77.08-3.6-102.682,1.1-13.78,17.812-53.475,26.659-76.219-2.349-7.007.587-22.079-5.207-25.954-4.776-3.21-23.527,18.008-25.641,24.271-1.683,4.972,1.409,11.235,1.762,16.207a46.466,46.466,0,0,1-5.989,25.994c-6.655,11.744-14.8,21.022-18.516,34.332-7.2,25.915-1.448,52.927,4.619,78.411,3.836,16.05,7.947,32.257,8.925,48.816.548,9.513,1.879,30.339.509,39.695l14.837-1.409s2.975-35.859,1.566-61.382Z" transform="translate(-124.864 88.913)"/>
        <path id="Path_14316" data-name="Path 14316" d="M302.019,452.861l-21.374,2.31c-11.157-36.876-40.948-99.9-45.371-138.58-6.812-60.091-15.032-124.409-15.385-140.224-.039-2.545-.078-3.876-.078-3.876,14.719-17.929,39.656-25.211,50.774-26.542,4.384-.548,7.595.313,8.965,2.623a168.42,168.42,0,0,1,10.765,21.061c17.929,42.553,2.819,68.233,3.171,123.548,0,3.21.039,6.459.117,9.708.587,22.862-5.6,51.048.979,74.927,12.879,46.859,7.438,75.045,7.438,75.045Z" transform="translate(-90.802 58.755)"/>
        <path id="Path_14317" data-name="Path 14317" d="M355.551,281.39c-11.157,2-21.687,3.445-31.67,4.463-1.448.157-2.9.352-4.306.431a371.848,371.848,0,0,1-40.2,1.722c-1.527,0-3.014-.039-4.463-.078-20.67-.548-73.518-34.41-73.518-34.41,1.057-8.3,5.011-36.955,7.086-49.521.274-1.488.509-2.975.744-4.384,3.171-18.36,6.655-33.745,11.235-46.193.509-1.37,1.018-2.74,1.605-4.071,10.022-24.428,25.054-36.642,51.674-37.738,17.929-.783,32.022,5.363,42.983,15.737.861.783,1.723,1.644,2.544,2.505,8.847,9.239,15.62,21.335,20.748,34.684.47,1.292.979,2.623,1.409,3.954,5.559,15.541,9,32.453,11.118,48.386.156,1.37.352,2.74.548,4.071,1.37,11.822,2.114,22.979,2.466,32.375.078,1.488.117,2.975.157,4.384.391,14.328-.117,23.723-.117,23.723Z" transform="translate(-144.491 -41.063)" fill="#f40"/>
        <path id="Path_14318" data-name="Path 14318" d="M216.8,128.222s6.459,11.509,26.111-.509c0,0-3.993-10.491-.861-21.413l-20,4.893S223.964,118.67,216.8,128.222Z" transform="translate(-99.575 -56.344)" fill="#fff"/>
        <path id="Path_14319" data-name="Path 14319" d="M223.871,134.362a11.484,11.484,0,0,1-7.046-4.893l-.274-.47.313-.431c6.851-9.082,5.128-16.285,5.128-16.363l-.2-.783,22.118-5.4-.391,1.331c-3.014,10.531.783,20.826.861,20.9l.235.626-.587.352c-6.107,3.719-11.509,5.6-16.207,5.6a14.6,14.6,0,0,1-3.954-.509Zm17.773-26.111-17.968,4.384c.313,2.192.509,8.612-5.207,16.442a10.314,10.314,0,0,0,5.794,3.719c4.933,1.292,11.118-.235,18.4-4.58A38.35,38.35,0,0,1,241.643,108.251Z" transform="translate(-100.304 -57.16)"/>
        <path id="Path_14320" data-name="Path 14320" d="M240.144,96.534c10.217,2.271,15.933,15.659,12.762,29.947s-13.975,24.075-24.193,21.8-15.894-15.659-12.762-29.947C219.122,104.05,229.926,94.263,240.144,96.534Z" transform="translate(-104.559 -85.764)" fill="#fff"/>
        <path id="Path_14321" data-name="Path 14321" d="M229.133,149.694c-10.609-2.349-16.6-16.207-13.388-30.926,3.249-14.719,14.524-24.741,25.132-22.431h0c5.207,1.135,9.434,5.011,11.94,10.922a33.216,33.216,0,0,1,1.409,19.965c-2.936,13.271-12.41,22.744-22.04,22.744a13.625,13.625,0,0,1-3.093-.352Zm11.431-51.752c-9.748-2.153-20.161,7.36-23.214,21.179-3.053,13.858,2.388,26.855,12.136,29.008s20.161-7.36,23.214-21.179a31.688,31.688,0,0,0-1.331-19.025c-2.31-5.4-6.146-8.965-10.8-9.982h0Z" transform="translate(-105.175 -86.35)"/>
        <path id="Path_14322" data-name="Path 14322" d="M223.5,101.67s-6.89,8.612-9.082,13.623a1.366,1.366,0,0,0,.861,1.879c2.427.7,7.36,2.036,9.474,1.918,2.858-.2-1.253-17.42-1.253-17.42Z" transform="translate(-106.867 -69.839)" fill="#fff"/>
        <path id="Path_14323" data-name="Path 14323" d="M215.663,119.286a2.157,2.157,0,0,1-1.37-2.975c2.231-5.05,8.926-13.467,9.2-13.819l1.018-1.292.391,1.605c.587,2.505,3.484,15.228,1.644,17.734a1.363,1.363,0,0,1-1.135.626h-.392c-2.192,0-6.263-1.057-9.356-1.957Zm.078-2.31a.9.9,0,0,0,0,.47.556.556,0,0,0,.352.313c4.424,1.292,7.751,2,9.082,1.918.822-.783.157-7.36-1.527-14.8-2,2.584-6.3,8.417-7.947,12.136Z" transform="translate(-107.482 -71.209)"/>
        <path id="Path_14324" data-name="Path 14324" d="M256.524,123.726s-4.58.117-6.224-5.128-8.495-4.854-13.427-2.271c-4.933,2.623-12.958,3.6-18.516.431-4.228-2.427-9.317-11.039-1.409-16.951,7.164-5.363,25.6-7.046,31.357-5.95,10.452,1.957,22.823,15.7,20.67,28.421-1.527,8.965-6.577,23.253-13.9,23.058,1.879-9.434,4.384-15.58,1.409-21.57Z" transform="translate(-111.231 -93.539)"/>
        <path id="Path_14325" data-name="Path 14325" d="M225,104.22s3.915-4.228,6.89-.861-1.605,14.093-6.694,10.531-.2-9.708-.2-9.708Z" transform="translate(-81.857 -68.71)" fill="#fff"/>
        <path id="Path_14326" data-name="Path 14326" d="M225.323,115.2a5.753,5.753,0,0,1-2.584-3.993c-.509-3.406,2.114-6.733,2.231-6.89h0s2.271-2.466,4.815-2.466h.039a4.235,4.235,0,0,1,3.21,1.566c2.192,2.505.979,7.869-1.527,10.687a5.065,5.065,0,0,1-3.719,1.879,4.329,4.329,0,0,1-2.545-.861Zm.9-9.826c-.235.274-2.271,3.014-1.879,5.6a4.084,4.084,0,0,0,1.918,2.9c1.722,1.214,3.21.235,4.11-.783,2.153-2.427,2.975-6.89,1.527-8.534a2.59,2.59,0,0,0-2.036-1.018h0a5.887,5.887,0,0,0-3.6,1.879Z" transform="translate(-82.457 -69.314)"/>
        <path id="Path_14327" data-name="Path 14327" d="M246.875,128.4c1.84-3.053,2.153-4.933,2.31-8.73a44.331,44.331,0,0,1-1.644-18.282c.2-1.722-2.505-.7-2.505-.7s-10.3,33.666-29.556,21.1c0,0-1.057,9.278,1.527,12.41,6.3,7.712,20.4,4.658,24.7,1.253a27.907,27.907,0,0,0,5.167-7.007Z" transform="translate(-104.049 -73.588)"/>
        <path id="Path_14328" data-name="Path 14328" d="M216.16,105.582s3.288,15.032,3.053,17.616c0,0,6.89-1.644,6.146-11.118s-4.463-12.566-6.772-11.118c-2.31,1.409-2.388,4.619-2.388,4.619Z" transform="translate(-101.441 -72.89)" fill="#fff"/>
        <g id="Group_8189" data-name="Group 8189" transform="translate(0 74.697)">
          <g id="Group_8184" data-name="Group 8184" transform="translate(2.878)">
            <path id="Path_14329" data-name="Path 14329" d="M190.408,112.62c-2,0-3.21,1.644-2.7,3.758l12.41,50.93a5.023,5.023,0,0,0,4.541,3.758h35.428c2,0,3.21-1.683,2.7-3.758l-12.41-50.93a4.975,4.975,0,0,0-4.541-3.758H190.408" transform="translate(-187.59 -112.62)"/>
          </g>
          <g id="Group_8188" data-name="Group 8188" transform="translate(0 1.057)">
            <g id="Group_8187" data-name="Group 8187">
              <g id="Group_8185" data-name="Group 8185">
                <path id="Path_14330" data-name="Path 14330" d="M214.815,142.754a7.556,7.556,0,0,1-6.851-5.676c-.744-3.132,1.057-5.676,4.11-5.676a7.6,7.6,0,0,1,6.89,5.676c.783,3.132-1.1,5.676-4.11,5.676M189.918,113.12c-2,0-3.21,1.644-2.7,3.758l12.41,50.93a5.023,5.023,0,0,0,4.541,3.758H239.6c2,0,3.21-1.683,2.7-3.758l-12.41-50.93a4.975,4.975,0,0,0-4.541-3.758H189.918" transform="translate(-186.141 -112.22)" fill="#fff"/>
                <path id="Path_14331" data-name="Path 14331" d="M199.4,168.713l-12.41-50.93a4.181,4.181,0,0,1,.626-3.523,3.7,3.7,0,0,1,2.936-1.37h35.428a5.937,5.937,0,0,1,5.441,4.463l12.41,50.93a4.085,4.085,0,0,1-.666,3.523,3.7,3.7,0,0,1-2.936,1.37H204.8a5.937,5.937,0,0,1-5.441-4.463Zm-8.847-54.023a1.82,1.82,0,0,0-1.527.665,2.3,2.3,0,0,0-.313,2l12.41,50.93a4.148,4.148,0,0,0,3.68,3.093h35.428a1.872,1.872,0,0,0,1.527-.665,2.3,2.3,0,0,0,.313-2l-12.41-50.93a4.148,4.148,0,0,0-3.68-3.093Zm17.185,23.292a5.778,5.778,0,0,1,.9-4.932,5,5,0,0,1,4.071-1.879,8.47,8.47,0,0,1,7.751,6.381,5.693,5.693,0,0,1-.9,4.893,5,5,0,0,1-4.071,1.879A8.432,8.432,0,0,1,207.739,137.983Zm2.31-3.8a3.99,3.99,0,0,0-.548,3.406,6.64,6.64,0,0,0,5.989,4.972,3.207,3.207,0,0,0,2.662-1.214,3.9,3.9,0,0,0,.548-3.367,6.632,6.632,0,0,0-5.99-5.011A3.207,3.207,0,0,0,210.049,134.186Z" transform="translate(-186.855 -112.89)"/>
              </g>
              <g id="Group_8186" data-name="Group 8186" transform="translate(20.735 18.282)">
                <path id="Path_14332" data-name="Path 14332" d="M196.626,117.79a7.641,7.641,0,0,1,6.89,5.676c.783,3.132-1.1,5.676-4.11,5.676a7.556,7.556,0,0,1-6.851-5.676c-.744-3.132,1.057-5.676,4.11-5.676" transform="translate(-191.466 -116.89)" fill="#f40"/>
                <path id="Path_14333" data-name="Path 14333" d="M192.34,124.372a5.779,5.779,0,0,1,.9-4.933,5,5,0,0,1,4.071-1.879,8.47,8.47,0,0,1,7.751,6.381,5.693,5.693,0,0,1-.9,4.893,5,5,0,0,1-4.071,1.879,8.432,8.432,0,0,1-7.751-6.342Zm2.31-3.8a3.991,3.991,0,0,0-.548,3.406,6.64,6.64,0,0,0,5.989,4.972,3.207,3.207,0,0,0,2.662-1.214,3.9,3.9,0,0,0,.548-3.367,6.632,6.632,0,0,0-5.989-5.011A3.207,3.207,0,0,0,194.65,120.574Z" transform="translate(-192.152 -117.56)"/>
              </g>
            </g>
          </g>
        </g>
        <g id="Group_8190" data-name="Group 8190" transform="translate(18.408 102.839)">
          <path id="Path_14334" data-name="Path 14334" d="M242.647,149.725c-3.288-3.406-5.95-13.623-9.865-20-.861-1.37-1.84-2.623-2.819-3.915-.9-1.174-1.8-2.349-2.74-3.523a6.057,6.057,0,0,0-2.271-2.075,2.047,2.047,0,0,0-2.662.861,3.17,3.17,0,0,0-.078,1.488c.352,2.779.7,5.559,1.018,8.338a1.316,1.316,0,0,1-.2,1.1,1.384,1.384,0,0,1-1.253.235c-8.691-1.135-16.951-4.345-25.211-7.242-1.409-.509-3.171-.9-4.189.2a2.653,2.653,0,0,0-.157,2.975,8.065,8.065,0,0,0,2.192,2.27c2.231,1.762,4.5,3.523,6.733,5.324a1.265,1.265,0,0,1,.47.548c.2.7-.822,1.057-1.527,1.1a27.482,27.482,0,0,0-5.911,1.018c-1.057.313-2.31.939-2.388,2.036-.117,1.292,1.37,2.075,2.153,3.093,1.135,1.448,1.057,3.641,2.505,4.776.979.744,2.349.744,3.523,1.135,1.566.509,2.74,1.722,4.11,2.584,6.968,4.463,13.662,2.975,20.4,7.751,1.762,1.253,3.21,3.093,5.285,3.719a7.647,7.647,0,0,0,3.876,0c2.114-.431,7.673-3.915,9.2-5.441a5.812,5.812,0,0,0-.157-8.456Z" transform="translate(-190.885 -119.146)" fill="#fff"/>
          <path id="Path_14335" data-name="Path 14335" d="M230.166,165.107a10.6,10.6,0,0,1-3.915-2.544,16.568,16.568,0,0,0-1.605-1.292c-3.327-2.349-6.616-3.132-10.1-3.915-3.328-.783-6.772-1.566-10.256-3.8-.47-.313-.9-.626-1.331-.94a10.6,10.6,0,0,0-2.584-1.566,9.622,9.622,0,0,0-1.135-.274,5.673,5.673,0,0,1-2.623-.979,6.185,6.185,0,0,1-1.8-3.014,6.638,6.638,0,0,0-.861-1.918,7.392,7.392,0,0,0-.783-.783c-.744-.7-1.722-1.605-1.605-2.936.078-.9.665-2.114,3.053-2.819a26.975,26.975,0,0,1,6.107-1.057,1.251,1.251,0,0,0,.548-.117l-6.694-5.285a8.406,8.406,0,0,1-2.427-2.545,3.512,3.512,0,0,1,.313-4.032c1.566-1.683,4.267-.744,5.167-.431l2.779.979c7.2,2.584,14.6,5.246,22.235,6.224.274,0,.431,0,.431.039v-.431l-1.018-8.338a3.792,3.792,0,0,1,.117-1.957,2.5,2.5,0,0,1,1.722-1.448,3.244,3.244,0,0,1,2.114.117,7.131,7.131,0,0,1,2.662,2.349l2.74,3.523a38.411,38.411,0,0,1,2.858,3.993,72.129,72.129,0,0,1,4.815,10.178c1.683,4.071,3.288,7.908,4.972,9.669a6.649,6.649,0,0,1,.157,9.708c-1.644,1.605-7.32,5.167-9.669,5.676a11.393,11.393,0,0,1-2.231.235,6.985,6.985,0,0,1-2.075-.313Zm-5.833-43.414s-.431.157-.548.391a1.9,1.9,0,0,0,0,1.057l1.018,8.338a2.3,2.3,0,0,1-.391,1.84,2.332,2.332,0,0,1-2.036.548c-7.79-1.018-15.346-3.719-22.627-6.3l-2.779-.979c-1.683-.587-2.74-.587-3.249-.039a1.775,1.775,0,0,0,0,1.957,7.289,7.289,0,0,0,1.957,2l6.733,5.285a1.843,1.843,0,0,1,.783,1.018,1.522,1.522,0,0,1-.2,1.292,2.856,2.856,0,0,1-2.153.979,25.351,25.351,0,0,0-5.676.979c-.509.157-1.722.587-1.762,1.253,0,.431.352.861,1.057,1.488a7.367,7.367,0,0,1,.94.979,7.727,7.727,0,0,1,1.174,2.427,4.5,4.5,0,0,0,1.174,2.192,5.07,5.07,0,0,0,1.879.665,13.244,13.244,0,0,1,1.331.313,10.523,10.523,0,0,1,3.093,1.8c.392.313.822.587,1.214.861a28.144,28.144,0,0,0,9.708,3.562c3.484.822,7.125,1.644,10.726,4.189.587.431,1.174.94,1.762,1.409a9.021,9.021,0,0,0,3.288,2.153,6.636,6.636,0,0,0,3.406,0c1.84-.391,7.242-3.68,8.769-5.167,1.292-1.253,2.7-4.228-.2-7.2-1.918-2-3.562-5.989-5.324-10.217a73.234,73.234,0,0,0-4.7-9.943c-.822-1.331-1.8-2.584-2.74-3.836l-2.74-3.523a5.477,5.477,0,0,0-1.918-1.8,1.25,1.25,0,0,0-.548-.117,1.332,1.332,0,0,0-.392.039Z" transform="translate(-191.558 -119.809)"/>
        </g>
        <path id="Path_14336" data-name="Path 14336" d="M263.946,119.438c-7.673,3.6-14.641,9.317-17.968,17.107-2.075,4.854-2.662,10.217-4.228,15.267s-3.915,10.061-7.947,13.467c-4.893,4.11-15.267,5.794-22.2,6.733a3.627,3.627,0,0,0-2,.7A3.97,3.97,0,0,0,208.4,175.5c-.626,5.755,2.7,3.249,7.281,6.812s10.3,5.285,15.933,6.577c9.826,2.271,20.161,3.367,29.908.94a58.5,58.5,0,0,0,14.8-6.224c4.893-2.819,9.591-6.185,13.075-10.609,6.5-8.221,8.26-19.182,8.808-29.673.274-5.4.157-11.313-3.367-15.385,0,0-7.281-19.574-30.887-8.495Z" transform="translate(-124.29 -27.948)"/>
        <path id="Path_14337" data-name="Path 14337" d="M320.963,132.767c6.929,13,11.822,48.464-1.018,68.742-9.513,15.072-23.958,30.5-41.691,32.179-26.776,2.545-56.88-13.741-66.276-22.392-2.779-2.545-7.32-5.95-9.708-8.847,1.214-8.534,3.836-34.919,11.2-41.848,4.933,7.32,14.132,14.6,22.47,17.46s18.556,1.253,24.428-5.324c6.5-7.281,6.264-18.125,9-27.481,3.014-10.374,10.531-19.808,20.787-23.175S314.074,119.81,321,132.767Z" transform="translate(-141.926 -15.087)"/>
        <path id="Path_14338" data-name="Path 14338" d="M328.833,127.727c6.929,13,11.822,48.464-1.018,68.742-9.513,15.072-23.958,30.5-41.691,32.179-26.777,2.545-56.88-13.741-66.276-22.392S202.7,186.722,199.57,174.312a128.157,128.157,0,0,0,24.271-17.968c4.932,7.32,11.588,13.819,19.965,16.677,8.377,2.819,18.556,1.253,24.428-5.324,6.5-7.281,6.264-18.125,9-27.481,3.014-10.374,10.531-19.808,20.787-23.175s23.919-2.271,30.848,10.687Z" transform="translate(-149.796 -29.777)" fill="#f40"/>
      </g>
    </g>
  </g>
</svg>
