<svg id="Group_10465" data-name="Group 10465" xmlns="http://www.w3.org/2000/svg" xmlns:xlink="http://www.w3.org/1999/xlink" width="789" height="657.567" viewBox="0 0 789 657.567">
  <defs>
    <clipPath id="clip-path">
      <rect id="Rectangle_8845" data-name="Rectangle 8845" width="789" height="657.567" fill="none"/>
    </clipPath>
    <clipPath id="clip-path-3">
      <rect id="Rectangle_8827" data-name="Rectangle 8827" width="17.116" height="39.449" fill="none"/>
    </clipPath>
    <clipPath id="clip-path-5">
      <path id="Path_18877" data-name="Path 18877" d="M.25,90.2C.25,121.571,52.7,147,117.413,147s117.164-25.429,117.164-56.8Z" transform="translate(-0.25 -90.201)" fill="none"/>
    </clipPath>
    <linearGradient id="linear-gradient" x1="-0.002" y1="8.527" x2="0.006" y2="8.527" gradientUnits="objectBoundingBox">
      <stop offset="0" stop-color="#f40"/>
      <stop offset="1" stop-color="#ff9200"/>
    </linearGradient>
  </defs>
  <g id="Group_10478" data-name="Group 10478" clip-path="url(#clip-path)">
    <path id="Path_18742" data-name="Path 18742" d="M104.409,288.939l4.736,102.777,3.326-.071-4.737-102.777Z" transform="translate(96.09 265.851)"/>
    <g id="Group_10469" data-name="Group 10469">
      <g id="Group_10468" data-name="Group 10468" clip-path="url(#clip-path)">
        <path id="Path_18743" data-name="Path 18743" d="M67.035,289.438c0-7.049,45.994-7.6,60.091-7.6s60.091.551,60.091,7.6-45.994,7.6-60.091,7.6-60.091-.549-60.091-7.6m60.091-4.277c-30.95,0-51.046,2.329-55.943,4.277,4.9,1.947,24.993,4.277,55.943,4.277s51.048-2.329,55.943-4.277c-4.895-1.947-24.993-4.277-55.943-4.277" transform="translate(61.694 259.38)"/>
        <path id="Path_18744" data-name="Path 18744" d="M184.393,257.92a61.156,61.156,0,1,1-113.514,0Z" transform="translate(61.183 237.369)" fill="#f40"/>
        <path id="Path_18745" data-name="Path 18745" d="M68.772,262.227c0,4.96,25.41,8.987,56.755,8.987s56.759-4.027,56.759-8.987-25.412-8.991-56.759-8.991-56.755,4.023-56.755,8.991" transform="translate(63.292 233.058)"/>
        <path id="Path_18746" data-name="Path 18746" d="M71.68,261.105c0,3.668,22.909,6.646,51.171,6.646s51.173-2.978,51.173-6.646-22.913-6.65-51.173-6.65-51.171,2.978-51.171,6.65" transform="translate(65.969 234.18)" fill="#835f59"/>
        <g id="Group_10467" data-name="Group 10467" transform="translate(137.584 512.477)" opacity="0.42">
          <g id="Group_10466" data-name="Group 10466">
            <g id="Group_10465-2" data-name="Group 10465" clip-path="url(#clip-path-3)">
              <path id="Path_18747" data-name="Path 18747" d="M71.686,270.311c.138-4.578,7.265-4.6,7.126,0-.323,10.877,1.085,21.721,8.935,29.888,3.184,3.307-1.851,8.352-5.039,5.039-9.141-9.506-11.4-22.139-11.023-34.927" transform="translate(-71.646 -266.871)" fill="#fff"/>
            </g>
          </g>
        </g>
        <path id="Path_18748" data-name="Path 18748" d="M127.126,293.669c14.1,0,60.091-.547,60.091-7.6h-3.324a.883.883,0,0,1,.182-.57c-2.011,2.034-22.915,4.847-56.949,4.847s-54.94-2.813-56.951-4.847a.88.88,0,0,1,.184.57H67.035c0,7.053,45.994,7.6,60.091,7.6" transform="translate(61.694 262.749)"/>
        <path id="Path_18749" data-name="Path 18749" d="M140.169,394.06l3.318-.228-12.7-107.58-3.32.225Z" transform="translate(117.311 263.443)"/>
        <path id="Path_18750" data-name="Path 18750" d="M65.69,393.873,76.317,286.708,73,286.466,62.373,393.627Z" transform="translate(57.403 263.64)"/>
        <rect id="Rectangle_8828" data-name="Rectangle 8828" width="102.763" height="3.324" transform="translate(176.723 657.462) rotate(-88.831)"/>
        <path id="Path_18751" data-name="Path 18751" d="M122.375,266.375c-1.054,0-2.112,0-3.165-.029-2.447,0-4.809-.029-7.111-.094-1.052-.027-2.078-.06-3.071-.117-1.571-.033-3.048-.092-4.522-.182-1.114-.033-2.168-.094-3.193-.154-21.629-1.256-28.981-4-29.152-5.133.131-.841,5.458-3.593,27.461-5.068.482-.013,2.592-.134,3.126-.15,1.686-.088,3.384-.179,5.108-.244l3.094-.121c3.3-.09,6.725-.15,10.241-.15h3.22c5.763.029,11.309.182,16.478.453l3.4.182c20.96,1.289,28.16,3.994,28.361,5.1-.188,1.248-8.59,4.206-33.366,5.34l-3.234.121c-4.342.15-8.916.24-13.646.24Z" transform="translate(66.411 234.621)" fill="#fff"/>
        <path id="Path_18752" data-name="Path 18752" d="M124.845,256.289c5.826.033,11.355.182,16.436.455l2.942.157.442.021c17.767,1.095,24.922,3.113,27,4.2-2.644,1.409-12.555,3.53-31.954,4.417-.528.013-1.064.036-1.6.061s-1.1.046-1.661.06c-4.6.161-9.179.24-13.638.24h-.054c-1.025,0-2.057,0-3.136-.029q-3.621,0-7.059-.088c-1.043-.029-2.057-.061-3.115-.123-1.523-.029-2.986-.088-4.513-.182-1.056-.029-2.085-.088-3.13-.15-18.3-1.066-25.648-3.111-27.774-4.213,2.049-1.054,8.972-3.013,26.018-4.154.532-.019,1.073-.048,1.619-.079.511-.033,1.027-.061,1.6-.079,1.655-.09,3.343-.18,5.043-.24.52-.015,1.033-.04,1.548-.061s1.022-.046,1.55-.061c3.714-.1,7.055-.15,10.22-.15Zm0-1.832h-3.218c-3.526,0-6.957.061-10.27.15-1.064.033-2.066.094-3.1.123-1.73.063-3.432.154-5.1.242-1.062.033-2.128.123-3.157.154-16.8,1.125-28.317,3.372-28.317,5.986,0,2.7,12.305,5.014,30.017,6.043,1.033.061,2.1.123,3.19.154,1.488.09,2.977.152,4.528.182,1,.058,2.034.09,3.1.119q3.462.1,7.109.092c1.062.029,2.126.029,3.19.029h.029c4.741,0,9.327-.088,13.675-.24,1.093-.031,2.183-.092,3.247-.121,19.931-.912,34.241-3.343,34.241-6.258,0-2.642-11.941-4.954-29.227-6.016-1.123-.061-2.249-.123-3.4-.182-5.164-.273-10.723-.426-16.526-.455" transform="translate(65.971 234.182)"/>
        <path id="Path_18753" data-name="Path 18753" d="M150.283,271.188a29.623,29.623,0,0,1-5.863-4.835c-2.571-2.6-6.612-6.846-6.56-10.823.04-3.272,3.443-4,5.709-2.074,2.014,1.721,2.877,4.336,4.459,6.377a20.112,20.112,0,0,0,8.3,5.788c4.413-6.277,5.137-14.923,3.654-22.481-1.711-8.728-7.472-21.168-16.088-32.786a45.611,45.611,0,0,1-3.977,8.1c-1.625,2.7-4.23,7.825-7.332,8.922-3.291,1.164-3.96-1.878-3.462-4.353a.863.863,0,0,1,.09-.394l0-.008c.058-.221.121-.44.2-.647a.842.842,0,0,1,.371-.442c1.8-3.48,3.887-6.819,5.461-10.412a55.941,55.941,0,0,0,2.637-8.175c-7.547-8.5-16.626-15.929-26.712-20.213a97.831,97.831,0,0,1,4.768,13.269c1.338,4.307,4.876,13.467,1.594,17.7a3.439,3.439,0,0,1-4.146,1.11c-2.293-1.287-2.014-5.993-2.055-8.1-.094-5.16-.115-9.623-1.8-14.646a48.512,48.512,0,0,0-6.431-11.99,42.831,42.831,0,0,0-19.729-.119,11.371,11.371,0,0,1,3.96,6.521c.382,2.381-1.075,7.864-4.2,8.056-4.113.24-4.4-9.308-4.9-13.066a53.622,53.622,0,0,0-11.265,5.673,48.98,48.98,0,0,0-15.155,16.046.9.9,0,0,1,.148.39c1.333,10.445,14.665,14.055,22.6,18.086,2.464,1.252,11.7,5.571,10.508,9.3-.63,1.972-3.923,1.976-5.479,1.688-3.979-.734-7.551-3.908-10.644-6.312-7.132-5.542-14.185-10.881-20.088-17.584C42.336,222.719,40.85,238.8,41.084,250.7a.884.884,0,0,1,.709.01,31.585,31.585,0,0,0,14.869,2.337c3.157-.294,6.429-1.035,9.611-.574,2.677.394,6.865,3.668,3.856,6.339-2.571,2.285-8.3,1.736-11.434,1.329a54.637,54.637,0,0,1-17.467-5.567c.186,3.485.5,6.489.86,8.751a43,43,0,0,0,18.606,28.715,44.786,44.786,0,0,0,10.521,5.1c7.176-6.212,12.622-13.081,15.806-22.437,1.271-3.743,3.935-14.078,9.256-13.721,2.377.161,4.021,3.065,4.469,5.118.762,3.5-1.362,7.007-3.288,9.736-2.831,4.019-5.943,7.777-8.711,11.852-2.677,3.948-5.454,7.816-8.373,11.585a47.836,47.836,0,0,0,20.279-1.628c10.237-3.169,20.955-13.8,15.288-24.751,11.005,2.425,24.526,4.069,34.341-1.705M59.97,242.122a2.8,2.8,0,0,1-.459.069.841.841,0,0,1-1.273.121c-.144-.14-.28-.3-.417-.455a5.7,5.7,0,0,1-2.1-3.368.8.8,0,0,1,.115-.687,9.988,9.988,0,0,1-.253-2.012c-.019-1.6.732-3.409,2.639-3.071a5.91,5.91,0,0,1,4.478,4.749,4.418,4.418,0,0,1-2.735,4.655m66.875,2.569a2.952,2.952,0,0,1-4.415.369,5.264,5.264,0,0,1-1.331-5.306.766.766,0,0,1,.534-.555c.023-.012.038-.033.065-.044a5.248,5.248,0,0,1,5.248.48c1.592,1.354,1.085,3.6-.1,5.056" transform="translate(37.789 164.607)"/>
        <path id="Path_18754" data-name="Path 18754" d="M156.455,280.152c-6.479,0-15.482-1.289-21.579-7.43-4.43-4.461-6.646-10.829-6.591-18.927l.008-.918-.928-.006a1.458,1.458,0,0,0-.751.269c-6.443,3.328-11.119,4.025-13.907,4.025a11.111,11.111,0,0,1-8.261-3.12c-2.886-2.93-4.386-7.948-4.465-14.923.849.392,1.711.776,2.585,1.141l.755.319c2.41,1.023,6.049,2.573,9.185,2.573a6.372,6.372,0,0,0,3.833-1.106,4.576,4.576,0,0,0,2.009-3.923c-.071-3.309-3.268-6.9-5.517-8.384-1.312-.87-2.621-1.625-3.914-2.366a32.352,32.352,0,0,1-7.3-5.16,76.1,76.1,0,0,1-8.668-10.765,44.425,44.425,0,0,1,.981-16.01c3.142-12.025,12.885-19.637,21.536-24.962a44.291,44.291,0,0,0-1.479,8.926l-.215,2.867c-.426,5.482-.868,11.151.4,16.666.7,3.065,4.958,15.428,11.491,15.428a4.97,4.97,0,0,0,.883-.079,3.794,3.794,0,0,0,3.122-2.193c1.415-3.386-2.667-9.269-4.858-12.432-.325-.467-.59-.849-.759-1.114-6.452-10.185-7.257-21.112-2.331-31.618,11.537-6.118,24.772-10.6,41.467-14.047a67.46,67.46,0,0,0-9.565,18.758c-.958,3.078-3.854,13.548-.855,19a6.356,6.356,0,0,0,4.042,3.207,5.449,5.449,0,0,0,1.394.2,3.9,3.9,0,0,0,2.888-1.225c2.733-2.8,2.56-9.955,2.458-14.233-.027-1.1-.052-1.978-.012-2.483.757-9.315,5.016-17.711,13.026-25.659,6.875-1.121,13.842-2.082,20-2.932,1.577,6.591,3.119,13.287,4.561,20-.359,1.2-.783,2.375-1.254,3.531a12.6,12.6,0,0,1-1.536,2.475,11.19,11.19,0,0,0-2,3.635,4.168,4.168,0,0,0,.63,3.43,2.561,2.561,0,0,0,2.053,1.024l.476-.04c1.69-.277,2.917-1.972,3.791-3.56,1.659,8.5,2.9,16.09,3.783,23.132l.311,2.523a30.215,30.215,0,0,1-14.091,9.352,44.971,44.971,0,0,1-5.388,1.193c-3.8.68-7.724,1.381-10.965,4.058a1.588,1.588,0,0,0-.574,1.1,1.963,1.963,0,0,0,.459,1.413,8.068,8.068,0,0,0,6.447,2.742c4.152,0,8.86-2.2,11.676-3.514a48.1,48.1,0,0,0,13.216-9.348c1,10.084,1.459,21.556-1.454,32.219a71.331,71.331,0,0,1-16.271-4.058l-.157-.061-.469-.058a1.671,1.671,0,0,0-1.619,1.436,1.811,1.811,0,0,0,1.143,2.057,74.335,74.335,0,0,0,16.3,4.119c-.5,1.4-1.052,2.729-1.713,4.152a31.436,31.436,0,0,1-3.468.194,35.225,35.225,0,0,1-16.3-4.252,35.2,35.2,0,0,0-16.254-4.317c-.716,0-1.436.029-2.162.083a1.8,1.8,0,0,0-1.444.862,1.879,1.879,0,0,0-.063,1.726c2.7,5.89,11.1,7.347,16.657,8.313a146.632,146.632,0,0,0,20.659,1.964,52.7,52.7,0,0,1-14.975,16.234c-.8.565-1.617,1.087-2.445,1.58-.376.019-.753.025-1.127.025-8.563,0-17.127-4.175-22.825-7.318l-.451-.253c-1.577-.891-4.221-2.379-6.349-2.379a3.145,3.145,0,0,0-3.288,2.969c-.885,5.523,4.421,8.609,9.682,9.653,2.17.432,4.392.689,6.539.945,1.64.19,3.282.382,4.908.651q1.129.187,2.256.386a59.353,59.353,0,0,1-17,2.619m-19.814-22.975a1.73,1.73,0,0,0-.48,1.058,1.61,1.61,0,0,0,.647,1.379,3.932,3.932,0,0,0,2.441.858,4.546,4.546,0,0,0,2.854-1.081c1.34-1.1,2.295-3.092,1.225-4.86a3.471,3.471,0,0,0-2.938-1.659,3.229,3.229,0,0,0-2.366,1.016,5.481,5.481,0,0,0-1.383,3.29m25.523-37.035a1.857,1.857,0,0,0-1.87,1.607,4.976,4.976,0,0,0,4.9,6.013,4.159,4.159,0,0,0,3.243-1.4c1.586-1.849.76-4.72-.914-6.312a3.728,3.728,0,0,0-2.6-1.073,3.92,3.92,0,0,0-2.75,1.166ZM137.106,196.15c.449,2.909,1.774,4.653,3.543,4.653a3.253,3.253,0,0,0,1.433-.361c2.756-1.356,3.606-5.436,3.8-6.654.545-3.41-.505-6.245-2.808-7.587a5.862,5.862,0,0,0-2.94-.83,4.235,4.235,0,0,0-4.355,3.9,11.846,11.846,0,0,0,1.3,6.531,1.8,1.8,0,0,0,.023.35M178.3,176.4a1.656,1.656,0,0,0-.486.949c-.445,2.909.5,4.993,2.581,5.723a4.887,4.887,0,0,0,1.59.261,6.622,6.622,0,0,0,4.127-1.565,4.532,4.532,0,0,0,1.548-5.171,5.182,5.182,0,0,0-4.9-3.38,5.348,5.348,0,0,0-.847.065A4.224,4.224,0,0,0,178.3,176.4" transform="translate(85.265 135.756)" fill="#fff"/>
        <path id="Path_18755" data-name="Path 18755" d="M196.357,148.967c1.358,5.9,2.871,12.482,4.259,18.948-.328,1.062-.718,2.145-1.156,3.222a12.064,12.064,0,0,1-1.431,2.287,12.073,12.073,0,0,0-2.147,3.939,5.052,5.052,0,0,0,.789,4.219,3.446,3.446,0,0,0,2.779,1.379,3.746,3.746,0,0,0,.624-.052,5.251,5.251,0,0,0,3.17-2.074c1.442,7.589,2.543,14.454,3.345,20.857l.263,2.134a29.392,29.392,0,0,1-13.406,8.753,42.441,42.441,0,0,1-5.275,1.168c-3.914.7-7.962,1.425-11.386,4.248a2.513,2.513,0,0,0-.906,1.732,2.854,2.854,0,0,0,.678,2.093,8.948,8.948,0,0,0,7.138,3.061c4.351,0,8.993-2.166,12.063-3.6a47.6,47.6,0,0,0,12.094-8.232c.835,9.292,1.083,19.606-1.4,29.258a70.661,70.661,0,0,1-15.267-3.9,2.738,2.738,0,0,0-.951-.177,2.573,2.573,0,0,0-2.521,2.187,2.72,2.72,0,0,0,1.723,3.078,75.465,75.465,0,0,0,15.368,4.012c-.313.8-.666,1.646-1.077,2.548-.952.085-1.9.133-2.848.133A34.274,34.274,0,0,1,185,246.033a36.143,36.143,0,0,0-16.676-4.413c-.739,0-1.482.025-2.228.083a2.689,2.689,0,0,0-2.166,1.31,2.778,2.778,0,0,0-.109,2.573c2.9,6.324,11.576,7.833,17.461,8.855a143.073,143.073,0,0,0,19.088,1.9,51.781,51.781,0,0,1-13.907,14.627c-.653.461-1.356.92-2.187,1.425-.28.01-.563.013-.845.013-8.353,0-16.78-4.111-22.387-7.2l-.447-.252c-1.657-.933-4.434-2.5-6.8-2.5a4.075,4.075,0,0,0-4.192,3.741c-.989,6.174,4.989,9.623,10.408,10.7,2.2.442,4.44.7,6.606.956.96.111,1.924.225,2.882.355a57.131,57.131,0,0,1-12.609,1.477c-6.3,0-15.053-1.241-20.928-7.157-4.252-4.284-6.379-10.433-6.326-18.278l.013-1.847h-1.847a2.3,2.3,0,0,0-1.171.369c-6.278,3.247-10.8,3.931-13.488,3.931a10.225,10.225,0,0,1-7.608-2.854c-2.516-2.554-3.914-6.867-4.165-12.843q.634.282,1.279.551l.743.315c2.479,1.054,6.222,2.648,9.55,2.648a7.289,7.289,0,0,0,4.373-1.281,5.457,5.457,0,0,0,2.385-4.686c-.079-3.639-3.512-7.53-5.924-9.125-1.346-.895-2.681-1.661-3.971-2.4a31.474,31.474,0,0,1-7.1-5.01,74.292,74.292,0,0,1-8.43-10.447,43.251,43.251,0,0,1,.983-15.447c2.831-10.84,11.23-18.039,19.211-23.205a47.7,47.7,0,0,0-.956,6.873c-.063.954-.138,1.911-.215,2.869-.43,5.548-.878,11.284.424,16.935.783,3.407,5.185,16.135,12.382,16.135a6,6,0,0,0,1.041-.09,4.656,4.656,0,0,0,3.812-2.74c1.484-3.551-1.776-8.73-4.949-13.3-.317-.457-.574-.83-.739-1.087-6.22-9.817-7.046-20.34-2.4-30.464,10.877-5.728,23.286-10.011,38.717-13.342a66.425,66.425,0,0,0-8.388,17.114c-1.265,4.06-3.875,14.1-.787,19.712a7.249,7.249,0,0,0,4.611,3.651,6.262,6.262,0,0,0,1.63.23,4.861,4.861,0,0,0,3.543-1.5c2.769-2.838,2.863-8.912,2.719-14.892-.025-1.052-.046-1.961-.012-2.391.728-9.01,4.835-17.152,12.549-24.878,6.514-1.056,13.056-1.964,18.911-2.773m-18.431,27.4a2.6,2.6,0,0,0-.576,1.285c-.511,3.336.68,5.847,3.188,6.721a5.727,5.727,0,0,0,1.888.315,7.591,7.591,0,0,0,4.711-1.769,5.489,5.489,0,0,0,1.83-6.191,6.1,6.1,0,0,0-5.763-3.99,6.459,6.459,0,0,0-.987.077,5.183,5.183,0,0,0-4.29,3.553m-41.318,20.1c.006.09.015.179.029.269.528,3.4,2.191,5.429,4.447,5.429a4.186,4.186,0,0,0,1.84-.455c3.063-1.506,4.029-5.628,4.3-7.332.611-3.795-.6-6.978-3.249-8.522a6.792,6.792,0,0,0-3.4-.951,5.166,5.166,0,0,0-5.264,4.7,12.485,12.485,0,0,0,1.3,6.867m25.627,23.23a2.75,2.75,0,0,0-2.41,2.381,5.892,5.892,0,0,0,5.815,7.046,5.134,5.134,0,0,0,3.935-1.717c1.938-2.266,1-5.694-.979-7.578a4.693,4.693,0,0,0-3.228-1.323,4.781,4.781,0,0,0-3.132,1.191m-26.041,37.56a2.614,2.614,0,0,0-.509,1.367,2.509,2.509,0,0,0,.995,2.155,4.826,4.826,0,0,0,3.005,1.056,5.482,5.482,0,0,0,3.437-1.289c1.638-1.346,2.781-3.808,1.425-6.045a4.387,4.387,0,0,0-3.72-2.1,4.139,4.139,0,0,0-3.028,1.3,6.291,6.291,0,0,0-1.605,3.553m60.859-110.221a1.341,1.341,0,0,0-.177.013c-6.725.927-13.523,1.87-20.305,2.98-7.38,7.257-12.64,15.808-13.5,26.443-.23,2.852,1.438,17.1-4.423,17.1a4.442,4.442,0,0,1-1.156-.163c-7.629-2.051-4.031-16.3-2.55-21.049a68.652,68.652,0,0,1,10.8-20.39c-15.386,3.03-30.458,7.368-44.279,14.74-5.2,10.869-4.484,22.135,2.256,32.774,1.473,2.324,10.014,13.147,3.111,14.349a4.259,4.259,0,0,1-.728.06c-5.454,0-9.659-10.639-10.6-14.712-1.458-6.327-.6-12.874-.165-19.265a41.7,41.7,0,0,1,2.149-11c-.163.1-.332.179-.494.275-10.422,6.206-20.323,14.237-23.514,26.462a45.818,45.818,0,0,0-.983,16.567,78.654,78.654,0,0,0,8.9,11.084c3.435,3.464,7.4,5.018,11.363,7.645,2.825,1.87,7.652,7.77,3.476,10.8a5.48,5.48,0,0,1-3.3.931c-3.284,0-7.251-1.847-9.586-2.821-1.312-.547-2.589-1.135-3.85-1.746-.253,16.294,6.61,20.409,13.638,20.409,7.18,0,14.535-4.294,14.66-4.294h0c-.144,20.545,14.018,27.28,29.085,27.28a60.878,60.878,0,0,0,20.638-3.8c-1.913-.361-3.823-.712-5.744-1.031-3.785-.622-7.651-.837-11.416-1.588-4.092-.812-9.794-3.378-8.956-8.611a2.246,2.246,0,0,1,2.383-2.2c2.1,0,4.987,1.761,6.358,2.519,7,3.858,15.126,7.432,23.276,7.432.463,0,.926-.01,1.39-.035.916-.543,1.819-1.118,2.7-1.74a53.5,53.5,0,0,0,16-17.851,151.077,151.077,0,0,1-21.922-1.976c-5.258-.912-13.592-2.316-16.111-7.812a.875.875,0,0,1,.743-1.3q1.051-.075,2.1-.075a34.24,34.24,0,0,1,15.829,4.209,35.954,35.954,0,0,0,16.73,4.355,32.9,32.9,0,0,0,4.077-.257,49.909,49.909,0,0,0,2.226-5.433c.036-.115.067-.227.1-.336a73.377,73.377,0,0,1-17.2-4.213c-.92-.348-.657-1.719.154-1.719a.906.906,0,0,1,.3.058,71.76,71.76,0,0,0,17.262,4.206c3.257-11.255,2.752-23.5,1.5-35.223a48.983,48.983,0,0,1-14.32,10.518c-3.013,1.408-7.407,3.43-11.29,3.43a7.2,7.2,0,0,1-5.748-2.42.877.877,0,0,1,0-1.217c4.567-3.768,10.646-3.4,16.044-5.081a31.193,31.193,0,0,0,14.773-9.957q-.173-1.46-.357-2.909c-1.085-8.668-2.594-17.266-4.315-25.823-.079.163-.157.328-.234.486-.734,1.494-2.124,4.657-4.079,4.976a1.97,1.97,0,0,1-.33.025c-1.571,0-2.139-1.968-1.794-3.3.557-2.158,2.644-3.9,3.5-5.993.513-1.258.968-2.539,1.352-3.839-1.458-6.8-3.015-13.575-4.574-20.346a.833.833,0,0,0-.881-.614m-14.627,35.822a3.859,3.859,0,0,1-1.285-.211c-2.018-.7-2.26-2.875-1.98-4.714a.7.7,0,0,1,.4-.555,3.325,3.325,0,0,1,2.934-2.75,5.022,5.022,0,0,1,.709-.056c3.626,0,5.916,4.342,2.767,6.932a5.783,5.783,0,0,1-3.545,1.354m-41.341,17.475c-1.669,0-2.4-2.37-2.637-3.879a.906.906,0,0,1,.017-.376,10.96,10.96,0,0,1-1.337-6.245,3.329,3.329,0,0,1,3.447-3.1,4.963,4.963,0,0,1,2.479.7c2.32,1.354,2.756,4.205,2.362,6.65-.323,2.018-1.292,4.989-3.3,5.976a2.329,2.329,0,0,1-1.031.269m21.876,21.245a3.091,3.091,0,0,1,2.406-1.239,2.828,2.828,0,0,1,1.965.82c1.275,1.212,2.133,3.56.851,5.056a3.283,3.283,0,0,1-2.543,1.077,4.065,4.065,0,0,1-4-4.974.938.938,0,0,1,.962-.814.893.893,0,0,1,.357.073M139.685,260a2.99,2.99,0,0,1-1.876-.666.735.735,0,0,1,.171-1.266,4.625,4.625,0,0,1,1.148-3.107,2.323,2.323,0,0,1,1.7-.73,2.527,2.527,0,0,1,2.153,1.219c.782,1.289.033,2.809-1.022,3.675a3.62,3.62,0,0,1-2.274.874" transform="translate(84.827 135.316)"/>
        <path id="Path_18756" data-name="Path 18756" d="M96.679,291.9a44.063,44.063,0,0,1,3.616,10.7c-7.3,2.631-15.43,2.932-23.253,2.731a31.24,31.24,0,0,0,6.276-9.586c1.229-3.1,3.3-8.407-.156-10.827a.6.6,0,0,0-.807.065c-2.274,3.076-1.732,6.9-2.591,10.4a19.77,19.77,0,0,1-5.88,9.849c-.651-.025-1.3-.054-1.943-.083-5.794-.246-11.558-.768-17.31-1.423.1-.058.209-.115.307-.173.956-.536,2.984-1.578,3.1-2.831.108-1.166-1.35-1.482-2.276-1.177-1.4.461-2.456,1.868-3.8,2.516-.808.386-1.634.741-2.477,1.048-4.572-.576-9.135-1.219-13.7-1.865a.556.556,0,0,1-.447-.638c.288-4.3.588-8.645.995-12.995,4.449-5.031,9.859-8.789,16.858-9.874,1.993-.307,12.58.09,10.946-4.384-1.723-4.72-10.988-1.724-14.063-.547a46.455,46.455,0,0,0-12.979,7.86c1.262-9.882,3.409-19.633,7.624-28.745,6.948-3.837,14.445-3.954,21.817-.229,1.609.812,9.189,5.669,9.65,1.241.39-3.722-7.386-6.014-10.249-6.42-4.261-.6-8.555.269-12.768.87A28.836,28.836,0,0,0,46,249.3c.054-.108.1-.219.156-.326,3.608-6.9,8.451-13.571,16.392-16.207A31.853,31.853,0,0,1,73.47,231.3a52.314,52.314,0,0,1,7.768,5.072c2.46,2,3.681,4.428,5.611,6.8,1.379,1.69,5.515,4.449,7.322,1.653,1.458-2.251-.826-6.084-1.872-8.052-.424-.8-.876-1.578-1.34-2.345,21.886-2,11.941,17.089,12.038,17.083,20.056-1.669,21.721,17.865,17.951,30.255-.33-1.189-.657-2.379-.96-3.58-.6-2.362-.926-4.8-1.6-7.14-.737-2.548-2.713-6.022-6.135-5.227-2.953.686-.253,4.211.636,5.511,3.055,4.469,5.965,9.755,6.089,15.228-.319.6-.655,1.206-1.022,1.792A34.986,34.986,0,0,1,106.9,299.373a91.44,91.44,0,0,0-2.362-13.763c-.862-3.278-2.191-8.478-5.953-9.792a.579.579,0,0,0-.822.532,20.368,20.368,0,0,0,3.6,11.128,21.264,21.264,0,0,1,3.72,12.951,33.752,33.752,0,0,1-3.493,1.678c-.071.033-.146.058-.217.086a44.674,44.674,0,0,0-3.618-10.669c-.305-.63-1.386-.261-1.077.372m-41.734-4.052a.458.458,0,0,0-.351.277,2.165,2.165,0,0,0-1.678,2,2.626,2.626,0,0,0,4.722,1.849,3.212,3.212,0,0,0,.52-3.109c-.561-1.242-2.009-1.285-3.213-1.014m51.975-27.631a1.964,1.964,0,0,0-.061-2.633.5.5,0,0,0-.831.171,3.194,3.194,0,0,0-2,.88,1.517,1.517,0,0,0,.515,2.414,1.994,1.994,0,0,0,2.381-.831m-42.908,5.477c1.321-.309,3.243-1.072,3.8-2.391.664-1.582-1.367-2.055-2.567-2.137a.631.631,0,0,0-.252.029,7.516,7.516,0,0,0-4.194-.53c-2,.405-2.381,2.37-1.3,3.869,1.008,1.4,2.915,1.527,4.517,1.16M86.39,278.463a2.258,2.258,0,0,0,.28-2.7,2.847,2.847,0,0,0-3.178-1.239.61.61,0,0,0-.428.874A1.778,1.778,0,0,0,83,278.181c.864.743,2.46,1.166,3.391.282" transform="translate(32.526 212.86)" fill="#aab6c2"/>
        <path id="Path_18757" data-name="Path 18757" d="M210.5,249.436c-2.028-.119-4.06-.252-6.091-.419-4.115-.33-9.884.357-13.285-2.46a.933.933,0,0,1-.061-1.41c6.372-5.367,13.365.542,20.186.824a63.534,63.534,0,0,0,.353-15.4,37.434,37.434,0,0,0-2.56-11.019c-3.779,5.171-7.132,10.683-12.11,14.7-1.982,1.6-7.124,6.381-9.732,4.449-2.865-2.118,2.139-5.523,3.679-6.546,6.314-4.2,12.494-8.3,17.339-14.445a24.544,24.544,0,0,0-11.445-11.583,52.238,52.238,0,0,0-11.869-3.962c.92,6.406-.075,15.921-6,17.5-4.177,1.12-6.8-3.762-7.082-7.624-.323-4.48,2.552-8.5,6.022-11.026a100.651,100.651,0,0,0-18.786-.229c-1.116.083-2.239.2-3.362.323a1.024,1.024,0,0,1-.109.361c-2.98,5.776-6.364,12.369-6.952,18.975-.221,2.448.808,5.68-.484,7.981-2.041,3.633-5.851.634-6.418-2.3-1.033-5.358,1.473-12.108,3.2-17.147.72-2.112,1.479-4.355,2.343-6.567a56.75,56.75,0,0,0-21.473,8.789,43.535,43.535,0,0,0-6.013,5.162c-.818,6.512-.57,13.1,1.822,18.979,1.719,4.219,6.533,12.167,1.836,16.588-3.23,3.034-5.135-2.76-5.809-5.183a105.694,105.694,0,0,1-3.336-23.727,70.939,70.939,0,0,0-7.952,15.457,118.537,118.537,0,0,0-4.86,16.584c3.965,2.8,8.632,3.941,12.928,6.4,2.014,1.152,5.991,3.585,4.061,6.65-4,6.354-13.064-1-18.159-6.46-.421,5.139,1.262,9.218,4.837,12.93,7.745,8.042,19.877,10.641,29.293,3.349-.373,9.4,6.658,17.1,15.818,15.8a15.7,15.7,0,0,0,8.434-4.334,46.836,46.836,0,0,1-6.406.24c-2.746-.1-7.416-.323-8.52-3.6-1.064-3.149,1.8-3.326,3.808-2.56,2.477.953,4.063,2.316,6.886,2.374a24.345,24.345,0,0,0,9.344-2.158c3.445-4.115,6.781-7.766,11.676-10.308a56.1,56.1,0,0,1,5.8-2.558c-3.844-.326-9.49-1.01-10.758-4.517-2.109-5.847,6.794-6.237,9.79-5.751,4.008.651,7.841,1.93,11.923,2.208a30.573,30.573,0,0,0,10.126-1.095c.68-.494,1.348-1.006,2-1.565a20.888,20.888,0,0,0,6.126-10.671m-72.171,4.29c-1.805-.06-2.667-2.233-2.871-3.871a8.3,8.3,0,0,1,.741-4.632.962.962,0,0,1,.05-.411c.392-1.135,1.016-2.473,2.212-2.823a2.37,2.37,0,0,1,2.368.837,7.536,7.536,0,0,1,1.569,6.18c-.342,1.893-1.963,4.8-4.069,4.72m22.552-21.707a4.813,4.813,0,0,1,1.35-5.742.818.818,0,0,1,.505-.2c1.6-1.106,3.506-.9,4.451,1.037a4.952,4.952,0,0,1-1.659,6.066,3.056,3.056,0,0,1-4.647-1.162m-3.562,40.962c-1.127,1.878-3.71,2.673-5.193,1.045a4.65,4.65,0,0,1-.6-4.8.831.831,0,0,1,.031-1.267c3.084-2.661,8.027,1.239,5.757,5.026" transform="translate(92.276 184.489)"/>
        <path id="Path_18758" data-name="Path 18758" d="M105.445,288.2c1.093-.033,2.185-.092,3.247-.121,1.125-3.282,2.343-6.533,3.8-9.724.392-.849.789-1.7,1.214-2.552a118.75,118.75,0,0,1,33.358-41.223c1.58-1.279-.668-3.493-2.247-2.249a121.057,121.057,0,0,0-34,42.1c-.182.394-.367.791-.517,1.185a98.425,98.425,0,0,0-4.86,12.58" transform="translate(97.043 213.476)"/>
        <path id="Path_18759" data-name="Path 18759" d="M96.648,323.651c1.062.029,2.128.029,3.19.029.576-4.434,1.277-8.868,2.036-13.273,1.308-7.656,2.854-15.282,4.526-22.848,3.585-15.977,7.808-31.8,12.06-47.634,4.165-15.464,8.628-30.869,18.168-43.993,1.217-1.638-1.548-3.217-2.733-1.578-9.173,12.576-13.765,27.249-17.8,42.138-4.8,17.652-9.509,35.359-13.4,53.225-1.488,6.867-2.884,13.763-4.038,20.69-.76,4.405-1.431,8.839-2.007,13.244" transform="translate(88.947 178.232)"/>
        <path id="Path_18760" data-name="Path 18760" d="M77.033,224.646a181.409,181.409,0,0,1,10.329,26.064c.424,1.279.791,2.552,1.156,3.829h.029a243.567,243.567,0,0,1,6.687,30.26c.666,3.975,1.214,8.019,1.7,12.027,1.035.061,2.1.123,3.19.156-.517-4.134-1.062-8.236-1.732-12.338a255.271,255.271,0,0,0-5.742-27.1c-.455-1.64-.91-3.311-1.425-4.951a193.1,193.1,0,0,0-11.457-29.561c-.88-1.853-3.614-.242-2.735,1.611" transform="translate(70.737 204.509)"/>
        <path id="Path_18761" data-name="Path 18761" d="M62.7,260.08c8.2-5.44,16.375-11,24.636-16.344,4.62-2.978,9.175-5.2,14.7-3.161a11.741,11.741,0,0,1,1.55.73,17.292,17.292,0,0,1,4.133,3.007,26.078,26.078,0,0,1,4.133,5.225c3.8,6.291,5.68,13.792,6.713,21.63.578,4.223.912,8.538,1.156,12.76,1,.058,2.034.09,3.1.119-.275-4.252-.576-8.657-1.154-13-1.369-10.754-4.221-21.143-11.121-28.219a22.723,22.723,0,0,0-4.252-3.464,18.071,18.071,0,0,0-3.86-1.886,15.043,15.043,0,0,0-10.541.15c-4.77,1.859-9.235,5.561-13.49,8.39-5.742,3.825-11.482,7.622-17.223,11.451-1.642,1.064-.123,3.706,1.519,2.614" transform="translate(55.66 217.744)"/>
        <rect id="Rectangle_8829" data-name="Rectangle 8829" width="38.193" height="522.617" transform="translate(377.258 54.151)" fill="#aab6c2"/>
        <path id="Path_18762" data-name="Path 18762" d="M387.135,332.72H149.712a12.423,12.423,0,0,1-12.386-12.386V308.977a12.423,12.423,0,0,1,12.386-12.386H387.135a12.421,12.421,0,0,1,12.386,12.386v11.357a12.421,12.421,0,0,1-12.386,12.386" transform="translate(126.384 272.959)" fill="#aab6c2"/>
        <path id="Path_18763" data-name="Path 18763" d="M481.477,367.253H120.67a18.879,18.879,0,0,1-18.823-18.825V331.17a18.879,18.879,0,0,1,18.823-18.823H481.477A18.879,18.879,0,0,1,500.3,331.17v17.258a18.879,18.879,0,0,1-18.825,18.825" transform="translate(93.732 287.459)" fill="#aab6c2"/>
        <path id="Path_18764" data-name="Path 18764" d="M618.629,84.493,65,19.546A9.807,9.807,0,0,1,67.286.066L620.914,65.013a9.807,9.807,0,1,1-2.285,19.48" transform="translate(51.849 -0.001)"/>
        <path id="Path_18765" data-name="Path 18765" d="M275.879,47.482A46.969,46.969,0,1,1,228.91.515a46.969,46.969,0,0,1,46.969,46.967" transform="translate(167.444 0.474)"/>
      </g>
    </g>
    <g id="Group_10473" data-name="Group 10473">
      <g id="Group_10472" data-name="Group 10472" clip-path="url(#clip-path)">
        <g id="Group_10480" data-name="Group 10480">
          <g id="Group_10479" data-name="Group 10479" transform="translate(0.48 173.215)" clip-path="url(#clip-path-5)">
            <rect id="Rectangle_8846" data-name="Rectangle 8846" width="234.327" height="56.799" transform="translate(0 0)" fill="url(#linear-gradient)"/>
          </g>
          <path id="Path_18767" data-name="Path 18767" d="M234.577,90.2c0,31.37-52.454,56.8-117.164,56.8S.25,121.571.25,90.2Z" transform="translate(0.23 83.014)" fill="none" stroke="#000" stroke-width="1.5"/>
          <path id="Path_18768" data-name="Path 18768" d="M1.022,167.76l-.772-.686L117.027,6.672l.772.686Z" transform="translate(0.23 6.141)" stroke="#232323" stroke-width="1"/>
          <path id="Path_18769" data-name="Path 18769" d="M177.838,168.443,61.061,7.357l.772-.686L178.612,167.76Z" transform="translate(56.196 6.141)" stroke="#232323" stroke-width="1"/>
        </g>
      </g>
    </g>
    <g id="Group_10477" data-name="Group 10477">
      <g id="Group_10476" data-name="Group 10476" clip-path="url(#clip-path)">
        <path id="Path_18774" data-name="Path 18774" d="M280.547,335.678c-15.436,0-25.515-15.374-38.072-37.091-15.864-27.457-24.446-72.189-17.655-92.045.682-1.993,1.173-3.764,1.6-5.289,1.189-4.28,1.707-5.667,3.322-5.667,1.1,0,2.765.591,5.246,1.859,20.843,10.642,38.573,60.536,47.1,84.509,3,8.451,4.254,11.916,5.054,12.753a23.359,23.359,0,0,1,3.516,5.339c1.7,3.182,3.3,6.185,7.057,6.185,3.818,0,9.421-3.307,18.135-10.708,4.469,2.118,9.932,5.726,9.264,7.447l-.284.73c-5.475,14.1-5.475,14.1-21.767,23.968l-.676.409c-8.446,5.114-15.587,7.6-21.832,7.6Z" transform="translate(204.747 180.003)" fill="#fff"/>
        <path id="Path_18775" data-name="Path 18775" d="M230.187,196.944c.935,0,2.514.572,4.828,1.753,20.519,10.479,38.168,60.137,46.65,84,3.257,9.164,4.332,12.113,5.256,13.075a22.822,22.822,0,0,1,3.372,5.145c1.749,3.278,3.558,6.665,7.868,6.665,4.031,0,9.529-3.163,18.272-10.539,4.342,2.13,8.225,4.953,8.269,6.034l-.28.724c-5.362,13.811-5.362,13.811-21.375,23.509l-.689.419c-8.3,5.025-15.288,7.47-21.362,7.47-13.688,0-22.927-11.814-37.275-36.638-15.76-27.267-24.307-71.63-17.586-91.284.693-2.026,1.181-3.787,1.613-5.34,1.093-3.929,1.517-4.993,2.441-4.993m0-1.832c-3.361,0-3.3,4.313-5.786,11.57-6.938,20.292,1.707,65.074,17.73,92.8,13.373,23.126,23.472,37.55,38.863,37.55,6.339,0,13.575-2.445,22.31-7.735,17.517-10.61,17.15-10.235,23.105-25.556,1.381-3.555-10.262-8.858-10.262-8.858-9.425,8.058-14.671,10.869-17.988,10.869-5.148,0-5.652-6.771-9.915-11.242-3.074-3.213-25.012-83.457-52.4-97.443-2.6-1.329-4.38-1.955-5.661-1.955" transform="translate(204.297 179.565)"/>
        <path id="Path_18776" data-name="Path 18776" d="M221.75,276.524c11.255,1.682,21.924,1.563,32.06-.991a49.847,49.847,0,0,0,6.057-1.78,74.745,74.745,0,0,0,25.972-16.161c-1.137-5.548-9.7-42.56-28.933-59.405a93.576,93.576,0,0,0-17.978-12.547c-6.905-3.585-14.247-5.525-19.678-2.483a10.8,10.8,0,0,0-2.531,1.882c-16.72,16.555-4.962,60.206,5.031,91.486" transform="translate(191.722 167.176)" fill="#f40"/>
        <path id="Path_18777" data-name="Path 18777" d="M232.022,278.75a152.78,152.78,0,0,0,22.608-5c-26.3-18.545-1.085-44.144-9.815-55.664-3.71-4.906-5.678-28.455-11.124-32.45-6.905-3.585-14.247-5.527-19.678-2.485,4.81,3.827,13.821,12.152,18.224,15.318,7.856,10.69.962,27.142.8,40.2-.432,2.619-2.464,39.4-1.01,40.079" transform="translate(196.96 167.175)" fill="#9bcef5"/>
        <path id="Path_18778" data-name="Path 18778" d="M121.766,303.365c29.394,23.8,26.318,44.064,58.437,64.2,26.571,16.641,57.08,34.222,89.193,35.831,14.479.724,178.659-93.708,192.86-90.157,3.435.887-2.078-32.378-42.226-40.38-12.684-2.527-76.177,14.172-136.279,16.8C211.531,292.826,140.487,282.5,118.724,285c-2.606.3,1.321,16.918,3.042,18.36" transform="translate(108.465 250.878)"/>
        <path id="Path_18779" data-name="Path 18779" d="M295.161,340.235c-52.53,16.062-135.482-61.809-164.581-60.023s13.427,56,13.427,56l112.686,40.757s91-52.792,38.468-36.734" transform="translate(110.806 257.856)"/>
        <path id="Path_18780" data-name="Path 18780" d="M366.21,278.338c-56.782,7.781-86.53,41.181-139.064,57.241s-34.307,43.2-34.307,43.2l90.7-9.924,75.814-40.3s29.271-53.3,6.858-50.222" transform="translate(174.66 256.043)"/>
        <path id="Path_18781" data-name="Path 18781" d="M206.093,356.271a97.764,97.764,0,0,1-14.241-.987v-9.477a35.174,35.174,0,0,1,10.243-2.245c6.295-.436,30.979-18.988,36.657-23.317,1.711,3.539,7.174,16.056,3.512,24.713-1.619,3.825-4.876,6.456-9.678,7.816a97.453,97.453,0,0,1-26.491,3.5Z" transform="translate(176.565 294.729)" fill="#fff"/>
        <path id="Path_18782" data-name="Path 18782" d="M238.843,322.331c2,4.4,6.245,15.313,3.017,22.944-1.529,3.606-4.5,5.991-9.085,7.286a96.361,96.361,0,0,1-26.247,3.464,98.754,98.754,0,0,1-13.321-.862v-8.056a34.873,34.873,0,0,1,9.392-1.957c6.247-.434,28.507-16.947,36.244-22.819m.67-2.813s-30.4,23.341-37.043,23.8a34.222,34.222,0,0,0-11.1,2.548V356.73a91.692,91.692,0,0,0,15.153,1.127,99.251,99.251,0,0,0,26.746-3.531c21.721-6.145,6.239-34.808,6.239-34.808" transform="translate(176.126 294.059)"/>
        <path id="Path_18783" data-name="Path 18783" d="M210.027,397.632c6.6,4.363,218.068-19.526,184.283-95.882-29.066-65.692-81.765,18.9-197.157,75.689,1.066,6.481,11.1,18.99,12.874,20.192" transform="translate(181.444 255.717)"/>
        <path id="Path_18784" data-name="Path 18784" d="M215.093,353.739c-7.539,0-14.015-1.02-19.249-3.036-12.874-4.953-15.167-22.7-15.57-28.179,7.1,3.979,33.281,18.518,37.792,18.942a19.4,19.4,0,0,1,7.75,2.41l6.141,8.313a97.313,97.313,0,0,1-16.864,1.55" transform="translate(165.91 296.825)" fill="#fff"/>
        <path id="Path_18785" data-name="Path 18785" d="M181.826,324.948c9.329,5.214,32.221,17.786,36.632,18.2a18.966,18.966,0,0,1,7.082,2.12l5.258,7.046a96.228,96.228,0,0,1-15.226,1.281c-7.424,0-13.79-1-18.921-2.977-11.253-4.33-14.107-19.044-14.825-25.675m-2.072-3.265s.275,24.505,16.238,30.648c6.16,2.37,13.223,3.1,19.58,3.1a95.021,95.021,0,0,0,18.458-1.849l-7.245-9.705a20.06,20.06,0,0,0-8.154-2.548c-4.878-.463-38.877-19.645-38.877-19.645" transform="translate(165.431 296.051)"/>
        <path id="Path_18786" data-name="Path 18786" d="M157.63,353.387c10.366,9.907,28.757,7.061,41.723,3.253.294-.083.572-.179.851-.261.328-.1.638-.179.949-.279.326-.1.653-.211.981-.311.6-.194,1.177-.39,1.747-.588l.883-.294c5.625-1.961,9.319-3.71,9.319-3.71,4.611-7.639,10.953-5.9,10.953-5.9,8.6-10.642-3.3-22.253-3.3-22.253Z" transform="translate(145.07 297.302)" fill="#f40"/>
        <path id="Path_18787" data-name="Path 18787" d="M179.252,337.415a9.486,9.486,0,0,1,.263,8.568c-.017.031-.035.063-.017.1.294-.083.57-.179.851-.261a10.07,10.07,0,0,0-.426-8.714c-.228-.407-.9-.1-.67.311m4.741-2.387a9.726,9.726,0,0,1,.05,9.435c-.017.013,0,.05-.017.063a.134.134,0,0,0,0,.115l.883-.294a10.441,10.441,0,0,0-.246-9.63c-.229-.426-.9-.1-.67.311" transform="translate(164.926 307.863)"/>
        <path id="Path_18788" data-name="Path 18788" d="M222.923,326.126,160.336,355.75a1.287,1.287,0,0,1-1.1-2.326L221.819,323.8a1.29,1.29,0,0,1,1.1,2.329" transform="translate(145.888 297.873)"/>
        <path id="Path_18789" data-name="Path 18789" d="M270.772,395.138c-4.853,4.363-189.824-24.726-160.811-99.592,19.188-49.514,85.47,22.606,170.277,79.4-.785,6.481-8.163,18.99-9.465,20.192" transform="translate(98.359 256.782)"/>
        <path id="Path_18790" data-name="Path 18790" d="M329.968,367s-56.607,45.262-177.948,7.071c0,0-3.472-205.253,108.364-194.993,81.552,7.487,56.6,99.751,69.585,187.922" transform="translate(139.896 164.463)" fill="#f40"/>
        <path id="Path_18791" data-name="Path 18791" d="M214.016,200.049c-4.67,0-10.084-3.339-16.094-9.92.716-2.166,3.176-10.641,2.627-23.184l19.207,5.187c-.734,2.591-1.849,9.905,4.931,19.167-.76,1.83-4.075,8.751-10.671,8.751" transform="translate(182.152 153.643)" fill="#fff"/>
        <path id="Path_18792" data-name="Path 18792" d="M202.01,168.736l17.15,4.626c-.687,3.268-1.027,10.182,4.981,18.629-.983,2.172-4.048,7.72-9.625,7.72-4.313,0-9.377-3.1-15.061-9.235a68.828,68.828,0,0,0,2.554-21.74m-1.94-2.423c.885,15.03-2.692,24.607-2.692,24.607,7.184,7.992,12.824,10.623,17.139,10.623,8.325,0,11.71-9.8,11.71-9.8-8.5-11.284-4.789-19.658-4.789-19.658Z" transform="translate(181.651 153.061)"/>
        <path id="Path_18793" data-name="Path 18793" d="M152.023,367.719s-2.377-87.824,46.2-162.945L212.567,185.6s47.618,27.653,10.785,120.149c-8.085,20.309-27.848,69.9-27.848,69.9Z" transform="translate(139.892 170.811)"/>
        <path id="Path_18794" data-name="Path 18794" d="M200.98,345.466s6.262-2.026,11.232,5.379c0,0,3.777,1.571,9.5,3.257.294.079.59.161.9.261q.786.222,1.619.44c.115.033.229.065.361.1.572.15,1.158.311,1.747.444.278.083.557.146.851.211,13.145,3.188,31.653,5.135,41.529-5.266l-65.5-27.188s-11.332,12.179-2.241,22.364" transform="translate(181.716 297.357)" fill="#f40"/>
        <path id="Path_18795" data-name="Path 18795" d="M210.7,343.965c.294.079.59.161.9.261a.4.4,0,0,0-.015-.133c0-.013,0-.05-.017-.063a9.71,9.71,0,0,1-.407-9.419c.211-.422-.476-.72-.687-.276a10.436,10.436,0,0,0,.229,9.63m4.626-7.472a10.056,10.056,0,0,0,0,8.714c.278.083.557.148.851.211.017-.013,0-.05-.017-.083a9.467,9.467,0,0,1-.146-8.565c.2-.444-.492-.722-.687-.278" transform="translate(192.724 307.492)"/>
        <path id="Path_18796" data-name="Path 18796" d="M199.866,326.241l63.954,26.548a1.29,1.29,0,0,0,.987-2.381l-63.954-26.547a1.289,1.289,0,0,0-.987,2.379" transform="translate(183.234 297.957)"/>
        <path id="Path_18797" data-name="Path 18797" d="M246.889,281.394c-2.12,0-5.41-1.78-8.309-3.351-2.316-1.256-4.317-2.345-5.728-2.556a7.355,7.355,0,0,0-1.145-.083c-.553,0-1.081.05-1.588.1a11.107,11.107,0,0,1-1.177.083,2.269,2.269,0,0,1-2.124-1.16c-.887-1.294-1-3.017-.346-5.12,1.634-5.227,7.372-10.781,9.3-11.52a35.214,35.214,0,0,1,12.081-2.206c3.969,0,9.486.768,13.223,4.447,1.219,1.2,1.346,1.988,1.244,2.239-.088.213-.482.351-1,.351a5.51,5.51,0,0,1-1.842-.388,26.619,26.619,0,0,0-7.725-1.853c-1.214,0-1.548.534-1.615.981-.109.732-.223,1.488,6.744,3.629,1.851.566,4.636,2.253,5.246,3.414,0,.534-.19,1.162-1.744,1.162-1.951,0-4.764-.985-7.026-1.774-.812-.284-1.557-.542-2.178-.728l-.217-.065-.221.044c-1.039.2-1.363.747-1.452,1.169-.261,1.233,1.2,2.316,3.806,4.123a15.435,15.435,0,0,1,2.591,2.026c.582,1.02.576,1.483.528,1.571-.023.04-.261.194-.989.194a29.059,29.059,0,0,1-6.566-1.433,16.9,16.9,0,0,0-3.606-.854h-.346l-.532.294a1.815,1.815,0,0,0-.684,1.484c.061,1.244,1.429,2.226,2.877,3.266.732.528,2.091,1.5,2.157,1.922a2.233,2.233,0,0,1-.722.428,2.314,2.314,0,0,1-.916.161" transform="translate(208.041 235.216)" fill="#fff"/>
        <path id="Path_18798" data-name="Path 18798" d="M248.294,256.934c3.8,0,9.064.726,12.582,4.188a4.865,4.865,0,0,1,.833,1.024,4.59,4.59,0,0,1-1.469-.33,27.6,27.6,0,0,0-8.048-1.915c-2.1,0-2.46,1.35-2.521,1.765-.271,1.8,1.248,2.752,7.382,4.638a12.348,12.348,0,0,1,4.522,2.7,2.684,2.684,0,0,1-.751.088c-1.8,0-4.528-.956-6.725-1.721-.828-.29-1.586-.551-2.216-.741l-.432-.129-.444.083a2.453,2.453,0,0,0-2.174,1.882c-.4,1.89,1.521,3.224,4.179,5.068a22.365,22.365,0,0,1,2.318,1.724c.084.152.152.28.207.394a30.835,30.835,0,0,1-6.178-1.394,16.424,16.424,0,0,0-3.866-.893,2.183,2.183,0,0,0-1.484.52,2.756,2.756,0,0,0-.991,2.222c.083,1.686,1.625,2.792,3.257,3.965.326.236.77.555,1.143.851h-.092c-1.89,0-5.21-1.8-7.875-3.245-2.391-1.3-4.453-2.416-6.026-2.652a8.419,8.419,0,0,0-1.281-.092,16.574,16.574,0,0,0-1.676.108c-.378.035-.739.075-1.085.075a1.363,1.363,0,0,1-1.369-.758c-.722-1.056-.8-2.51-.23-4.33,1.53-4.893,7-10.268,8.759-10.938a34.118,34.118,0,0,1,11.752-2.151m0-1.832a35.856,35.856,0,0,0-12.407,2.272c-3.207,1.225-13.41,12.133-9.387,18.013a3.159,3.159,0,0,0,2.882,1.557c.845,0,1.761-.182,2.761-.182a6.531,6.531,0,0,1,1.01.071c2.975.451,10.109,5.92,14.172,5.92a3.246,3.246,0,0,0,1.281-.236c4.845-2.1-5.849-5.093-3.386-7.259a.433.433,0,0,1,.273-.063c1.4,0,7.128,2.285,10.174,2.285,1.751,0,2.612-.755,1.252-3.134-.872-1.525-8.7-5.358-5.565-5.966,2.385.716,6.64,2.541,9.469,2.541,1.338,0,2.356-.407,2.706-1.534.513-1.653-3.722-4.152-5.94-4.832-6.107-1.878-7.026-2.821-5.4-2.821a25.937,25.937,0,0,1,7.4,1.8,6.278,6.278,0,0,0,2.164.447c2.176,0,2.825-1.774.4-4.163-3.485-3.424-8.653-4.712-13.867-4.712" transform="translate(207.601 234.775)"/>
        <path id="Path_18799" data-name="Path 18799" d="M230.517,260.417c3.647-4.373,6.379-6.865,8.131-7.412a4.123,4.123,0,0,1,1.154-.179c.543,0,.833.14.891.229.04.065.056.311-.169.785a9.564,9.564,0,0,1-3.128,3.069,16.223,16.223,0,0,0-1.529,1.233,10.784,10.784,0,0,1-1.7,1.31,17.57,17.57,0,0,1-3.649.966" transform="translate(212.149 232.681)" fill="#fff"/>
        <path id="Path_18800" data-name="Path 18800" d="M240.528,254.2a9.421,9.421,0,0,1-2.642,2.393,16.377,16.377,0,0,0-1.623,1.3,10.011,10.011,0,0,1-1.552,1.2,4.041,4.041,0,0,1-.68.252c3.186-3.562,4.939-4.73,5.888-5.025a3.171,3.171,0,0,1,.609-.125m.277-1.847a5.038,5.038,0,0,0-1.429.221c-3.128.977-7.977,6.94-9.94,9.388-.036.046.04.067.2.067a22.416,22.416,0,0,0,5.978-1.338c1.173-.659,2.162-1.813,3.3-2.579a9.88,9.88,0,0,0,3.443-3.435c.807-1.705-.252-2.324-1.55-2.324" transform="translate(211.147 232.242)"/>
        <path id="Path_18801" data-name="Path 18801" d="M193.442,356.4c-24.9,0-41.177-4.4-48.381-13.081-19.6-23.6-9.611-48.073,6.635-80.062,15.076-29.669,41.586-59.044,64.473-71.44a25.239,25.239,0,0,1,11.923-3.169c7.374,0,12.968,3.72,15.345,10.2,2.6,7.107,5.707,18.072,2.591,31.207-3.712,15.789-26.191,44.853-41.066,64.085-10.185,13.171-15.078,19.591-15.04,21.678.042,2.473.148,9.054,75.033,9.054,16.776,0,32.14-.326,41.323-.522,3.6-.075,6.166-.129,7.372-.133l2.5,13.095c-8.106,2.13-74.2,19.082-122.7,19.082Z" transform="translate(123.551 173.62)" fill="#fff"/>
        <path id="Path_18802" data-name="Path 18802" d="M228.542,190.006c6.969,0,12.246,3.5,14.483,9.605,2.566,7,5.617,17.788,2.558,30.685-3.664,15.593-26.072,44.565-40.9,63.735-11.545,14.929-15.274,19.946-15.23,22.247.054,3.232.163,9.961,75.952,9.961,16.789,0,32.165-.33,41.352-.524,2.952-.063,5.208-.109,6.585-.129l2.191,11.5c-10.984,2.856-74.616,18.842-121.643,18.842-24.613,0-40.653-4.29-47.678-12.751-17.627-21.233-11.869-42.412,6.748-79.063,15-29.519,41.352-58.733,64.093-71.05a24.315,24.315,0,0,1,11.487-3.061m0-1.832a26.274,26.274,0,0,0-12.361,3.282c-22.063,11.95-49.057,40.745-64.853,71.831-17.356,34.174-25.832,57.805-6.523,81.064,8.24,9.924,26.925,13.413,49.087,13.413,52.214,0,123.763-19.338,123.763-19.338l-2.794-14.658a5.081,5.081,0,0,0-.659-.019c-3.983,0-25.137.655-48.8.655-34.358,0-74.009-1.381-74.121-8.156-.1-5.2,50.241-60.686,56.079-85.535,2.975-12.524.447-23.365-2.619-31.733-2.708-7.386-9.106-10.808-16.2-10.808" transform="translate(123.103 173.18)"/>
        <path id="Path_18803" data-name="Path 18803" d="M205.653,285.435c4.38-4.179,32.755-32.826,36.974-59.653,1.92-12.213,4.211-40.014-10.984-43.536-24.33-5.636-56.851,29.7-79.292,56.369,10.3,23.222,25.97,39.463,53.3,46.819" transform="translate(140.212 167.174)" fill="#f40"/>
        <path id="Path_18804" data-name="Path 18804" d="M229.731,272.12c-.686,0-2.045-1.417-2.967-2.817v-.357s.373-4.188.426-4.559c.021-.036,1.022-2.863,1.473-4.142a7.087,7.087,0,0,0,2.65-1.306c.638.588,2.433,6.477,3.593,11.879l-1.354.78c-.123-.008-.28-.012-.463-.012a9.984,9.984,0,0,0-3.272.52Z" transform="translate(208.695 238.307)" fill="#fff"/>
        <path id="Path_18805" data-name="Path 18805" d="M231.272,260.752a54.02,54.02,0,0,1,3.036,10.016l-.545.315c-.077,0-.157,0-.242,0a11.091,11.091,0,0,0-3.366.5,7.855,7.855,0,0,1-2.034-2.147c.048-.547.317-3.593.4-4.373.2-.576.858-2.435,1.283-3.641a7.318,7.318,0,0,0,1.469-.668m.273-2.258a.574.574,0,0,0-.323.108,4.95,4.95,0,0,1-2.523,1.173.545.545,0,0,1-.242-.038s-1.7,4.81-1.728,4.9-.442,4.716-.442,4.716v.63s2.164,3.46,3.883,3.46a1.154,1.154,0,0,0,.394-.067,9.061,9.061,0,0,1,2.957-.465c.424,0,.689.025.689.025l2.17-1.25s-2.729-13.195-4.835-13.195" transform="translate(208.256 237.897)"/>
        <path id="Path_18806" data-name="Path 18806" d="M230.041,259.493l2.2-2.452,3.756-.755,2.072-.071-.315,2.429-4.6,3.683Z" transform="translate(211.711 235.799)" fill="#fff"/>
        <path id="Path_18807" data-name="Path 18807" d="M237.64,257.632l-.129.985-3.7,2.963-1.861-1.694,1.39-1.55,3.313-.664Zm2.1-1.915-3.3.129-4.058.816-3.009,3.353,4.361,3.973,5.5-4.4Z" transform="translate(211.093 235.341)"/>
        <path id="Path_18808" data-name="Path 18808" d="M220.127,201.721c-3.578,0-15.581-1.145-19.873-15.9-5.467-18.81,6.466-35.082,8.947-38.193l31.741,15.355c-.3,3.309-1.964,19.253-7.266,31.806-1.724,4.085-7.3,6.936-13.548,6.936" transform="translate(182.992 135.861)" fill="#fff"/>
        <path id="Path_18809" data-name="Path 18809" d="M209.915,149.32l30.5,14.754c-.421,4.313-2.168,19.13-7.138,30.9-1.586,3.754-6.809,6.374-12.7,6.374-3.416,0-14.881-1.1-18.994-15.243-5.06-17.413,5.216-32.686,8.338-36.788m-.518-2.289s-15.843,18.034-9.579,39.587c3.478,11.956,12.592,16.567,20.753,16.567,6.546,0,12.482-2.969,14.393-7.495,6.047-14.324,7.389-32.716,7.389-32.716Z" transform="translate(182.548 135.316)"/>
        <path id="Path_18810" data-name="Path 18810" d="M249.213,146.964c-3.03-.7-5.442-.108-8.469.117-5.1.384-8.96-.791-13.721-2.145-5.874-1.671-11.578-2.921-17.308-.077-9.045,4.494-16,19.624-14.571,30.414a5.675,5.675,0,0,0,1.394,5.542,6.671,6.671,0,0,0,9.563.123c4.129-3.82,4.507-10.842,6.222-15.871.386-1.129,1.031-2.529,1.463-3.944,12.724,6.4,30.051,14.208,41.89,7.33,12.163-7.069,4.843-18.881-6.464-21.488" transform="translate(179.419 131.761)"/>
        <path id="Path_18811" data-name="Path 18811" d="M268.951,241.305v1.438l-20.15,14.6-18.516-5.129V242.88Z" transform="translate(211.936 222.078)" fill="#aab6c2"/>
        <path id="Path_18812" data-name="Path 18812" d="M223.831,255.195c0-15.829,10.954-28.663,24.465-28.663s24.465,12.833,24.465,28.663v62.7h31.082v26.159H252.624l-28.749.576s-.044-62.19-.044-89.439" transform="translate(205.996 208.482)" fill="#aab6c2"/>
        <path id="Path_18813" data-name="Path 18813" d="M248.811,282.809l-71.563,3.7,68.319,19.161Z" transform="translate(163.125 260.275)"/>
        <path id="Path_18814" data-name="Path 18814" d="M177.431,284.736l-.38,6.771,68.722,21-.023-8.611Z" transform="translate(162.943 262.048)" fill="#fff"/>
        <path id="Path_18815" data-name="Path 18815" d="M247.15,314.316l-70.6-21.573.482-8.628,1.1.311,68.987,19.347Zm-68.686-22.9,66.846,20.428-.019-6.679L178.74,286.5Z" transform="translate(162.485 261.477)"/>
        <path id="Path_18816" data-name="Path 18816" d="M360.557,290.064l-147.732,8.929.023,8.611,147.676-9.863Z" transform="translate(195.867 266.952)" fill="#fff"/>
        <path id="Path_18817" data-name="Path 18817" d="M212.374,309.05l-.027-10.452.862-.054,148.708-8.987-.038,9.509-.853.054Zm1.809-8.728.019,6.767,145.85-9.742.025-5.844Z" transform="translate(195.427 266.485)"/>
        <path id="Path_18818" data-name="Path 18818" d="M224.606,258.987a4.924,4.924,0,0,1,4.586-4.292l135.891-8.217a5.066,5.066,0,0,1,3.965,1.673,4.932,4.932,0,0,1,1.185,3.891l-10.988,77.266L213.38,338.125Z" transform="translate(196.378 226.839)" fill="#fff"/>
        <path id="Path_18819" data-name="Path 18819" d="M365.86,247.83a4,4,0,0,1,3.007,1.367,3.95,3.95,0,0,1,.97,3.145l-10.884,76.538-144,8.7,11.071-78.048a4.012,4.012,0,0,1,3.735-3.485l135.849-8.213Zm0-1.832c-.119,0-.242,0-.363.012l-135.849,8.213a5.837,5.837,0,0,0-5.44,5.077l-11.382,80.248,147.73-8.93L371.65,252.6a5.848,5.848,0,0,0-5.79-6.6" transform="translate(195.868 226.397)"/>
        <path id="Path_18820" data-name="Path 18820" d="M286.324,344.818a28.071,28.071,0,0,1-27.914-28.161c0-.4,0-.833.04-1.271l.05-.559h-.09V254.952c0-13.435-7.814-24.78-18.414-28.161h72.621a28.091,28.091,0,0,1,27.954,28.161v43.86a23.849,23.849,0,0,0-11.316-2.84,24.285,24.285,0,0,0-24.177,24.338c0,19.1-11.868,23.438-15.5,24.311a25.616,25.616,0,0,1-3.249.2" transform="translate(220.873 208.72)" fill="#fdfcff"/>
        <path id="Path_18821" data-name="Path 18821" d="M315.772,227.553A27.574,27.574,0,0,1,343.213,255.2v43.011a24.439,24.439,0,0,0-10.8-2.508,24.8,24.8,0,0,0-24.69,24.853c0,18.579-11.389,22.9-15.028,23.793-.086.008-.18.023-.3.04a23.9,23.9,0,0,1-2.915.157,27.556,27.556,0,0,1-27.4-27.645c0-.384,0-.8.036-1.223l.061-1.121h-.1V255.2c0-12.547-6.719-23.3-16.186-27.647Zm0-1.029h-79.2c13.515,0,24.484,12.86,24.484,28.676v60.383h.042c-.042.455-.042.906-.042,1.319a28.542,28.542,0,0,0,28.427,28.672,24.781,24.781,0,0,0,3.042-.165c.083,0,.206-.042.328-.042,3.243-.78,15.9-5.05,15.9-24.811a23.727,23.727,0,0,1,23.662-23.824,23.2,23.2,0,0,1,11.829,3.2V255.2a28.579,28.579,0,0,0-28.467-28.676" transform="translate(217.718 208.475)" fill="#20110e"/>
        <rect id="Rectangle_8834" data-name="Rectangle 8834" width="13.629" height="11.904" transform="translate(542.058 520.881)" fill="#fff"/>
        <path id="Path_18822" data-name="Path 18822" d="M295.426,282.672h-11.8V272.6h11.8Zm1.832-11.9H281.8v13.736h15.461Z" transform="translate(259.344 249.195)"/>
        <path id="Path_18823" data-name="Path 18823" d="M291.105,272.5v1.008H266.84l-.027-1.008Z" transform="translate(245.553 250.788)"/>
        <path id="Path_18824" data-name="Path 18824" d="M304.151,274.083v1.01H252.667l-.029-1.01Z" transform="translate(232.508 252.244)"/>
        <path id="Path_18825" data-name="Path 18825" d="M298.983,275.664v1.01h-40.7l-.029-1.01Z" transform="translate(237.675 253.699)"/>
        <path id="Path_18826" data-name="Path 18826" d="M269.107,273.51h-7.491l-.025-1.008h7.489Z" transform="translate(240.747 250.789)"/>
        <rect id="Rectangle_8835" data-name="Rectangle 8835" width="13.629" height="11.904" transform="translate(542.058 499.777)" fill="#fff"/>
        <path id="Path_18827" data-name="Path 18827" d="M295.426,271.682h-11.8v-10.07h11.8Zm1.832-11.9H281.8v13.736h15.461Z" transform="translate(259.344 239.081)"/>
        <path id="Path_18828" data-name="Path 18828" d="M291.105,261.511v1.01H266.84l-.027-1.01Z" transform="translate(245.553 240.674)"/>
        <path id="Path_18829" data-name="Path 18829" d="M304.151,263.093v1.01H252.667l-.029-1.01Z" transform="translate(232.508 242.13)"/>
        <path id="Path_18830" data-name="Path 18830" d="M298.983,264.674v1.01h-40.7l-.029-1.01Z" transform="translate(237.675 243.584)"/>
        <path id="Path_18831" data-name="Path 18831" d="M269.107,262.521h-7.491l-.025-1.01h7.489Z" transform="translate(240.747 240.673)"/>
        <rect id="Rectangle_8836" data-name="Rectangle 8836" width="13.629" height="11.902" transform="translate(542.058 478.672)" fill="#fff"/>
        <path id="Path_18832" data-name="Path 18832" d="M295.426,260.692h-11.8v-10.07h11.8Zm1.832-11.9H281.8v13.736h15.461Z" transform="translate(259.344 228.966)"/>
        <path id="Path_18833" data-name="Path 18833" d="M291.105,250.521v1.01H266.84l-.027-1.01Z" transform="translate(245.553 230.559)"/>
        <path id="Path_18834" data-name="Path 18834" d="M304.151,252.1v1.01H252.667l-.029-1.01Z" transform="translate(232.508 232.016)"/>
        <path id="Path_18835" data-name="Path 18835" d="M298.983,253.684v1.01h-40.7l-.029-1.01Z" transform="translate(237.675 233.47)"/>
        <path id="Path_18836" data-name="Path 18836" d="M269.107,251.531h-7.491l-.025-1.01h7.489Z" transform="translate(240.747 230.559)"/>
        <rect id="Rectangle_8837" data-name="Rectangle 8837" width="13.629" height="11.902" transform="translate(542.058 457.568)" fill="#fff"/>
        <path id="Path_18837" data-name="Path 18837" d="M295.426,249.7h-11.8v-10.07h11.8Zm1.832-11.9H281.8v13.736h15.461Z" transform="translate(259.344 218.852)"/>
        <path id="Path_18838" data-name="Path 18838" d="M291.105,239.531v1.01H266.84l-.027-1.01Z" transform="translate(245.553 220.445)"/>
        <path id="Path_18839" data-name="Path 18839" d="M304.151,241.113v1.01H252.667l-.029-1.01Z" transform="translate(232.508 221.901)"/>
        <path id="Path_18840" data-name="Path 18840" d="M298.983,242.694v1.01h-40.7l-.029-1.01Z" transform="translate(237.675 223.356)"/>
        <path id="Path_18841" data-name="Path 18841" d="M269.107,240.541h-7.491l-.025-1.01h7.489Z" transform="translate(240.747 220.445)"/>
        <path id="Path_18842" data-name="Path 18842" d="M285.685,263.084h1.521a8.917,8.917,0,0,0-1.481.083Z" transform="translate(262.922 242.121)" fill="#fdfcff"/>
        <path id="Path_18843" data-name="Path 18843" d="M287.206,263.084h-1.521l.04.083a8.917,8.917,0,0,1,1.481-.083" transform="translate(262.922 242.121)" fill="#20110e"/>
        <path id="Path_18844" data-name="Path 18844" d="M307.318,410.87V286.664A24.364,24.364,0,0,0,290.1,263.351h72.12a27.639,27.639,0,0,1,19.4,7.908,28.072,28.072,0,0,1,8.511,19.284V410.87Z" transform="translate(266.985 242.367)" fill="#fdfcff"/>
        <path id="Path_18845" data-name="Path 18845" d="M365.555,264.111a27.123,27.123,0,0,1,19.042,7.758,27.56,27.56,0,0,1,8.357,18.9V410.6H311.166V286.907a24.894,24.894,0,0,0-14.863-22.8Zm0-1.027H286.476a23.73,23.73,0,0,1,23.662,23.823V411.626h83.845V290.769a28.7,28.7,0,0,0-8.668-19.633,28.243,28.243,0,0,0-19.76-8.052" transform="translate(263.65 242.121)" fill="#20110e"/>
        <path id="Path_18846" data-name="Path 18846" d="M305.776,263.075a23.751,23.751,0,0,0-23.658,23.843c0,22.664-16.62,24.93-16.62,24.93l63.935.19v-25.12a23.75,23.75,0,0,0-23.656-23.843" transform="translate(244.342 242.113)" fill="#aab6c2"/>
        <rect id="Rectangle_8838" data-name="Rectangle 8838" width="13.628" height="11.902" transform="translate(637.3 633.625)" fill="#fff"/>
        <path id="Path_18847" data-name="Path 18847" d="M345.025,341.383h-11.8v-10.07h11.8Zm1.832-11.9H331.395v13.736h15.462Z" transform="translate(304.989 303.228)"/>
        <path id="Path_18848" data-name="Path 18848" d="M340.7,331.214v1.006H316.439l-.029-1.006Z" transform="translate(291.198 304.823)"/>
        <path id="Path_18849" data-name="Path 18849" d="M353.748,332.794v1.01H302.264l-.029-1.01Z" transform="translate(278.153 306.277)"/>
        <path id="Path_18850" data-name="Path 18850" d="M348.58,334.375v1.01h-40.7l-.027-1.01Z" transform="translate(283.32 307.732)"/>
        <path id="Path_18851" data-name="Path 18851" d="M318.707,332.22h-7.491l-.029-1.006h7.491Z" transform="translate(286.391 304.823)"/>
        <rect id="Rectangle_8839" data-name="Rectangle 8839" width="13.628" height="11.902" transform="translate(637.3 612.521)" fill="#fff"/>
        <path id="Path_18852" data-name="Path 18852" d="M345.025,330.393h-11.8v-10.07h11.8Zm1.832-11.9H331.395v13.736h15.462Z" transform="translate(304.989 293.114)"/>
        <path id="Path_18853" data-name="Path 18853" d="M340.7,320.224v1.01H316.439l-.029-1.01Z" transform="translate(291.198 294.709)"/>
        <path id="Path_18854" data-name="Path 18854" d="M353.748,321.8v1.01H302.264l-.029-1.01Z" transform="translate(278.153 296.163)"/>
        <path id="Path_18855" data-name="Path 18855" d="M348.58,323.385v1.01h-40.7l-.027-1.01Z" transform="translate(283.32 297.617)"/>
        <path id="Path_18856" data-name="Path 18856" d="M318.707,321.234h-7.491l-.029-1.01h7.491Z" transform="translate(286.391 294.708)"/>
        <rect id="Rectangle_8840" data-name="Rectangle 8840" width="13.628" height="11.902" transform="translate(637.3 591.416)" fill="#fff"/>
        <path id="Path_18857" data-name="Path 18857" d="M345.025,319.4h-11.8v-10.07h11.8Zm1.832-11.9H331.395v13.736h15.462Z" transform="translate(304.989 282.999)"/>
        <path id="Path_18858" data-name="Path 18858" d="M340.7,309.234v1.01H316.439l-.029-1.01Z" transform="translate(291.198 284.594)"/>
        <path id="Path_18859" data-name="Path 18859" d="M353.748,310.814v1.01H302.264l-.029-1.01Z" transform="translate(278.153 286.049)"/>
        <path id="Path_18860" data-name="Path 18860" d="M348.58,312.395V313.4h-40.7l-.027-1.008Z" transform="translate(283.32 287.503)"/>
        <path id="Path_18861" data-name="Path 18861" d="M318.707,310.244h-7.491l-.029-1.01h7.491Z" transform="translate(286.391 284.594)"/>
        <rect id="Rectangle_8841" data-name="Rectangle 8841" width="13.628" height="11.904" transform="translate(637.3 570.312)" fill="#fff"/>
        <path id="Path_18862" data-name="Path 18862" d="M345.025,308.413h-11.8v-10.07h11.8Zm1.832-11.9H331.395v13.736h15.462Z" transform="translate(304.989 272.885)"/>
        <path id="Path_18863" data-name="Path 18863" d="M340.7,298.244v1.01H316.439l-.029-1.01Z" transform="translate(291.198 274.48)"/>
        <path id="Path_18864" data-name="Path 18864" d="M353.748,299.824v1.01H302.264l-.029-1.01Z" transform="translate(278.153 275.934)"/>
        <path id="Path_18865" data-name="Path 18865" d="M348.58,301.4v1.01h-40.7l-.027-1.01Z" transform="translate(283.32 277.389)"/>
        <path id="Path_18866" data-name="Path 18866" d="M318.707,299.254h-7.491l-.029-1.01h7.491Z" transform="translate(286.391 274.479)"/>
        <rect id="Rectangle_8842" data-name="Rectangle 8842" width="13.628" height="11.904" transform="translate(637.3 549.208)" fill="#fff"/>
        <path id="Path_18867" data-name="Path 18867" d="M345.025,297.423h-11.8v-10.07h11.8Zm1.832-11.9H331.395v13.736h15.462Z" transform="translate(304.989 262.771)"/>
        <path id="Path_18868" data-name="Path 18868" d="M340.7,287.254v1.01H316.439l-.029-1.01Z" transform="translate(291.198 264.365)"/>
        <path id="Path_18869" data-name="Path 18869" d="M353.748,288.834v1.008H302.264l-.029-1.008Z" transform="translate(278.153 265.82)"/>
        <path id="Path_18870" data-name="Path 18870" d="M348.58,290.415v1.01h-40.7l-.027-1.01Z" transform="translate(283.32 267.274)"/>
        <path id="Path_18871" data-name="Path 18871" d="M318.707,288.263h-7.491l-.029-1.01h7.491Z" transform="translate(286.391 264.365)"/>
        <rect id="Rectangle_8843" data-name="Rectangle 8843" width="13.628" height="11.904" transform="translate(637.3 528.103)" fill="#fff"/>
        <path id="Path_18872" data-name="Path 18872" d="M345.025,286.433h-11.8v-10.07h11.8Zm1.832-11.9H331.395v13.736h15.462Z" transform="translate(304.989 252.656)"/>
        <path id="Path_18873" data-name="Path 18873" d="M340.7,276.264v1.01H316.439l-.029-1.01Z" transform="translate(291.198 254.251)"/>
        <path id="Path_18874" data-name="Path 18874" d="M353.748,277.844v1.01H302.264l-.029-1.01Z" transform="translate(278.153 255.706)"/>
        <path id="Path_18875" data-name="Path 18875" d="M348.58,279.425v1.01h-40.7l-.027-1.01Z" transform="translate(283.32 257.16)"/>
        <path id="Path_18876" data-name="Path 18876" d="M318.707,277.273h-7.491l-.029-1.01h7.491Z" transform="translate(286.391 254.251)"/>
        <g id="Group_10481" data-name="Group 10481" transform="translate(554.193 71)">
          <g id="Group_10479-2" data-name="Group 10479" transform="translate(0.48 173.215)" clip-path="url(#clip-path-5)">
            <rect id="Rectangle_8846-2" data-name="Rectangle 8846" width="234.327" height="56.799" transform="translate(0 0)" fill="url(#linear-gradient)"/>
          </g>
          <path id="Path_18767-2" data-name="Path 18767" d="M234.577,90.2c0,31.37-52.454,56.8-117.164,56.8S.25,121.571.25,90.2Z" transform="translate(0.23 83.014)" fill="none" stroke="#000" stroke-width="1.5"/>
          <path id="Path_18768-2" data-name="Path 18768" d="M1.022,167.76l-.772-.686L117.027,6.672l.772.686Z" transform="translate(0.23 6.141)" stroke="#232323" stroke-width="1"/>
          <path id="Path_18769-2" data-name="Path 18769" d="M177.838,168.443,61.061,7.357l.772-.686L178.612,167.76Z" transform="translate(56.196 6.141)" stroke="#232323" stroke-width="1"/>
        </g>
      </g>
    </g>
  </g>
</svg>
