<svg xmlns="http://www.w3.org/2000/svg" xmlns:xlink="http://www.w3.org/1999/xlink" width="108" height="131.645" viewBox="0 0 108 131.645">
  <defs>
    <clipPath id="clip-path">
      <rect id="Rectangle_4309" data-name="Rectangle 4309" width="108" height="131.645" transform="translate(56 20.951)" fill="#fff" stroke="#707070" stroke-width="1"/>
    </clipPath>
    <clipPath id="clip-path-2">
      <rect id="Rectangle_4302" data-name="Rectangle 4302" width="134.549" height="131.645" fill="none" stroke="rgba(0,0,0,0)" stroke-width="1"/>
    </clipPath>
  </defs>
  <g id="Mask_Group_172" data-name="Mask Group 172" transform="translate(-56 -20.951)" clip-path="url(#clip-path)">
    <g id="Group_4428" data-name="Group 4428" transform="translate(29.451 20.952)">
      <g id="Group_4415" data-name="Group 4415">
        <g id="Group_4414" data-name="Group 4414" clip-path="url(#clip-path-2)">
          <path id="Path_9170" data-name="Path 9170" d="M187.582,397.844,200.976,376H174.188Z" transform="translate(-120.308 -375.709)" fill="none" stroke="#f40" stroke-width="1"/>
        </g>
      </g>
      <path id="Path_9171" data-name="Path 9171" d="M187.582,247.844,200.976,226H174.188Z" transform="translate(-120.308 -182.021)" fill="none" stroke="#f40" stroke-width="1"/>
      <g id="Group_4417" data-name="Group 4417">
        <g id="Group_4416" data-name="Group 4416" clip-path="url(#clip-path-2)">
          <path id="Path_9172" data-name="Path 9172" d="M274.223,397.844,287.617,376H260.829Z" transform="translate(-233.75 -375.709)" fill="none" stroke="#f40" stroke-width="1"/>
          <path id="Path_9173" data-name="Path 9173" d="M100.9,397.844,114.3,376H87.508Z" transform="translate(-6.816 -375.709)" fill="none" stroke="#f40" stroke-width="1"/>
        </g>
      </g>
      <path id="Path_9174" data-name="Path 9174" d="M230.922,322.844,244.316,301H217.528Z" transform="translate(-177.055 -278.865)" fill="none" stroke="#f40" stroke-width="1"/>
      <path id="Path_9175" data-name="Path 9175" d="M144.242,322.844,157.636,301H130.848Z" transform="translate(-63.562 -278.865)" fill="none" stroke="#f40" stroke-width="1"/>
      <path id="Path_9176" data-name="Path 9176" d="M144.261,226l-13.394,21.844h26.788Z" transform="translate(-63.587 -182.021)" fill="none" stroke="#f40" stroke-width="1"/>
      <path id="Path_9177" data-name="Path 9177" d="M100.921,301,87.527,322.844h26.788Z" transform="translate(-6.841 -278.865)" fill="none" stroke="#f40" stroke-width="1"/>
      <g id="Group_4419" data-name="Group 4419">
        <g id="Group_4418" data-name="Group 4418" clip-path="url(#clip-path-2)">
          <path id="Path_9178" data-name="Path 9178" d="M14.26,397.844,27.655,376H.866Z" transform="translate(106.626 -375.709)" fill="none" stroke="#f40" stroke-width="1"/>
        </g>
      </g>
      <path id="Path_9179" data-name="Path 9179" d="M57.6,322.844,70.995,301H44.206Z" transform="translate(49.88 -278.865)" fill="#f40" stroke="rgba(0,0,0,0)" stroke-width="1"/>
      <path id="Path_9180" data-name="Path 9180" d="M57.6,322.844,70.995,301H44.206Z" transform="translate(49.88 -278.865)" fill="none" stroke="#f40" stroke-width="1"/>
      <g id="Group_4421" data-name="Group 4421">
        <g id="Group_4420" data-name="Group 4420" clip-path="url(#clip-path-2)">
          <path id="Path_9181" data-name="Path 9181" d="M14.28,301,.886,322.844H27.674Z" transform="translate(106.601 -278.865)" fill="none" stroke="#f40" stroke-width="1"/>
        </g>
      </g>
      <path id="Path_9183" data-name="Path 9183" d="M317.49,226,304.1,247.844h26.788Z" transform="translate(-290.401 -182.021)" fill="none" stroke="#f40" stroke-width="1"/>
      <g id="Group_4423" data-name="Group 4423">
        <g id="Group_4422" data-name="Group 4422" clip-path="url(#clip-path-2)">
          <path id="Path_9184" data-name="Path 9184" d="M317.49,376,304.1,397.844h26.788Z" transform="translate(-290.401 -375.709)" fill="none" stroke="#f40" stroke-width="1"/>
        </g>
      </g>
      <path id="Path_9185" data-name="Path 9185" d="M230.849,226l-13.394,21.844h26.788Z" transform="translate(-176.959 -182.021)" fill="none" stroke="#f40" stroke-width="1"/>
      <path id="Path_9186" data-name="Path 9186" d="M274.15,301l-13.394,21.844h26.788Z" transform="translate(-233.655 -278.865)" fill="none" stroke="#f40" stroke-width="1"/>
      <g id="Group_4425" data-name="Group 4425">
        <g id="Group_4424" data-name="Group 4424" clip-path="url(#clip-path-2)">
          <path id="Path_9187" data-name="Path 9187" d="M360.83,301l-13.394,21.844h26.788Z" transform="translate(-347.147 -278.865)" fill="none" stroke="#f40" stroke-width="1"/>
        </g>
      </g>
      <path id="Path_9188" data-name="Path 9188" d="M317.559,172.844,330.953,151H304.165Z" transform="translate(-290.491 -85.178)" fill="none" stroke="#f40" stroke-width="1"/>
      <g id="Group_4427" data-name="Group 4427">
        <g id="Group_4426" data-name="Group 4426" clip-path="url(#clip-path-2)">
          <path id="Path_9189" data-name="Path 9189" d="M317.559,22.844,330.953,1H304.165Z" transform="translate(-290.491 108.51)" fill="none" stroke="#f40" stroke-width="1"/>
          <path id="Path_9190" data-name="Path 9190" d="M360.9,97.844,374.293,76H347.5Z" transform="translate(-347.237 11.666)" fill="none" stroke="#f40" stroke-width="1"/>
          <path id="Path_9191" data-name="Path 9191" d="M274.238,1,260.844,22.844h26.788Z" transform="translate(-233.77 108.51)" fill="none" stroke="#f40" stroke-width="1"/>
        </g>
      </g>
    </g>
  </g>
</svg>
