<svg xmlns="http://www.w3.org/2000/svg" xmlns:xlink="http://www.w3.org/1999/xlink" width="169" height="210" viewBox="0 0 169 210">
  <defs>
    <clipPath id="clip-path">
      <rect id="Rectangle_4624" data-name="Rectangle 4624" width="169" height="210" transform="translate(71 25.745)" fill="#fff" stroke="#707070" stroke-width="1"/>
    </clipPath>
    <clipPath id="clip-path-2">
      <rect id="Rectangle_4617" data-name="Rectangle 4617" width="214.639" height="210.007" fill="none" stroke="rgba(0,0,0,0)" stroke-width="1"/>
    </clipPath>
  </defs>
  <g id="Mask_Group_4514" data-name="Mask Group 4514" transform="translate(-71 -25.745)" clip-path="url(#clip-path)">
    <g id="Group_5276" data-name="Group 5276" transform="translate(25.787 25.689)">
      <g id="Group_5263" data-name="Group 5263">
        <g id="Group_5262" data-name="Group 5262" clip-path="url(#clip-path-2)">
          <path id="Path_10766" data-name="Path 10766" d="M195.555,410.846,216.922,376H174.188Z" transform="translate(-88.237 -375.535)" fill="none" stroke="#f40" stroke-width="1"/>
        </g>
      </g>
      <path id="Path_10767" data-name="Path 10767" d="M195.555,260.846,216.922,226H174.188Z" transform="translate(-88.237 -155.843)" fill="none" stroke="#f40" stroke-width="1"/>
      <g id="Group_5265" data-name="Group 5265">
        <g id="Group_5264" data-name="Group 5264" clip-path="url(#clip-path-2)">
          <path id="Path_10768" data-name="Path 10768" d="M282.2,410.846,303.563,376H260.829Z" transform="translate(-217.631 -375.535)" fill="none" stroke="#f40" stroke-width="1"/>
          <path id="Path_10769" data-name="Path 10769" d="M108.875,410.846,130.242,376H87.508Z" transform="translate(41.216 -375.535)" fill="none" stroke="#f40" stroke-width="1"/>
        </g>
      </g>
      <path id="Path_10770" data-name="Path 10770" d="M238.895,335.846,260.262,301H217.528Z" transform="translate(-152.963 -265.689)" fill="none" stroke="#f40" stroke-width="1"/>
      <path id="Path_10771" data-name="Path 10771" d="M152.215,335.846,173.582,301H130.848Z" transform="translate(-23.51 -265.689)" fill="none" stroke="#f40" stroke-width="1"/>
      <path id="Path_10772" data-name="Path 10772" d="M152.234,226l-21.367,34.846H173.6Z" transform="translate(-23.539 -155.843)" fill="none" stroke="#f40" stroke-width="1"/>
      <path id="Path_10773" data-name="Path 10773" d="M108.894,301,87.527,335.846h42.734Z" transform="translate(41.187 -265.689)" fill="none" stroke="#f40" stroke-width="1"/>
      <g id="Group_5267" data-name="Group 5267">
        <g id="Group_5266" data-name="Group 5266" clip-path="url(#clip-path-2)">
          <path id="Path_10774" data-name="Path 10774" d="M22.233,410.846,43.6,376H.866Z" transform="translate(170.611 -375.535)" fill="none" stroke="#f40" stroke-width="1"/>
        </g>
      </g>
      <path id="Path_10775" data-name="Path 10775" d="M65.573,335.846,86.94,301H44.206Z" transform="translate(105.885 -265.689)" fill="#f40" stroke="rgba(0,0,0,0)" stroke-width="1"/>
      <path id="Path_10776" data-name="Path 10776" d="M65.573,335.846,86.94,301H44.206Z" transform="translate(105.885 -265.689)" fill="none" stroke="#f40" stroke-width="1"/>
      <g id="Group_5269" data-name="Group 5269">
        <g id="Group_5268" data-name="Group 5268" clip-path="url(#clip-path-2)">
          <path id="Path_10777" data-name="Path 10777" d="M22.253,301,.886,335.846H43.62Z" transform="translate(170.582 -265.689)" fill="none" stroke="#f40" stroke-width="1"/>
        </g>
      </g>
      <path id="Path_10778" data-name="Path 10778" d="M325.463,226,304.1,260.846H346.83Z" transform="translate(-282.249 -155.843)" fill="none" stroke="#f40" stroke-width="1"/>
      <g id="Group_5271" data-name="Group 5271">
        <g id="Group_5270" data-name="Group 5270" clip-path="url(#clip-path-2)">
          <path id="Path_10779" data-name="Path 10779" d="M325.463,376,304.1,410.846H346.83Z" transform="translate(-282.249 -375.535)" fill="none" stroke="#f40" stroke-width="1"/>
        </g>
      </g>
      <path id="Path_10780" data-name="Path 10780" d="M238.822,226l-21.367,34.846h42.734Z" transform="translate(-152.854 -155.843)" fill="none" stroke="#f40" stroke-width="1"/>
      <path id="Path_10781" data-name="Path 10781" d="M282.123,301l-21.367,34.846H303.49Z" transform="translate(-217.522 -265.689)" fill="none" stroke="#f40" stroke-width="1"/>
      <g id="Group_5273" data-name="Group 5273">
        <g id="Group_5272" data-name="Group 5272" clip-path="url(#clip-path-2)">
          <path id="Path_10782" data-name="Path 10782" d="M368.8,301l-21.367,34.846H390.17Z" transform="translate(-346.975 -265.689)" fill="none" stroke="#f40" stroke-width="1"/>
        </g>
      </g>
      <path id="Path_10783" data-name="Path 10783" d="M325.532,185.846,346.9,151H304.165Z" transform="translate(-282.351 -45.997)" fill="none" stroke="#f40" stroke-width="1"/>
      <g id="Group_5275" data-name="Group 5275">
        <g id="Group_5274" data-name="Group 5274" clip-path="url(#clip-path-2)">
          <path id="Path_10784" data-name="Path 10784" d="M325.532,35.846,346.9,1H304.165Z" transform="translate(-282.351 173.696)" fill="none" stroke="#f40" stroke-width="1"/>
          <path id="Path_10785" data-name="Path 10785" d="M368.872,110.846,390.239,76H347.5Z" transform="translate(-347.077 63.85)" fill="none" stroke="#f40" stroke-width="1"/>
          <path id="Path_10786" data-name="Path 10786" d="M282.211,1,260.844,35.846h42.734Z" transform="translate(-217.654 173.696)" fill="none" stroke="#f40" stroke-width="1"/>
        </g>
      </g>
    </g>
  </g>
</svg>
