<svg xmlns="http://www.w3.org/2000/svg" width="59.322" height="70.161" viewBox="0 0 59.322 70.161">
  <g id="Group_739" data-name="Group 739" transform="translate(0 0)">
    <path id="Path_2335" data-name="Path 2335" d="M225.97,81.234a14.522,14.522,0,0,1-1.991-1.124,3.661,3.661,0,0,1-1.432-2.917c-.045-3-.061-5.991-.088-8.987,0-.271,0-.542,0-.915-.989,0-1.916-.01-2.844,0a4.491,4.491,0,0,1-4.394-2.573,4.418,4.418,0,0,1-.463-1.9q-.047-13.96-.026-27.922a2.63,2.63,0,0,1,.039-.3h38.554c.012.236.033.457.033.679,0,9.01-.03,18.02.02,27.03a4.659,4.659,0,0,1-3.581,4.855,22.276,22.276,0,0,1-3.2.139c-.292.01-.584,0-.964,0V68.1c0,2.516-.081,5.034.022,7.546.113,2.737-.783,4.721-3.534,5.583h-1.643c-2.754-.842-3.668-2.814-3.56-5.554.1-2.531.021-5.069.021-7.6v-.728h-5.789v.8q0,4.213,0,8.426a4.181,4.181,0,0,1-1.372,3.44,13.7,13.7,0,0,1-2.165,1.223Z" transform="translate(-204.383 -11.073)" fill="#1a1a1a"/>
    <path id="Path_2336" data-name="Path 2336" d="M242.414,5.817c.946-1.738,1.851-3.4,2.757-5.063.1-.18.162-.424.315-.519.217-.136.615-.3.733-.2a.874.874,0,0,1,.26.771,15.1,15.1,0,0,1-.882,1.7L243.531,6.33c6.035,3.437,9.619,8.422,9.9,15.591h-39c.265-7.185,3.859-12.154,9.934-15.591l-2.709-5.006c-.1-.181-.267-.367-.262-.547.007-.256.075-.63.246-.73s.527.035.748.162c.154.088.222.335.32.515.916,1.681,1.83,3.364,2.772,5.094a21.241,21.241,0,0,1,16.93,0m-17.369,9.058a1.661,1.661,0,0,0,1.648-1.575,1.689,1.689,0,0,0-1.617-1.683,1.639,1.639,0,0,0-1.6,1.618,1.612,1.612,0,0,0,1.565,1.641m17.8,0a1.616,1.616,0,0,0,1.571-1.635,1.641,1.641,0,0,0-1.591-1.623,1.689,1.689,0,0,0-1.623,1.678,1.664,1.664,0,0,0,1.643,1.58" transform="translate(-204.287 0)" fill="#1a1a1a"/>
    <path id="Path_2337" data-name="Path 2337" d="M274.248,46.672c0-3.154-.062-6.31.022-9.463a4.115,4.115,0,0,1,4.14-3.852,4.22,4.22,0,0,1,4.355,3.712,13.537,13.537,0,0,1,.075,1.367c0,5.648,0,11.295.007,16.943a4.43,4.43,0,0,1-2.389,4.294,4.226,4.226,0,0,1-6.186-3.471c-.119-3.172-.026-6.353-.026-9.531Z" transform="translate(-223.525 -10.677)" fill="#1a1a1a"/>
    <path id="Path_2338" data-name="Path 2338" d="M208.071,46.728c0,3.177.06,6.355-.021,9.531a4.111,4.111,0,0,1-4.129,3.861,4.252,4.252,0,0,1-4.364-3.708,13.923,13.923,0,0,1-.079-1.436c0-5.624.006-11.247-.008-16.871a4.435,4.435,0,0,1,2.386-4.3,4.279,4.279,0,0,1,6.219,3.457c.013.16.037.319.037.479q0,4.492,0,8.984h-.043" transform="translate(-199.471 -10.666)" fill="#1a1a1a"/>
  </g>
</svg>
