<svg xmlns="http://www.w3.org/2000/svg" width="70.412" height="70.394" viewBox="0 0 70.412 70.394">
  <g id="iOS-01" transform="translate(0.001 -0.004)">
    <path id="Path_4656" data-name="Path 4656" d="M35.224.008c5.28,0,10.56-.011,15.838,0A19.143,19.143,0,0,1,69.982,15.32a19.4,19.4,0,0,1,.4,3.965q.048,15.916.013,31.832A19.19,19.19,0,0,1,54.011,70.183a19.736,19.736,0,0,1-2.948.2q-15.839.022-31.677,0A19.136,19.136,0,0,1,.437,55.119a19.37,19.37,0,0,1-.411-4.043Q-.024,35.2.012,19.323A19.188,19.188,0,0,1,16.358.224,20.791,20.791,0,0,1,19.546.018C24.771,0,30,.008,35.224.008ZM67.2,35.283c0-5.251.014-10.5-.013-15.753a17.588,17.588,0,0,0-.269-3.177A15.864,15.864,0,0,0,51.1,3.212q-15.914-.026-31.829,0A15.93,15.93,0,0,0,3.209,19.323Q3.185,35.2,3.216,51.068A16.04,16.04,0,0,0,19.423,67.19q15.794.017,31.589-.008A16.039,16.039,0,0,0,67.2,50.954q.012-7.836,0-15.673Z" transform="translate(0 0)" fill="#1a1a1a"/>
    <path id="Path_4657" data-name="Path 4657" d="M150.025,167.116a11.81,11.81,0,0,1-.928,5.217,8.321,8.321,0,0,1-7.476,5.264c-3.416.264-6.387-.649-8.495-3.551a10.353,10.353,0,0,1-1.775-4.653,14.9,14.9,0,0,1,.4-6.481,8.774,8.774,0,0,1,9.266-6.516c5.272.3,8.589,3.629,9,9.043.043.555.006,1.116.006,1.676Zm-3.021.09c-.194-1.228-.27-2.271-.534-3.266a5.985,5.985,0,0,0-11.577-.258,10.884,10.884,0,0,0,.083,6.911,5.727,5.727,0,0,0,5.568,4.123,5.623,5.623,0,0,0,5.673-3.954A28.052,28.052,0,0,0,147,167.2Z" transform="translate(-110.19 -131.363)" fill="#1a1a1a"/>
    <path id="Path_4658" data-name="Path 4658" d="M270.23,171.869h3.057c.865,2.335,2.938,3.492,5.652,3.055a6.385,6.385,0,0,0,2.439-.885,2.436,2.436,0,0,0-.267-4.384,34.465,34.465,0,0,0-4.323-1.36c-.915-.28-1.852-.5-2.74-.849-4.44-1.75-3.96-7.463-.952-9.52a9.388,9.388,0,0,1,10.163.19,5.285,5.285,0,0,1,2.119,4.16h-2.909a4.843,4.843,0,0,0-6.914-2.428,2.676,2.676,0,0,0-1.58,2.49,2.227,2.227,0,0,0,1.681,2.193c1.534.517,3.117.889,4.672,1.345a17.254,17.254,0,0,1,2.188.741,5.506,5.506,0,0,1,1.318,9.272,8.373,8.373,0,0,1-3.1,1.529,10.057,10.057,0,0,1-6.951-.5,5.786,5.786,0,0,1-3.548-5.054Z" transform="translate(-227.009 -131.488)" fill="#1a1a1a"/>
    <path id="Path_4659" data-name="Path 4659" d="M80.167,206.156c-.27.014-.481.034-.693.035-.715,0-1.432,0-2.2,0V190.95h2.9v15.2Z" transform="translate(-64.912 -160.405)" fill="#1a1a1a"/>
    <path id="Path_4660" data-name="Path 4660" d="M77.954,152.692a1.845,1.845,0,0,1-1.9,1.843,1.88,1.88,0,0,1-1.975-1.855,1.94,1.94,0,0,1,3.874.013Z" transform="translate(-62.232 -126.726)" fill="#1a1a1a"/>
  </g>
</svg>
