<?xml version="1.0" encoding="UTF-8"?><svg id="Layer_1" xmlns="http://www.w3.org/2000/svg" viewBox="0 0 70.41 70.39"><defs><style>.cls-1{fill:#1a1a1a;}</style></defs><path class="cls-1" d="m29.07,28.14c-2.1.5-3.77,2.1-4.37,4.18-.72,2.25-.69,4.68.08,6.91.72,2.47,3,4.15,5.57,4.12,2.57.14,4.91-1.49,5.67-3.95.34-1.17.6-2.36.78-3.56h0c-.19-1.22-.27-2.26-.53-3.26-.77-3.22-3.99-5.2-7.21-4.44Z"/><path class="cls-1" d="m70.41,21.41c0-.19-.02-.37-.03-.56,0-.52,0-1.04,0-1.56,0-1.33-.13-2.66-.4-3.97C68.15,6.34,60.22-.07,51.06,0c-.51,0-1.02,0-1.53,0-.19,0-.37-.03-.56-.03h-27.55c-.25,0-.49.03-.74.04-.38,0-.76,0-1.14,0-1.07-.01-2.13.06-3.19.21C6.92,1.63-.05,9.77.01,19.32c0,.59,0,1.18,0,1.77,0,.11-.02.21-.02.31v27.55c0,.19.02.37.03.56,0,.52,0,1.03,0,1.55,0,1.36.13,2.71.41,4.04,1.85,8.97,9.79,15.36,18.95,15.26.61,0,1.22,0,1.82,0,.07,0,.14.01.22.01h27.55c.07,0,.14-.01.22-.01.62,0,1.24,0,1.87,0,.99,0,1.97-.06,2.95-.2,9.44-1.4,16.42-9.52,16.38-19.07,0-.61,0-1.21,0-1.82,0-.11.02-.22.02-.33v-27.55Zm-15.1,17.83c-.27-.48-.7-.86-1.21-1.07-1.41-.55-2.85-1-4.32-1.36-.92-.28-1.85-.5-2.74-.85-4.44-1.75-3.96-7.46-.95-9.52,3.13-1.93,7.11-1.86,10.16.19,1.31.98,2.1,2.52,2.12,4.16h-2.91c-.98-2.49-3.79-3.71-6.28-2.73-.22.09-.43.19-.63.3-.98.44-1.6,1.42-1.58,2.49-.02,1.03.68,1.94,1.68,2.19,1.53.52,3.12.89,4.67,1.34.75.2,1.48.45,2.19.74,2.79,1.22,4.05,4.47,2.84,7.25-.34.78-.86,1.47-1.52,2.02-.92.72-1.97,1.24-3.1,1.53-2.3.67-4.77.49-6.95-.5-2.06-.86-3.44-2.82-3.55-5.05h3.05c.86,2.34,2.94,3.49,5.65,3.05.86-.12,1.7-.43,2.44-.88,1.18-.65,1.6-2.14.94-3.31Zm-15.48-3.48c.09,1.79-.23,3.57-.93,5.22-1.22,3.09-4.16,5.16-7.48,5.26-3.42.26-6.39-.65-8.49-3.55-.96-1.38-1.57-2.98-1.78-4.65-.34-2.16-.21-4.38.4-6.48,1.09-4.14,5-6.9,9.27-6.52,5.27.3,8.59,3.63,9,9.04.04.55,0,1.12,0,1.68h0Zm-25.96-7.94s-.04,0-.05,0c-1.04.05-1.92-.75-1.97-1.78,0-.02,0-.05,0-.07.06-1.07.98-1.89,2.05-1.82.99.06,1.77.85,1.82,1.84h0c0,1.02-.83,1.84-1.85,1.84Zm1.39,2.74v15.2h0c-.27.02-.48.04-.69.04h-2.2v-15.24h2.9Z"/></svg>