<svg xmlns="http://www.w3.org/2000/svg" xmlns:xlink="http://www.w3.org/1999/xlink" width="114.414" height="15.533" viewBox="0 0 114.414 15.533">
  <defs>
    <clipPath id="clip-path">
      <rect id="Rectangle_1745" data-name="Rectangle 1745" width="114.413" height="15.533" fill="none"/>
    </clipPath>
  </defs>
  <g id="Group_1586" data-name="Group 1586" transform="translate(0 0)">
    <path id="Path_4661" data-name="Path 4661" d="M16.95,0,14.6,10.674,11.925,0H8.256L5.462,10.5,3.158,0H0L3.648,15.282H6.995L10.028,3.857l3.044,11.425h3.273L20.056,0Z" transform="translate(0 0)" fill="#4d4d4d"/>
    <g id="Group_1587" data-name="Group 1587" transform="translate(0 0)">
      <g id="Group_1586-2" data-name="Group 1586" clip-path="url(#clip-path)">
        <path id="Path_4662" data-name="Path 4662" d="M47.97,15.511l2.919.49a4.786,4.786,0,0,1-1.777,2.444,5.223,5.223,0,0,1-3.039.839A4.951,4.951,0,0,1,41.8,17.4,6.336,6.336,0,0,1,40.7,13.582a6.113,6.113,0,0,1,1.439-4.311,4.738,4.738,0,0,1,3.638-1.559,4.915,4.915,0,0,1,3.9,1.631,7.22,7.22,0,0,1,1.366,5H43.707a2.962,2.962,0,0,0,.709,2.027A2.217,2.217,0,0,0,46.1,17.1a1.794,1.794,0,0,0,1.157-.376,2.314,2.314,0,0,0,.709-1.209m.167-2.961a2.824,2.824,0,0,0-.657-1.934,2.114,2.114,0,0,0-3.106.037,2.7,2.7,0,0,0-.615,1.9Z" transform="translate(-19.801 -3.752)" fill="#4d4d4d"/>
        <path id="Path_4663" data-name="Path 4663" d="M66.286,15.282V0h2.93V5.5a4.144,4.144,0,0,1,3.211-1.543,4.316,4.316,0,0,1,3.346,1.465A6.063,6.063,0,0,1,77.1,9.632,6.4,6.4,0,0,1,75.746,14a4.212,4.212,0,0,1-3.278,1.532,4.052,4.052,0,0,1-1.871-.474,4.471,4.471,0,0,1-1.589-1.4v1.626Zm2.909-5.775a4.706,4.706,0,0,0,.542,2.544,2.316,2.316,0,0,0,2.022,1.168,2.073,2.073,0,0,0,1.652-.829,4.077,4.077,0,0,0,.683-2.612,4.324,4.324,0,0,0-.688-2.736A2.178,2.178,0,0,0,71.645,6.2a2.209,2.209,0,0,0-1.752.818,3.761,3.761,0,0,0-.7,2.486" transform="translate(-32.246 0)" fill="#4d4d4d"/>
        <path id="Path_4664" data-name="Path 4664" d="M95.408,15.282V2.585H90.873V0h12.144V2.585H98.493v12.7Z" transform="translate(-44.207 0)" fill="#4d4d4d"/>
        <path id="Path_4665" data-name="Path 4665" d="M119.79,19.034h-2.93V7.963h2.721V9.538a4.726,4.726,0,0,1,1.256-1.47,2.314,2.314,0,0,1,1.267-.355,3.721,3.721,0,0,1,1.929.553l-.907,2.554a2.574,2.574,0,0,0-1.376-.48,1.627,1.627,0,0,0-1.042.338,2.313,2.313,0,0,0-.673,1.225,17.369,17.369,0,0,0-.245,3.711Z" transform="translate(-56.849 -3.752)" fill="#4d4d4d"/>
        <path id="Path_4666" data-name="Path 4666" d="M135.78,11.342l-2.659-.479a4.14,4.14,0,0,1,1.543-2.377,5.644,5.644,0,0,1,3.252-.772,7.012,7.012,0,0,1,2.919.464,2.91,2.91,0,0,1,1.35,1.178,6.037,6.037,0,0,1,.391,2.622l-.032,3.42a11.9,11.9,0,0,0,.141,2.153,6.289,6.289,0,0,0,.527,1.486h-2.9q-.115-.292-.281-.865-.072-.261-.1-.344a5.282,5.282,0,0,1-1.605,1.094,4.6,4.6,0,0,1-1.824.365,3.772,3.772,0,0,1-2.694-.928,3.081,3.081,0,0,1-.985-2.345,3.148,3.148,0,0,1,.448-1.673,2.925,2.925,0,0,1,1.256-1.126,9.8,9.8,0,0,1,2.33-.682,15.98,15.98,0,0,0,2.846-.719v-.292a1.517,1.517,0,0,0-.417-1.2,2.5,2.5,0,0,0-1.574-.359,2.093,2.093,0,0,0-1.22.308,2.137,2.137,0,0,0-.709,1.078m3.92,2.377a18.378,18.378,0,0,1-1.783.448,5.388,5.388,0,0,0-1.594.511,1.222,1.222,0,0,0-.573,1.032,1.435,1.435,0,0,0,.458,1.063,1.6,1.6,0,0,0,1.168.448,2.539,2.539,0,0,0,1.511-.521,1.836,1.836,0,0,0,.7-.97A5.774,5.774,0,0,0,139.7,14.3Z" transform="translate(-64.613 -3.752)" fill="#4d4d4d"/>
        <path id="Path_4667" data-name="Path 4667" d="M168.014,15.282h-2.721V13.656a4.4,4.4,0,0,1-1.6,1.413,4.11,4.11,0,0,1-1.861.464,4.216,4.216,0,0,1-3.268-1.538,6.254,6.254,0,0,1-1.36-4.289,6.179,6.179,0,0,1,1.324-4.279,4.316,4.316,0,0,1,3.347-1.465A4.146,4.146,0,0,1,165.085,5.5V0h2.929ZM160.2,9.507a5.064,5.064,0,0,0,.49,2.565,2.214,2.214,0,0,0,1.981,1.147,2.155,2.155,0,0,0,1.72-.86,3.969,3.969,0,0,0,.709-2.57,4.345,4.345,0,0,0-.688-2.747,2.178,2.178,0,0,0-1.761-.839,2.2,2.2,0,0,0-1.746.829,3.745,3.745,0,0,0-.7,2.476" transform="translate(-76.475 0)" fill="#4d4d4d"/>
        <path id="Path_4668" data-name="Path 4668" d="M190.517,15.511l2.919.49a4.786,4.786,0,0,1-1.777,2.444,5.224,5.224,0,0,1-3.039.839,4.951,4.951,0,0,1-4.274-1.887,6.336,6.336,0,0,1-1.095-3.815,6.113,6.113,0,0,1,1.439-4.311,4.737,4.737,0,0,1,3.638-1.559,4.917,4.917,0,0,1,3.9,1.631,7.223,7.223,0,0,1,1.365,5h-7.339a2.96,2.96,0,0,0,.709,2.027,2.217,2.217,0,0,0,1.689.725,1.794,1.794,0,0,0,1.157-.376,2.314,2.314,0,0,0,.709-1.209m.167-2.961a2.827,2.827,0,0,0-.656-1.934,2.115,2.115,0,0,0-3.107.037,2.7,2.7,0,0,0-.615,1.9Z" transform="translate(-89.147 -3.752)" fill="#4d4d4d"/>
        <path id="Path_4669" data-name="Path 4669" d="M211.763,19.034h-2.929V7.963h2.721V9.538a4.719,4.719,0,0,1,1.256-1.47,2.313,2.313,0,0,1,1.267-.355,3.718,3.718,0,0,1,1.928.553L215.1,10.82a2.573,2.573,0,0,0-1.376-.48,1.627,1.627,0,0,0-1.042.338,2.313,2.313,0,0,0-.672,1.225,17.356,17.356,0,0,0-.245,3.711Z" transform="translate(-101.592 -3.752)" fill="#4d4d4d"/>
      </g>
    </g>
  </g>
</svg>
