<svg width="2311" height="950" viewBox="0 0 2311 950" fill="none" xmlns="http://www.w3.org/2000/svg">
<g clip-path="url(#clip0_3_40)">
<path d="M768 0H0V950H768V0Z" fill="url(#paint0_linear_3_40)"/>
<path d="M136.981 947.224L752.797 5.54498L752.797 947.224H136.981Z" fill="url(#paint1_linear_3_40)"/>
<path d="M-0.792969 683.758C-0.792969 683.758 7.40689 408.246 321.275 442.095C635.143 475.944 705.784 358.626 767.687 214.336" stroke="#FF4400" stroke-width="2"/>
</g>
<path d="M1536.98 5.56857H774.932V950H1536.98V5.56857Z" fill="white"/>
<path d="M1497.51 1.31652e-05L860.96 938.12L768.979 1.31652e-05H1497.51Z" fill="url(#paint2_linear_3_40)"/>
<path d="M1536.98 577.145C1026.79 589.024 1143.52 -15.782 887.557 55.6027C798.098 80.3648 768.979 217.859 768.979 217.859" stroke="#FF4400" stroke-width="2"/>
<g clip-path="url(#clip1_3_40)">
<path d="M1543 0H2310.03V947.771H1543V0Z" fill="#FF4400"/>
<path d="M1623.94 0.000136404L2115.97 950L2310.03 0.000136404H1623.94Z" fill="url(#paint3_linear_3_40)"/>
<path opacity="0.53" d="M2310.03 616.945C2310.03 616.945 2249.4 334.799 1995.72 370.564C1742.04 406.329 1709.84 573.775 1546.02 573.775" stroke="white" stroke-width="2"/>
</g>
<defs>
<linearGradient id="paint0_linear_3_40" x1="768" y1="475" x2="691.968" y2="475" gradientUnits="userSpaceOnUse">
<stop stop-color="#232323"/>
<stop offset="1" stop-color="#1A1A1A"/>
</linearGradient>
<linearGradient id="paint1_linear_3_40" x1="198.563" y1="523.468" x2="625.267" y2="468.318" gradientUnits="userSpaceOnUse">
<stop stop-color="#232323"/>
<stop offset="1" stop-color="#232323" stop-opacity="0"/>
</linearGradient>
<linearGradient id="paint2_linear_3_40" x1="1424.66" y1="422.154" x2="923.232" y2="499.116" gradientUnits="userSpaceOnUse">
<stop stop-color="#E3E3E3" stop-opacity="0.502"/>
<stop offset="1" stop-color="white" stop-opacity="0"/>
</linearGradient>
<linearGradient id="paint3_linear_3_40" x1="1692.55" y1="427.5" x2="2166.24" y2="495.112" gradientUnits="userSpaceOnUse">
<stop stop-color="#E03C00"/>
<stop offset="1" stop-color="#E03C00" stop-opacity="0"/>
</linearGradient>
<clipPath id="clip0_3_40">
<rect width="768" height="950" fill="white"/>
</clipPath>
<clipPath id="clip1_3_40">
<rect width="768" height="950" fill="white" transform="translate(1543)"/>
</clipPath>
</defs>
</svg>
