<svg width="3072" height="713" viewBox="0 0 3072 713" fill="none" xmlns="http://www.w3.org/2000/svg">
<g clip-path="url(#clip0_1_21)">
<path d="M1024 1.00098H0V713.001H1024V1.00098Z" fill="url(#paint0_linear_1_21)"/>
<path d="M0 711.332L1024 1V711.332L0 711.332Z" fill="url(#paint1_linear_1_21)"/>
<path d="M0 285.333C0 285.333 377.667 105.333 956.333 205.333C1535 305.333 1988.33 124 1988.33 124C1988.33 124 2365.67 -17.3328 3047 164C3728.33 345.333 3206 542 3259 668" stroke="#FF4400" stroke-width="2"/>
</g>
<g clip-path="url(#clip1_1_21)">
<path d="M2046 0.00195312H1022V709.91H2046V0.00195312Z" fill="white"/>
<path d="M2036.23 -1.63378e-05L1171.02 712.002L1046 -1.63378e-05L2036.23 -1.63378e-05Z" fill="url(#paint2_linear_1_21)"/>
<path d="M-2 286.491C-2 286.491 375.667 107.02 954.333 206.726C1533 306.432 1986.33 125.632 1986.33 125.632C1986.33 125.632 2363.67 -15.286 3045 165.514C3726.33 346.314 3204 542.404 3257 668.033" stroke="#FF4400" stroke-width="2"/>
</g>
<g clip-path="url(#clip2_1_21)">
<path d="M2048 0H3072V710.244H2048V0Z" fill="#FF4400"/>
<path d="M2129.36 0L2805.38 712L3072 0L2129.36 0Z" fill="url(#paint3_linear_1_21)"/>
<path d="M0 287.333C0 287.333 377.667 107.333 956.333 207.333C1535 307.333 1988.33 126 1988.33 126C1988.33 126 2365.67 -15.333 3047 166C3728.33 347.333 3206 544 3259 670" stroke="white" stroke-width="2"/>
</g>
<defs>
<linearGradient id="paint0_linear_1_21" x1="1024" y1="357.001" x2="922.624" y2="357.001" gradientUnits="userSpaceOnUse">
<stop stop-color="#232323"/>
<stop offset="1" stop-color="#1A1A1A"/>
</linearGradient>
<linearGradient id="paint1_linear_1_21" x1="102.4" y1="391.683" x2="769.628" y2="201.58" gradientUnits="userSpaceOnUse">
<stop stop-color="#232323"/>
<stop offset="1" stop-color="#232323" stop-opacity="0"/>
</linearGradient>
<linearGradient id="paint2_linear_1_21" x1="1937.2" y1="320.401" x2="1288.61" y2="498.68" gradientUnits="userSpaceOnUse">
<stop stop-color="#E3E3E3" stop-opacity="0.502"/>
<stop offset="1" stop-color="white" stop-opacity="0"/>
</linearGradient>
<linearGradient id="paint3_linear_1_21" x1="2223.62" y1="320.4" x2="2845.15" y2="483.028" gradientUnits="userSpaceOnUse">
<stop stop-color="#E03C00"/>
<stop offset="1" stop-color="#E03C00" stop-opacity="0"/>
</linearGradient>
<clipPath id="clip0_1_21">
<rect width="1024" height="712" fill="white" transform="translate(0 1)"/>
</clipPath>
<clipPath id="clip1_1_21">
<rect width="1024" height="712" fill="white" transform="translate(1024)"/>
</clipPath>
<clipPath id="clip2_1_21">
<rect width="1024" height="712" fill="white" transform="translate(2048)"/>
</clipPath>
</defs>
</svg>
