<svg width="5760" height="954" viewBox="0 0 5760 954" fill="none" xmlns="http://www.w3.org/2000/svg">
<g clip-path="url(#clip0_11_109)">
<path d="M1920 0.179688H0V1908.18H1920V0.179688Z" fill="url(#paint0_linear_11_109)"/>
<path d="M1919.5 0.679688H0.5V1907.68H1919.5V0.679688Z" stroke="#707070"/>
<path d="M215 951.762L1321 -0.484253L1920 951.762L215 951.762Z" fill="url(#paint1_linear_11_109)"/>
<path d="M215 951.761L1321 1904.01L1920 951.761L215 951.761Z" fill="url(#paint2_linear_11_109)"/>
<path d="M376.332 954.18C376.332 954.18 421.786 483.725 1039.97 550.392C1658.15 617.059 1754.5 416.68 1919.83 300.513" stroke="#FF4400" stroke-width="2"/>
</g>
<g clip-path="url(#clip1_11_109)">
<path d="M3839.98 0H1920.55V952.244H3839.98V0Z" fill="white"/>
<path d="M3805.74 0.000201471L2605.06 954L1954.79 0.000201471L3805.74 0.000201471Z" fill="url(#paint3_linear_11_109)"/>
<path d="M3839.98 819.489C3319.27 831.467 2861.52 -322.405 2191.9 106.804C1984.01 258.524 1920.55 299.947 1920.55 299.947" stroke="#FF4400" stroke-width="2"/>
</g>
<g clip-path="url(#clip2_11_109)">
<path d="M3840.03 0H5759.12V954H3840.03V0Z" fill="#FF4400"/>
<path d="M4054.93 0.245117L5160.4 954.001L5759.12 0.245117L4054.93 0.245117Z" fill="url(#paint4_linear_11_109)"/>
<path opacity="0.53" d="M5759.12 621C5759.12 621 5607.43 337 4972.72 373C4338.01 409 4259.17 833.5 3840.03 821" stroke="white" stroke-width="2"/>
</g>
<defs>
<linearGradient id="paint0_linear_11_109" x1="1920" y1="954.18" x2="1729.92" y2="954.18" gradientUnits="userSpaceOnUse">
<stop stop-color="#232323"/>
<stop offset="1" stop-color="#1A1A1A"/>
</linearGradient>
<linearGradient id="paint1_linear_11_109" x1="385.5" y1="523.251" x2="1452.97" y2="145.5" gradientUnits="userSpaceOnUse">
<stop stop-color="#232323"/>
<stop offset="1" stop-color="#232323" stop-opacity="0"/>
</linearGradient>
<linearGradient id="paint2_linear_11_109" x1="385.5" y1="1380.27" x2="1452.97" y2="1758.02" gradientUnits="userSpaceOnUse">
<stop stop-color="#232323"/>
<stop offset="1" stop-color="#232323" stop-opacity="0"/>
</linearGradient>
<linearGradient id="paint3_linear_11_109" x1="3620.64" y1="429.3" x2="2483.84" y2="865.221" gradientUnits="userSpaceOnUse">
<stop stop-color="#E3E3E3" stop-opacity="0.502"/>
<stop offset="1" stop-color="white" stop-opacity="0"/>
</linearGradient>
<linearGradient id="paint4_linear_11_109" x1="4225.35" y1="429.435" x2="5292.8" y2="806.402" gradientUnits="userSpaceOnUse">
<stop stop-color="#E03C00"/>
<stop offset="1" stop-color="#E03C00" stop-opacity="0"/>
</linearGradient>
<clipPath id="clip0_11_109">
<rect width="1920" height="954" fill="white"/>
</clipPath>
<clipPath id="clip1_11_109">
<rect width="1920" height="954" fill="white" transform="translate(1920)"/>
</clipPath>
<clipPath id="clip2_11_109">
<rect width="1920" height="954.001" fill="white" transform="translate(3840)"/>
</clipPath>
</defs>
</svg>
