<svg xmlns="http://www.w3.org/2000/svg" xmlns:xlink="http://www.w3.org/1999/xlink" width="252" height="291" viewBox="0 0 252 291">
  <defs>
    <clipPath id="clip-path">
      <rect id="Rectangle_2882" data-name="Rectangle 2882" width="252" height="291" transform="translate(0 0.278)" fill="#fff" stroke="#707070" stroke-width="1"/>
    </clipPath>
    <clipPath id="clip-path-2">
      <rect id="Rectangle_2875" data-name="Rectangle 2875" width="292.548" height="291.109" fill="none" stroke="rgba(0,0,0,0)" stroke-width="1"/>
    </clipPath>
  </defs>
  <g id="Mask_Group_149" data-name="Mask Group 149" transform="translate(0 -0.278)" clip-path="url(#clip-path)">
    <g id="Group_2956" data-name="Group 2956" transform="translate(-40.856 -0.195)">
      <g id="Group_2943" data-name="Group 2943">
        <g id="Group_2942" data-name="Group 2942" clip-path="url(#clip-path-2)">
          <path id="Path_7131" data-name="Path 7131" d="M203.311,424.3,232.433,376H174.188Z" transform="translate(-57.038 -375.356)" fill="none" stroke="#f40" stroke-width="1"/>
        </g>
      </g>
      <path id="Path_7132" data-name="Path 7132" d="M203.311,274.3,232.433,226H174.188Z" transform="translate(-57.038 -128.749)" fill="none" stroke="#f40" stroke-width="1"/>
      <g id="Group_2945" data-name="Group 2945">
        <g id="Group_2944" data-name="Group 2944" clip-path="url(#clip-path-2)">
          <path id="Path_7133" data-name="Path 7133" d="M289.952,424.3,319.075,376H260.829Z" transform="translate(-201.952 -375.356)" fill="none" stroke="#f40" stroke-width="1"/>
          <path id="Path_7134" data-name="Path 7134" d="M116.63,424.3,145.753,376H87.508Z" transform="translate(87.94 -375.356)" fill="none" stroke="#f40" stroke-width="1"/>
        </g>
      </g>
      <path id="Path_7135" data-name="Path 7135" d="M246.651,349.3,275.773,301H217.528Z" transform="translate(-129.527 -252.053)" fill="none" stroke="#f40" stroke-width="1"/>
      <path id="Path_7136" data-name="Path 7136" d="M159.971,349.3,189.093,301H130.848Z" transform="translate(15.451 -252.053)" fill="none" stroke="#f40" stroke-width="1"/>
      <path id="Path_7137" data-name="Path 7137" d="M159.99,226l-29.123,48.3h58.246Z" transform="translate(15.418 -128.749)" fill="none" stroke="#f40" stroke-width="1"/>
      <path id="Path_7138" data-name="Path 7138" d="M116.65,301,87.527,349.3h58.246Z" transform="translate(87.908 -252.053)" fill="none" stroke="#f40" stroke-width="1"/>
      <g id="Group_2947" data-name="Group 2947">
        <g id="Group_2946" data-name="Group 2946" clip-path="url(#clip-path-2)">
          <path id="Path_7139" data-name="Path 7139" d="M29.989,424.3,59.112,376H.866Z" transform="translate(232.854 -375.356)" fill="none" stroke="#f40" stroke-width="1"/>
        </g>
      </g>
      <path id="Path_7140" data-name="Path 7140" d="M73.329,349.3,102.452,301H44.206Z" transform="translate(160.364 -252.053)" fill="#f40" stroke="rgba(0,0,0,0)" stroke-width="1"/>
      <path id="Path_7141" data-name="Path 7141" d="M73.329,349.3,102.452,301H44.206Z" transform="translate(160.364 -252.053)" fill="none" stroke="#f40" stroke-width="1"/>
      <g id="Group_2949" data-name="Group 2949">
        <g id="Group_2948" data-name="Group 2948" clip-path="url(#clip-path-2)">
          <path id="Path_7142" data-name="Path 7142" d="M30.008,301,.886,349.3H59.131Z" transform="translate(232.821 -252.053)" fill="none" stroke="#f40" stroke-width="1"/>
          <path id="Path_7143" data-name="Path 7143" d="M376.54,424.3,405.663,376H347.417Z" transform="translate(-346.775 -375.356)" fill="none" stroke="#f40" stroke-width="1"/>
        </g>
      </g>
      <path id="Path_7144" data-name="Path 7144" d="M333.219,226,304.1,274.3h58.246Z" transform="translate(-274.318 -128.749)" fill="none" stroke="#f40" stroke-width="1"/>
      <g id="Group_2951" data-name="Group 2951">
        <g id="Group_2950" data-name="Group 2950" clip-path="url(#clip-path-2)">
          <path id="Path_7145" data-name="Path 7145" d="M333.219,376,304.1,424.3h58.246Z" transform="translate(-274.318 -375.356)" fill="none" stroke="#f40" stroke-width="1"/>
        </g>
      </g>
      <path id="Path_7146" data-name="Path 7146" d="M246.578,226l-29.123,48.3H275.7Z" transform="translate(-129.405 -128.749)" fill="none" stroke="#f40" stroke-width="1"/>
      <path id="Path_7147" data-name="Path 7147" d="M289.879,301l-29.123,48.3H319Z" transform="translate(-201.83 -252.053)" fill="none" stroke="#f40" stroke-width="1"/>
      <g id="Group_2953" data-name="Group 2953">
        <g id="Group_2952" data-name="Group 2952" clip-path="url(#clip-path-2)">
          <path id="Path_7148" data-name="Path 7148" d="M376.559,301l-29.123,48.3h58.246Z" transform="translate(-346.808 -252.053)" fill="none" stroke="#f40" stroke-width="1"/>
        </g>
      </g>
      <path id="Path_7149" data-name="Path 7149" d="M333.287,199.3,362.41,151H304.165Z" transform="translate(-274.433 -5.446)" fill="none" stroke="#f40" stroke-width="1"/>
      <g id="Group_2955" data-name="Group 2955">
        <g id="Group_2954" data-name="Group 2954" clip-path="url(#clip-path-2)">
          <path id="Path_7150" data-name="Path 7150" d="M333.287,49.3,362.41,1H304.165Z" transform="translate(-274.433 241.161)" fill="none" stroke="#f40" stroke-width="1"/>
          <path id="Path_7151" data-name="Path 7151" d="M376.628,124.3,405.75,76H347.5Z" transform="translate(-346.922 117.858)" fill="none" stroke="#f40" stroke-width="1"/>
          <path id="Path_7152" data-name="Path 7152" d="M289.967,1,260.844,49.3H319.09Z" transform="translate(-201.977 241.161)" fill="none" stroke="#f40" stroke-width="1"/>
        </g>
      </g>
    </g>
  </g>
</svg>
