<svg xmlns="http://www.w3.org/2000/svg" xmlns:xlink="http://www.w3.org/1999/xlink" width="408" height="490" viewBox="0 0 408 490">
  <defs>
    <clipPath id="clip-path">
      <rect id="Rectangle_2850" data-name="Rectangle 2850" width="408" height="490" transform="translate(0 7256)" fill="#fff" stroke="#707070" stroke-width="1"/>
    </clipPath>
    <clipPath id="clip-path-2">
      <rect id="Rectangle_2843" data-name="Rectangle 2843" width="474.229" height="492.793" fill="none"/>
    </clipPath>
  </defs>
  <g id="Mask_Group_143" data-name="Mask Group 143" transform="translate(0 -7256)" clip-path="url(#clip-path)">
    <g id="Group_2904" data-name="Group 2904" transform="translate(-66.229 7253)">
      <g id="Group_2891" data-name="Group 2891">
        <g id="Group_2890" data-name="Group 2890" clip-path="url(#clip-path-2)">
          <path id="Path_7036" data-name="Path 7036" d="M221.4,457.769,268.606,376H174.188Z" transform="translate(15.715 -374.91)" fill="none" stroke="#f40" stroke-width="1"/>
        </g>
      </g>
      <path id="Path_7037" data-name="Path 7037" d="M221.4,307.769,268.606,226H174.188Z" transform="translate(15.715 -61.372)" fill="none" stroke="#f40" stroke-width="1"/>
      <g id="Group_2893" data-name="Group 2893">
        <g id="Group_2892" data-name="Group 2892" clip-path="url(#clip-path-2)">
          <path id="Path_7038" data-name="Path 7038" d="M308.038,457.769,355.247,376H260.829Z" transform="translate(-165.387 -374.91)" fill="none" stroke="#f40" stroke-width="1"/>
          <path id="Path_7039" data-name="Path 7039" d="M134.717,457.769,181.926,376H87.508Z" transform="translate(196.898 -374.91)" fill="none" stroke="#f40" stroke-width="1"/>
        </g>
      </g>
      <path id="Path_7040" data-name="Path 7040" d="M264.737,382.769,311.946,301H217.528Z" transform="translate(-74.876 -218.141)" fill="none" stroke="#f40" stroke-width="1"/>
      <path id="Path_7041" data-name="Path 7041" d="M178.057,382.769,225.266,301H130.848Z" transform="translate(106.307 -218.141)" fill="none" stroke="#f40" stroke-width="1"/>
      <path id="Path_7042" data-name="Path 7042" d="M178.076,226l-47.209,81.769h94.418Z" transform="translate(106.266 -61.372)" fill="none" stroke="#f40" stroke-width="1"/>
      <path id="Path_7043" data-name="Path 7043" d="M134.736,301,87.527,382.769h94.418Z" transform="translate(196.858 -218.141)" fill="none" stroke="#f40" stroke-width="1"/>
      <g id="Group_2895" data-name="Group 2895">
        <g id="Group_2894" data-name="Group 2894" clip-path="url(#clip-path-2)">
          <path id="Path_7044" data-name="Path 7044" d="M48.075,457.769,95.284,376H.866Z" transform="translate(378.001 -374.91)" fill="none" stroke="#f40" stroke-width="1"/>
        </g>
      </g>
      <path id="Path_7045" data-name="Path 7045" d="M91.415,382.769,138.624,301H44.206Z" transform="translate(287.409 -218.141)" fill="#f40"/>
      <path id="Path_7046" data-name="Path 7046" d="M91.415,382.769,138.624,301H44.206Z" transform="translate(287.409 -218.141)" fill="none" stroke="#f40" stroke-width="1"/>
      <g id="Group_2897" data-name="Group 2897">
        <g id="Group_2896" data-name="Group 2896" clip-path="url(#clip-path-2)">
          <path id="Path_7047" data-name="Path 7047" d="M48.095,301,.886,382.769H95.3Z" transform="translate(377.96 -218.141)" fill="none" stroke="#f40" stroke-width="1"/>
          <path id="Path_7048" data-name="Path 7048" d="M394.626,457.769,441.835,376H347.417Z" transform="translate(-346.377 -374.91)" fill="none" stroke="#f40" stroke-width="1"/>
        </g>
      </g>
      <path id="Path_7049" data-name="Path 7049" d="M351.305,226,304.1,307.769h94.418Z" transform="translate(-255.826 -61.372)" fill="none" stroke="#f40" stroke-width="1"/>
      <g id="Group_2899" data-name="Group 2899">
        <g id="Group_2898" data-name="Group 2898" clip-path="url(#clip-path-2)">
          <path id="Path_7050" data-name="Path 7050" d="M351.305,376,304.1,457.769h94.418Z" transform="translate(-255.826 -374.91)" fill="none" stroke="#f40" stroke-width="1"/>
        </g>
      </g>
      <path id="Path_7051" data-name="Path 7051" d="M264.664,226l-47.209,81.769h94.418Z" transform="translate(-74.724 -61.372)" fill="none" stroke="#f40" stroke-width="1"/>
      <path id="Path_7052" data-name="Path 7052" d="M307.965,301l-47.209,81.769h94.418Z" transform="translate(-165.234 -218.141)" fill="none" stroke="#f40" stroke-width="1"/>
      <g id="Group_2901" data-name="Group 2901">
        <g id="Group_2900" data-name="Group 2900" clip-path="url(#clip-path-2)">
          <path id="Path_7053" data-name="Path 7053" d="M394.645,301l-47.209,81.769h94.418Z" transform="translate(-346.417 -218.141)" fill="none" stroke="#f40" stroke-width="1"/>
        </g>
      </g>
      <path id="Path_7054" data-name="Path 7054" d="M351.374,232.769,398.583,151H304.165Z" transform="translate(-255.969 95.396)" fill="none" stroke="#f40" stroke-width="1"/>
      <g id="Group_2903" data-name="Group 2903">
        <g id="Group_2902" data-name="Group 2902" clip-path="url(#clip-path-2)">
          <path id="Path_7055" data-name="Path 7055" d="M351.374,82.769,398.583,1H304.165Z" transform="translate(-255.969 408.934)" fill="none" stroke="#f40" stroke-width="1"/>
          <path id="Path_7056" data-name="Path 7056" d="M394.714,157.769,441.923,76H347.5Z" transform="translate(-346.56 252.165)" fill="none" stroke="#f40" stroke-width="1"/>
          <path id="Path_7057" data-name="Path 7057" d="M308.053,1,260.844,82.769h94.418Z" transform="translate(-165.418 408.934)" fill="none" stroke="#f40" stroke-width="1"/>
        </g>
      </g>
    </g>
  </g>
</svg>
