<svg xmlns="http://www.w3.org/2000/svg" xmlns:xlink="http://www.w3.org/1999/xlink" width="1920" height="902" viewBox="0 0 1920 902">
  <defs>
    <clipPath id="clip-path">
      <rect id="Rectangle_804" data-name="Rectangle 804" width="1920" height="902" transform="translate(0 84)" fill="#fff" stroke="#707070" stroke-width="1"/>
    </clipPath>
    <linearGradient id="linear-gradient" x1="0.578" y1="0.229" x2="1" y2="1" gradientUnits="objectBoundingBox">
      <stop offset="0" stop-color="#f40"/>
      <stop offset="1" stop-color="#ac2e00"/>
    </linearGradient>
    <linearGradient id="linear-gradient-2" x1="0.45" y1="0.1" x2="0.584" y2="0.778" gradientUnits="objectBoundingBox">
      <stop offset="0" stop-color="#e03c00"/>
      <stop offset="1" stop-color="#e03c00" stop-opacity="0"/>
    </linearGradient>
  </defs>
  <g id="Mask_Group_15" data-name="Mask Group 15" transform="translate(0 -84)" clip-path="url(#clip-path)">
    <g id="Group_464" data-name="Group 464">
      <g id="Group_41" data-name="Group 41" transform="translate(-216 83)">
        <rect id="Rectangle_73" data-name="Rectangle 73" width="1920" height="903" transform="translate(216)" fill="url(#linear-gradient)"/>
        <path id="Path_1002" data-name="Path 1002" d="M8399.757-788.456l891.038,1510-891.038-25.6Z" transform="translate(1414.456 9293.795) rotate(-90)" fill="url(#linear-gradient-2)"/>
      </g>
      <g id="Group_102" data-name="Group 102" transform="translate(468.356 96.329)">
        <path id="Path_60" data-name="Path 60" d="M917.73,705.864a221.425,221.425,0,0,0,17.938-80.828c-.19-3.2-.319-6.42-.319-9.671a159.426,159.426,0,1,1,297.124,80.247h.041l53.632,49.563a230,230,0,0,0,39.933-129.81c0-127.746-103.559-231.3-231.306-231.3s-231.3,103.554-231.3,231.3a230.173,230.173,0,0,0,36.255,124.264,237.359,237.359,0,0,0,18-33.765" transform="translate(314.229 0)" fill="#e03c00"/>
        <path id="Path_61" data-name="Path 61" d="M1052.585,430.161V583.766a159.4,159.4,0,0,1-142.793-88.534,242.413,242.413,0,0,1-10.53,29.671,262.916,262.916,0,0,1-25.612,45.988A231.276,231.276,0,0,0,1124.6,644.147l.329-.052V598.406l57.238,57.237h97.391c-5.437,0-226.975-225.483-226.975-225.483" transform="translate(356.415 191.027)" fill="#e03c00"/>
        <path id="Path_62" data-name="Path 62" d="M1231.958,526.772a240.783,240.783,0,0,0-18.385-34.4,237.346,237.346,0,0,0-18.071,34.4,223.541,223.541,0,0,0-17.639,80.535c-.108.005-.216.011-.324.011q.216,4.406.221,8.889a161.278,161.278,0,0,1-12.376,63.086,164.564,164.564,0,0,1-33.9,51.589,159.606,159.606,0,0,1-50.118,34.784q-28.6,12.677-62.2,12.675-33.611,0-62.2-12.675a163.82,163.82,0,0,1-50.7-35.082A159.714,159.714,0,0,1,872.068,679q-12.084-29.19-12.083-63.379a168.908,168.908,0,0,1,11.79-62.793,158.256,158.256,0,0,1,84.012-87.546,152.937,152.937,0,0,1,62.793-12.973,154.6,154.6,0,0,1,112.906,48.05,171.027,171.027,0,0,1,30.412,44.424,245.119,245.119,0,0,1,9.846-27.865,262.418,262.418,0,0,1,25.761-46.7q-7.493-9.128-15.926-17.6a237.533,237.533,0,0,0-74.156-50.375,221.41,221.41,0,0,0-88.858-18.148q-48.2,0-89.8,18.148A236.64,236.64,0,0,0,805.478,526.772a224.63,224.63,0,0,0-17.834,88.868q0,49.436,17.834,91.049A231.212,231.212,0,0,0,928.76,829.034q41.611,17.523,89.8,17.521,47.547,0,89.486-17.834a233.54,233.54,0,0,0,123.909-122.973,229.761,229.761,0,0,0,0-178.976" transform="translate(0 0.116)" fill="#e03c00"/>
      </g>
    </g>
  </g>
</svg>
