<svg xmlns="http://www.w3.org/2000/svg" xmlns:xlink="http://www.w3.org/1999/xlink" width="335" height="402" viewBox="0 0 335 402">
  <defs>
    <clipPath id="clip-path">
      <rect id="Rectangle_420" data-name="Rectangle 420" width="335" height="402" rx="167.5" transform="translate(11035 1448)" fill="#fff" stroke="#707070" stroke-width="1"/>
    </clipPath>
    <clipPath id="clip-path-2">
      <path id="Path_1003" data-name="Path 1003" d="M11075.857,1591.292l7.313-5.7-9.338-5.733-5.39,6.282Z" fill="none" stroke="#707070" stroke-width="1"/>
    </clipPath>
  </defs>
  <g id="Group_673" data-name="Group 673" transform="translate(-1558 -1523)">
    <circle id="Ellipse_9" data-name="Ellipse 9" cx="167.5" cy="167.5" r="167.5" transform="translate(1558 1590)" fill="#f40" opacity="0.15"/>
    <g id="Mask_Group_11" data-name="Mask Group 11" transform="translate(-9477 75)" clip-path="url(#clip-path)">
      <g id="Group_303" data-name="Group 303" transform="translate(2 1)">
        <g id="Group_253" data-name="Group 253">
          <path id="Arm" d="M0,15.5,42.763,9.669A93.208,93.208,0,0,1,66.372,0c2.022-.059,5.238.676.447,4.672s-9.653,8.416-8.8,10.548,5.31,1.339,6.048,4.619q.738,3.28-21.7,1.066l-34.7,13.76Z" transform="matrix(-0.839, -0.545, 0.545, -0.839, 11116.48, 1635.667)" fill="#997659"/>
          <g id="Group_251" data-name="Group 251" transform="translate(1968.161 194.937) rotate(-3)">
            <rect id="Rectangle_283" data-name="Rectangle 283" width="21" height="40" rx="5" transform="translate(9001 1846)" fill="#f40"/>
            <rect id="Rectangle_284" data-name="Rectangle 284" width="16" height="33" rx="3" transform="translate(9005.037 1848.469)" fill="#ff936b"/>
            <rect id="Rectangle_307" data-name="Rectangle 307" width="6" height="2" rx="1" transform="translate(9010.025 1882.313)" fill="#ff936b"/>
          </g>
          <g id="Mask_Group_16" data-name="Mask Group 16" clip-path="url(#clip-path-2)">
            <path id="Arm-2" data-name="Arm" d="M0,15.5,42.763,9.669A93.208,93.208,0,0,1,66.372,0c2.022-.059,5.238.676.447,4.672s-9.653,8.416-8.8,10.548,5.31,1.339,6.048,4.619q.738,3.28-21.7,1.066l-34.7,13.76Z" transform="matrix(-0.839, -0.545, 0.545, -0.839, 11116.48, 1635.667)" fill="#997659"/>
          </g>
        </g>
        <g id="Head" transform="translate(11170.503 1475.417)">
          <path id="Head-2" data-name="Head" d="M45.489,79.085l-8.949-41.72a38.687,38.687,0,0,0,3.4-4.635,31.773,31.773,0,0,0,2.581-5.088,26.954,26.954,0,0,0,1.54-5.5,24.994,24.994,0,0,0,.28-5.865c-.407-5.8-2.728-9.824-6.08-12.424A20.485,20.485,0,0,0,26,0,31.5,31.5,0,0,0,12.872,2.7C8.939,4.457,5.746,6.97,4.177,9.9A36.985,36.985,0,0,0,.792,21.33a72.1,72.1,0,0,0-.72,13.906A45.381,45.381,0,0,0,2.05,47.34c1.112,3.26,2.68,5.507,4.708,6.03a8.616,8.616,0,0,0,3.057.1,22.932,22.932,0,0,0,4.1-.917,40.35,40.35,0,0,0,4.8-1.866A52.693,52.693,0,0,0,23.9,47.932l-4.4,31.153Z" fill="#b28b67"/>
        </g>
        <path id="hair" d="M.243,12.091a6.15,6.15,0,0,1,.568-1.355,5.916,5.916,0,0,1,.871-1.171,5.412,5.412,0,0,1,1.136-.907A5,5,0,0,1,4.18,8.1q.177-.044.358-.074T4.9,7.974q.182-.018.364-.023t.365,0c.044,0,.079.006.11.01a.5.5,0,0,0,.078.006.113.113,0,0,0,.06-.018.215.215,0,0,0,.058-.063A.3.3,0,0,0,5.97,7.8a1.042,1.042,0,0,0,.021-.115c.006-.04.01-.08.014-.118a.982.982,0,0,1,.016-.1q.029-.124.062-.247t.069-.245q.037-.122.077-.243t.086-.24A6.912,6.912,0,0,1,6.672,5.7a7.591,7.591,0,0,1,.448-.741,8.408,8.408,0,0,1,.526-.689c.187-.221.385-.433.592-.635a10.064,10.064,0,0,1,2.67-1.872,9.5,9.5,0,0,1,1.532-.581,8.7,8.7,0,0,1,1.606-.3,7.454,7.454,0,0,1,.889-.024,8.057,8.057,0,0,1,.881.078q.438.063.869.17t.853.252q.218.075.433.159T18.4,1.7q.212.091.421.189t.415.2c.041.021.106.062.182.111s.164.107.252.161a2.609,2.609,0,0,0,.252.141.371.371,0,0,0,.182.05.416.416,0,0,0,.166-.09,2.331,2.331,0,0,0,.2-.178c.067-.066.133-.135.191-.194a1.679,1.679,0,0,1,.147-.138,8.732,8.732,0,0,1,1.457-.9A9.569,9.569,0,0,1,23.84.44,11,11,0,0,1,25.5.1,12.823,12.823,0,0,1,27.216,0c.648,0,1.289.016,1.921.056A14.9,14.9,0,0,1,31,.279a9.406,9.406,0,0,1,1.782.516,7.787,7.787,0,0,1,1.679.934q.172.125.339.257t.331.267q.163.136.323.277t.315.285l.162.154.16.157q.079.079.157.16t.153.163l.091.1.089.1.088.1.086.1c.048.059.083.108.111.146a.282.282,0,0,0,.076.079.107.107,0,0,0,.091,0A.8.8,0,0,0,37.19,4,5.8,5.8,0,0,1,38,3.594a5.5,5.5,0,0,1,.856-.273,5.251,5.251,0,0,1,.888-.126,5.108,5.108,0,0,1,.906.03q.27.033.537.09t.528.132q.261.076.518.169t.506.2a2.143,2.143,0,0,1,.217.117c.085.05.179.108.274.162a3.037,3.037,0,0,0,.277.145.633.633,0,0,0,.225.064.625.625,0,0,0,.223-.055,3.02,3.02,0,0,0,.276-.132c.1-.05.19-.1.277-.15a2.017,2.017,0,0,1,.227-.109,7.954,7.954,0,0,1,1.017-.3,8.125,8.125,0,0,1,1.043-.163,8.333,8.333,0,0,1,1.056-.028,8.542,8.542,0,0,1,1.056.1,9.858,9.858,0,0,1,1.077.238,10.621,10.621,0,0,1,1.051.355,11.085,11.085,0,0,1,1.01.461c.328.17.646.355.953.555.147.1.29.194.427.3s.27.21.4.322a4.958,4.958,0,0,1,.364.357,4.507,4.507,0,0,1,.328.4c.045.062.088.124.131.187l.13.188c.044.062.089.124.135.184s.094.119.145.177a1.14,1.14,0,0,0,.106.1c.04.034.082.069.123.105a1.124,1.124,0,0,1,.112.112.421.421,0,0,1,.075.121c-.009-.025.085-.083.233-.157s.352-.162.562-.249.425-.172.6-.238.3-.112.341-.122a4.153,4.153,0,0,1,1.226-.132,4.326,4.326,0,0,1,.611.069,4.637,4.637,0,0,1,.6.155,6.465,6.465,0,0,1,1.085.476,8.523,8.523,0,0,1,1,.651,11.594,11.594,0,0,1,.922.771c.293.271.572.553.837.836q.2.219.4.448t.369.469q.178.24.343.489t.317.506q.073.123.142.248t.136.252q.067.127.13.255t.124.258c.02.042.038.086.055.132l.053.138c.018.046.037.092.057.135a.9.9,0,0,0,.069.122.687.687,0,0,0,.095.114.419.419,0,0,0,.1.068.871.871,0,0,0,.117.048l.156.053a7.921,7.921,0,0,1,.9.378,7.681,7.681,0,0,1,.842.485,7.363,7.363,0,0,1,.771.589,6.947,6.947,0,0,1,1.275,1.475,7.248,7.248,0,0,1,.473.857,7.518,7.518,0,0,1,.356.913A7.724,7.724,0,0,1,71,19.08c0,.019.007.053.01.094s.007.089.012.135.01.092.018.129a.159.159,0,0,0,.027.074.152.152,0,0,0,.075.029.812.812,0,0,0,.113.009h.119a.915.915,0,0,1,.093,0q.121.014.242.032t.241.039q.12.021.24.046t.238.053q.219.052.435.116t.427.14q.212.076.419.164t.409.188a7.812,7.812,0,0,1,1.457.937,8.485,8.485,0,0,1,1.217,1.215,9.267,9.267,0,0,1,.962,1.431,9.824,9.824,0,0,1,.691,1.584,10.661,10.661,0,0,1,.428,1.773,10.823,10.823,0,0,1,.123,1.832,10.367,10.367,0,0,1-.193,1.823,9.513,9.513,0,0,1-.522,1.749q-.056.136-.117.271t-.128.266q-.067.132-.139.26t-.15.254c-.032.051-.058.09-.079.122a.351.351,0,0,0-.043.085.18.18,0,0,0,0,.086.71.71,0,0,0,.039.128,1.819,1.819,0,0,0,.081.178c.03.059.064.118.1.177s.068.117.1.176.064.117.091.175q.134.286.248.581t.209.6q.1.3.172.607t.136.616c.065.339.121.682.166,1.028s.077.694.093,1.042a10.067,10.067,0,0,1,0,1.044,8.159,8.159,0,0,1-.124,1.034q-.044.238-.106.473t-.141.463q-.079.229-.178.45t-.216.434q-.06.108-.126.213t-.136.207q-.07.1-.145.2t-.155.193l-.084.1-.086.1-.089.093-.091.091c-.018.017-.036.034-.056.05l-.059.049c-.02.017-.039.033-.057.051a.525.525,0,0,0-.05.055.437.437,0,0,1-.088.088.357.357,0,0,0-.045.033c-.008.01-.01.022,0,.049s.018.069.036.138a2.448,2.448,0,0,0,.1.287c.039.1.083.19.129.285s.092.189.136.283.087.188.123.281.074.193.11.289.071.194.1.291.067.2.1.293.064.2.1.295q.094.3.18.6t.162.606q.076.3.14.611t.114.617a11.01,11.01,0,0,1,.129,1.2,8.656,8.656,0,0,1-.022,1.21,6.881,6.881,0,0,1-.21,1.186,5.773,5.773,0,0,1-.436,1.13,4.665,4.665,0,0,1-.266.452,4.746,4.746,0,0,1-1.072,1.141q-.1.078-.209.15t-.217.139q-.11.067-.224.128t-.23.116c-.04.019-.082.035-.125.051s-.085.032-.125.05a.509.509,0,0,0-.109.065.272.272,0,0,0-.076.1.351.351,0,0,0-.027.15,1.1,1.1,0,0,0,.02.183c.011.063.026.127.039.186s.026.115.032.161c.058.4.108.811.144,1.221s.057.822.056,1.233a9.692,9.692,0,0,1-.077,1.227,7.463,7.463,0,0,1-.255,1.2,6.412,6.412,0,0,1-.427,1.055,6.722,6.722,0,0,1-.6.967,6.858,6.858,0,0,1-.757.853,6.769,6.769,0,0,1-.888.715,7.053,7.053,0,0,1-1.971.919,7.989,7.989,0,0,1-2.142.313,8.9,8.9,0,0,1-2.165-.244,9.067,9.067,0,0,1-2.04-.753q-.251-.129-.494-.274t-.476-.3q-.233-.16-.455-.334t-.432-.364a3.662,3.662,0,0,1-1.314,1.091,5.22,5.22,0,0,1-1.658.489,8.117,8.117,0,0,1-1.782.027,10.291,10.291,0,0,1-1.684-.3,8.824,8.824,0,0,1-1.843-.713,9.018,9.018,0,0,1-1.617-1.082,9.446,9.446,0,0,1-1.355-1.4,9.926,9.926,0,0,1-1.059-1.663,3.212,3.212,0,0,1-1.5,1.019,3.913,3.913,0,0,1-1.794.133,4.279,4.279,0,0,1-1.7-.647,3.594,3.594,0,0,1-1.221-1.322,4.48,4.48,0,0,1-.188-.407q-.084-.208-.148-.423t-.111-.434q-.047-.219-.077-.441c-.011-.078-.017-.156-.021-.234s-.006-.156-.007-.234,0-.156,0-.233-.007-.155-.015-.232a1.359,1.359,0,0,0-.067-.293,2.834,2.834,0,0,0-.119-.29c-.045-.1-.093-.192-.139-.287s-.091-.191-.129-.286q-.11-.277-.2-.56t-.151-.57q-.062-.288-.1-.581a5.584,5.584,0,0,1-.038-.592c0-.1,0-.208.007-.311s.012-.206.021-.309.019-.205.029-.308.021-.206.031-.309a1.748,1.748,0,0,0,0-.275c-.006-.091-.017-.18-.031-.27s-.032-.179-.049-.269-.035-.18-.049-.272a2.8,2.8,0,0,0,.521.032,4.366,4.366,0,0,0,.545-.05c.182-.028.363-.065.537-.107s.343-.09.5-.138a2.454,2.454,0,0,0,.452-.194,3.642,3.642,0,0,0,.428-.277c.138-.1.27-.214.394-.327s.242-.23.351-.344a6.828,6.828,0,0,0,.686-.85,8.469,8.469,0,0,0,.557-.941,10.923,10.923,0,0,0,.447-1c.133-.341.25-.686.355-1.031a10.128,10.128,0,0,0,.428-2.344,7.97,7.97,0,0,0-.189-2.33,5.854,5.854,0,0,0-.933-2.074,5.372,5.372,0,0,0-1.805-1.576,5.037,5.037,0,0,0-1.511-.441,16.441,16.441,0,0,0-2.067-.187c-.725-.024-1.459-.012-2.118.03a11.214,11.214,0,0,0-1.663.21,3.04,3.04,0,0,0-1.343.851A10.226,10.226,0,0,0,35.7,40.531a17.235,17.235,0,0,0-.916,1.5,6.245,6.245,0,0,0-.4.832,1.583,1.583,0,0,0-.034.178c-.009.061-.017.122-.031.181a.649.649,0,0,1-.058.167.393.393,0,0,1-.117.136.564.564,0,0,1-.39.1,1.28,1.28,0,0,1-.435-.131,2.888,2.888,0,0,1-.412-.248c-.126-.089-.237-.179-.322-.251a4.144,4.144,0,0,1-.41-.4,5.3,5.3,0,0,1-.357-.445c-.111-.155-.216-.315-.315-.478s-.193-.329-.284-.5q-.3-.544-.562-1.107t-.5-1.14q-.235-.577-.438-1.165t-.371-1.184c-.087-.306-.165-.615-.242-.924s-.151-.619-.228-.928-.159-.617-.248-.923-.189-.608-.3-.907a7.537,7.537,0,0,0-.389-.863,6.114,6.114,0,0,0-.5-.791,5.16,5.16,0,0,0-.621-.695,4.707,4.707,0,0,0-.756-.573,8.989,8.989,0,0,0-.93-.491c-.319-.146-.644-.277-.974-.4s-.663-.237-1-.349-.666-.223-1-.338-.652-.234-.972-.366-.635-.274-.94-.433a8.248,8.248,0,0,1-.885-.529,6.544,6.544,0,0,1-.807-.653q-.084-.08-.165-.162t-.16-.168q-.078-.086-.152-.175t-.141-.183a1.9,1.9,0,0,1-.107-.175c-.036-.065-.074-.135-.114-.2a1.553,1.553,0,0,0-.128-.189.564.564,0,0,0-.149-.135A.363.363,0,0,0,17.17,25a1.036,1.036,0,0,0-.3.137c-.1.063-.2.137-.291.208s-.177.137-.249.183a10.637,10.637,0,0,0-1.028.745,12.118,12.118,0,0,0-.94.857c-.3.3-.583.618-.852.946s-.525.666-.765,1.012-.468.685-.686,1.027-.426.684-.624,1.032-.386.7-.564,1.062-.347.733-.507,1.117c-.118.285-.226.59-.333.9s-.215.63-.333.943a7.9,7.9,0,0,1-.4.9,3.989,3.989,0,0,1-.535.786,1.442,1.442,0,0,1-.66.275,8.161,8.161,0,0,1-1.158.171,9.529,9.529,0,0,1-1.256.024,3.187,3.187,0,0,1-.955-.165,3.925,3.925,0,0,1-.679-.368,5.838,5.838,0,0,1-.643-.5,5.433,5.433,0,0,1-.532-.541,2.7,2.7,0,0,1-.344-.5,2.867,2.867,0,0,1-.289-.947,3,3,0,0,1-.02-.493,3.25,3.25,0,0,1,.06-.5c.019-.1.044-.194.071-.289s.057-.189.087-.283.06-.188.088-.282.054-.189.076-.285c.018-.081.036-.16.055-.239s.039-.156.061-.233.048-.153.077-.228a2.122,2.122,0,0,1,.1-.223,2.283,2.283,0,0,1,.261-.389,2.263,2.263,0,0,1,.719-.572,2.34,2.34,0,0,1,.438-.169q-.239-.22-.457-.462t-.411-.5q-.193-.261-.36-.539a6.294,6.294,0,0,1-.3-.574c-.095-.2-.186-.419-.271-.641s-.164-.451-.233-.682-.13-.465-.179-.7A6.555,6.555,0,0,1,2,25.347a4.006,4.006,0,0,1-.019-.549,3.529,3.529,0,0,1,.061-.544,3.082,3.082,0,0,1,.15-.525,2.765,2.765,0,0,1,.247-.491,2.7,2.7,0,0,1,.367-.453,4.25,4.25,0,0,1,.449-.387c.159-.12.324-.233.491-.341s.332-.212.493-.314q-.367-.287-.707-.6t-.654-.66q-.313-.343-.6-.71t-.544-.754a11.562,11.562,0,0,1-.893-1.592A9.664,9.664,0,0,1,.23,15.7,7.719,7.719,0,0,1,0,13.9,6.473,6.473,0,0,1,.243,12.091Z" transform="translate(11162.921 1457)" fill="#232323"/>
        <path id="Leg" d="M111.175,0,58.249,137.832l-37.1,101.59H0L50.993,0Z" transform="translate(11113.396 1643.421)" fill="#f40"/>
        <path id="Leg-2" data-name="Leg" d="M71.419,0c.144,11.823.226,24.67.289,37.336s.107,25.151.174,36.25.159,20.812.318,27.935.384,11.655.719,12.392,5.714,5.3,13.594,11.74,18.262,14.741,28.6,22.954,20.637,16.334,28.35,22.4,12.84,10.082,12.84,10.082l-10.9,18.247s-6.088-3.864-15.3-9.789-21.541-13.91-34.028-22.153-25.13-16.743-34.962-23.7-16.854-12.363-18.1-14.422-3.742-8.341-6.992-17.312-7.25-20.632-11.5-33.449S15.766,51.726,11.512,38.129,3.254,11.311,0,0Z" transform="translate(11166.232 1643.421)" fill="#ff936b"/>
        <g id="Left_Shoe" data-name="Left Shoe" transform="translate(11284.742 1822.615)">
          <path id="Shoe" d="M55.3,13.5,38.567.766l-13.5,16.087A87.6,87.6,0,0,1,22.529,30.9c-1.2,4.678-2.659,9.21-4.068,13.173s-2.768,7.358-3.776,9.763-1.663,3.817-1.663,3.817l3.064,2.571,24.426-29.11,6.824-11.244,1.532,1.286Z" fill="#232323"/>
        </g>
        <g id="Right_Shoe" data-name="Right Shoe" transform="translate(11069.366 1878.009)">
          <path id="Shoe-2" data-name="Shoe" d="M67.146,24.334,66.045,0H42.929A95.292,95.292,0,0,1,29.286,8.211c-4.8,2.417-9.648,4.5-13.986,6.2s-8.163,3.024-10.9,3.92S0,19.7,0,19.7v4.635H41.828l14.31-2.318v2.318Z" fill="#232323"/>
        </g>
        <path id="Arm-3" data-name="Arm" d="M45.133,4.819S46.869,10,49.522,17.872s6.224,18.434,9.894,29.2S66.855,68.8,69.9,77.476s5.381,15.065,6.174,16.675a16.2,16.2,0,0,0,2.816,3.4c1.419,1.425,3.249,3.087,5.28,4.821s4.262,3.541,6.483,5.255,4.433,3.337,6.426,4.7a4.9,4.9,0,0,1,1.624,1.719,3.1,3.1,0,0,1,.362,1.7,3.247,3.247,0,0,1-.464,1.426,2.732,2.732,0,0,1-.855.9,13.339,13.339,0,0,1-12.9,1.226,43.5,43.5,0,0,1-5.824-2.977c-1.956-1.134-3.955-2.324-6.081-3.314-2.33-1.084-4.027-1.132-5.379-.645a8.489,8.489,0,0,0-3.3,2.56,12.586,12.586,0,0,1-2.942,2.753,4.5,4.5,0,0,1-4.293-.066c.567-1.271,1.324-2.816,2.1-4.515s1.574-3.553,2.222-5.441a25.366,25.366,0,0,0,1.327-5.653,10.883,10.883,0,0,0-.585-5.149c-.418-1.035-3.169-7.3-7.061-16.114S46.11,60.564,41.13,49.33,31.221,26.99,27.538,18.693,21.416,4.908,21.416,4.908Z" transform="translate(11220.715 1605.504)" fill="#997659"/>
        <path id="Clothes_Back" data-name="Clothes Back" d="M120.254.384,101.685,1.622a87.536,87.536,0,0,1-7.408,27.872A54.672,54.672,0,0,1,78.256,49.8c-6.885,5.3-15.371,9.032-25.621,10.885S30.371,62.511,16.428,60.3l-7.41,53.3a130.817,130.817,0,0,0,37.426-.249A90.334,90.334,0,0,0,78.66,101.987a74.2,74.2,0,0,0,24.2-23.218c6.418-9.8,11.032-21.7,13.374-35.832.606-3.658,1.181-7.353,1.7-11.036s.972-7.355,1.343-10.966.656-7.162.829-10.6S120.334,3.558,120.254.384Z" transform="translate(11080.63 1534.701)" fill="#232323"/>
        <path id="Clothes" d="M134.951,159.253A378.172,378.172,0,0,0,122.6,110.7a297.864,297.864,0,0,0-17.724-42.725,248.437,248.437,0,0,0-23.094-36.9A225.492,225.492,0,0,0,53.315,0H51.472l-.015.017L23.322,6.462A219.057,219.057,0,0,1,20.79,39.827a270.85,270.85,0,0,1-6.164,28.878C12.2,77.815,9.537,86.524,6.98,95.18s-5,17.259-6.979,26.155H75.986q.4,4.611.727,9.287t.581,9.416q.256,4.74.445,9.544t.317,9.672Z" transform="translate(11158.589 1529.668)" fill="#9b9b9b"/>
      </g>
    </g>
  </g>
</svg>
