<svg xmlns="http://www.w3.org/2000/svg" width="165.829" height="89.969" viewBox="0 0 165.829 89.969">
  <g id="Group_1552" data-name="Group 1552" transform="translate(-15 -21)">
    <path id="Path_41" data-name="Path 41" d="M381.7,168.1a43.065,43.065,0,0,0,3.489-15.72c-.037-.623-.062-1.248-.062-1.881a31.006,31.006,0,1,1,57.786,15.607h.008l10.43,9.639a44.982,44.982,0,1,0-75.151-1.079,46.25,46.25,0,0,0,3.5-6.567" transform="translate(-280.292 -84.516)" fill="#f9f9f9"/>
    <path id="Path_42" data-name="Path 42" d="M416.133,151.613v29.874a31,31,0,0,1-27.771-17.218,47.138,47.138,0,0,1-2.048,5.77,51.13,51.13,0,0,1-4.981,8.944,44.979,44.979,0,0,0,48.806,14.247l.064-.01v-8.886l11.132,11.132h18.941c-1.058,0-44.143-43.853-44.143-43.853" transform="translate(-280.288 -84.496)" fill="#f9f9f9"/>
    <path id="Path_43" data-name="Path 43" d="M381.737,133.293a46.717,46.717,0,0,0-3.576-6.691,46.166,46.166,0,0,0-3.514,6.691,43.473,43.473,0,0,0-3.431,15.663l-.063,0q.042.857.043,1.729a31.366,31.366,0,0,1-2.407,12.269,32.006,32.006,0,0,1-6.593,10.033,31.041,31.041,0,0,1-9.747,6.765,30.914,30.914,0,0,1-24.193,0,31.871,31.871,0,0,1-9.861-6.823,31.064,31.064,0,0,1-6.651-10.032,31.907,31.907,0,0,1-2.35-12.326,32.852,32.852,0,0,1,2.293-12.212,30.785,30.785,0,0,1,16.339-17.027,30.349,30.349,0,0,1,34.171,6.823,33.26,33.26,0,0,1,5.914,8.64,47.661,47.661,0,0,1,1.915-5.419,51.048,51.048,0,0,1,5.01-9.082q-1.457-1.775-3.1-3.423a46.2,46.2,0,0,0-14.422-9.8,44.523,44.523,0,0,0-34.747,0,46.024,46.024,0,0,0-23.976,24.219,43.687,43.687,0,0,0-3.469,17.283,44.535,44.535,0,0,0,44.91,44.909,44.007,44.007,0,0,0,17.4-3.469,45.421,45.421,0,0,0,24.1-23.916,44.684,44.684,0,0,0,0-34.808" transform="translate(-280.325 -84.516)" fill="#f9f9f9"/>
    <path id="Path_44" data-name="Path 44" d="M389.187,114.473A39.569,39.569,0,0,0,378.126,126.6c-4.507,7.8,7.1,21.377,7.1,21.377s-3.44-14.946,3.957-33.5" transform="translate(-280.29 -84.512)" fill="#f9f9f9"/>
  </g>
</svg>
