<svg id="Group_7110" data-name="Group 7110" xmlns="http://www.w3.org/2000/svg" xmlns:xlink="http://www.w3.org/1999/xlink" width="16.44" height="36.75" viewBox="0 0 16.44 36.75">
  <defs>
    <clipPath id="clip-path">
      <rect id="Rectangle_5931" data-name="Rectangle 5931" width="16.44" height="36.75" fill="#fff"/>
    </clipPath>
  </defs>
  <g id="Group_7110-2" data-name="Group 7110" clip-path="url(#clip-path)">
    <path id="Path_13690" data-name="Path 13690" d="M14.461,101.527a3.112,3.112,0,0,0-.764.143,2.135,2.135,0,0,0-3.468-1.5A1.95,1.95,0,0,0,8.357,98.78a2.022,2.022,0,0,0-1.482.636l-.094-2.629a4.125,4.125,0,1,0-4.313.292l.138,6.45a5.8,5.8,0,0,0-1.1.814c-1.657,1.506-2.2,5.148-.328,7.968a8.911,8.911,0,0,0,8.162,4.478c3.855,0,5.144-1.935,6.135-3.916.953-1.906.964-9.2.964-9.514a1.959,1.959,0,0,0-1.978-1.831M1.179,93.438A3.2,3.2,0,1,1,6.739,95.6l-.066-1.854a2.169,2.169,0,0,0-2.138-2.289,2.171,2.171,0,0,0-2.138,2.3l.048,2.225a3.193,3.193,0,0,1-1.266-2.54m13.478,19.024c-.933,1.866-1.976,3.41-5.316,3.41a7.991,7.991,0,0,1-7.4-4.069c-1.117-1.684-1.6-5.163.181-6.784a6.544,6.544,0,0,1,.507-.418l.068,3.192a.449.449,0,0,0,.468.448.458.458,0,0,0,.448-.468l-.3-14.03a1.232,1.232,0,1,1,2.445.017l.305,8.546a.458.458,0,0,0,.427.44.462.462,0,0,0,.482-.381l.232-1.373a.459.459,0,0,0,.006-.076A1.16,1.16,0,0,1,8.357,99.7a1.111,1.111,0,0,1,1.074,1.221v.916a.458.458,0,1,0,.916,0,1.221,1.221,0,0,1,2.442,0v1.984a.458.458,0,0,0,.916,0V102.65a2.193,2.193,0,0,1,.758-.208,1.051,1.051,0,0,1,1.063.916c0,2.05-.157,7.682-.868,9.1" transform="translate(0 -80.038)" fill="#fff"/>
    <path id="Path_13691" data-name="Path 13691" d="M9.747,3.654a.467.467,0,0,0-.658-.069l-3.082,2.5V0H5.072V6.043L1.987,3.583a.468.468,0,0,0-.583.731L5.124,7.28a.471.471,0,0,0,.052.079.467.467,0,0,0,.658.069L9.678,4.311a.467.467,0,0,0,.069-.658" transform="translate(-1.1)" fill="#fff"/>
  </g>
</svg>
