<svg xmlns="http://www.w3.org/2000/svg" xmlns:xlink="http://www.w3.org/1999/xlink" width="28" height="57" viewBox="0 0 28 57">
  <defs>
    <clipPath id="clip-path">
      <rect id="Rectangle_5930" data-name="Rectangle 5930" width="28" height="57" transform="translate(-0.129 -0.127)" fill="#fff"/>
    </clipPath>
  </defs>
  <g id="Group_7106" data-name="Group 7106" transform="translate(0.129 0.127)">
    <g id="Group_7106-2" data-name="Group 7106" transform="translate(0 0)" clip-path="url(#clip-path)">
      <path id="Path_13683" data-name="Path 13683" d="M14.334,42.1A14.35,14.35,0,0,1,0,27.761V14.334a14.334,14.334,0,0,1,28.668,0V27.761A14.35,14.35,0,0,1,14.334,42.1m0-40.462a12.716,12.716,0,0,0-12.7,12.7V27.761a12.7,12.7,0,1,0,25.4,0V14.334a12.716,12.716,0,0,0-12.7-12.7" transform="translate(-0.463 -0.504)" fill="#fff"/>
      <path id="Path_13684" data-name="Path 13684" d="M72.31,50.905a1.905,1.905,0,1,0-1.905,1.905,1.905,1.905,0,0,0,1.905-1.905" transform="translate(-56.534 -40.613)" fill="#fff"/>
      <path id="Path_13685" data-name="Path 13685" d="M77.27,93.635a.635.635,0,1,0-.635.635.635.635,0,0,0,.635-.635" transform="translate(-62.673 -76.63)" fill="#fff"/>
      <path id="Path_13686" data-name="Path 13686" d="M77.27,111.635a.635.635,0,1,0-.635.635.635.635,0,0,0,.635-.635" transform="translate(-62.673 -91.364)" fill="#fff"/>
      <path id="Path_13687" data-name="Path 13687" d="M77.27,129.635a.635.635,0,1,0-.635.635.635.635,0,0,0,.635-.635" transform="translate(-62.673 -106.098)" fill="#fff"/>
      <path id="Path_13688" data-name="Path 13688" d="M76.633,145.317a.817.817,0,1,0-1.633,0v9.526h1.633Z" transform="translate(-61.855 -118.785)" fill="#fff"/>
      <path id="Path_13689" data-name="Path 13689" d="M52.877,252.881a.816.816,0,0,0-1.148-.12l-5.383,4.364V246.5H44.713v10.552l-5.388-4.3a.817.817,0,1,0-1.018,1.277l6.5,5.18a.818.818,0,0,0,.726.441.813.813,0,0,0,.514-.182l6.714-5.443a.816.816,0,0,0,.12-1.148" transform="translate(-31.568 -202.278)" fill="#fff"/>
    </g>
  </g>
</svg>
