<?xml version="1.0" standalone="yes"?>
<svg xmlns="http://www.w3.org/2000/svg" width="374" height="717">
<path style="fill:#ffffff; stroke:none;" d="M0 0L0 376L77 385.718L266 410.282L374 424L374 0L0 0z"/>
<path style="fill:#e87a50; stroke:none;" d="M0 376L0 377L3 377L0 376z"/>
<path style="fill:#f79670; stroke:none;" d="M3 376L4 377L3 376z"/>
<path style="fill:#febe9f; stroke:none;" d="M4 376L4 377L7 377L4 376z"/>
<path style="fill:#ff4501; stroke:none;" d="M0 377L0 717L374 717L374 425C341.245 422.415 308.602 416.341 276 412.285C217.97 405.065 159.99 397.344 102 389.718C68.744 385.345 33.5253 377.092 0 377z"/>
<path style="fill:#e87a50; stroke:none;" d="M8.66667 377.333L9.33333 377.667L8.66667 377.333z"/>
<path style="fill:#f79670; stroke:none;" d="M10.6667 377.333L11.3333 377.667L10.6667 377.333z"/>
<path style="fill:#febe9f; stroke:none;" d="M12.6667 377.333L13.3333 377.667L12.6667 377.333z"/>
<path style="fill:#e87a50; stroke:none;" d="M16.6667 378.333L17.3333 378.667L16.6667 378.333z"/>
<path style="fill:#f79670; stroke:none;" d="M18.6667 378.333L19.3333 378.667L18.6667 378.333z"/>
<path style="fill:#febe9f; stroke:none;" d="M20.6667 378.333L21.3333 378.667L20.6667 378.333z"/>
<path style="fill:#e87a50; stroke:none;" d="M23 379L23 380L26 380L23 379z"/>
<path style="fill:#f79670; stroke:none;" d="M26 379L27 380L26 379z"/>
<path style="fill:#febe9f; stroke:none;" d="M27 379L27 380L30 380L27 379z"/>
<path style="fill:#e87a50; stroke:none;" d="M31.6667 380.333L32.3333 380.667L31.6667 380.333z"/>
<path style="fill:#f79670; stroke:none;" d="M33.6667 380.333L34.3333 380.667L33.6667 380.333z"/>
<path style="fill:#febe9f; stroke:none;" d="M35 380L35 381L38 381L35 380z"/>
<path style="fill:#e87a50; stroke:none;" d="M38 381L38 382L41 382L38 381z"/>
<path style="fill:#f79670; stroke:none;" d="M41 381L42 382L41 381z"/>
<path style="fill:#febe9f; stroke:none;" d="M42 381L42 382L45 382L42 381z"/>
<path style="fill:#e87a50; stroke:none;" d="M46 382L46 383L49 383L46 382z"/>
<path style="fill:#f79670; stroke:none;" d="M49 382L50 383L49 382z"/>
<path style="fill:#febe9f; stroke:none;" d="M50 382L50 383L53 383L50 382z"/>
<path style="fill:#e87a50; stroke:none;" d="M53 383L53 384L56 384L53 383z"/>
<path style="fill:#f79670; stroke:none;" d="M56.6667 383.333L57.3333 383.667L56.6667 383.333z"/>
<path style="fill:#febe9f; stroke:none;" d="M58.6667 383.333L59.3333 383.667L58.6667 383.333z"/>
<path style="fill:#e87a50; stroke:none;" d="M62.6667 384.333L63.3333 384.667L62.6667 384.333z"/>
<path style="fill:#f79670; stroke:none;" d="M64.6667 384.333L65.3333 384.667L64.6667 384.333z"/>
<path style="fill:#febe9f; stroke:none;" d="M66.6667 384.333L67.3333 384.667L66.6667 384.333z"/>
<path style="fill:#e87a50; stroke:none;" d="M69 385L69 386L72 386L69 385z"/>
<path style="fill:#f79670; stroke:none;" d="M72 385L73 386L72 385z"/>
<path style="fill:#febe9f; stroke:none;" d="M73 385L73 386L76 386L73 385z"/>
<path style="fill:#e87a50; stroke:none;" d="M77 386L77 387L80 387L77 386z"/>
<path style="fill:#f79670; stroke:none;" d="M80 386L81 387L80 386z"/>
<path style="fill:#febe9f; stroke:none;" d="M81 386L81 387L84 387L81 386z"/>
<path style="fill:#e87a50; stroke:none;" d="M85.6667 387.333L86.3333 387.667L85.6667 387.333z"/>
<path style="fill:#f79670; stroke:none;" d="M87 387L88 388L87 387z"/>
<path style="fill:#febe9f; stroke:none;" d="M88 387L88 388L91 388L88 387z"/>
<path style="fill:#e87a50; stroke:none;" d="M93.6667 388.333L94.3333 388.667L93.6667 388.333z"/>
<path style="fill:#f79670; stroke:none;" d="M95.6667 388.333L96.3333 388.667L95.6667 388.333z"/>
<path style="fill:#febe9f; stroke:none;" d="M97.6667 388.333L98.3333 388.667L97.6667 388.333z"/>
<path style="fill:#e87a50; stroke:none;" d="M100.667 389.333L101.333 389.667L100.667 389.333z"/>
<path style="fill:#f79670; stroke:none;" d="M102.667 389.333L103.333 389.667L102.667 389.333z"/>
<path style="fill:#febe9f; stroke:none;" d="M104 389L104 390L107 390L104 389z"/>
<path style="fill:#e87a50; stroke:none;" d="M108.667 390.333L109.333 390.667L108.667 390.333z"/>
<path style="fill:#f79670; stroke:none;" d="M110.667 390.333L111.333 390.667L110.667 390.333z"/>
<path style="fill:#febe9f; stroke:none;" d="M112 390L112 391L115 391L112 390z"/>
<path style="fill:#e87a50; stroke:none;" d="M115 391L115 392L118 392L115 391z"/>
<path style="fill:#f79670; stroke:none;" d="M118 391L119 392L118 391z"/>
<path style="fill:#febe9f; stroke:none;" d="M119 391L119 392L122 392L119 391z"/>
<path style="fill:#e87a50; stroke:none;" d="M123.667 392.333L124.333 392.667L123.667 392.333z"/>
<path style="fill:#f79670; stroke:none;" d="M125.667 392.333L126.333 392.667L125.667 392.333z"/>
<path style="fill:#febe9f; stroke:none;" d="M127 392L127 393L130 393L127 392z"/>
<path style="fill:#e87a50; stroke:none;" d="M130 393L130 394L133 394L130 393z"/>
<path style="fill:#f79670; stroke:none;" d="M133 393L134 394L133 393z"/>
<path style="fill:#febe9f; stroke:none;" d="M134 393L134 394L137 394L134 393z"/>
<path style="fill:#e87a50; stroke:none;" d="M138 394L138 395L141 395L138 394z"/>
<path style="fill:#f79670; stroke:none;" d="M141 394L142 395L141 394z"/>
<path style="fill:#febe9f; stroke:none;" d="M142 394L142 395L146 395L142 394z"/>
<path style="fill:#e87a50; stroke:none;" d="M145 395L145 396L148 396L145 395z"/>
<path style="fill:#f79670; stroke:none;" d="M148.667 395.333L149.333 395.667L148.667 395.333z"/>
<path style="fill:#febe9f; stroke:none;" d="M150.667 395.333L151.333 395.667L150.667 395.333z"/>
<path style="fill:#e87a50; stroke:none;" d="M154.667 396.333L155.333 396.667L154.667 396.333z"/>
<path style="fill:#f79670; stroke:none;" d="M156.667 396.333L157.333 396.667L156.667 396.333z"/>
<path style="fill:#febe9f; stroke:none;" d="M158.667 396.333L159.333 396.667L158.667 396.333z"/>
<path style="fill:#e87a50; stroke:none;" d="M161 397L161 398L164 398L161 397z"/>
<path style="fill:#f79670; stroke:none;" d="M164 397L165 398L164 397z"/>
<path style="fill:#febe9f; stroke:none;" d="M165 397L165 398L168 398L165 397z"/>
<path style="fill:#e87a50; stroke:none;" d="M169.667 398.333L170.333 398.667L169.667 398.333z"/>
<path style="fill:#f79670; stroke:none;" d="M171.667 398.333L172.333 398.667L171.667 398.333z"/>
<path style="fill:#febe9f; stroke:none;" d="M173 398L173 399L176 399L173 398z"/>
<path style="fill:#e87a50; stroke:none;" d="M176 399L176 400L179 400L176 399z"/>
<path style="fill:#f79670; stroke:none;" d="M179.667 399.333L180.333 399.667L179.667 399.333z"/>
<path style="fill:#febe9f; stroke:none;" d="M181 399L181 400L184 400L181 399z"/>
<path style="fill:#e87a50; stroke:none;" d="M185.667 400.333L186.333 400.667L185.667 400.333z"/>
<path style="fill:#f79670; stroke:none;" d="M187.667 400.333L188.333 400.667L187.667 400.333z"/>
<path style="fill:#febe9f; stroke:none;" d="M189.667 400.333L190.333 400.667L189.667 400.333z"/>
<path style="fill:#e87a50; stroke:none;" d="M192.667 401.333L193.333 401.667L192.667 401.333z"/>
<path style="fill:#f79670; stroke:none;" d="M194.667 401.333L195.333 401.667L194.667 401.333z"/>
<path style="fill:#febe9f; stroke:none;" d="M196 401L196 402L199 402L196 401z"/>
<path style="fill:#e87a50; stroke:none;" d="M200.667 402.333L201.333 402.667L200.667 402.333z"/>
<path style="fill:#f79670; stroke:none;" d="M202.667 402.333L203.333 402.667L202.667 402.333z"/>
<path style="fill:#febe9f; stroke:none;" d="M204 402L204 403L207 403L204 402z"/>
<path style="fill:#e87a50; stroke:none;" d="M207 403L207 404L210 404L207 403z"/>
<path style="fill:#f79670; stroke:none;" d="M210 403L211 404L210 403z"/>
<path style="fill:#febe9f; stroke:none;" d="M211 403L211 404L214 404L211 403z"/>
<path style="fill:#e87a50; stroke:none;" d="M215 404L215 405L218 405L215 404z"/>
<path style="fill:#f79670; stroke:none;" d="M218 404L219 405L218 404z"/>
<path style="fill:#febe9f; stroke:none;" d="M219 404L219 405L222 405L219 404z"/>
<path style="fill:#e87a50; stroke:none;" d="M222 405L222 406L225 406L222 405z"/>
<path style="fill:#f79670; stroke:none;" d="M225.667 405.333L226.333 405.667L225.667 405.333z"/>
<path style="fill:#febe9f; stroke:none;" d="M227 405L227 406L230 406L227 405z"/>
<path style="fill:#e87a50; stroke:none;" d="M231.667 406.333L232.333 406.667L231.667 406.333z"/>
<path style="fill:#f79670; stroke:none;" d="M233.667 406.333L234.333 406.667L233.667 406.333z"/>
<path style="fill:#febe9f; stroke:none;" d="M235.667 406.333L236.333 406.667L235.667 406.333z"/>
<path style="fill:#e87a50; stroke:none;" d="M237 407L237 408L240 408L237 407z"/>
<path style="fill:#f79670; stroke:none;" d="M240.667 407.333L241.333 407.667L240.667 407.333z"/>
<path style="fill:#febe9f; stroke:none;" d="M242 407L242 408L245 408L242 407z"/>
<path style="fill:#e87a50; stroke:none;" d="M246.667 408.333L247.333 408.667L246.667 408.333z"/>
<path style="fill:#f79670; stroke:none;" d="M248.667 408.333L249.333 408.667L248.667 408.333z"/>
<path style="fill:#febe9f; stroke:none;" d="M250.667 408.333L251.333 408.667L250.667 408.333z"/>
<path style="fill:#e87a50; stroke:none;" d="M253 409L253 410L256 410L253 409z"/>
<path style="fill:#f79670; stroke:none;" d="M256 409L257 410L256 409z"/>
<path style="fill:#febe9f; stroke:none;" d="M257 409L257 410L260 410L257 409z"/>
<path style="fill:#e87a50; stroke:none;" d="M261 410L261 411L264 411L261 410z"/>
<path style="fill:#f79670; stroke:none;" d="M264.667 410.333L265.333 410.667L264.667 410.333z"/>
<path style="fill:#febe9f; stroke:none;" d="M266.667 410.333L267.333 410.667L266.667 410.333z"/>
<path style="fill:#e87a50; stroke:none;" d="M268 411L268 412L271 412L268 411z"/>
<path style="fill:#f79670; stroke:none;" d="M271.667 411.333L272.333 411.667L271.667 411.333z"/>
<path style="fill:#febe9f; stroke:none;" d="M273.667 411.333L274.333 411.667L273.667 411.333z"/>
<path style="fill:#e87a50; stroke:none;" d="M277.667 412.333L278.333 412.667L277.667 412.333z"/>
<path style="fill:#f79670; stroke:none;" d="M279.667 412.333L280.333 412.667L279.667 412.333z"/>
<path style="fill:#febe9f; stroke:none;" d="M281.667 412.333L282.333 412.667L281.667 412.333z"/>
<path style="fill:#e87a50; stroke:none;" d="M284.667 413.333L285.333 413.667L284.667 413.333z"/>
<path style="fill:#f79670; stroke:none;" d="M286.667 413.333L287.333 413.667L286.667 413.333z"/>
<path style="fill:#febe9f; stroke:none;" d="M288 413L288 414L291 414L288 413z"/>
<path style="fill:#e87a50; stroke:none;" d="M292.667 414.333L293.333 414.667L292.667 414.333z"/>
<path style="fill:#f79670; stroke:none;" d="M294.667 414.333L295.333 414.667L294.667 414.333z"/>
<path style="fill:#febe9f; stroke:none;" d="M296 414L296 415L299 415L296 414z"/>
<path style="fill:#e87a50; stroke:none;" d="M299 415L299 416L302 416L299 415z"/>
<path style="fill:#f79670; stroke:none;" d="M302.667 415.333L303.333 415.667L302.667 415.333z"/>
<path style="fill:#febe9f; stroke:none;" d="M304.667 415.333L305.333 415.667L304.667 415.333z"/>
<path style="fill:#e87a50; stroke:none;" d="M308.667 416.333L309.333 416.667L308.667 416.333z"/>
<path style="fill:#f79670; stroke:none;" d="M310.667 416.333L311.333 416.667L310.667 416.333z"/>
<path style="fill:#febe9f; stroke:none;" d="M312.667 416.333L313.333 416.667L312.667 416.333z"/>
<path style="fill:#e87a50; stroke:none;" d="M314 417L314 418L317 418L314 417z"/>
<path style="fill:#f79670; stroke:none;" d="M317.667 417.333L318.333 417.667L317.667 417.333z"/>
<path style="fill:#febe9f; stroke:none;" d="M319 417L319 418L322 418L319 417z"/>
<path style="fill:#e87a50; stroke:none;" d="M323.667 418.333L324.333 418.667L323.667 418.333z"/>
<path style="fill:#f79670; stroke:none;" d="M325.667 418.333L326.333 418.667L325.667 418.333z"/>
<path style="fill:#febe9f; stroke:none;" d="M327 418L327 419L330 419L327 418z"/>
<path style="fill:#e87a50; stroke:none;" d="M330 419L330 420L333 420L330 419z"/>
<path style="fill:#f79670; stroke:none;" d="M333 419L334 420L333 419z"/>
<path style="fill:#febe9f; stroke:none;" d="M334.667 419.333L335.333 419.667L334.667 419.333z"/>
<path style="fill:#e87a50; stroke:none;" d="M338 420L338 421L341 421L338 420z"/>
<path style="fill:#f79670; stroke:none;" d="M341 420L342 421L341 420z"/>
<path style="fill:#febe9f; stroke:none;" d="M342.667 420.333L343.333 420.667L342.667 420.333z"/>
<path style="fill:#e87a50; stroke:none;" d="M345 421L345 422L348 422L345 421z"/>
<path style="fill:#f79670; stroke:none;" d="M348 421L349 422L348 421z"/>
<path style="fill:#febe9f; stroke:none;" d="M349 421L349 422L352 422L349 421z"/>
<path style="fill:#e87a50; stroke:none;" d="M353 422L353 423L356 423L353 422z"/>
<path style="fill:#f79670; stroke:none;" d="M356 422L357 423L356 422z"/>
<path style="fill:#febe9f; stroke:none;" d="M357 422L357 423L360 423L357 422z"/>
<path style="fill:#e87a50; stroke:none;" d="M361.667 423.333L362.333 423.667L361.667 423.333z"/>
<path style="fill:#f79670; stroke:none;" d="M363.667 423.333L364.333 423.667L363.667 423.333z"/>
<path style="fill:#febe9f; stroke:none;" d="M365 423L365 424L368 424L365 423z"/>
<path style="fill:#e87a50; stroke:none;" d="M369.667 424.333L370.333 424.667L369.667 424.333z"/>
<path style="fill:#f79670; stroke:none;" d="M371.667 424.333L372.333 424.667L371.667 424.333z"/>
<path style="fill:#febe9f; stroke:none;" d="M373 424L374 425L373 424z"/>
</svg>
