<?xml version="1.0" standalone="yes"?>
<svg xmlns="http://www.w3.org/2000/svg" width="1920" height="921">
<path style="fill:#2b0101; stroke:none;" d="M0 0L0 1L1920 1C1907.59 -4.20636 1885.51 0 1872 0L1758 0L1365 0L0 0z"/>
<path style="fill:#ffffff; stroke:none;" d="M0 1L0 921L1018 921L1010.37 886L996.475 828L953.884 650L855.116 236L799 1L0 1z"/>
<path style="fill:#f4906a; stroke:none;" d="M799.333 1.66669L799.667 2.33331L799.333 1.66669z"/>
<path style="fill:#ff4501; stroke:none;" d="M800 1L817.116 75L850.349 214L964.884 694L1002.23 850L1019 921L1920 921L1920 1L800 1z"/>
<path style="fill:#fdb292; stroke:none;" d="M799 3L800 4L799 3z"/>
<path style="fill:#f4906a; stroke:none;" d="M800.333 5.66669L800.667 6.33331L800.333 5.66669z"/>
<path style="fill:#fdb292; stroke:none;" d="M800.333 7.66669L800.667 8.33331L800.333 7.66669z"/>
<path style="fill:#f4906a; stroke:none;" d="M801.333 9.66669L801.667 10.3333L801.333 9.66669z"/>
<path style="fill:#fdb292; stroke:none;" d="M801.333 11.6667L801.667 12.3333L801.333 11.6667z"/>
<path style="fill:#f4906a; stroke:none;" d="M802.333 14.6667L802.667 15.3333L802.333 14.6667z"/>
<path style="fill:#fdb292; stroke:none;" d="M802 16L803 17L802 16z"/>
<path style="fill:#f4906a; stroke:none;" d="M803 18L804 19L803 18z"/>
<path style="fill:#fdb292; stroke:none;" d="M803.333 19.6667L803.667 20.3333L803.333 19.6667z"/>
<path style="fill:#f4906a; stroke:none;" d="M804.333 22.6667L804.667 23.3333L804.333 22.6667z"/>
<path style="fill:#fdb292; stroke:none;" d="M804.333 24.6667L804.667 25.3333L804.333 24.6667z"/>
<path style="fill:#f4906a; stroke:none;" d="M805.333 26.6667L805.667 27.3333L805.333 26.6667z"/>
<path style="fill:#fdb292; stroke:none;" d="M805 28L806 29L805 28z"/>
<path style="fill:#f4906a; stroke:none;" d="M806 31L807 32L806 31z"/>
<path style="fill:#fdb292; stroke:none;" d="M806.333 32.6667L806.667 33.3333L806.333 32.6667z"/>
<path style="fill:#f4906a; stroke:none;" d="M807 35L808 36L807 35z"/>
<path style="fill:#fdb292; stroke:none;" d="M807.333 36.6667L807.667 37.3333L807.333 36.6667z"/>
<path style="fill:#f4906a; stroke:none;" d="M808.333 39.6667L808.667 40.3333L808.333 39.6667z"/>
<path style="fill:#fdb292; stroke:none;" d="M808 41L809 42L808 41z"/>
<path style="fill:#f4906a; stroke:none;" d="M809.333 43.6667L809.667 44.3333L809.333 43.6667z"/>
<path style="fill:#fdb292; stroke:none;" d="M809 45L810 46L809 45z"/>
<path style="fill:#f4906a; stroke:none;" d="M810.333 47.6667L810.667 48.3333L810.333 47.6667z"/>
<path style="fill:#fdb292; stroke:none;" d="M810.333 49.6667L810.667 50.3333L810.333 49.6667z"/>
<path style="fill:#f4906a; stroke:none;" d="M811.333 51.6667L811.667 52.3333L811.333 51.6667z"/>
<path style="fill:#fdb292; stroke:none;" d="M811 53L812 54L811 53z"/>
<path style="fill:#f4906a; stroke:none;" d="M812 56L813 57L812 56z"/>
<path style="fill:#fdb292; stroke:none;" d="M812.333 57.6667L812.667 58.3333L812.333 57.6667z"/>
<path style="fill:#f4906a; stroke:none;" d="M813 60L814 61L813 60z"/>
<path style="fill:#fdb292; stroke:none;" d="M813.333 61.6667L813.667 62.3333L813.333 61.6667z"/>
<path style="fill:#f4906a; stroke:none;" d="M814.333 64.6667L814.667 65.3333L814.333 64.6667z"/>
<path style="fill:#fdb292; stroke:none;" d="M814 66L815 67L814 66z"/>
<path style="fill:#f4906a; stroke:none;" d="M815.333 68.6667L815.667 69.3333L815.333 68.6667z"/>
<path style="fill:#fdb292; stroke:none;" d="M815 70L816 71L815 70z"/>
<path style="fill:#f4906a; stroke:none;" d="M816.333 72.6667L816.667 73.3333L816.333 72.6667z"/>
<path style="fill:#fdb292; stroke:none;" d="M816.333 74.6667L816.667 75.3333L816.333 74.6667z"/>
<path style="fill:#f4906a; stroke:none;" d="M817.333 76.6667L817.667 77.3333L817.333 76.6667z"/>
<path style="fill:#fdb292; stroke:none;" d="M817.333 78.6667L817.667 79.3333L817.333 78.6667z"/>
<path style="fill:#f4906a; stroke:none;" d="M818 81L819 82L818 81z"/>
<path style="fill:#fdb292; stroke:none;" d="M818.333 82.6667L818.667 83.3333L818.333 82.6667z"/>
<path style="fill:#f4906a; stroke:none;" d="M819 85L820 86L819 85z"/>
<path style="fill:#fdb292; stroke:none;" d="M819.333 86.6667L819.667 87.3333L819.333 86.6667z"/>
<path style="fill:#f4906a; stroke:none;" d="M820.333 89.6667L820.667 90.3333L820.333 89.6667z"/>
<path style="fill:#fdb292; stroke:none;" d="M820 91L821 92L820 91z"/>
<path style="fill:#f4906a; stroke:none;" d="M821.333 93.6667L821.667 94.3333L821.333 93.6667z"/>
<path style="fill:#fdb292; stroke:none;" d="M821 95L822 96L821 95z"/>
<path style="fill:#f4906a; stroke:none;" d="M822 98L823 99L822 98z"/>
<path style="fill:#fdb292; stroke:none;" d="M822.333 99.6667L822.667 100.333L822.333 99.6667z"/>
<path style="fill:#f4906a; stroke:none;" d="M823 102L824 103L823 102z"/>
<path style="fill:#fdb292; stroke:none;" d="M823.333 103.667L823.667 104.333L823.333 103.667z"/>
<path style="fill:#f4906a; stroke:none;" d="M824 106L825 107L824 106z"/>
<path style="fill:#fdb292; stroke:none;" d="M824.333 107.667L824.667 108.333L824.333 107.667z"/>
<path style="fill:#f4906a; stroke:none;" d="M825.333 110.667L825.667 111.333L825.333 110.667z"/>
<path style="fill:#fdb292; stroke:none;" d="M825 112L826 113L825 112z"/>
<path style="fill:#f4906a; stroke:none;" d="M826.333 114.667L826.667 115.333L826.333 114.667z"/>
<path style="fill:#fdb292; stroke:none;" d="M826 116L827 117L826 116z"/>
<path style="fill:#f4906a; stroke:none;" d="M827.333 118.667L827.667 119.333L827.333 118.667z"/>
<path style="fill:#fdb292; stroke:none;" d="M827 120L828 121L827 120z"/>
<path style="fill:#f4906a; stroke:none;" d="M828 123L829 124L828 123z"/>
<path style="fill:#fdb292; stroke:none;" d="M828.333 124.667L828.667 125.333L828.333 124.667z"/>
<path style="fill:#f4906a; stroke:none;" d="M829 127L830 128L829 127z"/>
<path style="fill:#fdb292; stroke:none;" d="M829.333 128.667L829.667 129.333L829.333 128.667z"/>
<path style="fill:#f4906a; stroke:none;" d="M830.333 131.667L830.667 132.333L830.333 131.667z"/>
<path style="fill:#fdb292; stroke:none;" d="M830 133L831 134L830 133z"/>
<path style="fill:#f4906a; stroke:none;" d="M831.333 135.667L831.667 136.333L831.333 135.667z"/>
<path style="fill:#fdb292; stroke:none;" d="M831 137L832 138L831 137z"/>
<path style="fill:#f4906a; stroke:none;" d="M832.333 139.667L832.667 140.333L832.333 139.667z"/>
<path style="fill:#fdb292; stroke:none;" d="M832.333 141.667L832.667 142.333L832.333 141.667z"/>
<path style="fill:#f4906a; stroke:none;" d="M833 144L834 145L833 144z"/>
<path style="fill:#fdb292; stroke:none;" d="M833 145L834 146L833 145z"/>
<path style="fill:#f4906a; stroke:none;" d="M834 148L835 149L834 148z"/>
<path style="fill:#fdb292; stroke:none;" d="M834.333 149.667L834.667 150.333L834.333 149.667z"/>
<path style="fill:#f4906a; stroke:none;" d="M835 152L836 153L835 152z"/>
<path style="fill:#fdb292; stroke:none;" d="M835.333 153.667L835.667 154.333L835.333 153.667z"/>
<path style="fill:#f4906a; stroke:none;" d="M836.333 156.667L836.667 157.333L836.333 156.667z"/>
<path style="fill:#fdb292; stroke:none;" d="M836 158L837 159L836 158z"/>
<path style="fill:#f4906a; stroke:none;" d="M837.333 160.667L837.667 161.333L837.333 160.667z"/>
<path style="fill:#fdb292; stroke:none;" d="M837 162L838 163L837 162z"/>
<path style="fill:#f4906a; stroke:none;" d="M838 165L839 166L838 165z"/>
<path style="fill:#fdb292; stroke:none;" d="M838.333 166.667L838.667 167.333L838.333 166.667z"/>
<path style="fill:#f4906a; stroke:none;" d="M839 169L840 170L839 169z"/>
<path style="fill:#fdb292; stroke:none;" d="M839.333 170.667L839.667 171.333L839.333 170.667z"/>
<path style="fill:#f4906a; stroke:none;" d="M840 173L841 174L840 173z"/>
<path style="fill:#fdb292; stroke:none;" d="M840.333 174.667L840.667 175.333L840.333 174.667z"/>
<path style="fill:#f4906a; stroke:none;" d="M841 177L842 178L841 177z"/>
<path style="fill:#fdb292; stroke:none;" d="M841.333 178.667L841.667 179.333L841.333 178.667z"/>
<path style="fill:#f4906a; stroke:none;" d="M842.333 181.667L842.667 182.333L842.333 181.667z"/>
<path style="fill:#fdb292; stroke:none;" d="M842 183L843 184L842 183z"/>
<path style="fill:#f4906a; stroke:none;" d="M843.333 185.667L843.667 186.333L843.333 185.667z"/>
<path style="fill:#fdb292; stroke:none;" d="M843 187L844 188L843 187z"/>
<path style="fill:#f4906a; stroke:none;" d="M844 190L845 191L844 190z"/>
<path style="fill:#fdb292; stroke:none;" d="M844.333 191.667L844.667 192.333L844.333 191.667z"/>
<path style="fill:#f4906a; stroke:none;" d="M845.333 193.667L845.667 194.333L845.333 193.667z"/>
<path style="fill:#fdb292; stroke:none;" d="M845.333 195.667L845.667 196.333L845.333 195.667z"/>
<path style="fill:#f4906a; stroke:none;" d="M846 198L847 199L846 198z"/>
<path style="fill:#fdb292; stroke:none;" d="M846.333 199.667L846.667 200.333L846.333 199.667z"/>
<path style="fill:#f4906a; stroke:none;" d="M847.333 202.667L847.667 203.333L847.333 202.667z"/>
<path style="fill:#fdb292; stroke:none;" d="M847 204L848 205L847 204z"/>
<path style="fill:#f4906a; stroke:none;" d="M848.333 206.667L848.667 207.333L848.333 206.667z"/>
<path style="fill:#fdb292; stroke:none;" d="M848.333 208.667L848.667 209.333L848.333 208.667z"/>
<path style="fill:#f4906a; stroke:none;" d="M849.333 210.667L849.667 211.333L849.333 210.667z"/>
<path style="fill:#fdb292; stroke:none;" d="M849.333 212.667L849.667 213.333L849.333 212.667z"/>
<path style="fill:#f4906a; stroke:none;" d="M850.333 214.667L850.667 215.333L850.333 214.667z"/>
<path style="fill:#fdb292; stroke:none;" d="M850.333 216.667L850.667 217.333L850.333 216.667z"/>
<path style="fill:#f4906a; stroke:none;" d="M851 219L852 220L851 219z"/>
<path style="fill:#fdb292; stroke:none;" d="M851.333 220.667L851.667 221.333L851.333 220.667z"/>
<path style="fill:#f4906a; stroke:none;" d="M852.333 223.667L852.667 224.333L852.333 223.667z"/>
<path style="fill:#fdb292; stroke:none;" d="M852 225L853 226L852 225z"/>
<path style="fill:#f4906a; stroke:none;" d="M853.333 227.667L853.667 228.333L853.333 227.667z"/>
<path style="fill:#fdb292; stroke:none;" d="M853 229L854 230L853 229z"/>
<path style="fill:#f4906a; stroke:none;" d="M854 232L855 233L854 232z"/>
<path style="fill:#fdb292; stroke:none;" d="M854 233L855 234L854 233z"/>
<path style="fill:#f4906a; stroke:none;" d="M855.333 235.667L855.667 236.333L855.333 235.667z"/>
<path style="fill:#fdb292; stroke:none;" d="M855 237L856 238L855 237z"/>
<path style="fill:#f4906a; stroke:none;" d="M856 240L857 241L856 240z"/>
<path style="fill:#fdb292; stroke:none;" d="M856.333 241.667L856.667 242.333L856.333 241.667z"/>
<path style="fill:#f4906a; stroke:none;" d="M857 244L858 245L857 244z"/>
<path style="fill:#fdb292; stroke:none;" d="M857.333 245.667L857.667 246.333L857.333 245.667z"/>
<path style="fill:#f4906a; stroke:none;" d="M858.333 248.667L858.667 249.333L858.333 248.667z"/>
<path style="fill:#fdb292; stroke:none;" d="M858 250L859 251L858 250z"/>
<path style="fill:#f4906a; stroke:none;" d="M859.333 252.667L859.667 253.333L859.333 252.667z"/>
<path style="fill:#fdb292; stroke:none;" d="M859 254L860 255L859 254z"/>
<path style="fill:#f4906a; stroke:none;" d="M860.333 256.667L860.667 257.333L860.333 256.667z"/>
<path style="fill:#fdb292; stroke:none;" d="M860.333 258.667L860.667 259.333L860.333 258.667z"/>
<path style="fill:#f4906a; stroke:none;" d="M861.333 260.667L861.667 261.333L861.333 260.667z"/>
<path style="fill:#fdb292; stroke:none;" d="M861.333 262.667L861.667 263.333L861.333 262.667z"/>
<path style="fill:#f4906a; stroke:none;" d="M862 265L863 266L862 265z"/>
<path style="fill:#fdb292; stroke:none;" d="M862.333 266.667L862.667 267.333L862.333 266.667z"/>
<path style="fill:#f4906a; stroke:none;" d="M863 269L864 270L863 269z"/>
<path style="fill:#fdb292; stroke:none;" d="M863.333 270.667L863.667 271.333L863.333 270.667z"/>
<path style="fill:#f4906a; stroke:none;" d="M864.333 273.667L864.667 274.333L864.333 273.667z"/>
<path style="fill:#fdb292; stroke:none;" d="M864 275L865 276L864 275z"/>
<path style="fill:#f4906a; stroke:none;" d="M865.333 277.667L865.667 278.333L865.333 277.667z"/>
<path style="fill:#fdb292; stroke:none;" d="M865 279L866 280L865 279z"/>
<path style="fill:#f4906a; stroke:none;" d="M866 282L867 283L866 282z"/>
<path style="fill:#fdb292; stroke:none;" d="M866.333 283.667L866.667 284.333L866.333 283.667z"/>
<path style="fill:#f4906a; stroke:none;" d="M867 286L868 287L867 286z"/>
<path style="fill:#fdb292; stroke:none;" d="M867.333 287.667L867.667 288.333L867.333 287.667z"/>
<path style="fill:#f4906a; stroke:none;" d="M868.333 290.667L868.667 291.333L868.333 290.667z"/>
<path style="fill:#fdb292; stroke:none;" d="M868 292L869 293L868 292z"/>
<path style="fill:#f4906a; stroke:none;" d="M869.333 294.667L869.667 295.333L869.333 294.667z"/>
<path style="fill:#fdb292; stroke:none;" d="M869 296L870 297L869 296z"/>
<path style="fill:#f4906a; stroke:none;" d="M870.333 298.667L870.667 299.333L870.333 298.667z"/>
<path style="fill:#fdb292; stroke:none;" d="M870 300L871 301L870 300z"/>
<path style="fill:#f4906a; stroke:none;" d="M871.333 302.667L871.667 303.333L871.333 302.667z"/>
<path style="fill:#fdb292; stroke:none;" d="M871.333 304.667L871.667 305.333L871.333 304.667z"/>
<path style="fill:#f4906a; stroke:none;" d="M872 307L873 308L872 307z"/>
<path style="fill:#fdb292; stroke:none;" d="M872.333 308.667L872.667 309.333L872.333 308.667z"/>
<path style="fill:#f4906a; stroke:none;" d="M873 311L874 312L873 311z"/>
<path style="fill:#fdb292; stroke:none;" d="M873.333 312.667L873.667 313.333L873.333 312.667z"/>
<path style="fill:#f4906a; stroke:none;" d="M874.333 315.667L874.667 316.333L874.333 315.667z"/>
<path style="fill:#fdb292; stroke:none;" d="M874 317L875 318L874 317z"/>
<path style="fill:#f4906a; stroke:none;" d="M875.333 319.667L875.667 320.333L875.333 319.667z"/>
<path style="fill:#fdb292; stroke:none;" d="M875 321L876 322L875 321z"/>
<path style="fill:#f4906a; stroke:none;" d="M876 324L877 325L876 324z"/>
<path style="fill:#fdb292; stroke:none;" d="M876.333 325.667L876.667 326.333L876.333 325.667z"/>
<path style="fill:#f4906a; stroke:none;" d="M877.333 327.667L877.667 328.333L877.333 327.667z"/>
<path style="fill:#fdb292; stroke:none;" d="M877 329L878 330L877 329z"/>
<path style="fill:#f4906a; stroke:none;" d="M878 332L879 333L878 332z"/>
<path style="fill:#fdb292; stroke:none;" d="M878.333 333.667L878.667 334.333L878.333 333.667z"/>
<path style="fill:#f4906a; stroke:none;" d="M879 336L880 337L879 336z"/>
<path style="fill:#fdb292; stroke:none;" d="M879.333 337.667L879.667 338.333L879.333 337.667z"/>
<path style="fill:#f4906a; stroke:none;" d="M880.333 340.667L880.667 341.333L880.333 340.667z"/>
<path style="fill:#fdb292; stroke:none;" d="M880 342L881 343L880 342z"/>
<path style="fill:#f4906a; stroke:none;" d="M881.333 344.667L881.667 345.333L881.333 344.667z"/>
<path style="fill:#fdb292; stroke:none;" d="M881 346L882 347L881 346z"/>
<path style="fill:#f4906a; stroke:none;" d="M882 349L883 350L882 349z"/>
<path style="fill:#fdb292; stroke:none;" d="M882.333 350.667L882.667 351.333L882.333 350.667z"/>
<path style="fill:#f4906a; stroke:none;" d="M883 353L884 354L883 353z"/>
<path style="fill:#fdb292; stroke:none;" d="M883.333 354.667L883.667 355.333L883.333 354.667z"/>
<path style="fill:#f4906a; stroke:none;" d="M884 357L885 358L884 357z"/>
<path style="fill:#fdb292; stroke:none;" d="M884.333 358.667L884.667 359.333L884.333 358.667z"/>
<path style="fill:#f4906a; stroke:none;" d="M885.333 361.667L885.667 362.333L885.333 361.667z"/>
<path style="fill:#fdb292; stroke:none;" d="M885 363L886 364L885 363z"/>
<path style="fill:#f4906a; stroke:none;" d="M886.333 365.667L886.667 366.333L886.333 365.667z"/>
<path style="fill:#fdb292; stroke:none;" d="M886 367L887 368L886 367z"/>
<path style="fill:#f4906a; stroke:none;" d="M887.333 369.667L887.667 370.333L887.333 369.667z"/>
<path style="fill:#fdb292; stroke:none;" d="M887 371L888 372L887 371z"/>
<path style="fill:#f4906a; stroke:none;" d="M888 374L889 375L888 374z"/>
<path style="fill:#fdb292; stroke:none;" d="M888.333 375.667L888.667 376.333L888.333 375.667z"/>
<path style="fill:#f4906a; stroke:none;" d="M889 378L890 379L889 378z"/>
<path style="fill:#fdb292; stroke:none;" d="M889.333 379.667L889.667 380.333L889.333 379.667z"/>
<path style="fill:#f4906a; stroke:none;" d="M890.333 382.667L890.667 383.333L890.333 382.667z"/>
<path style="fill:#fdb292; stroke:none;" d="M890 384L891 385L890 384z"/>
<path style="fill:#f4906a; stroke:none;" d="M891.333 386.667L891.667 387.333L891.333 386.667z"/>
<path style="fill:#fdb292; stroke:none;" d="M891 388L892 389L891 388z"/>
<path style="fill:#f4906a; stroke:none;" d="M892.333 390.667L892.667 391.333L892.333 390.667z"/>
<path style="fill:#fdb292; stroke:none;" d="M892.333 392.667L892.667 393.333L892.333 392.667z"/>
<path style="fill:#f4906a; stroke:none;" d="M893.333 394.667L893.667 395.333L893.333 394.667z"/>
<path style="fill:#fdb292; stroke:none;" d="M893.333 396.667L893.667 397.333L893.333 396.667z"/>
<path style="fill:#f4906a; stroke:none;" d="M894 399L895 400L894 399z"/>
<path style="fill:#fdb292; stroke:none;" d="M894.333 400.667L894.667 401.333L894.333 400.667z"/>
<path style="fill:#f4906a; stroke:none;" d="M895 403L896 404L895 403z"/>
<path style="fill:#fdb292; stroke:none;" d="M895.333 404.667L895.667 405.333L895.333 404.667z"/>
<path style="fill:#f4906a; stroke:none;" d="M896.333 407.667L896.667 408.333L896.333 407.667z"/>
<path style="fill:#fdb292; stroke:none;" d="M896 409L897 410L896 409z"/>
<path style="fill:#f4906a; stroke:none;" d="M897.333 411.667L897.667 412.333L897.333 411.667z"/>
<path style="fill:#fdb292; stroke:none;" d="M897 413L898 414L897 413z"/>
<path style="fill:#f4906a; stroke:none;" d="M898 416L899 417L898 416z"/>
<path style="fill:#fdb292; stroke:none;" d="M898.333 417.667L898.667 418.333L898.333 417.667z"/>
<path style="fill:#f4906a; stroke:none;" d="M899.333 419.667L899.667 420.333L899.333 419.667z"/>
<path style="fill:#fdb292; stroke:none;" d="M899.333 421.667L899.667 422.333L899.333 421.667z"/>
<path style="fill:#f4906a; stroke:none;" d="M900 424L901 425L900 424z"/>
<path style="fill:#fdb292; stroke:none;" d="M900.333 425.667L900.667 426.333L900.333 425.667z"/>
<path style="fill:#f4906a; stroke:none;" d="M901 428L902 429L901 428z"/>
<path style="fill:#fdb292; stroke:none;" d="M901.333 429.667L901.667 430.333L901.333 429.667z"/>
<path style="fill:#f4906a; stroke:none;" d="M902.333 432.667L902.667 433.333L902.333 432.667z"/>
<path style="fill:#fdb292; stroke:none;" d="M902.333 434.667L902.667 435.333L902.333 434.667z"/>
<path style="fill:#f4906a; stroke:none;" d="M903.333 436.667L903.667 437.333L903.333 436.667z"/>
<path style="fill:#fdb292; stroke:none;" d="M903 438L904 439L903 438z"/>
<path style="fill:#f4906a; stroke:none;" d="M904 441L905 442L904 441z"/>
<path style="fill:#fdb292; stroke:none;" d="M904.333 442.667L904.667 443.333L904.333 442.667z"/>
<path style="fill:#f4906a; stroke:none;" d="M905.333 444.667L905.667 445.333L905.333 444.667z"/>
<path style="fill:#fdb292; stroke:none;" d="M905.333 446.667L905.667 447.333L905.333 446.667z"/>
<path style="fill:#f4906a; stroke:none;" d="M906 449L907 450L906 449z"/>
<path style="fill:#fdb292; stroke:none;" d="M906.333 450.667L906.667 451.333L906.333 450.667z"/>
<path style="fill:#f4906a; stroke:none;" d="M907 453L908 454L907 453z"/>
<path style="fill:#fdb292; stroke:none;" d="M907.333 454.667L907.667 455.333L907.333 454.667z"/>
<path style="fill:#f4906a; stroke:none;" d="M908.333 457.667L908.667 458.333L908.333 457.667z"/>
<path style="fill:#fdb292; stroke:none;" d="M908.333 459.667L908.667 460.333L908.333 459.667z"/>
<path style="fill:#f4906a; stroke:none;" d="M909.333 461.667L909.667 462.333L909.333 461.667z"/>
<path style="fill:#fdb292; stroke:none;" d="M909 463L910 464L909 463z"/>
<path style="fill:#f4906a; stroke:none;" d="M910 466L911 467L910 466z"/>
<path style="fill:#fdb292; stroke:none;" d="M910.333 467.667L910.667 468.333L910.333 467.667z"/>
<path style="fill:#f4906a; stroke:none;" d="M911 470L912 471L911 470z"/>
<path style="fill:#fdb292; stroke:none;" d="M911.333 471.667L911.667 472.333L911.333 471.667z"/>
<path style="fill:#f4906a; stroke:none;" d="M912.333 474.667L912.667 475.333L912.333 474.667z"/>
<path style="fill:#fdb292; stroke:none;" d="M912 476L913 477L912 476z"/>
<path style="fill:#f4906a; stroke:none;" d="M913.333 478.667L913.667 479.333L913.333 478.667z"/>
<path style="fill:#fdb292; stroke:none;" d="M913 480L914 481L913 480z"/>
<path style="fill:#f4906a; stroke:none;" d="M914.333 482.667L914.667 483.333L914.333 482.667z"/>
<path style="fill:#fdb292; stroke:none;" d="M914.333 484.667L914.667 485.333L914.333 484.667z"/>
<path style="fill:#f4906a; stroke:none;" d="M915.333 486.667L915.667 487.333L915.333 486.667z"/>
<path style="fill:#fdb292; stroke:none;" d="M915.333 488.667L915.667 489.333L915.333 488.667z"/>
<path style="fill:#f4906a; stroke:none;" d="M916 491L917 492L916 491z"/>
<path style="fill:#fdb292; stroke:none;" d="M916.333 492.667L916.667 493.333L916.333 492.667z"/>
<path style="fill:#f4906a; stroke:none;" d="M917 495L918 496L917 495z"/>
<path style="fill:#fdb292; stroke:none;" d="M917.333 496.667L917.667 497.333L917.333 496.667z"/>
<path style="fill:#f4906a; stroke:none;" d="M918.333 499.667L918.667 500.333L918.333 499.667z"/>
<path style="fill:#fdb292; stroke:none;" d="M918 501L919 502L918 501z"/>
<path style="fill:#f4906a; stroke:none;" d="M919.333 503.667L919.667 504.333L919.333 503.667z"/>
<path style="fill:#fdb292; stroke:none;" d="M919 505L920 506L919 505z"/>
<path style="fill:#f4906a; stroke:none;" d="M920 508L921 509L920 508z"/>
<path style="fill:#fdb292; stroke:none;" d="M920.333 509.667L920.667 510.333L920.333 509.667z"/>
<path style="fill:#f4906a; stroke:none;" d="M921 512L922 513L921 512z"/>
<path style="fill:#fdb292; stroke:none;" d="M921.333 513.667L921.667 514.333L921.333 513.667z"/>
<path style="fill:#f4906a; stroke:none;" d="M922 516L923 517L922 516z"/>
<path style="fill:#fdb292; stroke:none;" d="M922.333 517.667L922.667 518.333L922.333 517.667z"/>
<path style="fill:#f4906a; stroke:none;" d="M923.333 520.667L923.667 521.333L923.333 520.667z"/>
<path style="fill:#fdb292; stroke:none;" d="M923 522L924 523L923 522z"/>
<path style="fill:#f4906a; stroke:none;" d="M924.333 524.667L924.667 525.333L924.333 524.667z"/>
<path style="fill:#fdb292; stroke:none;" d="M924 526L925 527L924 526z"/>
<path style="fill:#f4906a; stroke:none;" d="M925.333 528.667L925.667 529.333L925.333 528.667z"/>
<path style="fill:#fdb292; stroke:none;" d="M925 530L926 531L925 530z"/>
<path style="fill:#f4906a; stroke:none;" d="M926 533L927 534L926 533z"/>
<path style="fill:#fdb292; stroke:none;" d="M926.333 534.667L926.667 535.333L926.333 534.667z"/>
<path style="fill:#f4906a; stroke:none;" d="M927 537L928 538L927 537z"/>
<path style="fill:#fdb292; stroke:none;" d="M927.333 538.667L927.667 539.333L927.333 538.667z"/>
<path style="fill:#f4906a; stroke:none;" d="M928.333 541.667L928.667 542.333L928.333 541.667z"/>
<path style="fill:#fdb292; stroke:none;" d="M928 543L929 544L928 543z"/>
<path style="fill:#f4906a; stroke:none;" d="M929.333 545.667L929.667 546.333L929.333 545.667z"/>
<path style="fill:#fdb292; stroke:none;" d="M929 547L930 548L929 547z"/>
<path style="fill:#f4906a; stroke:none;" d="M930.333 549.667L930.667 550.333L930.333 549.667z"/>
<path style="fill:#fdb292; stroke:none;" d="M930 551L931 552L930 551z"/>
<path style="fill:#f4906a; stroke:none;" d="M931.333 553.667L931.667 554.333L931.333 553.667z"/>
<path style="fill:#fdb292; stroke:none;" d="M931 555L932 556L931 555z"/>
<path style="fill:#f4906a; stroke:none;" d="M932 558L933 559L932 558z"/>
<path style="fill:#fdb292; stroke:none;" d="M932.333 559.667L932.667 560.333L932.333 559.667z"/>
<path style="fill:#f4906a; stroke:none;" d="M933 562L934 563L933 562z"/>
<path style="fill:#fdb292; stroke:none;" d="M933.333 563.667L933.667 564.333L933.333 563.667z"/>
<path style="fill:#f4906a; stroke:none;" d="M934.333 566.667L934.667 567.333L934.333 566.667z"/>
<path style="fill:#fdb292; stroke:none;" d="M934 568L935 569L934 568z"/>
<path style="fill:#f4906a; stroke:none;" d="M935.333 570.667L935.667 571.333L935.333 570.667z"/>
<path style="fill:#fdb292; stroke:none;" d="M935 572L936 573L935 572z"/>
<path style="fill:#f4906a; stroke:none;" d="M936.333 574.667L936.667 575.333L936.333 574.667z"/>
<path style="fill:#fdb292; stroke:none;" d="M936.333 576.667L936.667 577.333L936.333 576.667z"/>
<path style="fill:#f4906a; stroke:none;" d="M937.333 578.667L937.667 579.333L937.333 578.667z"/>
<path style="fill:#fdb292; stroke:none;" d="M937.333 580.667L937.667 581.333L937.333 580.667z"/>
<path style="fill:#f4906a; stroke:none;" d="M938 583L939 584L938 583z"/>
<path style="fill:#fdb292; stroke:none;" d="M938.333 584.667L938.667 585.333L938.333 584.667z"/>
<path style="fill:#f4906a; stroke:none;" d="M939 587L940 588L939 587z"/>
<path style="fill:#fdb292; stroke:none;" d="M939.333 588.667L939.667 589.333L939.333 588.667z"/>
<path style="fill:#f4906a; stroke:none;" d="M940.333 591.667L940.667 592.333L940.333 591.667z"/>
<path style="fill:#fdb292; stroke:none;" d="M940 593L941 594L940 593z"/>
<path style="fill:#f4906a; stroke:none;" d="M941.333 595.667L941.667 596.333L941.333 595.667z"/>
<path style="fill:#fdb292; stroke:none;" d="M941 597L942 598L941 597z"/>
<path style="fill:#f4906a; stroke:none;" d="M942 600L943 601L942 600z"/>
<path style="fill:#fdb292; stroke:none;" d="M942.333 601.667L942.667 602.333L942.333 601.667z"/>
<path style="fill:#f4906a; stroke:none;" d="M943 604L944 605L943 604z"/>
<path style="fill:#fdb292; stroke:none;" d="M943.333 605.667L943.667 606.333L943.333 605.667z"/>
<path style="fill:#f4906a; stroke:none;" d="M944.333 608.667L944.667 609.333L944.333 608.667z"/>
<path style="fill:#fdb292; stroke:none;" d="M944 610L945 611L944 610z"/>
<path style="fill:#f4906a; stroke:none;" d="M945.333 612.667L945.667 613.333L945.333 612.667z"/>
<path style="fill:#fdb292; stroke:none;" d="M945 614L946 615L945 614z"/>
<path style="fill:#f4906a; stroke:none;" d="M946.333 616.667L946.667 617.333L946.333 616.667z"/>
<path style="fill:#fdb292; stroke:none;" d="M946.333 618.667L946.667 619.333L946.333 618.667z"/>
<path style="fill:#f4906a; stroke:none;" d="M947.333 620.667L947.667 621.333L947.333 620.667z"/>
<path style="fill:#fdb292; stroke:none;" d="M947.333 622.667L947.667 623.333L947.333 622.667z"/>
<path style="fill:#f4906a; stroke:none;" d="M948 625L949 626L948 625z"/>
<path style="fill:#fdb292; stroke:none;" d="M948.333 626.667L948.667 627.333L948.333 626.667z"/>
<path style="fill:#f4906a; stroke:none;" d="M949 629L950 630L949 629z"/>
<path style="fill:#fdb292; stroke:none;" d="M949.333 630.667L949.667 631.333L949.333 630.667z"/>
<path style="fill:#f4906a; stroke:none;" d="M950 633L951 634L950 633z"/>
<path style="fill:#fdb292; stroke:none;" d="M950.333 634.667L950.667 635.333L950.333 634.667z"/>
<path style="fill:#f4906a; stroke:none;" d="M951.333 637.667L951.667 638.333L951.333 637.667z"/>
<path style="fill:#fdb292; stroke:none;" d="M951 639L952 640L951 639z"/>
<path style="fill:#f4906a; stroke:none;" d="M952 642L953 643L952 642z"/>
<path style="fill:#fdb292; stroke:none;" d="M952 643L953 644L952 643z"/>
<path style="fill:#f4906a; stroke:none;" d="M953.333 645.667L953.667 646.333L953.333 645.667z"/>
<path style="fill:#fdb292; stroke:none;" d="M953.333 647.667L953.667 648.333L953.333 647.667z"/>
<path style="fill:#f4906a; stroke:none;" d="M954 650L955 651L954 650z"/>
<path style="fill:#fdb292; stroke:none;" d="M954.333 651.667L954.667 652.333L954.333 651.667z"/>
<path style="fill:#f4906a; stroke:none;" d="M955 654L956 655L955 654z"/>
<path style="fill:#fdb292; stroke:none;" d="M955.333 655.667L955.667 656.333L955.333 655.667z"/>
<path style="fill:#f4906a; stroke:none;" d="M956.333 658.667L956.667 659.333L956.333 658.667z"/>
<path style="fill:#fdb292; stroke:none;" d="M956 660L957 661L956 660z"/>
<path style="fill:#f4906a; stroke:none;" d="M957.333 662.667L957.667 663.333L957.333 662.667z"/>
<path style="fill:#fdb292; stroke:none;" d="M957.333 664.667L957.667 665.333L957.333 664.667z"/>
<path style="fill:#f4906a; stroke:none;" d="M958.333 666.667L958.667 667.333L958.333 666.667z"/>
<path style="fill:#fdb292; stroke:none;" d="M958.333 668.667L958.667 669.333L958.333 668.667z"/>
<path style="fill:#f4906a; stroke:none;" d="M959.333 670.667L959.667 671.333L959.333 670.667z"/>
<path style="fill:#fdb292; stroke:none;" d="M959.333 672.667L959.667 673.333L959.333 672.667z"/>
<path style="fill:#f4906a; stroke:none;" d="M960 675L961 676L960 675z"/>
<path style="fill:#fdb292; stroke:none;" d="M960.333 676.667L960.667 677.333L960.333 676.667z"/>
<path style="fill:#f4906a; stroke:none;" d="M961 679L962 680L961 679z"/>
<path style="fill:#fdb292; stroke:none;" d="M961.333 680.667L961.667 681.333L961.333 680.667z"/>
<path style="fill:#f4906a; stroke:none;" d="M962.333 683.667L962.667 684.333L962.333 683.667z"/>
<path style="fill:#fdb292; stroke:none;" d="M962 685L963 686L962 685z"/>
<path style="fill:#f4906a; stroke:none;" d="M963.333 687.667L963.667 688.333L963.333 687.667z"/>
<path style="fill:#fdb292; stroke:none;" d="M963 689L964 690L963 689z"/>
<path style="fill:#f4906a; stroke:none;" d="M964 692L965 693L964 692z"/>
<path style="fill:#fdb292; stroke:none;" d="M964.333 693.667L964.667 694.333L964.333 693.667z"/>
<path style="fill:#f4906a; stroke:none;" d="M965 696L966 697L965 696z"/>
<path style="fill:#fdb292; stroke:none;" d="M965.333 697.667L965.667 698.333L965.333 697.667z"/>
<path style="fill:#f4906a; stroke:none;" d="M966 700L967 701L966 700z"/>
<path style="fill:#fdb292; stroke:none;" d="M966.333 701.667L966.667 702.333L966.333 701.667z"/>
<path style="fill:#f4906a; stroke:none;" d="M967.333 704.667L967.667 705.333L967.333 704.667z"/>
<path style="fill:#fdb292; stroke:none;" d="M967 706L968 707L967 706z"/>
<path style="fill:#f4906a; stroke:none;" d="M968.333 708.667L968.667 709.333L968.333 708.667z"/>
<path style="fill:#fdb292; stroke:none;" d="M968 710L969 711L968 710z"/>
<path style="fill:#f4906a; stroke:none;" d="M969.333 712.667L969.667 713.333L969.333 712.667z"/>
<path style="fill:#fdb292; stroke:none;" d="M969 714L970 715L969 714z"/>
<path style="fill:#f4906a; stroke:none;" d="M970 717L971 718L970 717z"/>
<path style="fill:#fdb292; stroke:none;" d="M970.333 718.667L970.667 719.333L970.333 718.667z"/>
<path style="fill:#f4906a; stroke:none;" d="M971 721L972 722L971 721z"/>
<path style="fill:#fdb292; stroke:none;" d="M971.333 722.667L971.667 723.333L971.333 722.667z"/>
<path style="fill:#f4906a; stroke:none;" d="M972.333 725.667L972.667 726.333L972.333 725.667z"/>
<path style="fill:#fdb292; stroke:none;" d="M972 727L973 728L972 727z"/>
<path style="fill:#f4906a; stroke:none;" d="M973.333 729.667L973.667 730.333L973.333 729.667z"/>
<path style="fill:#fdb292; stroke:none;" d="M973 731L974 732L973 731z"/>
<path style="fill:#f4906a; stroke:none;" d="M974 734L975 735L974 734z"/>
<path style="fill:#fdb292; stroke:none;" d="M974 735L975 736L974 735z"/>
<path style="fill:#f4906a; stroke:none;" d="M975.333 737.667L975.667 738.333L975.333 737.667z"/>
<path style="fill:#fdb292; stroke:none;" d="M975.333 739.667L975.667 740.333L975.333 739.667z"/>
<path style="fill:#f4906a; stroke:none;" d="M976 742L977 743L976 742z"/>
<path style="fill:#fdb292; stroke:none;" d="M976.333 743.667L976.667 744.333L976.333 743.667z"/>
<path style="fill:#f4906a; stroke:none;" d="M977 746L978 747L977 746z"/>
<path style="fill:#fdb292; stroke:none;" d="M977.333 747.667L977.667 748.333L977.333 747.667z"/>
<path style="fill:#f4906a; stroke:none;" d="M978.333 750.667L978.667 751.333L978.333 750.667z"/>
<path style="fill:#fdb292; stroke:none;" d="M978 752L979 753L978 752z"/>
<path style="fill:#f4906a; stroke:none;" d="M979.333 754.667L979.667 755.333L979.333 754.667z"/>
<path style="fill:#fdb292; stroke:none;" d="M979 756L980 757L979 756z"/>
<path style="fill:#f4906a; stroke:none;" d="M980 759L981 760L980 759z"/>
<path style="fill:#fdb292; stroke:none;" d="M980.333 760.667L980.667 761.333L980.333 760.667z"/>
<path style="fill:#f4906a; stroke:none;" d="M981 763L982 764L981 763z"/>
<path style="fill:#fdb292; stroke:none;" d="M981.333 764.667L981.667 765.333L981.333 764.667z"/>
<path style="fill:#f4906a; stroke:none;" d="M982 767L983 768L982 767z"/>
<path style="fill:#fdb292; stroke:none;" d="M982.333 768.667L982.667 769.333L982.333 768.667z"/>
<path style="fill:#f4906a; stroke:none;" d="M983.333 771.667L983.667 772.333L983.333 771.667z"/>
<path style="fill:#fdb292; stroke:none;" d="M983 773L984 774L983 773z"/>
<path style="fill:#f4906a; stroke:none;" d="M984.333 775.667L984.667 776.333L984.333 775.667z"/>
<path style="fill:#fdb292; stroke:none;" d="M984 777L985 778L984 777z"/>
<path style="fill:#f4906a; stroke:none;" d="M985.333 779.667L985.667 780.333L985.333 779.667z"/>
<path style="fill:#fdb292; stroke:none;" d="M985 781L986 782L985 781z"/>
<path style="fill:#f4906a; stroke:none;" d="M986 784L987 785L986 784z"/>
<path style="fill:#fdb292; stroke:none;" d="M986.333 785.667L986.667 786.333L986.333 785.667z"/>
<path style="fill:#f4906a; stroke:none;" d="M987 788L988 789L987 788z"/>
<path style="fill:#fdb292; stroke:none;" d="M987.333 789.667L987.667 790.333L987.333 789.667z"/>
<path style="fill:#f4906a; stroke:none;" d="M988.333 792.667L988.667 793.333L988.333 792.667z"/>
<path style="fill:#fdb292; stroke:none;" d="M988 794L989 795L988 794z"/>
<path style="fill:#f4906a; stroke:none;" d="M989.333 796.667L989.667 797.333L989.333 796.667z"/>
<path style="fill:#fdb292; stroke:none;" d="M989 798L990 799L989 798z"/>
<path style="fill:#f4906a; stroke:none;" d="M990.333 800.667L990.667 801.333L990.333 800.667z"/>
<path style="fill:#fdb292; stroke:none;" d="M990.333 802.667L990.667 803.333L990.333 802.667z"/>
<path style="fill:#f4906a; stroke:none;" d="M991.333 804.667L991.667 805.333L991.333 804.667z"/>
<path style="fill:#fdb292; stroke:none;" d="M991 806L992 807L991 806z"/>
<path style="fill:#f4906a; stroke:none;" d="M992 809L993 810L992 809z"/>
<path style="fill:#fdb292; stroke:none;" d="M992.333 810.667L992.667 811.333L992.333 810.667z"/>
<path style="fill:#f4906a; stroke:none;" d="M993.333 812.667L993.667 813.333L993.333 812.667z"/>
<path style="fill:#fdb292; stroke:none;" d="M993.333 814.667L993.667 815.333L993.333 814.667z"/>
<path style="fill:#f4906a; stroke:none;" d="M994.333 817.667L994.667 818.333L994.333 817.667z"/>
<path style="fill:#fdb292; stroke:none;" d="M994 819L995 820L994 819z"/>
<path style="fill:#f4906a; stroke:none;" d="M995.333 821.667L995.667 822.333L995.333 821.667z"/>
<path style="fill:#fdb292; stroke:none;" d="M995 823L996 824L995 823z"/>
<path style="fill:#f4906a; stroke:none;" d="M996.333 825.667L996.667 826.333L996.333 825.667z"/>
<path style="fill:#fdb292; stroke:none;" d="M996.333 827.667L996.667 828.333L996.333 827.667z"/>
<path style="fill:#f4906a; stroke:none;" d="M997.333 829.667L997.667 830.333L997.333 829.667z"/>
<path style="fill:#fdb292; stroke:none;" d="M997 831L998 832L997 831z"/>
<path style="fill:#f4906a; stroke:none;" d="M998 834L999 835L998 834z"/>
<path style="fill:#fdb292; stroke:none;" d="M998.333 835.667L998.667 836.333L998.333 835.667z"/>
<path style="fill:#f4906a; stroke:none;" d="M999 838L1000 839L999 838z"/>
<path style="fill:#fdb292; stroke:none;" d="M999.333 839.667L999.667 840.333L999.333 839.667z"/>
<path style="fill:#f4906a; stroke:none;" d="M1000.33 842.667L1000.67 843.333L1000.33 842.667z"/>
<path style="fill:#fdb292; stroke:none;" d="M1000 844L1001 845L1000 844z"/>
<path style="fill:#f4906a; stroke:none;" d="M1001.33 846.667L1001.67 847.333L1001.33 846.667z"/>
<path style="fill:#fdb292; stroke:none;" d="M1001 848L1002 849L1001 848z"/>
<path style="fill:#f4906a; stroke:none;" d="M1002 851L1003 852L1002 851z"/>
<path style="fill:#fdb292; stroke:none;" d="M1002.33 852.667L1002.67 853.333L1002.33 852.667z"/>
<path style="fill:#f4906a; stroke:none;" d="M1003.33 854.667L1003.67 855.333L1003.33 854.667z"/>
<path style="fill:#fdb292; stroke:none;" d="M1003.33 856.667L1003.67 857.333L1003.33 856.667z"/>
<path style="fill:#f4906a; stroke:none;" d="M1004.33 859.667L1004.67 860.333L1004.33 859.667z"/>
<path style="fill:#fdb292; stroke:none;" d="M1004 861L1005 862L1004 861z"/>
<path style="fill:#f4906a; stroke:none;" d="M1005 863L1006 864L1005 863z"/>
<path style="fill:#fdb292; stroke:none;" d="M1005.33 864.667L1005.67 865.333L1005.33 864.667z"/>
<path style="fill:#f4906a; stroke:none;" d="M1006.33 867.667L1006.67 868.333L1006.33 867.667z"/>
<path style="fill:#fdb292; stroke:none;" d="M1006.33 869.667L1006.67 870.333L1006.33 869.667z"/>
<path style="fill:#f4906a; stroke:none;" d="M1007.33 871.667L1007.67 872.333L1007.33 871.667z"/>
<path style="fill:#fdb292; stroke:none;" d="M1007.33 873.667L1007.67 874.333L1007.33 873.667z"/>
<path style="fill:#f4906a; stroke:none;" d="M1008 876L1009 877L1008 876z"/>
<path style="fill:#fdb292; stroke:none;" d="M1008.33 877.667L1008.67 878.333L1008.33 877.667z"/>
<path style="fill:#f4906a; stroke:none;" d="M1009 880L1010 881L1009 880z"/>
<path style="fill:#fdb292; stroke:none;" d="M1009.33 881.667L1009.67 882.333L1009.33 881.667z"/>
<path style="fill:#f4906a; stroke:none;" d="M1010.33 884.667L1010.67 885.333L1010.33 884.667z"/>
<path style="fill:#fdb292; stroke:none;" d="M1010 886L1011 887L1010 886z"/>
<path style="fill:#f4906a; stroke:none;" d="M1011.33 888.667L1011.67 889.333L1011.33 888.667z"/>
<path style="fill:#fdb292; stroke:none;" d="M1011 890L1012 891L1011 890z"/>
<path style="fill:#f4906a; stroke:none;" d="M1012.33 892.667L1012.67 893.333L1012.33 892.667z"/>
<path style="fill:#fdb292; stroke:none;" d="M1012 894L1013 895L1012 894z"/>
<path style="fill:#f4906a; stroke:none;" d="M1013.33 896.667L1013.67 897.333L1013.33 896.667z"/>
<path style="fill:#fdb292; stroke:none;" d="M1013.33 898.667L1013.67 899.333L1013.33 898.667z"/>
<path style="fill:#f4906a; stroke:none;" d="M1014 901L1015 902L1014 901z"/>
<path style="fill:#fdb292; stroke:none;" d="M1014.33 902.667L1014.67 903.333L1014.33 902.667z"/>
<path style="fill:#f4906a; stroke:none;" d="M1015 905L1016 906L1015 905z"/>
<path style="fill:#fdb292; stroke:none;" d="M1015.33 906.667L1015.67 907.333L1015.33 906.667z"/>
<path style="fill:#f4906a; stroke:none;" d="M1016.33 909.667L1016.67 910.333L1016.33 909.667z"/>
<path style="fill:#fdb292; stroke:none;" d="M1016 911L1017 912L1016 911z"/>
<path style="fill:#f4906a; stroke:none;" d="M1017.33 913.667L1017.67 914.333L1017.33 913.667z"/>
<path style="fill:#fdb292; stroke:none;" d="M1017 915L1018 916L1017 915z"/>
<path style="fill:#f4906a; stroke:none;" d="M1018.33 917.667L1018.67 918.333L1018.33 917.667z"/>
<path style="fill:#fdb292; stroke:none;" d="M1018.33 919.667L1018.67 920.333L1018.33 919.667z"/>
</svg>
