<svg xmlns="http://www.w3.org/2000/svg" width="32.469" height="31.672" viewBox="0 0 32.469 31.672">
  <g id="Group_6107" data-name="Group 6107" transform="translate(-14.78 -44.71)">
    <rect id="Rectangle_1779" data-name="Rectangle 1779" width="16.836" height="2.195" transform="translate(18.723 56.652)" fill="#f40"/>
    <path id="Path_5899" data-name="Path 5899" d="M30.861,65.105l-2.056,2.056V58.995a1.032,1.032,0,0,0-1.035-1.035h0a1.032,1.032,0,0,0-1.035,1.035v8.166l-2.056-2.056a1.021,1.021,0,0,0-1.454,0h0a1.021,1.021,0,0,0,0,1.454L27.771,71.1l4.544-4.544a1.021,1.021,0,0,0,0-1.454h0a1.021,1.021,0,0,0-1.454,0Z" transform="translate(3.243 5.278)" fill="#f40"/>
    <path id="Path_5900" data-name="Path 5900" d="M43.879,44.71H18.15a3.372,3.372,0,0,0-3.37,3.37V67.223a3.372,3.372,0,0,0,3.37,3.37h5.23V69.544H18.15a2.324,2.324,0,0,1-2.321-2.321V54.666H46.2V67.223a2.324,2.324,0,0,1-2.321,2.321h-5.23v1.049h5.23a3.372,3.372,0,0,0,3.37-3.37V48.08A3.372,3.372,0,0,0,43.879,44.71Zm-28.05,5.216V48.08a2.324,2.324,0,0,1,2.321-2.321H43.893a2.324,2.324,0,0,1,2.321,2.321v1.846H15.829Z" transform="translate(0 0)" fill="#f40"/>
  </g>
</svg>
