<svg id="Group_752" data-name="Group 752" xmlns="http://www.w3.org/2000/svg" width="671.818" height="383.665" viewBox="0 0 671.818 383.665">
  <path id="Path_2665" data-name="Path 2665" d="M901.164,715.843H234.242a2.451,2.451,0,0,0-2.448,2.454v15.174a2.813,2.813,0,0,0,2.084,2.72l15.593,4.169a67.485,67.485,0,0,0,17.434,2.29H868.5a67.485,67.485,0,0,0,17.433-2.29l15.593-4.169a2.813,2.813,0,0,0,2.084-2.72V718.3a2.451,2.451,0,0,0-2.448-2.454" transform="translate(-231.794 -358.986)" fill="#f40"/>
  <path id="Path_2666" data-name="Path 2666" d="M879.261,527.358H311.542V185.717A15.2,15.2,0,0,1,326.719,170.5H864.085a15.2,15.2,0,0,1,15.177,15.216Z" transform="translate(-259.493 -170.501)" fill="#f40"/>
  <rect id="Rectangle_1012" data-name="Rectangle 1012" width="527.504" height="320.163" transform="translate(72.143 20.539)" fill="#fff"/>
  <rect id="Rectangle_1013" data-name="Rectangle 1013" width="527.504" height="320.163" transform="translate(72.143 20.539)" fill="none" stroke="#000" stroke-width="2"/>
  <path id="Path_2667" data-name="Path 2667" d="M747.893,185.52a3.062,3.062,0,1,1-3.062-3.07,3.065,3.065,0,0,1,3.062,3.07" transform="translate(-408.923 -174.631)" fill="#fff"/>
  <path id="Path_2682" data-name="Path 2682" d="M3.069,0A3.062,3.062,0,1,1,0,3.062,3.061,3.061,0,0,1,3.069,0Z" transform="translate(332.226 13.171) rotate(-76.718)" fill="none" stroke="#000" stroke-width="2"/>
  <path id="Path_2668" data-name="Path 2668" d="M770.774,186.265a1.654,1.654,0,1,1-1.654-1.658,1.656,1.656,0,0,1,1.654,1.658" transform="translate(-417.848 -175.376)"/>
  <path id="Path_2669" data-name="Path 2669" d="M723.695,186.265a1.654,1.654,0,1,1-1.654-1.658,1.656,1.656,0,0,1,1.654,1.658" transform="translate(-401.496 -175.376)"/>
  <line id="Line_60" data-name="Line 60" x2="670.233" transform="translate(0.71 375.551)" fill="none" stroke="#000" stroke-width="1"/>
  <path id="Path_2670" data-name="Path 2670" d="M854.109,704.509H286.389l-47.265,7.416H901.019Z" transform="translate(-234.34 -355.069)"/>
  <path id="Path_2671" data-name="Path 2671" d="M869.032,753.1h-601.6A67.517,67.517,0,0,1,250,750.814l-15.592-4.169a2.979,2.979,0,0,1-1.087-.558H903.129a2.775,2.775,0,0,1-1.071.558l-15.592,4.169a67.516,67.516,0,0,1-17.433,2.29" transform="translate(-232.325 -369.439)" fill="#f40"/>
  <path id="Path_2672" data-name="Path 2672" d="M773.629,712.181h-125.1c-2.174,0-3.936,2.4-3.936,2.4s1.762,2.4,3.936,2.4h125.1c2.174,0,3.936-2.4,3.936-2.4s-1.762-2.4-3.936-2.4" transform="translate(-375.172 -357.721)" fill="#fff"/>
  <path id="Path_2673" data-name="Path 2673" d="M773.629,712.181h-125.1c-2.174,0-3.936,2.4-3.936,2.4s1.762,2.4,3.936,2.4h125.1c2.174,0,3.936-2.4,3.936-2.4S775.8,712.181,773.629,712.181Z" transform="translate(-375.172 -357.721)" fill="none" stroke="#000" stroke-width="2"/>
  <path id="Path_2674" data-name="Path 2674" d="M746.16,446.163a50.733,50.733,0,0,0,4.09-18.477c-.044-.733-.072-1.468-.072-2.211a36.35,36.35,0,1,1,67.745,18.345h.01l12.228,11.33a52.736,52.736,0,1,0-88.106-1.268,54.328,54.328,0,0,0,4.105-7.719" transform="translate(-406.15 -240.352)" fill="#e03c00"/>
  <path id="Path_2675" data-name="Path 2675" d="M792.881,455.437v35.114a36.334,36.334,0,0,1-32.557-20.239,55.625,55.625,0,0,1-2.4,6.783,60.2,60.2,0,0,1-5.839,10.512A52.631,52.631,0,0,0,809.3,504.354l.075-.012V493.9l13.051,13.085h22.205c-1.239,0-51.751-51.546-51.751-51.546" transform="translate(-412.505 -268.983)" fill="#e03c00"/>
  <path id="Path_2676" data-name="Path 2676" d="M698.833,405.266a55.034,55.034,0,0,0-4.192-7.864,54.433,54.433,0,0,0-4.12,7.864,51.208,51.208,0,0,0-4.022,18.411l-.074,0c.032.671.051,1.349.051,2.032a36.958,36.958,0,0,1-2.822,14.422,37.617,37.617,0,0,1-7.73,11.793,36.381,36.381,0,0,1-11.427,7.951,36.153,36.153,0,0,1-28.363,0,37.34,37.34,0,0,1-11.561-8.019,36.517,36.517,0,0,1-7.8-11.792,37.586,37.586,0,0,1-2.755-14.488,38.7,38.7,0,0,1,2.688-14.354,36.133,36.133,0,0,1,19.155-20.013,34.8,34.8,0,0,1,14.318-2.966,35.2,35.2,0,0,1,25.743,10.984,39.109,39.109,0,0,1,6.934,10.155,56.209,56.209,0,0,1,2.245-6.37,60.047,60.047,0,0,1,5.873-10.675q-1.707-2.087-3.631-4.024A54.159,54.159,0,0,0,670.438,376.8a52.071,52.071,0,0,0-40.736,0,54.03,54.03,0,0,0-28.109,28.467,51.464,51.464,0,0,0-4.066,20.316,52.239,52.239,0,0,0,52.65,52.786,51.473,51.473,0,0,0,20.4-4.076,53.314,53.314,0,0,0,28.252-28.111,52.654,52.654,0,0,0,0-40.915" transform="translate(-358.823 -240.369)" fill="#f40"/>
  <path id="Path_2677" data-name="Path 2677" d="M758.641,388.7a46.454,46.454,0,0,0-12.968,14.252C740.39,412.115,754,428.075,754,428.075s-4.032-17.569,4.639-39.38" transform="translate(-409.855 -245.915)" fill="#f40"/>
</svg>
