<svg xmlns="http://www.w3.org/2000/svg" xmlns:xlink="http://www.w3.org/1999/xlink" width="142" height="142" viewBox="0 0 142 142">
  <defs>
    <clipPath id="clip-path">
      <rect id="Rectangle_8789" data-name="Rectangle 8789" width="61.329" height="68" fill="#1a1a1a"/>
    </clipPath>
  </defs>
  <g id="Group_5677" data-name="Group 5677" transform="translate(-440 -3007)">
    <rect id="Rectangle_4906" data-name="Rectangle 4906" width="142" height="142" rx="71" transform="translate(440 3007)" fill="#fff"/>
    <g id="Group_10150" data-name="Group 10150" transform="translate(6 14)">
      <g id="Group_10149" data-name="Group 10149" transform="translate(468.336 3027.5)">
        <g id="Group_10149-2" data-name="Group 10149" transform="translate(0 0)" clip-path="url(#clip-path)">
          <path id="Path_18584" data-name="Path 18584" d="M7.281,52.053h5.572a.364.364,0,0,0,.26-.1.38.38,0,0,0,.108-.269V31.42a.375.375,0,0,0-.108-.268.361.361,0,0,0-.26-.1v-.005H6.181l.078-1.424a25.893,25.893,0,0,1,7.727-17,24.033,24.033,0,0,1,16.8-7.063,24.035,24.035,0,0,1,16.806,7.063,25.884,25.884,0,0,1,7.727,17l.078,1.424H48.477v0a.368.368,0,0,0-.261.1.38.38,0,0,0-.106.269V51.682a.379.379,0,0,0,.107.269.364.364,0,0,0,.26.1h9.764a.365.365,0,0,0,.26-.1.373.373,0,0,0,.109-.267V31.42a.331.331,0,0,0-.017-.114.444.444,0,0,0-.075-.125l-.324-.85a28.687,28.687,0,0,0-8.386-19.477A26.889,26.889,0,0,0,30.789,2.72a26.88,26.88,0,0,0-18.935,8.051A28.707,28.707,0,0,0,3.39,30.1l-.02.639-.506.392a.4.4,0,0,0-.11.136.352.352,0,0,0-.034.156V51.682a.362.362,0,0,0,.1.26.374.374,0,0,0,.268.108H7.281Zm5.572,2.72H7.212a8.329,8.329,0,0,0,4.358,7.063,21.752,21.752,0,0,0,9.686,2.416c1.2.06,2.391.06,3.531.016l.811-.032.41.707a.7.7,0,0,0,.251.254.643.643,0,0,0,.327.085h8.682a.68.68,0,0,0,.483-.2.668.668,0,0,0,.193-.476V62.814a.682.682,0,0,0-.2-.484.669.669,0,0,0-.478-.193H26.586v-2.72h8.682a3.407,3.407,0,0,1,3.4,3.4v1.793A3.4,3.4,0,0,1,35.268,68H26.586a3.347,3.347,0,0,1-1.687-.456A3.441,3.441,0,0,1,24.193,67c-1,.023-2.033.014-3.065-.038A24.384,24.384,0,0,1,10.2,64.173a10.912,10.912,0,0,1-5.7-9.4h-1.4A3.1,3.1,0,0,1,0,51.682V31.42a3.056,3.056,0,0,1,.321-1.357A3.112,3.112,0,0,1,.7,29.471,31.448,31.448,0,0,1,9.942,8.848,29.58,29.58,0,0,1,30.789,0,29.6,29.6,0,0,1,51.73,8.941a31.424,31.424,0,0,1,9.16,20.908,3.073,3.073,0,0,1,.242.5,3.04,3.04,0,0,1,.2,1.07V51.682a3.1,3.1,0,0,1-3.089,3.091H48.477a3.1,3.1,0,0,1-3.087-3.091V31.42a3.1,3.1,0,0,1,3.087-3.092v.005h4.011a23.215,23.215,0,0,0-6.8-13.777,21.325,21.325,0,0,0-14.9-6.276,21.318,21.318,0,0,0-14.9,6.277A23.215,23.215,0,0,0,9.092,28.333h3.761v-.005a3.1,3.1,0,0,1,3.087,3.091V51.682a3.1,3.1,0,0,1-3.087,3.091" transform="translate(0 0)" fill="#1a1a1a"/>
        </g>
      </g>
      <rect id="Rectangle_8790" data-name="Rectangle 8790" width="52" height="17" transform="translate(504 3061)" fill="#fff"/>
      <text id="_24_5" data-name="24/5" transform="translate(530 3076)" fill="#f40" font-size="20" font-family="SofiaPro-Black, Sofia Pro" font-weight="800"><tspan x="-22" y="0">24</tspan><tspan y="0" fill="#1a1a1a">/</tspan><tspan y="0">5</tspan></text>
    </g>
  </g>
</svg>
