<svg xmlns="http://www.w3.org/2000/svg" xmlns:xlink="http://www.w3.org/1999/xlink" width="142" height="142" viewBox="0 0 142 142">
  <defs>
    <clipPath id="clip-path">
      <rect id="Rectangle_8792" data-name="Rectangle 8792" width="77.004" height="77.004" fill="none"/>
    </clipPath>
  </defs>
  <g id="Group_5679" data-name="Group 5679" transform="translate(-1038 -3007)">
    <rect id="Rectangle_4908" data-name="Rectangle 4908" width="142" height="142" rx="71" transform="translate(1038 3007)" fill="#fff"/>
    <g id="Group_10153" data-name="Group 10153" transform="translate(1070.496 3039.498)">
      <g id="Group_10153-2" data-name="Group 10153" clip-path="url(#clip-path)">
        <path id="Path_18591" data-name="Path 18591" d="M77,36.414c0-.013,0-.026,0-.04a1.481,1.481,0,0,0-.034-.3c0-.015-.011-.03-.014-.045a1.4,1.4,0,0,0-.1-.274c-.006-.012-.007-.026-.013-.037l-8.378-16.2a4.366,4.366,0,0,0-.175-8.729H44.448a7.294,7.294,0,0,0-1.573-1.571V4.374a4.374,4.374,0,0,0-8.747,0V9.218a7.35,7.35,0,0,0-1.573,1.571H8.713a4.366,4.366,0,0,0-.175,8.729L.161,35.714c-.007.012-.007.026-.014.037a1.514,1.514,0,0,0-.1.274c0,.016-.011.03-.014.045a1.481,1.481,0,0,0-.034.3c0,.014,0,.026,0,.04v.026A8.328,8.328,0,0,0,8.321,44.7h5.151a8.327,8.327,0,0,0,8.318-8.255c0-.009,0-.017,0-.026s0-.026,0-.04a1.481,1.481,0,0,0-.034-.3c0-.015-.01-.03-.015-.045a1.512,1.512,0,0,0-.1-.274c-.006-.012-.008-.026-.015-.037L13.264,19.535H32.555a7.3,7.3,0,0,0,1.573,1.575V59.732H30.237a5.684,5.684,0,0,0-5.677,5.676v1.521A5.68,5.68,0,0,0,18.912,72.6v2.96A1.441,1.441,0,0,0,20.353,77h36.3a1.442,1.442,0,0,0,1.441-1.441V72.6a5.68,5.68,0,0,0-5.65-5.674V65.408a5.683,5.683,0,0,0-5.676-5.676H42.875V21.109a7.28,7.28,0,0,0,1.575-1.574h19.29L55.371,35.714c-.007.012-.008.026-.014.037a1.454,1.454,0,0,0-.1.274c0,.016-.011.03-.014.045a1.426,1.426,0,0,0-.034.3c0,.014,0,.026,0,.04s0,.017,0,.026A8.328,8.328,0,0,0,63.531,44.7h5.151A8.328,8.328,0,0,0,77,36.441v-.026m-7.22-21.252a1.483,1.483,0,0,1-1.491,1.491H45.722a6.762,6.762,0,0,0,0-2.981H68.29a1.493,1.493,0,0,1,1.491,1.491M36.276,19.077A4.5,4.5,0,0,1,34,15.162a4.509,4.509,0,0,1,2.287-3.921,4.507,4.507,0,0,1,6.138,1.7,4.489,4.489,0,0,1,.584,2.219,4.5,4.5,0,0,1-2.288,3.92,4.5,4.5,0,0,1-4.442,0M38.5,2.883a1.493,1.493,0,0,1,1.491,1.491V7.955a7.64,7.64,0,0,0-2.983,0V4.374A1.493,1.493,0,0,1,38.5,2.883M7.224,15.162a1.492,1.492,0,0,1,1.49-1.491H31.283a7.363,7.363,0,0,0-.168,1.491,7.461,7.461,0,0,0,.166,1.491H8.713a1.491,1.491,0,0,1-1.49-1.491m6.248,26.652H8.321a5.448,5.448,0,0,1-5.245-4H18.718a5.449,5.449,0,0,1-5.246,4m-9.663-6.88,7.088-13.7,7.087,13.7ZM55.21,72.6v1.519H21.794V72.6a2.8,2.8,0,0,1,2.793-2.794h27.83A2.8,2.8,0,0,1,55.21,72.6m-5.65-7.195v1.519H27.443V65.408a2.8,2.8,0,0,1,2.794-2.794H46.766a2.8,2.8,0,0,1,2.794,2.794M37.01,59.732V22.383a6.769,6.769,0,0,0,2.983,0V59.732Zm29.1-38.5,7.088,13.7H59.02Zm2.576,20.58H63.531a5.449,5.449,0,0,1-5.245-4H73.927a5.447,5.447,0,0,1-5.244,4" transform="translate(0 0)"/>
        <path id="Path_18592" data-name="Path 18592" d="M48.163,19.011a2.159,2.159,0,1,0-.812.811,2.134,2.134,0,0,0,.812-.811" transform="translate(-7.787 -2.787)" fill="#f40"/>
        <path id="Path_18593" data-name="Path 18593" d="M81.169,49.915H76.017a5.449,5.449,0,0,1-5.245-4H86.413a5.447,5.447,0,0,1-5.244,4" transform="translate(-12.486 -8.101)" fill="#f40"/>
        <path id="Path_18594" data-name="Path 18594" d="M14.169,49.915H9.018a5.447,5.447,0,0,1-5.245-4h15.64a5.447,5.447,0,0,1-5.245,4" transform="translate(-0.666 -8.101)" fill="#f40"/>
      </g>
    </g>
  </g>
</svg>
