<svg xmlns="http://www.w3.org/2000/svg" xmlns:xlink="http://www.w3.org/1999/xlink" width="142" height="142" viewBox="0 0 142 142">
  <defs>
    <clipPath id="clip-path">
      <rect id="Rectangle_8791" data-name="Rectangle 8791" width="73.551" height="74.665" fill="none"/>
    </clipPath>
  </defs>
  <g id="Group_5678" data-name="Group 5678" transform="translate(-739 -3007)">
    <rect id="Rectangle_4907" data-name="Rectangle 4907" width="142" height="142" rx="71" transform="translate(739 3007)" fill="#fff"/>
    <g id="Group_10152" data-name="Group 10152" transform="translate(773.224 3040.667)">
      <g id="Group_10151" data-name="Group 10151" transform="translate(0 0.001)" clip-path="url(#clip-path)">
        <path id="Path_18585" data-name="Path 18585" d="M56.557,13.458A13.457,13.457,0,1,0,43.1,26.915,13.473,13.473,0,0,0,56.557,13.458M43.1,24.162a10.7,10.7,0,1,1,10.7-10.7,10.716,10.716,0,0,1-10.7,10.7" transform="translate(-6.325 0)"/>
        <path id="Path_18586" data-name="Path 18586" d="M46.087,13.79c-1.8-.387-2.376-.633-2.376-1.373,0-.6.545-1.056,1.514-1.056a5.8,5.8,0,0,1,3.45,1.285L50.207,10.5a7,7,0,0,0-3.873-1.6V7.787H44.5V8.9c-2.306.264-3.821,1.725-3.821,3.82,0,2.429,1.919,3.133,4.507,3.715,1.761.422,2.324.581,2.324,1.3,0,.651-.581,1.109-1.708,1.109a6.174,6.174,0,0,1-3.978-1.532l-1.69,2.025A7.894,7.894,0,0,0,44.5,21.289v1.162h1.831V21.342c2.623-.211,4.206-1.672,4.206-3.925,0-2.271-1.742-3.046-4.453-3.626" transform="translate(-8.563 -1.662)" fill="#f40"/>
        <path id="Path_18587" data-name="Path 18587" d="M14.195,44.012H9.162V38.991a1.377,1.377,0,0,0-2.753,0v5.021H1.377A1.377,1.377,0,0,0,0,45.388v16.5a1.377,1.377,0,0,0,1.377,1.377H6.409V68.29a1.377,1.377,0,0,0,2.753,0V63.269h5.033a1.377,1.377,0,0,0,1.377-1.377v-16.5a1.377,1.377,0,0,0-1.377-1.377m-1.377,16.5H2.753V46.765H12.818Z" transform="translate(0 -8.026)" fill="#f40"/>
        <path id="Path_18588" data-name="Path 18588" d="M38.764,60.569H33.731V55.547a1.377,1.377,0,1,0-2.753,0v5.022H25.945a1.377,1.377,0,0,0-1.377,1.377v16.5a1.377,1.377,0,0,0,1.377,1.377h5.033v5.021a1.377,1.377,0,0,0,2.753,0V79.826h5.033a1.377,1.377,0,0,0,1.377-1.377v-16.5a1.377,1.377,0,0,0-1.377-1.377m-1.377,16.5H27.322V63.322H37.387Z" transform="translate(-5.242 -11.558)"/>
        <path id="Path_18589" data-name="Path 18589" d="M63.332,44.012H58.3V38.991a1.377,1.377,0,0,0-2.753,0v5.021H50.514a1.377,1.377,0,0,0-1.377,1.377v16.5a1.377,1.377,0,0,0,1.377,1.377h5.032V68.29a1.377,1.377,0,0,0,2.753,0V63.269h5.033a1.377,1.377,0,0,0,1.377-1.377v-16.5a1.377,1.377,0,0,0-1.377-1.377m-1.377,16.5H51.89V46.765H61.955Z" transform="translate(-10.484 -8.026)" fill="#f40"/>
        <path id="Path_18590" data-name="Path 18590" d="M87.9,60.569H82.867V55.547a1.377,1.377,0,1,0-2.753,0v5.022H75.082a1.376,1.376,0,0,0-1.377,1.377v16.5a1.377,1.377,0,0,0,1.377,1.377h5.032v5.021a1.377,1.377,0,0,0,2.753,0V79.826H87.9a1.377,1.377,0,0,0,1.377-1.377v-16.5A1.376,1.376,0,0,0,87.9,60.569m-1.377,16.5H76.458V63.322H86.523Z" transform="translate(-15.725 -11.558)"/>
      </g>
    </g>
  </g>
</svg>
