<svg xmlns="http://www.w3.org/2000/svg" xmlns:xlink="http://www.w3.org/1999/xlink" width="177" height="213" viewBox="0 0 177 213">
  <defs>
    <clipPath id="clip-path">
      <rect id="Rectangle_4595" data-name="Rectangle 4595" width="177" height="213" transform="translate(-0.367 0.146)" fill="#fff" stroke="#707070" stroke-width="1"/>
    </clipPath>
    <clipPath id="clip-path-2">
      <rect id="Rectangle_4588" data-name="Rectangle 4588" width="205.957" height="214.019" fill="none"/>
    </clipPath>
  </defs>
  <g id="Mask_Group_4512" data-name="Mask Group 4512" transform="translate(0.367 -0.146)" clip-path="url(#clip-path)">
    <g id="Group_5126" data-name="Group 5126" transform="translate(-0.311 0.227)">
      <g id="Group_5113" data-name="Group 5113">
        <g id="Group_5112" data-name="Group 5112" clip-path="url(#clip-path-2)">
          <path id="Path_10675" data-name="Path 10675" d="M194.691,376l-20.5,35.512h41.006Z" transform="translate(-91.711 -197.966)" fill="none" stroke="#f40" stroke-width="1"/>
        </g>
      </g>
      <path id="Path_10676" data-name="Path 10676" d="M194.691,226l-20.5,35.512h41.006Z" transform="translate(-91.711 -118.99)" fill="none" stroke="#f40" stroke-width="1"/>
      <g id="Group_5115" data-name="Group 5115">
        <g id="Group_5114" data-name="Group 5114" clip-path="url(#clip-path-2)">
          <path id="Path_10677" data-name="Path 10677" d="M281.332,376l-20.5,35.512h41.006Z" transform="translate(-137.328 -197.966)" fill="none" stroke="#f40" stroke-width="1"/>
          <path id="Path_10678" data-name="Path 10678" d="M108.01,376l-20.5,35.512h41.006Z" transform="translate(-46.073 -197.966)" fill="none" stroke="#f40" stroke-width="1"/>
        </g>
      </g>
      <path id="Path_10679" data-name="Path 10679" d="M238.031,301l-20.5,35.512h41.006Z" transform="translate(-114.53 -158.478)" fill="none" stroke="#f40" stroke-width="1"/>
      <path id="Path_10680" data-name="Path 10680" d="M151.351,301l-20.5,35.512h41.006Z" transform="translate(-68.892 -158.478)" fill="none" stroke="#f40" stroke-width="1"/>
      <path id="Path_10681" data-name="Path 10681" d="M151.37,261.512,171.873,226H130.867Z" transform="translate(-68.902 -118.99)" fill="none" stroke="#f40" stroke-width="1"/>
      <path id="Path_10682" data-name="Path 10682" d="M108.03,336.512,128.533,301H87.527Z" transform="translate(-46.084 -158.478)" fill="none" stroke="#f40" stroke-width="1"/>
      <g id="Group_5117" data-name="Group 5117">
        <g id="Group_5116" data-name="Group 5116" clip-path="url(#clip-path-2)">
          <path id="Path_10683" data-name="Path 10683" d="M21.369,376,.866,411.512H41.872Z" transform="translate(-0.456 -197.966)" fill="none" stroke="#f40" stroke-width="1"/>
        </g>
      </g>
      <path id="Path_10684" data-name="Path 10684" d="M64.709,301l-20.5,35.512H85.212Z" transform="translate(-23.275 -158.478)" fill="#f40"/>
      <path id="Path_10685" data-name="Path 10685" d="M64.709,301l-20.5,35.512H85.212Z" transform="translate(-23.275 -158.478)" fill="none" stroke="#f40" stroke-width="1"/>
      <g id="Group_5119" data-name="Group 5119">
        <g id="Group_5118" data-name="Group 5118" clip-path="url(#clip-path-2)">
          <path id="Path_10686" data-name="Path 10686" d="M21.388,336.512,41.891,301H.886Z" transform="translate(-0.466 -158.478)" fill="none" stroke="#f40" stroke-width="1"/>
          <path id="Path_10687" data-name="Path 10687" d="M367.92,376l-20.5,35.512h41.006Z" transform="translate(-182.917 -197.966)" fill="none" stroke="#f40" stroke-width="1"/>
        </g>
      </g>
      <path id="Path_10688" data-name="Path 10688" d="M324.6,261.512,345.1,226H304.1Z" transform="translate(-160.108 -118.99)" fill="none" stroke="#f40" stroke-width="1"/>
      <g id="Group_5121" data-name="Group 5121">
        <g id="Group_5120" data-name="Group 5120" clip-path="url(#clip-path-2)">
          <path id="Path_10689" data-name="Path 10689" d="M324.6,411.512,345.1,376H304.1Z" transform="translate(-160.108 -197.966)" fill="none" stroke="#f40" stroke-width="1"/>
        </g>
      </g>
      <path id="Path_10690" data-name="Path 10690" d="M237.958,261.512,258.46,226H217.455Z" transform="translate(-114.491 -118.99)" fill="none" stroke="#f40" stroke-width="1"/>
      <path id="Path_10691" data-name="Path 10691" d="M281.259,336.512,301.762,301H260.756Z" transform="translate(-137.29 -158.478)" fill="none" stroke="#f40" stroke-width="1"/>
      <g id="Group_5123" data-name="Group 5123">
        <g id="Group_5122" data-name="Group 5122" clip-path="url(#clip-path-2)">
          <path id="Path_10692" data-name="Path 10692" d="M367.939,336.512,388.442,301H347.436Z" transform="translate(-182.927 -158.478)" fill="none" stroke="#f40" stroke-width="1"/>
        </g>
      </g>
      <path id="Path_10693" data-name="Path 10693" d="M324.667,151l-20.5,35.512H345.17Z" transform="translate(-160.144 -79.502)" fill="none" stroke="#f40" stroke-width="1"/>
      <g id="Group_5125" data-name="Group 5125">
        <g id="Group_5124" data-name="Group 5124" clip-path="url(#clip-path-2)">
          <path id="Path_10694" data-name="Path 10694" d="M324.667,1l-20.5,35.512H345.17Z" transform="translate(-160.144 -0.526)" fill="none" stroke="#f40" stroke-width="1"/>
          <path id="Path_10695" data-name="Path 10695" d="M368.008,76l-20.5,35.512H388.51Z" transform="translate(-182.963 -40.014)" fill="none" stroke="#f40" stroke-width="1"/>
          <path id="Path_10696" data-name="Path 10696" d="M281.347,36.512,301.85,1H260.844Z" transform="translate(-137.336 -0.526)" fill="none" stroke="#f40" stroke-width="1"/>
        </g>
      </g>
    </g>
  </g>
</svg>
