<svg xmlns="http://www.w3.org/2000/svg" xmlns:xlink="http://www.w3.org/1999/xlink" width="133" height="160" viewBox="0 0 133 160">
  <defs>
    <clipPath id="clip-path">
      <rect id="Rectangle_4595" data-name="Rectangle 4595" width="133" height="160" transform="translate(-0.25 0)" fill="#fff" stroke="#707070" stroke-width="1"/>
    </clipPath>
    <clipPath id="clip-path-2">
      <rect id="Rectangle_4588" data-name="Rectangle 4588" width="154.468" height="160.515" fill="none"/>
    </clipPath>
  </defs>
  <g id="Mask_Group_4512" data-name="Mask Group 4512" transform="translate(0.25 0)" clip-path="url(#clip-path)">
    <g id="Group_5126" data-name="Group 5126" transform="translate(0.042 0.061)">
      <g id="Group_5113" data-name="Group 5113">
        <g id="Group_5112" data-name="Group 5112" clip-path="url(#clip-path-2)">
          <path id="Path_10675" data-name="Path 10675" d="M189.565,376l-15.377,26.634h30.754Z" transform="translate(-112.33 -242.475)" fill="none" stroke="#f40" stroke-width="1"/>
        </g>
      </g>
      <path id="Path_10676" data-name="Path 10676" d="M189.565,226l-15.377,26.634h30.754Z" transform="translate(-112.33 -145.743)" fill="none" stroke="#f40" stroke-width="1"/>
      <g id="Group_5115" data-name="Group 5115">
        <g id="Group_5114" data-name="Group 5114" clip-path="url(#clip-path-2)">
          <path id="Path_10677" data-name="Path 10677" d="M276.206,376l-15.377,26.634h30.754Z" transform="translate(-168.203 -242.475)" fill="none" stroke="#f40" stroke-width="1"/>
          <path id="Path_10678" data-name="Path 10678" d="M102.885,376,87.508,402.634h30.754Z" transform="translate(-56.432 -242.475)" fill="none" stroke="#f40" stroke-width="1"/>
        </g>
      </g>
      <path id="Path_10679" data-name="Path 10679" d="M232.9,301l-15.377,26.634h30.754Z" transform="translate(-140.279 -194.109)" fill="none" stroke="#f40" stroke-width="1"/>
      <path id="Path_10680" data-name="Path 10680" d="M146.225,301l-15.377,26.634H161.6Z" transform="translate(-84.381 -194.109)" fill="none" stroke="#f40" stroke-width="1"/>
      <path id="Path_10681" data-name="Path 10681" d="M146.244,252.634,161.621,226H130.867Z" transform="translate(-84.394 -145.743)" fill="none" stroke="#f40" stroke-width="1"/>
      <path id="Path_10682" data-name="Path 10682" d="M102.9,327.634,118.281,301H87.527Z" transform="translate(-56.444 -194.109)" fill="none" stroke="#f40" stroke-width="1"/>
      <g id="Group_5117" data-name="Group 5117">
        <g id="Group_5116" data-name="Group 5116" clip-path="url(#clip-path-2)">
          <path id="Path_10683" data-name="Path 10683" d="M16.243,376,.866,402.634H31.62Z" transform="translate(-0.559 -242.475)" fill="none" stroke="#f40" stroke-width="1"/>
        </g>
      </g>
      <path id="Path_10684" data-name="Path 10684" d="M59.583,301,44.206,327.634H74.961Z" transform="translate(-28.508 -194.109)" fill="#f40"/>
      <path id="Path_10685" data-name="Path 10685" d="M59.583,301,44.206,327.634H74.961Z" transform="translate(-28.508 -194.109)" fill="none" stroke="#f40" stroke-width="1"/>
      <g id="Group_5119" data-name="Group 5119">
        <g id="Group_5118" data-name="Group 5118" clip-path="url(#clip-path-2)">
          <path id="Path_10686" data-name="Path 10686" d="M16.263,327.634,31.64,301H.886Z" transform="translate(-0.571 -194.109)" fill="none" stroke="#f40" stroke-width="1"/>
          <path id="Path_10687" data-name="Path 10687" d="M362.794,376l-15.377,26.634h30.754Z" transform="translate(-224.042 -242.475)" fill="none" stroke="#f40" stroke-width="1"/>
        </g>
      </g>
      <path id="Path_10688" data-name="Path 10688" d="M319.473,252.634,334.85,226H304.1Z" transform="translate(-196.105 -145.743)" fill="none" stroke="#f40" stroke-width="1"/>
      <g id="Group_5121" data-name="Group 5121">
        <g id="Group_5120" data-name="Group 5120" clip-path="url(#clip-path-2)">
          <path id="Path_10689" data-name="Path 10689" d="M319.473,402.634,334.85,376H304.1Z" transform="translate(-196.105 -242.475)" fill="none" stroke="#f40" stroke-width="1"/>
        </g>
      </g>
      <path id="Path_10690" data-name="Path 10690" d="M232.832,252.634,248.209,226H217.455Z" transform="translate(-140.232 -145.743)" fill="none" stroke="#f40" stroke-width="1"/>
      <path id="Path_10691" data-name="Path 10691" d="M276.133,327.634,291.51,301H260.756Z" transform="translate(-168.156 -194.109)" fill="none" stroke="#f40" stroke-width="1"/>
      <g id="Group_5123" data-name="Group 5123">
        <g id="Group_5122" data-name="Group 5122" clip-path="url(#clip-path-2)">
          <path id="Path_10692" data-name="Path 10692" d="M362.813,327.634,378.191,301H347.436Z" transform="translate(-224.055 -194.109)" fill="none" stroke="#f40" stroke-width="1"/>
        </g>
      </g>
      <path id="Path_10693" data-name="Path 10693" d="M319.542,151l-15.377,26.634h30.754Z" transform="translate(-196.149 -97.377)" fill="none" stroke="#f40" stroke-width="1"/>
      <g id="Group_5125" data-name="Group 5125">
        <g id="Group_5124" data-name="Group 5124" clip-path="url(#clip-path-2)">
          <path id="Path_10694" data-name="Path 10694" d="M319.542,1,304.165,27.634h30.754Z" transform="translate(-196.149 -0.645)" fill="none" stroke="#f40" stroke-width="1"/>
          <path id="Path_10695" data-name="Path 10695" d="M362.882,76,347.5,102.634h30.754Z" transform="translate(-224.099 -49.011)" fill="none" stroke="#f40" stroke-width="1"/>
          <path id="Path_10696" data-name="Path 10696" d="M276.221,27.634,291.6,1H260.844Z" transform="translate(-168.213 -0.645)" fill="none" stroke="#f40" stroke-width="1"/>
        </g>
      </g>
    </g>
  </g>
</svg>
