<svg xmlns="http://www.w3.org/2000/svg" xmlns:xlink="http://www.w3.org/1999/xlink" width="65" height="78" viewBox="0 0 65 78">
  <defs>
    <clipPath id="clip-path">
      <rect id="Rectangle_4595" data-name="Rectangle 4595" width="65" height="78" transform="translate(-0.058 0.168)" fill="#fff" stroke="#707070" stroke-width="1"/>
    </clipPath>
    <clipPath id="clip-path-2">
      <rect id="Rectangle_4588" data-name="Rectangle 4588" width="75.424" height="78.376" fill="none" stroke="#707070" stroke-width="0.5"/>
    </clipPath>
  </defs>
  <g id="Mask_Group_4512" data-name="Mask Group 4512" transform="translate(0.058 -0.168)" clip-path="url(#clip-path)">
    <g id="Group_5126" data-name="Group 5126" transform="translate(0.143 0.03)">
      <g id="Group_5113" data-name="Group 5113">
        <g id="Group_5112" data-name="Group 5112" clip-path="url(#clip-path-2)">
          <path id="Path_10675" data-name="Path 10675" d="M181.7,376l-7.508,13H189.2Z" transform="translate(-143.984 -310.802)" fill="none" stroke="#f40" stroke-width="0.5"/>
        </g>
      </g>
      <path id="Path_10676" data-name="Path 10676" d="M181.7,226l-7.508,13H189.2Z" transform="translate(-143.984 -186.812)" fill="none" stroke="#f40" stroke-width="0.5"/>
      <g id="Group_5115" data-name="Group 5115">
        <g id="Group_5114" data-name="Group 5114" clip-path="url(#clip-path-2)">
          <path id="Path_10677" data-name="Path 10677" d="M268.338,376l-7.508,13h15.017Z" transform="translate(-215.602 -310.802)" fill="none" stroke="#f40" stroke-width="0.5"/>
          <path id="Path_10678" data-name="Path 10678" d="M95.016,376l-7.508,13h15.017Z" transform="translate(-72.334 -310.802)" fill="none" stroke="#f40" stroke-width="0.5"/>
        </g>
      </g>
      <path id="Path_10679" data-name="Path 10679" d="M225.036,301l-7.508,13h15.017Z" transform="translate(-179.809 -248.807)" fill="none" stroke="#f40" stroke-width="0.5"/>
      <path id="Path_10680" data-name="Path 10680" d="M138.356,301l-7.508,13h15.017Z" transform="translate(-108.159 -248.807)" fill="none" stroke="#f40" stroke-width="0.5"/>
      <path id="Path_10681" data-name="Path 10681" d="M138.376,239l7.508-13H130.867Z" transform="translate(-108.175 -186.812)" fill="none" stroke="#f40" stroke-width="0.5"/>
      <path id="Path_10682" data-name="Path 10682" d="M95.035,314l7.508-13H87.527Z" transform="translate(-72.35 -248.807)" fill="none" stroke="#f40" stroke-width="0.5"/>
      <g id="Group_5117" data-name="Group 5117">
        <g id="Group_5116" data-name="Group 5116" clip-path="url(#clip-path-2)">
          <path id="Path_10683" data-name="Path 10683" d="M8.375,376,.866,389H15.883Z" transform="translate(-0.716 -310.802)" fill="none" stroke="#f40" stroke-width="0.5"/>
        </g>
      </g>
      <path id="Path_10684" data-name="Path 10684" d="M51.715,301l-7.508,13H59.223Z" transform="translate(-36.541 -248.807)" fill="#f40" stroke="#707070" stroke-width="0.5"/>
      <path id="Path_10685" data-name="Path 10685" d="M51.715,301l-7.508,13H59.223Z" transform="translate(-36.541 -248.807)" fill="none" stroke="#f40" stroke-width="0.5"/>
      <g id="Group_5119" data-name="Group 5119">
        <g id="Group_5118" data-name="Group 5118" clip-path="url(#clip-path-2)">
          <path id="Path_10686" data-name="Path 10686" d="M8.394,314,15.9,301H.886Z" transform="translate(-0.732 -248.807)" fill="none" stroke="#f40" stroke-width="0.5"/>
          <path id="Path_10687" data-name="Path 10687" d="M354.925,376l-7.508,13h15.017Z" transform="translate(-287.175 -310.802)" fill="none" stroke="#f40" stroke-width="0.5"/>
        </g>
      </g>
      <path id="Path_10688" data-name="Path 10688" d="M311.6,239l7.508-13H304.1Z" transform="translate(-251.366 -186.812)" fill="none" stroke="#f40" stroke-width="0.5"/>
      <g id="Group_5121" data-name="Group 5121">
        <g id="Group_5120" data-name="Group 5120" clip-path="url(#clip-path-2)">
          <path id="Path_10689" data-name="Path 10689" d="M311.6,389l7.508-13H304.1Z" transform="translate(-251.366 -310.802)" fill="none" stroke="#f40" stroke-width="0.5"/>
        </g>
      </g>
      <path id="Path_10690" data-name="Path 10690" d="M224.963,239l7.508-13H217.455Z" transform="translate(-179.749 -186.812)" fill="none" stroke="#f40" stroke-width="0.5"/>
      <path id="Path_10691" data-name="Path 10691" d="M268.265,314l7.508-13H260.756Z" transform="translate(-215.541 -248.807)" fill="none" stroke="#f40" stroke-width="0.5"/>
      <g id="Group_5123" data-name="Group 5123">
        <g id="Group_5122" data-name="Group 5122" clip-path="url(#clip-path-2)">
          <path id="Path_10692" data-name="Path 10692" d="M354.945,314l7.508-13H347.436Z" transform="translate(-287.191 -248.807)" fill="none" stroke="#f40" stroke-width="0.5"/>
        </g>
      </g>
      <path id="Path_10693" data-name="Path 10693" d="M311.673,151l-7.508,13h15.017Z" transform="translate(-251.423 -124.817)" fill="none" stroke="#f40" stroke-width="0.5"/>
      <g id="Group_5125" data-name="Group 5125">
        <g id="Group_5124" data-name="Group 5124" clip-path="url(#clip-path-2)">
          <path id="Path_10694" data-name="Path 10694" d="M311.673,1l-7.508,13h15.017Z" transform="translate(-251.423 -0.827)" fill="none" stroke="#f40" stroke-width="0.5"/>
          <path id="Path_10695" data-name="Path 10695" d="M355.013,76,347.5,89h15.017Z" transform="translate(-287.248 -62.822)" fill="none" stroke="#f40" stroke-width="0.5"/>
          <path id="Path_10696" data-name="Path 10696" d="M268.352,14l7.508-13H260.844Z" transform="translate(-215.614 -0.827)" fill="none" stroke="#f40" stroke-width="0.5"/>
        </g>
      </g>
    </g>
  </g>
</svg>
