<svg xmlns="http://www.w3.org/2000/svg" xmlns:xlink="http://www.w3.org/1999/xlink" width="332" height="398" viewBox="0 0 332 398">
  <defs>
    <clipPath id="clip-path">
      <rect id="Rectangle_4473" data-name="Rectangle 4473" width="332" height="398" transform="translate(0 7256.363)" fill="#fff" stroke="#707070" stroke-width="1"/>
    </clipPath>
    <clipPath id="clip-path-2">
      <rect id="Rectangle_4466" data-name="Rectangle 4466" width="385.892" height="400.998" fill="none"/>
    </clipPath>
  </defs>
  <g id="Mask_Group_4499" data-name="Mask Group 4499" transform="translate(0 -7256.363)" clip-path="url(#clip-path)">
    <g id="Group_4587" data-name="Group 4587" transform="translate(-53.892 7253.559)">
      <g id="Group_4574" data-name="Group 4574">
        <g id="Group_4573" data-name="Group 4573" clip-path="url(#clip-path-2)">
          <path id="Path_9276" data-name="Path 9276" d="M212.6,442.537,251.018,376h-76.83Z" transform="translate(-19.659 -375.113)" fill="none" stroke="#f40" stroke-width="1"/>
        </g>
      </g>
      <path id="Path_9277" data-name="Path 9277" d="M212.6,292.537,251.018,226h-76.83Z" transform="translate(-19.659 -92.038)" fill="none" stroke="#f40" stroke-width="1"/>
      <g id="Group_4576" data-name="Group 4576">
        <g id="Group_4575" data-name="Group 4575" clip-path="url(#clip-path-2)">
          <path id="Path_9278" data-name="Path 9278" d="M299.244,442.537,337.659,376h-76.83Z" transform="translate(-183.165 -375.113)" fill="none" stroke="#f40" stroke-width="1"/>
          <path id="Path_9279" data-name="Path 9279" d="M125.923,442.537,164.338,376H87.508Z" transform="translate(143.921 -375.113)" fill="none" stroke="#f40" stroke-width="1"/>
        </g>
      </g>
      <path id="Path_9280" data-name="Path 9280" d="M255.943,367.537,294.358,301h-76.83Z" transform="translate(-101.449 -233.576)" fill="none" stroke="#f40" stroke-width="1"/>
      <path id="Path_9281" data-name="Path 9281" d="M169.263,367.537,207.678,301h-76.83Z" transform="translate(62.131 -233.576)" fill="none" stroke="#f40" stroke-width="1"/>
      <path id="Path_9282" data-name="Path 9282" d="M169.282,226l-38.415,66.537H207.7Z" transform="translate(62.094 -92.038)" fill="none" stroke="#f40" stroke-width="1"/>
      <path id="Path_9283" data-name="Path 9283" d="M125.942,301,87.527,367.537h76.83Z" transform="translate(143.884 -233.576)" fill="none" stroke="#f40" stroke-width="1"/>
      <g id="Group_4578" data-name="Group 4578">
        <g id="Group_4577" data-name="Group 4577" clip-path="url(#clip-path-2)">
          <path id="Path_9284" data-name="Path 9284" d="M39.281,442.537,77.7,376H.866Z" transform="translate(307.427 -375.113)" fill="none" stroke="#f40" stroke-width="1"/>
        </g>
      </g>
      <path id="Path_9285" data-name="Path 9285" d="M82.622,367.537,121.037,301H44.206Z" transform="translate(225.637 -233.576)" fill="#f40"/>
      <path id="Path_9286" data-name="Path 9286" d="M82.622,367.537,121.037,301H44.206Z" transform="translate(225.637 -233.576)" fill="none" stroke="#f40" stroke-width="1"/>
      <g id="Group_4580" data-name="Group 4580">
        <g id="Group_4579" data-name="Group 4579" clip-path="url(#clip-path-2)">
          <path id="Path_9287" data-name="Path 9287" d="M39.3,301,.886,367.537h76.83Z" transform="translate(307.391 -233.576)" fill="none" stroke="#f40" stroke-width="1"/>
          <path id="Path_9288" data-name="Path 9288" d="M385.832,442.537,424.247,376h-76.83Z" transform="translate(-346.571 -375.113)" fill="none" stroke="#f40" stroke-width="1"/>
        </g>
      </g>
      <path id="Path_9289" data-name="Path 9289" d="M342.511,226,304.1,292.537h76.83Z" transform="translate(-264.817 -92.038)" fill="none" stroke="#f40" stroke-width="1"/>
      <g id="Group_4582" data-name="Group 4582">
        <g id="Group_4581" data-name="Group 4581" clip-path="url(#clip-path-2)">
          <path id="Path_9290" data-name="Path 9290" d="M342.511,376,304.1,442.537h76.83Z" transform="translate(-264.817 -375.113)" fill="none" stroke="#f40" stroke-width="1"/>
        </g>
      </g>
      <path id="Path_9291" data-name="Path 9291" d="M255.87,226l-38.415,66.537h76.83Z" transform="translate(-101.311 -92.038)" fill="none" stroke="#f40" stroke-width="1"/>
      <path id="Path_9292" data-name="Path 9292" d="M299.171,301l-38.415,66.537h76.83Z" transform="translate(-183.028 -233.576)" fill="none" stroke="#f40" stroke-width="1"/>
      <g id="Group_4584" data-name="Group 4584">
        <g id="Group_4583" data-name="Group 4583" clip-path="url(#clip-path-2)">
          <path id="Path_9293" data-name="Path 9293" d="M385.852,301l-38.415,66.537h76.83Z" transform="translate(-346.607 -233.576)" fill="none" stroke="#f40" stroke-width="1"/>
        </g>
      </g>
      <path id="Path_9294" data-name="Path 9294" d="M342.58,217.537,380.995,151h-76.83Z" transform="translate(-264.946 49.499)" fill="none" stroke="#f40" stroke-width="1"/>
      <g id="Group_4586" data-name="Group 4586">
        <g id="Group_4585" data-name="Group 4585" clip-path="url(#clip-path-2)">
          <path id="Path_9295" data-name="Path 9295" d="M342.58,67.537,380.995,1h-76.83Z" transform="translate(-264.946 332.574)" fill="none" stroke="#f40" stroke-width="1"/>
          <path id="Path_9296" data-name="Path 9296" d="M385.92,142.537,424.335,76H347.5Z" transform="translate(-346.736 191.036)" fill="none" stroke="#f40" stroke-width="1"/>
          <path id="Path_9297" data-name="Path 9297" d="M299.259,1,260.844,67.537h76.83Z" transform="translate(-183.193 332.574)" fill="none" stroke="#f40" stroke-width="1"/>
        </g>
      </g>
    </g>
  </g>
</svg>
