<?xml version="1.0" standalone="yes"?>
<svg xmlns="http://www.w3.org/2000/svg" width="1024" height="532">
<path style="fill:#696969; stroke:none;" d="M0 0L0 1L382 1L348 0L270 0L0 0z"/>
<path style="fill:#490101; stroke:none;" d="M382 0L382 1L1024 1L1006 0L968 0L837 0L382 0z"/>
<path style="fill:#ffffff; stroke:none;" d="M0 1L0 532L486 531L476.6 482L459 393L406.8 129L390.4 46L382 1L0 1z"/>
<path style="fill:#ff4501; stroke:none;" d="M382 1L487 532L1024 532L1024 1L382 1z"/>
<path style="fill:#f1a788; stroke:none;" d="M382 3L382 7L383 7L382 3M383 8L383 12L384 12L383 8M384 14L384 17L385 17L384 14M385 19L385 22L386 22L385 19M386 24L386 27L387 27L386 24M387 29L387 32L388 32L387 29M388 34L388 37L389 37L388 34M389 39L389 42L390 42L389 39M390 44L390 47L391 47L390 44M391 49L391 52L392 52L391 49M392 54L392 57L393 57L392 54M393 59L393 62L394 62L393 59M394 64L394 67L395 67L394 64M395 69L395 72L396 72L395 69M396 74L396 78L397 78L396 74M397 79L397 82L398 82L397 79M398 85L398 88L399 88L398 85M399 89L399 92L400 92L399 89M400 95L400 98L401 98L400 95M401.333 100.667L401.667 101.333L401.333 100.667M402 105L402 108L403 108L402 105M403 110L403 113L404 113L403 110M404 115L404 118L405 118L404 115M405 120L405 123L406 123L405 120M406 125L406 128L407 128L406 125M407 130L407 133L408 133L407 130M408 135L408 138L409 138L408 135M409 140L409 143L410 143L409 140M410 145L410 148L411 148L410 145M411 150L411 153L412 153L411 150M412 155L412 158L413 158L412 155M413 160L413 163L414 163L413 160M414 165L414 168L415 168L414 165M415 170L415 173L416 173L415 170M416.333 176.667L416.667 177.333L416.333 176.667M417 180L417 183L418 183L417 180M418 186L418 189L419 189L418 186M419 191L419 194L420 194L419 191M420 196L420 199L421 199L420 196M421 200L421 204L422 204L421 200M422 206L422 209L423 209L422 206M423 211L423 214L424 214L423 211M424 216L424 219L425 219L424 216M425 221L425 224L426 224L425 221M426 226L426 229L427 229L426 226M427 231L427 234L428 234L427 231M428 236L428 239L429 239L428 236M429 241L429 244L430 244L429 241M430 246L430 249L431 249L430 246M431 251L431 254L432 254L431 251M432 256L432 259L433 259L432 256M433 261L433 264L434 264L433 261M434 266L434 269L435 269L434 266M435 271L435 274L436 274L435 271M436 277L436 280L437 280L436 277M437 281L437 285L438 285L437 281M438 287L438 290L439 290L438 287M439 292L439 295L440 295L439 292M440 297L440 300L441 300L440 297M441 302L441 305L442 305L441 302M442 307L442 310L443 310L442 307M443 312L443 315L444 315L443 312M444 317L444 320L445 320L444 317M445 322L445 325L446 325L445 322M446 327L446 330L447 330L446 327M447 332L447 335L448 335L447 332M448 337L448 340L449 340L448 337M449 342L449 345L450 345L449 342M450 347L450 350L451 350L450 347M451 352L451 355L452 355L451 352M452 357L452 360L453 360L452 357M453 362L453 365L454 365L453 362M454 368L454 371L455 371L454 368M455 372L455 376L456 376L455 372M456 378L456 381L457 381L456 378M457 382L457 386L458 386L457 382M458 388L458 391L459 391L458 388M459 392L459 396L460 396L459 392M460 398L460 401L461 401L460 398M461 403L461 406L462 406L461 403M462 408L462 411L463 411L462 408M463 413L463 416L464 416L463 413M464 418L464 421L465 421L464 418M465 423L465 426L466 426L465 423M466 428L466 431L467 431L466 428M467 433L467 436L468 436L467 433M468 438L468 441L469 441L468 438M469 443L469 446L470 446L469 443M470 448L470 451L471 451L470 448M471 453L471 456L472 456L471 453M472 458L472 462L473 462L472 458M473.333 464.667L473.667 465.333L473.333 464.667M474 469L474 472L475 472L474 469M475 474L475 477L476 477L475 474M476 479L476 482L477 482L476 479M477 484L477 487L478 487L477 484M478 489L478 492L479 492L478 489M479 494L479 497L480 497L479 494M480 499L480 502L481 502L480 499M481 504L481 507L482 507L481 504M482 509L482 512L483 512L482 509M483 514L483 517L484 517L483 514M484 519L484 522L485 522L484 519M485 524L485 527L486 527L485 524M486 529L468 531L424 531L254 531L254 532L432 532L474 532C476.813 532 487.734 533.6 486 529z"/>
</svg>
