<?xml version="1.0" standalone="yes"?>
<svg xmlns="http://www.w3.org/2000/svg" width="771" height="975">
<path style="fill:#ffffff; stroke:none;" d="M0 0L0 975L2 975L2 591C58.1146 591 115.021 599.073 171 602.911C309.019 612.371 446.981 622.638 585 632.089C646.31 636.288 708.535 645 770 645L770 975L771 975L771 0L0 0z"/>
<path style="fill:#b66749; stroke:none;" d="M2 593L5 592L2 593z"/>
<path style="fill:#f08861; stroke:none;" d="M5 591L5 592L9 592L5 591z"/>
<path style="fill:#febea0; stroke:none;" d="M9 591L9 592L14 592L9 591z"/>
<path style="fill:#ff4501; stroke:none;" d="M2 975L770 975L770 733L770 671L768.961 647.603L759 645.961L732 643.911L620 635.911L322 614.089L171 603.83L46 594.576L14 592.089L3.02778 593.603L2 620L2 693L2 975z"/>
<path style="fill:#b66749; stroke:none;" d="M17 592L18 593L17 592z"/>
<path style="fill:#f08861; stroke:none;" d="M18 592L18 593L23 593L18 592z"/>
<path style="fill:#febea0; stroke:none;" d="M23 592L23 593L29 593L23 592z"/>
<path style="fill:#b66749; stroke:none;" d="M27 593L27 594L32 594L27 593z"/>
<path style="fill:#f08861; stroke:none;" d="M32 593L32 594L37 594L32 593z"/>
<path style="fill:#febea0; stroke:none;" d="M37 593L37 594L42 594L37 593z"/>
<path style="fill:#b66749; stroke:none;" d="M45 594L46 595L45 594z"/>
<path style="fill:#f08861; stroke:none;" d="M46 594L46 595L51 595L46 594z"/>
<path style="fill:#febea0; stroke:none;" d="M51 594L51 595L56 595L51 594z"/>
<path style="fill:#b66749; stroke:none;" d="M56 595L56 596L60 596L56 595z"/>
<path style="fill:#f08861; stroke:none;" d="M60 595L60 596L64 596L60 595z"/>
<path style="fill:#febea0; stroke:none;" d="M64 595L64 596L70 596L64 595z"/>
<path style="fill:#b66749; stroke:none;" d="M73 596L74 597L73 596z"/>
<path style="fill:#f08861; stroke:none;" d="M74 596L74 597L80 597L74 596z"/>
<path style="fill:#febea0; stroke:none;" d="M80 596L80 597L85 597L80 596z"/>
<path style="fill:#b66749; stroke:none;" d="M82 597L82 598L89 598L82 597z"/>
<path style="fill:#f08861; stroke:none;" d="M89 597L89 598L93 598L89 597z"/>
<path style="fill:#febea0; stroke:none;" d="M93 597L93 598L98 598L93 597z"/>
<path style="fill:#b66749; stroke:none;" d="M101 598L102 599L101 598z"/>
<path style="fill:#f08861; stroke:none;" d="M102 598L102 599L107 599L102 598z"/>
<path style="fill:#febea0; stroke:none;" d="M107 598L107 599L112 599L107 598z"/>
<path style="fill:#b66749; stroke:none;" d="M112 599L112 600L116 600L112 599z"/>
<path style="fill:#f08861; stroke:none;" d="M116 599L116 600L121 600L116 599z"/>
<path style="fill:#febea0; stroke:none;" d="M121 599L121 600L126 600L121 599z"/>
<path style="fill:#b66749; stroke:none;" d="M128.667 600.333L129.333 600.667L128.667 600.333z"/>
<path style="fill:#f08861; stroke:none;" d="M130 600L130 601L135 601L130 600z"/>
<path style="fill:#febea0; stroke:none;" d="M135 600L135 601L141 601L135 600z"/>
<path style="fill:#b66749; stroke:none;" d="M139 601L139 602L144 602L139 601z"/>
<path style="fill:#f08861; stroke:none;" d="M144 601L144 602L149 602L144 601z"/>
<path style="fill:#febea0; stroke:none;" d="M149 601L149 602L154 602L149 601z"/>
<path style="fill:#f08861; stroke:none;" d="M158 602L158 603L163 603L158 602z"/>
<path style="fill:#febea0; stroke:none;" d="M163 602L163 603L168 603L163 602z"/>
<path style="fill:#b66749; stroke:none;" d="M168 603L168 604L172 604L168 603z"/>
<path style="fill:#f08861; stroke:none;" d="M172 603L172 604L176 604L172 603z"/>
<path style="fill:#febea0; stroke:none;" d="M176 603L176 604L182 604L176 603z"/>
<path style="fill:#b66749; stroke:none;" d="M185 604L186 605L185 604z"/>
<path style="fill:#f08861; stroke:none;" d="M186 604L186 605L192 605L186 604z"/>
<path style="fill:#febea0; stroke:none;" d="M192 604L192 605L197 605L192 604z"/>
<path style="fill:#b66749; stroke:none;" d="M194 605L194 606L201 606L194 605z"/>
<path style="fill:#f08861; stroke:none;" d="M201 605L201 606L205 606L201 605z"/>
<path style="fill:#febea0; stroke:none;" d="M205 605L205 606L210 606L205 605z"/>
<path style="fill:#b66749; stroke:none;" d="M213 606L214 607L213 606z"/>
<path style="fill:#f08861; stroke:none;" d="M214 606L214 607L219 607L214 606z"/>
<path style="fill:#febea0; stroke:none;" d="M219 606L219 607L224 607L219 606z"/>
<path style="fill:#b66749; stroke:none;" d="M224 607L224 608L228 608L224 607z"/>
<path style="fill:#f08861; stroke:none;" d="M228 607L228 608L233 608L228 607z"/>
<path style="fill:#febea0; stroke:none;" d="M233 607L233 608L238 608L233 607z"/>
<path style="fill:#b66749; stroke:none;" d="M241 608L242 609L241 608z"/>
<path style="fill:#f08861; stroke:none;" d="M242 608L242 609L247 609L242 608z"/>
<path style="fill:#febea0; stroke:none;" d="M247 608L247 609L253 609L247 608z"/>
<path style="fill:#b66749; stroke:none;" d="M251 609L251 610L256 610L251 609z"/>
<path style="fill:#f08861; stroke:none;" d="M256 609L256 610L261 610L256 609z"/>
<path style="fill:#febea0; stroke:none;" d="M261 609L261 610L266 610L261 609z"/>
<path style="fill:#b66749; stroke:none;" d="M269 610L270 611L269 610z"/>
<path style="fill:#f08861; stroke:none;" d="M270 610L270 611L275 611L270 610z"/>
<path style="fill:#febea0; stroke:none;" d="M275 610L275 611L280 611L275 610z"/>
<path style="fill:#b66749; stroke:none;" d="M280 611L280 612L284 612L280 611z"/>
<path style="fill:#f08861; stroke:none;" d="M284 611L284 612L288 612L284 611z"/>
<path style="fill:#febea0; stroke:none;" d="M288 611L288 612L294 612L288 611z"/>
<path style="fill:#b66749; stroke:none;" d="M297 612L298 613L297 612z"/>
<path style="fill:#f08861; stroke:none;" d="M298 612L298 613L304 613L298 612z"/>
<path style="fill:#febea0; stroke:none;" d="M304 612L304 613L309 613L304 612z"/>
<path style="fill:#b66749; stroke:none;" d="M306 613L306 614L313 614L306 613z"/>
<path style="fill:#f08861; stroke:none;" d="M313 613L313 614L317 614L313 613z"/>
<path style="fill:#febea0; stroke:none;" d="M317 613L317 614L322 614L317 613z"/>
<path style="fill:#b66749; stroke:none;" d="M325 614L326 615L325 614z"/>
<path style="fill:#f08861; stroke:none;" d="M326 614L326 615L331 615L326 614z"/>
<path style="fill:#febea0; stroke:none;" d="M331 614L331 615L336 615L331 614z"/>
<path style="fill:#b66749; stroke:none;" d="M336 615L336 616L340 616L336 615z"/>
<path style="fill:#f08861; stroke:none;" d="M340 615L340 616L345 616L340 615z"/>
<path style="fill:#febea0; stroke:none;" d="M345 615L345 616L350 616L345 615z"/>
<path style="fill:#b66749; stroke:none;" d="M352.667 616.333L353.333 616.667L352.667 616.333z"/>
<path style="fill:#f08861; stroke:none;" d="M354 616L354 617L359 617L354 616z"/>
<path style="fill:#febea0; stroke:none;" d="M359 616L359 617L365 617L359 616z"/>
<path style="fill:#b66749; stroke:none;" d="M363 617L363 618L368 618L363 617z"/>
<path style="fill:#f08861; stroke:none;" d="M368 617L368 618L373 618L368 617z"/>
<path style="fill:#febea0; stroke:none;" d="M373 617L373 618L378 618L373 617z"/>
<path style="fill:#f08861; stroke:none;" d="M382 618L382 619L387 619L382 618z"/>
<path style="fill:#febea0; stroke:none;" d="M387 618L387 619L392 619L387 618z"/>
<path style="fill:#b66749; stroke:none;" d="M392 619L392 620L396 620L392 619z"/>
<path style="fill:#f08861; stroke:none;" d="M396 619L396 620L400 620L396 619z"/>
<path style="fill:#febea0; stroke:none;" d="M400 619L400 620L406 620L400 619z"/>
<path style="fill:#b66749; stroke:none;" d="M409 620L410 621L409 620z"/>
<path style="fill:#f08861; stroke:none;" d="M410 620L410 621L416 621L410 620z"/>
<path style="fill:#febea0; stroke:none;" d="M416 620L416 621L421 621L416 620z"/>
<path style="fill:#b66749; stroke:none;" d="M418 621L418 622L425 622L418 621z"/>
<path style="fill:#f08861; stroke:none;" d="M425 621L425 622L429 622L425 621z"/>
<path style="fill:#febea0; stroke:none;" d="M429 621L429 622L434 622L429 621z"/>
<path style="fill:#b66749; stroke:none;" d="M437 622L438 623L437 622z"/>
<path style="fill:#f08861; stroke:none;" d="M438 622L438 623L443 623L438 622z"/>
<path style="fill:#febea0; stroke:none;" d="M443 622L443 623L448 623L443 622z"/>
<path style="fill:#b66749; stroke:none;" d="M448 623L448 624L452 624L448 623z"/>
<path style="fill:#f08861; stroke:none;" d="M452 623L452 624L457 624L452 623z"/>
<path style="fill:#febea0; stroke:none;" d="M457 623L457 624L462 624L457 623z"/>
<path style="fill:#b66749; stroke:none;" d="M465 624L466 625L465 624z"/>
<path style="fill:#f08861; stroke:none;" d="M466 624L466 625L471 625L466 624z"/>
<path style="fill:#febea0; stroke:none;" d="M471 624L471 625L477 625L471 624z"/>
<path style="fill:#b66749; stroke:none;" d="M475 625L475 626L480 626L475 625z"/>
<path style="fill:#f08861; stroke:none;" d="M480 625L480 626L485 626L480 625z"/>
<path style="fill:#febea0; stroke:none;" d="M485 625L485 626L490 626L485 625z"/>
<path style="fill:#b66749; stroke:none;" d="M493 626L494 627L493 626z"/>
<path style="fill:#f08861; stroke:none;" d="M494 626L494 627L499 627L494 626z"/>
<path style="fill:#febea0; stroke:none;" d="M499 626L499 627L504 627L499 626z"/>
<path style="fill:#b66749; stroke:none;" d="M504 627L504 628L508 628L504 627z"/>
<path style="fill:#f08861; stroke:none;" d="M508 627L508 628L512 628L508 627z"/>
<path style="fill:#febea0; stroke:none;" d="M512 627L512 628L518 628L512 627z"/>
<path style="fill:#b66749; stroke:none;" d="M521 628L522 629L521 628z"/>
<path style="fill:#f08861; stroke:none;" d="M522 628L522 629L528 629L522 628z"/>
<path style="fill:#febea0; stroke:none;" d="M528 628L528 629L533 629L528 628z"/>
<path style="fill:#b66749; stroke:none;" d="M530 629L530 630L537 630L530 629z"/>
<path style="fill:#f08861; stroke:none;" d="M537 629L537 630L541 630L537 629z"/>
<path style="fill:#febea0; stroke:none;" d="M541 629L541 630L546 630L541 629z"/>
<path style="fill:#b66749; stroke:none;" d="M549 630L550 631L549 630z"/>
<path style="fill:#f08861; stroke:none;" d="M550 630L550 631L555 631L550 630z"/>
<path style="fill:#febea0; stroke:none;" d="M555 630L555 631L560 631L555 630z"/>
<path style="fill:#b66749; stroke:none;" d="M560 631L560 632L564 632L560 631z"/>
<path style="fill:#f08861; stroke:none;" d="M564 631L564 632L569 632L564 631z"/>
<path style="fill:#febea0; stroke:none;" d="M569 631L569 632L574 632L569 631z"/>
<path style="fill:#b66749; stroke:none;" d="M576.667 632.333L577.333 632.667L576.667 632.333z"/>
<path style="fill:#f08861; stroke:none;" d="M578 632L578 633L583 633L578 632z"/>
<path style="fill:#febea0; stroke:none;" d="M583 632L583 633L589 633L583 632z"/>
<path style="fill:#b66749; stroke:none;" d="M587 633L587 634L592 634L587 633z"/>
<path style="fill:#f08861; stroke:none;" d="M592 633L592 634L597 634L592 633z"/>
<path style="fill:#febea0; stroke:none;" d="M597 633L597 634L602 634L597 633z"/>
<path style="fill:#f08861; stroke:none;" d="M606 634L606 635L611 635L606 634z"/>
<path style="fill:#febea0; stroke:none;" d="M611 634L611 635L616 635L611 634z"/>
<path style="fill:#b66749; stroke:none;" d="M616 635L616 636L620 636L616 635z"/>
<path style="fill:#f08861; stroke:none;" d="M620 635L620 636L624 636L620 635z"/>
<path style="fill:#febea0; stroke:none;" d="M624 635L624 636L630 636L624 635z"/>
<path style="fill:#b66749; stroke:none;" d="M633 636L634 637L633 636z"/>
<path style="fill:#f08861; stroke:none;" d="M634 636L634 637L640 637L634 636z"/>
<path style="fill:#febea0; stroke:none;" d="M640 636L640 637L645 637L640 636z"/>
<path style="fill:#b66749; stroke:none;" d="M642 637L642 638L649 638L642 637z"/>
<path style="fill:#f08861; stroke:none;" d="M649 637L649 638L653 638L649 637z"/>
<path style="fill:#febea0; stroke:none;" d="M653 637L653 638L658 638L653 637z"/>
<path style="fill:#b66749; stroke:none;" d="M661 638L662 639L661 638z"/>
<path style="fill:#f08861; stroke:none;" d="M662 638L662 639L667 639L662 638z"/>
<path style="fill:#febea0; stroke:none;" d="M667 638L667 639L672 639L667 638z"/>
<path style="fill:#b66749; stroke:none;" d="M672 639L672 640L676 640L672 639z"/>
<path style="fill:#f08861; stroke:none;" d="M676 639L676 640L681 640L676 639z"/>
<path style="fill:#febea0; stroke:none;" d="M681 639L681 640L686 640L681 639z"/>
<path style="fill:#b66749; stroke:none;" d="M689 640L690 641L689 640z"/>
<path style="fill:#f08861; stroke:none;" d="M690 640L690 641L695 641L690 640z"/>
<path style="fill:#febea0; stroke:none;" d="M695 640L695 641L701 641L695 640z"/>
<path style="fill:#b66749; stroke:none;" d="M699 641L699 642L704 642L699 641z"/>
<path style="fill:#f08861; stroke:none;" d="M704 641L704 642L709 642L704 641z"/>
<path style="fill:#febea0; stroke:none;" d="M709 641L709 642L714 642L709 641z"/>
<path style="fill:#b66749; stroke:none;" d="M717 642L718 643L717 642z"/>
<path style="fill:#f08861; stroke:none;" d="M718 642L718 643L723 643L718 642z"/>
<path style="fill:#febea0; stroke:none;" d="M723 642L723 643L728 643L723 642z"/>
<path style="fill:#b66749; stroke:none;" d="M728 643L728 644L732 644L728 643z"/>
<path style="fill:#f08861; stroke:none;" d="M732 643L732 644L736 644L732 643z"/>
<path style="fill:#febea0; stroke:none;" d="M736 643L736 644L742 644L736 643z"/>
<path style="fill:#b66749; stroke:none;" d="M745 644L746 645L745 644z"/>
<path style="fill:#f08861; stroke:none;" d="M746 644L746 645L752 645L746 644z"/>
<path style="fill:#febea0; stroke:none;" d="M752 644L752 645L757 645L752 644z"/>
<path style="fill:#b66749; stroke:none;" d="M754 645L754 646L761 646L754 645z"/>
<path style="fill:#f08861; stroke:none;" d="M761 645L761 646L765 646L761 645z"/>
<path style="fill:#febea0; stroke:none;" d="M765 645L765 646L770 646L765 645z"/>
<path style="fill:#b66749; stroke:none;" d="M769 646L770 647L769 646M769.333 652.667L769.667 653.333L769.333 652.667z"/>
</svg>
