<svg xmlns="http://www.w3.org/2000/svg" xmlns:xlink="http://www.w3.org/1999/xlink" width="679.417" height="495.55" viewBox="0 0 679.417 495.55">
  <defs>
    <clipPath id="clip-path">
      <path id="Path_10965" data-name="Path 10965" d="M722.656,217.893c71.986,14.181,108.734,95.708,224.66,168.253s90.4,355.819-92.68,309.619c-174.659-44.077-182.743-40.6-297.134-36.528-143.175,5.092-62.647-486.223,165.154-441.349Z" transform="translate(-486.04 -214.989)" fill="none"/>
    </clipPath>
  </defs>
  <g id="ilustras_Oqtima_2909_Prancheta_1" transform="translate(-343 -214.989)">
    <g id="Group_5428" data-name="Group 5428" transform="translate(428.084 214.989)">
      <path id="Path_10955" data-name="Path 10955" d="M1200.1,358.359c-33.786-26.886-61.921-73.8-45.921-119.007s49.032,38.937,75.615,66.972c38.461,40.561,41.013,108.3-29.694,52.041Z" transform="translate(-754.883 -219.556)" fill="#e6ebf0"/>
      <path id="Path_10956" data-name="Path 10956" d="M722.656,217.893c71.986,14.181,108.734,95.708,224.66,168.253s90.4,355.819-92.68,309.619c-174.659-44.077-182.743-40.6-297.134-36.528-143.175,5.092-62.647-486.223,165.154-441.349Z" transform="translate(-486.04 -214.989)" fill="#e6ebf0"/>
      <g id="Group_5427" data-name="Group 5427" clip-path="url(#clip-path)">
        <g id="Group_5423" data-name="Group 5423" transform="translate(-8.5 41.811)">
          <g id="Group_5417" data-name="Group 5417" transform="translate(86.22)">
            <path id="Path_10957" data-name="Path 10957" d="M654.876,393.336v-18.7H685.89V285.28h8.548v89.361h33.405v18.7h17.892V768.017H616.7V393.336Z" transform="translate(-616.7 -285.28)" fill="#c6d0db"/>
            <rect id="Rectangle_4772" data-name="Rectangle 4772" width="17.892" height="337.041" transform="translate(0 108.056)" fill="#aab6c2"/>
          </g>
          <g id="Group_5418" data-name="Group 5418" transform="translate(150.741 197.31)">
            <rect id="Rectangle_4773" data-name="Rectangle 4773" width="129.036" height="285.428" fill="#c6d0db"/>
            <rect id="Rectangle_4774" data-name="Rectangle 4774" width="17.892" height="285.428" fill="#aab6c2"/>
            <rect id="Rectangle_4775" data-name="Rectangle 4775" width="18.517" height="7.685" transform="translate(92.513 12.158)" fill="#aab6c2"/>
            <rect id="Rectangle_4776" data-name="Rectangle 4776" width="18.517" height="7.685" transform="translate(61.339 12.158)" fill="#aab6c2"/>
            <rect id="Rectangle_4777" data-name="Rectangle 4777" width="18.517" height="7.685" transform="translate(92.513 40.139)" fill="#aab6c2"/>
            <rect id="Rectangle_4778" data-name="Rectangle 4778" width="18.517" height="7.685" transform="translate(61.339 40.139)" fill="#aab6c2"/>
            <rect id="Rectangle_4779" data-name="Rectangle 4779" width="18.517" height="7.685" transform="translate(30.164 40.139)" fill="#aab6c2"/>
            <rect id="Rectangle_4780" data-name="Rectangle 4780" width="18.517" height="7.685" transform="translate(92.513 68.12)" fill="#aab6c2"/>
            <rect id="Rectangle_4781" data-name="Rectangle 4781" width="18.517" height="7.685" transform="translate(30.164 68.12)" fill="#aab6c2"/>
            <rect id="Rectangle_4782" data-name="Rectangle 4782" width="18.517" height="7.685" transform="translate(61.339 82.11)" fill="#aab6c2"/>
            <rect id="Rectangle_4783" data-name="Rectangle 4783" width="18.517" height="7.685" transform="translate(92.513 96.1)" fill="#aab6c2"/>
            <rect id="Rectangle_4784" data-name="Rectangle 4784" width="18.517" height="7.685" transform="translate(61.339 110.091)" fill="#aab6c2"/>
            <rect id="Rectangle_4785" data-name="Rectangle 4785" width="18.517" height="7.685" transform="translate(92.513 124.081)" fill="#aab6c2"/>
            <rect id="Rectangle_4786" data-name="Rectangle 4786" width="18.517" height="7.685" transform="translate(30.164 124.081)" fill="#aab6c2"/>
            <rect id="Rectangle_4787" data-name="Rectangle 4787" width="18.517" height="7.685" transform="translate(92.513 149.938)" fill="#aab6c2"/>
            <rect id="Rectangle_4788" data-name="Rectangle 4788" width="18.517" height="7.685" transform="translate(61.339 149.938)" fill="#aab6c2"/>
            <rect id="Rectangle_4789" data-name="Rectangle 4789" width="18.517" height="7.685" transform="translate(92.513 177.919)" fill="#aab6c2"/>
            <rect id="Rectangle_4790" data-name="Rectangle 4790" width="18.517" height="7.685" transform="translate(61.339 177.919)" fill="#aab6c2"/>
            <rect id="Rectangle_4791" data-name="Rectangle 4791" width="18.517" height="7.685" transform="translate(30.164 177.919)" fill="#aab6c2"/>
            <rect id="Rectangle_4792" data-name="Rectangle 4792" width="18.517" height="7.685" transform="translate(92.513 205.899)" fill="#aab6c2"/>
            <rect id="Rectangle_4793" data-name="Rectangle 4793" width="18.517" height="7.685" transform="translate(30.164 205.899)" fill="#aab6c2"/>
            <rect id="Rectangle_4794" data-name="Rectangle 4794" width="18.517" height="7.685" transform="translate(61.339 219.89)" fill="#aab6c2"/>
            <rect id="Rectangle_4795" data-name="Rectangle 4795" width="18.517" height="7.685" transform="translate(30.164 219.89)" fill="#aab6c2"/>
            <rect id="Rectangle_4796" data-name="Rectangle 4796" width="18.517" height="7.685" transform="translate(92.513 233.88)" fill="#aab6c2"/>
            <rect id="Rectangle_4797" data-name="Rectangle 4797" width="18.517" height="7.685" transform="translate(61.339 247.87)" fill="#aab6c2"/>
            <rect id="Rectangle_4798" data-name="Rectangle 4798" width="18.517" height="7.685" transform="translate(92.513 261.866)" fill="#aab6c2"/>
            <rect id="Rectangle_4799" data-name="Rectangle 4799" width="18.517" height="7.685" transform="translate(30.164 261.866)" fill="#aab6c2"/>
          </g>
          <g id="Group_5419" data-name="Group 5419" transform="translate(459.48 197.304)">
            <rect id="Rectangle_4800" data-name="Rectangle 4800" width="129.036" height="285.428" fill="#c6d0db"/>
            <rect id="Rectangle_4801" data-name="Rectangle 4801" width="17.892" height="285.428" fill="#aab6c2"/>
          </g>
          <g id="Group_5420" data-name="Group 5420" transform="translate(276.184 61.547)">
            <rect id="Rectangle_4802" data-name="Rectangle 4802" width="173.13" height="421.191" fill="#c6d0db"/>
            <rect id="Rectangle_4803" data-name="Rectangle 4803" width="17.892" height="421.191" fill="#aab6c2"/>
            <rect id="Rectangle_4804" data-name="Rectangle 4804" width="27.041" height="11.224" transform="translate(127.852 20.171)" fill="#aab6c2"/>
            <rect id="Rectangle_4805" data-name="Rectangle 4805" width="27.041" height="11.224" transform="translate(82.33 20.171)" fill="#aab6c2"/>
            <rect id="Rectangle_4806" data-name="Rectangle 4806" width="27.041" height="11.224" transform="translate(127.852 61.035)" fill="#aab6c2"/>
            <rect id="Rectangle_4807" data-name="Rectangle 4807" width="27.041" height="11.224" transform="translate(82.33 61.035)" fill="#aab6c2"/>
            <rect id="Rectangle_4808" data-name="Rectangle 4808" width="27.041" height="11.224" transform="translate(36.802 61.035)" fill="#aab6c2"/>
            <rect id="Rectangle_4809" data-name="Rectangle 4809" width="27.041" height="11.224" transform="translate(127.852 101.894)" fill="#aab6c2"/>
            <rect id="Rectangle_4810" data-name="Rectangle 4810" width="27.041" height="11.224" transform="translate(36.802 101.894)" fill="#aab6c2"/>
            <rect id="Rectangle_4811" data-name="Rectangle 4811" width="27.041" height="11.224" transform="translate(82.33 122.32)" fill="#aab6c2"/>
            <rect id="Rectangle_4812" data-name="Rectangle 4812" width="27.041" height="11.224" transform="translate(127.852 142.752)" fill="#aab6c2"/>
            <rect id="Rectangle_4813" data-name="Rectangle 4813" width="27.041" height="11.224" transform="translate(82.33 163.185)" fill="#aab6c2"/>
            <rect id="Rectangle_4814" data-name="Rectangle 4814" width="27.041" height="11.224" transform="translate(127.852 183.617)" fill="#aab6c2"/>
            <rect id="Rectangle_4815" data-name="Rectangle 4815" width="27.041" height="11.224" transform="translate(36.802 183.617)" fill="#aab6c2"/>
            <rect id="Rectangle_4816" data-name="Rectangle 4816" width="27.041" height="11.224" transform="translate(127.852 221.371)" fill="#aab6c2"/>
            <rect id="Rectangle_4817" data-name="Rectangle 4817" width="27.041" height="11.224" transform="translate(82.33 221.371)" fill="#aab6c2"/>
            <rect id="Rectangle_4818" data-name="Rectangle 4818" width="27.041" height="11.224" transform="translate(127.852 262.229)" fill="#aab6c2"/>
            <rect id="Rectangle_4819" data-name="Rectangle 4819" width="27.041" height="11.224" transform="translate(82.33 262.229)" fill="#aab6c2"/>
            <rect id="Rectangle_4820" data-name="Rectangle 4820" width="27.041" height="11.224" transform="translate(36.802 262.229)" fill="#aab6c2"/>
            <rect id="Rectangle_4821" data-name="Rectangle 4821" width="27.041" height="11.224" transform="translate(127.852 303.094)" fill="#aab6c2"/>
            <rect id="Rectangle_4822" data-name="Rectangle 4822" width="27.041" height="11.224" transform="translate(36.802 303.094)" fill="#aab6c2"/>
            <rect id="Rectangle_4823" data-name="Rectangle 4823" width="27.041" height="11.224" transform="translate(82.33 323.526)" fill="#aab6c2"/>
            <rect id="Rectangle_4824" data-name="Rectangle 4824" width="27.041" height="11.224" transform="translate(36.802 323.526)" fill="#aab6c2"/>
            <rect id="Rectangle_4825" data-name="Rectangle 4825" width="27.041" height="11.224" transform="translate(127.852 343.953)" fill="#aab6c2"/>
            <rect id="Rectangle_4826" data-name="Rectangle 4826" width="27.041" height="11.224" transform="translate(82.33 364.385)" fill="#aab6c2"/>
            <rect id="Rectangle_4827" data-name="Rectangle 4827" width="27.041" height="11.224" transform="translate(127.852 384.811)" fill="#aab6c2"/>
            <rect id="Rectangle_4828" data-name="Rectangle 4828" width="27.041" height="11.224" transform="translate(36.802 384.811)" fill="#aab6c2"/>
          </g>
          <g id="Group_5421" data-name="Group 5421" transform="translate(548.377 92.942)">
            <rect id="Rectangle_4829" data-name="Rectangle 4829" width="169.686" height="389.796" fill="#c6d0db"/>
            <rect id="Rectangle_4830" data-name="Rectangle 4830" width="17.535" height="389.796" fill="#aab6c2"/>
            <rect id="Rectangle_4831" data-name="Rectangle 4831" width="26.5" height="10.386" transform="translate(125.312 18.666)" fill="#aab6c2"/>
            <rect id="Rectangle_4832" data-name="Rectangle 4832" width="26.5" height="10.386" transform="translate(80.694 18.666)" fill="#aab6c2"/>
            <rect id="Rectangle_4833" data-name="Rectangle 4833" width="26.5" height="10.386" transform="translate(125.312 56.485)" fill="#aab6c2"/>
            <rect id="Rectangle_4834" data-name="Rectangle 4834" width="26.5" height="10.386" transform="translate(80.694 56.485)" fill="#aab6c2"/>
            <rect id="Rectangle_4835" data-name="Rectangle 4835" width="26.5" height="10.386" transform="translate(36.076 56.485)" fill="#aab6c2"/>
            <rect id="Rectangle_4836" data-name="Rectangle 4836" width="26.5" height="10.386" transform="translate(125.312 94.298)" fill="#aab6c2"/>
            <rect id="Rectangle_4837" data-name="Rectangle 4837" width="26.5" height="10.386" transform="translate(36.076 94.298)" fill="#aab6c2"/>
            <rect id="Rectangle_4838" data-name="Rectangle 4838" width="26.5" height="10.386" transform="translate(80.694 113.207)" fill="#aab6c2"/>
            <rect id="Rectangle_4839" data-name="Rectangle 4839" width="26.5" height="10.386" transform="translate(125.312 132.111)" fill="#aab6c2"/>
            <rect id="Rectangle_4840" data-name="Rectangle 4840" width="26.5" height="10.386" transform="translate(80.694 151.021)" fill="#aab6c2"/>
            <rect id="Rectangle_4841" data-name="Rectangle 4841" width="26.5" height="10.386" transform="translate(125.312 169.924)" fill="#aab6c2"/>
            <rect id="Rectangle_4842" data-name="Rectangle 4842" width="26.5" height="10.386" transform="translate(36.076 169.924)" fill="#aab6c2"/>
            <rect id="Rectangle_4843" data-name="Rectangle 4843" width="26.5" height="10.386" transform="translate(125.312 204.87)" fill="#aab6c2"/>
            <rect id="Rectangle_4844" data-name="Rectangle 4844" width="26.5" height="10.386" transform="translate(80.694 204.87)" fill="#aab6c2"/>
            <rect id="Rectangle_4845" data-name="Rectangle 4845" width="26.5" height="10.386" transform="translate(125.312 242.683)" fill="#aab6c2"/>
            <rect id="Rectangle_4846" data-name="Rectangle 4846" width="26.5" height="10.386" transform="translate(80.694 242.683)" fill="#aab6c2"/>
            <rect id="Rectangle_4847" data-name="Rectangle 4847" width="26.5" height="10.386" transform="translate(36.076 242.683)" fill="#aab6c2"/>
            <rect id="Rectangle_4848" data-name="Rectangle 4848" width="26.5" height="10.386" transform="translate(125.312 280.502)" fill="#aab6c2"/>
            <rect id="Rectangle_4849" data-name="Rectangle 4849" width="26.5" height="10.386" transform="translate(36.076 280.502)" fill="#aab6c2"/>
            <rect id="Rectangle_4850" data-name="Rectangle 4850" width="26.5" height="10.386" transform="translate(80.694 299.406)" fill="#aab6c2"/>
            <rect id="Rectangle_4851" data-name="Rectangle 4851" width="26.5" height="10.386" transform="translate(36.076 299.406)" fill="#aab6c2"/>
            <rect id="Rectangle_4852" data-name="Rectangle 4852" width="26.5" height="10.386" transform="translate(125.312 318.315)" fill="#aab6c2"/>
            <rect id="Rectangle_4853" data-name="Rectangle 4853" width="26.5" height="10.386" transform="translate(80.694 337.225)" fill="#aab6c2"/>
            <rect id="Rectangle_4854" data-name="Rectangle 4854" width="26.5" height="10.386" transform="translate(125.312 356.129)" fill="#aab6c2"/>
            <rect id="Rectangle_4855" data-name="Rectangle 4855" width="26.5" height="10.386" transform="translate(36.076 356.129)" fill="#aab6c2"/>
          </g>
          <g id="Group_5422" data-name="Group 5422" transform="translate(0 216.868)">
            <rect id="Rectangle_4856" data-name="Rectangle 4856" width="109.287" height="265.87" fill="#c6d0db"/>
            <rect id="Rectangle_4857" data-name="Rectangle 4857" width="11.296" height="265.87" fill="#aab6c2"/>
            <rect id="Rectangle_4858" data-name="Rectangle 4858" width="17.066" height="7.084" transform="translate(80.706 12.735)" fill="#aab6c2"/>
            <rect id="Rectangle_4859" data-name="Rectangle 4859" width="17.066" height="7.084" transform="translate(51.97 12.735)" fill="#aab6c2"/>
            <rect id="Rectangle_4860" data-name="Rectangle 4860" width="17.066" height="7.084" transform="translate(80.706 38.527)" fill="#aab6c2"/>
            <rect id="Rectangle_4861" data-name="Rectangle 4861" width="17.066" height="7.084" transform="translate(51.97 38.527)" fill="#aab6c2"/>
            <rect id="Rectangle_4862" data-name="Rectangle 4862" width="17.066" height="7.084" transform="translate(23.234 38.527)" fill="#aab6c2"/>
            <rect id="Rectangle_4863" data-name="Rectangle 4863" width="17.066" height="7.084" transform="translate(80.706 64.319)" fill="#aab6c2"/>
            <rect id="Rectangle_4864" data-name="Rectangle 4864" width="17.066" height="7.084" transform="translate(23.234 64.319)" fill="#aab6c2"/>
            <rect id="Rectangle_4865" data-name="Rectangle 4865" width="17.066" height="7.084" transform="translate(51.97 77.214)" fill="#aab6c2"/>
            <rect id="Rectangle_4866" data-name="Rectangle 4866" width="17.066" height="7.084" transform="translate(80.706 90.11)" fill="#aab6c2"/>
            <rect id="Rectangle_4867" data-name="Rectangle 4867" width="17.066" height="7.084" transform="translate(51.97 103.006)" fill="#aab6c2"/>
            <rect id="Rectangle_4868" data-name="Rectangle 4868" width="17.066" height="7.084" transform="translate(80.706 115.902)" fill="#aab6c2"/>
            <rect id="Rectangle_4869" data-name="Rectangle 4869" width="17.066" height="7.084" transform="translate(23.234 115.902)" fill="#aab6c2"/>
            <rect id="Rectangle_4870" data-name="Rectangle 4870" width="17.066" height="7.084" transform="translate(80.706 139.737)" fill="#aab6c2"/>
            <rect id="Rectangle_4871" data-name="Rectangle 4871" width="17.066" height="7.084" transform="translate(51.97 139.737)" fill="#aab6c2"/>
            <rect id="Rectangle_4872" data-name="Rectangle 4872" width="17.066" height="7.084" transform="translate(80.706 165.528)" fill="#aab6c2"/>
            <rect id="Rectangle_4873" data-name="Rectangle 4873" width="17.066" height="7.084" transform="translate(51.97 165.528)" fill="#aab6c2"/>
            <rect id="Rectangle_4874" data-name="Rectangle 4874" width="17.066" height="7.084" transform="translate(23.234 165.528)" fill="#aab6c2"/>
            <rect id="Rectangle_4875" data-name="Rectangle 4875" width="17.066" height="7.084" transform="translate(80.706 191.32)" fill="#aab6c2"/>
            <rect id="Rectangle_4876" data-name="Rectangle 4876" width="17.066" height="7.084" transform="translate(23.234 191.32)" fill="#aab6c2"/>
            <rect id="Rectangle_4877" data-name="Rectangle 4877" width="17.066" height="7.084" transform="translate(51.97 204.216)" fill="#aab6c2"/>
            <rect id="Rectangle_4878" data-name="Rectangle 4878" width="17.066" height="7.084" transform="translate(23.234 204.216)" fill="#aab6c2"/>
            <rect id="Rectangle_4879" data-name="Rectangle 4879" width="17.066" height="7.084" transform="translate(80.706 217.112)" fill="#aab6c2"/>
            <rect id="Rectangle_4880" data-name="Rectangle 4880" width="17.066" height="7.084" transform="translate(51.97 230.008)" fill="#aab6c2"/>
            <rect id="Rectangle_4881" data-name="Rectangle 4881" width="17.066" height="7.084" transform="translate(80.706 242.909)" fill="#aab6c2"/>
            <rect id="Rectangle_4882" data-name="Rectangle 4882" width="17.066" height="7.084" transform="translate(23.234 242.909)" fill="#aab6c2"/>
          </g>
        </g>
        <g id="Group_5426" data-name="Group 5426" transform="translate(-82.045 -36.326)">
          <g id="Group_5424" data-name="Group 5424" transform="translate(5.068 10.451)">
            <rect id="Rectangle_4883" data-name="Rectangle 4883" width="463.144" height="528.069" fill="#fff" opacity="0.35"/>
            <path id="Path_10958" data-name="Path 10958" d="M600.205,694.135H564.26L756.948,181.65h35.945Z" transform="translate(-440.756 -175.607)" fill="#fff" opacity="0.5"/>
            <path id="Path_10959" data-name="Path 10959" d="M505.746,694.135H487.77L680.458,181.65h17.976Z" transform="translate(-409.764 -175.607)" fill="#fff" opacity="0.5"/>
            <path id="Path_10960" data-name="Path 10960" d="M866.52,731.613H848.55l165.2-457.463v36.855Z" transform="translate(-555.943 -213.085)" fill="#fff" opacity="0.5"/>
          </g>
          <g id="Group_5425" data-name="Group 5425" transform="translate(465.803)">
            <rect id="Rectangle_4884" data-name="Rectangle 4884" width="463.144" height="528.063" transform="translate(4.848)" fill="#fff" opacity="0.35"/>
            <path id="Path_10961" data-name="Path 10961" d="M1243.63,694.135h-35.94L1400.378,181.65h35.945Z" transform="translate(-1162.192 -165.155)" fill="#fff" opacity="0.5"/>
            <path id="Path_10962" data-name="Path 10962" d="M1149.17,694.135H1131.2L1323.888,181.65h17.976Z" transform="translate(-1131.2 -165.155)" fill="#fff" opacity="0.5"/>
            <path id="Path_10963" data-name="Path 10963" d="M1645.216,731.613H1627.24L1792.447,274.15v36.855Z" transform="translate(-1332.182 -202.634)" fill="#fff" opacity="0.6"/>
          </g>
          <path id="Path_10964" data-name="Path 10964" d="M1301.219,262.623V256.58h-16.637V161.33H348.11v12.081H358.2v4.265H656.873v78.9H348.11v6.043H656.879V417.688H348.11v6.043H656.879V578.8H348.11v6.043H656.879V685.89H358.293v3.5H348.11v13.978h936.465v-1.124h0v-117.4h16.637V578.8h-16.637V423.732h16.637v-6.043h-16.637V262.623h16.637ZM821.431,423.738H965.683V578.809H821.431Zm0-6.043V262.623H965.683V417.694Zm0-161.115v-78.9H965.683v78.9Zm0,328.279H965.683V685.9h-144.2v3.5h-.054ZM975.813,685.9V584.858h144.251V685.9Zm0-107.087V423.744h144.251V578.815Zm0-161.115V262.623h144.251V417.694H975.813Zm0-161.115v-78.9h144.251v78.9H975.813Zm154.381-78.9h144.252v78.9H1130.194v-78.9Zm-463.191,0H811.254v78.9H667v-78.9Zm0,84.941H811.254V417.7H667V262.623Zm0,161.115H811.254V578.815H667Zm0,161.115H811.254V689.4H811.2v-3.5H667ZM1274.439,689.4h-.053v-3.5h-144.2V584.858h144.251Zm0-110.584H1130.188V423.744h144.251Zm0-161.115H1130.188V262.623h144.251V417.694Z" transform="translate(-348.11 -156.922)" fill="#fff"/>
        </g>
      </g>
    </g>
    <g id="Group_5437" data-name="Group 5437" transform="translate(404.654 289.2)">
      <g id="Group_5429" data-name="Group 5429" transform="translate(0 0)">
        <path id="Path_10966" data-name="Path 10966" d="M452.944,507.754a4.6,4.6,0,0,1-4.794-4.36V347.157a6.218,6.218,0,0,1,6.472-5.907H634.343c3.575,0,6.478,2.647,6.478,5.9V503.4a4.6,4.6,0,0,1-4.8,4.36H452.944Z" transform="translate(-447.258 -340.358)" fill="#fff"/>
        <path id="Path_10967" data-name="Path 10967" d="M633.735,341.534a5.327,5.327,0,0,1,5.585,5.008V502.792a3.715,3.715,0,0,1-3.908,3.468H452.337a3.705,3.705,0,0,1-3.9-3.468V346.549a5.326,5.326,0,0,1,5.579-5.014H633.735m0-1.784H454.014c-4.057,0-7.364,3.051-7.364,6.8V502.786a5.489,5.489,0,0,0,5.687,5.252H635.412a5.49,5.49,0,0,0,5.692-5.252V346.543c0-3.747-3.307-6.793-7.37-6.793Z" transform="translate(-446.65 -339.75)"/>
      </g>
      <g id="Group_5436" data-name="Group 5436" transform="translate(14.026 16.037)">
        <g id="Group_5430" data-name="Group 5430">
          <rect id="Rectangle_4885" data-name="Rectangle 4885" width="166.403" height="1.19" transform="translate(0 26.767)"/>
          <rect id="Rectangle_4886" data-name="Rectangle 4886" width="166.403" height="1.19" transform="translate(0 54.873)"/>
          <rect id="Rectangle_4887" data-name="Rectangle 4887" width="166.403" height="1.19" transform="translate(0 82.978)"/>
          <rect id="Rectangle_4888" data-name="Rectangle 4888" width="166.403" height="1.19" transform="translate(0 111.084)"/>
          <rect id="Rectangle_4889" data-name="Rectangle 4889" width="1.19" height="136.215" transform="translate(27.957)"/>
          <rect id="Rectangle_4890" data-name="Rectangle 4890" width="1.19" height="136.215" transform="translate(56.062)"/>
          <rect id="Rectangle_4891" data-name="Rectangle 4891" width="1.19" height="136.215" transform="translate(84.168)"/>
          <rect id="Rectangle_4892" data-name="Rectangle 4892" width="1.19" height="136.215" transform="translate(112.273)"/>
          <rect id="Rectangle_4893" data-name="Rectangle 4893" width="1.19" height="136.215" transform="translate(140.379)"/>
        </g>
        <g id="Group_5431" data-name="Group 5431" transform="translate(112.868 87.737)">
          <path id="Path_10968" data-name="Path 10968" d="M680.65,532.471H659.98c2.8-6.15,4.485-12.247,4.479-18.261h20.67Q685.477,525.577,680.65,532.471Z" transform="translate(-659.98 -514.21)" fill="#f40"/>
          <path id="Path_10969" data-name="Path 10969" d="M670.375,523.864a8.106,8.106,0,0,1,.833-2.1l-1.666-.452-.167,1.552a.9.9,0,0,0,1.344.773l.648-.381-1.083-.137a.814.814,0,0,1,.167.684.9.9,0,0,0,1.523.63,4.321,4.321,0,0,0,1.089-1.9l-1.755-.238a1.892,1.892,0,0,0,1.677,1.874,1.855,1.855,0,0,0,1.963-1.558l-1.309.535a11.932,11.932,0,0,0,5.544.7l6.085-.161a.893.893,0,0,0,0-1.784l-5.5.143c-1.648.042-3.694.309-5.229-.44-.452-.22-1.225-.083-1.309.535-.012.083-.125.434-.137.155a.9.9,0,0,0-1.755-.238,2.4,2.4,0,0,1-.625,1.118l1.523.631a2.6,2.6,0,0,0-.69-1.951.9.9,0,0,0-1.083-.137l-.648.381,1.344.773.167-1.552c.1-.91-1.249-1.178-1.666-.452a9.943,9.943,0,0,0-1.011,2.522c-.274,1.112,1.445,1.588,1.719.476h0Z" transform="translate(-663.481 -516.738)"/>
          <path id="Path_10970" data-name="Path 10970" d="M667.351,533.283c.161-.25.993.2,1.231.25a2.075,2.075,0,0,0,.856-.012,2.964,2.964,0,0,0,.387-.131,1.715,1.715,0,0,1,.184-.071c.22-.06.155-.208-.2-.446a.9.9,0,0,0,1.523.631,2.7,2.7,0,0,1,.422-.274c.149-.077-.048-.155.048-.012.2.292.28.547.625.726a.916.916,0,0,0,1.083-.137c.137-.143.422-.535.642-.553.125-.006.351.172.482.232a2.824,2.824,0,0,0,1.475.143c1.3-.113,2.605-.238,3.914-.351,1.136-.1,1.148-1.885,0-1.784l-2.349.214-1.172.107a4.1,4.1,0,0,1-1.041.077,2.631,2.631,0,0,1-.535-.262,1.73,1.73,0,0,0-.964-.143,2.989,2.989,0,0,0-1.713,1.059l1.083-.137c.137.226.167.25.083.077-.036-.089-.071-.173-.113-.262a1.791,1.791,0,0,0-.238-.321,1.7,1.7,0,0,0-.982-.464,2.647,2.647,0,0,0-2.01.809l1.523.63a1.35,1.35,0,0,0-.987-1.32,1.646,1.646,0,0,0-.9-.006c-.232.059-.5.262-.743.262a2.942,2.942,0,0,1-.75-.256,2.345,2.345,0,0,0-.928-.113,1.959,1.959,0,0,0-1.475.958c-.624.97.916,1.862,1.541.9h0Z" transform="translate(-662.283 -521.184)"/>
          <path id="Path_10971" data-name="Path 10971" d="M682.256,538.11a1.886,1.886,0,0,0,.892.22,3.147,3.147,0,0,0,.476-.053c.036,0,.369-.048.167-.024a1.453,1.453,0,0,1,.321-.012c-.113-.018-.107-.012.012.018-.071-.03-.054-.024.042.024a3.278,3.278,0,0,0,.809.321,4.7,4.7,0,0,0,1.606.03,15.08,15.08,0,0,0,1.707-.3.905.905,0,0,0,.625-1.1.916.916,0,0,0-1.1-.625c-.244.059-.488.113-.732.155-.113.024-.226.042-.345.059-.065.012-.131.018-.2.03.071-.012.054-.006-.059,0a5.863,5.863,0,0,1-.643.048c-.089,0-.178,0-.274-.006s-.119-.012-.03,0l-.173-.036-.172-.054h0c-.1-.048-.2-.1-.291-.143a2.162,2.162,0,0,0-.863-.208,4.925,4.925,0,0,0-.726.083h0a1.45,1.45,0,0,0-.161.012c-.107,0-.1,0,.006.012-.1-.03-.1-.024,0,.012a.892.892,0,1,0-.9,1.541Z" transform="translate(-668.83 -523.221)"/>
        </g>
        <g id="Group_5432" data-name="Group 5432" transform="translate(56.657 60.678)">
          <path id="Path_10972" data-name="Path 10972" d="M586.15,486.981H565.48c2.8-6.15,4.485-12.247,4.479-18.261h20.67Q590.977,480.087,586.15,486.981Z" transform="translate(-565.48 -468.72)" fill="#f40"/>
          <path id="Path_10973" data-name="Path 10973" d="M575.875,478.384a8.1,8.1,0,0,1,.833-2.1l-1.665-.452-.167,1.552a.9.9,0,0,0,1.344.773l.648-.381-1.083-.137a.814.814,0,0,1,.167.684.9.9,0,0,0,1.523.63,4.321,4.321,0,0,0,1.089-1.9l-1.755-.238a1.892,1.892,0,0,0,1.677,1.874,1.855,1.855,0,0,0,1.963-1.558l-1.309.535a11.932,11.932,0,0,0,5.544.7l6.085-.161a.893.893,0,0,0,0-1.784l-5.5.143c-1.648.042-3.694.309-5.229-.44-.452-.22-1.225-.083-1.309.535-.012.083-.125.434-.137.155a.9.9,0,0,0-1.755-.238,2.4,2.4,0,0,1-.625,1.118l1.523.631a2.6,2.6,0,0,0-.69-1.951.9.9,0,0,0-1.083-.137l-.648.381,1.344.773.167-1.552c.1-.91-1.249-1.178-1.666-.452a9.943,9.943,0,0,0-1.011,2.522c-.274,1.112,1.445,1.588,1.719.476h0Z" transform="translate(-568.981 -471.252)"/>
          <path id="Path_10974" data-name="Path 10974" d="M572.851,487.793c.161-.25.993.2,1.231.25a2.08,2.08,0,0,0,.857-.012,2.954,2.954,0,0,0,.387-.131,1.712,1.712,0,0,1,.184-.071c.22-.059.155-.208-.2-.446a.9.9,0,0,0,1.523.631,2.692,2.692,0,0,1,.422-.274c.149-.077-.048-.155.048-.012.2.291.279.547.625.726a.916.916,0,0,0,1.083-.137c.137-.143.422-.535.642-.553.125-.006.351.173.482.232a2.824,2.824,0,0,0,1.475.143c1.3-.113,2.605-.238,3.914-.351,1.136-.1,1.148-1.886,0-1.785l-2.35.214-1.172.107a4.1,4.1,0,0,1-1.041.077,2.626,2.626,0,0,1-.535-.262,1.728,1.728,0,0,0-.964-.143,2.988,2.988,0,0,0-1.713,1.059l1.083-.137c.137.226.167.25.083.077-.036-.089-.071-.172-.113-.262a1.794,1.794,0,0,0-.238-.321,1.7,1.7,0,0,0-.982-.464,2.646,2.646,0,0,0-2.01.809l1.523.631a1.35,1.35,0,0,0-.987-1.321,1.647,1.647,0,0,0-.9-.006c-.232.059-.5.262-.743.262a2.94,2.94,0,0,1-.75-.256,2.345,2.345,0,0,0-.928-.113,1.958,1.958,0,0,0-1.475.958c-.625.97.916,1.862,1.541.9h0Z" transform="translate(-567.783 -475.694)"/>
          <path id="Path_10975" data-name="Path 10975" d="M587.756,492.62a1.887,1.887,0,0,0,.892.22,3.147,3.147,0,0,0,.476-.054c.036,0,.369-.048.167-.024a1.453,1.453,0,0,1,.321-.012c-.113-.018-.107-.012.012.018-.071-.03-.054-.024.042.024a3.283,3.283,0,0,0,.809.321,4.7,4.7,0,0,0,1.606.03,15.053,15.053,0,0,0,1.707-.3.905.905,0,0,0,.625-1.1.916.916,0,0,0-1.1-.625c-.244.06-.488.113-.732.155-.113.024-.226.042-.345.059-.065.012-.131.018-.2.03.071-.012.054-.006-.059,0a5.831,5.831,0,0,1-.642.047c-.089,0-.178,0-.274-.006s-.119-.012-.03,0l-.173-.036-.172-.053h0c-.1-.048-.2-.1-.291-.143a2.165,2.165,0,0,0-.863-.208,4.917,4.917,0,0,0-.726.083h0a1.465,1.465,0,0,0-.161.012c-.107,0-.1,0,.006.012-.1-.03-.1-.024,0,.012a.892.892,0,0,0-.9,1.541Z" transform="translate(-574.33 -477.731)"/>
        </g>
        <g id="Group_5433" data-name="Group 5433" transform="translate(34.47 35.475)">
          <path id="Path_10976" data-name="Path 10976" d="M533.4,438.3h-2.278v-8.6a7.88,7.88,0,0,1-2.944,1.731v-2.07a6.655,6.655,0,0,0,1.939-1.106,4.229,4.229,0,0,0,1.44-1.9h1.85v11.95Z" transform="translate(-528.18 -426.354)"/>
          <path id="Path_10977" data-name="Path 10977" d="M546.542,426.35a3.246,3.246,0,0,1,2.7,1.231c.773.976,1.16,2.587,1.16,4.848s-.392,3.872-1.172,4.854a3.234,3.234,0,0,1-2.695,1.219,3.409,3.409,0,0,1-2.8-1.338q-1.062-1.338-1.065-4.759c0-2.278.387-3.854,1.166-4.836a3.251,3.251,0,0,1,2.695-1.219Zm0,1.892a1.153,1.153,0,0,0-.738.262,1.783,1.783,0,0,0-.506.946,19.358,19.358,0,0,0-.03,5.859,2.018,2.018,0,0,0,.53,1.041,1.17,1.17,0,0,0,1.475,0,1.783,1.783,0,0,0,.506-.946,13.036,13.036,0,0,0,.238-2.974,13.267,13.267,0,0,0-.208-2.879,2.07,2.07,0,0,0-.529-1.047,1.105,1.105,0,0,0-.732-.262Z" transform="translate(-534.051 -426.35)"/>
        </g>
        <g id="Group_5434" data-name="Group 5434" transform="translate(90.681 63.075)">
          <path id="Path_10978" data-name="Path 10978" d="M627.9,484.7h-2.278v-8.6a7.878,7.878,0,0,1-2.944,1.731v-2.07a6.653,6.653,0,0,0,1.939-1.106,4.23,4.23,0,0,0,1.44-1.9h1.85v11.95Z" transform="translate(-622.68 -472.754)"/>
          <path id="Path_10979" data-name="Path 10979" d="M639.131,478.282a2.643,2.643,0,0,1-1.285-1.029,2.692,2.692,0,0,1-.4-1.434,2.893,2.893,0,0,1,.928-2.2,4.441,4.441,0,0,1,5.276,0,2.873,2.873,0,0,1,.94,2.2,2.617,2.617,0,0,1-.428,1.475,2.728,2.728,0,0,1-1.208.987,3.225,3.225,0,0,1,1.5,1.16,3.065,3.065,0,0,1,.517,1.761,3.571,3.571,0,0,1-1.053,2.677,3.815,3.815,0,0,1-2.8,1.029,4.237,4.237,0,0,1-2.7-.851,3.319,3.319,0,0,1-1.273-2.76,3.391,3.391,0,0,1,.482-1.773,3.06,3.06,0,0,1,1.511-1.243Zm.262,2.8a2.092,2.092,0,0,0,.482,1.469,1.574,1.574,0,0,0,1.208.529,1.5,1.5,0,0,0,1.172-.506,2.1,2.1,0,0,0,.464-1.463,1.891,1.891,0,0,0-.47-1.344,1.56,1.56,0,0,0-1.2-.506,1.426,1.426,0,0,0-1.249.577,2.12,2.12,0,0,0-.41,1.249Zm.208-5.1a1.444,1.444,0,0,0,.387,1.065,1.392,1.392,0,0,0,1.029.381,1.344,1.344,0,0,0,1.433-1.451,1.405,1.405,0,0,0-.387-1.029,1.377,1.377,0,0,0-1.017-.387,1.437,1.437,0,0,0-1.047.393,1.382,1.382,0,0,0-.387,1.029Z" transform="translate(-628.543 -472.75)"/>
        </g>
        <g id="Group_5435" data-name="Group 5435" transform="translate(147.785 36.897)">
          <path id="Path_10980" data-name="Path 10980" d="M723.9,440.7h-2.278v-8.6a7.878,7.878,0,0,1-2.944,1.731v-2.07a6.653,6.653,0,0,0,1.939-1.106,4.229,4.229,0,0,0,1.439-1.9h1.85v11.95Z" transform="translate(-718.68 -428.748)"/>
          <path id="Path_10981" data-name="Path 10981" d="M737.392,440.7v-2.4H732.52v-2l5.163-7.56H739.6v7.548h1.475v2H739.6v2.4h-2.207Zm0-4.4v-4.069l-2.736,4.069Z" transform="translate(-724.288 -428.74)"/>
        </g>
      </g>
    </g>
    <g id="Group_5441" data-name="Group 5441" transform="translate(354.248 433.226)">
      <path id="Path_10982" data-name="Path 10982" d="M365.226,677.969a2.988,2.988,0,0,1-2.986-2.986v-88.9a3.866,3.866,0,0,1,3.866-3.866h94.316a3.866,3.866,0,0,1,3.866,3.866v88.9a2.988,2.988,0,0,1-2.986,2.986H365.226Z" transform="translate(-362.044 -582.018)" fill="#fff"/>
      <path id="Path_10983" data-name="Path 10983" d="M464.351,595.876H361.91v-9.934a4.064,4.064,0,0,1,4.063-4.063h94.316a4.064,4.064,0,0,1,4.063,4.063Z" transform="translate(-361.91 -581.88)"/>
      <g id="Group_5439" data-name="Group 5439" transform="translate(5.847 4.848)">
        <path id="Path_10984" data-name="Path 10984" d="M399.54,592.187a2.147,2.147,0,1,1,2.147,2.147A2.146,2.146,0,0,1,399.54,592.187Z" transform="translate(-383.004 -590.034)" fill="#aab6c2"/>
        <path id="Path_10985" data-name="Path 10985" d="M385.64,592.187a2.147,2.147,0,1,1,2.147,2.147A2.146,2.146,0,0,1,385.64,592.187Z" transform="translate(-377.372 -590.034)" fill="#f40"/>
        <g id="Group_5438" data-name="Group 5438">
          <path id="Path_10986" data-name="Path 10986" d="M374.021,594.272a1.951,1.951,0,1,1,1.951-1.951A1.952,1.952,0,0,1,374.021,594.272Z" transform="translate(-371.874 -590.168)" fill="#fff"/>
          <path id="Path_10987" data-name="Path 10987" d="M373.887,590.423a1.755,1.755,0,1,1-1.755,1.755,1.758,1.758,0,0,1,1.755-1.755Zm0-.393a2.147,2.147,0,1,0,2.147,2.147,2.146,2.146,0,0,0-2.147-2.147Z" transform="translate(-371.74 -590.03)"/>
        </g>
      </g>
      <path id="Path_10988" data-name="Path 10988" d="M460.292,582.273a3.676,3.676,0,0,1,3.67,3.67v88.9a2.794,2.794,0,0,1-2.79,2.79H365.1a2.792,2.792,0,0,1-2.784-2.79v-88.9a3.671,3.671,0,0,1,3.664-3.67h94.316Zm0-.393H365.977a4.059,4.059,0,0,0-4.057,4.063v88.9a3.181,3.181,0,0,0,3.176,3.182h96.076a3.186,3.186,0,0,0,3.182-3.182v-88.9a4.059,4.059,0,0,0-4.063-4.057h0Z" transform="translate(-361.914 -581.88)"/>
      <g id="Group_5440" data-name="Group 5440" transform="translate(18.797 21.009)">
        <rect id="Rectangle_4894" data-name="Rectangle 4894" width="15.043" height="33.185" transform="translate(0 31.359)"/>
        <rect id="Rectangle_4895" data-name="Rectangle 4895" width="15.043" height="49.93" transform="translate(24.537 14.615)" fill="#f40"/>
        <rect id="Rectangle_4896" data-name="Rectangle 4896" width="15.043" height="64.545" transform="translate(49.805)" fill="#aab6c2"/>
      </g>
    </g>
    <g id="Group_5443" data-name="Group 5443" transform="translate(653.595 475.894)">
      <g id="Group_5442" data-name="Group 5442">
        <path id="Path_10989" data-name="Path 10989" d="M1032.736,983h32.555V920.777a9.3,9.3,0,0,0-9.3-9.3h-13.961a9.3,9.3,0,0,0-9.3,9.3v62.231Z" transform="translate(-933.055 -758.094)" fill="#aab6c2"/>
        <path id="Path_10990" data-name="Path 10990" d="M865.16,782.486A14.506,14.506,0,0,0,879.668,797h120.869s3.325-1.035,8.685-2.718c21.818-6.942,77.541-25.1,81.259-30.919,4.622-7.257,15.638-109.7,15.638-109.7H985.25a14.519,14.519,0,0,0-15.62,13.324l-2.808,64.081a40.315,40.315,0,0,1-39.978,36.909H879.668A14.5,14.5,0,0,0,865.16,782.486Z" transform="translate(-865.16 -653.613)" fill="#f40"/>
        <path id="Path_10991" data-name="Path 10991" d="M1009.408,910.441h47.646c6.989,0,12.652-10.047,12.652-22.431H996.75c0,12.384,5.663,22.431,12.652,22.431Z" transform="translate(-918.477 -748.585)"/>
        <path id="Path_10992" data-name="Path 10992" d="M865.16,860.388A14.505,14.505,0,0,0,879.668,874.9h129.553V845.88H879.668a14.5,14.5,0,0,0-14.508,14.514Z" transform="translate(-865.16 -731.515)" fill="#f40"/>
      </g>
      <path id="Path_10993" data-name="Path 10993" d="M1082.878,797h47.182a69.472,69.472,0,0,0,68.9-63.646l2.814-64.075a14.512,14.512,0,0,0-28.932-2.3l-2.814,64.075a40.3,40.3,0,0,1-39.967,36.927h-47.182a14.514,14.514,0,0,0,0,29.028Z" transform="translate(-947.495 -653.616)"/>
    </g>
    <path id="Path_10994" data-name="Path 10994" d="M1004.547,676.234c-5.425,5.211-11.861,6.65-17.958,6.549-2.891-.285-5.574-.012-8.476-.065a7.887,7.887,0,0,0-4.86,1.481,5.659,5.659,0,0,0-1.719,2.611,10.664,10.664,0,0,0,.107,7.4,2.88,2.88,0,0,0,.791,1.243,1.211,1.211,0,0,0,1.386.155,1.844,1.844,0,0,0,.571-1.535c.03-.69-.654-3.843.291-5.71-.839,2.118-.048,5.716.167,6.734a1.665,1.665,0,0,0,.458.969,1.2,1.2,0,0,0,1.707-.541c.315-.607-1.023-3.985-.018-6.412-.976,2.54.393,5.657.529,6.287.077.351.506,1.1,1.059,1.017a1.4,1.4,0,0,0,1.285-1.112c.143-.66-1.309-4.211-.755-5.383-.529,1.648,1.041,5.621,1.993,5.758a1.438,1.438,0,0,0,1.392-.863,4.243,4.243,0,0,0,.309-1.707c1.779,1.237,4.42.529,5.764-1.172.69.167,1.558.369,2.588.589,8.078,1.7,17.012-.012,22.538-3.349,6.186-3.736,9.47-9.148,14.014-23.876,3.718-10.475-1.969-18.279-8.661-20.4s-5.8,22.972-14.5,31.341Z" transform="translate(-254.418 -174.139)" fill="#fff" stroke="#000" stroke-width="2"/>
    <g id="Group_5444" data-name="Group 5444" transform="translate(687.644 670.167)">
      <path id="Path_10995" data-name="Path 10995" d="M924.074,983.239c1.16-1.856,15.995-2.124,16.239-1.267.761,2.647,2.647,12.914,1.4,14.442-1.2,1.487-15.858,3.123-16.441.536C924.764,994.714,922.95,985.024,924.074,983.239Z" transform="translate(-922.934 -980.739)" fill="#fff"/>
      <path id="Path_10996" data-name="Path 10996" d="M923.971,996.606c-.024-.119-2.6-11.92-1.1-14.312h0c1.416-2.254,13.848-2.242,16.126-1.927.684.095,1.362.238,1.552.862.3,1.047,2.992,13.015,1.255,15.162-1.392,1.719-11.819,2.73-15.59,1.85a4.041,4.041,0,0,1-1.7-.755A1.647,1.647,0,0,1,923.971,996.606Zm.238-13.455c-.761,1.255.416,9.184,1.3,13.092.018.012.226.345,1.594.559,4.3.7,12.622-.619,13.461-1.4.8-1.065-.494-9.785-1.463-13.413C936.843,981.379,925.25,982.009,924.209,983.151Z" transform="translate(-922.402 -980.217)"/>
    </g>
    <path id="Path_10997" data-name="Path 10997" d="M924.115,1000.81s7.15,9.523,2.54,17.351c0,0-35.476,2.885-46.254,1.582,0,0-.726-13.086,8.429-14.514a135.806,135.806,0,0,1,18.374-1.422s10.481,4.479,16.917-2.992Z" transform="translate(-217.735 -318.394)" fill="#aab6c2"/>
    <path id="Path_10998" data-name="Path 10998" d="M1030.347,814.225c-17.69,8.708-47.419,10.7-70.035,1.469-13.562-5.514-18.113-2.052-22.413,1.16-16.816,12.551,3.111,56.449-1.148,75.335-1.838,2.445-6.008,2.778-10.4,2.284a69.913,69.913,0,0,1-14.859-3.742c-1.666-41.269-19.469-100.258,3.045-119.156,37.807-31.764,109.222-20.938,109.222-20.938,18.624-3.486,37.593,48.312,6.591,63.581Z" transform="translate(-226.993 -216.31)"/>
    <path id="Path_10999" data-name="Path 10999" d="M1032.358,776.14a1.382,1.382,0,0,0-2.207-.071,2.852,2.852,0,0,0-.47-.1c-17.422-.714-35.309,6.293-52.737,11.314-6.93,2.028-15.323,5-21.045,9.148-9.024,6.531-12.075,9.517-20.349,20.533-11.5,15.311-13.366,30.973-15.769,49.96-1.2,9.511,10.558,19.2,11.677,28.742a64.841,64.841,0,0,0,1.558,9.618c4.4.494,8.566.161,10.4-2.284,4.259-18.886,7.215-73.937,22.818-78.993,6.71-2.177,17.006-1.083,25.286-2.183,10.76-1.451,21.747-16.536,32.472-18.267C1039.663,800.986,1041.179,787.68,1032.358,776.14Z" transform="translate(-233.662 -227.125)"/>
    <path id="Path_11000" data-name="Path 11000" d="M1054.774,671.822c2.135-2.879,5.407-6.156,8.322-9.351,1.1-1.219,2.154-2.433,3.081-3.581a19.521,19.521,0,0,0,2.9-4.586,5.9,5.9,0,0,0,.494-1.9,88.466,88.466,0,0,0-.863-10.082c-1.648-12.86-5.924-30.021-11.569-27.463-9.672,4.384-17.547,19.076-24.436,30.7,1.112,10.772,8.072,21.658,22.068,26.268Z" transform="translate(-279.448 -161.912)" fill="#f40"/>
    <path id="Path_11001" data-name="Path 11001" d="M1064.458,621.61s-6.8,14.21-7.56,26.547c-.2,3.313,1.231,14.544,8.566,21.009,1.8-1.053,1.2-6.478,2.213-7.572l-.535-18.636-2.677-21.348Z" transform="translate(-289.245 -164.752)"/>
    <path id="Path_11002" data-name="Path 11002" d="M1063.638,640.83c.714,6.192,2.046,13.848,1.9,17.512-.482,11.825-2.623,23.644-6.555,31.781,1.564,1.915,23.983,16.75,40.912,17.363,22.032.791,39.193-7.578,39.407-10.8.184-2.944-6.067-38.937-6.067-56.907,0-19.147-4.794-35.023-9.839-40.187a10.315,10.315,0,0,0-1.124-.981,15.465,15.465,0,0,0-6.751-2.356c-16-2.594-40.787,4.586-50.572,13.169-2.117,8.185-2.986,16.911-1.314,31.413Z" transform="translate(-290.096 -154.26)" fill="#f40"/>
    <path id="Path_11003" data-name="Path 11003" d="M1103.358,588.808v6.906s-1.79,3.956,0,4.188c6.079.785,9.511-7.019,9.511-7.019V584.87l-9.511,3.944Z" transform="translate(-307.754 -149.866)" fill="#fff"/>
    <path id="Path_11004" data-name="Path 11004" d="M1102.966,599.881a1.275,1.275,0,0,1-.988-.654c-.642-1.148.285-3.45.571-4.11V588l10.469-4.336v8.732l-.042.19c-.137.315-3.3,7.364-9.071,7.364a7.174,7.174,0,0,1-.934-.059Zm9.095-14.793-8.554,3.545v6.585l-.042.2c-.47,1.035-.976,2.76-.648,3.343a.312.312,0,0,0,.28.167c5.294.7,8.572-5.811,8.97-6.65v-7.191Z" transform="translate(-307.428 -149.376)"/>
    <path id="Path_11005" data-name="Path 11005" d="M1140.019,621.61s-.9,11.992,6.615,19.082,13.437,9.148,13.437,9.148l1.392,11.367s-9.071-3-17.149-15.358C1140.989,640.763,1138.312,630.318,1140.019,621.61Z" transform="translate(-322.716 -164.752)"/>
    <path id="Path_11006" data-name="Path 11006" d="M1089.04,563.843a47.6,47.6,0,0,0,2.707,12.937c1.7,4.426,12.194,6.989,15.2-2.165s-3.527-17.125-3.527-17.125Z" transform="translate(-302.276 -138.772)" fill="#fff"/>
    <path id="Path_11007" data-name="Path 11007" d="M1098.891,580.868c-3.486.083-6.965-1.808-7.923-4.312a48.649,48.649,0,0,1-2.736-13.086l-.012-.327,15.008-6.632.232.28c.065.083,6.668,8.28,3.616,17.577a9.356,9.356,0,0,1-4.307,5.508,8.52,8.52,0,0,1-3.872,1Zm-9.684-17.119a47.569,47.569,0,0,0,2.653,12.462c.821,2.147,3.9,3.777,7.007,3.7,2.022-.048,5.657-.874,7.292-5.847,2.576-7.84-2.135-14.894-3.224-16.381l-13.723,6.067Z" transform="translate(-301.943 -138.375)"/>
    <path id="Path_11008" data-name="Path 11008" d="M1117.775,564.062c.018-.059-.077-.321-.119-.642a4.852,4.852,0,0,0-3.23-3.872,1.279,1.279,0,0,0-1.594.7c-.018.006-.036,0-.054.018-1.826.815-.672,2.95-.279,4.247.66,2.183.726,5.2,2.439,6.9a2.866,2.866,0,0,0,4.1.089c1.422-1.416.393-2.891.268-4.5a3.386,3.386,0,0,0-.8-2.4A4.638,4.638,0,0,0,1117.775,564.062Z" transform="translate(-311.488 -139.574)"/>
    <path id="Path_11009" data-name="Path 11009" d="M1086.161,558.339c-1.939-.131-4.11.22-4.6,2.439-.625,2.855,2.362,4.14,4.568,4.64a1.1,1.1,0,0,0,1.344-1.178c2.445-.006,5.318-1.142,7.548-1.237,3.272-.143,8.179,1.309,7.834-3.759-.583-8.6-13.8-7.3-16.7-.9Z" transform="translate(-299.212 -137.022)"/>
    <g id="Group_5445" data-name="Group 5445" transform="translate(716.477 673.446)">
      <path id="Path_11010" data-name="Path 11010" d="M973.29,987.665c1.433-1.648,16.132.387,16.239,1.279.339,2.73.607,13.164-.857,14.484-1.422,1.273-16.15.613-16.334-2.028-.155-2.284-.44-12.146.946-13.735Z" transform="translate(-971.414 -986.261)" fill="#fff"/>
      <path id="Path_11011" data-name="Path 11011" d="M971.015,1000.922c-.006-.119-.72-12.17,1.136-14.305h0c1.749-2.01,14.032-.066,16.233.607.66.2,1.308.458,1.392,1.094.137,1.077.94,13.318-1.112,15.174-1.654,1.475-12.111.857-15.7-.6a4.477,4.477,0,0,1-1.3-.744,1.784,1.784,0,0,1-.66-1.225Zm2.326-13.259c-.928,1.112-1.011,9.136-.744,13.134,0,.012.167.369,1.475.8,4.14,1.362,12.575,1.356,13.526.708.958-.928,1.035-9.743.642-13.473C986.105,987.877,974.548,986.7,973.341,987.663Z" transform="translate(-970.875 -985.73)"/>
    </g>
    <path id="Path_11012" data-name="Path 11012" d="M972.609,1003.85s7.061,9.589,2.361,17.375c0,0-35.493,2.522-46.266,1.106,0,0-.595-13.092,8.577-14.425a135.256,135.256,0,0,1,18.386-1.237s10.433,4.586,16.941-2.814Z" transform="translate(-237.309 -319.625)" fill="#aab6c2"/>
    <path id="Path_11013" data-name="Path 11013" d="M1072.15,819.911c-31.817,4.11-51.8-4.182-63.878,3.462-17.726,11.23-21.545,61.077-23.151,75.721a16.006,16.006,0,0,1-2.855,1.332c-7.364,2.582-18.571,1.618-18.571,1.618-4.086-30.586-17.524-94.34,2-119.459,30.277-38.955,130.047-26.149,130.047-26.149s10.731,33.745-2.552,53.653c-2.986,4.5-12.372,8.7-21.033,9.815Z" transform="translate(-248.12 -218.564)"/>
    <g id="Group_5449" data-name="Group 5449" transform="translate(942.422 592.198)">
      <path id="Path_11014" data-name="Path 11014" d="M1412.974,880.457a9.469,9.469,0,0,0,5.377-1.773,46.244,46.244,0,0,1-.8,9.88c-2.112,3.408-7.977,9.672-7.578,9.636a19.414,19.414,0,0,0,4.705-1.094,35.126,35.126,0,0,1-3.587,5.859c-2.843,3.795-6.894,6.829-8.435,11.456a.282.282,0,0,1-.178.2.333.333,0,0,1-.553.244c-7.649-7.263-9.017-18.3-10.142-28.248-.054-.47-.107-.934-.149-1.41a30.661,30.661,0,0,0,7.049,5.5c.369.2-4.788-8.054-7.316-11.861a22.39,22.39,0,0,1,1.32-7.067c1.79-4.794,4.86-9.285,7.84-13.413.119-.172.256-.333.381-.505a22.981,22.981,0,0,0,3.289,5.96c.244.321-.541-6.037-1.023-8.94.749-.928,1.493-1.856,2.272-2.754,1.023-1.2,2.278-3.242,4.11-2.968,1.779.25,5.829,7.53,6.341,9.612.22.886.422,1.8.6,2.706.089.387.155.791.232,1.184a109.472,109.472,0,0,1,1.362,11.082c-.125.2-.25.393-.393.583-1.487,2.022-5.086,6.127-4.723,6.127Z" transform="translate(-1367.194 -849.138)" fill="#aab6c2"/>
      <path id="Path_11015" data-name="Path 11015" d="M1410.982,883.251c3.777-.571,6.656-2.956,9.434-5.413.41-.369-.1-1.065-.518-.7-2.6,2.308-5.306,4.61-8.821,5.211.8-5.621,1.737-11.218,2.843-16.792.107-.547-.743-.678-.856-.137q-2.195,11.082-3.581,22.282a37.038,37.038,0,0,1-5-10.041c-.172-.529-.976-.208-.8.321a37.8,37.8,0,0,0,5.359,10.606.37.37,0,0,0,.315.167c-.2,1.636-.381,3.266-.553,4.9a23.338,23.338,0,0,1-3.706-6.49.433.433,0,0,0-.8.321,23.993,23.993,0,0,0,4.217,7.191.443.443,0,0,0,.178.125q-.83,8.075-1.255,16.179a.444.444,0,0,0-.053.184c-.113,1.975-.185,3.956-.208,5.924-.042,1.291-.078,2.576-.1,3.866a.347.347,0,0,0,.125.292,188.561,188.561,0,0,0,4.592,36.136c.28-.071.559-.131.839-.2-2.891-13.467-4.818-27.094-4.568-40.9q.08-2.186.185-4.366a.419.419,0,0,0,.386-.048,14.467,14.467,0,0,0,3.956-4.045c.3-.464-.375-1.005-.678-.541a13.771,13.771,0,0,1-3.617,3.759q.723-13.955,2.665-27.808h.036Z" transform="translate(-1372.173 -855.597)"/>
      <path id="Path_11016" data-name="Path 11016" d="M1359.532,920.717a9.358,9.358,0,0,1-5.086.434,32.8,32.8,0,0,0,3.551,7.162c2.784,1.862,9.589,4.646,9.244,4.747a19,19,0,0,1-4.318.72,27.886,27.886,0,0,0,4.747,3.224c3.521,1.915,7.846,2.861,10.5,5.835a.239.239,0,0,0,.208.089.308.308,0,0,0,.542,0c4.39-7.971,2.349-16.709.41-24.56-.089-.375-.184-.738-.279-1.107a27.748,27.748,0,0,1-4.4,6.454c-.256.274,1.731-7.632,2.772-11.32a16.124,16.124,0,0,0-3.171-4.878c-2.915-3.016-6.828-5.377-10.564-7.5-.155-.089-.315-.167-.47-.256a17.952,17.952,0,0,1-1.065,5.562c-.113.321-1.3-4.711-1.725-7.055-.9-.452-1.808-.9-2.73-1.321-1.219-.565-2.879-1.689-4.36-.88-1.44.773-2.766,7.572-2.6,9.3.071.743.167,1.493.28,2.237.036.321.1.642.149.964a78.707,78.707,0,0,0,2.058,8.774c.167.107.327.214.505.309,1.85,1.029,6.1,2.932,5.794,3.051Z" transform="translate(-1350.726 -868.038)" fill="#aab6c2"/>
      <g id="Group_5446" data-name="Group 5446" transform="translate(0.294 34.764)">
        <path id="Path_11017" data-name="Path 11017" d="M1387.866,976.426a135.41,135.41,0,0,0-6.6-28.659.256.256,0,0,0,.024-.256q-.6-1.436-1.213-2.873-.892-2.213-1.9-4.384a.324.324,0,0,0-.1-.119q-2.712-5.951-5.77-11.742a.375.375,0,0,0,.113-.155,18.978,18.978,0,0,0,1.493-6.793c.012-.458-.761-.434-.773.018a18.361,18.361,0,0,1-1.267,6.1q-.937-1.758-1.9-3.5a.35.35,0,0,0,.214-.232,29.332,29.332,0,0,0,1.475-9.731c-.006-.452-.785-.434-.773.024a28.5,28.5,0,0,1-1.332,9.184q-4.443-7.95-9.517-15.567c-.25-.375-.934.006-.684.387q3.837,5.737,7.292,11.682c-3.164.708-6.138-.137-9.011-1.017-.464-.143-.7.553-.238.69,3.076.94,6.216,1.784,9.589.97.012,0,.018-.006.03-.012q5.666,9.761,10.35,20.016a11.759,11.759,0,0,1-4.17-1.636c-.393-.25-.809.381-.416.625a12.342,12.342,0,0,0,4.538,1.737.406.406,0,0,0,.339-.089q.723,1.606,1.427,3.218c4.223,10.29,6.549,21.164,8.006,32.234.256-.042.512-.089.773-.131Z" transform="translate(-1353.628 -907.581)"/>
        <path id="Path_11018" data-name="Path 11018" d="M1357.948,918.309a19.9,19.9,0,0,1-6.728-2.629c.036.321.1.642.149.964A20.853,20.853,0,0,0,1357.7,919C1358.186,919.088,1358.423,918.4,1357.948,918.309Z" transform="translate(-1351.22 -910.863)"/>
      </g>
      <path id="Path_11019" data-name="Path 11019" d="M1457.866,927.1c-.047,3.117-7.245,4.622-9.529,5.466-5.056,1.874-10,3.759-13.741,7.834-4.407,4.8-8.208,10.338-12.016,15.626a.881.881,0,0,1-.9.387,14.619,14.619,0,0,1-1.047-2.272c-1.309-3.23-3.319-9.142-2.819-12.515a20.332,20.332,0,0,1,2.3-6.721,6.052,6.052,0,0,0,1.439,2.843c.179.184.571-4.253.833-6.264.333-.4.672-.8,1.023-1.184a22.6,22.6,0,0,1,2.659-2.451c.2-.161.4-.321.613-.476.773-.571,1.582-1.112,2.421-1.612.22-.131.446-.256.678-.387.779-.434,1.594-.839,2.421-1.2a16.4,16.4,0,0,0,1.338,4.437c.137.3.476-3.509.529-5.187.78-.3,1.583-.541,2.391-.773a12.706,12.706,0,0,0,.993,2.867c.113.22,1.178-2.35,1.564-3.486a31.439,31.439,0,0,1,7.709-.607c.22.006.44.018.654.042.69.047,1.374.125,2.046.232,2.48.387,8.322,1.957,8.435,5.306v.1Z" transform="translate(-1377.878 -878.413)" fill="#aab6c2"/>
      <g id="Group_5447" data-name="Group 5447" transform="translate(42.115 46.957)">
        <path id="Path_11020" data-name="Path 11020" d="M1431.707,939.165c-6.115,6.038-8.012,17.125-8.4,20.272a14.269,14.269,0,0,0-1.255,4.092c-.732,4.973-.512,10.225-.393,15.24.042,1.648.113,3.3.2,4.943.286-.054.565-.107.851-.155-.054-1.041-.1-2.082-.137-3.123-.155-4.491-.149-8.988.059-13.473a19.812,19.812,0,0,1,1.219-6.8,1.086,1.086,0,0,0,.274-.256c3.807-5.288,7.608-10.826,12.016-15.626,3.741-4.069,8.679-5.96,13.74-7.834,2.284-.845,9.487-2.35,9.529-5.467-9.594,1.118-20.652,1.231-27.7,8.179Z" transform="translate(-1421.528 -929.255)"/>
        <path id="Path_11021" data-name="Path 11021" d="M1437.52,935.028a20.051,20.051,0,0,1-.131-6.948c-.232.131-.458.256-.678.387a20.439,20.439,0,0,0,.19,6.7c.077.4.69.256.619-.143Z" transform="translate(-1427.602 -928.08)"/>
        <path id="Path_11022" data-name="Path 11022" d="M1433.245,937.632a26.327,26.327,0,0,1-.892-6.192c-.208.149-.41.309-.613.476a26.839,26.839,0,0,0,.886,5.859C1432.733,938.162,1433.346,938.025,1433.245,937.632Z" transform="translate(-1425.666 -929.441)"/>
      </g>
      <g id="Group_5448" data-name="Group 5448" transform="translate(15.016 87.958)">
        <path id="Path_11023" data-name="Path 11023" d="M1385.561,1023.826a22.2,22.2,0,0,1-8.822-17.726,22.707,22.707,0,0,1,.524-4.794,21.4,21.4,0,0,1,1.094-3.515h40.74a21.12,21.12,0,0,1,1.094,3.515,21.9,21.9,0,0,1,.529,4.794,21.632,21.632,0,0,1-.488,4.61,21.943,21.943,0,0,1-8.494,13.116h-26.19Z" transform="translate(-1376.282 -997.326)" fill="#fff"/>
        <path id="Path_11024" data-name="Path 11024" d="M1418.482,997.932a21.62,21.62,0,0,1,1,12.36,21.525,21.525,0,0,1-8.191,12.753h-25.738a21.507,21.507,0,0,1-8.667-17.268,21.865,21.865,0,0,1,.518-4.7,21.027,21.027,0,0,1,.958-3.147h40.121Zm.619-.922h-41.352a22.448,22.448,0,0,0,7.5,26.952h26.339a22.464,22.464,0,0,0,8.792-13.479,22.538,22.538,0,0,0-.048-9.6,21.8,21.8,0,0,0-1.243-3.872h0Z" transform="translate(-1375.97 -997.01)"/>
      </g>
      <path id="Path_11025" data-name="Path 11025" d="M1427.2,1005.788a22.391,22.391,0,0,1-9.285,18.184H1391.58c34.417,1.713,33.846-26.952,33.846-26.952a21.781,21.781,0,0,1,1.243,3.872,22.457,22.457,0,0,1,.541,4.9Z" transform="translate(-1367.279 -909.056)"/>
    </g>
    <g id="Group_5454" data-name="Group 5454" transform="translate(360.92 517.567)">
      <path id="Path_11026" data-name="Path 11026" d="M461.208,768a13.4,13.4,0,0,0,7.608-2.51,64.744,64.744,0,0,1-1.13,13.978c-2.986,4.824-11.284,13.687-10.725,13.633a26.85,26.85,0,0,0,6.656-1.553,49.685,49.685,0,0,1-5.074,8.292c-4.021,5.365-9.755,9.66-11.932,16.209a.409.409,0,0,1-.25.286.473.473,0,0,1-.785.345c-10.82-10.279-12.759-25.893-14.347-39.972-.077-.666-.155-1.327-.214-1.993a43.384,43.384,0,0,0,9.975,7.786c.523.285-6.781-11.4-10.35-16.786a31.674,31.674,0,0,1,1.862-10c2.534-6.787,6.876-13.14,11.093-18.981.173-.238.363-.47.535-.714a32.486,32.486,0,0,0,4.658,8.435c.345.452-.767-8.542-1.457-12.652,1.059-1.315,2.118-2.629,3.218-3.9,1.445-1.7,3.224-4.586,5.817-4.2,2.516.357,8.244,10.653,8.97,13.6.315,1.255.595,2.54.851,3.831.125.553.226,1.118.327,1.672a154.108,154.108,0,0,1,1.927,15.68c-.178.279-.357.553-.559.827-2.106,2.861-7.2,8.667-6.68,8.673Z" transform="translate(-396.429 -723.671)" fill="#aab6c2"/>
      <path id="Path_11027" data-name="Path 11027" d="M458.384,771.95c5.342-.809,9.422-4.182,13.342-7.661.583-.517-.137-1.5-.732-.981-3.676,3.26-7.5,6.519-12.485,7.37,1.136-7.953,2.457-15.876,4.021-23.763.155-.773-1.059-.964-1.207-.19q-3.105,15.677-5.062,31.526a52.385,52.385,0,0,1-7.067-14.21c-.244-.743-1.374-.291-1.136.458a53.573,53.573,0,0,0,7.584,15,.546.546,0,0,0,.44.244c-.28,2.308-.535,4.622-.785,6.936a33,33,0,0,1-5.246-9.178.612.612,0,0,0-1.136.452,33.952,33.952,0,0,0,5.96,10.177.613.613,0,0,0,.25.173q-1.169,11.421-1.778,22.889a.611.611,0,0,0-.071.262q-.241,4.2-.291,8.387c-.06,1.82-.113,3.646-.149,5.472a.517.517,0,0,0,.178.416c.315,17.226,2.867,34.268,6.49,51.131.4-.1.8-.184,1.19-.28-4.092-19.058-6.817-38.342-6.46-57.871q.107-3.1.262-6.18a.567.567,0,0,0,.541-.071,20.328,20.328,0,0,0,5.591-5.722c.428-.654-.523-1.422-.952-.761a19.546,19.546,0,0,1-5.121,5.318q1.017-19.745,3.777-39.348h.054Z" transform="translate(-403.473 -732.811)"/>
      <path id="Path_11028" data-name="Path 11028" d="M385.578,824.968a13.265,13.265,0,0,1-7.2.619,46.219,46.219,0,0,0,5.026,10.13c3.938,2.635,13.568,6.573,13.074,6.716a27.445,27.445,0,0,1-6.109,1.023,39.286,39.286,0,0,0,6.722,4.562c4.979,2.707,11.1,4.051,14.859,8.256a.36.36,0,0,0,.3.137.441.441,0,0,0,.767,0c6.216-11.284,3.325-23.65.583-34.75-.131-.529-.262-1.041-.4-1.57a39.31,39.31,0,0,1-6.216,9.13c-.363.387,2.445-10.8,3.92-16.013a22.938,22.938,0,0,0-4.491-6.9c-4.128-4.265-9.666-7.614-14.948-10.612-.214-.125-.446-.238-.66-.363a25.234,25.234,0,0,1-1.511,7.87c-.161.452-1.832-6.674-2.445-9.987-1.285-.636-2.564-1.279-3.866-1.868-1.719-.8-4.075-2.385-6.162-1.249-2.034,1.094-3.914,10.719-3.676,13.169.1,1.047.232,2.106.393,3.159.054.452.137.916.208,1.362a111.089,111.089,0,0,0,2.915,12.414c.232.149.464.3.714.434,2.617,1.457,8.637,4.146,8.2,4.318Z" transform="translate(-373.126 -750.425)" fill="#aab6c2"/>
      <g id="Group_5450" data-name="Group 5450" transform="translate(0.407 49.2)">
        <path id="Path_11029" data-name="Path 11029" d="M425.681,903.79c-1.82-13.859-4.6-27.5-9.339-40.555a.365.365,0,0,0,.03-.369c-.559-1.356-1.136-2.712-1.713-4.063q-1.258-3.123-2.689-6.2a.5.5,0,0,0-.137-.172q-3.846-8.423-8.161-16.614a.538.538,0,0,0,.161-.214,26.68,26.68,0,0,0,2.112-9.606c.018-.642-1.077-.613-1.094.036a25.95,25.95,0,0,1-1.79,8.619q-1.321-2.489-2.683-4.955a.515.515,0,0,0,.309-.327,41.428,41.428,0,0,0,2.088-13.77c-.012-.642-1.106-.607-1.094.036a40.473,40.473,0,0,1-1.88,13q-6.29-11.251-13.467-22.026c-.357-.529-1.326.006-.97.541q5.425,8.119,10.32,16.53c-4.479,1-8.684-.19-12.753-1.434-.654-.2-.987.779-.339.976,4.348,1.327,8.8,2.522,13.574,1.368.018,0,.024-.012.042-.018q8.021,13.812,14.645,28.326a16.729,16.729,0,0,1-5.895-2.308c-.559-.357-1.148.535-.589.886a17.569,17.569,0,0,0,6.418,2.463.576.576,0,0,0,.482-.125c.684,1.511,1.356,3.034,2.016,4.556,5.978,14.561,9.267,29.944,11.326,45.611.363-.059.726-.125,1.094-.184Z" transform="translate(-377.226 -806.384)"/>
        <path id="Path_11030" data-name="Path 11030" d="M383.327,821.548a28.071,28.071,0,0,1-9.517-3.718c.054.452.137.916.208,1.362a29.354,29.354,0,0,0,8.964,3.331C383.666,822.648,384,821.679,383.327,821.548Z" transform="translate(-373.81 -811.021)"/>
      </g>
      <path id="Path_11031" data-name="Path 11031" d="M524.724,833.991c-.065,4.408-10.249,6.537-13.485,7.733-7.156,2.653-14.145,5.324-19.439,11.082-6.24,6.793-11.617,14.627-17,22.11a1.268,1.268,0,0,1-1.273.547,19.626,19.626,0,0,1-1.481-3.218c-1.856-4.574-4.7-12.944-3.991-17.714a28.892,28.892,0,0,1,3.242-9.511,8.546,8.546,0,0,0,2.04,4.027c.256.262.809-6.014,1.178-8.863.47-.577.946-1.136,1.451-1.677a31.134,31.134,0,0,1,3.765-3.468c.286-.226.571-.458.862-.672a38.5,38.5,0,0,1,3.432-2.272c.309-.184.631-.369.958-.553,1.106-.613,2.254-1.184,3.42-1.7a23.069,23.069,0,0,0,1.892,6.275c.2.416.678-4.961.744-7.34,1.106-.416,2.237-.761,3.385-1.095a18.013,18.013,0,0,0,1.4,4.057c.155.309,1.671-3.331,2.219-4.931a44.138,44.138,0,0,1,10.909-.857c.309.012.625.024.928.053.976.071,1.945.178,2.9.327,3.509.547,11.778,2.766,11.938,7.513a1.044,1.044,0,0,1,0,.137Z" transform="translate(-411.544 -765.092)" fill="#aab6c2"/>
      <g id="Group_5451" data-name="Group 5451" transform="translate(59.58 66.453)">
        <path id="Path_11032" data-name="Path 11032" d="M487.7,851.075c-8.655,8.542-11.343,24.227-11.9,28.683a20.182,20.182,0,0,0-1.778,5.794c-1.029,7.043-.726,14.466-.553,21.562.06,2.332.161,4.664.286,7,.4-.077.8-.149,1.2-.226-.077-1.469-.143-2.944-.2-4.414-.214-6.353-.208-12.717.083-19.07a28.211,28.211,0,0,1,1.725-9.618,1.281,1.281,0,0,0,.387-.357c5.383-7.489,10.766-15.323,17.006-22.11,5.294-5.758,12.283-8.435,19.439-11.082,3.236-1.2,13.419-3.331,13.485-7.733-13.574,1.582-29.224,1.743-39.187,11.575Z" transform="translate(-473.289 -837.055)"/>
        <path id="Path_11033" data-name="Path 11033" d="M495.929,845.223a28.3,28.3,0,0,1-.184-9.833c-.333.184-.648.363-.958.553a28.982,28.982,0,0,0,.268,9.476c.113.565.976.363.874-.2Z" transform="translate(-481.891 -835.39)"/>
        <path id="Path_11034" data-name="Path 11034" d="M489.879,848.9a37.372,37.372,0,0,1-1.267-8.762c-.292.214-.577.44-.862.672a37.732,37.732,0,0,0,1.255,8.292C489.154,849.657,490.028,849.461,489.879,848.9Z" transform="translate(-479.148 -837.315)"/>
      </g>
      <g id="Group_5452" data-name="Group 5452" transform="translate(21.292 113.011)">
        <path id="Path_11035" data-name="Path 11035" d="M460.37,946.405C444.7,928.668,453.2,914.6,453.2,914.6H424.936s8.506,14.068-7.168,31.805c-7.8,8.821-14.133,28.534,2.933,40.65.827.583,2.153,1.523,2.028,2.784h32.68c-.125-1.261,1.207-2.2,2.028-2.784C474.5,974.939,468.162,955.227,460.37,946.405Z" transform="translate(-409.305 -914.041)" fill="#fff"/>
        <path id="Path_11036" data-name="Path 11036" d="M455.644,990.018H421.727l.059-.613c.089-.934-1.041-1.737-1.784-2.266-6.424-4.562-10.094-10.469-10.909-17.553-1.13-9.809,3.533-19.023,7.87-23.93,15.2-17.2,7.191-31.008,7.108-31.145l-.512-.851h30.247l-.512.851c-.083.137-8.09,13.949,7.108,31.145,4.336,4.907,9,14.121,7.87,23.93-.815,7.09-4.485,12.991-10.9,17.547-.761.541-1.892,1.338-1.8,2.272l.059.613ZM422.881,988.9H454.49c.22-1.249,1.451-2.123,2.231-2.671,6.156-4.372,9.666-10.011,10.445-16.768,1.089-9.44-3.414-18.327-7.6-23.061h0c-13.592-15.376-9.19-28.26-7.661-31.615H425.463c1.529,3.355,5.93,16.239-7.661,31.615-4.188,4.735-8.684,13.616-7.6,23.061.779,6.757,4.289,12.4,10.433,16.762.785.559,2.022,1.434,2.242,2.683Z" transform="translate(-408.922 -913.66)"/>
      </g>
      <g id="Group_5453" data-name="Group 5453" transform="translate(23.98 113.564)">
        <path id="Path_11037" data-name="Path 11037" d="M462,946.405c-15.674-17.738-7.168-31.805-7.168-31.805h-5.948c-7.215,8.726-17.809,10.659-21.6,2.213,3.034,8.53.916,16.947-4.794,25.28,2.344-2.2,9.934-4.414,15.317-3.688,12.926,1.731,22.758,13.057,24.56,25.8,1.16,8.22-5.782,22.175-23.121,22.175-16.221,0-22.788-6.531-25.8-9.85a25.428,25.428,0,0,0,8.887,10.534c.827.583,2.153,1.523,2.028,2.784h32.68c-.125-1.261,1.207-2.2,2.028-2.784,17.06-12.117,10.725-31.829,2.932-40.651Z" transform="translate(-413.44 -914.594)"/>
        <path id="Path_11038" data-name="Path 11038" d="M423.15,965.132q1.793-2.15,3.272-4.312A15.423,15.423,0,0,0,423.15,965.132Z" transform="translate(-417.374 -933.321)"/>
        <path id="Path_11039" data-name="Path 11039" d="M436.1,916.8c-.262-.738-.559-1.475-.9-2.213C435.486,915.375,435.789,916.113,436.1,916.8Z" transform="translate(-422.257 -914.59)"/>
      </g>
    </g>
    <g id="Group_5455" data-name="Group 5455" transform="translate(468.556 539.771)">
      <path id="Path_11040" data-name="Path 11040" d="M907.992,768.138a27.531,27.531,0,0,1,27.5,27.5v64.158a43.583,43.583,0,0,0,18.225,35.4l35.832,25.578-361.5-.863V795.643a27.531,27.531,0,0,1,27.5-27.5h312.9m0-7.138H595.387a34.636,34.636,0,0,0-34.637,34.637V927.034l493.8.886h.012a5.68,5.68,0,0,0,3.3-10.3l-39.55-28.23a36.356,36.356,0,0,1-15.234-29.593V795.637A34.636,34.636,0,0,0,968.444,761h0Z" transform="translate(-556.782 -761)"/>
      <path id="Path_11041" data-name="Path 11041" d="M901.607,768.138a27.531,27.531,0,0,1,27.5,27.5v64.158a43.583,43.583,0,0,0,18.226,35.4l35.832,25.578-421.946-.863V795.643a27.531,27.531,0,0,1,27.5-27.5h312.9m0-7.138h-312.9a34.636,34.636,0,0,0-34.637,34.637V927.034l433.641.886h.012a5.68,5.68,0,0,0,3.3-10.3l-39.55-28.23a36.356,36.356,0,0,1-15.234-29.593V795.637A34.636,34.636,0,0,0,901.614,761h0Z" transform="translate(-554.08 -761)" fill="#f40"/>
    </g>
    <rect id="Rectangle_4897" data-name="Rectangle 4897" width="669.329" height="4.128" transform="translate(343 706.412)"/>
    <g id="Group_5465" data-name="Group 5465" transform="translate(544.593 608.616)">
      <g id="Group_5456" data-name="Group 5456" transform="translate(3.509 86.297)">
        <path id="Path_11042" data-name="Path 11042" d="M770.319,1031.309a1.944,1.944,0,0,1-1.921,1.945l-13.824.042-64.217.2a1.923,1.923,0,0,1-1.933-1.921l-.024-6.983a1.937,1.937,0,0,1,1.927-1.939l6.68-.018,57.389-.178,13.978-.042a2.005,2.005,0,0,1,.714.137,1.928,1.928,0,0,1,1.219,1.79l.024,6.983Z" transform="translate(-688.049 -1022.059)" fill="#f40"/>
        <path id="Path_11043" data-name="Path 11043" d="M690.112,1033.592a2.276,2.276,0,0,1-2.278-2.266l-.024-6.983a2.289,2.289,0,0,1,2.266-2.284l78.047-.238a2.28,2.28,0,0,1,2.278,2.266l.024,6.983a2.289,2.289,0,0,1-2.266,2.284l-78.047.238Zm78.011-11.088-78.047.238a1.6,1.6,0,0,0-1.582,1.594l.024,6.983a1.588,1.588,0,0,0,1.594,1.582l78.041-.238a1.6,1.6,0,0,0,1.582-1.594l-.024-6.983a1.6,1.6,0,0,0-1.005-1.475,1.666,1.666,0,0,0-.583-.113Z" transform="translate(-687.81 -1021.82)"/>
      </g>
      <g id="Group_5457" data-name="Group 5457" transform="translate(10.891 75.579)">
        <path id="Path_11044" data-name="Path 11044" d="M782.72,1013.289a1.923,1.923,0,0,1-1.921,1.933l-6.7.018-14.436.053-56.913.179a1.938,1.938,0,0,1-1.933-1.921l-.018-6.989a1.928,1.928,0,0,1,1.927-1.933l51.845-.161,26.19-.077a1.919,1.919,0,0,1,1.933,1.921l.024,6.983Z" transform="translate(-700.455 -1004.039)" fill="#f40"/>
        <path id="Path_11045" data-name="Path 11045" d="M702.516,1015.572a2.11,2.11,0,0,1-.863-.172,2.261,2.261,0,0,1-1.416-2.094l-.018-7a2.219,2.219,0,0,1,.654-1.6,2.244,2.244,0,0,1,1.612-.672l78.035-.238a2.309,2.309,0,0,1,1.606.654,2.244,2.244,0,0,1,.672,1.612l.024,6.983a2.276,2.276,0,0,1-2.266,2.278l-78.047.244Zm78.029-11.088h-.012l-78.041.238a1.56,1.56,0,0,0-1.124.47,1.591,1.591,0,0,0-.458,1.118l.018,7a1.573,1.573,0,0,0,.993,1.463,1.537,1.537,0,0,0,.595.119l78.047-.244a1.587,1.587,0,0,0,1.582-1.588l-.024-6.983a1.56,1.56,0,0,0-.47-1.124,1.577,1.577,0,0,0-1.106-.458Z" transform="translate(-700.22 -1003.8)"/>
      </g>
      <g id="Group_5458" data-name="Group 5458" transform="translate(5.722 64.729)">
        <path id="Path_11046" data-name="Path 11046" d="M774.034,995.036a1.932,1.932,0,0,1-1.921,1.939l-21.075.065h-.006l-56.955.172a1.937,1.937,0,0,1-1.939-1.927l-.018-6.983a1.967,1.967,0,0,1,1.927-1.945l46.123-.143,26.856-.077,5.062-.018a1.932,1.932,0,0,1,1.939,1.921l.018,6.983Z" transform="translate(-691.769 -985.787)" fill="#f40"/>
        <path id="Path_11047" data-name="Path 11047" d="M693.832,997.332a2.285,2.285,0,0,1-2.284-2.266l-.018-6.983a2.276,2.276,0,0,1,1.541-2.159,2.128,2.128,0,0,1,.732-.125l78.035-.238a2.287,2.287,0,0,1,2.284,2.26l.018,6.989a2.274,2.274,0,0,1-2.266,2.284Zm78.006-11.088-78.035.238a1.534,1.534,0,0,0-.505.089,1.584,1.584,0,0,0-1.077,1.5l.018,6.989a1.6,1.6,0,0,0,1.6,1.582l56.877-.167.149-.065.071.065,20.944-.065a1.588,1.588,0,0,0,1.582-1.594l-.018-6.989a1.6,1.6,0,0,0-1.6-1.582Z" transform="translate(-691.53 -985.56)"/>
      </g>
      <g id="Group_5459" data-name="Group 5459" transform="translate(3.509 21.574)">
        <path id="Path_11048" data-name="Path 11048" d="M770.319,922.487a1.94,1.94,0,0,1-1.921,1.939l-13.824.042-64.217.2a1.924,1.924,0,0,1-1.933-1.927l-.024-6.983a1.942,1.942,0,0,1,1.927-1.945l6.68-.018,57.389-.178,13.978-.042a1.883,1.883,0,0,1,.714.137,1.928,1.928,0,0,1,1.219,1.791l.024,6.983Z" transform="translate(-688.049 -913.237)" fill="#f40"/>
        <path id="Path_11049" data-name="Path 11049" d="M690.112,924.782a2.276,2.276,0,0,1-2.278-2.266l-.024-6.983a2.289,2.289,0,0,1,2.266-2.284l78.047-.238a2.28,2.28,0,0,1,2.278,2.266l.024,6.983a2.293,2.293,0,0,1-2.266,2.284l-78.047.238Zm78.011-11.088-78.047.238a1.6,1.6,0,0,0-1.582,1.594l.024,6.983a1.588,1.588,0,0,0,1.594,1.582l78.041-.238a1.6,1.6,0,0,0,1.582-1.594l-.024-6.983a1.6,1.6,0,0,0-1.005-1.475,1.666,1.666,0,0,0-.583-.113Z" transform="translate(-687.81 -913.01)"/>
      </g>
      <g id="Group_5460" data-name="Group 5460" transform="translate(10.891 10.85)">
        <path id="Path_11050" data-name="Path 11050" d="M782.72,904.465A1.923,1.923,0,0,1,780.8,906.4l-6.7.018-14.436.054-56.913.178a1.817,1.817,0,0,1-.726-.143,1.922,1.922,0,0,1-1.208-1.779l-.018-7a1.928,1.928,0,0,1,1.927-1.933l51.845-.161,26.19-.077a1.919,1.919,0,0,1,1.933,1.921Z" transform="translate(-700.455 -895.215)" fill="#f40"/>
        <path id="Path_11051" data-name="Path 11051" d="M702.516,906.752a2.11,2.11,0,0,1-.863-.173,2.261,2.261,0,0,1-1.416-2.094l-.018-7a2.22,2.22,0,0,1,.654-1.6,2.244,2.244,0,0,1,1.612-.672l78.035-.238a2.31,2.31,0,0,1,1.606.654,2.244,2.244,0,0,1,.672,1.612l.024,6.983a2.276,2.276,0,0,1-2.266,2.278l-78.047.244Zm78.029-11.088h-.012l-78.041.238a1.56,1.56,0,0,0-1.124.47,1.59,1.59,0,0,0-.458,1.118l.018,7a1.572,1.572,0,0,0,.993,1.463,1.54,1.54,0,0,0,.595.119l78.047-.244a1.587,1.587,0,0,0,1.582-1.588l-.024-6.983a1.56,1.56,0,0,0-.47-1.124,1.577,1.577,0,0,0-1.106-.458Z" transform="translate(-700.22 -894.98)"/>
      </g>
      <g id="Group_5461" data-name="Group 5461" transform="translate(5.722)">
        <path id="Path_11052" data-name="Path 11052" d="M774.034,886.216a1.932,1.932,0,0,1-1.921,1.939l-21.075.065h-.006l-56.955.172a1.937,1.937,0,0,1-1.939-1.927l-.018-6.983a1.967,1.967,0,0,1,1.927-1.945l46.123-.143,26.856-.077,5.062-.018a1.932,1.932,0,0,1,1.939,1.921l.018,6.983Z" transform="translate(-691.769 -876.967)" fill="#f40"/>
        <path id="Path_11053" data-name="Path 11053" d="M693.832,888.512a2.285,2.285,0,0,1-2.284-2.266l-.018-6.983a2.286,2.286,0,0,1,2.272-2.284l78.035-.238a2.288,2.288,0,0,1,2.284,2.26l.018,6.989a2.274,2.274,0,0,1-2.266,2.284Zm78.006-11.088-78.035.238a1.537,1.537,0,0,0-.505.089,1.584,1.584,0,0,0-1.077,1.505l.018,6.989a1.6,1.6,0,0,0,1.6,1.582l56.877-.167.149-.065.071.065,20.944-.071A1.588,1.588,0,0,0,773.461,886l-.018-6.989a1.6,1.6,0,0,0-1.6-1.582Z" transform="translate(-691.53 -876.74)"/>
      </g>
      <g id="Group_5462" data-name="Group 5462" transform="translate(0 54.004)">
        <path id="Path_11054" data-name="Path 11054" d="M764.416,977.015a1.932,1.932,0,0,1-1.3,1.832,1.8,1.8,0,0,1-.619.1l-26.083.089-46.89.143-5.074.018a1.927,1.927,0,0,1-1.933-1.921l-.024-7a1.932,1.932,0,0,1,1.927-1.933l10.493-.036,47.312-.143h.006l20.236-.06a2,2,0,0,1,.422.048,1.926,1.926,0,0,1,1.5,1.874Z" transform="translate(-682.145 -967.765)" fill="#f40"/>
        <path id="Path_11055" data-name="Path 11055" d="M684.212,979.3a2.276,2.276,0,0,1-2.278-2.266l-.024-6.989a2.276,2.276,0,0,1,2.266-2.278l58.144-.178h0l19.9-.059a2.032,2.032,0,0,1,.506.065A2.267,2.267,0,0,1,764.5,969.8l.024,6.983a2.258,2.258,0,0,1-2.266,2.272l-78.047.244Zm57.7-11.028-57.734.178a1.587,1.587,0,0,0-1.582,1.588l.024,7a1.587,1.587,0,0,0,1.588,1.582l78.047-.244a1.552,1.552,0,0,0,.506-.083,1.6,1.6,0,0,0,1.077-1.505l-.024-6.983a1.585,1.585,0,0,0-1.237-1.541,1.422,1.422,0,0,0-.351-.048l-20.093.059-.065.065-.161-.065Z" transform="translate(-681.91 -967.53)"/>
      </g>
      <g id="Group_5463" data-name="Group 5463" transform="translate(10.897 43.184)">
        <path id="Path_11056" data-name="Path 11056" d="M782.724,958.806a1.923,1.923,0,0,1-1.921,1.933l-10.493.03-20.563.059-46.985.143a2.005,2.005,0,0,1-.422-.048,1.937,1.937,0,0,1-1.511-1.868l-.018-7a1.915,1.915,0,0,1,1.469-1.874,1.64,1.64,0,0,1,.458-.059l44.511-.137,33.524-.1a1.97,1.97,0,0,1,.494.059,1.923,1.923,0,0,1,1.439,1.868l.024,6.983Z" transform="translate(-700.465 -949.563)" fill="#f40"/>
        <path id="Path_11057" data-name="Path 11057" d="M702.52,961.1a2.029,2.029,0,0,1-.506-.06,2.272,2.272,0,0,1-1.767-2.195l-.018-7a2.236,2.236,0,0,1,1.731-2.207,2.048,2.048,0,0,1,.541-.065l78.035-.238a2.193,2.193,0,0,1,.577.071,2.261,2.261,0,0,1,1.7,2.195l.024,6.983a2.276,2.276,0,0,1-2.266,2.278l-78.047.238Zm78.011-11.082-78.035.238a1.286,1.286,0,0,0-.363.047,1.558,1.558,0,0,0-1.219,1.541l.018,7a1.6,1.6,0,0,0,1.237,1.535,1.419,1.419,0,0,0,.351.042l78.047-.238a1.587,1.587,0,0,0,1.582-1.588l-.024-6.983a1.58,1.58,0,0,0-1.184-1.535,1.712,1.712,0,0,0-.4-.048Z" transform="translate(-700.23 -949.34)"/>
      </g>
      <g id="Group_5464" data-name="Group 5464" transform="translate(10.891 32.448)">
        <path id="Path_11058" data-name="Path 11058" d="M782.711,940.776a1.921,1.921,0,0,1-1.469,1.874,1.638,1.638,0,0,1-.458.06l-33.334.1-44.719.137a1.849,1.849,0,0,1-.482-.059,1.936,1.936,0,0,1-1.451-1.868l-.018-6.983a1.921,1.921,0,0,1,1.927-1.933l8.333-.024L737.725,932l43.018-.137a1.64,1.64,0,0,1,.3.024,1.931,1.931,0,0,1,1.636,1.9l.024,7Z" transform="translate(-700.447 -931.521)" fill="#f40"/>
        <path id="Path_11059" data-name="Path 11059" d="M702.516,943.062a2.155,2.155,0,0,1-.577-.071,2.281,2.281,0,0,1-1.7-2.189l-.018-6.989a2.268,2.268,0,0,1,.654-1.606,2.244,2.244,0,0,1,1.612-.672l78.035-.244a2.283,2.283,0,0,1,2.272,2.266l.024,7a2.25,2.25,0,0,1-1.731,2.207,1.807,1.807,0,0,1-.535.065l-78.047.238Zm78.011-11.088-78.035.244a1.56,1.56,0,0,0-1.124.47,1.54,1.54,0,0,0-.452,1.118l.018,6.989a1.592,1.592,0,0,0,1.19,1.535,1.627,1.627,0,0,0,.4.048l78.047-.238a1.28,1.28,0,0,0,.363-.048,1.578,1.578,0,0,0,1.219-1.547l-.024-6.989a1.6,1.6,0,0,0-1.344-1.564,1.164,1.164,0,0,0-.244-.024Z" transform="translate(-700.22 -931.29)"/>
      </g>
    </g>
    <path id="Path_11060" data-name="Path 11060" d="M871.331,1014.971a2.3,2.3,0,0,0,.4-.274,2.278,2.278,0,0,0,.66-1.612l-.024-6.989a2.275,2.275,0,0,0-2.278-2.266l-79.653.916a2.249,2.249,0,0,0-.66,1.6l.024,6.989a2.235,2.235,0,0,0,1.047,1.856,2.3,2.3,0,0,0-.4.274,2.254,2.254,0,0,0-.66,1.606l.024,6.989a2.274,2.274,0,0,0,2.272,2.266h.006l78.041-.238a2.272,2.272,0,0,0,2.266-2.278l-.024-6.989a2.243,2.243,0,0,0-1.047-1.856Z" transform="translate(-181.023 -319.617)" fill="#191e3f" opacity="0.15"/>
    <g id="Group_5475" data-name="Group 5475" transform="translate(437.708 608.616)">
      <g id="Group_5466" data-name="Group 5466" transform="translate(3.509 86.297)">
        <path id="Path_11061" data-name="Path 11061" d="M590.63,1031.309a1.945,1.945,0,0,1-1.921,1.945l-13.824.042-64.218.2a1.923,1.923,0,0,1-1.933-1.921l-.024-6.983a1.937,1.937,0,0,1,1.927-1.939l6.68-.018,57.389-.178,13.978-.042a2.006,2.006,0,0,1,.714.137,1.928,1.928,0,0,1,1.219,1.79l.024,6.983Z" transform="translate(-508.359 -1022.059)" fill="#f40"/>
        <path id="Path_11062" data-name="Path 11062" d="M510.422,1033.592a2.276,2.276,0,0,1-2.278-2.266l-.024-6.983a2.289,2.289,0,0,1,2.266-2.284l78.047-.238a2.28,2.28,0,0,1,2.278,2.266l.024,6.983a2.289,2.289,0,0,1-2.266,2.284l-78.047.238Zm78.012-11.088-78.047.238a1.6,1.6,0,0,0-1.582,1.594l.024,6.983a1.588,1.588,0,0,0,1.594,1.582l78.041-.238a1.6,1.6,0,0,0,1.582-1.594l-.024-6.983a1.6,1.6,0,0,0-1.005-1.475,1.666,1.666,0,0,0-.583-.113Z" transform="translate(-508.12 -1021.82)"/>
      </g>
      <g id="Group_5467" data-name="Group 5467" transform="translate(10.891 75.579)">
        <path id="Path_11063" data-name="Path 11063" d="M603.03,1013.289a1.923,1.923,0,0,1-1.921,1.933l-6.7.018-14.436.053-56.913.179a1.938,1.938,0,0,1-1.933-1.921l-.018-6.989a1.928,1.928,0,0,1,1.927-1.933l51.845-.161,26.19-.077a1.919,1.919,0,0,1,1.933,1.921l.024,6.983Z" transform="translate(-520.765 -1004.039)" fill="#f40"/>
        <path id="Path_11064" data-name="Path 11064" d="M522.826,1015.572a2.11,2.11,0,0,1-.862-.172,2.262,2.262,0,0,1-1.416-2.094l-.018-7a2.22,2.22,0,0,1,.654-1.6,2.244,2.244,0,0,1,1.612-.672l78.035-.238a2.309,2.309,0,0,1,1.606.654,2.244,2.244,0,0,1,.672,1.612l.024,6.983a2.276,2.276,0,0,1-2.266,2.278l-78.047.244Zm78.029-11.088h-.012l-78.041.238a1.561,1.561,0,0,0-1.124.47,1.591,1.591,0,0,0-.458,1.118l.018,7a1.573,1.573,0,0,0,.993,1.463,1.537,1.537,0,0,0,.595.119l78.047-.244a1.587,1.587,0,0,0,1.582-1.588l-.024-6.983a1.56,1.56,0,0,0-.47-1.124,1.577,1.577,0,0,0-1.106-.458Z" transform="translate(-520.53 -1003.8)"/>
      </g>
      <g id="Group_5468" data-name="Group 5468" transform="translate(5.722 64.729)">
        <path id="Path_11065" data-name="Path 11065" d="M594.344,995.036a1.932,1.932,0,0,1-1.921,1.939l-21.075.065h-.006l-56.955.172a1.937,1.937,0,0,1-1.939-1.927l-.018-6.983a1.967,1.967,0,0,1,1.927-1.945l46.123-.143,26.856-.077,5.062-.018a1.932,1.932,0,0,1,1.939,1.921l.018,6.983Z" transform="translate(-512.079 -985.787)" fill="#f40"/>
        <path id="Path_11066" data-name="Path 11066" d="M514.142,997.332a2.285,2.285,0,0,1-2.284-2.266l-.018-6.983a2.276,2.276,0,0,1,1.541-2.159,2.127,2.127,0,0,1,.732-.125l78.035-.238a2.287,2.287,0,0,1,2.284,2.26l.018,6.989a2.275,2.275,0,0,1-2.266,2.284Zm78.006-11.088-78.035.238a1.534,1.534,0,0,0-.506.089,1.584,1.584,0,0,0-1.077,1.5l.018,6.989a1.6,1.6,0,0,0,1.6,1.582l56.877-.167.149-.065.071.065,20.944-.065a1.588,1.588,0,0,0,1.582-1.594l-.018-6.989a1.6,1.6,0,0,0-1.6-1.582Z" transform="translate(-511.84 -985.56)"/>
      </g>
      <g id="Group_5469" data-name="Group 5469" transform="translate(3.509 21.574)">
        <path id="Path_11067" data-name="Path 11067" d="M590.63,922.487a1.94,1.94,0,0,1-1.921,1.939l-13.824.042-64.218.2a1.924,1.924,0,0,1-1.933-1.927l-.024-6.983a1.942,1.942,0,0,1,1.927-1.945l6.68-.018,57.389-.178,13.978-.042a1.883,1.883,0,0,1,.714.137,1.928,1.928,0,0,1,1.219,1.791l.024,6.983Z" transform="translate(-508.359 -913.237)" fill="#f40"/>
        <path id="Path_11068" data-name="Path 11068" d="M510.422,924.782a2.276,2.276,0,0,1-2.278-2.266l-.024-6.983a2.289,2.289,0,0,1,2.266-2.284l78.047-.238a2.28,2.28,0,0,1,2.278,2.266l.024,6.983a2.293,2.293,0,0,1-2.266,2.284l-78.047.238Zm78.012-11.088-78.047.238a1.6,1.6,0,0,0-1.582,1.594l.024,6.983a1.588,1.588,0,0,0,1.594,1.582l78.041-.238a1.6,1.6,0,0,0,1.582-1.594l-.024-6.983a1.6,1.6,0,0,0-1.005-1.475,1.666,1.666,0,0,0-.583-.113Z" transform="translate(-508.12 -913.01)"/>
      </g>
      <g id="Group_5470" data-name="Group 5470" transform="translate(10.891 10.85)">
        <path id="Path_11069" data-name="Path 11069" d="M603.03,904.465a1.923,1.923,0,0,1-1.921,1.933l-6.7.018-14.436.054-56.913.178a1.817,1.817,0,0,1-.726-.143,1.922,1.922,0,0,1-1.208-1.779l-.018-7a1.928,1.928,0,0,1,1.927-1.933l51.845-.161,26.19-.077a1.919,1.919,0,0,1,1.933,1.921Z" transform="translate(-520.765 -895.215)" fill="#f40"/>
        <path id="Path_11070" data-name="Path 11070" d="M522.826,906.752a2.11,2.11,0,0,1-.862-.173,2.262,2.262,0,0,1-1.416-2.094l-.018-7a2.22,2.22,0,0,1,.654-1.6,2.244,2.244,0,0,1,1.612-.672l78.035-.238a2.31,2.31,0,0,1,1.606.654,2.244,2.244,0,0,1,.672,1.612l.024,6.983a2.276,2.276,0,0,1-2.266,2.278l-78.047.244Zm78.029-11.088h-.012L522.8,895.9a1.56,1.56,0,0,0-1.124.47,1.59,1.59,0,0,0-.458,1.118l.018,7a1.573,1.573,0,0,0,.993,1.463,1.54,1.54,0,0,0,.595.119l78.047-.244a1.587,1.587,0,0,0,1.582-1.588l-.024-6.983a1.56,1.56,0,0,0-.47-1.124,1.577,1.577,0,0,0-1.106-.458Z" transform="translate(-520.53 -894.98)"/>
      </g>
      <g id="Group_5471" data-name="Group 5471" transform="translate(5.722)">
        <path id="Path_11071" data-name="Path 11071" d="M594.344,886.216a1.932,1.932,0,0,1-1.921,1.939l-21.075.065h-.006l-56.955.172a1.937,1.937,0,0,1-1.939-1.927l-.018-6.983a1.967,1.967,0,0,1,1.927-1.945l46.123-.143,26.856-.077,5.062-.018a1.932,1.932,0,0,1,1.939,1.921l.018,6.983Z" transform="translate(-512.079 -876.967)" fill="#f40"/>
        <path id="Path_11072" data-name="Path 11072" d="M514.142,888.512a2.285,2.285,0,0,1-2.284-2.266l-.018-6.983a2.286,2.286,0,0,1,2.272-2.284l78.035-.238a2.287,2.287,0,0,1,2.284,2.26l.018,6.989a2.275,2.275,0,0,1-2.266,2.284Zm78.006-11.088-78.035.238a1.537,1.537,0,0,0-.506.089,1.584,1.584,0,0,0-1.077,1.505l.018,6.989a1.6,1.6,0,0,0,1.6,1.582l56.877-.167.149-.065.071.065,20.944-.071A1.588,1.588,0,0,0,593.771,886l-.018-6.989a1.6,1.6,0,0,0-1.6-1.582Z" transform="translate(-511.84 -876.74)"/>
      </g>
      <g id="Group_5472" data-name="Group 5472" transform="translate(0 54.004)">
        <path id="Path_11073" data-name="Path 11073" d="M584.735,977.015a1.932,1.932,0,0,1-1.3,1.832,1.8,1.8,0,0,1-.619.1l-26.083.089-46.89.143-5.074.018a1.927,1.927,0,0,1-1.933-1.921l-.024-7a1.932,1.932,0,0,1,1.927-1.933l10.493-.036,47.312-.143h.006l20.236-.06a2,2,0,0,1,.422.048,1.926,1.926,0,0,1,1.5,1.874l.024,6.983Z" transform="translate(-502.459 -967.765)" fill="#f40"/>
        <path id="Path_11074" data-name="Path 11074" d="M504.522,979.3a2.276,2.276,0,0,1-2.278-2.266l-.024-6.989a2.276,2.276,0,0,1,2.266-2.278l58.144-.178h0l19.9-.059a2.032,2.032,0,0,1,.506.065,2.267,2.267,0,0,1,1.773,2.207l.024,6.983a2.258,2.258,0,0,1-2.266,2.272l-78.047.244Zm57.7-11.028-57.734.178a1.587,1.587,0,0,0-1.582,1.588l.024,7a1.587,1.587,0,0,0,1.588,1.582l78.047-.244a1.552,1.552,0,0,0,.506-.083,1.6,1.6,0,0,0,1.077-1.505l-.024-6.983a1.585,1.585,0,0,0-1.237-1.541,1.423,1.423,0,0,0-.351-.048l-20.093.059-.065.065-.161-.065Z" transform="translate(-502.22 -967.53)"/>
      </g>
      <g id="Group_5473" data-name="Group 5473" transform="translate(10.897 43.184)">
        <path id="Path_11075" data-name="Path 11075" d="M603.034,958.806a1.923,1.923,0,0,1-1.921,1.933l-10.493.03-20.563.059-46.985.143a2,2,0,0,1-.422-.048,1.937,1.937,0,0,1-1.511-1.868l-.018-7a1.914,1.914,0,0,1,1.469-1.874,1.639,1.639,0,0,1,.458-.059l44.511-.137,33.524-.1a1.968,1.968,0,0,1,.494.059,1.923,1.923,0,0,1,1.44,1.868l.024,6.983Z" transform="translate(-520.775 -949.563)" fill="#f40"/>
        <path id="Path_11076" data-name="Path 11076" d="M522.83,961.1a2.03,2.03,0,0,1-.506-.06,2.272,2.272,0,0,1-1.767-2.195l-.018-7a2.236,2.236,0,0,1,1.731-2.207,2.048,2.048,0,0,1,.541-.065l78.035-.238a2.195,2.195,0,0,1,.577.071,2.261,2.261,0,0,1,1.7,2.195l.024,6.983a2.276,2.276,0,0,1-2.266,2.278l-78.047.238Zm78.011-11.082-78.035.238a1.286,1.286,0,0,0-.363.047,1.558,1.558,0,0,0-1.219,1.541l.018,7a1.6,1.6,0,0,0,1.237,1.535,1.418,1.418,0,0,0,.351.042l78.047-.238a1.587,1.587,0,0,0,1.582-1.588l-.024-6.983a1.58,1.58,0,0,0-1.184-1.535,1.711,1.711,0,0,0-.4-.048Z" transform="translate(-520.54 -949.34)"/>
      </g>
      <g id="Group_5474" data-name="Group 5474" transform="translate(10.891 32.448)">
        <path id="Path_11077" data-name="Path 11077" d="M603.021,940.776a1.921,1.921,0,0,1-1.469,1.874,1.637,1.637,0,0,1-.458.06l-33.334.1-44.719.137a1.849,1.849,0,0,1-.482-.059,1.936,1.936,0,0,1-1.451-1.868l-.018-6.983a1.921,1.921,0,0,1,1.927-1.933l8.334-.024L558.035,932l43.018-.137a1.641,1.641,0,0,1,.3.024,1.931,1.931,0,0,1,1.636,1.9l.024,7Z" transform="translate(-520.757 -931.521)" fill="#f40"/>
        <path id="Path_11078" data-name="Path 11078" d="M522.826,943.062a2.154,2.154,0,0,1-.577-.071,2.281,2.281,0,0,1-1.7-2.189l-.018-6.989a2.267,2.267,0,0,1,.654-1.606,2.243,2.243,0,0,1,1.612-.672l78.035-.244a2.283,2.283,0,0,1,2.272,2.266l.024,7a2.25,2.25,0,0,1-1.731,2.207,1.806,1.806,0,0,1-.535.065l-78.047.238Zm78.012-11.088-78.035.244a1.56,1.56,0,0,0-1.124.47,1.54,1.54,0,0,0-.452,1.118l.018,6.989a1.592,1.592,0,0,0,1.19,1.535,1.628,1.628,0,0,0,.4.048l78.047-.238a1.282,1.282,0,0,0,.363-.048,1.578,1.578,0,0,0,1.219-1.547l-.024-6.989a1.6,1.6,0,0,0-1.344-1.564,1.164,1.164,0,0,0-.244-.024Z" transform="translate(-520.53 -931.29)"/>
      </g>
    </g>
    <path id="Path_11079" data-name="Path 11079" d="M691.641,1014.971a1.953,1.953,0,0,0,1.065-1.885l-.024-6.989a2.274,2.274,0,0,0-2.278-2.266l-79.653.916a2.249,2.249,0,0,0-.66,1.6l.024,6.989a2.235,2.235,0,0,0,1.047,1.856,2.3,2.3,0,0,0-.4.274,2.254,2.254,0,0,0-.66,1.606l.024,6.989a2.274,2.274,0,0,0,2.272,2.266h.006l78.041-.238a2.272,2.272,0,0,0,2.266-2.278l-.024-6.989a2.243,2.243,0,0,0-1.047-1.856Z" transform="translate(-108.218 -319.617)" fill="#191e3f" opacity="0.15"/>
    <g id="Group_5478" data-name="Group 5478" transform="translate(618.571 684.219)">
      <g id="Group_5476" data-name="Group 5476" transform="translate(0 10.725)">
        <path id="Path_11080" data-name="Path 11080" d="M886.864,1033.29l-78.041.238a1.936,1.936,0,0,1-1.939-1.921l-.024-6.989a1.936,1.936,0,0,1,1.921-1.939l78.041-.238a1.936,1.936,0,0,1,1.939,1.921l.024,6.989a1.927,1.927,0,0,1-1.921,1.933Z" transform="translate(-806.515 -1022.101)" fill="#f40"/>
        <path id="Path_11081" data-name="Path 11081" d="M808.576,1033.642a2.275,2.275,0,0,1-2.272-2.266l-.024-6.983a2.275,2.275,0,0,1,2.266-2.284l78.041-.238h0a2.275,2.275,0,0,1,2.272,2.266l.024,6.989a2.272,2.272,0,0,1-2.266,2.278l-78.041.238h-.006Zm78.018-11.088h0l-78.041.238a1.556,1.556,0,0,0-1.118.47,1.6,1.6,0,0,0-.464,1.124l.024,6.989a1.557,1.557,0,0,0,.47,1.118,1.58,1.58,0,0,0,1.118.458h0l78.041-.238a1.588,1.588,0,0,0,1.582-1.594l-.024-6.989a1.587,1.587,0,0,0-1.588-1.582Z" transform="translate(-806.28 -1021.87)"/>
      </g>
      <g id="Group_5477" data-name="Group 5477">
        <path id="Path_11082" data-name="Path 11082" d="M886.864,1015.26l-78.041.238a1.936,1.936,0,0,1-1.939-1.921l-.024-6.989a1.936,1.936,0,0,1,1.921-1.939l78.041-.238a1.936,1.936,0,0,1,1.939,1.921l.024,6.989A1.936,1.936,0,0,1,886.864,1015.26Z" transform="translate(-806.515 -1004.071)" fill="#f40"/>
        <path id="Path_11083" data-name="Path 11083" d="M808.576,1015.612a2.275,2.275,0,0,1-2.272-2.266l-.024-6.989a2.275,2.275,0,0,1,2.266-2.278l78.041-.238a2.239,2.239,0,0,1,1.606.66,2.265,2.265,0,0,1,.672,1.606l.024,6.989a2.265,2.265,0,0,1-2.266,2.278l-78.041.238Zm78.023-11.088h-.006l-78.041.238a1.556,1.556,0,0,0-1.118.47,1.6,1.6,0,0,0-.464,1.124l.024,6.989a1.556,1.556,0,0,0,.47,1.118,1.58,1.58,0,0,0,1.118.458h0l78.041-.238a1.556,1.556,0,0,0,1.118-.47,1.6,1.6,0,0,0,.464-1.124l-.024-6.983a1.557,1.557,0,0,0-.47-1.118,1.58,1.58,0,0,0-1.118-.458Z" transform="translate(-806.28 -1003.84)"/>
      </g>
    </g>
    <g id="Group_5480" data-name="Group 5480" transform="translate(518.459 627.561)">
      <path id="Path_11084" data-name="Path 11084" d="M659.9,982.273c-10.523-9.779-13.056-27.969-5.175-44.4,7.828-16.316,23.442-25.7,37.581-23.787l.547-1.148,7.263,3.486c15.751,7.554,20.974,29.42,11.659,48.829s-29.634,29.016-45.385,21.461l-7.084-3.176.595-1.255Z" transform="translate(-642.893 -910.352)"/>
      <path id="Path_11085" data-name="Path 11085" d="M642.546,932.627c-9.315,19.409-3.914,41.578,11.837,49.139S690.281,979.41,699.6,960s4.087-41.269-11.664-48.829-36.076,2.046-45.385,21.455Z" transform="translate(-637.975 -908.589)" fill="#f40"/>
      <g id="Group_5479" data-name="Group 5479" transform="translate(5.569 6.419)">
        <path id="Path_11086" data-name="Path 11086" d="M651.653,939.688c-7.65,15.941-3.212,34.149,9.725,40.353s29.486-1.927,37.135-17.875,3.355-33.9-9.577-40.109-29.634,1.683-37.278,17.625Z" transform="translate(-647.565 -919.607)" fill="#f40"/>
        <path id="Path_11087" data-name="Path 11087" d="M691.655,964.82a8.045,8.045,0,0,0,.012-5.252,10.784,10.784,0,0,0-1.142-2.3,17.982,17.982,0,0,0-1.683-2.118,24.552,24.552,0,0,0-2.011-2c-.714-.654-1.434-1.3-2.165-1.945l3.849-11.825a6.928,6.928,0,0,1,2.867,2.712,8.718,8.718,0,0,1,.964,4.092l4.247,1.374a12.074,12.074,0,0,0-.048-4.176,10.434,10.434,0,0,0-1.3-3.444,10.8,10.8,0,0,0-2.32-2.712,14.163,14.163,0,0,0-3.069-1.993l1.243-3.795-4.295-1.4-1.231,3.8a13.324,13.324,0,0,0-3.914-.1,11.847,11.847,0,0,0-3.557.993,9.518,9.518,0,0,0-2.879,2.064,6.776,6.776,0,0,0-.541.625,8.315,8.315,0,0,0-1.279,2.469,8.428,8.428,0,0,0-.315,1.255,7.124,7.124,0,0,0-.054,2.528,9.374,9.374,0,0,0,1.2,3.325,14.444,14.444,0,0,0,.958,1.445c.178.226.369.458.559.7s.422.482.642.714c.042.047.071.077.113.125q1.374,1.41,2.885,2.784l-3.236,9.952-.137.428v.012l-.137.416-.666,2.04a7.385,7.385,0,0,1-2.457-3.17c-.077-.172-.143-.351-.2-.529h-.012c-.018-.042-.024-.089-.042-.125-.042-.125-.071-.262-.107-.4a10.488,10.488,0,0,1-.363-2.124,12.387,12.387,0,0,1,.107-2.766l-4.509-1.475a16.457,16.457,0,0,0-.155,4.14.43.43,0,0,0,.006.125c0,.107.018.208.024.3-.006.012.006.018,0,.03a.624.624,0,0,1,.018.143,2.03,2.03,0,0,0,.054.333.624.624,0,0,0,.018.143,14.385,14.385,0,0,0,.981,3.521c.119.292.256.583.4.857a2.221,2.221,0,0,0,.25.458,4.148,4.148,0,0,0,.25.458,12.148,12.148,0,0,0,1.243,1.755,11.826,11.826,0,0,0,3.1,2.617l-1.963,6.026,4.283,1.392,1.933-5.918a17.037,17.037,0,0,0,4.033.339,11.662,11.662,0,0,0,3.938-.821,9.754,9.754,0,0,0,3.343-2.219,9.445,9.445,0,0,0,2.26-3.884ZM677.914,941.2a4.452,4.452,0,0,1,2.219-2.635,6.382,6.382,0,0,1,4.075-.529l-3.307,10.13a20.281,20.281,0,0,1-1.57-1.689,8.793,8.793,0,0,1-1.112-1.707,5.594,5.594,0,0,1-.511-1.749A4.2,4.2,0,0,1,677.914,941.2Zm8.2,24.186a5.579,5.579,0,0,1-1.737,1.326,7.176,7.176,0,0,1-2.278.684,8.911,8.911,0,0,1-2.677-.1l3.712-11.415a24.642,24.642,0,0,1,1.844,1.856,11.182,11.182,0,0,1,1.463,1.921,6.321,6.321,0,0,1,.815,1.921,3.531,3.531,0,0,1-.077,1.909,5.512,5.512,0,0,1-1.065,1.9Z" transform="translate(-655.47 -923.7)"/>
        <path id="Path_11088" data-name="Path 11088" d="M665.1,981.587a21.3,21.3,0,0,1-4.092-1.475c-6.353-3.046-10.885-8.994-12.759-16.744a37.687,37.687,0,0,1,19.689-41.323c7.132-3.373,14.555-3.545,20.9-.506,13.08,6.275,17.446,24.459,9.731,40.543a36.812,36.812,0,0,1-16.732,17.4,24.563,24.563,0,0,1-16.744,2.106ZM651.717,939.6a35.6,35.6,0,0,0-2.837,23.615c1.826,7.554,6.234,13.348,12.408,16.31,6.145,2.95,13.348,2.724,20.272-.625a36.161,36.161,0,0,0,16.429-17.1c7.56-15.757,3.331-33.554-9.428-39.675-6.168-2.962-13.39-2.778-20.343.505a35.546,35.546,0,0,0-16.5,16.964Z" transform="translate(-647.337 -919.381)"/>
      </g>
    </g>
    <path id="Path_11089" data-name="Path 11089" d="M1169.608,648.062v-.024a38.262,38.262,0,0,0-3.968-16.578,27.488,27.488,0,0,0-2.8-4.485c-.351-.446-.7-.886-1.077-1.332l-.024-.024c-.047-.071-.1-.1-.143-.167-10.9-12.961-15.341-16.721-24.049-23.817-4.533-3.688-9.047-.244-11.058,5.246-1.445,3.95-4.729,7.293-3.676,13.277a27.591,27.591,0,0,0,9.267,15.947c1.749,1.517,3.736,3.3,5.651,5.116.256.238.488.446.72.678,4.812,4.622,5.324,15.691,5.324,17.512,0,2.171-2.73,5.169-5.788,6.246-7.09,2.516-20.361,2.623-26.458,2.522-2.891-.286-5.573-.012-8.476-.065a7.887,7.887,0,0,0-4.86,1.481,5.66,5.66,0,0,0-1.719,2.611,10.663,10.663,0,0,0,.107,7.4,2.881,2.881,0,0,0,.791,1.243,1.211,1.211,0,0,0,1.386.155,1.843,1.843,0,0,0,.571-1.535c.03-.69-.654-3.843.292-5.71-.839,2.118-.048,5.716.167,6.733a1.667,1.667,0,0,0,.458.969,1.2,1.2,0,0,0,1.707-.541c.315-.607-1.023-3.985-.018-6.412-.976,2.54.393,5.657.529,6.287.077.351.505,1.1,1.059,1.017a1.4,1.4,0,0,0,1.285-1.112c.143-.66-1.309-4.211-.755-5.383-.529,1.648,1.041,5.621,1.993,5.758a1.438,1.438,0,0,0,1.392-.863,4.244,4.244,0,0,0,.309-1.707c1.779,1.237,4.42.529,5.764-1.172.69.167,1.558.369,2.587.589,8.078,1.7,23.894,2.766,36.338-.107,11.23-2.587,17.47-16.09,17.161-29.747Z" transform="translate(-305.04 -156.038)" fill="#fff" stroke="#000" stroke-width="2"/>
    <path id="Path_11090" data-name="Path 11090" d="M1156.148,644.759c-1.981-1.9-14.454-14.121-16.37-26.279-.869-5.532.845-18.874,7.727-20.474,11.022-2.552,25.756,13.455,35.922,25.536-4.663,10.522-14.895,17.88-27.285,21.217Z" transform="translate(-322.749 -155.078)" fill="#f40"/>
    <g id="Group_5481" data-name="Group 5481" transform="translate(664.843 484.672)">
      <rect id="Rectangle_4898" data-name="Rectangle 4898" width="94.631" height="6.466" rx="3.233" transform="translate(12.89 48.187)"/>
      <path id="Path_11091" data-name="Path 11091" d="M983.918,718.282H896.585L884.07,670.03l1.9-1.66h84.68Z" transform="translate(-884.07 -668.37)"/>
      <path id="Path_11092" data-name="Path 11092" d="M981.33,719.412H896.889L884.07,671.16h84.436Z" transform="translate(-884.07 -669.5)" fill="#fff" stroke="#000" stroke-width="2"/>
      <ellipse id="Ellipse_192" data-name="Ellipse 192" cx="4.307" cy="5.692" rx="4.307" ry="5.692" transform="matrix(0.651, -0.759, 0.759, 0.651, 39.206, 25.392)" fill="#f40"/>
      <rect id="Rectangle_4899" data-name="Rectangle 4899" width="40.645" height="5.847" rx="2.924" transform="translate(99.396 48.187)" fill="#fff" stroke="#000" stroke-width="2"/>
      <rect id="Rectangle_4900" data-name="Rectangle 4900" width="14.383" height="2.659" rx="1.329" transform="translate(121.928 49.781)"/>
      <rect id="Rectangle_4901" data-name="Rectangle 4901" width="8.06" height="2.659" rx="1.329" transform="translate(109.288 49.781)"/>
    </g>
    <g id="Group_5490" data-name="Group 5490" transform="translate(692.555 312.868)">
      <g id="Group_5482" data-name="Group 5482">
        <path id="Path_11093" data-name="Path 11093" d="M1009.117,482.9c-1.41-3.753-5.877-17.167-1.862-27.184l.155-.387,6.989-.214a9.09,9.09,0,0,0,9.13-8.982l.381-56.1a9.048,9.048,0,0,0-8.976-9.119l-73.7-.339a9.083,9.083,0,0,0-9.119,8.976l-.381,56.1a9.064,9.064,0,0,0,8.982,9.119l46.634.387.024.595c.381,8.69,8.875,25.173,21.753,27.136Z" transform="translate(-931.093 -379.961)" fill="#fff"/>
        <path id="Path_11094" data-name="Path 11094" d="M940.712,379.546l.065,1.255,73.711.339a8.429,8.429,0,0,1,8.352,8.482l-.381,56.1a8.443,8.443,0,0,1-8.417,8.357l-6.668.208-.833.012-.309.773c-3.777,9.434-.214,21.759,1.487,26.595-11.968-2.623-19.8-18.083-20.165-26.345l-.047-1.2h-1.2l-46.039-.393a8.437,8.437,0,0,1-8.357-8.482l.381-56.1a8.443,8.443,0,0,1,8.417-8.357V379.54h0Zm0,0a9.676,9.676,0,0,0-9.672,9.6l-.381,56.1a9.677,9.677,0,0,0,9.6,9.749l46.04.381c.369,8.565,9.113,26.571,23.347,27.856,0,0-6.823-16.3-2.254-27.7l6.573-.208h.077a9.677,9.677,0,0,0,9.672-9.606l.381-56.092a9.675,9.675,0,0,0-9.607-9.749l-73.7-.339h-.077Z" transform="translate(-930.66 -379.54)"/>
      </g>
      <g id="Group_5484" data-name="Group 5484" transform="translate(26.533 18.045)">
        <path id="Path_11095" data-name="Path 11095" d="M985.834,445.421c-5.074-4.717-6.3-13.491-2.492-21.414,3.777-7.87,11.308-12.4,18.124-11.474l.262-.553,3.5,1.677c7.6,3.646,10.118,14.187,5.621,23.549s-14.294,14-21.89,10.35l-3.414-1.535.286-.607Z" transform="translate(-977.635 -410.729)"/>
        <path id="Path_11096" data-name="Path 11096" d="M977.469,421.472c-4.491,9.363-1.885,20.052,5.71,23.7s17.316-1.136,21.807-10.5,1.975-19.9-5.627-23.549S981.96,412.109,977.469,421.472Z" transform="translate(-975.266 -409.877)" fill="#f40"/>
        <g id="Group_5483" data-name="Group 5483" transform="translate(2.684 3.089)">
          <path id="Path_11097" data-name="Path 11097" d="M981.857,424.884c-3.688,7.691-1.552,16.471,4.687,19.463s14.222-.928,17.91-8.619,1.618-16.352-4.622-19.344-14.294.809-17.982,8.5Z" transform="translate(-979.886 -415.188)" fill="#f40"/>
          <path id="Path_11098" data-name="Path 11098" d="M1001.145,437.008a4.082,4.082,0,0,0,.214-1.32,3.93,3.93,0,0,0-.208-1.207,5.1,5.1,0,0,0-.553-1.112,9.219,9.219,0,0,0-.809-1.023,11.387,11.387,0,0,0-.97-.964c-.345-.315-.69-.625-1.047-.94l1.856-5.7a3.309,3.309,0,0,1,1.38,1.309,4.23,4.23,0,0,1,.464,1.975l2.046.666a5.849,5.849,0,0,0-.024-2.016,4.965,4.965,0,0,0-.63-1.66,5.244,5.244,0,0,0-1.118-1.309,6.649,6.649,0,0,0-1.481-.958l.6-1.832-2.07-.672-.595,1.832a6.484,6.484,0,0,0-1.886-.048,5.584,5.584,0,0,0-1.713.482,4.55,4.55,0,0,0-1.386.993c-.089.1-.178.2-.262.3a3.972,3.972,0,0,0-.619,1.19,4.755,4.755,0,0,0-.155.607,3.375,3.375,0,0,0-.024,1.219,4.44,4.44,0,0,0,.583,1.6,7.038,7.038,0,0,0,.464.7c.083.107.178.22.268.333s.2.232.309.345c.018.024.036.036.054.059.44.452.91.9,1.392,1.344l-1.558,4.8-.065.208h0l-.065.208-.321.981a3.406,3.406,0,0,1-.791-.809,3.509,3.509,0,0,1-.392-.72,1.872,1.872,0,0,1-.1-.256h-.006s-.012-.042-.018-.06c-.018-.059-.036-.125-.054-.19a5.1,5.1,0,0,1-.178-1.023,5.9,5.9,0,0,1,.054-1.332l-2.177-.708a7.8,7.8,0,0,0-.071,2v.06c0,.054.012.1.012.143v.012c0,.024.012.048.006.071a.773.773,0,0,0,.03.161.294.294,0,0,0,.006.071,7.061,7.061,0,0,0,.47,1.7c.06.143.125.28.19.41a1.1,1.1,0,0,0,.119.22,1.93,1.93,0,0,0,.119.22,5.937,5.937,0,0,0,2.1,2.106l-.946,2.909,2.064.672.934-2.855a8.088,8.088,0,0,0,1.945.161,5.774,5.774,0,0,0,1.9-.393,4.72,4.72,0,0,0,1.612-1.071,4.578,4.578,0,0,0,1.089-1.874Zm-6.626-11.391a2.126,2.126,0,0,1,1.071-1.267,3.074,3.074,0,0,1,1.963-.256l-1.594,4.884a10.642,10.642,0,0,1-.761-.815,4.028,4.028,0,0,1-.535-.821,2.579,2.579,0,0,1-.244-.845,1.967,1.967,0,0,1,.1-.88Zm3.956,11.665a2.7,2.7,0,0,1-.839.636,3.346,3.346,0,0,1-1.1.327,4.335,4.335,0,0,1-1.291-.048l1.79-5.5a11.4,11.4,0,0,1,.886.892,5.261,5.261,0,0,1,.708.928,3.016,3.016,0,0,1,.393.928,1.8,1.8,0,0,1-.036.922A2.719,2.719,0,0,1,998.474,437.282Z" transform="translate(-983.697 -417.164)"/>
          <path id="Path_11099" data-name="Path 11099" d="M988.344,445.079a9.933,9.933,0,0,1-1.975-.714,11.654,11.654,0,0,1-6.15-8.078,18.189,18.189,0,0,1,9.5-19.933,11.564,11.564,0,0,1,10.082-.244c6.305,3.028,8.411,11.8,4.693,19.552a17.683,17.683,0,0,1-8.072,8.387,11.87,11.87,0,0,1-8.078,1.017Zm-6.454-20.248a17.157,17.157,0,0,0-1.368,11.391,11.349,11.349,0,0,0,5.984,7.864,11.1,11.1,0,0,0,9.779-.3,17.423,17.423,0,0,0,7.923-8.244c3.646-7.6,1.606-16.179-4.544-19.136a11.262,11.262,0,0,0-9.815.244,17.145,17.145,0,0,0-7.959,8.185Z" transform="translate(-979.777 -415.069)"/>
        </g>
      </g>
      <g id="Group_5489" data-name="Group 5489" transform="translate(11.897 5.502)">
        <g id="Group_5485" data-name="Group 5485" transform="translate(0 32.204)">
          <line id="Line_126" data-name="Line 126" x2="8.357" fill="none" stroke="#f40" stroke-linecap="round" stroke-width="7"/>
          <line id="Line_127" data-name="Line 127" x2="8.357" transform="translate(56.051)" fill="none" stroke="#f40" stroke-linecap="round" stroke-width="7"/>
        </g>
        <g id="Group_5486" data-name="Group 5486" transform="translate(32.204)">
          <line id="Line_128" data-name="Line 128" y1="8.357" transform="translate(0 56.051)" fill="none" stroke="#f40" stroke-linecap="round" stroke-width="7"/>
          <line id="Line_129" data-name="Line 129" y1="8.357" fill="none" stroke="#f40" stroke-linecap="round" stroke-width="7"/>
        </g>
        <g id="Group_5487" data-name="Group 5487" transform="translate(9.434 9.428)">
          <line id="Line_130" data-name="Line 130" y1="5.907" x2="5.907" transform="translate(0 39.639)" fill="none" stroke="#f40" stroke-linecap="round" stroke-width="7"/>
          <line id="Line_131" data-name="Line 131" y1="5.913" x2="5.907" transform="translate(39.633)" fill="none" stroke="#f40" stroke-linecap="round" stroke-width="7"/>
        </g>
        <g id="Group_5488" data-name="Group 5488" transform="translate(9.434 9.428)">
          <line id="Line_132" data-name="Line 132" x1="5.907" y1="5.907" transform="translate(39.633 39.639)" fill="none" stroke="#f40" stroke-linecap="round" stroke-width="7"/>
          <line id="Line_133" data-name="Line 133" x1="5.907" y1="5.913" fill="none" stroke="#f40" stroke-linecap="round" stroke-width="7"/>
        </g>
      </g>
    </g>
    <path id="Path_11100" data-name="Path 11100" d="M845.33,294.85a22.674,22.674,0,0,0-14.71-16.608l10.32-29.9a54.471,54.471,0,0,1,35.327,39.919Z" transform="translate(-197.571 -13.513)"/>
    <path id="Path_11101" data-name="Path 11101" d="M763.743,287.746,716.46,274.106A63.447,63.447,0,0,1,738.784,241.5a63.068,63.068,0,0,1,58.769-9.47L781.5,278.544a13.839,13.839,0,0,0-17.756,9.2Z" transform="translate(-151.316 -5.511)" fill="#f40"/>
    <path id="Path_11102" data-name="Path 11102" d="M781.307,378.466a54.247,54.247,0,0,1-52.089-69.256l30.4,8.768a22.578,22.578,0,1,0,44.267,6.275,23,23,0,0,0-.494-4.747l30.943-6.585a54.24,54.24,0,0,1-53.023,65.538Z" transform="translate(-155.627 -38.176)" fill="#aab6c2"/>
  </g>
</svg>
