<svg id="Group_564" data-name="Group 564" xmlns="http://www.w3.org/2000/svg" xmlns:xlink="http://www.w3.org/1999/xlink" width="61.534" height="40.891" viewBox="0 0 61.534 40.891">
  <defs>
    <clipPath id="clip-path">
      <rect id="Rectangle_841" data-name="Rectangle 841" width="61.534" height="40.891" fill="#ff7a4a"/>
    </clipPath>
  </defs>
  <g id="Group_563" data-name="Group 563" transform="translate(0 0)" clip-path="url(#clip-path)">
    <path id="Path_1749" data-name="Path 1749" d="M6.655,26.932c0-10.011,4.991-20.248,10.942-20.248,3.222,0,5.915,1.861,10.04,7.766-3.917,6.007-6.289,9.775-6.289,9.775-5.217,8.178-7.022,10.011-9.927,10.011-2.989,0-4.766-2.625-4.766-7.3m34.383-3.737L37.43,17.178q-1.465-2.382-2.815-4.385c3.251-5.019,5.934-7.52,9.124-7.52,6.627,0,11.929,9.758,11.929,21.743,0,4.569-1.5,7.219-4.6,7.219-2.972,0-4.391-1.963-10.034-11.041M31.6,8.628C26.7,2.38,22.592,0,17.682,0,7.671,0,0,13.029,0,26.819c0,8.63,4.175,14.072,11.167,14.072,5.033,0,8.653-2.373,15.088-13.621,0,0,2.682-4.737,4.528-8q.97,1.566,2.043,3.375l3.018,5.076C41.721,37.558,45,40.891,50.93,40.891c6.812,0,10.6-5.517,10.6-14.326C61.534,12.126,53.691,0,44.162,0c-5.045,0-8.99,3.8-12.56,8.628" transform="translate(0 0)" fill="#ff7a4a"/>
  </g>
</svg>
