<svg id="Group_546" data-name="Group 546" xmlns="http://www.w3.org/2000/svg" xmlns:xlink="http://www.w3.org/1999/xlink" width="63.098" height="62.83" viewBox="0 0 63.098 62.83">
  <defs>
    <clipPath id="clip-path">
      <rect id="Rectangle_834" data-name="Rectangle 834" width="63.098" height="62.83" fill="#ff875c"/>
    </clipPath>
  </defs>
  <g id="Group_543" data-name="Group 543" clip-path="url(#clip-path)">
    <path id="Path_1743" data-name="Path 1743" d="M40.319,82.184l8.826-49.645c8.414,0,11.066.922,11.451,4.688,0,0,5.647-2.1,8.492-6.378a62.365,62.365,0,0,0-22.272-5.38L40.3,33.4h.015L33.8,25.467a62.365,62.365,0,0,0-22.272,5.381c2.846,4.274,8.492,6.378,8.492,6.378.385-3.766,3.037-4.688,11.394-4.694Z" transform="translate(-8.765 -19.354)" fill="#ff875c"/>
    <path id="Path_1744" data-name="Path 1744" d="M31.549,3.823A72.727,72.727,0,0,1,61.331,9.8,24.186,24.186,0,0,0,63.1,6.149,86.394,86.394,0,0,0,31.549,0,86.379,86.379,0,0,0,0,6.149,30.467,30.467,0,0,0,1.767,9.8a72.708,72.708,0,0,1,29.78-5.975Z" transform="translate(0 -0.001)" fill="#ff875c"/>
  </g>
</svg>
