<svg xmlns="http://www.w3.org/2000/svg" xmlns:xlink="http://www.w3.org/1999/xlink" width="864" height="802.002" viewBox="0 0 864 802.002">
  <defs>
    <clipPath id="clip-path">
      <path id="Path_9200" data-name="Path 9200" d="M324.463,32.749C416.9,50.958,464.093,155.657,612.95,248.805S729.045,705.721,493.945,646.389C269.652,589.781,259.278,594.272,112.4,599.474-71.479,606.008,31.95-24.88,324.463,32.749Z" transform="translate(-20.622 -29.028)" fill="none"/>
    </clipPath>
    <clipPath id="clip-path-2">
      <rect id="Rectangle_2842" data-name="Rectangle 2842" width="438" height="428" transform="translate(-82.365 -0.117)" fill="#fff" stroke="#707070" stroke-width="1"/>
    </clipPath>
    <clipPath id="clip-path-3">
      <rect id="Rectangle_2835" data-name="Rectangle 2835" width="437.564" height="428.119" fill="none" stroke="rgba(0,0,0,0)" stroke-width="2"/>
    </clipPath>
    <clipPath id="clip-path-10">
      <rect id="Rectangle_4309" data-name="Rectangle 4309" width="512" height="501" transform="translate(-82.063 0.383)" fill="#fff" stroke="#707070" stroke-width="1"/>
    </clipPath>
    <clipPath id="clip-path-11">
      <rect id="Rectangle_4302" data-name="Rectangle 4302" width="411.803" height="402.916" fill="none" stroke="rgba(0,0,0,0)" stroke-width="2"/>
    </clipPath>
    <clipPath id="clip-path-18">
      <rect id="Rectangle_808" data-name="Rectangle 808" width="363.513" height="362.838" fill="#040506"/>
    </clipPath>
    <clipPath id="clip-path-20">
      <rect id="Rectangle_808-3" data-name="Rectangle 808" width="363.513" height="362.838" fill="#e13113"/>
    </clipPath>
  </defs>
  <g id="Group_4432" data-name="Group 4432" transform="translate(-949 -1218.999)">
    <g id="Group_4446" data-name="Group 4446" transform="translate(1068.204 1281.069)" clip-path="url(#clip-path)">
      <g id="Group_4442" data-name="Group 4442" transform="translate(-10.906 53.671)">
        <g id="Group_4436" data-name="Group 4436" transform="translate(110.707)">
          <path id="Path_9193" data-name="Path 9193" d="M101.871,185.122v-24.03h39.823V46.36h10.962V161.092h42.92v24.03h22.977V666.255H52.85V185.122Z" transform="translate(-52.85 -46.36)" fill="#c6d0db"/>
          <rect id="Rectangle_4310" data-name="Rectangle 4310" width="22.977" height="432.793" transform="translate(0 138.762)" fill="#aab6c2"/>
        </g>
        <g id="Group_4437" data-name="Group 4437" transform="translate(193.543 253.371)">
          <rect id="Rectangle_4311" data-name="Rectangle 4311" width="165.704" height="366.524" fill="#c6d0db"/>
          <rect id="Rectangle_4312" data-name="Rectangle 4312" width="22.977" height="366.524" fill="#aab6c2"/>
          <rect id="Rectangle_4313" data-name="Rectangle 4313" width="23.783" height="9.878" transform="translate(118.82 15.607)" fill="#aab6c2"/>
          <rect id="Rectangle_4314" data-name="Rectangle 4314" width="23.783" height="9.878" transform="translate(78.78 15.607)" fill="#aab6c2"/>
          <rect id="Rectangle_4315" data-name="Rectangle 4315" width="23.783" height="9.878" transform="translate(118.82 51.529)" fill="#aab6c2"/>
          <rect id="Rectangle_4316" data-name="Rectangle 4316" width="23.783" height="9.878" transform="translate(78.78 51.529)" fill="#aab6c2"/>
          <rect id="Rectangle_4317" data-name="Rectangle 4317" width="23.783" height="9.878" transform="translate(38.74 51.529)" fill="#aab6c2"/>
          <rect id="Rectangle_4318" data-name="Rectangle 4318" width="23.783" height="9.878" transform="translate(118.82 87.481)" fill="#aab6c2"/>
          <rect id="Rectangle_4319" data-name="Rectangle 4319" width="23.783" height="9.878" transform="translate(38.74 87.481)" fill="#aab6c2"/>
          <rect id="Rectangle_4320" data-name="Rectangle 4320" width="23.783" height="9.878" transform="translate(78.78 105.442)" fill="#aab6c2"/>
          <rect id="Rectangle_4321" data-name="Rectangle 4321" width="23.783" height="9.878" transform="translate(118.82 123.403)" fill="#aab6c2"/>
          <rect id="Rectangle_4322" data-name="Rectangle 4322" width="23.783" height="9.878" transform="translate(78.78 141.364)" fill="#aab6c2"/>
          <rect id="Rectangle_4323" data-name="Rectangle 4323" width="23.783" height="9.878" transform="translate(118.82 159.325)" fill="#aab6c2"/>
          <rect id="Rectangle_4324" data-name="Rectangle 4324" width="23.783" height="9.878" transform="translate(38.74 159.325)" fill="#aab6c2"/>
          <rect id="Rectangle_4325" data-name="Rectangle 4325" width="23.783" height="9.878" transform="translate(118.82 192.521)" fill="#aab6c2"/>
          <rect id="Rectangle_4326" data-name="Rectangle 4326" width="23.783" height="9.878" transform="translate(78.78 192.521)" fill="#aab6c2"/>
          <rect id="Rectangle_4327" data-name="Rectangle 4327" width="23.783" height="9.878" transform="translate(118.82 228.474)" fill="#aab6c2"/>
          <rect id="Rectangle_4328" data-name="Rectangle 4328" width="23.783" height="9.878" transform="translate(78.78 228.474)" fill="#aab6c2"/>
          <rect id="Rectangle_4329" data-name="Rectangle 4329" width="23.783" height="9.878" transform="translate(38.74 228.474)" fill="#aab6c2"/>
          <rect id="Rectangle_4330" data-name="Rectangle 4330" width="23.783" height="9.878" transform="translate(118.82 264.395)" fill="#aab6c2"/>
          <rect id="Rectangle_4331" data-name="Rectangle 4331" width="23.783" height="9.878" transform="translate(38.74 264.395)" fill="#aab6c2"/>
          <rect id="Rectangle_4332" data-name="Rectangle 4332" width="23.783" height="9.878" transform="translate(78.78 282.356)" fill="#aab6c2"/>
          <rect id="Rectangle_4333" data-name="Rectangle 4333" width="23.783" height="9.878" transform="translate(38.74 282.356)" fill="#aab6c2"/>
          <rect id="Rectangle_4334" data-name="Rectangle 4334" width="23.783" height="9.878" transform="translate(118.82 300.317)" fill="#aab6c2"/>
          <rect id="Rectangle_4335" data-name="Rectangle 4335" width="23.783" height="9.878" transform="translate(78.78 318.277)" fill="#aab6c2"/>
          <rect id="Rectangle_4336" data-name="Rectangle 4336" width="23.783" height="9.878" transform="translate(118.82 336.269)" fill="#aab6c2"/>
          <rect id="Rectangle_4337" data-name="Rectangle 4337" width="23.783" height="9.878" transform="translate(38.74 336.269)" fill="#aab6c2"/>
        </g>
        <g id="Group_4438" data-name="Group 4438" transform="translate(590.012 253.371)">
          <rect id="Rectangle_4338" data-name="Rectangle 4338" width="165.704" height="366.524" fill="#c6d0db"/>
          <rect id="Rectangle_4339" data-name="Rectangle 4339" width="22.977" height="366.524" fill="#aab6c2"/>
        </g>
        <g id="Group_4439" data-name="Group 4439" transform="translate(354.632 79.027)">
          <rect id="Rectangle_4340" data-name="Rectangle 4340" width="222.311" height="540.867" fill="#c6d0db"/>
          <rect id="Rectangle_4341" data-name="Rectangle 4341" width="22.977" height="540.867" fill="#aab6c2"/>
          <rect id="Rectangle_4342" data-name="Rectangle 4342" width="34.714" height="14.4" transform="translate(164.186 25.919)" fill="#aab6c2"/>
          <rect id="Rectangle_4343" data-name="Rectangle 4343" width="34.714" height="14.4" transform="translate(105.721 25.919)" fill="#aab6c2"/>
          <rect id="Rectangle_4344" data-name="Rectangle 4344" width="34.714" height="14.4" transform="translate(164.186 78.377)" fill="#aab6c2"/>
          <rect id="Rectangle_4345" data-name="Rectangle 4345" width="34.714" height="14.4" transform="translate(105.721 78.377)" fill="#aab6c2"/>
          <rect id="Rectangle_4346" data-name="Rectangle 4346" width="34.714" height="14.4" transform="translate(47.255 78.377)" fill="#aab6c2"/>
          <rect id="Rectangle_4347" data-name="Rectangle 4347" width="34.714" height="14.4" transform="translate(164.186 130.835)" fill="#aab6c2"/>
          <rect id="Rectangle_4348" data-name="Rectangle 4348" width="34.714" height="14.4" transform="translate(47.255 130.835)" fill="#aab6c2"/>
          <rect id="Rectangle_4349" data-name="Rectangle 4349" width="34.714" height="14.4" transform="translate(105.721 157.064)" fill="#aab6c2"/>
          <rect id="Rectangle_4350" data-name="Rectangle 4350" width="34.714" height="14.4" transform="translate(164.186 183.324)" fill="#aab6c2"/>
          <rect id="Rectangle_4351" data-name="Rectangle 4351" width="34.714" height="14.4" transform="translate(105.721 209.553)" fill="#aab6c2"/>
          <rect id="Rectangle_4352" data-name="Rectangle 4352" width="34.714" height="14.4" transform="translate(164.186 235.782)" fill="#aab6c2"/>
          <rect id="Rectangle_4353" data-name="Rectangle 4353" width="34.714" height="14.4" transform="translate(47.255 235.782)" fill="#aab6c2"/>
          <rect id="Rectangle_4354" data-name="Rectangle 4354" width="34.714" height="14.4" transform="translate(164.186 284.276)" fill="#aab6c2"/>
          <rect id="Rectangle_4355" data-name="Rectangle 4355" width="34.714" height="14.4" transform="translate(105.721 284.276)" fill="#aab6c2"/>
          <rect id="Rectangle_4356" data-name="Rectangle 4356" width="34.714" height="14.4" transform="translate(164.186 336.734)" fill="#aab6c2"/>
          <rect id="Rectangle_4357" data-name="Rectangle 4357" width="34.714" height="14.4" transform="translate(105.721 336.734)" fill="#aab6c2"/>
          <rect id="Rectangle_4358" data-name="Rectangle 4358" width="34.714" height="14.4" transform="translate(47.255 336.734)" fill="#aab6c2"/>
          <rect id="Rectangle_4359" data-name="Rectangle 4359" width="34.714" height="14.4" transform="translate(164.186 389.192)" fill="#aab6c2"/>
          <rect id="Rectangle_4360" data-name="Rectangle 4360" width="34.714" height="14.4" transform="translate(47.255 389.192)" fill="#aab6c2"/>
          <rect id="Rectangle_4361" data-name="Rectangle 4361" width="34.714" height="14.4" transform="translate(105.721 415.451)" fill="#aab6c2"/>
          <rect id="Rectangle_4362" data-name="Rectangle 4362" width="34.714" height="14.4" transform="translate(47.255 415.451)" fill="#aab6c2"/>
          <rect id="Rectangle_4363" data-name="Rectangle 4363" width="34.714" height="14.4" transform="translate(164.186 441.68)" fill="#aab6c2"/>
          <rect id="Rectangle_4364" data-name="Rectangle 4364" width="34.714" height="14.4" transform="translate(105.721 467.909)" fill="#aab6c2"/>
          <rect id="Rectangle_4365" data-name="Rectangle 4365" width="34.714" height="14.4" transform="translate(164.186 494.138)" fill="#aab6c2"/>
          <rect id="Rectangle_4366" data-name="Rectangle 4366" width="34.714" height="14.4" transform="translate(47.255 494.138)" fill="#aab6c2"/>
        </g>
        <g id="Group_4440" data-name="Group 4440" transform="translate(704.155 119.346)">
          <rect id="Rectangle_4367" data-name="Rectangle 4367" width="217.883" height="500.548" fill="#c6d0db"/>
          <rect id="Rectangle_4368" data-name="Rectangle 4368" width="22.513" height="500.548" fill="#aab6c2"/>
          <rect id="Rectangle_4369" data-name="Rectangle 4369" width="34.033" height="13.347" transform="translate(103.615 23.968)" fill="#aab6c2"/>
          <rect id="Rectangle_4370" data-name="Rectangle 4370" width="34.033" height="13.347" transform="translate(103.615 72.524)" fill="#aab6c2"/>
          <rect id="Rectangle_4371" data-name="Rectangle 4371" width="34.033" height="13.347" transform="translate(46.326 72.524)" fill="#aab6c2"/>
          <rect id="Rectangle_4372" data-name="Rectangle 4372" width="34.033" height="13.347" transform="translate(46.326 121.08)" fill="#aab6c2"/>
          <rect id="Rectangle_4373" data-name="Rectangle 4373" width="34.033" height="13.347" transform="translate(103.615 145.358)" fill="#aab6c2"/>
          <rect id="Rectangle_4374" data-name="Rectangle 4374" width="34.033" height="13.347" transform="translate(103.615 193.915)" fill="#aab6c2"/>
          <rect id="Rectangle_4375" data-name="Rectangle 4375" width="34.033" height="13.347" transform="translate(46.326 218.193)" fill="#aab6c2"/>
          <rect id="Rectangle_4376" data-name="Rectangle 4376" width="34.033" height="13.347" transform="translate(103.615 263.064)" fill="#aab6c2"/>
          <rect id="Rectangle_4377" data-name="Rectangle 4377" width="34.033" height="13.347" transform="translate(103.615 311.62)" fill="#aab6c2"/>
          <rect id="Rectangle_4378" data-name="Rectangle 4378" width="34.033" height="13.347" transform="translate(46.326 311.62)" fill="#aab6c2"/>
          <rect id="Rectangle_4379" data-name="Rectangle 4379" width="34.033" height="13.347" transform="translate(46.326 360.176)" fill="#aab6c2"/>
          <rect id="Rectangle_4380" data-name="Rectangle 4380" width="34.033" height="13.347" transform="translate(103.615 384.485)" fill="#aab6c2"/>
          <rect id="Rectangle_4381" data-name="Rectangle 4381" width="34.033" height="13.347" transform="translate(46.326 384.485)" fill="#aab6c2"/>
          <rect id="Rectangle_4382" data-name="Rectangle 4382" width="34.033" height="13.347" transform="translate(103.615 433.041)" fill="#aab6c2"/>
          <rect id="Rectangle_4383" data-name="Rectangle 4383" width="34.033" height="13.347" transform="translate(46.326 457.319)" fill="#aab6c2"/>
        </g>
        <g id="Group_4441" data-name="Group 4441" transform="translate(0 278.485)">
          <rect id="Rectangle_4384" data-name="Rectangle 4384" width="140.342" height="341.41" fill="#c6d0db"/>
          <rect id="Rectangle_4385" data-name="Rectangle 4385" width="14.492" height="341.41" fill="#aab6c2"/>
          <rect id="Rectangle_4386" data-name="Rectangle 4386" width="21.925" height="9.104" transform="translate(103.615 16.351)" fill="#aab6c2"/>
          <rect id="Rectangle_4387" data-name="Rectangle 4387" width="21.925" height="9.104" transform="translate(66.734 16.351)" fill="#aab6c2"/>
          <rect id="Rectangle_4388" data-name="Rectangle 4388" width="21.925" height="9.104" transform="translate(103.615 49.454)" fill="#aab6c2"/>
          <rect id="Rectangle_4389" data-name="Rectangle 4389" width="21.925" height="9.104" transform="translate(66.734 49.454)" fill="#aab6c2"/>
          <rect id="Rectangle_4390" data-name="Rectangle 4390" width="21.925" height="9.104" transform="translate(29.821 49.454)" fill="#aab6c2"/>
          <rect id="Rectangle_4391" data-name="Rectangle 4391" width="21.925" height="9.104" transform="translate(103.615 82.589)" fill="#aab6c2"/>
          <rect id="Rectangle_4392" data-name="Rectangle 4392" width="21.925" height="9.104" transform="translate(29.821 82.589)" fill="#aab6c2"/>
          <rect id="Rectangle_4393" data-name="Rectangle 4393" width="21.925" height="9.104" transform="translate(66.734 99.156)" fill="#aab6c2"/>
          <rect id="Rectangle_4394" data-name="Rectangle 4394" width="21.925" height="9.104" transform="translate(103.615 115.692)" fill="#aab6c2"/>
          <rect id="Rectangle_4395" data-name="Rectangle 4395" width="21.925" height="9.104" transform="translate(66.734 132.259)" fill="#aab6c2"/>
          <rect id="Rectangle_4396" data-name="Rectangle 4396" width="21.925" height="9.104" transform="translate(103.615 148.827)" fill="#aab6c2"/>
          <rect id="Rectangle_4397" data-name="Rectangle 4397" width="21.925" height="9.104" transform="translate(29.821 148.827)" fill="#aab6c2"/>
          <rect id="Rectangle_4398" data-name="Rectangle 4398" width="21.925" height="9.104" transform="translate(103.615 179.422)" fill="#aab6c2"/>
          <rect id="Rectangle_4399" data-name="Rectangle 4399" width="21.925" height="9.104" transform="translate(66.734 179.422)" fill="#aab6c2"/>
          <rect id="Rectangle_4400" data-name="Rectangle 4400" width="21.925" height="9.104" transform="translate(103.615 212.557)" fill="#aab6c2"/>
          <rect id="Rectangle_4401" data-name="Rectangle 4401" width="21.925" height="9.104" transform="translate(66.734 212.557)" fill="#aab6c2"/>
          <rect id="Rectangle_4402" data-name="Rectangle 4402" width="21.925" height="9.104" transform="translate(29.821 212.557)" fill="#aab6c2"/>
          <rect id="Rectangle_4403" data-name="Rectangle 4403" width="21.925" height="9.104" transform="translate(103.615 245.66)" fill="#aab6c2"/>
          <rect id="Rectangle_4404" data-name="Rectangle 4404" width="21.925" height="9.104" transform="translate(29.821 245.66)" fill="#aab6c2"/>
          <rect id="Rectangle_4405" data-name="Rectangle 4405" width="21.925" height="9.104" transform="translate(66.734 262.227)" fill="#aab6c2"/>
          <rect id="Rectangle_4406" data-name="Rectangle 4406" width="21.925" height="9.104" transform="translate(29.821 262.227)" fill="#aab6c2"/>
          <rect id="Rectangle_4407" data-name="Rectangle 4407" width="21.925" height="9.104" transform="translate(103.615 278.795)" fill="#aab6c2"/>
          <rect id="Rectangle_4408" data-name="Rectangle 4408" width="21.925" height="9.104" transform="translate(66.734 295.362)" fill="#aab6c2"/>
          <rect id="Rectangle_4409" data-name="Rectangle 4409" width="21.925" height="9.104" transform="translate(103.615 311.898)" fill="#aab6c2"/>
          <rect id="Rectangle_4410" data-name="Rectangle 4410" width="21.925" height="9.104" transform="translate(29.821 311.898)" fill="#aab6c2"/>
        </g>
      </g>
      <g id="Group_4445" data-name="Group 4445" transform="translate(-105.355 -46.662)">
        <g id="Group_4443" data-name="Group 4443" transform="translate(6.503 13.409)">
          <rect id="Rectangle_4411" data-name="Rectangle 4411" width="594.719" height="678.081" fill="#fff" opacity="0.35"/>
          <path id="Path_9194" data-name="Path 9194" d="M86.082,678.877H39.91L287.366,20.8h46.141Z" transform="translate(118.671 -13.027)" fill="#fff" opacity="0.5"/>
          <path id="Path_9195" data-name="Path 9195" d="M44.12,678.877H21.05L268.475,20.8h23.07Z" transform="translate(79.128 -13.027)" fill="#fff" opacity="0.5"/>
          <path id="Path_9196" data-name="Path 9196" d="M133.11,631.051H110.04L322.163,43.61V90.958Z" transform="translate(265.712 34.798)" fill="#fff" opacity="0.5"/>
        </g>
        <g id="Group_4444" data-name="Group 4444" transform="translate(598.125)">
          <rect id="Rectangle_4412" data-name="Rectangle 4412" width="594.719" height="678.081" transform="translate(6.224)" fill="#fff" opacity="0.35"/>
          <path id="Path_9197" data-name="Path 9197" d="M244.761,678.877H198.62L446.045,20.8h46.172Z" transform="translate(-140.186 0.381)" fill="#fff" opacity="0.5"/>
          <path id="Path_9198" data-name="Path 9198" d="M202.851,678.877h-23.1L427.206,20.8h23.07Z" transform="translate(-179.75 0.381)" fill="#fff" opacity="0.5"/>
        </g>
        <path id="Path_9199" data-name="Path 9199" d="M1210.5,145.851v-7.773h-21.367V15.79H-13.4V31.3H-.456v5.481H383.1V138.078H-13.4v7.773H383.1V344.968H-13.4v7.773H383.1V551.857H-13.4v7.773H383.1V689.381H-.332v4.49H-13.4v17.961H1189.105v-1.456h0V559.63h21.367v-7.773h-21.367V352.74h21.367v-7.773h-21.367V145.851h21.367ZM594.387,352.74H779.63V551.857H594.387Zm0-7.773V145.851H779.63V344.968Zm0-206.89V36.786H779.63V138.078Zm0,421.552H779.63V689.381H594.449v4.49h-.062Zm198.25,129.751V559.63H977.88V689.381Zm0-137.524V352.74H977.88V551.857Zm0-206.89V145.851H977.88V344.968Zm0-206.89V36.786H977.88V138.078ZM990.886,36.755H1176.13V138.078H990.886V36.786Zm-594.781,0H581.349V138.078H396.106V36.786Zm0,109.065H581.349V344.968H396.106V145.851Zm0,206.89H581.349V551.826H396.106V352.74Zm0,206.89H581.349V693.84h-.062v-4.49H396.137V559.6ZM1176.13,693.84h-.062v-4.49H990.917V559.6h185.243V693.84Zm0-142.014H990.886V352.74H1176.13V551.857Zm0-206.89H990.886V145.851H1176.13V344.968Z" transform="translate(13.4 -10.123)" fill="#fff"/>
      </g>
    </g>
    <g id="Mask_Group_142" data-name="Mask Group 142" transform="translate(1457.365 1593.118)" clip-path="url(#clip-path-2)">
      <g id="Group_2889" data-name="Group 2889" transform="translate(-82.231 0.202)">
        <g id="Group_2876" data-name="Group 2876" transform="translate(0 0)">
          <g id="Group_2875" data-name="Group 2875" clip-path="url(#clip-path-3)">
            <path id="Path_7014" data-name="Path 7014" d="M217.747,376l-43.559,71.038h87.118Z" transform="translate(1.038 -19.865)" fill="none" stroke="#f40" stroke-width="2"/>
          </g>
        </g>
        <path id="Path_7015" data-name="Path 7015" d="M217.747,226l-43.559,71.038h87.118Z" transform="translate(1.038 -11.94)" fill="none" stroke="#f40" stroke-width="2"/>
        <g id="Group_2878" data-name="Group 2878" transform="translate(0 0)">
          <g id="Group_2877" data-name="Group 2877" clip-path="url(#clip-path-3)">
            <path id="Path_7016" data-name="Path 7016" d="M304.388,376l-43.559,71.038h87.118Z" transform="translate(1.554 -19.865)" fill="none" stroke="#f40" stroke-width="2"/>
            <path id="Path_7017" data-name="Path 7017" d="M131.067,376,87.508,447.038h87.118Z" transform="translate(0.521 -19.865)" fill="none" stroke="#f40" stroke-width="2"/>
          </g>
        </g>
        <path id="Path_7018" data-name="Path 7018" d="M261.087,301l-43.559,71.038h87.118Z" transform="translate(1.296 -15.903)" fill="none" stroke="#f40" stroke-width="2"/>
        <path id="Path_7019" data-name="Path 7019" d="M174.407,301l-43.559,71.038h87.118Z" transform="translate(0.779 -15.903)" fill="none" stroke="#f40" stroke-width="2"/>
        <path id="Path_7020" data-name="Path 7020" d="M174.426,297.038,217.985,226H130.867Z" transform="translate(0.78 -11.94)" fill="none" stroke="#f40" stroke-width="2"/>
        <path id="Path_7021" data-name="Path 7021" d="M131.086,372.038,174.645,301H87.527Z" transform="translate(0.521 -15.903)" fill="none" stroke="#f40" stroke-width="2"/>
        <g id="Group_2880" data-name="Group 2880" transform="translate(0 0)">
          <g id="Group_2879" data-name="Group 2879" clip-path="url(#clip-path-3)">
            <path id="Path_7022" data-name="Path 7022" d="M44.425,376,.866,447.038H87.984Z" transform="translate(0.005 -19.865)" fill="none" stroke="#f40" stroke-width="2"/>
          </g>
        </g>
        <path id="Path_7023" data-name="Path 7023" d="M87.765,301,44.206,372.038h87.118Z" transform="translate(0.263 -15.903)" fill="#f40" stroke="rgba(0,0,0,0)" stroke-width="2"/>
        <path id="Path_7024" data-name="Path 7024" d="M87.765,301,44.206,372.038h87.118Z" transform="translate(0.263 -15.903)" fill="none" stroke="#f40" stroke-width="2"/>
        <g id="Group_2882" data-name="Group 2882" transform="translate(0 0)">
          <g id="Group_2881" data-name="Group 2881" clip-path="url(#clip-path-3)">
            <path id="Path_7025" data-name="Path 7025" d="M44.445,372.038,88,301H.886Z" transform="translate(0.005 -15.903)" fill="none" stroke="#f40" stroke-width="2"/>
            <path id="Path_7026" data-name="Path 7026" d="M390.976,376l-43.559,71.038h87.118Z" transform="translate(2.069 -19.865)" fill="none" stroke="#f40" stroke-width="2"/>
          </g>
        </g>
        <path id="Path_7027" data-name="Path 7027" d="M347.655,297.038,391.214,226H304.1Z" transform="translate(1.811 -11.94)" fill="none" stroke="#f40" stroke-width="2"/>
        <g id="Group_2884" data-name="Group 2884" transform="translate(0 0)">
          <g id="Group_2883" data-name="Group 2883" clip-path="url(#clip-path-3)">
            <path id="Path_7028" data-name="Path 7028" d="M347.655,447.038,391.214,376H304.1Z" transform="translate(1.811 -19.865)" fill="none" stroke="#f40" stroke-width="2"/>
          </g>
        </g>
        <path id="Path_7029" data-name="Path 7029" d="M261.014,297.038,304.573,226H217.455Z" transform="translate(1.295 -11.94)" fill="none" stroke="#f40" stroke-width="2"/>
        <path id="Path_7030" data-name="Path 7030" d="M304.315,372.038,347.874,301H260.756Z" transform="translate(1.553 -15.903)" fill="none" stroke="#f40" stroke-width="2"/>
        <g id="Group_2886" data-name="Group 2886" transform="translate(0 0)">
          <g id="Group_2885" data-name="Group 2885" clip-path="url(#clip-path-3)">
            <path id="Path_7031" data-name="Path 7031" d="M391,372.038,434.554,301H347.436Z" transform="translate(2.07 -15.903)" fill="none" stroke="#f40" stroke-width="2"/>
          </g>
        </g>
        <path id="Path_7032" data-name="Path 7032" d="M347.724,151l-43.559,71.038h87.118Z" transform="translate(1.812 -7.978)" fill="none" stroke="#f40" stroke-width="2"/>
        <g id="Group_2888" data-name="Group 2888" transform="translate(0 0)">
          <g id="Group_2887" data-name="Group 2887" clip-path="url(#clip-path-3)">
            <path id="Path_7033" data-name="Path 7033" d="M347.724,1,304.165,72.038h87.118Z" transform="translate(1.812 -0.053)" fill="none" stroke="#f40" stroke-width="2"/>
            <path id="Path_7034" data-name="Path 7034" d="M391.064,76,347.5,147.038h87.118Z" transform="translate(2.07 -4.015)" fill="none" stroke="#f40" stroke-width="2"/>
            <path id="Path_7035" data-name="Path 7035" d="M304.4,72.038,347.962,1H260.844Z" transform="translate(1.554 -0.053)" fill="none" stroke="#f40" stroke-width="2"/>
          </g>
        </g>
      </g>
    </g>
    <g id="Mask_Group_172" data-name="Mask Group 172" transform="translate(1031.063 1218.616)" clip-path="url(#clip-path-10)">
      <g id="Group_4428" data-name="Group 4428" transform="translate(-31.865 49.564)">
        <g id="Group_4415" data-name="Group 4415">
          <g id="Group_4414" data-name="Group 4414" clip-path="url(#clip-path-11)">
            <path id="Path_9170" data-name="Path 9170" d="M215.182,442.855,256.177,376H174.188Z" transform="translate(-9.283 -375.109)" fill="none" stroke="#f40" stroke-width="2"/>
          </g>
        </g>
        <path id="Path_9171" data-name="Path 9171" d="M215.182,292.855,256.177,226H174.188Z" transform="translate(-9.283 -91.398)" fill="none" stroke="#f40" stroke-width="2"/>
        <g id="Group_4417" data-name="Group 4417">
          <g id="Mask_Group_4416" data-name="Mask Group 4416" clip-path="url(#clip-path-11)">
            <path id="Path_9173" data-name="Path 9173" d="M128.5,442.855,169.5,376H87.508Z" transform="translate(159.46 -375.109)" fill="none" stroke="#f40" stroke-width="2"/>
          </g>
        </g>
        <path id="Path_9174" data-name="Path 9174" d="M258.522,367.856,299.517,301H217.528Z" transform="translate(-93.655 -233.253)" fill="none" stroke="#f40" stroke-width="2"/>
        <path id="Path_9175" data-name="Path 9175" d="M171.842,367.856,212.837,301H130.848Z" transform="translate(75.088 -233.253)" fill="none" stroke="#f40" stroke-width="2"/>
        <path id="Path_9177" data-name="Path 9177" d="M128.521,301,87.527,367.856h81.989Z" transform="translate(159.422 -233.253)" fill="none" stroke="#f40" stroke-width="2"/>
        <g id="Group_4419" data-name="Group 4419">
          <g id="Group_4418" data-name="Group 4418" clip-path="url(#clip-path-11)">
            <path id="Path_9178" data-name="Path 9178" d="M41.861,442.855,82.855,376H.866Z" transform="translate(328.127 -375.109)" fill="none" stroke="#f40" stroke-width="2"/>
          </g>
        </g>
        <path id="Path_9179" data-name="Path 9179" d="M85.2,367.856,126.2,301H44.206Z" transform="translate(243.756 -233.253)" fill="#f40" stroke="rgba(0,0,0,0)" stroke-width="2"/>
        <path id="Path_9180" data-name="Path 9180" d="M85.2,367.856,126.2,301H44.206Z" transform="translate(243.756 -233.253)" fill="none" stroke="#f40" stroke-width="2"/>
        <path id="Path_9183" data-name="Path 9183" d="M345.091,226,304.1,292.855h81.989Z" transform="translate(-262.18 -91.398)" fill="none" stroke="#f40" stroke-width="2"/>
        <path id="Path_9185" data-name="Path 9185" d="M258.449,226l-40.994,66.855h81.989Z" transform="translate(-93.512 -91.398)" fill="none" stroke="#f40" stroke-width="2"/>
        <path id="Path_9186" data-name="Path 9186" d="M301.751,301l-40.994,66.855h81.989Z" transform="translate(-177.809 -233.253)" fill="none" stroke="#f40" stroke-width="2"/>
        <g id="Group_4425" data-name="Group 4425">
          <g id="Group_4424" data-name="Group 4424" clip-path="url(#clip-path-11)">
            <path id="Path_9187" data-name="Path 9187" d="M388.431,301l-40.994,66.855h81.989Z" transform="translate(-346.552 -233.253)" fill="none" stroke="#f40" stroke-width="2"/>
            <path id="Path_9201" data-name="Path 9201" d="M124.135,67.747h-82" fill="none" stroke="#f40" stroke-width="2"/>
          </g>
        </g>
        <path id="Path_9188" data-name="Path 9188" d="M345.159,217.855,386.154,151H304.165Z" transform="translate(-262.313 50.458)" fill="none" stroke="#f40" stroke-width="2"/>
        <g id="Group_4427" data-name="Group 4427">
          <g id="Group_4426" data-name="Group 4426" clip-path="url(#clip-path-11)">
            <path id="Path_9189" data-name="Path 9189" d="M345.159,67.855,386.154,1H304.165Z" transform="translate(-262.313 334.169)" fill="none" stroke="#f40" stroke-width="2"/>
            <path id="Path_9190" data-name="Path 9190" d="M388.5,142.855,429.494,76H347.5Z" transform="translate(-346.685 192.313)" fill="none" stroke="#f40" stroke-width="2"/>
            <path id="Path_9191" data-name="Path 9191" d="M301.838,1,260.844,67.855h81.989Z" transform="translate(-177.98 334.169)" fill="none" stroke="#f40" stroke-width="2"/>
          </g>
        </g>
      </g>
    </g>
    <g id="Group_4435" data-name="Group 4435" transform="translate(20102 6250.73)">
      <g id="Group_4434" data-name="Group 4434" transform="translate(-18871.514 -4782.79)">
        <g id="Group_479" data-name="Group 479" transform="translate(0 0)" clip-path="url(#clip-path-18)">
          <path id="Path_1566" data-name="Path 1566" d="M157.847,54.791a6.791,6.791,0,0,0-6.793,6.793,50.488,50.488,0,0,1-50.429,50.429H78.607L90.14,100.48a6.794,6.794,0,0,0-9.608-9.608l-23.116,23.12a6.782,6.782,0,0,0-.862,1.052c-.1.147-.163.307-.248.458a6.117,6.117,0,0,0-.373.706,6.828,6.828,0,0,0-.206.66c-.058.2-.136.4-.179.61a6.794,6.794,0,0,0,0,2.655c.043.214.12.407.179.609a6.508,6.508,0,0,0,.206.66,5.756,5.756,0,0,0,.373.7c.085.155.151.314.248.462a6.611,6.611,0,0,0,.862,1.052l23.116,23.12a6.792,6.792,0,0,0,9.608-9.6L78.607,125.6h22.018A64.084,64.084,0,0,0,164.64,61.584a6.791,6.791,0,0,0-6.793-6.793" transform="translate(159.705 157.901)" fill="#040506"/>
          <path id="Path_1567" data-name="Path 1567" d="M16.739,108.456a6.791,6.791,0,0,0,6.793-6.793A50.488,50.488,0,0,1,73.962,51.234H95.98L84.447,62.767a6.794,6.794,0,1,0,9.608,9.608l23.116-23.12a6.8,6.8,0,0,0,.862-1.052c.1-.144.163-.3.248-.454a7.766,7.766,0,0,0,.373-.714,6.043,6.043,0,0,0,.2-.652,6.239,6.239,0,0,0,.182-.613,6.813,6.813,0,0,0,0-2.659c-.043-.214-.12-.411-.182-.617a6.564,6.564,0,0,0-.2-.648,7.379,7.379,0,0,0-.377-.714c-.085-.151-.148-.307-.245-.45a6.617,6.617,0,0,0-.862-1.052L94.054,16.506a6.792,6.792,0,0,0-9.608,9.6L95.98,37.647H73.962A64.084,64.084,0,0,0,9.946,101.663a6.791,6.791,0,0,0,6.793,6.793" transform="translate(28.663 41.831)" fill="#040506"/>
          <path id="Path_1568" data-name="Path 1568" d="M97.512,43.231a97.51,97.51,0,1,0,97.508,97.508A97.618,97.618,0,0,0,97.512,43.231m0,181.434a83.924,83.924,0,1,1,83.922-83.926,84.022,84.022,0,0,1-83.922,83.926" transform="translate(0 124.587)" fill="#040506"/>
          <path id="Path_1569" data-name="Path 1569" d="M140.916,0a97.51,97.51,0,1,0,97.512,97.512A97.619,97.619,0,0,0,140.916,0m0,181.434a83.924,83.924,0,1,1,83.926-83.922,84.019,84.019,0,0,1-83.926,83.922" transform="translate(125.084 0.001)" fill="#040506"/>
          <path id="Path_1570" data-name="Path 1570" d="M126.581,15.263a5.262,5.262,0,0,0-7.445,0l-25,25-25-25a5.265,5.265,0,0,0-7.445,7.445L81.423,42.443H65.41a5.266,5.266,0,0,0,0,10.531H88.868v9.782H65.41a5.264,5.264,0,1,0,0,10.528H88.868V98.692a5.266,5.266,0,0,0,10.531,0V73.285h23.458a5.264,5.264,0,1,0,0-10.528H99.4V52.975h23.458a5.266,5.266,0,0,0,0-10.531H106.845l19.735-19.735a5.262,5.262,0,0,0,0-7.445" transform="translate(173.328 39.539)" fill="#040506"/>
          <path id="Path_1571" data-name="Path 1571" d="M50.554,97.1V73.547A33.77,33.77,0,0,1,62.2,78.959,5.191,5.191,0,0,0,69.3,77.837l.035-.047a5.233,5.233,0,0,0-1.207-7.473,38.671,38.671,0,0,0-17.577-6.867V61.766a5.225,5.225,0,0,0-10.45,0v1.576c-12.69,1.832-21.471,10.64-21.471,21.925,0,12.375,8.466,17.36,21.471,20.873V130.7a34.389,34.389,0,0,1-13.711-6.421,5.252,5.252,0,0,0-7.282.8l-.116.144a5.233,5.233,0,0,0,.963,7.5A42.646,42.646,0,0,0,40.1,140.882V143a5.225,5.225,0,0,0,10.45,0v-1.883c15.524-1.211,23.877-10.454,23.877-22.278,0-13-9.712-18.218-23.877-21.738M40.1,94.327c-6.681-2.267-10.135-4.907-10.135-10.05,0-4.918,4.057-9.514,10.135-10.986ZM50.554,131.3V108.787c8.462,2.383,12.655,5.252,12.655,11.149,0,5.361-4.293,10.4-12.655,11.366" transform="translate(51.38 162.944)" fill="#040506"/>
        </g>
      </g>
      <g id="Group_4433" data-name="Group 4433" transform="translate(-18874.256 -4788.277)">
        <g id="Group_479-2" data-name="Group 479" transform="translate(0 0)" clip-path="url(#clip-path-18)">
          <path id="Path_1566-2" data-name="Path 1566" d="M157.847,54.791a6.791,6.791,0,0,0-6.793,6.793,50.488,50.488,0,0,1-50.429,50.429H78.607L90.14,100.48a6.794,6.794,0,0,0-9.608-9.608l-23.116,23.12a6.782,6.782,0,0,0-.862,1.052c-.1.147-.163.307-.248.458a6.117,6.117,0,0,0-.373.706,6.828,6.828,0,0,0-.206.66c-.058.2-.136.4-.179.61a6.794,6.794,0,0,0,0,2.655c.043.214.12.407.179.609a6.508,6.508,0,0,0,.206.66,5.756,5.756,0,0,0,.373.7c.085.155.151.314.248.462a6.611,6.611,0,0,0,.862,1.052l23.116,23.12a6.792,6.792,0,0,0,9.608-9.6L78.607,125.6h22.018A64.084,64.084,0,0,0,164.64,61.584a6.791,6.791,0,0,0-6.793-6.793" transform="translate(159.705 157.901)" fill="#040506"/>
          <path id="Path_1567-2" data-name="Path 1567" d="M16.739,108.456a6.791,6.791,0,0,0,6.793-6.793A50.488,50.488,0,0,1,73.962,51.234H95.98L84.447,62.767a6.794,6.794,0,1,0,9.608,9.608l23.116-23.12a6.8,6.8,0,0,0,.862-1.052c.1-.144.163-.3.248-.454a7.766,7.766,0,0,0,.373-.714,6.043,6.043,0,0,0,.2-.652,6.239,6.239,0,0,0,.182-.613,6.813,6.813,0,0,0,0-2.659c-.043-.214-.12-.411-.182-.617a6.564,6.564,0,0,0-.2-.648,7.379,7.379,0,0,0-.377-.714c-.085-.151-.148-.307-.245-.45a6.617,6.617,0,0,0-.862-1.052L94.054,16.506a6.792,6.792,0,0,0-9.608,9.6L95.98,37.647H73.962A64.084,64.084,0,0,0,9.946,101.663a6.791,6.791,0,0,0,6.793,6.793" transform="translate(28.663 41.831)" fill="#040506"/>
          <path id="Path_1568-2" data-name="Path 1568" d="M97.512,43.231a97.51,97.51,0,1,0,97.508,97.508A97.618,97.618,0,0,0,97.512,43.231m0,181.434a83.924,83.924,0,1,1,83.922-83.926,84.022,84.022,0,0,1-83.922,83.926" transform="translate(0 124.587)" fill="#040506"/>
          <path id="Path_1569-2" data-name="Path 1569" d="M140.916,0a97.51,97.51,0,1,0,97.512,97.512A97.619,97.619,0,0,0,140.916,0m0,181.434a83.924,83.924,0,1,1,83.926-83.922,84.019,84.019,0,0,1-83.926,83.922" transform="translate(125.084 0.001)" fill="#040506"/>
          <path id="Path_1570-2" data-name="Path 1570" d="M126.581,15.263a5.262,5.262,0,0,0-7.445,0l-25,25-25-25a5.265,5.265,0,0,0-7.445,7.445L81.423,42.443H65.41a5.266,5.266,0,0,0,0,10.531H88.868v9.782H65.41a5.264,5.264,0,1,0,0,10.528H88.868V98.692a5.266,5.266,0,0,0,10.531,0V73.285h23.458a5.264,5.264,0,1,0,0-10.528H99.4V52.975h23.458a5.266,5.266,0,0,0,0-10.531H106.845l19.735-19.735a5.262,5.262,0,0,0,0-7.445" transform="translate(173.328 39.539)" fill="#040506"/>
          <path id="Path_1571-2" data-name="Path 1571" d="M50.554,97.1V73.547A33.77,33.77,0,0,1,62.2,78.959,5.191,5.191,0,0,0,69.3,77.837l.035-.047a5.233,5.233,0,0,0-1.207-7.473,38.671,38.671,0,0,0-17.577-6.867V61.766a5.225,5.225,0,0,0-10.45,0v1.576c-12.69,1.832-21.471,10.64-21.471,21.925,0,12.375,8.466,17.36,21.471,20.873V130.7a34.389,34.389,0,0,1-13.711-6.421,5.252,5.252,0,0,0-7.282.8l-.116.144a5.233,5.233,0,0,0,.963,7.5A42.646,42.646,0,0,0,40.1,140.882V143a5.225,5.225,0,0,0,10.45,0v-1.883c15.524-1.211,23.877-10.454,23.877-22.278,0-13-9.712-18.218-23.877-21.738M40.1,94.327c-6.681-2.267-10.135-4.907-10.135-10.05,0-4.918,4.057-9.514,10.135-10.986ZM50.554,131.3V108.787c8.462,2.383,12.655,5.252,12.655,11.149,0,5.361-4.293,10.4-12.655,11.366" transform="translate(51.38 162.944)" fill="#040506"/>
        </g>
      </g>
      <g id="Group_4432-2" data-name="Group 4432" transform="translate(-18877 -4796.507)">
        <g id="Group_479-3" data-name="Group 479" transform="translate(0 0)" clip-path="url(#clip-path-20)">
          <path id="Path_1566-3" data-name="Path 1566" d="M157.847,54.791a6.791,6.791,0,0,0-6.793,6.793,50.488,50.488,0,0,1-50.429,50.429H78.607L90.14,100.48a6.794,6.794,0,0,0-9.608-9.608l-23.116,23.12a6.782,6.782,0,0,0-.862,1.052c-.1.147-.163.307-.248.458a6.117,6.117,0,0,0-.373.706,6.828,6.828,0,0,0-.206.66c-.058.2-.136.4-.179.61a6.794,6.794,0,0,0,0,2.655c.043.214.12.407.179.609a6.508,6.508,0,0,0,.206.66,5.756,5.756,0,0,0,.373.7c.085.155.151.314.248.462a6.611,6.611,0,0,0,.862,1.052l23.116,23.12a6.792,6.792,0,0,0,9.608-9.6L78.607,125.6h22.018A64.084,64.084,0,0,0,164.64,61.584a6.791,6.791,0,0,0-6.793-6.793" transform="translate(159.705 157.901)" fill="#e13113"/>
          <path id="Path_1567-3" data-name="Path 1567" d="M16.739,108.456a6.791,6.791,0,0,0,6.793-6.793A50.488,50.488,0,0,1,73.962,51.234H95.98L84.447,62.767a6.794,6.794,0,1,0,9.608,9.608l23.116-23.12a6.8,6.8,0,0,0,.862-1.052c.1-.144.163-.3.248-.454a7.766,7.766,0,0,0,.373-.714,6.043,6.043,0,0,0,.2-.652,6.239,6.239,0,0,0,.182-.613,6.813,6.813,0,0,0,0-2.659c-.043-.214-.12-.411-.182-.617a6.564,6.564,0,0,0-.2-.648,7.379,7.379,0,0,0-.377-.714c-.085-.151-.148-.307-.245-.45a6.617,6.617,0,0,0-.862-1.052L94.054,16.506a6.792,6.792,0,0,0-9.608,9.6L95.98,37.647H73.962A64.084,64.084,0,0,0,9.946,101.663a6.791,6.791,0,0,0,6.793,6.793" transform="translate(28.663 41.831)" fill="#e13113"/>
          <path id="Path_1568-3" data-name="Path 1568" d="M97.512,43.231a97.51,97.51,0,1,0,97.508,97.508A97.618,97.618,0,0,0,97.512,43.231m0,181.434a83.924,83.924,0,1,1,83.922-83.926,84.022,84.022,0,0,1-83.922,83.926" transform="translate(0 124.587)" fill="#e13113"/>
          <path id="Path_1569-3" data-name="Path 1569" d="M140.916,0a97.51,97.51,0,1,0,97.512,97.512A97.619,97.619,0,0,0,140.916,0m0,181.434a83.924,83.924,0,1,1,83.926-83.922,84.019,84.019,0,0,1-83.926,83.922" transform="translate(125.084 0.001)" fill="#e13113"/>
          <path id="Path_1570-3" data-name="Path 1570" d="M126.581,15.263a5.262,5.262,0,0,0-7.445,0l-25,25-25-25a5.265,5.265,0,0,0-7.445,7.445L81.423,42.443H65.41a5.266,5.266,0,0,0,0,10.531H88.868v9.782H65.41a5.264,5.264,0,1,0,0,10.528H88.868V98.692a5.266,5.266,0,0,0,10.531,0V73.285h23.458a5.264,5.264,0,1,0,0-10.528H99.4V52.975h23.458a5.266,5.266,0,0,0,0-10.531H106.845l19.735-19.735a5.262,5.262,0,0,0,0-7.445" transform="translate(173.328 39.539)" fill="#e13113"/>
          <path id="Path_1571-3" data-name="Path 1571" d="M50.554,97.1V73.547A33.77,33.77,0,0,1,62.2,78.959,5.191,5.191,0,0,0,69.3,77.837l.035-.047a5.233,5.233,0,0,0-1.207-7.473,38.671,38.671,0,0,0-17.577-6.867V61.766a5.225,5.225,0,0,0-10.45,0v1.576c-12.69,1.832-21.471,10.64-21.471,21.925,0,12.375,8.466,17.36,21.471,20.873V130.7a34.389,34.389,0,0,1-13.711-6.421,5.252,5.252,0,0,0-7.282.8l-.116.144a5.233,5.233,0,0,0,.963,7.5A42.646,42.646,0,0,0,40.1,140.882V143a5.225,5.225,0,0,0,10.45,0v-1.883c15.524-1.211,23.877-10.454,23.877-22.278,0-13-9.712-18.218-23.877-21.738M40.1,94.327c-6.681-2.267-10.135-4.907-10.135-10.05,0-4.918,4.057-9.514,10.135-10.986ZM50.554,131.3V108.787c8.462,2.383,12.655,5.252,12.655,11.149,0,5.361-4.293,10.4-12.655,11.366" transform="translate(51.38 162.944)" fill="#e13113"/>
        </g>
      </g>
    </g>
  </g>
</svg>
