<svg id="Group_3553" data-name="Group 3553" xmlns="http://www.w3.org/2000/svg" xmlns:xlink="http://www.w3.org/1999/xlink" width="70.415" height="70.416" viewBox="0 0 70.415 70.416">
  <defs>
    <clipPath id="clip-path">
      <rect id="Rectangle_806" data-name="Rectangle 806" width="70.415" height="70.415" fill="#f40"/>
    </clipPath>
  </defs>
  <g id="Group_470" data-name="Group 470" clip-path="url(#clip-path)">
    <path id="Path_1556" data-name="Path 1556" d="M35.208,0A35.208,35.208,0,1,0,70.415,35.208,35.248,35.248,0,0,0,35.208,0m0,67.779A32.572,32.572,0,1,1,67.779,35.208,32.609,32.609,0,0,1,35.208,67.779" fill="#f40"/>
    <path id="Path_1557" data-name="Path 1557" d="M50.921,49.474H40.853a1.318,1.318,0,0,0-1.318,1.318v5.293A1.318,1.318,0,0,0,40.853,57.4H50.921a3.964,3.964,0,1,0,0-7.929m0,5.293h-8.75V52.11h8.75a1.328,1.328,0,1,1,0,2.657" transform="translate(-9.761 -12.215)" fill="#f40"/>
    <path id="Path_1558" data-name="Path 1558" d="M48.748,24.75V22.328a3.9,3.9,0,0,0-7.8,0v2.4H38.895v-2.4a3.9,3.9,0,0,0-7.8,0v2.4H29.04a4.266,4.266,0,0,0,0,8.533h.953V47.1H29.04a4.266,4.266,0,0,0,0,8.533H31.1v2.4a3.9,3.9,0,1,0,7.8,0v-2.4h2.057v2.4a3.9,3.9,0,1,0,7.8,0V55.609A9.847,9.847,0,0,0,56.122,40.18a9.847,9.847,0,0,0-7.374-15.43m4.713,16.294A7.212,7.212,0,0,1,48.014,53H47.43a1.318,1.318,0,0,0-1.318,1.318v3.714a1.262,1.262,0,1,1-2.524,0V54.317A1.318,1.318,0,0,0,42.269,53H37.577a1.318,1.318,0,0,0-1.318,1.318v3.714a1.262,1.262,0,1,1-2.524,0V54.317A1.318,1.318,0,0,0,32.417,53H29.04a1.63,1.63,0,0,1,0-3.261h2.271A1.318,1.318,0,0,0,32.63,48.42V31.939a1.318,1.318,0,0,0-1.318-1.318H29.04a1.63,1.63,0,1,1,0-3.261h3.377a1.318,1.318,0,0,0,1.318-1.318V22.328a1.262,1.262,0,0,1,2.524,0v3.714a1.318,1.318,0,0,0,1.318,1.318h4.693a1.318,1.318,0,0,0,1.318-1.318V22.328a1.262,1.262,0,0,1,2.524,0v3.714A1.318,1.318,0,0,0,47.43,27.36h.584a7.212,7.212,0,0,1,5.446,11.955,1.318,1.318,0,0,0,0,1.73" transform="translate(-6.117 -4.551)" fill="#f40"/>
    <path id="Path_1559" data-name="Path 1559" d="M50.921,34.616H40.853a1.318,1.318,0,0,0-1.318,1.318v5.293a1.318,1.318,0,0,0,1.318,1.318H50.921a3.964,3.964,0,1,0,0-7.929m0,5.293h-8.75V37.252h8.75a1.328,1.328,0,0,1,0,2.657" transform="translate(-9.761 -8.547)" fill="#f40"/>
  </g>
</svg>
