<svg id="Group_3552" data-name="Group 3552" xmlns="http://www.w3.org/2000/svg" xmlns:xlink="http://www.w3.org/1999/xlink" width="70.417" height="73.669" viewBox="0 0 70.417 73.669">
  <defs>
    <clipPath id="clip-path">
      <rect id="Rectangle_811" data-name="Rectangle 811" width="70.417" height="73.669" transform="translate(0 0)" fill="#f40"/>
    </clipPath>
  </defs>
  <g id="Group_482" data-name="Group 482" clip-path="url(#clip-path)">
    <path id="Path_1581" data-name="Path 1581" d="M53.565,24.261a20.008,20.008,0,0,0-15.082-5.425A20.125,20.125,0,0,0,26.34,53.919a12.974,12.974,0,0,1,3.465,5.04A4.531,4.531,0,0,0,30.18,64.9a4.551,4.551,0,0,0,2.939,7.732,6.471,6.471,0,0,0,6.316,5.106h1.018a6.471,6.471,0,0,0,6.316-5.106A4.552,4.552,0,0,0,49.709,64.9a4.564,4.564,0,0,0,.114-6.271,11.944,11.944,0,0,1,3.19-4.552,20.139,20.139,0,0,0,6.892-15.155,19.937,19.937,0,0,0-6.34-14.665m-21.3,36.062a.937.937,0,0,0,.173-.178h0l0,0,.006-.008a1.123,1.123,0,0,1,.208-.14.913.913,0,0,1,.418-.1H46.455c.056,0,.117.005.161.007a1.287,1.287,0,0,0,.143.027,1.642,1.642,0,0,1,.7.262A1.828,1.828,0,0,1,47.743,63a1.788,1.788,0,0,1-1.288.53H33.437a1.814,1.814,0,0,1-1.287-3.1l.063-.063.027-.023.021-.017M40.452,75H39.435a3.726,3.726,0,0,1-3.458-2.349h7.934A3.726,3.726,0,0,1,40.452,75m6-5.091H33.434a1.818,1.818,0,1,1,0-3.636h13.02a1.818,1.818,0,0,1,0,3.636M51.2,52.02a14.678,14.678,0,0,0-3.778,5.251c-.083-.017-.165-.038-.251-.051s-.187-.031-.314-.045-.275-.02-.407-.02H33.069a3.636,3.636,0,0,0-.989.14,15.756,15.756,0,0,0-3.912-5.417A17.4,17.4,0,1,1,51.2,52.02" transform="translate(-4.254 -4.073)" fill="#f40"/>
    <path id="Path_1582" data-name="Path 1582" d="M86.184,43.171H80.465a1.371,1.371,0,0,0,0,2.742h5.719a1.371,1.371,0,1,0,0-2.742" transform="translate(-17.138 -9.354)" fill="#f40"/>
    <path id="Path_1583" data-name="Path 1583" d="M7.09,43.224H1.371a1.371,1.371,0,1,0,0,2.742H7.09a1.371,1.371,0,1,0,0-2.742" transform="translate(0 -9.366)" fill="#f40"/>
    <path id="Path_1584" data-name="Path 1584" d="M73.007,13.035l-4.044,4.044A1.371,1.371,0,1,0,70.9,19.017l4.044-4.044a1.371,1.371,0,0,0-1.939-1.939" transform="translate(-14.856 -2.737)" fill="#f40"/>
    <path id="Path_1585" data-name="Path 1585" d="M44.542,8.461A1.371,1.371,0,0,0,45.913,7.09V1.371a1.371,1.371,0,1,0-2.742,0V7.09a1.371,1.371,0,0,0,1.371,1.371" transform="translate(-9.354 0)" fill="#f40"/>
    <path id="Path_1586" data-name="Path 1586" d="M19.017,17.116l-4.044-4.044a1.371,1.371,0,1,0-1.939,1.939l4.044,4.044a1.371,1.371,0,0,0,1.939-1.939" transform="translate(-2.737 -2.745)" fill="#f40"/>
  </g>
</svg>
