<svg id="Group_3548" data-name="Group 3548" xmlns="http://www.w3.org/2000/svg" xmlns:xlink="http://www.w3.org/1999/xlink" width="70.417" height="71.483" viewBox="0 0 70.417 71.483">
  <defs>
    <clipPath id="clip-path">
      <rect id="Rectangle_807" data-name="Rectangle 807" width="70.417" height="71.483" fill="#f40"/>
    </clipPath>
  </defs>
  <g id="Group_473" data-name="Group 473" transform="translate(0 0)" clip-path="url(#clip-path)">
    <path id="Path_1560" data-name="Path 1560" d="M55.41,12.884A12.884,12.884,0,1,0,42.527,25.768,12.9,12.9,0,0,0,55.41,12.884M42.527,23.132A10.248,10.248,0,1,1,52.774,12.884,10.259,10.259,0,0,1,42.527,23.132" transform="translate(-7.318 0)" fill="#f40"/>
    <path id="Path_1561" data-name="Path 1561" d="M45.834,13.534c-1.719-.371-2.274-.606-2.274-1.315,0-.572.522-1.011,1.449-1.011a5.55,5.55,0,0,1,3.3,1.231l1.466-2.056A6.7,6.7,0,0,0,46.07,8.849V7.787H44.318V8.849C42.109,9.1,40.66,10.5,40.66,12.506c0,2.326,1.837,3,4.315,3.556,1.685.4,2.225.556,2.225,1.247,0,.624-.556,1.062-1.635,1.062A5.911,5.911,0,0,1,41.755,16.9l-1.618,1.939a7.557,7.557,0,0,0,4.181,1.871v1.112H46.07V20.764c2.511-.2,4.027-1.6,4.027-3.758,0-2.174-1.667-2.916-4.263-3.472" transform="translate(-9.909 -1.923)" fill="#f40"/>
    <path id="Path_1562" data-name="Path 1562" d="M13.59,43.739H8.772V38.932a1.318,1.318,0,1,0-2.636,0v4.807H1.318A1.318,1.318,0,0,0,0,45.057v15.8a1.318,1.318,0,0,0,1.318,1.318H6.136v4.807a1.318,1.318,0,0,0,2.636,0V62.175H13.59a1.318,1.318,0,0,0,1.318-1.318v-15.8a1.318,1.318,0,0,0-1.318-1.318m-1.318,15.8H2.636V46.375h9.636Z" transform="translate(0 -9.287)" fill="#f40"/>
    <path id="Path_1563" data-name="Path 1563" d="M38.159,60.3H33.34V55.488a1.318,1.318,0,1,0-2.636,0V60.3H25.886a1.318,1.318,0,0,0-1.318,1.318v15.8a1.318,1.318,0,0,0,1.318,1.318H30.7v4.807a1.318,1.318,0,1,0,2.636,0V78.732h4.818a1.318,1.318,0,0,0,1.318-1.318v-15.8A1.318,1.318,0,0,0,38.159,60.3M36.841,76.1H27.2V62.932h9.636Z" transform="translate(-6.065 -13.374)" fill="#f40"/>
    <path id="Path_1564" data-name="Path 1564" d="M62.727,43.739H57.909V38.932a1.318,1.318,0,1,0-2.636,0v4.807H50.455a1.318,1.318,0,0,0-1.318,1.318v15.8a1.318,1.318,0,0,0,1.318,1.318h4.818v4.807a1.318,1.318,0,0,0,2.636,0V62.175h4.818a1.318,1.318,0,0,0,1.318-1.318v-15.8a1.318,1.318,0,0,0-1.318-1.318m-1.318,15.8H51.773V46.375h9.636Z" transform="translate(-12.131 -9.287)" fill="#f40"/>
    <path id="Path_1565" data-name="Path 1565" d="M87.3,60.3H82.477V55.488a1.318,1.318,0,0,0-2.636,0V60.3H75.023a1.317,1.317,0,0,0-1.318,1.318v15.8a1.318,1.318,0,0,0,1.318,1.318h4.818v4.807a1.318,1.318,0,0,0,2.636,0V78.732H87.3a1.318,1.318,0,0,0,1.318-1.318v-15.8A1.317,1.317,0,0,0,87.3,60.3M85.977,76.1H76.341V62.932h9.636Z" transform="translate(-18.196 -13.374)" fill="#f40"/>
  </g>
</svg>
