<svg xmlns="http://www.w3.org/2000/svg" xmlns:xlink="http://www.w3.org/1999/xlink" width="95" height="114" viewBox="0 0 95 114">
  <defs>
    <clipPath id="clip-path">
      <rect id="Rectangle_3023" data-name="Rectangle 3023" width="95" height="114" transform="translate(-0.072 7256.363)" fill="#fff" stroke="#707070" stroke-width="1"/>
    </clipPath>
    <clipPath id="clip-path-2">
      <rect id="Rectangle_3016" data-name="Rectangle 3016" width="110.337" height="114.656" fill="none"/>
    </clipPath>
  </defs>
  <g id="Mask_Group_153" data-name="Mask Group 153" transform="translate(0.072 -7256.363)" clip-path="url(#clip-path)">
    <g id="Group_3570" data-name="Group 3570" transform="translate(0 7255.562)">
      <g id="Group_3557" data-name="Group 3557">
        <g id="Group_3556" data-name="Group 3556" clip-path="url(#clip-path-2)">
          <path id="Path_8011" data-name="Path 8011" d="M185.172,395.025,174.188,376h21.968Z" transform="translate(-130.003 -375.746)" fill="none" stroke="#f40" stroke-width="1"/>
        </g>
      </g>
      <path id="Path_8012" data-name="Path 8012" d="M185.172,245.025,174.188,226h21.968Z" transform="translate(-130.003 -187.697)" fill="none" stroke="#f40" stroke-width="1"/>
      <g id="Group_3559" data-name="Group 3559">
        <g id="Group_3558" data-name="Group 3558" clip-path="url(#clip-path-2)">
          <path id="Path_8013" data-name="Path 8013" d="M271.813,395.025,260.829,376H282.8Z" transform="translate(-194.666 -375.746)" fill="none" stroke="#f40" stroke-width="1"/>
          <path id="Path_8014" data-name="Path 8014" d="M98.492,395.025,87.508,376h21.968Z" transform="translate(-65.31 -375.746)" fill="none" stroke="#f40" stroke-width="1"/>
        </g>
      </g>
      <path id="Path_8015" data-name="Path 8015" d="M228.512,320.025,217.528,301H239.5Z" transform="translate(-162.349 -281.722)" fill="none" stroke="#f40" stroke-width="1"/>
      <path id="Path_8016" data-name="Path 8016" d="M141.832,320.025,130.848,301h21.968Z" transform="translate(-97.656 -281.722)" fill="none" stroke="#f40" stroke-width="1"/>
      <path id="Path_8017" data-name="Path 8017" d="M141.851,226l10.984,19.025H130.867Z" transform="translate(-97.671 -187.697)" fill="none" stroke="#f40" stroke-width="1"/>
      <path id="Path_8018" data-name="Path 8018" d="M98.511,301l10.984,19.025H87.527Z" transform="translate(-65.325 -281.722)" fill="none" stroke="#f40" stroke-width="1"/>
      <g id="Group_3561" data-name="Group 3561">
        <g id="Group_3560" data-name="Group 3560" clip-path="url(#clip-path-2)">
          <path id="Path_8019" data-name="Path 8019" d="M11.85,395.025.866,376H22.834Z" transform="translate(-0.647 -375.746)" fill="none" stroke="#f40" stroke-width="1"/>
        </g>
      </g>
      <path id="Path_8020" data-name="Path 8020" d="M55.19,320.025,44.206,301H66.174Z" transform="translate(-32.993 -281.722)" fill="#f40"/>
      <path id="Path_8021" data-name="Path 8021" d="M55.19,320.025,44.206,301H66.174Z" transform="translate(-32.993 -281.722)" fill="none" stroke="#f40" stroke-width="1"/>
      <g id="Group_3563" data-name="Group 3563">
        <g id="Group_3562" data-name="Group 3562" clip-path="url(#clip-path-2)">
          <path id="Path_8022" data-name="Path 8022" d="M11.87,301l10.984,19.025H.886Z" transform="translate(-0.661 -281.722)" fill="none" stroke="#f40" stroke-width="1"/>
          <path id="Path_8023" data-name="Path 8023" d="M358.4,395.025,347.417,376h21.968Z" transform="translate(-259.29 -375.746)" fill="none" stroke="#f40" stroke-width="1"/>
        </g>
      </g>
      <path id="Path_8024" data-name="Path 8024" d="M315.08,226l10.984,19.025H304.1Z" transform="translate(-226.958 -187.697)" fill="none" stroke="#f40" stroke-width="1"/>
      <g id="Group_3565" data-name="Group 3565">
        <g id="Group_3564" data-name="Group 3564" clip-path="url(#clip-path-2)">
          <path id="Path_8025" data-name="Path 8025" d="M315.08,376l10.984,19.025H304.1Z" transform="translate(-226.958 -375.746)" fill="none" stroke="#f40" stroke-width="1"/>
        </g>
      </g>
      <path id="Path_8026" data-name="Path 8026" d="M228.439,226l10.984,19.025H217.455Z" transform="translate(-162.294 -187.697)" fill="none" stroke="#f40" stroke-width="1"/>
      <path id="Path_8027" data-name="Path 8027" d="M271.74,301l10.984,19.025H260.756Z" transform="translate(-194.612 -281.722)" fill="none" stroke="#f40" stroke-width="1"/>
      <g id="Group_3567" data-name="Group 3567">
        <g id="Group_3566" data-name="Group 3566" clip-path="url(#clip-path-2)">
          <path id="Path_8028" data-name="Path 8028" d="M358.42,301,369.4,320.025H347.436Z" transform="translate(-259.304 -281.722)" fill="none" stroke="#f40" stroke-width="1"/>
        </g>
      </g>
      <path id="Path_8029" data-name="Path 8029" d="M315.149,170.025,304.165,151h21.968Z" transform="translate(-227.009 -93.672)" fill="none" stroke="#f40" stroke-width="1"/>
      <g id="Group_3569" data-name="Group 3569">
        <g id="Group_3568" data-name="Group 3568" clip-path="url(#clip-path-2)">
          <path id="Path_8030" data-name="Path 8030" d="M315.149,20.025,304.165,1h21.968Z" transform="translate(-227.009 94.378)" fill="none" stroke="#f40" stroke-width="1"/>
          <path id="Path_8031" data-name="Path 8031" d="M358.489,95.025,347.5,76h21.968Z" transform="translate(-259.355 0.353)" fill="none" stroke="#f40" stroke-width="1"/>
          <path id="Path_8032" data-name="Path 8032" d="M271.828,1l10.984,19.025H260.844Z" transform="translate(-194.677 94.378)" fill="none" stroke="#f40" stroke-width="1"/>
        </g>
      </g>
    </g>
  </g>
</svg>
