<svg xmlns="http://www.w3.org/2000/svg" xmlns:xlink="http://www.w3.org/1999/xlink" width="219" height="263" viewBox="0 0 219 263">
  <defs>
    <clipPath id="clip-path">
      <rect id="Rectangle_3023" data-name="Rectangle 3023" width="219" height="263" transform="translate(0 7256.363)" fill="#fff" stroke="#707070" stroke-width="1"/>
    </clipPath>
    <clipPath id="clip-path-2">
      <rect id="Rectangle_3016" data-name="Rectangle 3016" width="254.55" height="264.514" fill="none"/>
    </clipPath>
  </defs>
  <g id="Mask_Group_153" data-name="Mask Group 153" transform="translate(0 -7256.363)" clip-path="url(#clip-path)">
    <g id="Group_3570" data-name="Group 3570" transform="translate(0 7254.513)">
      <g id="Group_3557" data-name="Group 3557">
        <g id="Group_3556" data-name="Group 3556" clip-path="url(#clip-path-2)">
          <path id="Path_8011" data-name="Path 8011" d="M199.528,419.891,174.188,376h50.68Z" transform="translate(-72.252 -375.415)" fill="none" stroke="#f40" stroke-width="1"/>
        </g>
      </g>
      <path id="Path_8012" data-name="Path 8012" d="M199.528,269.891,174.188,226h50.68Z" transform="translate(-72.252 -137.634)" fill="none" stroke="#f40" stroke-width="1"/>
      <g id="Group_3559" data-name="Group 3559">
        <g id="Group_3558" data-name="Group 3558" clip-path="url(#clip-path-2)">
          <path id="Path_8013" data-name="Path 8013" d="M286.169,419.891,260.829,376h50.68Z" transform="translate(-108.19 -375.415)" fill="none" stroke="#f40" stroke-width="1"/>
          <path id="Path_8014" data-name="Path 8014" d="M112.848,419.891,87.508,376h50.68Z" transform="translate(-36.298 -375.415)" fill="none" stroke="#f40" stroke-width="1"/>
        </g>
      </g>
      <path id="Path_8015" data-name="Path 8015" d="M242.868,344.891,217.528,301h50.68Z" transform="translate(-90.229 -256.524)" fill="none" stroke="#f40" stroke-width="1"/>
      <path id="Path_8016" data-name="Path 8016" d="M156.188,344.891,130.848,301h50.68Z" transform="translate(-54.275 -256.524)" fill="none" stroke="#f40" stroke-width="1"/>
      <path id="Path_8017" data-name="Path 8017" d="M156.207,226l25.34,43.891h-50.68Z" transform="translate(-54.283 -137.634)" fill="none" stroke="#f40" stroke-width="1"/>
      <path id="Path_8018" data-name="Path 8018" d="M112.867,301l25.34,43.891H87.527Z" transform="translate(-36.306 -256.524)" fill="none" stroke="#f40" stroke-width="1"/>
      <g id="Group_3561" data-name="Group 3561">
        <g id="Group_3560" data-name="Group 3560" clip-path="url(#clip-path-2)">
          <path id="Path_8019" data-name="Path 8019" d="M26.206,419.891.866,376h50.68Z" transform="translate(-0.359 -375.415)" fill="none" stroke="#f40" stroke-width="1"/>
        </g>
      </g>
      <path id="Path_8020" data-name="Path 8020" d="M69.546,344.891,44.206,301h50.68Z" transform="translate(-18.336 -256.524)" fill="#f40"/>
      <path id="Path_8021" data-name="Path 8021" d="M69.546,344.891,44.206,301h50.68Z" transform="translate(-18.336 -256.524)" fill="none" stroke="#f40" stroke-width="1"/>
      <g id="Group_3563" data-name="Group 3563">
        <g id="Group_3562" data-name="Group 3562" clip-path="url(#clip-path-2)">
          <path id="Path_8022" data-name="Path 8022" d="M26.226,301l25.34,43.891H.886Z" transform="translate(-0.367 -256.524)" fill="none" stroke="#f40" stroke-width="1"/>
          <path id="Path_8023" data-name="Path 8023" d="M372.757,419.891,347.417,376H398.1Z" transform="translate(-144.106 -375.415)" fill="none" stroke="#f40" stroke-width="1"/>
        </g>
      </g>
      <path id="Path_8024" data-name="Path 8024" d="M329.436,226l25.34,43.891H304.1Z" transform="translate(-126.137 -137.634)" fill="none" stroke="#f40" stroke-width="1"/>
      <g id="Group_3565" data-name="Group 3565">
        <g id="Group_3564" data-name="Group 3564" clip-path="url(#clip-path-2)">
          <path id="Path_8025" data-name="Path 8025" d="M329.436,376l25.34,43.891H304.1Z" transform="translate(-126.137 -375.415)" fill="none" stroke="#f40" stroke-width="1"/>
        </g>
      </g>
      <path id="Path_8026" data-name="Path 8026" d="M242.8,226l25.34,43.891h-50.68Z" transform="translate(-90.199 -137.634)" fill="none" stroke="#f40" stroke-width="1"/>
      <path id="Path_8027" data-name="Path 8027" d="M286.1,301l25.34,43.891h-50.68Z" transform="translate(-108.16 -256.524)" fill="none" stroke="#f40" stroke-width="1"/>
      <g id="Group_3567" data-name="Group 3567">
        <g id="Group_3566" data-name="Group 3566" clip-path="url(#clip-path-2)">
          <path id="Path_8028" data-name="Path 8028" d="M372.776,301l25.34,43.891h-50.68Z" transform="translate(-144.114 -256.524)" fill="none" stroke="#f40" stroke-width="1"/>
        </g>
      </g>
      <path id="Path_8029" data-name="Path 8029" d="M329.5,194.891,304.165,151h50.68Z" transform="translate(-126.165 -18.743)" fill="none" stroke="#f40" stroke-width="1"/>
      <g id="Group_3569" data-name="Group 3569">
        <g id="Group_3568" data-name="Group 3568" clip-path="url(#clip-path-2)">
          <path id="Path_8030" data-name="Path 8030" d="M329.5,44.891,304.165,1h50.68Z" transform="translate(-126.165 219.038)" fill="none" stroke="#f40" stroke-width="1"/>
          <path id="Path_8031" data-name="Path 8031" d="M372.845,119.891,347.5,76h50.68Z" transform="translate(-144.142 100.148)" fill="none" stroke="#f40" stroke-width="1"/>
          <path id="Path_8032" data-name="Path 8032" d="M286.184,1l25.34,43.891h-50.68Z" transform="translate(-108.196 219.038)" fill="none" stroke="#f40" stroke-width="1"/>
        </g>
      </g>
    </g>
  </g>
</svg>
