<svg xmlns="http://www.w3.org/2000/svg" xmlns:xlink="http://www.w3.org/1999/xlink" width="332" height="398" viewBox="0 0 332 398">
  <defs>
    <clipPath id="clip-path">
      <rect id="Rectangle_3023" data-name="Rectangle 3023" width="332" height="398" transform="translate(0 7256.363)" fill="#fff" stroke="#707070" stroke-width="1"/>
    </clipPath>
    <clipPath id="clip-path-2">
      <rect id="Rectangle_3016" data-name="Rectangle 3016" width="385.892" height="400.998" fill="none"/>
    </clipPath>
  </defs>
  <g id="Mask_Group_153" data-name="Mask Group 153" transform="translate(0 -7256.363)" clip-path="url(#clip-path)">
    <g id="Group_3570" data-name="Group 3570" transform="translate(0 7253.559)">
      <g id="Group_3557" data-name="Group 3557">
        <g id="Group_3556" data-name="Group 3556" clip-path="url(#clip-path-2)">
          <path id="Path_8011" data-name="Path 8011" d="M212.6,442.537,174.188,376h76.83Z" transform="translate(-19.655 -375.113)" fill="none" stroke="#f40" stroke-width="1"/>
        </g>
      </g>
      <path id="Path_8012" data-name="Path 8012" d="M212.6,292.537,174.188,226h76.83Z" transform="translate(-19.655 -92.038)" fill="none" stroke="#f40" stroke-width="1"/>
      <g id="Group_3559" data-name="Group 3559">
        <g id="Group_3558" data-name="Group 3558" clip-path="url(#clip-path-2)">
          <path id="Path_8013" data-name="Path 8013" d="M299.244,442.537,260.829,376h76.83Z" transform="translate(-29.431 -375.113)" fill="none" stroke="#f40" stroke-width="1"/>
          <path id="Path_8014" data-name="Path 8014" d="M125.923,442.537,87.508,376h76.83Z" transform="translate(-9.874 -375.113)" fill="none" stroke="#f40" stroke-width="1"/>
        </g>
      </g>
      <path id="Path_8015" data-name="Path 8015" d="M255.943,367.537,217.528,301h76.83Z" transform="translate(-24.545 -233.576)" fill="none" stroke="#f40" stroke-width="1"/>
      <path id="Path_8016" data-name="Path 8016" d="M169.263,367.537,130.848,301h76.83Z" transform="translate(-14.764 -233.576)" fill="none" stroke="#f40" stroke-width="1"/>
      <path id="Path_8017" data-name="Path 8017" d="M169.282,226,207.7,292.537h-76.83Z" transform="translate(-14.767 -92.038)" fill="none" stroke="#f40" stroke-width="1"/>
      <path id="Path_8018" data-name="Path 8018" d="M125.942,301l38.415,66.537H87.527Z" transform="translate(-9.876 -233.576)" fill="none" stroke="#f40" stroke-width="1"/>
      <g id="Group_3561" data-name="Group 3561">
        <g id="Group_3560" data-name="Group 3560" clip-path="url(#clip-path-2)">
          <path id="Path_8019" data-name="Path 8019" d="M39.281,442.537.866,376H77.7Z" transform="translate(-0.098 -375.113)" fill="none" stroke="#f40" stroke-width="1"/>
        </g>
      </g>
      <path id="Path_8020" data-name="Path 8020" d="M82.621,367.537,44.206,301h76.83Z" transform="translate(-4.988 -233.576)" fill="#f40"/>
      <path id="Path_8021" data-name="Path 8021" d="M82.621,367.537,44.206,301h76.83Z" transform="translate(-4.988 -233.576)" fill="none" stroke="#f40" stroke-width="1"/>
      <g id="Group_3563" data-name="Group 3563">
        <g id="Group_3562" data-name="Group 3562" clip-path="url(#clip-path-2)">
          <path id="Path_8022" data-name="Path 8022" d="M39.3,301l38.415,66.537H.886Z" transform="translate(-0.1 -233.576)" fill="none" stroke="#f40" stroke-width="1"/>
          <path id="Path_8023" data-name="Path 8023" d="M385.832,442.537,347.417,376h76.83Z" transform="translate(-39.201 -375.113)" fill="none" stroke="#f40" stroke-width="1"/>
        </g>
      </g>
      <path id="Path_8024" data-name="Path 8024" d="M342.511,226l38.415,66.537H304.1Z" transform="translate(-34.313 -92.038)" fill="none" stroke="#f40" stroke-width="1"/>
      <g id="Group_3565" data-name="Group 3565">
        <g id="Group_3564" data-name="Group 3564" clip-path="url(#clip-path-2)">
          <path id="Path_8025" data-name="Path 8025" d="M342.511,376l38.415,66.537H304.1Z" transform="translate(-34.313 -375.113)" fill="none" stroke="#f40" stroke-width="1"/>
        </g>
      </g>
      <path id="Path_8026" data-name="Path 8026" d="M255.87,226l38.415,66.537h-76.83Z" transform="translate(-24.537 -92.038)" fill="none" stroke="#f40" stroke-width="1"/>
      <path id="Path_8027" data-name="Path 8027" d="M299.171,301l38.415,66.537h-76.83Z" transform="translate(-29.423 -233.576)" fill="none" stroke="#f40" stroke-width="1"/>
      <g id="Group_3567" data-name="Group 3567">
        <g id="Group_3566" data-name="Group 3566" clip-path="url(#clip-path-2)">
          <path id="Path_8028" data-name="Path 8028" d="M385.852,301l38.415,66.537h-76.83Z" transform="translate(-39.203 -233.576)" fill="none" stroke="#f40" stroke-width="1"/>
        </g>
      </g>
      <path id="Path_8029" data-name="Path 8029" d="M342.58,217.537,304.165,151h76.83Z" transform="translate(-34.321 49.499)" fill="none" stroke="#f40" stroke-width="1"/>
      <g id="Group_3569" data-name="Group 3569">
        <g id="Group_3568" data-name="Group 3568" clip-path="url(#clip-path-2)">
          <path id="Path_8030" data-name="Path 8030" d="M342.58,67.537,304.165,1h76.83Z" transform="translate(-34.321 332.574)" fill="none" stroke="#f40" stroke-width="1"/>
          <path id="Path_8031" data-name="Path 8031" d="M385.92,142.537,347.5,76h76.83Z" transform="translate(-39.211 191.036)" fill="none" stroke="#f40" stroke-width="1"/>
          <path id="Path_8032" data-name="Path 8032" d="M299.259,1l38.415,66.537h-76.83Z" transform="translate(-29.433 332.574)" fill="none" stroke="#f40" stroke-width="1"/>
        </g>
      </g>
    </g>
  </g>
</svg>
