<svg xmlns="http://www.w3.org/2000/svg" xmlns:xlink="http://www.w3.org/1999/xlink" width="696.159" height="615.67" viewBox="0 0 696.159 615.67">
  <defs>
    <clipPath id="clip-path">
      <path id="Path_12517" data-name="Path 12517" d="M47.1,294.452C26.441,402.479,103.282,494.646,267.9,493.965c164.65-.682,60.15,133.967,197.615,142.386S670.01,560.607,652.964,373.783,632.894-32.209,349.6,37.161C170.9,80.918,66.462,193.243,47.1,294.452Z" transform="translate(-43.808 -24.031)" fill="none"/>
    </clipPath>
  </defs>
  <g id="Stock_Market_01_Contact" transform="translate(-21.09 -24.031)">
    <g id="Group_6578" data-name="Group 6578" transform="translate(88.439 24.031)">
      <path id="Path_12508" data-name="Path 12508" d="M47.1,294.452C26.441,402.479,103.282,494.646,267.9,493.965c164.65-.682,60.15,133.967,197.615,142.386S670.01,560.607,652.964,373.783,632.894-32.209,349.6,37.161C170.9,80.918,66.462,193.243,47.1,294.452Z" transform="translate(-43.808 -24.031)" fill="#e6ebf0"/>
      <path id="Path_12509" data-name="Path 12509" d="M96.466,199.124c51.049-12.421,151.369-22.856,183.5,24.813s.178,65.16-57.66,42.126S26,216.259,96.466,199.124Z" transform="translate(21.261 299.388)" fill="#e6ebf0"/>
      <g id="Group_6577" data-name="Group 6577" clip-path="url(#clip-path)">
        <g id="Group_6573" data-name="Group 6573" transform="translate(11.982 35.75)">
          <g id="Group_6567" data-name="Group 6567" transform="translate(105.715)">
            <path id="Path_12510" data-name="Path 12510" d="M130.32,168.575V145.659h38.005V36.09h10.494V145.659h40.94v22.916H241.7V627.957H83.51V168.575Z" transform="translate(-83.51 -36.09)" fill="#c6d0db"/>
            <rect id="Rectangle_5591" data-name="Rectangle 5591" width="21.937" height="413.225" transform="translate(0 132.485)" fill="#aab6c2"/>
          </g>
          <g id="Group_6568" data-name="Group 6568" transform="translate(184.808 241.905)">
            <rect id="Rectangle_5592" data-name="Rectangle 5592" width="158.217" height="349.962" fill="#c6d0db"/>
            <rect id="Rectangle_5593" data-name="Rectangle 5593" width="21.937" height="349.962" fill="#aab6c2"/>
            <rect id="Rectangle_5594" data-name="Rectangle 5594" width="22.708" height="9.427" transform="translate(113.423 14.912)" fill="#aab6c2"/>
            <rect id="Rectangle_5595" data-name="Rectangle 5595" width="22.708" height="9.427" transform="translate(75.21 14.912)" fill="#aab6c2"/>
            <rect id="Rectangle_5596" data-name="Rectangle 5596" width="22.708" height="9.427" transform="translate(113.423 49.211)" fill="#aab6c2"/>
            <rect id="Rectangle_5597" data-name="Rectangle 5597" width="22.708" height="9.427" transform="translate(75.21 49.211)" fill="#aab6c2"/>
            <rect id="Rectangle_5598" data-name="Rectangle 5598" width="22.708" height="9.427" transform="translate(36.997 49.211)" fill="#aab6c2"/>
            <rect id="Rectangle_5599" data-name="Rectangle 5599" width="22.708" height="9.427" transform="translate(113.423 83.54)" fill="#aab6c2"/>
            <rect id="Rectangle_5600" data-name="Rectangle 5600" width="22.708" height="9.427" transform="translate(36.997 83.54)" fill="#aab6c2"/>
            <rect id="Rectangle_5601" data-name="Rectangle 5601" width="22.708" height="9.427" transform="translate(75.21 100.675)" fill="#aab6c2"/>
            <rect id="Rectangle_5602" data-name="Rectangle 5602" width="22.708" height="9.427" transform="translate(113.423 117.84)" fill="#aab6c2"/>
            <rect id="Rectangle_5603" data-name="Rectangle 5603" width="22.708" height="9.427" transform="translate(75.21 134.975)" fill="#aab6c2"/>
            <rect id="Rectangle_5604" data-name="Rectangle 5604" width="22.708" height="9.427" transform="translate(113.423 152.139)" fill="#aab6c2"/>
            <rect id="Rectangle_5605" data-name="Rectangle 5605" width="22.708" height="9.427" transform="translate(36.997 152.139)" fill="#aab6c2"/>
            <rect id="Rectangle_5606" data-name="Rectangle 5606" width="22.708" height="9.427" transform="translate(113.423 183.83)" fill="#aab6c2"/>
            <rect id="Rectangle_5607" data-name="Rectangle 5607" width="22.708" height="9.427" transform="translate(75.21 183.83)" fill="#aab6c2"/>
            <rect id="Rectangle_5608" data-name="Rectangle 5608" width="22.708" height="9.427" transform="translate(113.423 218.159)" fill="#aab6c2"/>
            <rect id="Rectangle_5609" data-name="Rectangle 5609" width="22.708" height="9.427" transform="translate(75.21 218.159)" fill="#aab6c2"/>
            <rect id="Rectangle_5610" data-name="Rectangle 5610" width="22.708" height="9.427" transform="translate(36.997 218.159)" fill="#aab6c2"/>
            <rect id="Rectangle_5611" data-name="Rectangle 5611" width="22.708" height="9.427" transform="translate(113.423 252.459)" fill="#aab6c2"/>
            <rect id="Rectangle_5612" data-name="Rectangle 5612" width="22.708" height="9.427" transform="translate(36.997 252.459)" fill="#aab6c2"/>
            <rect id="Rectangle_5613" data-name="Rectangle 5613" width="22.708" height="9.427" transform="translate(75.21 269.594)" fill="#aab6c2"/>
            <rect id="Rectangle_5614" data-name="Rectangle 5614" width="22.708" height="9.427" transform="translate(36.997 269.594)" fill="#aab6c2"/>
            <rect id="Rectangle_5615" data-name="Rectangle 5615" width="22.708" height="9.427" transform="translate(113.423 286.758)" fill="#aab6c2"/>
            <rect id="Rectangle_5616" data-name="Rectangle 5616" width="22.708" height="9.427" transform="translate(75.21 303.923)" fill="#aab6c2"/>
            <rect id="Rectangle_5617" data-name="Rectangle 5617" width="22.708" height="9.427" transform="translate(113.423 321.058)" fill="#aab6c2"/>
            <rect id="Rectangle_5618" data-name="Rectangle 5618" width="22.708" height="9.427" transform="translate(36.997 321.058)" fill="#aab6c2"/>
          </g>
          <g id="Group_6569" data-name="Group 6569" transform="translate(563.348 241.905)">
            <rect id="Rectangle_5619" data-name="Rectangle 5619" width="158.217" height="349.932" fill="#c6d0db"/>
            <rect id="Rectangle_5620" data-name="Rectangle 5620" width="21.937" height="349.932" fill="#aab6c2"/>
          </g>
          <g id="Group_6570" data-name="Group 6570" transform="translate(338.608 75.447)">
            <rect id="Rectangle_5621" data-name="Rectangle 5621" width="212.26" height="516.39" fill="#c6d0db"/>
            <rect id="Rectangle_5622" data-name="Rectangle 5622" width="21.937" height="516.39" fill="#aab6c2"/>
            <rect id="Rectangle_5623" data-name="Rectangle 5623" width="33.143" height="13.755" transform="translate(156.764 24.754)" fill="#aab6c2"/>
            <rect id="Rectangle_5624" data-name="Rectangle 5624" width="33.143" height="13.755" transform="translate(100.942 24.754)" fill="#aab6c2"/>
            <rect id="Rectangle_5625" data-name="Rectangle 5625" width="33.143" height="13.755" transform="translate(156.764 74.854)" fill="#aab6c2"/>
            <rect id="Rectangle_5626" data-name="Rectangle 5626" width="33.143" height="13.755" transform="translate(100.942 74.854)" fill="#aab6c2"/>
            <rect id="Rectangle_5627" data-name="Rectangle 5627" width="33.143" height="13.755" transform="translate(45.12 74.854)" fill="#aab6c2"/>
            <rect id="Rectangle_5628" data-name="Rectangle 5628" width="33.143" height="13.755" transform="translate(156.764 124.955)" fill="#aab6c2"/>
            <rect id="Rectangle_5629" data-name="Rectangle 5629" width="33.143" height="13.755" transform="translate(45.12 124.955)" fill="#aab6c2"/>
            <rect id="Rectangle_5630" data-name="Rectangle 5630" width="33.143" height="13.755" transform="translate(100.942 149.975)" fill="#aab6c2"/>
            <rect id="Rectangle_5631" data-name="Rectangle 5631" width="33.143" height="13.755" transform="translate(156.764 175.025)" fill="#aab6c2"/>
            <rect id="Rectangle_5632" data-name="Rectangle 5632" width="33.143" height="13.755" transform="translate(100.942 200.076)" fill="#aab6c2"/>
            <rect id="Rectangle_5633" data-name="Rectangle 5633" width="33.143" height="13.755" transform="translate(156.764 225.126)" fill="#aab6c2"/>
            <rect id="Rectangle_5634" data-name="Rectangle 5634" width="33.143" height="13.755" transform="translate(45.12 225.126)" fill="#aab6c2"/>
            <rect id="Rectangle_5635" data-name="Rectangle 5635" width="33.143" height="13.755" transform="translate(156.764 271.432)" fill="#aab6c2"/>
            <rect id="Rectangle_5636" data-name="Rectangle 5636" width="33.143" height="13.755" transform="translate(100.942 271.432)" fill="#aab6c2"/>
            <rect id="Rectangle_5637" data-name="Rectangle 5637" width="33.143" height="13.755" transform="translate(156.764 321.532)" fill="#aab6c2"/>
            <rect id="Rectangle_5638" data-name="Rectangle 5638" width="33.143" height="13.755" transform="translate(100.942 321.532)" fill="#aab6c2"/>
            <rect id="Rectangle_5639" data-name="Rectangle 5639" width="33.143" height="13.755" transform="translate(45.12 321.532)" fill="#aab6c2"/>
            <rect id="Rectangle_5640" data-name="Rectangle 5640" width="33.143" height="13.755" transform="translate(156.764 371.633)" fill="#aab6c2"/>
            <rect id="Rectangle_5641" data-name="Rectangle 5641" width="33.143" height="13.755" transform="translate(45.12 371.633)" fill="#aab6c2"/>
            <rect id="Rectangle_5642" data-name="Rectangle 5642" width="33.143" height="13.755" transform="translate(100.942 396.653)" fill="#aab6c2"/>
            <rect id="Rectangle_5643" data-name="Rectangle 5643" width="33.143" height="13.755" transform="translate(45.12 396.653)" fill="#aab6c2"/>
            <rect id="Rectangle_5644" data-name="Rectangle 5644" width="33.143" height="13.755" transform="translate(156.764 421.703)" fill="#aab6c2"/>
            <rect id="Rectangle_5645" data-name="Rectangle 5645" width="33.143" height="13.755" transform="translate(100.942 446.754)" fill="#aab6c2"/>
            <rect id="Rectangle_5646" data-name="Rectangle 5646" width="33.143" height="13.755" transform="translate(156.764 471.804)" fill="#aab6c2"/>
            <rect id="Rectangle_5647" data-name="Rectangle 5647" width="33.143" height="13.755" transform="translate(45.12 471.804)" fill="#aab6c2"/>
          </g>
          <g id="Group_6571" data-name="Group 6571" transform="translate(672.324 113.956)">
            <rect id="Rectangle_5648" data-name="Rectangle 5648" width="208.05" height="477.911" fill="#c6d0db"/>
            <rect id="Rectangle_5649" data-name="Rectangle 5649" width="21.493" height="477.911" fill="#aab6c2"/>
          </g>
          <g id="Group_6572" data-name="Group 6572" transform="translate(0 265.888)">
            <rect id="Rectangle_5650" data-name="Rectangle 5650" width="133.996" height="325.979" fill="#c6d0db"/>
            <rect id="Rectangle_5651" data-name="Rectangle 5651" width="13.844" height="325.979" fill="#aab6c2"/>
            <rect id="Rectangle_5652" data-name="Rectangle 5652" width="20.93" height="8.686" transform="translate(98.956 15.623)" fill="#aab6c2"/>
            <rect id="Rectangle_5653" data-name="Rectangle 5653" width="20.93" height="8.686" transform="translate(63.708 15.623)" fill="#aab6c2"/>
            <rect id="Rectangle_5654" data-name="Rectangle 5654" width="20.93" height="8.686" transform="translate(98.956 47.255)" fill="#aab6c2"/>
            <rect id="Rectangle_5655" data-name="Rectangle 5655" width="20.93" height="8.686" transform="translate(63.708 47.255)" fill="#aab6c2"/>
            <rect id="Rectangle_5656" data-name="Rectangle 5656" width="20.93" height="8.686" transform="translate(28.489 47.255)" fill="#aab6c2"/>
            <rect id="Rectangle_5657" data-name="Rectangle 5657" width="20.93" height="8.686" transform="translate(98.956 78.856)" fill="#aab6c2"/>
            <rect id="Rectangle_5658" data-name="Rectangle 5658" width="20.93" height="8.686" transform="translate(28.489 78.856)" fill="#aab6c2"/>
            <rect id="Rectangle_5659" data-name="Rectangle 5659" width="20.93" height="8.686" transform="translate(63.708 94.687)" fill="#aab6c2"/>
            <rect id="Rectangle_5660" data-name="Rectangle 5660" width="20.93" height="8.686" transform="translate(98.956 110.488)" fill="#aab6c2"/>
            <rect id="Rectangle_5661" data-name="Rectangle 5661" width="20.93" height="8.686" transform="translate(63.708 126.289)" fill="#aab6c2"/>
            <rect id="Rectangle_5662" data-name="Rectangle 5662" width="20.93" height="8.686" transform="translate(98.956 142.119)" fill="#aab6c2"/>
            <rect id="Rectangle_5663" data-name="Rectangle 5663" width="20.93" height="8.686" transform="translate(28.489 142.119)" fill="#aab6c2"/>
            <rect id="Rectangle_5664" data-name="Rectangle 5664" width="20.93" height="8.686" transform="translate(98.956 171.32)" fill="#aab6c2"/>
            <rect id="Rectangle_5665" data-name="Rectangle 5665" width="20.93" height="8.686" transform="translate(63.708 171.32)" fill="#aab6c2"/>
            <rect id="Rectangle_5666" data-name="Rectangle 5666" width="20.93" height="8.686" transform="translate(98.956 202.951)" fill="#aab6c2"/>
            <rect id="Rectangle_5667" data-name="Rectangle 5667" width="20.93" height="8.686" transform="translate(63.708 202.951)" fill="#aab6c2"/>
            <rect id="Rectangle_5668" data-name="Rectangle 5668" width="20.93" height="8.686" transform="translate(28.489 202.951)" fill="#aab6c2"/>
            <rect id="Rectangle_5669" data-name="Rectangle 5669" width="20.93" height="8.686" transform="translate(98.956 234.583)" fill="#aab6c2"/>
            <rect id="Rectangle_5670" data-name="Rectangle 5670" width="20.93" height="8.686" transform="translate(28.489 234.583)" fill="#aab6c2"/>
            <rect id="Rectangle_5671" data-name="Rectangle 5671" width="20.93" height="8.686" transform="translate(63.708 250.384)" fill="#aab6c2"/>
            <rect id="Rectangle_5672" data-name="Rectangle 5672" width="20.93" height="8.686" transform="translate(28.489 250.384)" fill="#aab6c2"/>
            <rect id="Rectangle_5673" data-name="Rectangle 5673" width="20.93" height="8.686" transform="translate(98.956 266.185)" fill="#aab6c2"/>
            <rect id="Rectangle_5674" data-name="Rectangle 5674" width="20.93" height="8.686" transform="translate(63.708 282.015)" fill="#aab6c2"/>
            <rect id="Rectangle_5675" data-name="Rectangle 5675" width="20.93" height="8.686" transform="translate(98.956 297.816)" fill="#aab6c2"/>
            <rect id="Rectangle_5676" data-name="Rectangle 5676" width="20.93" height="8.686" transform="translate(28.489 297.816)" fill="#aab6c2"/>
          </g>
        </g>
        <g id="Group_6576" data-name="Group 6576" transform="translate(-78.199 -60.034)">
          <g id="Group_6574" data-name="Group 6574" transform="translate(6.225 12.807)">
            <rect id="Rectangle_5677" data-name="Rectangle 5677" width="567.825" height="647.422" fill="#fff" opacity="0.35"/>
            <path id="Path_12511" data-name="Path 12511" d="M114.663,638.931H70.61L306.853,10.6h44.082Z" transform="translate(80.818 -3.189)" fill="#fff" opacity="0.5"/>
            <path id="Path_12512" data-name="Path 12512" d="M73.816,638.931H51.79L288.033,10.6h22.056Z" transform="translate(43.846 -3.189)" fill="#fff" opacity="0.5"/>
            <path id="Path_12513" data-name="Path 12513" d="M162.6,594.238H140.54L343.106,33.35V78.559Z" transform="translate(218.197 41.504)" fill="#fff" opacity="0.5"/>
          </g>
          <g id="Group_6575" data-name="Group 6575" transform="translate(571.115 0)">
            <rect id="Rectangle_5678" data-name="Rectangle 5678" width="567.825" height="647.422" transform="translate(5.929)" fill="#fff" opacity="0.35"/>
            <path id="Path_12514" data-name="Path 12514" d="M272.972,638.931H228.89L465.162,10.6h44.053Z" transform="translate(-173.127 9.618)" fill="#fff" opacity="0.5"/>
            <path id="Path_12515" data-name="Path 12515" d="M232.106,638.931H210.08L446.323,10.6h22.027Z" transform="translate(-210.08 9.618)" fill="#fff" opacity="0.5"/>
          </g>
          <path id="Path_12516" data-name="Path 12516" d="M1185.986,129.784v-7.411h-20.4V5.6H17.43V20.423H29.792V25.64H395.97v96.732H17.43v7.411H396V319.928H17.43v7.411H396V517.455H17.43v7.411H396V648.753H29.94v4.269H17.46v17.135H1165.59v-1.364h0V524.866h20.4v-7.411h-20.4V327.31h20.4V319.9h-20.4V129.784ZM597.765,327.31H774.628V517.425H597.765Zm0-7.411V129.784H774.628V319.928H597.765Zm0-197.526V25.64H774.628v96.732H597.765Zm0,402.493H774.628V648.753h-176.8v4.269h-.059V524.866ZM787.05,648.753V524.866H963.913V648.753Zm0-131.3V327.31H963.913V517.425H787.05Zm0-197.526V129.784H963.913V319.928H787.05Zm0-197.526V25.64H963.913v96.732H787.05ZM976.335,25.67H1153.2v96.7H976.335V25.64Zm-567.884,0H585.314v96.7H408.451V25.64Zm0,104.144H585.314V319.928H408.451V129.784Zm0,197.526H585.314V517.455H408.451V327.31Zm0,197.526H585.314V653.022h-.059v-4.269h-176.8ZM1153.2,653.022h-.059v-4.269h-176.8V524.866H1153.2Zm0-135.568H976.335V327.31H1153.2V517.425Zm0-197.526H976.335V129.784H1153.2V319.928Z" transform="translate(-17.43 -0.205)" fill="#fff"/>
        </g>
      </g>
    </g>
    <g id="Group_6606" data-name="Group 6606" transform="translate(200.77 93.695)">
      <g id="Group_6584" data-name="Group 6584" transform="translate(311.542 28.993)">
        <g id="Group_6582" data-name="Group 6582">
          <g id="Group_6579" data-name="Group 6579" transform="translate(0.03)">
            <path id="Path_12518" data-name="Path 12518" d="M192.889,248.988A5.965,5.965,0,0,1,186.93,243V65.187a7.743,7.743,0,0,1,7.737-7.737H383.33a7.743,7.743,0,0,1,7.737,7.737V243.029a5.991,5.991,0,0,1-5.988,5.988H192.889Z" transform="translate(-186.545 -57.035)" fill="#fff"/>
            <path id="Path_12519" data-name="Path 12519" d="M383.585,58.11a7.344,7.344,0,0,1,7.352,7.322V243.275a5.586,5.586,0,0,1-5.573,5.573H193.174a5.586,5.586,0,0,1-5.573-5.573V65.462a7.345,7.345,0,0,1,7.322-7.352H383.585Zm0-.771H194.923a8.135,8.135,0,0,0-8.123,8.123V243.3a6.358,6.358,0,0,0,6.344,6.374h192.19a6.364,6.364,0,0,0,6.374-6.374V65.433a8.135,8.135,0,0,0-8.123-8.123h0Z" transform="translate(-186.8 -57.31)"/>
          </g>
          <path id="Path_12520" data-name="Path 12520" d="M391.727,85.305H186.79V65.443a8.135,8.135,0,0,1,8.123-8.123H383.575a8.135,8.135,0,0,1,8.123,8.123V85.305Z" transform="translate(-186.79 -57.29)"/>
          <g id="Group_6581" data-name="Group 6581" transform="translate(11.71 9.694)">
            <path id="Path_12521" data-name="Path 12521" d="M201.9,64.879a4.3,4.3,0,1,1,4.3,4.3A4.3,4.3,0,0,1,201.9,64.879Z" transform="translate(-168.816 -60.58)" fill="#aab6c2"/>
            <path id="Path_12522" data-name="Path 12522" d="M196.32,64.879a4.3,4.3,0,1,1,4.3,4.3A4.3,4.3,0,0,1,196.32,64.879Z" transform="translate(-179.778 -60.58)" fill="#f40"/>
            <g id="Group_6580" data-name="Group 6580" transform="translate(0 0.03)">
              <path id="Path_12523" data-name="Path 12523" d="M194.783,68.536a3.913,3.913,0,1,1,3.913-3.913A3.91,3.91,0,0,1,194.783,68.536Z" transform="translate(-190.485 -60.354)" fill="#fff"/>
              <path id="Path_12524" data-name="Path 12524" d="M195.039,61.361a3.528,3.528,0,1,1-3.528,3.528,3.536,3.536,0,0,1,3.528-3.528Zm0-.771a4.3,4.3,0,1,0,4.3,4.3,4.3,4.3,0,0,0-4.3-4.3Z" transform="translate(-190.74 -60.59)"/>
            </g>
          </g>
        </g>
        <g id="Group_6583" data-name="Group 6583" transform="translate(44.764 45.328)">
          <path id="Path_12525" data-name="Path 12525" d="M274.844,125.165a80.293,80.293,0,0,0-6.937-6.907c-4.032-3.557-9.19-3.291-13.074.415-.889.86-1.779,1.749-2.638,2.638-.445.474-.682.445-1.126,0q-7.159-7.2-14.378-14.378c-.415-.415-.415-.652,0-1.038.919-.86,1.779-1.749,2.638-2.638,3.735-3.854,4-9.042.474-13.074a76.269,76.269,0,0,0-6.907-6.937c-4.091-3.617-9.309-3.35-13.222.474-1.6,1.571-3.142,3.2-4.743,4.743-3.5,3.35-4.98,7.5-4.951,12.629a15.426,15.426,0,0,0,.119,2.134,39.656,39.656,0,0,0,5.425,15.416,65.575,65.575,0,0,0,21.937,22.679c5.336,3.38,11.028,5.959,17.4,6.581,5.188.534,10.02-.326,13.963-4.121,1.9-1.838,3.765-3.676,5.6-5.6,3.676-3.854,3.913-9.071.356-13.074Zm-5.188,8.567c-1.482,1.512-3.053,2.965-4.506,4.536a9.289,9.289,0,0,1-6.552,3.261,26.04,26.04,0,0,1-11.176-2.372,57.1,57.1,0,0,1-27.54-26.384,25.825,25.825,0,0,1-3.261-12.747,9.376,9.376,0,0,1,2.816-6.7c1.6-1.542,3.172-3.172,4.743-4.743,1.66-1.63,3.142-1.66,4.773-.03,1.9,1.9,3.795,3.765,5.662,5.662a2.85,2.85,0,0,1,0,4.447c-1.69,1.719-3.409,3.409-5.129,5.129-1.749,1.749-1.749,3.557,0,5.277q9.739,9.783,19.507,19.507c1.719,1.719,3.528,1.69,5.277-.059l4.891-4.891c1.69-1.69,3.142-1.69,4.832,0l5.6,5.6a2.874,2.874,0,0,1,0,4.506Z" transform="translate(-185.997 -56.714)" fill="#f40"/>
          <path id="Path_12526" data-name="Path 12526" d="M259.609,188.039a57.719,57.719,0,1,1,57.719-57.719A57.788,57.788,0,0,1,259.609,188.039Zm0-108.146a50.4,50.4,0,1,0,50.4,50.4A50.45,50.45,0,0,0,259.609,79.893Z" transform="translate(-201.89 -72.6)" fill="#f40"/>
        </g>
      </g>
      <g id="Group_6589" data-name="Group 6589" transform="translate(89.944)">
        <g id="Group_6588" data-name="Group 6588">
          <g id="Group_6585" data-name="Group 6585">
            <path id="Path_12527" data-name="Path 12527" d="M119.315,276.255a7.142,7.142,0,0,1-7.115-7.145V56.91a9.23,9.23,0,0,1,9.22-9.22H346.575a9.23,9.23,0,0,1,9.22,9.22V269.14a7.148,7.148,0,0,1-7.145,7.145H119.315Z" transform="translate(-111.726 -47.216)" fill="#fff"/>
            <path id="Path_12528" data-name="Path 12528" d="M346.89,48.479a8.768,8.768,0,0,1,8.775,8.745v212.23a6.68,6.68,0,0,1-6.67,6.67H119.629a6.655,6.655,0,0,1-6.641-6.67V57.224a8.768,8.768,0,0,1,8.745-8.775H346.89Zm0-.949H121.734a9.7,9.7,0,0,0-9.694,9.694v212.23a7.6,7.6,0,0,0,7.589,7.589H348.994a7.6,7.6,0,0,0,7.589-7.589V57.224a9.717,9.717,0,0,0-9.694-9.694Z" transform="translate(-112.04 -47.53)"/>
          </g>
          <path id="Path_12529" data-name="Path 12529" d="M356.583,80.94H112.04V57.224a9.679,9.679,0,0,1,9.694-9.694H346.89a9.679,9.679,0,0,1,9.694,9.694Z" transform="translate(-112.04 -47.53)"/>
          <g id="Group_6587" data-name="Group 6587" transform="translate(13.963 11.562)">
            <path id="Path_12530" data-name="Path 12530" d="M130.07,56.569A5.129,5.129,0,1,1,135.2,61.7,5.111,5.111,0,0,1,130.07,56.569Z" transform="translate(-90.583 -51.41)" fill="#aab6c2"/>
            <path id="Path_12531" data-name="Path 12531" d="M123.41,56.569a5.129,5.129,0,1,1,5.129,5.129A5.13,5.13,0,0,1,123.41,56.569Z" transform="translate(-103.666 -51.41)" fill="#f40"/>
            <g id="Group_6586" data-name="Group 6586">
              <path id="Path_12532" data-name="Path 12532" d="M121.564,60.909a4.654,4.654,0,1,1,4.654-4.654A4.662,4.662,0,0,1,121.564,60.909Z" transform="translate(-116.436 -51.096)" fill="#fff"/>
              <path id="Path_12533" data-name="Path 12533" d="M121.879,52.379a4.18,4.18,0,1,1-4.18,4.18,4.175,4.175,0,0,1,4.18-4.18Zm0-.949a5.129,5.129,0,1,0,5.129,5.129,5.13,5.13,0,0,0-5.129-5.129Z" transform="translate(-116.75 -51.43)"/>
            </g>
          </g>
        </g>
        <path id="Path_12534" data-name="Path 12534" d="M267.554,158.422c-.8,1.927-1.3,4.032-2.431,5.722-2.223,3.35-5.633,4.832-9.605,5.01H142.955a12.29,12.29,0,0,1-10.376-4.862,12.053,12.053,0,0,1-2.461-7.5q0-35.974,0-71.919c0-7.263,5.336-12.362,12.688-12.362H254.688c5.247,0,9.249,2.164,11.591,6.937a23.587,23.587,0,0,1,1.215,3.795v75.151ZM143.993,80.6c.415.445.623.682.86.949q22.5,22.367,45,44.764c5.4,5.336,12.57,5.306,17.995-.089q22.412-22.278,44.824-44.586c.3-.3.534-.623.949-1.038H143.993Zm.771,80.4H252.85c-11.087-11.295-22.412-22.856-33.884-34.566-1.986,2.016-3.795,3.943-5.662,5.751-5.692,5.514-12.392,7.352-20.1,5.306a19.765,19.765,0,0,1-9.042-5.514c-1.779-1.808-3.557-3.617-5.484-5.573-11.5,11.71-22.8,23.271-33.914,34.566ZM172.1,121.069c-11.176-11.354-22.53-22.886-33.825-34.359v68.807C149.862,143.718,161.187,132.156,172.1,121.069Zm87.365-34.448s-.208-.119-.3-.178l-34.181,34.715q16.987,16.9,34.477,34.24V86.651Z" transform="translate(-76.55 1.544)" fill="#f40"/>
      </g>
      <g id="Group_6594" data-name="Group 6594" transform="translate(0 108.175)">
        <g id="Group_6593" data-name="Group 6593">
          <g id="Group_6590" data-name="Group 6590">
            <path id="Path_12535" data-name="Path 12535" d="M85.664,208.65a3.9,3.9,0,0,1-3.884-3.884V89.15a5.035,5.035,0,0,1,5.04-5.04H209.492a5.035,5.035,0,0,1,5.04,5.04V204.766a3.9,3.9,0,0,1-3.884,3.884H85.693Z" transform="translate(-81.543 -83.843)" fill="#fff"/>
            <path id="Path_12536" data-name="Path 12536" d="M209.649,84.524a4.77,4.77,0,0,1,4.773,4.773V204.913a3.612,3.612,0,0,1-3.617,3.617H85.85a3.631,3.631,0,0,1-3.617-3.617V89.3a4.77,4.77,0,0,1,4.773-4.773H209.678Zm0-.5H86.977A5.289,5.289,0,0,0,81.7,89.3V204.913a4.137,4.137,0,0,0,4.121,4.15H210.775a4.163,4.163,0,0,0,4.15-4.15V89.3a5.289,5.289,0,0,0-5.277-5.277Z" transform="translate(-81.7 -84.02)"/>
          </g>
          <path id="Path_12537" data-name="Path 12537" d="M214.926,102.222H81.7V89.3a5.289,5.289,0,0,1,5.277-5.277H209.649a5.289,5.289,0,0,1,5.277,5.277Z" transform="translate(-81.7 -84.02)"/>
          <g id="Group_6592" data-name="Group 6592" transform="translate(7.589 6.314)">
            <path id="Path_12538" data-name="Path 12538" d="M91.52,88.937a2.787,2.787,0,1,1,2.787,2.787A2.783,2.783,0,0,1,91.52,88.937Z" transform="translate(-69.998 -86.15)" fill="#aab6c2"/>
            <path id="Path_12539" data-name="Path 12539" d="M87.89,88.937a2.787,2.787,0,1,1,2.787,2.787A2.783,2.783,0,0,1,87.89,88.937Z" transform="translate(-77.129 -86.15)" fill="#f40"/>
            <g id="Group_6591" data-name="Group 6591" transform="translate(0 0)">
              <path id="Path_12540" data-name="Path 12540" d="M86.889,91.329a2.549,2.549,0,1,1,2.549-2.549A2.549,2.549,0,0,1,86.889,91.329Z" transform="translate(-84.103 -85.993)" fill="#fff"/>
              <path id="Path_12541" data-name="Path 12541" d="M87.047,86.654a2.283,2.283,0,1,1-2.283,2.283,2.284,2.284,0,0,1,2.283-2.283Zm0-.5a2.787,2.787,0,1,0,2.787,2.787,2.783,2.783,0,0,0-2.787-2.787Z" transform="translate(-84.26 -86.15)"/>
            </g>
          </g>
        </g>
        <path id="Path_12542" data-name="Path 12542" d="M121.926,152.443a26.96,26.96,0,0,1-27.1-27.362c0-15.267,11.858-27.54,27.1-27.54s28.311,11.236,28.311,26.473c0,7.411-3.2,18.439-12.3,18.439-4.832,0-9.546-2.52-9.546-9.783v-7.915a7.115,7.115,0,1,0-7.085,7.085,10.091,10.091,0,0,0,4.714-1.245v6.018a11.658,11.658,0,0,1-4.714,1.008,12.9,12.9,0,1,1,12.985-13.429v8.775a3.522,3.522,0,0,0,3.646,3.884c5.336,0,6.4-8.152,6.4-12.866,0-11.977-10.287-20.722-22.412-20.722s-21.345,9.842-21.345,21.76a21.226,21.226,0,0,0,21.345,21.463h3.528v5.9h-3.528Z" transform="translate(-55.906 -57.46)" fill="#f40"/>
        <path id="Path_12543" data-name="Path 12543" d="M130.072,173.145a39.9,39.9,0,1,1,39.9-39.9A39.955,39.955,0,0,1,130.072,173.145Zm0-76.929A37.027,37.027,0,1,0,167.1,133.242,37.057,37.057,0,0,0,130.072,96.216Z" transform="translate(-65.061 -65.711)" fill="#f40"/>
      </g>
      <g id="Group_6600" data-name="Group 6600" transform="translate(288.656 175.203)">
        <g id="Group_6598" data-name="Group 6598">
          <g id="Group_6595" data-name="Group 6595">
            <path id="Path_12544" data-name="Path 12544" d="M185.169,298.317a5.965,5.965,0,0,1-5.959-5.988V114.487a7.743,7.743,0,0,1,7.737-7.737H375.61a7.743,7.743,0,0,1,7.737,7.737V292.329a5.991,5.991,0,0,1-5.988,5.988Z" transform="translate(-178.795 -106.394)" fill="#fff"/>
            <path id="Path_12545" data-name="Path 12545" d="M375.855,107.4a7.344,7.344,0,0,1,7.352,7.322V292.565a5.586,5.586,0,0,1-5.573,5.573H185.444a5.586,5.586,0,0,1-5.573-5.573V114.723a7.345,7.345,0,0,1,7.322-7.352H375.855Zm0-.771H187.193a8.135,8.135,0,0,0-8.123,8.123V292.595a6.358,6.358,0,0,0,6.344,6.374H377.6a6.364,6.364,0,0,0,6.374-6.374V114.753a8.135,8.135,0,0,0-8.123-8.123h0Z" transform="translate(-179.07 -106.63)"/>
          </g>
          <path id="Path_12546" data-name="Path 12546" d="M384.007,134.615H179.07V114.753a8.135,8.135,0,0,1,8.123-8.123H375.855a8.135,8.135,0,0,1,8.123,8.123v19.862Z" transform="translate(-179.07 -106.63)"/>
          <g id="Group_6597" data-name="Group 6597" transform="translate(11.68 9.694)">
            <path id="Path_12547" data-name="Path 12547" d="M194.18,114.2a4.3,4.3,0,1,1,4.3,4.3A4.3,4.3,0,0,1,194.18,114.2Z" transform="translate(-161.066 -109.9)" fill="#aab6c2"/>
            <path id="Path_12548" data-name="Path 12548" d="M188.6,114.2a4.3,4.3,0,1,1,4.3,4.3A4.3,4.3,0,0,1,188.6,114.2Z" transform="translate(-172.028 -109.9)" fill="#f40"/>
            <g id="Group_6596" data-name="Group 6596">
              <path id="Path_12549" data-name="Path 12549" d="M187.053,117.856a3.913,3.913,0,1,1,3.913-3.913A3.909,3.909,0,0,1,187.053,117.856Z" transform="translate(-182.755 -109.645)" fill="#fff"/>
              <path id="Path_12550" data-name="Path 12550" d="M187.309,110.671a3.528,3.528,0,1,1-3.528,3.528,3.536,3.536,0,0,1,3.528-3.528Zm0-.771a4.3,4.3,0,1,0,4.3,4.3,4.3,4.3,0,0,0-4.3-4.3Z" transform="translate(-183.01 -109.9)"/>
            </g>
          </g>
        </g>
        <g id="Group_6599" data-name="Group 6599" transform="translate(52.769 48.915)">
          <path id="Path_12551" data-name="Path 12551" d="M260.607,178.359v46.78a8.007,8.007,0,0,1-6.789,8.33,10.581,10.581,0,0,1-1.69.089h-46.78a8.053,8.053,0,0,1-8.479-8.449v-93.56c0-5.01,3.468-8.419,8.508-8.419H252.04c5.218,0,8.538,3.32,8.538,8.538v46.662Zm-4.506,0v-46.9a3.544,3.544,0,0,0-3.824-3.854c-1.986,0-3.972.089-5.959-.03a1.8,1.8,0,0,0-2.223,1.63c-.385,1.6-1.1,2.016-2.757,2.016H216.11a2.3,2.3,0,0,1-2.638-1.749,5.833,5.833,0,0,1-.3-.949c-.148-.711-.534-.919-1.245-.889-2.046.059-4.121,0-6.166,0-3.053,0-4.387,1.334-4.387,4.358v92.76c0,2.965,1.364,4.3,4.328,4.3,15.356,0,30.742-.03,46.1.03a4.043,4.043,0,0,0,4.358-4.3c-.089-15.475-.03-30.95-.03-46.454Z" transform="translate(-196.87 -123.13)"/>
          <path id="Path_12552" data-name="Path 12552" d="M241.952,164.71a43.727,43.727,0,0,0-12.362-30.3,7.717,7.717,0,0,1-.8-.919,2.151,2.151,0,0,1,.237-3.113,2.123,2.123,0,0,1,3.024.089,44.655,44.655,0,0,1,4.891,5.692,47.782,47.782,0,0,1,9.1,22.5,48.567,48.567,0,0,1-11.5,38.746c-.741.889-1.542,1.749-2.342,2.549a2.188,2.188,0,0,1-3.2.178,2.079,2.079,0,0,1-.089-3.172,55.373,55.373,0,0,0,6.255-7.886,44.189,44.189,0,0,0,6.522-18.647c.208-1.719.178-3.439.3-5.662Z" transform="translate(-135.288 -110.044)" fill="#f40"/>
          <path id="Path_12553" data-name="Path 12553" d="M238.839,158.543a34.539,34.539,0,0,1-9.99,24.339,2.2,2.2,0,0,1-2.816.682,2.272,2.272,0,0,1-1.245-2.312,2.427,2.427,0,0,1,.889-1.512,29.282,29.282,0,0,0,7.945-14.823,29.887,29.887,0,0,0-6.522-26c-.5-.593-1.038-1.156-1.571-1.749a2.21,2.21,0,0,1,0-3.291,2.087,2.087,0,0,1,3.172.148,34.231,34.231,0,0,1,9.575,18.38,47.211,47.211,0,0,1,.563,6.137Z" transform="translate(-142.048 -103.314)" fill="#f40"/>
          <path id="Path_12554" data-name="Path 12554" d="M231.106,151.714a20.155,20.155,0,0,1-5.721,14.259,2.263,2.263,0,1,1-3.261-3.113,15.651,15.651,0,0,0,4.476-12.006,15.49,15.49,0,0,0-4.18-9.9,3.026,3.026,0,0,1-.978-1.453,2.214,2.214,0,0,1,1.008-2.52,2.266,2.266,0,0,1,2.787.385,20.488,20.488,0,0,1,5.633,10.969,20.991,20.991,0,0,1,.267,3.35Z" transform="translate(-148.751 -96.544)" fill="#f40"/>
          <path id="Path_12555" data-name="Path 12555" d="M253.135,175.4c0,15.475-.059,30.95.03,46.454a4.013,4.013,0,0,1-4.358,4.3c-15.356-.089-30.742-.03-46.1-.03-2.964,0-4.328-1.364-4.328-4.3v-92.76c0-3.024,1.364-4.358,4.387-4.358,2.046,0,4.121.03,6.166,0,.711,0,1.127.178,1.245.889a5.044,5.044,0,0,0,.3.949c.474,1.334,1.1,1.749,2.638,1.749h25.228c1.66,0,2.4-.415,2.757-2.016.3-1.3.919-1.69,2.223-1.631,1.986.119,3.972,0,5.959.03a3.516,3.516,0,0,1,3.824,3.854v46.9Zm-27.363,46.276a4.575,4.575,0,0,0,4.654-4.6,4.61,4.61,0,1,0-9.22.059,4.48,4.48,0,0,0,4.536,4.536Z" transform="translate(-193.904 -120.167)" fill="#fff"/>
          <path id="Path_12556" data-name="Path 12556" d="M210.626,163.46a4.462,4.462,0,0,1-4.536-4.536,4.656,4.656,0,0,1,4.625-4.654,4.718,4.718,0,0,1,4.6,4.6,4.575,4.575,0,0,1-4.654,4.595Z" transform="translate(-178.757 -61.955)"/>
        </g>
      </g>
      <g id="Group_6605" data-name="Group 6605" transform="translate(64.212 222.606)">
        <g id="Group_6604" data-name="Group 6604">
          <g id="Group_6601" data-name="Group 6601" transform="translate(0)">
            <path id="Path_12557" data-name="Path 12557" d="M109.459,314.307a5.965,5.965,0,0,1-5.959-5.988V130.477a7.743,7.743,0,0,1,7.737-7.737H299.9a7.743,7.743,0,0,1,7.737,7.737V308.319a5.991,5.991,0,0,1-5.988,5.988Z" transform="translate(-103.085 -122.384)" fill="#fff"/>
            <path id="Path_12558" data-name="Path 12558" d="M300.145,123.391a7.344,7.344,0,0,1,7.352,7.322V308.555a5.586,5.586,0,0,1-5.573,5.573H109.734a5.586,5.586,0,0,1-5.573-5.573V130.713a7.344,7.344,0,0,1,7.322-7.352H300.145Zm0-.771H111.483a8.135,8.135,0,0,0-8.123,8.123V308.585a6.358,6.358,0,0,0,6.344,6.374h192.19a6.364,6.364,0,0,0,6.374-6.374V130.743a8.135,8.135,0,0,0-8.123-8.123Z" transform="translate(-103.36 -122.62)"/>
          </g>
          <path id="Path_12559" data-name="Path 12559" d="M308.3,150.605H103.36V130.743a8.135,8.135,0,0,1,8.123-8.123H300.145a8.135,8.135,0,0,1,8.123,8.123v19.862Z" transform="translate(-103.36 -122.62)"/>
          <g id="Group_6603" data-name="Group 6603" transform="translate(11.68 9.694)">
            <path id="Path_12560" data-name="Path 12560" d="M118.47,130.189a4.3,4.3,0,1,1,4.3,4.3A4.3,4.3,0,0,1,118.47,130.189Z" transform="translate(-85.356 -125.89)" fill="#aab6c2"/>
            <path id="Path_12561" data-name="Path 12561" d="M112.88,130.189a4.3,4.3,0,1,1,4.3,4.3A4.3,4.3,0,0,1,112.88,130.189Z" transform="translate(-96.338 -125.89)" fill="#f40"/>
            <g id="Group_6602" data-name="Group 6602">
              <path id="Path_12562" data-name="Path 12562" d="M111.343,133.836a3.913,3.913,0,1,1,3.913-3.913A3.909,3.909,0,0,1,111.343,133.836Z" transform="translate(-107.045 -125.654)" fill="#fff"/>
              <path id="Path_12563" data-name="Path 12563" d="M111.6,126.661a3.528,3.528,0,1,1-3.528,3.528,3.536,3.536,0,0,1,3.528-3.528h0Zm0-.771a4.3,4.3,0,1,0,4.3,4.3,4.3,4.3,0,0,0-4.3-4.3Z" transform="translate(-107.3 -125.89)"/>
            </g>
          </g>
        </g>
        <path id="Path_12564" data-name="Path 12564" d="M179.8,136.95a63.2,63.2,0,1,0,63.2,63.2,63.279,63.279,0,0,0-63.2-63.2Zm0,3.676a59.477,59.477,0,0,1,44.824,98.63,26.309,26.309,0,0,0-1.719-6.67c-3.2-7.945-8.6-13.755-16.809-16.661-2.787-.978-5.633-1.868-8.419-2.846a1.72,1.72,0,0,1-.919-.593c-1.1-2.075-2.1-4.18-3.172-6.344a22.466,22.466,0,0,0,6.2-13.815h2.994c4.091,0,6.492-2.431,6.492-6.522V174.837a28.981,28.981,0,0,0-6.492-19.032,29.328,29.328,0,0,0-43.1-2.935,27.552,27.552,0,0,0-8.953,18.588c-.326,4.654-.089,9.338-.237,13.993-.089,3.053,1.008,5.306,3.943,6.581,0,.8-.03,1.571,0,2.342a5.52,5.52,0,0,0,3.5,5.218,17.28,17.28,0,0,0,3.32.593c.326.059.8.178.949.415,1.275,1.868,2.49,3.795,3.824,5.87-.771,1.542-1.719,3.32-2.549,5.158a2.943,2.943,0,0,1-1.957,1.69,77.391,77.391,0,0,0-10.316,3.646c-9.575,4.714-14.645,12.451-16.068,22.56a59.5,59.5,0,0,1,44.646-98.867Zm-3.083,77.789c-1.838,1.927-3.854,4.091-6.137,6.492-1.453-3.5-2.787-6.729-4.091-9.961a1.1,1.1,0,0,1,.119-.8c.652-1.334,1.334-2.668,1.927-3.884,2.7,2.668,5.4,5.4,8.182,8.182Zm-.415-6.67h6.729c-1.186,1.245-2.253,2.372-3.261,3.468-1.245-1.245-2.4-2.431-3.439-3.468Zm-3.172,16.127c2.134-2.194,4.21-4.447,6.344-6.67a1.883,1.883,0,0,1,.3-.178c1.9,1.868,3.765,3.765,5.662,5.633,1.63,1.631,1.66,1.66.415,3.557-1.957,2.965-3.913,5.9-5.929,8.923-.119-.148-.3-.3-.415-.474-2.1-3.2-4.21-6.433-6.314-9.635-.267-.385-.5-.682-.03-1.186Zm9.368-9.9c2.668-2.816,5.4-5.721,8.241-8.716.889,1.779,1.749,3.469,2.579,5.188a.788.788,0,0,1-.089.563c-1.364,3.172-2.727,6.314-4.091,9.486,0,.059-.089.089-.089.089L182.5,218.03Zm-9.012-11.384a15.523,15.523,0,0,1-7.026-6.463h3.676c.178,0,.415.267.5.474a5.9,5.9,0,0,0,5.692,3.409h3.528a5.855,5.855,0,0,0,.03-11.71q-1.957-.044-3.913,0a5.75,5.75,0,0,0-5.277,3.291.914.914,0,0,1-1.038.623c-1.63-.03-3.261,0-5.04,0-.326-1.808-.741-3.587-.919-5.4-.474-4.269-.86-8.567-1.245-12.836a2.424,2.424,0,0,1,.415-1.423c1.482-2.016,2.846-4.15,4.951-5.633a13.416,13.416,0,0,1,6.848-2.609,1.626,1.626,0,0,1,1.1.445,34.884,34.884,0,0,0,15.386,8.152c1.6.385,3.261.623,4.891.889.415.059.83.148,1.364.237-.237,2.609-.356,5.188-.711,7.737a75.891,75.891,0,0,1-1.631,10.02c-2.579,9.575-12.273,14.912-21.582,10.791Zm.534-8.419a1.929,1.929,0,0,1,1.957-1.927q1.957-.089,3.913,0a1.942,1.942,0,1,1,0,3.884c-.682.059-1.364,0-2.046,0-.623,0-1.245.03-1.868,0a2.008,2.008,0,0,1-1.957-1.927Zm-15.564-5.84h1.482c.237,1.275.445,2.49.682,3.735C158.518,196.389,158.074,194.432,158.459,192.327Zm-2.046-3.972a1.932,1.932,0,0,1-1.957-2.016c-.03-3.38,0-6.759,0-10.228h3.884c.326,4.061.652,8.093.978,12.243-1.008,0-1.957.03-2.905,0Zm2.016-17.283c-.03.326-.059.652-.089,1.008h-3.706a25.346,25.346,0,0,1,50.545,0h-3.557c-.3-1.66-.5-3.35-.919-4.951a19.613,19.613,0,0,0-17.7-14.5c-3.943-.237-7.915-.356-11.68,1.186-7.737,3.172-12.006,8.953-12.866,17.254Zm46.869,5.01c0,.267.059.5.059.771v9.071c0,1.719-.711,2.431-2.431,2.461H200.5c.326-4.15.652-8.182.978-12.3Zm-41.148-11.087a15.559,15.559,0,0,1,13.993-8.479c3.2-.089,6.374-.089,9.427,1.127a16.227,16.227,0,0,1,9.931,16.216c0,.059-.059.119-.089.178a31.807,31.807,0,0,1-19.3-8.479,4.042,4.042,0,0,0-3.439-1.186A17.857,17.857,0,0,0,163.084,170a5.469,5.469,0,0,1-.415.415h-.208A12.917,12.917,0,0,1,164.151,164.994Zm-25.258,78.323V241a24.5,24.5,0,0,1,3.172-10.405,23.313,23.313,0,0,1,13.755-11.324c2.372-.741,4.684-1.571,6.878-2.283,2.075,4.239,3.943,8.449,6.2,12.421,2.253,3.943,4.891,7.678,7.441,11.591,1.719,3.5,5.158,3.113,7.115,0,2.55-3.943,5.218-7.678,7.441-11.621,2.253-3.943,4.091-8.123,6.137-12.332a2.367,2.367,0,0,1,.474.119,92.7,92.7,0,0,1,9.4,3.291c7.737,3.617,12.036,9.99,13.726,18.232.148.741.208,1.482.326,2.283a15.145,15.145,0,0,0-.385,2.52,59.409,59.409,0,0,1-81.673-.208Z" transform="translate(-77.35 -94.468)" fill="#f40"/>
      </g>
    </g>
    <rect id="Rectangle_5679" data-name="Rectangle 5679" width="656.731" height="4.269" transform="translate(21.09 635.432)"/>
    <g id="Group_6613" data-name="Group 6613" transform="translate(53.544 191.862)">
      <g id="Group_6608" data-name="Group 6608" transform="translate(153.411 194.606)">
        <path id="Path_12567" data-name="Path 12567" d="M85.272,153.041c.949,3.795-1.393,12.214-1.215,18.41a34.815,34.815,0,0,0,.385,3.943c.178,1.215.326,2.431.5,3.646a4.907,4.907,0,0,0,.771,2.431,1.685,1.685,0,0,0,2.253.5,2.753,2.753,0,0,0,.682-1.038c.919-2.134,1.808-4.239,2.727-6.374a.869.869,0,0,1,1.571-.385c5.751,4.417,10.317,10.139,15.03,15.653.8.949,1.9,1.957,3.083,1.6a2.222,2.222,0,0,0,1.364-2.075,6.45,6.45,0,0,0-.623-2.549c-.86-2.194-1.749-4.387-2.609-6.581a.822.822,0,0,1-.089-.593c.148-.593,1.038-.445,1.571-.148a21.965,21.965,0,0,0,4.654,1.719c.889.208,2.046.3,2.579-.474.623-.889-.119-2.046-.267-3.113-.208-1.482.741-3.053.178-4.447-.385-.949-1.364-1.512-2.046-2.253a15.653,15.653,0,0,1-1.868-3.557c-3.113-6.077-8.538-7.767-11.384-13.993-.741-1.63-1.008-3.528-2.253-4.832a6.508,6.508,0,0,0-2.757-1.63c-1.69-.563-7.085-.385-8.834.059a4.739,4.739,0,0,0-3.38,6.107Z" transform="translate(-83.274 -145.775)" fill="#fff"/>
        <path id="Path_12568" data-name="Path 12568" d="M101.288,148.485a9.462,9.462,0,0,1,1.749,3.439c.178.534.385,1.1.593,1.6,1.393,3.053,3.439,4.98,5.6,7a25.267,25.267,0,0,1,5.751,6.967c.208.385.385.8.563,1.215a7.792,7.792,0,0,0,1.215,2.194,7.889,7.889,0,0,0,.711.682,5.024,5.024,0,0,1,1.482,1.808,4.634,4.634,0,0,1,0,2.905,5.07,5.07,0,0,0-.148,1.719,4.828,4.828,0,0,0,.208.889,3.024,3.024,0,0,1-.089,2.757c-.415.623-1.364,1.245-3.35.771a19.923,19.923,0,0,1-4.8-1.779,1.414,1.414,0,0,0-.415-.148l2.609,6.552a7.308,7.308,0,0,1,.682,2.846,2.949,2.949,0,0,1-1.9,2.757c-1.808.563-3.35-1.245-3.854-1.838l-1.6-1.868c-4.061-4.832-8.271-9.813-13.311-13.666-.178-.148-.3-.178-.3-.208a.829.829,0,0,0-.148.3l-2.727,6.374a3.292,3.292,0,0,1-.889,1.334,2.091,2.091,0,0,1-1.838.326,2.686,2.686,0,0,1-1.482-.978,5.745,5.745,0,0,1-.919-2.757l-.5-3.646a35.712,35.712,0,0,1-.385-4.032,60.239,60.239,0,0,1,.771-9.279c.474-3.617.949-7.026.474-8.953a5.517,5.517,0,0,1,3.913-7.026c1.838-.474,7.382-.682,9.249-.059a9.023,9.023,0,0,1,1.69.741,7.257,7.257,0,0,1,1.364,1.067ZM87.474,181.955a1.03,1.03,0,0,0,.563-.059,2.122,2.122,0,0,0,.445-.741l2.727-6.374a1.779,1.779,0,0,1,1.038-1.127,1.907,1.907,0,0,1,1.66.445c5.158,3.972,9.427,9.012,13.548,13.874l1.571,1.868c.949,1.1,1.69,1.571,2.312,1.364a1.464,1.464,0,0,0,.83-1.364,6.3,6.3,0,0,0-.563-2.253L109,181.006a1.749,1.749,0,0,1-.148-1.038,1.145,1.145,0,0,1,.682-.83,2.509,2.509,0,0,1,1.957.178,21.967,21.967,0,0,0,4.476,1.66c.445.089,1.453.3,1.779-.178.208-.3.089-.771-.119-1.512a7.379,7.379,0,0,1-.267-1.1,6.176,6.176,0,0,1,.178-2.223,3.731,3.731,0,0,0,.059-2.046,3.483,3.483,0,0,0-1.067-1.245,10.572,10.572,0,0,1-.83-.8,9.389,9.389,0,0,1-1.482-2.579c-.178-.385-.326-.771-.5-1.126a23.528,23.528,0,0,0-5.455-6.581,23,23,0,0,1-5.929-7.441c-.267-.563-.445-1.156-.652-1.719a8.112,8.112,0,0,0-1.453-2.905A5.734,5.734,0,0,0,97.79,148.1c-1.453-.5-6.7-.385-8.419.089a4.01,4.01,0,0,0-2.846,5.218c.534,2.223.059,5.751-.445,9.516a61.72,61.72,0,0,0-.771,9.042,33.776,33.776,0,0,0,.385,3.884l.5,3.646a4.4,4.4,0,0,0,.623,2.075.872.872,0,0,0,.356.3,1.238,1.238,0,0,0,.3.119Z" transform="translate(-83.786 -146.289)"/>
      </g>
      <g id="Group_6612" data-name="Group 6612">
        <path id="Path_12569" data-name="Path 12569" d="M94.473,103.713c8.627,10.554,15.119,23.242,16.927,36.76,6.255,46.9,36.167,94.687,36.167,94.687l-18.528,12.214s-26.74-5.781-39.9-25.554c-14.289-21.493-19.3-35.307-24.4-58.52-2.1-9.635-6.611-33.973,6.581-47.818,13.993-14.7,23.183-11.74,23.183-11.74Z" transform="translate(27.347 -35.748)" fill="#f40"/>
        <path id="Path_12570" data-name="Path 12570" d="M84.991,221.245c-1.393-1.719-16.335-.3-16.483.623-.474,2.757-1.156,13.281.267,14.7,1.393,1.364,14.289,4.3,14.585,1.63.267-2.312,2.965-15.267,1.63-16.927Z" transform="translate(38.459 193.984)" fill="#fff"/>
        <path id="Path_12571" data-name="Path 12571" d="M80.953,240.347c-4.121,0-11.058-1.749-12.214-2.876C66.9,235.664,68,224.013,68.295,222.2c.089-.563.711-.771,1.364-.949,2.727-.711,14.7-1.957,16.3,0h0c1.008,1.275.415,6.048-1.008,14.437-.237,1.364-.415,2.461-.474,2.965a1.626,1.626,0,0,1-1.245,1.364,6.886,6.886,0,0,1-2.253.267ZM69.569,222.679c-.593,3.854-.889,12.9.119,13.844.978.949,10.376,3.261,13.074,2.283.178-.059.385-.178.385-.267.059-.534.237-1.63.5-3.053.593-3.38,2.134-12.332,1.3-13.37-1.067-1.156-13.34-.356-15.356.563Z" transform="translate(38.021 193.528)"/>
        <path id="Path_12572" data-name="Path 12572" d="M70.341,224.81s-6.907,9.872-1.957,17.639c0,0,35.989,1.69,46.869,0,0,0,.267-13.251-9.042-14.408a172.319,172.319,0,0,0-19.8-.978s-9.279,5.069-16.038-2.283Z" transform="translate(35.856 202.514)"/>
        <path id="Path_12573" data-name="Path 12573" d="M58.031,221.245c-1.393-1.719-16.335-.3-16.483.623-.474,2.757-1.156,13.281.267,14.7,1.393,1.364,14.289,4.3,14.585,1.63.267-2.312,2.965-15.267,1.63-16.927Z" transform="translate(-14.504 193.984)" fill="#fff"/>
        <path id="Path_12574" data-name="Path 12574" d="M53.993,240.347c-4.121,0-11.058-1.749-12.214-2.876-1.838-1.808-.741-13.459-.445-15.267.089-.563.711-.771,1.364-.949,2.727-.711,14.7-1.957,16.3,0h0c1.008,1.275.415,6.048-1.008,14.437-.237,1.364-.415,2.461-.474,2.965a1.626,1.626,0,0,1-1.245,1.364,6.886,6.886,0,0,1-2.253.267ZM42.609,222.679c-.593,3.854-.889,12.9.119,13.844.978.949,10.376,3.261,13.074,2.283.178-.059.385-.178.385-.267.059-.534.237-1.63.5-3.053.593-3.38,2.134-12.332,1.3-13.37-1.067-1.156-13.34-.356-15.356.563Z" transform="translate(-14.942 193.528)"/>
        <path id="Path_12575" data-name="Path 12575" d="M43.371,224.81s-6.907,9.872-1.957,17.639c0,0,35.989,1.69,46.869,0,0,0,.267-13.251-9.042-14.408a172.319,172.319,0,0,0-19.8-.978s-9.279,5.069-16.038-2.283Z" transform="translate(-17.127 202.514)"/>
        <path id="Path_12576" data-name="Path 12576" d="M85.434,256.679c1.69,21.167.148,63.856-1.542,85.023-.089,1.423-.089,50.6-.089,50.6l19.892,1.9c10.821-32.313,31.513-104.826,31.513-136.991s-2.787-85.823-14.615-111.259c-11.236-24.191-55.614,9.22-60.832,15.149-2.4,2.727,2.164,27.244,8.449,43.46,7.322,18.8,16.3,40.733,17.224,52.116Z" transform="translate(21.149 30.601)"/>
        <path id="Path_12577" data-name="Path 12577" d="M80.966,369.344l12.273,1.186c-1.127-7.737,0-24.961.415-32.817.8-13.7,4.21-27.066,7.382-40.347,5.01-21.078,9.783-43.4,3.824-64.8-3.083-11-9.813-18.677-15.327-28.4a38.634,38.634,0,0,1-4.951-21.493c.3-4.091,2.846-9.279,1.453-13.37-1.719-5.188-17.224-22.708-21.2-20.07-4.773,3.231-2.372,15.653-4.3,21.463,7.322,18.8,21.107,51.612,22.026,63,1.69,21.167-1.808,63.678-2.965,84.9-1.156,21.107,1.3,50.753,1.3,50.753Z" transform="translate(23.957 53.563)"/>
        <path id="Path_12578" data-name="Path 12578" d="M41.365,391.528l17.669,1.9c9.22-30.475,33.855-82.592,37.5-114.549,5.633-49.656,12.421-102.839,12.718-115.913.03-2.1.059-3.231.059-3.231-12.155-14.793-32.788-20.841-41.948-21.937-3.617-.445-6.255.267-7.411,2.164a139.27,139.27,0,0,0-8.923,17.4c-14.793,35.159-2.342,56.415-2.609,102.128,0,2.638-.03,5.366-.089,8.034-.474,18.914,4.625,42.185-.8,61.929C36.859,368.2,41.395,391.5,41.395,391.5Z" transform="translate(-15.536 31.378)"/>
        <path id="Path_12579" data-name="Path 12579" d="M40.938,240.688c9.22,1.63,17.935,2.846,26.177,3.706,1.215.148,2.372.3,3.557.356a297.71,297.71,0,0,0,33.232,1.423c1.245,0,2.49-.03,3.706-.059,17.076-.474,60.773-28.459,60.773-28.459-.889-6.878-4.15-30.564-5.84-40.94-.208-1.245-.415-2.461-.593-3.617-2.638-15.178-5.514-27.9-9.279-38.183-.415-1.127-.86-2.283-1.3-3.38-8.3-20.218-20.692-30.268-42.719-31.187-14.823-.652-26.473,4.447-35.545,13.014-.711.652-1.423,1.364-2.1,2.075-7.322,7.648-12.925,17.639-17.135,28.667-.385,1.067-.83,2.164-1.186,3.261-4.6,12.836-7.441,26.829-9.19,39.991-.148,1.127-.3,2.283-.474,3.38-1.127,9.783-1.749,19-2.016,26.74-.059,1.245-.119,2.461-.148,3.617-.326,11.858.119,19.6.119,19.6Z" transform="translate(-14.961 -42.047)" fill="#f40"/>
        <path id="Path_12580" data-name="Path 12580" d="M81.272,112.693s-5.336,9.516-21.582-.415c0,0,3.32-8.656.711-17.7l16.542,4.032S75.343,104.808,81.272,112.693Z" transform="translate(22.287 -53.267)" fill="#fff"/>
        <path id="Path_12581" data-name="Path 12581" d="M73.284,118.075q-5.825,0-13.4-4.625l-.474-.3.208-.5s3.2-8.567.682-17.283l-.326-1.1,18.291,4.476-.178.652s-1.423,6.018,4.239,13.518l.267.356-.208.385a9.927,9.927,0,0,1-5.84,4.061,13.165,13.165,0,0,1-3.291.415ZM61.04,112.591c6.018,3.587,11.117,4.862,15.208,3.795a8.513,8.513,0,0,0,4.773-3.083c-4.714-6.492-4.536-11.8-4.3-13.607L61.871,96.078a31.8,31.8,0,0,1-.83,16.512Z" transform="translate(21.737 -53.876)"/>
        <path id="Path_12582" data-name="Path 12582" d="M69.32,83.828C60.871,85.7,56.158,96.783,58.766,108.582c2.609,11.828,11.562,19.892,19.981,18.024S91.91,113.651,89.3,101.852C86.692,90.024,77.739,81.96,69.32,83.828Z" transform="translate(19.06 -74.917)" fill="#fff"/>
        <path id="Path_12583" data-name="Path 12583" d="M76.766,127.993c-7.945,0-15.8-7.826-18.2-18.825A27.13,27.13,0,0,1,59.75,92.656c2.075-4.891,5.573-8.093,9.872-9.042h0C78.4,81.687,87.735,89.988,90.4,102.142S88.12,125.77,79.345,127.7a12.7,12.7,0,0,1-2.579.267ZM69.888,84.919c-3.854.86-7.056,3.795-8.953,8.271a26.137,26.137,0,0,0-1.1,15.712c2.52,11.443,11.147,19.3,19.21,17.52s12.57-12.54,10.05-23.983-11.147-19.3-19.21-17.52h0Z" transform="translate(18.61 -75.355)"/>
        <path id="Path_12584" data-name="Path 12584" d="M68.365,89.52s5.692,7.115,7.53,11.265a1.109,1.109,0,0,1-.741,1.542c-2.016.593-6.077,1.69-7.826,1.571C64.986,103.75,68.365,89.52,68.365,89.52Z" transform="translate(35.668 -63.207)" fill="#fff"/>
        <path id="Path_12585" data-name="Path 12585" d="M68.013,105.552h-.3a1.132,1.132,0,0,1-.919-.534c-1.542-2.075.86-12.6,1.334-14.674l.326-1.334.86,1.067c.237.3,5.751,7.233,7.619,11.413a1.842,1.842,0,0,1,0,1.482,1.767,1.767,0,0,1-1.127.978,36.373,36.373,0,0,1-7.737,1.6ZM69.11,92c-1.364,6.166-1.927,11.621-1.245,12.243,1.127.089,3.884-.5,7.53-1.571a.387.387,0,0,0,.3-.267.44.44,0,0,0,0-.385C74.328,98.941,70.77,94.139,69.11,92Z" transform="translate(35.249 -64.209)"/>
        <path id="Path_12586" data-name="Path 12586" d="M66.086,105.593a5.554,5.554,0,0,0,5.158-4.239c1.364-4.328,7-4.032,11.087-1.868s10.7,2.965,15.3.356c3.5-2.016,7.678-9.131,1.186-14.022-5.929-4.417-21.167-5.81-25.94-4.921-8.656,1.63-18.884,12.955-17.076,23.479,1.275,7.411,5.425,19.21,11.473,19.062C65.7,115.643,63.655,110.544,66.086,105.593Z" transform="translate(14.231 -80.644)"/>
        <path id="Path_12587" data-name="Path 12587" d="M61.077,111.265c-1.512-2.52-1.779-4.091-1.9-7.2a36.81,36.81,0,0,0,1.364-15.119c-.178-1.423,2.046-.593,2.046-.593s8.508,27.837,24.428,17.431c0,0,.889,7.678-1.245,10.257-5.218,6.374-16.868,3.854-20.426,1.038a22.558,22.558,0,0,1-4.269-5.81Z" transform="translate(21.285 -65.979)"/>
        <path id="Path_12588" data-name="Path 12588" d="M72.721,92.459s-2.727,12.421-2.52,14.585c0,0-5.692-1.364-5.069-9.19.623-7.856,3.676-10.376,5.6-9.19a4.985,4.985,0,0,1,1.986,3.824Z" transform="translate(32.884 -65.435)" fill="#fff"/>
        <g id="Group_6611" data-name="Group 6611" transform="translate(0 18.104)">
          <path id="Path_12589" data-name="Path 12589" d="M62.932,95.574s-2.134-4.239-5.277-2.253-1.957,11.562,2.905,9.9,2.372-7.648,2.372-7.648Z" transform="translate(14.865 -74.885)" fill="#fff"/>
          <path id="Path_12590" data-name="Path 12590" d="M59.028,104.384a4.2,4.2,0,0,1-2.52-2.342c-1.334-2.787-1.1-7.352,1.245-8.834a3.467,3.467,0,0,1,2.905-.5h.03a6.321,6.321,0,0,1,3.261,3.024v.059s1.393,3.38.237,5.959a4.876,4.876,0,0,1-2.965,2.579,3.5,3.5,0,0,1-2.194.089Zm1.3-10.406h0a2.129,2.129,0,0,0-1.838.356c-1.512.978-1.927,4.714-.741,7.145.5,1.038,1.423,2.134,3.083,1.571a3.488,3.488,0,0,0,2.194-1.868c.889-1.957-.119-4.625-.208-4.891a5.026,5.026,0,0,0-2.431-2.312Z" transform="translate(14.44 -75.306)"/>
          <path id="Path_12591" data-name="Path 12591" d="M70.007,87.963l17.846,19.121a3.75,3.75,0,0,1-.148,5.307L75.788,123.923a3.807,3.807,0,0,1-5.484-.208L52.575,103.7a3.789,3.789,0,0,1,.3-5.336l11.8-10.643a3.779,3.779,0,0,1,5.307.237Z" transform="translate(6.427 -86.751)" fill="#fff" stroke="#000" stroke-width="0.75"/>
          <g id="Group_6609" data-name="Group 6609" transform="translate(59.411 12.107)">
            <path id="Path_12592" data-name="Path 12592" d="M52.761,126.434c1.364-3.676,0-12.3.86-18.41a34.806,34.806,0,0,1,.83-3.884l.889-3.557a4.986,4.986,0,0,1,1.038-2.312,1.712,1.712,0,0,1,2.312-.237,2.586,2.586,0,0,1,.563,1.1c.652,2.223,1.334,4.417,1.986,6.641.089.3.208.652.5.771a1.077,1.077,0,0,0,1.008-.237c6.2-3.735,11.413-8.894,16.69-13.844.889-.83,2.1-1.749,3.231-1.245A2.223,2.223,0,0,1,83.8,93.409a6.379,6.379,0,0,1-.919,2.461c-1.127,2.075-2.223,4.18-3.35,6.255a1.048,1.048,0,0,0-.178.563c.089.593.978.534,1.542.326a22.314,22.314,0,0,1,4.8-1.186c.919-.119,2.046-.059,2.49.741.5.949-.326,2.016-.623,3.083-.385,1.453.385,3.113-.326,4.447-.474.889-1.512,1.334-2.283,2.016a15.228,15.228,0,0,0-2.253,3.32c-3.795,5.692-9.368,6.759-12.866,12.629-.919,1.542-1.423,3.38-2.757,4.565a6.48,6.48,0,0,1-2.905,1.3c-1.749.385-7.085-.415-8.775-1.067a4.758,4.758,0,0,1-2.668-6.463Z" transform="translate(-51.599 -90.371)" fill="#fff"/>
            <path id="Path_12593" data-name="Path 12593" d="M66.61,134.606a8.962,8.962,0,0,1-1.779.563c-1.927.415-7.411-.415-9.19-1.1a5.52,5.52,0,0,1-3.113-7.411c.682-1.868.623-5.307.534-8.953a59.844,59.844,0,0,1,.267-9.309c.208-1.364.534-2.7.86-3.972l.889-3.557a5.607,5.607,0,0,1,1.215-2.638,2.861,2.861,0,0,1,1.571-.8,2.091,2.091,0,0,1,1.779.534,3.145,3.145,0,0,1,.741,1.423l1.986,6.641a2.954,2.954,0,0,0,.119.326s.119-.059.326-.178c5.455-3.261,10.2-7.737,14.763-12.066l1.779-1.69c.563-.534,2.312-2.134,4.032-1.393a2.968,2.968,0,0,1,1.571,2.935,7.445,7.445,0,0,1-.978,2.757l-3.32,6.2a2.675,2.675,0,0,0,.445-.089,22.228,22.228,0,0,1,4.98-1.215c2.046-.267,2.876.474,3.231,1.127a3,3,0,0,1-.237,2.757c-.119.3-.237.563-.326.86a5.669,5.669,0,0,0-.03,1.749,4.865,4.865,0,0,1-.356,2.876,5.113,5.113,0,0,1-1.66,1.63,7.59,7.59,0,0,0-.771.593,8.168,8.168,0,0,0-1.453,2.046c-.208.385-.445.771-.682,1.156a24.906,24.906,0,0,1-6.492,6.285c-2.372,1.749-4.625,3.439-6.344,6.314a14.5,14.5,0,0,0-.771,1.512,8.913,8.913,0,0,1-2.134,3.231,6.618,6.618,0,0,1-1.482.919Zm-8.8-35.634a1.493,1.493,0,0,0-.385.267,4.115,4.115,0,0,0-.86,1.986l-.889,3.557c-.326,1.245-.623,2.52-.83,3.795a60.258,60.258,0,0,0-.267,9.071c.089,3.795.148,7.382-.623,9.516a4.035,4.035,0,0,0,2.253,5.514c1.66.652,6.848,1.334,8.36,1.008a5.481,5.481,0,0,0,2.579-1.126,8.059,8.059,0,0,0,1.779-2.727,17.586,17.586,0,0,1,.86-1.66,23.05,23.05,0,0,1,6.729-6.729,24.127,24.127,0,0,0,6.166-5.9c.237-.356.445-.711.652-1.067a9.059,9.059,0,0,1,1.749-2.4,5.279,5.279,0,0,1,.919-.682,3.745,3.745,0,0,0,1.215-1.127,3.8,3.8,0,0,0,.178-2.046A6.267,6.267,0,0,1,87.48,106a7.707,7.707,0,0,1,.385-1.067c.3-.711.474-1.156.3-1.482-.267-.5-1.3-.415-1.749-.385a21.317,21.317,0,0,0-4.654,1.127,2.372,2.372,0,0,1-1.957-.03,1.3,1.3,0,0,1-.593-.919,1.52,1.52,0,0,1,.267-1.008l3.35-6.255a5.738,5.738,0,0,0,.83-2.164,1.444,1.444,0,0,0-.682-1.453c-.563-.267-1.364.119-2.431,1.1l-1.779,1.69c-4.654,4.387-9.457,8.923-15.03,12.273a1.831,1.831,0,0,1-1.719.267,1.9,1.9,0,0,1-.919-1.245L59.11,99.8a2.265,2.265,0,0,0-.356-.8.622.622,0,0,0-.534-.119,1.336,1.336,0,0,0-.326.089Z" transform="translate(-52.078 -90.835)"/>
          </g>
          <g id="Group_6610" data-name="Group 6610" transform="translate(0 42.271)">
            <path id="Path_12594" data-name="Path 12594" d="M87.629,107.77c-45.565,0-44.735,68.243-46.839,96.851,30.742,6.137,41.474-22.026,46.869-36.612,9.4-25.436,0-60.239,0-60.239Z" transform="translate(-14.843 -87.73)"/>
            <path id="Path_12595" data-name="Path 12595" d="M91.721,101.01l20.752,9.872s-18.291,68.955-32.847,84.993-32.728,14.852-42.1,5.218-5.484-26.8,2.194-41.8c10.583-20.752,52.027-58.283,52.027-58.283Z" transform="translate(-32.037 -101.01)" fill="#f40"/>
          </g>
          <circle id="Ellipse_216" data-name="Ellipse 216" cx="3.142" cy="3.142" r="3.142" transform="translate(70.564 12.922)" fill="#f40"/>
        </g>
      </g>
    </g>
    <path id="Path_12596" data-name="Path 12596" d="M242.568,221.047a12.188,12.188,0,0,0,6.907-2.283,56.878,56.878,0,0,1-1.038,12.688c-2.727,4.387-10.228,12.421-9.724,12.362a24.627,24.627,0,0,0,6.048-1.423,44.473,44.473,0,0,1-4.6,7.53c-3.646,4.862-8.864,8.775-10.82,14.7a.319.319,0,0,1-.237.267.436.436,0,0,1-.712.326c-9.813-9.338-11.591-23.479-13.014-36.256-.059-.593-.148-1.215-.208-1.808a38.714,38.714,0,0,0,9.042,7.056c.474.267-6.137-10.346-9.4-15.238a29.2,29.2,0,0,1,1.69-9.071c2.283-6.166,6.226-11.917,10.05-17.224.148-.208.326-.445.474-.652a28.818,28.818,0,0,0,4.239,7.648c.326.415-.682-7.737-1.3-11.473.949-1.186,1.927-2.372,2.905-3.528,1.3-1.542,2.935-4.15,5.277-3.824,2.283.326,7.471,9.664,8.152,12.332.3,1.127.534,2.312.771,3.468.119.5.208,1.008.3,1.512.86,4.684,1.364,9.516,1.749,14.23a6.509,6.509,0,0,1-.5.741c-1.9,2.579-6.522,7.856-6.048,7.856Z" transform="translate(380.587 308.017)" fill="#aab6c2"/>
    <path id="Path_12597" data-name="Path 12597" d="M227.386,208.268c4.832-.741,8.538-3.795,12.1-6.967.534-.474-.119-1.364-.652-.889-3.32,2.965-6.818,5.929-11.324,6.7,1.038-7.2,2.223-14.408,3.646-21.552.148-.712-.949-.86-1.1-.178q-2.8,14.23-4.6,28.608a47.654,47.654,0,0,1-6.4-12.9c-.208-.682-1.245-.267-1.038.415a48.6,48.6,0,0,0,6.878,13.607.518.518,0,0,0,.415.208c-.267,2.1-.474,4.18-.712,6.285a30.574,30.574,0,0,1-4.773-8.33c-.237-.652-1.275-.267-1.038.415a31.629,31.629,0,0,0,5.425,9.249.408.408,0,0,0,.237.148q-1.067,10.361-1.6,20.781a.558.558,0,0,0-.059.237c-.148,2.549-.237,5.069-.267,7.619-.059,1.66-.089,3.32-.119,4.98a.512.512,0,0,0,.148.385c.3,15.623,2.609,31.1,5.9,46.395l1.067-.267c-3.706-17.283-6.2-34.8-5.87-52.5.059-1.868.148-3.735.237-5.6a.526.526,0,0,0,.5-.059,18.766,18.766,0,0,0,5.069-5.188c.385-.593-.474-1.3-.86-.682a17.614,17.614,0,0,1-4.654,4.832q.934-17.92,3.439-35.693h.059Z" transform="translate(386.816 316.112)"/>
    <path id="Path_12598" data-name="Path 12598" d="M215.581,224.824a12.044,12.044,0,0,1-6.522.563,42.18,42.18,0,0,0,4.565,9.19c3.587,2.4,12.3,5.959,11.858,6.107a23.81,23.81,0,0,1-5.544.919,36.289,36.289,0,0,0,6.107,4.15c4.506,2.461,10.079,3.676,13.489,7.5a.362.362,0,0,0,.267.119.4.4,0,0,0,.712,0c5.633-10.228,3.024-21.463.534-31.543l-.356-1.423a36.324,36.324,0,0,1-5.633,8.3c-.326.356,2.223-9.783,3.557-14.526a21.2,21.2,0,0,0-4.061-6.255c-3.735-3.884-8.775-6.907-13.548-9.635-.208-.119-.415-.208-.593-.326a23.1,23.1,0,0,1-1.364,7.145c-.148.415-1.66-6.048-2.223-9.071-1.156-.563-2.312-1.156-3.5-1.69-1.571-.741-3.706-2.164-5.6-1.127-1.838.978-3.557,9.724-3.32,11.947.089.949.208,1.927.356,2.876l.178,1.245a102,102,0,0,0,2.638,11.265,4.726,4.726,0,0,0,.652.385c2.372,1.334,7.826,3.765,7.441,3.913Z" transform="translate(360.082 331.662)" fill="#aab6c2"/>
    <g id="Group_6614" data-name="Group 6614" transform="translate(564.754 533.464)">
      <path id="Path_12599" data-name="Path 12599" d="M245.456,284.294a174.076,174.076,0,0,0-8.479-36.79.266.266,0,0,0,0-.326c-.5-1.245-1.038-2.461-1.542-3.676-.771-1.9-1.571-3.765-2.431-5.633a.648.648,0,0,0-.119-.148c-2.312-5.1-4.8-10.109-7.411-15.089a.532.532,0,0,0,.148-.208,24.423,24.423,0,0,0,1.927-8.716c0-.593-.978-.563-1.008,0a23.229,23.229,0,0,1-1.631,7.826c-.8-1.512-1.6-2.994-2.431-4.506a.446.446,0,0,0,.267-.3,37.785,37.785,0,0,0,1.9-12.481c0-.593-1.008-.563-1.008,0a35.914,35.914,0,0,1-1.719,11.8q-5.692-10.228-12.214-19.981c-.326-.474-1.215,0-.889.5q4.936,7.382,9.368,15c-4.061.919-7.886-.178-11.562-1.3a.469.469,0,0,0-.3.889c3.943,1.215,7.975,2.283,12.3,1.245h.03q7.293,12.54,13.281,25.7A15.012,15.012,0,0,1,226.6,236c-.5-.326-1.038.474-.534.8a15.9,15.9,0,0,0,5.81,2.223.475.475,0,0,0,.445-.119c.623,1.364,1.245,2.757,1.838,4.121,5.425,13.222,8.419,27.185,10.287,41.385l.978-.178Z" transform="translate(-201.492 -195.874)"/>
      <path id="Path_12600" data-name="Path 12600" d="M213.107,201.35a24.991,24.991,0,0,1-8.627-3.38l.178,1.245a26.716,26.716,0,0,0,8.123,3.024C213.4,202.357,213.7,201.468,213.107,201.35Z" transform="translate(-204.48 -191.756)"/>
    </g>
    <path id="Path_12601" data-name="Path 12601" d="M273.123,206.767c-.059,4-9.309,5.929-12.243,7.026-6.492,2.4-12.836,4.832-17.639,10.05-5.662,6.166-10.554,13.281-15.416,20.07a1.134,1.134,0,0,1-1.156.5,19.675,19.675,0,0,1-1.334-2.935c-1.69-4.15-4.269-11.74-3.617-16.068a25.868,25.868,0,0,1,2.935-8.627,7.756,7.756,0,0,0,1.838,3.646c.237.237.741-5.455,1.067-8.034.415-.534.86-1.038,1.3-1.512a28.557,28.557,0,0,1,3.409-3.142c.267-.208.5-.415.771-.593.978-.741,2.046-1.423,3.113-2.075.3-.178.563-.326.86-.5,1.008-.563,2.046-1.067,3.113-1.542a20.655,20.655,0,0,0,1.719,5.692c.178.385.623-4.506.682-6.67,1.008-.385,2.016-.682,3.053-.978a16.378,16.378,0,0,0,1.275,3.676c.148.3,1.512-3.024,2.016-4.476a40.209,40.209,0,0,1,9.9-.771,3.778,3.778,0,0,1,.83.059,25.643,25.643,0,0,1,2.638.3c3.172.5,10.7,2.52,10.82,6.818v.119Z" transform="translate(393.936 344.621)" fill="#aab6c2"/>
    <g id="Group_6615" data-name="Group 6615" transform="translate(618.456 549.164)">
      <path id="Path_12602" data-name="Path 12602" d="M235.654,212.434c-7.856,7.737-10.287,22-10.791,26.029a18.02,18.02,0,0,0-1.6,5.247c-.949,6.374-.652,13.133-.5,19.566.059,2.1.148,4.239.267,6.344.356-.059.741-.148,1.1-.208l-.178-4q-.311-8.627.089-17.313a25.477,25.477,0,0,1,1.571-8.716,1.778,1.778,0,0,0,.356-.326c4.891-6.789,9.753-13.9,15.416-20.07,4.8-5.218,11.147-7.648,17.639-10.05,2.935-1.1,12.184-3.024,12.243-7.026-12.3,1.453-26.532,1.571-35.545,10.494Z" transform="translate(-222.595 -199.716)"/>
      <path id="Path_12603" data-name="Path 12603" d="M227.725,210.093a26.52,26.52,0,0,1-.178-8.923c-.3.178-.593.326-.86.5a27.01,27.01,0,0,0,.237,8.6c.089.5.889.326.8-.178Z" transform="translate(-215.021 -201.17)"/>
      <path id="Path_12604" data-name="Path 12604" d="M227.147,209.975a34.288,34.288,0,0,1-1.156-7.945,7.592,7.592,0,0,0-.771.593,34.252,34.252,0,0,0,1.127,7.53.41.41,0,0,0,.8-.178Z" transform="translate(-217.438 -199.48)"/>
    </g>
    <g id="Group_6616" data-name="Group 6616" transform="translate(583.638 601.784)">
      <path id="Path_12605" data-name="Path 12605" d="M222.374,252.56a28.606,28.606,0,0,1-10.7-16.838,28.148,28.148,0,0,1-.623-5.929,29.111,29.111,0,0,1,.682-6.166,28.182,28.182,0,0,1,1.393-4.506h52.294a29.467,29.467,0,0,1,1.423,4.506,28.48,28.48,0,0,1,.682,6.166,27.542,27.542,0,0,1-.623,5.929,28.207,28.207,0,0,1-10.909,16.838H222.374Z" transform="translate(-210.457 -218.527)" fill="#fff"/>
      <path id="Path_12606" data-name="Path 12606" d="M265.427,220.106a30.717,30.717,0,0,1,1.245,4.061,27.322,27.322,0,0,1,.652,6.018A26.842,26.842,0,0,1,266.7,236a27.568,27.568,0,0,1-10.524,16.364H223.123A27.568,27.568,0,0,1,212.6,236a27.246,27.246,0,0,1-.623-5.811,30.194,30.194,0,0,1,.652-6.048,27.43,27.43,0,0,1,1.215-4.032h51.523Zm.8-1.186H213.133a28.7,28.7,0,0,0-1.6,4.98,29.163,29.163,0,0,0-.682,6.285,28.451,28.451,0,0,0,.623,6.048,28.905,28.905,0,0,0,11.295,17.313h33.825a28.645,28.645,0,0,0,11.917-23.36,29.785,29.785,0,0,0-.682-6.285,28.7,28.7,0,0,0-1.6-4.98h0Z" transform="translate(-210.85 -218.92)"/>
    </g>
    <path id="Path_12607" data-name="Path 12607" d="M260.613,230.166a28.644,28.644,0,0,1-11.917,23.36H214.87c44.2,2.194,43.46-34.6,43.46-34.6a28.706,28.706,0,0,1,1.6,4.98,29.165,29.165,0,0,1,.682,6.285Z" transform="translate(380.685 382.884)"/>
    <g id="Group_6621" data-name="Group 6621" transform="translate(500.97 457.41)">
      <path id="Path_12608" data-name="Path 12608" d="M222.576,211.9a12.5,12.5,0,0,0,7.145-2.372,60.921,60.921,0,0,1-1.067,13.133c-2.816,4.536-10.613,12.866-10.079,12.807a24.649,24.649,0,0,0,6.255-1.453,46.54,46.54,0,0,1-4.773,7.8c-3.795,5.04-9.16,9.071-11.206,15.238a.365.365,0,0,1-.237.267.446.446,0,0,1-.741.326c-10.168-9.664-12.006-24.339-13.489-37.59-.059-.623-.148-1.245-.208-1.868a40.941,40.941,0,0,0,9.368,7.322c.5.267-6.374-10.7-9.724-15.771a29.429,29.429,0,0,1,1.749-9.4c2.372-6.374,6.463-12.362,10.435-17.846.148-.237.356-.445.5-.682a30.633,30.633,0,0,0,4.387,7.945c.326.415-.711-8.034-1.364-11.888,1.008-1.245,1.986-2.461,3.024-3.676,1.364-1.6,3.024-4.3,5.455-3.943,2.372.326,7.737,10.02,8.449,12.777.3,1.186.563,2.4.8,3.587.119.5.208,1.038.3,1.571a145.87,145.87,0,0,1,1.808,14.734,7.114,7.114,0,0,1-.534.771c-1.986,2.7-6.759,8.152-6.285,8.152Z" transform="translate(-161.638 -170.219)" fill="#aab6c2"/>
      <path id="Path_12609" data-name="Path 12609" d="M206.856,198.661c5.01-.771,8.864-3.943,12.54-7.2.563-.5-.119-1.423-.682-.919-3.439,3.053-7.056,6.137-11.74,6.937q1.6-11.206,3.765-22.353c.148-.741-.978-.919-1.127-.178-1.957,9.813-3.528,19.714-4.773,29.645a49.009,49.009,0,0,1-6.641-13.37c-.237-.711-1.3-.267-1.067.415a49.844,49.844,0,0,0,7.145,14.111.555.555,0,0,0,.415.237c-.267,2.164-.5,4.358-.741,6.522a30.413,30.413,0,0,1-4.921-8.627.573.573,0,0,0-1.067.415,31.764,31.764,0,0,0,5.6,9.575.714.714,0,0,0,.237.178q-1.112,10.717-1.66,21.522a.559.559,0,0,0-.059.237c-.148,2.638-.237,5.247-.267,7.886-.059,1.719-.119,3.439-.148,5.129a.441.441,0,0,0,.178.385c.3,16.186,2.7,32.224,6.107,48.085.385-.089.741-.178,1.127-.267-3.854-17.906-6.4-36.049-6.077-54.4.059-1.927.148-3.884.237-5.81a.526.526,0,0,0,.5-.059,18.212,18.212,0,0,0,5.247-5.4c.415-.623-.5-1.334-.889-.711a18.4,18.4,0,0,1-4.8,5.01q.978-18.587,3.557-37h.059Z" transform="translate(-155.198 -161.869)"/>
      <path id="Path_12610" data-name="Path 12610" d="M194.691,215.835a12.651,12.651,0,0,1-6.759.593,43.789,43.789,0,0,0,4.714,9.516c3.706,2.49,12.747,6.166,12.3,6.314a24.041,24.041,0,0,1-5.751.949,35.9,35.9,0,0,0,6.314,4.3c4.684,2.55,10.435,3.795,13.963,7.767.089.089.178.148.267.119a.405.405,0,0,0,.711,0c5.84-10.613,3.113-22.234.563-32.669-.119-.5-.237-.978-.385-1.482a37.34,37.34,0,0,1-5.84,8.6c-.356.356,2.312-10.139,3.676-15.06a21.245,21.245,0,0,0-4.21-6.492c-3.884-4-9.071-7.145-14.052-9.99-.207-.119-.415-.208-.623-.326a23.96,23.96,0,0,1-1.423,7.411c-.148.415-1.719-6.285-2.283-9.4-1.215-.593-2.4-1.186-3.646-1.749-1.63-.771-3.824-2.253-5.781-1.186-1.927,1.038-3.676,10.079-3.468,12.392.089.978.208,1.986.356,2.964.059.415.119.86.208,1.275a109.589,109.589,0,0,0,2.727,11.68,5.213,5.213,0,0,0,.682.415c2.461,1.364,8.123,3.884,7.708,4.061Z" transform="translate(-182.964 -145.751)" fill="#aab6c2"/>
      <g id="Group_6617" data-name="Group 6617" transform="translate(0.402 46.218)">
        <path id="Path_12611" data-name="Path 12611" d="M225.558,277.415c-1.719-13.044-4.328-25.851-8.775-38.124a.309.309,0,0,0,0-.356l-1.6-3.824c-.8-1.957-1.63-3.913-2.52-5.84a.648.648,0,0,0-.119-.148c-2.4-5.277-4.98-10.494-7.678-15.623a.531.531,0,0,0,.148-.208A24.82,24.82,0,0,0,207,204.25c0-.593-1.008-.563-1.038.03a24.088,24.088,0,0,1-1.69,8.093c-.83-1.571-1.66-3.113-2.52-4.654a.578.578,0,0,0,.3-.3,38.966,38.966,0,0,0,1.957-12.955c0-.593-1.038-.563-1.038.03a37.529,37.529,0,0,1-1.779,12.214q-5.914-10.583-12.659-20.692c-.326-.5-1.245,0-.919.5,3.409,5.1,6.611,10.287,9.694,15.534-4.21.949-8.152-.178-11.977-1.334-.623-.178-.919.741-.326.919,4.091,1.245,8.271,2.372,12.747,1.275h.03a297.437,297.437,0,0,1,13.755,26.621,15.582,15.582,0,0,1-5.544-2.164c-.534-.326-1.067.5-.563.83a16.257,16.257,0,0,0,6.048,2.312.475.475,0,0,0,.445-.119c.652,1.423,1.275,2.846,1.9,4.269,5.633,13.7,8.716,28.163,10.643,42.867.356-.059.682-.119,1.038-.178Z" transform="translate(-179.993 -185.81)"/>
        <path id="Path_12612" data-name="Path 12612" d="M192.053,191.478a26.268,26.268,0,0,1-8.953-3.5c.059.415.119.86.208,1.275a27.6,27.6,0,0,0,8.419,3.142C192.379,192.516,192.675,191.6,192.053,191.478Z" transform="translate(-183.1 -181.546)"/>
      </g>
      <path id="Path_12613" data-name="Path 12613" d="M254.249,197.113c-.059,4.15-9.635,6.137-12.688,7.263-6.73,2.49-13.311,5.01-18.291,10.405-5.87,6.374-10.909,13.755-15.979,20.781a1.146,1.146,0,0,1-1.186.5,16.939,16.939,0,0,1-1.393-3.024c-1.749-4.3-4.417-12.155-3.765-16.661A27.4,27.4,0,0,1,204,207.43a8.127,8.127,0,0,0,1.927,3.795c.237.237.771-5.662,1.1-8.33.445-.534.889-1.067,1.364-1.571a28.394,28.394,0,0,1,3.528-3.261l.8-.623a33.818,33.818,0,0,1,3.231-2.134c.3-.178.593-.356.889-.5,1.038-.563,2.1-1.126,3.231-1.6a21.851,21.851,0,0,0,1.779,5.9c.178.385.623-4.654.711-6.907,1.038-.385,2.1-.712,3.172-1.038a16.28,16.28,0,0,0,1.334,3.824c.148.3,1.571-3.142,2.075-4.625a41.657,41.657,0,0,1,10.257-.8,4.053,4.053,0,0,1,.86.059c.919.059,1.838.178,2.727.3,3.291.5,11.058,2.609,11.236,7.056v.119Z" transform="translate(-147.835 -132.336)" fill="#aab6c2"/>
      <g id="Group_6618" data-name="Group 6618" transform="translate(56.064 62.465)">
        <path id="Path_12614" data-name="Path 12614" d="M215.406,202.91c-8.123,8.034-10.672,22.768-11.176,26.977a18.263,18.263,0,0,0-1.66,5.455c-.978,6.611-.682,13.607-.534,20.277q.089,3.291.267,6.581c.385-.059.741-.148,1.127-.208-.059-1.393-.148-2.757-.178-4.15-.208-5.959-.208-11.947.089-17.935a25.963,25.963,0,0,1,1.631-9.042,1.229,1.229,0,0,0,.356-.326c5.069-7.026,10.109-14.408,15.979-20.781,4.98-5.425,11.562-7.915,18.291-10.405,3.053-1.127,12.629-3.142,12.688-7.263-12.747,1.482-27.481,1.63-36.849,10.88Z" transform="translate(-201.876 -189.718)"/>
        <path id="Path_12615" data-name="Path 12615" d="M207.2,200.539a26.936,26.936,0,0,1-.178-9.249c-.3.178-.623.356-.889.5a26.578,26.578,0,0,0,.267,8.923c.119.534.919.326.83-.178Z" transform="translate(-194.022 -191.29)"/>
        <path id="Path_12616" data-name="Path 12616" d="M206.586,200.431a35.226,35.226,0,0,1-1.186-8.241l-.8.623a34.95,34.95,0,0,0,1.186,7.8c.148.5.949.326.83-.178Z" transform="translate(-196.524 -189.522)"/>
      </g>
      <g id="Group_6619" data-name="Group 6619" transform="translate(20.043 106.221)">
        <path id="Path_12617" data-name="Path 12617" d="M237.359,236.142c-14.734-16.69-6.729-29.912-6.729-29.912H204.068s8,13.222-6.729,29.912c-7.322,8.3-13.281,26.829,2.757,38.213.771.563,2.016,1.423,1.9,2.609h30.712c-.119-1.186,1.127-2.075,1.9-2.609,16.038-11.384,10.079-29.912,2.757-38.213Z" transform="translate(-189.35 -205.696)" fill="#fff"/>
        <path id="Path_12618" data-name="Path 12618" d="M233.644,277.851H201.775l.059-.563c.089-.889-.978-1.63-1.69-2.135-6.048-4.3-9.486-9.842-10.257-16.512-1.067-9.22,3.32-17.876,7.411-22.5,14.289-16.157,6.759-29.141,6.67-29.289l-.474-.8h28.43l-.474.8c-.089.119-7.589,13.1,6.67,29.289,4.091,4.625,8.449,13.281,7.411,22.5-.771,6.67-4.21,12.214-10.257,16.483-.712.5-1.779,1.275-1.69,2.134l.059.563Zm-30.8-1.067h29.7a4.492,4.492,0,0,1,2.1-2.52c5.781-4.121,9.1-9.4,9.813-15.771,1.038-8.864-3.2-17.224-7.145-21.671h0c-12.777-14.467-8.627-26.562-7.2-29.734H205.244c1.453,3.142,5.573,15.267-7.2,29.734-3.943,4.447-8.152,12.807-7.145,21.671.741,6.344,4.032,11.651,9.813,15.771a4.492,4.492,0,0,1,2.1,2.52Z" transform="translate(-189.725 -206.05)"/>
      </g>
      <g id="Group_6620" data-name="Group 6620" transform="translate(22.606 106.755)">
        <path id="Path_12619" data-name="Path 12619" d="M236.214,236.142c-14.734-16.69-6.729-29.912-6.729-29.912h-5.6c-6.789,8.212-16.75,10.02-20.307,2.075,2.846,8.034.86,15.92-4.506,23.776,2.194-2.075,9.338-4.15,14.408-3.469,12.155,1.63,21.4,12.273,23.094,24.25,1.1,7.737-5.425,20.841-21.73,20.841-15.238,0-21.434-6.137-24.25-9.249a23.975,23.975,0,0,0,8.36,9.9c.771.563,2.016,1.423,1.9,2.609H231.56c-.119-1.186,1.127-2.075,1.9-2.609,16.038-11.384,10.079-29.912,2.757-38.213Z" transform="translate(-190.59 -206.23)"/>
        <path id="Path_12620" data-name="Path 12620" d="M192.41,219.011c1.127-1.364,2.134-2.7,3.083-4.061A14.873,14.873,0,0,0,192.41,219.011Z" transform="translate(-187.014 -189.099)"/>
        <path id="Path_12621" data-name="Path 12621" d="M195.52,208.315c-.237-.682-.534-1.393-.83-2.075C194.957,206.981,195.253,207.663,195.52,208.315Z" transform="translate(-182.535 -206.21)"/>
      </g>
    </g>
  </g>
</svg>
