<svg id="Group_10447" data-name="Group 10447" xmlns="http://www.w3.org/2000/svg" xmlns:xlink="http://www.w3.org/1999/xlink" width="638.596" height="635.01" viewBox="0 0 638.596 635.01">
  <defs>
    <clipPath id="clip-path">
      <rect id="Rectangle_8824" data-name="Rectangle 8824" width="638.596" height="635.01" fill="none"/>
    </clipPath>
    <clipPath id="clip-path-3">
      <rect id="Rectangle_8822" data-name="Rectangle 8822" width="372.934" height="257.369" fill="none"/>
    </clipPath>
  </defs>
  <g id="Group_10442" data-name="Group 10442" clip-path="url(#clip-path)">
    <g id="Group_10441" data-name="Group 10441">
      <g id="Group_10440" data-name="Group 10440" clip-path="url(#clip-path)">
        <path id="Path_18637" data-name="Path 18637" d="M15.285,326.5c-30.449,58.1-8.09,113.126,4.385,143.912,25.719,63.471,112,144.812,318.845,159.009C604.887,647.7,645.306,416.132,637.782,316.4S618.7,85.793,400.118,13.02,267.223,192.969,99.034,267.1C69.17,280.269,30.55,297.368,15.285,326.5" transform="translate(-0.001 0.003)" fill="#e6ebf0"/>
        <path id="Path_18638" data-name="Path 18638" d="M15.285,326.5c-30.449,58.1-8.09,113.126,4.385,143.912,25.719,63.471,112,144.812,318.845,159.009C604.887,647.7,645.306,416.132,637.782,316.4S618.7,85.793,400.118,13.02,267.223,192.969,99.034,267.1C69.17,280.269,30.55,297.368,15.285,326.5" transform="translate(-0.001 0.003)" fill="#e6ebf0"/>
        <path id="Path_18639" data-name="Path 18639" d="M12.047,170.592A17.532,17.532,0,0,0,26.49,181.256c24.985,2.449,61.035-8.137,98.308-54.987C166.47,73.889,212.136,19.861,167.4,24.043S48.745,70.691,21.958,115.13c-16.452,27.294-14.14,45.489-9.911,55.462" transform="translate(19.049 50.573)" fill="#e6ebf0"/>
        <path id="Path_18640" data-name="Path 18640" d="M15.285,326.5c-30.449,58.1-8.09,113.126,4.385,143.912,25.719,63.471,112,144.812,318.845,159.009C604.887,647.7,645.306,416.132,637.782,316.4S618.7,85.793,400.118,13.02,267.223,192.969,99.034,267.1C69.17,280.269,30.55,297.368,15.285,326.5" transform="translate(-0.001 0.003)" fill="#e6ebf0"/>
        <rect id="Rectangle_8807" data-name="Rectangle 8807" width="592.854" height="4.504" transform="translate(22.871 630.506)"/>
        <path id="Path_18641" data-name="Path 18641" d="M86.606,158.127H30.931V127.619H86.606ZM34.12,154.935H83.413V130.808H34.12Z" transform="translate(65.684 271.008)" fill="#aab6c2"/>
        <path id="Path_18642" data-name="Path 18642" d="M74.4,166.872H18.723V136.364H74.4ZM21.912,163.68H71.205V139.553H21.912Z" transform="translate(39.76 289.579)" fill="#aab6c2"/>
        <path id="Path_18643" data-name="Path 18643" d="M130.562,74.191H74.887V43.683h55.675ZM78.076,71h49.293V46.875H78.076Z" transform="translate(159.028 92.764)" fill="#aab6c2"/>
        <path id="Path_18644" data-name="Path 18644" d="M161.89,182.014H106.215V151.506H161.89ZM109.4,178.822H158.7V154.7H109.4Z" transform="translate(225.555 321.734)" fill="#aab6c2"/>
        <path id="Path_18645" data-name="Path 18645" d="M145.068,182.014H89.393V151.506h55.675Zm-52.485-3.192h49.293V154.7H92.582Z" transform="translate(189.832 321.734)" fill="#aab6c2"/>
        <path id="Path_18646" data-name="Path 18646" d="M153.489,190.759H97.814V160.251h55.675ZM101,187.567H150.3V163.44H101Z" transform="translate(207.715 340.305)" fill="#aab6c2"/>
        <path id="Path_18647" data-name="Path 18647" d="M147.368,118.754H91.69V88.246h55.678Zm-52.489-3.192h49.3V91.435h-49.3Z" transform="translate(194.71 187.397)" fill="#aab6c2"/>
        <path id="Path_18648" data-name="Path 18648" d="M159.573,127.5H103.9V96.991h55.675Zm-52.485-3.192H156.38V100.18H107.087Z" transform="translate(220.635 205.967)" fill="#aab6c2"/>
        <path id="Path_18649" data-name="Path 18649" d="M217.525,85.664H161.85V55.156h55.675Zm-52.485-3.192h49.293V58.345H165.039Z" transform="translate(343.7 117.128)" fill="#aab6c2"/>
        <path id="Path_18650" data-name="Path 18650" d="M200.7,85.664H145.028V55.156H200.7Zm-52.485-3.192H197.51V58.345H148.217Z" transform="translate(307.977 117.128)" fill="#aab6c2"/>
        <path id="Path_18651" data-name="Path 18651" d="M209.123,94.409H153.448V63.9h55.675ZM156.64,91.22h49.293V67.093H156.64Z" transform="translate(325.858 135.698)" fill="#aab6c2"/>
        <path id="Path_18652" data-name="Path 18652" d="M248.037,305.445a78.772,78.772,0,1,0-90.962-115.61c-11.91,19.972-29.811,37.233-52.02,44.12l-2.237.693,18.857,60.829,2-.612c22.305-6.919,46.95-2.827,68.172,6.925a78.46,78.46,0,0,0,56.193,3.655" transform="translate(218.344 321.559)" fill="#f40"/>
        <path id="Path_18653" data-name="Path 18653" d="M125.845,201.323a3.068,3.068,0,0,1-.387-.684c-.381-.959-.066-1.784.712-1.83,21.749-1.459,44.58-4.32,57.48-7.5a7.974,7.974,0,0,1,.059-2.436c.875-4.873,6.225-8.5,10.036-6.806a6.412,6.412,0,0,1,3.52,5.123c.216,1.484.578,4.029-9.755,6.969a7.948,7.948,0,0,0,1.712,1.774c7.734,6.113,18.5-3.411,21.984-7.6.459-.544,1.427-.35,2.161.437a1.979,1.979,0,0,1,.49,2.427c-.565.675-14.009,16.518-25.657,7.322a13.534,13.534,0,0,1-3.3-3.67,211.924,211.924,0,0,1-22.362,3.939c-17.217,2.29-34.809,3.486-34.987,3.5a2.18,2.18,0,0,1-1.712-.962m68.038-15.936a.372.372,0,0,0-.159-.128c-1.859-.822-6.01,1.627-6.863,5.194,4.66-1.362,7.369-2.767,7.312-4.129a2.22,2.22,0,0,0-.291-.937" transform="translate(266.076 385.737)"/>
        <path id="Path_18654" data-name="Path 18654" d="M122.809,203.858c.153-.087,15.334-9.071,30.82-16.93a213.248,213.248,0,0,1,20.662-9.414,13.547,13.547,0,0,1,.64-4.892c4.392-14.172,24.448-8.73,25.3-8.5a2,2,0,0,1,.962,2.286c-.153,1.068-.843,1.771-1.531,1.581-5.248-1.474-19.507-3.227-22.424,6.185a8.109,8.109,0,0,0-.409,2.433c10.186-3.43,11.326-1.118,11.988.222a6.407,6.407,0,0,1,0,6.216c-2.18,3.555-8.64,3.589-12.132.069a7.918,7.918,0,0,1-1.421-1.974c-12.432,4.682-32.866,15.256-51.62,26.363-.672.4-1.4-.1-1.634-1.106a3.258,3.258,0,0,1-.062-.781,2.185,2.185,0,0,1,.862-1.762M186.758,179.3c-.722-1.153-3.748-.778-8.365.734,2.724,2.461,7.537,2.13,8.6.4a.443.443,0,0,0,.059-.191,2.072,2.072,0,0,0-.294-.94" transform="translate(258.957 345.944)"/>
        <path id="Path_18655" data-name="Path 18655" d="M115.2,232.829l-11.82-38.139,60.8-18.848,2.062,1.353a28.483,28.483,0,0,1,10.7,34.5l-.937,2.29Zm-7.159-35.687,9.617,31.023,55.565-17.223.269-.659a24.737,24.737,0,0,0-9.29-29.971l-.6-.394Z" transform="translate(219.526 373.415)"/>
        <path id="Path_18656" data-name="Path 18656" d="M120.913,245.512l-19.541-63.052a4.856,4.856,0,0,1,3.2-6.082l0,0a4.861,4.861,0,0,1,6.085,3.208l19.544,63.049a4.866,4.866,0,0,1-9.3,2.88" transform="translate(214.803 374.077)"/>
        <path id="Path_18657" data-name="Path 18657" d="M116.146,240.452,98.691,184.146a4.9,4.9,0,0,1,9.3-2.883l17.458,56.309a4.9,4.9,0,0,1-9.3,2.88" transform="translate(209.208 378.656)" fill="#aab6c2"/>
        <path id="Path_18658" data-name="Path 18658" d="M113.163,241.381,95.711,185.069A4.9,4.9,0,0,1,105,182.19l17.455,56.3a4.9,4.9,0,0,1-9.3,2.889" transform="translate(202.877 380.622)"/>
        <path id="Path_18659" data-name="Path 18659" d="M110.18,242.3,92.729,186a4.9,4.9,0,0,1,9.3-2.88l17.448,56.305a4.9,4.9,0,0,1-9.293,2.88" transform="translate(196.545 382.588)" fill="#aab6c2"/>
        <path id="Path_18660" data-name="Path 18660" d="M107.2,243.229,89.749,186.924a4.625,4.625,0,0,1,3.355-5.591l.006,0a4.626,4.626,0,0,1,5.932,2.714l17.455,56.3a4.9,4.9,0,0,1-9.3,2.883" transform="translate(190.214 384.552)"/>
        <path id="Path_18661" data-name="Path 18661" d="M88.258,196.41l9.236,29.764a9.731,9.731,0,0,0,12.179,6.416l-15-48.359a9.727,9.727,0,0,0-6.413,12.179" transform="translate(186.488 391.228)" fill="#aab6c2"/>
        <path id="Path_18662" data-name="Path 18662" d="M98.323,101.611H88.89l5.441-77.8h9.43Z" transform="translate(188.765 50.575)"/>
        <path id="Path_18663" data-name="Path 18663" d="M63.919,376.685H59.206l70.727-257.161h4.713Z" transform="translate(125.728 253.819)"/>
        <rect id="Rectangle_8808" data-name="Rectangle 8808" width="4.51" height="257.161" transform="translate(270.498 373.345)"/>
        <path id="Path_18664" data-name="Path 18664" d="M166.866,376.685h-4.717L91.425,119.525h4.713Z" transform="translate(194.148 253.819)"/>
        <path id="Path_18665" data-name="Path 18665" d="M77.7,262.484l39.779-142.96H108.05L68.262,262.484Z" transform="translate(144.96 253.818)"/>
        <rect id="Rectangle_8809" data-name="Rectangle 8809" width="9.427" height="142.96" transform="translate(268.037 373.345)"/>
        <path id="Path_18666" data-name="Path 18666" d="M140.281,262.484,100.05,119.524H90.623l40.225,142.96Z" transform="translate(192.444 253.818)"/>
        <rect id="Rectangle_8810" data-name="Rectangle 8810" width="39.491" height="10.024" transform="translate(253.009 373.342)"/>
        <path id="Path_18667" data-name="Path 18667" d="M121.441,36.371H86.08l.7-10.017h35.368Z" transform="translate(182.796 55.964)"/>
        <rect id="Rectangle_8811" data-name="Rectangle 8811" width="82.672" height="10.02" transform="translate(231.416 381.644)"/>
        <path id="Path_18668" data-name="Path 18668" d="M133.387,177.339,65.3,200.666v-3.979l68.088-23.324Z" transform="translate(138.668 368.149)"/>
        <path id="Path_18669" data-name="Path 18669" d="M155.859,200.306,87.543,177.342v-3.979l68.316,22.968Z" transform="translate(185.904 368.148)"/>
        <path id="Path_18670" data-name="Path 18670" d="M19.888,130.271H432.437a1.712,1.712,0,0,0,1.684-1.574l.612-8.709a1.451,1.451,0,0,0-1.465-1.574H20.719a1.712,1.712,0,0,0-1.684,1.574l-.612,8.709a1.451,1.451,0,0,0,1.465,1.574" transform="translate(39.116 251.461)"/>
        <path id="Path_18671" data-name="Path 18671" d="M27.424,41.068H437.246a3.2,3.2,0,0,0,3.145-2.936l.419-5.982a2.7,2.7,0,0,0-2.733-2.936H28.255a3.2,3.2,0,0,0-3.142,2.936l-.419,5.982a2.7,2.7,0,0,0,2.73,2.936" transform="translate(52.424 62.038)"/>
        <path id="Path_18672" data-name="Path 18672" d="M20.618,314.286,40.406,31.374H431.718L411.93,314.286Z" transform="translate(43.784 66.626)" fill="#fff"/>
        <path id="Path_18673" data-name="Path 18673" d="M431.43,32.752,411.767,314.023H22.1L41.765,32.752Zm1.762-1.64H40.234l-19.9,284.554H413.295Z" transform="translate(43.187 66.069)"/>
        <path id="Path_18674" data-name="Path 18674" d="M18.2,130.271H430.748a1.715,1.715,0,0,0,1.684-1.574l.612-8.709a1.451,1.451,0,0,0-1.465-1.574H19.03a1.712,1.712,0,0,0-1.684,1.574l-.612,8.709a1.451,1.451,0,0,0,1.465,1.574" transform="translate(35.529 251.461)" fill="#aab6c2"/>
        <path id="Path_18675" data-name="Path 18675" d="M25.738,41.068H435.56a3.2,3.2,0,0,0,3.142-2.936l.422-5.982a2.7,2.7,0,0,0-2.733-2.936H26.569a3.2,3.2,0,0,0-3.142,2.936L23,38.132a2.7,2.7,0,0,0,2.733,2.936" transform="translate(48.837 62.038)" fill="#aab6c2"/>
        <g id="Group_10439" data-name="Group 10439" transform="translate(85.541 108.41)" opacity="0.5">
          <g id="Group_10438" data-name="Group 10438">
            <g id="Group_10437" data-name="Group 10437" clip-path="url(#clip-path-3)">
              <path id="Path_18676" data-name="Path 18676" d="M377.8,292.077H27.386l.034-.425L49.907,34.707H400.319l-.038.425ZM28.239,291.3h348.85L399.466,35.488H50.619Z" transform="translate(-27.385 -34.707)"/>
              <rect id="Rectangle_8812" data-name="Rectangle 8812" width="349.631" height="0.781" transform="translate(4.168 213.821)"/>
              <rect id="Rectangle_8813" data-name="Rectangle 8813" width="349.634" height="0.781" transform="translate(7.91 171.059)"/>
              <rect id="Rectangle_8814" data-name="Rectangle 8814" width="349.631" height="0.781" transform="translate(11.652 128.291)"/>
              <rect id="Rectangle_8815" data-name="Rectangle 8815" width="349.634" height="0.781" transform="translate(15.391 85.53)"/>
              <rect id="Rectangle_8816" data-name="Rectangle 8816" width="349.631" height="0.781" transform="translate(19.133 42.768)"/>
              <rect id="Rectangle_8817" data-name="Rectangle 8817" width="257.567" height="0.784" transform="translate(291.844 256.984) rotate(-85.199)"/>
              <rect id="Rectangle_8818" data-name="Rectangle 8818" width="257.568" height="0.784" transform="translate(233.571 256.985) rotate(-85.199)"/>
              <rect id="Rectangle_8819" data-name="Rectangle 8819" width="257.568" height="0.784" transform="translate(175.299 256.985) rotate(-85.199)"/>
              <rect id="Rectangle_8820" data-name="Rectangle 8820" width="257.567" height="0.784" transform="translate(117.027 256.984) rotate(-85.199)"/>
              <rect id="Rectangle_8821" data-name="Rectangle 8821" width="257.568" height="0.784" transform="translate(58.754 256.985) rotate(-85.199)"/>
            </g>
          </g>
        </g>
        <path id="Path_18677" data-name="Path 18677" d="M114.061,150.15H60.992l3.414-48.793h53.066Z" transform="translate(129.52 215.238)" fill="#aab6c2"/>
        <path id="Path_18678" data-name="Path 18678" d="M89.624,137.472H36.555l2.112-30.146H91.733Z" transform="translate(77.627 227.916)" fill="#f40"/>
        <path id="Path_18679" data-name="Path 18679" d="M137.325,171.148H84.255l5.569-79.679h53.069Z" transform="translate(178.922 194.24)"/>
        <path id="Path_18680" data-name="Path 18680" d="M160.588,191.764h-53.07l7.693-110h53.066Z" transform="translate(228.324 173.625)" fill="#f40"/>
        <path id="Path_18681" data-name="Path 18681" d="M38.49,201.344a3.781,3.781,0,0,1-2.511-.653,3.328,3.328,0,0,1-.459-4.96l40.638-47.844a4.183,4.183,0,0,1,4.626-1.215l42.924,17.077,38.586-56.059a4.193,4.193,0,0,1,2.677-1.73,3.79,3.79,0,0,1,3,.643l41.622,31.283L239.367,80.6a4.141,4.141,0,0,1,2.321-1.974,3.967,3.967,0,0,1,3,.122l39.541,18.62,30.542-41.893a4.123,4.123,0,0,1,5.307-1.224,3.292,3.292,0,0,1,.9,4.876l-32.56,44.68a4.157,4.157,0,0,1-5.023,1.374L244.352,86.793l-30.174,58.064a4.184,4.184,0,0,1-2.677,2.077,3.834,3.834,0,0,1-3.249-.593l-42.071-31.623-38.039,55.259a4.163,4.163,0,0,1-4.87,1.531l-43.227-17.2-38.7,45.567a4.248,4.248,0,0,1-2.858,1.465" transform="translate(73.531 114.134)" fill="#f40"/>
        <path id="Path_18682" data-name="Path 18682" d="M152,81.175a3.437,3.437,0,0,1-3.8-2.677l-3.464-18.673-23.317,7.244a3.585,3.585,0,0,1-4.635-2.215,3.8,3.8,0,0,1,2.742-4.507l27.319-8.5a3.988,3.988,0,0,1,3.017.241,3.26,3.26,0,0,1,1.687,2.261L155.7,76.777a3.888,3.888,0,0,1-3.111,4.311,4.992,4.992,0,0,1-.59.087" transform="translate(247.734 109.71)" fill="#f40"/>
        <path id="Path_18683" data-name="Path 18683" d="M158.2,326.492c-43.452,37.2-99.792,29.814-124.315-17.811S24.714,192.3,68.166,155.1s98.552-28.74,123.072,18.885S201.652,289.3,158.2,326.492" transform="translate(47.159 280.128)"/>
        <path id="Path_18684" data-name="Path 18684" d="M95.615,345.2c-26.938,0-50.058-14.9-63.44-40.888C8.308,257.956,23.311,190.786,65.616,154.581c17.248-14.771,36.686-22.574,56.209-22.574,26.935,0,50.058,14.906,63.434,40.888,23.87,46.354,8.871,113.517-33.435,149.728C134.575,337.394,115.137,345.2,95.615,345.2" transform="translate(44.221 280.326)" fill="#f40"/>
        <path id="Path_18685" data-name="Path 18685" d="M122.257,131.812v1.218h0c26.7,0,49.621,14.784,62.89,40.563,23.745,46.113,8.812,112.945-33.294,148.985-17.139,14.672-36.44,22.427-55.812,22.427-26.7,0-49.624-14.784-62.9-40.56C9.4,258.332,24.339,191.494,66.442,155.454c17.136-14.668,36.436-22.421,55.812-22.424Zm0,0c-18.835,0-38.729,7.415-56.605,22.715C23.074,190.969,8.038,258.342,32.064,305,46,332.071,70.015,346.223,96.044,346.223c18.838,0,38.732-7.418,56.605-22.721,42.574-36.44,57.614-103.809,33.582-150.469-13.937-27.072-37.951-41.225-63.977-41.222" transform="translate(43.789 279.912)"/>
        <path id="Path_18686" data-name="Path 18686" d="M88.891,319.473c-23.055,0-42.849-12.757-54.3-35-20.438-39.7-7.59-97.221,28.64-128.238C78,143.591,94.645,136.91,111.353,136.91c23.055,0,42.846,12.757,54.3,35,20.441,39.7,7.593,97.221-28.637,128.238-14.768,12.641-31.408,19.326-48.122,19.326" transform="translate(52.816 290.738)" fill="#fff"/>
        <path id="Path_18687" data-name="Path 18687" d="M111.787,136.714v1.221c22.818,0,42.409,12.635,53.754,34.672,20.319,39.457,7.534,96.653-28.493,127.492-14.659,12.547-31.164,19.179-47.725,19.179-22.821,0-42.415-12.638-53.76-34.669-20.316-39.46-7.531-96.656,28.5-127.495,14.656-12.547,31.161-19.179,47.725-19.179Zm0,0c-16.146,0-33.2,6.36-48.518,19.472-36.49,31.239-49.381,88.984-28.787,128.975C46.426,308.367,67.01,320.5,89.322,320.5c16.146,0,33.2-6.36,48.518-19.472,36.486-31.236,49.377-88.984,28.784-128.975-11.948-23.2-32.532-35.337-54.841-35.337" transform="translate(52.388 290.322)"/>
        <path id="Path_18688" data-name="Path 18688" d="M123.025,278.542c-30.408,26.032-68.975,20.113-86.133-13.219s-6.422-81.45,23.989-107.479,68.975-20.11,86.136,13.219,6.416,81.45-23.992,107.479" transform="translate(60.985 300.734)" fill="#f40"/>
        <path id="Path_18689" data-name="Path 18689" d="M82.87,295.777a49.871,49.871,0,0,1-9.6-.925C57.719,291.8,44.75,281.559,36.744,266.01,19.489,232.5,30.316,183.95,60.883,157.79c15.309-13.11,33.716-18.741,50.543-15.44,15.549,3.052,28.521,13.291,36.53,28.84,17.252,33.51,6.425,82.059-24.139,108.222-12.438,10.648-26.935,16.364-40.947,16.364m18.96-153.13c-13.728,0-27.937,5.61-40.154,16.071-30.164,25.813-40.863,73.694-23.845,106.736,7.828,15.212,20.5,25.226,35.674,28.2,16.442,3.227,34.494-2.3,49.518-15.171,30.161-25.813,40.856-73.7,23.845-106.739-7.831-15.209-20.5-25.223-35.677-28.2a48.864,48.864,0,0,0-9.361-.9" transform="translate(60.59 300.328)"/>
        <path id="Path_18690" data-name="Path 18690" d="M75.448,268.017c-15.293,0-28.428-8.462-36.021-23.227-13.584-26.385-5.041-64.624,19.044-85.242,9.808-8.4,20.859-12.832,31.951-12.832,15.29,0,28.418,8.468,36.018,23.227,13.588,26.385,5.038,64.624-19.051,85.239-9.8,8.4-20.85,12.835-31.942,12.835" transform="translate(70.008 311.562)" fill="#fff"/>
        <path id="Path_18691" data-name="Path 18691" d="M90.847,147.742h0c15.052,0,27.984,8.343,35.474,22.893,13.463,26.147,4.982,64.055-18.9,84.5-9.7,8.3-20.609,12.685-31.554,12.685-15.052,0-27.987-8.343-35.478-22.893-13.463-26.147-4.982-64.055,18.9-84.5,9.7-8.3,20.606-12.685,31.554-12.685m0-1.221c-10.764,0-22.131,4.239-32.345,12.982C34.173,180.324,25.576,218.825,39.3,245.488c7.965,15.468,21.69,23.555,36.561,23.555,10.764,0,22.134-4.239,32.348-12.985,24.326-20.822,32.919-59.32,19.191-85.983-7.965-15.468-21.687-23.555-36.561-23.555" transform="translate(69.583 311.148)"/>
        <path id="Path_18692" data-name="Path 18692" d="M93.4,233.582c-18.248,15.615-41.384,12.066-51.679-7.931s-3.854-48.875,14.39-64.492,41.387-12.066,51.68,7.934,3.858,48.871-14.39,64.489" transform="translate(78.182 321.558)" fill="#f40"/>
        <path id="Path_18693" data-name="Path 18693" d="M69.467,244.324a29.821,29.821,0,0,1-5.807-.562c-9.405-1.843-17.242-8.034-22.081-17.43-10.4-20.2-3.883-49.465,14.537-65.23,9.249-7.915,20.388-11.3,30.533-9.318,9.405,1.846,17.248,8.037,22.087,17.436,10.4,20.2,3.883,49.462-14.54,65.23-7.509,6.428-16.264,9.874-24.729,9.874m11.376-91.877c-8.174,0-16.646,3.342-23.933,9.58C38.894,177.449,32.5,206.048,42.664,225.78c4.663,9.052,12.2,15.015,21.231,16.789,9.8,1.93,20.547-1.381,29.508-9.046,18.017-15.418,24.411-44.017,14.247-63.746-4.66-9.058-12.2-15.024-21.234-16.8a29.121,29.121,0,0,0-5.572-.534" transform="translate(77.781 321.151)"/>
        <path id="Path_18694" data-name="Path 18694" d="M62,216.566c-7.528,0-13.994-4.176-17.739-11.451-6.731-13.075-2.493-32.029,9.452-42.249,4.848-4.151,10.3-6.344,15.774-6.344,7.531,0,13.994,4.173,17.739,11.445,6.731,13.072,2.493,32.029-9.449,42.256-4.851,4.148-10.3,6.344-15.777,6.344" transform="translate(87.198 332.386)" fill="#fff"/>
        <path id="Path_18695" data-name="Path 18695" d="M69.9,157.547h0c7.29,0,13.559,4.048,17.2,11.117,6.606,12.838,2.433,31.454-9.308,41.509-4.735,4.054-10.052,6.2-15.377,6.2-7.294,0-13.563-4.051-17.2-11.117-6.613-12.838-2.439-31.461,9.3-41.509,4.738-4.054,10.058-6.2,15.384-6.2m0-1.221c-5.385,0-11.067,2.121-16.174,6.491-12.163,10.414-16.461,29.661-9.6,43,3.979,7.731,10.845,11.776,18.282,11.776,5.379,0,11.064-2.118,16.168-6.491,12.166-10.414,16.464-29.661,9.6-42.993C84.2,160.371,77.342,156.326,69.9,156.326" transform="translate(86.78 331.97)"/>
        <path id="Path_18696" data-name="Path 18696" d="M63.774,188.617c-6.082,5.207-13.791,4.023-17.226-2.646s-1.284-16.289,4.8-21.5,13.794-4.023,17.226,2.646,1.284,16.289-4.8,21.5" transform="translate(95.378 342.381)" fill="#f40"/>
        <path id="Path_18697" data-name="Path 18697" d="M56.072,192.88a10.614,10.614,0,0,1-2.015-.194,10.992,10.992,0,0,1-7.643-6.029c-3.548-6.891-1.331-16.864,4.945-22.237a12.655,12.655,0,0,1,10.52-3.2,10.984,10.984,0,0,1,7.643,6.028c3.548,6.891,1.331,16.864-4.945,22.237a13.237,13.237,0,0,1-8.506,3.389m3.739-30.636a11.866,11.866,0,0,0-7.659,3.1c-5.872,5.023-7.959,14.334-4.651,20.756a9.769,9.769,0,0,0,6.791,5.382,11.278,11.278,0,0,0,9.493-2.924c5.872-5.026,7.959-14.334,4.654-20.756a9.774,9.774,0,0,0-6.794-5.382,9.5,9.5,0,0,0-1.834-.181" transform="translate(94.972 341.972)"/>
        <path id="Path_18698" data-name="Path 18698" d="M19.518,142.237l89.212,82.8a2.492,2.492,0,0,0,3.389-3.655l-89.209-82.8Z" transform="translate(41.448 294.289)"/>
        <path id="Path_18699" data-name="Path 18699" d="M66.9,181.308l-8.63-30.049L34.4,129.113l.95,25.451L9.9,155.52l23.867,22.146,30.6,6.369Z" transform="translate(21.016 274.182)"/>
        <path id="Path_18700" data-name="Path 18700" d="M14.9,169.892,118.888,175.7a2.134,2.134,0,0,0,.237-4.261L15.141,165.631Z" transform="translate(31.65 351.729)"/>
        <path id="Path_18701" data-name="Path 18701" d="M59,177.588,36.9,162.508,9.089,160.958,23.617,177.2,7.374,191.732l27.812,1.552,23.636-12.519Z" transform="translate(15.66 341.807)"/>
        <path id="Path_18702" data-name="Path 18702" d="M165.063,191.882c1.552-1.946,18.363-.322,18.532.687.519,3.1,1.309,14.946-.29,16.518-1.556,1.521-16.071,4.823-16.4,1.827-.287-2.6-3.349-17.158-1.846-19.032" transform="translate(349.646 405.539)" fill="#fff"/>
        <path id="Path_18703" data-name="Path 18703" d="M170.726,213.434a8.251,8.251,0,0,1-2.627-.331,1.892,1.892,0,0,1-1.437-1.571c-.066-.59-.275-1.8-.54-3.336-1.631-9.439-2.3-14.828-1.14-16.268,1.79-2.24,15.287-.831,18.36-.031.728.187,1.443.428,1.552,1.078.344,2.046,1.562,15.168-.515,17.2-1.359,1.334-8.987,3.258-13.653,3.258M166.2,192.906c-.925,1.215.809,11.245,1.462,15.021.272,1.58.487,2.827.553,3.433.009.078.178.187.409.272,3.049,1.078,13.569-1.5,14.665-2.571s.759-11.295.112-15.534c-2.293-.99-15.952-1.884-17.2-.622" transform="translate(349.117 405.006)"/>
        <path id="Path_18704" data-name="Path 18704" d="M205.32,195.612s7.768,11.111,2.215,19.838c0,0-40.472,1.9-52.692,0,0,0-.319-14.918,10.158-16.189a192.332,192.332,0,0,1,22.274-1.09s10.436,5.694,18.045-2.558" transform="translate(328.817 415.396)"/>
        <path id="Path_18705" data-name="Path 18705" d="M194.527,191.913c1.556-1.946,15.965-.384,16.133.622.515,3.1,1.312,14.946-.29,16.517-1.556,1.524-14.2,6.45-14.528,3.455-.284-2.6-2.811-18.72-1.315-20.594" transform="translate(412.093 405.57)" fill="#fff"/>
        <path id="Path_18706" data-name="Path 18706" d="M198.147,214.748a4.043,4.043,0,0,1-1.334-.184,1.7,1.7,0,0,1-1.212-1.443c-.05-.422-.153-1.206-.294-2.23-1.69-12.472-1.921-17.6-.859-18.935,1.774-2.211,13.119-.875,15.805-.172.978.253,1.609.537,1.712,1.156.337,2.046,1.552,15.171-.515,17.2-1.3,1.271-9.333,4.607-13.3,4.607M195.67,192.93c-.684.925-.287,6.9,1.184,17.754.144,1.04.25,1.834.3,2.265.006.031.009.078.191.144,2.265.8,11.695-2.774,13.016-4.07,1.109-1.087.772-11.235.109-15.555-2.108-1.028-13.763-1.787-14.8-.537" transform="translate(411.559 405.043)"/>
        <path id="Path_18707" data-name="Path 18707" d="M208.9,236.465c-1.905,23.8-.159,71.8,1.746,95.609.116,1.6.116,56.905.116,56.905l-22.371,2.14c-12.185-36.349-35.449-117.862-35.449-154.045s3.127-96.481,16.421-125.09c12.644-27.2,62.518,10.37,68.387,17.036,2.7,3.083-2.418,30.614-9.5,48.862-8.224,21.14-18.323,45.782-19.347,58.583" transform="translate(324.788 217.078)"/>
        <path id="Path_18708" data-name="Path 18708" d="M193.33,305.42c-1.309-23.849-5.244-71.649-3.336-95.453,1.025-12.8,16.539-49.7,24.767-70.839-2.171-6.513.54-20.5-4.832-24.123-4.454-2.971-21.881,16.727-23.827,22.555-1.562,4.607,1.3,10.439,1.64,15.043a43.2,43.2,0,0,1-5.557,24.151c-6.172,10.933-13.753,19.538-17.22,31.917-6.7,24.076-1.331,49.178,4.3,72.867,3.58,14.934,7.39,29.98,8.3,45.37.5,8.833,1.737,28.209.478,36.893l13.8-1.315s2.771-33.319,1.477-57.065" transform="translate(343.699 243.576)"/>
        <path id="Path_18709" data-name="Path 18709" d="M251.864,388.074,232,390.211c-10.367-34.281-38.076-92.851-42.149-128.81-6.322-55.84-13.959-115.635-14.3-130.337-.034-2.365-.078-3.623-.078-3.623,13.678-16.646,36.855-23.427,47.178-24.648,4.073-.494,7.044.306,8.34,2.439A155.207,155.207,0,0,1,241,124.81c16.646,39.538,2.627,63.421,2.93,114.841,0,2.974.041,6.019.116,9.03.534,21.256-5.2,47.431.909,69.634,11.985,43.549,6.906,69.759,6.906,69.759" transform="translate(372.613 217.986)"/>
        <path id="Path_18710" data-name="Path 18710" d="M128.66,125.224c-.3,27.172,11.086,51.823,27.637,48.009,16.14-3.748,27.428-10.954,35.356-18.688.837-.793,1.665-1.621,2.418-2.44,1.278-1.406,2.449-2.752,3.577-4.132,1.493-1.943,2.849-3.817,4.051-5.676.175-.34.4-.643.584-.943,5.2-8.3,7.3-13.425,7.706-20.438a53.543,53.543,0,0,0-.453-12.045s7.294-55.447-4.792-48.578c-12.213,6.966-25.935,28.153-35.809,49.056-.025.081-.094.169-.116.25-.587,1.134-1.065,2.218-1.584,3.308-.315.665-.672,1.34-.953,1.965-4.892,10.486-7.028,16.392-8.73,17.558-2.93,1.905-4.142-8.993-6.747-21.54l0-.037c-.312-1.54-.625-3.039-.937-4.545-1.859-8.852-3.764-16.486-5.9-17.192,0,0-9.949-9.48-10.839-4.907a243.818,243.818,0,0,0-4.47,41.016" transform="translate(273.206 126.789)" fill="#fff"/>
        <path id="Path_18711" data-name="Path 18711" d="M153.434,174.939a15.713,15.713,0,0,1-10-3.773c-9.349-7.522-15.243-25.351-15.024-45.423v0a244.564,244.564,0,0,1,4.482-41.15,2.11,2.11,0,0,1,1.427-1.771c2.88-.912,9.105,4.738,10.6,6.157,2.049.906,3.711,5.638,6.241,17.7l.959,4.66-.009.109c.522,2.411,1,4.938,1.449,7.3,1.218,6.428,2.483,13.069,3.808,13.638.034.016.109.037.281-.078,1-.684,2.489-4.02,4.748-9.074,1.031-2.311,2.246-5.029,3.7-8.156.162-.359.356-.75.55-1.143l.875-1.83c.356-.765.715-1.534,1.128-2.327l.1-.225c11.648-24.676,25.157-43.143,36.127-49.4a3.722,3.722,0,0,1,4.154-.125c7.356,4.951,2.474,44.286,1.815,49.362a55.135,55.135,0,0,1,.44,12.113c-.394,6.859-2.368,12.11-7.821,20.8l-.2.309a6.248,6.248,0,0,0-.356.581c-1.209,1.871-2.546,3.745-4.126,5.791-1.084,1.327-2.23,2.652-3.614,4.179-.772.837-1.615,1.68-2.461,2.483-9.449,9.215-21.465,15.571-35.718,18.879a15.671,15.671,0,0,1-3.567.419m-23.461-49.178c-.212,19.31,5.591,37.064,14.44,44.186A13.843,13.843,0,0,0,156.651,173c13.969-3.245,25.738-9.464,34.984-18.488.834-.787,1.649-1.605,2.393-2.405,1.359-1.506,2.49-2.811,3.545-4.1,1.54-1.993,2.852-3.829,4-5.6a7.271,7.271,0,0,1,.4-.653l.178-.278c5.363-8.546,7.206-13.422,7.587-20.069a53.286,53.286,0,0,0-.444-11.857l-.019-.122.016-.122c1.587-12.073,4.479-44.217-1.118-47.984-.44-.294-1.165-.581-2.511.187-12.6,7.187-26.6,29.874-35.493,48.706l-.091.2c-.437.856-.784,1.609-1.131,2.352l-.893,1.865c-.184.375-.369.747-.528,1.1-1.459,3.127-2.671,5.838-3.7,8.143-2.614,5.857-3.926,8.793-5.3,9.736a1.8,1.8,0,0,1-1.765.216c-2-.856-2.949-5.4-4.732-14.784-.444-2.349-.918-4.867-1.459-7.456l-.022-.109.009-.112-.921-4.36c-.912-4.357-3.342-15.936-5.382-16.608l-.3-.178c-2.877-2.739-7.6-6.4-9.161-5.9-.081.025-.275.087-.372.578a243.171,243.171,0,0,0-4.451,40.875" transform="translate(272.678 126.26)"/>
        <path id="Path_18712" data-name="Path 18712" d="M134.98,79.024c.856,6.41,1.721,12.775,2.574,19.141a18.041,18.041,0,0,0,1.8,6.716c1.165,2.033,1.63,3.311,3.867,2.6,3.045-.959,4.389-4.807,7.362-5.985,2.133-.887,4.7-.072,6.578,1.284a38.5,38.5,0,0,1,4.91,5.026c4.954,5.332,10.064,11.56,16.324,12.816.837-.793,1.668-1.618,2.421-2.436,1.274-1.406,2.446-2.755,3.573-4.132,1.5-1.943,2.849-3.82,4.051-5.679a31.778,31.778,0,0,0-3.976-5.719c-7.725-9.508-15.637-19.219-26.085-25.545a14.847,14.847,0,0,0-2.817-1.431c-.587,1.134-1.065,2.218-1.584,3.3-.312.665-.672,1.343-.953,1.968-4.892,10.486-7.028,16.389-8.73,17.554-2.93,1.909-4.142-8.993-6.747-21.537l0-.037a1.751,1.751,0,0,0-.8-.878,1.407,1.407,0,0,0-1.68.918,4.17,4.17,0,0,0-.091,2.052" transform="translate(286.465 160.71)"/>
        <path id="Path_18713" data-name="Path 18713" d="M175.852,152.273c3.48-4.7,8.818-10.045,13.572-15.252,1.793-1.99,3.517-3.973,5.026-5.841a31.824,31.824,0,0,0,4.729-7.478,9.523,9.523,0,0,0,.806-3.108,142.55,142.55,0,0,0-1.406-16.442c-2.683-20.981-9.661-48.975-18.869-44.8-15.774,7.15-28.628,31.114-39.857,50.077,1.818,17.573,13.163,35.331,36,42.843" transform="translate(296.988 125.153)" fill="#f40"/>
        <path id="Path_18714" data-name="Path 18714" d="M220.418,308.824c-3.455-22.774-4.223-46.951-4.72-68.206-.075-3.011-.116-6.053-.116-9.027-.3-51.42,13.7-76.549-2.942-116.088,0-7.906-18.691-11.748-18.844-6.944a95.96,95.96,0,0,0,1.487,17.252c1.64,9.983,3.767,19.844,2.321,30.13-2.246,15.921-7.387,30.967-8.456,47.2-1.946,29.824,4.879,57.211,15.009,84.939,6.322,17.214,11.426,34.359,13.41,52.638,1.256,11.582,1.534,28.075,1.421,39.729l4.526-.434s5.21-16.433-3.1-71.186" transform="translate(400.964 226.047)"/>
        <path id="Path_18715" data-name="Path 18715" d="M149.981,62.2s-3.811,13.572,2.618,33.329c1.677,5.151,10.273,26.047,14.243,38.292A105.37,105.37,0,0,0,177.375,121.6L162.213,92.255Z" transform="translate(316.115 132.08)"/>
        <path id="Path_18716" data-name="Path 18716" d="M167.738,133.148c4.685,9.524,9.068,18.167,10.892,23.92,5.757,18.2-10.12,47.95-7.337,61.512,2.552,3.127,39.213,18.523,66.823,19.522,35.94,1.293,63.936-12.36,64.277-17.617.306-4.8-15.24-66.773-24.645-93.282-10.439-29.443-24.914-57.936-33.141-66.351a16.373,16.373,0,0,0-1.83-1.6c-2.589-1.868-6.363-3.161-11.007-3.845-26.091-4.229-66.535,7.478-82.49,21.481-3.452,13.347,8.331,35.731,18.46,56.262" transform="translate(315.698 115.795)" fill="#f40"/>
        <path id="Path_18717" data-name="Path 18717" d="M157.646,57.988V69.252s-2.921,6.45,0,6.831c9.92,1.281,15.512-11.451,15.512-11.451V51.56Z" transform="translate(332.017 109.491)" fill="#fff"/>
        <path id="Path_18718" data-name="Path 18718" d="M159.6,77.749a12.182,12.182,0,0,1-1.524-.1,2.075,2.075,0,0,1-1.615-1.068c-1.046-1.874.465-5.629.934-6.7V58.261l17.073-7.075L174.4,65.742c-.225.515-5.385,12.007-14.8,12.007M158.956,59.3l-.069,11.064c-.765,1.69-1.6,4.5-1.062,5.457a.521.521,0,0,0,.45.278c8.715,1.146,13.987-9.483,14.631-10.848V53.522Z" transform="translate(331.488 108.697)"/>
        <path id="Path_18719" data-name="Path 18719" d="M172.642,63.243s-1.477,19.56,10.8,31.126,21.921,14.924,21.921,14.924l2.268,18.545s-14.8-4.9-27.972-25.054c-5.419-8.3-9.789-25.338-7.012-39.541" transform="translate(364.79 134.301)"/>
        <path id="Path_18720" data-name="Path 18720" d="M159.78,43.583A77.758,77.758,0,0,0,153.6,64.236c-1.015,7.665,12.051,19.5,23.477,8.709s8.253-27.3,8.253-27.3Z" transform="translate(326.073 92.552)" fill="#fff"/>
        <path id="Path_18721" data-name="Path 18721" d="M167.7,78.62a13.852,13.852,0,0,1-6.328-1.581c-5.063-2.589-8.584-8.012-8.009-12.351A79.465,79.465,0,0,1,159.607,43.8l.234-.481,26.678,2.155.112.584c.031.166,3.124,17.048-8.48,28.009A15.23,15.23,0,0,1,167.7,78.62m-6.906-33.656A77.464,77.464,0,0,0,154.909,64.9c-.49,3.72,2.658,8.443,7.169,10.751,2.936,1.5,8.79,3.149,15-2.714,9.786-9.246,8.518-23.018,8.112-26Z" transform="translate(325.54 91.995)"/>
        <path id="Path_18722" data-name="Path 18722" d="M171.508,54.806c.078-.072.144-.519.334-1.012a7.911,7.911,0,0,0-1.618-8.059,2.084,2.084,0,0,0-2.827-.244.594.594,0,0,0-.094-.022c-3.249-.244-3.258,3.7-3.7,5.875-.75,3.645-3,8.018-1.868,11.788a4.667,4.667,0,0,0,5.813,3.317c3.142-.925,2.808-3.845,3.876-6.247.637-1.434,1.124-2.446.715-4.058a7.29,7.29,0,0,0-.631-1.34" transform="translate(342.788 95.672)"/>
        <path id="Path_18723" data-name="Path 18723" d="M163.191,43.594c-2.68-1.7-6.063-2.883-8.487-.078-3.117,3.611.172,7.771,2.949,10.2a1.8,1.8,0,0,0,2.846-.64c3.514,1.9,8.515,2.5,11.785,4.092,4.807,2.34,10.708,8.234,14.159.693,5.847-12.772-14.122-21.19-23.252-14.272" transform="translate(325.841 87.297)"/>
        <path id="Path_18724" data-name="Path 18724" d="M164.737,167.464l5.535,14.312s2.68.75,7.159,1.715c13.178,2.767,38.973,4.51,59.273-.175,18.32-4.226,28.493-26.241,28-48.525v-.041a62.448,62.448,0,0,0-6.475-27.044,45.387,45.387,0,0,0-4.57-7.312c-.572-.725-1.143-1.446-1.752-2.171l-.034-.037c-.081-.116-.156-.153-.234-.269-17.786-21.14-25.023-27.272-39.229-38.854-7.39-6.013-14.762-.394-18.039,8.555-2.358,6.441-7.715,11.9-6,21.656a45,45,0,0,0,15.121,26.013c2.855,2.474,6.094,5.376,9.221,8.34.415.384.8.725,1.178,1.106,7.85,7.543,8.69,25.6,8.69,28.568,0,3.545-4.454,8.43-9.439,10.189-15.327,5.441-48.4,3.973-48.4,3.973" transform="translate(349.831 120.12)" fill="#fff"/>
        <path id="Path_18725" data-name="Path 18725" d="M208.555,187.544a159.485,159.485,0,0,1-30.5-2.758c-4.454-.962-7.178-1.721-7.206-1.727l-.378-.106-6.107-15.793,1.193.053c.325.019,33.094,1.4,48.1-3.929,4.589-1.615,8.924-6.21,8.924-9.452,0-.2-.231-20.106-8.446-28-.29-.294-.572-.55-.868-.822l-.3-.278c-2.764-2.621-5.944-5.5-9.205-8.324a45.912,45.912,0,0,1-15.377-26.469c-1.293-7.337,1.343-12.454,3.667-16.964a45.5,45.5,0,0,0,2.371-5.091c2.155-5.891,5.932-10.092,10.1-11.239,3.064-.846,6.235-.034,9.165,2.349,14.481,11.8,21.628,17.911,39.335,38.954a3.366,3.366,0,0,1,.278.331c.6.709,1.184,1.437,1.755,2.168a45.745,45.745,0,0,1,4.654,7.443,62.939,62.939,0,0,1,6.559,27.378c.456,20.5-8.3,44.661-28.6,49.34a132.237,132.237,0,0,1-29.115,2.939m-36.908-5.888c.884.234,3.28.856,6.734,1.6,12.247,2.568,38.061,4.645,58.932-.172,18.592-4.289,27.85-27.266,27.394-47.747a61.432,61.432,0,0,0-6.391-26.747,44.545,44.545,0,0,0-4.492-7.19c-.562-.715-1.131-1.427-1.73-2.149l-.319-.369C234.209,78.013,227.1,71.941,212.7,60.2c-2.561-2.08-5.182-2.771-7.768-2.052-3.676,1.009-7.059,4.851-9.043,10.27a47.478,47.478,0,0,1-2.443,5.273c-2.324,4.5-4.723,9.155-3.52,15.98a44.339,44.339,0,0,0,14.862,25.557c3.277,2.839,6.475,5.732,9.246,8.362l.291.269c.315.287.609.562.906.856,8.671,8.334,8.915,28.912,8.915,29.118,0,3.948-4.657,9.055-9.964,10.923-13.825,4.91-41.35,4.286-47.5,4.067Z" transform="translate(349.043 119.591)"/>
        <path id="Path_18726" data-name="Path 18726" d="M198.845,132.53c-3.23-3.1-23.583-23.036-26.7-42.865-1.418-9.018,1.377-30.789,12.607-33.391,17.982-4.164,42.012,21.94,58.6,41.65-7.612,17.164-24.3,29.168-44.5,34.606" transform="translate(364.841 118.562)" fill="#f40"/>
        <path id="Path_18727" data-name="Path 18727" d="M178.182,89.932l40.113-.359-37.489,13.375Z" transform="translate(378.382 190.214)"/>
        <path id="Path_18728" data-name="Path 18728" d="M179.223,102.806l36.361-12.972.322,2.568L179.46,106.367Z" transform="translate(380.592 190.768)" fill="#fff"/>
        <path id="Path_18729" data-name="Path 18729" d="M215.507,91.2l.169,1.359-35.243,13.509-.156-2.3Zm1-1.631-37.489,13.375.325,4.823,37.639-14.425Z" transform="translate(380.164 190.213)"/>
        <path id="Path_18730" data-name="Path 18730" d="M152.443,94.6l83.021-.747.325,4.823-83.028.219Z" transform="translate(323.723 199.308)"/>
        <path id="Path_18731" data-name="Path 18731" d="M149.706,82.858a2.681,2.681,0,0,1,2.605-3.2l76.34-.69a2.7,2.7,0,0,1,2.658,2.152l9.333,43.752-81.794.734Z" transform="translate(317.802 167.696)" fill="#fff"/>
        <path id="Path_18732" data-name="Path 18732" d="M229.085,78.777v1.2a2.1,2.1,0,0,1,2.046,1.684l9.183,43.024-80.573.728-9.037-42.259a2.088,2.088,0,0,1,2.021-2.493l76.34-.684Zm0,0h-.028l-76.343.69a3.281,3.281,0,0,0-3.186,3.923l9.243,43.23,83.021-.747L232.3,81.413a3.281,3.281,0,0,0-3.217-2.636" transform="translate(317.393 167.289)"/>
        <path id="Path_18733" data-name="Path 18733" d="M160.255,101.167c.175-.925,1.049-2.536,2.427-2.28a1.419,1.419,0,0,1,.447.175,5.122,5.122,0,0,1,.053-1.937c.331-1.368,1.665-3.38,3.545-2.233a5.431,5.431,0,0,1,1.765,1.855,3.812,3.812,0,0,1,2.549-2.855c2.227-.843,3.277.575,3.876,2.221.369-1.655,1.343-4.045,3.514-2.855,1.221.672,2.03,2.261,2.661,3.314a20.421,20.421,0,0,1,2.055,4.77.749.749,0,0,1,.016.187.643.643,0,0,1,.141.7c-.675,1.737-2.8,3.558-4.873,1.987a9,9,0,0,1-1.471-1.4c.147,1.559-.216,2.93-1.93,3.27-1.8.356-3.324-.906-4.432-2.436a.382.382,0,0,1-.044.106c-.484.7-1.112,1.634-2.221,1.621a3.312,3.312,0,0,1-2.2-1.259.616.616,0,0,1-.284.45c-2.814,1.546-6.11-.64-5.6-3.4" transform="translate(340.2 197.359)" fill="#fff"/>
        <path id="Path_18734" data-name="Path 18734" d="M174.938,107.458a5.125,5.125,0,0,1-3.767-1.98,2.9,2.9,0,0,1-2.28,1.209h-.041a3.428,3.428,0,0,1-2.112-.893,4.713,4.713,0,0,1-5.063-.287,3.972,3.972,0,0,1-1.659-3.951c.234-1.237,1.256-2.871,2.8-2.946a5.323,5.323,0,0,1,.147-1.137A4.377,4.377,0,0,1,165.2,94.5a2.639,2.639,0,0,1,2.464.259,5.368,5.368,0,0,1,1.146.943,4.708,4.708,0,0,1,2.486-2.008,3.515,3.515,0,0,1,2.755-.034,3.264,3.264,0,0,1,1.237,1.012,3.52,3.52,0,0,1,1.612-1.774,2.659,2.659,0,0,1,2.439.206,8.094,8.094,0,0,1,2.7,3.177l.25.425a21.1,21.1,0,0,1,2.14,4.951l.028.128a1.408,1.408,0,0,1,.1,1.265A4.953,4.953,0,0,1,181.523,106a3.317,3.317,0,0,1-3.03-.628c-.112-.081-.222-.169-.328-.259a3,3,0,0,1-2.449,2.271,4.075,4.075,0,0,1-.778.075m-3.97-4.795.793,1.059c.825,1.14,2.146,2.433,3.648,2.127.743-.147,1.481-.55,1.3-2.43l-.237-2.471,1.609,1.893a8.43,8.43,0,0,0,1.346,1.284,1.827,1.827,0,0,0,1.668.375,3.45,3.45,0,0,0,2.008-2.024l-.228-.228.034-.187a19.054,19.054,0,0,0-1.962-4.557l-.259-.44a6.928,6.928,0,0,0-2.105-2.593c-.634-.344-.934-.2-1.043-.156a3.686,3.686,0,0,0-1.331,2.5l-.584,2.6-.912-2.5a3.015,3.015,0,0,0-1.315-1.834,1.986,1.986,0,0,0-1.552.075,3.023,3.023,0,0,0-2.062,2.293l-.409,1.884-1.018-1.64a4.676,4.676,0,0,0-1.506-1.6,1.067,1.067,0,0,0-1.053-.15,2.927,2.927,0,0,0-1.324,1.9,4.21,4.21,0,0,0-.047,1.64l.25,1.649-1.424-.865a.733.733,0,0,0-.194-.075c-.9-.15-1.4,1.109-1.509,1.656a2.4,2.4,0,0,0,1.037,2.4,3.181,3.181,0,0,0,3.417.175l.275-1.512.95,1.209a2.749,2.749,0,0,0,1.64,1.012h.016c.615,0,1.021-.515,1.524-1.237Z" transform="translate(339.67 196.831)"/>
        <path id="Path_18735" data-name="Path 18735" d="M233.977,195.612s7.768,11.111,2.212,19.838c0,0-40.469,1.9-52.688,0,0,0-.319-14.918,10.158-16.189s23.908-1.837,23.908-1.837,8.8,6.441,16.411-1.812" transform="translate(389.673 415.396)"/>
        <path id="Path_18736" data-name="Path 18736" d="M151.3,72.057c-1.518-1.646-3.954.568-2.927,2.383a12.539,12.539,0,0,1,1.056,2.3,11.713,11.713,0,0,0-1.19.709c-1.546-5.407-5.619-10.145-10.042-13.538-2.127-1.631-7.181-5.363-9.689-5.145-2.14.184-2.361,2.611-.181,3.767,2.5,1.321,6.928,4.817,8.256,7.078-3.3-2.93-5.826,1.968-4.51,4.5-1.587-.422-2.486,2.783-.394,5.348-1.274-.871-3.17,3.361,1.309,7.2,2.9,2.8,4.064,3.583,6.644,4a7.22,7.22,0,0,0,4.579-.834c.756.581,4,4.551,4.682,3.673,1.378-1.765,4.735-15.477,4.788-15.877.287-2.283-.9-3.973-2.38-5.572" transform="translate(269.259 124.781)" fill="#fff"/>
        <path id="Path_18737" data-name="Path 18737" d="M149.154,94.946c-.9,0-1.962-.946-3.945-3.021-.225-.237-.431-.453-.6-.622a7.912,7.912,0,0,1-4.573.665c-2.821-.459-4.1-1.359-7.062-4.217-3.53-3.021-3.533-6.475-2.4-7.956a2.23,2.23,0,0,1,.337-.347,4.825,4.825,0,0,1-.184-4.682,2.1,2.1,0,0,1,.837-.768,5.216,5.216,0,0,1,1.674-4.879,3.04,3.04,0,0,1,1.5-.634,30.6,30.6,0,0,0-6.241-4.729,3.152,3.152,0,0,1-1.9-3.311,2.478,2.478,0,0,1,2.38-1.921c1.987-.212,5.338,1.556,10.233,5.3a31.888,31.888,0,0,1,8.69,9.936,3.014,3.014,0,0,1,1.19-2.018,2.422,2.422,0,0,1,3.32.315c1.537,1.662,2.914,3.561,2.58,6.2-.016.122-3.352,14.215-4.945,16.258a1.108,1.108,0,0,1-.828.428Zm-4.329-5.5.4.306a14.447,14.447,0,0,1,1.121,1.1,19.027,19.027,0,0,0,2.636,2.443c1.306-2.377,4.3-14.331,4.464-15.249.237-1.871-.7-3.327-2.18-4.923a.862.862,0,0,0-1.252-.116,1.235,1.235,0,0,0-.425,1.58,12.84,12.84,0,0,1,1.124,2.452l.194.628-.575.3a11.191,11.191,0,0,0-1.118.662l-.893.606-.3-1.037c-1.8-6.288-6.891-10.929-9.764-13.135-5.907-4.52-8.246-5.013-9.146-4.982-.547.044-.906.294-.987.678-.094.465.212,1.149,1.106,1.621,2.443,1.29,7.106,4.888,8.562,7.368l2.5,4.254L136.6,70.729c-.893-.79-1.7-.918-2.4-.375a3.575,3.575,0,0,0-.9,3.933l.812,1.568L132.4,75.4c-.059-.009-.191-.053-.362.212a3.68,3.68,0,0,0,.775,3.886l3.38,4.145-4.426-3c.069.05-.181.362-.262,1-.072.593-.106,2.705,2.524,4.96,2.946,2.846,3.939,3.448,6.26,3.823a6.349,6.349,0,0,0,4.092-.75Z" transform="translate(268.727 124.247)"/>
        <path id="Path_18738" data-name="Path 18738" d="M129.99,70.629s.653.715,0,3.124,11.91,5.857,12.1,4.423.584-1.755.584-1.755a11.148,11.148,0,0,1,0-4.1c.39-2.664-5.138-5.788-7.287-4.813a52.419,52.419,0,0,0-5.4,3.124" transform="translate(275.99 142.964)" fill="#fff"/>
      </g>
    </g>
  </g>
</svg>
