<svg xmlns="http://www.w3.org/2000/svg" xmlns:xlink="http://www.w3.org/1999/xlink" width="179" height="245" viewBox="0 0 179 245">
  <defs>
    <clipPath id="clip-path">
      <rect id="Rectangle_5689" data-name="Rectangle 5689" width="179" height="245" transform="translate(-1 1026)" fill="#fff" stroke="#707070" stroke-width="1"/>
    </clipPath>
    <clipPath id="clip-path-2">
      <rect id="Rectangle_4302" data-name="Rectangle 4302" width="251.057" height="245.639" fill="none" stroke="rgba(0,0,0,0)" stroke-width="1"/>
    </clipPath>
  </defs>
  <g id="Mask_Group_4536" data-name="Mask Group 4536" transform="translate(1 -1026)" clip-path="url(#clip-path)">
    <g id="Group_5254" data-name="Group 5254" transform="translate(22.025 1030.607)">
      <g id="Group_4428" data-name="Group 4428" transform="translate(-95.025 -5.016)">
        <g id="Group_4415" data-name="Group 4415">
          <g id="Group_4414" data-name="Group 4414" clip-path="url(#clip-path-2)">
            <path id="Path_9170" data-name="Path 9170" d="M199.18,416.759,224.173,376H174.188Z" transform="translate(-73.653 -375.457)" fill="none" stroke="#f40" stroke-width="1"/>
          </g>
        </g>
        <path id="Path_9171" data-name="Path 9171" d="M199.18,266.759,224.173,226H174.188Z" transform="translate(-73.653 -143.939)" fill="none" stroke="#f40" stroke-width="1"/>
        <g id="Group_4417" data-name="Group 4417">
          <g id="Group_4416" data-name="Group 4416" clip-path="url(#clip-path-2)">
            <path id="Path_9172" data-name="Path 9172" d="M285.822,416.759,310.814,376H260.829Z" transform="translate(-210.302 -375.457)" fill="none" stroke="#f40" stroke-width="1"/>
            <path id="Path_9173" data-name="Path 9173" d="M112.5,416.759,137.492,376H87.508Z" transform="translate(63.057 -375.457)" fill="none" stroke="#f40" stroke-width="1"/>
          </g>
        </g>
        <path id="Path_9174" data-name="Path 9174" d="M242.52,341.759,267.513,301H217.528Z" transform="translate(-142.008 -259.698)" fill="none" stroke="#f40" stroke-width="1"/>
        <path id="Path_9175" data-name="Path 9175" d="M155.84,341.759,180.833,301H130.848Z" transform="translate(-5.298 -259.698)" fill="none" stroke="#f40" stroke-width="1"/>
        <path id="Path_9176" data-name="Path 9176" d="M155.86,226l-24.992,40.759h49.985Z" transform="translate(-5.329 -143.939)" fill="none" stroke="#f40" stroke-width="1"/>
        <path id="Path_9177" data-name="Path 9177" d="M112.519,301,87.527,341.759h49.985Z" transform="translate(63.026 -259.698)" fill="none" stroke="#f40" stroke-width="1"/>
        <g id="Group_4419" data-name="Group 4419">
          <g id="Group_4418" data-name="Group 4418" clip-path="url(#clip-path-2)">
            <path id="Path_9178" data-name="Path 9178" d="M25.859,416.759,50.851,376H.866Z" transform="translate(199.706 -375.457)" fill="none" stroke="#f40" stroke-width="1"/>
          </g>
        </g>
        <path id="Path_9179" data-name="Path 9179" d="M69.2,341.759,94.191,301H44.206Z" transform="translate(131.351 -259.698)" fill="#f40" stroke="rgba(0,0,0,0)" stroke-width="1"/>
        <path id="Path_9180" data-name="Path 9180" d="M69.2,341.759,94.191,301H44.206Z" transform="translate(131.351 -259.698)" fill="none" stroke="#f40" stroke-width="1"/>
        <g id="Group_4421" data-name="Group 4421">
          <g id="Group_4420" data-name="Group 4420" clip-path="url(#clip-path-2)">
            <path id="Path_9181" data-name="Path 9181" d="M25.878,301,.886,341.759H50.87Z" transform="translate(199.675 -259.698)" fill="none" stroke="#f40" stroke-width="1"/>
          </g>
        </g>
        <path id="Path_9183" data-name="Path 9183" d="M329.089,226,304.1,266.759h49.985Z" transform="translate(-278.542 -143.939)" fill="none" stroke="#f40" stroke-width="1"/>
        <g id="Group_4423" data-name="Group 4423">
          <g id="Group_4422" data-name="Group 4422" clip-path="url(#clip-path-2)">
            <path id="Path_9184" data-name="Path 9184" d="M329.089,376,304.1,416.759h49.985Z" transform="translate(-278.542 -375.457)" fill="none" stroke="#f40" stroke-width="1"/>
          </g>
        </g>
        <path id="Path_9185" data-name="Path 9185" d="M242.447,226l-24.992,40.759H267.44Z" transform="translate(-141.893 -143.939)" fill="none" stroke="#f40" stroke-width="1"/>
        <path id="Path_9186" data-name="Path 9186" d="M285.749,301l-24.992,40.759h49.985Z" transform="translate(-210.187 -259.698)" fill="none" stroke="#f40" stroke-width="1"/>
        <g id="Group_4425" data-name="Group 4425">
          <g id="Group_4424" data-name="Group 4424" clip-path="url(#clip-path-2)">
            <path id="Path_9187" data-name="Path 9187" d="M372.429,301l-24.992,40.759h49.985Z" transform="translate(-346.897 -259.698)" fill="none" stroke="#f40" stroke-width="1"/>
          </g>
        </g>
        <path id="Path_9188" data-name="Path 9188" d="M329.157,191.759,354.149,151H304.165Z" transform="translate(-278.65 -28.181)" fill="none" stroke="#f40" stroke-width="1"/>
        <g id="Group_4427" data-name="Group 4427">
          <g id="Group_4426" data-name="Group 4426" clip-path="url(#clip-path-2)">
            <path id="Path_9189" data-name="Path 9189" d="M329.157,41.759,354.149,1H304.165Z" transform="translate(-278.65 203.337)" fill="none" stroke="#f40" stroke-width="1"/>
            <path id="Path_9190" data-name="Path 9190" d="M372.5,116.759,397.49,76H347.5Z" transform="translate(-347.005 87.578)" fill="none" stroke="#f40" stroke-width="1"/>
            <path id="Path_9191" data-name="Path 9191" d="M285.836,1,260.844,41.759h49.985Z" transform="translate(-210.326 203.337)" fill="none" stroke="#f40" stroke-width="1"/>
          </g>
        </g>
      </g>
    </g>
  </g>
</svg>
