<svg xmlns="http://www.w3.org/2000/svg" xmlns:xlink="http://www.w3.org/1999/xlink" width="205" height="246" viewBox="0 0 205 246">
  <defs>
    <clipPath id="clip-path">
      <rect id="Rectangle_5697" data-name="Rectangle 5697" width="205" height="246" transform="translate(-25 1024.445)" fill="#fff" stroke="#707070" stroke-width="1"/>
    </clipPath>
    <clipPath id="clip-path-2">
      <rect id="Rectangle_5690" data-name="Rectangle 5690" width="256.667" height="246.535" fill="none" stroke="rgba(0,0,0,0)" stroke-width="1"/>
    </clipPath>
  </defs>
  <g id="Mask_Group_4537" data-name="Mask Group 4537" transform="translate(25 -1024.445)" clip-path="url(#clip-path)">
    <g id="Group_6666" data-name="Group 6666" transform="translate(-25.058 1024.766)">
      <g id="Group_6665" data-name="Group 6665" transform="translate(0 0)">
        <g id="Group_6652" data-name="Group 6652">
          <g id="Group_6651" data-name="Group 6651" clip-path="url(#clip-path-2)">
            <path id="Path_12643" data-name="Path 12643" d="M199.739,376l-25.551,40.907h51.1Z" transform="translate(-71.404 -170.917)" fill="none" stroke="#f40" stroke-width="1"/>
          </g>
        </g>
        <path id="Path_12644" data-name="Path 12644" d="M199.739,226l-25.551,40.907h51.1Z" transform="translate(-71.404 -102.732)" fill="none" stroke="#f40" stroke-width="1"/>
        <g id="Group_6654" data-name="Group 6654">
          <g id="Group_6653" data-name="Group 6653" clip-path="url(#clip-path-2)">
            <path id="Path_12645" data-name="Path 12645" d="M286.38,376l-25.551,40.907h51.1Z" transform="translate(-106.92 -170.917)" fill="none" stroke="#f40" stroke-width="1"/>
            <path id="Path_12646" data-name="Path 12646" d="M113.059,376,87.508,416.907h51.1Z" transform="translate(-35.872 -170.917)" fill="none" stroke="#f40" stroke-width="1"/>
          </g>
        </g>
        <path id="Path_12647" data-name="Path 12647" d="M243.079,301l-25.551,40.907h51.1Z" transform="translate(-89.17 -136.825)" fill="none" stroke="#f40" stroke-width="1"/>
        <path id="Path_12648" data-name="Path 12648" d="M156.4,301l-25.551,40.907h51.1Z" transform="translate(-53.638 -136.825)" fill="none" stroke="#f40" stroke-width="1"/>
        <path id="Path_12649" data-name="Path 12649" d="M156.418,266.907,181.969,226h-51.1Z" transform="translate(-53.646 -102.732)" fill="none" stroke="#f40" stroke-width="1"/>
        <path id="Path_12650" data-name="Path 12650" d="M113.078,341.908,138.629,301h-51.1Z" transform="translate(-35.88 -136.825)" fill="none" stroke="#f40" stroke-width="1"/>
        <g id="Group_6656" data-name="Group 6656">
          <g id="Group_6655" data-name="Group 6655" clip-path="url(#clip-path-2)">
            <path id="Path_12651" data-name="Path 12651" d="M26.417,376,.866,416.907h51.1Z" transform="translate(-0.355 -170.917)" fill="none" stroke="#f40" stroke-width="1"/>
          </g>
        </g>
        <path id="Path_12652" data-name="Path 12652" d="M69.757,301,44.206,341.908h51.1Z" transform="translate(-18.121 -136.825)" fill="#f40" stroke="rgba(0,0,0,0)" stroke-width="1"/>
        <path id="Path_12653" data-name="Path 12653" d="M69.757,301,44.206,341.908h51.1Z" transform="translate(-18.121 -136.825)" fill="none" stroke="#f40" stroke-width="1"/>
        <g id="Group_6658" data-name="Group 6658">
          <g id="Group_6657" data-name="Group 6657" clip-path="url(#clip-path-2)">
            <path id="Path_12654" data-name="Path 12654" d="M26.437,341.908,51.987,301H.886Z" transform="translate(-0.363 -136.825)" fill="none" stroke="#f40" stroke-width="1"/>
          </g>
        </g>
        <path id="Path_12655" data-name="Path 12655" d="M329.647,266.907,355.2,226H304.1Z" transform="translate(-124.657 -102.732)" fill="none" stroke="#f40" stroke-width="1"/>
        <g id="Group_6660" data-name="Group 6660">
          <g id="Group_6659" data-name="Group 6659" clip-path="url(#clip-path-2)">
            <path id="Path_12656" data-name="Path 12656" d="M329.647,416.907,355.2,376H304.1Z" transform="translate(-124.657 -170.917)" fill="none" stroke="#f40" stroke-width="1"/>
          </g>
        </g>
        <path id="Path_12657" data-name="Path 12657" d="M243.006,266.907,268.557,226h-51.1Z" transform="translate(-89.14 -102.732)" fill="none" stroke="#f40" stroke-width="1"/>
        <path id="Path_12658" data-name="Path 12658" d="M286.307,341.908,311.858,301h-51.1Z" transform="translate(-106.89 -136.825)" fill="none" stroke="#f40" stroke-width="1"/>
        <g id="Group_6662" data-name="Group 6662">
          <g id="Group_6661" data-name="Group 6661" clip-path="url(#clip-path-2)">
            <path id="Path_12659" data-name="Path 12659" d="M372.987,341.908,398.538,301h-51.1Z" transform="translate(-142.423 -136.825)" fill="none" stroke="#f40" stroke-width="1"/>
          </g>
        </g>
        <path id="Path_12660" data-name="Path 12660" d="M329.716,151l-25.551,40.907h51.1Z" transform="translate(-124.684 -68.64)" fill="none" stroke="#f40" stroke-width="1"/>
        <g id="Group_6664" data-name="Group 6664">
          <g id="Group_6663" data-name="Group 6663" clip-path="url(#clip-path-2)">
            <path id="Path_12661" data-name="Path 12661" d="M329.716,1,304.165,41.907h51.1Z" transform="translate(-124.684 -0.455)" fill="none" stroke="#f40" stroke-width="1"/>
            <path id="Path_12662" data-name="Path 12662" d="M373.056,76,347.5,116.907h51.1Z" transform="translate(-142.451 -34.547)" fill="none" stroke="#f40" stroke-width="1"/>
            <path id="Path_12663" data-name="Path 12663" d="M286.395,41.907,311.946,1h-51.1Z" transform="translate(-106.926 -0.455)" fill="none" stroke="#f40" stroke-width="1"/>
          </g>
        </g>
      </g>
    </g>
  </g>
</svg>
