<svg xmlns="http://www.w3.org/2000/svg" xmlns:xlink="http://www.w3.org/1999/xlink" width="109.803" height="131.644" viewBox="0 0 109.803 131.644">
  <defs>
    <clipPath id="clip-path">
      <rect id="Rectangle_5706" data-name="Rectangle 5706" width="109.803" height="131.644" transform="translate(56 20.951)" fill="#fff" stroke="#707070" stroke-width="1"/>
    </clipPath>
    <clipPath id="clip-path-2">
      <rect id="Rectangle_5699" data-name="Rectangle 5699" width="136.795" height="131.645" fill="none" stroke="rgba(0,0,0,0)" stroke-width="1"/>
    </clipPath>
  </defs>
  <g id="Mask_Group_4538" data-name="Mask Group 4538" transform="translate(-56 -20.951)" clip-path="url(#clip-path)">
    <g id="Group_6682" data-name="Group 6682" transform="translate(56 20.951)">
      <g id="Group_6669" data-name="Group 6669">
        <g id="Group_6668" data-name="Group 6668" clip-path="url(#clip-path-2)">
          <path id="Path_12664" data-name="Path 12664" d="M187.806,376l-13.618,21.844h27.235Z" transform="translate(-119.408 -266.49)" fill="none" stroke="#f40" stroke-width="1"/>
        </g>
      </g>
      <path id="Path_12665" data-name="Path 12665" d="M187.806,226l-13.618,21.844h27.235Z" transform="translate(-119.408 -160.178)" fill="none" stroke="#f40" stroke-width="1"/>
      <g id="Group_6671" data-name="Group 6671">
        <g id="Group_6670" data-name="Group 6670" clip-path="url(#clip-path-2)">
          <path id="Path_12666" data-name="Path 12666" d="M274.447,376l-13.618,21.844h27.235Z" transform="translate(-178.801 -266.49)" fill="none" stroke="#f40" stroke-width="1"/>
          <path id="Path_12667" data-name="Path 12667" d="M101.125,376,87.508,397.844h27.235Z" transform="translate(-59.987 -266.49)" fill="none" stroke="#f40" stroke-width="1"/>
        </g>
      </g>
      <path id="Path_12668" data-name="Path 12668" d="M231.146,301l-13.618,21.844h27.235Z" transform="translate(-149.118 -213.334)" fill="none" stroke="#f40" stroke-width="1"/>
      <path id="Path_12669" data-name="Path 12669" d="M144.465,301l-13.618,21.844h27.235Z" transform="translate(-89.698 -213.334)" fill="none" stroke="#f40" stroke-width="1"/>
      <path id="Path_12670" data-name="Path 12670" d="M144.485,247.844,158.1,226H130.867Z" transform="translate(-89.711 -160.178)" fill="none" stroke="#f40" stroke-width="1"/>
      <path id="Path_12671" data-name="Path 12671" d="M101.145,322.844,114.762,301H87.527Z" transform="translate(-60.001 -213.334)" fill="none" stroke="#f40" stroke-width="1"/>
      <g id="Group_6673" data-name="Group 6673">
        <g id="Group_6672" data-name="Group 6672" clip-path="url(#clip-path-2)">
          <path id="Path_12672" data-name="Path 12672" d="M14.484,376,.866,397.844H28.1Z" transform="translate(-0.594 -266.49)" fill="none" stroke="#f40" stroke-width="1"/>
        </g>
      </g>
      <path id="Path_12673" data-name="Path 12673" d="M57.824,301,44.206,322.844H71.442Z" transform="translate(-30.304 -213.334)" fill="#f40" stroke="rgba(0,0,0,0)" stroke-width="1"/>
      <path id="Path_12674" data-name="Path 12674" d="M57.824,301,44.206,322.844H71.442Z" transform="translate(-30.304 -213.334)" fill="none" stroke="#f40" stroke-width="1"/>
      <g id="Group_6675" data-name="Group 6675">
        <g id="Group_6674" data-name="Group 6674" clip-path="url(#clip-path-2)">
          <path id="Path_12675" data-name="Path 12675" d="M14.5,322.844,28.121,301H.886Z" transform="translate(-0.607 -213.334)" fill="none" stroke="#f40" stroke-width="1"/>
        </g>
      </g>
      <path id="Path_12676" data-name="Path 12676" d="M317.714,247.844,331.332,226H304.1Z" transform="translate(-208.461 -160.178)" fill="none" stroke="#f40" stroke-width="1"/>
      <g id="Group_6677" data-name="Group 6677">
        <g id="Group_6676" data-name="Group 6676" clip-path="url(#clip-path-2)">
          <path id="Path_12677" data-name="Path 12677" d="M317.714,397.844,331.332,376H304.1Z" transform="translate(-208.461 -266.49)" fill="none" stroke="#f40" stroke-width="1"/>
        </g>
      </g>
      <path id="Path_12678" data-name="Path 12678" d="M231.072,247.844,244.69,226H217.455Z" transform="translate(-149.067 -160.178)" fill="none" stroke="#f40" stroke-width="1"/>
      <path id="Path_12679" data-name="Path 12679" d="M274.374,322.844,287.992,301H260.756Z" transform="translate(-178.751 -213.334)" fill="none" stroke="#f40" stroke-width="1"/>
      <g id="Group_6679" data-name="Group 6679">
        <g id="Group_6678" data-name="Group 6678" clip-path="url(#clip-path-2)">
          <path id="Path_12680" data-name="Path 12680" d="M361.054,322.844,374.672,301H347.436Z" transform="translate(-238.171 -213.334)" fill="none" stroke="#f40" stroke-width="1"/>
        </g>
      </g>
      <path id="Path_12681" data-name="Path 12681" d="M317.782,151l-13.618,21.844H331.4Z" transform="translate(-208.508 -107.021)" fill="none" stroke="#f40" stroke-width="1"/>
      <g id="Group_6681" data-name="Group 6681">
        <g id="Group_6680" data-name="Group 6680" clip-path="url(#clip-path-2)">
          <path id="Path_12682" data-name="Path 12682" d="M317.782,1,304.165,22.844H331.4Z" transform="translate(-208.508 -0.709)" fill="none" stroke="#f40" stroke-width="1"/>
          <path id="Path_12683" data-name="Path 12683" d="M361.122,76,347.5,97.844H374.74Z" transform="translate(-238.218 -53.865)" fill="none" stroke="#f40" stroke-width="1"/>
          <path id="Path_12684" data-name="Path 12684" d="M274.462,22.844,288.079,1H260.844Z" transform="translate(-178.811 -0.709)" fill="none" stroke="#f40" stroke-width="1"/>
        </g>
      </g>
    </g>
  </g>
</svg>
