<svg xmlns="http://www.w3.org/2000/svg" xmlns:xlink="http://www.w3.org/1999/xlink" width="1024" height="880" viewBox="0 0 1024 880">
  <defs>
    <linearGradient id="linear-gradient" x1="0.55" y1="0.9" x2="0.416" y2="0.222" gradientUnits="objectBoundingBox">
      <stop offset="0" stop-color="#e3e3e3" stop-opacity="0.502"/>
      <stop offset="1" stop-color="#fff" stop-opacity="0"/>
    </linearGradient>
  </defs>
  <g id="Group_9560" data-name="Group 9560" transform="translate(0 -1516)">
    <rect id="Rectangle_1174" data-name="Rectangle 1174" width="1024" height="880" transform="translate(0 1516)" fill="#fff"/>
    <path id="Path_6207" data-name="Path 6207" d="M682.074,990.226,0,125.02,682.074,0Z" transform="translate(21.887 2198.074) rotate(-90)" fill="url(#linear-gradient)"/>
    <g id="Path_16654" data-name="Path 16654" transform="translate(154 1729.999)" fill="none">
      <path d="M358,0C555.718,0,716,106.556,716,238S555.718,476,358,476,0,369.444,0,238,160.282,0,358,0Z" stroke="none"/>
      <path d="M 358 2.5 C 333.8224487304688 2.5 309.6612854003906 4.119171142578125 286.1874694824219 7.312469482421875 C 263.3161926269531 10.42391967773438 240.8210144042969 15.06600952148438 219.326904296875 21.10992431640625 C 198.2323608398438 27.04144287109375 177.8893432617188 34.38180541992188 158.8629760742188 42.92718505859375 C 140.0310668945312 51.38528442382812 122.3261108398438 61.09628295898438 106.2398071289062 71.79046630859375 C 90.171630859375 82.47262573242188 75.58807373046875 94.2225341796875 62.894287109375 106.7138061523438 C 50.09918212890625 119.3047180175781 39.1136474609375 132.758544921875 30.24273681640625 146.7016296386719 C 21.22454833984375 160.8761901855469 14.30035400390625 175.7029113769531 9.66265869140625 190.7701721191406 C 7.30755615234375 198.4214477539062 5.5098876953125 206.2517395019531 4.31964111328125 214.0433654785156 C 3.1121826171875 221.9474487304688 2.5 230.0076293945312 2.5 238 C 2.5 245.9923706054688 3.1121826171875 254.0525512695312 4.31964111328125 261.9566345214844 C 5.5098876953125 269.748291015625 7.30755615234375 277.5785522460938 9.66265869140625 285.2297973632812 C 14.30035400390625 300.2970886230469 21.22454833984375 315.1238403320312 30.24273681640625 329.2983703613281 C 39.1136474609375 343.241455078125 50.09918212890625 356.6952819824219 62.894287109375 369.2861938476562 C 75.58807373046875 381.7774658203125 90.171630859375 393.5273742675781 106.2398071289062 404.2095336914062 C 122.3261108398438 414.9037170410156 140.0310668945312 424.6147155761719 158.8629760742188 433.0728149414062 C 177.8893432617188 441.6181945800781 198.2323608398438 448.9585571289062 219.326904296875 454.8900756835938 C 240.8210144042969 460.9339904785156 263.3161926269531 465.5760803222656 286.1874694824219 468.6875305175781 C 309.6612854003906 471.8808288574219 333.8224487304688 473.5 358 473.5 C 382.1775512695312 473.5 406.3387145996094 471.8808288574219 429.8124694824219 468.6875305175781 C 452.6838073730469 465.5760803222656 475.1788940429688 460.9339904785156 496.6730041503906 454.8900756835938 C 517.767578125 448.9585571289062 538.1105346679688 441.6181945800781 557.1369018554688 433.0728149414062 C 575.9688110351562 424.6147155761719 593.673828125 414.9037170410156 609.7601928710938 404.2095336914062 C 625.8282470703125 393.5273742675781 640.4118041992188 381.7774658203125 653.105712890625 369.2861938476562 C 665.9008178710938 356.6952819824219 676.8863525390625 343.241455078125 685.7572631835938 329.2983703613281 C 694.7754516601562 315.1238403320312 701.6995239257812 300.2970886230469 706.3373413085938 285.2297973632812 C 708.6924438476562 277.5785522460938 710.4901123046875 269.748291015625 711.6803588867188 261.9566345214844 C 712.8878173828125 254.0525512695312 713.5 245.9923706054688 713.5 238 C 713.5 230.0076293945312 712.8878173828125 221.9474487304688 711.6803588867188 214.0433654785156 C 710.4901123046875 206.2517395019531 708.6924438476562 198.4214477539062 706.3373413085938 190.7701721191406 C 701.6995239257812 175.7029113769531 694.7754516601562 160.8761901855469 685.7572631835938 146.7016296386719 C 676.8863525390625 132.758544921875 665.9008178710938 119.3047180175781 653.105712890625 106.7138061523438 C 640.4118041992188 94.2225341796875 625.8282470703125 82.47262573242188 609.7601928710938 71.79046630859375 C 593.673828125 61.09628295898438 575.9688110351562 51.38528442382812 557.1369018554688 42.92718505859375 C 538.1105346679688 34.38180541992188 517.767578125 27.04144287109375 496.6730041503906 21.10992431640625 C 475.1788940429688 15.06600952148438 452.6838073730469 10.42391967773438 429.8124694824219 7.312469482421875 C 406.3387145996094 4.119171142578125 382.1775512695312 2.5 358 2.5 M 358 0 C 555.7178955078125 0 716 106.5561828613281 716 238 C 716 369.4438171386719 555.7178955078125 476 358 476 C 160.281982421875 476 0 369.4438171386719 0 238 C 0 106.5561828613281 160.281982421875 0 358 0 Z" stroke="none" fill="#f40"/>
    </g>
  </g>
</svg>
