<svg xmlns="http://www.w3.org/2000/svg" width="860.396" height="383.665" viewBox="0 0 860.396 383.665">
  <g id="Group_4832" data-name="Group 4832" transform="translate(-960 -334.668)">
    <g id="Group_4490" data-name="Group 4490" transform="translate(1148.578 334.668)">
      <path id="Path_2665" data-name="Path 2665" d="M901.164,715.843H234.242a2.451,2.451,0,0,0-2.448,2.454v15.174a2.813,2.813,0,0,0,2.084,2.72l15.593,4.169a67.485,67.485,0,0,0,17.434,2.29H868.5a67.485,67.485,0,0,0,17.433-2.29l15.593-4.169a2.813,2.813,0,0,0,2.084-2.72V718.3a2.451,2.451,0,0,0-2.448-2.454" transform="translate(-231.794 -358.986)" fill="#1a1a1a"/>
      <path id="Path_2666" data-name="Path 2666" d="M879.261,527.358H311.542V185.717A15.2,15.2,0,0,1,326.719,170.5H864.085a15.2,15.2,0,0,1,15.177,15.216Z" transform="translate(-259.493 -170.501)" fill="#232323"/>
      <rect id="Rectangle_1012" data-name="Rectangle 1012" width="527.504" height="320.163" transform="translate(72.143 20.539)" fill="#fff"/>
      <rect id="Rectangle_1013" data-name="Rectangle 1013" width="527.504" height="320.163" transform="translate(72.143 20.539)" fill="none" stroke="#000" stroke-width="2"/>
      <path id="Path_2667" data-name="Path 2667" d="M747.893,185.52a3.062,3.062,0,1,1-3.062-3.07,3.065,3.065,0,0,1,3.062,3.07" transform="translate(-408.923 -174.631)" fill="#fff"/>
      <path id="Path_2682" data-name="Path 2682" d="M3.069,0A3.062,3.062,0,1,1,0,3.062,3.061,3.061,0,0,1,3.069,0Z" transform="translate(332.226 13.171) rotate(-76.718)" fill="none" stroke="#000" stroke-width="2"/>
      <path id="Path_2668" data-name="Path 2668" d="M770.774,186.265a1.654,1.654,0,1,1-1.654-1.658,1.656,1.656,0,0,1,1.654,1.658" transform="translate(-417.848 -175.376)"/>
      <path id="Path_2669" data-name="Path 2669" d="M723.695,186.265a1.654,1.654,0,1,1-1.654-1.658,1.656,1.656,0,0,1,1.654,1.658" transform="translate(-401.496 -175.376)"/>
      <line id="Line_60" data-name="Line 60" x2="670.233" transform="translate(0.71 375.551)" fill="none" stroke="#000" stroke-width="1"/>
      <path id="Path_2670" data-name="Path 2670" d="M854.109,704.509H286.389l-47.265,7.416H901.019Z" transform="translate(-234.34 -355.069)"/>
      <path id="Path_2671" data-name="Path 2671" d="M869.032,753.1h-601.6A67.517,67.517,0,0,1,250,750.814l-15.592-4.169a2.979,2.979,0,0,1-1.087-.558H903.129a2.775,2.775,0,0,1-1.071.558l-15.592,4.169a67.516,67.516,0,0,1-17.433,2.29" transform="translate(-232.325 -369.439)" fill="#040506"/>
      <path id="Path_2672" data-name="Path 2672" d="M773.629,712.181h-125.1c-2.174,0-3.936,2.4-3.936,2.4s1.762,2.4,3.936,2.4h125.1c2.174,0,3.936-2.4,3.936-2.4s-1.762-2.4-3.936-2.4" transform="translate(-375.172 -357.721)" fill="#fff"/>
      <path id="Path_2673" data-name="Path 2673" d="M773.629,712.181h-125.1c-2.174,0-3.936,2.4-3.936,2.4s1.762,2.4,3.936,2.4h125.1c2.174,0,3.936-2.4,3.936-2.4S775.8,712.181,773.629,712.181Z" transform="translate(-375.172 -357.721)" fill="none" stroke="#000" stroke-width="2"/>
      <path id="Path_2674" data-name="Path 2674" d="M746.16,446.163a50.733,50.733,0,0,0,4.09-18.477c-.044-.733-.072-1.468-.072-2.211a36.35,36.35,0,1,1,67.745,18.345h.01l12.228,11.33a52.736,52.736,0,1,0-88.106-1.268,54.328,54.328,0,0,0,4.105-7.719" transform="translate(-406.15 -240.352)" fill="#e03c00"/>
      <path id="Path_2675" data-name="Path 2675" d="M792.881,455.437v35.114a36.334,36.334,0,0,1-32.557-20.239,55.625,55.625,0,0,1-2.4,6.783,60.2,60.2,0,0,1-5.839,10.512A52.631,52.631,0,0,0,809.3,504.354l.075-.012V493.9l13.051,13.085h22.205c-1.239,0-51.751-51.546-51.751-51.546" transform="translate(-412.505 -268.983)" fill="#e03c00"/>
      <path id="Path_2676" data-name="Path 2676" d="M698.833,405.266a55.034,55.034,0,0,0-4.192-7.864,54.433,54.433,0,0,0-4.12,7.864,51.208,51.208,0,0,0-4.022,18.411l-.074,0c.032.671.051,1.349.051,2.032a36.958,36.958,0,0,1-2.822,14.422,37.617,37.617,0,0,1-7.73,11.793,36.381,36.381,0,0,1-11.427,7.951,36.153,36.153,0,0,1-28.363,0,37.34,37.34,0,0,1-11.561-8.019,36.517,36.517,0,0,1-7.8-11.792,37.586,37.586,0,0,1-2.755-14.488,38.7,38.7,0,0,1,2.688-14.354,36.133,36.133,0,0,1,19.155-20.013,34.8,34.8,0,0,1,14.318-2.966,35.2,35.2,0,0,1,25.743,10.984,39.109,39.109,0,0,1,6.934,10.155,56.209,56.209,0,0,1,2.245-6.37,60.047,60.047,0,0,1,5.873-10.675q-1.707-2.087-3.631-4.024A54.159,54.159,0,0,0,670.438,376.8a52.071,52.071,0,0,0-40.736,0,54.03,54.03,0,0,0-28.109,28.467,51.464,51.464,0,0,0-4.066,20.316,52.239,52.239,0,0,0,52.65,52.786,51.473,51.473,0,0,0,20.4-4.076,53.314,53.314,0,0,0,28.252-28.111,52.654,52.654,0,0,0,0-40.915" transform="translate(-358.823 -240.369)" fill="#f40"/>
      <path id="Path_2677" data-name="Path 2677" d="M758.641,388.7a46.454,46.454,0,0,0-12.968,14.252C740.39,412.115,754,428.075,754,428.075s-4.032-17.569,4.639-39.38" transform="translate(-409.855 -245.915)" fill="#f40"/>
    </g>
    <g id="Group_4491" data-name="Group 4491" transform="translate(1064.58 369.427)">
      <path id="Path_2657" data-name="Path 2657" d="M360.859,252.528V571a15.2,15.2,0,0,1-15.177,15.216h-190.5A15.2,15.2,0,0,1,140,571V252.528a15.2,15.2,0,0,1,15.177-15.216h190.5a15.2,15.2,0,0,1,15.177,15.216" transform="translate(-140.002 -237.312)" fill="#232323"/>
      <rect id="Rectangle_1010" data-name="Rectangle 1010" width="195.742" height="303.585" transform="translate(12.558 22.661)" fill="#fff"/>
      <rect id="Rectangle_1011" data-name="Rectangle 1011" width="195.742" height="303.585" transform="translate(12.558 22.661)" fill="none" stroke="#000" stroke-width="2"/>
      <path id="Path_2658" data-name="Path 2658" d="M306.414,745.794a5.242,5.242,0,1,1-5.229,5.242,5.235,5.235,0,0,1,5.229-5.242" transform="translate(-195.985 -413.057)" fill="#fff"/>
      <path id="Path_2659" data-name="Path 2659" d="M306.414,745.794a5.242,5.242,0,1,1-5.229,5.242A5.235,5.235,0,0,1,306.414,745.794Z" transform="translate(-195.985 -413.057)" fill="none" stroke="#000" stroke-width="2"/>
      <path id="Path_2660" data-name="Path 2660" d="M308.153,252.916a1.966,1.966,0,1,1-1.961,1.966,1.963,1.963,0,0,1,1.961-1.966" transform="translate(-197.724 -242.705)"/>
      <path id="Path_2661" data-name="Path 2661" d="M309.009,499.381a31.717,31.717,0,0,0,2.555-11.548c-.027-.458-.045-.917-.045-1.382a22.72,22.72,0,1,1,42.342,11.466h.006L361.51,505a32.961,32.961,0,1,0-55.067-.792,33.97,33.97,0,0,0,2.566-4.824" transform="translate(-196.017 -311.999)" fill="#e03c00"/>
      <path id="Path_2662" data-name="Path 2662" d="M338.21,505.178v21.947a22.709,22.709,0,0,1-20.349-12.65,34.779,34.779,0,0,1-1.5,4.239,37.6,37.6,0,0,1-3.649,6.571,32.895,32.895,0,0,0,35.762,10.466l.047-.007v-6.528l8.156,8.178h13.878c-.775,0-32.345-32.217-32.345-32.217" transform="translate(-199.988 -329.894)" fill="#e03c00"/>
      <path id="Path_2663" data-name="Path 2663" d="M279.429,473.821a34.516,34.516,0,0,0-2.62-4.916,33.995,33.995,0,0,0-2.575,4.916,31.986,31.986,0,0,0-2.513,11.506l-.047,0c.02.419.031.843.031,1.269a23.091,23.091,0,0,1-1.764,9.014,23.5,23.5,0,0,1-4.831,7.371,22.737,22.737,0,0,1-7.142,4.97,22.6,22.6,0,0,1-17.727,0,23.35,23.35,0,0,1-7.226-5.013,22.817,22.817,0,0,1-4.873-7.37,23.493,23.493,0,0,1-1.722-9.056,24.179,24.179,0,0,1,1.68-8.971,22.586,22.586,0,0,1,11.971-12.508,22.2,22.2,0,0,1,25.038,5.012,24.428,24.428,0,0,1,4.334,6.347,34.994,34.994,0,0,1,1.4-3.981,37.5,37.5,0,0,1,3.671-6.672q-1.068-1.3-2.269-2.515a33.859,33.859,0,0,0-10.569-7.2,32.55,32.55,0,0,0-25.461,0,33.776,33.776,0,0,0-17.567,17.793,32.162,32.162,0,0,0-2.542,12.7,32.652,32.652,0,0,0,32.907,32.993,32.179,32.179,0,0,0,12.752-2.548,33.329,33.329,0,0,0,17.659-17.571,32.91,32.91,0,0,0,0-25.571" transform="translate(-166.437 -312.01)" fill="#f40"/>
      <path id="Path_2664" data-name="Path 2664" d="M316.809,463.464a29.039,29.039,0,0,0-8.1,8.908c-3.3,5.73,5.206,15.7,5.206,15.7s-2.521-10.981,2.9-24.613" transform="translate(-198.332 -315.476)" fill="#f40"/>
    </g>
    <g id="Group_4492" data-name="Group 4492" transform="translate(960 431.142)">
      <path id="Path_2648" data-name="Path 2648" d="M135.243,606.259H15.177A15.2,15.2,0,0,1,0,591.043V334.285a15.2,15.2,0,0,1,15.177-15.216H135.243a15.2,15.2,0,0,1,15.177,15.216V591.043a15.2,15.2,0,0,1-15.177,15.216" transform="translate(0 -319.069)" fill="#232323"/>
      <path id="Path_2649" data-name="Path 2649" d="M136.822,326.5H105.291a2.752,2.752,0,0,0-2.572,1.777l-1.664,4.378a6.016,6.016,0,0,1-5.622,3.884H60.242a6.018,6.018,0,0,1-5.623-3.884l-1.663-4.378a2.752,2.752,0,0,0-2.572-1.777H18.853A11.3,11.3,0,0,0,7.567,337.813V593.121a11.3,11.3,0,0,0,11.286,11.315H136.822a11.3,11.3,0,0,0,11.286-11.315V337.813A11.3,11.3,0,0,0,136.822,326.5" transform="translate(-2.628 -321.637)" fill="#fff"/>
      <path id="Path_2650" data-name="Path 2650" d="M136.822,326.5H105.291a2.752,2.752,0,0,0-2.572,1.777l-1.664,4.378a6.016,6.016,0,0,1-5.622,3.884H60.242a6.018,6.018,0,0,1-5.623-3.884l-1.663-4.378a2.752,2.752,0,0,0-2.572-1.777H18.853A11.3,11.3,0,0,0,7.567,337.813V593.121a11.3,11.3,0,0,0,11.286,11.315H136.822a11.3,11.3,0,0,0,11.286-11.315V337.813A11.3,11.3,0,0,0,136.822,326.5Z" transform="translate(-2.628 -321.637)" fill="none" stroke="#000" stroke-width="2"/>
      <path id="Path_2651" data-name="Path 2651" d="M118.8,330.911H89.56a.965.965,0,0,1,0-1.93H118.8a.965.965,0,0,1,0,1.93" transform="translate(-30.773 -322.495)"/>
      <path id="Path_2652" data-name="Path 2652" d="M140.844,329.947a.962.962,0,1,1-.962-.965.963.963,0,0,1,.962.965" transform="translate(-48.25 -322.495)"/>
      <path id="Path_2653" data-name="Path 2653" d="M115.089,528a24.389,24.389,0,0,0,1.965-8.878c-.022-.352-.035-.705-.035-1.062a17.465,17.465,0,1,1,32.55,8.814h0l5.875,5.444a25.338,25.338,0,1,0-42.332-.609A26.122,26.122,0,0,0,115.089,528" transform="translate(-37.909 -379.063)" fill="#e03c00"/>
      <path id="Path_2654" data-name="Path 2654" d="M137.537,532.452v16.872a17.458,17.458,0,0,1-15.643-9.725,26.661,26.661,0,0,1-1.153,3.259,28.958,28.958,0,0,1-2.806,5.051,25.292,25.292,0,0,0,27.492,8.046l.036-.006v-5.018l6.27,6.287H162.4c-.6,0-24.866-24.766-24.866-24.766" transform="translate(-40.962 -392.82)" fill="#e03c00"/>
      <path id="Path_2655" data-name="Path 2655" d="M92.349,508.345a26.481,26.481,0,0,0-2.014-3.779,26.143,26.143,0,0,0-1.98,3.779,24.6,24.6,0,0,0-1.933,8.846h-.035c.015.323.024.648.024.976a17.767,17.767,0,0,1-1.356,6.929,18.088,18.088,0,0,1-3.714,5.666,17.478,17.478,0,0,1-5.491,3.82,17.368,17.368,0,0,1-13.628,0,17.941,17.941,0,0,1-5.555-3.853,17.553,17.553,0,0,1-3.746-5.666A18.06,18.06,0,0,1,51.6,518.1a18.6,18.6,0,0,1,1.292-6.9,17.367,17.367,0,0,1,9.2-9.615,16.714,16.714,0,0,1,6.879-1.425,16.921,16.921,0,0,1,12.369,5.277,18.783,18.783,0,0,1,3.331,4.88,27.038,27.038,0,0,1,1.079-3.06,28.8,28.8,0,0,1,2.822-5.129q-.821-1-1.745-1.934a26.029,26.029,0,0,0-8.124-5.533,25.02,25.02,0,0,0-19.572,0,25.96,25.96,0,0,0-13.506,13.678,24.731,24.731,0,0,0-1.953,9.761,25.1,25.1,0,0,0,25.3,25.363,24.74,24.74,0,0,0,9.8-1.959A25.618,25.618,0,0,0,92.349,528a25.3,25.3,0,0,0,0-19.658" transform="translate(-15.169 -379.072)" fill="#f40"/>
      <path id="Path_2656" data-name="Path 2656" d="M121.086,500.384a22.316,22.316,0,0,0-6.231,6.848c-2.539,4.4,4,12.072,4,12.072s-1.938-8.441,2.229-18.92" transform="translate(-39.689 -381.737)" fill="#f40"/>
    </g>
  </g>
</svg>
