<svg xmlns="http://www.w3.org/2000/svg" xmlns:xlink="http://www.w3.org/1999/xlink" width="332" height="398" viewBox="0 0 332 398">
  <defs>
    <clipPath id="clip-path">
      <rect id="Rectangle_4566" data-name="Rectangle 4566" width="332" height="398" transform="translate(0 7256.363)" fill="#fff" stroke="#707070" stroke-width="1"/>
    </clipPath>
    <clipPath id="clip-path-2">
      <rect id="Rectangle_4559" data-name="Rectangle 4559" width="385.892" height="400.998" fill="none"/>
    </clipPath>
  </defs>
  <g id="Mask_Group_4510" data-name="Mask Group 4510" transform="translate(0 -7256.363)" clip-path="url(#clip-path)">
    <g id="Group_4874" data-name="Group 4874" transform="translate(0 7256.17)">
      <g id="Group_4861" data-name="Group 4861">
        <g id="Group_4860" data-name="Group 4860" clip-path="url(#clip-path-2)">
          <path id="Path_9511" data-name="Path 9511" d="M212.6,376l-38.415,66.537h76.83Z" transform="translate(-19.655 -42.426)" fill="none" stroke="#f40" stroke-width="1"/>
        </g>
      </g>
      <path id="Path_9512" data-name="Path 9512" d="M212.6,226l-38.415,66.537h76.83Z" transform="translate(-19.655 -25.501)" fill="none" stroke="#f40" stroke-width="1"/>
      <g id="Group_4863" data-name="Group 4863">
        <g id="Group_4862" data-name="Group 4862" clip-path="url(#clip-path-2)">
          <path id="Path_9513" data-name="Path 9513" d="M299.244,376l-38.415,66.537h76.83Z" transform="translate(-29.431 -42.426)" fill="none" stroke="#f40" stroke-width="1"/>
          <path id="Path_9514" data-name="Path 9514" d="M125.923,376,87.508,442.537h76.83Z" transform="translate(-9.874 -42.426)" fill="none" stroke="#f40" stroke-width="1"/>
        </g>
      </g>
      <path id="Path_9515" data-name="Path 9515" d="M255.943,301l-38.415,66.537h76.83Z" transform="translate(-24.545 -33.964)" fill="none" stroke="#f40" stroke-width="1"/>
      <path id="Path_9516" data-name="Path 9516" d="M169.263,301l-38.415,66.537h76.83Z" transform="translate(-14.764 -33.964)" fill="none" stroke="#f40" stroke-width="1"/>
      <path id="Path_9517" data-name="Path 9517" d="M169.282,292.537,207.7,226h-76.83Z" transform="translate(-14.767 -25.501)" fill="none" stroke="#f40" stroke-width="1"/>
      <path id="Path_9518" data-name="Path 9518" d="M125.942,367.537,164.357,301H87.527Z" transform="translate(-9.876 -33.964)" fill="none" stroke="#f40" stroke-width="1"/>
      <g id="Group_4865" data-name="Group 4865">
        <g id="Group_4864" data-name="Group 4864" clip-path="url(#clip-path-2)">
          <path id="Path_9519" data-name="Path 9519" d="M39.281,376,.866,442.537H77.7Z" transform="translate(-0.098 -42.426)" fill="none" stroke="#f40" stroke-width="1"/>
        </g>
      </g>
      <path id="Path_9520" data-name="Path 9520" d="M82.621,301,44.206,367.537h76.83Z" transform="translate(-4.988 -33.964)" fill="#f40"/>
      <path id="Path_9521" data-name="Path 9521" d="M82.621,301,44.206,367.537h76.83Z" transform="translate(-4.988 -33.964)" fill="none" stroke="#f40" stroke-width="1"/>
      <g id="Group_4867" data-name="Group 4867">
        <g id="Group_4866" data-name="Group 4866" clip-path="url(#clip-path-2)">
          <path id="Path_9522" data-name="Path 9522" d="M39.3,367.537,77.716,301H.886Z" transform="translate(-0.1 -33.964)" fill="none" stroke="#f40" stroke-width="1"/>
          <path id="Path_9523" data-name="Path 9523" d="M385.832,376l-38.415,66.537h76.83Z" transform="translate(-39.201 -42.426)" fill="none" stroke="#f40" stroke-width="1"/>
        </g>
      </g>
      <path id="Path_9524" data-name="Path 9524" d="M342.511,292.537,380.926,226H304.1Z" transform="translate(-34.313 -25.501)" fill="none" stroke="#f40" stroke-width="1"/>
      <g id="Group_4869" data-name="Group 4869">
        <g id="Group_4868" data-name="Group 4868" clip-path="url(#clip-path-2)">
          <path id="Path_9525" data-name="Path 9525" d="M342.511,442.537,380.926,376H304.1Z" transform="translate(-34.313 -42.426)" fill="none" stroke="#f40" stroke-width="1"/>
        </g>
      </g>
      <path id="Path_9526" data-name="Path 9526" d="M255.87,292.537,294.285,226h-76.83Z" transform="translate(-24.537 -25.501)" fill="none" stroke="#f40" stroke-width="1"/>
      <path id="Path_9527" data-name="Path 9527" d="M299.171,367.537,337.586,301h-76.83Z" transform="translate(-29.423 -33.964)" fill="none" stroke="#f40" stroke-width="1"/>
      <g id="Group_4871" data-name="Group 4871">
        <g id="Group_4870" data-name="Group 4870" clip-path="url(#clip-path-2)">
          <path id="Path_9528" data-name="Path 9528" d="M385.852,367.537,424.267,301h-76.83Z" transform="translate(-39.203 -33.964)" fill="none" stroke="#f40" stroke-width="1"/>
        </g>
      </g>
      <path id="Path_9529" data-name="Path 9529" d="M342.58,151l-38.415,66.537h76.83Z" transform="translate(-34.321 -17.038)" fill="none" stroke="#f40" stroke-width="1"/>
      <g id="Group_4873" data-name="Group 4873">
        <g id="Group_4872" data-name="Group 4872" clip-path="url(#clip-path-2)">
          <path id="Path_9530" data-name="Path 9530" d="M342.58,1,304.165,67.537h76.83Z" transform="translate(-34.321 -0.113)" fill="none" stroke="#f40" stroke-width="1"/>
          <path id="Path_9531" data-name="Path 9531" d="M385.92,76,347.5,142.537h76.83Z" transform="translate(-39.211 -8.576)" fill="none" stroke="#f40" stroke-width="1"/>
          <path id="Path_9532" data-name="Path 9532" d="M299.259,67.537,337.674,1h-76.83Z" transform="translate(-29.433 -0.113)" fill="none" stroke="#f40" stroke-width="1"/>
        </g>
      </g>
    </g>
  </g>
</svg>
