<svg xmlns="http://www.w3.org/2000/svg" xmlns:xlink="http://www.w3.org/1999/xlink" width="133" height="160" viewBox="0 0 133 160">
  <defs>
    <clipPath id="clip-path">
      <rect id="Rectangle_4587" data-name="Rectangle 4587" width="133" height="160" transform="translate(0 0)" fill="#fff" stroke="#707070" stroke-width="1"/>
    </clipPath>
    <clipPath id="clip-path-2">
      <rect id="Rectangle_4580" data-name="Rectangle 4580" width="154.468" height="160.515" fill="none"/>
    </clipPath>
  </defs>
  <g id="Mask_Group_4511" data-name="Mask Group 4511" transform="translate(0 0)" clip-path="url(#clip-path)">
    <g id="Group_5111" data-name="Group 5111" transform="translate(-21.936 -0.825)">
      <g id="Group_5098" data-name="Group 5098">
        <g id="Group_5097" data-name="Group 5097" clip-path="url(#clip-path-2)">
          <path id="Path_10653" data-name="Path 10653" d="M189.565,402.634,204.942,376H174.188Z" transform="translate(-112.332 -375.645)" fill="none" stroke="#f40" stroke-width="1"/>
        </g>
      </g>
      <path id="Path_10654" data-name="Path 10654" d="M189.565,252.634,204.942,226H174.188Z" transform="translate(-112.332 -172.377)" fill="none" stroke="#f40" stroke-width="1"/>
      <g id="Group_5100" data-name="Group 5100">
        <g id="Group_5099" data-name="Group 5099" clip-path="url(#clip-path-2)">
          <path id="Path_10655" data-name="Path 10655" d="M276.206,402.634,291.583,376H260.829Z" transform="translate(-229.741 -375.645)" fill="none" stroke="#f40" stroke-width="1"/>
          <path id="Path_10656" data-name="Path 10656" d="M102.885,402.634,118.262,376H87.508Z" transform="translate(5.13 -375.645)" fill="none" stroke="#f40" stroke-width="1"/>
        </g>
      </g>
      <path id="Path_10657" data-name="Path 10657" d="M232.905,327.634,248.282,301H217.528Z" transform="translate(-171.063 -274.011)" fill="none" stroke="#f40" stroke-width="1"/>
      <path id="Path_10658" data-name="Path 10658" d="M146.225,327.634,161.6,301H130.848Z" transform="translate(-53.601 -274.011)" fill="none" stroke="#f40" stroke-width="1"/>
      <path id="Path_10659" data-name="Path 10659" d="M146.244,226l-15.377,26.634h30.754Z" transform="translate(-53.627 -172.377)" fill="none" stroke="#f40" stroke-width="1"/>
      <path id="Path_10660" data-name="Path 10660" d="M102.9,301,87.527,327.634h30.754Z" transform="translate(5.104 -274.011)" fill="none" stroke="#f40" stroke-width="1"/>
      <g id="Group_5102" data-name="Group 5102">
        <g id="Group_5101" data-name="Group 5101" clip-path="url(#clip-path-2)">
          <path id="Path_10661" data-name="Path 10661" d="M16.243,402.634,31.62,376H.866Z" transform="translate(122.54 -375.645)" fill="none" stroke="#f40" stroke-width="1"/>
        </g>
      </g>
      <path id="Path_10662" data-name="Path 10662" d="M59.583,327.634,74.961,301H44.206Z" transform="translate(63.809 -274.011)" fill="#f40"/>
      <path id="Path_10663" data-name="Path 10663" d="M59.583,327.634,74.961,301H44.206Z" transform="translate(63.809 -274.011)" fill="none" stroke="#f40" stroke-width="1"/>
      <g id="Group_5104" data-name="Group 5104">
        <g id="Group_5103" data-name="Group 5103" clip-path="url(#clip-path-2)">
          <path id="Path_10664" data-name="Path 10664" d="M16.263,301,.886,327.634H31.64Z" transform="translate(122.514 -274.011)" fill="none" stroke="#f40" stroke-width="1"/>
          <path id="Path_10665" data-name="Path 10665" d="M362.794,402.634,378.171,376H347.417Z" transform="translate(-347.078 -375.645)" fill="none" stroke="#f40" stroke-width="1"/>
        </g>
      </g>
      <path id="Path_10666" data-name="Path 10666" d="M319.473,226,304.1,252.634H334.85Z" transform="translate(-288.373 -172.377)" fill="none" stroke="#f40" stroke-width="1"/>
      <g id="Group_5106" data-name="Group 5106">
        <g id="Group_5105" data-name="Group 5105" clip-path="url(#clip-path-2)">
          <path id="Path_10667" data-name="Path 10667" d="M319.473,376,304.1,402.634H334.85Z" transform="translate(-288.373 -375.645)" fill="none" stroke="#f40" stroke-width="1"/>
        </g>
      </g>
      <path id="Path_10668" data-name="Path 10668" d="M232.832,226l-15.377,26.634h30.754Z" transform="translate(-170.964 -172.377)" fill="none" stroke="#f40" stroke-width="1"/>
      <path id="Path_10669" data-name="Path 10669" d="M276.133,301l-15.377,26.634H291.51Z" transform="translate(-229.642 -274.011)" fill="none" stroke="#f40" stroke-width="1"/>
      <g id="Group_5108" data-name="Group 5108">
        <g id="Group_5107" data-name="Group 5107" clip-path="url(#clip-path-2)">
          <path id="Path_10670" data-name="Path 10670" d="M362.813,301l-15.377,26.634h30.754Z" transform="translate(-347.105 -274.011)" fill="none" stroke="#f40" stroke-width="1"/>
        </g>
      </g>
      <path id="Path_10671" data-name="Path 10671" d="M319.542,177.634,334.919,151H304.165Z" transform="translate(-288.466 -70.743)" fill="none" stroke="#f40" stroke-width="1"/>
      <g id="Group_5110" data-name="Group 5110">
        <g id="Group_5109" data-name="Group 5109" clip-path="url(#clip-path-2)">
          <path id="Path_10672" data-name="Path 10672" d="M319.542,27.634,334.919,1H304.165Z" transform="translate(-288.466 132.525)" fill="none" stroke="#f40" stroke-width="1"/>
          <path id="Path_10673" data-name="Path 10673" d="M362.882,102.634,378.259,76H347.5Z" transform="translate(-347.197 30.891)" fill="none" stroke="#f40" stroke-width="1"/>
          <path id="Path_10674" data-name="Path 10674" d="M276.221,1,260.844,27.634H291.6Z" transform="translate(-229.761 132.525)" fill="none" stroke="#f40" stroke-width="1"/>
        </g>
      </g>
    </g>
  </g>
</svg>
