<svg xmlns="http://www.w3.org/2000/svg" xmlns:xlink="http://www.w3.org/1999/xlink" width="177" height="213" viewBox="0 0 177 213">
  <defs>
    <clipPath id="clip-path">
      <rect id="Rectangle_4587" data-name="Rectangle 4587" width="177" height="213" transform="translate(0.484 -0.397)" fill="#fff" stroke="#707070" stroke-width="1"/>
    </clipPath>
    <clipPath id="clip-path-2">
      <rect id="Rectangle_4580" data-name="Rectangle 4580" width="205.957" height="214.019" fill="none"/>
    </clipPath>
  </defs>
  <g id="Mask_Group_4511" data-name="Mask Group 4511" transform="translate(-0.484 0.397)" clip-path="url(#clip-path)">
    <g id="Group_5111" data-name="Group 5111" transform="translate(-28.763 -1.497)">
      <g id="Group_5098" data-name="Group 5098">
        <g id="Group_5097" data-name="Group 5097" clip-path="url(#clip-path-2)">
          <path id="Path_10653" data-name="Path 10653" d="M194.691,411.512,215.193,376H174.188Z" transform="translate(-91.713 -375.526)" fill="none" stroke="#f40" stroke-width="1"/>
        </g>
      </g>
      <path id="Path_10654" data-name="Path 10654" d="M194.691,261.512,215.193,226H174.188Z" transform="translate(-91.713 -154.502)" fill="none" stroke="#f40" stroke-width="1"/>
      <g id="Group_5100" data-name="Group 5100">
        <g id="Group_5099" data-name="Group 5099" clip-path="url(#clip-path-2)">
          <path id="Path_10655" data-name="Path 10655" d="M281.332,411.512,301.835,376H260.829Z" transform="translate(-219.379 -375.526)" fill="none" stroke="#f40" stroke-width="1"/>
          <path id="Path_10656" data-name="Path 10656" d="M108.01,411.512,128.513,376H87.508Z" transform="translate(36.01 -375.526)" fill="none" stroke="#f40" stroke-width="1"/>
        </g>
      </g>
      <path id="Path_10657" data-name="Path 10657" d="M238.031,336.512,258.533,301H217.528Z" transform="translate(-155.574 -265.014)" fill="none" stroke="#f40" stroke-width="1"/>
      <path id="Path_10658" data-name="Path 10658" d="M151.351,336.512,171.853,301H130.848Z" transform="translate(-27.852 -265.014)" fill="none" stroke="#f40" stroke-width="1"/>
      <path id="Path_10659" data-name="Path 10659" d="M151.37,226l-20.5,35.512h41.006Z" transform="translate(-27.88 -154.502)" fill="none" stroke="#f40" stroke-width="1"/>
      <path id="Path_10660" data-name="Path 10660" d="M108.03,301l-20.5,35.512h41.006Z" transform="translate(35.981 -265.014)" fill="none" stroke="#f40" stroke-width="1"/>
      <g id="Group_5102" data-name="Group 5102">
        <g id="Group_5101" data-name="Group 5101" clip-path="url(#clip-path-2)">
          <path id="Path_10661" data-name="Path 10661" d="M21.369,411.512,41.872,376H.866Z" transform="translate(163.675 -375.526)" fill="none" stroke="#f40" stroke-width="1"/>
        </g>
      </g>
      <path id="Path_10662" data-name="Path 10662" d="M64.709,336.512,85.212,301H44.206Z" transform="translate(99.814 -265.014)" fill="#f40"/>
      <path id="Path_10663" data-name="Path 10663" d="M64.709,336.512,85.212,301H44.206Z" transform="translate(99.814 -265.014)" fill="none" stroke="#f40" stroke-width="1"/>
      <g id="Group_5104" data-name="Group 5104">
        <g id="Group_5103" data-name="Group 5103" clip-path="url(#clip-path-2)">
          <path id="Path_10664" data-name="Path 10664" d="M21.388,301,.886,336.512H41.891Z" transform="translate(163.647 -265.014)" fill="none" stroke="#f40" stroke-width="1"/>
          <path id="Path_10665" data-name="Path 10665" d="M367.92,411.512,388.423,376H347.417Z" transform="translate(-346.965 -375.526)" fill="none" stroke="#f40" stroke-width="1"/>
        </g>
      </g>
      <path id="Path_10666" data-name="Path 10666" d="M324.6,226l-20.5,35.512H345.1Z" transform="translate(-283.132 -154.502)" fill="none" stroke="#f40" stroke-width="1"/>
      <g id="Group_5106" data-name="Group 5106">
        <g id="Group_5105" data-name="Group 5105" clip-path="url(#clip-path-2)">
          <path id="Path_10667" data-name="Path 10667" d="M324.6,376l-20.5,35.512H345.1Z" transform="translate(-283.132 -375.526)" fill="none" stroke="#f40" stroke-width="1"/>
        </g>
      </g>
      <path id="Path_10668" data-name="Path 10668" d="M237.958,226l-20.5,35.512H258.46Z" transform="translate(-155.467 -154.502)" fill="none" stroke="#f40" stroke-width="1"/>
      <path id="Path_10669" data-name="Path 10669" d="M281.259,301l-20.5,35.512h41.006Z" transform="translate(-219.271 -265.014)" fill="none" stroke="#f40" stroke-width="1"/>
      <g id="Group_5108" data-name="Group 5108">
        <g id="Group_5107" data-name="Group 5107" clip-path="url(#clip-path-2)">
          <path id="Path_10670" data-name="Path 10670" d="M367.939,301l-20.5,35.512h41.006Z" transform="translate(-346.994 -265.014)" fill="none" stroke="#f40" stroke-width="1"/>
        </g>
      </g>
      <path id="Path_10671" data-name="Path 10671" d="M324.667,186.512,345.17,151H304.165Z" transform="translate(-283.233 -43.99)" fill="none" stroke="#f40" stroke-width="1"/>
      <g id="Group_5110" data-name="Group 5110">
        <g id="Group_5109" data-name="Group 5109" clip-path="url(#clip-path-2)">
          <path id="Path_10672" data-name="Path 10672" d="M324.667,36.512,345.17,1H304.165Z" transform="translate(-283.233 177.034)" fill="none" stroke="#f40" stroke-width="1"/>
          <path id="Path_10673" data-name="Path 10673" d="M368.008,111.512,388.51,76H347.5Z" transform="translate(-347.095 66.522)" fill="none" stroke="#f40" stroke-width="1"/>
          <path id="Path_10674" data-name="Path 10674" d="M281.347,1l-20.5,35.512H301.85Z" transform="translate(-219.401 177.034)" fill="none" stroke="#f40" stroke-width="1"/>
        </g>
      </g>
    </g>
  </g>
</svg>
