<svg xmlns="http://www.w3.org/2000/svg" xmlns:xlink="http://www.w3.org/1999/xlink" width="65" height="78" viewBox="0 0 65 78">
  <defs>
    <clipPath id="clip-path">
      <rect id="Rectangle_4587" data-name="Rectangle 4587" width="65" height="78" transform="translate(0 0)" fill="#fff" stroke="#707070" stroke-width="1"/>
    </clipPath>
    <clipPath id="clip-path-2">
      <rect id="Rectangle_4580" data-name="Rectangle 4580" width="75.424" height="78.376" fill="none" stroke="#707070" stroke-width="0.5"/>
    </clipPath>
  </defs>
  <g id="Mask_Group_4511" data-name="Mask Group 4511" transform="translate(0 0)" clip-path="url(#clip-path)">
    <g id="Group_5111" data-name="Group 5111" transform="translate(-10.711 -0.403)">
      <g id="Group_5098" data-name="Group 5098">
        <g id="Group_5097" data-name="Group 5097" clip-path="url(#clip-path-2)">
          <path id="Path_10653" data-name="Path 10653" d="M181.7,389l7.508-13H174.188Z" transform="translate(-143.985 -375.827)" fill="none" stroke="#f40" stroke-width="0.5"/>
        </g>
      </g>
      <path id="Path_10654" data-name="Path 10654" d="M181.7,239l7.508-13H174.188Z" transform="translate(-143.985 -199.817)" fill="none" stroke="#f40" stroke-width="0.5"/>
      <g id="Group_5100" data-name="Group 5100">
        <g id="Group_5099" data-name="Group 5099" clip-path="url(#clip-path-2)">
          <path id="Path_10655" data-name="Path 10655" d="M268.338,389l7.508-13H260.829Z" transform="translate(-245.65 -375.827)" fill="none" stroke="#f40" stroke-width="0.5"/>
          <path id="Path_10656" data-name="Path 10656" d="M95.016,389l7.508-13H87.508Z" transform="translate(-42.274 -375.827)" fill="none" stroke="#f40" stroke-width="0.5"/>
        </g>
      </g>
      <path id="Path_10657" data-name="Path 10657" d="M225.036,314l7.508-13H217.528Z" transform="translate(-194.84 -287.822)" fill="none" stroke="#f40" stroke-width="0.5"/>
      <path id="Path_10658" data-name="Path 10658" d="M138.356,314l7.508-13H130.848Z" transform="translate(-93.13 -287.822)" fill="none" stroke="#f40" stroke-width="0.5"/>
      <path id="Path_10659" data-name="Path 10659" d="M138.376,226l-7.508,13h15.017Z" transform="translate(-93.152 -199.817)" fill="none" stroke="#f40" stroke-width="0.5"/>
      <path id="Path_10660" data-name="Path 10660" d="M95.035,301l-7.508,13h15.017Z" transform="translate(-42.297 -287.822)" fill="none" stroke="#f40" stroke-width="0.5"/>
      <g id="Group_5102" data-name="Group 5102">
        <g id="Group_5101" data-name="Group 5101" clip-path="url(#clip-path-2)">
          <path id="Path_10661" data-name="Path 10661" d="M8.375,389l7.508-13H.866Z" transform="translate(59.391 -375.827)" fill="none" stroke="#f40" stroke-width="0.5"/>
        </g>
      </g>
      <path id="Path_10662" data-name="Path 10662" d="M51.715,314l7.508-13H44.206Z" transform="translate(8.535 -287.822)" fill="#f40" stroke="#707070" stroke-width="0.5"/>
      <path id="Path_10663" data-name="Path 10663" d="M51.715,314l7.508-13H44.206Z" transform="translate(8.535 -287.822)" fill="none" stroke="#f40" stroke-width="0.5"/>
      <g id="Group_5104" data-name="Group 5104">
        <g id="Group_5103" data-name="Group 5103" clip-path="url(#clip-path-2)">
          <path id="Path_10664" data-name="Path 10664" d="M8.394,301,.886,314H15.9Z" transform="translate(59.368 -287.822)" fill="none" stroke="#f40" stroke-width="0.5"/>
          <path id="Path_10665" data-name="Path 10665" d="M354.925,389l7.508-13H347.417Z" transform="translate(-347.252 -375.827)" fill="none" stroke="#f40" stroke-width="0.5"/>
        </g>
      </g>
      <path id="Path_10666" data-name="Path 10666" d="M311.6,226,304.1,239h15.017Z" transform="translate(-296.419 -199.817)" fill="none" stroke="#f40" stroke-width="0.5"/>
      <g id="Group_5106" data-name="Group 5106">
        <g id="Group_5105" data-name="Group 5105" clip-path="url(#clip-path-2)">
          <path id="Path_10667" data-name="Path 10667" d="M311.6,376,304.1,389h15.017Z" transform="translate(-296.419 -375.827)" fill="none" stroke="#f40" stroke-width="0.5"/>
        </g>
      </g>
      <path id="Path_10668" data-name="Path 10668" d="M224.963,226l-7.508,13h15.017Z" transform="translate(-194.754 -199.817)" fill="none" stroke="#f40" stroke-width="0.5"/>
      <path id="Path_10669" data-name="Path 10669" d="M268.265,301l-7.508,13h15.017Z" transform="translate(-245.564 -287.822)" fill="none" stroke="#f40" stroke-width="0.5"/>
      <g id="Group_5108" data-name="Group 5108">
        <g id="Group_5107" data-name="Group 5107" clip-path="url(#clip-path-2)">
          <path id="Path_10670" data-name="Path 10670" d="M354.945,301l-7.508,13h15.017Z" transform="translate(-347.274 -287.822)" fill="none" stroke="#f40" stroke-width="0.5"/>
        </g>
      </g>
      <path id="Path_10671" data-name="Path 10671" d="M311.673,164l7.508-13H304.165Z" transform="translate(-296.499 -111.812)" fill="none" stroke="#f40" stroke-width="0.5"/>
      <g id="Group_5110" data-name="Group 5110">
        <g id="Group_5109" data-name="Group 5109" clip-path="url(#clip-path-2)">
          <path id="Path_10672" data-name="Path 10672" d="M311.673,14l7.508-13H304.165Z" transform="translate(-296.499 64.198)" fill="none" stroke="#f40" stroke-width="0.5"/>
          <path id="Path_10673" data-name="Path 10673" d="M355.013,89l7.508-13H347.5Z" transform="translate(-347.355 -23.807)" fill="none" stroke="#f40" stroke-width="0.5"/>
          <path id="Path_10674" data-name="Path 10674" d="M268.352,1l-7.508,13h15.017Z" transform="translate(-245.667 64.198)" fill="none" stroke="#f40" stroke-width="0.5"/>
        </g>
      </g>
    </g>
  </g>
</svg>
