<?xml version="1.0" encoding="UTF-8"?><svg id="Camada_1" xmlns="http://www.w3.org/2000/svg" viewBox="0 0 4027.49 142.54"><defs><style>.cls-1{fill:#f40;}</style></defs><g><rect class="cls-1" x="0" y="61.44" width="13.19" height="45.42" rx="4.94" ry="4.94"/><rect class="cls-1" x="5.8" y="0" width="1.58" height="142.54"/><rect class="cls-1" x="18.25" y="51.72" width="13.19" height="45.42" rx="4.94" ry="4.94"/><rect class="cls-1" x="24.05" y="0" width="1.58" height="142.54"/><rect class="cls-1" x="36.49" y="34.23" width="13.19" height="55.88" rx="4.94" ry="4.94"/><rect class="cls-1" x="42.3" y="0" width="1.58" height="142.54"/><rect class="cls-1" x="54.74" y="25.85" width="13.19" height="52.59" rx="4.94" ry="4.94"/><rect class="cls-1" x="60.54" y="0" width="1.58" height="142.54"/><rect class="cls-1" x="72.99" y="38.73" width="13.19" height="68.13" rx="4.94" ry="4.94"/><rect class="cls-1" x="78.79" y="0" width="1.58" height="142.54"/><rect class="cls-1" x="91.23" y="61.44" width="13.19" height="45.42" rx="4.94" ry="4.94"/><rect class="cls-1" x="97.04" y="0" width="1.58" height="142.54"/><rect class="cls-1" x="109.48" y="89.33" width="13.19" height="21.68" rx="4.94" ry="4.94"/><rect class="cls-1" x="115.28" y="0" width="1.58" height="142.54"/><rect class="cls-1" x="127.73" y="80.13" width="13.19" height="24.79" rx="4.94" ry="4.94"/><rect class="cls-1" x="133.53" y="0" width="1.58" height="142.54"/><rect class="cls-1" x="145.98" y="62.77" width="13.19" height="34.6" rx="4.94" ry="4.94"/><rect class="cls-1" x="151.78" y="0" width="1.58" height="142.54"/><rect class="cls-1" x="164.22" y="50.46" width="13.19" height="24.62" rx="4.94" ry="4.94"/><rect class="cls-1" x="170.02" y="0" width="1.58" height="142.54"/><rect class="cls-1" x="182.47" y="25.38" width="13.19" height="31.33" rx="4.94" ry="4.94"/><rect class="cls-1" x="188.27" y="0" width="1.58" height="142.54"/><rect class="cls-1" x="200.72" y="35.06" width="13.19" height="22.71" rx="4.94" ry="4.94"/><rect class="cls-1" x="206.52" y="0" width="1.58" height="142.54"/><rect class="cls-1" x="218.96" y="47.84" width="13.19" height="28.66" rx="4.94" ry="4.94"/><rect class="cls-1" x="224.77" y="0" width="1.58" height="142.54"/><rect class="cls-1" x="237.21" y="46.41" width="13.19" height="34.75" rx="4.94" ry="4.94"/><rect class="cls-1" x="243.01" y="0" width="1.58" height="142.54"/><rect class="cls-1" x="255.46" y="34.23" width="13.19" height="38.57" rx="4.94" ry="4.94"/><rect class="cls-1" x="261.26" y="0" width="1.58" height="142.54"/><rect class="cls-1" x="273.7" y="50.46" width="13.19" height="27.99" rx="4.94" ry="4.94"/><rect class="cls-1" x="279.51" y="0" width="1.58" height="142.54"/><rect class="cls-1" x="291.95" y="57.28" width="13.19" height="35.59" rx="4.94" ry="4.94"/><rect class="cls-1" x="297.75" y="0" width="1.58" height="142.54"/><rect class="cls-1" x="401.43" y="35.68" width="13.19" height="45.42" rx="4.94" ry="4.94"/><rect class="cls-1" x="407.23" y="0" width="1.58" height="142.54"/><rect class="cls-1" x="383.18" y="31.53" width="13.19" height="21.68" rx="4.94" ry="4.94"/><rect class="cls-1" x="388.99" y="0" width="1.58" height="142.54"/><rect class="cls-1" x="364.94" y="37.62" width="13.19" height="24.79" rx="4.94" ry="4.94"/><rect class="cls-1" x="370.74" y="0" width="1.58" height="142.54"/><rect class="cls-1" x="346.69" y="45.18" width="13.19" height="34.6" rx="4.94" ry="4.94"/><rect class="cls-1" x="352.49" y="0" width="1.58" height="142.54"/><rect class="cls-1" x="328.44" y="67.46" width="13.19" height="24.62" rx="4.94" ry="4.94"/><rect class="cls-1" x="334.25" y="0" width="1.58" height="142.54"/><rect class="cls-1" x="310.2" y="64.46" width="13.19" height="31.33" rx="4.94" ry="4.94"/><rect class="cls-1" x="316" y="0" width="1.58" height="142.54"/><rect class="cls-1" x="419.68" y="40.06" width="13.19" height="45.42" rx="4.94" ry="4.94"/><rect class="cls-1" x="425.48" y="0" width="1.58" height="142.54"/><rect class="cls-1" x="529.16" y="67.19" width="13.19" height="32.48" rx="4.94" ry="4.94"/><rect class="cls-1" x="534.96" y="0" width="1.58" height="142.54"/><rect class="cls-1" x="510.91" y="50.46" width="13.19" height="33.47" rx="4.94" ry="4.94"/><rect class="cls-1" x="516.72" y="0" width="1.58" height="142.54"/><rect class="cls-1" x="492.67" y="45.4" width="13.19" height="32.31" rx="4.94" ry="4.94"/><rect class="cls-1" x="498.47" y="0" width="1.58" height="142.54"/><rect class="cls-1" x="474.42" y="59.83" width="13.19" height="30.99" rx="4.94" ry="4.94"/><rect class="cls-1" x="480.22" y="0" width="1.58" height="142.54"/><rect class="cls-1" x="456.17" y="65.85" width="13.19" height="32.85" rx="4.94" ry="4.94"/><rect class="cls-1" x="461.97" y="0" width="1.58" height="142.54"/><rect class="cls-1" x="437.93" y="56.52" width="13.19" height="24.58" rx="4.94" ry="4.94"/><rect class="cls-1" x="443.73" y="0" width="1.58" height="142.54"/><rect class="cls-1" x="547.41" y="88.25" width="13.19" height="14.58" rx="4.94" ry="4.94"/><rect class="cls-1" x="553.21" y="0" width="1.58" height="142.54"/><rect class="cls-1" x="565.65" y="94.31" width="13.19" height="24.79" rx="4.94" ry="4.94"/><rect class="cls-1" x="571.46" y="0" width="1.58" height="142.54"/><rect class="cls-1" x="583.9" y="98.7" width="13.19" height="30.49" rx="4.94" ry="4.94"/><rect class="cls-1" x="589.7" y="0" width="1.58" height="142.54"/><rect class="cls-1" x="602.15" y="93.52" width="13.19" height="24.62" rx="4.94" ry="4.94"/><rect class="cls-1" x="607.95" y="0" width="1.58" height="142.54"/><rect class="cls-1" x="620.39" y="72.55" width="13.19" height="21.77" rx="4.94" ry="4.94"/><rect class="cls-1" x="1769.94" y="59.78" width="13.19" height="19.93" rx="4.94" ry="4.94"/><rect class="cls-1" x="1775.75" y="0" width="1.58" height="142.54"/><rect class="cls-1" x="1751.7" y="67.19" width="13.19" height="33.47" rx="4.94" ry="4.94"/><rect class="cls-1" x="1757.5" y="0" width="1.58" height="142.54"/><rect class="cls-1" x="1788.19" y="72.42" width="13.19" height="14.58" rx="4.94" ry="4.94"/><rect class="cls-1" x="1793.99" y="0" width="1.58" height="142.54"/><rect class="cls-1" x="1806.44" y="78.42" width="13.19" height="24.79" rx="4.94" ry="4.94"/><rect class="cls-1" x="1812.24" y="0" width="1.58" height="142.54"/><rect class="cls-1" x="1824.68" y="90.58" width="13.19" height="30.49" rx="4.94" ry="4.94"/><rect class="cls-1" x="1830.49" y="0" width="1.58" height="142.54"/><rect class="cls-1" x="1842.93" y="99.05" width="13.19" height="24.62" rx="4.94" ry="4.94"/><rect class="cls-1" x="1848.73" y="0" width="1.58" height="142.54"/><rect class="cls-1" x="1861.18" y="83" width="13.19" height="29.27" rx="4.94" ry="4.94"/><rect class="cls-1" x="1866.98" y="0" width="1.58" height="142.54"/><rect class="cls-1" x="1879.42" y="78.42" width="13.19" height="16.52" rx="4.94" ry="4.94"/><rect class="cls-1" x="1885.23" y="0" width="1.58" height="142.54"/><rect class="cls-1" x="1897.67" y="54.5" width="13.19" height="30.49" rx="4.94" ry="4.94"/><rect class="cls-1" x="1903.47" y="0" width="1.58" height="142.54"/><rect class="cls-1" x="626.2" y="0" width="1.58" height="142.54"/><rect class="cls-1" x="638.64" y="46.78" width="13.19" height="40.83" rx="4.94" ry="4.94"/><rect class="cls-1" x="644.44" y="0" width="1.58" height="142.54"/><rect class="cls-1" x="656.89" y="38.7" width="13.19" height="28.66" rx="4.94" ry="4.94"/><rect class="cls-1" x="662.69" y="0" width="1.58" height="142.54"/><rect class="cls-1" x="675.14" y="44.06" width="13.19" height="34.75" rx="4.94" ry="4.94"/><rect class="cls-1" x="680.94" y="0" width="1.58" height="142.54"/><rect class="cls-1" x="692.47" y="35.14" width="13.19" height="38.57" rx="4.94" ry="4.94"/><rect class="cls-1" x="699.18" y="0" width="1.58" height="142.54"/><rect class="cls-1" x="711.63" y="32.36" width="13.19" height="46.09" rx="4.94" ry="4.94"/><rect class="cls-1" x="717.43" y="0" width="1.58" height="142.54"/><rect class="cls-1" x="729.88" y="58.53" width="13.19" height="48.33" rx="4.94" ry="4.94"/><rect class="cls-1" x="735.68" y="0" width="1.58" height="142.54"/><rect class="cls-1" x="748.12" y="82.7" width="13.19" height="24.17" rx="4.94" ry="4.94"/><rect class="cls-1" x="753.93" y="0" width="1.58" height="142.54"/><rect class="cls-1" x="766.37" y="89.33" width="13.19" height="21.68" rx="4.94" ry="4.94"/><rect class="cls-1" x="772.17" y="0" width="1.58" height="142.54"/><rect class="cls-1" x="784.62" y="81.12" width="13.19" height="24.79" rx="4.94" ry="4.94"/><rect class="cls-1" x="790.42" y="0" width="1.58" height="142.54"/><rect class="cls-1" x="802.86" y="66.85" width="13.19" height="34.6" rx="4.94" ry="4.94"/><rect class="cls-1" x="808.67" y="0" width="1.58" height="142.54"/><rect class="cls-1" x="821.11" y="97.36" width="13.19" height="18.18" rx="4.94" ry="4.94"/><rect class="cls-1" x="826.91" y="0" width="1.58" height="142.54"/><rect class="cls-1" x="839.36" y="75.63" width="13.19" height="26.97" rx="4.94" ry="4.94"/><rect class="cls-1" x="845.16" y="0" width="1.58" height="142.54"/><rect class="cls-1" x="857.6" y="52.93" width="13.19" height="45.42" rx="4.94" ry="4.94"/><rect class="cls-1" x="863.41" y="0" width="1.58" height="142.54"/><rect class="cls-1" x="1733.45" y="83.91" width="13.19" height="27.44" rx="4.94" ry="4.94"/><rect class="cls-1" x="1739.25" y="0" width="1.58" height="142.54"/><rect class="cls-1" x="1715.2" y="68.11" width="13.19" height="31.62" rx="4.94" ry="4.94"/><rect class="cls-1" x="1721" y="0" width="1.58" height="142.54"/><rect class="cls-1" x="1696.96" y="53.21" width="13.19" height="37.61" rx="4.94" ry="4.94"/><rect class="cls-1" x="1702.76" y="0" width="1.58" height="142.54"/><rect class="cls-1" x="1678.71" y="82.75" width="13.19" height="33.93" rx="4.94" ry="4.94"/><rect class="cls-1" x="1684.51" y="0" width="1.58" height="142.54"/><rect class="cls-1" x="1660.46" y="35.68" width="13.19" height="68.13" rx="4.94" ry="4.94"/><rect class="cls-1" x="1666.26" y="0" width="1.58" height="142.54"/><rect class="cls-1" x="1642.21" y="52.36" width="13.19" height="34.76" rx="4.94" ry="4.94"/><rect class="cls-1" x="1648.02" y="0" width="1.58" height="142.54"/><rect class="cls-1" x="1623.97" y="45.4" width="13.19" height="21.68" rx="4.94" ry="4.94"/><rect class="cls-1" x="1629.77" y="0" width="1.58" height="142.54"/><rect class="cls-1" x="1605.72" y="53.21" width="13.19" height="24.79" rx="4.94" ry="4.94"/><rect class="cls-1" x="1611.52" y="0" width="1.58" height="142.54"/><rect class="cls-1" x="1587.47" y="59.43" width="13.19" height="34.6" rx="4.94" ry="4.94"/><rect class="cls-1" x="1593.28" y="0" width="1.58" height="142.54"/><rect class="cls-1" x="1569.23" y="55.15" width="13.19" height="24.62" rx="4.94" ry="4.94"/><rect class="cls-1" x="1575.03" y="0" width="1.58" height="142.54"/><rect class="cls-1" x="1550.98" y="69.26" width="13.19" height="31.33" rx="4.94" ry="4.94"/><rect class="cls-1" x="1556.78" y="0" width="1.58" height="142.54"/><rect class="cls-1" x="1532.73" y="57.91" width="13.19" height="22.71" rx="4.94" ry="4.94"/><rect class="cls-1" x="1538.54" y="0" width="1.58" height="142.54"/><rect class="cls-1" x="1514.49" y="48" width="13.19" height="19.46" rx="4.94" ry="4.94"/><rect class="cls-1" x="1520.29" y="0" width="1.58" height="142.54"/><rect class="cls-1" x="1496.24" y="27.58" width="13.19" height="34.75" rx="4.94" ry="4.94"/><rect class="cls-1" x="1502.04" y="0" width="1.58" height="142.54"/><rect class="cls-1" x="1477.99" y="44.95" width="13.19" height="38.57" rx="4.94" ry="4.94"/><rect class="cls-1" x="1483.79" y="0" width="1.58" height="142.54"/><rect class="cls-1" x="1459.75" y="41.27" width="13.19" height="27.99" rx="4.94" ry="4.94"/><rect class="cls-1" x="1465.55" y="0" width="1.58" height="142.54"/><rect class="cls-1" x="1441.5" y="23.42" width="13.19" height="35.59" rx="4.94" ry="4.94"/><rect class="cls-1" x="1447.3" y="0" width="1.58" height="142.54"/><rect class="cls-1" x="1332.02" y="79.84" width="13.19" height="27.02" rx="4.94" ry="4.94"/><rect class="cls-1" x="1337.82" y="0" width="1.58" height="142.54"/><rect class="cls-1" x="1350.26" y="67.25" width="13.19" height="21.68" rx="4.94" ry="4.94"/><rect class="cls-1" x="1356.07" y="0" width="1.58" height="142.54"/><rect class="cls-1" x="1368.51" y="44.95" width="13.19" height="24.79" rx="4.94" ry="4.94"/><rect class="cls-1" x="1374.31" y="0" width="1.58" height="142.54"/><rect class="cls-1" x="1386.76" y="20.67" width="13.19" height="34.6" rx="4.94" ry="4.94"/><rect class="cls-1" x="1392.56" y="0" width="1.58" height="142.54"/><rect class="cls-1" x="1405.24" y="6.96" width="13.19" height="24.62" rx="4.94" ry="4.94"/><rect class="cls-1" x="1410.81" y="0" width="1.58" height="142.54"/><rect class="cls-1" x="1423.25" y="15.91" width="13.19" height="17.91" rx="4.94" ry="4.94"/><rect class="cls-1" x="1429.05" y="0" width="1.58" height="142.54"/><rect class="cls-1" x="1313.77" y="51.72" width="13.19" height="45.42" rx="4.94" ry="4.94"/><rect class="cls-1" x="1319.57" y="0" width="1.58" height="142.54"/><rect class="cls-1" x="1204.29" y="54.29" width="13.19" height="21.06" rx="4.94" ry="4.94"/><rect class="cls-1" x="1210.09" y="0" width="1.58" height="142.54"/><rect class="cls-1" x="1222.54" y="58.61" width="13.19" height="33.47" rx="4.94" ry="4.94"/><rect class="cls-1" x="1228.34" y="0" width="1.58" height="142.54"/><rect class="cls-1" x="1240.78" y="51.72" width="13.19" height="24.96" rx="4.94" ry="4.94"/><rect class="cls-1" x="1246.59" y="0" width="1.58" height="142.54"/><rect class="cls-1" x="1259.03" y="44.77" width="13.19" height="21.11" rx="4.94" ry="4.94"/><rect class="cls-1" x="1264.83" y="0" width="1.58" height="142.54"/><rect class="cls-1" x="1277.28" y="41.02" width="13.19" height="26.54" rx="4.94" ry="4.94"/><rect class="cls-1" x="1283.08" y="0" width="1.58" height="142.54"/><rect class="cls-1" x="1295.52" y="55.27" width="13.19" height="24.58" rx="4.94" ry="4.94"/><rect class="cls-1" x="1301.33" y="0" width="1.58" height="142.54"/><rect class="cls-1" x="1186.04" y="47" width="13.19" height="14.58" rx="4.94" ry="4.94"/><rect class="cls-1" x="1191.84" y="0" width="1.58" height="142.54"/><rect class="cls-1" x="1167.8" y="32.91" width="13.19" height="24.79" rx="4.94" ry="4.94"/><rect class="cls-1" x="1173.6" y="0" width="1.58" height="142.54"/><rect class="cls-1" x="1149.55" y="26.32" width="13.19" height="24.77" rx="4.94" ry="4.94"/><rect class="cls-1" x="1155.35" y="0" width="1.58" height="142.54"/><rect class="cls-1" x="1131.3" y="32.99" width="13.19" height="24.62" rx="4.94" ry="4.94"/><rect class="cls-1" x="1137.1" y="0" width="1.58" height="142.54"/><rect class="cls-1" x="1113.05" y="48.22" width="13.19" height="21.77" rx="4.94" ry="4.94"/><rect class="cls-1" x="1118.86" y="0" width="1.58" height="142.54"/><rect class="cls-1" x="1094.81" y="32.99" width="13.19" height="31.95" rx="4.94" ry="4.94"/><rect class="cls-1" x="1100.61" y="0" width="1.58" height="142.54"/><rect class="cls-1" x="1076.56" y="38.04" width="13.19" height="41.53" rx="4.94" ry="4.94"/><rect class="cls-1" x="1082.36" y="0" width="1.58" height="142.54"/><rect class="cls-1" x="1058.31" y="55.16" width="13.19" height="27.35" rx="4.94" ry="4.94"/><rect class="cls-1" x="1064.12" y="0" width="1.58" height="142.54"/><rect class="cls-1" x="1040.07" y="68.83" width="13.19" height="28.24" rx="4.94" ry="4.94"/><rect class="cls-1" x="1045.87" y="0" width="1.58" height="142.54"/><rect class="cls-1" x="1021.82" y="68.83" width="13.19" height="36.37" rx="4.94" ry="4.94"/><rect class="cls-1" x="1027.62" y="0" width="1.58" height="142.54"/><rect class="cls-1" x="1003.57" y="63.3" width="13.19" height="35.57" rx="4.94" ry="4.94"/><rect class="cls-1" x="1009.38" y="0" width="1.58" height="142.54"/><rect class="cls-1" x="985.33" y="54.14" width="13.19" height="24.17" rx="4.94" ry="4.94"/><rect class="cls-1" x="991.13" y="0" width="1.58" height="142.54"/><rect class="cls-1" x="967.08" y="47.27" width="13.19" height="21.68" rx="4.94" ry="4.94"/><rect class="cls-1" x="972.88" y="0" width="1.58" height="142.54"/><rect class="cls-1" x="948.83" y="34" width="13.19" height="24.79" rx="4.94" ry="4.94"/><rect class="cls-1" x="954.63" y="0" width="1.58" height="142.54"/><rect class="cls-1" x="930.59" y="24.6" width="13.19" height="34.6" rx="4.94" ry="4.94"/><rect class="cls-1" x="936.39" y="0" width="1.58" height="142.54"/><rect class="cls-1" x="912.34" y="39.93" width="13.19" height="18.18" rx="4.94" ry="4.94"/><rect class="cls-1" x="918.14" y="0" width="1.58" height="142.54"/><rect class="cls-1" x="894.09" y="49.81" width="13.19" height="26.97" rx="4.94" ry="4.94"/><rect class="cls-1" x="899.89" y="0" width="1.58" height="142.54"/><rect class="cls-1" x="875.84" y="44.2" width="13.19" height="30" rx="4.94" ry="4.94"/><rect class="cls-1" x="881.65" y="0" width="1.58" height="142.54"/></g><rect class="cls-1" x="3831.83" y="61.44" width="13.19" height="45.42" rx="4.94" ry="4.94"/><rect class="cls-1" x="3837.64" y="0" width="1.58" height="142.54"/><rect class="cls-1" x="3850.08" y="51.72" width="13.19" height="45.42" rx="4.94" ry="4.94"/><rect class="cls-1" x="3855.88" y="0" width="1.58" height="142.54"/><rect class="cls-1" x="3868.33" y="34.23" width="13.19" height="55.88" rx="4.94" ry="4.94"/><rect class="cls-1" x="3874.13" y="0" width="1.58" height="142.54"/><rect class="cls-1" x="3886.57" y="25.85" width="13.19" height="52.59" rx="4.94" ry="4.94"/><rect class="cls-1" x="3892.38" y="0" width="1.58" height="142.54"/><rect class="cls-1" x="3904.82" y="38.73" width="13.19" height="68.13" rx="4.94" ry="4.94"/><rect class="cls-1" x="3910.62" y="0" width="1.58" height="142.54"/><rect class="cls-1" x="3923.07" y="61.44" width="13.19" height="45.42" rx="4.94" ry="4.94"/><rect class="cls-1" x="3928.87" y="0" width="1.58" height="142.54"/><rect class="cls-1" x="3941.32" y="89.33" width="13.19" height="21.68" rx="4.94" ry="4.94"/><rect class="cls-1" x="3947.12" y="0" width="1.58" height="142.54"/><rect class="cls-1" x="3959.56" y="80.13" width="13.19" height="24.79" rx="4.94" ry="4.94"/><rect class="cls-1" x="3965.36" y="0" width="1.58" height="142.54"/><rect class="cls-1" x="3977.81" y="62.77" width="13.19" height="34.6" rx="4.94" ry="4.94"/><rect class="cls-1" x="3983.61" y="0" width="1.58" height="142.54"/><rect class="cls-1" x="3996.06" y="50.46" width="13.19" height="24.62" rx="4.94" ry="4.94"/><rect class="cls-1" x="4001.86" y="0" width="1.58" height="142.54"/><rect class="cls-1" x="4014.3" y="25.38" width="13.19" height="31.33" rx="4.94" ry="4.94"/><rect class="cls-1" x="4020.11" y="0" width="1.58" height="142.54"/><g><rect class="cls-1" x="1915.92" y="61.44" width="13.19" height="45.42" rx="4.94" ry="4.94"/><rect class="cls-1" x="1921.72" y="0" width="1.58" height="142.54"/><rect class="cls-1" x="1934.17" y="51.72" width="13.19" height="45.42" rx="4.94" ry="4.94"/><rect class="cls-1" x="1939.97" y="0" width="1.58" height="142.54"/><rect class="cls-1" x="1952.42" y="34.23" width="13.19" height="55.88" rx="4.94" ry="4.94"/><rect class="cls-1" x="1958.22" y="0" width="1.58" height="142.54"/><rect class="cls-1" x="1970.66" y="25.85" width="13.19" height="52.59" rx="4.94" ry="4.94"/><rect class="cls-1" x="1976.47" y="0" width="1.58" height="142.54"/><rect class="cls-1" x="1988.91" y="38.73" width="13.19" height="68.13" rx="4.94" ry="4.94"/><rect class="cls-1" x="1994.71" y="0" width="1.58" height="142.54"/><rect class="cls-1" x="2007.16" y="61.44" width="13.19" height="45.42" rx="4.94" ry="4.94"/><rect class="cls-1" x="2012.96" y="0" width="1.58" height="142.54"/><rect class="cls-1" x="2025.4" y="89.33" width="13.19" height="21.68" rx="4.94" ry="4.94"/><rect class="cls-1" x="2031.21" y="0" width="1.58" height="142.54"/><rect class="cls-1" x="2043.65" y="80.13" width="13.19" height="24.79" rx="4.94" ry="4.94"/><rect class="cls-1" x="2049.45" y="0" width="1.58" height="142.54"/><rect class="cls-1" x="2061.9" y="62.77" width="13.19" height="34.6" rx="4.94" ry="4.94"/><rect class="cls-1" x="2067.7" y="0" width="1.58" height="142.54"/><rect class="cls-1" x="2080.14" y="50.46" width="13.19" height="24.62" rx="4.94" ry="4.94"/><rect class="cls-1" x="2085.95" y="0" width="1.58" height="142.54"/><rect class="cls-1" x="2098.39" y="25.38" width="13.19" height="31.33" rx="4.94" ry="4.94"/><rect class="cls-1" x="2104.19" y="0" width="1.58" height="142.54"/><rect class="cls-1" x="2116.64" y="35.06" width="13.19" height="22.71" rx="4.94" ry="4.94"/><rect class="cls-1" x="2122.44" y="0" width="1.58" height="142.54"/><rect class="cls-1" x="2134.89" y="47.84" width="13.19" height="28.66" rx="4.94" ry="4.94"/><rect class="cls-1" x="2140.69" y="0" width="1.58" height="142.54"/><rect class="cls-1" x="2153.13" y="46.41" width="13.19" height="34.75" rx="4.94" ry="4.94"/><rect class="cls-1" x="2158.93" y="0" width="1.58" height="142.54"/><rect class="cls-1" x="2171.38" y="34.23" width="13.19" height="38.57" rx="4.94" ry="4.94"/><rect class="cls-1" x="2177.18" y="0" width="1.58" height="142.54"/><rect class="cls-1" x="2189.63" y="50.46" width="13.19" height="27.99" rx="4.94" ry="4.94"/><rect class="cls-1" x="2195.43" y="0" width="1.58" height="142.54"/><rect class="cls-1" x="2207.87" y="57.28" width="13.19" height="35.59" rx="4.94" ry="4.94"/><rect class="cls-1" x="2213.68" y="0" width="1.58" height="142.54"/><rect class="cls-1" x="2317.35" y="35.68" width="13.19" height="45.42" rx="4.94" ry="4.94"/><rect class="cls-1" x="2323.16" y="0" width="1.58" height="142.54"/><rect class="cls-1" x="2299.11" y="31.53" width="13.19" height="21.68" rx="4.94" ry="4.94"/><rect class="cls-1" x="2304.91" y="0" width="1.58" height="142.54"/><rect class="cls-1" x="2280.86" y="37.62" width="13.19" height="24.79" rx="4.94" ry="4.94"/><rect class="cls-1" x="2286.66" y="0" width="1.58" height="142.54"/><rect class="cls-1" x="2262.61" y="45.18" width="13.19" height="34.6" rx="4.94" ry="4.94"/><rect class="cls-1" x="2268.42" y="0" width="1.58" height="142.54"/><rect class="cls-1" x="2244.37" y="67.46" width="13.19" height="24.62" rx="4.94" ry="4.94"/><rect class="cls-1" x="2250.17" y="0" width="1.58" height="142.54"/><rect class="cls-1" x="2226.12" y="64.46" width="13.19" height="31.33" rx="4.94" ry="4.94"/><rect class="cls-1" x="2231.92" y="0" width="1.58" height="142.54"/><rect class="cls-1" x="2335.6" y="40.06" width="13.19" height="45.42" rx="4.94" ry="4.94"/><rect class="cls-1" x="2341.4" y="0" width="1.58" height="142.54"/><rect class="cls-1" x="2445.08" y="67.19" width="13.19" height="32.48" rx="4.94" ry="4.94"/><rect class="cls-1" x="2450.88" y="0" width="1.58" height="142.54"/><rect class="cls-1" x="2426.84" y="50.46" width="13.19" height="33.47" rx="4.94" ry="4.94"/><rect class="cls-1" x="2432.64" y="0" width="1.58" height="142.54"/><rect class="cls-1" x="2408.59" y="45.4" width="13.19" height="32.31" rx="4.94" ry="4.94"/><rect class="cls-1" x="2414.39" y="0" width="1.58" height="142.54"/><rect class="cls-1" x="2390.34" y="59.83" width="13.19" height="30.99" rx="4.94" ry="4.94"/><rect class="cls-1" x="2396.14" y="0" width="1.58" height="142.54"/><rect class="cls-1" x="2372.09" y="65.85" width="13.19" height="32.85" rx="4.94" ry="4.94"/><rect class="cls-1" x="2377.9" y="0" width="1.58" height="142.54"/><rect class="cls-1" x="2353.85" y="56.52" width="13.19" height="24.58" rx="4.94" ry="4.94"/><rect class="cls-1" x="2359.65" y="0" width="1.58" height="142.54"/><rect class="cls-1" x="2463.33" y="88.25" width="13.19" height="14.58" rx="4.94" ry="4.94"/><rect class="cls-1" x="2469.13" y="0" width="1.58" height="142.54"/><rect class="cls-1" x="2481.58" y="94.31" width="13.19" height="24.79" rx="4.94" ry="4.94"/><rect class="cls-1" x="2487.38" y="0" width="1.58" height="142.54"/><rect class="cls-1" x="2499.82" y="98.7" width="13.19" height="30.49" rx="4.94" ry="4.94"/><rect class="cls-1" x="2505.63" y="0" width="1.58" height="142.54"/><rect class="cls-1" x="2518.07" y="93.52" width="13.19" height="24.62" rx="4.94" ry="4.94"/><rect class="cls-1" x="2523.87" y="0" width="1.58" height="142.54"/><rect class="cls-1" x="2536.32" y="72.55" width="13.19" height="21.77" rx="4.94" ry="4.94"/><rect class="cls-1" x="3685.87" y="59.78" width="13.19" height="19.93" rx="4.94" ry="4.94"/><rect class="cls-1" x="3691.67" y="0" width="1.58" height="142.54"/><rect class="cls-1" x="3667.62" y="67.19" width="13.19" height="33.47" rx="4.94" ry="4.94"/><rect class="cls-1" x="3673.42" y="0" width="1.58" height="142.54"/><rect class="cls-1" x="3704.11" y="72.42" width="13.19" height="14.58" rx="4.94" ry="4.94"/><rect class="cls-1" x="3709.91" y="0" width="1.58" height="142.54"/><rect class="cls-1" x="3722.36" y="78.42" width="13.19" height="24.79" rx="4.94" ry="4.94"/><rect class="cls-1" x="3728.16" y="0" width="1.58" height="142.54"/><rect class="cls-1" x="3740.61" y="90.58" width="13.19" height="30.49" rx="4.94" ry="4.94"/><rect class="cls-1" x="3746.41" y="0" width="1.58" height="142.54"/><rect class="cls-1" x="3758.85" y="99.05" width="13.19" height="24.62" rx="4.94" ry="4.94"/><rect class="cls-1" x="3764.66" y="0" width="1.58" height="142.54"/><rect class="cls-1" x="3777.1" y="83" width="13.19" height="29.27" rx="4.94" ry="4.94"/><rect class="cls-1" x="3782.9" y="0" width="1.58" height="142.54"/><rect class="cls-1" x="3795.35" y="78.42" width="13.19" height="16.52" rx="4.94" ry="4.94"/><rect class="cls-1" x="3801.15" y="0" width="1.58" height="142.54"/><rect class="cls-1" x="3813.59" y="54.5" width="13.19" height="30.49" rx="4.94" ry="4.94"/><rect class="cls-1" x="3819.4" y="0" width="1.58" height="142.54"/><rect class="cls-1" x="2542.12" y="0" width="1.58" height="142.54"/><rect class="cls-1" x="2554.56" y="46.78" width="13.19" height="40.83" rx="4.94" ry="4.94"/><rect class="cls-1" x="2560.37" y="0" width="1.58" height="142.54"/><rect class="cls-1" x="2572.81" y="38.7" width="13.19" height="28.66" rx="4.94" ry="4.94"/><rect class="cls-1" x="2578.61" y="0" width="1.58" height="142.54"/><rect class="cls-1" x="2591.06" y="44.06" width="13.19" height="34.75" rx="4.94" ry="4.94"/><rect class="cls-1" x="2596.86" y="0" width="1.58" height="142.54"/><rect class="cls-1" x="2608.39" y="35.14" width="13.19" height="38.57" rx="4.94" ry="4.94"/><rect class="cls-1" x="2615.11" y="0" width="1.58" height="142.54"/><rect class="cls-1" x="2627.55" y="32.36" width="13.19" height="46.09" rx="4.94" ry="4.94"/><rect class="cls-1" x="2633.35" y="0" width="1.58" height="142.54"/><rect class="cls-1" x="2645.8" y="58.53" width="13.19" height="48.33" rx="4.94" ry="4.94"/><rect class="cls-1" x="2651.6" y="0" width="1.58" height="142.54"/><rect class="cls-1" x="2664.05" y="82.7" width="13.19" height="24.17" rx="4.94" ry="4.94"/><rect class="cls-1" x="2669.85" y="0" width="1.58" height="142.54"/><rect class="cls-1" x="2682.29" y="89.33" width="13.19" height="21.68" rx="4.94" ry="4.94"/><rect class="cls-1" x="2688.09" y="0" width="1.58" height="142.54"/><rect class="cls-1" x="2700.54" y="81.12" width="13.19" height="24.79" rx="4.94" ry="4.94"/><rect class="cls-1" x="2706.34" y="0" width="1.58" height="142.54"/><rect class="cls-1" x="2718.79" y="66.85" width="13.19" height="34.6" rx="4.94" ry="4.94"/><rect class="cls-1" x="2724.59" y="0" width="1.58" height="142.54"/><rect class="cls-1" x="2737.03" y="97.36" width="13.19" height="18.18" rx="4.94" ry="4.94"/><rect class="cls-1" x="2742.84" y="0" width="1.58" height="142.54"/><rect class="cls-1" x="2755.28" y="75.63" width="13.19" height="26.97" rx="4.94" ry="4.94"/><rect class="cls-1" x="2761.08" y="0" width="1.58" height="142.54"/><rect class="cls-1" x="2773.53" y="52.93" width="13.19" height="45.42" rx="4.94" ry="4.94"/><rect class="cls-1" x="2779.33" y="0" width="1.58" height="142.54"/><rect class="cls-1" x="3649.37" y="83.91" width="13.19" height="27.44" rx="4.94" ry="4.94"/><rect class="cls-1" x="3655.17" y="0" width="1.58" height="142.54"/><rect class="cls-1" x="3631.12" y="68.11" width="13.19" height="31.62" rx="4.94" ry="4.94"/><rect class="cls-1" x="3636.93" y="0" width="1.58" height="142.54"/><rect class="cls-1" x="3612.88" y="53.21" width="13.19" height="37.61" rx="4.94" ry="4.94"/><rect class="cls-1" x="3618.68" y="0" width="1.58" height="142.54"/><rect class="cls-1" x="3594.63" y="82.75" width="13.19" height="33.93" rx="4.94" ry="4.94"/><rect class="cls-1" x="3600.43" y="0" width="1.58" height="142.54"/><rect class="cls-1" x="3576.38" y="35.68" width="13.19" height="68.13" rx="4.94" ry="4.94"/><rect class="cls-1" x="3582.19" y="0" width="1.58" height="142.54"/><rect class="cls-1" x="3558.14" y="52.36" width="13.19" height="34.76" rx="4.94" ry="4.94"/><rect class="cls-1" x="3563.94" y="0" width="1.58" height="142.54"/><rect class="cls-1" x="3539.89" y="45.4" width="13.19" height="21.68" rx="4.94" ry="4.94"/><rect class="cls-1" x="3545.69" y="0" width="1.58" height="142.54"/><rect class="cls-1" x="3521.64" y="53.21" width="13.19" height="24.79" rx="4.94" ry="4.94"/><rect class="cls-1" x="3527.45" y="0" width="1.58" height="142.54"/><rect class="cls-1" x="3503.4" y="59.43" width="13.19" height="34.6" rx="4.94" ry="4.94"/><rect class="cls-1" x="3509.2" y="0" width="1.58" height="142.54"/><rect class="cls-1" x="3485.15" y="55.15" width="13.19" height="24.62" rx="4.94" ry="4.94"/><rect class="cls-1" x="3490.95" y="0" width="1.58" height="142.54"/><rect class="cls-1" x="3466.9" y="69.26" width="13.19" height="31.33" rx="4.94" ry="4.94"/><rect class="cls-1" x="3472.7" y="0" width="1.58" height="142.54"/><rect class="cls-1" x="3448.66" y="57.91" width="13.19" height="22.71" rx="4.94" ry="4.94"/><rect class="cls-1" x="3454.46" y="0" width="1.58" height="142.54"/><rect class="cls-1" x="3430.41" y="48" width="13.19" height="19.46" rx="4.94" ry="4.94"/><rect class="cls-1" x="3436.21" y="0" width="1.58" height="142.54"/><rect class="cls-1" x="3412.16" y="27.58" width="13.19" height="34.75" rx="4.94" ry="4.94"/><rect class="cls-1" x="3417.96" y="0" width="1.58" height="142.54"/><rect class="cls-1" x="3393.91" y="44.95" width="13.19" height="38.57" rx="4.94" ry="4.94"/><rect class="cls-1" x="3399.72" y="0" width="1.58" height="142.54"/><rect class="cls-1" x="3375.67" y="41.27" width="13.19" height="27.99" rx="4.94" ry="4.94"/><rect class="cls-1" x="3381.47" y="0" width="1.58" height="142.54"/><rect class="cls-1" x="3357.42" y="23.42" width="13.19" height="35.59" rx="4.94" ry="4.94"/><rect class="cls-1" x="3363.22" y="0" width="1.58" height="142.54"/><rect class="cls-1" x="3247.94" y="79.84" width="13.19" height="27.02" rx="4.94" ry="4.94"/><rect class="cls-1" x="3253.74" y="0" width="1.58" height="142.54"/><rect class="cls-1" x="3266.19" y="67.25" width="13.19" height="21.68" rx="4.94" ry="4.94"/><rect class="cls-1" x="3271.99" y="0" width="1.58" height="142.54"/><rect class="cls-1" x="3284.43" y="44.95" width="13.19" height="24.79" rx="4.94" ry="4.94"/><rect class="cls-1" x="3290.24" y="0" width="1.58" height="142.54"/><rect class="cls-1" x="3302.68" y="20.67" width="13.19" height="34.6" rx="4.94" ry="4.94"/><rect class="cls-1" x="3308.48" y="0" width="1.58" height="142.54"/><rect class="cls-1" x="3321.16" y="6.96" width="13.19" height="24.62" rx="4.94" ry="4.94"/><rect class="cls-1" x="3326.73" y="0" width="1.58" height="142.54"/><rect class="cls-1" x="3339.17" y="15.91" width="13.19" height="17.91" rx="4.94" ry="4.94"/><rect class="cls-1" x="3344.98" y="0" width="1.58" height="142.54"/><rect class="cls-1" x="3229.69" y="51.72" width="13.19" height="45.42" rx="4.94" ry="4.94"/><rect class="cls-1" x="3235.5" y="0" width="1.58" height="142.54"/><rect class="cls-1" x="3120.21" y="54.29" width="13.19" height="21.06" rx="4.94" ry="4.94"/><rect class="cls-1" x="3126.01" y="0" width="1.58" height="142.54"/><rect class="cls-1" x="3138.46" y="58.61" width="13.19" height="33.47" rx="4.94" ry="4.94"/><rect class="cls-1" x="3144.26" y="0" width="1.58" height="142.54"/><rect class="cls-1" x="3156.71" y="51.72" width="13.19" height="24.96" rx="4.94" ry="4.94"/><rect class="cls-1" x="3162.51" y="0" width="1.58" height="142.54"/><rect class="cls-1" x="3174.95" y="44.77" width="13.19" height="21.11" rx="4.94" ry="4.94"/><rect class="cls-1" x="3180.75" y="0" width="1.58" height="142.54"/><rect class="cls-1" x="3193.2" y="41.02" width="13.19" height="26.54" rx="4.94" ry="4.94"/><rect class="cls-1" x="3199" y="0" width="1.58" height="142.54"/><rect class="cls-1" x="3211.45" y="55.27" width="13.19" height="24.58" rx="4.94" ry="4.94"/><rect class="cls-1" x="3217.25" y="0" width="1.58" height="142.54"/><rect class="cls-1" x="3101.96" y="47" width="13.19" height="14.58" rx="4.94" ry="4.94"/><rect class="cls-1" x="3107.77" y="0" width="1.58" height="142.54"/><rect class="cls-1" x="3083.72" y="32.91" width="13.19" height="24.79" rx="4.94" ry="4.94"/><rect class="cls-1" x="3089.52" y="0" width="1.58" height="142.54"/><rect class="cls-1" x="3065.47" y="26.32" width="13.19" height="24.77" rx="4.94" ry="4.94"/><rect class="cls-1" x="3071.27" y="0" width="1.58" height="142.54"/><rect class="cls-1" x="3047.22" y="32.99" width="13.19" height="24.62" rx="4.94" ry="4.94"/><rect class="cls-1" x="3053.03" y="0" width="1.58" height="142.54"/><rect class="cls-1" x="3028.98" y="48.22" width="13.19" height="21.77" rx="4.94" ry="4.94"/><rect class="cls-1" x="3034.78" y="0" width="1.58" height="142.54"/><rect class="cls-1" x="3010.73" y="32.99" width="13.19" height="31.95" rx="4.94" ry="4.94"/><rect class="cls-1" x="3016.53" y="0" width="1.58" height="142.54"/><rect class="cls-1" x="2992.48" y="38.04" width="13.19" height="41.53" rx="4.94" ry="4.94"/><rect class="cls-1" x="2998.29" y="0" width="1.58" height="142.54"/><rect class="cls-1" x="2974.24" y="55.16" width="13.19" height="27.35" rx="4.94" ry="4.94"/><rect class="cls-1" x="2980.04" y="0" width="1.58" height="142.54"/><rect class="cls-1" x="2955.99" y="68.83" width="13.19" height="28.24" rx="4.94" ry="4.94"/><rect class="cls-1" x="2961.79" y="0" width="1.58" height="142.54"/><rect class="cls-1" x="2937.74" y="68.83" width="13.19" height="36.37" rx="4.94" ry="4.94"/><rect class="cls-1" x="2943.54" y="0" width="1.58" height="142.54"/><rect class="cls-1" x="2919.5" y="63.3" width="13.19" height="35.57" rx="4.94" ry="4.94"/><rect class="cls-1" x="2925.3" y="0" width="1.58" height="142.54"/><rect class="cls-1" x="2901.25" y="54.14" width="13.19" height="24.17" rx="4.94" ry="4.94"/><rect class="cls-1" x="2907.05" y="0" width="1.58" height="142.54"/><rect class="cls-1" x="2883" y="47.27" width="13.19" height="21.68" rx="4.94" ry="4.94"/><rect class="cls-1" x="2888.8" y="0" width="1.58" height="142.54"/><rect class="cls-1" x="2864.75" y="34" width="13.19" height="24.79" rx="4.94" ry="4.94"/><rect class="cls-1" x="2870.56" y="0" width="1.58" height="142.54"/><rect class="cls-1" x="2846.51" y="24.6" width="13.19" height="34.6" rx="4.94" ry="4.94"/><rect class="cls-1" x="2852.31" y="0" width="1.58" height="142.54"/><rect class="cls-1" x="2828.26" y="39.93" width="13.19" height="18.18" rx="4.94" ry="4.94"/><rect class="cls-1" x="2834.06" y="0" width="1.58" height="142.54"/><rect class="cls-1" x="2810.01" y="49.81" width="13.19" height="26.97" rx="4.94" ry="4.94"/><rect class="cls-1" x="2815.82" y="0" width="1.58" height="142.54"/><rect class="cls-1" x="2791.77" y="44.2" width="13.19" height="30" rx="4.94" ry="4.94"/><rect class="cls-1" x="2797.57" y="0" width="1.58" height="142.54"/></g></svg>