<svg xmlns="http://www.w3.org/2000/svg" xmlns:xlink="http://www.w3.org/1999/xlink" width="733.083" height="645.326" viewBox="0 0 733.083 645.326">
  <defs>
    <clipPath id="clip-path">
      <path id="Path_6750" data-name="Path 6750" d="M327.146,29.185c93.08,18.335,140.6,123.764,290.5,217.561s116.9,460.1-119.835,400.354c-225.856-57-236.3-52.48-384.2-47.242C-71.556,606.47,32.563-28.846,327.146,29.185Z" transform="translate(-21.179 -25.438)" fill="none"/>
    </clipPath>
  </defs>
  <g id="Stock_Market_01_shares" transform="translate(-21.179 -21.42)">
    <g id="Layer_1" transform="translate(21.179 21.42)">
      <path id="Path_6742" data-name="Path 6742" d="M327.146,29.185c93.08,18.335,140.6,123.764,290.5,217.561s116.9,460.1-119.835,400.354c-225.856-57-236.3-52.48-384.2-47.242C-71.556,606.47,32.563-28.846,327.146,29.185Z" transform="translate(-21.179 -12.908)" fill="#e6ebf0"/>
      <g id="Group_2728" data-name="Group 2728" transform="translate(0 12.531)" clip-path="url(#clip-path)">
        <g id="Group_2724" data-name="Group 2724" transform="translate(-11.006 54.076)">
          <g id="Group_2718" data-name="Group 2718" transform="translate(111.509)">
            <path id="Path_6743" data-name="Path 6743" d="M102.772,182.51v-24.2h40.1V42.78h11.039V158.312H197.1v24.2h23.138V666.964H53.41V182.51Z" transform="translate(-53.41 -42.78)" fill="#c6d0db"/>
            <rect id="Rectangle_2606" data-name="Rectangle 2606" width="23.138" height="435.809" transform="translate(0 139.73)" fill="#aab6c2"/>
          </g>
          <g id="Group_2719" data-name="Group 2719" transform="translate(194.923 255.137)">
            <rect id="Rectangle_2607" data-name="Rectangle 2607" width="166.858" height="369.078" fill="#c6d0db"/>
            <rect id="Rectangle_2608" data-name="Rectangle 2608" width="23.138" height="369.078" fill="#aab6c2"/>
            <rect id="Rectangle_2609" data-name="Rectangle 2609" width="23.948" height="9.947" transform="translate(119.617 15.716)" fill="#aab6c2"/>
            <rect id="Rectangle_2610" data-name="Rectangle 2610" width="23.948" height="9.947" transform="translate(79.329 15.716)" fill="#aab6c2"/>
            <rect id="Rectangle_2611" data-name="Rectangle 2611" width="23.948" height="9.947" transform="translate(119.617 51.888)" fill="#aab6c2"/>
            <rect id="Rectangle_2612" data-name="Rectangle 2612" width="23.948" height="9.947" transform="translate(79.329 51.888)" fill="#aab6c2"/>
            <rect id="Rectangle_2613" data-name="Rectangle 2613" width="23.948" height="9.947" transform="translate(39.01 51.888)" fill="#aab6c2"/>
            <rect id="Rectangle_2614" data-name="Rectangle 2614" width="23.948" height="9.947" transform="translate(119.617 88.06)" fill="#aab6c2"/>
            <rect id="Rectangle_2615" data-name="Rectangle 2615" width="23.948" height="9.947" transform="translate(39.01 88.06)" fill="#aab6c2"/>
            <rect id="Rectangle_2616" data-name="Rectangle 2616" width="23.948" height="9.947" transform="translate(79.329 106.177)" fill="#aab6c2"/>
            <rect id="Rectangle_2617" data-name="Rectangle 2617" width="23.948" height="9.947" transform="translate(119.617 124.263)" fill="#aab6c2"/>
            <rect id="Rectangle_2618" data-name="Rectangle 2618" width="23.948" height="9.947" transform="translate(79.329 142.349)" fill="#aab6c2"/>
            <rect id="Rectangle_2619" data-name="Rectangle 2619" width="23.948" height="9.947" transform="translate(119.617 160.435)" fill="#aab6c2"/>
            <rect id="Rectangle_2620" data-name="Rectangle 2620" width="23.948" height="9.947" transform="translate(39.01 160.435)" fill="#aab6c2"/>
            <rect id="Rectangle_2621" data-name="Rectangle 2621" width="23.948" height="9.947" transform="translate(119.617 193.863)" fill="#aab6c2"/>
            <rect id="Rectangle_2622" data-name="Rectangle 2622" width="23.948" height="9.947" transform="translate(79.329 193.863)" fill="#aab6c2"/>
            <rect id="Rectangle_2623" data-name="Rectangle 2623" width="23.948" height="9.947" transform="translate(119.617 230.035)" fill="#aab6c2"/>
            <rect id="Rectangle_2624" data-name="Rectangle 2624" width="23.948" height="9.947" transform="translate(79.329 230.035)" fill="#aab6c2"/>
            <rect id="Rectangle_2625" data-name="Rectangle 2625" width="23.948" height="9.947" transform="translate(39.01 230.035)" fill="#aab6c2"/>
            <rect id="Rectangle_2626" data-name="Rectangle 2626" width="23.948" height="9.947" transform="translate(119.617 266.238)" fill="#aab6c2"/>
            <rect id="Rectangle_2627" data-name="Rectangle 2627" width="23.948" height="9.947" transform="translate(39.01 266.238)" fill="#aab6c2"/>
            <rect id="Rectangle_2628" data-name="Rectangle 2628" width="23.948" height="9.947" transform="translate(79.329 284.324)" fill="#aab6c2"/>
            <rect id="Rectangle_2629" data-name="Rectangle 2629" width="23.948" height="9.947" transform="translate(39.01 284.324)" fill="#aab6c2"/>
            <rect id="Rectangle_2630" data-name="Rectangle 2630" width="23.948" height="9.947" transform="translate(119.617 302.41)" fill="#aab6c2"/>
            <rect id="Rectangle_2631" data-name="Rectangle 2631" width="23.948" height="9.947" transform="translate(79.329 320.496)" fill="#aab6c2"/>
            <rect id="Rectangle_2632" data-name="Rectangle 2632" width="23.948" height="9.947" transform="translate(119.617 338.581)" fill="#aab6c2"/>
            <rect id="Rectangle_2633" data-name="Rectangle 2633" width="23.948" height="9.947" transform="translate(39.01 338.581)" fill="#aab6c2"/>
          </g>
          <g id="Group_2720" data-name="Group 2720" transform="translate(594.155 255.137)">
            <rect id="Rectangle_2634" data-name="Rectangle 2634" width="166.858" height="369.078" fill="#c6d0db"/>
            <rect id="Rectangle_2635" data-name="Rectangle 2635" width="23.138" height="369.078" fill="#aab6c2"/>
          </g>
          <g id="Group_2721" data-name="Group 2721" transform="translate(357.135 79.578)">
            <rect id="Rectangle_2636" data-name="Rectangle 2636" width="223.86" height="544.637" fill="#c6d0db"/>
            <rect id="Rectangle_2637" data-name="Rectangle 2637" width="23.138" height="544.637" fill="#aab6c2"/>
            <rect id="Rectangle_2638" data-name="Rectangle 2638" width="34.956" height="14.5" transform="translate(165.299 26.069)" fill="#aab6c2"/>
            <rect id="Rectangle_2639" data-name="Rectangle 2639" width="34.956" height="14.5" transform="translate(106.458 26.069)" fill="#aab6c2"/>
            <rect id="Rectangle_2640" data-name="Rectangle 2640" width="34.956" height="14.5" transform="translate(165.299 78.923)" fill="#aab6c2"/>
            <rect id="Rectangle_2641" data-name="Rectangle 2641" width="34.956" height="14.5" transform="translate(106.458 78.923)" fill="#aab6c2"/>
            <rect id="Rectangle_2642" data-name="Rectangle 2642" width="34.956" height="14.5" transform="translate(47.585 78.923)" fill="#aab6c2"/>
            <rect id="Rectangle_2643" data-name="Rectangle 2643" width="34.956" height="14.5" transform="translate(165.299 131.747)" fill="#aab6c2"/>
            <rect id="Rectangle_2644" data-name="Rectangle 2644" width="34.956" height="14.5" transform="translate(47.585 131.747)" fill="#aab6c2"/>
            <rect id="Rectangle_2645" data-name="Rectangle 2645" width="34.956" height="14.5" transform="translate(106.458 158.158)" fill="#aab6c2"/>
            <rect id="Rectangle_2646" data-name="Rectangle 2646" width="34.956" height="14.5" transform="translate(165.299 184.57)" fill="#aab6c2"/>
            <rect id="Rectangle_2647" data-name="Rectangle 2647" width="34.956" height="14.5" transform="translate(106.458 211.013)" fill="#aab6c2"/>
            <rect id="Rectangle_2648" data-name="Rectangle 2648" width="34.956" height="14.5" transform="translate(165.299 237.425)" fill="#aab6c2"/>
            <rect id="Rectangle_2649" data-name="Rectangle 2649" width="34.956" height="14.5" transform="translate(47.585 237.425)" fill="#aab6c2"/>
            <rect id="Rectangle_2650" data-name="Rectangle 2650" width="34.956" height="14.5" transform="translate(165.299 286.257)" fill="#aab6c2"/>
            <rect id="Rectangle_2651" data-name="Rectangle 2651" width="34.956" height="14.5" transform="translate(106.458 286.257)" fill="#aab6c2"/>
            <rect id="Rectangle_2652" data-name="Rectangle 2652" width="34.956" height="14.5" transform="translate(165.299 339.08)" fill="#aab6c2"/>
            <rect id="Rectangle_2653" data-name="Rectangle 2653" width="34.956" height="14.5" transform="translate(106.458 339.08)" fill="#aab6c2"/>
            <rect id="Rectangle_2654" data-name="Rectangle 2654" width="34.956" height="14.5" transform="translate(47.585 339.08)" fill="#aab6c2"/>
            <rect id="Rectangle_2655" data-name="Rectangle 2655" width="34.956" height="14.5" transform="translate(165.299 391.904)" fill="#aab6c2"/>
            <rect id="Rectangle_2656" data-name="Rectangle 2656" width="34.956" height="14.5" transform="translate(47.585 391.904)" fill="#aab6c2"/>
            <rect id="Rectangle_2657" data-name="Rectangle 2657" width="34.956" height="14.5" transform="translate(106.458 418.347)" fill="#aab6c2"/>
            <rect id="Rectangle_2658" data-name="Rectangle 2658" width="34.956" height="14.5" transform="translate(47.585 418.347)" fill="#aab6c2"/>
            <rect id="Rectangle_2659" data-name="Rectangle 2659" width="34.956" height="14.5" transform="translate(165.299 444.758)" fill="#aab6c2"/>
            <rect id="Rectangle_2660" data-name="Rectangle 2660" width="34.956" height="14.5" transform="translate(106.458 471.17)" fill="#aab6c2"/>
            <rect id="Rectangle_2661" data-name="Rectangle 2661" width="34.956" height="14.5" transform="translate(165.299 497.582)" fill="#aab6c2"/>
            <rect id="Rectangle_2662" data-name="Rectangle 2662" width="34.956" height="14.5" transform="translate(47.585 497.582)" fill="#aab6c2"/>
          </g>
          <g id="Group_2722" data-name="Group 2722" transform="translate(709.094 120.178)">
            <rect id="Rectangle_2663" data-name="Rectangle 2663" width="219.401" height="504.037" fill="#c6d0db"/>
            <rect id="Rectangle_2664" data-name="Rectangle 2664" width="22.67" height="504.037" fill="#aab6c2"/>
            <rect id="Rectangle_2665" data-name="Rectangle 2665" width="34.27" height="13.44" transform="translate(104.337 24.135)" fill="#aab6c2"/>
            <rect id="Rectangle_2666" data-name="Rectangle 2666" width="34.27" height="13.44" transform="translate(104.337 73.03)" fill="#aab6c2"/>
            <rect id="Rectangle_2667" data-name="Rectangle 2667" width="34.27" height="13.44" transform="translate(46.649 73.03)" fill="#aab6c2"/>
            <rect id="Rectangle_2668" data-name="Rectangle 2668" width="34.27" height="13.44" transform="translate(46.649 121.924)" fill="#aab6c2"/>
            <rect id="Rectangle_2669" data-name="Rectangle 2669" width="34.27" height="13.44" transform="translate(104.337 146.371)" fill="#aab6c2"/>
            <rect id="Rectangle_2670" data-name="Rectangle 2670" width="34.27" height="13.44" transform="translate(104.337 195.266)" fill="#aab6c2"/>
            <rect id="Rectangle_2671" data-name="Rectangle 2671" width="34.27" height="13.44" transform="translate(46.649 219.713)" fill="#aab6c2"/>
            <rect id="Rectangle_2672" data-name="Rectangle 2672" width="34.27" height="13.44" transform="translate(104.337 264.897)" fill="#aab6c2"/>
            <rect id="Rectangle_2673" data-name="Rectangle 2673" width="34.27" height="13.44" transform="translate(104.337 313.791)" fill="#aab6c2"/>
            <rect id="Rectangle_2674" data-name="Rectangle 2674" width="34.27" height="13.44" transform="translate(46.649 313.791)" fill="#aab6c2"/>
            <rect id="Rectangle_2675" data-name="Rectangle 2675" width="34.27" height="13.44" transform="translate(46.649 362.686)" fill="#aab6c2"/>
            <rect id="Rectangle_2676" data-name="Rectangle 2676" width="34.27" height="13.44" transform="translate(104.337 387.133)" fill="#aab6c2"/>
            <rect id="Rectangle_2677" data-name="Rectangle 2677" width="34.27" height="13.44" transform="translate(46.649 387.133)" fill="#aab6c2"/>
            <rect id="Rectangle_2678" data-name="Rectangle 2678" width="34.27" height="13.44" transform="translate(104.337 436.027)" fill="#aab6c2"/>
            <rect id="Rectangle_2679" data-name="Rectangle 2679" width="34.27" height="13.44" transform="translate(46.649 460.475)" fill="#aab6c2"/>
          </g>
          <g id="Group_2723" data-name="Group 2723" transform="translate(0 280.426)">
            <rect id="Rectangle_2680" data-name="Rectangle 2680" width="141.32" height="343.789" transform="translate(0 0)" fill="#c6d0db"/>
            <rect id="Rectangle_2681" data-name="Rectangle 2681" width="14.593" height="343.789" transform="translate(0 0)" fill="#aab6c2"/>
            <rect id="Rectangle_2682" data-name="Rectangle 2682" width="22.077" height="9.168" transform="translate(104.368 16.464)" fill="#aab6c2"/>
            <rect id="Rectangle_2683" data-name="Rectangle 2683" width="22.077" height="9.168" transform="translate(67.199 16.464)" fill="#aab6c2"/>
            <rect id="Rectangle_2684" data-name="Rectangle 2684" width="22.077" height="9.168" transform="translate(104.368 49.799)" fill="#aab6c2"/>
            <rect id="Rectangle_2685" data-name="Rectangle 2685" width="22.077" height="9.168" transform="translate(67.199 49.799)" fill="#aab6c2"/>
            <rect id="Rectangle_2686" data-name="Rectangle 2686" width="22.077" height="9.168" transform="translate(30.06 49.799)" fill="#aab6c2"/>
            <rect id="Rectangle_2687" data-name="Rectangle 2687" width="22.077" height="9.168" transform="translate(104.368 83.164)" fill="#aab6c2"/>
            <rect id="Rectangle_2688" data-name="Rectangle 2688" width="22.077" height="9.168" transform="translate(30.06 83.164)" fill="#aab6c2"/>
            <rect id="Rectangle_2689" data-name="Rectangle 2689" width="22.077" height="9.168" transform="translate(67.199 99.847)" fill="#aab6c2"/>
            <rect id="Rectangle_2690" data-name="Rectangle 2690" width="22.077" height="9.168" transform="translate(104.368 116.498)" fill="#aab6c2"/>
            <rect id="Rectangle_2691" data-name="Rectangle 2691" width="22.077" height="9.168" transform="translate(67.199 133.181)" fill="#aab6c2"/>
            <rect id="Rectangle_2692" data-name="Rectangle 2692" width="22.077" height="9.168" transform="translate(104.368 149.864)" fill="#aab6c2"/>
            <rect id="Rectangle_2693" data-name="Rectangle 2693" width="22.077" height="9.168" transform="translate(30.06 149.864)" fill="#aab6c2"/>
            <rect id="Rectangle_2694" data-name="Rectangle 2694" width="22.077" height="9.168" transform="translate(104.368 180.672)" fill="#aab6c2"/>
            <rect id="Rectangle_2695" data-name="Rectangle 2695" width="22.077" height="9.168" transform="translate(67.199 180.672)" fill="#aab6c2"/>
            <rect id="Rectangle_2696" data-name="Rectangle 2696" width="22.077" height="9.168" transform="translate(104.368 214.038)" fill="#aab6c2"/>
            <rect id="Rectangle_2697" data-name="Rectangle 2697" width="22.077" height="9.168" transform="translate(67.199 214.038)" fill="#aab6c2"/>
            <rect id="Rectangle_2698" data-name="Rectangle 2698" width="22.077" height="9.168" transform="translate(30.06 214.038)" fill="#aab6c2"/>
            <rect id="Rectangle_2699" data-name="Rectangle 2699" width="22.077" height="9.168" transform="translate(104.368 247.372)" fill="#aab6c2"/>
            <rect id="Rectangle_2700" data-name="Rectangle 2700" width="22.077" height="9.168" transform="translate(30.06 247.372)" fill="#aab6c2"/>
            <rect id="Rectangle_2701" data-name="Rectangle 2701" width="22.077" height="9.168" transform="translate(67.199 264.055)" fill="#aab6c2"/>
            <rect id="Rectangle_2702" data-name="Rectangle 2702" width="22.077" height="9.168" transform="translate(30.06 264.055)" fill="#aab6c2"/>
            <rect id="Rectangle_2703" data-name="Rectangle 2703" width="22.077" height="9.168" transform="translate(104.368 280.738)" fill="#aab6c2"/>
            <rect id="Rectangle_2704" data-name="Rectangle 2704" width="22.077" height="9.168" transform="translate(67.199 297.42)" fill="#aab6c2"/>
            <rect id="Rectangle_2705" data-name="Rectangle 2705" width="22.077" height="9.168" transform="translate(104.368 314.072)" fill="#aab6c2"/>
            <rect id="Rectangle_2706" data-name="Rectangle 2706" width="22.077" height="9.168" transform="translate(30.06 314.072)" fill="#aab6c2"/>
          </g>
        </g>
        <g id="Group_2727" data-name="Group 2727" transform="translate(-106.082 -46.956)">
          <g id="Group_2725" data-name="Group 2725" transform="translate(6.548 13.502)">
            <rect id="Rectangle_2707" data-name="Rectangle 2707" width="598.863" height="682.807" fill="#fff" opacity="0.35"/>
            <path id="Path_6744" data-name="Path 6744" d="M86.963,679.883H40.47L289.62,17.22h46.493Z" transform="translate(119.216 -9.393)" fill="#fff" opacity="0.5"/>
            <path id="Path_6745" data-name="Path 6745" d="M44.862,679.883H21.6L270.781,17.22h23.231Z" transform="translate(79.245 -9.393)" fill="#fff" opacity="0.5"/>
            <path id="Path_6746" data-name="Path 6746" d="M133.852,631.565H110.59L324.223,40.03V87.708Z" transform="translate(267.749 38.925)" fill="#fff" opacity="0.5"/>
          </g>
          <g id="Group_2726" data-name="Group 2726" transform="translate(602.293)">
            <rect id="Rectangle_2708" data-name="Rectangle 2708" width="598.863" height="682.807" transform="translate(6.268)" fill="#fff" opacity="0.35"/>
            <path id="Path_6747" data-name="Path 6747" d="M245.642,679.883H199.18L448.329,17.22h46.493Z" transform="translate(-140.338 4.109)" fill="#fff" opacity="0.5"/>
            <path id="Path_6748" data-name="Path 6748" d="M203.541,679.883H180.31L429.46,17.22h23.262Z" transform="translate(-180.31 4.109)" fill="#fff" opacity="0.5"/>
          </g>
          <path id="Path_6749" data-name="Path 6749" d="M1219.562,143.177V135.35h-21.516V12.21H-12.84V27.833H.194v5.519h386.2v102H-12.84v7.827H386.392v200.5H-12.84v7.827H386.392v200.5H-12.84v7.827H386.392V690.5H.319v4.521H-12.84V713.1H1198.046v-1.466h0V559.84h21.516v-7.827h-21.516v-200.5h21.516v-7.827h-21.516v-200.5ZM599.182,351.509H785.717v200.5H599.182Zm0-7.827v-200.5H785.717v200.5H599.182Zm0-208.331v-102H785.717v102Zm0,424.49H785.717V690.5H599.245v4.521h-.062V559.84ZM798.814,690.5V559.84H985.349V690.5Zm0-138.482v-200.5H985.349v200.5Zm0-208.331v-200.5H985.349v200.5H798.814Zm0-208.331v-102H985.349v102H798.814ZM998.445,33.321H1184.98V135.35H998.445v-102Zm-598.926,0H586.054V135.35H399.52v-102Zm0,109.825H586.054V343.682H399.52v-200.5Zm0,208.331H586.054v200.5H399.52V351.509Zm0,208.331H586.054V694.986h-.062v-4.521H399.551V559.809Zm785.46,135.177h-.062v-4.521H998.476V559.809h186.535V694.986Zm0-143H998.445V351.509H1184.98v200.5Zm0-208.331H998.445V143.177H1184.98v200.5Z" transform="translate(12.84 -6.504)" fill="#fff"/>
        </g>
      </g>
      <path id="Path_6751" data-name="Path 6751" d="M244.638,192.239C200.951,157.47,164.561,96.82,185.266,38.352c20.674-58.468,63.394,50.36,97.758,86.594C332.76,177.4,336.065,264.988,244.638,192.239Z" transform="translate(313.752 -21.42)" fill="#e6ebf0"/>
      <rect id="Rectangle_2709" data-name="Rectangle 2709" width="645.918" height="4.49" transform="translate(18.181 640.835)"/>
      <path id="Path_6752" data-name="Path 6752" d="M244.966,133.434c16.121-15,20.019-42.876,7.92-68.1-12.005-25.04-35.954-39.415-57.626-36.484l-.842-1.777L183.287,32.4c-24.167,11.6-32.18,45.121-17.9,74.9s45.464,44.5,69.6,32.9l10.852-4.864-.9-1.933Z" transform="translate(269.3 -9.451)"/>
      <path id="Path_6753" data-name="Path 6753" d="M256.467,62.668c14.282,29.779,6.018,63.769-18.148,75.369s-55.069-3.617-69.35-33.365c-14.282-29.779-6.268-63.3,17.9-74.9S242.185,32.92,256.467,62.668Z" transform="translate(276.884 -12.121)" fill="#f40"/>
      <g id="Group_2729" data-name="Group 2729" transform="translate(447.399 23.533)">
        <path id="Path_6754" data-name="Path 6754" d="M242.472,59.41c11.725,24.447,4.927,52.387-14.905,61.9-19.863,9.511-45.215-2.962-56.94-27.41s-5.145-51.982,14.687-61.523c19.832-9.511,45.433,2.588,57.189,27.035Z" transform="translate(-164.317 -28.622)" fill="#f40"/>
        <path id="Path_6755" data-name="Path 6755" d="M217.271,72.013a13.475,13.475,0,0,0-2.058-3.742,12.013,12.013,0,0,0-2.9-2.588A15.451,15.451,0,0,0,208.758,64a28.409,28.409,0,0,0-4.054-.935,38.625,38.625,0,0,0-4.3-.5l-4.459-.281-6.611-17.9a10.719,10.719,0,0,1,6.018.53,13.188,13.188,0,0,1,5.052,3.991l6.424-2.37a18.579,18.579,0,0,0-4.023-4.989,15.954,15.954,0,0,0-4.833-2.9,16.736,16.736,0,0,0-5.363-1.06,21.19,21.19,0,0,0-5.582.53L184.9,32.38l-6.486,2.4,2.12,5.738a21.207,21.207,0,0,0-4.8,3.586,18.724,18.724,0,0,0-3.337,4.584,14.062,14.062,0,0,0-1.5,5.208c-.031.405-.062.842-.062,1.278a12.274,12.274,0,0,0,.811,4.178,13.768,13.768,0,0,0,.811,1.809,10.883,10.883,0,0,0,2.339,3.087,14.585,14.585,0,0,0,4.615,2.869q1.216.468,2.526.842c.437.094.873.218,1.341.312s.967.187,1.466.249a.687.687,0,0,1,.249.031c2,.249,4.054.468,6.112.592l5.582,15.03.249.655h0l.25.655,1.123,3.087a10.527,10.527,0,0,1-3.555-.468,11.61,11.61,0,0,1-2.4-1.029c-.249-.125-.5-.281-.748-.437h0a1,1,0,0,1-.156-.094c-.156-.125-.343-.249-.5-.374a14.779,14.779,0,0,1-2.463-2.214,19.719,19.719,0,0,1-2.495-3.43l-6.829,2.526a24.821,24.821,0,0,0,3.742,5.114.311.311,0,0,0,.125.156c.094.125.218.218.312.343l.031.031c.062.062.125.094.156.156a3.736,3.736,0,0,0,.374.343.376.376,0,0,0,.156.156,21.511,21.511,0,0,0,4.521,3.305,12.817,12.817,0,0,0,1.31.655,3.817,3.817,0,0,0,.748.312,7.615,7.615,0,0,0,.748.312,22.755,22.755,0,0,0,3.149.935,18.213,18.213,0,0,0,6.237.187l3.368,9.105,6.486-2.4-3.305-8.949a26.146,26.146,0,0,0,5.176-3.43,17.357,17.357,0,0,0,3.96-4.74,14.933,14.933,0,0,0,1.9-5.862,14.654,14.654,0,0,0-.967-6.829Zm-39.01-15.342a6.872,6.872,0,0,1,.156-5.27,9.839,9.839,0,0,1,4.4-4.521l5.644,15.342c-1.247-.125-2.4-.312-3.492-.53a13.217,13.217,0,0,1-2.962-1,8.608,8.608,0,0,1-2.276-1.621,6.97,6.97,0,0,1-1.5-2.4Zm32.867,21.3a8.62,8.62,0,0,1-.842,3.243,11.069,11.069,0,0,1-2.089,2.994,13.552,13.552,0,0,1-3.305,2.432L198.5,69.363c1.372.094,2.682.249,3.991.468a17.235,17.235,0,0,1,3.586.9,10.035,10.035,0,0,1,2.806,1.528,5.418,5.418,0,0,1,1.715,2.37,8.649,8.649,0,0,1,.53,3.305Z" transform="translate(-151.557 -21.736)"/>
        <path id="Path_6756" data-name="Path 6756" d="M196.162,121.153c-10.82-5.239-19.926-14.718-25.663-26.692-11.818-24.665-5.145-52.543,14.937-62.178,9.729-4.677,21.111-4.4,32.056.78,10.914,5.145,20.05,14.562,25.788,26.505,5.706,11.912,7.3,25.009,4.428,36.889s-9.823,21.017-19.552,25.695a35.07,35.07,0,0,1-6.268,2.276c-8.139,2.027-17.057.935-25.663-3.243ZM242.375,60C236.762,48.279,227.75,39.049,217.055,34c-10.664-5.052-21.734-5.332-31.214-.78C166.289,42.6,159.8,69.889,171.372,94.055c5.644,11.756,14.594,21.079,25.2,26.225,10.633,5.145,21.672,5.488,31.089.967,9.48-4.553,16.215-13.409,19.021-25.009,2.806-11.631,1.279-24.51-4.334-36.2h0Z" transform="translate(-164.656 -28.967)"/>
      </g>
      <g id="Group_2738" data-name="Group 2738" transform="translate(270.574 181.421)">
        <g id="Group_2733" data-name="Group 2733" transform="translate(0 0)">
          <g id="Group_2730" data-name="Group 2730">
            <path id="Path_6757" data-name="Path 6757" d="M118.585,413.776a10.434,10.434,0,0,1-10.415-10.415V93.312a13.5,13.5,0,0,1,13.471-13.5H450.587a13.5,13.5,0,0,1,13.5,13.471V403.33a10.434,10.434,0,0,1-10.415,10.415H118.585Z" transform="translate(-107.484 -79.155)" fill="#fff"/>
            <path id="Path_6758" data-name="Path 6758" d="M451.053,80.972a12.809,12.809,0,0,1,12.816,12.785V403.806a9.741,9.741,0,0,1-9.729,9.729H119.051a9.742,9.742,0,0,1-9.729-9.729V93.757a12.829,12.829,0,0,1,12.785-12.816H451.053Zm0-1.372H122.107A14.173,14.173,0,0,0,107.95,93.788V403.806a11.106,11.106,0,0,0,11.1,11.1H454.14a11.126,11.126,0,0,0,11.1-11.1V93.757A14.173,14.173,0,0,0,451.053,79.6Z" transform="translate(-107.95 -79.6)"/>
          </g>
          <path id="Path_6759" data-name="Path 6759" d="M465.21,128.4H107.95V93.757A14.146,14.146,0,0,1,122.107,79.6H451.022a14.146,14.146,0,0,1,14.157,14.157V128.4Z" transform="translate(-107.95 -79.6)"/>
          <g id="Group_2732" data-name="Group 2732" transform="translate(20.393 16.901)">
            <path id="Path_6760" data-name="Path 6760" d="M132.99,92.5a7.484,7.484,0,1,1,7.484,7.484A7.486,7.486,0,0,1,132.99,92.5Z" transform="translate(-75.302 -85.02)" fill="#aab6c2"/>
            <path id="Path_6761" data-name="Path 6761" d="M123.74,92.5a7.484,7.484,0,1,1,7.484,7.484A7.486,7.486,0,0,1,123.74,92.5Z" transform="translate(-94.896 -85.02)" fill="#f40"/>
            <g id="Group_2731" data-name="Group 2731">
              <path id="Path_6762" data-name="Path 6762" d="M121.508,98.846a6.8,6.8,0,1,1,6.8-6.8A6.814,6.814,0,0,1,121.508,98.846Z" transform="translate(-114.024 -84.533)" fill="#fff"/>
              <path id="Path_6763" data-name="Path 6763" d="M121.974,86.392a6.143,6.143,0,1,1-6.143,6.143,6.155,6.155,0,0,1,6.143-6.143Zm0-1.372a7.484,7.484,0,1,0,7.484,7.484,7.486,7.486,0,0,0-7.484-7.484Z" transform="translate(-114.49 -85.02)"/>
            </g>
          </g>
        </g>
        <g id="Group_2737" data-name="Group 2737" transform="translate(63.27 69.071)">
          <g id="Group_2734" data-name="Group 2734" transform="translate(8.295 1.06)">
            <path id="Path_6764" data-name="Path 6764" d="M279.374,188.606v1.216l-100.034-1.06,49.83-84.411,4.584,2.308a94.759,94.759,0,0,1,45.589,81.948Z" transform="translate(-28.291 -97.304)"/>
            <path id="Path_6765" data-name="Path 6765" d="M130.9,205.19c0,1.653,0,3.274.094,4.865a95.48,95.48,0,0,0,2.495,17.961,97.217,97.217,0,0,0,11.195,27.534,92.85,92.85,0,0,0,5.738,8.544c.281.374.561.717.842,1.091,14.562,18.834,35.86,31.962,60.214,34.55a139.9,139.9,0,0,0,35.236-.437c.717-.094,1.4-.187,2.12-.312,46.587-7.858,68.228-42.19,74.121-74.371.125-.686.249-1.4.343-2.089a103.415,103.415,0,0,0,1.279-12.13c.094-1.434.125-2.869.156-4.3l-86.064-1h-2.12L230.965,205l-10.914-73.529-.312-2.058-.094-.717-.842-5.613-1.715-11.506-6.237,1.247c-41.255,5.956-73.809,39.789-79.11,80.638a108.327,108.327,0,0,0-.842,11.756Z" transform="translate(-130.9 -81.989)"/>
            <path id="Path_6766" data-name="Path 6766" d="M178.419,205.46,163.67,104.334h.031l6.205-1.247a93.53,93.53,0,0,1,62.022,12.567L178.419,205.46Z" transform="translate(-61.484 -102.09)"/>
          </g>
          <path id="Path_6767" data-name="Path 6767" d="M160.346,111.58h8.107l-1.216,26.412-13.377,1.965Z" transform="translate(-73.97 -80.929)"/>
          <path id="Path_6768" data-name="Path 6768" d="M165.8,163.943h8.107l9.667-42.253-8.887,3.368Z" transform="translate(-48.678 -59.513)"/>
          <path id="Path_6769" data-name="Path 6769" d="M192.59,104l8.513,1.091,50.173,85.472H243.2Z" transform="translate(8.071 -96.985)"/>
          <g id="Group_2736" data-name="Group 2736">
            <g id="Group_2735" data-name="Group 2735" transform="translate(149.365 5.768)">
              <path id="Path_6770" data-name="Path 6770" d="M276.7,188.266v1.216l-100.034-1.06L226.5,104.01l4.584,2.307a94.759,94.759,0,0,1,45.589,81.948Z" transform="translate(-175.017 -102.731)" fill="#fff"/>
              <path id="Path_6771" data-name="Path 6771" d="M278.762,191.317H277.8L176.14,190.225,227.28,103.6l.811.405,4.584,2.308a96.278,96.278,0,0,1,46.119,82.821v2.183Zm-99.317-2.962,97.415,1.029v-.249A94.385,94.385,0,0,0,231.739,108L228,106.126l-48.551,82.229Z" transform="translate(-176.14 -103.6)"/>
            </g>
            <path id="Path_6772" data-name="Path 6772" d="M128.24,204.85c0,1.653,0,3.274.094,4.865a95.482,95.482,0,0,0,2.495,17.961,97.216,97.216,0,0,0,11.195,27.534,99.618,99.618,0,0,0,5.738,8.544c.281.374.561.717.842,1.091,14.562,18.834,35.86,31.962,60.214,34.55a139.9,139.9,0,0,0,35.236-.437c.717-.094,1.4-.187,2.12-.312,46.587-7.858,68.228-42.19,74.121-74.371.125-.686.249-1.4.343-2.089a103.415,103.415,0,0,0,1.279-12.13c.094-1.434.125-2.869.156-4.3l-86.064-1h-2.12l-5.582-.094-10.914-73.529-.312-2.058-.094-.717-.842-5.613-1.715-11.506-6.237,1.247c-41.255,5.956-73.809,39.789-79.11,80.638a108.327,108.327,0,0,0-.842,11.756Z" transform="translate(-128.24 -81.649)" fill="#f40"/>
            <path id="Path_6773" data-name="Path 6773" d="M175.759,205.12,161.01,103.994h.031l6.205-1.247a93.529,93.529,0,0,1,62.022,12.567Z" transform="translate(-58.824 -101.75)" fill="#aab6c2"/>
          </g>
        </g>
      </g>
      <g id="Group_2740" data-name="Group 2740" transform="translate(214.074 394.909)">
        <path id="Path_6774" data-name="Path 6774" d="M123.442,227.662c14.687-1.746,27.846-15.311,31.276-33.74,3.4-18.335-3.867-35.611-16.776-42.6l.249-1.279-8.139-1.528c-17.681-3.305-35.3,11.694-39.384,33.49-4.054,21.8,6.985,42.128,24.665,45.433l7.827,1.653.281-1.4Z" transform="translate(-89.831 -148.064)"/>
        <path id="Path_6775" data-name="Path 6775" d="M157.337,194.4c-4.054,21.8-22.015,36.92-39.7,33.646-17.681-3.305-28.407-23.761-24.322-45.558,4.054-21.8,21.7-36.764,39.384-33.49,17.681,3.305,28.719,23.636,24.665,45.433Z" transform="translate(-84.279 -147.042)" fill="#f40"/>
        <g id="Group_2739" data-name="Group 2739" transform="translate(13.664 8.286)">
          <path id="Path_6776" data-name="Path 6776" d="M147.635,188.509c-3.337,17.9-18.086,30.341-32.617,27.628s-23.325-19.52-19.988-37.419,17.805-30.216,32.336-27.5S150.971,170.61,147.635,188.509Z" transform="translate(-93.979 -150.469)" fill="#f40"/>
          <path id="Path_6777" data-name="Path 6777" d="M123.906,188.911a8.322,8.322,0,0,0,.343-2.838,8.9,8.9,0,0,0-.53-2.557,10.734,10.734,0,0,0-1.279-2.339,22.5,22.5,0,0,0-1.809-2.12,21.763,21.763,0,0,0-2.152-1.965c-.748-.655-1.528-1.279-2.308-1.9l3.492-12.317a7.172,7.172,0,0,1,3.056,2.682,8.792,8.792,0,0,1,1.154,4.178l4.428,1.247a12.191,12.191,0,0,0-.218-4.3,10.847,10.847,0,0,0-3.96-6.205,15.382,15.382,0,0,0-3.243-1.933l1.123-3.96-4.459-1.279-1.123,3.96a14.466,14.466,0,0,0-4.023.031,12.293,12.293,0,0,0-3.617,1.154,9.177,9.177,0,0,0-2.869,2.245c-.187.218-.374.437-.53.655a9.385,9.385,0,0,0-1.216,2.588,9.81,9.81,0,0,0-.281,1.31,8.151,8.151,0,0,0,.031,2.619,9.268,9.268,0,0,0,1.372,3.368,15.107,15.107,0,0,0,1.029,1.434c.187.218.405.468.592.686.218.249.437.468.686.717.031.062.094.094.125.125.967.935,2,1.84,3.087,2.744l-2.931,10.353-.125.437h0l-.125.437-.592,2.12a7.334,7.334,0,0,1-1.746-1.653,9.1,9.1,0,0,1-.9-1.5,3.807,3.807,0,0,1-.218-.53h0s0-.094-.031-.125c-.031-.125-.094-.249-.125-.405a11.755,11.755,0,0,1-.468-2.183,12.337,12.337,0,0,1,0-2.838l-4.709-1.341a16.329,16.329,0,0,0,0,4.272v.125a.961.961,0,0,0,.031.312v.187a1.327,1.327,0,0,0,.062.343v.156a15.077,15.077,0,0,0,1.154,3.586,7.588,7.588,0,0,0,.437.873,3.708,3.708,0,0,0,.281.468c.094.187.187.312.281.468a12.343,12.343,0,0,0,1.341,1.746,12.157,12.157,0,0,0,3.305,2.588l-1.777,6.268,4.459,1.279,1.746-6.174a18.332,18.332,0,0,0,4.147.187,12.3,12.3,0,0,0,4.023-1,10.587,10.587,0,0,0,3.368-2.4,9.663,9.663,0,0,0,2.183-4.085Zm-15.061-23.761a4.654,4.654,0,0,1,2.183-2.806,6.385,6.385,0,0,1,4.178-.686l-3.025,10.54a21.433,21.433,0,0,1-1.684-1.684,8.658,8.658,0,0,1-1.216-1.715,5.432,5.432,0,0,1-.592-1.777,4.253,4.253,0,0,1,.156-1.871Zm9.355,24.572a5.6,5.6,0,0,1-1.746,1.434,6.958,6.958,0,0,1-2.308.78,8.99,8.99,0,0,1-2.744,0l3.368-11.881a18.484,18.484,0,0,1,1.964,1.84,11.375,11.375,0,0,1,1.59,1.933,6.33,6.33,0,0,1,.9,1.933,3.815,3.815,0,0,1,0,1.965,5.786,5.786,0,0,1-1.029,2Z" transform="translate(-84.719 -145.258)"/>
          <path id="Path_6778" data-name="Path 6778" d="M98.257,203.51a38.016,38.016,0,0,1-3.337-24.634c3.368-18.055,18.055-30.5,32.742-27.784,7.141,1.341,13.19,5.987,17.057,13.128a38.821,38.821,0,0,1-8.762,46.306c-6.268,5.3-13.658,7.484-20.768,6.143a22.046,22.046,0,0,1-4.3-1.247,25.268,25.268,0,0,1-12.629-11.943ZM147.526,188.7a36.614,36.614,0,0,0-3.4-24.135c-3.773-6.954-9.667-11.506-16.589-12.785C113.225,149.1,98.881,161.32,95.576,179a37.33,37.33,0,0,0,3.274,24.2c3.711,6.985,9.573,11.569,16.464,12.847,6.923,1.31,14.126-.842,20.238-6.018A36.837,36.837,0,0,0,147.557,188.7h0Z" transform="translate(-94.213 -150.721)"/>
        </g>
      </g>
    </g>
    <g id="Camada_4" transform="translate(26.726 194.777)">
      <g id="Group_2745" data-name="Group 2745">
        <path id="Path_6779" data-name="Path 6779" d="M88.3,217.667c-1.466-1.809-17.182-.312-17.338.655-.5,2.9-1.216,13.97.281,15.467,1.466,1.434,15.03,4.521,15.342,1.715.281-2.432,3.118-16.059,1.715-17.805Z" transform="translate(77.414 219.127)" fill="#fff"/>
        <path id="Path_6780" data-name="Path 6780" d="M84.06,237.772c-4.334,0-11.631-1.84-12.847-3.025-1.933-1.9-.78-14.157-.468-16.059.094-.592.748-.811,1.434-1,2.869-.748,15.467-2.058,17.15,0h0c1.06,1.341.437,6.361-1.06,15.186-.249,1.434-.437,2.588-.5,3.118a1.71,1.71,0,0,1-1.31,1.434,7.244,7.244,0,0,1-2.37.281ZM72.086,219.187c-.624,4.054-.936,13.564.125,14.562,1.029,1,10.914,3.43,13.752,2.4.187-.062.405-.187.405-.281.062-.561.249-1.715.53-3.212.624-3.555,2.245-12.972,1.372-14.063-1.123-1.216-14.032-.374-16.153.592Z" transform="translate(76.941 218.636)"/>
        <path id="Path_6781" data-name="Path 6781" d="M72.945,221.181s-7.266,10.384-2.058,18.554c0,0,37.856,1.777,49.3,0,0,0,.281-13.939-9.511-15.155a181.268,181.268,0,0,0-20.83-1.029s-9.76,5.332-16.87-2.4Z" transform="translate(74.586 228.304)"/>
        <path id="Path_6782" data-name="Path 6782" d="M61.336,217.667c-1.466-1.809-17.182-.312-17.338.655-.5,2.9-1.216,13.97.281,15.467,1.466,1.434,15.03,4.521,15.342,1.715.281-2.432,3.118-16.059,1.715-17.805Z" transform="translate(20.305 219.127)" fill="#fff"/>
        <path id="Path_6783" data-name="Path 6783" d="M57.1,237.772c-4.334,0-11.631-1.84-12.847-3.025-1.933-1.9-.78-14.157-.468-16.059.094-.592.748-.811,1.434-1,2.869-.748,15.467-2.058,17.15,0h0c1.06,1.341.437,6.361-1.06,15.186-.249,1.434-.437,2.588-.5,3.118a1.71,1.71,0,0,1-1.31,1.434,7.244,7.244,0,0,1-2.37.281ZM45.126,219.187c-.624,4.054-.935,13.564.125,14.562,1.029,1,10.914,3.43,13.752,2.4.187-.062.405-.187.405-.281.062-.561.249-1.715.53-3.212.624-3.555,2.245-12.972,1.372-14.063-1.123-1.216-14.032-.374-16.153.592Z" transform="translate(19.833 218.636)"/>
        <path id="Path_6784" data-name="Path 6784" d="M45.985,221.181s-7.266,10.384-2.058,18.554c0,0,37.856,1.777,49.3,0,0,0,.281-13.939-9.511-15.155a181.268,181.268,0,0,0-20.83-1.029s-9.76,5.332-16.87-2.4Z" transform="translate(17.478 228.304)"/>
        <path id="Path_6785" data-name="Path 6785" d="M84.445,377.154l12.91,1.247c-1.185-8.139,0-26.256.437-34.519.842-14.406,4.428-28.47,7.764-42.44,5.27-22.171,10.29-45.651,4.023-68.165-3.243-11.569-10.321-19.645-16.121-29.873A40.637,40.637,0,0,1,88.249,180.8c.312-4.3,2.994-9.76,1.528-14.063-1.809-5.457-18.117-23.886-22.3-21.111-5.02,3.4-2.495,16.464-4.521,22.576,7.7,19.77,22.2,54.289,23.169,66.263,1.777,22.264-1.9,66.98-3.118,89.307-1.216,22.2,1.372,53.385,1.372,53.385Z" transform="translate(61.776 67.717)"/>
        <path id="Path_6786" data-name="Path 6786" d="M43.833,401.074l18.585,2c9.7-32.056,35.611-86.875,39.446-120.49,5.925-52.231,13.066-108.173,13.377-121.924.031-2.214.062-3.4.062-3.4-12.785-15.56-34.488-21.921-44.123-23.075-3.8-.468-6.58.281-7.8,2.276A146.494,146.494,0,0,0,54,154.762c-15.56,36.983-2.463,59.341-2.744,107.424,0,2.775-.031,5.644-.094,8.451-.5,19.895,4.865,44.373-.842,65.141-11.226,40.756-6.455,65.265-6.455,65.265Z" transform="translate(19.193 43.796)"/>
        <g id="Group_2741" data-name="Group 2741" transform="translate(314.918 136.389)">
          <path id="Path_6787" data-name="Path 6787" d="M163.794,131.375c1.466-.437,2.619-3.991.5-5.208a6.143,6.143,0,0,0-3.43-.343c-.031-.125,1.029-2.806-1.809-3.274-2.526-.405-4.646,2.495-6.767,3.648-6.3,3.492-12.1,3.648-12.754,2.4-.624-1.154,1.84-3.555,3.43-3.929a2.507,2.507,0,0,0,1.9-1.746c.249-1.154-.561-1.59-1.372-1.871-1.4-.468-6.548,1.185-8.076,3.524-6.237,9.573-10.633-.842-11.257,11.881-.094,1.809,7.421,5.239,16.34,6.923,6.86.624,20.175-.374,19.832-5.426,4.178-.374,6.33-4.833,3.4-6.548Z" transform="translate(-123.504 -120.283)" fill="#fff"/>
          <path id="Path_6788" data-name="Path 6788" d="M140.2,121.4a7.353,7.353,0,0,1,3.991-.53c1.466.5,2.089,1.4,1.84,2.682a3.119,3.119,0,0,1-2.432,2.276,5.4,5.4,0,0,0-2.9,2.432c-.125.281-.125.437-.094.468.5.624,5.675.686,11.787-2.682a14.12,14.12,0,0,0,1.965-1.434c1.528-1.247,3.212-2.651,5.239-2.307a2.979,2.979,0,0,1,2.12,1.216,3.072,3.072,0,0,1,.437,1.933,5.707,5.707,0,0,1,2.931.53,3.188,3.188,0,0,1,1.466,3.274,4.473,4.473,0,0,1-1.154,2.588,3.288,3.288,0,0,1,.78,3.025,5.766,5.766,0,0,1-4.677,4.085,3.761,3.761,0,0,1-1.154,2.183c-3.586,3.524-14.656,3.773-19.427,3.337-8.326-1.559-17.088-4.989-16.963-7.64.343-6.767,1.746-7.609,4.677-7.827,1.777-.125,4.023-.312,6.7-4.4a9.987,9.987,0,0,1,4.865-3.274Zm3.305,3.025a1.776,1.776,0,0,0,1.154-1.154c.094-.437.062-.748-.9-1.091-1-.343-5.862,1.123-7.266,3.243-3.056,4.677-5.769,4.864-7.764,5.02s-3.056.218-3.368,6.486c.062,1,6.081,4.4,15.778,6.205,5.831.53,15.467-.218,18.273-2.962a2.134,2.134,0,0,0,.748-1.746v-.686l.624-.062a4.482,4.482,0,0,0,4.054-3.087,1.9,1.9,0,0,0-.967-2.183l-1.372-.811,1.528-.468c.5-.125,1.029-1,1.154-2.027a1.855,1.855,0,0,0-.78-1.9,5.49,5.49,0,0,0-2.9-.281l-.655.156-.249-.811.062-.312a2.212,2.212,0,0,0-.094-1.653,1.671,1.671,0,0,0-1.185-.624c-1.4-.249-2.775.9-4.116,2a16.862,16.862,0,0,1-2.183,1.59c-5.114,2.806-10.259,3.648-12.473,2.962a2.037,2.037,0,0,1-1.216-.842,1.834,1.834,0,0,1,.062-1.715,6.6,6.6,0,0,1,3.835-3.212.579.579,0,0,0,.218-.062Z" transform="translate(-123.95 -120.753)"/>
        </g>
        <g id="Group_2743" data-name="Group 2743" transform="translate(62.963 61.296)">
          <g id="Group_2742" data-name="Group 2742" transform="translate(76.784 0.817)">
            <path id="Path_6789" data-name="Path 6789" d="M76.337,154.892c3.991,10.945,60.65,55.443,93.3,56.565,29.717,1.029,60.494-15.529,76.616-19.427,2.276-3.711,2.432-9.854,3.087-12.691,1.4-6.268-53.852,2.245-82.977-18.024-36.92-25.695-78.767-61.18-92.082-64.236-14.531-3.305-.561,50.609,2.089,57.813Z" transform="translate(-67.774 -96.933)" fill="#f40"/>
            <path id="Path_6790" data-name="Path 6790" d="M110.911,186.707s-5.426-46.182-25.008-72.593h0l-4.584,53.665,20.269,13.533c2.931,1.809,6.049,3.586,9.324,5.363Z" transform="translate(-47.808 -85.405)"/>
          </g>
          <path id="Path_6791" data-name="Path 6791" d="M89.219,259.241c1.777,22.264.156,67.167-1.621,89.432C87.5,350.17,87.5,401.9,87.5,401.9l20.924,2c11.382-33.989,33.147-110.262,33.147-144.1s-2.931-90.274-15.373-117.029c-11.818-25.445-58.5,9.7-63.987,15.934-2.526,2.869,2.276,28.657,8.887,45.714,7.7,19.77,17.15,42.845,18.117,54.819Z" transform="translate(-4.214 -18.359)"/>
          <path id="Path_6792" data-name="Path 6792" d="M43.369,244.349c9.7,1.715,18.866,2.994,27.534,3.9,1.278.156,2.495.312,3.742.374a313.143,313.143,0,0,0,34.956,1.5c1.31,0,2.619-.031,3.9-.062,17.961-.5,63.924-29.935,63.924-29.935-.935-7.234-4.366-32.149-6.143-43.063-.218-1.31-.437-2.588-.624-3.8-2.775-15.966-5.8-29.343-9.76-40.163-.437-1.185-.9-2.4-1.372-3.555-8.731-21.267-21.766-31.837-44.934-32.8C99,96.044,86.744,101.407,77.2,110.419c-.748.686-1.5,1.434-2.214,2.183-7.7,8.045-13.6,18.554-18.024,30.154-.405,1.123-.873,2.276-1.247,3.43-4.833,13.5-7.827,28.22-9.667,42.065-.156,1.185-.312,2.4-.5,3.555-1.185,10.29-1.84,19.988-2.12,28.127-.062,1.31-.125,2.588-.156,3.8-.343,12.473.125,20.612.125,20.612Z" transform="translate(-43.15 -96.671)" fill="#f40"/>
        </g>
        <path id="Path_6793" data-name="Path 6793" d="M84.8,110s-5.613,10.01-22.7-.437c0,0,3.492-9.105.748-18.616l17.4,4.241S78.564,101.708,84.8,110Z" transform="translate(59.955 -47.494)" fill="#fff"/>
        <path id="Path_6794" data-name="Path 6794" d="M76.413,115.69q-6.127,0-14.095-4.865l-.5-.312.218-.53s3.368-9.012.717-18.18l-.343-1.154,19.24,4.709-.187.686s-1.5,6.33,4.459,14.219l.281.374-.218.405a10.442,10.442,0,0,1-6.143,4.272,13.849,13.849,0,0,1-3.461.437Zm-12.878-5.769c6.33,3.773,11.693,5.114,16,3.991a8.954,8.954,0,0,0,5.02-3.243c-4.958-6.829-4.771-12.411-4.521-14.313l-15.623-3.8a33.448,33.448,0,0,1-.873,17.369Z" transform="translate(59.362 -48.13)"/>
        <path id="Path_6795" data-name="Path 6795" d="M72.315,80.212c-8.887,1.964-13.845,13.627-11.1,26.038,2.744,12.442,12.161,20.924,21.017,18.959s13.845-13.627,11.1-26.038C90.588,86.729,81.171,78.248,72.315,80.212Z" transform="translate(56.475 -70.839)" fill="#fff"/>
        <path id="Path_6796" data-name="Path 6796" d="M80.169,126.679c-8.357,0-16.62-8.232-19.146-19.8A28.537,28.537,0,0,1,62.27,89.509C64.453,84.364,68.132,81,72.654,80h0c9.23-2.027,19.053,6.7,21.859,19.489s-2.4,24.853-11.631,26.879a13.36,13.36,0,0,1-2.713.281ZM72.934,81.371c-4.054.9-7.421,3.991-9.417,8.7A27.493,27.493,0,0,0,62.363,106.6c2.651,12.037,11.725,20.3,20.206,18.429S95.791,111.836,93.141,99.8,81.416,79.5,72.934,81.371h0Z" transform="translate(56.012 -71.311)"/>
        <path id="Path_6797" data-name="Path 6797" d="M70.882,85.89s5.987,7.484,7.92,11.849a1.167,1.167,0,0,1-.78,1.621c-2.12.624-6.392,1.777-8.232,1.653C67.327,100.858,70.882,85.89,70.882,85.89Z" transform="translate(74.404 -58.213)" fill="#fff"/>
        <path id="Path_6798" data-name="Path 6798" d="M70.523,102.79h-.312a1.191,1.191,0,0,1-.967-.561c-1.621-2.183.9-13.253,1.4-15.435l.343-1.4.9,1.123c.249.312,6.049,7.609,8.014,12.005a1.938,1.938,0,0,1,0,1.559,1.858,1.858,0,0,1-1.185,1.029,38.26,38.26,0,0,1-8.139,1.684Zm1.154-14.25c-1.434,6.486-2.027,12.224-1.31,12.878,1.185.094,4.085-.53,7.92-1.653a.407.407,0,0,0,.312-.281.463.463,0,0,0,0-.405c-1.434-3.243-5.176-8.295-6.923-10.54Z" transform="translate(73.952 -59.272)"/>
        <path id="Path_6799" data-name="Path 6799" d="M71.5,107.467s1.559-4.085,2.962-8.669c1.434-4.553,7.359-4.241,11.662-1.965s11.257,3.118,16.09.374c3.68-2.12,8.076-9.6,1.247-14.749C97.23,77.812,81.2,76.346,76.181,77.282,67.076,79,56.318,90.909,58.22,101.979c1.341,7.8,5.706,20.206,12.068,20.05-1.653-8.2-1.341-9.355,1.216-14.562Z" transform="translate(51.268 -77.014)"/>
        <path id="Path_6800" data-name="Path 6800" d="M66.783,88.189s-3.4-3.648-5.987-.748c-2.588,2.931,1.4,12.255,5.831,9.168s.156-8.419.156-8.419Z" transform="translate(55.459 -57.3)" fill="#fff"/>
        <path id="Path_6801" data-name="Path 6801" d="M65.283,98.407a4.349,4.349,0,0,1-3.212-1.653c-2.152-2.432-3.243-7.11-1.31-9.292a3.648,3.648,0,0,1,2.806-1.372H63.6c2.214,0,4.085,2,4.178,2.089h.031c.094.156,2.37,3.056,1.933,6.018A5,5,0,0,1,67.5,97.659a3.856,3.856,0,0,1-2.214.748ZM63.568,87.493h0a2.37,2.37,0,0,0-1.777.9c-1.247,1.434-.561,5.3,1.31,7.421.811.9,2.058,1.746,3.586.686a3.708,3.708,0,0,0,1.684-2.526c.312-2.245-1.434-4.646-1.653-4.9a5.23,5.23,0,0,0-3.149-1.621Z" transform="translate(54.994 -57.789)"/>
        <path id="Path_6802" data-name="Path 6802" d="M63.6,108.836c-1.59-2.651-1.871-4.3-2-7.577a38.719,38.719,0,0,0,1.434-15.9c-.187-1.5,2.152-.624,2.152-.624s8.949,29.281,25.695,18.335c0,0,.936,8.045-1.31,10.789-5.488,6.7-17.743,4.054-21.485,1.091A23.728,23.728,0,0,1,63.6,108.836Z" transform="translate(58.896 -61.202)"/>
        <path id="Path_6803" data-name="Path 6803" d="M75.537,89.04s-2.869,13.066-2.651,15.342c0,0-5.987-1.434-5.332-9.667.655-8.263,3.867-10.914,5.894-9.667s2.089,4.023,2.089,4.023Z" transform="translate(71.402 -60.614)" fill="#fff"/>
        <path id="Path_6804" data-name="Path 6804" d="M44.27,154.352s37.513-9.511,52.387-43.812L52.284,121.547,45.891,144.81c-.561,2.775-1.091,6.049-1.621,9.542Z" transform="translate(22.186 -5.997)"/>
        <g id="Group_2744" data-name="Group 2744" transform="translate(0 67.37)">
          <path id="Path_6805" data-name="Path 6805" d="M43.53,144.469c2.214,3.492,13.284,14.406,25.882,20.082a10.8,10.8,0,0,0,5.363.686,7.374,7.374,0,0,0,4.865-2.152,7.611,7.611,0,0,0,1.653-5.551,12.162,12.162,0,0,0-3.68-7.92,1.667,1.667,0,0,1-.592-.811,2.178,2.178,0,0,1,.374-1.279,4.113,4.113,0,0,0-.967-4.334,10.226,10.226,0,0,0-3.991-2.4c-5.8-2.245-12.037-3.056-18.211-3.8a15.575,15.575,0,0,0-6.58.187Z" transform="translate(20.618 -17.896)" fill="#fff"/>
          <path id="Path_6806" data-name="Path 6806" d="M29.949,167.193c-19.707,30.31,6.86,46.119,22.982,55.661,12.972,7.671,25.1,13.377,34.457,12.005,10.29-1.5,11.319-7.983,14.095-17.587-13.689-2.058-19.271-12.66-23.449-19.926-6.205-10.758-2.463-18.616,17.961-30.278,18.024-10.29,56.129-24.853,50.017-51.545C133.881,62.637,41.393,149.107,29.98,167.161Z" transform="translate(-22.958 -98.619)" fill="#f40"/>
        </g>
      </g>
    </g>
    <g id="Camada_5" transform="translate(242.83 110.982)">
      <g id="Group_2748" data-name="Group 2748" transform="translate(348.679 370.557)">
        <path id="Path_6807" data-name="Path 6807" d="M287.711,212.005c-8.887-27.534-33.958-45.839-56.285-38.635-9.823,3.181-13.346,4.3-13.346,4.3L248.67,279.3s7.764-2.152,14.749-4.4c22.327-7.2,33.178-35.361,24.291-62.9Z" transform="translate(-174.421 -163.005)"/>
        <ellipse id="Ellipse_128" data-name="Ellipse 128" cx="44.498" cy="52.543" rx="44.498" ry="52.543" transform="translate(0 32.515) rotate(-21.43)" fill="#f40"/>
        <g id="Group_2747" data-name="Group 2747" transform="translate(14.594 12.748)">
          <g id="Group_2746" data-name="Group 2746">
            <path id="Path_6808" data-name="Path 6808" d="M254.319,276.11c-24.7-3.274-44.591-28.688-44.342-56.628s20.549-47.99,45.246-44.685c24.7,3.274,44.591,28.688,44.342,56.628s-20.549,47.99-45.246,44.685m.9-102.685c-25.383-3.368-46.213,17.213-46.462,45.9s20.175,54.757,45.558,58.156,46.213-17.213,46.462-45.9-20.175-54.788-45.558-58.156" transform="translate(-208.759 -173.064)"/>
            <path id="Path_6809" data-name="Path 6809" d="M252.7,271.523c-23.356-3.118-42.19-27.129-41.941-53.572s19.427-45.4,42.783-42.284,42.19,27.129,41.941,53.572-19.427,45.4-42.783,42.284m.873-97.228c-24.042-3.212-43.78,16.308-44.03,43.5-.249,27.16,19.115,51.888,43.157,55.1s43.78-16.309,44.03-43.5-19.115-51.919-43.157-55.1" transform="translate(-207.107 -171.19)"/>
            <path id="Path_6810" data-name="Path 6810" d="M249.044,261.093c-20.362-2.713-36.733-23.636-36.546-46.649s16.932-39.54,37.263-36.827c20.362,2.713,36.733,23.636,36.546,46.649-.218,23.013-16.932,39.54-37.263,36.827m.748-84.848c-21.017-2.806-38.292,14.282-38.511,38.043S228,259.659,249.013,262.465s38.292-14.282,38.511-38.043-16.714-45.4-37.731-48.208" transform="translate(-203.421 -166.966)"/>
            <path id="Path_6811" data-name="Path 6811" d="M215.963,224.828a.95.95,0,0,1-.748-.967.72.72,0,0,1,.78-.78.643.643,0,0,1,.53.312l.312.374-.062.312a.72.72,0,0,1-.78.78m.343-40.288a.95.95,0,0,1-.748-.967.72.72,0,0,1,.78-.78.976.976,0,0,1,.78.967l.062.312-.312.281a1.182,1.182,0,0,1-.53.156m0-3.118a1.833,1.833,0,0,0-2,2,2.512,2.512,0,0,0,1.964,2.526,1.619,1.619,0,0,0,.873-.125l5.706,7.3,3.555.468-6.891,10.7,6.7,12.5-3.555-.468-5.831,5.769a1.779,1.779,0,0,0-.873-.343,1.833,1.833,0,0,0-2,2,2.512,2.512,0,0,0,1.965,2.526,1.833,1.833,0,0,0,2-2,.749.749,0,0,0-.561-.748l5.8-5.738,5.332.717-7.484-14,7.7-11.943-5.332-.717-5.675-7.266a.567.567,0,0,0,.561-.592,2.512,2.512,0,0,0-1.965-2.526" transform="translate(-197.594 -155.398)"/>
            <path id="Path_6812" data-name="Path 6812" d="M215.557,214.469a.72.72,0,0,1-.593-.748.555.555,0,0,1,.593-.592.589.589,0,0,1,.405.218l.218.281v.249c-.062.374-.312.624-.624.593m.281-28.439a.739.739,0,0,1-.624-.717.555.555,0,0,1,.592-.592.7.7,0,0,1,.561.748v.249l-.187.218a.389.389,0,0,1-.374.094m0-2.682A1.669,1.669,0,0,0,214,185.157a2.245,2.245,0,0,0,1.777,2.276,2.035,2.035,0,0,0,.748-.062l4.366,5.582-4.74,6.735,4.615,7.983-4.459,4.4a1.574,1.574,0,0,0-.717-.281,1.645,1.645,0,0,0-1.809,1.777,2.245,2.245,0,0,0,1.777,2.276,1.669,1.669,0,0,0,1.809-1.809.789.789,0,0,0-.405-.717l5.395-5.332-4.677-8.139,4.833-6.86-5.3-6.767a.592.592,0,0,0,.405-.592,2.245,2.245,0,0,0-1.777-2.276" transform="translate(-198.124 -151.306)"/>
            <path id="Path_6813" data-name="Path 6813" d="M220.7,198.44a.769.769,0,0,0-.374.094.671.671,0,0,0-.125.935l2.339,4.023v1.559a1.759,1.759,0,0,0-.624.343,2.126,2.126,0,0,0,0,2.775,1.729,1.729,0,0,0,1.216.717,1.531,1.531,0,0,0,1.216-.405,1.859,1.859,0,0,0,.53-1.341.748.748,0,0,0-.592-.748.587.587,0,0,0-.624.624.479.479,0,0,1-.156.405.5.5,0,0,1-.374.125.475.475,0,0,1-.374-.218.7.7,0,0,1,0-.842.4.4,0,0,1,.374-.125l.592.062V203.18l-2.526-4.4a.775.775,0,0,0-.5-.343" transform="translate(-184.804 -119.312)"/>
            <path id="Path_6814" data-name="Path 6814" d="M229.756,199.31a.621.621,0,0,0-.5.218l-2.651,3.711v3.243l.561.094a.472.472,0,0,1,.343.218.658.658,0,0,1,0,.842.4.4,0,0,1-.374.125.579.579,0,0,1-.374-.218.745.745,0,0,1-.156-.437.778.778,0,0,0-.592-.78h-.094c-.312-.031-.53.249-.53.624a2.258,2.258,0,0,0,.5,1.466,1.729,1.729,0,0,0,1.216.717,1.531,1.531,0,0,0,1.216-.405,2.126,2.126,0,0,0,0-2.775,1.81,1.81,0,0,0-.592-.5v-1.559l2.432-3.368a.764.764,0,0,0-.125-.967.849.849,0,0,0-.374-.187" transform="translate(-173.531 -117.469)"/>
            <path id="Path_6815" data-name="Path 6815" d="M219.85,207.478a1.152,1.152,0,0,1-.9-1.154.849.849,0,0,1,.9-.9.513.513,0,0,0,.312-.062l.343.468a1.268,1.268,0,0,1,.249.748.834.834,0,0,1-.9.9m31.432,4.178a1.152,1.152,0,0,1-.9-1.154,1.027,1.027,0,0,1,.249-.686l.343-.374a1.356,1.356,0,0,0,.312.156,1.152,1.152,0,0,1,.9,1.154.849.849,0,0,1-.9.9m-3.087-13.44-12.691,19.3L223.186,194.88l-.062,7.484-2.619,2.588v-.125a.72.72,0,0,0-.592-.748,1.97,1.97,0,0,0-2.152,2.12,2.625,2.625,0,0,0,2.089,2.682,1.984,1.984,0,0,0,2.152-2.12,2.672,2.672,0,0,0-.218-1.123l2.557-2.526v-3.555L235.5,220.013l11.444-17.431v3.555l2.463,3.181a2.411,2.411,0,0,0-.25,1.06,2.679,2.679,0,0,0,2.089,2.682,1.984,1.984,0,0,0,2.152-2.12,2.624,2.624,0,0,0-2.089-2.682.564.564,0,0,0-.624.592v.125l-2.557-3.274.062-7.484" transform="translate(-189.694 -126.853)"/>
            <path id="Path_6816" data-name="Path 6816" d="M227.246,177.952a1.4,1.4,0,0,0-1.216.405,1.859,1.859,0,0,0-.53,1.341.748.748,0,0,0,.593.748h0a.565.565,0,0,0,.592-.624.479.479,0,0,1,.156-.405.429.429,0,0,1,.374-.125.666.666,0,0,1,.374.218.745.745,0,0,1,.156.437.593.593,0,0,1-.156.405.5.5,0,0,1-.374.125l-.592-.062v3.243l2.526,4.4a.776.776,0,0,0,.5.343.562.562,0,0,0,.374-.094.676.676,0,0,0,.125-.935l-2.339-4.023v-1.559a1.454,1.454,0,0,0,.624-.374,1.737,1.737,0,0,0,.53-1.31,2.517,2.517,0,0,0-.5-1.466,1.911,1.911,0,0,0-1.216-.748" transform="translate(-173.298 -162.842)"/>
            <path id="Path_6817" data-name="Path 6817" d="M223.306,177.281a1.4,1.4,0,0,0-1.216.405,2.126,2.126,0,0,0,0,2.775,1.913,1.913,0,0,0,.592.53v1.559l-2.432,3.368a.764.764,0,0,0,.125.967.711.711,0,0,0,.374.187.621.621,0,0,0,.5-.218l2.651-3.711V179.9l-.561-.094c-.125,0-.249-.125-.343-.218a.659.659,0,0,1,0-.842.4.4,0,0,1,.374-.125.578.578,0,0,1,.374.218.745.745,0,0,1,.156.437.778.778,0,0,0,.592.78.58.58,0,0,0,.624-.592,2.258,2.258,0,0,0-.5-1.466,1.911,1.911,0,0,0-1.216-.748" transform="translate(-184.668 -164.198)"/>
            <path id="Path_6818" data-name="Path 6818" d="M220.332,187.3a1.355,1.355,0,0,0-.312-.156,1.152,1.152,0,0,1-.9-1.154.849.849,0,0,1,.9-.9,1.184,1.184,0,0,1,.9,1.154,1.089,1.089,0,0,1-.25.686l-.343.374m30.777,4.085-.343-.468a1.269,1.269,0,0,1-.25-.748.834.834,0,0,1,.9-.9,1.152,1.152,0,0,1,.9,1.154.849.849,0,0,1-.9.9.513.513,0,0,0-.312.062M235.829,176.79l-11.444,17.431V190.7l-2.463-3.181a2.411,2.411,0,0,0,.249-1.06,2.679,2.679,0,0,0-2.089-2.682,1.984,1.984,0,0,0-2.152,2.12,2.625,2.625,0,0,0,2.089,2.682.564.564,0,0,0,.624-.592v-.125l2.557,3.274-.062,7.484,12.691-19.3,12.317,22.639.062-7.484,2.619-2.588v.125a.72.72,0,0,0,.592.748,1.97,1.97,0,0,0,2.152-2.12,2.625,2.625,0,0,0-2.089-2.682,1.984,1.984,0,0,0-2.152,2.12,2.771,2.771,0,0,0,.218,1.123l-2.557,2.526v3.524l-11.163-20.425" transform="translate(-189.334 -165.172)"/>
            <path id="Path_6819" data-name="Path 6819" d="M214.452,204.129s-.125-.062-.125-.125l.125-.094h.062l.031.062v.062s-.062.094-.125.094m.156-17.306-.125-.156.125-.094.125.125h0l-.125.125m0-1.622a1.219,1.219,0,0,0-1.341,1.31,1.752,1.752,0,0,0,1.341,1.684h.374l2.432,3.118-2.619,4.085,2.557,4.771-2.495,2.463s-.249-.094-.374-.125a1.256,1.256,0,0,0-1.372,1.31,1.668,1.668,0,0,0,1.31,1.684,1.242,1.242,0,0,0,1.341-1.341,1.016,1.016,0,0,0-.125-.437l3.243-3.212-2.651-4.958,2.744-4.241-3.181-4.054a1.227,1.227,0,0,0,.125-.405,1.668,1.668,0,0,0-1.31-1.684" transform="translate(-199.607 -147.421)"/>
            <path id="Path_6820" data-name="Path 6820" d="M240.773,227.23a.976.976,0,0,1-.78-.967l-.062-.312.312-.281a1.611,1.611,0,0,1,.53-.187.95.95,0,0,1,.748.967.72.72,0,0,1-.78.78m.343-40.288a.688.688,0,0,1-.53-.312l-.312-.374.062-.312a.72.72,0,0,1,.78-.78.95.95,0,0,1,.748.967.7.7,0,0,1-.78.748m0-3.118a1.833,1.833,0,0,0-2,2,.749.749,0,0,0,.561.748l-5.8,5.738-5.3-.717L236,205.5l-7.7,11.974,5.3.717,5.675,7.266a.541.541,0,0,0-.593.592,2.512,2.512,0,0,0,1.965,2.526,1.833,1.833,0,0,0,2-2,2.512,2.512,0,0,0-1.965-2.526,1.619,1.619,0,0,0-.873.125l-5.706-7.3-3.555-.468,6.891-10.7-6.7-12.5,3.555.468,5.831-5.769a1.779,1.779,0,0,0,.873.343,1.833,1.833,0,0,0,2-2,2.512,2.512,0,0,0-1.964-2.526" transform="translate(-167.367 -150.471)"/>
            <path id="Path_6821" data-name="Path 6821" d="M237.142,216.869a.684.684,0,0,1-.561-.717v-.25l.187-.218a.389.389,0,0,1,.374-.094.739.739,0,0,1,.624.717.556.556,0,0,1-.592.592m.218-28.439a1.29,1.29,0,0,1-.343-.187l-.218-.281v-.218a.6.6,0,0,1,.624-.592.748.748,0,0,1,.592.748.555.555,0,0,1-.624.561m.062-2.682a1.669,1.669,0,0,0-1.809,1.809.709.709,0,0,0,.405.686l-5.426,5.332,4.677,8.139-4.833,6.86,5.3,6.767a.648.648,0,0,0-.437.592,2.245,2.245,0,0,0,1.777,2.276,1.669,1.669,0,0,0,1.809-1.809,2.245,2.245,0,0,0-1.777-2.276,2.034,2.034,0,0,0-.748.062l-4.366-5.582,4.74-6.735-4.615-7.983,4.459-4.4a1.574,1.574,0,0,0,.717.281,1.66,1.66,0,0,0,1.809-1.777,2.269,2.269,0,0,0-1.777-2.276" transform="translate(-162.707 -146.129)"/>
            <path id="Path_6822" data-name="Path 6822" d="M236.476,206.81s-.125-.062-.125-.125l.125-.125.125.156s-.062.094-.125.094m.156-17.306h-.125v-.094c0-.062.062-.094.125-.094a.134.134,0,0,1,.125.125c0,.062,0,.094-.125.094m0-1.622a1.219,1.219,0,0,0-1.341,1.31,1.016,1.016,0,0,0,.125.437L232.2,192.84l2.651,4.958-2.744,4.241,3.149,4.054a1.227,1.227,0,0,0-.125.405,1.668,1.668,0,0,0,1.31,1.684,1.242,1.242,0,0,0,1.341-1.341,1.724,1.724,0,0,0-1.341-1.684h-.374l-2.432-3.118,2.619-4.085-2.557-4.771,2.495-2.463s.249.094.374.125a1.281,1.281,0,0,0,1.372-1.341,1.668,1.668,0,0,0-1.31-1.684" transform="translate(-159.296 -141.808)"/>
            <path id="Path_6823" data-name="Path 6823" d="M235.956,184.162V181.7l16.028,28.844-1.279.53h0a.96.96,0,0,1,.125,1.091l-1.871,2.619,2.152-.842-15.654,23.605v-2.463L222.422,211.26l12.66,8.544a1.133,1.133,0,0,0,.53.218v-2.9l-14.874-10.041,15.186-22.919m.031-3.773a.97.97,0,0,0-1,.437L217.932,206.52v.094a1.916,1.916,0,0,0-.156.343v.156a1.522,1.522,0,0,0,.156.967l16.527,30.154a1.412,1.412,0,0,0,1,.748.99.99,0,0,0,1-.468l17.026-25.695a1.487,1.487,0,0,0,.187-.9v-.156s-.094-.25-.156-.374v-.094l-16.558-30.154a1.385,1.385,0,0,0-1-.686" transform="translate(-189.71 -157.577)"/>
            <path id="Path_6824" data-name="Path 6824" d="M223.8,180.81v2.432l-.312,32.96,15.061-6.049,1.278-.53L223.8,180.81" transform="translate(-177.556 -156.657)"/>
            <path id="Path_6825" data-name="Path 6825" d="M239.084,191.14l-2.152.842-13.346,5.239-.125,15.092-.031,2.432,15.654-23.605" transform="translate(-177.683 -134.775)"/>
          </g>
        </g>
      </g>
      <g id="Group_2757" data-name="Group 2757" transform="translate(0 45.531)">
        <path id="Path_6826" data-name="Path 6826" d="M93.1,107.567c3.867,17.774,20.144,29.717,36.265,26.193,2.682-.592,10.446-2.245,10.446-2.245L123.379,66.78s-5.488,1.279-8.2,1.871C99.087,72.143,89.234,89.762,93.1,107.536Z" transform="translate(-92.261 -60.428)"/>
        <ellipse id="Ellipse_129" data-name="Ellipse 129" cx="29.842" cy="32.898" rx="29.842" ry="32.898" transform="translate(3.678 12.694) rotate(-12.28)" fill="#f40"/>
        <g id="Group_2756" data-name="Group 2756" transform="translate(9.429 5.347)">
          <path id="Path_6827" data-name="Path 6827" d="M133.157,132.26c-16.277,3.711-32.867-7.858-36.951-25.819s5.8-35.579,22.077-39.29,32.867,7.858,36.951,25.819S149.435,128.549,133.157,132.26ZM118.47,67.992C102.629,71.61,92.994,88.76,96.985,106.254S117.129,135,132.97,131.387s25.476-20.768,21.485-38.261C150.464,75.663,134.311,64.375,118.47,67.992Z" transform="translate(-95.285 -66.458)"/>
          <path id="Path_6828" data-name="Path 6828" d="M131.687,129.367c-15.4,3.524-31.12-7.453-35.018-24.447s5.488-33.708,20.924-37.232,31.12,7.453,35.018,24.447-5.488,33.708-20.924,37.232ZM117.78,68.529c-15,3.43-24.1,19.645-20.331,36.2,3.773,16.527,19.053,27.191,34.02,23.761s24.1-19.645,20.331-36.2c-3.773-16.527-19.053-27.191-34.02-23.761Z" transform="translate(-94.22 -65.248)"/>
          <path id="Path_6829" data-name="Path 6829" d="M128.343,122.808c-13.471,3.087-27.222-6.517-30.621-21.391s4.8-29.468,18.3-32.555,27.222,6.517,30.621,21.391S141.845,119.721,128.343,122.808Zm-12.13-53.1C103.148,72.7,95.227,86.823,98.5,101.23s16.589,23.7,29.655,20.705,20.986-17.119,17.712-31.526S129.279,66.711,116.213,69.7Z" transform="translate(-91.749 -62.588)"/>
          <g id="Group_2749" data-name="Group 2749" transform="translate(13.651 14.725)">
            <path id="Path_6830" data-name="Path 6830" d="M120.9,82.113c-.125.218-.218.468-.343.686-2.245,3.991-4.49,8.014-6.735,12.005-.405.686-.624.748-1.279.312-1.091-.748-2.183-1.528-3.274-2.276a.807.807,0,0,1-.281-1.279c1.372-2.463,2.775-4.927,4.147-7.39.281-.5.249-.624-.218-.935-2.308-1.621-4.615-3.243-6.923-4.833-.592-.405-.655-.717-.312-1.341.655-1.185,1.31-2.37,2-3.524.312-.53.624-.624,1.123-.281,3.867,2.713,7.764,5.426,11.631,8.139.125.094.249.218.374.312l.094.437Z" transform="translate(-87.354 -67.208)"/>
            <path id="Path_6831" data-name="Path 6831" d="M105.7,71.211c.218.125.437.249.624.374,1.06.748,2.12,1.466,3.181,2.214a.823.823,0,0,1,.312,1.247c-.686,1.185-1.341,2.4-2.027,3.586-.312.53-.592.624-1.123.249-1.123-.78-2.276-1.59-3.4-2.37a.79.79,0,0,1-.281-1.185c.686-1.216,1.372-2.463,2.058-3.68a2.6,2.6,0,0,1,.249-.374,2.461,2.461,0,0,0,.405-.094Z" transform="translate(-92.954 -71.18)"/>
            <path id="Path_6832" data-name="Path 6832" d="M111.848,77.107a4.173,4.173,0,0,1-.281.748c-1.372,2.463-2.744,4.9-4.116,7.359-.312.561-.281.655.218,1.029,2.276,1.59,4.584,3.212,6.86,4.8.592.405.686.748.312,1.372-.655,1.154-1.31,2.339-1.965,3.492-.312.592-.624.655-1.154.249-3.867-2.682-7.7-5.395-11.569-8.076a.792.792,0,0,1-.281-1.279c2.308-4.116,4.615-8.2,6.923-12.317.312-.53.624-.624,1.123-.281,1.123.78,2.276,1.59,3.4,2.37a2.753,2.753,0,0,1,.5.53Z" transform="translate(-99.662 -65.195)"/>
            <path id="Path_6833" data-name="Path 6833" d="M111.093,78.947a2.714,2.714,0,0,1-.156.592c-.717,1.279-1.4,2.557-2.152,3.8a.613.613,0,0,1-.967.218c-1.185-.811-2.37-1.653-3.555-2.495a.741.741,0,0,1-.249-1.06c.717-1.247,1.4-2.526,2.12-3.773a.611.611,0,0,1,1-.218c1.185.811,2.339,1.621,3.524,2.463a1.515,1.515,0,0,1,.405.468Z" transform="translate(-90.706 -61.297)"/>
            <path id="Path_6834" data-name="Path 6834" d="M109.44,88.44a2.1,2.1,0,0,1-.53-.187c-1.185-.811-2.4-1.653-3.586-2.495a.771.771,0,0,1-.249-1.091c.717-1.279,1.4-2.526,2.12-3.773a.584.584,0,0,1,.967-.218c1.185.842,2.4,1.653,3.586,2.495a.728.728,0,0,1,.218,1.06c-.717,1.279-1.434,2.557-2.152,3.8a2.591,2.591,0,0,1-.405.437Z" transform="translate(-88.461 -51.426)"/>
          </g>
          <g id="Group_2751" data-name="Group 2751" transform="translate(33.567 10.542)">
            <g id="Group_2750" data-name="Group 2750" transform="translate(10.727 8.06)">
              <path id="Path_6835" data-name="Path 6835" d="M117.474,92.744a1.24,1.24,0,0,1-1.434-1,.429.429,0,0,1,.156-.468L111.519,88a.489.489,0,0,1-.156-.592l2.432-4.521L109.679,79.8a.444.444,0,0,1-.125-.592l2.744-4.9a.4.4,0,0,1-.343-.343,1.22,1.22,0,0,1,.873-1.528,1.249,1.249,0,0,1,1.434,1,1.234,1.234,0,0,1-.873,1.528,1.342,1.342,0,0,1-.5,0l-2.432,4.366,4.116,3.087a.444.444,0,0,1,.125.592l-2.432,4.521,4.178,2.9a1.8,1.8,0,0,1,.437-.218,1.3,1.3,0,0,1,.561,2.526Zm-.748-1.372.094.187a.437.437,0,0,0,.468.343.388.388,0,0,0,.281-.5.38.38,0,0,0-.686-.156c-.031.062-.094.094-.125.125ZM112.766,74a.308.308,0,0,1,.187.062.387.387,0,0,0,.561-.437.437.437,0,0,0-.468-.343.388.388,0,0,0-.281.5Z" transform="translate(-109.489 -72.423)"/>
              <path id="Path_6836" data-name="Path 6836" d="M113.083,83.529a.637.637,0,0,1-.281-.062.489.489,0,0,1-.156-.592L115.11,78.2l-4.241-3.149a.476.476,0,0,1-.125-.624.375.375,0,0,1,.561-.094l4.9,3.617-2.838,5.395s-.156.187-.249.187Z" transform="translate(-106.968 -68.571)"/>
            </g>
            <path id="Path_6837" data-name="Path 6837" d="M114.5,91.732h0a1.175,1.175,0,0,1-1-.218,1.38,1.38,0,0,1-.592-.9,1.282,1.282,0,0,1,0-.686l-4.677-3.274a.444.444,0,0,1-.125-.592l4.21-7.453a.382.382,0,0,1,.561-.125l4.677,3.274a1.78,1.78,0,0,1,.561-.281h0a1.291,1.291,0,0,1,1,.218,1.38,1.38,0,0,1,.592.9,1.659,1.659,0,0,1-.156,1.091,1.233,1.233,0,0,1-1.809.405.444.444,0,0,1-.125-.592.406.406,0,0,1,.561-.125.51.51,0,0,0,.717-.156.686.686,0,0,0,.062-.437.552.552,0,0,0-.218-.343.523.523,0,0,0-.374-.094h0a.87.87,0,0,0-.312.249.485.485,0,0,1-.249.187h0a.749.749,0,0,1-.312-.062l-4.646-3.243-3.773,6.735,4.646,3.243a.823.823,0,0,1,.187.281.648.648,0,0,1-.031.343.686.686,0,0,0-.062.437.552.552,0,0,0,.218.343.523.523,0,0,0,.374.094h0a.87.87,0,0,0,.312-.249.6.6,0,0,0-.187-.78.444.444,0,0,1-.125-.592.382.382,0,0,1,.561-.125,1.563,1.563,0,0,1,.468,2,1.351,1.351,0,0,1-.811.624Z" transform="translate(-101.834 -51.689)"/>
            <path id="Path_6838" data-name="Path 6838" d="M113.567,82.722a.749.749,0,0,1-.312-.062l-7.016-4.9a.444.444,0,0,1-.125-.592l2.806-4.989a1.573,1.573,0,0,1-.156-1.684,1.351,1.351,0,0,1,.811-.624h0a1.175,1.175,0,0,1,1,.218,1.38,1.38,0,0,1,.592.9,1.659,1.659,0,0,1-.156,1.091.382.382,0,0,1-.561.125.444.444,0,0,1-.125-.592.686.686,0,0,0,.062-.437.552.552,0,0,0-.218-.343.523.523,0,0,0-.374-.094h0a.87.87,0,0,0-.312.249.6.6,0,0,0,.187.78.444.444,0,0,1,.125.592L107.018,77.3l6.33,4.428,2.775-4.927a.406.406,0,0,1,.561-.125.51.51,0,0,0,.717-.156.6.6,0,0,0-.187-.78.51.51,0,0,0-.717.156.382.382,0,0,1-.561.125.444.444,0,0,1-.125-.592,1.233,1.233,0,0,1,1.809-.405,1.563,1.563,0,0,1,.468,2,1.237,1.237,0,0,1-1.434.592L113.847,82.6a.993.993,0,0,1-.249.187Z" transform="translate(-106.049 -69.838)"/>
          </g>
          <g id="Group_2753" data-name="Group 2753" transform="translate(7.22 15.593)">
            <g id="Group_2752" data-name="Group 2752" transform="translate(0 11.958)">
              <path id="Path_6839" data-name="Path 6839" d="M103.211,95.614a1.3,1.3,0,0,1-.561-2.526,1.342,1.342,0,0,1,.5,0l2.495-4.428L101.5,85.667a.489.489,0,0,1-.156-.592l2.37-4.584-4.085-2.869a1.8,1.8,0,0,1-.437.218,1.3,1.3,0,1,1,.873-1.528.429.429,0,0,1-.156.468l4.584,3.212a.489.489,0,0,1,.156.592l-2.37,4.584,4.147,3.025a.444.444,0,0,1,.125.592l-2.806,4.958a.4.4,0,0,1,.343.343,1.22,1.22,0,0,1-.873,1.528Zm-.374-1.684a.4.4,0,0,0-.281.5.437.437,0,0,0,.468.343.388.388,0,0,0,.281-.5v-.218a.229.229,0,0,1-.187-.062.463.463,0,0,0-.281-.062ZM98.783,76.156a.4.4,0,0,0-.281.5.38.38,0,0,0,.686.156c.031-.062.094-.094.125-.125L99.22,76.5a.437.437,0,0,0-.468-.343Z" transform="translate(-97.349 -75.293)"/>
              <path id="Path_6840" data-name="Path 6840" d="M102.807,86.313a.749.749,0,0,1-.312-.062l-4.9-3.617,2.838-5.395a.379.379,0,0,1,.561-.156.489.489,0,0,1,.156.592l-2.463,4.677,4.241,3.149a.476.476,0,0,1,.125.624.485.485,0,0,1-.249.187Z" transform="translate(-97.6 -71.636)"/>
            </g>
            <path id="Path_6841" data-name="Path 6841" d="M108.748,93.111h0a1.175,1.175,0,0,1-1-.218,1.38,1.38,0,0,1-.592-.9,1.659,1.659,0,0,1,.156-1.091.382.382,0,0,1,.561-.125.444.444,0,0,1,.125.592.686.686,0,0,0-.062.437.552.552,0,0,0,.218.343.523.523,0,0,0,.374.094h0a.87.87,0,0,0,.312-.249.6.6,0,0,0-.187-.78.444.444,0,0,1-.125-.592L111.3,85.69l-6.33-4.428L102.2,86.189a.406.406,0,0,1-.561.125.51.51,0,0,0-.717.156.6.6,0,0,0,.187.78.51.51,0,0,0,.717-.156.382.382,0,0,1,.561-.125.444.444,0,0,1,.125.592,1.233,1.233,0,0,1-1.809.405,1.563,1.563,0,0,1-.468-2,1.237,1.237,0,0,1,1.434-.592l2.806-4.989a.406.406,0,0,1,.561-.125l7.016,4.9a.444.444,0,0,1,.125.592l-2.806,4.989a1.572,1.572,0,0,1,.156,1.684,1.351,1.351,0,0,1-.811.624Z" transform="translate(-92.408 -52.943)"/>
            <path id="Path_6842" data-name="Path 6842" d="M105.421,84.9a.749.749,0,0,1-.312-.062l-4.677-3.274a1.779,1.779,0,0,1-.561.281h0a1.175,1.175,0,0,1-1-.218,1.38,1.38,0,0,1-.592-.9,1.659,1.659,0,0,1,.156-1.091,1.246,1.246,0,0,1,.811-.624h0a1.291,1.291,0,0,1,1,.218.444.444,0,0,1,.125.592.406.406,0,0,1-.561.125.431.431,0,0,0-.374-.094h0a.87.87,0,0,0-.312.249.686.686,0,0,0-.062.437.552.552,0,0,0,.218.343.523.523,0,0,0,.374.094h0a.87.87,0,0,0,.312-.249.406.406,0,0,1,.561-.125l4.646,3.243,3.773-6.735L104.3,73.864a.823.823,0,0,1-.187-.281.648.648,0,0,1,.031-.343.686.686,0,0,0,.062-.437.552.552,0,0,0-.218-.343.523.523,0,0,0-.374-.094h0a.87.87,0,0,0-.312.249.6.6,0,0,0,.187.78.444.444,0,0,1,.125.592.382.382,0,0,1-.561.125,1.563,1.563,0,0,1-.468-2,1.351,1.351,0,0,1,.811-.624h0a1.175,1.175,0,0,1,1,.218,1.38,1.38,0,0,1,.592.9,1.281,1.281,0,0,1,0,.686l4.677,3.274a.823.823,0,0,1,.187.281.648.648,0,0,1-.031.343l-4.21,7.453a.993.993,0,0,1-.249.187Z" transform="translate(-96.222 -71.458)"/>
          </g>
          <g id="Group_2754" data-name="Group 2754" transform="translate(26.113 48.68)">
            <path id="Path_6843" data-name="Path 6843" d="M121.219,87.466a1.24,1.24,0,0,1-1.434-1,1.017,1.017,0,0,1,0-.53L115.7,83.07l-2.651,4.366a.371.371,0,0,1-.53.125l-4.241-2.869-2.495,4.428a2,2,0,0,1,.218.5,1.22,1.22,0,0,1-.873,1.528,1.249,1.249,0,0,1-1.434-1,1.234,1.234,0,0,1,.873-1.528.443.443,0,0,1,.437.218l2.806-4.958a.371.371,0,0,1,.53-.125l4.241,2.869,2.651-4.366a.371.371,0,0,1,.53-.125l4.584,3.212a.37.37,0,0,1,.312-.374,1.3,1.3,0,0,1,.561,2.526Zm-.561-1.684a.308.308,0,0,1-.062.187.358.358,0,0,0-.031.312.437.437,0,0,0,.468.343.388.388,0,0,0,.281-.5.437.437,0,0,0-.468-.343h-.187ZM104.91,89.368s-.094.062-.156.094a.4.4,0,0,0-.281.5.437.437,0,0,0,.468.343.388.388,0,0,0,.281-.5c0-.094-.094-.187-.156-.249a.311.311,0,0,1-.125-.156Z" transform="translate(-103.659 -82.069)"/>
            <path id="Path_6844" data-name="Path 6844" d="M110.457,89.24,105.405,85.9a.489.489,0,0,1-.156-.592.379.379,0,0,1,.561-.156l4.4,2.9,2.713-4.521a.375.375,0,0,1,.561-.094.476.476,0,0,1,.125.624l-3.118,5.208Z" transform="translate(-100.381 -79.353)"/>
          </g>
          <g id="Group_2755" data-name="Group 2755" transform="translate(16.134 7.335)">
            <path id="Path_6845" data-name="Path 6845" d="M107.229,78.252a.749.749,0,0,1-.312-.062l-4.677-3.274a.37.37,0,0,1-.312.374,1.3,1.3,0,1,1,.873-1.528,1.017,1.017,0,0,1,0,.53l4.178,2.9,2.588-4.4a.371.371,0,0,1,.53-.125l4.3,2.775,2.432-4.334a2,2,0,0,1-.218-.5,1.22,1.22,0,0,1,.873-1.528,1.249,1.249,0,0,1,1.434,1,1.234,1.234,0,0,1-.873,1.528.443.443,0,0,1-.437-.218l-2.744,4.9a.371.371,0,0,1-.53.125l-4.3-2.775-2.588,4.428a.993.993,0,0,1-.249.187Zm-5.675-4.646a.4.4,0,0,0-.281.5.437.437,0,0,0,.468.343h.187a.229.229,0,0,1,.062-.187.357.357,0,0,0,.031-.312.437.437,0,0,0-.468-.343Zm16.121-3.68a.4.4,0,0,0-.281.5c0,.094.094.187.156.249a.311.311,0,0,1,.125.156.682.682,0,0,1,.156-.094.4.4,0,0,0,.281-.5.437.437,0,0,0-.468-.343Z" transform="translate(-100.459 -68.274)"/>
            <path id="Path_6846" data-name="Path 6846" d="M102.621,74.7a.749.749,0,0,1-.312-.062.476.476,0,0,1-.125-.624L105.3,68.81l5.052,3.337a.489.489,0,0,1,.156.592.379.379,0,0,1-.561.156l-4.4-2.9-2.713,4.521a.994.994,0,0,1-.249.187Z" transform="translate(-96.941 -68.81)"/>
          </g>
        </g>
      </g>
      <g id="Group_2758" data-name="Group 2758" transform="translate(95.317 425.456)">
        <path id="Path_6847" data-name="Path 6847" d="M166.907,186.67c-23.449-1.5-42.128,16.184-41.722,39.508s19.739,43.437,43.188,44.934,42.159-16.215,41.722-39.54-19.77-43.406-43.219-44.9" transform="translate(-117.85 -186.582)"/>
        <path id="Path_6848" data-name="Path 6848" d="M163.746,217.329a5.549,5.549,0,0,0,1.59-.187,27.9,27.9,0,0,1,4.989-1.279,12.035,12.035,0,0,1,2.12,0,11.337,11.337,0,0,1,8.731,4.865l.156.249a8.812,8.812,0,0,0-4.771,9.105c.374,4.147,2.651,7.078,6.361,9.074-.249.717-.53,1.4-.811,2.058a27.736,27.736,0,0,1-4.646,7.266,6,6,0,0,1-3.835,2.183h-.873a9.474,9.474,0,0,1-3.025-.811c-.9-.374-1.809-.78-2.713-1.091a7.573,7.573,0,0,0-2-.405A9.126,9.126,0,0,0,162,248.7c-1.154.343-2.276.655-3.43.935a4.428,4.428,0,0,1-1.279.094,4.679,4.679,0,0,1-2.713-1.154,18.931,18.931,0,0,1-2.651-2.588,31.735,31.735,0,0,1-6.673-14.656,17.8,17.8,0,0,1,.374-8.794,10.571,10.571,0,0,1,7.7-7.515,8.793,8.793,0,0,1,2.682-.249,9.835,9.835,0,0,1,3.181.748c1.154.437,2.276.935,3.4,1.466a4.093,4.093,0,0,0,1.185.281m.468-2.557a3.33,3.33,0,0,1-.78-.094,14.11,14.11,0,0,1,.156-2.307,9.337,9.337,0,0,1,8.232-7.671l.249-.062h.53c.343,4.241-1.466,7.2-4.8,9.324a6.057,6.057,0,0,1-3.586.811m.405-19.52c-19.614-1.247-35.3,13.6-34.956,33.116s16.558,36.421,36.2,37.669,35.33-13.627,34.987-33.147-16.589-36.39-36.234-37.638m1.279,72.25c-20.456-1.31-37.388-18.9-37.731-39.228s16-35.829,36.453-34.519,37.388,18.928,37.731,39.228-16,35.829-36.453,34.519m-1.372-79.079c-23.449-1.5-42.128,16.184-41.722,39.508.405,23.293,19.739,43.437,43.188,44.934s42.159-16.215,41.722-39.54c-.405-23.293-19.77-43.406-43.219-44.9" transform="translate(-122.828 -183.002)" fill="#f40"/>
        <path id="Path_6849" data-name="Path 6849" d="M162.265,262.364c-19.614-1.247-35.86-18.148-36.2-37.669s15.342-34.363,34.956-33.116,35.891,18.117,36.234,37.638-15.373,34.394-34.987,33.147m-1.279-72.281c-20.456-1.31-36.8,14.188-36.453,34.519s17.306,37.949,37.731,39.228,36.8-14.188,36.453-34.519-17.275-37.949-37.731-39.228" transform="translate(-119.226 -179.33)"/>
        <path id="Path_6850" data-name="Path 6850" d="M145.018,193.561h-.78a9.273,9.273,0,0,0-8.232,7.671,18.7,18.7,0,0,0-.156,2.307c.281.031.53.062.78.094a5.836,5.836,0,0,0,3.586-.811,9.391,9.391,0,0,0,4.8-9.292" transform="translate(-95.244 -171.863)"/>
        <path id="Path_6851" data-name="Path 6851" d="M157.465,197.834c-.686-.031-1.4-.031-2.12,0a28.593,28.593,0,0,0-4.989,1.279,3.983,3.983,0,0,1-1.59.187,2.854,2.854,0,0,1-1.185-.281c-1.123-.5-2.245-1-3.4-1.466a9.835,9.835,0,0,0-3.181-.748,7.775,7.775,0,0,0-2.682.249,10.622,10.622,0,0,0-7.7,7.515,18.169,18.169,0,0,0-.374,8.794,31.735,31.735,0,0,0,6.673,14.656,18.926,18.926,0,0,0,2.651,2.588,4.764,4.764,0,0,0,2.713,1.154,6.031,6.031,0,0,0,1.279-.094c1.154-.281,2.276-.592,3.43-.935a9.035,9.035,0,0,1,3.025-.343,6.69,6.69,0,0,1,2,.405c.935.312,1.809.717,2.713,1.091a9.47,9.47,0,0,0,3.025.811h.873a5.941,5.941,0,0,0,3.835-2.183,26.96,26.96,0,0,0,4.646-7.266c.281-.686.53-1.372.811-2.058-3.742-2-5.987-4.927-6.361-9.074a8.833,8.833,0,0,1,4.771-9.105l-.156-.249a11.338,11.338,0,0,0-8.731-4.865" transform="translate(-107.878 -164.973)"/>
      </g>
      <g id="Group_2759" data-name="Group 2759" transform="translate(115.525)">
        <path id="Path_6852" data-name="Path 6852" d="M157.709,50.2c-15.186-.967-27.316,10.509-27.035,25.6s12.816,28.158,28,29.125,27.316-10.509,27.067-25.632-12.816-28.158-28.033-29.125" transform="translate(-126.428 -50.142)"/>
        <path id="Path_6853" data-name="Path 6853" d="M147.243,63.266h.249c1.715.062,3.4.187,5.083.281.218,0,.312.094.374.312q2.806,7.3,5.644,14.593l.125.281a8.336,8.336,0,0,1,.281.811c.655,1.653,1.279,3.305,1.9,4.958.78,2,1.528,3.991,2.308,5.987.468,1.154.9,2.308,1.372,3.492v.062c-1.871-.125-3.711-.249-5.582-.343l-4.4-11.413c-.468-1.247-.967-2.495-1.434-3.742v.405c.062,4.8.156,9.573.249,14.375l-5.613-.343-.5-29.281v-.374m14.063.842c.842.062,1.653.094,2.495.156.218,0,.281.062.281.312.156,9.729.343,19.458.5,29.187v.218c-.468-1.185-.9-2.339-1.372-3.492-.78-2-1.528-3.991-2.308-5.987-.655-1.653-1.279-3.305-1.9-4.958-.094-.281-.187-.53-.281-.811v-.405c-.062-4.677-.156-9.386-.249-14.063,0-.312.062-.343.343-.312.842.062,1.653.125,2.495.156m-4.958-8.295a20.911,20.911,0,0,0-22.67,21.485c.218,12.66,10.758,23.605,23.481,24.416a20.936,20.936,0,0,0,22.7-21.485c-.218-12.66-10.758-23.605-23.481-24.416m.811,46.868C144,101.9,133.024,90.488,132.774,77.3s10.384-23.231,23.636-22.389,24.229,12.255,24.478,25.445-10.353,23.231-23.636,22.389m-.9-51.264c-15.186-.967-27.316,10.509-27.035,25.6s12.816,28.158,28,29.125S184.631,95.7,184.382,80.572s-12.816-28.158-28.033-29.125" transform="translate(-129.308 -47.43)" fill="#f40"/>
        <path id="Path_6854" data-name="Path 6854" d="M154.861,99.421C142.138,98.61,131.6,87.665,131.38,75.005A20.911,20.911,0,0,1,154.05,53.52c12.723.811,23.262,11.756,23.481,24.416a20.92,20.92,0,0,1-22.7,21.485m-.811-46.868a21.811,21.811,0,0,0-23.636,22.389c.218,13.19,11.226,24.6,24.478,25.445A21.811,21.811,0,0,0,178.5,78c-.218-13.19-11.195-24.6-24.478-25.445" transform="translate(-127.041 -45.138)"/>
        <path id="Path_6855" data-name="Path 6855" d="M140.392,55.522c-1.684-.094-3.4-.218-5.083-.312h-.249c.468,1.185.9,2.37,1.372,3.524.78,2,1.528,4.023,2.308,6.018.655,1.653,1.279,3.274,1.9,4.927.094.281.187.561.281.811.468,1.247.967,2.495,1.434,3.742l4.4,11.413,5.613.343v-.062c-.468-1.185-.9-2.339-1.372-3.492-.78-2-1.528-3.991-2.308-5.987-.655-1.653-1.279-3.305-1.9-4.958-.094-.281-.187-.53-.281-.811l-.125-.281c-1.9-4.865-3.773-9.76-5.644-14.593a.4.4,0,0,0-.374-.312" transform="translate(-117.125 -39.406)" fill="#1a1a1a"/>
        <path id="Path_6856" data-name="Path 6856" d="M135.06,55.241v.374c.156,9.76.343,19.52.5,29.281l5.613.343-.249-14.375v-.405c-.094-.281-.187-.561-.281-.811-.655-1.653-1.279-3.274-1.9-4.927-.78-2-1.528-4.023-2.308-6.018-.468-1.154-.9-2.308-1.372-3.492" transform="translate(-117.125 -39.406)"/>
        <path id="Path_6857" data-name="Path 6857" d="M143.986,55.752c-.842-.031-1.653-.094-2.495-.156s-1.653-.125-2.495-.156c-.281,0-.374,0-.343.312l.249,14.063v.405c.094.281.187.53.281.811.655,1.653,1.279,3.305,1.9,4.958.78,2,1.528,3.991,2.308,5.987.468,1.154.9,2.308,1.372,3.492v-.218q-.234-14.593-.5-29.187c0-.218-.062-.281-.281-.312" transform="translate(-109.524 -38.919)"/>
      </g>
      <g id="Group_2760" data-name="Group 2760" transform="translate(419.523 78.798)">
        <path id="Path_6858" data-name="Path 6858" d="M270.767,75.5c-23.449-1.5-42.128,16.184-41.722,39.508s19.739,43.437,43.188,44.934,42.159-16.215,41.722-39.54S294.185,77,270.736,75.5" transform="translate(-222.053 -75.412)"/>
        <path id="Path_6859" data-name="Path 6859" d="M269.213,109.925l.249-.312c1.466-1.715,2.9-3.4,4.366-5.114a.589.589,0,0,1,.592-.281h.094c.873.156,1.777.249,2.651.437,1.31.249,2.588.5,3.867.842a49.741,49.741,0,0,1,9.947,3.742l.187.094.094.094a13.317,13.317,0,0,1-6.392,4.4l-.094-.343a3.405,3.405,0,0,0-2.058-2.651,9.234,9.234,0,0,0-2.183-.655,34.014,34.014,0,0,0-4.366-.5h-.249c-1.029,6.237-2.027,12.442-3.056,18.678q-1.5,9.308-3.118,18.585Q266,127.9,262.29,108.834h-.218a32.709,32.709,0,0,0-3.492-.156,11.128,11.128,0,0,0-2.495.281l-.5.156a2.665,2.665,0,0,0-2.027,2.463v.281a20.177,20.177,0,0,1-3.648-2.183,12.414,12.414,0,0,1-2.931-3.056l.281-.156a39.04,39.04,0,0,1,8.014-2.183q2.152-.327,4.3-.561a35.511,35.511,0,0,1,4.085-.156l.561.281c1.528,1.965,3.056,3.835,4.615,5.769l.281.343m-22.95-4.771a26.014,26.014,0,0,1-1.372-2.806l.249-.094a63.9,63.9,0,0,1,11.662-2.651c1.684-.249,3.4-.374,5.114-.468,1.622-.094,3.243-.125,4.865-.062.935.062,1.871.094,2.775.156a5.1,5.1,0,0,1,.686.062c1.4.125,2.806.312,4.21.5,1.247.187,2.463.405,3.711.624a52.428,52.428,0,0,1,5.395,1.341,80.786,80.786,0,0,1,9.417,3.461l.374.187a20.521,20.521,0,0,1-1.31,2.619l-.249-.094a55.85,55.85,0,0,0-10.041-3.8c-1.434-.405-2.931-.748-4.4-1.06a57.113,57.113,0,0,0-8.232-1.029c-.748-.062-1.5-.094-2.245-.125-1.5-.062-2.962-.062-4.428,0a53.539,53.539,0,0,0-15.591,2.962l-.655.218M268.62,84.449c-19.614-1.247-35.3,13.6-34.956,33.116s16.558,36.421,36.2,37.669,35.33-13.627,34.987-33.147S288.265,85.7,268.62,84.449M269.9,156.7c-20.456-1.31-37.388-18.9-37.731-39.228s16-35.829,36.453-34.519,37.388,18.928,37.731,39.228-16,35.829-36.453,34.519M268.527,77.62C245.077,76.123,226.4,93.8,226.8,117.128s19.739,43.437,43.188,44.934,42.159-16.184,41.722-39.54c-.405-23.293-19.77-43.406-43.219-44.9" transform="translate(-226.798 -70.921)" fill="#f40"/>
        <path id="Path_6860" data-name="Path 6860" d="M266.285,151.614c-19.614-1.247-35.86-18.148-36.2-37.669s15.342-34.363,34.956-33.116,35.891,18.117,36.234,37.637-15.373,34.395-34.987,33.147m-1.279-72.281c-20.456-1.31-36.8,14.188-36.453,34.519s17.306,37.949,37.731,39.228,36.8-14.157,36.453-34.519-17.275-37.949-37.731-39.228" transform="translate(-223.09 -67.27)"/>
        <path id="Path_6861" data-name="Path 6861" d="M260.657,86.556a.685.685,0,0,0-.593.281c-1.466,1.715-2.9,3.4-4.366,5.114l-.249.312-.281-.343c-1.559-1.933-3.087-3.835-4.615-5.769l-.561-.281c-1.341,0-2.713.031-4.085.156-1.434.156-2.869.312-4.3.561a39.041,39.041,0,0,0-8.014,2.183l-.281.156a13.01,13.01,0,0,0,2.931,3.056,22.3,22.3,0,0,0,3.617,2.183v-.281a2.8,2.8,0,0,1,2.058-2.463l.5-.156a13.287,13.287,0,0,1,2.495-.281c1.154,0,2.339.031,3.492.125h.218q3.7,19.131,7.453,38.168c1.091-6.174,2.12-12.411,3.118-18.585,1.029-6.205,2.027-12.442,3.056-18.647h.249a33.963,33.963,0,0,1,4.366.468,9.69,9.69,0,0,1,2.183.655,3.287,3.287,0,0,1,2.058,2.651l.094.343a13.317,13.317,0,0,0,6.392-4.4l-.094-.094-.187-.094a47.909,47.909,0,0,0-9.947-3.742c-1.279-.312-2.588-.592-3.867-.842-.873-.187-1.777-.281-2.651-.437h-.094" transform="translate(-213.004 -53.258)"/>
        <path id="Path_6862" data-name="Path 6862" d="M257.256,84.623c-.9-.062-1.84-.094-2.775-.156-1.622-.062-3.243,0-4.865.062-1.715.094-3.43.218-5.114.468a63.9,63.9,0,0,0-11.662,2.651l-.249.094a26.012,26.012,0,0,0,1.372,2.806l.655-.218a53.539,53.539,0,0,1,15.591-2.962,41.955,41.955,0,0,1,4.428,0c.748,0,1.5.062,2.245.125a61.856,61.856,0,0,1,8.232,1.029c1.466.312,2.962.655,4.4,1.06a58.307,58.307,0,0,1,10.041,3.8l.249.094a20.523,20.523,0,0,0,1.31-2.619l-.374-.187a79.311,79.311,0,0,0-9.417-3.461c-1.777-.53-3.586-.967-5.395-1.341-1.247-.249-2.463-.468-3.711-.624-1.4-.187-2.806-.405-4.21-.5a5.1,5.1,0,0,1-.686-.062" transform="translate(-214.529 -56.284)"/>
      </g>
    </g>
  </g>
</svg>
