<svg xmlns="http://www.w3.org/2000/svg" xmlns:xlink="http://www.w3.org/1999/xlink" width="261" height="299" viewBox="0 0 261 299">
  <defs>
    <clipPath id="clip-path">
      <rect id="Rectangle_4918" data-name="Rectangle 4918" width="261" height="299" transform="translate(0 -0.225)" fill="#fff" stroke="#707070" stroke-width="1"/>
    </clipPath>
    <clipPath id="clip-path-2">
      <rect id="Rectangle_4911" data-name="Rectangle 4911" width="302.874" height="300.695" fill="none" stroke="rgba(0,0,0,0)" stroke-width="1"/>
    </clipPath>
  </defs>
  <g id="Mask_Group_4518" data-name="Mask Group 4518" transform="translate(0 0.225)" clip-path="url(#clip-path)">
    <g id="Group_5511" data-name="Group 5511" transform="translate(-42.392 -2.396)">
      <g id="Group_5498" data-name="Group 5498">
        <g id="Group_5497" data-name="Group 5497" clip-path="url(#clip-path-2)">
          <path id="Path_11105" data-name="Path 11105" d="M204.339,425.894,234.489,376h-60.3Z" transform="translate(-52.903 -375.335)" fill="none" stroke="#f40" stroke-width="1"/>
        </g>
      </g>
      <path id="Path_11106" data-name="Path 11106" d="M204.339,275.894,234.489,226h-60.3Z" transform="translate(-52.903 -125.547)" fill="none" stroke="#f40" stroke-width="1"/>
      <g id="Group_5500" data-name="Group 5500">
        <g id="Group_5499" data-name="Group 5499" clip-path="url(#clip-path-2)">
          <path id="Path_11107" data-name="Path 11107" d="M290.98,425.894,321.131,376h-60.3Z" transform="translate(-199.873 -375.335)" fill="none" stroke="#f40" stroke-width="1"/>
          <path id="Path_11108" data-name="Path 11108" d="M117.658,425.894,147.809,376h-60.3Z" transform="translate(94.133 -375.335)" fill="none" stroke="#f40" stroke-width="1"/>
        </g>
      </g>
      <path id="Path_11109" data-name="Path 11109" d="M247.679,350.894,277.829,301h-60.3Z" transform="translate(-126.421 -250.441)" fill="none" stroke="#f40" stroke-width="1"/>
      <path id="Path_11110" data-name="Path 11110" d="M161,350.894,191.149,301h-60.3Z" transform="translate(20.615 -250.441)" fill="none" stroke="#f40" stroke-width="1"/>
      <path id="Path_11111" data-name="Path 11111" d="M161.018,226l-30.151,49.894h60.3Z" transform="translate(20.582 -125.547)" fill="none" stroke="#f40" stroke-width="1"/>
      <path id="Path_11112" data-name="Path 11112" d="M117.678,301,87.527,350.894h60.3Z" transform="translate(94.1 -250.441)" fill="none" stroke="#f40" stroke-width="1"/>
      <g id="Group_5502" data-name="Group 5502">
        <g id="Group_5501" data-name="Group 5501" clip-path="url(#clip-path-2)">
          <path id="Path_11113" data-name="Path 11113" d="M31.017,425.894,61.168,376H.866Z" transform="translate(241.103 -375.335)" fill="none" stroke="#f40" stroke-width="1"/>
        </g>
      </g>
      <path id="Path_11114" data-name="Path 11114" d="M74.357,350.894,104.508,301h-60.3Z" transform="translate(167.585 -250.441)" fill="#f40" stroke="rgba(0,0,0,0)" stroke-width="1"/>
      <path id="Path_11115" data-name="Path 11115" d="M74.357,350.894,104.508,301h-60.3Z" transform="translate(167.585 -250.441)" fill="none" stroke="#f40" stroke-width="1"/>
      <g id="Group_5504" data-name="Group 5504">
        <g id="Group_5503" data-name="Group 5503" clip-path="url(#clip-path-2)">
          <path id="Path_11116" data-name="Path 11116" d="M31.036,301,.886,350.894h60.3Z" transform="translate(241.07 -250.441)" fill="none" stroke="#f40" stroke-width="1"/>
          <path id="Path_11117" data-name="Path 11117" d="M377.568,425.894,407.718,376h-60.3Z" transform="translate(-346.753 -375.335)" fill="none" stroke="#f40" stroke-width="1"/>
        </g>
      </g>
      <path id="Path_11118" data-name="Path 11118" d="M334.247,226,304.1,275.894h60.3Z" transform="translate(-273.267 -125.547)" fill="none" stroke="#f40" stroke-width="1"/>
      <g id="Group_5506" data-name="Group 5506">
        <g id="Group_5505" data-name="Group 5505" clip-path="url(#clip-path-2)">
          <path id="Path_11119" data-name="Path 11119" d="M334.247,376,304.1,425.894h60.3Z" transform="translate(-273.267 -375.335)" fill="none" stroke="#f40" stroke-width="1"/>
        </g>
      </g>
      <path id="Path_11120" data-name="Path 11120" d="M247.606,226l-30.151,49.894h60.3Z" transform="translate(-126.297 -125.547)" fill="none" stroke="#f40" stroke-width="1"/>
      <path id="Path_11121" data-name="Path 11121" d="M290.907,301l-30.151,49.894h60.3Z" transform="translate(-199.75 -250.441)" fill="none" stroke="#f40" stroke-width="1"/>
      <g id="Group_5508" data-name="Group 5508">
        <g id="Group_5507" data-name="Group 5507" clip-path="url(#clip-path-2)">
          <path id="Path_11122" data-name="Path 11122" d="M377.587,301l-30.151,49.894h60.3Z" transform="translate(-346.786 -250.441)" fill="none" stroke="#f40" stroke-width="1"/>
        </g>
      </g>
      <path id="Path_11123" data-name="Path 11123" d="M334.315,200.894,364.466,151h-60.3Z" transform="translate(-273.384 -0.653)" fill="none" stroke="#f40" stroke-width="1"/>
      <g id="Group_5510" data-name="Group 5510">
        <g id="Group_5509" data-name="Group 5509" clip-path="url(#clip-path-2)">
          <path id="Path_11124" data-name="Path 11124" d="M334.315,50.894,364.466,1h-60.3Z" transform="translate(-273.384 249.136)" fill="none" stroke="#f40" stroke-width="1"/>
          <path id="Path_11125" data-name="Path 11125" d="M377.656,125.894,407.806,76H347.5Z" transform="translate(-346.902 124.242)" fill="none" stroke="#f40" stroke-width="1"/>
          <path id="Path_11126" data-name="Path 11126" d="M290.995,1,260.844,50.894h60.3Z" transform="translate(-199.899 249.136)" fill="none" stroke="#f40" stroke-width="1"/>
        </g>
      </g>
    </g>
  </g>
</svg>
