<svg xmlns="http://www.w3.org/2000/svg" xmlns:xlink="http://www.w3.org/1999/xlink" width="99" height="91.334" viewBox="0 0 99 91.334">
  <defs>
    <clipPath id="clip-path">
      <path id="Path_11210" data-name="Path 11210" d="M238.537-7.932h29.939s4.166-1,7.666,6.832,15.5-19.332,15.5-19.332L264.477-41.6l-27.5,3Z" fill="none" stroke="#707070" stroke-width="1"/>
    </clipPath>
    <clipPath id="clip-path-2">
      <path id="Path_11211" data-name="Path 11211" d="M210.31,11.4v-13s-.833-6.5,8.667-6.666,27.833,0,27.833,0V-36.6H195.143l-2.5,29.168,7.334,19.5Z" fill="none" stroke="#707070" stroke-width="1"/>
    </clipPath>
  </defs>
  <g id="Group_9682" data-name="Group 9682" transform="translate(-192.643 41.6)">
    <g id="Mask_Group_4519" data-name="Mask Group 4519" clip-path="url(#clip-path)">
      <g id="Group_5616" data-name="Group 5616" transform="translate(6 -2.488)">
        <path id="Path_11208" data-name="Path 11208" d="M299.849-8.9a19.3,19.3,0,0,0-19.308,19.307,19.087,19.087,0,0,0,.13,2.227,19.289,19.289,0,0,0,19.177,17.074,19.079,19.079,0,0,0,7.4-1.473,19.305,19.305,0,0,0-7.4-37.134Zm6.3,34.487a16.214,16.214,0,0,1-6.3,1.253A16.423,16.423,0,0,1,283.52,12.3a16.377,16.377,0,0,1,.792-7.27,16.437,16.437,0,1,1,21.833,20.555Z" transform="translate(-48.004 -17.877)" fill="#f40"/>
        <path id="Path_11209" data-name="Path 11209" d="M303.544,10.5c-2.536-.547-3.358-.895-3.358-1.939,0-.846.772-1.492,2.139-1.492A8.187,8.187,0,0,1,307.2,8.882l2.163-3.033a9.882,9.882,0,0,0-5.469-2.263V2.019h-2.588V3.586c-3.257.373-5.4,2.437-5.4,5.4,0,3.432,2.71,4.426,6.366,5.246,2.487.6,3.282.821,3.282,1.84,0,.92-.82,1.567-2.411,1.567a8.729,8.729,0,0,1-5.62-2.163l-2.388,2.86a11.162,11.162,0,0,0,6.167,2.76v1.641h2.588V21.167c3.7-.3,5.942-2.362,5.942-5.545C309.835,12.413,307.374,11.32,303.544,10.5Z" transform="translate(-50.641 -19.849)" fill="#f40"/>
      </g>
    </g>
    <g id="Mask_Group_4520" data-name="Mask Group 4520" clip-path="url(#clip-path-2)">
      <g id="Group_5619" data-name="Group 5619">
        <g id="Group_5617" data-name="Group 5617" transform="translate(79.378 -100.328) rotate(45)">
          <g id="Rectangle_4924" data-name="Rectangle 4924" transform="translate(150.31 -37.266)" fill="#fff" stroke="#f40" stroke-width="3">
            <rect width="39" height="25" rx="3" stroke="none"/>
            <rect x="1.5" y="1.5" width="36" height="22" rx="1.5" fill="none"/>
          </g>
          <line id="Line_140" data-name="Line 140" x2="35" transform="translate(152.81 -29.766)" fill="none" stroke="#f40" stroke-width="4"/>
          <line id="Line_141" data-name="Line 141" x2="7" transform="translate(154.81 -18.766)" fill="none" stroke="#f40" stroke-width="2"/>
          <line id="Line_142" data-name="Line 142" x2="6" transform="translate(163.81 -18.766)" fill="none" stroke="#f40" stroke-width="2"/>
          <line id="Line_143" data-name="Line 143" x2="6" transform="translate(173.81 -18.766)" fill="none" stroke="#f40" stroke-width="2"/>
          <line id="Line_144" data-name="Line 144" x2="2" transform="translate(182.81 -18.766)" fill="none" stroke="#f40" stroke-width="2"/>
        </g>
        <g id="Group_5618" data-name="Group 5618" transform="translate(168.699 -162.824) rotate(76)">
          <g id="Rectangle_4924-2" data-name="Rectangle 4924" transform="translate(150.31 -37.266)" fill="#fff" stroke="#f40" stroke-width="3">
            <rect width="39" height="25" rx="3" stroke="none"/>
            <rect x="1.5" y="1.5" width="36" height="22" rx="1.5" fill="none"/>
          </g>
          <line id="Line_140-2" data-name="Line 140" x2="35" transform="translate(152.81 -29.766)" fill="none" stroke="#f40" stroke-width="4"/>
          <line id="Line_141-2" data-name="Line 141" x2="7" transform="translate(154.81 -18.766)" fill="none" stroke="#f40" stroke-width="2"/>
          <line id="Line_142-2" data-name="Line 142" x2="6" transform="translate(163.81 -18.766)" fill="none" stroke="#f40" stroke-width="2"/>
          <line id="Line_143-2" data-name="Line 143" x2="6" transform="translate(173.81 -18.766)" fill="none" stroke="#f40" stroke-width="2"/>
          <line id="Line_144-2" data-name="Line 144" x2="2" transform="translate(182.81 -18.766)" fill="none" stroke="#f40" stroke-width="2"/>
        </g>
      </g>
    </g>
    <g id="Group_5614" data-name="Group 5614" transform="translate(191.5 -34.311)">
      <path id="Path_11206" data-name="Path 11206" d="M84.843,43.924V33.431a8.181,8.181,0,0,0-8.171-8.171H25.489a8.185,8.185,0,0,0-8.179,8.171V75.873a8.185,8.185,0,0,0,8.179,8.171H76.671a8.181,8.181,0,0,0,8.171-8.171V65.381a3.538,3.538,0,0,0,3.316-3.52V47.445A3.538,3.538,0,0,0,84.843,43.924ZM75.055,43.9a10.482,10.482,0,0,0-10.47,10.47v.561A10.482,10.482,0,0,0,75.055,65.4h7.132v5.366H19.965V38.536H82.187V43.9Zm-55.09-10.47a5.526,5.526,0,0,1,5.523-5.516H76.671a5.522,5.522,0,0,1,5.516,5.516V35.88H19.965ZM82.187,75.873a5.522,5.522,0,0,1-5.516,5.516H25.489a5.526,5.526,0,0,1-5.523-5.516V73.424H82.187ZM85.5,61.86a.888.888,0,0,1-.888.888h-9.56a7.823,7.823,0,0,1-7.815-7.815v-.561a7.823,7.823,0,0,1,7.815-7.815h9.56a.888.888,0,0,1,.888.888Z" fill="#f40"/>
      <path id="Path_11207" data-name="Path 11207" d="M92.693,57.94a4.6,4.6,0,1,0,4.6,4.6A4.6,4.6,0,0,0,92.693,57.94Zm0,6.54a1.942,1.942,0,1,1,1.942-1.942A1.944,1.944,0,0,1,92.693,64.48Z" transform="translate(-17.08 -7.885)" fill="#f40"/>
    </g>
  </g>
</svg>
