<svg xmlns="http://www.w3.org/2000/svg" width="110.316" height="102.049" viewBox="0 0 110.316 102.049">
  <g id="Group_3549" data-name="Group 3549" transform="translate(20.058 31.763)">
    <g id="Group_9683" data-name="Group 9683" transform="translate(0 0)">
      <path id="Path_1566" data-name="Path 1566" d="M75.259,54.791a1.315,1.315,0,0,0-1.316,1.316,9.78,9.78,0,0,1-9.769,9.769H59.909l2.234-2.234a1.316,1.316,0,1,0-1.861-1.861L55.8,66.259a1.314,1.314,0,0,0-.167.2c-.019.029-.032.059-.048.089a1.185,1.185,0,0,0-.072.137,1.323,1.323,0,0,0-.04.128c-.011.039-.026.077-.035.118a1.316,1.316,0,0,0,0,.514c.008.041.023.079.035.118a1.261,1.261,0,0,0,.04.128,1.115,1.115,0,0,0,.072.136c.017.03.029.061.048.089a1.281,1.281,0,0,0,.167.2L60.282,72.6a1.316,1.316,0,1,0,1.861-1.86l-2.234-2.235h4.265a12.414,12.414,0,0,0,12.4-12.4,1.315,1.315,0,0,0-1.316-1.316" transform="translate(-13.746 -13.59)" fill="#f40"/>
      <path id="Path_1567" data-name="Path 1567" d="M11.262,32.712A1.315,1.315,0,0,0,12.578,31.4a9.78,9.78,0,0,1,9.769-9.769h4.265l-2.234,2.234a1.316,1.316,0,1,0,1.861,1.861l4.478-4.479a1.317,1.317,0,0,0,.167-.2c.019-.028.032-.059.048-.088A1.5,1.5,0,0,0,31,20.814a1.171,1.171,0,0,0,.039-.126,1.208,1.208,0,0,0,.035-.119,1.32,1.32,0,0,0,0-.515c-.008-.041-.023-.08-.035-.12A1.272,1.272,0,0,0,31,19.809a1.43,1.43,0,0,0-.073-.138c-.017-.029-.029-.059-.047-.087a1.282,1.282,0,0,0-.167-.2L26.239,14.9a1.316,1.316,0,0,0-1.861,1.86L26.612,19H22.347a12.414,12.414,0,0,0-12.4,12.4,1.315,1.315,0,0,0,1.316,1.316" transform="translate(-2.467 -3.6)" fill="#f40"/>
      <path id="Path_1568" data-name="Path 1568" d="M18.889,43.231A18.889,18.889,0,1,0,37.778,62.12,18.91,18.91,0,0,0,18.889,43.231m0,35.146A16.257,16.257,0,1,1,35.146,62.12,16.276,16.276,0,0,1,18.889,78.377" transform="translate(0 -10.723)" fill="#f40"/>
      <path id="Path_1569" data-name="Path 1569" d="M62.293,0A18.889,18.889,0,1,0,81.183,18.889,18.91,18.91,0,0,0,62.293,0m0,35.146A16.257,16.257,0,1,1,78.551,18.889,16.275,16.275,0,0,1,62.293,35.146" transform="translate(-10.766 0)" fill="#f40"/>
      <path id="Path_1570" data-name="Path 1570" d="M73.014,14.018a1.019,1.019,0,0,0-1.442,0l-4.843,4.843-4.843-4.843a1.02,1.02,0,0,0-1.442,1.442l3.823,3.823h-3.1a1.02,1.02,0,0,0,0,2.04h4.544v1.895H61.165a1.02,1.02,0,1,0,0,2.039h4.544V30.18a1.02,1.02,0,0,0,2.04,0V25.258h4.544a1.02,1.02,0,1,0,0-2.039H67.749V21.324h4.544a1.02,1.02,0,0,0,0-2.04h-3.1l3.823-3.823a1.019,1.019,0,0,0,0-1.442" transform="translate(-14.918 -3.403)" fill="#f40"/>
      <path id="Path_1571" data-name="Path 1571" d="M24.168,64.4V59.835a6.542,6.542,0,0,1,2.255,1.048,1.006,1.006,0,0,0,1.377-.217l.007-.009a1.014,1.014,0,0,0-.234-1.448,7.491,7.491,0,0,0-3.4-1.33v-.326a1.012,1.012,0,0,0-2.024,0v.305c-2.458.355-4.159,2.061-4.159,4.247,0,2.4,1.64,3.363,4.159,4.043v4.758a6.662,6.662,0,0,1-2.656-1.244,1.017,1.017,0,0,0-1.411.154l-.023.028a1.014,1.014,0,0,0,.186,1.453,8.261,8.261,0,0,0,3.9,1.581v.41a1.012,1.012,0,0,0,2.024,0v-.365c3.007-.235,4.625-2.025,4.625-4.316,0-2.519-1.881-3.529-4.625-4.211m-2.024-.537c-1.294-.439-1.963-.95-1.963-1.947a2.356,2.356,0,0,1,1.963-2.128Zm2.024,7.162V66.662c1.639.462,2.451,1.017,2.451,2.16,0,1.038-.832,2.014-2.451,2.2" transform="translate(-4.422 -14.024)" fill="#f40"/>
      <g id="Group_9684" data-name="Group 9684" transform="translate(-19.793 -3.406)">
        <path id="Path_11239" data-name="Path 11239" d="M283.1,776.5a1.615,1.615,0,0,1-1.585-1.886l.6-3.488-2.538-2.471a1.609,1.609,0,0,1,.9-2.747l3.5-.509,1.565-3.173a1.668,1.668,0,0,1,2.889,0l1.566,3.173,3.5.509a1.609,1.609,0,0,1,.9,2.744l-2.535,2.473.6,3.488a1.609,1.609,0,0,1-2.334,1.7l-3.134-1.646-3.134,1.646A1.6,1.6,0,0,1,283.1,776.5Zm3.883-13.563-1.566,3.176a1.614,1.614,0,0,1-1.212.88l-3.5.51,2.535,2.471a1.616,1.616,0,0,1,.462,1.426l-.6,3.485,3.134-1.643a1.589,1.589,0,0,1,1.5,0l3.126,1.64-.6-3.485a1.608,1.608,0,0,1,.465-1.426l2.532-2.471h0l-3.5-.51a1.609,1.609,0,0,1-1.215-.88Z" transform="translate(-279.089 -761.389)" fill="#f40" stroke="#f40" stroke-width="0.5"/>
      </g>
      <g id="Group_9686" data-name="Group 9686" transform="translate(4.207 -18.513)">
        <path id="Path_11239-2" data-name="Path 11239" d="M283.1,776.5a1.615,1.615,0,0,1-1.585-1.886l.6-3.488-2.538-2.471a1.609,1.609,0,0,1,.9-2.747l3.5-.509,1.565-3.173a1.668,1.668,0,0,1,2.889,0l1.566,3.173,3.5.509a1.609,1.609,0,0,1,.9,2.744l-2.535,2.473.6,3.488a1.609,1.609,0,0,1-2.334,1.7l-3.134-1.646-3.134,1.646A1.6,1.6,0,0,1,283.1,776.5Zm3.883-13.563-1.566,3.176a1.614,1.614,0,0,1-1.212.88l-3.5.51,2.535,2.471a1.616,1.616,0,0,1,.462,1.426l-.6,3.485,3.134-1.643a1.589,1.589,0,0,1,1.5,0l3.126,1.64-.6-3.485a1.608,1.608,0,0,1,.465-1.426l2.532-2.471h0l-3.5-.51a1.609,1.609,0,0,1-1.215-.88Z" transform="translate(-279.089 -761.389)" fill="#f40" stroke="#f40" stroke-width="0.5"/>
      </g>
      <g id="Group_9688" data-name="Group 9688" transform="translate(27.209 -31.513)">
        <path id="Path_11239-3" data-name="Path 11239" d="M283.1,776.5a1.615,1.615,0,0,1-1.585-1.886l.6-3.488-2.538-2.471a1.609,1.609,0,0,1,.9-2.747l3.5-.509,1.565-3.173a1.668,1.668,0,0,1,2.889,0l1.566,3.173,3.5.509a1.609,1.609,0,0,1,.9,2.744l-2.535,2.473.6,3.488a1.609,1.609,0,0,1-2.334,1.7l-3.134-1.646-3.134,1.646A1.6,1.6,0,0,1,283.1,776.5Zm3.883-13.563-1.566,3.176a1.614,1.614,0,0,1-1.212.88l-3.5.51,2.535,2.471a1.616,1.616,0,0,1,.462,1.426l-.6,3.485,3.134-1.643a1.589,1.589,0,0,1,1.5,0l3.126,1.64-.6-3.485a1.608,1.608,0,0,1,.465-1.426l2.532-2.471h0l-3.5-.51a1.609,1.609,0,0,1-1.215-.88Z" transform="translate(-279.089 -761.389)" fill="#f40" stroke="#f40" stroke-width="0.5"/>
      </g>
      <g id="Group_9687" data-name="Group 9687" transform="translate(51.207 -18.513)">
        <path id="Path_11239-4" data-name="Path 11239" d="M283.1,776.5a1.615,1.615,0,0,1-1.585-1.886l.6-3.488-2.538-2.471a1.609,1.609,0,0,1,.9-2.747l3.5-.509,1.565-3.173a1.668,1.668,0,0,1,2.889,0l1.566,3.173,3.5.509a1.609,1.609,0,0,1,.9,2.744l-2.535,2.473.6,3.488a1.609,1.609,0,0,1-2.334,1.7l-3.134-1.646-3.134,1.646A1.6,1.6,0,0,1,283.1,776.5Zm3.883-13.563-1.566,3.176a1.614,1.614,0,0,1-1.212.88l-3.5.51,2.535,2.471a1.616,1.616,0,0,1,.462,1.426l-.6,3.485,3.134-1.643a1.589,1.589,0,0,1,1.5,0l3.126,1.64-.6-3.485a1.608,1.608,0,0,1,.465-1.426l2.532-2.471h0l-3.5-.51a1.609,1.609,0,0,1-1.215-.88Z" transform="translate(-279.089 -761.389)" fill="#f40" stroke="#f40" stroke-width="0.5"/>
      </g>
      <g id="Group_9685" data-name="Group 9685" transform="translate(74.207 -3.406)">
        <path id="Path_11239-5" data-name="Path 11239" d="M283.1,776.5a1.615,1.615,0,0,1-1.585-1.886l.6-3.488-2.538-2.471a1.609,1.609,0,0,1,.9-2.747l3.5-.509,1.565-3.173a1.668,1.668,0,0,1,2.889,0l1.566,3.173,3.5.509a1.609,1.609,0,0,1,.9,2.744l-2.535,2.473.6,3.488a1.609,1.609,0,0,1-2.334,1.7l-3.134-1.646-3.134,1.646A1.6,1.6,0,0,1,283.1,776.5Zm3.883-13.563-1.566,3.176a1.614,1.614,0,0,1-1.212.88l-3.5.51,2.535,2.471a1.616,1.616,0,0,1,.462,1.426l-.6,3.485,3.134-1.643a1.589,1.589,0,0,1,1.5,0l3.126,1.64-.6-3.485a1.608,1.608,0,0,1,.465-1.426l2.532-2.471h0l-3.5-.51a1.609,1.609,0,0,1-1.215-.88Z" transform="translate(-279.089 -761.389)" fill="#f40" stroke="#f40" stroke-width="0.5"/>
      </g>
    </g>
  </g>
</svg>
