<svg xmlns="http://www.w3.org/2000/svg" xmlns:xlink="http://www.w3.org/1999/xlink" width="142" height="142" viewBox="0 0 142 142">
  <defs>
    <clipPath id="clip-path">
      <rect id="Rectangle_8414" data-name="Rectangle 8414" width="76.292" height="76" fill="none"/>
    </clipPath>
  </defs>
  <g id="Group_5678" data-name="Group 5678" transform="translate(-739 -3007)">
    <rect id="Rectangle_4907" data-name="Rectangle 4907" width="142" height="142" rx="71" transform="translate(739 3007)" fill="#fff"/>
    <g id="Group_9822" data-name="Group 9822" transform="translate(772.285 3040)">
      <g id="Group_9822-2" data-name="Group 9822" transform="translate(0 0)" clip-path="url(#clip-path)">
        <path id="Path_17229" data-name="Path 17229" d="M59.287,26.79a22.969,22.969,0,1,0,0,32.5,23,23,0,0,0,0-32.5M57.176,28.9A20.017,20.017,0,1,1,43.04,23.055,19.859,19.859,0,0,1,57.176,28.9" transform="translate(-5.039 -5.039)"/>
        <path id="Path_17230" data-name="Path 17230" d="M45.125,61.87A16.753,16.753,0,0,1,30.383,37.144a.745.745,0,1,1,1.309.71,15.271,15.271,0,0,0,24.23,18.063,15.269,15.269,0,0,0,0-21.595,15.416,15.416,0,0,0-11.731-4.445,15.582,15.582,0,0,0-2.67.4.756.756,0,0,1-.9-.551.746.746,0,0,1,.551-.9A16.757,16.757,0,1,1,45.125,61.87" transform="translate(-7.126 -7.118)" fill="#f40"/>
        <path id="Path_17231" data-name="Path 17231" d="M35.37,35.177a.745.745,0,0,1-.529-1.271,16.7,16.7,0,0,1,3.944-2.932.745.745,0,1,1,.7,1.314A15.212,15.212,0,0,0,35.9,34.958a.746.746,0,0,1-.529.219" transform="translate(-8.692 -7.754)" fill="#f40"/>
        <path id="Path_17232" data-name="Path 17232" d="M59.32,59.592c-.29.29-.875.179-1.3-.247l-4.083-4.083c-.426-.426-.537-1.011-.247-1.3s.875-.179,1.3.247l4.083,4.083c.426.426.537,1.011.247,1.3" transform="translate(-13.438 -13.506)" fill="#f40"/>
        <path id="Path_17233" data-name="Path 17233" d="M50.486,43.463a.747.747,0,0,1-.745-.745V34.483a.745.745,0,1,1,1.49,0v8.235a.747.747,0,0,1-.745.745" transform="translate(-12.487 -8.47)" fill="#f40"/>
        <path id="Path_17234" data-name="Path 17234" d="M52.855,45.707a5.2,5.2,0,0,0-3.7-1.535H49.14a5.245,5.245,0,0,0,0,10.489h.013a5.247,5.247,0,0,0,3.7-8.955M47.548,47.82h0a2.258,2.258,0,1,1,1.6,3.856,2.265,2.265,0,0,1-2.26-2.259,2.241,2.241,0,0,1,.662-1.6" transform="translate(-11.021 -11.089)"/>
        <path id="Path_17235" data-name="Path 17235" d="M70.527,30.828h-4.04a2.441,2.441,0,0,1-2.334-1.643,28.217,28.217,0,0,0-1.435-3.459,2.436,2.436,0,0,1,.5-2.8l2.857-2.854a5.47,5.47,0,0,0,0-7.737l-2.409-2.4A5.474,5.474,0,0,0,59.8,8.372h0a5.482,5.482,0,0,0-3.869,1.559l-2.854,2.851a2.438,2.438,0,0,1-2.8.5,27.253,27.253,0,0,0-3.462-1.433,2.444,2.444,0,0,1-1.64-2.336V5.474A5.479,5.479,0,0,0,39.7,0H36.3a5.48,5.48,0,0,0-5.473,5.473v4.04a2.438,2.438,0,0,1-1.636,2.333,27.781,27.781,0,0,0-3.458,1.435,2.448,2.448,0,0,1-2.8-.5L20.072,9.931a5.477,5.477,0,0,0-7.739,0L9.927,12.336a5.475,5.475,0,0,0,0,7.737l2.854,2.854a2.429,2.429,0,0,1,.5,2.8,28.352,28.352,0,0,0-1.433,3.462,2.443,2.443,0,0,1-2.333,1.639H5.473A5.479,5.479,0,0,0,0,36.3v3.4a5.479,5.479,0,0,0,5.473,5.473H9.513a2.441,2.441,0,0,1,2.332,1.636,27.9,27.9,0,0,0,1.435,3.464,2.432,2.432,0,0,1-.5,2.8L9.926,55.929a5.484,5.484,0,0,0,0,7.739l2.406,2.406a5.481,5.481,0,0,0,7.739,0l2.854-2.855a2.425,2.425,0,0,1,2.8-.5,27.862,27.862,0,0,0,3.458,1.433,2.444,2.444,0,0,1,1.639,2.335v4.038A5.48,5.48,0,0,0,36.3,76h3.4a5.479,5.479,0,0,0,5.473-5.473v-4.04a2.472,2.472,0,0,1,.864-1.881.749.749,0,0,0,.261-.568V62.269a.748.748,0,0,0-1.078-.673,5.405,5.405,0,0,0-3.033,4.892v4.04A2.487,2.487,0,0,1,39.7,73.013H36.3a2.487,2.487,0,0,1-2.485-2.485V66.49a5.435,5.435,0,0,0-3.674-5.169,24.432,24.432,0,0,1-3.081-1.275,5.285,5.285,0,0,0-2.37-.556,5.436,5.436,0,0,0-3.872,1.618l-2.854,2.852a2.5,2.5,0,0,1-3.517,0l-2.406-2.406a2.493,2.493,0,0,1,0-3.517l2.854-2.854a5.414,5.414,0,0,0,1.064-6.242,24.341,24.341,0,0,1-1.275-3.086,5.435,5.435,0,0,0-5.167-3.67H5.473A2.488,2.488,0,0,1,2.988,39.7V36.3a2.489,2.489,0,0,1,2.486-2.486H9.513a5.433,5.433,0,0,0,5.168-3.674,24.4,24.4,0,0,1,1.275-3.083,5.417,5.417,0,0,0-1.063-6.242l-2.854-2.854a2.491,2.491,0,0,1,0-3.515l2.406-2.4a2.5,2.5,0,0,1,3.517,0L20.817,14.9a5.443,5.443,0,0,0,6.24,1.059,24.7,24.7,0,0,1,3.082-1.278,5.427,5.427,0,0,0,3.674-5.167V5.474A2.487,2.487,0,0,1,36.3,2.989h3.4a2.487,2.487,0,0,1,2.485,2.485v4.04a5.434,5.434,0,0,0,3.678,5.17,24.468,24.468,0,0,1,3.083,1.275A5.413,5.413,0,0,0,55.185,14.9l2.854-2.855a2.553,2.553,0,0,1,3.515,0l2.407,2.406a2.491,2.491,0,0,1,0,3.514L61.1,20.817a5.426,5.426,0,0,0-1.059,6.24,24.85,24.85,0,0,1,1.277,3.081,5.422,5.422,0,0,0,5.167,3.677h4.04A2.488,2.488,0,0,1,73.012,36.3v3.4a2.487,2.487,0,0,1-2.485,2.485h-4.04A5.405,5.405,0,0,0,61.605,45.2a.749.749,0,0,0,.67,1.081h1.78a.751.751,0,0,0,.564-.256,2.479,2.479,0,0,1,1.867-.844h4.04A5.48,5.48,0,0,0,76,39.7V36.3a5.48,5.48,0,0,0-5.473-5.473" transform="translate(0 0)"/>
        <path id="Path_17236" data-name="Path 17236" d="M78.322,79.882v1.643h-5.04v-1.3l2.273-2.1c.431-.4.494-.646.494-.862,0-.3-.207-.494-.612-.494a1.028,1.028,0,0,0-.925.583l-1.6-.8a2.885,2.885,0,0,1,2.722-1.455c1.49,0,2.542.773,2.542,1.967a2.475,2.475,0,0,1-1.079,2l-.9.818Z" transform="translate(-18.305 -18.852)"/>
        <path id="Path_17237" data-name="Path 17237" d="M86.795,80.5H85.96v1.078H83.9V80.5H80.641V79.148l2.669-3.862h2.173l-2.371,3.567h.854V77.89H85.96v.962h.835Z" transform="translate(-20.244 -18.9)"/>
        <path id="Path_17238" data-name="Path 17238" d="M91.634,73.582h1.8l-2.964,8.462h-1.8Z" transform="translate(-22.26 -18.472)"/>
        <path id="Path_17239" data-name="Path 17239" d="M100.062,75.286v1.3l-2.093,4.986H95.651l1.994-4.644H96.433v.916H94.681v-2.56Z" transform="translate(-23.769 -18.9)"/>
      </g>
    </g>
  </g>
</svg>
