<svg xmlns="http://www.w3.org/2000/svg" xmlns:xlink="http://www.w3.org/1999/xlink" width="142" height="142" viewBox="0 0 142 142">
  <defs>
    <clipPath id="clip-path">
      <rect id="Rectangle_8412" data-name="Rectangle 8412" width="93.938" height="93.5" fill="none"/>
    </clipPath>
  </defs>
  <g id="Group_5679" data-name="Group 5679" transform="translate(-1038 -3007)">
    <rect id="Rectangle_4908" data-name="Rectangle 4908" width="142" height="142" rx="71" transform="translate(1038 3007)" fill="#fff"/>
    <g id="Group_9820" data-name="Group 9820" transform="translate(1062.031 3031.25)">
      <g id="Group_9819" data-name="Group 9819" clip-path="url(#clip-path)">
        <path id="Path_17214" data-name="Path 17214" d="M92.983,44.464l-9.012-9.022a3.13,3.13,0,0,0-.894-.627,3.239,3.239,0,0,0-4.633,2.925v2.3h-3.47V9.75A9.761,9.761,0,0,0,65.224,0H28.7a9.761,9.761,0,0,0-9.75,9.75V40.04H15.494v-2.3a3.243,3.243,0,0,0-5.537-2.288L.947,44.463A3.213,3.213,0,0,0,0,46.77a3.18,3.18,0,0,0,.947,2.267l8.832,8.83.13.141q.046.05.1.1a3.354,3.354,0,0,0,.872.588A3.2,3.2,0,0,0,12.248,59,3.264,3.264,0,0,0,14,58.489a3.21,3.21,0,0,0,1.5-2.729V53.45h3.461v30.3A9.761,9.761,0,0,0,28.7,93.5H65.224a9.761,9.761,0,0,0,9.75-9.75V53.46h3.47v2.3a3.234,3.234,0,0,0,5.527,2.288l9.007-9.007a3.2,3.2,0,0,0,.959-2.31,3.155,3.155,0,0,0-.954-2.267M57.944,3.5V5.762A1.725,1.725,0,0,1,56.22,7.485h-18.5a1.726,1.726,0,0,1-1.724-1.723V3.5Zm-44.2,46.45a1.75,1.75,0,0,0-1.75,1.75v3.435L3.609,46.75l8.385-8.386V41.79a1.75,1.75,0,0,0,1.75,1.75h8.54a.511.511,0,0,1,.493.435.319.319,0,0,1,.007.075v5.41a.5.5,0,0,1-.5.49ZM65.224,90H28.7a6.257,6.257,0,0,1-6.25-6.25V53.433a3.99,3.99,0,0,0,3.829-3.973V44.05a3.642,3.642,0,0,0-.1-.872,4,4,0,0,0-3.729-3.123V9.75A6.257,6.257,0,0,1,28.7,3.5h3.788V5.762a5.23,5.23,0,0,0,5.224,5.223h18.5a5.23,5.23,0,0,0,5.224-5.223V3.5h3.78a6.257,6.257,0,0,1,6.25,6.25V40.058a4,4,0,0,0-3.819,3.982v5.41a4.546,4.546,0,0,0,.094.888,3.978,3.978,0,0,0,3.725,3.107V83.75A6.257,6.257,0,0,1,65.224,90m16.72-34.874V51.71a1.749,1.749,0,0,0-1.75-1.75H71.655a.507.507,0,0,1-.481-.335,1,1,0,0,1-.019-.175V44.04a.5.5,0,0,1,.5-.5h8.539a1.749,1.749,0,0,0,1.75-1.75V38.364L90.32,46.75Z"/>
        <path id="Path_17215" data-name="Path 17215" d="M57.608,82.36H36.329a1.75,1.75,0,0,0,0,3.5H57.608a1.75,1.75,0,0,0,0-3.5"/>
        <path id="Path_17216" data-name="Path 17216" d="M34.6,53.07H31.767V50.245a.775.775,0,1,0-1.549,0V53.07H27.386a.775.775,0,0,0-.775.775v9.287a.775.775,0,0,0,.775.775h2.832v2.825a.775.775,0,1,0,1.549,0V63.907H34.6a.775.775,0,0,0,.775-.775V53.845a.775.775,0,0,0-.775-.775m-.775,9.287H28.16V54.619h5.664Z" fill="#f40"/>
        <path id="Path_17217" data-name="Path 17217" d="M45.474,60.4H42.642V57.574a.775.775,0,1,0-1.549,0V60.4H38.261a.775.775,0,0,0-.775.775v9.287a.775.775,0,0,0,.775.775h2.832v2.825a.775.775,0,1,0,1.549,0V71.236h2.832a.775.775,0,0,0,.775-.775V61.174a.775.775,0,0,0-.775-.775M44.7,69.686H39.036V61.948H44.7Z"/>
        <path id="Path_17218" data-name="Path 17218" d="M56.349,53.07H53.517V50.245a.775.775,0,1,0-1.549,0V53.07H49.136a.774.774,0,0,0-.774.775v9.287a.774.774,0,0,0,.774.775h2.832v2.825a.775.775,0,1,0,1.549,0V63.907h2.832a.775.775,0,0,0,.775-.775V53.845a.775.775,0,0,0-.775-.775m-.774,9.287H49.911V54.619h5.664Z" fill="#f40"/>
        <path id="Path_17219" data-name="Path 17219" d="M67.225,60.4H64.393V57.574a.775.775,0,1,0-1.55,0V60.4H60.012a.775.775,0,0,0-.775.775v9.287a.775.775,0,0,0,.775.775h2.831v2.825a.775.775,0,1,0,1.55,0V71.236h2.832A.774.774,0,0,0,68,70.461V61.174a.774.774,0,0,0-.774-.775m-.775,9.287H60.786V61.948H66.45Z"/>
        <path id="Path_17220" data-name="Path 17220" d="M36.175,36.178l0,.008,0,.008a12.069,12.069,0,0,0,9.742,7.271,11.09,11.09,0,0,0,1.381.083A12.1,12.1,0,0,0,59.391,31.463a11.931,11.931,0,0,0-1.074-4.977l0,0-.012-.027a12.071,12.071,0,0,0-9.986-7.031c-.348-.031-.679-.046-1.012-.046a12.091,12.091,0,0,0-11.13,16.8M45.749,41.9A10.534,10.534,0,0,1,37.8,36.058l4.33-4.33a.953.953,0,0,1,.681-.282h0a.963.963,0,0,1,.682.283l.212.212a.966.966,0,0,1,0,1.364l-.617.618a2.5,2.5,0,0,0,0,3.527l.213.214a2.5,2.5,0,0,0,3.528,0l.88-.88a.992.992,0,0,1,1.364,0l.213.213a.968.968,0,0,1,0,1.364Zm2.78-20.911a10.534,10.534,0,0,1,8.151,5.634l-4.446,4.446a.967.967,0,0,1-1.364,0l-.21-.21a.97.97,0,0,1,0-1.368l.88-.879a2.491,2.491,0,0,0,0-3.524l-.21-.211a2.5,2.5,0,0,0-3.528,0l-.617.617a.969.969,0,0,1-1.368,0l-.209-.21a.969.969,0,0,1,0-1.37Zm-2.121-.039L44.524,22.83a2.5,2.5,0,0,0,0,3.531l.21.209a2.5,2.5,0,0,0,3.528,0l.617-.617a.968.968,0,0,1,1.367,0l.21.211a.96.96,0,0,1,0,1.363l-.879.88a2.5,2.5,0,0,0,0,3.528l.21.21a2.5,2.5,0,0,0,3.525,0l4.011-4.012a10.444,10.444,0,0,1,.537,3.33A10.571,10.571,0,0,1,47.8,42.008l2.569-2.569a2.5,2.5,0,0,0,0-3.525l-.213-.213a2.5,2.5,0,0,0-3.525,0l-.879.879a.968.968,0,0,1-1.367,0l-.214-.214a.952.952,0,0,1-.28-.681A.962.962,0,0,1,44.172,35l.618-.617a2.5,2.5,0,0,0,0-3.526l-.212-.212a2.478,2.478,0,0,0-1.761-.73h0a2.472,2.472,0,0,0-1.762.73l-3.857,3.857a10.558,10.558,0,0,1,9.213-13.559" fill="#f40"/>
      </g>
    </g>
  </g>
</svg>
