<svg id="Oqtima_illustration_01" xmlns="http://www.w3.org/2000/svg" xmlns:xlink="http://www.w3.org/1999/xlink" width="643.158" height="704.16" viewBox="0 0 643.158 704.16">
  <defs>
    <clipPath id="clip-path">
      <rect id="Rectangle_419" data-name="Rectangle 419" width="643.158" height="704.16" fill="none"/>
    </clipPath>
    <clipPath id="clip-path-3">
      <path id="Path_536" data-name="Path 536" d="M6.473,23.715,5.429,288.188a12.551,12.551,0,0,0,12.539,12.54l405.867.106A12.536,12.536,0,0,0,436.361,288.3L437.4,23.846A16,16,0,0,0,421.416,7.838l-398.931-.1A16,16,0,0,0,6.473,23.715" transform="translate(-5.429 -7.735)" fill="none"/>
    </clipPath>
    <clipPath id="clip-path-4">
      <rect id="Rectangle_405" data-name="Rectangle 405" width="450.194" height="262.328" fill="none"/>
    </clipPath>
    <clipPath id="clip-path-6">
      <rect id="Rectangle_1627" data-name="Rectangle 1627" width="40.117" height="36.759" fill="#fff" stroke="#707070" stroke-width="1"/>
    </clipPath>
    <clipPath id="clip-path-7">
      <rect id="Rectangle_1626" data-name="Rectangle 1626" width="40.12" height="36.768" fill="#fff" stroke="#707070" stroke-width="1"/>
    </clipPath>
  </defs>
  <g id="Group_301" data-name="Group 301" clip-path="url(#clip-path)">
    <g id="Group_293" data-name="Group 293">
      <g id="Group_292" data-name="Group 292" clip-path="url(#clip-path)">
        <path id="Path_531" data-name="Path 531" d="M5.948,355.063C28.777,206.991,157.451-66.326,346.187,43.572c162.032,94.346,50.537,208.8,183.767,255.9,227.439,80.408,29.77,419.432-246.1,360.866S-15.283,492.793,5.948,355.063" transform="translate(0.001 36.956)" fill="#e6ebf0"/>
        <path id="Path_532" data-name="Path 532" d="M154.451,64.594c-10.7,53.978,8.062,154.586,113.607,189.023s68.895-48.356,0-115.76S170.575-16.73,154.451,64.594" transform="translate(308.977 64.606)" fill="#e6ebf0"/>
        <path id="Path_533" data-name="Path 533" d="M15.362,319.23a9.959,9.959,0,0,1-9.941-9.955V13.1A12.9,12.9,0,0,1,18.3.215H425.032a12.9,12.9,0,0,1,12.894,12.873V309.276a9.969,9.969,0,0,1-9.962,9.955Z" transform="translate(11.033 0.437)" fill="#fff"/>
        <path id="Path_534" data-name="Path 534" d="M425.471,1.308a12.242,12.242,0,0,1,12.241,12.218v296.19a9.315,9.315,0,0,1-9.306,9.3H15.8a9.3,9.3,0,0,1-9.288-9.3V13.541A12.241,12.241,0,0,1,18.733,1.308Zm0-1.308H18.733A13.537,13.537,0,0,0,5.205,13.541V309.716A10.6,10.6,0,0,0,15.8,320.323H428.407a10.618,10.618,0,0,0,10.611-10.607V13.526A13.54,13.54,0,0,0,425.471,0" transform="translate(10.594)"/>
      </g>
    </g>
    <g id="Group_298" data-name="Group 298" transform="translate(16.478 23.468)">
      <g id="Group_297" data-name="Group 297" clip-path="url(#clip-path-3)">
        <g id="Group_296" data-name="Group 296" transform="translate(-8.289 30.965)" opacity="0.5">
          <g id="Group_295" data-name="Group 295">
            <g id="Group_294" data-name="Group 294" clip-path="url(#clip-path-4)">
              <path id="Path_535" data-name="Path 535" d="M10.65,77.908v28.978H3.338a.842.842,0,0,0,0,1.635H10.65V137.5H3.338a.84.84,0,0,0,0,1.632H10.65v26.074H3.338a.84.84,0,0,0,0,1.632H10.65v28.978H3.338a.84.84,0,0,0,0,1.632H10.65V226.43H3.338a.84.84,0,0,0,0,1.632H10.65v28.981H3.338a.84.84,0,0,0,0,1.632H10.65v20.777a.743.743,0,0,0,.637.816.743.743,0,0,0,.64-.816V258.675H32.237v20.777a.659.659,0,1,0,1.281,0V258.675H54.3v20.777a.659.659,0,1,0,1.281,0V258.675H75.89v20.777a.659.659,0,1,0,1.281,0V258.675H97.477v20.777a.658.658,0,1,0,1.278,0V258.675h20.309v20.777a.659.659,0,1,0,1.281,0V258.675h20.306v20.777a.659.659,0,1,0,1.281,0V258.675h20.306v20.777a.659.659,0,1,0,1.281,0V258.675h20.309v20.777a.659.659,0,1,0,1.281,0V258.675h20.306v20.777a.658.658,0,1,0,1.278,0V258.675H227v20.777a.659.659,0,1,0,1.281,0V258.675h20.309v20.777a.659.659,0,1,0,1.281,0V258.675h20.785v20.777a.659.659,0,1,0,1.281,0V258.675h20.306v20.777a.659.659,0,1,0,1.281,0V258.675h20.3v20.777a.659.659,0,1,0,1.281,0V258.675h20.309v20.777a.658.658,0,1,0,1.278,0V258.675H357v20.777a.659.659,0,1,0,1.281,0V258.675h20.309v20.777a.659.659,0,1,0,1.281,0V258.675h20.306v20.777a.659.659,0,1,0,1.281,0V258.675h20.3v20.777a.659.659,0,1,0,1.281,0V258.675h20.309v20.777a.659.659,0,1,0,1.281,0V258.675h7.615a.84.84,0,0,0,0-1.632h-7.615V228.062h7.615a.84.84,0,0,0,0-1.632h-7.615V197.449h7.615a.84.84,0,0,0,0-1.632h-7.615V166.839h7.615a.84.84,0,0,0,0-1.632h-7.615V139.132h7.615a.84.84,0,0,0,0-1.632h-7.615V108.522h7.615a.842.842,0,0,0,0-1.635h-7.615V77.908h7.615a.84.84,0,0,0,0-1.632h-7.615V47.3h7.615a.84.84,0,0,0,0-1.632h-7.615V18.757a.659.659,0,1,0-1.281,0V45.663H423.046V18.757a.659.659,0,1,0-1.281,0V45.663h-20.3V18.757a.659.659,0,1,0-1.281,0V45.663H379.876V18.757a.659.659,0,1,0-1.281,0V45.663H358.286V18.757a.659.659,0,1,0-1.281,0V45.663H336.7V18.757a.658.658,0,1,0-1.278,0V45.663H315.109V18.757a.659.659,0,1,0-1.281,0V45.663h-20.3V18.757a.659.659,0,1,0-1.281,0V45.663H271.939V18.757a.659.659,0,1,0-1.281,0V45.663H249.872V18.757a.659.659,0,1,0-1.281,0V45.663H228.282V18.757a.659.659,0,1,0-1.281,0V45.663H206.692V18.757a.658.658,0,1,0-1.278,0V45.663H185.109V18.757a.659.659,0,1,0-1.281,0V45.663H163.519V18.757a.659.659,0,1,0-1.281,0V45.663H141.932V18.757a.659.659,0,1,0-1.281,0V45.663H120.345V18.757a.659.659,0,1,0-1.281,0V45.663H98.755V18.757a.658.658,0,1,0-1.278,0V45.663H77.171V18.757a.659.659,0,1,0-1.281,0V45.663H55.585V18.757a.659.659,0,1,0-1.281,0V45.663H33.518V18.757a.659.659,0,1,0-1.281,0V45.663H11.928V18.757a.743.743,0,0,0-.64-.816.743.743,0,0,0-.637.816V45.663H3.338a.84.84,0,0,0,0,1.632H10.65V76.276H3.338a.84.84,0,0,0,0,1.632Zm21.587-1.632H11.928V47.3H32.237Zm0,30.61H11.928V77.908H32.237Zm0,30.613H11.928V108.522H32.237ZM54.3,76.276H33.518V47.3H54.3Zm0,30.61H33.518V77.908H54.3Zm0,30.613H33.518V108.522H54.3ZM75.89,76.276H55.585V47.3H75.89Zm0,30.61H55.585V77.908H75.89Zm0,30.613H55.585V108.522H75.89ZM97.477,76.276h-20.3V47.3h20.3Zm0,30.61h-20.3V77.908h20.3Zm0,30.613h-20.3V108.522h20.3Zm21.587-61.224H98.755V47.3h20.309Zm0,30.61H98.755V77.908h20.309Zm0,30.613H98.755V108.522h20.309Zm21.587-61.224H120.342V47.3h20.309Zm0,30.61H120.342V77.908h20.309Zm0,30.613H120.342V108.522h20.309Zm21.587-61.224H141.932V47.3h20.306Zm0,30.61H141.932V77.908h20.306Zm0,30.613H141.932V108.522h20.306Zm21.59-61.224H163.519V47.3h20.309Zm0,30.61H163.519V77.908h20.309Zm0,30.613H163.519V108.522h20.309Zm21.587-61.224h-20.3V47.3h20.3Zm0,30.61h-20.3V77.908h20.3Zm0,30.613h-20.3V108.522h20.3ZM227,76.276H206.692V47.3H227Zm0,30.61H206.692V77.908H227Zm0,30.613H206.692V108.522H227Zm21.59-61.224H228.282V47.3h20.309Zm0,30.61H228.282V77.908h20.309Zm0,30.613H228.282V108.522h20.309Zm22.066-61.224H249.872V47.3h20.785Zm0,30.61H249.872V77.908h20.785Zm0,30.613H249.872V108.522h20.785Zm21.587-61.224H271.939V47.3h20.306Zm0,30.61H271.939V77.908h20.306Zm0,30.613H271.939V108.522h20.306Zm21.584-61.224h-20.3V47.3h20.3Zm0,30.61h-20.3V77.908h20.3Zm0,30.613h-20.3V108.522h20.3Zm21.59-61.224H315.109V47.3h20.309Zm0,30.61H315.109V77.908h20.309Zm0,30.613H315.109V108.522h20.309ZM357,76.276H336.7V47.3H357Zm0,30.61H336.7V77.908H357Zm0,30.613H336.7V108.522H357Zm21.59-61.224H358.286V47.3h20.309Zm0,30.61H358.286V77.908h20.309Zm0,30.613H358.286V108.522h20.309Zm21.587-61.224H379.876V47.3h20.306Zm0,30.61H379.876V77.908h20.306Zm0,30.613H379.876V108.522h20.306Zm21.584-61.224h-20.3V47.3h20.3Zm0,30.61h-20.3V77.908h20.3Zm0,30.613h-20.3V108.522h20.3Zm21.59-61.224H423.046V47.3h20.309Zm0,30.61H423.046V77.908h20.309Zm0,30.613H423.046V108.522h20.309Zm-20.309,90.563h20.309v28.981H423.046Zm0-30.613h20.309V226.43H423.046Zm0-30.61h20.309v28.978H423.046Zm0-6.93V139.132h20.309v26.074H423.046Zm-21.584,68.153h20.3v28.981h-20.3Zm0-30.613h20.3V226.43h-20.3Zm0-30.61h20.3v28.978h-20.3Zm0-6.93V139.132h20.3v26.074h-20.3Zm-21.587,68.153h20.306v28.981H379.876Zm0-30.613h20.306V226.43H379.876Zm0-30.61h20.306v28.978H379.876Zm0-6.93V139.132h20.306v26.074H379.876Zm-21.59,68.153h20.309v28.981H358.286Zm0-30.613h20.309V226.43H358.286Zm0-30.61h20.309v28.978H358.286Zm0-6.93V139.132h20.309v26.074H358.286ZM336.7,228.062H357v28.981H336.7Zm0-30.613H357V226.43H336.7Zm0-30.61H357v28.978H336.7Zm0-6.93V139.132H357v26.074H336.7Zm-21.587,68.153h20.309v28.981H315.109Zm0-30.613h20.309V226.43H315.109Zm0-30.61h20.309v28.978H315.109Zm0-6.93V139.132h20.309v26.074H315.109Zm-21.584,68.153h20.3v28.981h-20.3Zm0-30.613h20.3V226.43h-20.3Zm0-30.61h20.3v28.978h-20.3Zm0-6.93V139.132h20.3v26.074h-20.3Zm-21.587,68.153h20.306v28.981H271.939Zm0-30.613h20.306V226.43H271.939Zm0-30.61h20.306v28.978H271.939Zm0-6.93V139.132h20.306v26.074H271.939Zm-22.066,68.153h20.785v28.981H249.872Zm0-30.613h20.785V226.43H249.872Zm0-30.61h20.785v28.978H249.872Zm0-6.93V139.132h20.785v26.074H249.872Zm-21.59,68.153h20.309v28.981H228.282Zm0-30.613h20.309V226.43H228.282Zm0-30.61h20.309v28.978H228.282Zm0-6.93V139.132h20.309v26.074H228.282Zm-21.59,68.153H227v28.981H206.692Zm0-30.613H227V226.43H206.692Zm0-30.61H227v28.978H206.692Zm0-6.93V139.132H227v26.074H206.692Zm-21.584,68.153h20.3v28.981h-20.3Zm0-30.613h20.3V226.43h-20.3Zm0-30.61h20.3v28.978h-20.3Zm0-6.93V139.132h20.306v26.074H185.109Zm-21.59,68.153h20.309v28.981H163.519Zm0-30.613h20.309V226.43H163.519Zm0-30.61h20.309v28.978H163.519Zm0-6.93V139.132h20.309v26.074H163.519Zm-21.587,68.153h20.309v28.981H141.932Zm0-30.613h20.309V226.43H141.932Zm0-30.61h20.309v28.978H141.932Zm0-6.93V139.132h20.306v26.074H141.932Zm-21.587,68.153h20.309v28.981H120.345Zm0-30.613h20.309V226.43H120.345Zm0-30.61h20.309v28.978H120.345Zm0-6.93V139.132h20.306v26.074H120.345Zm-21.59,68.153h20.309v28.981H98.755Zm0-30.613h20.309V226.43H98.755Zm0-30.61h20.309v28.978H98.755Zm0-6.93V139.132h20.309v26.074H98.755ZM77.171,228.062h20.3v28.981h-20.3Zm0-30.613h20.3V226.43h-20.3Zm0-30.61h20.3v28.978h-20.3Zm0-6.93V139.132H97.477v26.074H77.171ZM55.585,228.062H75.89v28.981H55.585Zm0-30.613H75.89V226.43H55.585Zm0-30.61H75.89v28.978H55.585Zm0-6.93V139.132H75.89v26.074H55.585ZM33.518,228.062H54.3v28.981H33.518Zm0-30.613H54.3V226.43H33.518Zm0-30.61H54.3v28.978H33.518Zm0-6.93V139.132H54.3v26.074H33.518Zm-21.59,68.153H32.237v28.981H11.928Zm0-30.613H32.237V226.43H11.928Zm0-30.61H32.237v28.978H11.928Zm0-6.93V139.132H32.237v26.074H11.928Z" transform="translate(-2.698 -17.941)" fill="#aab6c2"/>
            </g>
          </g>
        </g>
      </g>
    </g>
    <g id="Group_300" data-name="Group 300">
      <g id="Group_299" data-name="Group 299" clip-path="url(#clip-path)">
        <g id="Mask_Group_68" data-name="Mask Group 68" transform="translate(270.788 651.629)" clip-path="url(#clip-path-6)">
          <g id="Group_1474" data-name="Group 1474" transform="translate(-3.237 -3.26)">
            <path id="Path_4449" data-name="Path 4449" d="M19.72,9.937c.64,1.927-7.858,9.005-8.615,8.476C8.774,16.78.368,9.966.01,8.246-.342,6.576,7.083-1.439,9.263.224c1.89,1.44,9.845,7.855,10.457,9.713" transform="translate(30.875 28.006) rotate(-131)" fill="#fff"/>
            <path id="Path_4450" data-name="Path 4450" d="M9.374.027A2.969,2.969,0,0,0,7.839.248C5,1.336-.385,6.927.02,8.86c.51,2.413,10.6,10.131,11.521,10.774a1.347,1.347,0,0,0,1.522-.072c1.565-.818,8.854-6.573,8.079-8.916C20.323,8.16,10.419.513,10.32.435A2.089,2.089,0,0,0,9.374.027M11.851,18.4c-3.146-2.264-10.107-8.2-10.4-9.365C1.386,8.058,5.321,3.216,8.34,1.747c.959-.47,1.319-.32,1.335-.32,3.3,2.509,9.625,7.9,10.075,9.2.2,1.338-6.146,7.182-7.9,7.777" transform="translate(30.821 29.016) rotate(-131)"/>
            <path id="Path_4451" data-name="Path 4451" d="M14.448,36.252S3.484,33.235-.005,25.273c0,0,16.5-20.572,23.17-25.278,0,0,10.28,8.9,6.533,14.7A71.849,71.849,0,0,1,21.1,25.3s-8.909,2.3-6.648,10.955" transform="translate(20.029 54) rotate(-131)" fill="#aab6c2"/>
          </g>
        </g>
        <g id="Mask_Group_67" data-name="Mask Group 67" transform="matrix(0.899, -0.438, 0.438, 0.899, 352.791, 673.418)" clip-path="url(#clip-path-7)">
          <g id="Group_1473" data-name="Group 1473" transform="translate(-3.238 -3.261)">
            <path id="Path_4446" data-name="Path 4446" d="M19.724,9.937c.64,1.926-7.859,9-8.616,8.474C8.776,16.777.369,9.964.011,8.245-.341,6.575,7.084-1.438,9.265.225c1.891,1.439,9.847,7.854,10.459,9.712" transform="translate(30.877 28.013) rotate(-131)" fill="#fff"/>
            <path id="Path_4447" data-name="Path 4447" d="M9.376.027A2.97,2.97,0,0,0,7.841.248C5,1.336-.384,6.926.02,8.858c.51,2.412,10.605,10.13,11.524,10.773a1.348,1.348,0,0,0,1.522-.072c1.565-.817,8.855-6.571,8.08-8.914C20.327,8.16,10.421.513,10.322.436A2.09,2.09,0,0,0,9.376.027M11.854,18.4c-3.146-2.264-10.109-8.2-10.4-9.364-.069-.979,3.866-5.82,6.885-7.289.959-.47,1.32-.32,1.336-.32,3.3,2.509,9.627,7.9,10.077,9.2.2,1.338-6.147,7.18-7.9,7.775" transform="translate(30.824 29.023) rotate(-131)"/>
            <path id="Path_4448" data-name="Path 4448" d="M14.452,36.246S3.487,33.229,0,25.269C0,25.269,16.5,4.7,23.169,0c0,0,10.282,8.9,6.535,14.693a71.831,71.831,0,0,1-8.6,10.6s-8.911,2.295-6.649,10.952" transform="translate(20.036 54.007) rotate(-131)" fill="#aab6c2"/>
          </g>
        </g>
        <path id="Path_537" data-name="Path 537" d="M24.576,100.416l-6.805-.039L17.7,87.039l-2.474-.012.067,13.335-6.8-.039.039,8.274,6.805.039.124,24.7,2.477.015-.127-24.7,6.805.039Z" transform="translate(17.289 177.015)" fill="#f40"/>
        <path id="Path_538" data-name="Path 538" d="M31.991,89.292l-6.805-.039-.021-4.694-2.474-.012.021,4.691-6.8-.039.1,20.252,6.805.039.094,18.526,2.474.015L25.292,109.5l6.8.039Z" transform="translate(32.382 171.97)" fill="#aab6c2"/>
        <path id="Path_539" data-name="Path 539" d="M39.452,75.693l-6.805-.039-.046-9.26-2.474-.015.046,9.26-6.8-.039.276,54.8,6.805.039.1,20.113,2.474.015-.1-20.112,6.805.039Z" transform="translate(47.567 135.015)" fill="#aab6c2"/>
        <path id="Path_540" data-name="Path 540" d="M46.982,67.509l-6.8-.039-.115-22.725-2.477-.012L37.7,67.454l-6.8-.039.149,29.269,6.8.039.137,26.921,2.474.015-.137-26.921,6.805.036Z" transform="translate(62.892 90.987)" fill="#f40"/>
        <path id="Path_541" data-name="Path 541" d="M54.454,65.334l-6.805-.039L47.6,54.675l-2.474-.015.052,10.619-6.8-.039.158,31.065,6.805.042.134,26.921,2.474.015L47.81,96.363l6.8.036Z" transform="translate(78.101 111.18)" fill="#aab6c2"/>
        <path id="Path_542" data-name="Path 542" d="M61.914,75.867l-6.805-.039-.07-14.078-2.474-.015.07,14.078-6.8-.039.106,21.117,6.805.039.17,33.714,2.474.015-.17-33.714,6.805.039Z" transform="translate(93.283 125.57)" fill="#aab6c2"/>
        <path id="Path_543" data-name="Path 543" d="M69.307,74.351,62.5,74.311l-.058-11.487-2.474-.012L60.028,74.3l-6.8-.039.319,62.983,6.8.036.121,23.714,2.474.012-.118-23.711,6.8.039Z" transform="translate(108.329 127.762)" fill="#f40"/>
        <path id="Path_544" data-name="Path 544" d="M76.749,71.872l-6.805-.039-.127-25.192-2.474-.015.127,25.191-6.8-.039.118,23.341,6.8.039.064,12.224,2.474.015-.064-12.224,6.805.039Z" transform="translate(123.477 94.839)" fill="#f40"/>
        <path id="Path_545" data-name="Path 545" d="M84.228,71.613l-6.805-.039-.1-19.266-2.474-.015.1,19.266-6.8-.039.137,27.23,6.805.039.073,14.078,2.471.015L77.562,98.8l6.8.039Z" transform="translate(138.697 106.364)" fill="#f40"/>
        <path id="Path_546" data-name="Path 546" d="M91.71,60.613,84.9,60.574l-.14-27.786-2.474-.015.14,27.786-6.8-.039.316,62.492,6.805.042.191,38.38,2.477.015-.194-38.383,6.8.039Z" transform="translate(153.925 66.661)" fill="#aab6c2"/>
        <path id="Path_547" data-name="Path 547" d="M99.206,63.872,92.4,63.833,92.322,47.9l-2.474-.015.079,15.932-6.8-.039.358,70.99,6.805.039.094,18.893,2.474.015-.094-18.893,6.805.039Z" transform="translate(169.182 97.401)" fill="#f40"/>
        <path id="Path_548" data-name="Path 548" d="M106.636,86.448l-6.805-.039-.079-15.932-2.474-.012.079,15.929-6.8-.039.158,31.5,6.805.039.021,4.314,2.474.015-.021-4.317,6.805.039Z" transform="translate(184.303 143.326)" fill="#aab6c2"/>
        <path id="Path_549" data-name="Path 549" d="M113.993,57.754l-6.805-.039-.064-12.967-2.477-.015.067,12.967-6.8-.039L98.2,115.7l6.805.039.082,16.3,2.474.015-.082-16.3,6.805.039Z" transform="translate(199.278 90.986)" fill="#aab6c2"/>
        <path id="Path_550" data-name="Path 550" d="M121.426,51.092l-6.8-.039-.024-4.815-2.474-.015.024,4.815L105.345,51l.137,26.675,6.8.043.079,15.558,2.474.015-.079-15.561,6.805.039Z" transform="translate(214.405 94.017)" fill="#aab6c2"/>
        <path id="Path_551" data-name="Path 551" d="M128.8,40,122,39.96l-.07-14.078-2.474-.015.07,14.078-6.8-.039.225,44.7,6.805.039.073,14.818,2.474.015-.073-14.818,6.805.039Z" transform="translate(229.42 52.613)" fill="#f40"/>
        <path id="Path_552" data-name="Path 552" d="M136.186,51.193l-6.805-.039-.055-10.743-2.474-.015.055,10.743L120.1,51.1l.225,44.533,6.808.039.2,39.624,2.474.015-.2-39.624,6.8.039Z" transform="translate(244.44 82.165)" fill="#f40"/>
        <path id="Path_553" data-name="Path 553" d="M143.567,30.834l-6.805-.039-.052-10.373-2.474-.015.052,10.373-6.8-.039.392,77.219,6.8.042.1,19.136,2.474.015-.1-19.139,6.805.039Z" transform="translate(259.468 41.507)" fill="#aab6c2"/>
        <path id="Path_554" data-name="Path 554" d="M151.035,43.809l-6.805-.039-.079-15.932-2.474-.015.079,15.932-6.8-.039.088,17.907,6.805.039.07,14.078,2.477.015-.073-14.078,6.805.039Z" transform="translate(274.668 56.591)" fill="#f40"/>
        <path id="Path_555" data-name="Path 555" d="M134.193,260.246h32.6V197.969a9.31,9.31,0,0,0-9.312-9.308H143.5a9.3,9.3,0,0,0-9.306,9.305Z" transform="translate(273.119 383.741)" fill="#aab6c2"/>
        <path id="Path_556" data-name="Path 556" d="M101.311,267.049a14.52,14.52,0,0,0,14.53,14.524H236.857s3.33-1.035,8.7-2.719c21.848-6.948,77.639-25.116,81.363-30.95,4.626-7.26,15.659-109.8,15.659-109.8H221.553a14.541,14.541,0,0,0-15.641,13.338L203.1,215.582a40.359,40.359,0,0,1-40.026,36.942H115.841a14.522,14.522,0,0,0-14.53,14.524" transform="translate(206.195 280.823)" fill="#f40"/>
        <path id="Path_557" data-name="Path 557" d="M139.8,206.5h47.708c7,0,12.669-10.052,12.669-22.446H127.134c0,12.394,5.673,22.446,12.669,22.446" transform="translate(258.752 374.378)"/>
        <path id="Path_558" data-name="Path 558" d="M101.311,190.313a14.52,14.52,0,0,0,14.53,14.524H245.553V175.789H115.841a14.522,14.522,0,0,0-14.53,14.524" transform="translate(206.195 357.559)" fill="#f40"/>
        <path id="Path_559" data-name="Path 559" d="M155.714,281.57h47.241a69.548,69.548,0,0,0,68.986-63.7l2.817-64.13a14.528,14.528,0,0,0-28.966-2.3l-2.817,64.13a40.345,40.345,0,0,1-40.02,36.957H155.714a14.524,14.524,0,1,0,0,29.048" transform="translate(287.347 280.825)"/>
        <path id="Path_560" data-name="Path 560" d="M181.606,232.729s.865-3.389-6.5-4.518c-11.206-1.708-63.75-46.484-71.125-77.395-6.714-28.131,3.1-60.7,3.715-76.818,3.111-2.9,8.942-4.236,11.5-5.382,5.709-2.558,8.274,51.788,33.242,75.65,31.649,30.249,73.611,63.293,79.1,75.389,5.961,13.207-49.927,13.074-49.927,13.074" transform="translate(206.86 139.388)" fill="#fff"/>
        <path id="Path_561" data-name="Path 561" d="M182.327,234.176h-.155l-1.111,0,.267-1.059a1.6,1.6,0,0,0-.34-1.129c-.546-.768-1.93-1.8-5.451-2.342C164.756,228,111.241,183.19,103.7,151.6c-4.778-20.025-1.193-42.661,1.427-59.191A169.427,169.427,0,0,0,107.4,74.547l.012-.355.261-.243c2.392-2.236,6.268-3.58,9.1-4.56,1.038-.361,1.958-.677,2.638-.983a1.757,1.757,0,0,1,1.53.024c2.015.977,3.345,6,5.925,16.344,4.416,17.719,11.094,44.494,26.738,59.446,11.343,10.841,23.809,21.86,35.865,32.519,21.371,18.893,39.832,35.213,43.429,43.138a4.835,4.835,0,0,1-.276,4.87c-5.986,9.239-46.962,9.43-50.285,9.43m-73.22-159.2a177.293,177.293,0,0,1-2.267,17.694c-2.744,17.3-6.156,38.829-1.457,58.52,7.418,31.074,59.862,75.131,70.418,76.739,3.381.519,5.627,1.578,6.668,3.155a3.589,3.589,0,0,1,.552,1.356c12.645-.042,43.6-1.632,48.136-8.641a3.147,3.147,0,0,0,.152-3.216c-3.445-7.585-21.772-23.793-43-42.555-12.065-10.668-24.546-21.7-35.913-32.564-16-15.3-22.755-42.367-27.22-60.277-1.76-7.057-3.755-15.055-5.036-15.219-.75.331-1.718.667-2.811,1.047-2.577.9-6.071,2.106-8.226,3.959" transform="translate(206.29 138.808)"/>
        <path id="Path_562" data-name="Path 562" d="M117.806,69.83c.838-.583-.018-3.119-1-3.944a1.906,1.906,0,0,1-.7-1.881c.243-.88.953-.919,1.615-.822,1.141.167,4.125,3.134,4.356,5.285.947,8.835-1.035,16.314-3.742,18.329-1.132.846-7.288,2.9-11.643-1.739-5.136-8.058-5.36-12.728-3.33-16.129-2.771-1.739,13.553,1.526,14.445.9" transform="translate(207.939 128.44)" fill="#fff"/>
        <path id="Path_563" data-name="Path 563" d="M114.106,89.419a9.96,9.96,0,0,1-7.461-3.192c-4.7-7.345-5.855-12.467-3.764-16.581a.928.928,0,0,1-.058-.786c.361-.989,1.263-.986,8.811.058a58.7,58.7,0,0,0,6.234.71,3.91,3.91,0,0,0-1.035-2.5,2.769,2.769,0,0,1-.974-2.779,2.033,2.033,0,0,1,2.571-1.447c1.569.231,4.82,3.519,5.09,6.053.911,8.486-.847,16.7-4.085,19.111a10.2,10.2,0,0,1-5.33,1.353M104.73,69.856l-.042.094c-1.436,2.409-2.358,6.317,3.318,15.219,4.028,4.275,9.771,1.981,10.4,1.514,2.352-1.751,4.322-8.956,3.4-17.543-.188-1.766-2.883-4.4-3.621-4.524-.574-.091-.6.009-.653.194a1.072,1.072,0,0,0,.419.992,5.513,5.513,0,0,1,1.648,3.856,1.76,1.76,0,0,1-.707,1.459c-.565.4-1.612.328-7.488-.485-2.167-.3-5.233-.722-6.668-.777" transform="translate(207.354 127.862)"/>
        <path id="Path_564" data-name="Path 564" d="M101.936,68.271c-.322-3.307.188-3.3,4.085-3.726.076-.006.137.012.216.006a4.6,4.6,0,0,1,1.175-.328,5.781,5.781,0,0,1,1.836.121,3.065,3.065,0,0,1,.389-.476c1.581-1.447,3.919-.774,5.372.473.082.073.155.176.237.258a4.115,4.115,0,0,1,3.648-1.283,4.486,4.486,0,0,1,4.052,4.144c.892,3.086.264,7.063-1.387,7.248-2.483.279-3.236-2.6-2.865-4.654.012-.07-.043-.152-.07-.221a5.332,5.332,0,0,1-2.131,2.743,2.264,2.264,0,0,1-3.33-.746c-.079.173-.155.352-.237.513a2.308,2.308,0,0,1-3.891.51,8.422,8.422,0,0,1-.844-1.314c-2.726,2.588-5.943-.094-6.256-3.268" transform="translate(207.304 128.246)" fill="#fff"/>
        <path id="Path_565" data-name="Path 565" d="M121.8,76.17a3.055,3.055,0,0,1-2.3-.983,4.432,4.432,0,0,1-1.035-2.057,6.053,6.053,0,0,1-.932.746,3.263,3.263,0,0,1-2.592.482,3.179,3.179,0,0,1-1.047-.488,3.312,3.312,0,0,1-2.213,1.262,3.158,3.158,0,0,1-2.732-1.138,4.834,4.834,0,0,1-.44-.595,3.8,3.8,0,0,1-3.442.37,5.812,5.812,0,0,1-3.43-4.839c-.379-3.923.731-4.217,4.635-4.645l.3-.033.088.006a4.629,4.629,0,0,1,1.229-.319,6.992,6.992,0,0,1,1.554.036,2.419,2.419,0,0,1,.176-.176c1.791-1.638,4.4-1.147,6.2.212a4.87,4.87,0,0,1,3.752-.977,5.327,5.327,0,0,1,4.787,4.861c.725,2.488.507,5.613-.534,7.172a2.215,2.215,0,0,1-1.609,1.077,4.136,4.136,0,0,1-.425.024m-2.653-8.222L120,70.09a1.131,1.131,0,0,1,.112.7A4.067,4.067,0,0,0,120.769,74a1.413,1.413,0,0,0,1.266.425c.1-.012.237-.13.364-.322.668-1,.941-3.574.288-5.831-.364-2.175-1.417-3.265-3.339-3.529a3.246,3.246,0,0,0-2.92,1.041l-.619.619-.613-.625.407-.816-.006-.006-.6.6c-.968-.831-2.911-1.666-4.207-.473a1.59,1.59,0,0,0-.209.261l-.334.467-.622-.046a4.957,4.957,0,0,0-1.563-.106,3.519,3.519,0,0,0-.889.255l-.376.079-.17-.006-.161.015c-3.33.364-3.33.364-3.1,2.761a4.084,4.084,0,0,0,2.31,3.386,2.277,2.277,0,0,0,2.489-.661l.8-.752.7,1.211a5.518,5.518,0,0,0,.6.919,1.441,1.441,0,0,0,1.235.546,1.669,1.669,0,0,0,1.238-.907c.052-.1.1-.218.158-.34l.71-1.6.889,1.42a1.383,1.383,0,0,0,.871.692,1.555,1.555,0,0,0,1.226-.252,4.481,4.481,0,0,0,1.788-2.309Z" transform="translate(206.73 127.67)"/>
        <path id="Path_566" data-name="Path 566" d="M108.616,73.307c1.433.249,3.105-3.18,2.935-4.994a2.719,2.719,0,0,1,1.178-2.606c1.129-.649,1.885.021,2.459.783.993,1.314,1.038,7.3-.886,9.712-7.889,9.894-7.215-3.158-5.685-2.894" transform="translate(219.105 133.116)" fill="#fff"/>
        <path id="Path_567" data-name="Path 567" d="M110.153,81.368a2.231,2.231,0,0,1-1.108-.291c-1.988-1.1-1.9-5.033-1.3-6.748.449-1.286,1.19-1.368,1.594-1.3.043.024.164-.027.4-.243a5.9,5.9,0,0,0,1.53-3.82,3.577,3.577,0,0,1,1.609-3.435c.9-.516,2.243-.759,3.579,1.01,1.269,1.681,1.235,8.1-.9,10.774-2.161,2.709-3.943,4.047-5.406,4.047m-.725-6.605a6.915,6.915,0,0,0-.033,4.105c.173.458.395.713.653.752.291.039,1.512-.061,4.158-3.377,1.736-2.178,1.566-7.734.871-8.656-.643-.85-.947-.774-1.336-.552a1.876,1.876,0,0,0-.75,1.772,7.553,7.553,0,0,1-2.076,5.255,2.377,2.377,0,0,1-1.487.7m-.379-.024,0,0Z" transform="translate(218.527 132.536)"/>
        <path id="Path_568" data-name="Path 568" d="M242.346,206.441c-10.08,19.921-46.118,28.025-72.868,35.07-16.032,4.245-28.723,8.107-30.429,13.938-6.668,22.807-11.37,82.768-17.7,103.754-2.273,2.609-7.008,2.649-11.938,1.741a79.481,79.481,0,0,1-16.485-5.419c1.442-46.742-2.422-90.341,5.078-122.763,12.581-54.47,95.074-79.355,95.074-79.355,14.478-15.835,66.922,18.1,49.262,53.032" transform="translate(189.142 303.897)"/>
        <path id="Path_569" data-name="Path 569" d="M194.516,154.725a1.561,1.561,0,0,0-2.046,1.441,2.447,2.447,0,0,0-.492.224c-16.257,11.211-38.162,15.8-50.513,32.194-4.89,6.554-6.82,14.281-8.414,22.121-2.462,12.048-7.351,21.63-12.39,32.689-8.981,19.733-15.5,42.234-19.744,63.484a134.932,134.932,0,0,0-2.8,32.425,73.2,73.2,0,0,0,.986,10.986c4.929.907,9.664.868,11.938-1.742,6.325-20.986,11.024-80.948,17.7-103.754,1.706-5.828,14.4-9.694,30.429-13.935a254.873,254.873,0,0,1,19.022-20.95c8.754-8.635,18.91-15.828,27.433-24.691,12.432-12.995,4.738-26.059-11.1-30.492" transform="translate(199.459 314.553)"/>
        <path id="Path_570" data-name="Path 570" d="M252.266,207.092c-16.105,31.894-79.005,22.807-83.555,38.335-6.669,22.8-10.991,105.341-2.386,118.6a18.423,18.423,0,0,1-2.653,2.388c-7.127,5.225-19.593,7.876-19.593,7.876-14.512-31.781-28.99-93.785-31.187-129.729C109.484,188.8,203,154.064,203,154.064c11.825-12.913,48.959,7.348,52.559,34.206a31.592,31.592,0,0,1-3.3,18.823" transform="translate(229.583 305.248)"/>
        <path id="Path_571" data-name="Path 571" d="M231.314,163.936a18.025,18.025,0,0,0-9.813-1.817,1.907,1.907,0,0,0-.8,3.486c-8.559,24.391-36.15,30.68-58.848,35.11-16.105,3.143-29.1,7.879-32.587,25.495-2.085,10.373-2.046,21.363-2.8,31.894-.719,10.379-1.706,20.756-1.745,31.172a98.824,98.824,0,0,0,14.7,52.8,18.264,18.264,0,0,0,2.653-2.388c-8.6-13.256-4.283-95.793,2.389-118.6,4.547-15.528,67.45-6.441,83.555-38.335a31.614,31.614,0,0,0,3.3-18.823" transform="translate(253.835 329.581)"/>
        <path id="Path_572" data-name="Path 572" d="M120.823,244.759c.562,1.778,25.323,15.959,39.137,21.144,23.96,9,64.484,16,74.865,14.029,4.246-.795,6.969-1.936,7.616-3.295,2.006-4.32-4.908-46.351-4.076-74.3.152-5.416.267-10.91.267-16.287.152-28.1-1.821-54.43-8.186-59.318-1.439-1.135-3.108-2.309-4.966-3.559a92.888,92.888,0,0,0-9.622-5.759,90.463,90.463,0,0,0-19.817-7.649,82.285,82.285,0,0,0-39.562-.607.037.037,0,0,1-.039.036,80.545,80.545,0,0,0-10.912,3.259c-.871.3-1.745.643-2.656.983-12.426,5-10.645,32.045-8.632,54.737.9,10.528,1.855,20.109,1.475,26.1a53.311,53.311,0,0,1-.759,5.986c-2.808,16.7-12.053,32.346-14.132,44.506" transform="translate(245.907 217.714)" fill="#ff814c"/>
        <path id="Path_573" data-name="Path 573" d="M119.233,245.388c.568,1.784,33.157,17.045,51.63,24.621,23.675,9.712,57.288,11.89,67.671,9.924,4.246-.795,6.972-1.936,7.616-3.295,2.009-4.32-4.905-46.351-4.073-74.3.152-5.416.264-10.91.264-16.287.152-28.1-1.818-54.43-8.183-59.318-1.439-1.135-3.108-2.309-4.966-3.559a93.543,93.543,0,0,0-9.622-5.759,90.492,90.492,0,0,0-19.82-7.649,82.235,82.235,0,0,0-39.559-.607.038.038,0,0,1-.042.036,80.673,80.673,0,0,0-10.912,3.259c-.868.3-1.742.643-2.653.983-12.426,5-10.648,32.045-8.635,54.737.9,10.528-21.45,75.966-18.715,77.216" transform="translate(242.198 217.713)" fill="#fff"/>
        <path id="Path_574" data-name="Path 574" d="M229.4,282.031c-14.973,0-39.777-3.04-58.314-10.643-12.423-5.094-47.693-20.907-51.757-24.685-1.548-.913-.416-5.877,7.373-32.9,5.342-18.541,11.4-39.561,10.936-44.982-2.249-25.364-3.39-50.553,9.176-55.611l.759-.288c.656-.246,1.293-.488,1.933-.71a82.162,82.162,0,0,1,10.372-3.143v-.024l.671-.155a83.191,83.191,0,0,1,39.971.613,91.26,91.26,0,0,1,20.005,7.719,95.328,95.328,0,0,1,9.707,5.813c2.161,1.453,3.709,2.564,5.014,3.6,7.272,5.583,8.644,35.71,8.514,60,0,4.633-.085,9.815-.264,16.3-.455,15.21,1.375,34.409,2.847,49.837,1.414,14.876,2.11,22.734,1.144,24.809-.774,1.632-3.545,2.9-8.241,3.78a56.762,56.762,0,0,1-9.846.671M120.575,245.6c2.021,2.157,31.873,16.274,51.166,24.19,23.384,9.591,56.787,11.848,67.183,9.873,5.764-1.08,6.811-2.427,7-2.816.81-1.742-.215-12.509-1.3-23.911-1.475-15.477-3.311-34.733-2.856-50.049.182-6.472.267-11.642.267-16.259.179-33.3-2.68-54.664-7.849-58.632-1.278-1.007-2.792-2.093-4.92-3.526a93.256,93.256,0,0,0-9.54-5.71,89.335,89.335,0,0,0-19.632-7.579,81.492,81.492,0,0,0-38.481-.752v.173l-.9.036a83.189,83.189,0,0,0-10.608,3.2c-.643.225-1.269.461-1.909.7l-.747.282c-12.405,4.991-9.7,35.574-8.077,53.848.495,5.743-5.348,26.011-11,45.614-3.864,13.407-8.229,28.556-7.949,31.014l.082.036Z" transform="translate(241.648 217.135)"/>
        <path id="Path_575" data-name="Path 575" d="M140.719,108.758l4.96,3.711-4.3,4.836-4.425-.279-1.742-4.909Z" transform="translate(275.194 221.216)" fill="#f40"/>
        <path id="Path_576" data-name="Path 576" d="M141.807,111.483s-11.8,27.613-8.347,57.977l8.347,8.844,6.335-7.409s-6.213-39.37-1.909-59.133Z" transform="translate(270.343 226.759)" fill="#f40"/>
        <path id="Path_577" data-name="Path 577" d="M159.039,107.53l1.824.24-5.986,14.2-11.422-8.55-10.572,6.453,7.266-11.954s4.778-1.28,6.82-.391.971,4.478.971,4.478Z" transform="translate(270.455 218.079)" fill="#fff"/>
        <path id="Path_578" data-name="Path 578" d="M156.981,123.906l-11.841-8.862-13.109,8,9.3-15.291.334-.091c.522-.14,5.133-1.332,7.391-.349,1.545.674,1.87,2.379,1.754,3.88l9.856-3.978,3.169.419Zm-11.74-10.947,11,8.234,5.114-12.136-.47-.064-12.548,5.067.51-1.72c.222-.74.6-2.964-.489-3.441-1.2-.522-4.128-.091-5.916.349l-5.233,8.611Z" transform="translate(268.719 217.5)"/>
        <path id="Path_579" data-name="Path 579" d="M137.021,107.434v12.154s-2.871,5.267,0,5.837c6.316,1.262,15.431-5.831,15.431-5.831v-18.55Z" transform="translate(276.277 205.526)" fill="#fff"/>
        <path id="Path_580" data-name="Path 580" d="M139.187,127.31a9.082,9.082,0,0,1-1.757-.164,2.3,2.3,0,0,1-1.706-1.286c-.832-1.778.522-4.678,1.011-5.619V107.726l17.161-7.109v20.267l-.334.261c-.352.273-8,6.165-14.375,6.165m-.722-18.429-.106,11.987c-.683,1.256-1.466,3.407-1.065,4.257a.569.569,0,0,0,.477.322c5.215,1.029,12.73-4.2,14.4-5.419V103.205Z" transform="translate(275.697 204.657)"/>
        <path id="Path_581" data-name="Path 581" d="M131.88,101.182s-.452,12.837,2.659,23.207c2.21,7.361,19.065,10.807,25.026-3.641s-3.657-28.122-3.657-28.122Z" transform="translate(268.365 188.403)" fill="#fff"/>
        <path id="Path_582" data-name="Path 582" d="M146.193,132.31c-.276,0-.552-.009-.832-.021-5.369-.27-9.922-3.128-11.07-6.957-3.117-10.385-2.714-22.955-2.692-23.486l.018-.586,25.2-8.975.379.537c.4.576,9.822,14.23,3.752,28.951-2.744,6.648-8.219,10.537-14.754,10.537m-12.879-29.818c-.039,2.612-.027,13.474,2.635,22.343.926,3.089,4.92,5.5,9.5,5.725,6.131.3,11.334-3.225,13.9-9.445,5.06-12.263-1.56-24.105-3.208-26.751Z" transform="translate(267.784 187.71)"/>
        <path id="Path_583" data-name="Path 583" d="M172.426,197.753c1.515,11.593,3.542,13.592,3.032-13.007-.1-5.419.728-36.608-.692-46.284-2.125-4.851-10.529-28.2-14.229-21.617-8.481,15.1-14.02,17.634-1.326,35.968,8.678,12.464,11.091,28.769,13.216,44.94" transform="translate(308.816 235.302)"/>
        <path id="Path_584" data-name="Path 584" d="M131.321,106.439c7.965,5.258,20.324.519,29.433-3.422.243,1,.637,2,.859,2.8.989,3.565.977,8.465,3.694,11.287a4.648,4.648,0,0,0,6.653.291,3.963,3.963,0,0,0,1.2-3.8c1.427-7.449-2.811-18.241-8.927-21.727-3.87-2.206-7.883-1.563-12.035-.637-3.366.746-6.1,1.414-9.634.947-2.1-.282-3.749-.783-5.885-.419-7.968,1.356-13.531,9.278-5.354,14.679" transform="translate(259.087 183.829)"/>
        <path id="Path_585" data-name="Path 585" d="M196.919,230.821c11.209-1.705,64.63-47.118,72.009-78.029,6.714-28.131-3.1-60.7-3.715-76.815-3.111-2.9-8.939-4.239-11.5-5.385-5.706-2.558-8.271,51.788-33.239,75.65-31.649,30.249-73.611,63.293-79.1,75.389-5.961,13.207,48.182,10.322,55.548,9.19" transform="translate(286.797 143.407)" fill="#fff"/>
        <path id="Path_586" data-name="Path 586" d="M174.877,233.339c-13.78,0-29.363-1.262-33.282-6.42a4.723,4.723,0,0,1-.434-5.064c3.6-7.925,22.051-24.239,43.42-43.129,12.056-10.662,24.525-21.684,35.874-32.531,15.644-14.952,22.318-41.727,26.738-59.446,2.577-10.346,3.906-15.364,5.925-16.344a1.75,1.75,0,0,1,1.527-.021c.683.3,1.6.622,2.638.98,2.829.983,6.7,2.324,9.1,4.56l.261.243.012.358a167.944,167.944,0,0,0,2.267,17.858c2.616,16.529,6.2,39.166,1.427,59.191-7.6,31.827-61.783,77.013-72.719,78.681a221.483,221.483,0,0,1-22.752,1.083m79.06-161.377c-1.314.155-3.305,8.152-5.066,15.207-4.465,17.913-11.215,44.979-27.223,60.277-11.37,10.871-23.851,21.9-35.919,32.573-21.22,18.762-39.547,34.964-42.992,42.549a2.988,2.988,0,0,0,.234,3.3c5.782,7.606,46.986,5.81,54.4,4.675h0c11.407-1.739,64.242-47.822,71.3-77.374,4.7-19.691,1.287-41.22-1.454-58.52a176.447,176.447,0,0,1-2.267-17.7c-2.158-1.851-5.652-3.064-8.229-3.956-1.093-.379-2.061-.719-2.777-1.038" transform="translate(286.22 142.828)"/>
        <path id="Path_587" data-name="Path 587" d="M181.2,71.807c-.838-.583.021-3.119,1-3.944a1.906,1.906,0,0,0,.7-1.881c-.243-.88-.95-.919-1.615-.822-1.141.167-4.125,3.134-4.356,5.285-.947,8.835,1.038,16.314,3.742,18.329,1.132.846,7.291,2.9,11.643-1.738,5.139-8.058,5.36-12.728,3.33-16.129,2.771-1.738-13.549,1.526-14.445.9" transform="translate(359.612 132.461)" fill="#fff"/>
        <path id="Path_588" data-name="Path 588" d="M186,91.378a10.069,10.069,0,0,1-5.269-1.335c-3.236-2.409-4.993-10.628-4.082-19.111.27-2.536,3.521-5.825,5.09-6.053a2.042,2.042,0,0,1,2.574,1.447,2.781,2.781,0,0,1-.977,2.776,3.91,3.91,0,0,0-1.035,2.5,51.673,51.673,0,0,0,6.234-.707c7.549-1.044,8.453-1.05,8.814-.058a.954.954,0,0,1-.061.786c2.091,4.111.941,9.226-3.667,16.45a10.159,10.159,0,0,1-7.622,3.3M182.326,66.56a2.419,2.419,0,0,0-.34.03c-.735.127-3.43,2.758-3.621,4.524-.92,8.589,1.05,15.792,3.4,17.543.622.467,6.368,2.758,10.493-1.638,5.579-8.777,4.656-12.682,3.217-15.091l-.058-.1c-1.439.058-4.489.479-6.647.777-5.873.816-6.923.886-7.491.485a1.757,1.757,0,0,1-.707-1.462,5.512,5.512,0,0,1,1.648-3.853,1.063,1.063,0,0,0,.419-.989c-.039-.14-.064-.228-.316-.228" transform="translate(359.038 131.884)"/>
        <path id="Path_589" data-name="Path 589" d="M197.976,70.248c.319-3.307-.191-3.3-4.086-3.726-.079,0-.14.012-.215.009A4.506,4.506,0,0,0,192.5,66.2a5.846,5.846,0,0,0-1.833.124,2.95,2.95,0,0,0-.389-.479c-1.584-1.447-3.922-.774-5.375.473-.079.073-.152.176-.234.258a4.121,4.121,0,0,0-3.651-1.283,4.483,4.483,0,0,0-4.049,4.144c-.892,3.086-.264,7.066,1.384,7.251,2.486.276,3.236-2.6,2.868-4.657a.479.479,0,0,1,.067-.221,5.367,5.367,0,0,0,2.131,2.746,2.266,2.266,0,0,0,3.33-.749c.079.176.155.352.24.513a2.3,2.3,0,0,0,3.888.51,8.235,8.235,0,0,0,.847-1.314c2.723,2.588,5.94-.094,6.256-3.268" transform="translate(359.345 132.267)" fill="#fff"/>
        <path id="Path_590" data-name="Path 590" d="M179.265,78.146a3.405,3.405,0,0,1-.428-.024,2.22,2.22,0,0,1-1.609-1.077c-1.041-1.556-1.26-4.682-.513-7.273a5.272,5.272,0,0,1,4.765-4.76,4.885,4.885,0,0,1,3.755.977c1.806-1.365,4.413-1.845,6.207-.206a2.235,2.235,0,0,1,.17.17,6.608,6.608,0,0,1,1.548-.036,4.761,4.761,0,0,1,1.263.328c-.012-.009.042-.012.1-.009l.264.027c3.9.428,5.011.722,4.632,4.645a5.8,5.8,0,0,1-3.427,4.839,3.787,3.787,0,0,1-3.442-.37,5.123,5.123,0,0,1-.437.592,3.155,3.155,0,0,1-2.732,1.141,3.305,3.305,0,0,1-2.219-1.262,3.137,3.137,0,0,1-1.044.488,3.281,3.281,0,0,1-2.592-.482,6.4,6.4,0,0,1-.935-.743,4.388,4.388,0,0,1-1.032,2.054,3.057,3.057,0,0,1-2.295.983m2.978-11.456a4,4,0,0,0-.528.036,3.6,3.6,0,0,0-3.311,3.425c-.674,2.357-.4,4.939.264,5.935.128.191.258.306.364.319a1.424,1.424,0,0,0,1.266-.425,4.061,4.061,0,0,0,.653-3.219l-.049-.27.161-.419.892-1.911.732,1.936a4.481,4.481,0,0,0,1.788,2.309,1.532,1.532,0,0,0,1.223.249,1.366,1.366,0,0,0,.874-.689l.835-1.523.713,1.584c.1.237.158.358.215.467a1.65,1.65,0,0,0,1.229.9,1.426,1.426,0,0,0,1.238-.549,5.2,5.2,0,0,0,.595-.91l.71-1.217.792.752a2.281,2.281,0,0,0,2.489.661,4.09,4.09,0,0,0,2.31-3.389c.231-2.394.231-2.394-3.1-2.758l-.64-.064a3.856,3.856,0,0,0-.959-.279,5.117,5.117,0,0,0-1.56.106l-.558.127-.334-.461a2.611,2.611,0,0,0-.264-.343c-1.308-1.2-3.248-.364-4.234.485l-.613.622-.8-.41a3.252,3.252,0,0,0-2.395-1.074m.41,5.759,0,.015,0-.015" transform="translate(358.764 131.693)"/>
        <path id="Path_591" data-name="Path 591" d="M182.384,75.284c-1.433.249-3.105-3.18-2.935-4.994a2.725,2.725,0,0,0-1.178-2.606c-1.129-.649-1.885.021-2.459.78-.993,1.317-1.038,7.3.883,9.715,7.892,9.894,7.218-3.158,5.688-2.894" transform="translate(356.455 137.137)" fill="#fff"/>
        <path id="Path_592" data-name="Path 592" d="M182.008,83.344c-1.463,0-3.245-1.338-5.406-4.047-2.134-2.676-2.167-9.093-.9-10.774,1.342-1.769,2.686-1.523,3.582-1.01a3.582,3.582,0,0,1,1.606,3.438,5.883,5.883,0,0,0,1.533,3.817c.231.215.373.261.395.246.4-.073,1.141.006,1.594,1.292.6,1.714.692,5.649-1.293,6.748a2.251,2.251,0,0,1-1.111.291M178,68.866c-.24,0-.51.17-.914.7-.692.919-.862,6.475.874,8.653,2.644,3.316,3.849,3.431,4.158,3.377.258-.039.48-.294.653-.752a6.916,6.916,0,0,0-.033-4.105,2.361,2.361,0,0,1-1.487-.7,7.552,7.552,0,0,1-2.076-5.252,1.875,1.875,0,0,0-.747-1.772.887.887,0,0,0-.428-.149m5.118,7.849,0,0,0,0" transform="translate(355.872 136.558)"/>
        <path id="Path_593" data-name="Path 593" d="M179.02,69.524s.71,2.181-1.281,2.891-.331,4.314-.331,4.314a21.953,21.953,0,0,0,4.316,2.891c1.612.616,2.656-6.733,1.09-8.674a3.946,3.946,0,0,0-3.794-1.423" transform="translate(359.753 141.283)" fill="#fff"/>
        <path id="Path_594" data-name="Path 594" d="M111.054,67.547s-.71,2.181,1.281,2.891.334,4.314.334,4.314a22.006,22.006,0,0,1-4.319,2.891c-1.612.616-2.656-6.732-1.09-8.674a3.946,3.946,0,0,1,3.794-1.423" transform="translate(216.731 137.262)" fill="#fff"/>
        <path id="Path_595" data-name="Path 595" d="M173.738,109.9l3.035,1.326,2.9,39.1s-1.612,1.408,0,4.606-28.8,4.724-33.607-3.165-11.27-16.611-3.767-22.206S173.738,109.9,173.738,109.9" transform="translate(282.654 223.539)" fill="#fff"/>
        <path id="Path_596" data-name="Path 596" d="M155,107.165l3.321,3.034-22.418,30.228s-14.068-3.932-14.163-5.546.44-23.45.917-23.735,13.565-4.548,13.565-4.548Z" transform="translate(247.76 216.823)" fill="#fff"/>
        <path id="Path_597" data-name="Path 597" d="M475.549,155.89l-7.3,12.348H34.676l-7.3-12.348Z" transform="translate(55.719 317.083)" fill="#f40"/>
        <path id="Path_598" data-name="Path 598" d="M210.1,378.8h6.52L180.558,159.96H166.741Z" transform="translate(339.363 325.362)" fill="#f40"/>
        <path id="Path_599" data-name="Path 599" d="M186.762,378.8h6.52L157.217,159.96H143.4Z" transform="translate(291.858 325.362)" fill="#f40"/>
        <path id="Path_600" data-name="Path 600" d="M26.621,378.8H20.1L56.163,159.96h13.82Z" transform="translate(40.905 325.362)" fill="#f40"/>
        <path id="Path_601" data-name="Path 601" d="M49.17,378.8H42.648L78.713,159.96h13.82Z" transform="translate(86.799 325.362)" fill="#f40"/>
        <path id="Path_602" data-name="Path 602" d="M245.688,155.89l-7.3,12.348h-93.86l-4.213-12.348Z" transform="translate(285.58 317.083)" fill="#aab6c2"/>
        <rect id="Rectangle_406" data-name="Rectangle 406" width="88.29" height="6.083" transform="translate(232.656 466.89)"/>
        <rect id="Rectangle_407" data-name="Rectangle 407" width="5.117" height="3.623" transform="translate(235.355 464.09)"/>
        <rect id="Rectangle_408" data-name="Rectangle 408" width="5.114" height="3.623" transform="translate(242.77 464.09)"/>
        <rect id="Rectangle_409" data-name="Rectangle 409" width="5.114" height="3.623" transform="translate(250.182 464.09)"/>
        <rect id="Rectangle_410" data-name="Rectangle 410" width="5.124" height="3.62" transform="translate(257.585 464.096)"/>
        <rect id="Rectangle_411" data-name="Rectangle 411" width="5.111" height="3.62" transform="translate(265.009 464.096)"/>
        <rect id="Rectangle_412" data-name="Rectangle 412" width="5.105" height="3.62" transform="translate(272.421 464.096)"/>
        <rect id="Rectangle_413" data-name="Rectangle 413" width="5.105" height="3.62" transform="translate(279.834 464.096)"/>
        <rect id="Rectangle_414" data-name="Rectangle 414" width="5.111" height="3.62" transform="translate(287.24 464.096)"/>
        <rect id="Rectangle_415" data-name="Rectangle 415" width="5.105" height="3.62" transform="translate(294.652 464.096)"/>
        <rect id="Rectangle_416" data-name="Rectangle 416" width="5.12" height="3.62" transform="translate(302.064 464.096)"/>
        <rect id="Rectangle_417" data-name="Rectangle 417" width="5.127" height="3.62" transform="translate(309.47 464.096)"/>
        <path id="Path_603" data-name="Path 603" d="M100.213,176.227H87.368L67.3,143.129H80.144Z" transform="translate(136.977 291.128)"/>
        <path id="Path_604" data-name="Path 604" d="M98.329,176.227H85.484l-20.066-33.1H78.26Z" transform="translate(133.142 291.128)" fill="#aab6c2"/>
        <path id="Path_605" data-name="Path 605" d="M178.589,216.243H60.951a7.067,7.067,0,0,1-7.045-6.5l-7.4-90.978a7.063,7.063,0,0,1,7.045-7.637H171.195a7.065,7.065,0,0,1,7.042,6.493l7.4,90.984a7.067,7.067,0,0,1-7.045,7.637" transform="translate(94.61 226.039)"/>
        <path id="Path_606" data-name="Path 606" d="M179.092,216.243H56.5a4.6,4.6,0,0,1-4.586-4.229l-7.8-95.908a4.6,4.6,0,0,1,4.589-4.976H171.3a4.6,4.6,0,0,1,4.586,4.226l7.8,95.912a4.6,4.6,0,0,1-4.589,4.976" transform="translate(89.763 226.039)" fill="#aab6c2"/>
        <path id="Path_607" data-name="Path 607" d="M150.653,164.764c-7.4-7.776-24.731-13.237-44.94-13.237s-37.54,5.461-44.937,13.237Z" transform="translate(123.696 308.209)"/>
        <path id="Path_608" data-name="Path 608" d="M147.976,164.764c-7.4-7.776-24.731-13.237-44.94-13.237S65.5,156.988,58.1,164.764Z" transform="translate(118.247 308.209)" fill="#aab6c2"/>
        <path id="Path_609" data-name="Path 609" d="M105.4,150.081H76.743a1.622,1.622,0,0,1-1.612-1.456l-.88-8.8a1.618,1.618,0,0,1,1.612-1.778h28.653a1.618,1.618,0,0,1,1.612,1.459l.88,8.8a1.619,1.619,0,0,1-1.612,1.781" transform="translate(151.105 280.786)"/>
      </g>
    </g>
  </g>
</svg>
