<svg id="Oqtima_illustration_02" xmlns="http://www.w3.org/2000/svg" xmlns:xlink="http://www.w3.org/1999/xlink" width="629.534" height="591.079" viewBox="0 0 629.534 591.079">
  <defs>
    <clipPath id="clip-path">
      <rect id="Rectangle_306" data-name="Rectangle 306" width="629.534" height="591.079" fill="none"/>
    </clipPath>
  </defs>
  <g id="Group_251" data-name="Group 251" clip-path="url(#clip-path)">
    <path id="Path_345" data-name="Path 345" d="M349.247,7.45c-85.268,16.8-128.8,113.368-266.113,199.3S-23.949,628.231,192.917,573.505C399.8,521.3,409.383,525.418,544.877,530.24c169.6,6.033,74.207-575.948-195.63-522.79" transform="translate(0 7.458)" fill="#e6ebf0"/>
    <path id="Path_346" data-name="Path 346" d="M84.746,156.474C124.763,124.63,158.09,69.053,139.14,15.507S81.061,61.632,49.573,94.833C4.017,142.877.992,223.121,84.746,156.474" transform="translate(33.247 -0.002)" fill="#e6ebf0"/>
    <rect id="Rectangle_285" data-name="Rectangle 285" width="591.713" height="4.119" transform="translate(18.907 586.96)"/>
    <path id="Path_347" data-name="Path 347" d="M417.43,434.935H21.967V39.472H417.43Zm-393.96-1.5H415.93V40.975H23.47Z" transform="translate(40.783 73.282)"/>
    <rect id="Rectangle_286" data-name="Rectangle 286" width="393.96" height="1.5" transform="translate(63.501 470.901)"/>
    <rect id="Rectangle_287" data-name="Rectangle 287" width="393.96" height="1.5" transform="translate(63.501 435.089)"/>
    <rect id="Rectangle_288" data-name="Rectangle 288" width="393.96" height="1.5" transform="translate(63.501 399.273)"/>
    <rect id="Rectangle_289" data-name="Rectangle 289" width="393.96" height="1.5" transform="translate(63.501 363.458)"/>
    <rect id="Rectangle_290" data-name="Rectangle 290" width="393.96" height="1.5" transform="translate(63.501 327.643)"/>
    <rect id="Rectangle_291" data-name="Rectangle 291" width="393.96" height="1.5" transform="translate(63.501 291.83)"/>
    <rect id="Rectangle_292" data-name="Rectangle 292" width="393.96" height="1.5" transform="translate(63.501 256.012)"/>
    <rect id="Rectangle_293" data-name="Rectangle 293" width="393.96" height="1.5" transform="translate(63.501 220.2)"/>
    <rect id="Rectangle_294" data-name="Rectangle 294" width="393.96" height="1.5" transform="translate(63.501 184.384)"/>
    <rect id="Rectangle_295" data-name="Rectangle 295" width="393.96" height="1.5" transform="translate(63.501 148.569)"/>
    <rect id="Rectangle_296" data-name="Rectangle 296" width="1.5" height="393.96" transform="translate(420.9 113.505)"/>
    <rect id="Rectangle_297" data-name="Rectangle 297" width="1.5" height="393.96" transform="translate(385.085 113.505)"/>
    <rect id="Rectangle_298" data-name="Rectangle 298" width="1.5" height="393.96" transform="translate(349.27 113.505)"/>
    <rect id="Rectangle_299" data-name="Rectangle 299" width="1.5" height="393.96" transform="translate(313.457 113.505)"/>
    <rect id="Rectangle_300" data-name="Rectangle 300" width="1.5" height="393.96" transform="translate(277.642 113.505)"/>
    <rect id="Rectangle_301" data-name="Rectangle 301" width="1.5" height="393.96" transform="translate(241.824 113.505)"/>
    <rect id="Rectangle_302" data-name="Rectangle 302" width="1.5" height="393.96" transform="translate(206.011 113.505)"/>
    <rect id="Rectangle_303" data-name="Rectangle 303" width="1.5" height="393.96" transform="translate(170.196 113.505)"/>
    <rect id="Rectangle_304" data-name="Rectangle 304" width="1.5" height="393.96" transform="translate(134.38 113.505)"/>
    <rect id="Rectangle_305" data-name="Rectangle 305" width="1.5" height="393.96" transform="translate(98.568 113.505)"/>
    <path id="Path_348" data-name="Path 348" d="M88.042,195.049c-1.42-1.78-16.794-.294-16.948.631-.474,2.828-1.2,13.666.266,15.1,1.423,1.391,14.7,4.411,14.994,1.671.263-2.377,3.059-15.688,1.688-17.4" transform="translate(130.866 360.569)" fill="#fff"/>
    <path id="Path_349" data-name="Path 349" d="M83.812,214.738c-4.271,0-11.246-1.76-12.489-2.979-1.9-1.857-.786-13.86-.471-15.731.1-.6.754-.814,1.42-.986,2.805-.731,15.151-2.022,16.788.026,1.063,1.323.451,6.25-1.037,14.883-.243,1.405-.434,2.511-.5,3.048a1.721,1.721,0,0,1-1.314,1.437,7.519,7.519,0,0,1-2.4.3m-11.592-18.2c-.591,3.876-.894,13.231.1,14.206s10.626,3.351,13.409,2.348c.223-.074.368-.174.38-.246.057-.551.254-1.688.5-3.134.6-3.456,2.185-12.632,1.337-13.746-1.134-1.151-13.634-.337-15.728.571" transform="translate(130.403 360.102)"/>
    <path id="Path_350" data-name="Path 350" d="M72.92,198.858s-7.1,10.161-2.025,18.142c0,0,37.012,1.742,48.187,0,0,0,.291-13.643-9.289-14.805a175.884,175.884,0,0,0-20.37-1s-9.544,5.21-16.5-2.339" transform="translate(128.221 369.189)"/>
    <path id="Path_351" data-name="Path 351" d="M57.192,195.079c-1.423-1.78-14.6-.351-14.754.571-.474,2.831-1.2,13.669.266,15.1,1.423,1.394,12.989,5.9,13.286,3.159.26-2.371,2.571-17.119,1.2-18.833" transform="translate(77.663 360.596)" fill="#fff"/>
    <path id="Path_352" data-name="Path 352" d="M54.829,215.942c-3.631,0-10.975-3.051-12.163-4.213-1.9-1.862-.786-13.863-.471-15.731.094-.566.668-.826,1.563-1.06,2.459-.637,12.834-1.868,14.454.16.974,1.217.763,5.91-.783,17.319-.129.934-.226,1.651-.269,2.037a1.561,1.561,0,0,1-1.111,1.32,3.7,3.7,0,0,1-1.22.169M43.563,196.48c-.591,3.862-.894,13.251.1,14.226,1.211,1.185,9.849,4.473,11.9,3.722.169-.06.171-.1.177-.129.04-.394.137-1.123.269-2.077,1.345-9.927,1.708-15.388,1.083-16.234-.948-1.137-11.6-.448-13.531.491" transform="translate(77.2 360.134)"/>
    <path id="Path_353" data-name="Path 353" d="M88.141,228.233c1.74,21.773.143,65.666-1.6,87.439-.1,1.463-.1,52.038-.1,52.038l20.459,1.957c11.143-33.239,32.422-107.783,32.422-140.876S136.453,140.557,124.3,114.4c-11.566-24.875-57.177,9.481-62.541,15.577-2.474,2.819,2.211,28,8.69,44.685,7.518,19.333,16.756,41.868,17.693,53.574" transform="translate(113.408 195.807)"/>
    <path id="Path_354" data-name="Path 354" d="M83.574,344.544,96.2,345.753c-1.148-7.941-.017-25.663.437-33.742.834-14.074,4.319-27.834,7.593-41.488,5.153-21.667,10.066-44.622,3.936-66.637-3.171-11.323-10.1-19.193-15.745-29.191a39.47,39.47,0,0,1-5.085-22.084c.314-4.216,2.928-9.547,1.5-13.76-1.777-5.333-17.713-23.344-21.79-20.627-4.913,3.311-2.434,16.105-4.419,22.061,7.524,19.333,21.715,53.08,22.652,64.784,1.742,21.773-1.857,65.486-3.054,87.293-1.183,21.713,1.348,52.183,1.348,52.183" transform="translate(116.27 218.972)"/>
    <path id="Path_355" data-name="Path 355" d="M42.127,366.918l18.168,1.957c9.484-31.351,34.824-84.917,38.549-117.8,5.782-51.066,12.766-105.749,13.08-119.2.031-2.16.071-3.311.071-3.311-12.509-15.223-33.7-21.427-43.145-22.544-3.725-.451-6.442.283-7.63,2.234a142.082,142.082,0,0,0-9.161,17.9c-15.223,36.155-2.4,58-2.679,105.024,0,2.719-.037,5.5-.106,8.255-.488,19.439,4.756,43.377-.831,63.684-10.961,39.826-6.316,63.792-6.316,63.792" transform="translate(76.396 196.599)"/>
    <path id="Path_356" data-name="Path 356" d="M162.124,122.87c.274,24.849-10.135,47.393-25.272,43.905-14.76-3.428-25.083-10.018-32.333-17.091-.766-.726-1.523-1.483-2.214-2.231-1.165-1.285-2.237-2.517-3.268-3.779-1.368-1.774-2.605-3.494-3.7-5.193-.163-.309-.366-.586-.534-.863-4.762-7.584-6.679-12.275-7.047-18.688a48.949,48.949,0,0,1,.414-11.015s-6.673-50.707,4.382-44.428c11.169,6.373,23.718,25.746,32.747,44.862.023.077.083.154.1.231.54,1.037.977,2.025,1.451,3.025.286.608.614,1.225.871,1.8,4.473,9.587,6.427,14.988,7.984,16.057,2.677,1.74,3.788-8.227,6.17-19.7l0-.034c.286-1.408.568-2.779.857-4.156,1.7-8.1,3.442-15.08,5.4-15.722,0,0,9.1-8.67,9.912-4.488a222.935,222.935,0,0,1,4.085,37.509" transform="translate(159.977 116.869)" fill="#fff"/>
    <path id="Path_357" data-name="Path 357" d="M140.435,168.314a14.514,14.514,0,0,1-3.262-.383c-13.034-3.025-24.026-8.838-32.673-17.276-.768-.726-1.537-1.5-2.237-2.254-1.243-1.368-2.32-2.614-3.3-3.814-1.46-1.894-2.685-3.608-3.751-5.256a6.776,6.776,0,0,0-.354-.58l-.191-.294c-4.985-7.944-6.79-12.743-7.15-19.022a50.311,50.311,0,0,1,.406-11.075c-.608-4.642-5.07-40.614,1.654-45.142a3.4,3.4,0,0,1,3.8.111c10.038,5.725,22.39,22.615,33.045,45.179a1.605,1.605,0,0,1,.149.36c.329.588.663,1.308,1,2.02l.409.871c.126.269.257.537.388.8.171.346.34.686.488,1.011,1.331,2.851,2.442,5.339,3.385,7.453,2.06,4.619,3.425,7.67,4.351,8.307.149.1.214.074.243.06,1.214-.52,2.368-6.6,3.482-12.475.4-2.125.837-4.4,1.323-6.744l.017-.126.854-4.159c2.317-11.035,3.833-15.363,5.707-16.191,1.371-1.3,7.03-6.479,9.7-5.63a1.929,1.929,0,0,1,1.305,1.617,223.694,223.694,0,0,1,4.1,37.635v0c.2,18.356-5.193,34.661-13.74,41.54a14.37,14.37,0,0,1-9.144,3.451M91.266,64.124a1.541,1.541,0,0,0-.891.28c-5.122,3.448-2.474,32.845-1.02,43.879l.014.111-.02.114a48.987,48.987,0,0,0-.408,10.838c.354,6.084,2.037,10.544,6.941,18.356l.171.266a6.79,6.79,0,0,1,.391.646c1.014,1.557,2.214,3.239,3.639,5.085.951,1.165,2.014,2.394,3.234,3.736.671.731,1.42,1.48,2.171,2.191,8.464,8.261,19.23,13.949,32.008,16.914a12.637,12.637,0,0,0,11.189-2.791c8.093-6.51,13.4-22.75,13.206-40.409a222.416,222.416,0,0,0-4.071-37.384c-.089-.448-.266-.5-.34-.528-1.411-.448-5.744,2.891-8.381,5.4l-.271.16c-1.862.614-4.085,11.2-4.919,15.191l-.854,4.185c-.494,2.368-.928,4.673-1.337,6.821-1.628,8.578-2.494,12.737-4.328,13.52a1.625,1.625,0,0,1-1.6-.189c-1.271-.871-2.471-3.559-4.862-8.912-.94-2.105-2.048-4.585-3.379-7.438-.143-.32-.3-.643-.469-.971-.134-.274-.274-.551-.4-.826l-.411-.88c-.323-.694-.651-1.394-1.026-2.12a2.8,2.8,0,0,1-.151-.357C117,91.9,104.2,71.146,92.671,64.573a2.87,2.87,0,0,0-1.405-.448" transform="translate(159.496 116.407)"/>
    <path id="Path_358" data-name="Path 358" d="M138.267,81.983c-.786,5.862-1.574,11.683-2.354,17.5a16.512,16.512,0,0,1-1.645,6.142c-1.065,1.86-1.491,3.028-3.536,2.377-2.785-.877-4.013-4.4-6.733-5.473-1.951-.808-4.3-.066-6.016,1.174a35.264,35.264,0,0,0-4.493,4.6c-4.528,4.873-9.2,10.569-14.928,11.72-.763-.726-1.523-1.483-2.211-2.228-1.165-1.288-2.237-2.519-3.268-3.782-1.371-1.774-2.605-3.494-3.7-5.193a28.939,28.939,0,0,1,3.636-5.227c7.064-8.7,14.3-17.579,23.855-23.364a13.723,13.723,0,0,1,2.574-1.308c.54,1.037.977,2.028,1.451,3.025.286.608.614,1.225.871,1.8,4.473,9.587,6.427,14.985,7.984,16.054,2.677,1.742,3.788-8.227,6.17-19.7l0-.034a1.6,1.6,0,0,1,.731-.8,1.282,1.282,0,0,1,1.534.84,3.814,3.814,0,0,1,.086,1.877" transform="translate(165.932 146.526)"/>
    <path id="Path_359" data-name="Path 359" d="M104.389,147.54c-3.182-4.3-8.064-9.187-12.412-13.948-1.64-1.822-3.216-3.634-4.6-5.342a28.966,28.966,0,0,1-4.325-6.841,8.676,8.676,0,0,1-.737-2.839A130.39,130.39,0,0,1,83.6,103.53c2.454-19.187,8.835-44.785,17.256-40.969,14.423,6.541,26.18,28.457,36.449,45.8-1.663,16.071-12.037,32.31-32.922,39.18" transform="translate(152.808 115.439)" fill="#f40"/>
    <path id="Path_360" data-name="Path 360" d="M42.451,359.867l4.139.4c-.1-10.658.151-25.743,1.3-36.332,1.814-16.719,6.481-32.4,12.263-48.138,9.264-25.36,15.5-50.4,13.726-77.681-.977-14.84-5.679-28.6-7.733-43.16-1.323-9.407.626-18.428,2.122-27.554a87.778,87.778,0,0,0,1.36-15.777c-.14-4.393-17.234-.88-17.234,6.35C37.172,154.13,49.981,177.111,49.7,224.136c0,2.719-.037,5.5-.106,8.255-.451,19.439-1.154,41.551-4.316,62.375-7.6,50.075-2.831,65.1-2.831,65.1" transform="translate(76.073 203.649)"/>
    <path id="Path_361" data-name="Path 361" d="M108.479,65.443s3.485,12.412-2.394,30.479c-1.534,4.713-9.4,23.824-13.026,35.018a95.664,95.664,0,0,1-9.632-11.172L97.29,92.934Z" transform="translate(154.886 121.498)"/>
    <path id="Path_362" data-name="Path 362" d="M166.682,129.673c-4.285,8.707-8.293,16.614-9.964,21.875-5.262,16.648,9.258,43.851,6.71,56.254-2.331,2.857-35.858,16.939-61.107,17.853-32.867,1.183-58.471-11.306-58.782-16.114-.28-4.388,13.937-61.061,22.538-85.3,9.547-26.926,22.784-52.983,30.308-60.682a15.225,15.225,0,0,1,1.674-1.463c2.368-1.708,5.819-2.891,10.066-3.516,23.861-3.868,60.847,6.836,75.436,19.644,3.159,12.206-7.616,32.673-16.879,51.452" transform="translate(80.826 107.26)" fill="#f40"/>
    <path id="Path_363" data-name="Path 363" d="M93.872,60.685v10.3s2.671,5.9,0,6.244C84.8,78.4,79.686,66.761,79.686,66.761V54.806Z" transform="translate(147.941 101.75)" fill="#fff"/>
    <path id="Path_364" data-name="Path 364" d="M93.033,78.727c-8.612,0-13.329-10.515-13.537-10.983l-.06-.288V54.432L95.05,60.9V71.528c.428.983,1.811,4.416.854,6.133a1.908,1.908,0,0,1-1.477.974,11.121,11.121,0,0,1-1.394.091M80.864,67.3c.591,1.248,5.482,10.955,13.38,9.921a.481.481,0,0,0,.411-.254c.488-.877-.274-3.445-.971-4.99l-.063-.294V61.856L80.864,56.569Z" transform="translate(147.476 101.055)"/>
    <path id="Path_365" data-name="Path 365" d="M90.149,66.488S91.5,84.376,80.28,94.953,60.233,108.6,60.233,108.6l-2.074,16.959s13.534-4.479,25.58-22.912c4.956-7.587,8.95-23.172,6.41-36.161" transform="translate(107.975 123.438)"/>
    <path id="Path_366" data-name="Path 366" d="M101.3,46.828a71.176,71.176,0,0,1,5.65,18.89c.926,7.007-11.023,17.831-21.473,7.964s-7.547-24.966-7.547-24.966Z" transform="translate(143.996 86.938)" fill="#fff"/>
    <path id="Path_367" data-name="Path 367" d="M95,78.853a13.935,13.935,0,0,1-9.561-4.162c-10.612-10.026-7.787-25.466-7.756-25.62l.1-.531,24.4-1.974.214.443a72.589,72.589,0,0,1,5.713,19.107c.526,3.962-2.691,8.924-7.321,11.289A12.644,12.644,0,0,1,95,78.853M79,49.873C78.628,52.6,77.471,65.2,86.421,73.654c5.673,5.356,11.029,3.856,13.714,2.479,4.128-2.108,7.007-6.427,6.556-9.832a70.874,70.874,0,0,0-5.376-18.23Z" transform="translate(143.545 86.45)"/>
    <path id="Path_368" data-name="Path 368" d="M77.255,57.217c-.069-.066-.131-.471-.3-.926a7.236,7.236,0,0,1,1.477-7.37,1.9,1.9,0,0,1,2.582-.223c.031,0,.054-.02.086-.02,2.974-.223,2.985,3.388,3.391,5.373.68,3.334,2.745,7.333,1.708,10.783a4.272,4.272,0,0,1-5.316,3.031c-2.877-.843-2.574-3.514-3.551-5.713-.577-1.311-1.023-2.234-.651-3.711a6.856,6.856,0,0,1,.577-1.225" transform="translate(142.028 89.666)"/>
    <path id="Path_369" data-name="Path 369" d="M78.037,59.678c3.156,6.9,8.552,1.5,12.949-.637,2.991-1.457,7.567-2.008,10.781-3.739a1.644,1.644,0,0,0,2.6.583c2.539-2.222,5.547-6.03,2.7-9.329-2.214-2.565-5.307-1.48-7.761.071C90.948,40.3,72.689,48,78.037,59.678" transform="translate(143.088 82.344)"/>
    <path id="Path_370" data-name="Path 370" d="M136.1,161.229l-5.065,13.089s-2.448.686-6.544,1.565c-12.052,2.534-35.641,4.128-54.206-.157-16.754-3.865-26.057-24-25.6-44.376v-.037a57.059,57.059,0,0,1,5.922-24.732,41.365,41.365,0,0,1,4.176-6.687c.526-.663,1.048-1.323,1.605-1.985l.031-.034c.074-.106.143-.14.214-.246C72.9,78.295,79.519,72.685,92.511,62.1c6.759-5.5,13.5-.36,16.5,7.824,2.154,5.89,7.053,10.883,5.485,19.8a41.159,41.159,0,0,1-13.826,23.792c-2.611,2.262-5.573,4.913-8.433,7.627-.38.351-.731.663-1.077,1.011-7.178,6.9-7.947,23.409-7.947,26.126,0,3.239,4.073,7.71,8.632,9.315,14.017,4.979,44.262,3.636,44.262,3.636" transform="translate(82.933 111.04)" fill="#fff"/>
    <path id="Path_371" data-name="Path 371" d="M97.219,179.571a120.94,120.94,0,0,1-26.629-2.688c-18.565-4.282-26.572-26.372-26.155-45.088a57.588,57.588,0,0,1,6-25.078,42.264,42.264,0,0,1,4.245-6.8c.534-.677,1.063-1.343,1.623-2.011a1.8,1.8,0,0,1,.186-.2C72.75,78.377,79.286,72.8,92.523,62c2.679-2.177,5.582-2.917,8.384-2.148,3.811,1.048,7.261,4.89,9.232,10.281a41.608,41.608,0,0,0,2.168,4.656c2.125,4.128,4.536,8.8,3.354,15.517A42.007,42.007,0,0,1,101.6,114.516c-2.979,2.579-5.887,5.207-8.413,7.6l-.289.269c-.266.243-.523.477-.774.728-7.524,7.236-7.736,25.44-7.736,25.623,0,2.965,3.965,7.164,8.155,8.641,13.726,4.876,43.7,3.611,43.994,3.6l1.091-.049-5.587,14.443-.343.1c-.026.006-2.517.7-6.587,1.577a145.815,145.815,0,0,1-27.891,2.525M98.71,60.984a8.374,8.374,0,0,0-5.285,2.128C80.26,73.844,73.761,79.394,57.645,98.55l-.289.323c-.506.614-1.028,1.268-1.548,1.925a40.928,40.928,0,0,0-4.1,6.564,56.138,56.138,0,0,0-5.847,24.426c-.417,18.77,8.05,39.783,25.052,43.7,19.093,4.408,42.7,2.511,53.9.157,3.156-.68,5.347-1.248,6.156-1.463l4.542-11.74c-5.619.194-30.791.774-43.445-3.719-4.848-1.708-9.107-6.376-9.107-9.986,0-.189.223-19.007,8.167-26.64.254-.257.523-.506.806-.766l.28-.257c2.531-2.4,5.456-5.048,8.45-7.641a40.566,40.566,0,0,0,13.591-23.372c1.1-6.242-1.094-10.5-3.214-14.617a41.276,41.276,0,0,1-2.24-4.819c-1.817-4.956-4.908-8.47-8.273-9.4a6.842,6.842,0,0,0-1.817-.249" transform="translate(82.469 110.577)"/>
    <path id="Path_372" data-name="Path 372" d="M87.4,129.218c2.954-2.831,21.567-21.067,24.418-39.2,1.3-8.25-1.26-28.157-11.529-30.539C83.848,55.673,61.872,79.548,46.707,97.57c6.959,15.7,22.221,26.674,40.7,31.648" transform="translate(86.714 109.678)" fill="#f40"/>
    <path id="Path_373" data-name="Path 373" d="M87.076,93.146l-36.684-.328,34.284,12.232Z" transform="translate(93.555 172.32)"/>
    <path id="Path_374" data-name="Path 374" d="M50.449,95.425l.3-2.345L84,104.94l-.217,3.259Z" transform="translate(93.661 172.806)" fill="#fff"/>
    <path id="Path_375" data-name="Path 375" d="M51.591,94.309,83.81,105.8l-.143,2.1L51.437,95.552Zm-.917-1.491-.434,3.451,34.421,13.194.3-4.413Z" transform="translate(93.273 172.321)"/>
    <path id="Path_376" data-name="Path 376" d="M138.512,97.783,62.588,97.1l-.3,4.411,75.93.2Z" transform="translate(115.645 180.271)"/>
    <path id="Path_377" data-name="Path 377" d="M62.632,124.194l8.535-40a2.471,2.471,0,0,1,2.411-1.977l69.834.628a2.454,2.454,0,0,1,2.379,2.937l-8.358,39.089Z" transform="translate(116.279 152.634)" fill="#fff"/>
    <path id="Path_378" data-name="Path 378" d="M74.018,82.022l.011,1.1,69.817.628a1.906,1.906,0,0,1,1.851,2.265l-8.267,38.66-73.685-.666,8.4-39.357a1.916,1.916,0,0,1,1.871-1.531Zm0,0a3,3,0,0,0-2.945,2.411L62.4,125.093l75.924.683,8.45-39.532a3,3,0,0,0-2.911-3.594l-69.817-.628Z" transform="translate(115.839 152.277)"/>
    <path id="Path_379" data-name="Path 379" d="M89.806,106.821a.561.561,0,0,1-.26-.414,3.018,3.018,0,0,1-2.008,1.151c-1.014.014-1.588-.843-2.031-1.483a.26.26,0,0,1-.04-.1c-1.014,1.4-2.405,2.557-4.053,2.228-1.568-.311-1.9-1.563-1.765-2.991A8.27,8.27,0,0,1,78.3,106.5c-1.9,1.434-3.839-.231-4.456-1.822a.591.591,0,0,1,.129-.643.7.7,0,0,1,.014-.171,18.677,18.677,0,0,1,1.88-4.362c.574-.957,1.317-2.417,2.434-3.031,1.985-1.088,2.877,1.1,3.214,2.614.548-1.505,1.508-2.8,3.545-2.034a3.487,3.487,0,0,1,2.328,2.611,4.994,4.994,0,0,1,1.617-1.694c1.72-1.048,2.939.788,3.239,2.04a4.632,4.632,0,0,1,.051,1.771,1.3,1.3,0,0,1,.408-.157c1.257-.237,2.06,1.237,2.22,2.082.468,2.525-2.545,4.528-5.119,3.114" transform="translate(137.017 178.567)" fill="#fff"/>
    <path id="Path_380" data-name="Path 380" d="M82.446,109.441a3.742,3.742,0,0,1-.708-.069,2.694,2.694,0,0,1-2.245-2.068c-.1.08-.2.16-.3.234a3.072,3.072,0,0,1-2.768.571,4.556,4.556,0,0,1-2.779-2.705,1.306,1.306,0,0,1,.106-1.174l.009-.066a19.451,19.451,0,0,1,1.962-4.559l.22-.374a7.367,7.367,0,0,1,2.482-2.919,2.4,2.4,0,0,1,2.225-.191,3.206,3.206,0,0,1,1.48,1.622,3.028,3.028,0,0,1,1.123-.923,3.2,3.2,0,0,1,2.525.029,4.334,4.334,0,0,1,2.277,1.834,4.9,4.9,0,0,1,1.046-.86,2.4,2.4,0,0,1,2.254-.237,4.015,4.015,0,0,1,2.051,2.722,5.06,5.06,0,0,1,.134,1.043c1.408.069,2.342,1.563,2.554,2.688a3.633,3.633,0,0,1-1.517,3.616,4.315,4.315,0,0,1-4.63.266,3.055,3.055,0,0,1-1.937.814,2.57,2.57,0,0,1-2.117-1.1,4.688,4.688,0,0,1-3.445,1.808m-1.4-5.959-.217,2.265c-.166,1.72.508,2.088,1.191,2.222,1.374.277,2.582-.906,3.336-1.945l.72-1,.506,1.12c.468.688.834,1.16,1.4,1.16h.011a2.463,2.463,0,0,0,1.505-.928l.968-1.017.246,1.345a2.889,2.889,0,0,0,3.028-.206,2.191,2.191,0,0,0,.948-2.2c-.091-.486-.674-1.642-1.385-1.514a.605.605,0,0,0-.177.077l-1.294.748.226-1.474a3.8,3.8,0,0,0-.04-1.5A2.662,2.662,0,0,0,90.8,98.906a.983.983,0,0,0-.963.137,4.275,4.275,0,0,0-1.377,1.463L87.53,102l-.371-1.723a2.8,2.8,0,0,0-1.885-2.094,1.816,1.816,0,0,0-1.425-.066,2.733,2.733,0,0,0-1.2,1.674l-.837,2.3-.531-2.388a3.334,3.334,0,0,0-1.223-2.285c-.091-.043-.371-.174-.951.143a6.383,6.383,0,0,0-1.937,2.382l-.226.388a17.938,17.938,0,0,0-1.805,4.193v.294l-.194.18a3.5,3.5,0,0,0,1.868,1.731,1.659,1.659,0,0,0,1.523-.34,7.62,7.62,0,0,0,1.231-1.177Z" transform="translate(136.554 178.105)"/>
    <path id="Path_381" data-name="Path 381" d="M44.262,198.858S37.158,209.019,42.24,217c0,0,37.009,1.742,48.184,0,0,0,.291-13.643-9.289-14.805s-21.864-1.68-21.864-1.68-8.05,5.893-15.008-1.657" transform="translate(75.019 369.189)"/>
    <path id="Path_382" data-name="Path 382" d="M129.06,62.013c-2.294-.2-6.916,3.214-8.861,4.7-4.045,3.105-7.767,7.441-9.181,12.383a11.083,11.083,0,0,0-1.091-.648,11.273,11.273,0,0,1,.968-2.105c.937-1.66-1.291-3.685-2.679-2.18-1.354,1.465-2.439,3.008-2.177,5.1.049.366,3.119,12.906,4.379,14.523.623.8,3.591-2.831,4.279-3.359h0a6.62,6.62,0,0,0,4.188.76c2.359-.386,3.425-1.1,6.076-3.665,4.1-3.508,2.365-7.381,1.2-6.584,1.914-2.345,1.091-5.276-.36-4.89,1.2-2.314-1.105-6.79-4.125-4.113,1.214-2.065,5.265-5.265,7.55-6.473,1.994-1.057,1.794-3.276-.166-3.445" transform="translate(196.792 115.115)" fill="#fff"/>
    <path id="Path_383" data-name="Path 383" d="M111.133,95.077l-.06,0a1,1,0,0,1-.754-.389c-1.457-1.868-4.508-14.76-4.522-14.868-.309-2.414.954-4.153,2.36-5.673a2.208,2.208,0,0,1,3.034-.286,2.722,2.722,0,0,1,1.088,1.845,29.184,29.184,0,0,1,7.95-9.09c4.47-3.425,7.521-5.016,9.358-4.848a2.268,2.268,0,0,1,2.174,1.76,2.886,2.886,0,0,1-1.737,3.028,27.691,27.691,0,0,0-5.7,4.325,2.765,2.765,0,0,1,1.368.58,4.774,4.774,0,0,1,1.531,4.459,1.9,1.9,0,0,1,.763.7,4.412,4.412,0,0,1-.166,4.282,1.924,1.924,0,0,1,.306.32c1.034,1.351,1.028,4.51-2.225,7.3-2.674,2.582-3.848,3.405-6.427,3.825a7.189,7.189,0,0,1-4.182-.608c-.157.157-.343.357-.554.577-1.808,1.894-2.774,2.757-3.6,2.757m-1.325-20.261a.812.812,0,0,0-.6.3c-1.354,1.465-2.211,2.794-1.991,4.522.146.823,2.882,11.755,4.076,13.931a17.443,17.443,0,0,0,2.414-2.237,12.341,12.341,0,0,1,1.023-1.008l.363-.277.4.211a5.949,5.949,0,0,0,3.748.688c2.125-.348,3.028-.9,5.693-3.474,2.434-2.088,2.405-4.022,2.337-4.562a1.312,1.312,0,0,0-.377-.908l-4.045,2.748,3.225-3.8a3.349,3.349,0,0,0,.708-3.551c-.154-.249-.271-.214-.331-.194l-1.563.411.746-1.431a3.269,3.269,0,0,0-.826-3.594c-.64-.5-1.377-.386-2.194.343l-3.371,2.991,2.28-3.888c1.331-2.265,5.6-5.559,7.833-6.741.817-.431,1.094-1.057,1.008-1.483-.071-.351-.4-.577-.9-.62-.8-.08-2.965.423-8.364,4.556-2.631,2.02-7.287,6.262-8.932,12.012l-.271.951-.817-.557a10.123,10.123,0,0,0-1.017-.6l-.531-.274.18-.574a11.991,11.991,0,0,1,1.026-2.242,1.126,1.126,0,0,0-.388-1.445.941.941,0,0,0-.54-.2" transform="translate(196.329 114.65)"/>
    <path id="Path_384" data-name="Path 384" d="M107.925,76.18s.831,1.131-.714,5.653,11.483,5.219,11.663,2.014.414-7.073.414-7.073A2.981,2.981,0,0,1,120.6,73.74c1.785-1.428-.026-4.7-4.3-3.511s-8.378,5.95-8.378,5.95" transform="translate(198.805 129.909)" fill="#fff"/>
    <path id="Path_385" data-name="Path 385" d="M478.663,63.634l-34.77,107a8.25,8.25,0,0,1-9.5,4.75l-65.678-16.054L340.689,253.78a7.843,7.843,0,0,1-4.345,5.245,8.253,8.253,0,0,1-6.933.094L222.948,195.6,157.236,343.767a8.217,8.217,0,0,1-9.6,4.008L60.242,322.2a7.473,7.473,0,1,1,4.2-14.346l81.6,23.875,66.6-149.926a7.9,7.9,0,0,1,4.973-4.019,8.175,8.175,0,0,1,6.433.794l103.53,63.015,27.611-92.746a7.817,7.817,0,0,1,3.662-4.882,8.367,8.367,0,0,1,6.19-.954l66.815,16.328L463.74,59.661a8.258,8.258,0,0,1,9.872-5.182,7.083,7.083,0,0,1,5.05,9.155" transform="translate(101.858 100.634)" fill="#f40"/>
    <path id="Path_386" data-name="Path 386" d="M261.144,105.46a7.758,7.758,0,0,1-9.427-3.3L232.37,67.091,195.943,90.6a7.965,7.965,0,0,1-10.792-1.957,7.383,7.383,0,0,1,2.528-10.335l43.659-28.066a8.3,8.3,0,0,1,6.233-1.094,7.319,7.319,0,0,1,4.87,3.574l23.229,42.111a7.468,7.468,0,0,1-3.408,10.141,9.876,9.876,0,0,1-1.12.483" transform="translate(341.564 90.885)" fill="#f40"/>
    <path id="Path_387" data-name="Path 387" d="M106.494,144.1l.254,13.94L48.034,290.458a7.562,7.562,0,1,1-13.823-6.136l60.884-137a7.857,7.857,0,0,1,4.97-4.028,8.224,8.224,0,0,1,6.427.8" transform="translate(62.302 265.445)" fill="#f40"/>
    <path id="Path_388" data-name="Path 388" d="M189.889,99.833a16.049,16.049,0,1,1-16.051-16.051,16.05,16.05,0,0,1,16.051,16.051" transform="translate(292.944 155.545)" fill="#fff"/>
    <path id="Path_389" data-name="Path 389" d="M176.623,122.953a20.336,20.336,0,1,1,20.336-20.336,20.358,20.358,0,0,1-20.336,20.336m0-32.1a11.766,11.766,0,1,0,11.766,11.766,11.778,11.778,0,0,0-11.766-11.766" transform="translate(290.159 152.76)" fill="#f40"/>
    <path id="Path_390" data-name="Path 390" d="M460.377,398.762c-135.514-4.8-145.084-8.941-351.983,43.277-23.052,5.827-44.019,7.227-62.873,4.97l55.3-126.516,82.84,20,67.586-143.77L372.2,263.333,403.617,160.3l69.043,14.2L505.482,74.83,536.5,160.7c22.91,124.145.286,240.807-76.127,238.064" transform="translate(84.512 138.925)" fill="#aab6c2"/>
    <path id="Path_391" data-name="Path 391" d="M116.019,126.273c1.791-4.765,7.458-21.778,2.362-34.487l-.194-.488-16.711-.271A11.535,11.535,0,0,1,89.89,79.634l-.48-63.341A11.484,11.484,0,0,1,100.8,4.724L210.759,4.3a11.532,11.532,0,0,1,11.572,11.392l.483,63.341a11.5,11.5,0,0,1-11.4,11.569l-67.769.491-.031.757c-.48,11.023-11.26,31.933-27.6,34.427" transform="translate(165.993 7.976)" fill="#fff"/>
    <path id="Path_392" data-name="Path 392" d="M211.375,4.017V5.611a10.708,10.708,0,0,1,10.678,10.6l.48,63.341a10.7,10.7,0,0,1-10.6,10.763l-67.015.486-1.514.011-.063,1.514c-.457,10.484-10.4,30.1-25.58,33.427,2.151-6.136,6.679-21.773,1.882-33.747l-.4-.983-1.057-.017-16.3-.26a10.71,10.71,0,0,1-10.678-10.6L90.726,16.8a10.694,10.694,0,0,1,10.6-10.763l109.966-.428Zm0,0h-.1l-109.957.428A12.279,12.279,0,0,0,89.132,16.817l.483,63.338a12.274,12.274,0,0,0,12.272,12.183h.094l16.182.263c5.793,14.466-2.859,35.141-2.859,35.141,18.062-1.637,29.154-24.478,29.625-35.347l67.015-.483a12.284,12.284,0,0,0,12.183-12.372l-.48-63.341A12.277,12.277,0,0,0,211.375,4.017" transform="translate(165.477 7.458)"/>
    <path id="Path_393" data-name="Path 393" d="M107.27,29.393a18.33,18.33,0,1,1,31.87,12.489c-3.648,4-6.29,9.144-6.33,14.554l0,.546-14.817-.111v-.486c.043-5.433-2.528-10.649-6.127-14.72a18.258,18.258,0,0,1-4.593-12.272" transform="translate(199.151 20.791)" fill="#f40"/>
    <path id="Path_394" data-name="Path 394" d="M111.658,29.055l15.36.111a1.124,1.124,0,0,0,1.137-1.123v0a1.125,1.125,0,0,0-1.12-1.137l-15.362-.114a1.133,1.133,0,1,0-.014,2.265" transform="translate(205.208 49.737)"/>
    <path id="Path_395" data-name="Path 395" d="M111.861,29.851l13.717.1a1.14,1.14,0,0,0,.017-2.265l-13.717-.1a1.14,1.14,0,0,0-.017,2.265" transform="translate(205.807 51.215)" fill="#aab6c2"/>
    <path id="Path_396" data-name="Path 396" d="M111.852,30.643l13.717.1a1.138,1.138,0,0,0,.017-2.262l-13.714-.1a1.138,1.138,0,0,0-.02,2.262" transform="translate(205.796 52.691)"/>
    <path id="Path_397" data-name="Path 397" d="M111.848,31.437l13.717.1a1.14,1.14,0,0,0,.017-2.265l-13.717-.1a1.138,1.138,0,0,0-.017,2.262" transform="translate(205.783 54.165)" fill="#aab6c2"/>
    <path id="Path_398" data-name="Path 398" d="M111.838,32.234l13.717.1a1.073,1.073,0,0,0,1.017-1.123v0a1.076,1.076,0,0,0-1-1.14l-13.717-.1a1.14,1.14,0,0,0-.017,2.265" transform="translate(205.776 55.639)"/>
    <path id="Path_399" data-name="Path 399" d="M121.027,33.1l-7.253-.057a2.263,2.263,0,0,1-2.248-2.28l11.783.089a2.267,2.267,0,0,1-2.282,2.248" transform="translate(207.053 57.12)" fill="#aab6c2"/>
    <path id="Path_400" data-name="Path 400" d="M114.3,15.7a1.307,1.307,0,0,1-1-1.28l.057-7.333a1.305,1.305,0,1,1,2.611.02l-.057,7.336A1.3,1.3,0,0,1,114.3,15.7" transform="translate(210.346 10.759)" fill="#f40"/>
    <path id="Path_401" data-name="Path 401" d="M112.512,15.889a1.293,1.293,0,0,1-.8-.58l-3.939-6.353a1.306,1.306,0,1,1,2.22-1.377l3.936,6.353a1.305,1.305,0,0,1-1.417,1.957" transform="translate(199.72 12.924)" fill="#f40"/>
    <path id="Path_402" data-name="Path 402" d="M111.456,17.12a1.756,1.756,0,0,1-.226-.077l-6.841-3.062a1.307,1.307,0,0,1,1.068-2.385l6.839,3.062a1.306,1.306,0,0,1-.84,2.462" transform="translate(192.371 21.312)" fill="#f40"/>
    <path id="Path_403" data-name="Path 403" d="M103.785,20.742a1.306,1.306,0,0,1,.263-2.574l6.2-.22a1.306,1.306,0,1,1,.091,2.611l-6.2.22a1.342,1.342,0,0,1-.357-.037" transform="translate(190.83 33.321)" fill="#f40"/>
    <path id="Path_404" data-name="Path 404" d="M118.954,15.918a1.278,1.278,0,0,1-.4-.171,1.3,1.3,0,0,1-.394-1.8L122.2,7.654a1.3,1.3,0,1,1,2.2,1.408l-4.033,6.29a1.3,1.3,0,0,1-1.405.566" transform="translate(218.99 13.093)" fill="#f40"/>
    <path id="Path_405" data-name="Path 405" d="M121.843,17.164a1.305,1.305,0,0,1-.206-2.468l6.881-2.959a1.307,1.307,0,1,1,1.031,2.4l-6.884,2.954a1.3,1.3,0,0,1-.823.071" transform="translate(224.353 21.594)" fill="#f40"/>
    <path id="Path_406" data-name="Path 406" d="M122.81,20.65a1.3,1.3,0,0,1,.377-2.571l6.2.314A1.306,1.306,0,0,1,129.255,21l-6.2-.314a1.345,1.345,0,0,1-.243-.037" transform="translate(226.154 33.561)" fill="#f40"/>
    <path id="Path_408" data-name="Path 408" d="M183.949,117.946l-9.132,15.82h18.265Z" transform="translate(324.555 218.973)" fill="#fff"/>
    <path id="Path_409" data-name="Path 409" d="M127.467,141.824l-9.132,15.82H136.6Z" transform="translate(219.694 263.302)" fill="#fff"/>
    <path id="Path_410" data-name="Path 410" d="M74.08,180.962l-9.132,15.82H83.212Z" transform="translate(120.578 335.964)" fill="#fff"/>
    <path id="Path_411" data-name="Path 411" d="M212.491,101.321l-9.132,15.82h18.265Z" transform="translate(377.544 188.108)" fill="#fff"/>
    <path id="Path_412" data-name="Path 412" d="M166.923,162.208l9.132-15.82H157.79Z" transform="translate(292.944 271.777)"/>
    <path id="Path_413" data-name="Path 413" d="M103.392,190.7l9.132-15.82H94.26Z" transform="translate(174.998 324.674)"/>
  </g>
</svg>
