<svg xmlns="http://www.w3.org/2000/svg" xmlns:xlink="http://www.w3.org/1999/xlink" width="142" height="142" viewBox="0 0 142 142">
  <defs>
    <clipPath id="clip-path">
      <rect id="Rectangle_8788" data-name="Rectangle 8788" width="80.537" height="73.761" fill="none"/>
    </clipPath>
  </defs>
  <g id="Group_5676" data-name="Group 5676" transform="translate(-141 -3007)">
    <rect id="Rectangle_4905" data-name="Rectangle 4905" width="142" height="142" rx="71" transform="translate(141 3007)" fill="#fff"/>
    <g id="Group_10148" data-name="Group 10148" transform="translate(171.731 3041.12)">
      <g id="Group_10148-2" data-name="Group 10148" transform="translate(0 0)" clip-path="url(#clip-path)">
        <path id="Path_18578" data-name="Path 18578" d="M77.108,19.323V12.5A12.5,12.5,0,0,0,64.609,0H19.464A12.51,12.51,0,0,0,6.972,12.5V36.71h0l-1.48,1.473a4.21,4.21,0,0,0-.219,5.667,1.127,1.127,0,0,1,.272.743,1.325,1.325,0,0,1-.132.562c-.194.426-.377.871-.543,1.317a1.183,1.183,0,0,1-1.01.8A4.187,4.187,0,0,0,0,51.451V53.53A4.2,4.2,0,0,0,3.861,57.7a1.182,1.182,0,0,1,1.009.812c.163.441.344.873.546,1.324a1.182,1.182,0,0,1-.143,1.284A4.2,4.2,0,0,0,5.5,66.793l1.473,1.473a4.212,4.212,0,0,0,5.673.223,1.154,1.154,0,0,1,1.307-.134c.432.191.864.373,1.309.538a1.184,1.184,0,0,1,.809,1.011,4.213,4.213,0,0,0,1.328,2.75,4.166,4.166,0,0,0,2.837,1.106h2.08a4.194,4.194,0,0,0,4.165-3.847,1.206,1.206,0,0,1,.813-1.023c.446-.165.891-.348,1.325-.546a1.194,1.194,0,0,1,1.293.142,4.2,4.2,0,0,0,5.678-.224l1.461-1.47a4.211,4.211,0,0,0,.223-5.673c-.009-.011-.012-.025-.02-.036h27.36a12.509,12.509,0,0,0,12.5-12.49v-6.83A3.792,3.792,0,0,0,80.537,38V23.086a3.794,3.794,0,0,0-3.429-3.763m-42.2,45.338-1.45,1.459a1.172,1.172,0,0,1-.836.345,1.14,1.14,0,0,1-.749-.271,4.226,4.226,0,0,0-4.518-.593c-.36.164-.736.319-1.109.457a4.193,4.193,0,0,0-2.779,3.614,1.164,1.164,0,0,1-1.156,1.069H20.23a1.148,1.148,0,0,1-.776-.293,1.2,1.2,0,0,1-.379-.775A4.22,4.22,0,0,0,16.3,66.058c-.38-.141-.752-.3-1.1-.453a4.294,4.294,0,0,0-1.825-.408,4.156,4.156,0,0,0-2.691.992A1.174,1.174,0,0,1,9.1,66.131L7.632,64.658a1.153,1.153,0,0,1-.334-.825,1.138,1.138,0,0,1,.27-.749,4.162,4.162,0,0,0,.6-4.5c-.165-.372-.322-.744-.461-1.119A4.22,4.22,0,0,0,4.09,54.685,1.164,1.164,0,0,1,3.02,53.53V51.451a1.165,1.165,0,0,1,1.069-1.163A4.227,4.227,0,0,0,7.7,47.52c.14-.377.295-.753.454-1.1a4.312,4.312,0,0,0,.408-1.825,4.167,4.167,0,0,0-1-2.7,1.17,1.17,0,0,1,.06-1.571L9.1,38.85a1.032,1.032,0,0,1,.2-.16,1.165,1.165,0,0,1,1.372.1,4.231,4.231,0,0,0,4.52.587c.365-.169.728-.324,1.1-.46a4.215,4.215,0,0,0,2.781-3.605,1.164,1.164,0,0,1,1.155-1.07h2.08a1.156,1.156,0,0,1,.8.323,1.128,1.128,0,0,1,.359.758,4.237,4.237,0,0,0,2.776,3.593c.388.143.753.3,1.088.456a4.345,4.345,0,0,0,4.547-.586,1.157,1.157,0,0,1,1.57.067L34.9,40.3a1.17,1.17,0,0,1,.344.834,1.147,1.147,0,0,1-.277.757,4.257,4.257,0,0,0-.576,4.536c.158.332.311.7.451,1.076a4.2,4.2,0,0,0,3.6,2.778,1.178,1.178,0,0,1,1.079,1.164V53.53a1.167,1.167,0,0,1-1.069,1.155,4.192,4.192,0,0,0-3.605,2.777c-.137.371-.291.735-.444,1.065a3.561,3.561,0,0,0-.17.434c-.01.023-.017.048-.027.071s-.027.063-.036.094-.012.057-.019.085-.016.063-.022.1a4.254,4.254,0,0,0-.143,1.069,4.158,4.158,0,0,0,.984,2.7,1.177,1.177,0,0,1-.063,1.584m29.7-6.6H37.961a1.113,1.113,0,0,1,.724-.367,4.19,4.19,0,0,0,3.857-4.167V51.451a4.219,4.219,0,0,0-3.859-4.175,1.177,1.177,0,0,1-1-.8c-.175-.476-.365-.928-.555-1.326a1.2,1.2,0,0,1,.143-1.293,4.2,4.2,0,0,0-.222-5.675l-1.464-1.464a4.187,4.187,0,0,0-5.673-.223,1.142,1.142,0,0,1-.751.262,1.245,1.245,0,0,1-.528-.111c-.417-.2-.868-.388-1.346-.564a1.19,1.19,0,0,1-.808-1,4.111,4.111,0,0,0-1.327-2.742,4.171,4.171,0,0,0-2.839-1.117H20.23a4.2,4.2,0,0,0-4.166,3.859,1.178,1.178,0,0,1-.811,1c-.432.159-.867.341-1.326.555a1.2,1.2,0,0,1-1.284-.142,4.214,4.214,0,0,0-2.651-.968V12.5a9.487,9.487,0,0,1,9.472-9.48H64.609a9.476,9.476,0,0,1,9.479,9.48v6.785H66.846A10.98,10.98,0,0,0,55.877,30.253v.582A10.979,10.979,0,0,0,66.846,41.8h7.243v6.792a9.486,9.486,0,0,1-9.479,9.471M77.517,38a.783.783,0,0,1-.782.782h-1.12l-.016,0-.016,0H66.846A7.958,7.958,0,0,1,58.9,30.834v-.582a7.957,7.957,0,0,1,7.949-7.948h9.889a.782.782,0,0,1,.782.781Z" transform="translate(0 0)"/>
        <path id="Path_18579" data-name="Path 18579" d="M69.393,26.46a4.892,4.892,0,1,0,4.892,4.892,4.9,4.9,0,0,0-4.892-4.892m0,6.764a1.872,1.872,0,1,1,1.872-1.872,1.874,1.874,0,0,1-1.872,1.872" transform="translate(-1.97 -0.808)" fill="#f40"/>
        <path id="Path_18580" data-name="Path 18580" d="M21.537,59.549a2.86,2.86,0,1,1,2.023-.838,2.859,2.859,0,0,1-2.023.838m-1.452-1.415a2.05,2.05,0,1,0-.6-1.445,2.047,2.047,0,0,0,.6,1.445" transform="translate(-0.57 -1.644)" fill="#f40"/>
        <path id="Path_18581" data-name="Path 18581" d="M21.537,59.549a2.86,2.86,0,1,1,2.023-.838A2.859,2.859,0,0,1,21.537,59.549Zm-1.452-1.415a2.05,2.05,0,1,0-.6-1.445A2.047,2.047,0,0,0,20.084,58.134Z" transform="translate(-0.57 -1.644)" fill="none" stroke="#f40" stroke-width="1"/>
        <path id="Path_18582" data-name="Path 18582" d="M28.7,50.61H17.148V49.066a4.194,4.194,0,0,1,4.194-4.185,4.115,4.115,0,0,1,2.05.543,4.213,4.213,0,0,1,1.5,1.465,1.644,1.644,0,0,0,.774.519.681.681,0,0,0,.38.01.408.408,0,0,0,.229-.191,1.392,1.392,0,0,0,.124-.784l0-.025a.748.748,0,0,0-.054-.289.828.828,0,0,0-.161-.251l-.045-.052a5.923,5.923,0,0,0-2.1-1.906,5.691,5.691,0,0,0-2.7-.679,5.822,5.822,0,0,0-5.827,5.826V50.61H13.972a.824.824,0,0,0-.821.82v9.822a.824.824,0,0,0,.821.82H28.7a.819.819,0,0,0,.82-.82V51.43a.819.819,0,0,0-.82-.82m-10.736-.819H28.7a1.638,1.638,0,0,1,1.639,1.639v9.822A1.64,1.64,0,0,1,28.7,62.891H13.972a1.643,1.643,0,0,1-1.639-1.639V51.43a1.638,1.638,0,0,1,1.639-1.639H14.7v-.725a6.641,6.641,0,0,1,6.646-6.644,6.508,6.508,0,0,1,3.09.777A6.745,6.745,0,0,1,26.8,45.343a1.637,1.637,0,0,1,.3.481,1.565,1.565,0,0,1,.115.592,2.127,2.127,0,0,1-.237,1.222,1.2,1.2,0,0,1-.686.556,1.475,1.475,0,0,1-.841,0,2.483,2.483,0,0,1-1.2-.8l-.04-.055a3.39,3.39,0,0,0-1.227-1.207,3.308,3.308,0,0,0-1.647-.434,3.368,3.368,0,0,0-3.374,3.367Z" transform="translate(-0.377 -1.296)" fill="#f40"/>
        <path id="Path_18583" data-name="Path 18583" d="M28.7,50.61H17.148V49.066a4.194,4.194,0,0,1,4.194-4.185,4.115,4.115,0,0,1,2.05.543,4.213,4.213,0,0,1,1.5,1.465,1.644,1.644,0,0,0,.774.519.681.681,0,0,0,.38.01.408.408,0,0,0,.229-.191,1.392,1.392,0,0,0,.124-.784l0-.025a.748.748,0,0,0-.054-.289.828.828,0,0,0-.161-.251l-.045-.052a5.923,5.923,0,0,0-2.1-1.906,5.691,5.691,0,0,0-2.7-.679,5.822,5.822,0,0,0-5.827,5.826V50.61H13.972a.824.824,0,0,0-.821.82v9.822a.824.824,0,0,0,.821.82H28.7a.819.819,0,0,0,.82-.82V51.43a.819.819,0,0,0-.82-.82Zm-10.736-.819H28.7a1.638,1.638,0,0,1,1.639,1.639v9.822A1.64,1.64,0,0,1,28.7,62.891H13.972a1.643,1.643,0,0,1-1.639-1.639V51.43a1.638,1.638,0,0,1,1.639-1.639H14.7v-.725a6.641,6.641,0,0,1,6.646-6.644,6.508,6.508,0,0,1,3.09.777A6.745,6.745,0,0,1,26.8,45.343a1.637,1.637,0,0,1,.3.481,1.565,1.565,0,0,1,.115.592,2.127,2.127,0,0,1-.237,1.222,1.2,1.2,0,0,1-.686.556,1.475,1.475,0,0,1-.841,0,2.483,2.483,0,0,1-1.2-.8l-.04-.055a3.39,3.39,0,0,0-1.227-1.207,3.308,3.308,0,0,0-1.647-.434,3.368,3.368,0,0,0-3.374,3.367Z" transform="translate(-0.377 -1.296)" fill="none" stroke="#f40" stroke-width="1"/>
      </g>
    </g>
  </g>
</svg>
