<svg xmlns="http://www.w3.org/2000/svg" xmlns:xlink="http://www.w3.org/1999/xlink" width="407.799" height="456.812" viewBox="0 0 407.799 456.812">
  <defs>
    <clipPath id="clip-path">
      <path id="Path_17711" data-name="Path 17711" d="M230.289,31.793C111.174,60.962,41.555,135.836,28.644,203.3,14.862,275.307,66.086,336.744,175.829,336.285s40.1,89.3,131.729,94.906S443.87,380.706,432.506,256.176C422.612,147.78,419.8,23.049,294.7,23.039c-18.623,0-39.943,2.763-64.413,8.754" transform="translate(-26.445 -23.039)" fill="none"/>
    </clipPath>
    <clipPath id="clip-path-2">
      <rect id="Rectangle_8715" data-name="Rectangle 8715" width="378.507" height="431.563" fill="none"/>
    </clipPath>
    <clipPath id="clip-path-3">
      <rect id="Rectangle_8716" data-name="Rectangle 8716" width="186.855" height="418.833" fill="none"/>
    </clipPath>
    <clipPath id="clip-path-4">
      <rect id="Rectangle_8717" data-name="Rectangle 8717" width="172.166" height="418.833" fill="none"/>
    </clipPath>
    <clipPath id="clip-path-5">
      <rect id="Rectangle_8718" data-name="Rectangle 8718" width="135.013" height="373.866" fill="none"/>
    </clipPath>
    <clipPath id="clip-path-6">
      <rect id="Rectangle_8720" data-name="Rectangle 8720" width="378.505" height="431.565" fill="none"/>
    </clipPath>
    <clipPath id="clip-path-7">
      <rect id="Rectangle_8721" data-name="Rectangle 8721" width="186.854" height="418.833" fill="none"/>
    </clipPath>
    <clipPath id="clip-path-8">
      <rect id="Rectangle_8722" data-name="Rectangle 8722" width="172.165" height="418.833" fill="none"/>
    </clipPath>
    <clipPath id="clip-path-9">
      <rect id="Rectangle_8725" data-name="Rectangle 8725" width="0.955" height="175.281" fill="none"/>
    </clipPath>
    <clipPath id="clip-path-10">
      <rect id="Rectangle_8727" data-name="Rectangle 8727" width="0.956" height="175.281" fill="none"/>
    </clipPath>
    <clipPath id="clip-path-12">
      <rect id="Rectangle_8731" data-name="Rectangle 8731" width="0.954" height="175.281" fill="none"/>
    </clipPath>
    <clipPath id="clip-path-14">
      <rect id="Rectangle_8735" data-name="Rectangle 8735" width="291.27" height="1.218" fill="none"/>
    </clipPath>
    <clipPath id="clip-path-16">
      <rect id="Rectangle_8738" data-name="Rectangle 8738" width="11.864" height="17.69" fill="none"/>
    </clipPath>
    <clipPath id="clip-path-17">
      <rect id="Rectangle_8739" data-name="Rectangle 8739" width="5.771" height="9.46" fill="none"/>
    </clipPath>
    <clipPath id="clip-path-18">
      <rect id="Rectangle_8740" data-name="Rectangle 8740" width="4.551" height="5.907" fill="none"/>
    </clipPath>
    <clipPath id="clip-path-19">
      <rect id="Rectangle_8741" data-name="Rectangle 8741" width="5.69" height="3.333" fill="none"/>
    </clipPath>
    <clipPath id="clip-path-20">
      <rect id="Rectangle_8742" data-name="Rectangle 8742" width="2.339" height="3.191" fill="none"/>
    </clipPath>
  </defs>
  <g id="Group_10033" data-name="Group 10033" transform="translate(-416.074 -94)">
    <g id="Group_10098" data-name="Group 10098" transform="translate(416.074 94)">
      <rect id="Rectangle_8628" data-name="Rectangle 8628" width="374.066" height="2.84" transform="translate(14.066 453.972)"/>
      <g id="Group_10057" data-name="Group 10057" transform="translate(0 45.406)">
        <g id="Group_10056" data-name="Group 10056" clip-path="url(#clip-path)">
          <path id="Path_17704" data-name="Path 17704" d="M97.451,123.441v-15.28H122.8V35.13h6.987v73.032h27.3v15.28H171.7V429.65H66.25V123.441Z" transform="translate(12.199 -11.301)" fill="#c6d0db"/>
          <rect id="Rectangle_8630" data-name="Rectangle 8630" width="14.622" height="275.447" transform="translate(78.449 112.141)" fill="#aab6c2"/>
          <rect id="Rectangle_8631" data-name="Rectangle 8631" width="105.454" height="233.267" transform="translate(131.177 185.082)" fill="#c6d0db"/>
          <rect id="Rectangle_8632" data-name="Rectangle 8632" width="14.622" height="233.267" transform="translate(131.177 185.082)" fill="#aab6c2"/>
          <rect id="Rectangle_8633" data-name="Rectangle 8633" width="15.132" height="6.281" transform="translate(206.785 195.019)" fill="#aab6c2"/>
          <rect id="Rectangle_8634" data-name="Rectangle 8634" width="15.132" height="6.281" transform="translate(181.306 195.019)" fill="#aab6c2"/>
          <rect id="Rectangle_8635" data-name="Rectangle 8635" width="15.132" height="6.281" transform="translate(206.785 217.887)" fill="#aab6c2"/>
          <rect id="Rectangle_8636" data-name="Rectangle 8636" width="15.132" height="6.281" transform="translate(181.306 217.887)" fill="#aab6c2"/>
          <rect id="Rectangle_8637" data-name="Rectangle 8637" width="15.132" height="6.281" transform="translate(155.829 217.887)" fill="#aab6c2"/>
          <rect id="Rectangle_8638" data-name="Rectangle 8638" width="15.132" height="6.281" transform="translate(206.785 240.753)" fill="#aab6c2"/>
          <rect id="Rectangle_8639" data-name="Rectangle 8639" width="15.132" height="6.281" transform="translate(155.829 240.753)" fill="#aab6c2"/>
          <rect id="Rectangle_8640" data-name="Rectangle 8640" width="15.132" height="6.281" transform="translate(181.306 252.187)" fill="#aab6c2"/>
          <rect id="Rectangle_8641" data-name="Rectangle 8641" width="15.132" height="6.281" transform="translate(206.785 263.622)" fill="#aab6c2"/>
          <rect id="Rectangle_8642" data-name="Rectangle 8642" width="15.132" height="6.283" transform="translate(181.306 275.053)" fill="#aab6c2"/>
          <rect id="Rectangle_8643" data-name="Rectangle 8643" width="15.132" height="6.279" transform="translate(206.785 286.49)" fill="#aab6c2"/>
          <rect id="Rectangle_8644" data-name="Rectangle 8644" width="15.132" height="6.279" transform="translate(155.829 286.49)" fill="#aab6c2"/>
          <rect id="Rectangle_8645" data-name="Rectangle 8645" width="15.132" height="6.281" transform="translate(206.785 307.621)" fill="#aab6c2"/>
          <rect id="Rectangle_8646" data-name="Rectangle 8646" width="15.132" height="6.281" transform="translate(181.306 307.621)" fill="#aab6c2"/>
          <rect id="Rectangle_8647" data-name="Rectangle 8647" width="15.132" height="6.281" transform="translate(206.785 330.487)" fill="#aab6c2"/>
          <rect id="Rectangle_8648" data-name="Rectangle 8648" width="15.132" height="6.281" transform="translate(181.306 330.487)" fill="#aab6c2"/>
          <rect id="Rectangle_8649" data-name="Rectangle 8649" width="15.132" height="6.281" transform="translate(155.829 330.487)" fill="#aab6c2"/>
          <rect id="Rectangle_8650" data-name="Rectangle 8650" width="15.132" height="6.281" transform="translate(206.785 353.357)" fill="#aab6c2"/>
          <rect id="Rectangle_8651" data-name="Rectangle 8651" width="15.132" height="6.281" transform="translate(155.829 353.357)" fill="#aab6c2"/>
          <rect id="Rectangle_8652" data-name="Rectangle 8652" width="15.132" height="6.281" transform="translate(181.306 364.79)" fill="#aab6c2"/>
          <rect id="Rectangle_8653" data-name="Rectangle 8653" width="15.132" height="6.281" transform="translate(155.829 364.79)" fill="#aab6c2"/>
          <rect id="Rectangle_8654" data-name="Rectangle 8654" width="15.132" height="6.281" transform="translate(206.785 376.224)" fill="#aab6c2"/>
          <rect id="Rectangle_8655" data-name="Rectangle 8655" width="15.132" height="6.279" transform="translate(181.306 387.659)" fill="#aab6c2"/>
          <rect id="Rectangle_8656" data-name="Rectangle 8656" width="15.132" height="6.283" transform="translate(206.785 399.09)" fill="#aab6c2"/>
          <rect id="Rectangle_8657" data-name="Rectangle 8657" width="15.132" height="6.283" transform="translate(155.829 399.09)" fill="#aab6c2"/>
          <rect id="Rectangle_8658" data-name="Rectangle 8658" width="105.454" height="233.265" transform="translate(383.497 185.082)" fill="#c6d0db"/>
          <rect id="Rectangle_8659" data-name="Rectangle 8659" width="14.622" height="233.265" transform="translate(383.497 185.082)" fill="#aab6c2"/>
          <rect id="Rectangle_8660" data-name="Rectangle 8660" width="141.491" height="344.22" transform="translate(233.695 74.129)" fill="#c6d0db"/>
          <rect id="Rectangle_8661" data-name="Rectangle 8661" width="14.622" height="344.22" transform="translate(233.695 74.129)" fill="#aab6c2"/>
          <rect id="Rectangle_8662" data-name="Rectangle 8662" width="22.097" height="9.17" transform="translate(338.185 90.617)" fill="#aab6c2"/>
          <rect id="Rectangle_8663" data-name="Rectangle 8663" width="22.097" height="9.17" transform="translate(300.979 90.617)" fill="#aab6c2"/>
          <rect id="Rectangle_8664" data-name="Rectangle 8664" width="22.097" height="9.172" transform="translate(338.185 124.01)" fill="#aab6c2"/>
          <rect id="Rectangle_8665" data-name="Rectangle 8665" width="22.097" height="9.172" transform="translate(300.979 124.01)" fill="#aab6c2"/>
          <rect id="Rectangle_8666" data-name="Rectangle 8666" width="22.097" height="9.172" transform="translate(263.776 124.01)" fill="#aab6c2"/>
          <rect id="Rectangle_8667" data-name="Rectangle 8667" width="22.097" height="9.17" transform="translate(338.185 157.404)" fill="#aab6c2"/>
          <rect id="Rectangle_8668" data-name="Rectangle 8668" width="22.097" height="9.17" transform="translate(263.776 157.404)" fill="#aab6c2"/>
          <rect id="Rectangle_8669" data-name="Rectangle 8669" width="22.097" height="9.17" transform="translate(300.979 174.101)" fill="#aab6c2"/>
          <rect id="Rectangle_8670" data-name="Rectangle 8670" width="22.097" height="9.172" transform="translate(338.185 190.796)" fill="#aab6c2"/>
          <rect id="Rectangle_8671" data-name="Rectangle 8671" width="22.097" height="9.172" transform="translate(300.979 207.491)" fill="#aab6c2"/>
          <rect id="Rectangle_8672" data-name="Rectangle 8672" width="22.097" height="9.17" transform="translate(338.185 224.19)" fill="#aab6c2"/>
          <rect id="Rectangle_8673" data-name="Rectangle 8673" width="22.097" height="9.17" transform="translate(263.776 224.19)" fill="#aab6c2"/>
          <rect id="Rectangle_8674" data-name="Rectangle 8674" width="22.097" height="9.17" transform="translate(338.185 255.049)" fill="#aab6c2"/>
          <rect id="Rectangle_8675" data-name="Rectangle 8675" width="22.097" height="9.17" transform="translate(300.979 255.049)" fill="#aab6c2"/>
          <rect id="Rectangle_8676" data-name="Rectangle 8676" width="22.097" height="9.17" transform="translate(338.185 288.441)" fill="#aab6c2"/>
          <rect id="Rectangle_8677" data-name="Rectangle 8677" width="22.097" height="9.17" transform="translate(300.979 288.441)" fill="#aab6c2"/>
          <rect id="Rectangle_8678" data-name="Rectangle 8678" width="22.097" height="9.17" transform="translate(263.776 288.441)" fill="#aab6c2"/>
          <rect id="Rectangle_8679" data-name="Rectangle 8679" width="22.097" height="9.17" transform="translate(338.185 321.835)" fill="#aab6c2"/>
          <rect id="Rectangle_8680" data-name="Rectangle 8680" width="22.097" height="9.17" transform="translate(263.776 321.835)" fill="#aab6c2"/>
          <rect id="Rectangle_8681" data-name="Rectangle 8681" width="22.097" height="9.17" transform="translate(300.979 338.53)" fill="#aab6c2"/>
          <rect id="Rectangle_8682" data-name="Rectangle 8682" width="22.097" height="9.17" transform="translate(263.776 338.53)" fill="#aab6c2"/>
          <rect id="Rectangle_8683" data-name="Rectangle 8683" width="22.097" height="9.17" transform="translate(338.185 355.227)" fill="#aab6c2"/>
          <rect id="Rectangle_8684" data-name="Rectangle 8684" width="22.097" height="9.172" transform="translate(300.979 371.924)" fill="#aab6c2"/>
          <rect id="Rectangle_8685" data-name="Rectangle 8685" width="22.097" height="9.172" transform="translate(338.185 388.619)" fill="#aab6c2"/>
          <rect id="Rectangle_8686" data-name="Rectangle 8686" width="22.097" height="9.172" transform="translate(263.776 388.619)" fill="#aab6c2"/>
          <rect id="Rectangle_8687" data-name="Rectangle 8687" width="89.313" height="217.282" transform="translate(7.986 201.068)" fill="#c6d0db"/>
          <rect id="Rectangle_8688" data-name="Rectangle 8688" width="9.231" height="217.282" transform="translate(7.986 201.068)" fill="#aab6c2"/>
          <rect id="Rectangle_8689" data-name="Rectangle 8689" width="13.95" height="5.788" transform="translate(73.942 211.474)" fill="#aab6c2"/>
          <rect id="Rectangle_8690" data-name="Rectangle 8690" width="13.95" height="5.788" transform="translate(50.457 211.474)" fill="#aab6c2"/>
          <rect id="Rectangle_8691" data-name="Rectangle 8691" width="13.95" height="5.79" transform="translate(73.942 232.552)" fill="#aab6c2"/>
          <rect id="Rectangle_8692" data-name="Rectangle 8692" width="13.95" height="5.79" transform="translate(50.457 232.552)" fill="#aab6c2"/>
          <rect id="Rectangle_8693" data-name="Rectangle 8693" width="13.95" height="5.79" transform="translate(26.973 232.552)" fill="#aab6c2"/>
          <rect id="Rectangle_8694" data-name="Rectangle 8694" width="13.95" height="5.79" transform="translate(73.942 253.63)" fill="#aab6c2"/>
          <rect id="Rectangle_8695" data-name="Rectangle 8695" width="13.95" height="5.79" transform="translate(26.973 253.63)" fill="#aab6c2"/>
          <rect id="Rectangle_8696" data-name="Rectangle 8696" width="13.95" height="5.79" transform="translate(50.457 264.17)" fill="#aab6c2"/>
          <rect id="Rectangle_8697" data-name="Rectangle 8697" width="13.95" height="5.79" transform="translate(73.942 274.71)" fill="#aab6c2"/>
          <rect id="Rectangle_8698" data-name="Rectangle 8698" width="13.95" height="5.79" transform="translate(50.457 285.248)" fill="#aab6c2"/>
          <rect id="Rectangle_8699" data-name="Rectangle 8699" width="13.95" height="5.79" transform="translate(73.942 295.788)" fill="#aab6c2"/>
          <rect id="Rectangle_8700" data-name="Rectangle 8700" width="13.95" height="5.79" transform="translate(26.973 295.788)" fill="#aab6c2"/>
          <rect id="Rectangle_8701" data-name="Rectangle 8701" width="13.95" height="5.788" transform="translate(73.942 315.268)" fill="#aab6c2"/>
          <rect id="Rectangle_8702" data-name="Rectangle 8702" width="13.95" height="5.788" transform="translate(50.457 315.268)" fill="#aab6c2"/>
          <rect id="Rectangle_8703" data-name="Rectangle 8703" width="13.95" height="5.79" transform="translate(73.942 336.344)" fill="#aab6c2"/>
          <rect id="Rectangle_8704" data-name="Rectangle 8704" width="13.95" height="5.79" transform="translate(50.457 336.344)" fill="#aab6c2"/>
          <rect id="Rectangle_8705" data-name="Rectangle 8705" width="13.95" height="5.79" transform="translate(26.973 336.344)" fill="#aab6c2"/>
          <rect id="Rectangle_8706" data-name="Rectangle 8706" width="13.95" height="5.788" transform="translate(73.942 357.425)" fill="#aab6c2"/>
          <rect id="Rectangle_8707" data-name="Rectangle 8707" width="13.95" height="5.788" transform="translate(26.973 357.425)" fill="#aab6c2"/>
          <rect id="Rectangle_8708" data-name="Rectangle 8708" width="13.95" height="5.79" transform="translate(50.457 367.963)" fill="#aab6c2"/>
          <rect id="Rectangle_8709" data-name="Rectangle 8709" width="13.95" height="5.79" transform="translate(26.973 367.963)" fill="#aab6c2"/>
          <rect id="Rectangle_8710" data-name="Rectangle 8710" width="13.95" height="5.79" transform="translate(73.942 378.503)" fill="#aab6c2"/>
          <rect id="Rectangle_8711" data-name="Rectangle 8711" width="13.95" height="5.79" transform="translate(50.457 389.041)" fill="#aab6c2"/>
          <rect id="Rectangle_8712" data-name="Rectangle 8712" width="13.95" height="5.79" transform="translate(73.942 399.583)" fill="#aab6c2"/>
          <rect id="Rectangle_8713" data-name="Rectangle 8713" width="13.95" height="5.79" transform="translate(26.973 399.583)" fill="#aab6c2"/>
          <g id="Group_10037" data-name="Group 10037" transform="translate(-47.978 -31.484)" opacity="0.35">
            <g id="Group_10036" data-name="Group 10036" transform="translate(0 0)">
              <g id="Group_10035" data-name="Group 10035" clip-path="url(#clip-path-2)">
                <rect id="Rectangle_8714" data-name="Rectangle 8714" width="378.507" height="431.564" transform="translate(0 -0.002)" fill="#fff"/>
              </g>
            </g>
          </g>
          <g id="Group_10040" data-name="Group 10040" transform="translate(52.955 -26.547)" opacity="0.5">
            <g id="Group_10039" data-name="Group 10039">
              <g id="Group_10038" data-name="Group 10038" clip-path="url(#clip-path-3)">
                <path id="Path_17705" data-name="Path 17705" d="M82.69,428.4H53.315L210.791,9.569h29.377Z" transform="translate(-53.314 -9.569)" fill="#fff"/>
              </g>
            </g>
          </g>
          <g id="Group_10043" data-name="Group 10043" transform="translate(15.772 -26.547)" opacity="0.5">
            <g id="Group_10042" data-name="Group 10042">
              <g id="Group_10041" data-name="Group 10041" clip-path="url(#clip-path-4)">
                <path id="Path_17706" data-name="Path 17706" d="M49.137,428.4H34.448L191.926,9.569h14.687Z" transform="translate(-34.448 -9.569)" fill="#fff"/>
              </g>
            </g>
          </g>
          <g id="Group_10046" data-name="Group 10046" transform="translate(191.156 18.42)" opacity="0.5">
            <g id="Group_10045" data-name="Group 10045">
              <g id="Group_10044" data-name="Group 10044" clip-path="url(#clip-path-5)">
                <path id="Path_17707" data-name="Path 17707" d="M138.125,406.251H123.437L258.449,32.385v30.12Z" transform="translate(-123.437 -32.385)" fill="#fff"/>
              </g>
            </g>
          </g>
          <g id="Group_10049" data-name="Group 10049" transform="translate(332.521 -40.026)" opacity="0.35">
            <g id="Group_10048" data-name="Group 10048" transform="translate(0 0)">
              <g id="Group_10047" data-name="Group 10047" clip-path="url(#clip-path-6)">
                <rect id="Rectangle_8719" data-name="Rectangle 8719" width="378.507" height="431.564" transform="translate(-0.002)" fill="#fff"/>
              </g>
            </g>
          </g>
          <g id="Group_10052" data-name="Group 10052" transform="translate(365.741 -26.547)" opacity="0.5">
            <g id="Group_10051" data-name="Group 10051">
              <g id="Group_10050" data-name="Group 10050" clip-path="url(#clip-path-7)">
                <path id="Path_17708" data-name="Path 17708" d="M241.4,428.4H212.021L369.5,9.569h29.375Z" transform="translate(-212.021 -9.569)" fill="#fff"/>
              </g>
            </g>
          </g>
          <g id="Group_10055" data-name="Group 10055" transform="translate(328.557 -26.547)" opacity="0.5">
            <g id="Group_10054" data-name="Group 10054">
              <g id="Group_10053" data-name="Group 10053" clip-path="url(#clip-path-8)">
                <path id="Path_17709" data-name="Path 17709" d="M207.843,428.4H193.154L350.632,9.569h14.687Z" transform="translate(-193.154 -9.569)" fill="#fff"/>
              </g>
            </g>
          </g>
          <path id="Path_17710" data-name="Path 17710" d="M778.931,87.339V82.4h-13.6V4.56h0v0H0v9.876H8.246V17.92H252.339V82.4H0v4.937H252.339V214.077H0v4.937H252.339V345.749H0v4.939H252.339v82.578H8.323v2.856H0v11.425H765.332v-.916h0V350.688h13.6v-4.939h-13.6V219.014h13.6v-4.937h-13.6V87.339ZM386.824,219.014H504.712V345.749H386.824Zm0-131.674H504.712V214.075H386.824Zm0-69.419H504.712V82.4H386.824Zm0,332.767h117.89v82.578H386.865v2.856h-.041Zm126.172,0H630.883v82.578H513Zm0-131.674H630.883V345.749H513Zm0-131.674H630.883V214.075H513Zm0-69.419H630.883V82.4H513Zm126.168,0H757.051V82.4H639.163Zm-378.542,0H378.509V82.4H260.621Zm0,69.419H378.509V214.075H260.621Zm0,131.674H378.509V345.749H260.621Zm0,131.674H378.509v85.434h-.043v-2.856H260.621Zm496.43,85.434h-.043v-2.856H639.163V350.688H757.051Zm0-90.373H639.163V219.014H757.051Zm0-131.672H639.163V87.341H757.051Z" transform="translate(-52.119 -40.981)" fill="#fff"/>
        </g>
      </g>
      <g id="Group_10095" data-name="Group 10095" transform="translate(31.5)">
        <g id="Group_10099" data-name="Group 10099">
          <path id="Path_17712" data-name="Path 17712" d="M122.424,201.355a10.13,10.13,0,0,0,5.769-1.9,49.315,49.315,0,0,1-.857,10.6c-2.266,3.656-8.555,10.377-8.13,10.335a20.321,20.321,0,0,0,5.047-1.175,37.6,37.6,0,0,1-3.845,6.285c-3.051,4.07-7.4,7.324-9.048,12.288a.319.319,0,0,1-.191.219.36.36,0,0,1-.6.262c-8.207-7.793-9.673-19.628-10.879-30.3-.055-.507-.112-1.005-.16-1.514a32.881,32.881,0,0,0,7.564,5.9c.4.217-5.14-8.642-7.85-12.724a24.007,24.007,0,0,1,1.413-7.58c1.922-5.144,5.215-9.959,8.41-14.389.128-.181.278-.359.406-.54a24.568,24.568,0,0,0,3.532,6.4c.262.345-.583-6.476-1.1-9.592.8-1,1.6-1.993,2.438-2.954,1.1-1.289,2.446-3.479,4.411-3.185,1.908.27,6.252,8.079,6.8,10.311.238.954.451,1.927.644,2.9.095.418.171.849.246,1.267a117.631,117.631,0,0,1,1.464,11.888c-.136.209-.27.422-.426.625-1.594,2.17-5.455,6.571-5.063,6.573" transform="translate(12.736 162.867)" fill="#aab6c2"/>
          <path id="Path_17713" data-name="Path 17713" d="M111.082,192.417c4.05-.613,7.142-3.169,10.116-5.808.443-.4-.106-1.141-.554-.743-2.785,2.471-5.688,4.943-9.464,5.585.861-6.029,1.864-12.038,3.047-18.016.116-.587-.8-.729-.916-.144q-2.35,11.884-3.839,23.9a39.76,39.76,0,0,1-5.359-10.773c-.183-.566-1.043-.221-.861.347A40.529,40.529,0,0,0,109,198.142a.415.415,0,0,0,.337.183c-.213,1.752-.408,3.5-.6,5.258a24.943,24.943,0,0,1-3.977-6.959c-.207-.558-1.068-.217-.861.345a25.737,25.737,0,0,0,4.521,7.718.466.466,0,0,0,.191.132q-.89,8.659-1.348,17.355a.451.451,0,0,0-.055.2q-.186,3.184-.221,6.358-.071,2.072-.112,4.147a.363.363,0,0,0,.134.313,202.132,202.132,0,0,0,4.921,38.765c.3-.073.6-.14.9-.211-3.1-14.446-5.17-29.066-4.9-43.873q.083-2.344.2-4.687a.428.428,0,0,0,.412-.051,15.415,15.415,0,0,0,4.241-4.34c.323-.5-.4-1.078-.725-.577a14.762,14.762,0,0,1-3.883,4.03q.778-14.973,2.864-29.833c.012,0,.024,0,.037,0" transform="translate(16.598 167.876)"/>
          <path id="Path_17714" data-name="Path 17714" d="M95.53,209.6a10.079,10.079,0,0,1-5.457.467,35.155,35.155,0,0,0,3.81,7.682c2.988,2,10.286,4.98,9.913,5.093a20.669,20.669,0,0,1-4.633.775,29.9,29.9,0,0,0,5.1,3.459c3.774,2.054,8.416,3.071,11.261,6.257a.265.265,0,0,0,.225.1.336.336,0,0,0,.583,0c4.712-8.553,2.519-17.931.441-26.344-.1-.4-.2-.792-.3-1.19a29.726,29.726,0,0,1-4.712,6.924c-.276.292,1.857-8.185,2.974-12.14a17.35,17.35,0,0,0-3.4-5.231c-3.128-3.234-7.326-5.769-11.33-8.047-.162-.1-.339-.179-.5-.272a19.291,19.291,0,0,1-1.143,5.966c-.124.345-1.387-5.059-1.853-7.57-.972-.483-1.943-.968-2.931-1.417-1.307-.609-3.09-1.809-4.675-.944-1.541.83-2.966,8.124-2.785,9.982.075.8.177,1.6.3,2.4.041.345.1.694.16,1.035a84.049,84.049,0,0,0,2.209,9.411c.177.114.353.229.542.331,1.987,1.1,6.549,3.144,6.216,3.274" transform="translate(-0.038 177.534)" fill="#aab6c2"/>
          <path id="Path_17715" data-name="Path 17715" d="M121.112,260.525a145.015,145.015,0,0,0-7.079-30.745.279.279,0,0,0,.022-.278c-.424-1.031-.859-2.056-1.3-3.08q-.958-2.368-2.036-4.7a.385.385,0,0,0-.1-.13q-2.915-6.383-6.19-12.6a.406.406,0,0,0,.124-.164,20.3,20.3,0,0,0,1.6-7.284c.014-.489-.818-.463-.832.026a19.623,19.623,0,0,1-1.36,6.535q-1-1.883-2.032-3.754a.388.388,0,0,0,.231-.248,31.382,31.382,0,0,0,1.585-10.438c-.012-.485-.844-.461-.834.026a30.724,30.724,0,0,1-1.425,9.854q-4.766-8.529-10.209-16.7c-.268-.4-1.005.006-.737.41q4.112,6.152,7.824,12.535c-3.4.757-6.581-.146-9.667-1.088-.5-.15-.747.593-.256.741,3.3,1.005,6.669,1.91,10.288,1.039l.033-.014q6.078,10.468,11.1,21.474a12.665,12.665,0,0,1-4.47-1.752c-.422-.27-.869.406-.449.672a13.282,13.282,0,0,0,4.868,1.866.428.428,0,0,0,.365-.1q.778,1.721,1.527,3.453c4.533,11.039,7.028,22.7,8.587,34.578.274-.045.55-.095.826-.138" transform="translate(1.982 181.238)"/>
          <path id="Path_17716" data-name="Path 17716" d="M93.464,192.118a21.292,21.292,0,0,1-7.215-2.818c.043.345.1.694.16,1.035a22.309,22.309,0,0,0,6.8,2.525c.518.1.773-.641.26-.741" transform="translate(0.115 183.781)"/>
          <path id="Path_17717" data-name="Path 17717" d="M150.833,197.275c-.049,3.339-7.773,4.957-10.225,5.863-5.426,2.008-10.723,4.034-14.738,8.4-4.73,5.15-8.808,11.088-12.889,16.764a.959.959,0,0,1-.966.414,15.582,15.582,0,0,1-1.123-2.44c-1.405-3.467-3.559-9.813-3.025-13.429a21.841,21.841,0,0,1,2.462-7.209,6.461,6.461,0,0,0,1.543,3.053c.2.2.615-4.561.893-6.721.357-.438.719-.863,1.1-1.273a23.817,23.817,0,0,1,2.854-2.629c.217-.173.434-.345.656-.506a29.546,29.546,0,0,1,2.6-1.724c.236-.142.477-.28.727-.418.838-.467,1.709-.9,2.6-1.287a17.627,17.627,0,0,0,1.435,4.76c.15.317.514-3.76.568-5.564.838-.317,1.693-.579,2.564-.828a13.72,13.72,0,0,0,1.062,3.075c.12.235,1.267-2.527,1.683-3.739a33.514,33.514,0,0,1,8.272-.648c.237.01.473.02.7.043q1.112.077,2.2.246c2.661.414,8.928,2.1,9.052,5.694a.588.588,0,0,1,0,.1" transform="translate(21.022 185.577)" fill="#aab6c2"/>
          <path id="Path_17718" data-name="Path 17718" d="M119.935,203.032c-6.561,6.474-8.6,18.366-9.019,21.744a15.36,15.36,0,0,0-1.35,4.4c-.782,5.337-.552,10.968-.42,16.348.045,1.768.122,3.536.217,5.3.305-.057.607-.114.912-.17-.059-1.113-.11-2.231-.15-3.344-.164-4.817-.158-9.643.063-14.456a21.238,21.238,0,0,1,1.309-7.292.994.994,0,0,0,.292-.272c4.084-5.676,8.161-11.616,12.891-16.764,4.015-4.367,9.312-6.393,14.738-8.4,2.452-.907,10.174-2.525,10.225-5.863-10.29,1.2-22.156,1.322-29.708,8.774" transform="translate(22.212 188.594)"/>
          <path id="Path_17719" data-name="Path 17719" d="M114.937,200.769a21.377,21.377,0,0,1-.14-7.452c-.25.138-.491.276-.727.418a21.891,21.891,0,0,0,.2,7.184c.083.43.741.274.662-.15" transform="translate(26.927 187.681)"/>
          <path id="Path_17720" data-name="Path 17720" d="M113.932,201.046a28.193,28.193,0,0,1-.958-6.642c-.223.162-.439.335-.656.508a28.524,28.524,0,0,0,.952,6.287c.11.418.775.27.662-.154" transform="translate(25.424 188.736)"/>
          <path id="Path_17721" data-name="Path 17721" d="M104.139,243.812a23.591,23.591,0,0,1-9.06-24.159,22.7,22.7,0,0,1,1.177-3.77h43.7a23.14,23.14,0,0,1,1.177,3.768,23.57,23.57,0,0,1-9.062,24.161Z" transform="translate(8.136 209.589)" fill="#fff"/>
          <path id="Path_17722" data-name="Path 17722" d="M139.866,216.618a23.173,23.173,0,0,1,1.585,8.419,23.035,23.035,0,0,1-9.3,18.524h-27.61A23.093,23.093,0,0,1,95.8,220a22.316,22.316,0,0,1,1.025-3.38Zm.662-.985H96.167a23.579,23.579,0,0,0-1.326,4.155,24.07,24.07,0,0,0,9.379,24.76h28.256a24.1,24.1,0,0,0,9.383-24.76,23.589,23.589,0,0,0-1.33-4.155" transform="translate(7.893 209.346)"/>
          <path id="Path_17723" data-name="Path 17723" d="M137.533,225.039a24.041,24.041,0,0,1-9.961,19.507H99.314c36.92,1.833,36.311-28.912,36.311-28.912a23.7,23.7,0,0,1,1.33,4.155,24.107,24.107,0,0,1,.577,5.25" transform="translate(12.799 209.347)"/>
          <path id="Path_17724" data-name="Path 17724" d="M361.962,256.948H57.876a12.711,12.711,0,0,1-12.714-12.71V23.831a12.711,12.711,0,0,1,12.714-12.71H361.962a12.709,12.709,0,0,1,12.71,12.71V244.239a12.709,12.709,0,0,1-12.71,12.71" transform="translate(-39.774 10.797)" fill="#aab6c2"/>
          <path id="Path_17725" data-name="Path 17725" d="M374.673,56.669H45.163V23.831a12.71,12.71,0,0,1,12.712-12.71H361.963a12.71,12.71,0,0,1,12.71,12.71Z" transform="translate(-39.773 10.797)"/>
          <path id="Rectangle_8723" data-name="Rectangle 8723" d="M5.446,0H307.13a5.446,5.446,0,0,1,5.446,5.446V185.1a5.447,5.447,0,0,1-5.447,5.447H5.447A5.447,5.447,0,0,1,0,185.1V5.446A5.446,5.446,0,0,1,5.446,0Z" transform="translate(13.856 73.066)" fill="#fff"/>
          <path id="Path_17726" data-name="Path 17726" d="M351.546,37.818a10.245,10.245,0,0,1,10.235,10.235V217.13a10.245,10.245,0,0,1-10.235,10.235H60.439A10.246,10.246,0,0,1,50.2,217.13V48.053A10.246,10.246,0,0,1,60.439,37.818Zm0-1H60.439A11.233,11.233,0,0,0,49.205,48.053V217.13a11.234,11.234,0,0,0,11.234,11.234H351.546a11.232,11.232,0,0,0,11.232-11.234V48.053a11.232,11.232,0,0,0-11.232-11.232" transform="translate(-35.849 35.747)"/>
          <g id="Group_10060" data-name="Group 10060" transform="translate(68.185 80.698)" opacity="0.5">
            <g id="Group_10059" data-name="Group 10059">
              <g id="Group_10058" data-name="Group 10058" clip-path="url(#clip-path-9)">
                <path id="Path_17727" data-name="Path 17727" d="M77.267,40.946v0Z" transform="translate(-76.79 -40.946)" fill="#fff"/>
                <rect id="Rectangle_8724" data-name="Rectangle 8724" width="0.954" height="175.281" transform="translate(0)"/>
              </g>
            </g>
          </g>
          <g id="Group_10063" data-name="Group 10063" transform="translate(120.576 80.698)" opacity="0.5">
            <g id="Group_10062" data-name="Group 10062">
              <g id="Group_10061" data-name="Group 10061" clip-path="url(#clip-path-10)">
                <path id="Path_17728" data-name="Path 17728" d="M103.851,40.946v0Z" transform="translate(-103.372 -40.946)" fill="#fff"/>
                <rect id="Rectangle_8726" data-name="Rectangle 8726" width="0.954" height="175.281" transform="translate(0.002)"/>
              </g>
            </g>
          </g>
          <g id="Group_10066" data-name="Group 10066" transform="translate(172.967 80.698)" opacity="0.5">
            <g id="Group_10065" data-name="Group 10065">
              <g id="Group_10064" data-name="Group 10064" clip-path="url(#clip-path-10)">
                <path id="Path_17729" data-name="Path 17729" d="M130.434,40.946v0Z" transform="translate(-129.955 -40.946)" fill="#fff"/>
                <rect id="Rectangle_8728" data-name="Rectangle 8728" width="0.954" height="175.281" transform="translate(0.002)"/>
              </g>
            </g>
          </g>
          <g id="Group_10069" data-name="Group 10069" transform="translate(225.36 80.698)" opacity="0.5">
            <g id="Group_10068" data-name="Group 10068">
              <g id="Group_10067" data-name="Group 10067" clip-path="url(#clip-path-12)">
                <path id="Path_17730" data-name="Path 17730" d="M157.017,40.946v0Z" transform="translate(-156.54 -40.946)" fill="#fff"/>
                <rect id="Rectangle_8730" data-name="Rectangle 8730" width="0.954" height="175.281" transform="translate(0)"/>
              </g>
            </g>
          </g>
          <g id="Group_10072" data-name="Group 10072" transform="translate(277.751 80.698)" opacity="0.5">
            <g id="Group_10071" data-name="Group 10071">
              <g id="Group_10070" data-name="Group 10070" clip-path="url(#clip-path-10)">
                <path id="Path_17731" data-name="Path 17731" d="M183.6,40.946v0Z" transform="translate(-183.122 -40.946)" fill="#fff"/>
                <rect id="Rectangle_8732" data-name="Rectangle 8732" width="0.954" height="175.281" transform="translate(0.002)"/>
              </g>
            </g>
          </g>
          <g id="Group_10075" data-name="Group 10075" transform="translate(24.898 134.287)" opacity="0.5">
            <g id="Group_10074" data-name="Group 10074">
              <g id="Group_10073" data-name="Group 10073" clip-path="url(#clip-path-14)">
                <path id="Path_17732" data-name="Path 17732" d="M346.331,68.446h0Z" transform="translate(-55.061 -67.837)" fill="#fff"/>
                <rect id="Rectangle_8734" data-name="Rectangle 8734" width="291.267" height="1.218" transform="translate(0.003 0)"/>
              </g>
            </g>
          </g>
          <g id="Group_10078" data-name="Group 10078" transform="translate(24.898 195.445)" opacity="0.5">
            <g id="Group_10077" data-name="Group 10077">
              <g id="Group_10076" data-name="Group 10076" clip-path="url(#clip-path-14)">
                <path id="Path_17733" data-name="Path 17733" d="M346.331,99.477h0Z" transform="translate(-55.061 -98.868)" fill="#fff"/>
                <rect id="Rectangle_8736" data-name="Rectangle 8736" width="291.267" height="1.218" transform="translate(0.003)"/>
              </g>
            </g>
          </g>
          <path id="Path_17735" data-name="Path 17735" d="M177.267,108.066h0a16.028,16.028,0,0,1,.108,32.056l-.114,0a16.029,16.029,0,0,1-.11-32.058Zm0-.851-.12,0a16.879,16.879,0,0,0,.116,33.757c.039,0,.081,0,.12,0a16.879,16.879,0,0,0-.116-33.757" transform="translate(72.089 104.089)"/>
          <g id="Group_10144" data-name="Group 10144">
            <path id="Path_17734" data-name="Path 17734" d="M177.052,140.338a17,17,0,1,1,.118,0Z" transform="translate(72.299 104.299)" fill="#fff"/>
            <path id="Path_17736" data-name="Path 17736" d="M174.955,134.049c-1.208-.065-3.859-1.1-10.989-11.031a2.263,2.263,0,1,1,3.678-2.639,69.761,69.761,0,0,0,6.963,8.429c3.144-5.162,12.2-19.452,12.637-20.146a2.264,2.264,0,0,1,3.823,2.424c-3.415,5.39-12.489,19.758-13.445,21.512a2.755,2.755,0,0,1-2.259,1.443,3.339,3.339,0,0,1-.408.008" transform="translate(75.152 104.474)" fill="#f40"/>
          </g>
          <path id="Path_17737" data-name="Path 17737" d="M134.494,82.325v2.881h21.068l.026-2.881Z" transform="translate(46.953 79.924)"/>
          <path id="Path_17738" data-name="Path 17738" d="M134.494,86.725v2.881h38.065l.026-2.881Z" transform="translate(46.953 84.197)"/>
          <path id="Path_17739" data-name="Path 17739" d="M134.494,91.126v2.883h35.343l.024-2.883Z" transform="translate(46.953 88.469)"/>
          <path id="Path_17740" data-name="Path 17740" d="M146.3,85.208h6.5l.024-2.883h-6.5Z" transform="translate(58.418 79.924)"/>
          <path id="Path_17741" data-name="Path 17741" d="M80.161,50.086v2.881H101.23l.024-2.881Z" transform="translate(-5.796 48.626)"/>
          <path id="Path_17742" data-name="Path 17742" d="M80.161,54.487v2.881h38.065l.026-2.881Z" transform="translate(-5.796 52.899)"/>
          <path id="Path_17743" data-name="Path 17743" d="M80.161,58.888v2.883H115.5l.024-2.883Z" transform="translate(-5.796 57.171)"/>
          <path id="Path_17744" data-name="Path 17744" d="M91.97,52.968h6.5l.026-2.881H91.993Z" transform="translate(5.669 48.626)"/>
          <path id="Path_17745" data-name="Path 17745" d="M55.571,109.916V112.8H76.64l.024-2.883Z" transform="translate(-29.669 106.712)"/>
          <path id="Path_17746" data-name="Path 17746" d="M55.571,114.317V117.2H93.636l.026-2.881Z" transform="translate(-29.669 110.984)"/>
          <path id="Path_17747" data-name="Path 17747" d="M55.571,118.718V121.6H90.914l.024-2.881Z" transform="translate(-29.669 115.257)"/>
          <path id="Path_17748" data-name="Path 17748" d="M67.38,112.8h6.5l.026-2.883H67.4Z" transform="translate(-18.204 106.712)"/>
          <path id="Path_17749" data-name="Path 17749" d="M203.581,75.521l5.294,10.725,11.837,1.721-8.565,8.349,2.022,11.79-10.587-5.568L192.993,108.1l2.022-11.79-8.565-8.349,11.837-1.721Z" transform="translate(97.395 73.319)" fill="#f40"/>
          <path id="Path_17750" data-name="Path 17750" d="M125.638,106.051l5.294,10.725,11.837,1.721-8.565,8.349,2.022,11.79-10.587-5.568-10.587,5.568,2.022-11.79-8.565-8.349,11.837-1.721Z" transform="translate(21.724 102.959)" fill="#f40"/>
          <path id="Path_17751" data-name="Path 17751" d="M67.332,41.419h0A3.315,3.315,0,0,1,64.017,38.1V3.313a3.314,3.314,0,0,1,6.628,0V38.1a3.313,3.313,0,0,1-3.313,3.315" transform="translate(-21.469)" fill="#aab6c2"/>
          <path id="Path_17752" data-name="Path 17752" d="M88.827,41.419h0A3.315,3.315,0,0,1,85.512,38.1V3.313a3.314,3.314,0,0,1,6.628,0V38.1a3.313,3.313,0,0,1-3.313,3.315" transform="translate(-0.601)" fill="#aab6c2"/>
          <path id="Path_17753" data-name="Path 17753" d="M110.322,41.419h0a3.315,3.315,0,0,1-3.315-3.315V3.313a3.314,3.314,0,0,1,6.628,0V38.1a3.313,3.313,0,0,1-3.313,3.315" transform="translate(20.268)" fill="#aab6c2"/>
          <path id="Path_17754" data-name="Path 17754" d="M131.817,41.419h0A3.315,3.315,0,0,1,128.5,38.1V3.313a3.314,3.314,0,0,1,6.628,0V38.1a3.314,3.314,0,0,1-3.313,3.315" transform="translate(41.136)" fill="#aab6c2"/>
          <path id="Path_17755" data-name="Path 17755" d="M153.312,41.419h0A3.315,3.315,0,0,1,150,38.1V3.313a3.314,3.314,0,0,1,6.628,0V38.1a3.314,3.314,0,0,1-3.313,3.315" transform="translate(62.004)" fill="#aab6c2"/>
          <path id="Path_17756" data-name="Path 17756" d="M174.806,41.419h0a3.314,3.314,0,0,1-3.313-3.315V3.313a3.314,3.314,0,0,1,6.628,0V38.1a3.315,3.315,0,0,1-3.315,3.315" transform="translate(82.873)" fill="#aab6c2"/>
          <path id="Path_17757" data-name="Path 17757" d="M196.3,41.419h0a3.313,3.313,0,0,1-3.313-3.315V3.313a3.314,3.314,0,0,1,6.628,0V38.1a3.315,3.315,0,0,1-3.315,3.315" transform="translate(103.742)" fill="#aab6c2"/>
          <path id="Path_17758" data-name="Path 17758" d="M148.435,42.173h-38.2a5.534,5.534,0,0,0-5.534,5.536v38.2a5.534,5.534,0,0,0,5.534,5.536h38.2a5.536,5.536,0,0,0,5.536-5.536v-38.2a5.536,5.536,0,0,0-5.536-5.536" transform="translate(18.028 40.943)" fill="#feb800"/>
          <path id="Path_17759" data-name="Path 17759" d="M174.988,42.173h-38.2a5.534,5.534,0,0,0-5.534,5.536v38.2a5.534,5.534,0,0,0,5.534,5.536h38.2a5.536,5.536,0,0,0,5.536-5.536v-38.2a5.536,5.536,0,0,0-5.536-5.536" transform="translate(43.807 40.943)" fill="#feb800"/>
          <path id="Path_17760" data-name="Path 17760" d="M133.931,78.616c4.856-4.515,6.027-12.909,2.389-20.495C132.7,50.587,125.5,46.255,118.972,47.14l-.252-.532-3.352,1.608c-7.27,3.488-9.683,13.581-5.382,22.541s13.68,13.394,20.95,9.905l3.27-1.468Z" transform="translate(21.089 45.249)"/>
          <path id="Path_17761" data-name="Path 17761" d="M138.019,57.1c4.3,8.959,1.807,19.192-5.465,22.68s-16.569-1.086-20.869-10.045-1.888-19.05,5.384-22.541,16.652.946,20.95,9.905" transform="translate(22.74 44.662)" fill="#f40"/>
          <path id="Path_17762" data-name="Path 17762" d="M134.322,56.7c3.53,7.359,1.484,15.765-4.49,18.628s-13.611-.891-17.14-8.25-1.551-15.649,4.423-18.514,13.678.777,17.207,8.136" transform="translate(24.088 46.198)" fill="#f40"/>
          <path id="Path_17763" data-name="Path 17763" d="M127.8,61.061a3.91,3.91,0,0,0-.623-1.121,3.845,3.845,0,0,0-.875-.784,4.916,4.916,0,0,0-1.074-.506,8.544,8.544,0,0,0-1.216-.286,12.058,12.058,0,0,0-1.3-.15c-.447-.032-.891-.057-1.342-.083l-1.994-5.384a3.162,3.162,0,0,1,1.815.164,4.031,4.031,0,0,1,1.521,1.2l1.931-.715a5.591,5.591,0,0,0-1.212-1.5,4.79,4.79,0,0,0-1.456-.873,5.11,5.11,0,0,0-1.616-.319,6.557,6.557,0,0,0-1.679.158l-.637-1.73-1.955.725.642,1.728a6.233,6.233,0,0,0-1.449,1.082,5.379,5.379,0,0,0-1,1.38,4.316,4.316,0,0,0-.451,1.571,3.489,3.489,0,0,0-.018.38,3.829,3.829,0,0,0,.244,1.259,3.948,3.948,0,0,0,.244.546,3.282,3.282,0,0,0,.706.93,4.273,4.273,0,0,0,1.386.859,7.049,7.049,0,0,0,.763.25c.13.032.266.061.4.091s.29.055.438.075l.077.014c.6.077,1.216.138,1.841.181l1.677,4.529.075.2,0,.006.071.189.343.928A3.252,3.252,0,0,1,121,65.917a3.319,3.319,0,0,1-.723-.305,2.329,2.329,0,0,1-.225-.134l-.008,0c-.016-.01-.034-.026-.049-.034-.049-.034-.1-.075-.152-.114a4.842,4.842,0,0,1-.741-.664,5.533,5.533,0,0,1-.753-1.033l-2.056.759a7.537,7.537,0,0,0,1.129,1.541.141.141,0,0,0,.039.043c.03.037.065.069.095.1l.01.012a.268.268,0,0,1,.047.047.79.79,0,0,0,.114.1.277.277,0,0,0,.047.049,6.676,6.676,0,0,0,1.362.993c.128.073.26.136.392.2a1.163,1.163,0,0,0,.221.095,1.907,1.907,0,0,0,.221.095,5.646,5.646,0,0,0,.952.278A5.432,5.432,0,0,0,122.8,68l1.015,2.743,1.949-.721-.993-2.7a7.866,7.866,0,0,0,1.555-1.033,5.378,5.378,0,0,0,1.19-1.423,4.459,4.459,0,0,0,.575-1.76,4.332,4.332,0,0,0-.294-2.054m-11.738-4.62a2.051,2.051,0,0,1,.049-1.588,2.965,2.965,0,0,1,1.324-1.36l1.7,4.616a9.561,9.561,0,0,1-1.054-.162,3.957,3.957,0,0,1-.889-.3,2.6,2.6,0,0,1-.686-.487,1.966,1.966,0,0,1-.445-.719m9.894,6.411a2.6,2.6,0,0,1-.25.978,3.381,3.381,0,0,1-.629.9,4.13,4.13,0,0,1-1,.731l-1.922-5.2a11.546,11.546,0,0,1,1.2.144,5.154,5.154,0,0,1,1.08.276,2.984,2.984,0,0,1,.845.461,1.646,1.646,0,0,1,.518.713,2.58,2.58,0,0,1,.158.993" transform="translate(26.872 47.701)"/>
          <path id="Path_17764" data-name="Path 17764" d="M120.351,75.248a17.018,17.018,0,0,1-7.724-8.029c-3.559-7.422-1.543-15.818,4.5-18.715a11.057,11.057,0,0,1,9.647.235,17.4,17.4,0,0,1,9.09,19.072,11.179,11.179,0,0,1-5.889,7.73,9.877,9.877,0,0,1-1.888.68,11.331,11.331,0,0,1-7.732-.972m13.908-18.408a16.417,16.417,0,0,0-7.619-7.832,10.765,10.765,0,0,0-9.391-.233c-5.889,2.824-7.838,11.041-4.352,18.313a16.694,16.694,0,0,0,7.586,7.889,10.608,10.608,0,0,0,9.356.292,10.876,10.876,0,0,0,5.727-7.529,16.434,16.434,0,0,0-1.307-10.9" transform="translate(24.017 46.122)"/>
          <path id="Path_17765" data-name="Path 17765" d="M134.346,57.2a8.149,8.149,0,0,0-1.772-3.8c-.164-.2-.337-.384-.516-.562a8.235,8.235,0,0,0-2.27-1.592c-.2-.1-.416-.187-.633-.268a8.012,8.012,0,0,0-1.833-.445,7.709,7.709,0,0,0-1.005-.063,7.8,7.8,0,0,0-.94.055,8.16,8.16,0,0,0-7.209,8.1l0,12.255,6.957,0h0l9.346,0,0-12.255a8.265,8.265,0,0,0-.124-1.421M120.719,68.328l0-9.7v-.106a5.6,5.6,0,0,1,5.6-5.495,5.422,5.422,0,0,1,1,.091,5.148,5.148,0,0,1,.522.12,5.67,5.67,0,0,1,.652.229,5.494,5.494,0,0,1,1.224.713,5.585,5.585,0,0,1,.991.974,5.87,5.87,0,0,1,.455.668,5.574,5.574,0,0,1,.755,2.8l0,9.7Z" transform="translate(31.102 49)"/>
          <path id="Path_17766" data-name="Path 17766" d="M138.423,58.468l0,13.867a1.992,1.992,0,0,1-1.991,1.994l-17.613,0a1.981,1.981,0,0,1-.794-.164,2.3,2.3,0,0,1-.219-.112.661.661,0,0,1-.069-.043,1.373,1.373,0,0,1-.144-.1c-.034-.026-.065-.053-.1-.081l-.02-.018c-.03-.026-.057-.053-.083-.079s-.055-.057-.081-.087l-.049-.059-.037-.049a.5.5,0,0,1-.049-.069c-.034-.047-.063-.095-.093-.146s-.045-.083-.067-.126c-.01-.02-.018-.043-.03-.065-.028-.067-.053-.134-.075-.2-.014-.045-.028-.093-.037-.142-.006-.024-.012-.047-.016-.071q-.015-.074-.024-.148c-.006-.077-.012-.152-.012-.227l0-13.869a1.992,1.992,0,0,1,1.995-1.991l17.613-.006a1.992,1.992,0,0,1,1.993,1.993" transform="translate(29.797 54.828)" fill="#aab6c2"/>
          <path id="Path_17767" data-name="Path 17767" d="M123.068,66.883a.8.8,0,0,1-.8-.8V62.319l-.114-.083a1.686,1.686,0,1,1,1.847.075l-.132.081v3.691a.8.8,0,0,1-.8.8" transform="translate(34.289 57.459)" fill="#fff"/>
          <path id="Path_17768" data-name="Path 17768" d="M123.27,59.6A1.409,1.409,0,0,1,124.677,61a1.394,1.394,0,0,1-.684,1.206l-.268.16,0,.313v3.536a.523.523,0,0,1-1.047,0V62.313l-.231-.166a1.408,1.408,0,0,1-.587-1.141A1.41,1.41,0,0,1,123.27,59.6m0-.552h0a1.958,1.958,0,0,0-1.143,3.549l0,3.624a1.075,1.075,0,1,0,2.15,0V62.683a1.958,1.958,0,0,0-1.009-3.638" transform="translate(34.153 57.324)"/>
          <path id="Path_17769" data-name="Path 17769" d="M122.772,66.219V62.6a1.957,1.957,0,0,1,.82-3.522,1.957,1.957,0,0,0-1.464,3.522v3.624a1.075,1.075,0,0,0,1.076,1.074,1.036,1.036,0,0,0,.323-.049,1.082,1.082,0,0,1-.755-1.027" transform="translate(34.154 57.324)"/>
          <g id="Group_10081" data-name="Group 10081" transform="translate(146.624 111.305)" opacity="0.15">
            <g id="Group_10080" data-name="Group 10080">
              <g id="Group_10079" data-name="Group 10079" clip-path="url(#clip-path-16)">
                <path id="Path_17770" data-name="Path 17770" d="M128.689,56.476l-3.51,6.023-1.488,2.554-5.311,9.115h-.353a2,2,0,0,1-1.2-1.829V69.9l2.822-4.842,2.375-4.074,2.625-4.5Z" transform="translate(-116.825 -56.476)" fill="#fff"/>
              </g>
            </g>
          </g>
          <g id="Group_10084" data-name="Group 10084" transform="translate(150.509 119.699)" opacity="0.25">
            <g id="Group_10083" data-name="Group 10083">
              <g id="Group_10082" data-name="Group 10082" clip-path="url(#clip-path-17)">
                <path id="Path_17771" data-name="Path 17771" d="M124.567,60.956a2.122,2.122,0,0,1-.258-.221l-.1.181L118.8,70.2l1.559,0,4.212-7.227Z" transform="translate(-118.796 -60.735)" fill="#fff"/>
              </g>
            </g>
          </g>
          <g id="Group_10087" data-name="Group 10087" transform="translate(157.925 111.303)" opacity="0.15">
            <g id="Group_10086" data-name="Group 10086">
              <g id="Group_10085" data-name="Group 10085" clip-path="url(#clip-path-18)">
                <path id="Path_17772" data-name="Path 17772" d="M123.667,62.382l3.443-5.907h-1.561l-2.99,5.13a1.962,1.962,0,0,1,1.108.777" transform="translate(-122.559 -56.475)" fill="#fff"/>
              </g>
            </g>
          </g>
          <g id="Group_10090" data-name="Group 10090" transform="translate(154.567 99.474)" opacity="0.15">
            <g id="Group_10089" data-name="Group 10089">
              <g id="Group_10088" data-name="Group 10088" clip-path="url(#clip-path-19)">
                <path id="Path_17773" data-name="Path 17773" d="M126.545,50.981l-1.313,2.253a5.6,5.6,0,0,0-4.377.572l1.912-3.279a8.246,8.246,0,0,1,.94-.053,8.123,8.123,0,0,1,2.838.508" transform="translate(-120.855 -50.473)" fill="#fff"/>
              </g>
            </g>
          </g>
          <g id="Group_10093" data-name="Group 10093" transform="translate(160.82 100.962)" opacity="0.15">
            <g id="Group_10092" data-name="Group 10092">
              <g id="Group_10091" data-name="Group 10091" clip-path="url(#clip-path-20)">
                <path id="Path_17774" data-name="Path 17774" d="M126.366,52.107l-1.346,2.312a5.732,5.732,0,0,0-.991-.976l1.289-2.215a7.837,7.837,0,0,1,1.048.879" transform="translate(-124.027 -51.228)" fill="#fff"/>
              </g>
            </g>
          </g>
          <g id="Group_10145" data-name="Group 10145" transform="matrix(0.966, -0.259, 0.259, 0.966, -22.86, 55.42)">
            <path id="Path_17775" data-name="Path 17775" d="M161.25,78.786c4.856-4.515,6.027-12.909,2.389-20.495-3.615-7.535-10.822-11.866-17.347-10.982l-.252-.532-3.352,1.608c-7.27,3.488-9.683,13.581-5.382,22.541s13.68,13.394,20.95,9.905l3.27-1.468Z" transform="translate(47.613 45.414)"/>
            <path id="Path_17776" data-name="Path 17776" d="M165.338,57.27c4.3,8.959,1.807,19.192-5.465,22.68S143.3,78.865,139,69.905s-1.888-19.05,5.384-22.541,16.652.946,20.95,9.905" transform="translate(49.264 44.828)" fill="#f40"/>
            <path id="Path_17777" data-name="Path 17777" d="M161.641,56.87c3.53,7.359,1.484,15.765-4.49,18.628s-13.611-.891-17.14-8.25S138.46,51.6,144.434,48.734s13.678.777,17.207,8.136" transform="translate(50.611 46.363)" fill="#f40"/>
            <path id="Path_17778" data-name="Path 17778" d="M155.116,61.231a3.91,3.91,0,0,0-.623-1.121,3.845,3.845,0,0,0-.875-.784,4.916,4.916,0,0,0-1.074-.507,8.548,8.548,0,0,0-1.216-.286,12.06,12.06,0,0,0-1.3-.15c-.447-.032-.891-.057-1.342-.083l-1.995-5.384a3.162,3.162,0,0,1,1.815.164,4.031,4.031,0,0,1,1.521,1.2l1.931-.715a5.59,5.59,0,0,0-1.212-1.5,4.789,4.789,0,0,0-1.456-.873,5.11,5.11,0,0,0-1.616-.319,6.557,6.557,0,0,0-1.679.158l-.637-1.73-1.955.725.643,1.728a6.232,6.232,0,0,0-1.449,1.082,5.379,5.379,0,0,0-1,1.38,4.316,4.316,0,0,0-.451,1.571,3.487,3.487,0,0,0-.018.38,3.828,3.828,0,0,0,.244,1.259,3.941,3.941,0,0,0,.244.546,3.282,3.282,0,0,0,.706.93,4.273,4.273,0,0,0,1.386.859,7.05,7.05,0,0,0,.763.25c.13.032.266.061.4.091s.29.055.438.075l.077.014c.6.077,1.216.138,1.841.181l1.677,4.529.075.2,0,.006.071.189.343.928a3.252,3.252,0,0,1-1.074-.136,3.319,3.319,0,0,1-.723-.305,2.327,2.327,0,0,1-.225-.134l-.008,0c-.016-.01-.034-.026-.049-.034-.049-.034-.1-.075-.152-.114a4.842,4.842,0,0,1-.741-.664,5.534,5.534,0,0,1-.753-1.033l-2.056.759a7.536,7.536,0,0,0,1.129,1.541.14.14,0,0,0,.039.043c.03.037.065.069.095.1l.01.012a.269.269,0,0,1,.047.047.79.79,0,0,0,.114.1.277.277,0,0,0,.047.049,6.676,6.676,0,0,0,1.362.993c.128.073.26.136.392.2a1.164,1.164,0,0,0,.221.095,1.9,1.9,0,0,0,.221.095,5.644,5.644,0,0,0,.952.278,5.433,5.433,0,0,0,1.872.059l1.015,2.743,1.949-.721-.993-2.7a7.865,7.865,0,0,0,1.555-1.033,5.376,5.376,0,0,0,1.19-1.423,4.459,4.459,0,0,0,.576-1.76,4.333,4.333,0,0,0-.294-2.054m-11.738-4.62a2.051,2.051,0,0,1,.049-1.589,2.965,2.965,0,0,1,1.324-1.36l1.7,4.616a9.559,9.559,0,0,1-1.054-.162,3.957,3.957,0,0,1-.889-.3,2.6,2.6,0,0,1-.686-.487,1.966,1.966,0,0,1-.445-.719m9.894,6.411a2.6,2.6,0,0,1-.25.978,3.379,3.379,0,0,1-.629.9,4.129,4.129,0,0,1-1,.731l-1.922-5.2a11.541,11.541,0,0,1,1.2.144,5.153,5.153,0,0,1,1.08.276,2.985,2.985,0,0,1,.846.461,1.646,1.646,0,0,1,.518.713,2.58,2.58,0,0,1,.158.993" transform="translate(53.395 47.866)"/>
            <path id="Path_17779" data-name="Path 17779" d="M147.671,75.418a17,17,0,0,1-7.724-8.029c-3.559-7.422-1.545-15.818,4.493-18.715a11.057,11.057,0,0,1,9.647.235,17.4,17.4,0,0,1,9.09,19.072,11.173,11.173,0,0,1-5.889,7.73,9.829,9.829,0,0,1-1.888.68,11.315,11.315,0,0,1-7.73-.972m13.906-18.408a16.421,16.421,0,0,0-7.617-7.832,10.765,10.765,0,0,0-9.391-.233c-5.889,2.824-7.84,11.041-4.352,18.313a16.685,16.685,0,0,0,7.586,7.889,10.608,10.608,0,0,0,9.356.292,10.876,10.876,0,0,0,5.727-7.529,16.423,16.423,0,0,0-1.309-10.9" transform="translate(50.541 46.287)"/>
          </g>
          <g id="Group_10146" data-name="Group 10146" transform="matrix(0.978, 0.208, -0.208, 0.978, 34.69, -39.143)">
            <path id="Path_17775-2" data-name="Path 17775" d="M161.25,78.786c4.856-4.515,6.027-12.909,2.389-20.495-3.615-7.535-10.822-11.866-17.347-10.982l-.252-.532-3.352,1.608c-7.27,3.488-9.683,13.581-5.382,22.541s13.68,13.394,20.95,9.905l3.27-1.468Z" transform="translate(47.613 45.414)"/>
            <path id="Path_17776-2" data-name="Path 17776" d="M165.338,57.27c4.3,8.959,1.807,19.192-5.465,22.68S143.3,78.865,139,69.905s-1.888-19.05,5.384-22.541,16.652.946,20.95,9.905" transform="translate(49.264 44.828)" fill="#f40"/>
            <path id="Path_17777-2" data-name="Path 17777" d="M161.641,56.87c3.53,7.359,1.484,15.765-4.49,18.628s-13.611-.891-17.14-8.25S138.46,51.6,144.434,48.734s13.678.777,17.207,8.136" transform="translate(50.611 46.363)" fill="#f40"/>
            <path id="Path_17778-2" data-name="Path 17778" d="M155.116,61.231a3.91,3.91,0,0,0-.623-1.121,3.845,3.845,0,0,0-.875-.784,4.916,4.916,0,0,0-1.074-.507,8.548,8.548,0,0,0-1.216-.286,12.06,12.06,0,0,0-1.3-.15c-.447-.032-.891-.057-1.342-.083l-1.995-5.384a3.162,3.162,0,0,1,1.815.164,4.031,4.031,0,0,1,1.521,1.2l1.931-.715a5.59,5.59,0,0,0-1.212-1.5,4.789,4.789,0,0,0-1.456-.873,5.11,5.11,0,0,0-1.616-.319,6.557,6.557,0,0,0-1.679.158l-.637-1.73-1.955.725.643,1.728a6.232,6.232,0,0,0-1.449,1.082,5.379,5.379,0,0,0-1,1.38,4.316,4.316,0,0,0-.451,1.571,3.487,3.487,0,0,0-.018.38,3.828,3.828,0,0,0,.244,1.259,3.941,3.941,0,0,0,.244.546,3.282,3.282,0,0,0,.706.93,4.273,4.273,0,0,0,1.386.859,7.05,7.05,0,0,0,.763.25c.13.032.266.061.4.091s.29.055.438.075l.077.014c.6.077,1.216.138,1.841.181l1.677,4.529.075.2,0,.006.071.189.343.928a3.252,3.252,0,0,1-1.074-.136,3.319,3.319,0,0,1-.723-.305,2.327,2.327,0,0,1-.225-.134l-.008,0c-.016-.01-.034-.026-.049-.034-.049-.034-.1-.075-.152-.114a4.842,4.842,0,0,1-.741-.664,5.534,5.534,0,0,1-.753-1.033l-2.056.759a7.536,7.536,0,0,0,1.129,1.541.14.14,0,0,0,.039.043c.03.037.065.069.095.1l.01.012a.269.269,0,0,1,.047.047.79.79,0,0,0,.114.1.277.277,0,0,0,.047.049,6.676,6.676,0,0,0,1.362.993c.128.073.26.136.392.2a1.164,1.164,0,0,0,.221.095,1.9,1.9,0,0,0,.221.095,5.644,5.644,0,0,0,.952.278,5.433,5.433,0,0,0,1.872.059l1.015,2.743,1.949-.721-.993-2.7a7.865,7.865,0,0,0,1.555-1.033,5.376,5.376,0,0,0,1.19-1.423,4.459,4.459,0,0,0,.576-1.76,4.333,4.333,0,0,0-.294-2.054m-11.738-4.62a2.051,2.051,0,0,1,.049-1.589,2.965,2.965,0,0,1,1.324-1.36l1.7,4.616a9.559,9.559,0,0,1-1.054-.162,3.957,3.957,0,0,1-.889-.3,2.6,2.6,0,0,1-.686-.487,1.966,1.966,0,0,1-.445-.719m9.894,6.411a2.6,2.6,0,0,1-.25.978,3.379,3.379,0,0,1-.629.9,4.129,4.129,0,0,1-1,.731l-1.922-5.2a11.541,11.541,0,0,1,1.2.144,5.153,5.153,0,0,1,1.08.276,2.985,2.985,0,0,1,.846.461,1.646,1.646,0,0,1,.518.713,2.58,2.58,0,0,1,.158.993" transform="translate(53.395 47.866)"/>
            <path id="Path_17779-2" data-name="Path 17779" d="M147.671,75.418a17,17,0,0,1-7.724-8.029c-3.559-7.422-1.545-15.818,4.493-18.715a11.057,11.057,0,0,1,9.647.235,17.4,17.4,0,0,1,9.09,19.072,11.173,11.173,0,0,1-5.889,7.73,9.829,9.829,0,0,1-1.888.68,11.315,11.315,0,0,1-7.73-.972m13.906-18.408a16.421,16.421,0,0,0-7.617-7.832,10.765,10.765,0,0,0-9.391-.233c-5.889,2.824-7.84,11.041-4.352,18.313a16.685,16.685,0,0,0,7.586,7.889,10.608,10.608,0,0,0,9.356.292,10.876,10.876,0,0,0,5.727-7.529,16.423,16.423,0,0,0-1.309-10.9" transform="translate(50.541 46.287)"/>
          </g>
          <path id="Path_17826" data-name="Path 17826" d="M169.14,84.612l2.192,1.5,2.125,2.925s-.761.1-1.458,2.026-4.791-.116-4.854-1.594,2-4.852,2-4.852" transform="translate(78.65 82.145)" fill="#fff"/>
          <path id="Path_17827" data-name="Path 17827" d="M85.83,96.129a10.2,10.2,0,0,1-7.82-4.176v-9.8l8.583,3.557v6.725l.041.1c.471,1.041.985,2.769.658,3.354a.313.313,0,0,1-.272.166,9.236,9.236,0,0,1-1.19.079" transform="translate(-7.884 79.757)" fill="#fff"/>
          <path id="Path_17828" data-name="Path 17828" d="M78.744,83.254l7.6,3.147v6.5l.087.193a6.545,6.545,0,0,1,.7,2.838A8.735,8.735,0,0,1,86.074,96a9.7,9.7,0,0,1-7.33-3.849Zm-.985-1.476V92.472s2.98,4.513,8.315,4.513a9.537,9.537,0,0,0,1.253-.083c1.8-.233,0-4.212,0-4.212V85.743Z" transform="translate(-8.128 79.394)"/>
          <path id="Path_17829" data-name="Path 17829" d="M86.87,94.016a8.316,8.316,0,0,1-5.757-2.538c-6.025-5.69-5.254-14.166-5-16.021l15.032-1.214a47.7,47.7,0,0,1,3.624,12.286,6.112,6.112,0,0,1-1.754,4.541,8.387,8.387,0,0,1-6.143,2.946" transform="translate(-9.896 72.078)" fill="#fff"/>
          <path id="Path_17830" data-name="Path 17830" d="M91.082,75.016a46.893,46.893,0,0,1,3.445,11.833A5.7,5.7,0,0,1,92.889,91a7.349,7.349,0,0,1-11.19.376c-5.5-5.2-5.162-12.828-4.9-15.205Zm.611-1.037L75.932,75.252s-1.959,10.181,5.089,16.839a8.809,8.809,0,0,0,6.1,2.672c4.866,0,8.829-4.675,8.386-8.043a47.926,47.926,0,0,0-3.812-12.742" transform="translate(-10.144 71.822)"/>
          <path id="Path_17831" data-name="Path 17831" d="M75.155,81.432c-.049-.045-.087-.319-.207-.625a4.882,4.882,0,0,1,1-4.97,1.281,1.281,0,0,1,1.74-.15.3.3,0,0,1,.057-.014c2.006-.152,12.513,1.679,12.789,3.017.461,2.247,2.166,7.294.235,8.77-4.519,3.453-11.425,2.2-13.033,1.726-1.939-.57-1.87-2.944-2.531-4.427a3.424,3.424,0,0,1-.439-2.5,4.328,4.328,0,0,1,.388-.826" transform="translate(-11.15 73.218)"/>
          <path id="Path_17832" data-name="Path 17832" d="M75.855,81.9c2.129,4.651,10.491,2.479,13.455,1.037,2.018-.985.38-2.822,2.548-3.989a1.108,1.108,0,0,0,1.754.394c1.713-1.5,3.743-4.068,1.819-6.293-1.494-1.73-3.579-1-5.235.047-5.633-4.267-17.948.924-14.342,8.8" transform="translate(-10.607 69.474)"/>
          <path id="Path_17833" data-name="Path 17833" d="M52,232.471a19.489,19.489,0,0,1-7.487-2.574c-.668-.654-.463-6.963-.067-9.574a25.513,25.513,0,0,1,6.33-.725c2.418,0,2.777.382,2.779.386.418.575.171,4.257-.733,10.944-.087.643-.154,1.133-.181,1.4C52.628,232.384,52.421,232.471,52,232.471Z" transform="translate(-40.831 213.195)" fill="#fff"/>
          <path id="Path_17834" data-name="Path 17834" d="M51.015,220.332a7.639,7.639,0,0,1,2.387.238c.268.95-.008,4.488-.826,10.528-.063.453-.114.836-.15,1.114a1.613,1.613,0,0,1-.185.008c-2.006,0-6.537-1.872-7.1-2.381-.542-.881-.351-6.338-.012-8.9a28.776,28.776,0,0,1,5.885-.609m0-.985c-2.907,0-6.719.552-6.786.958-.319,1.91-.81,9.22.179,10.187a19.462,19.462,0,0,0,7.832,2.714c.652,0,1.084-.168,1.129-.585.173-1.6,1.734-11.545.81-12.7-.333-.416-1.622-.572-3.165-.572" transform="translate(-41.075 212.952)"/>
          <path id="Path_17835" data-name="Path 17835" d="M43.814,309.046l12.255,1.32c6.4-21.147,23.487-57.275,26-79.453,3.9-34.445,8.609-71.327,8.82-80.4.022-1.456.047-2.231.047-2.231-8.437-10.268-22.732-14.452-29.1-15.205-2.515-.305-4.348.189-5.146,1.506a95.461,95.461,0,0,0-6.181,12.073c-10.266,24.387-1.622,39.121-1.807,70.84,0,1.833-.026,3.713-.071,5.568-.331,13.11,3.209,29.257-.562,42.953-7.393,26.865-4.259,43.027-4.259,43.027" transform="translate(-41.724 129.114)"/>
          <path id="Path_17836" data-name="Path 17836" d="M56.882,256.983c5.508-14.722,10.579-29.651,11.861-40.954,2.743-24.23,5.883-49.652,7.582-65.763l-10.436-1.941A135.33,135.33,0,0,0,66.6,172.11c1.577,14.695-6.165,75.5-9.718,84.869l0,0" transform="translate(-28.396 144)"/>
          <path id="Path_17837" data-name="Path 17837" d="M45.029,223.87s-4.793,6.853-1.366,12.237c0,0,24.963,1.175,32.5,0,0,0,.193-9.2-6.265-9.986s-14.748-1.133-14.748-1.133-5.432,3.973-10.122-1.117" transform="translate(-42.428 217.343)"/>
          <path id="Path_17838" data-name="Path 17838" d="M79.709,231.648c-2.789,0-7.245-1.234-7.761-1.736-.664-.652-.461-6.939-.067-9.561a34.335,34.335,0,0,1,7.5-.769c2.682,0,3.076.367,3.092.38.564.749-.5,6.933-.907,9.261-.168.974-.3,1.738-.341,2.113-.006.061-.3.311-1.518.311Z" transform="translate(-14.189 213.18)" fill="#fff"/>
          <path id="Path_17839" data-name="Path 17839" d="M79.629,220.317a9.465,9.465,0,0,1,2.7.24c.309,1.271-.633,6.721-1,8.822-.144.838-.256,1.486-.315,1.908a3.717,3.717,0,0,1-1.058.11,22.773,22.773,0,0,1-7.373-1.543c-.538-.879-.351-6.307-.012-8.877a38.138,38.138,0,0,1,7.058-.66m0-.985c-3.354,0-7.889.576-7.958.987-.317,1.91-.81,9.22.179,10.187.678.662,5.353,1.876,8.106,1.876,1.139,0,1.949-.207,2.008-.751.177-1.6,2.063-10.581,1.137-11.738-.325-.408-1.742-.562-3.473-.562" transform="translate(-14.434 212.937)"/>
          <path id="Path_17840" data-name="Path 17840" d="M72.471,223.87s-4.793,6.853-1.364,12.237c0,0,24.963,1.175,32.5,0,0,0,.2-9.2-6.265-9.986a118.581,118.581,0,0,0-13.741-.672s-6.437,3.512-11.129-1.579" transform="translate(-15.786 217.343)"/>
          <path id="Path_17841" data-name="Path 17841" d="M79.807,226.984c1.175,14.685,1.817,32.7.644,47.385-.071.987-.071,35.1-.071,35.1l13.8,1.319c7.515-22.42,21.865-72.7,21.865-95.016s-1.927-59.514-10.128-77.159c-7.8-16.778-38.818,6.186-42.184,10.507-5.2,6.681-3.12,27.645,3.821,37.621,7.99,11.488,11.62,32.349,12.253,40.245" transform="translate(-24.569 128.693)"/>
          <path id="Path_17842" data-name="Path 17842" d="M71.48,167.23s-.538-.739-.715-.1-9.586-.926-9.586-.926l-9.509-11.194,1.214-15.58h28.5L85.3,153.357l-7.432,10.755Z" transform="translate(-33.457 135.364)"/>
          <path id="Path_17843" data-name="Path 17843" d="M130.312,215.769c0-22.32-1.927-59.512-10.128-77.159-6.1-13.126-26.419-1.924-36.583,5.643A51.338,51.338,0,0,0,58.951,133.5c-2.513-.305-4.348.187-5.146,1.5a95.581,95.581,0,0,0-6.179,12.075c-.556,1.322-1.048,2.613-1.5,3.883.073.035,27.817,10.4,56.045,4.728,28.059-5.643,25.379,84.541,22.2,98.471,3.445-14.957,5.936-29.1,5.936-38.392" transform="translate(-38.836 128.693)"/>
          <path id="Path_17844" data-name="Path 17844" d="M80.46,134.122c-1.07,0-2.765-1.6-4.127-2.877a11.671,11.671,0,0,0-2.572-2.073,5.541,5.541,0,0,0-1.4-.359c-.806-.13-1.25-.2-1.531-.989a3.01,3.01,0,0,1,.508-2.637,12.582,12.582,0,0,1,6.285-4.618,16.915,16.915,0,0,1,1.774-.091c3.715,0,8.774,1.214,10.8,4.635.434.729.42,1.147.345,1.281q-.059.1-.266.1a2.255,2.255,0,0,1-1.173-.489,11.1,11.1,0,0,0-4.076-2.044h-.372l-.233.416c-.1.339-.2.721,2.972,2.7a5.916,5.916,0,0,1,2.207,2.438.485.485,0,0,1-.546.416c-.981,0-2.623-1.11-3.823-1.922-.374-.254-.717-.485-1.007-.664l-.106-.063-.136-.008c-.627,0-.826.268-.9.428-.278.6.319,1.342,1.393,2.6a8.014,8.014,0,0,1,1.043,1.376c.185.69.065.857.063.859h-.032c-.913,0-2.552-.991-3.638-1.65s-1.59-.952-1.943-.952h-.116l-.158.063a.953.953,0,0,0-.55.67c-.14.648.426,1.334,1.025,2.06.3.363.853,1.037.838,1.261h0a1.407,1.407,0,0,1-.418.116Z" transform="translate(-14.975 116.965)" fill="#fff"/>
          <path id="Path_17845" data-name="Path 17845" d="M79.646,121.213c3.585,0,8.453,1.151,10.375,4.4a2.675,2.675,0,0,1,.274.591,2.557,2.557,0,0,1-.66-.353c-1.5-1.06-3.473-2.134-4.36-2.134a1.08,1.08,0,0,0-1.078.773c-.229.8.219,1.407,3.185,3.256a6.513,6.513,0,0,1,1.918,1.943c-.832,0-2.529-1.151-3.544-1.837-.382-.258-.731-.495-1.027-.676l-.207-.128-.242-.014-.12-.006h-.033a1.275,1.275,0,0,0-1.244.717c-.422.914.369,1.843,1.464,3.13a11.9,11.9,0,0,1,.944,1.182c.02.075.035.142.047.2a17.653,17.653,0,0,1-2.925-1.537c-1.255-.759-1.715-1.023-2.2-1.023l-.286.01-.207.1a1.473,1.473,0,0,0-.816,1.009c-.187.879.451,1.654,1.127,2.475.126.154.3.359.439.55-.926-.231-2.5-1.709-3.563-2.714a11.8,11.8,0,0,0-2.714-2.166,6.29,6.29,0,0,0-1.514-.394c-.84-.134-.972-.185-1.143-.666A2.559,2.559,0,0,1,72,125.689a12.171,12.171,0,0,1,5.918-4.387,16.2,16.2,0,0,1,1.724-.089m0-.985a17.4,17.4,0,0,0-1.829.095c-1.8.193-8.463,4.377-7.2,7.909.564,1.583,1.864,1.06,3.193,1.634,1.569.68,4.819,4.992,6.9,4.992a1.419,1.419,0,0,0,.207-.016c2.749-.416-2.29-3.382-.745-4.155a.134.134,0,0,1,.053-.01c.593,0,4,2.625,5.469,2.625.572,0,.851-.4.556-1.5-.235-.879-3.585-3.792-2.117-3.792.028,0,.057,0,.087,0,1.287.79,3.636,2.659,5.091,2.659a1.065,1.065,0,0,0,.972-.507c.485-.775-1.334-2.615-2.373-3.26-2.485-1.547-3.065-2.205-2.627-2.205a11.035,11.035,0,0,1,3.788,1.953,2.694,2.694,0,0,0,1.458.579c.818,0,1.137-.792.347-2.125-2.1-3.546-7.144-4.878-11.222-4.878" transform="translate(-15.218 116.723)"/>
          <path id="Path_17846" data-name="Path 17846" d="M75.135,121.822c-.406,0-.832-.022-1.206-.049,3-2.127,4.428-2.629,5.106-2.659l.012,0c.6,0,.96.171,1.013.288.02.039-.016.171-.185.372a4.624,4.624,0,0,1-2,1.141,8.257,8.257,0,0,0-.954.424,5.59,5.59,0,0,1-1.037.436,3.362,3.362,0,0,1-.745.049" transform="translate(-11.846 115.639)" fill="#fff"/>
          <path id="Path_17847" data-name="Path 17847" d="M79.745,119.847a1.657,1.657,0,0,1,.207.012,5.129,5.129,0,0,1-1.628.832,8.724,8.724,0,0,0-1.009.447,5.372,5.372,0,0,1-.94.4,2.234,2.234,0,0,1-.3.028c2.172-1.421,3.167-1.7,3.6-1.719Zm0-.985c-.039,0-.079,0-.116,0-1.724.077-4.994,2.458-6.324,3.441a8,8,0,0,0,2.444.254,4.043,4.043,0,0,0,.873-.067c.686-.179,1.346-.633,2.028-.871a5.236,5.236,0,0,0,2.217-1.289c.836-.989-.2-1.47-1.121-1.47" transform="translate(-12.461 115.397)"/>
          <path id="Path_17848" data-name="Path 17848" d="M91.481,161.54c-9.687,0-28.764-2.5-38.956-7.881-5.983-3.155-8.565-8.967-7.893-17.769A42.594,42.594,0,0,1,51.376,116.3a58.461,58.461,0,0,1,5.144-7.121,27.58,27.58,0,0,1,3.814-3.581c.447-.337.9-.672,1.372-1.007a1.731,1.731,0,0,0,.254-.177c13.764-9.671,18.96-12.17,29.393-16.9a8.175,8.175,0,0,1,3.386-.733,8.04,8.04,0,0,1,8.114,7.251,28.24,28.24,0,0,1-2.58,14.632,27.365,27.365,0,0,1-12.891,12.9c-2.395,1.173-4.758,2.393-6.831,3.528l-.175.093c-.246.128-.479.25-.715.386-6.589,3.662-9.88,15.844-9.913,15.966-.581,2.2.871,4.182,4.318,5.895,8.084,4.044,24.949,5.731,28.761,6.068l-4,7.466c-.564.077-2.073.276-4.235.469-.877.075-1.924.112-3.112.112" transform="translate(-40.39 84.25)" fill="#fff"/>
          <path id="Path_17849" data-name="Path 17849" d="M94.983,87.516h0a7.549,7.549,0,0,1,7.621,6.8,27.756,27.756,0,0,1-2.538,14.383,26.869,26.869,0,0,1-12.657,12.655c-2.4,1.177-4.775,2.4-6.841,3.532l-.187.1c-.25.13-.487.254-.71.384-6.784,3.768-10.126,16.151-10.158,16.275-.65,2.456.889,4.63,4.57,6.46,7.718,3.859,23.282,5.587,28.2,6.05l-3.528,6.587c-.688.093-2.075.264-3.961.434-.863.075-1.9.112-3.073.112-9.633,0-28.6-2.487-38.725-7.826-5.79-3.053-8.285-8.711-7.631-17.294a42.111,42.111,0,0,1,6.669-19.366,58.079,58.079,0,0,1,5.1-7.065,26.944,26.944,0,0,1,3.731-3.5c.447-.337.895-.672,1.315-.97l.016,0,.071-.063a1.542,1.542,0,0,0,.2-.136C76.219,95.408,81.4,92.917,91.8,88.206a7.689,7.689,0,0,1,3.185-.69m0-.985a8.671,8.671,0,0,0-3.589.778c-10.3,4.663-15.581,7.18-29.521,16.981-.065.057-.116.065-.181.122l-.028.016c-.475.337-.93.678-1.387,1.021a27.633,27.633,0,0,0-3.877,3.64,60.721,60.721,0,0,0-5.193,7.184A42.949,42.949,0,0,0,44.384,136.1c-.607,7.962,1.315,14.635,8.153,18.24,10.14,5.349,29.289,7.941,39.184,7.941,1.2,0,2.263-.039,3.157-.114,2.812-.252,4.507-.508,4.507-.508l4.47-8.347s-20.357-1.592-29.33-6.082c-2.921-1.451-4.62-3.211-4.06-5.325.467-1.77,3.816-12.406,9.685-15.666.286-.166.57-.309.877-.473,2.332-1.277,4.722-2.493,6.815-3.518a27.772,27.772,0,0,0,13.12-13.13,28.746,28.746,0,0,0,2.623-14.884,8.573,8.573,0,0,0-8.6-7.7" transform="translate(-40.632 84.008)"/>
          <path id="Path_17850" data-name="Path 17850" d="M72.374,130.524c2.416-1.336,17.7-10.018,22.682-21.348,2.268-5.156,4.034-18.577-2.251-21.9-10.067-5.319-28.514,6.458-41.51,15.6,1.831,11.435,9.89,21.224,21.078,27.653" transform="translate(-33.819 83.442)" fill="#f40"/>
          <path id="Path_17851" data-name="Path 17851" d="M62.29,96.523a75.746,75.746,0,0,0-9.243,6.273,58.992,58.992,0,0,0,4.214,6.516c2.339,3.078,6.9-10.038,6.9-10.038Z" transform="translate(-32.119 93.709)"/>
          <path id="Path_17852" data-name="Path 17852" d="M128.436,134.443c-2.891,5.873-5.593,11.206-6.721,14.756-3.55,11.23,6.244,29.576,4.527,37.941-1.575,1.928-24.188,11.427-41.216,12.042-22.17.8-40.373-4.911-40.584-8.153-.189-2.96,10.335-43.9,16.137-60.251,6.439-18.161,15.367-35.737,20.442-40.929a9.848,9.848,0,0,1,1.129-.985,15.621,15.621,0,0,1,6.79-2.375c16.094-2.607,41.041,4.612,50.881,13.252,2.129,8.232-5.138,22.038-11.386,34.7" transform="translate(-40.476 83.442)" fill="#f40"/>
          <path id="Path_17853" data-name="Path 17853" d="M90.066,128.262s-9.732-13.93-8.13-27.838,13.352,17.19,13.352,17.19l-2.454,4.976s-.8,1.654-2.769,5.672" transform="translate(-4.245 94.02)"/>
          <path id="Path_17854" data-name="Path 17854" d="M125.641,143.247a42.406,42.406,0,0,1-11.064-1.454c-.688-.177-1.391-.374-2.046-.591-1.116-.372-2.152-.747-3.173-1.151-1.476-.633-2.751-1.236-3.912-1.851-.152-.095-.272-.16-.386-.219l-.219-.118c-5.51-3.019-8.136-5.239-10.394-8.792a33.01,33.01,0,0,1-3.4-6.683c-.29-.607-7.56-16.173-4.458-21.062a3.337,3.337,0,0,1,3.025-1.531c8.963.083,12.789,2.132,24.038,10.172l.2.152c.39.248.82.558,1.246.865,0,0,1.441,1.011,1.63,1.149,4.886,3.526,9.943,7.176,11.11,7.28,1.21-.609,5.95-12.966,8.782-20.349,3.132-8.163,3.985-10.264,4.466-10.609.134-.091,3.01-2.006,5.173-2.006A2.248,2.248,0,0,1,148.4,87.61c3.4,6.36,2.085,33.954-3.291,46.719-1.663,3.95-3.607,6.269-5.779,6.9a49.432,49.432,0,0,1-13.686,2.018" transform="translate(-0.304 83.927)" fill="#fff"/>
          <path id="Path_17855" data-name="Path 17855" d="M146.5,87.182a1.787,1.787,0,0,1,1.707.9c4.08,7.629,1.218,50.014-8.772,52.913a48.773,48.773,0,0,1-13.55,2,41.652,41.652,0,0,1-10.934-1.439c-.684-.175-1.376-.369-2.022-.583-1.1-.369-2.132-.741-3.145-1.141-1.382-.591-2.667-1.192-3.863-1.827-.2-.126-.4-.225-.591-.331-5.264-2.881-7.915-5-10.223-8.626a32.741,32.741,0,0,1-3.35-6.577s-10.337-21.945-1.9-21.945h.039c8.613.081,12.194,1.849,23.713,10.081.039.035.1.065.134.1.652.434,1.234.867,1.835,1.293.369.264.759.522,1.1.769,5.743,4.145,10.1,7.261,11.354,7.375l.016,0c2.168,0,12.444-30.249,13.565-31.051,0,0,2.848-1.914,4.888-1.914m0-.985h0c-2.274,0-5.122,1.868-5.438,2.081-.6.432-1.21,1.849-4.663,10.85-2.647,6.9-7.018,18.3-8.544,19.984-1.372-.479-6.466-4.157-10.6-7.14-.187-.138-.394-.28-.605-.426-.166-.112-.333-.229-.5-.345l-.524-.376c-.408-.294-.818-.587-1.257-.883l0,0-.152-.106C102.827,101.7,98.96,99.626,89.9,99.542a3.86,3.86,0,0,0-3.49,1.76c-3.161,4.986,3.536,19.641,4.426,21.541a33.935,33.935,0,0,0,3.437,6.74c2.306,3.628,4.976,5.891,10.578,8.957l.221.12a3.261,3.261,0,0,1,.307.173c1.242.66,2.529,1.269,4.011,1.906,1.039.41,2.083.788,3.22,1.171.621.2,1.322.406,2.091.6a42.855,42.855,0,0,0,11.179,1.468,49.946,49.946,0,0,0,13.822-2.038c2.322-.674,4.373-3.09,6.1-7.182,5.418-12.862,6.715-40.708,3.274-47.143A2.77,2.77,0,0,0,146.5,86.2" transform="translate(-0.545 83.684)"/>
          <path id="Path_17856" data-name="Path 17856" d="M122.93,107.238a15.112,15.112,0,0,1,.349,4.969,3.807,3.807,0,0,1-2.7,3.035,9.172,9.172,0,0,1-5.723-1c-18.652-9.054-20.126-18.516-19.7-18.991.654.434,10.566,7.538,11.167,7.964.369.264.759.522,1.1.769,5.743,4.145,10.091,7.345,11.354,7.375,1.22.028,3.492-8,4.153-4.119" transform="translate(8.707 92.472)"/>
          <path id="Path_17857" data-name="Path 17857" d="M120.534,99.219a5.675,5.675,0,0,1-3.6-1.429,2.245,2.245,0,0,1-1.35.769.8.8,0,0,1-.621-.29c-.948-1.129-2.921-6.825-2.986-7.211a4.631,4.631,0,0,1,1.449-3.865,1.5,1.5,0,0,1,1.145-.554,1.723,1.723,0,0,1,1.439.857,1.69,1.69,0,0,1,.223.56,19.815,19.815,0,0,1,5.093-6.194c2.838-2.341,4.819-3.479,6.056-3.479a1.575,1.575,0,0,1,1.61,1.141,1.945,1.945,0,0,1-1.1,2.085,18.591,18.591,0,0,0-3.685,3,2.177,2.177,0,0,1,1.567,1.08,3.264,3.264,0,0,1,.477,2.229,1.4,1.4,0,0,1,.652.668,3.138,3.138,0,0,1-.132,2.657,1.563,1.563,0,0,1,.487.694c.4,1.017.217,2.8-1.6,4.472-1.723,1.791-2.491,2.371-4.214,2.716a4.7,4.7,0,0,1-.912.091" transform="translate(25.041 76.098)" fill="#fff"/>
          <path id="Path_17858" data-name="Path 17858" d="M127.621,79.118c.026,0,.049,0,.073,0,1.317.065,1.506,1.549.2,2.3a16.544,16.544,0,0,0-4.9,4.513,1.863,1.863,0,0,1,1.263-.6c1.322,0,2.176,2.034,1.6,3.252a.708.708,0,0,1,.189-.028c.845,0,1.307,1.788.168,3.293a.371.371,0,0,1,.225-.079c.735,0,1.537,2.3-.869,4.515-1.711,1.78-2.408,2.284-3.975,2.6a4.149,4.149,0,0,1-.816.081,5.388,5.388,0,0,1-3.618-1.61c-.422.424-.966.95-1.334.95a.3.3,0,0,1-.242-.114c-.881-1.05-2.836-6.73-2.879-6.975a4.186,4.186,0,0,1,1.336-3.465,1,1,0,0,1,.773-.38,1.251,1.251,0,0,1,1.072,1.776,7.659,7.659,0,0,0-.6,1.431,7.122,7.122,0,0,1,.723.394,16.922,16.922,0,0,1,5.873-8.49c1.246-1.027,4.182-3.366,5.741-3.366m0-.985c-1.356,0-3.439,1.175-6.368,3.591a20.891,20.891,0,0,0-4.764,5.5,2.181,2.181,0,0,0-1.679-.836,1.988,1.988,0,0,0-1.52.725,5.143,5.143,0,0,0-1.561,4.263c.069.4,2.079,6.238,3.1,7.452a1.283,1.283,0,0,0,1,.465,2.171,2.171,0,0,0,1.37-.619,5.972,5.972,0,0,0,3.583,1.279,5.108,5.108,0,0,0,1.009-.1c1.839-.367,2.694-1.009,4.494-2.879,1.955-1.8,2.132-3.808,1.679-4.97a2.281,2.281,0,0,0-.359-.623,3.494,3.494,0,0,0-.014-2.767,1.962,1.962,0,0,0-.572-.706,3.829,3.829,0,0,0-.583-2.237,2.946,2.946,0,0,0-1.072-1.035,17.721,17.721,0,0,1,3.021-2.359,2.456,2.456,0,0,0,1.332-2.627,2.041,2.041,0,0,0-1.971-1.516h-.024Z" transform="translate(24.799 75.855)"/>
          <path id="Path_17859" data-name="Path 17859" d="M82.551,108.972c2.5,6.317,4.559,8.5,4.559,8.5s17.2,17.911,20.9,20.465c11.713-8.563,13.93-23.707,10.378-33.463-10.205-8.843-14.216-12.253-22.507-13.873-5.091-1-17.227,8.546-13.329,18.366" transform="translate(-4.212 87.894)" fill="#f40"/>
          <path id="Path_17860" data-name="Path 17860" d="M113.678,89.219a5.46,5.46,0,0,1-.339,2.5c-.5,1.151,6.529,2.818,6.529,2.818l2.416-3.5s-.219-.37.477-1.131-1.985-3.479-3.672-3.5-4.332.183-4.852.78a4.118,4.118,0,0,0-.56,2.036" transform="translate(26.39 83.882)" fill="#fff"/>
        </g>
      </g>
    </g>
  </g>
</svg>
