<svg xmlns="http://www.w3.org/2000/svg" xmlns:xlink="http://www.w3.org/1999/xlink" width="384" height="385" viewBox="0 0 384 385">
  <defs>
    <clipPath id="clip-path">
      <rect id="Rectangle_7142" data-name="Rectangle 7142" width="378" height="379" transform="translate(-0.465 -0.406)" fill="none"/>
    </clipPath>
    <clipPath id="clip-path-2">
      <rect id="Rectangle_7143" data-name="Rectangle 7143" width="378" height="379" transform="translate(0.241 0.299)" fill="#f40"/>
    </clipPath>
  </defs>
  <g id="Group_8930" data-name="Group 8930" transform="translate(-1237.241 -1453.799)">
    <g id="Group_8927" data-name="Group 8927" transform="translate(1243.706 1460.205)">
      <g id="Group_8926" data-name="Group 8926" transform="translate(0 0)" clip-path="url(#clip-path)">
        <path id="Path_15203" data-name="Path 15203" d="M327.306,260.733H35.855A22.471,22.471,0,0,1,13.4,238.278V178.5a4.8,4.8,0,0,1,4.646-4.8,4.694,4.694,0,0,1,4.646,4.8v59.932A13.087,13.087,0,0,0,35.7,251.441H327.306a13.087,13.087,0,0,0,13.008-13.008V178.656a4.8,4.8,0,0,1,9.6,0v59.777a22.674,22.674,0,0,1-22.61,22.3" transform="translate(7.051 94.781)" fill="#231f20"/>
        <line id="Line_200" data-name="Line 200" x2="107.629" transform="translate(133.656 374.097)" fill="#231f20"/>
        <path id="Path_15204" data-name="Path 15204" d="M195.83,248.4H88.2a4.8,4.8,0,1,1,0-9.6H195.83a4.825,4.825,0,0,1,4.8,4.8,4.929,4.929,0,0,1-4.8,4.8" transform="translate(45.455 130.496)" fill="#231f20"/>
        <path id="Path_15205" data-name="Path 15205" d="M157.408,254.927H104.6V223.8h52.808Zm-43.362-9.292h33.915V233.4H114.047v12.234" transform="translate(57.086 122.267)" fill="#231f20"/>
        <path id="Path_15206" data-name="Path 15206" d="M56.06,160.221A56.06,56.06,0,1,0,0,104.16a56.178,56.178,0,0,0,56.06,56.06m0-100.816a44.6,44.6,0,1,1-44.6,44.6,44.612,44.612,0,0,1,44.6-44.6" transform="translate(-0.3 25.873)" fill="#231f20"/>
        <path id="Path_15207" data-name="Path 15207" d="M45.839,110.649a25.635,25.635,0,0,1-16.57-6.349L22.3,112.662a33.485,33.485,0,0,0,18.274,8.208v4.8h7.588v-4.646c11-.929,17.5-6.969,17.5-16.415s-7.279-12.7-18.584-15.177c-7.433-1.549-9.911-2.633-9.911-5.73,0-2.478,2.323-4.336,6.349-4.336a23.334,23.334,0,0,1,14.4,5.42L64.268,75.8a28.632,28.632,0,0,0-16.106-6.659V64.5H40.419v4.646c-9.6,1.084-15.951,7.279-15.951,15.951,0,10.066,8.053,13.008,18.738,15.486,7.279,1.7,9.756,2.478,9.756,5.42,0,2.633-2.478,4.646-7.124,4.646" transform="translate(11.934 34.871)" fill="#231f20"/>
        <path id="Path_15208" data-name="Path 15208" d="M37.846,66.436A4.659,4.659,0,0,1,33.2,61.79V4.8a4.648,4.648,0,1,1,9.292,0V61.79a4.473,4.473,0,0,1-4.646,4.646" transform="translate(17.914 -0.516)" fill="#231f20"/>
        <path id="Path_15209" data-name="Path 15209" d="M22.546,59.359A4.659,4.659,0,0,1,17.9,54.713V17.546A4.659,4.659,0,0,1,22.546,12.9a4.763,4.763,0,0,1,4.646,4.646V54.713a4.473,4.473,0,0,1-4.646,4.646" transform="translate(9.52 6.562)" fill="#231f20"/>
        <path id="Path_15210" data-name="Path 15210" d="M53.146,59.359A4.659,4.659,0,0,1,48.5,54.713V17.546A4.659,4.659,0,0,1,53.146,12.9a4.763,4.763,0,0,1,4.646,4.646V54.713a4.473,4.473,0,0,1-4.646,4.646" transform="translate(26.308 6.562)" fill="#231f20"/>
        <path id="Path_15211" data-name="Path 15211" d="M141.86,200.375A56.138,56.138,0,1,0,85.8,144.16a56.046,56.046,0,0,0,56.06,56.215m0-100.816a44.6,44.6,0,1,1-44.6,44.6,44.612,44.612,0,0,1,44.6-44.6" transform="translate(46.772 47.818)" fill="#231f20"/>
        <path id="Path_15212" data-name="Path 15212" d="M131.694,150.749a25.956,25.956,0,0,1-16.57-6.349L108,152.762a33.485,33.485,0,0,0,18.274,8.208v4.8h7.588v-4.646c11-.929,17.5-6.969,17.5-16.415s-7.279-12.7-18.584-15.177c-7.433-1.549-9.911-2.633-9.911-5.73,0-2.478,2.323-4.336,6.349-4.336a23.334,23.334,0,0,1,14.4,5.42l6.349-8.982a28.2,28.2,0,0,0-16.106-6.659V104.6h-7.588v4.646c-9.6,1.084-15.951,7.279-15.951,15.951,0,10.066,8.053,13.008,18.738,15.486,7.279,1.7,9.756,2.478,9.756,5.42,0,2.788-2.478,4.646-7.124,4.646" transform="translate(58.951 56.871)" fill="#231f20"/>
        <path id="Path_15213" data-name="Path 15213" d="M123.7,106.636a4.825,4.825,0,0,1-4.8-4.8V44.846a4.694,4.694,0,0,1,4.8-4.646,4.8,4.8,0,0,1,4.8,4.646v56.989a4.825,4.825,0,0,1-4.8,4.8" transform="translate(64.931 21.539)" fill="#231f20"/>
        <path id="Path_15214" data-name="Path 15214" d="M108.4,99.614a4.825,4.825,0,0,1-4.8-4.8V57.646A4.694,4.694,0,0,1,108.4,53a4.8,4.8,0,0,1,4.8,4.646V94.813a4.825,4.825,0,0,1-4.8,4.8" transform="translate(56.537 28.562)" fill="#231f20"/>
        <path id="Path_15215" data-name="Path 15215" d="M139,99.614a4.825,4.825,0,0,1-4.8-4.8V57.646A4.694,4.694,0,0,1,139,53a4.8,4.8,0,0,1,4.8,4.646V94.813a4.825,4.825,0,0,1-4.8,4.8" transform="translate(73.325 28.562)" fill="#231f20"/>
        <path id="Path_15216" data-name="Path 15216" d="M227.661,160.22a56.06,56.06,0,1,0-56.06-56.06,56.046,56.046,0,0,0,56.06,56.06m0-100.816a44.6,44.6,0,1,1-44.6,44.6,44.612,44.612,0,0,1,44.6-44.6" transform="translate(93.844 25.873)" fill="#231f20"/>
        <path id="Path_15217" data-name="Path 15217" d="M217.394,110.649a25.957,25.957,0,0,1-16.57-6.349l-7.124,8.363a33.485,33.485,0,0,0,18.274,8.208v4.8h7.588v-4.646c11-.929,17.5-6.969,17.5-16.415s-7.279-12.7-18.583-15.177c-7.433-1.549-9.911-2.633-9.911-5.73,0-2.478,2.323-4.336,6.349-4.336a23.684,23.684,0,0,1,14.4,5.42l6.349-8.982a28.2,28.2,0,0,0-16.106-6.659V64.5h-7.588v4.646c-9.6,1.084-15.951,7.279-15.951,15.951,0,10.066,8.053,13.008,18.738,15.486,7.279,1.7,9.756,2.478,9.756,5.42,0,2.633-2.323,4.646-7.124,4.646" transform="translate(105.969 34.871)" fill="#231f20"/>
        <path id="Path_15218" data-name="Path 15218" d="M209.5,66.436a4.8,4.8,0,0,1-4.8-4.646V4.8a4.8,4.8,0,1,1,9.6,0V61.79a4.9,4.9,0,0,1-4.8,4.646" transform="translate(112.004 -0.516)" fill="#231f20"/>
        <path id="Path_15219" data-name="Path 15219" d="M194.2,59.359a4.8,4.8,0,0,1-4.8-4.646V17.546a4.694,4.694,0,0,1,4.8-4.646,4.8,4.8,0,0,1,4.8,4.646V54.713a4.9,4.9,0,0,1-4.8,4.646" transform="translate(103.61 6.562)" fill="#231f20"/>
        <path id="Path_15220" data-name="Path 15220" d="M224.8,59.359a4.8,4.8,0,0,1-4.8-4.646V17.546a4.694,4.694,0,0,1,4.8-4.646,4.8,4.8,0,0,1,4.8,4.646V54.713a4.9,4.9,0,0,1-4.8,4.646" transform="translate(120.397 6.562)" fill="#231f20"/>
        <path id="Path_15221" data-name="Path 15221" d="M92.318,219.768h24.933v11.615H79V173h37.477v11.615H92.318v12.079h21.216v11.924H92.318Z" transform="translate(43.041 94.397)" fill="#231f20"/>
        <path id="Path_15222" data-name="Path 15222" d="M178.312,184.57H154.773V196.8h18.584v11.46H154.618v22.92H141.3V172.8h36.857v11.77Z" transform="translate(77.221 94.287)" fill="#231f20"/>
        <path id="Path_15223" data-name="Path 15223" d="M151.781,173.155V184.77H136.45v46.768H123.131V184.615H107.8V173h43.981Z" transform="translate(58.842 94.397)" fill="#231f20"/>
        <path id="Path_15224" data-name="Path 15224" d="M18.485,156.6a5.885,5.885,0,1,1-5.885,5.885,5.884,5.884,0,0,1,5.885-5.885" transform="translate(6.613 85.399)" fill="#231f20"/>
        <path id="Path_15225" data-name="Path 15225" d="M229.685,156.6a5.885,5.885,0,1,1-5.885,5.885,5.884,5.884,0,0,1,5.885-5.885" transform="translate(122.482 85.399)" fill="#231f20"/>
      </g>
    </g>
    <g id="Group_8929" data-name="Group 8929" transform="translate(1237 1453.5)">
      <g id="Group_8928" data-name="Group 8928" transform="translate(0 0)" clip-path="url(#clip-path-2)">
        <path id="Path_15226" data-name="Path 15226" d="M327.306,260.733H35.855A22.471,22.471,0,0,1,13.4,238.278V178.5a4.8,4.8,0,0,1,4.646-4.8,4.694,4.694,0,0,1,4.646,4.8v59.932A13.087,13.087,0,0,0,35.7,251.441H327.306a13.087,13.087,0,0,0,13.008-13.008V178.656a4.8,4.8,0,0,1,9.6,0v59.777a22.674,22.674,0,0,1-22.61,22.3" transform="translate(7.562 95.291)" fill="#f40"/>
        <line id="Line_201" data-name="Line 201" x2="107.629" transform="translate(134.167 374.608)" fill="#231f20"/>
        <path id="Path_15227" data-name="Path 15227" d="M195.83,248.4H88.2a4.8,4.8,0,1,1,0-9.6H195.83a4.825,4.825,0,0,1,4.8,4.8,4.929,4.929,0,0,1-4.8,4.8" transform="translate(45.966 131.007)" fill="#f40"/>
        <path id="Path_15228" data-name="Path 15228" d="M157.408,254.927H104.6V223.8h52.808Zm-43.362-9.292h33.915V233.4H114.047v12.234" transform="translate(57.597 122.778)" fill="#f40"/>
        <path id="Path_15229" data-name="Path 15229" d="M56.06,160.221A56.06,56.06,0,1,0,0,104.16a56.178,56.178,0,0,0,56.06,56.06m0-100.816a44.6,44.6,0,1,1-44.6,44.6,44.612,44.612,0,0,1,44.6-44.6" transform="translate(0.211 26.384)" fill="#f40"/>
        <path id="Path_15230" data-name="Path 15230" d="M45.839,110.649a25.635,25.635,0,0,1-16.57-6.349L22.3,112.662a33.485,33.485,0,0,0,18.274,8.208v4.8h7.588v-4.646c11-.929,17.5-6.969,17.5-16.415s-7.279-12.7-18.584-15.177c-7.433-1.549-9.911-2.633-9.911-5.73,0-2.478,2.323-4.336,6.349-4.336a23.334,23.334,0,0,1,14.4,5.42L64.268,75.8a28.632,28.632,0,0,0-16.106-6.659V64.5H40.419v4.646c-9.6,1.084-15.951,7.279-15.951,15.951,0,10.066,8.053,13.008,18.738,15.486,7.279,1.7,9.756,2.478,9.756,5.42,0,2.633-2.478,4.646-7.124,4.646" transform="translate(12.445 35.382)" fill="#f40"/>
        <path id="Path_15231" data-name="Path 15231" d="M37.846,66.436A4.659,4.659,0,0,1,33.2,61.79V4.8a4.648,4.648,0,1,1,9.292,0V61.79a4.473,4.473,0,0,1-4.646,4.646" transform="translate(18.425 -0.005)" fill="#f40"/>
        <path id="Path_15232" data-name="Path 15232" d="M22.546,59.359A4.659,4.659,0,0,1,17.9,54.713V17.546A4.659,4.659,0,0,1,22.546,12.9a4.763,4.763,0,0,1,4.646,4.646V54.713a4.473,4.473,0,0,1-4.646,4.646" transform="translate(10.031 7.072)" fill="#f40"/>
        <path id="Path_15233" data-name="Path 15233" d="M53.146,59.359A4.659,4.659,0,0,1,48.5,54.713V17.546A4.659,4.659,0,0,1,53.146,12.9a4.763,4.763,0,0,1,4.646,4.646V54.713a4.473,4.473,0,0,1-4.646,4.646" transform="translate(26.819 7.072)" fill="#f40"/>
        <path id="Path_15234" data-name="Path 15234" d="M141.86,200.375A56.138,56.138,0,1,0,85.8,144.16a56.046,56.046,0,0,0,56.06,56.215m0-100.816a44.6,44.6,0,1,1-44.6,44.6,44.612,44.612,0,0,1,44.6-44.6" transform="translate(47.283 48.329)" fill="#f40"/>
        <path id="Path_15235" data-name="Path 15235" d="M131.694,150.749a25.956,25.956,0,0,1-16.57-6.349L108,152.762a33.485,33.485,0,0,0,18.274,8.208v4.8h7.588v-4.646c11-.929,17.5-6.969,17.5-16.415s-7.279-12.7-18.584-15.177c-7.433-1.549-9.911-2.633-9.911-5.73,0-2.478,2.323-4.336,6.349-4.336a23.334,23.334,0,0,1,14.4,5.42l6.349-8.982a28.2,28.2,0,0,0-16.106-6.659V104.6h-7.588v4.646c-9.6,1.084-15.951,7.279-15.951,15.951,0,10.066,8.053,13.008,18.738,15.486,7.279,1.7,9.756,2.478,9.756,5.42,0,2.788-2.478,4.646-7.124,4.646" transform="translate(59.462 57.381)" fill="#f40"/>
        <path id="Path_15236" data-name="Path 15236" d="M123.7,106.636a4.825,4.825,0,0,1-4.8-4.8V44.846a4.694,4.694,0,0,1,4.8-4.646,4.8,4.8,0,0,1,4.8,4.646v56.989a4.825,4.825,0,0,1-4.8,4.8" transform="translate(65.442 22.05)" fill="#f40"/>
        <path id="Path_15237" data-name="Path 15237" d="M108.4,99.614a4.825,4.825,0,0,1-4.8-4.8V57.646A4.694,4.694,0,0,1,108.4,53a4.8,4.8,0,0,1,4.8,4.646V94.813a4.825,4.825,0,0,1-4.8,4.8" transform="translate(57.048 29.072)" fill="#f40"/>
        <path id="Path_15238" data-name="Path 15238" d="M139,99.614a4.825,4.825,0,0,1-4.8-4.8V57.646A4.694,4.694,0,0,1,139,53a4.8,4.8,0,0,1,4.8,4.646V94.813a4.825,4.825,0,0,1-4.8,4.8" transform="translate(73.836 29.072)" fill="#f40"/>
        <path id="Path_15239" data-name="Path 15239" d="M227.661,160.22a56.06,56.06,0,1,0-56.06-56.06,56.046,56.046,0,0,0,56.06,56.06m0-100.816a44.6,44.6,0,1,1-44.6,44.6,44.612,44.612,0,0,1,44.6-44.6" transform="translate(94.355 26.384)" fill="#f40"/>
        <path id="Path_15240" data-name="Path 15240" d="M217.394,110.649a25.957,25.957,0,0,1-16.57-6.349l-7.124,8.363a33.485,33.485,0,0,0,18.274,8.208v4.8h7.588v-4.646c11-.929,17.5-6.969,17.5-16.415s-7.279-12.7-18.583-15.177c-7.433-1.549-9.911-2.633-9.911-5.73,0-2.478,2.323-4.336,6.349-4.336a23.684,23.684,0,0,1,14.4,5.42l6.349-8.982a28.2,28.2,0,0,0-16.106-6.659V64.5h-7.588v4.646c-9.6,1.084-15.951,7.279-15.951,15.951,0,10.066,8.053,13.008,18.738,15.486,7.279,1.7,9.756,2.478,9.756,5.42,0,2.633-2.323,4.646-7.124,4.646" transform="translate(106.479 35.382)" fill="#f40"/>
        <path id="Path_15241" data-name="Path 15241" d="M209.5,66.436a4.8,4.8,0,0,1-4.8-4.646V4.8a4.8,4.8,0,1,1,9.6,0V61.79a4.9,4.9,0,0,1-4.8,4.646" transform="translate(112.514 -0.005)" fill="#f40"/>
        <path id="Path_15242" data-name="Path 15242" d="M194.2,59.359a4.8,4.8,0,0,1-4.8-4.646V17.546a4.694,4.694,0,0,1,4.8-4.646,4.8,4.8,0,0,1,4.8,4.646V54.713a4.9,4.9,0,0,1-4.8,4.646" transform="translate(104.12 7.072)" fill="#f40"/>
        <path id="Path_15243" data-name="Path 15243" d="M224.8,59.359a4.8,4.8,0,0,1-4.8-4.646V17.546a4.694,4.694,0,0,1,4.8-4.646,4.8,4.8,0,0,1,4.8,4.646V54.713a4.9,4.9,0,0,1-4.8,4.646" transform="translate(120.908 7.072)" fill="#f40"/>
        <path id="Path_15244" data-name="Path 15244" d="M92.318,219.768h24.933v11.615H79V173h37.477v11.615H92.318v12.079h21.216v11.924H92.318Z" transform="translate(43.552 94.907)" fill="#f40"/>
        <path id="Path_15245" data-name="Path 15245" d="M178.312,184.57H154.773V196.8h18.584v11.46H154.618v22.92H141.3V172.8h36.857v11.77Z" transform="translate(77.731 94.798)" fill="#f40"/>
        <path id="Path_15246" data-name="Path 15246" d="M151.781,173.155V184.77H136.45v46.768H123.131V184.615H107.8V173h43.981Z" transform="translate(59.353 94.907)" fill="#f40"/>
        <path id="Path_15247" data-name="Path 15247" d="M18.485,156.6a5.885,5.885,0,1,1-5.885,5.885,5.884,5.884,0,0,1,5.885-5.885" transform="translate(7.123 85.91)" fill="#f40"/>
        <path id="Path_15248" data-name="Path 15248" d="M229.685,156.6a5.885,5.885,0,1,1-5.885,5.885,5.884,5.884,0,0,1,5.885-5.885" transform="translate(122.993 85.91)" fill="#f40"/>
      </g>
    </g>
  </g>
</svg>
