<svg id="Group_3550" data-name="Group 3550" xmlns="http://www.w3.org/2000/svg" xmlns:xlink="http://www.w3.org/1999/xlink" width="70.417" height="72.213" viewBox="0 0 70.417 72.213">
  <defs>
    <clipPath id="clip-path">
      <rect id="Rectangle_810" data-name="Rectangle 810" width="70.417" height="72.213" transform="translate(0 0)" fill="#f40"/>
    </clipPath>
  </defs>
  <g id="Group_481" data-name="Group 481" clip-path="url(#clip-path)">
    <path id="Path_1578" data-name="Path 1578" d="M61.075,42.522H32.567V14.013a1.353,1.353,0,0,0-1.353-1.353A31.214,31.214,0,1,0,62.428,43.874a1.352,1.352,0,0,0-1.353-1.353M31.214,72.383A28.509,28.509,0,0,1,29.862,15.4V43.874a1.353,1.353,0,0,0,1.353,1.353H59.691A28.545,28.545,0,0,1,31.214,72.383" transform="translate(0 -2.875)" fill="#f40"/>
    <path id="Path_1579" data-name="Path 1579" d="M52.581,22.479a1.351,1.351,0,0,0,1.516-.536L65.212,5.516a1.352,1.352,0,0,0-.362-1.877A21.08,21.08,0,0,0,52.978,0a1.353,1.353,0,0,0-1.353,1.353V21.186a1.353,1.353,0,0,0,.956,1.293M54.33,2.754A18.356,18.356,0,0,1,62.187,5.16L54.33,16.772Z" transform="translate(-11.723 0)" fill="#f40"/>
    <path id="Path_1580" data-name="Path 1580" d="M70.079,11.544a1.353,1.353,0,0,0-1.88.362L53.193,34.087a1.352,1.352,0,0,0,1.12,2.11H81.091a1.353,1.353,0,0,0,1.353-1.353,28.127,28.127,0,0,0-12.365-23.3M56.861,33.491l12.8-18.919A25.423,25.423,0,0,1,79.7,33.491Z" transform="translate(-12.026 -2.569)" fill="#f40"/>
  </g>
</svg>
