<svg xmlns="http://www.w3.org/2000/svg" width="31.112" height="27.797" viewBox="0 0 31.112 27.797">
  <g id="Group_6108" data-name="Group 6108" transform="translate(-8.648 -3.741)">
    <path id="Path_11676" data-name="Path 11676" d="M503.242,688.962h-5.258c-.5-.016-.613-.016-1.126-.011h-.015c-.067.006-.123.011-.179.011h-.535c-.347,0-.694,0-1.042.006a.6.6,0,0,0-.421.177.54.54,0,0,0-.149.39.559.559,0,0,0,.556.539c.149.009.3.006.442.006h1.326c.667.014.326-.012,1.16.007.032,0,.06-.007.091-.007q.751,0,1.5,0c1.225,0,2.491-.006,3.737.006a1.85,1.85,0,0,1,1.958,2v14.084H476.426V692.024a1.755,1.755,0,0,1,1.02-1.719,2.55,2.55,0,0,1,1.063-.216c1.865-.015,3.761-.013,5.594-.011h2.027c.395-.01.231.016,1.16,0h.729c.339,0,.688,0,1.031-.009a.534.534,0,0,0,.543-.55.541.541,0,0,0-.535-.554c-.091-.009-.183-.006-.276-.006h-1.5c-.39.009-.529,0-1.154,0h-7.684a2.98,2.98,0,0,0-3.144,3.149v15.656a3.01,3.01,0,0,0,3.183,3.177H485.1v.613c0,.848-.006,2.109,0,2.849H482.79a1.313,1.313,0,0,0-1.311,1.311v1.029h18.755v-1.029a1.313,1.313,0,0,0-1.311-1.311h-2.31c0-.811,0-2.247,0-3.075v-.386h6.614a3.011,3.011,0,0,0,3.185-3.174V692.143a2.98,2.98,0,0,0-3.174-3.181Zm-3.949,26.84H482.425v-.086a.366.366,0,0,1,.367-.367h16.135a.366.366,0,0,1,.367.367Zm-5.059-5.978a.56.56,0,0,0-.561.533.545.545,0,0,0,.144.4.579.579,0,0,0,.412.186c.27.011.543.009.807.006h.28c.05,0,.1,0,.153,0v3.457h-9.217v-3.461h5.881a1.186,1.186,0,0,0,.313-.028.555.555,0,0,0-.08-1.085,1.556,1.556,0,0,0-.265-.009H478.392a1.936,1.936,0,0,1-1.883-1.32,3.581,3.581,0,0,1-.086-1.182h28.868v.164a3.807,3.807,0,0,1-.075.921h0a1.845,1.845,0,0,1-1.859,1.417q-3.07,0-6.14,0h-2.775c-.069,0-.138,0-.2,0Z" transform="translate(-466.652 -685.207)" fill="#f40"/>
    <path id="Path_11675" data-name="Path 11675" d="M65.11,49.622,58.668,46.57a.3.3,0,0,0-.243,0l-6.442,3.051a.288.288,0,0,0-.164.254.278.278,0,0,0,.164.254l2.062.978V52.8a2.32,2.32,0,0,0,1.475,2.062,6.871,6.871,0,0,0,3.029.633c2.17,0,4.5-.842,4.5-2.7v-1.69l.661-.311v3.5l-.407.407a.969.969,0,0,0,0,1.367l.407.407v.531a.283.283,0,1,0,.565,0v-.531l.407-.407a.972.972,0,0,0,0-1.373l-.407-.407V50.526l.836-.4a.288.288,0,0,0,.164-.254.278.278,0,0,0-.164-.254Zm-.831,6.052-.288.288-.288-.288a.409.409,0,0,1,0-.576l.288-.288.288.288a.4.4,0,0,1,0,.571ZM62.488,52.8c0,1.4-1.983,2.13-3.938,2.13s-3.938-.735-3.938-2.13V51.379l3.82,1.808a.3.3,0,0,0,.119.028.282.282,0,0,0,.119-.028l3.82-1.808Zm1.435-2.729a.375.375,0,0,0-.107.051l-5.272,2.5-5.781-2.741,5.781-2.741,5.781,2.741-.407.192Z" transform="translate(-34.346 -37.678)" fill="#f40" stroke="#fff" stroke-width="0.3"/>
  </g>
</svg>
