<svg xmlns="http://www.w3.org/2000/svg" width="29.332" height="29.332" viewBox="0 0 29.332 29.332">
  <g id="Group_6113" data-name="Group 6113" transform="translate(-59.807 -11.105)">
    <g id="Group_6092" data-name="Group 6092" transform="translate(49.285 9.531)">
      <path id="Path_11674" data-name="Path 11674" d="M16.078,24.514l0,.011,0,.01a14.644,14.644,0,0,0,11.822,8.823,13.476,13.476,0,0,0,1.676.1A14.683,14.683,0,0,0,44.25,18.793a14.482,14.482,0,0,0-1.3-6.04l0-.005-.015-.034A14.645,14.645,0,0,0,30.812,4.183c-.423-.038-.825-.056-1.228-.056A14.671,14.671,0,0,0,16.078,24.514M27.7,31.454a12.787,12.787,0,0,1-9.643-7.085l5.254-5.254a1.162,1.162,0,0,1,.827-.342h0a1.164,1.164,0,0,1,.827.343l.258.258a1.173,1.173,0,0,1,0,1.656l-.749.749a3.03,3.03,0,0,0,0,4.281l.258.26a3.032,3.032,0,0,0,4.281,0l1.068-1.067a1.2,1.2,0,0,1,1.655,0l.258.259a1.174,1.174,0,0,1,0,1.655ZM31.069,6.078a12.781,12.781,0,0,1,9.891,6.837L35.565,18.31a1.173,1.173,0,0,1-1.656,0l-.254-.254a1.175,1.175,0,0,1,0-1.66l1.067-1.067a3.023,3.023,0,0,0,0-4.277l-.255-.256a3.032,3.032,0,0,0-4.281,0l-.749.749a1.175,1.175,0,0,1-1.66,0l-.254-.254a1.177,1.177,0,0,1,0-1.663Zm-2.574-.048L26.209,8.317a3.032,3.032,0,0,0,0,4.285l.254.254a3.03,3.03,0,0,0,4.281,0l.749-.749a1.175,1.175,0,0,1,1.659,0l.255.256a1.169,1.169,0,0,1,0,1.655l-1.067,1.068a3.03,3.03,0,0,0,0,4.281l.254.255a3.028,3.028,0,0,0,4.278,0l4.868-4.869a12.684,12.684,0,0,1,.652,4.041,12.827,12.827,0,0,1-12.215,12.8L33.3,28.472a3.029,3.029,0,0,0,0-4.277l-.258-.259a3,3,0,0,0-2.138-.884h0a3,3,0,0,0-2.138.884L27.7,25a1.175,1.175,0,0,1-1.659,0l-.259-.26a1.156,1.156,0,0,1-.34-.826,1.169,1.169,0,0,1,.344-.833l.749-.749a3.028,3.028,0,0,0,0-4.278l-.257-.257a3,3,0,0,0-2.137-.886h0A3,3,0,0,0,22,17.8l-4.68,4.68A12.81,12.81,0,0,1,28.495,6.031" transform="translate(-4.396 -2.553)" fill="#f40"/>
    </g>
  </g>
</svg>
