<svg xmlns="http://www.w3.org/2000/svg" width="150.42" height="287.19" viewBox="0 0 150.42 287.19">
  <g id="Group_754" data-name="Group 754" transform="translate(0)">
    <path id="Path_2648" data-name="Path 2648" d="M135.243,606.259H15.177A15.2,15.2,0,0,1,0,591.043V334.285a15.2,15.2,0,0,1,15.177-15.216H135.243a15.2,15.2,0,0,1,15.177,15.216V591.043a15.2,15.2,0,0,1-15.177,15.216" transform="translate(0 -319.069)" fill="#f40"/>
    <path id="Path_2649" data-name="Path 2649" d="M136.822,326.5H105.291a2.752,2.752,0,0,0-2.572,1.777l-1.664,4.378a6.016,6.016,0,0,1-5.622,3.884H60.242a6.018,6.018,0,0,1-5.623-3.884l-1.663-4.378a2.752,2.752,0,0,0-2.572-1.777H18.853A11.3,11.3,0,0,0,7.567,337.813V593.121a11.3,11.3,0,0,0,11.286,11.315H136.822a11.3,11.3,0,0,0,11.286-11.315V337.813A11.3,11.3,0,0,0,136.822,326.5" transform="translate(-2.628 -321.637)" fill="#fff"/>
    <path id="Path_2650" data-name="Path 2650" d="M136.822,326.5H105.291a2.752,2.752,0,0,0-2.572,1.777l-1.664,4.378a6.016,6.016,0,0,1-5.622,3.884H60.242a6.018,6.018,0,0,1-5.623-3.884l-1.663-4.378a2.752,2.752,0,0,0-2.572-1.777H18.853A11.3,11.3,0,0,0,7.567,337.813V593.121a11.3,11.3,0,0,0,11.286,11.315H136.822a11.3,11.3,0,0,0,11.286-11.315V337.813A11.3,11.3,0,0,0,136.822,326.5Z" transform="translate(-2.628 -321.637)" fill="none" stroke="#000" stroke-width="2"/>
    <path id="Path_2651" data-name="Path 2651" d="M118.8,330.911H89.56a.965.965,0,0,1,0-1.93H118.8a.965.965,0,0,1,0,1.93" transform="translate(-30.773 -322.495)"/>
    <path id="Path_2652" data-name="Path 2652" d="M140.844,329.947a.962.962,0,1,1-.962-.965.963.963,0,0,1,.962.965" transform="translate(-48.25 -322.495)"/>
    <path id="Path_2653" data-name="Path 2653" d="M115.089,528a24.389,24.389,0,0,0,1.965-8.878c-.022-.352-.035-.705-.035-1.062a17.465,17.465,0,1,1,32.55,8.814h0l5.875,5.444a25.338,25.338,0,1,0-42.332-.609A26.122,26.122,0,0,0,115.089,528" transform="translate(-37.909 -379.063)" fill="#e03c00"/>
    <path id="Path_2654" data-name="Path 2654" d="M137.537,532.452v16.872a17.458,17.458,0,0,1-15.643-9.725,26.661,26.661,0,0,1-1.153,3.259,28.958,28.958,0,0,1-2.806,5.051,25.292,25.292,0,0,0,27.492,8.046l.036-.006v-5.018l6.27,6.287H162.4c-.6,0-24.866-24.766-24.866-24.766" transform="translate(-40.962 -392.82)" fill="#e03c00"/>
    <path id="Path_2655" data-name="Path 2655" d="M92.349,508.345a26.481,26.481,0,0,0-2.014-3.779,26.143,26.143,0,0,0-1.98,3.779,24.6,24.6,0,0,0-1.933,8.846h-.035c.015.323.024.648.024.976a17.767,17.767,0,0,1-1.356,6.929,18.088,18.088,0,0,1-3.714,5.666,17.478,17.478,0,0,1-5.491,3.82,17.368,17.368,0,0,1-13.628,0,17.941,17.941,0,0,1-5.555-3.853,17.553,17.553,0,0,1-3.746-5.666A18.06,18.06,0,0,1,51.6,518.1a18.6,18.6,0,0,1,1.292-6.9,17.367,17.367,0,0,1,9.2-9.615,16.714,16.714,0,0,1,6.879-1.425,16.921,16.921,0,0,1,12.369,5.277,18.783,18.783,0,0,1,3.331,4.88,27.038,27.038,0,0,1,1.079-3.06,28.8,28.8,0,0,1,2.822-5.129q-.821-1-1.745-1.934a26.029,26.029,0,0,0-8.124-5.533,25.02,25.02,0,0,0-19.572,0,25.96,25.96,0,0,0-13.506,13.678,24.731,24.731,0,0,0-1.953,9.761,25.1,25.1,0,0,0,25.3,25.363,24.74,24.74,0,0,0,9.8-1.959A25.618,25.618,0,0,0,92.349,528a25.3,25.3,0,0,0,0-19.658" transform="translate(-15.169 -379.072)" fill="#f40"/>
    <path id="Path_2656" data-name="Path 2656" d="M121.086,500.384a22.316,22.316,0,0,0-6.231,6.848c-2.539,4.4,4,12.072,4,12.072s-1.938-8.441,2.229-18.92" transform="translate(-39.689 -381.737)" fill="#f40"/>
  </g>
</svg>
