<svg xmlns="http://www.w3.org/2000/svg" xmlns:xlink="http://www.w3.org/1999/xlink" width="377" height="592" viewBox="0 0 377 592">
  <defs>
    <clipPath id="clip-path">
      <rect id="Rectangle_1798" data-name="Rectangle 1798" width="377" height="592" fill="#fff" stroke="#707070" stroke-width="1"/>
    </clipPath>
    <clipPath id="clip-path-2">
      <rect id="Rectangle_1791" data-name="Rectangle 1791" width="474.229" height="494.076" fill="none"/>
    </clipPath>
  </defs>
  <g id="Mask_Group_81" data-name="Mask Group 81" clip-path="url(#clip-path)">
    <g id="Group_2020" data-name="Group 2020" transform="translate(0.5 97.924)">
      <g id="Group_2007" data-name="Group 2007">
        <g id="Group_2006" data-name="Group 2006" clip-path="url(#clip-path-2)">
          <path id="Path_5930" data-name="Path 5930" d="M221.4,376l-47.209,81.982h94.418Z" transform="translate(15.72 35.001)" fill="none" stroke="#f40" stroke-width="1"/>
        </g>
      </g>
      <path id="Path_5931" data-name="Path 5931" d="M221.4,226l-47.209,81.982h94.418Z" transform="translate(15.72 21.038)" fill="none" stroke="#f40" stroke-width="1"/>
      <g id="Group_2009" data-name="Group 2009">
        <g id="Group_2008" data-name="Group 2008" clip-path="url(#clip-path-2)">
          <path id="Path_5932" data-name="Path 5932" d="M308.038,376l-47.209,81.982h94.418Z" transform="translate(23.54 35.001)" fill="none" stroke="#f40" stroke-width="1"/>
          <path id="Path_5933" data-name="Path 5933" d="M134.717,376,87.508,457.982h94.418Z" transform="translate(7.898 35.001)" fill="none" stroke="#f40" stroke-width="1"/>
        </g>
      </g>
      <path id="Path_5934" data-name="Path 5934" d="M264.737,301l-47.209,81.982h94.418Z" transform="translate(19.632 28.02)" fill="none" stroke="#f40" stroke-width="1"/>
      <path id="Path_5935" data-name="Path 5935" d="M178.057,301l-47.209,81.982h94.418Z" transform="translate(11.809 28.02)" fill="none" stroke="#f40" stroke-width="1"/>
      <path id="Path_5936" data-name="Path 5936" d="M178.076,307.982,225.285,226H130.867Z" transform="translate(11.811 21.038)" fill="none" stroke="#f40" stroke-width="1"/>
      <path id="Path_5937" data-name="Path 5937" d="M134.736,382.982,181.945,301H87.527Z" transform="translate(7.899 28.02)" fill="none" stroke="#f40" stroke-width="1"/>
      <g id="Group_2011" data-name="Group 2011">
        <g id="Group_2010" data-name="Group 2010" clip-path="url(#clip-path-2)">
          <path id="Path_5938" data-name="Path 5938" d="M48.075,376,.866,457.982H95.284Z" transform="translate(0.078 35.001)" fill="none" stroke="#f40" stroke-width="1"/>
        </g>
      </g>
      <path id="Path_5939" data-name="Path 5939" d="M91.415,301,44.206,382.982h94.418Z" transform="translate(3.99 28.02)" fill="#f40"/>
      <path id="Path_5940" data-name="Path 5940" d="M91.415,301,44.206,382.982h94.418Z" transform="translate(3.99 28.02)" fill="none" stroke="#f40" stroke-width="1"/>
      <g id="Group_2013" data-name="Group 2013">
        <g id="Group_2012" data-name="Group 2012" clip-path="url(#clip-path-2)">
          <path id="Path_5941" data-name="Path 5941" d="M48.095,382.982,95.3,301H.886Z" transform="translate(0.08 28.02)" fill="none" stroke="#f40" stroke-width="1"/>
          <path id="Path_5942" data-name="Path 5942" d="M394.626,376l-47.209,81.982h94.418Z" transform="translate(31.354 35.001)" fill="none" stroke="#f40" stroke-width="1"/>
        </g>
      </g>
      <path id="Path_5943" data-name="Path 5943" d="M351.305,307.982,398.514,226H304.1Z" transform="translate(27.445 21.038)" fill="none" stroke="#f40" stroke-width="1"/>
      <g id="Group_2015" data-name="Group 2015">
        <g id="Group_2014" data-name="Group 2014" clip-path="url(#clip-path-2)">
          <path id="Path_5944" data-name="Path 5944" d="M351.305,457.982,398.514,376H304.1Z" transform="translate(27.445 35.001)" fill="none" stroke="#f40" stroke-width="1"/>
        </g>
      </g>
      <path id="Path_5945" data-name="Path 5945" d="M264.664,307.982,311.873,226H217.455Z" transform="translate(19.625 21.038)" fill="none" stroke="#f40" stroke-width="1"/>
      <path id="Path_5946" data-name="Path 5946" d="M307.965,382.982,355.174,301H260.756Z" transform="translate(23.533 28.02)" fill="none" stroke="#f40" stroke-width="1"/>
      <g id="Group_2017" data-name="Group 2017">
        <g id="Group_2016" data-name="Group 2016" clip-path="url(#clip-path-2)">
          <path id="Path_5947" data-name="Path 5947" d="M394.645,382.982,441.854,301H347.436Z" transform="translate(31.356 28.02)" fill="none" stroke="#f40" stroke-width="1"/>
        </g>
      </g>
      <path id="Path_5948" data-name="Path 5948" d="M351.374,151l-47.209,81.982h94.418Z" transform="translate(27.451 14.056)" fill="none" stroke="#f40" stroke-width="1"/>
      <g id="Group_2019" data-name="Group 2019">
        <g id="Group_2018" data-name="Group 2018" clip-path="url(#clip-path-2)">
          <path id="Path_5949" data-name="Path 5949" d="M351.374,1,304.165,82.982h94.418Z" transform="translate(27.451 0.093)" fill="none" stroke="#f40" stroke-width="1"/>
          <path id="Path_5950" data-name="Path 5950" d="M394.714,76,347.5,157.982h94.418Z" transform="translate(31.362 7.075)" fill="none" stroke="#f40" stroke-width="1"/>
          <path id="Path_5951" data-name="Path 5951" d="M308.053,82.982,355.262,1H260.844Z" transform="translate(23.541 0.093)" fill="none" stroke="#f40" stroke-width="1"/>
        </g>
      </g>
    </g>
  </g>
</svg>
