<svg xmlns="http://www.w3.org/2000/svg" xmlns:xlink="http://www.w3.org/1999/xlink" width="408" height="490" viewBox="0 0 408 490">
  <defs>
    <clipPath id="clip-path">
      <rect id="Rectangle_1799" data-name="Rectangle 1799" width="408" height="490" fill="#fff" stroke="#707070" stroke-width="1"/>
    </clipPath>
    <clipPath id="clip-path-2">
      <rect id="Rectangle_1003" data-name="Rectangle 1003" width="474.229" height="492.793" fill="none"/>
    </clipPath>
  </defs>
  <g id="Mask_Group_82" data-name="Mask Group 82" clip-path="url(#clip-path)">
    <g id="Group_2005" data-name="Group 2005" transform="translate(-66.229 -3)">
      <g id="Group_714" data-name="Group 714">
        <g id="Group_713" data-name="Group 713" clip-path="url(#clip-path-2)">
          <path id="Path_2311" data-name="Path 2311" d="M221.4,457.769,268.606,376H174.188Z" transform="translate(15.715 -374.91)" fill="none" stroke="#f40" stroke-width="1"/>
        </g>
      </g>
      <path id="Path_2312" data-name="Path 2312" d="M221.4,307.769,268.606,226H174.188Z" transform="translate(15.715 -61.372)" fill="none" stroke="#f40" stroke-width="1"/>
      <g id="Group_716" data-name="Group 716">
        <g id="Group_715" data-name="Group 715" clip-path="url(#clip-path-2)">
          <path id="Path_2313" data-name="Path 2313" d="M308.038,457.769,355.247,376H260.829Z" transform="translate(-165.387 -374.91)" fill="none" stroke="#f40" stroke-width="1"/>
          <path id="Path_2314" data-name="Path 2314" d="M134.717,457.769,181.926,376H87.508Z" transform="translate(196.898 -374.91)" fill="none" stroke="#f40" stroke-width="1"/>
        </g>
      </g>
      <path id="Path_2315" data-name="Path 2315" d="M264.737,382.769,311.946,301H217.528Z" transform="translate(-74.876 -218.141)" fill="none" stroke="#f40" stroke-width="1"/>
      <path id="Path_2316" data-name="Path 2316" d="M178.057,382.769,225.266,301H130.848Z" transform="translate(106.307 -218.141)" fill="none" stroke="#f40" stroke-width="1"/>
      <path id="Path_2317" data-name="Path 2317" d="M178.076,226l-47.209,81.769h94.418Z" transform="translate(106.266 -61.372)" fill="none" stroke="#f40" stroke-width="1"/>
      <path id="Path_2318" data-name="Path 2318" d="M134.736,301,87.527,382.769h94.418Z" transform="translate(196.858 -218.141)" fill="none" stroke="#f40" stroke-width="1"/>
      <g id="Group_718" data-name="Group 718">
        <g id="Group_717" data-name="Group 717" clip-path="url(#clip-path-2)">
          <path id="Path_2319" data-name="Path 2319" d="M48.075,457.769,95.284,376H.866Z" transform="translate(378.001 -374.91)" fill="none" stroke="#f40" stroke-width="1"/>
        </g>
      </g>
      <path id="Path_2320" data-name="Path 2320" d="M91.415,382.769,138.624,301H44.206Z" transform="translate(287.409 -218.141)" fill="#f40"/>
      <path id="Path_2321" data-name="Path 2321" d="M91.415,382.769,138.624,301H44.206Z" transform="translate(287.409 -218.141)" fill="none" stroke="#f40" stroke-width="1"/>
      <g id="Group_720" data-name="Group 720">
        <g id="Group_719" data-name="Group 719" clip-path="url(#clip-path-2)">
          <path id="Path_2322" data-name="Path 2322" d="M48.095,301,.886,382.769H95.3Z" transform="translate(377.96 -218.141)" fill="none" stroke="#f40" stroke-width="1"/>
          <path id="Path_2323" data-name="Path 2323" d="M394.626,457.769,441.835,376H347.417Z" transform="translate(-346.377 -374.91)" fill="none" stroke="#f40" stroke-width="1"/>
        </g>
      </g>
      <path id="Path_2324" data-name="Path 2324" d="M351.305,226,304.1,307.769h94.418Z" transform="translate(-255.826 -61.372)" fill="none" stroke="#f40" stroke-width="1"/>
      <g id="Group_722" data-name="Group 722">
        <g id="Group_721" data-name="Group 721" clip-path="url(#clip-path-2)">
          <path id="Path_2325" data-name="Path 2325" d="M351.305,376,304.1,457.769h94.418Z" transform="translate(-255.826 -374.91)" fill="none" stroke="#f40" stroke-width="1"/>
        </g>
      </g>
      <path id="Path_2326" data-name="Path 2326" d="M264.664,226l-47.209,81.769h94.418Z" transform="translate(-74.724 -61.372)" fill="none" stroke="#f40" stroke-width="1"/>
      <path id="Path_2327" data-name="Path 2327" d="M307.965,301l-47.209,81.769h94.418Z" transform="translate(-165.234 -218.141)" fill="none" stroke="#f40" stroke-width="1"/>
      <g id="Group_724" data-name="Group 724">
        <g id="Group_723" data-name="Group 723" clip-path="url(#clip-path-2)">
          <path id="Path_2328" data-name="Path 2328" d="M394.645,301l-47.209,81.769h94.418Z" transform="translate(-346.417 -218.141)" fill="none" stroke="#f40" stroke-width="1"/>
        </g>
      </g>
      <path id="Path_2329" data-name="Path 2329" d="M351.374,232.769,398.583,151H304.165Z" transform="translate(-255.969 95.396)" fill="none" stroke="#f40" stroke-width="1"/>
      <g id="Group_726" data-name="Group 726">
        <g id="Group_725" data-name="Group 725" clip-path="url(#clip-path-2)">
          <path id="Path_2330" data-name="Path 2330" d="M351.374,82.769,398.583,1H304.165Z" transform="translate(-255.969 408.934)" fill="none" stroke="#f40" stroke-width="1"/>
          <path id="Path_2331" data-name="Path 2331" d="M394.714,157.769,441.923,76H347.5Z" transform="translate(-346.56 252.165)" fill="none" stroke="#f40" stroke-width="1"/>
          <path id="Path_2332" data-name="Path 2332" d="M308.053,1,260.844,82.769h94.418Z" transform="translate(-165.418 408.934)" fill="none" stroke="#f40" stroke-width="1"/>
        </g>
      </g>
    </g>
  </g>
</svg>
