<svg xmlns="http://www.w3.org/2000/svg" width="1511.634" height="112.543" viewBox="0 0 1511.634 112.543">
  <g id="Group_6236" data-name="Group 6236" transform="translate(-205.181 -3022.153)">
    <g id="Group_5495" data-name="Group 5495">
      <path id="Path_11104" data-name="Path 11104" d="M12582.667,20968s169-94,308-22,246,32.666,308.333,0,165.667-58.666,282,7,243,13,303-13,258.333-6.666,309.333,21.334" transform="translate(-12377 -17871)" fill="none" stroke="#f40" stroke-width="2"/>
    </g>
    <path id="Path_11181" data-name="Path 11181" d="M61.558,301,44.206,329.3h34.7Z" transform="translate(695.668 2987) rotate(90)" fill="#f40" stroke="rgba(0,0,0,0)" stroke-width="2"/>
    <path id="Path_11182" data-name="Path 11182" d="M61.558,301,44.206,329.3h34.7Z" transform="translate(983.668 3054) rotate(90)" fill="#f40" stroke="rgba(0,0,0,0)" stroke-width="2"/>
    <path id="Path_11183" data-name="Path 11183" d="M61.558,301,44.206,329.3h34.7Z" transform="translate(1266.668 2979.732) rotate(90)" fill="#f40" stroke="rgba(0,0,0,0)" stroke-width="2"/>
    <path id="Path_11184" data-name="Path 11184" d="M61.558,301,44.206,329.3h34.7Z" transform="translate(1548.297 3052.051) rotate(90)" fill="#f40" stroke="rgba(0,0,0,0)" stroke-width="2"/>
    <path id="Path_11185" data-name="Path 11185" d="M61.558,301,44.206,329.3h34.7Z" transform="translate(1857.297 2997.084) rotate(90)" fill="#f40" stroke="rgba(0,0,0,0)" stroke-width="2"/>
  </g>
</svg>
