<svg xmlns="http://www.w3.org/2000/svg" xmlns:xlink="http://www.w3.org/1999/xlink" width="878" height="72" viewBox="0 0 878 72">
  <defs>
    <clipPath id="clip-path">
      <rect id="Rectangle_5213" data-name="Rectangle 5213" width="878" height="72" transform="translate(354.303 4.104)" fill="#fff" stroke="#707070" stroke-width="1"/>
    </clipPath>
  </defs>
  <g id="Mask_Group_4529" data-name="Mask Group 4529" transform="translate(-354.303 -4.104)" clip-path="url(#clip-path)">
    <g id="Group_6086" data-name="Group 6086">
      <g id="Group_5748" data-name="Group 5748" transform="translate(543.162 20.502)">
        <path id="Path_11328" data-name="Path 11328" d="M12582.669,20946.221s102.929-57.25,187.589-13.4,149.83,19.9,187.791,0,100.9-35.727,171.756,4.27,148,7.918,184.547-7.92,157.338-4.059,188.4,12.992" transform="translate(-12582.669 -20912.291)" fill="none" stroke="#f40" stroke-width="2"/>
      </g>
      <path id="Path_11389" data-name="Path 11389" d="M10.568,0,0,17.235H21.136Z" transform="translate(658.275 14.359) rotate(90)" fill="#f40" stroke="rgba(0,0,0,0)" stroke-width="2"/>
      <path id="Path_11390" data-name="Path 11390" d="M10.568,0,0,17.235H21.136Z" transform="translate(833.684 55.166) rotate(90)" fill="#f40" stroke="rgba(0,0,0,0)" stroke-width="2"/>
      <path id="Path_11391" data-name="Path 11391" d="M10.568,0,0,17.235H21.136Z" transform="translate(1006.047 9.933) rotate(90)" fill="#f40" stroke="rgba(0,0,0,0)" stroke-width="2"/>
      <path id="Path_11771" data-name="Path 11771" d="M10.568,0,0,17.235H21.136Z" transform="translate(1177.047 55.16) rotate(90)" fill="#f40" stroke="rgba(0,0,0,0)" stroke-width="2"/>
    </g>
  </g>
</svg>
