<svg xmlns="http://www.w3.org/2000/svg" width="755.348" height="57.989" viewBox="0 0 755.348 57.989">
  <g id="Group_6087" data-name="Group 6087" transform="translate(-146.717 -3013.686)">
    <g id="Group_5495" data-name="Group 5495" transform="translate(147.203 3024.137)">
      <path id="Path_11104" data-name="Path 11104" d="M12582.668,20940.109s84.393-46.939,153.806-10.986,122.845,16.313,153.972,0,82.729-29.295,140.822,3.5,121.348,6.49,151.31-6.492,129-3.33,154.471,10.652" transform="translate(-12582.668 -20912.291)" fill="none" stroke="#f40" stroke-width="2"/>
    </g>
    <path id="Path_11181" data-name="Path 11181" d="M8.665,0,0,14.131H17.33Z" transform="translate(241.582 3019.102) rotate(90)" fill="#f40" stroke="rgba(0,0,0,0)" stroke-width="2"/>
    <path id="Path_11182" data-name="Path 11182" d="M8.665,0,0,14.131H17.33Z" transform="translate(385.402 3052.559) rotate(90)" fill="#f40" stroke="rgba(0,0,0,0)" stroke-width="2"/>
    <path id="Path_11183" data-name="Path 11183" d="M8.665,0,0,14.131H17.33Z" transform="translate(526.723 3015.472) rotate(90)" fill="#f40" stroke="rgba(0,0,0,0)" stroke-width="2"/>
    <path id="Path_11184" data-name="Path 11184" d="M8.665,0,0,14.131H17.33Z" transform="translate(667.361 3051.586) rotate(90)" fill="#f40" stroke="rgba(0,0,0,0)" stroke-width="2"/>
    <path id="Path_11185" data-name="Path 11185" d="M8.665,0,0,14.131H17.33Z" transform="translate(821.666 3024.137) rotate(90)" fill="#f40" stroke="rgba(0,0,0,0)" stroke-width="2"/>
  </g>
</svg>
