<svg xmlns="http://www.w3.org/2000/svg" xmlns:xlink="http://www.w3.org/1999/xlink" width="631" height="43" viewBox="0 0 631 43">
  <defs>
    <clipPath id="clip-path">
      <rect id="Rectangle_5214" data-name="Rectangle 5214" width="631" height="43" transform="translate(3.797 3013.328)" fill="#fff" stroke="#707070" stroke-width="1"/>
    </clipPath>
  </defs>
  <g id="Mask_Group_4530" data-name="Mask Group 4530" transform="translate(-3.797 -3013.328)" clip-path="url(#clip-path)">
    <g id="Group_6088" data-name="Group 6088">
      <g id="Group_5495" data-name="Group 5495" transform="translate(138.713 3020.359)">
        <path id="Path_11104" data-name="Path 11104" d="M12582.669,20933.859s65.425-36.391,119.237-8.52,95.236,12.646,119.366,0,64.137-22.709,109.173,2.713,94.074,5.033,117.3-5.033,100.01-2.58,119.754,8.258" transform="translate(-12582.669 -20912.291)" fill="none" stroke="#f40" stroke-width="2"/>
      </g>
      <path id="Path_11181" data-name="Path 11181" d="M6.717,0,0,10.955H13.435Z" transform="translate(211.881 3016.455) rotate(90)" fill="#f40" stroke="rgba(0,0,0,0)" stroke-width="2"/>
      <path id="Path_11182" data-name="Path 11182" d="M6.717,0,0,10.955H13.435Z" transform="translate(323.377 3042.394) rotate(90)" fill="#f40" stroke="rgba(0,0,0,0)" stroke-width="2"/>
      <path id="Path_11776" data-name="Path 11776" d="M6.717,0,0,10.955H13.435Z" transform="translate(540.377 3041.39) rotate(90)" fill="#f40" stroke="rgba(0,0,0,0)" stroke-width="2"/>
      <path id="Path_11183" data-name="Path 11183" d="M6.717,0,0,10.955H13.435Z" transform="translate(436.607 3013.642) rotate(90)" fill="#f40" stroke="rgba(0,0,0,0)" stroke-width="2"/>
    </g>
  </g>
</svg>
