<svg xmlns="http://www.w3.org/2000/svg" width="142" height="142" viewBox="0 0 142 142">
  <g id="Group_5679" data-name="Group 5679" transform="translate(-1038 -3007)">
    <rect id="Rectangle_4908" data-name="Rectangle 4908" width="142" height="142" rx="71" transform="translate(1038 3007)" fill="#fff"/>
    <g id="Group_5549" data-name="Group 5549" transform="translate(1029.522 2405.617)">
      <g id="Group_5537" data-name="Group 5537" transform="translate(66.598 626.384)">
        <path id="Path_11140" data-name="Path 11140" d="M76.23,686.4H68.3a8.91,8.91,0,0,1-8.912-8.912V661.739a56.872,56.872,0,0,1,12.094-34.97.931.931,0,0,1,.882-.371,1.061,1.061,0,0,1,.233.048.988.988,0,0,1,.453.323,56.85,56.85,0,0,1,12.094,34.97v15.749A8.9,8.9,0,0,1,76.23,686.4Zm-3.967-57.393a54.881,54.881,0,0,0-10.9,32.732v15.749a6.932,6.932,0,0,0,6.929,6.929H76.23a6.926,6.926,0,0,0,6.925-6.929V661.739A54.9,54.9,0,0,0,72.263,629.006Z" transform="translate(-59.383 -626.384)" fill="#f40" stroke="#f40" stroke-width="1"/>
      </g>
      <g id="Group_5538" data-name="Group 5538" transform="translate(70.301 684.416)">
        <path id="Path_11141" data-name="Path 11141" d="M77.817,658.857H61.457a1,1,0,0,1-1-.992v-6.994a7.575,7.575,0,0,1,7.581-7.578h3.188a7.627,7.627,0,0,1,5.357,2.217,7.519,7.519,0,0,1,2.22,5.361v6.994A.992.992,0,0,1,77.817,658.857Zm-15.368-1.984H76.825v-6a5.558,5.558,0,0,0-1.64-3.957,5.631,5.631,0,0,0-3.953-1.637H68.043a5.589,5.589,0,0,0-5.594,5.594Z" transform="translate(-60.462 -643.294)" fill="#f40" stroke="#f40" stroke-width="1"/>
      </g>
      <g id="Group_5539" data-name="Group 5539" transform="translate(74.203 697.996)">
        <path id="Path_11142" data-name="Path 11142" d="M66.87,662.505h0a.982.982,0,0,1-.831-.453l-1.153-1.795A20.513,20.513,0,0,1,61.6,649.111v-.868a1,1,0,0,1,.992-.992h8.562a1,1,0,0,1,.992.992v.868a20.506,20.506,0,0,1-3.288,11.15L67.7,662.052A.988.988,0,0,1,66.87,662.505Zm-3.288-13.271a18.543,18.543,0,0,0,2.969,9.949l.323.5.319-.5a18.544,18.544,0,0,0,2.969-9.949Z" transform="translate(-61.599 -647.251)" fill="#f40" stroke="#f40" stroke-width="1"/>
      </g>
      <g id="Group_5540" data-name="Group 5540" transform="translate(78.482 711.266)">
        <path id="Path_11143" data-name="Path 11143" d="M63.838,656.959a.992.992,0,0,1-.992-.992V652.11a.992.992,0,1,1,1.984,0v3.857A.994.994,0,0,1,63.838,656.959Z" transform="translate(-62.846 -651.118)" fill="#f40" stroke="#f40" stroke-width="1"/>
      </g>
      <g id="Group_5541" data-name="Group 5541" transform="translate(78.482 718.563)">
        <path id="Path_11144" data-name="Path 11144" d="M63.838,657.026a.992.992,0,0,1-.992-.992v-1.8a.992.992,0,1,1,1.984,0v1.8A1,1,0,0,1,63.838,657.026Z" transform="translate(-62.846 -653.244)" fill="#f40" stroke="#f40" stroke-width="1"/>
      </g>
      <g id="Group_5542" data-name="Group 5542" transform="translate(56.416 658.061)">
        <path id="Path_11145" data-name="Path 11145" d="M57.408,662.769a.964.964,0,0,1-.391-.079.99.99,0,0,1-.6-.913v-7.409a17.614,17.614,0,0,1,4.472-11.737l5.964-6.685a.99.99,0,0,1,1.73.659v15.45a.989.989,0,0,1-.305.717l-10.186,9.722A.983.983,0,0,1,57.408,662.769ZM66.6,639.21l-4.231,4.743A15.635,15.635,0,0,0,58.4,654.368v5.093l8.2-7.831Z" transform="translate(-56.416 -635.614)" fill="#f40" stroke="#f40" stroke-width="1"/>
      </g>
      <g id="Group_5543" data-name="Group 5543" transform="translate(90.37 658.062)">
        <path id="Path_11146" data-name="Path 11146" d="M77.487,662.768a.985.985,0,0,1-.686-.274l-10.186-9.722a.989.989,0,0,1-.305-.717V636.6a.992.992,0,0,1,1.733-.659l5.964,6.685a17.624,17.624,0,0,1,4.472,11.737v7.409a.987.987,0,0,1-.992.992Zm-9.194-11.139,8.2,7.831v-5.093a15.632,15.632,0,0,0-3.971-10.416l-4.231-4.743Z" transform="translate(-66.31 -635.615)" fill="#f40" stroke="#f40" stroke-width="1"/>
      </g>
      <g id="Group_5544" data-name="Group 5544" transform="translate(70.301 693.263)">
        <path id="Path_11147" data-name="Path 11147" d="M77.817,647.855H61.457a.992.992,0,1,1,0-1.983H77.817a.992.992,0,1,1,0,1.983Z" transform="translate(-60.462 -645.872)" fill="#f40" stroke="#f40" stroke-width="1"/>
      </g>
      <g id="Group_5585" data-name="Group 5585" transform="translate(72.477 651.435)">
        <path id="Path_11180" data-name="Path 11180" d="M280.871,532.794H270.285a1.708,1.708,0,0,1-1.707-1.707v-1.77a3.061,3.061,0,0,1,2.031-2.878l2.293-.814a.577.577,0,0,0,.382-.467.558.558,0,0,0-.223-.54,4.249,4.249,0,1,1,5.032,0,.559.559,0,0,0-.223.54.577.577,0,0,0,.382.467l2.293.814a3.06,3.06,0,0,1,2.032,2.878v1.77A1.708,1.708,0,0,1,280.871,532.794Zm-5.294-15.383a3.785,3.785,0,0,0-2.242,6.834,1.014,1.014,0,0,1,.407.982,1.046,1.046,0,0,1-.685.835l-2.292.814a2.6,2.6,0,0,0-1.724,2.441v1.77a1.246,1.246,0,0,0,1.244,1.244h10.586a1.245,1.245,0,0,0,1.243-1.244v-1.77a2.6,2.6,0,0,0-1.724-2.441l-2.292-.814a1.048,1.048,0,0,1-.685-.836,1.014,1.014,0,0,1,.407-.981,3.785,3.785,0,0,0-2.243-6.834Z" transform="translate(-268.578 -516.948)" fill="#f40" stroke="#f40" stroke-width="1.3"/>
      </g>
    </g>
  </g>
</svg>
