<svg xmlns="http://www.w3.org/2000/svg" xmlns:xlink="http://www.w3.org/1999/xlink" width="92" height="110" viewBox="0 0 92 110">
  <defs>
    <clipPath id="clip-path">
      <rect id="Rectangle_4595" data-name="Rectangle 4595" width="92" height="110" transform="translate(-0.058 0.569)" fill="#fff" stroke="#707070" stroke-width="1"/>
    </clipPath>
    <clipPath id="clip-path-2">
      <rect id="Rectangle_4588" data-name="Rectangle 4588" width="106.755" height="110.934" fill="none" stroke="#707070" stroke-width="0.5"/>
    </clipPath>
  </defs>
  <g id="Mask_Group_4512" data-name="Mask Group 4512" transform="translate(0.058 -0.569)" clip-path="url(#clip-path)">
    <g id="Group_5126" data-name="Group 5126" transform="translate(0.226 -0.028)">
      <g id="Group_5113" data-name="Group 5113">
        <g id="Group_5112" data-name="Group 5112" clip-path="url(#clip-path-2)">
          <path id="Path_10675" data-name="Path 10675" d="M184.815,376l-10.627,18.407h21.255Z" transform="translate(-131.437 -283.719)" fill="none" stroke="#f40" stroke-width="0.5"/>
        </g>
      </g>
      <path id="Path_10676" data-name="Path 10676" d="M184.815,226l-10.627,18.407h21.255Z" transform="translate(-131.437 -170.533)" fill="none" stroke="#f40" stroke-width="0.5"/>
      <g id="Group_5115" data-name="Group 5115">
        <g id="Group_5114" data-name="Group 5114" clip-path="url(#clip-path-2)">
          <path id="Path_10677" data-name="Path 10677" d="M271.456,376l-10.627,18.407h21.255Z" transform="translate(-196.814 -283.719)" fill="none" stroke="#f40" stroke-width="0.5"/>
          <path id="Path_10678" data-name="Path 10678" d="M98.135,376,87.508,394.407h21.255Z" transform="translate(-66.031 -283.719)" fill="none" stroke="#f40" stroke-width="0.5"/>
        </g>
      </g>
      <path id="Path_10679" data-name="Path 10679" d="M228.155,301l-10.627,18.407h21.255Z" transform="translate(-164.14 -227.126)" fill="none" stroke="#f40" stroke-width="0.5"/>
      <path id="Path_10680" data-name="Path 10680" d="M141.475,301l-10.627,18.407H152.1Z" transform="translate(-98.734 -227.126)" fill="none" stroke="#f40" stroke-width="0.5"/>
      <path id="Path_10681" data-name="Path 10681" d="M141.495,244.407,152.122,226H130.867Z" transform="translate(-98.749 -170.533)" fill="none" stroke="#f40" stroke-width="0.5"/>
      <path id="Path_10682" data-name="Path 10682" d="M98.154,319.407,108.782,301H87.527Z" transform="translate(-66.045 -227.126)" fill="none" stroke="#f40" stroke-width="0.5"/>
      <g id="Group_5117" data-name="Group 5117">
        <g id="Group_5116" data-name="Group 5116" clip-path="url(#clip-path-2)">
          <path id="Path_10683" data-name="Path 10683" d="M11.494,376,.866,394.407H22.121Z" transform="translate(-0.654 -283.719)" fill="none" stroke="#f40" stroke-width="0.5"/>
        </g>
      </g>
      <path id="Path_10684" data-name="Path 10684" d="M54.834,301,44.206,319.407H65.461Z" transform="translate(-33.357 -227.126)" fill="#f40" stroke="#707070" stroke-width="0.5"/>
      <path id="Path_10685" data-name="Path 10685" d="M54.834,301,44.206,319.407H65.461Z" transform="translate(-33.357 -227.126)" fill="none" stroke="#f40" stroke-width="0.5"/>
      <g id="Group_5119" data-name="Group 5119">
        <g id="Group_5118" data-name="Group 5118" clip-path="url(#clip-path-2)">
          <path id="Path_10686" data-name="Path 10686" d="M11.513,319.407,22.14,301H.886Z" transform="translate(-0.668 -227.126)" fill="none" stroke="#f40" stroke-width="0.5"/>
          <path id="Path_10687" data-name="Path 10687" d="M358.044,376l-10.627,18.407h21.255Z" transform="translate(-262.151 -283.719)" fill="none" stroke="#f40" stroke-width="0.5"/>
        </g>
      </g>
      <path id="Path_10688" data-name="Path 10688" d="M314.724,244.407,325.351,226H304.1Z" transform="translate(-229.462 -170.533)" fill="none" stroke="#f40" stroke-width="0.5"/>
      <g id="Group_5121" data-name="Group 5121">
        <g id="Group_5120" data-name="Group 5120" clip-path="url(#clip-path-2)">
          <path id="Path_10689" data-name="Path 10689" d="M314.724,394.407,325.351,376H304.1Z" transform="translate(-229.462 -283.719)" fill="none" stroke="#f40" stroke-width="0.5"/>
        </g>
      </g>
      <path id="Path_10690" data-name="Path 10690" d="M228.082,244.407,238.71,226H217.455Z" transform="translate(-164.085 -170.533)" fill="none" stroke="#f40" stroke-width="0.5"/>
      <path id="Path_10691" data-name="Path 10691" d="M271.384,319.407,282.011,301H260.756Z" transform="translate(-196.759 -227.126)" fill="none" stroke="#f40" stroke-width="0.5"/>
      <g id="Group_5123" data-name="Group 5123">
        <g id="Group_5122" data-name="Group 5122" clip-path="url(#clip-path-2)">
          <path id="Path_10692" data-name="Path 10692" d="M358.064,319.407,368.691,301H347.436Z" transform="translate(-262.166 -227.126)" fill="none" stroke="#f40" stroke-width="0.5"/>
        </g>
      </g>
      <path id="Path_10693" data-name="Path 10693" d="M314.792,151l-10.627,18.407h21.255Z" transform="translate(-229.514 -113.94)" fill="none" stroke="#f40" stroke-width="0.5"/>
      <g id="Group_5125" data-name="Group 5125">
        <g id="Group_5124" data-name="Group 5124" clip-path="url(#clip-path-2)">
          <path id="Path_10694" data-name="Path 10694" d="M314.792,1,304.165,19.407h21.255Z" transform="translate(-229.514 -0.755)" fill="none" stroke="#f40" stroke-width="0.5"/>
          <path id="Path_10695" data-name="Path 10695" d="M358.132,76,347.5,94.407h21.255Z" transform="translate(-262.217 -57.347)" fill="none" stroke="#f40" stroke-width="0.5"/>
          <path id="Path_10696" data-name="Path 10696" d="M271.471,19.407,282.1,1H260.844Z" transform="translate(-196.826 -0.755)" fill="none" stroke="#f40" stroke-width="0.5"/>
        </g>
      </g>
    </g>
  </g>
</svg>
