<svg xmlns="http://www.w3.org/2000/svg" width="142" height="142" viewBox="0 0 142 142">
  <g id="Group_5680" data-name="Group 5680" transform="translate(-1337 -3007)">
    <rect id="Rectangle_4909" data-name="Rectangle 4909" width="142" height="142" rx="71" transform="translate(1337 3007)" fill="#fff"/>
    <g id="Group_5584" data-name="Group 5584" transform="translate(1100.244 2525.178)">
      <g id="Group_5564" data-name="Group 5564" transform="translate(294.265 506.521)">
        <g id="Group_5557" data-name="Group 5557" transform="translate(6.267 1.237)">
          <path id="Path_11157" data-name="Path 11157" d="M275.731,508.954a.77.77,0,0,1-.386-1.434c.322-.187.653-.362.987-.521a.767.767,0,0,1,.659,1.385c-.3.144-.585.3-.87.466A.773.773,0,0,1,275.731,508.954Z" transform="translate(-274.964 -506.925)" fill="#f40" stroke="#f40" stroke-width="1.3"/>
        </g>
        <g id="Group_5558" data-name="Group 5558" transform="translate(0.119 3.955)">
          <path id="Path_11158" data-name="Path 11158" d="M273.725,515.943a1,1,0,0,1-.132-.009.772.772,0,0,1-.625-.889,13.458,13.458,0,0,1,3.533-6.993.766.766,0,1,1,1.109,1.057,11.913,11.913,0,0,0-3.126,6.2A.769.769,0,0,1,273.725,515.943Z" transform="translate(-272.957 -507.812)" fill="#f40" stroke="#f40" stroke-width="1.3"/>
        </g>
        <g id="Group_5559" data-name="Group 5559">
          <path id="Path_11159" data-name="Path 11159" d="M286.373,533.57a13.477,13.477,0,0,1-13.45-12.123.76.76,0,0,1,.683-.84.747.747,0,0,1,.843.683,11.968,11.968,0,1,0,9.49-12.99.767.767,0,1,1-.31-1.5,13.323,13.323,0,0,1,2.743-.279,13.525,13.525,0,1,1,0,27.049Z" transform="translate(-272.918 -506.521)" fill="#f40" stroke="#f40" stroke-width="1.3"/>
        </g>
        <g id="Group_5560" data-name="Group 5560" transform="translate(10.27 7.685)">
          <path id="Path_11160" data-name="Path 11160" d="M279.454,515.636h-.647a2.54,2.54,0,0,1-2.537-2.537v-1.532a2.538,2.538,0,0,1,2.537-2.537h3.068a.768.768,0,1,1,0,1.535h-3.068a1,1,0,0,0-1,1V513.1a1,1,0,0,0,1,1h.647a.768.768,0,1,1,0,1.535Z" transform="translate(-276.27 -509.029)" fill="#f40" stroke="#f40" stroke-width="1.3"/>
        </g>
        <g id="Group_5561" data-name="Group 5561" transform="translate(10.27 12.757)">
          <path id="Path_11161" data-name="Path 11161" d="M280.1,517.291h-3.064a.768.768,0,1,1,0-1.535H280.1a1,1,0,0,0,1.005-1v-1.538a1,1,0,0,0-1.005-1h-.65a.768.768,0,0,1,0-1.535h.65a2.54,2.54,0,0,1,2.54,2.534v1.538A2.54,2.54,0,0,1,280.1,517.291Z" transform="translate(-276.27 -510.684)" fill="#f40" stroke="#f40" stroke-width="1.3"/>
        </g>
        <g id="Group_5562" data-name="Group 5562" transform="translate(12.909 5.369)">
          <path id="Path_11162" data-name="Path 11162" d="M277.9,512.125a.769.769,0,0,1-.766-.769v-2.314a.768.768,0,1,1,1.535,0v2.314A.772.772,0,0,1,277.9,512.125Z" transform="translate(-277.131 -508.273)" fill="#f40" stroke="#f40" stroke-width="1.3"/>
        </g>
        <g id="Group_5563" data-name="Group 5563" transform="translate(12.909 17.829)">
          <path id="Path_11163" data-name="Path 11163" d="M277.9,516.188a.766.766,0,0,1-.766-.766v-2.314a.768.768,0,1,1,1.535,0v2.314A.769.769,0,0,1,277.9,516.188Z" transform="translate(-277.131 -512.339)" fill="#f40" stroke="#f40" stroke-width="1.3"/>
        </g>
      </g>
      <g id="Group_5572" data-name="Group 5572" transform="translate(322.687 522.361)">
        <g id="Group_5565" data-name="Group 5565" transform="translate(3.464 0.685)">
          <path id="Path_11164" data-name="Path 11164" d="M283.748,513.034a.43.43,0,0,1-.368-.211.425.425,0,0,1,.156-.579c.178-.1.359-.2.542-.288a.424.424,0,1,1,.365.766c-.165.077-.322.166-.481.254A.42.42,0,0,1,283.748,513.034Z" transform="translate(-283.324 -511.913)" fill="#f40" stroke="#f40" stroke-width="1.3"/>
        </g>
        <g id="Group_5566" data-name="Group 5566" transform="translate(0.066 2.187)">
          <path id="Path_11165" data-name="Path 11165" d="M282.639,516.9l-.073-.006a.423.423,0,0,1-.343-.493,7.408,7.408,0,0,1,1.952-3.864.424.424,0,1,1,.613.585,6.574,6.574,0,0,0-1.728,3.426A.424.424,0,0,1,282.639,516.9Z" transform="translate(-282.215 -512.404)" fill="#f40" stroke="#f40" stroke-width="1.3"/>
        </g>
        <g id="Group_5567" data-name="Group 5567">
          <path id="Path_11166" data-name="Path 11166" d="M289.633,526.647a7.453,7.453,0,0,1-7.437-6.7.419.419,0,0,1,.377-.463.412.412,0,0,1,.466.377,6.629,6.629,0,1,0,6.595-7.318,6.476,6.476,0,0,0-1.345.138.426.426,0,0,1-.175-.834,7.48,7.48,0,1,1,1.52,14.8Z" transform="translate(-282.193 -511.69)" fill="#f40" stroke="#f40" stroke-width="1.3"/>
        </g>
        <g id="Group_5568" data-name="Group 5568" transform="translate(5.678 4.25)">
          <path id="Path_11167" data-name="Path 11167" d="M285.808,516.73h-.359a1.405,1.405,0,0,1-1.4-1.4v-.849a1.4,1.4,0,0,1,1.4-1.4h1.695a.424.424,0,1,1,0,.849h-1.695a.554.554,0,0,0-.555.552v.849a.554.554,0,0,0,.555.555h.359a.424.424,0,0,1,0,.849Z" transform="translate(-284.046 -513.077)" fill="#f40" stroke="#f40" stroke-width="1.3"/>
        </g>
        <g id="Group_5569" data-name="Group 5569" transform="translate(5.678 7.054)">
          <path id="Path_11168" data-name="Path 11168" d="M286.167,517.645h-1.7a.424.424,0,0,1,0-.849h1.7a.556.556,0,0,0,.555-.555v-.849a.556.556,0,0,0-.555-.551h-.359a.424.424,0,1,1,0-.849h.359a1.4,1.4,0,0,1,1.4,1.4v.849A1.405,1.405,0,0,1,286.167,517.645Z" transform="translate(-284.046 -513.992)" fill="#f40" stroke="#f40" stroke-width="1.3"/>
        </g>
        <g id="Group_5570" data-name="Group 5570" transform="translate(7.136 2.969)">
          <path id="Path_11169" data-name="Path 11169" d="M284.945,514.789a.426.426,0,0,1-.423-.426v-1.281a.424.424,0,0,1,.849,0v1.281A.427.427,0,0,1,284.945,514.789Z" transform="translate(-284.522 -512.659)" fill="#f40" stroke="#f40" stroke-width="1.3"/>
        </g>
        <g id="Group_5571" data-name="Group 5571" transform="translate(7.136 9.858)">
          <path id="Path_11170" data-name="Path 11170" d="M284.945,517.034a.424.424,0,0,1-.423-.423V515.33a.424.424,0,0,1,.849,0v1.281A.424.424,0,0,1,284.945,517.034Z" transform="translate(-284.522 -514.907)" fill="#f40" stroke="#f40" stroke-width="1.3"/>
        </g>
      </g>
      <g id="Group_5580" data-name="Group 5580" transform="translate(278.943 522.361)">
        <g id="Group_5573" data-name="Group 5573" transform="translate(3.466 0.685)">
          <path id="Path_11171" data-name="Path 11171" d="M269.474,513.034a.424.424,0,0,1-.214-.791c.178-.1.362-.2.545-.288a.424.424,0,1,1,.365.766c-.166.077-.325.166-.481.254A.42.42,0,0,1,269.474,513.034Z" transform="translate(-269.049 -511.913)" fill="#f40" stroke="#f40" stroke-width="1.3"/>
        </g>
        <g id="Group_5574" data-name="Group 5574" transform="translate(0.067 2.187)">
          <path id="Path_11172" data-name="Path 11172" d="M268.366,516.9l-.074-.006a.428.428,0,0,1-.346-.493,7.436,7.436,0,0,1,1.955-3.864.424.424,0,1,1,.613.585,6.573,6.573,0,0,0-1.728,3.426A.426.426,0,0,1,268.366,516.9Z" transform="translate(-267.94 -512.404)" fill="#f40" stroke="#f40" stroke-width="1.3"/>
        </g>
        <g id="Group_5575" data-name="Group 5575">
          <path id="Path_11173" data-name="Path 11173" d="M275.358,526.647a7.457,7.457,0,0,1-7.437-6.7.421.421,0,0,1,.38-.463.414.414,0,0,1,.466.377,6.629,6.629,0,1,0,6.591-7.318,6.519,6.519,0,0,0-1.345.138.426.426,0,0,1-.172-.834,7.48,7.48,0,1,1,1.517,14.8Z" transform="translate(-267.918 -511.69)" fill="#f40" stroke="#f40" stroke-width="1.3"/>
        </g>
        <g id="Group_5576" data-name="Group 5576" transform="translate(5.681 4.25)">
          <path id="Path_11174" data-name="Path 11174" d="M271.531,516.73h-.359a1.4,1.4,0,0,1-1.4-1.4v-.849a1.4,1.4,0,0,1,1.4-1.4h1.7a.424.424,0,0,1,0,.849h-1.7a.553.553,0,0,0-.552.552v.849a.554.554,0,0,0,.552.555h.359a.424.424,0,1,1,0,.849Z" transform="translate(-269.772 -513.077)" fill="#f40" stroke="#f40" stroke-width="1.3"/>
        </g>
        <g id="Group_5577" data-name="Group 5577" transform="translate(5.681 7.054)">
          <path id="Path_11175" data-name="Path 11175" d="M271.889,517.645h-1.695a.424.424,0,0,1,0-.849h1.695a.555.555,0,0,0,.555-.555v-.849a.554.554,0,0,0-.555-.551h-.359a.424.424,0,0,1,0-.849h.359a1.4,1.4,0,0,1,1.4,1.4v.849A1.4,1.4,0,0,1,271.889,517.645Z" transform="translate(-269.772 -513.992)" fill="#f40" stroke="#f40" stroke-width="1.3"/>
        </g>
        <g id="Group_5578" data-name="Group 5578" transform="translate(7.139 2.969)">
          <path id="Path_11176" data-name="Path 11176" d="M270.671,514.789a.426.426,0,0,1-.423-.426v-1.281a.424.424,0,0,1,.849,0v1.281A.429.429,0,0,1,270.671,514.789Z" transform="translate(-270.248 -512.659)" fill="#f40" stroke="#f40" stroke-width="1.3"/>
        </g>
        <g id="Group_5579" data-name="Group 5579" transform="translate(7.139 9.858)">
          <path id="Path_11177" data-name="Path 11177" d="M270.671,517.034a.424.424,0,0,1-.423-.423V515.33a.424.424,0,0,1,.849,0v1.281A.426.426,0,0,1,270.671,517.034Z" transform="translate(-270.248 -514.907)" fill="#f40" stroke="#f40" stroke-width="1.3"/>
        </g>
      </g>
      <g id="Group_5581" data-name="Group 5581" transform="translate(320.204 543.606)">
        <path id="Path_11178" data-name="Path 11178" d="M307.577,569.008H294.906a.886.886,0,0,1,0-1.771h12.671a4.769,4.769,0,0,0,4.762-4.765v-4.606A8.046,8.046,0,0,0,307,550.3l-7.244-2.574a3.464,3.464,0,0,1-2.265-2.764,3.356,3.356,0,0,1,1.342-3.245,11.8,11.8,0,0,0-6.99-21.319,11.708,11.708,0,0,0-7.137,2.4.865.865,0,0,1-.536.181h-1.9a.886.886,0,0,1,0-1.771h1.6a13.581,13.581,0,0,1,21.546,11,13.622,13.622,0,0,1-5.537,10.937,1.627,1.627,0,0,0-.644,1.563,1.671,1.671,0,0,0,1.106,1.351l7.247,2.574a9.822,9.822,0,0,1,6.524,9.239v4.606A6.544,6.544,0,0,1,307.577,569.008Z" transform="translate(-281.383 -518.623)" fill="#f40" stroke="#f40" stroke-width="1.3"/>
      </g>
      <g id="Group_5582" data-name="Group 5582" transform="translate(262.578 543.606)">
        <path id="Path_11179" data-name="Path 11179" d="M281.786,569.008H269.111a6.542,6.542,0,0,1-6.533-6.536v-4.606a9.822,9.822,0,0,1,6.524-9.239l7.241-2.574a1.669,1.669,0,0,0,1.109-1.351,1.619,1.619,0,0,0-.647-1.563,13.577,13.577,0,0,1,8.047-24.515,13.458,13.458,0,0,1,7.964,2.58h1.606a.886.886,0,0,1,0,1.771h-1.9a.864.864,0,0,1-.536-.181,11.811,11.811,0,0,0-18.947,9.408,11.855,11.855,0,0,0,4.817,9.512,3.358,3.358,0,0,1,1.342,3.248,3.46,3.46,0,0,1-2.265,2.761L269.7,550.3a8.049,8.049,0,0,0-5.347,7.569v4.606a4.772,4.772,0,0,0,4.762,4.765h12.674a.886.886,0,0,1,0,1.771Z" transform="translate(-262.578 -518.623)" fill="#f40" stroke="#f40" stroke-width="1.3"/>
      </g>
      <g id="Group_5583" data-name="Group 5583" transform="translate(280.964 538.473)">
        <path id="Path_11180" data-name="Path 11180" d="M315.629,577.6H275.111a6.539,6.539,0,0,1-6.533-6.533V564.29a11.716,11.716,0,0,1,7.774-11.013l8.776-3.116a2.209,2.209,0,0,0,1.462-1.787,2.137,2.137,0,0,0-.852-2.068,16.261,16.261,0,1,1,19.26,0,2.14,2.14,0,0,0-.852,2.068,2.209,2.209,0,0,0,1.462,1.787l8.776,3.116a11.711,11.711,0,0,1,7.777,11.013v6.775A6.539,6.539,0,0,1,315.629,577.6Zm-20.262-58.879a14.486,14.486,0,0,0-8.58,26.158,3.882,3.882,0,0,1,1.557,3.757,4,4,0,0,1-2.623,3.2l-8.773,3.117a9.937,9.937,0,0,0-6.6,9.343v6.775a4.769,4.769,0,0,0,4.762,4.762h40.517a4.766,4.766,0,0,0,4.759-4.762V564.29a9.933,9.933,0,0,0-6.6-9.343l-8.773-3.117a4.01,4.01,0,0,1-2.623-3.2,3.883,3.883,0,0,1,1.557-3.754,14.485,14.485,0,0,0-8.583-26.158Z" transform="translate(-268.578 -516.948)" fill="#f40" stroke="#f40" stroke-width="1.3"/>
      </g>
    </g>
  </g>
</svg>
