<svg xmlns="http://www.w3.org/2000/svg" xmlns:xlink="http://www.w3.org/1999/xlink" width="408" height="493" viewBox="0 0 408 493">
  <defs>
    <clipPath id="clip-path">
      <rect id="Rectangle_1800" data-name="Rectangle 1800" width="408" height="493" transform="translate(0 6763)" fill="#fff" stroke="#707070" stroke-width="1"/>
    </clipPath>
    <clipPath id="clip-path-2">
      <rect id="Rectangle_1003" data-name="Rectangle 1003" width="474.229" height="492.793" fill="none" stroke="#fff" stroke-width="1"/>
    </clipPath>
  </defs>
  <g id="Mask_Group_83" data-name="Mask Group 83" transform="translate(0 -6763)" clip-path="url(#clip-path)">
    <g id="Group_2021" data-name="Group 2021" transform="translate(-66.229 6763.207)">
      <g id="Group_714" data-name="Group 714">
        <g id="Group_713" data-name="Group 713" clip-path="url(#clip-path-2)">
          <path id="Path_2311" data-name="Path 2311" d="M221.4,376l47.209,81.769H174.188Z" transform="translate(15.715 33.934)" fill="none" stroke="#fff" stroke-width="1"/>
        </g>
      </g>
      <path id="Path_2312" data-name="Path 2312" d="M221.4,226l47.209,81.769H174.188Z" transform="translate(15.715 20.396)" fill="none" stroke="#fff" stroke-width="1"/>
      <g id="Group_716" data-name="Group 716">
        <g id="Group_715" data-name="Group 715" clip-path="url(#clip-path-2)">
          <path id="Path_2313" data-name="Path 2313" d="M308.038,376l47.209,81.769H260.829Z" transform="translate(-165.387 33.934)" fill="none" stroke="#fff" stroke-width="1"/>
          <path id="Path_2314" data-name="Path 2314" d="M134.717,376l47.209,81.769H87.508Z" transform="translate(196.899 33.934)" fill="none" stroke="#fff" stroke-width="1"/>
        </g>
      </g>
      <path id="Path_2315" data-name="Path 2315" d="M264.737,301l47.209,81.769H217.528Z" transform="translate(-74.876 27.165)" fill="none" stroke="#fff" stroke-width="1"/>
      <path id="Path_2316" data-name="Path 2316" d="M178.057,301l47.209,81.769H130.848Z" transform="translate(106.307 27.165)" fill="none" stroke="#fff" stroke-width="1"/>
      <path id="Path_2317" data-name="Path 2317" d="M178.076,307.769,130.867,226h94.418Z" transform="translate(106.266 20.396)" fill="none" stroke="#fff" stroke-width="1"/>
      <path id="Path_2318" data-name="Path 2318" d="M134.736,382.769,87.527,301h94.418Z" transform="translate(196.858 27.165)" fill="none" stroke="#fff" stroke-width="1"/>
      <g id="Group_718" data-name="Group 718">
        <g id="Group_717" data-name="Group 717" clip-path="url(#clip-path-2)">
          <path id="Path_2319" data-name="Path 2319" d="M48.075,376l47.209,81.769H.866Z" transform="translate(378.001 33.934)" fill="none" stroke="#fff" stroke-width="1"/>
        </g>
      </g>
      <path id="Path_2320" data-name="Path 2320" d="M91.415,301l47.209,81.769H44.206Z" transform="translate(287.409 27.165)" fill="none" stroke="#fff" stroke-width="1"/>
      <path id="Path_2321" data-name="Path 2321" d="M91.415,301l47.209,81.769H44.206Z" transform="translate(287.409 27.165)" fill="none" stroke="#fff" stroke-width="1"/>
      <g id="Group_720" data-name="Group 720">
        <g id="Group_719" data-name="Group 719" clip-path="url(#clip-path-2)">
          <path id="Path_2322" data-name="Path 2322" d="M48.095,382.769.886,301H95.3Z" transform="translate(377.96 27.165)" fill="none" stroke="#fff" stroke-width="1"/>
          <path id="Path_2323" data-name="Path 2323" d="M394.626,376l47.209,81.769H347.417Z" transform="translate(-346.377 33.934)" fill="none" stroke="#fff" stroke-width="1"/>
        </g>
      </g>
      <path id="Path_2324" data-name="Path 2324" d="M351.305,307.769,304.1,226h94.418Z" transform="translate(-255.826 20.396)" fill="none" stroke="#fff" stroke-width="1"/>
      <g id="Group_722" data-name="Group 722">
        <g id="Group_721" data-name="Group 721" clip-path="url(#clip-path-2)">
          <path id="Path_2325" data-name="Path 2325" d="M351.305,457.769,304.1,376h94.418Z" transform="translate(-255.826 33.934)" fill="none" stroke="#fff" stroke-width="1"/>
        </g>
      </g>
      <path id="Path_2326" data-name="Path 2326" d="M264.664,307.769,217.455,226h94.418Z" transform="translate(-74.724 20.396)" fill="none" stroke="#fff" stroke-width="1"/>
      <path id="Path_2327" data-name="Path 2327" d="M307.965,382.769,260.756,301h94.418Z" transform="translate(-165.234 27.165)" fill="none" stroke="#fff" stroke-width="1"/>
      <g id="Group_724" data-name="Group 724">
        <g id="Group_723" data-name="Group 723" clip-path="url(#clip-path-2)">
          <path id="Path_2328" data-name="Path 2328" d="M394.645,382.769,347.436,301h94.418Z" transform="translate(-346.417 27.165)" fill="none" stroke="#fff" stroke-width="1"/>
        </g>
      </g>
      <path id="Path_2329" data-name="Path 2329" d="M351.374,151l47.209,81.769H304.165Z" transform="translate(-255.969 13.628)" fill="none" stroke="#fff" stroke-width="1"/>
      <g id="Group_726" data-name="Group 726">
        <g id="Group_725" data-name="Group 725" clip-path="url(#clip-path-2)">
          <path id="Path_2330" data-name="Path 2330" d="M351.374,1l47.209,81.769H304.165Z" transform="translate(-255.969 0.09)" fill="none" stroke="#fff" stroke-width="1"/>
          <path id="Path_2331" data-name="Path 2331" d="M394.714,76l47.209,81.769H347.5Z" transform="translate(-346.56 6.859)" fill="none" stroke="#fff" stroke-width="1"/>
          <path id="Path_2332" data-name="Path 2332" d="M308.053,82.769,260.844,1h94.418Z" transform="translate(-165.418 0.09)" fill="none" stroke="#fff" stroke-width="1"/>
        </g>
      </g>
    </g>
  </g>
</svg>
