<svg xmlns="http://www.w3.org/2000/svg" xmlns:xlink="http://www.w3.org/1999/xlink" width="256" height="367" viewBox="0 0 256 367">
  <defs>
    <clipPath id="clip-path">
      <rect id="Rectangle_1850" data-name="Rectangle 1850" width="256" height="367" transform="translate(435 4818)" fill="#fff" stroke="#707070" stroke-width="1"/>
    </clipPath>
    <clipPath id="clip-path-2">
      <rect id="Rectangle_1843" data-name="Rectangle 1843" width="353.257" height="367.085" fill="none" stroke="#fff" stroke-width="1"/>
    </clipPath>
  </defs>
  <g id="Mask_Group_91" data-name="Mask Group 91" transform="translate(-435 -4818)" clip-path="url(#clip-path)">
    <g id="Group_2113" data-name="Group 2113" transform="translate(788.08 5185.085) rotate(180)">
      <g id="Group_2100" data-name="Group 2100">
        <g id="Group_2099" data-name="Group 2099" clip-path="url(#clip-path-2)">
          <path id="Path_6043" data-name="Path 6043" d="M35.166,0,70.333,60.91H0Z" transform="translate(141.46 305.363)" fill="none" stroke="#fff" stroke-width="1"/>
        </g>
      </g>
      <path id="Path_6044" data-name="Path 6044" d="M35.166,0,70.333,60.91H0Z" transform="translate(141.46 183.542)" fill="none" stroke="#fff" stroke-width="1"/>
      <g id="Group_2102" data-name="Group 2102">
        <g id="Group_2101" data-name="Group 2101" clip-path="url(#clip-path-2)">
          <path id="Path_6045" data-name="Path 6045" d="M35.166,0,70.333,60.91H0Z" transform="translate(71.096 305.363)" fill="none" stroke="#fff" stroke-width="1"/>
          <path id="Path_6046" data-name="Path 6046" d="M35.166,0,70.333,60.91H0Z" transform="translate(211.856 305.363)" fill="none" stroke="#fff" stroke-width="1"/>
        </g>
      </g>
      <path id="Path_6047" data-name="Path 6047" d="M35.166,0,70.333,60.91H0Z" transform="translate(106.262 244.452)" fill="none" stroke="#fff" stroke-width="1"/>
      <path id="Path_6048" data-name="Path 6048" d="M35.166,0,70.333,60.91H0Z" transform="translate(176.658 244.452)" fill="none" stroke="#fff" stroke-width="1"/>
      <path id="Path_6049" data-name="Path 6049" d="M35.166,60.91,0,0H70.333Z" transform="translate(176.642 183.542)" fill="none" stroke="#fff" stroke-width="1"/>
      <path id="Path_6050" data-name="Path 6050" d="M35.166,60.91,0,0H70.333Z" transform="translate(211.84 244.452)" fill="none" stroke="#fff" stroke-width="1"/>
      <g id="Group_2104" data-name="Group 2104">
        <g id="Group_2103" data-name="Group 2103" clip-path="url(#clip-path-2)">
          <path id="Path_6051" data-name="Path 6051" d="M35.166,0,70.332,60.91H0Z" transform="translate(282.221 305.363)" fill="none" stroke="#fff" stroke-width="1"/>
        </g>
      </g>
      <path id="Path_6052" data-name="Path 6052" d="M35.166,0,70.333,60.91H0Z" transform="translate(247.023 244.452)" fill="none" stroke="#fff" stroke-width="1"/>
      <path id="Path_6053" data-name="Path 6053" d="M35.166,0,70.333,60.91H0Z" transform="translate(247.023 244.452)" fill="none" stroke="#fff" stroke-width="1"/>
      <g id="Group_2106" data-name="Group 2106">
        <g id="Group_2105" data-name="Group 2105" clip-path="url(#clip-path-2)">
          <path id="Path_6054" data-name="Path 6054" d="M35.166,60.91,0,0H70.332Z" transform="translate(282.205 244.452)" fill="none" stroke="#fff" stroke-width="1"/>
          <path id="Path_6055" data-name="Path 6055" d="M35.166,0,70.333,60.91H0Z" transform="translate(0.775 305.363)" fill="none" stroke="#fff" stroke-width="1"/>
        </g>
      </g>
      <path id="Path_6056" data-name="Path 6056" d="M35.166,60.91,0,0H70.333Z" transform="translate(35.957 183.542)" fill="none" stroke="#fff" stroke-width="1"/>
      <g id="Group_2108" data-name="Group 2108">
        <g id="Group_2107" data-name="Group 2107" clip-path="url(#clip-path-2)">
          <path id="Path_6057" data-name="Path 6057" d="M35.166,60.91,0,0H70.333Z" transform="translate(35.957 305.363)" fill="none" stroke="#fff" stroke-width="1"/>
        </g>
      </g>
      <path id="Path_6058" data-name="Path 6058" d="M35.166,60.91,0,0H70.332Z" transform="translate(106.322 183.542)" fill="none" stroke="#fff" stroke-width="1"/>
      <path id="Path_6059" data-name="Path 6059" d="M35.166,60.91,0,0H70.333Z" transform="translate(71.155 244.452)" fill="none" stroke="#fff" stroke-width="1"/>
      <g id="Group_2110" data-name="Group 2110">
        <g id="Group_2109" data-name="Group 2109" clip-path="url(#clip-path-2)">
          <path id="Path_6060" data-name="Path 6060" d="M35.166,60.91,0,0H70.333Z" transform="translate(0.759 244.452)" fill="none" stroke="#fff" stroke-width="1"/>
        </g>
      </g>
      <path id="Path_6061" data-name="Path 6061" d="M35.166,0,70.333,60.91H0Z" transform="translate(35.901 122.632)" fill="none" stroke="#fff" stroke-width="1"/>
      <g id="Group_2112" data-name="Group 2112">
        <g id="Group_2111" data-name="Group 2111" clip-path="url(#clip-path-2)">
          <path id="Path_6062" data-name="Path 6062" d="M35.166,0,70.333,60.91H0Z" transform="translate(35.901 0.812)" fill="none" stroke="#fff" stroke-width="1"/>
          <path id="Path_6063" data-name="Path 6063" d="M35.166,0,70.333,60.91H0Z" transform="translate(0.703 61.722)" fill="none" stroke="#fff" stroke-width="1"/>
          <path id="Path_6064" data-name="Path 6064" d="M35.166,60.91,0,0H70.333Z" transform="translate(71.084 0.812)" fill="none" stroke="#fff" stroke-width="1"/>
        </g>
      </g>
    </g>
  </g>
</svg>
