<svg xmlns="http://www.w3.org/2000/svg" xmlns:xlink="http://www.w3.org/1999/xlink" width="293" height="239" viewBox="0 0 293 239">
  <defs>
    <clipPath id="clip-path">
      <rect id="Rectangle_1861" data-name="Rectangle 1861" width="293" height="239" transform="translate(731 4809)" fill="#fff" stroke="#707070" stroke-width="1"/>
    </clipPath>
    <clipPath id="clip-path-2">
      <rect id="Rectangle_1854" data-name="Rectangle 1854" width="459.51" height="477.497" fill="none" stroke="#fff" stroke-width="1"/>
    </clipPath>
  </defs>
  <g id="Mask_Group_95" data-name="Mask Group 95" transform="translate(-731 -4809)" clip-path="url(#clip-path)">
    <g id="Group_2131" data-name="Group 2131" transform="translate(1253.755 5286.497) rotate(180)">
      <g id="Group_2118" data-name="Group 2118">
        <g id="Group_2117" data-name="Group 2117" clip-path="url(#clip-path-2)">
          <path id="Path_6068" data-name="Path 6068" d="M219.931,376l45.744,79.231H174.188Z" transform="translate(9.821 21.21)" fill="none" stroke="#fff" stroke-width="1"/>
        </g>
      </g>
      <path id="Path_6069" data-name="Path 6069" d="M219.931,226l45.744,79.231H174.188Z" transform="translate(9.821 12.749)" fill="none" stroke="#fff" stroke-width="1"/>
      <g id="Group_2120" data-name="Group 2120">
        <g id="Group_2119" data-name="Group 2119" clip-path="url(#clip-path-2)">
          <path id="Path_6070" data-name="Path 6070" d="M306.573,376l45.744,79.231H260.829Z" transform="translate(-168.349 21.21)" fill="none" stroke="#fff" stroke-width="1"/>
          <path id="Path_6071" data-name="Path 6071" d="M133.251,376l45.744,79.231H87.508Z" transform="translate(188.071 21.21)" fill="none" stroke="#fff" stroke-width="1"/>
        </g>
      </g>
      <path id="Path_6072" data-name="Path 6072" d="M263.272,301l45.744,79.231H217.528Z" transform="translate(-79.304 16.979)" fill="none" stroke="#fff" stroke-width="1"/>
      <path id="Path_6073" data-name="Path 6073" d="M176.591,301l45.744,79.231H130.848Z" transform="translate(98.946 16.979)" fill="none" stroke="#fff" stroke-width="1"/>
      <path id="Path_6074" data-name="Path 6074" d="M176.611,305.231,130.867,226h91.487Z" transform="translate(98.906 12.749)" fill="none" stroke="#fff" stroke-width="1"/>
      <path id="Path_6075" data-name="Path 6075" d="M133.271,380.231,87.527,301h91.487Z" transform="translate(188.031 16.979)" fill="none" stroke="#fff" stroke-width="1"/>
      <g id="Group_2122" data-name="Group 2122">
        <g id="Group_2121" data-name="Group 2121" clip-path="url(#clip-path-2)">
          <path id="Path_6076" data-name="Path 6076" d="M46.61,376l45.744,79.231H.866Z" transform="translate(366.241 21.21)" fill="none" stroke="#fff" stroke-width="1"/>
        </g>
      </g>
      <path id="Path_6077" data-name="Path 6077" d="M89.95,301l45.744,79.231H44.206Z" transform="translate(277.116 16.979)" fill="none" stroke="#fff" stroke-width="1"/>
      <path id="Path_6078" data-name="Path 6078" d="M89.95,301l45.744,79.231H44.206Z" transform="translate(277.116 16.979)" fill="none" stroke="#fff" stroke-width="1"/>
      <g id="Group_2124" data-name="Group 2124">
        <g id="Group_2123" data-name="Group 2123" clip-path="url(#clip-path-2)">
          <path id="Path_6079" data-name="Path 6079" d="M46.629,380.231.886,301H92.373Z" transform="translate(366.201 16.979)" fill="none" stroke="#fff" stroke-width="1"/>
          <path id="Path_6080" data-name="Path 6080" d="M393.161,376,438.9,455.231H347.417Z" transform="translate(-346.409 21.21)" fill="none" stroke="#fff" stroke-width="1"/>
        </g>
      </g>
      <path id="Path_6081" data-name="Path 6081" d="M349.84,305.231,304.1,226h91.487Z" transform="translate(-257.324 12.749)" fill="none" stroke="#fff" stroke-width="1"/>
      <g id="Group_2126" data-name="Group 2126">
        <g id="Group_2125" data-name="Group 2125" clip-path="url(#clip-path-2)">
          <path id="Path_6082" data-name="Path 6082" d="M349.84,455.231,304.1,376h91.487Z" transform="translate(-257.324 21.21)" fill="none" stroke="#fff" stroke-width="1"/>
        </g>
      </g>
      <path id="Path_6083" data-name="Path 6083" d="M263.2,305.231,217.455,226h91.487Z" transform="translate(-79.154 12.749)" fill="none" stroke="#fff" stroke-width="1"/>
      <path id="Path_6084" data-name="Path 6084" d="M306.5,380.231,260.756,301h91.487Z" transform="translate(-168.199 16.979)" fill="none" stroke="#fff" stroke-width="1"/>
      <g id="Group_2128" data-name="Group 2128">
        <g id="Group_2127" data-name="Group 2127" clip-path="url(#clip-path-2)">
          <path id="Path_6085" data-name="Path 6085" d="M393.18,380.231,347.436,301h91.487Z" transform="translate(-346.449 16.979)" fill="none" stroke="#fff" stroke-width="1"/>
        </g>
      </g>
      <path id="Path_6086" data-name="Path 6086" d="M349.908,151l45.744,79.231H304.165Z" transform="translate(-257.465 8.518)" fill="none" stroke="#fff" stroke-width="1"/>
      <g id="Group_2130" data-name="Group 2130">
        <g id="Group_2129" data-name="Group 2129" clip-path="url(#clip-path-2)">
          <path id="Path_6087" data-name="Path 6087" d="M349.908,1l45.744,79.231H304.165Z" transform="translate(-257.465 0.056)" fill="none" stroke="#fff" stroke-width="1"/>
          <path id="Path_6088" data-name="Path 6088" d="M393.248,76l45.744,79.231H347.5Z" transform="translate(-346.59 4.287)" fill="none" stroke="#fff" stroke-width="1"/>
          <path id="Path_6089" data-name="Path 6089" d="M306.588,80.231,260.844,1h91.487Z" transform="translate(-168.38 0.056)" fill="none" stroke="#fff" stroke-width="1"/>
        </g>
      </g>
    </g>
  </g>
</svg>
