<svg xmlns="http://www.w3.org/2000/svg" xmlns:xlink="http://www.w3.org/1999/xlink" width="102" height="120.043" viewBox="0 0 102 120.043">
  <defs>
    <clipPath id="clip-path">
      <rect id="Rectangle_6897" data-name="Rectangle 6897" width="102" height="120.043" transform="translate(1192.479 1768.327)" fill="#fff" stroke="#707070" stroke-width="1"/>
    </clipPath>
  </defs>
  <g id="Mask_Group_4565" data-name="Mask Group 4565" transform="translate(-1192.479 -1768.327)" clip-path="url(#clip-path)">
    <g id="Group_8667" data-name="Group 8667" transform="translate(1164.655 1768.204)">
      <path id="Path_14799" data-name="Path 14799" d="M187.108,395.924,200.028,376h-25.84Z" transform="translate(-122.216 -375.734)" fill="none" stroke="#f40" stroke-width="1"/>
      <rect id="Rectangle_6890" data-name="Rectangle 6890" width="129.784" height="120.077" transform="translate(0 0)" fill="none" stroke="rgba(0,0,0,0)" stroke-width="1"/>
      <path id="Path_14800" data-name="Path 14800" d="M187.108,245.924,200.028,226h-25.84Z" transform="translate(-122.216 -185.886)" fill="none" stroke="#f40" stroke-width="1"/>
      <path id="Path_14801" data-name="Path 14801" d="M273.749,395.924,286.669,376h-25.84Z" transform="translate(-234.709 -375.734)" fill="none" stroke="#f40" stroke-width="1"/>
      <path id="Path_14802" data-name="Path 14802" d="M100.428,395.924,113.347,376H87.508Z" transform="translate(-9.673 -375.734)" fill="none" stroke="#f40" stroke-width="1"/>
      <rect id="Rectangle_6891" data-name="Rectangle 6891" width="129.784" height="120.077" transform="translate(0 0)" fill="none" stroke="rgba(0,0,0,0)" stroke-width="1"/>
      <path id="Path_14803" data-name="Path 14803" d="M230.448,320.924,243.368,301h-25.84Z" transform="translate(-178.487 -280.811)" fill="none" stroke="#f40" stroke-width="1"/>
      <path id="Path_14804" data-name="Path 14804" d="M143.768,320.924,156.687,301h-25.84Z" transform="translate(-65.944 -280.811)" fill="none" stroke="#f40" stroke-width="1"/>
      <path id="Path_14805" data-name="Path 14805" d="M143.787,226l-12.92,19.924h25.84Z" transform="translate(-65.97 -185.886)" fill="none" stroke="#f40" stroke-width="1"/>
      <path id="Path_14806" data-name="Path 14806" d="M100.447,301l-12.92,19.924h25.84Z" transform="translate(-9.697 -280.811)" fill="none" stroke="#f40" stroke-width="1"/>
      <path id="Path_14807" data-name="Path 14807" d="M13.786,395.924,26.706,376H.866Z" transform="translate(102.82 -375.734)" fill="none" stroke="#f40" stroke-width="1"/>
      <rect id="Rectangle_6892" data-name="Rectangle 6892" width="129.784" height="120.077" transform="translate(0 0)" fill="none" stroke="rgba(0,0,0,0)" stroke-width="1"/>
      <path id="Path_14808" data-name="Path 14808" d="M57.126,320.924,70.046,301H44.206Z" transform="translate(46.549 -280.811)" fill="#f40" stroke="rgba(0,0,0,0)" stroke-width="1"/>
      <path id="Path_14809" data-name="Path 14809" d="M57.126,320.924,70.046,301H44.206Z" transform="translate(46.549 -280.811)" fill="none" stroke="#f40" stroke-width="1"/>
      <path id="Path_14810" data-name="Path 14810" d="M13.806,301,.886,320.924h25.84Z" transform="translate(102.795 -280.811)" fill="none" stroke="#f40" stroke-width="1"/>
      <path id="Path_14811" data-name="Path 14811" d="M360.337,395.924,373.257,376h-25.84Z" transform="translate(-347.132 -375.734)" fill="none" stroke="#f40" stroke-width="1"/>
      <rect id="Rectangle_6893" data-name="Rectangle 6893" width="129.784" height="120.077" transform="translate(0 0)" fill="none" stroke="rgba(0,0,0,0)" stroke-width="1"/>
      <path id="Path_14812" data-name="Path 14812" d="M317.016,226,304.1,245.924h25.84Z" transform="translate(-290.886 -185.886)" fill="none" stroke="#f40" stroke-width="1"/>
      <path id="Path_14813" data-name="Path 14813" d="M317.016,376,304.1,395.924h25.84Z" transform="translate(-290.886 -375.734)" fill="none" stroke="#f40" stroke-width="1"/>
      <rect id="Rectangle_6894" data-name="Rectangle 6894" width="129.784" height="120.077" transform="translate(0 0)" fill="none" stroke="rgba(0,0,0,0)" stroke-width="1"/>
      <path id="Path_14814" data-name="Path 14814" d="M230.375,226l-12.92,19.924h25.84Z" transform="translate(-178.393 -185.886)" fill="none" stroke="#f40" stroke-width="1"/>
      <path id="Path_14815" data-name="Path 14815" d="M273.676,301l-12.92,19.924H286.6Z" transform="translate(-234.614 -280.811)" fill="none" stroke="#f40" stroke-width="1"/>
      <path id="Path_14816" data-name="Path 14816" d="M360.356,301l-12.92,19.924h25.84Z" transform="translate(-347.157 -280.811)" fill="none" stroke="#f40" stroke-width="1"/>
      <rect id="Rectangle_6895" data-name="Rectangle 6895" width="129.784" height="120.077" transform="translate(0 0)" fill="none" stroke="rgba(0,0,0,0)" stroke-width="1"/>
      <path id="Path_14817" data-name="Path 14817" d="M317.085,170.924,330,151h-25.84Z" transform="translate(-290.975 -90.962)" fill="none" stroke="#f40" stroke-width="1"/>
      <path id="Path_14818" data-name="Path 14818" d="M317.085,20.924,330,1h-25.84Z" transform="translate(-290.975 98.886)" fill="none" stroke="#f40" stroke-width="1"/>
      <path id="Path_14819" data-name="Path 14819" d="M360.425,95.924,373.344,76H347.5Z" transform="translate(-347.246 3.962)" fill="none" stroke="#f40" stroke-width="1"/>
      <path id="Path_14820" data-name="Path 14820" d="M273.764,1l-12.92,19.924h25.84Z" transform="translate(-234.729 98.886)" fill="none" stroke="#f40" stroke-width="1"/>
      <rect id="Rectangle_6896" data-name="Rectangle 6896" width="129.784" height="120.077" transform="translate(0 0)" fill="none" stroke="rgba(0,0,0,0)" stroke-width="1"/>
    </g>
  </g>
</svg>
