<svg xmlns="http://www.w3.org/2000/svg" xmlns:xlink="http://www.w3.org/1999/xlink" width="240" height="376" viewBox="0 0 240 376">
  <defs>
    <clipPath id="clip-path">
      <rect id="Rectangle_1798" data-name="Rectangle 1798" width="240" height="376" transform="translate(-0.247 0.456)" fill="#fff" stroke="#707070" stroke-width="1"/>
    </clipPath>
    <clipPath id="clip-path-2">
      <rect id="Rectangle_1791" data-name="Rectangle 1791" width="301.586" height="314.208" fill="none"/>
    </clipPath>
  </defs>
  <g id="Mask_Group_81" data-name="Mask Group 81" transform="translate(0.247 -0.456)" clip-path="url(#clip-path)">
    <g id="Group_2020" data-name="Group 2020" transform="translate(0.318 62.249)">
      <g id="Group_2007" data-name="Group 2007">
        <g id="Group_2006" data-name="Group 2006" clip-path="url(#clip-path-2)">
          <path id="Path_5930" data-name="Path 5930" d="M204.21,376l-30.022,52.136h60.045Z" transform="translate(-53.416 -114.624)" fill="none" stroke="#f40" stroke-width="1"/>
        </g>
      </g>
      <path id="Path_5931" data-name="Path 5931" d="M204.21,226l-30.022,52.136h60.045Z" transform="translate(-53.416 -68.896)" fill="none" stroke="#f40" stroke-width="1"/>
      <g id="Group_2009" data-name="Group 2009">
        <g id="Group_2008" data-name="Group 2008" clip-path="url(#clip-path-2)">
          <path id="Path_5932" data-name="Path 5932" d="M290.852,376l-30.023,52.136h60.045Z" transform="translate(-79.985 -114.624)" fill="none" stroke="#f40" stroke-width="1"/>
          <path id="Path_5933" data-name="Path 5933" d="M117.53,376,87.508,428.136h60.045Z" transform="translate(-26.835 -114.624)" fill="none" stroke="#f40" stroke-width="1"/>
        </g>
      </g>
      <path id="Path_5934" data-name="Path 5934" d="M247.55,301l-30.022,52.136h60.045Z" transform="translate(-66.706 -91.76)" fill="none" stroke="#f40" stroke-width="1"/>
      <path id="Path_5935" data-name="Path 5935" d="M160.87,301l-30.022,52.136h60.045Z" transform="translate(-40.125 -91.76)" fill="none" stroke="#f40" stroke-width="1"/>
      <path id="Path_5936" data-name="Path 5936" d="M160.89,278.136,190.912,226H130.867Z" transform="translate(-40.131 -68.896)" fill="none" stroke="#f40" stroke-width="1"/>
      <path id="Path_5937" data-name="Path 5937" d="M117.55,353.136,147.572,301H87.527Z" transform="translate(-26.841 -91.76)" fill="none" stroke="#f40" stroke-width="1"/>
      <g id="Group_2011" data-name="Group 2011">
        <g id="Group_2010" data-name="Group 2010" clip-path="url(#clip-path-2)">
          <path id="Path_5938" data-name="Path 5938" d="M30.889,376,.866,428.136H60.911Z" transform="translate(-0.266 -114.624)" fill="none" stroke="#f40" stroke-width="1"/>
        </g>
      </g>
      <path id="Path_5939" data-name="Path 5939" d="M74.229,301,44.206,353.136h60.045Z" transform="translate(-13.556 -91.76)" fill="#f40"/>
      <path id="Path_5940" data-name="Path 5940" d="M74.229,301,44.206,353.136h60.045Z" transform="translate(-13.556 -91.76)" fill="none" stroke="#f40" stroke-width="1"/>
      <g id="Group_2013" data-name="Group 2013">
        <g id="Group_2012" data-name="Group 2012" clip-path="url(#clip-path-2)">
          <path id="Path_5941" data-name="Path 5941" d="M30.908,353.136,60.931,301H.886Z" transform="translate(-0.272 -91.76)" fill="none" stroke="#f40" stroke-width="1"/>
          <path id="Path_5942" data-name="Path 5942" d="M377.44,376l-30.023,52.136h60.045Z" transform="translate(-106.538 -114.624)" fill="none" stroke="#f40" stroke-width="1"/>
        </g>
      </g>
      <path id="Path_5943" data-name="Path 5943" d="M334.119,278.136,364.141,226H304.1Z" transform="translate(-93.253 -68.896)" fill="none" stroke="#f40" stroke-width="1"/>
      <g id="Group_2015" data-name="Group 2015">
        <g id="Group_2014" data-name="Group 2014" clip-path="url(#clip-path-2)">
          <path id="Path_5944" data-name="Path 5944" d="M334.119,428.136,364.141,376H304.1Z" transform="translate(-93.253 -114.624)" fill="none" stroke="#f40" stroke-width="1"/>
        </g>
      </g>
      <path id="Path_5945" data-name="Path 5945" d="M247.477,278.136,277.5,226H217.455Z" transform="translate(-66.684 -68.896)" fill="none" stroke="#f40" stroke-width="1"/>
      <path id="Path_5946" data-name="Path 5946" d="M290.779,353.136,320.8,301H260.756Z" transform="translate(-79.963 -91.76)" fill="none" stroke="#f40" stroke-width="1"/>
      <g id="Group_2017" data-name="Group 2017">
        <g id="Group_2016" data-name="Group 2016" clip-path="url(#clip-path-2)">
          <path id="Path_5947" data-name="Path 5947" d="M377.459,353.136,407.481,301H347.436Z" transform="translate(-106.544 -91.76)" fill="none" stroke="#f40" stroke-width="1"/>
        </g>
      </g>
      <path id="Path_5948" data-name="Path 5948" d="M334.187,151l-30.022,52.136H364.21Z" transform="translate(-93.274 -46.032)" fill="none" stroke="#f40" stroke-width="1"/>
      <g id="Group_2019" data-name="Group 2019">
        <g id="Group_2018" data-name="Group 2018" clip-path="url(#clip-path-2)">
          <path id="Path_5949" data-name="Path 5949" d="M334.187,1,304.165,53.136H364.21Z" transform="translate(-93.274 -0.305)" fill="none" stroke="#f40" stroke-width="1"/>
          <path id="Path_5950" data-name="Path 5950" d="M377.527,76,347.5,128.136H407.55Z" transform="translate(-106.565 -23.169)" fill="none" stroke="#f40" stroke-width="1"/>
          <path id="Path_5951" data-name="Path 5951" d="M290.867,53.136,320.889,1H260.844Z" transform="translate(-79.989 -0.305)" fill="none" stroke="#f40" stroke-width="1"/>
        </g>
      </g>
    </g>
  </g>
</svg>
