<svg xmlns="http://www.w3.org/2000/svg" xmlns:xlink="http://www.w3.org/1999/xlink" width="240" height="370" viewBox="0 0 240 370">
  <defs>
    <clipPath id="clip-path">
      <rect id="Rectangle_6905" data-name="Rectangle 6905" width="240" height="370" transform="translate(-0.247 0.455)" fill="#fff" stroke="#707070" stroke-width="1"/>
    </clipPath>
    <clipPath id="clip-path-2">
      <rect id="Rectangle_6898" data-name="Rectangle 6898" width="301.585" height="309.192" fill="none"/>
    </clipPath>
  </defs>
  <g id="Mask_Group_4566" data-name="Mask Group 4566" transform="translate(0.247 -0.455)" clip-path="url(#clip-path)">
    <g id="Group_8682" data-name="Group 8682" transform="translate(-62.397 0.456)">
      <g id="Group_8669" data-name="Group 8669">
        <g id="Group_8668" data-name="Group 8668" clip-path="url(#clip-path-2)">
          <path id="Path_14821" data-name="Path 14821" d="M204.21,427.3,234.233,376H174.188Z" transform="translate(-53.42 -375.316)" fill="none" stroke="#f40" stroke-width="1"/>
        </g>
      </g>
      <path id="Path_14822" data-name="Path 14822" d="M204.21,277.3,234.233,226H174.188Z" transform="translate(-53.42 -122.708)" fill="none" stroke="#f40" stroke-width="1"/>
      <g id="Group_8671" data-name="Group 8671">
        <g id="Group_8670" data-name="Group 8670" clip-path="url(#clip-path-2)">
          <path id="Path_14823" data-name="Path 14823" d="M290.852,427.3,320.874,376H260.829Z" transform="translate(-200.133 -375.316)" fill="none" stroke="#f40" stroke-width="1"/>
          <path id="Path_14824" data-name="Path 14824" d="M117.53,427.3,147.552,376H87.508Z" transform="translate(93.36 -375.316)" fill="none" stroke="#f40" stroke-width="1"/>
        </g>
      </g>
      <path id="Path_14825" data-name="Path 14825" d="M247.55,352.3,277.573,301H217.528Z" transform="translate(-126.809 -249.012)" fill="none" stroke="#f40" stroke-width="1"/>
      <path id="Path_14826" data-name="Path 14826" d="M160.87,352.3,190.893,301H130.848Z" transform="translate(19.97 -249.012)" fill="none" stroke="#f40" stroke-width="1"/>
      <path id="Path_14827" data-name="Path 14827" d="M160.89,226l-30.022,51.3h60.045Z" transform="translate(19.937 -122.708)" fill="none" stroke="#f40" stroke-width="1"/>
      <path id="Path_14828" data-name="Path 14828" d="M117.549,301,87.527,352.3h60.045Z" transform="translate(93.327 -249.012)" fill="none" stroke="#f40" stroke-width="1"/>
      <g id="Group_8673" data-name="Group 8673">
        <g id="Group_8672" data-name="Group 8672" clip-path="url(#clip-path-2)">
          <path id="Path_14829" data-name="Path 14829" d="M30.889,427.3,60.911,376H.866Z" transform="translate(240.073 -375.316)" fill="none" stroke="#f40" stroke-width="1"/>
        </g>
      </g>
      <path id="Path_14830" data-name="Path 14830" d="M74.229,352.3,104.251,301H44.206Z" transform="translate(166.684 -249.012)" fill="#f40"/>
      <path id="Path_14831" data-name="Path 14831" d="M74.229,352.3,104.251,301H44.206Z" transform="translate(166.684 -249.012)" fill="none" stroke="#f40" stroke-width="1"/>
      <g id="Group_8675" data-name="Group 8675">
        <g id="Group_8674" data-name="Group 8674" clip-path="url(#clip-path-2)">
          <path id="Path_14832" data-name="Path 14832" d="M30.908,301,.886,352.3H60.93Z" transform="translate(240.04 -249.012)" fill="none" stroke="#f40" stroke-width="1"/>
          <path id="Path_14833" data-name="Path 14833" d="M377.439,427.3,407.462,376H347.417Z" transform="translate(-346.756 -375.316)" fill="none" stroke="#f40" stroke-width="1"/>
        </g>
      </g>
      <path id="Path_14834" data-name="Path 14834" d="M334.119,226,304.1,277.3h60.045Z" transform="translate(-273.399 -122.708)" fill="none" stroke="#f40" stroke-width="1"/>
      <g id="Group_8677" data-name="Group 8677">
        <g id="Group_8676" data-name="Group 8676" clip-path="url(#clip-path-2)">
          <path id="Path_14835" data-name="Path 14835" d="M334.119,376,304.1,427.3h60.045Z" transform="translate(-273.399 -375.316)" fill="none" stroke="#f40" stroke-width="1"/>
        </g>
      </g>
      <path id="Path_14836" data-name="Path 14836" d="M247.477,226l-30.022,51.3H277.5Z" transform="translate(-126.685 -122.708)" fill="none" stroke="#f40" stroke-width="1"/>
      <path id="Path_14837" data-name="Path 14837" d="M290.779,301l-30.022,51.3H320.8Z" transform="translate(-200.009 -249.012)" fill="none" stroke="#f40" stroke-width="1"/>
      <g id="Group_8679" data-name="Group 8679">
        <g id="Group_8678" data-name="Group 8678" clip-path="url(#clip-path-2)">
          <path id="Path_14838" data-name="Path 14838" d="M377.459,301l-30.022,51.3h60.045Z" transform="translate(-346.788 -249.012)" fill="none" stroke="#f40" stroke-width="1"/>
        </g>
      </g>
      <path id="Path_14839" data-name="Path 14839" d="M334.187,202.3,364.209,151H304.165Z" transform="translate(-273.515 3.596)" fill="none" stroke="#f40" stroke-width="1"/>
      <g id="Group_8681" data-name="Group 8681">
        <g id="Group_8680" data-name="Group 8680" clip-path="url(#clip-path-2)">
          <path id="Path_14840" data-name="Path 14840" d="M334.187,52.3,364.209,1H304.165Z" transform="translate(-273.515 256.204)" fill="none" stroke="#f40" stroke-width="1"/>
          <path id="Path_14841" data-name="Path 14841" d="M377.527,127.3,407.55,76H347.5Z" transform="translate(-346.904 129.9)" fill="none" stroke="#f40" stroke-width="1"/>
          <path id="Path_14842" data-name="Path 14842" d="M290.866,1,260.844,52.3h60.045Z" transform="translate(-200.158 256.204)" fill="none" stroke="#f40" stroke-width="1"/>
        </g>
      </g>
    </g>
  </g>
</svg>
