<svg xmlns="http://www.w3.org/2000/svg" xmlns:xlink="http://www.w3.org/1999/xlink" width="175" height="275" viewBox="0 0 175 275">
  <defs>
    <clipPath id="clip-path">
      <rect id="Rectangle_6913" data-name="Rectangle 6913" width="175" height="275" transform="translate(0.126 0)" fill="#fff" stroke="#707070" stroke-width="1"/>
    </clipPath>
    <clipPath id="clip-path-2">
      <rect id="Rectangle_6906" data-name="Rectangle 6906" width="220.291" height="229.512" fill="none"/>
    </clipPath>
  </defs>
  <g id="Mask_Group_4567" data-name="Mask Group 4567" transform="translate(-0.126 0)" clip-path="url(#clip-path)">
    <g id="Group_8697" data-name="Group 8697" transform="translate(-45.271 0)">
      <g id="Group_8684" data-name="Group 8684" transform="translate(0 0)">
        <g id="Group_8683" data-name="Group 8683" clip-path="url(#clip-path-2)">
          <path id="Path_14843" data-name="Path 14843" d="M196.118,414.083,218.047,376H174.188Z" transform="translate(-85.973 -375.492)" fill="none" stroke="#f40" stroke-width="1"/>
        </g>
      </g>
      <path id="Path_14844" data-name="Path 14844" d="M196.118,264.083,218.047,226H174.188Z" transform="translate(-85.973 -149.327)" fill="none" stroke="#f40" stroke-width="1"/>
      <g id="Group_8686" data-name="Group 8686" transform="translate(0 0)">
        <g id="Group_8685" data-name="Group 8685" clip-path="url(#clip-path-2)">
          <path id="Path_14845" data-name="Path 14845" d="M282.759,414.083,304.689,376H260.829Z" transform="translate(-216.494 -375.492)" fill="none" stroke="#f40" stroke-width="1"/>
          <path id="Path_14846" data-name="Path 14846" d="M109.437,414.083,131.367,376H87.508Z" transform="translate(44.606 -375.492)" fill="none" stroke="#f40" stroke-width="1"/>
        </g>
      </g>
      <path id="Path_14847" data-name="Path 14847" d="M239.458,339.083,261.387,301H217.528Z" transform="translate(-151.263 -262.41)" fill="none" stroke="#f40" stroke-width="1"/>
      <path id="Path_14848" data-name="Path 14848" d="M152.777,339.083,174.707,301H130.848Z" transform="translate(-20.684 -262.41)" fill="none" stroke="#f40" stroke-width="1"/>
      <path id="Path_14849" data-name="Path 14849" d="M152.8,226l-21.93,38.083h43.859Z" transform="translate(-20.713 -149.327)" fill="none" stroke="#f40" stroke-width="1"/>
      <path id="Path_14850" data-name="Path 14850" d="M109.457,301l-21.93,38.083h43.859Z" transform="translate(44.577 -262.41)" fill="none" stroke="#f40" stroke-width="1"/>
      <g id="Group_8688" data-name="Group 8688" transform="translate(0 0)">
        <g id="Group_8687" data-name="Group 8687" clip-path="url(#clip-path-2)">
          <path id="Path_14851" data-name="Path 14851" d="M22.8,414.083,44.726,376H.866Z" transform="translate(175.127 -375.492)" fill="none" stroke="#f40" stroke-width="1"/>
        </g>
      </g>
      <path id="Path_14852" data-name="Path 14852" d="M66.136,339.083,88.066,301H44.206Z" transform="translate(109.837 -262.41)" fill="#f40"/>
      <path id="Path_14853" data-name="Path 14853" d="M66.136,339.083,88.066,301H44.206Z" transform="translate(109.837 -262.41)" fill="none" stroke="#f40" stroke-width="1"/>
      <g id="Group_8690" data-name="Group 8690" transform="translate(0 0)">
        <g id="Group_8689" data-name="Group 8689" clip-path="url(#clip-path-2)">
          <path id="Path_14854" data-name="Path 14854" d="M22.815,301,.886,339.083H44.745Z" transform="translate(175.098 -262.41)" fill="none" stroke="#f40" stroke-width="1"/>
          <path id="Path_14855" data-name="Path 14855" d="M369.347,414.083,391.276,376H347.417Z" transform="translate(-346.934 -375.492)" fill="none" stroke="#f40" stroke-width="1"/>
        </g>
      </g>
      <path id="Path_14856" data-name="Path 14856" d="M326.026,226,304.1,264.083h43.859Z" transform="translate(-281.673 -149.327)" fill="none" stroke="#f40" stroke-width="1"/>
      <g id="Group_8692" data-name="Group 8692" transform="translate(0 0)">
        <g id="Group_8691" data-name="Group 8691" clip-path="url(#clip-path-2)">
          <path id="Path_14857" data-name="Path 14857" d="M326.026,376,304.1,414.083h43.859Z" transform="translate(-281.673 -375.492)" fill="none" stroke="#f40" stroke-width="1"/>
        </g>
      </g>
      <path id="Path_14858" data-name="Path 14858" d="M239.385,226l-21.93,38.083h43.859Z" transform="translate(-151.153 -149.327)" fill="none" stroke="#f40" stroke-width="1"/>
      <path id="Path_14859" data-name="Path 14859" d="M282.686,301l-21.93,38.083h43.859Z" transform="translate(-216.384 -262.41)" fill="none" stroke="#f40" stroke-width="1"/>
      <g id="Group_8694" data-name="Group 8694" transform="translate(0 0)">
        <g id="Group_8693" data-name="Group 8693" clip-path="url(#clip-path-2)">
          <path id="Path_14860" data-name="Path 14860" d="M369.366,301l-21.93,38.083H391.3Z" transform="translate(-346.963 -262.41)" fill="none" stroke="#f40" stroke-width="1"/>
        </g>
      </g>
      <path id="Path_14861" data-name="Path 14861" d="M326.094,189.083,348.024,151H304.165Z" transform="translate(-281.776 -36.244)" fill="none" stroke="#f40" stroke-width="1"/>
      <g id="Group_8696" data-name="Group 8696" transform="translate(0 0)">
        <g id="Group_8695" data-name="Group 8695" clip-path="url(#clip-path-2)">
          <path id="Path_14862" data-name="Path 14862" d="M326.094,39.083,348.024,1H304.165Z" transform="translate(-281.776 189.921)" fill="none" stroke="#f40" stroke-width="1"/>
          <path id="Path_14863" data-name="Path 14863" d="M369.435,114.083,391.364,76H347.5Z" transform="translate(-347.066 76.839)" fill="none" stroke="#f40" stroke-width="1"/>
          <path id="Path_14864" data-name="Path 14864" d="M282.774,1l-21.93,38.083H304.7Z" transform="translate(-216.516 189.921)" fill="none" stroke="#f40" stroke-width="1"/>
        </g>
      </g>
    </g>
  </g>
</svg>
