<svg xmlns="http://www.w3.org/2000/svg" xmlns:xlink="http://www.w3.org/1999/xlink" width="102" height="126.947" viewBox="0 0 102 126.947">
  <defs>
    <clipPath id="clip-path">
      <rect id="Rectangle_6889" data-name="Rectangle 6889" width="102" height="126.947" fill="#fff" stroke="#707070" stroke-width="1"/>
    </clipPath>
  </defs>
  <g id="Group_4429" data-name="Group 4429" transform="translate(-1192.479 -1768.327)">
    <g id="Mask_Group_4564" data-name="Mask Group 4564" transform="translate(1192.479 1768.327)" clip-path="url(#clip-path)">
      <g id="Group_8666" data-name="Group 8666" transform="translate(0.039 0.095)">
        <path id="Path_7014" data-name="Path 7014" d="M187.108,376l-12.92,21.07h25.84Z" transform="translate(-122.215 -270.368)" fill="none" stroke="#f40" stroke-width="1"/>
        <rect id="Rectangle_2835" data-name="Rectangle 2835" width="129.784" height="126.983" fill="none" stroke="rgba(0,0,0,0)" stroke-width="1"/>
        <path id="Path_7015" data-name="Path 7015" d="M187.108,226l-12.92,21.07h25.84Z" transform="translate(-122.215 -162.508)" fill="none" stroke="#f40" stroke-width="1"/>
        <path id="Path_7016" data-name="Path 7016" d="M273.749,376l-12.92,21.07h25.84Z" transform="translate(-183.005 -270.368)" fill="none" stroke="#f40" stroke-width="1"/>
        <path id="Path_7017" data-name="Path 7017" d="M100.428,376l-12.92,21.07h25.84Z" transform="translate(-61.399 -270.368)" fill="none" stroke="#f40" stroke-width="1"/>
        <rect id="Rectangle_2836" data-name="Rectangle 2836" width="129.784" height="126.983" fill="none" stroke="rgba(0,0,0,0)" stroke-width="1"/>
        <path id="Path_7018" data-name="Path 7018" d="M230.448,301l-12.92,21.07h25.84Z" transform="translate(-152.624 -216.438)" fill="none" stroke="#f40" stroke-width="1"/>
        <path id="Path_7019" data-name="Path 7019" d="M143.768,301l-12.92,21.07h25.84Z" transform="translate(-91.808 -216.438)" fill="none" stroke="#f40" stroke-width="1"/>
        <path id="Path_7020" data-name="Path 7020" d="M143.787,247.07,156.707,226h-25.84Z" transform="translate(-91.82 -162.508)" fill="none" stroke="#f40" stroke-width="1"/>
        <path id="Path_7021" data-name="Path 7021" d="M100.447,322.07,113.367,301H87.527Z" transform="translate(-61.413 -216.438)" fill="none" stroke="#f40" stroke-width="1"/>
        <path id="Path_7022" data-name="Path 7022" d="M13.786,376,.866,397.07h25.84Z" transform="translate(-0.609 -270.368)" fill="none" stroke="#f40" stroke-width="1"/>
        <rect id="Rectangle_2837" data-name="Rectangle 2837" width="129.784" height="126.983" fill="none" stroke="rgba(0,0,0,0)" stroke-width="1"/>
        <path id="Path_7023" data-name="Path 7023" d="M57.126,301l-12.92,21.07h25.84Z" transform="translate(-31.018 -216.438)" fill="#f40" stroke="rgba(0,0,0,0)" stroke-width="1"/>
        <path id="Path_7024" data-name="Path 7024" d="M57.126,301l-12.92,21.07h25.84Z" transform="translate(-31.018 -216.438)" fill="none" stroke="#f40" stroke-width="1"/>
        <path id="Path_7025" data-name="Path 7025" d="M13.806,322.07,26.725,301H.886Z" transform="translate(-0.623 -216.438)" fill="none" stroke="#f40" stroke-width="1"/>
        <path id="Path_7026" data-name="Path 7026" d="M360.337,376l-12.92,21.07h25.84Z" transform="translate(-243.757 -270.368)" fill="none" stroke="#f40" stroke-width="1"/>
        <rect id="Rectangle_2838" data-name="Rectangle 2838" width="129.784" height="126.983" fill="none" stroke="rgba(0,0,0,0)" stroke-width="1"/>
        <path id="Path_7027" data-name="Path 7027" d="M317.016,247.07,329.936,226H304.1Z" transform="translate(-213.362 -162.508)" fill="none" stroke="#f40" stroke-width="1"/>
        <path id="Path_7028" data-name="Path 7028" d="M317.016,397.07,329.936,376H304.1Z" transform="translate(-213.362 -270.368)" fill="none" stroke="#f40" stroke-width="1"/>
        <rect id="Rectangle_2839" data-name="Rectangle 2839" width="129.784" height="126.983" fill="none" stroke="rgba(0,0,0,0)" stroke-width="1"/>
        <path id="Path_7029" data-name="Path 7029" d="M230.375,247.07,243.294,226h-25.84Z" transform="translate(-152.572 -162.508)" fill="none" stroke="#f40" stroke-width="1"/>
        <path id="Path_7030" data-name="Path 7030" d="M273.676,322.07,286.6,301h-25.84Z" transform="translate(-182.955 -216.438)" fill="none" stroke="#f40" stroke-width="1"/>
        <path id="Path_7031" data-name="Path 7031" d="M360.356,322.07,373.276,301h-25.84Z" transform="translate(-243.771 -216.438)" fill="none" stroke="#f40" stroke-width="1"/>
        <rect id="Rectangle_2840" data-name="Rectangle 2840" width="129.784" height="126.983" fill="none" stroke="rgba(0,0,0,0)" stroke-width="1"/>
        <path id="Path_7032" data-name="Path 7032" d="M317.084,151l-12.92,21.07H330Z" transform="translate(-213.41 -108.579)" fill="none" stroke="#f40" stroke-width="1"/>
        <path id="Path_7033" data-name="Path 7033" d="M317.084,1l-12.92,21.07H330Z" transform="translate(-213.41 -0.719)" fill="none" stroke="#f40" stroke-width="1"/>
        <path id="Path_7034" data-name="Path 7034" d="M360.425,76,347.5,97.07h25.84Z" transform="translate(-243.819 -54.649)" fill="none" stroke="#f40" stroke-width="1"/>
        <path id="Path_7035" data-name="Path 7035" d="M273.764,22.07,286.684,1h-25.84Z" transform="translate(-183.015 -0.719)" fill="none" stroke="#f40" stroke-width="1"/>
        <rect id="Rectangle_2841" data-name="Rectangle 2841" width="129.784" height="126.983" fill="none" stroke="rgba(0,0,0,0)" stroke-width="1"/>
      </g>
    </g>
  </g>
</svg>
