<svg xmlns="http://www.w3.org/2000/svg" xmlns:xlink="http://www.w3.org/1999/xlink" width="175" height="275" viewBox="0 0 175 275">
  <defs>
    <clipPath id="clip-path">
      <rect id="Rectangle_1798" data-name="Rectangle 1798" width="175" height="275" transform="translate(0.127 0)" fill="#fff" stroke="#707070" stroke-width="1"/>
    </clipPath>
    <clipPath id="clip-path-2">
      <rect id="Rectangle_1791" data-name="Rectangle 1791" width="220.292" height="229.512" fill="none"/>
    </clipPath>
  </defs>
  <g id="Mask_Group_81" data-name="Mask Group 81" transform="translate(-0.127 0)" clip-path="url(#clip-path)">
    <g id="Group_2020" data-name="Group 2020" transform="translate(0.232 45.488)">
      <g id="Group_2007" data-name="Group 2007">
        <g id="Group_2006" data-name="Group 2006" clip-path="url(#clip-path-2)">
          <path id="Path_5930" data-name="Path 5930" d="M196.118,376l-21.93,38.083h43.86Z" transform="translate(-85.97 -185.079)" fill="none" stroke="#f40" stroke-width="1"/>
        </g>
      </g>
      <path id="Path_5931" data-name="Path 5931" d="M196.118,226l-21.93,38.083h43.86Z" transform="translate(-85.97 -111.244)" fill="none" stroke="#f40" stroke-width="1"/>
      <g id="Group_2009" data-name="Group 2009">
        <g id="Group_2008" data-name="Group 2008" clip-path="url(#clip-path-2)">
          <path id="Path_5932" data-name="Path 5932" d="M282.759,376l-21.93,38.083h43.86Z" transform="translate(-128.732 -185.079)" fill="none" stroke="#f40" stroke-width="1"/>
          <path id="Path_5933" data-name="Path 5933" d="M109.438,376l-21.93,38.083h43.86Z" transform="translate(-43.189 -185.079)" fill="none" stroke="#f40" stroke-width="1"/>
        </g>
      </g>
      <path id="Path_5934" data-name="Path 5934" d="M239.458,301l-21.93,38.083h43.86Z" transform="translate(-107.361 -148.161)" fill="none" stroke="#f40" stroke-width="1"/>
      <path id="Path_5935" data-name="Path 5935" d="M152.778,301l-21.93,38.083h43.86Z" transform="translate(-64.58 -148.161)" fill="none" stroke="#f40" stroke-width="1"/>
      <path id="Path_5936" data-name="Path 5936" d="M152.8,264.083,174.727,226h-43.86Z" transform="translate(-64.589 -111.244)" fill="none" stroke="#f40" stroke-width="1"/>
      <path id="Path_5937" data-name="Path 5937" d="M109.457,339.083,131.387,301H87.527Z" transform="translate(-43.199 -148.161)" fill="none" stroke="#f40" stroke-width="1"/>
      <g id="Group_2011" data-name="Group 2011">
        <g id="Group_2010" data-name="Group 2010" clip-path="url(#clip-path-2)">
          <path id="Path_5938" data-name="Path 5938" d="M22.8,376,.866,414.083h43.86Z" transform="translate(-0.428 -185.079)" fill="none" stroke="#f40" stroke-width="1"/>
        </g>
      </g>
      <path id="Path_5939" data-name="Path 5939" d="M66.136,301l-21.93,38.083h43.86Z" transform="translate(-21.818 -148.161)" fill="#f40"/>
      <path id="Path_5940" data-name="Path 5940" d="M66.136,301l-21.93,38.083h43.86Z" transform="translate(-21.818 -148.161)" fill="none" stroke="#f40" stroke-width="1"/>
      <g id="Group_2013" data-name="Group 2013">
        <g id="Group_2012" data-name="Group 2012" clip-path="url(#clip-path-2)">
          <path id="Path_5941" data-name="Path 5941" d="M22.816,339.083,44.745,301H.886Z" transform="translate(-0.437 -148.161)" fill="none" stroke="#f40" stroke-width="1"/>
          <path id="Path_5942" data-name="Path 5942" d="M369.347,376l-21.93,38.083h43.86Z" transform="translate(-171.468 -185.079)" fill="none" stroke="#f40" stroke-width="1"/>
        </g>
      </g>
      <path id="Path_5943" data-name="Path 5943" d="M326.026,264.083,347.956,226H304.1Z" transform="translate(-150.087 -111.244)" fill="none" stroke="#f40" stroke-width="1"/>
      <g id="Group_2015" data-name="Group 2015">
        <g id="Group_2014" data-name="Group 2014" clip-path="url(#clip-path-2)">
          <path id="Path_5944" data-name="Path 5944" d="M326.026,414.083,347.956,376H304.1Z" transform="translate(-150.087 -185.079)" fill="none" stroke="#f40" stroke-width="1"/>
        </g>
      </g>
      <path id="Path_5945" data-name="Path 5945" d="M239.385,264.083,261.315,226h-43.86Z" transform="translate(-107.325 -111.244)" fill="none" stroke="#f40" stroke-width="1"/>
      <path id="Path_5946" data-name="Path 5946" d="M282.686,339.083,304.616,301h-43.86Z" transform="translate(-128.696 -148.161)" fill="none" stroke="#f40" stroke-width="1"/>
      <g id="Group_2017" data-name="Group 2017">
        <g id="Group_2016" data-name="Group 2016" clip-path="url(#clip-path-2)">
          <path id="Path_5947" data-name="Path 5947" d="M369.366,339.083,391.3,301h-43.86Z" transform="translate(-171.477 -148.161)" fill="none" stroke="#f40" stroke-width="1"/>
        </g>
      </g>
      <path id="Path_5948" data-name="Path 5948" d="M326.095,151l-21.93,38.083h43.86Z" transform="translate(-150.12 -74.327)" fill="none" stroke="#f40" stroke-width="1"/>
      <g id="Group_2019" data-name="Group 2019">
        <g id="Group_2018" data-name="Group 2018" clip-path="url(#clip-path-2)">
          <path id="Path_5949" data-name="Path 5949" d="M326.095,1l-21.93,38.083h43.86Z" transform="translate(-150.12 -0.492)" fill="none" stroke="#f40" stroke-width="1"/>
          <path id="Path_5950" data-name="Path 5950" d="M369.435,76,347.5,114.083h43.86Z" transform="translate(-171.511 -37.41)" fill="none" stroke="#f40" stroke-width="1"/>
          <path id="Path_5951" data-name="Path 5951" d="M282.774,39.083,304.7,1h-43.86Z" transform="translate(-128.74 -0.492)" fill="none" stroke="#f40" stroke-width="1"/>
        </g>
      </g>
    </g>
  </g>
</svg>
