<svg xmlns="http://www.w3.org/2000/svg" xmlns:xlink="http://www.w3.org/1999/xlink" width="586.979" height="490" viewBox="0 0 586.979 490">
  <defs>
    <clipPath id="clip-path">
      <path id="Path_10862" data-name="Path 10862" d="M746.286,694.7c75.881,2.486,212.44-21.521,253.124-165.05S892.656,419.195,841.2,260.941c-38.359-117.982-379.95-16.348-301.513,286.7C574.176,680.873,680.428,692.539,746.286,694.7Z" transform="translate(-528.029 -213.045)" fill="none"/>
    </clipPath>
    <clipPath id="clip-path-2">
      <path id="Path_10867" data-name="Path 10867" d="M934.736,319.046l-.586,148.772a7.058,7.058,0,0,0,7.047,7.053l228.215.058a7.043,7.043,0,0,0,7.041-7.047l.586-148.759a9,9,0,0,0-8.986-9.005l-224.312-.058a9,9,0,0,0-9.005,8.992Z" transform="translate(-934.15 -310.06)" fill="none"/>
    </clipPath>
  </defs>
  <g id="ilustras_Oqtima_2909_Prancheta_1_copia" transform="translate(-424.62 -213.045)">
    <g id="Group_5395" data-name="Group 5395" transform="translate(491.231 213.045)">
      <path id="Path_10853" data-name="Path 10853" d="M746.286,694.7c75.881,2.486,212.44-21.521,253.124-165.05S892.656,419.195,841.2,260.941c-38.359-117.982-379.95-16.348-301.513,286.7C574.176,680.873,680.428,692.539,746.286,694.7Z" transform="translate(-528.029 -213.045)" fill="#e6ebf0"/>
      <g id="Group_5394" data-name="Group 5394" clip-path="url(#clip-path)">
        <g id="Group_5393" data-name="Group 5393" transform="translate(-201.244 -65.043)">
          <g id="Group_5389" data-name="Group 5389" transform="translate(73.014 77.568)">
            <g id="Group_5383" data-name="Group 5383" transform="translate(85.601)">
              <path id="Path_10854" data-name="Path 10854" d="M499.752,339.766V321.208h30.79V232.49h8.483v88.718h33.167v18.558h17.759V711.742H461.85V339.766Z" transform="translate(-461.85 -232.49)" fill="#c6d0db"/>
              <rect id="Rectangle_4651" data-name="Rectangle 4651" width="17.759" height="334.602" transform="translate(0 107.276)" fill="#aab6c2"/>
            </g>
            <g id="Group_5384" data-name="Group 5384" transform="translate(149.655 195.885)">
              <rect id="Rectangle_4652" data-name="Rectangle 4652" width="128.102" height="283.367" fill="#c6d0db"/>
              <rect id="Rectangle_4653" data-name="Rectangle 4653" width="17.759" height="283.367" fill="#aab6c2"/>
              <rect id="Rectangle_4654" data-name="Rectangle 4654" width="18.384" height="7.627" transform="translate(91.843 12.071)" fill="#aab6c2"/>
              <rect id="Rectangle_4655" data-name="Rectangle 4655" width="18.384" height="7.627" transform="translate(60.891 12.071)" fill="#aab6c2"/>
              <rect id="Rectangle_4656" data-name="Rectangle 4656" width="18.384" height="7.633" transform="translate(91.843 39.853)" fill="#aab6c2"/>
              <rect id="Rectangle_4657" data-name="Rectangle 4657" width="18.384" height="7.633" transform="translate(60.891 39.853)" fill="#aab6c2"/>
              <rect id="Rectangle_4658" data-name="Rectangle 4658" width="18.384" height="7.633" transform="translate(29.946 39.853)" fill="#aab6c2"/>
              <rect id="Rectangle_4659" data-name="Rectangle 4659" width="18.384" height="7.627" transform="translate(91.843 67.629)" fill="#aab6c2"/>
              <rect id="Rectangle_4660" data-name="Rectangle 4660" width="18.384" height="7.627" transform="translate(29.946 67.629)" fill="#aab6c2"/>
              <rect id="Rectangle_4661" data-name="Rectangle 4661" width="18.384" height="7.627" transform="translate(60.891 81.523)" fill="#aab6c2"/>
              <rect id="Rectangle_4662" data-name="Rectangle 4662" width="18.384" height="7.627" transform="translate(91.843 95.411)" fill="#aab6c2"/>
              <rect id="Rectangle_4663" data-name="Rectangle 4663" width="18.384" height="7.627" transform="translate(60.891 109.299)" fill="#aab6c2"/>
              <rect id="Rectangle_4664" data-name="Rectangle 4664" width="18.384" height="7.633" transform="translate(91.843 123.187)" fill="#aab6c2"/>
              <rect id="Rectangle_4665" data-name="Rectangle 4665" width="18.384" height="7.633" transform="translate(29.946 123.187)" fill="#aab6c2"/>
              <rect id="Rectangle_4666" data-name="Rectangle 4666" width="18.384" height="7.627" transform="translate(91.843 148.856)" fill="#aab6c2"/>
              <rect id="Rectangle_4667" data-name="Rectangle 4667" width="18.384" height="7.627" transform="translate(60.891 148.856)" fill="#aab6c2"/>
              <rect id="Rectangle_4668" data-name="Rectangle 4668" width="18.384" height="7.633" transform="translate(91.843 176.638)" fill="#aab6c2"/>
              <rect id="Rectangle_4669" data-name="Rectangle 4669" width="18.384" height="7.633" transform="translate(60.891 176.638)" fill="#aab6c2"/>
              <rect id="Rectangle_4670" data-name="Rectangle 4670" width="18.384" height="7.633" transform="translate(29.946 176.638)" fill="#aab6c2"/>
              <rect id="Rectangle_4671" data-name="Rectangle 4671" width="18.384" height="7.627" transform="translate(91.843 204.42)" fill="#aab6c2"/>
              <rect id="Rectangle_4672" data-name="Rectangle 4672" width="18.384" height="7.627" transform="translate(29.946 204.42)" fill="#aab6c2"/>
              <rect id="Rectangle_4673" data-name="Rectangle 4673" width="18.384" height="7.633" transform="translate(60.891 218.308)" fill="#aab6c2"/>
              <rect id="Rectangle_4674" data-name="Rectangle 4674" width="18.384" height="7.633" transform="translate(29.946 218.308)" fill="#aab6c2"/>
              <rect id="Rectangle_4675" data-name="Rectangle 4675" width="18.384" height="7.633" transform="translate(91.843 232.196)" fill="#aab6c2"/>
              <rect id="Rectangle_4676" data-name="Rectangle 4676" width="18.384" height="7.627" transform="translate(60.891 246.084)" fill="#aab6c2"/>
              <rect id="Rectangle_4677" data-name="Rectangle 4677" width="18.384" height="7.627" transform="translate(91.843 259.978)" fill="#aab6c2"/>
              <rect id="Rectangle_4678" data-name="Rectangle 4678" width="18.384" height="7.627" transform="translate(29.946 259.978)" fill="#aab6c2"/>
            </g>
            <g id="Group_5385" data-name="Group 5385" transform="translate(456.166 195.885)">
              <rect id="Rectangle_4679" data-name="Rectangle 4679" width="128.102" height="283.367" fill="#c6d0db"/>
              <rect id="Rectangle_4680" data-name="Rectangle 4680" width="17.759" height="283.367" fill="#aab6c2"/>
            </g>
            <g id="Group_5386" data-name="Group 5386" transform="translate(274.188 61.104)">
              <rect id="Rectangle_4681" data-name="Rectangle 4681" width="171.878" height="418.148" transform="translate(0)" fill="#c6d0db"/>
              <rect id="Rectangle_4682" data-name="Rectangle 4682" width="17.759" height="418.148" transform="translate(0)" fill="#aab6c2"/>
              <rect id="Rectangle_4683" data-name="Rectangle 4683" width="26.842" height="11.144" transform="translate(126.936 20.027)" fill="#aab6c2"/>
              <rect id="Rectangle_4684" data-name="Rectangle 4684" width="26.842" height="11.144" transform="translate(81.736 20.027)" fill="#aab6c2"/>
              <rect id="Rectangle_4685" data-name="Rectangle 4685" width="26.842" height="11.144" transform="translate(126.936 60.595)" fill="#aab6c2"/>
              <rect id="Rectangle_4686" data-name="Rectangle 4686" width="26.842" height="11.144" transform="translate(81.736 60.595)" fill="#aab6c2"/>
              <rect id="Rectangle_4687" data-name="Rectangle 4687" width="26.842" height="11.144" transform="translate(36.542 60.595)" fill="#aab6c2"/>
              <rect id="Rectangle_4688" data-name="Rectangle 4688" width="26.842" height="11.144" transform="translate(126.936 101.157)" fill="#aab6c2"/>
              <rect id="Rectangle_4689" data-name="Rectangle 4689" width="26.842" height="11.144" transform="translate(36.542 101.157)" fill="#aab6c2"/>
              <rect id="Rectangle_4690" data-name="Rectangle 4690" width="26.842" height="11.144" transform="translate(81.736 121.441)" fill="#aab6c2"/>
              <rect id="Rectangle_4691" data-name="Rectangle 4691" width="26.842" height="11.144" transform="translate(126.936 141.725)" fill="#aab6c2"/>
              <rect id="Rectangle_4692" data-name="Rectangle 4692" width="26.842" height="11.144" transform="translate(81.736 162.01)" fill="#aab6c2"/>
              <rect id="Rectangle_4693" data-name="Rectangle 4693" width="26.842" height="11.144" transform="translate(126.936 182.287)" fill="#aab6c2"/>
              <rect id="Rectangle_4694" data-name="Rectangle 4694" width="26.842" height="11.144" transform="translate(36.542 182.287)" fill="#aab6c2"/>
              <rect id="Rectangle_4695" data-name="Rectangle 4695" width="26.842" height="11.144" transform="translate(126.936 219.777)" fill="#aab6c2"/>
              <rect id="Rectangle_4696" data-name="Rectangle 4696" width="26.842" height="11.144" transform="translate(81.736 219.777)" fill="#aab6c2"/>
              <rect id="Rectangle_4697" data-name="Rectangle 4697" width="26.842" height="11.144" transform="translate(126.936 260.339)" fill="#aab6c2"/>
              <rect id="Rectangle_4698" data-name="Rectangle 4698" width="26.842" height="11.144" transform="translate(81.736 260.339)" fill="#aab6c2"/>
              <rect id="Rectangle_4699" data-name="Rectangle 4699" width="26.842" height="11.144" transform="translate(36.542 260.339)" fill="#aab6c2"/>
              <rect id="Rectangle_4700" data-name="Rectangle 4700" width="26.842" height="11.144" transform="translate(126.936 300.907)" fill="#aab6c2"/>
              <rect id="Rectangle_4701" data-name="Rectangle 4701" width="26.842" height="11.144" transform="translate(36.542 300.907)" fill="#aab6c2"/>
              <rect id="Rectangle_4702" data-name="Rectangle 4702" width="26.842" height="11.144" transform="translate(81.736 321.191)" fill="#aab6c2"/>
              <rect id="Rectangle_4703" data-name="Rectangle 4703" width="26.842" height="11.144" transform="translate(36.542 321.191)" fill="#aab6c2"/>
              <rect id="Rectangle_4704" data-name="Rectangle 4704" width="26.842" height="11.144" transform="translate(126.936 341.469)" fill="#aab6c2"/>
              <rect id="Rectangle_4705" data-name="Rectangle 4705" width="26.842" height="11.144" transform="translate(81.736 361.753)" fill="#aab6c2"/>
              <rect id="Rectangle_4706" data-name="Rectangle 4706" width="26.842" height="11.144" transform="translate(126.936 382.038)" fill="#aab6c2"/>
              <rect id="Rectangle_4707" data-name="Rectangle 4707" width="26.842" height="11.144" transform="translate(36.542 382.038)" fill="#aab6c2"/>
            </g>
            <g id="Group_5387" data-name="Group 5387" transform="translate(544.421 92.274)">
              <rect id="Rectangle_4708" data-name="Rectangle 4708" width="168.464" height="386.978" fill="#c6d0db"/>
              <rect id="Rectangle_4709" data-name="Rectangle 4709" width="17.411" height="386.978" fill="#aab6c2"/>
              <rect id="Rectangle_4710" data-name="Rectangle 4710" width="26.307" height="10.313" transform="translate(124.404 18.532)" fill="#aab6c2"/>
              <rect id="Rectangle_4711" data-name="Rectangle 4711" width="26.307" height="10.313" transform="translate(80.113 18.532)" fill="#aab6c2"/>
              <rect id="Rectangle_4712" data-name="Rectangle 4712" width="26.307" height="10.313" transform="translate(124.404 56.073)" fill="#aab6c2"/>
              <rect id="Rectangle_4713" data-name="Rectangle 4713" width="26.307" height="10.313" transform="translate(80.113 56.073)" fill="#aab6c2"/>
              <rect id="Rectangle_4714" data-name="Rectangle 4714" width="26.307" height="10.313" transform="translate(35.815 56.073)" fill="#aab6c2"/>
              <rect id="Rectangle_4715" data-name="Rectangle 4715" width="26.307" height="10.313" transform="translate(124.404 93.614)" fill="#aab6c2"/>
              <rect id="Rectangle_4716" data-name="Rectangle 4716" width="26.307" height="10.313" transform="translate(35.815 93.614)" fill="#aab6c2"/>
              <rect id="Rectangle_4717" data-name="Rectangle 4717" width="26.307" height="10.313" transform="translate(80.113 112.384)" fill="#aab6c2"/>
              <rect id="Rectangle_4718" data-name="Rectangle 4718" width="26.307" height="10.313" transform="translate(124.404 131.155)" fill="#aab6c2"/>
              <rect id="Rectangle_4719" data-name="Rectangle 4719" width="26.307" height="10.313" transform="translate(80.113 149.932)" fill="#aab6c2"/>
              <rect id="Rectangle_4720" data-name="Rectangle 4720" width="26.307" height="10.313" transform="translate(124.404 168.696)" fill="#aab6c2"/>
              <rect id="Rectangle_4721" data-name="Rectangle 4721" width="26.307" height="10.313" transform="translate(35.815 168.696)" fill="#aab6c2"/>
              <rect id="Rectangle_4722" data-name="Rectangle 4722" width="26.307" height="10.313" transform="translate(124.404 203.39)" fill="#aab6c2"/>
              <rect id="Rectangle_4723" data-name="Rectangle 4723" width="26.307" height="10.313" transform="translate(80.113 203.39)" fill="#aab6c2"/>
              <rect id="Rectangle_4724" data-name="Rectangle 4724" width="26.307" height="10.313" transform="translate(124.404 240.931)" fill="#aab6c2"/>
              <rect id="Rectangle_4725" data-name="Rectangle 4725" width="26.307" height="10.313" transform="translate(80.113 240.931)" fill="#aab6c2"/>
              <rect id="Rectangle_4726" data-name="Rectangle 4726" width="26.307" height="10.313" transform="translate(35.815 240.931)" fill="#aab6c2"/>
              <rect id="Rectangle_4727" data-name="Rectangle 4727" width="26.307" height="10.313" transform="translate(124.404 278.471)" fill="#aab6c2"/>
              <rect id="Rectangle_4728" data-name="Rectangle 4728" width="26.307" height="10.313" transform="translate(35.815 278.471)" fill="#aab6c2"/>
              <rect id="Rectangle_4729" data-name="Rectangle 4729" width="26.307" height="10.313" transform="translate(80.113 297.248)" fill="#aab6c2"/>
              <rect id="Rectangle_4730" data-name="Rectangle 4730" width="26.307" height="10.313" transform="translate(35.815 297.248)" fill="#aab6c2"/>
              <rect id="Rectangle_4731" data-name="Rectangle 4731" width="26.307" height="10.313" transform="translate(124.404 316.012)" fill="#aab6c2"/>
              <rect id="Rectangle_4732" data-name="Rectangle 4732" width="26.307" height="10.313" transform="translate(80.113 334.789)" fill="#aab6c2"/>
              <rect id="Rectangle_4733" data-name="Rectangle 4733" width="26.307" height="10.313" transform="translate(124.404 353.553)" fill="#aab6c2"/>
              <rect id="Rectangle_4734" data-name="Rectangle 4734" width="26.307" height="10.313" transform="translate(35.815 353.553)" fill="#aab6c2"/>
            </g>
            <g id="Group_5388" data-name="Group 5388" transform="translate(0 215.306)">
              <rect id="Rectangle_4735" data-name="Rectangle 4735" width="108.494" height="263.946" fill="#c6d0db"/>
              <rect id="Rectangle_4736" data-name="Rectangle 4736" width="11.215" height="263.946" fill="#aab6c2"/>
              <rect id="Rectangle_4737" data-name="Rectangle 4737" width="16.941" height="7.034" transform="translate(80.126 12.638)" fill="#aab6c2"/>
              <rect id="Rectangle_4738" data-name="Rectangle 4738" width="16.948" height="7.034" transform="translate(51.596 12.638)" fill="#aab6c2"/>
              <rect id="Rectangle_4739" data-name="Rectangle 4739" width="16.941" height="7.034" transform="translate(80.126 38.243)" fill="#aab6c2"/>
              <rect id="Rectangle_4740" data-name="Rectangle 4740" width="16.948" height="7.034" transform="translate(51.596 38.243)" fill="#aab6c2"/>
              <rect id="Rectangle_4741" data-name="Rectangle 4741" width="16.948" height="7.034" transform="translate(23.067 38.243)" fill="#aab6c2"/>
              <rect id="Rectangle_4742" data-name="Rectangle 4742" width="16.941" height="7.034" transform="translate(80.126 63.854)" fill="#aab6c2"/>
              <rect id="Rectangle_4743" data-name="Rectangle 4743" width="16.948" height="7.034" transform="translate(23.067 63.854)" fill="#aab6c2"/>
              <rect id="Rectangle_4744" data-name="Rectangle 4744" width="16.948" height="7.034" transform="translate(51.596 76.654)" fill="#aab6c2"/>
              <rect id="Rectangle_4745" data-name="Rectangle 4745" width="16.941" height="7.034" transform="translate(80.126 89.459)" fill="#aab6c2"/>
              <rect id="Rectangle_4746" data-name="Rectangle 4746" width="16.948" height="7.034" transform="translate(51.596 102.258)" fill="#aab6c2"/>
              <rect id="Rectangle_4747" data-name="Rectangle 4747" width="16.941" height="7.034" transform="translate(80.126 115.064)" fill="#aab6c2"/>
              <rect id="Rectangle_4748" data-name="Rectangle 4748" width="16.948" height="7.034" transform="translate(23.067 115.064)" fill="#aab6c2"/>
              <rect id="Rectangle_4749" data-name="Rectangle 4749" width="16.941" height="7.034" transform="translate(80.126 138.724)" fill="#aab6c2"/>
              <rect id="Rectangle_4750" data-name="Rectangle 4750" width="16.948" height="7.034" transform="translate(51.596 138.724)" fill="#aab6c2"/>
              <rect id="Rectangle_4751" data-name="Rectangle 4751" width="16.941" height="7.034" transform="translate(80.126 164.335)" fill="#aab6c2"/>
              <rect id="Rectangle_4752" data-name="Rectangle 4752" width="16.948" height="7.034" transform="translate(51.596 164.335)" fill="#aab6c2"/>
              <rect id="Rectangle_4753" data-name="Rectangle 4753" width="16.948" height="7.034" transform="translate(23.067 164.335)" fill="#aab6c2"/>
              <rect id="Rectangle_4754" data-name="Rectangle 4754" width="16.941" height="7.034" transform="translate(80.126 189.94)" fill="#aab6c2"/>
              <rect id="Rectangle_4755" data-name="Rectangle 4755" width="16.948" height="7.034" transform="translate(23.067 189.94)" fill="#aab6c2"/>
              <rect id="Rectangle_4756" data-name="Rectangle 4756" width="16.948" height="7.034" transform="translate(51.596 202.739)" fill="#aab6c2"/>
              <rect id="Rectangle_4757" data-name="Rectangle 4757" width="16.948" height="7.034" transform="translate(23.067 202.739)" fill="#aab6c2"/>
              <rect id="Rectangle_4758" data-name="Rectangle 4758" width="16.941" height="7.034" transform="translate(80.126 215.545)" fill="#aab6c2"/>
              <rect id="Rectangle_4759" data-name="Rectangle 4759" width="16.948" height="7.034" transform="translate(51.596 228.35)" fill="#aab6c2"/>
              <rect id="Rectangle_4760" data-name="Rectangle 4760" width="16.941" height="7.034" transform="translate(80.126 241.15)" fill="#aab6c2"/>
              <rect id="Rectangle_4761" data-name="Rectangle 4761" width="16.948" height="7.034" transform="translate(23.067 241.15)" fill="#aab6c2"/>
            </g>
          </g>
          <g id="Group_5392" data-name="Group 5392">
            <g id="Group_5390" data-name="Group 5390" transform="translate(5.031 10.377)">
              <rect id="Rectangle_4762" data-name="Rectangle 4762" width="459.799" height="524.252" fill="#fff" opacity="0.35"/>
              <path id="Path_10855" data-name="Path 10855" d="M449.456,646.276H413.77l191.3-508.786h35.686Z" transform="translate(-291.156 -131.493)" fill="#fff" opacity="0.5"/>
              <path id="Path_10856" data-name="Path 10856" d="M361.493,646.276H343.65l191.3-508.786h17.843Z" transform="translate(-266.204 -131.493)" fill="#fff" opacity="0.5"/>
              <path id="Path_10857" data-name="Path 10857" d="M692.243,676.453H674.4L838.406,222.29v36.594Z" transform="translate(-383.902 -161.669)" fill="#fff" opacity="0.5"/>
            </g>
            <g id="Group_5391" data-name="Group 5391" transform="translate(462.44)">
              <rect id="Rectangle_4763" data-name="Rectangle 4763" width="459.799" height="524.252" transform="translate(4.812)" fill="#fff" opacity="0.35"/>
              <path id="Path_10858" data-name="Path 10858" d="M1039.326,646.276H1003.64l191.3-508.786h35.686Z" transform="translate(-958.472 -121.116)" fill="#fff" opacity="0.5"/>
              <path id="Path_10859" data-name="Path 10859" d="M951.363,646.276H933.52l191.3-508.786h17.843Z" transform="translate(-933.52 -121.116)" fill="#fff" opacity="0.5"/>
              <path id="Path_10860" data-name="Path 10860" d="M1406.123,676.453H1388.28L1552.293,222.29v36.594Z" transform="translate(-1095.347 -151.292)" fill="#fff" opacity="0.6"/>
            </g>
            <path id="Path_10861" data-name="Path 10861" d="M1161.837,219.428v-6h-16.516V118.87h-929.7v11.994h10.016V135.1h296.52v78.328H215.616v6H522.153V373.379H215.616v6H522.153V533.327H215.616v6H522.153V639.638H225.723v3.472H215.61v13.881h929.7v-1.114h0V539.331h16.516v-6h-16.516V379.383h16.516v-6h-16.516V219.434h16.516ZM685.516,379.383H828.722V533.334H685.516Zm0-6V219.434H828.722V373.386Zm0-159.955V135.1H828.722v78.328Zm0,325.906H828.722V639.65H685.567v3.472h-.052ZM838.784,639.65V539.337H981.991V639.65H838.784Zm0-106.317V379.383H981.991V533.334H838.784Zm0-159.955V219.428H981.991V373.379H838.784Zm0-159.955V135.1H981.991v78.328H838.784ZM992.053,135.1H1135.26v78.328H992.053Zm-459.844,0H675.415v78.328H532.208Zm0,84.325H675.415V373.373H532.208Zm0,159.955H675.415V533.327H532.208Zm0,159.955H675.415V643.116h-.052v-3.472H532.208ZM1135.26,643.116h-.052v-3.472H992.053V539.331H1135.26Zm0-109.782H992.053V379.383H1135.26Zm0-159.955H992.053V219.428H1135.26Z" transform="translate(-215.61 -114.49)" fill="#fff"/>
          </g>
        </g>
      </g>
      <path id="Path_10863" data-name="Path 10863" d="M1098.172,370.612c-55.339-38.617-54.695-69-46.327-93.395,9.488-27.653,114.079,21.141,135.87,109.627s-60.292,4.174-89.543-16.233Z" transform="translate(-712.951 -233.128)" fill="#e6ebf0"/>
    </g>
    <g id="Group_5405" data-name="Group 5405" transform="translate(742.056 245.191)">
      <g id="Group_5402" data-name="Group 5402">
        <g id="Group_5396" data-name="Group 5396" transform="translate(0 22.088)">
          <path id="Path_10864" data-name="Path 10864" d="M933.024,535.007a14.088,14.088,0,0,1-14.094-14.049V305.645a6.922,6.922,0,0,1,6.925-6.905H1174.8a6.922,6.922,0,0,1,6.925,6.905V520.952a14.1,14.1,0,0,1-14.1,14.055h-234.6Z" transform="translate(-917.957 -297.774)" fill="#fff"/>
          <path id="Path_10865" data-name="Path 10865" d="M1174.261,299.172a5.953,5.953,0,0,1,5.958,5.939V520.418a13.126,13.126,0,0,1-13.134,13.089H932.48a13.119,13.119,0,0,1-13.128-13.083V305.111a5.957,5.957,0,0,1,5.958-5.939h248.944m0-1.932H925.311a7.9,7.9,0,0,0-7.891,7.871V520.424a15.04,15.04,0,0,0,15.06,15.015h234.6a15.043,15.043,0,0,0,15.067-15.022V305.111a7.9,7.9,0,0,0-7.891-7.871h0Z" transform="translate(-917.42 -297.24)"/>
        </g>
        <g id="Group_5397" data-name="Group 5397" transform="translate(10.777 30.346)" clip-path="url(#clip-path-2)">
          <path id="Path_10866" data-name="Path 10866" d="M931.39,370.831v16.3h-4.11a.47.47,0,0,0,0,.915h4.11v16.3h-4.11a.47.47,0,0,0,0,.915h4.11v14.667h-4.11a.47.47,0,0,0,0,.915h4.11v16.3h-4.11a.47.47,0,0,0,0,.915h4.11v16.3h-4.11a.47.47,0,0,0,0,.915h4.11v16.3h-4.11a.47.47,0,0,0,0,.915h4.11v11.685a.371.371,0,1,0,.721,0V472.5h11.421v11.685a.371.371,0,1,0,.721,0V472.5h11.685v11.685a.371.371,0,1,0,.721,0V472.5h11.421v11.685a.371.371,0,1,0,.721,0V472.5h11.414v11.685a.371.371,0,1,0,.721,0V472.5h11.421v11.685a.371.371,0,1,0,.721,0V472.5H1004.5v11.685a.371.371,0,1,0,.722,0V472.5h11.421v11.685a.371.371,0,1,0,.722,0V472.5h11.421v11.685a.371.371,0,1,0,.721,0V472.5h11.414v11.685a.371.371,0,1,0,.722,0V472.5h11.421v11.685a.414.414,0,0,0,.361.457h0a.418.418,0,0,0,.361-.457V472.5h11.421v11.685a.371.371,0,1,0,.721,0V472.5h11.685v11.685a.371.371,0,1,0,.721,0V472.5h11.421v11.685a.414.414,0,0,0,.361.457.418.418,0,0,0,.361-.457V472.5h11.414v11.685a.371.371,0,1,0,.722,0V472.5h11.421v11.685a.371.371,0,1,0,.721,0V472.5h11.421v11.685a.371.371,0,1,0,.721,0V472.5h11.421v11.685a.371.371,0,1,0,.722,0V472.5h11.421v11.685a.371.371,0,1,0,.722,0V472.5H1162.6v11.685a.371.371,0,1,0,.721,0V472.5h11.421v11.685a.371.371,0,1,0,.722,0V472.5h4.284a.47.47,0,0,0,0-.915h-4.284v-16.3h4.284a.47.47,0,0,0,0-.915h-4.284v-16.3h4.284a.47.47,0,0,0,0-.915h-4.284v-16.3h4.284a.47.47,0,0,0,0-.915h-4.284V405.267h4.284a.47.47,0,0,0,0-.915h-4.284v-16.3h4.284a.47.47,0,0,0,0-.915h-4.284v-16.3h4.284a.47.47,0,0,0,0-.915h-4.284v-16.3h4.284a.47.47,0,0,0,0-.915h-4.284V337.567a.371.371,0,1,0-.722,0V352.7h-11.421V337.567a.371.371,0,1,0-.721,0V352.7h-11.414V337.567a.414.414,0,0,0-.361-.457.418.418,0,0,0-.361.457V352.7h-11.421V337.567a.371.371,0,1,0-.722,0V352.7H1126.9V337.567a.371.371,0,1,0-.721,0V352.7h-11.421V337.567a.371.371,0,1,0-.721,0V352.7h-11.421V337.567a.371.371,0,1,0-.722,0V352.7h-11.414V337.567a.371.371,0,1,0-.722,0V352.7h-11.421V337.567a.371.371,0,1,0-.721,0V352.7h-11.685V337.567a.371.371,0,1,0-.721,0V352.7h-11.421V337.567a.414.414,0,0,0-.361-.457h0a.418.418,0,0,0-.361.457V352.7h-11.421V337.567a.371.371,0,1,0-.722,0V352.7h-11.414V337.567a.371.371,0,1,0-.721,0V352.7h-11.421V337.567a.414.414,0,0,0-.361-.457.418.418,0,0,0-.361.457V352.7h-11.421V337.567a.371.371,0,1,0-.722,0V352.7H993.08V337.567a.371.371,0,1,0-.721,0V352.7H980.938V337.567a.371.371,0,1,0-.721,0V352.7H968.8V337.567a.414.414,0,0,0-.361-.457.418.418,0,0,0-.361.457V352.7H956.66V337.567a.371.371,0,1,0-.721,0V352.7H944.254V337.567a.414.414,0,0,0-.361-.457.418.418,0,0,0-.361.457V352.7H932.112V337.567a.371.371,0,1,0-.721,0V352.7h-4.11a.47.47,0,0,0,0,.915h4.11v16.3h-4.11a.47.47,0,0,0,0,.915Zm12.136-.921H932.105v-16.3h11.421Zm0,17.218H932.105v-16.3h11.421Zm0,17.218H932.105v-16.3h11.421ZM955.932,369.9H944.248V353.6h11.685Zm0,17.218H944.248v-16.3h11.685Zm0,17.218H944.248v-16.3h11.685ZM968.068,369.9H956.647v-16.3h11.421Zm0,17.218H956.647v-16.3h11.421Zm0,17.218H956.647v-16.3h11.421ZM980.2,369.891H968.79v-16.3H980.2Zm0,17.218H968.79v-16.3H980.2Zm0,17.218H968.79v-16.3H980.2Zm12.136-34.443H980.919v-16.3H992.34Zm0,17.218H980.919V370.8H992.34Zm0,17.218H980.919v-16.3H992.34Zm12.136-34.443H993.055v-16.3h11.421Zm0,17.218H993.055v-16.3h11.421Zm0,17.218H993.055v-16.3h11.421Zm12.136-34.443H1005.19v-16.3h11.421Zm0,17.218H1005.19v-16.3h11.421Zm0,17.218H1005.19V388h11.421Zm12.142-34.443h-11.421v-16.3h11.421Zm0,17.218h-11.421v-16.3h11.421Zm0,17.218h-11.421V388h11.421Zm12.136-34.443h-11.414v-16.3h11.414Zm0,17.218h-11.414v-16.3h11.414Zm0,17.218h-11.414v-16.3h11.414Zm12.136-34.443H1041.6v-16.3h11.421Zm0,17.218H1041.6v-16.3h11.421Zm0,17.218H1041.6v-16.3h11.421Zm12.142-34.443h-11.421v-16.3h11.421Zm0,17.218h-11.421v-16.3h11.421Zm0,17.218h-11.421v-16.3h11.421Zm12.406-34.443h-11.685v-16.3h11.685Zm0,17.218h-11.685v-16.3h11.685Zm0,17.218h-11.685v-16.3h11.685Zm12.136-34.443h-11.421v-16.3h11.421Zm0,17.218h-11.421v-16.3h11.421Zm0,17.218h-11.421v-16.3h11.421Zm12.136-34.443H1090.43v-16.3h11.414Zm0,17.218H1090.43v-16.3h11.414Zm0,17.218H1090.43v-16.3h11.414Zm12.142-34.443h-11.421v-16.3h11.421Zm0,17.218h-11.421v-16.3h11.421Zm0,17.218h-11.421v-16.3h11.421Zm12.136-34.443H1114.7v-16.3h11.421Zm0,17.218H1114.7v-16.3h11.421Zm0,17.218H1114.7v-16.3h11.421Zm12.142-34.443h-11.421V353.5h11.421Zm0,17.218h-11.421v-16.3h11.421Zm0,17.218h-11.421v-16.3h11.421ZM1150.4,369.8H1138.98V353.5H1150.4Zm0,17.218H1138.98v-16.3H1150.4Zm0,17.218H1138.98v-16.3H1150.4Zm12.136-34.443h-11.414v-16.3h11.414Zm0,17.218h-11.414v-16.3h11.414Zm0,17.218h-11.414v-16.3h11.414Zm12.136-34.443h-11.421v-16.3h11.421Zm0,17.218h-11.421V370.7h11.421Zm0,17.218h-11.421v-16.3h11.421Zm-11.421,50.946h11.421v16.3h-11.421Zm0-17.218h11.421v16.3h-11.421Zm0-17.218h11.421v16.3h-11.421Zm0-3.9V405.152h11.421v14.667h-11.421v-2.982Zm-12.136,38.34h11.414v16.3h-11.414Zm0-17.218h11.414v16.3h-11.414v-16.3Zm0-17.218h11.414v16.3h-11.414Zm0-3.9V405.158h11.414v14.667h-11.414Zm-12.136,38.34H1150.4v16.3H1138.98Zm0-17.218H1150.4v16.3H1138.98v-16.3Zm0-17.218H1150.4v16.3H1138.98Zm0-3.9V405.164H1150.4v14.667H1138.98v-2.982Zm-12.142,38.34h11.421v16.3h-11.421Zm0-17.218h11.421v16.3h-11.421v-16.3Zm0-17.218h11.421v16.3h-11.421Zm0-3.9V405.171h11.421v14.667h-11.421v-2.982ZM1114.7,455.2h11.421v16.3H1114.7Zm0-17.218h11.421v16.3H1114.7Zm0-17.218h11.421v16.3H1114.7Zm0-3.9V405.177h11.421v14.667H1114.7Zm-12.136,38.34h11.421v16.3h-11.421Zm0-17.218h11.421v16.3h-11.421v-16.3Zm0-17.218h11.421v16.3h-11.421Zm0-3.9V405.184h11.421v14.667h-11.421v-2.982Zm-12.136,38.34h11.414v16.3H1090.43Zm0-17.218h11.414v16.3H1090.43v-16.3Zm0-17.218h11.414v16.3H1090.43Zm0-3.9V405.19h11.414v14.667H1090.43v-2.982Zm-12.136,38.34h11.421v16.3h-11.421Zm0-17.218h11.421v16.3h-11.421Zm0-17.218h11.421v16.3h-11.421Zm0-3.9V405.2h11.421v14.667h-11.421v-2.982Zm-12.406,38.34h11.685v16.3h-11.685Zm0-17.218h11.685v16.3h-11.685Zm0-17.218h11.685v16.3h-11.685Zm0-3.9V405.2h11.685V419.87h-11.685Zm-12.136,38.34h11.421v16.3h-11.421Zm0-17.218h11.421v16.3h-11.421v-16.3Zm0-17.218h11.421v16.3h-11.421Zm0-3.9V405.21h11.421v14.667h-11.421v-2.982Zm-12.142,38.34h11.421v16.3H1041.61Zm0-17.218h11.421v16.3H1041.61v-16.3Zm0-17.218h11.421v16.3H1041.61Zm0-3.9V405.216h11.421v14.667H1041.61V416.9Zm-12.136,38.34h11.414v16.3h-11.414Zm0-17.218h11.414v16.3h-11.414Zm0-17.218h11.414v16.3h-11.414Zm0-3.9V405.222h11.414V419.89h-11.414Zm-12.142,38.34h11.421v16.3h-11.421Zm0-17.218h11.421v16.3h-11.421v-16.3Zm0-17.218h11.421v16.3h-11.421Zm0-3.9V405.229h11.421V419.9h-11.421Zm-12.136,38.34h11.421v16.3H1005.2Zm0-17.218h11.421v16.3H1005.2v-16.3Zm0-17.218h11.421v16.3H1005.2Zm0-3.9V405.235h11.421V419.9H1005.2V416.92Zm-12.136,38.34h11.421v16.3H993.061Zm0-17.218h11.421v16.3H993.061Zm0-17.218h11.421v16.3H993.061Zm0-3.9V405.242h11.421v14.667H993.061v-2.982Zm-12.136,38.34h11.421v16.3H980.925Zm0-17.218h11.421v16.3H980.925Zm0-17.218h11.421v16.3H980.925Zm0-3.9V405.248h11.421v14.667H980.925Zm-12.136,38.34H980.2v16.3H968.79Zm0-17.218H980.2v16.3H968.79v-16.3Zm0-17.218H980.2v16.3H968.79Zm0-3.9V405.255H980.2v14.667H968.79V416.94Zm-12.136,38.34h11.421v16.3H956.654Zm0-17.218h11.421v16.3H956.654v-16.3Zm0-17.218h11.421v16.3H956.654Zm0-3.9V405.261h11.421v14.667H956.654v-2.982Zm-12.406,38.34h11.685v16.3H944.248Zm0-17.218h11.685v16.3H944.248Zm0-17.218h11.685v16.3H944.248Zm0-3.9V405.268h11.685v14.667H944.248Zm-12.142,38.34h11.421v16.3H932.105Zm0-17.218h11.421v16.3H932.105v-16.3Zm0-17.218h11.421v16.3H932.105Zm0-3.9V405.274h11.421v14.667H932.105Z" transform="translate(-931.577 -319.686)" fill="#aab6c2" opacity="0.5"/>
        </g>
        <g id="Group_5398" data-name="Group 5398" transform="translate(16.007 51.97)">
          <path id="Path_10868" data-name="Path 10868" d="M951.314,527.67l-3.826-.019-.039-7.5-1.391-.006.039,7.5-3.826-.026.026,4.657,3.826.019.071,13.894,1.391.006-.071-13.888,3.826.019Z" transform="translate(-942.27 -406.442)" fill="#f40"/>
          <path id="Path_10869" data-name="Path 10869" d="M970.964,516.237l-3.826-.019-.013-2.641-1.391-.006.013,2.641-3.826-.026.058,11.395,3.826.019.052,10.422,1.391.006-.052-10.416,3.826.019Z" transform="translate(-949.262 -404.104)" fill="#aab6c2"/>
          <path id="Path_10870" data-name="Path 10870" d="M990.734,470.673l-3.826-.026-.026-5.211-1.391-.006.026,5.211-3.826-.026.155,30.829,3.826.026.058,11.311,1.391.006-.058-11.311,3.826.019Z" transform="translate(-956.298 -386.973)" fill="#aab6c2"/>
          <path id="Path_10871" data-name="Path 10871" d="M1010.684,420.892l-3.826-.019-.064-12.786-1.391-.006.064,12.78-3.826-.019.084,16.464,3.826.019.077,15.144,1.391.006-.077-15.137,3.826.019Z" transform="translate(-963.397 -366.565)" fill="#f40"/>
          <path id="Path_10872" data-name="Path 10872" d="M1030.484,440.39l-3.826-.026-.032-5.971-1.391-.013.032,5.978-3.826-.026.09,17.476,3.826.026.077,15.144,1.391.006-.077-15.144,3.826.026Z" transform="translate(-970.443 -375.924)" fill="#aab6c2"/>
          <path id="Path_10873" data-name="Path 10873" d="M1050.244,461.079l-3.826-.019-.039-7.923-1.391-.006.039,7.917-3.826-.019.064,11.878,3.826.019.1,18.97,1.391.006-.1-18.964,3.826.019Z" transform="translate(-977.474 -382.596)" fill="#aab6c2"/>
          <path id="Path_10874" data-name="Path 10874" d="M1069.834,462.473l-3.826-.026-.032-6.461-1.391-.006.032,6.461-3.826-.019.18,35.428,3.826.019.064,13.34,1.391.006-.064-13.34,3.826.026Z" transform="translate(-984.446 -383.61)" fill="#f40"/>
          <path id="Path_10875" data-name="Path 10875" d="M1089.554,427.3l-3.826-.026-.071-14.171-1.391-.006.071,14.171-3.826-.026.064,13.134,3.826.019.039,6.88,1.391.006-.039-6.88,3.826.026Z" transform="translate(-991.463 -368.351)" fill="#f40"/>
          <path id="Path_10876" data-name="Path 10876" d="M1109.364,438.977l-3.826-.019-.052-10.841-1.391-.006.052,10.835-3.826-.019.084,15.318,3.82.019.045,7.923,1.391.006-.045-7.917,3.826.019Z" transform="translate(-998.512 -373.692)" fill="#f40"/>
          <path id="Path_10877" data-name="Path 10877" d="M1129.194,392.056l-3.826-.026-.084-15.627-1.391-.013.084,15.633L1120.15,392l.18,35.158,3.82.019.11,21.592,1.391.006-.109-21.592,3.826.026Z" transform="translate(-1005.569 -355.288)" fill="#aab6c2"/>
          <path id="Path_10878" data-name="Path 10878" d="M1149.054,425.432l-3.826-.026-.045-8.96-1.391-.006.045,8.96-3.826-.026.2,39.937,3.826.019.058,10.628,1.391.006-.058-10.628,3.826.026Z" transform="translate(-1012.636 -369.54)" fill="#f40"/>
          <path id="Path_10879" data-name="Path 10879" d="M1168.734,485.252l-3.826-.026-.045-8.96-1.391-.006.045,8.96-3.826-.026.09,17.72,3.826.026.013,2.422,1.391.013-.013-2.428,3.826.019Z" transform="translate(-1019.639 -390.827)" fill="#aab6c2"/>
          <path id="Path_10880" data-name="Path 10880" d="M1188.234,415.4l-3.826-.019-.039-7.3-1.391-.006.039,7.292-3.826-.019.161,32.652,3.826.019.052,9.173,1.391.006-.052-9.166,3.826.019Z" transform="translate(-1026.578 -366.565)" fill="#aab6c2"/>
          <path id="Path_10881" data-name="Path 10881" d="M1207.924,414.768l-3.826-.019-.013-2.712-1.391-.006.013,2.705-3.826-.019.077,15,3.826.026.045,8.754,1.391.006-.045-8.754,3.826.019Z" transform="translate(-1033.585 -367.97)" fill="#aab6c2"/>
          <path id="Path_10882" data-name="Path 10882" d="M1227.474,366.045l-3.826-.026-.045-7.917-1.385-.013.039,7.923-3.826-.026.129,25.148,3.826.026.039,8.335,1.391.006-.045-8.335,3.826.019Z" transform="translate(-1040.542 -348.776)" fill="#f40"/>
          <path id="Path_10883" data-name="Path 10883" d="M1247.024,402.664l-3.826-.026-.032-6.042-1.385-.006.026,6.042-3.826-.019.129,25.051,3.826.019.109,22.288,1.391.013-.109-22.294,3.826.026Z" transform="translate(-1047.499 -362.476)" fill="#f40"/>
          <path id="Path_10884" data-name="Path 10884" d="M1266.584,349.492l-3.826-.019-.026-5.836-1.391-.006.026,5.836-3.826-.026.225,43.441,3.82.019.058,10.764,1.391.013-.058-10.77,3.826.026Z" transform="translate(-1054.46 -343.63)" fill="#aab6c2"/>
          <path id="Path_10885" data-name="Path 10885" d="M1286.374,372.272l-3.826-.026-.045-8.96-1.391-.006.045,8.96-3.826-.019.052,10.068,3.826.026.039,7.917,1.391.013-.039-7.923,3.826.019Z" transform="translate(-1061.502 -350.622)" fill="#f40"/>
        </g>
        <path id="Path_10886" data-name="Path 10886" d="M1204.481,468.393a1.281,1.281,0,0,0,.721,1.63c1.121.4.187,2.428.187,2.428a12.39,12.39,0,0,1-2.428,1.63c-.908.348-1.494-3.788-.612-4.883a2.211,2.211,0,0,1,2.132-.8Z" transform="translate(-1018.658 -336.047)" fill="#fff"/>
        <g id="Group_5401" data-name="Group 5401" transform="translate(0.006)">
          <path id="Path_10887" data-name="Path 10887" d="M1182.155,299.112H917.43V273.45a10.5,10.5,0,0,1,10.5-10.5h243.733a10.5,10.5,0,0,1,10.5,10.5v25.663Z" transform="translate(-917.43 -262.95)"/>
          <g id="Group_5400" data-name="Group 5400" transform="translate(15.105 12.529)">
            <path id="Path_10888" data-name="Path 10888" d="M1007.24,287.953a5.553,5.553,0,1,1,5.553,5.553A5.553,5.553,0,0,1,1007.24,287.953Z" transform="translate(-964.494 -282.4)" fill="#aab6c2"/>
            <path id="Path_10889" data-name="Path 10889" d="M974.06,287.953a5.556,5.556,0,1,1,5.559,5.553A5.554,5.554,0,0,1,974.06,287.953Z" transform="translate(-952.687 -282.4)" fill="#f40"/>
            <g id="Group_5399" data-name="Group 5399">
              <path id="Path_10890" data-name="Path 10890" d="M946.71,293.274a5.047,5.047,0,1,1,5.05-5.05A5.054,5.054,0,0,1,946.71,293.274Z" transform="translate(-941.158 -282.678)" fill="#fff"/>
              <path id="Path_10891" data-name="Path 10891" d="M946.432,283.411a4.541,4.541,0,1,1-4.541,4.541,4.544,4.544,0,0,1,4.541-4.541Zm0-1.011a5.553,5.553,0,1,0,5.553,5.553,5.553,5.553,0,0,0-5.553-5.553Z" transform="translate(-940.88 -282.4)"/>
            </g>
          </g>
        </g>
      </g>
      <g id="Group_5404" data-name="Group 5404" transform="translate(64.221 211.441)">
        <g id="Group_5403" data-name="Group 5403">
          <rect id="Rectangle_4764" data-name="Rectangle 4764" width="60.35" height="28.111" rx="6.62" transform="translate(3.446)"/>
          <path id="Path_10892" data-name="Path 10892" d="M1021.61,591.2h51.371a4.489,4.489,0,0,1,4.49,4.49v19.131a4.489,4.489,0,0,1-4.49,4.49H1021.61a4.489,4.489,0,0,1-4.49-4.49V595.69A4.489,4.489,0,0,1,1021.61,591.2Z" transform="translate(-1017.12 -591.2)" fill="#aab6c2"/>
          <path id="Path_10893" data-name="Path 10893" d="M1031.81,601.72h6.023a17.805,17.805,0,0,1,2.667.148,3.927,3.927,0,0,1,1.572.618,3.849,3.849,0,0,1,1.159,1.263,3.407,3.407,0,0,1,.464,1.765,3.585,3.585,0,0,1-2.119,3.272,3.974,3.974,0,0,1,2.119,1.366,3.621,3.621,0,0,1,.741,2.274,4.5,4.5,0,0,1-.477,2,4.015,4.015,0,0,1-1.308,1.552,4.335,4.335,0,0,1-2.042.715c-.5.052-1.733.09-3.672.1h-5.127V601.72Zm3.04,2.506v3.485h2c1.185,0,1.919-.019,2.209-.052a2,2,0,0,0,1.23-.541,1.819,1.819,0,0,0,.058-2.312,1.733,1.733,0,0,0-1.147-.528c-.3-.032-1.166-.052-2.6-.052h-1.746Zm0,5.991v4.032h2.815a14.475,14.475,0,0,0,2.087-.09,1.936,1.936,0,0,0,1.108-.6,1.855,1.855,0,0,0,.425-1.282,1.977,1.977,0,0,0-.328-1.153,1.834,1.834,0,0,0-.953-.689,10.412,10.412,0,0,0-2.7-.219Z" transform="translate(-1022.347 -594.944)" fill="#fff"/>
          <path id="Path_10894" data-name="Path 10894" d="M1055.37,601.72h3.04v8.161a16.533,16.533,0,0,0,.116,2.519,2.415,2.415,0,0,0,.934,1.488,3.239,3.239,0,0,0,2.01.56,3.079,3.079,0,0,0,1.952-.528,2.1,2.1,0,0,0,.792-1.3,16.731,16.731,0,0,0,.135-2.557v-8.335h3.04v7.917a20.678,20.678,0,0,1-.245,3.833,4.262,4.262,0,0,1-.908,1.894,4.637,4.637,0,0,1-1.771,1.23,7.763,7.763,0,0,1-2.9.457,8.392,8.392,0,0,1-3.272-.5,4.716,4.716,0,0,1-1.765-1.295,4.257,4.257,0,0,1-.857-1.668,18.271,18.271,0,0,1-.3-3.826v-8.039Z" transform="translate(-1030.731 -594.944)" fill="#fff"/>
          <path id="Path_10895" data-name="Path 10895" d="M1082.1,616.783v-6.345l-5.52-8.728h3.569l3.549,5.965,3.472-5.965h3.5l-5.54,8.747v6.319H1082.1Z" transform="translate(-1038.279 -594.94)" fill="#fff"/>
        </g>
        <path id="Path_10896" data-name="Path 10896" d="M1134.347,591.2h50.643a4.86,4.86,0,0,1,4.857,4.857v18.4a4.86,4.86,0,0,1-4.857,4.857h-50.643a4.86,4.86,0,0,1-4.857-4.857v-18.4A4.86,4.86,0,0,1,1134.347,591.2Z" transform="translate(-1057.107 -591.2)"/>
        <rect id="Rectangle_4765" data-name="Rectangle 4765" width="60.35" height="28.111" rx="6.27" transform="translate(68.937)" fill="#f40"/>
        <path id="Path_10897" data-name="Path 10897" d="M1137.02,612.231l2.7-.264a3.253,3.253,0,0,0,.992,2,2.985,2.985,0,0,0,2.01.638,3.06,3.06,0,0,0,2.016-.567,1.7,1.7,0,0,0,.683-1.327,1.287,1.287,0,0,0-.283-.831,2.3,2.3,0,0,0-1-.593q-.483-.164-2.222-.6a7.541,7.541,0,0,1-3.13-1.359,3.614,3.614,0,0,1-.67-4.728,3.7,3.7,0,0,1,1.713-1.391,6.94,6.94,0,0,1,2.705-.477,5.826,5.826,0,0,1,3.9,1.134,4.01,4.01,0,0,1,1.372,3.028l-2.776.122a2.32,2.32,0,0,0-.766-1.52,2.809,2.809,0,0,0-1.758-.464,3.249,3.249,0,0,0-1.894.5.99.99,0,0,0-.438.85,1.039,1.039,0,0,0,.412.831,7.264,7.264,0,0,0,2.551.921,13.762,13.762,0,0,1,3,.986,3.824,3.824,0,0,1,1.514,1.4,4.078,4.078,0,0,1,.548,2.19,4.027,4.027,0,0,1-.657,2.209,3.934,3.934,0,0,1-1.855,1.533,7.764,7.764,0,0,1-2.989.5,5.925,5.925,0,0,1-4-1.2,5.251,5.251,0,0,1-1.668-3.511Z" transform="translate(-1059.787 -595.303)" fill="#fff"/>
        <path id="Path_10898" data-name="Path 10898" d="M1157.976,616.83V603.09h10.184v2.325h-7.414v3.047h6.9v2.313h-6.9v3.736h7.672v2.313H1157.97Z" transform="translate(-1067.242 -595.431)" fill="#fff"/>
        <path id="Path_10899" data-name="Path 10899" d="M1177.97,616.894V603.27h2.776v11.311h6.9v2.313h-9.669Z" transform="translate(-1074.359 -595.495)" fill="#fff"/>
        <path id="Path_10900" data-name="Path 10900" d="M1196.17,616.894V603.27h2.776v11.311h6.9v2.313h-9.669Z" transform="translate(-1080.835 -595.495)" fill="#fff"/>
      </g>
      <rect id="Rectangle_4766" data-name="Rectangle 4766" width="242.335" height="152.18" rx="15.88" transform="translate(11.337 46.662)" fill="none" stroke="#000" stroke-width="2"/>
    </g>
    <g id="Group_5407" data-name="Group 5407" transform="translate(499.168 456.297)">
      <g id="Group_5406" data-name="Group 5406" transform="translate(14.473 0.003)">
        <path id="Path_10901" data-name="Path 10901" d="M780.864,925.992H745.61V858.608a10.071,10.071,0,0,1,10.075-10.068H770.8a10.066,10.066,0,0,1,10.068,10.068V926Z" transform="translate(-627.866 -682.442)" fill="#aab6c2"/>
        <path id="Path_10902" data-name="Path 10902" d="M823.758,730.242a15.708,15.708,0,0,1-15.711,15.717H677.156s-3.6-1.121-9.4-2.944c-23.627-7.517-83.971-27.177-88-33.483-5.005-7.859-16.935-118.8-16.935-118.8H693.711a15.723,15.723,0,0,1,16.915,14.429l3.04,69.394a43.658,43.658,0,0,0,43.293,39.969h51.087a15.7,15.7,0,0,1,15.711,15.717Z" transform="translate(-562.82 -590.683)" fill="#f40"/>
        <path id="Path_10903" data-name="Path 10903" d="M778.967,849.361h-51.6c-7.569,0-13.7-10.88-13.7-24.291h79c0,13.411-6.132,24.291-13.7,24.291Z" transform="translate(-616.5 -674.09)"/>
        <path id="Path_10904" data-name="Path 10904" d="M881.726,798.661a15.708,15.708,0,0,1-15.711,15.717H725.72V782.95h140.3a15.7,15.7,0,0,1,15.711,15.717Z" transform="translate(-620.788 -659.102)" fill="#f40"/>
      </g>
      <path id="Path_10905" data-name="Path 10905" d="M669.154,745.951H618.061a75.232,75.232,0,0,1-74.612-68.924L540.4,607.64a15.715,15.715,0,0,1,31.331-2.493l3.047,69.388a43.638,43.638,0,0,0,43.28,39.989h51.094a15.717,15.717,0,0,1,0,31.434Z" transform="translate(-540.352 -590.679)"/>
    </g>
    <path id="Path_10906" data-name="Path 10906" d="M807.2,600.475c.225,20.258-8.264,38.636-20.6,35.8-12.033-2.8-20.452-8.168-26.359-13.933-.625-.593-1.243-1.211-1.8-1.817-.953-1.05-1.823-2.055-2.667-3.085-1.114-1.449-2.126-2.847-3.021-4.232-.129-.251-.3-.477-.438-.7-3.884-6.184-5.443-10.01-5.746-15.234a39.98,39.98,0,0,1,.341-8.979s-5.443-41.341,3.568-36.22c9.108,5.192,19.337,20.986,26.7,36.575.019.064.064.122.084.187.438.844.8,1.656,1.185,2.467.232.5.5,1,.709,1.469,3.646,7.814,5.237,12.219,6.506,13.089,2.184,1.424,3.085-6.706,5.031-16.059v-.026c.232-1.147.464-2.267.7-3.388,1.385-6.6,2.808-12.3,4.4-12.819,0,0,7.421-7.066,8.084-3.659a181.352,181.352,0,0,1,3.33,30.578Z" transform="translate(-114.108 -120.486)" fill="#fff"/>
    <path id="Path_10907" data-name="Path 10907" d="M788.793,636.825a11.929,11.929,0,0,1-2.66-.309c-10.628-2.467-19.589-7.208-26.642-14.088-.625-.593-1.256-1.224-1.823-1.836-1.011-1.114-1.887-2.132-2.686-3.111-1.192-1.546-2.19-2.944-3.06-4.284a4.419,4.419,0,0,0-.29-.47l-.155-.238c-4.065-6.48-5.533-10.39-5.829-15.511a40.8,40.8,0,0,1,.335-9.031c-.5-3.781-4.135-33.109,1.346-36.8a2.771,2.771,0,0,1,3.1.09c8.181,4.664,18.255,18.435,26.938,36.832a1.378,1.378,0,0,1,.122.3c.264.483.541,1.069.812,1.649l.335.709c.1.219.213.438.316.651.142.283.277.56.4.825,1.082,2.325,1.99,4.354,2.757,6.074,1.681,3.768,2.8,6.255,3.549,6.77.122.077.174.064.2.052.992-.419,1.932-5.379,2.841-10.171.328-1.733.683-3.594,1.076-5.5l.013-.1.7-3.388c1.887-8.992,3.124-12.522,4.651-13.2,1.114-1.056,5.733-5.282,7.91-4.586a1.569,1.569,0,0,1,1.063,1.32,182.452,182.452,0,0,1,3.343,30.681h0c.161,14.97-4.232,28.259-11.2,33.869a11.706,11.706,0,0,1-7.453,2.815Zm-40.085-84.944a1.267,1.267,0,0,0-.728.232c-4.174,2.808-2.016,26.777-.831,35.776l.013.09-.013.09a40.049,40.049,0,0,0-.335,8.838c.29,4.96,1.662,8.593,5.656,14.964l.142.219a6.083,6.083,0,0,1,.322.528c.825,1.269,1.8,2.641,2.963,4.148.773.953,1.643,1.952,2.635,3.047.547.6,1.159,1.2,1.771,1.784,6.9,6.731,15.679,11.369,26.094,13.791a10.31,10.31,0,0,0,9.121-2.274c6.6-5.308,10.925-18.551,10.764-32.948a182.064,182.064,0,0,0-3.317-30.481c-.071-.367-.219-.412-.277-.432-1.147-.367-4.683,2.358-6.834,4.4l-.219.129c-1.52.5-3.33,9.134-4.013,12.387l-.7,3.414c-.4,1.932-.76,3.807-1.089,5.559-1.327,7-2.036,10.384-3.53,11.021a1.305,1.305,0,0,1-1.3-.155c-1.037-.709-2.016-2.905-3.962-7.266-.767-1.72-1.668-3.742-2.757-6.061-.116-.264-.245-.528-.38-.792-.109-.225-.225-.451-.328-.67l-.335-.715c-.264-.567-.528-1.14-.837-1.726a1.512,1.512,0,0,1-.122-.29c-6.6-13.959-17.031-30.874-26.429-36.233a2.365,2.365,0,0,0-1.147-.367Z" transform="translate(-113.773 -120.164)"/>
    <path id="Path_10908" data-name="Path 10908" d="M796.733,611.863c-.638,4.78-1.282,9.527-1.92,14.274a13.484,13.484,0,0,1-1.34,5.005c-.87,1.514-1.217,2.467-2.879,1.939-2.274-.715-3.272-3.581-5.488-4.464a5.262,5.262,0,0,0-4.9.96,28.816,28.816,0,0,0-3.665,3.749c-3.691,3.974-7.5,8.619-12.168,9.553-.625-.593-1.243-1.211-1.8-1.816-.953-1.05-1.823-2.055-2.667-3.085-1.114-1.449-2.126-2.847-3.021-4.232a23.562,23.562,0,0,1,2.963-4.264c5.759-7.092,11.653-14.332,19.447-19.047a11.085,11.085,0,0,1,2.1-1.063c.438.844.8,1.655,1.185,2.467.232.5.5,1,.709,1.469,3.646,7.814,5.237,12.219,6.506,13.089,2.184,1.424,3.085-6.706,5.031-16.059v-.026a1.309,1.309,0,0,1,.593-.657,1.041,1.041,0,0,1,1.25.683A3.131,3.131,0,0,1,796.733,611.863Z" transform="translate(-118.236 -141.033)"/>
    <path id="Path_10909" data-name="Path 10909" d="M749.316,618.426c-2.6-3.5-6.577-7.491-10.12-11.376-1.34-1.488-2.622-2.963-3.749-4.354a23.62,23.62,0,0,1-3.523-5.578,7.025,7.025,0,0,1-.6-2.312,106.873,106.873,0,0,1,1.044-12.258c2-15.64,7.208-36.517,14.068-33.4,11.762,5.333,21.347,23.2,29.721,37.341-1.353,13.1-9.817,26.339-26.842,31.943Z" transform="translate(-109.138 -119.492)" fill="#f40"/>
    <path id="Path_10910" data-name="Path 10910" d="M835.779,548.206c-1.868-.161-5.636,2.622-7.221,3.833-3.3,2.531-6.332,6.061-7.485,10.094a9.5,9.5,0,0,0-.889-.528,9.348,9.348,0,0,1,.792-1.72c.767-1.353-1.05-3-2.184-1.778-1.1,1.192-1.99,2.448-1.771,4.155.039.3,2.544,10.519,3.569,11.839.509.657,2.931-2.306,3.491-2.738h0a5.372,5.372,0,0,0,3.414.618c1.92-.316,2.789-.9,4.953-2.989,3.337-2.86,1.926-6.016.973-5.366,1.559-1.913.889-4.3-.3-3.987.979-1.887-.9-5.54-3.362-3.356.992-1.681,4.29-4.29,6.152-5.276,1.623-.863,1.462-2.673-.135-2.808Z" transform="translate(-139.625 -119.266)" fill="#fff"/>
    <path id="Path_10911" data-name="Path 10911" d="M820.457,574.462h-.045a.857.857,0,0,1-.618-.316c-1.185-1.52-3.678-12.033-3.684-12.123-.251-1.971.779-3.388,1.926-4.625a1.8,1.8,0,0,1,2.474-.232,2.254,2.254,0,0,1,.889,1.507,23.966,23.966,0,0,1,6.48-7.414c3.646-2.789,6.132-4.09,7.627-3.955h0a1.848,1.848,0,0,1,1.771,1.436,2.344,2.344,0,0,1-1.417,2.467,22.772,22.772,0,0,0-4.651,3.523,2.217,2.217,0,0,1,1.114.477,3.889,3.889,0,0,1,1.25,3.633,1.553,1.553,0,0,1,.625.573,3.6,3.6,0,0,1-.135,3.491,1.6,1.6,0,0,1,.251.258c.844,1.1.837,3.678-1.817,5.958-2.177,2.106-3.137,2.776-5.237,3.118a5.809,5.809,0,0,1-3.408-.5c-.129.129-.277.29-.451.47-1.475,1.546-2.261,2.248-2.931,2.248Zm-1.082-16.516a.662.662,0,0,0-.49.245c-1.1,1.192-1.8,2.274-1.623,3.685.122.67,2.351,9.585,3.324,11.356a14.278,14.278,0,0,0,1.965-1.823,11.608,11.608,0,0,1,.831-.825l.3-.225.329.174a4.833,4.833,0,0,0,3.053.56c1.733-.283,2.467-.734,4.644-2.834,1.984-1.7,1.958-3.279,1.907-3.723a1.081,1.081,0,0,0-.309-.741l-3.3,2.242,2.628-3.1a2.745,2.745,0,0,0,.58-2.9c-.129-.2-.225-.174-.271-.161l-1.275.335.605-1.166a2.66,2.66,0,0,0-.67-2.931c-.522-.406-1.121-.316-1.791.277l-2.751,2.441,1.862-3.169c1.082-1.849,4.561-4.535,6.383-5.5.663-.354.9-.857.825-1.2-.058-.29-.329-.47-.734-.509h0c-.657-.064-2.416.348-6.815,3.717-2.145,1.643-5.939,5.1-7.285,9.791l-.219.773-.663-.451a8.237,8.237,0,0,0-.831-.49l-.432-.225.148-.464a9.892,9.892,0,0,1,.837-1.829.924.924,0,0,0-.316-1.179.747.747,0,0,0-.438-.161Z" transform="translate(-139.299 -118.944)"/>
    <path id="Path_10912" data-name="Path 10912" d="M821.572,582.065s.676.921-.58,4.606,9.366,4.251,9.508,1.643.341-5.765.341-5.765a2.432,2.432,0,0,1,1.069-2.474c1.456-1.166-.026-3.833-3.5-2.86s-6.828,4.85-6.828,4.85Z" transform="translate(-141.013 -129.516)" fill="#fff"/>
    <g id="Group_5412" data-name="Group 5412" transform="translate(827.113 493.317)">
      <path id="Path_10913" data-name="Path 10913" d="M1140.073,696.152a14.506,14.506,0,0,0,8.239-2.718,70.1,70.1,0,0,1-1.224,15.137c-3.234,5.224-12.219,14.822-11.614,14.764a29.074,29.074,0,0,0,7.208-1.681,53.8,53.8,0,0,1-5.495,8.979c-4.354,5.81-10.564,10.461-12.922,17.553a.443.443,0,0,1-.271.309.512.512,0,0,1-.85.374c-11.717-11.131-13.817-28.04-15.537-43.287-.084-.721-.167-1.436-.232-2.158a46.982,46.982,0,0,0,10.8,8.432c.567.309-7.343-12.342-11.208-18.178a34.306,34.306,0,0,1,2.016-10.828c2.744-7.35,7.446-14.229,12.013-20.555.187-.258.393-.509.58-.773a35.176,35.176,0,0,0,5.044,9.134c.374.49-.831-9.25-1.578-13.7,1.147-1.424,2.293-2.847,3.485-4.219,1.565-1.842,3.491-4.966,6.3-4.548,2.725.386,8.928,11.537,9.714,14.732.341,1.359.644,2.75.921,4.148.135.6.245,1.211.354,1.81a166.885,166.885,0,0,1,2.087,16.98c-.193.3-.386.6-.605.9-2.28,3.1-7.794,9.385-7.234,9.392Z" transform="translate(-1069.929 -648.151)" fill="#aab6c2"/>
      <path id="Path_10914" data-name="Path 10914" d="M1135.583,698.563c5.784-.876,10.2-4.528,14.448-8.3.631-.56-.148-1.63-.792-1.063-3.981,3.53-8.123,7.06-13.521,7.981,1.23-8.612,2.66-17.192,4.354-25.734.167-.837-1.147-1.044-1.308-.206q-3.362,16.977-5.482,34.14A56.724,56.724,0,0,1,1125.631,690c-.264-.805-1.488-.316-1.23.5a58.024,58.024,0,0,0,8.213,16.245.591.591,0,0,0,.477.264c-.3,2.5-.58,5.005-.85,7.511a35.74,35.74,0,0,1-5.681-9.939.662.662,0,0,0-1.23.49,36.764,36.764,0,0,0,6.454,11.021.664.664,0,0,0,.271.187q-1.266,12.368-1.926,24.787a.661.661,0,0,0-.077.283q-.261,4.551-.316,9.082c-.064,1.971-.122,3.949-.161,5.926a.561.561,0,0,0,.193.451c.341,18.655,3.1,37.109,7.028,55.371.432-.1.863-.2,1.288-.3-4.432-20.638-7.382-41.522-7-62.669q.116-3.353.283-6.693a.614.614,0,0,0,.586-.077,22.012,22.012,0,0,0,6.055-6.2c.464-.709-.567-1.54-1.031-.825a21.168,21.168,0,0,1-5.546,5.759q1.1-21.383,4.09-42.61h.058Z" transform="translate(-1076.119 -656.179)"/>
      <path id="Path_10915" data-name="Path 10915" d="M1062.95,752.372a14.364,14.364,0,0,1-7.794.67,50.056,50.056,0,0,0,5.443,10.97c4.264,2.854,14.693,7.118,14.158,7.272a29.736,29.736,0,0,1-6.615,1.108,42.534,42.534,0,0,0,7.279,4.941c5.391,2.931,12.02,4.387,16.091,8.941a.389.389,0,0,0,.322.148.478.478,0,0,0,.831,0c6.731-12.219,3.6-25.611.631-37.631-.142-.573-.283-1.127-.432-1.7a42.567,42.567,0,0,1-6.731,9.888c-.393.419,2.647-11.691,4.245-17.34a24.837,24.837,0,0,0-4.863-7.472c-4.47-4.619-10.467-8.245-16.187-11.492-.232-.135-.483-.258-.715-.393a27.326,27.326,0,0,1-1.636,8.522c-.174.49-1.984-7.227-2.647-10.815-1.391-.689-2.776-1.385-4.187-2.023-1.862-.87-4.412-2.583-6.673-1.353-2.2,1.185-4.238,11.608-3.981,14.261.109,1.134.251,2.28.425,3.42.058.49.148.992.225,1.475a120.273,120.273,0,0,0,3.156,13.443c.251.161.5.329.773.47,2.834,1.578,9.353,4.49,8.876,4.677Z" transform="translate(-1049.466 -671.648)" fill="#aab6c2"/>
      <g id="Group_5408" data-name="Group 5408" transform="translate(0.441 53.279)">
        <path id="Path_10916" data-name="Path 10916" d="M1105.623,836.347c-1.971-15.009-4.986-29.785-10.113-43.918a.4.4,0,0,0,.032-.4c-.605-1.469-1.23-2.937-1.855-4.4q-1.362-3.382-2.911-6.718a.547.547,0,0,0-.148-.187q-4.165-9.121-8.838-17.991a.581.581,0,0,0,.174-.232,28.892,28.892,0,0,0,2.287-10.4c.019-.7-1.166-.664-1.185.039a28.105,28.105,0,0,1-1.939,9.334q-1.43-2.7-2.905-5.366a.557.557,0,0,0,.335-.354,44.862,44.862,0,0,0,2.261-14.912c-.013-.7-1.2-.657-1.185.039a43.823,43.823,0,0,1-2.035,14.075q-6.812-12.184-14.583-23.853c-.386-.573-1.437.006-1.05.586q5.875,8.793,11.176,17.9c-4.851,1.082-9.4-.206-13.811-1.552-.708-.213-1.069.844-.367,1.056,4.709,1.436,9.527,2.731,14.7,1.482.019,0,.026-.013.045-.019q8.686,14.957,15.859,30.674a18.117,18.117,0,0,1-6.384-2.5c-.605-.386-1.243.58-.638.96a19.023,19.023,0,0,0,6.95,2.667.624.624,0,0,0,.522-.135c.741,1.636,1.469,3.285,2.184,4.934,6.474,15.769,10.036,32.426,12.265,49.393.393-.064.786-.135,1.185-.2Z" transform="translate(-1053.15 -730.864)"/>
        <path id="Path_10917" data-name="Path 10917" d="M1060.456,746.336a30.4,30.4,0,0,1-10.306-4.026c.058.49.148.992.225,1.475a31.788,31.788,0,0,0,9.707,3.607c.741.135,1.1-.915.374-1.056Z" transform="translate(-1050.15 -734.937)"/>
      </g>
      <path id="Path_10918" data-name="Path 10918" d="M1205.762,759.141c-.071,4.773-11.1,7.079-14.6,8.374-7.749,2.873-15.318,5.765-21.051,12-6.757,7.356-12.58,15.84-18.41,23.943a1.373,1.373,0,0,1-1.378.593,21.242,21.242,0,0,1-1.6-3.485c-2.01-4.953-5.089-14.017-4.322-19.183a31.288,31.288,0,0,1,3.51-10.3,9.257,9.257,0,0,0,2.209,4.361c.277.283.876-6.512,1.275-9.6.509-.625,1.024-1.23,1.572-1.816a33.711,33.711,0,0,1,4.077-3.755c.309-.245.618-.5.934-.728a41.676,41.676,0,0,1,3.717-2.461c.335-.2.683-.4,1.037-.6,1.2-.664,2.441-1.282,3.7-1.836a24.986,24.986,0,0,0,2.048,6.8c.213.451.734-5.372.805-7.949,1.2-.451,2.422-.825,3.665-1.185a19.507,19.507,0,0,0,1.52,4.393c.167.335,1.81-3.607,2.4-5.34a47.8,47.8,0,0,1,11.814-.928c.335.013.676.026,1,.058,1.057.077,2.106.193,3.137.354,3.8.593,12.754,3,12.928,8.136a1.132,1.132,0,0,1,0,.148Z" transform="translate(-1083.203 -684.53)" fill="#aab6c2"/>
      <g id="Group_5409" data-name="Group 5409" transform="translate(64.52 71.957)">
        <path id="Path_10919" data-name="Path 10919" d="M1165.231,776.515c-9.372,9.25-12.284,26.236-12.883,31.061a21.85,21.85,0,0,0-1.926,6.274c-1.114,7.627-.786,15.666-.6,23.35.064,2.525.174,5.05.309,7.575.432-.084.863-.161,1.3-.245-.084-1.591-.155-3.189-.213-4.78-.232-6.879-.225-13.772.09-20.651a30.551,30.551,0,0,1,1.868-10.416,1.391,1.391,0,0,0,.419-.386c5.83-8.11,11.659-16.593,18.416-23.943,5.733-6.235,13.3-9.134,21.051-12,3.5-1.295,14.532-3.607,14.6-8.374-14.7,1.713-31.647,1.887-42.436,12.535Z" transform="translate(-1149.629 -761.326)"/>
        <path id="Path_10920" data-name="Path 10920" d="M1172.386,770.508a30.649,30.649,0,0,1-.2-10.648c-.361.2-.7.393-1.037.6a31.391,31.391,0,0,0,.29,10.261c.122.612,1.056.393.947-.213Z" transform="translate(-1157.184 -759.86)"/>
        <path id="Path_10921" data-name="Path 10921" d="M1166.386,774.108a40.469,40.469,0,0,1-1.372-9.488c-.316.232-.625.477-.934.728a40.862,40.862,0,0,0,1.359,8.979C1165.6,774.926,1166.547,774.714,1166.386,774.108Z" transform="translate(-1154.771 -761.554)"/>
      </g>
      <g id="Group_5410" data-name="Group 5410" transform="translate(23.058 122.381)">
        <path id="Path_10922" data-name="Path 10922" d="M1140.9,873.513c-16.973-19.208-7.762-34.443-7.762-34.443h-30.61s9.211,15.234-7.762,34.443c-8.445,9.553-15.3,30.9,3.176,44.021.9.631,2.332,1.649,2.2,3.015h35.39c-.135-1.366,1.308-2.383,2.2-3.015,18.474-13.121,11.614-34.468,3.176-44.021Z" transform="translate(-1085.598 -838.471)" fill="#fff"/>
        <path id="Path_10923" data-name="Path 10923" d="M1135.858,920.829h-36.729l.064-.664c.1-1.011-1.127-1.881-1.932-2.454-6.957-4.941-10.931-11.337-11.813-19.009-1.224-10.622,3.826-20.6,8.522-25.914,16.458-18.622,7.788-33.579,7.7-33.728l-.554-.921h32.755l-.554.921c-.09.148-8.76,15.105,7.7,33.728,4.7,5.314,9.746,15.292,8.522,25.914-.882,7.678-4.857,14.068-11.8,19-.825.586-2.049,1.449-1.945,2.461l.064.664Zm-35.48-1.211h34.23c.238-1.353,1.572-2.3,2.416-2.892,6.667-4.734,10.467-10.841,11.311-18.159,1.179-10.223-3.7-19.846-8.226-24.974h0c-14.719-16.651-9.952-30.6-8.3-34.236h-28.639c1.655,3.633,6.422,17.585-8.3,34.236-4.535,5.127-9.4,14.745-8.226,24.974.844,7.318,4.644,13.43,11.3,18.152.85.606,2.19,1.552,2.428,2.905Z" transform="translate(-1085.262 -838.14)"/>
      </g>
      <g id="Group_5411" data-name="Group 5411" transform="translate(25.968 122.98)">
        <path id="Path_10924" data-name="Path 10924" d="M1142.368,873.513c-16.973-19.208-7.762-34.443-7.762-34.443h-6.441c-7.814,9.45-19.286,11.543-23.4,2.4,3.285,9.237.992,18.352-5.192,27.376,2.538-2.383,10.757-4.78,16.587-3.994,14,1.875,24.645,14.139,26.6,27.937,1.256,8.9-6.261,24.014-25.038,24.014-17.566,0-24.677-7.073-27.943-10.667a27.537,27.537,0,0,0,9.624,11.408c.9.631,2.332,1.649,2.2,3.015h35.389c-.135-1.366,1.308-2.383,2.2-3.015,18.474-13.121,11.614-34.468,3.176-44.021Z" transform="translate(-1089.78 -839.07)"/>
        <path id="Path_10925" data-name="Path 10925" d="M1099.49,889.96q1.942-2.329,3.543-4.67A16.7,16.7,0,0,0,1099.49,889.96Z" transform="translate(-1093.235 -855.517)"/>
        <path id="Path_10926" data-name="Path 10926" d="M1112.513,841.466c-.283-.8-.605-1.6-.973-2.4C1111.849,839.92,1112.178,840.719,1112.513,841.466Z" transform="translate(-1097.523 -839.07)"/>
      </g>
    </g>
    <g id="Group_5413" data-name="Group 5413" transform="translate(716.069 666.672)">
      <path id="Path_10927" data-name="Path 10927" d="M897.948,920.443c-1.256-2.01-17.321-2.3-17.585-1.372-.825,2.866-2.866,13.984-1.52,15.64,1.3,1.61,17.173,3.382,17.8.58.554-2.422,2.519-12.915,1.3-14.848Z" transform="translate(-877.546 -917.733)" fill="#fff"/>
      <path id="Path_10928" data-name="Path 10928" d="M896.429,935.977a4.26,4.26,0,0,1-1.842.818c-4.084.953-15.376-.142-16.883-2-1.881-2.319,1.037-15.286,1.359-16.419.206-.683.94-.831,1.681-.934,2.474-.348,15.93-.354,17.463,2.087h0c1.623,2.589-1.166,15.369-1.192,15.5A1.783,1.783,0,0,1,896.429,935.977Zm-15.8-16.786c-1.05,3.923-2.454,13.366-1.585,14.526.908.85,9.913,2.28,14.577,1.52,1.482-.238,1.713-.6,1.726-.605.966-4.226,2.235-12.812,1.411-14.178C895.63,919.216,883.076,918.533,880.628,919.191Z" transform="translate(-877.076 -917.273)"/>
    </g>
    <path id="Path_10929" data-name="Path 10929" d="M876.724,937.88s-7.743,10.313-2.75,18.79c0,0,38.417,3.124,50.089,1.713,0,0,.786-14.171-9.128-15.717a147.041,147.041,0,0,0-19.9-1.54s-11.35,4.85-18.319-3.24Z" transform="translate(-159.307 -257.934)" fill="#aab6c2"/>
    <path id="Path_10930" data-name="Path 10930" d="M706.294,756.705c19.157,9.43,51.351,11.588,75.842,1.591,14.687-5.971,19.614-2.222,24.271,1.256,18.21,13.591-3.369,61.13,1.243,81.581,1.99,2.647,6.506,3.008,11.266,2.474a75.712,75.712,0,0,0,16.091-4.052c1.8-44.691,21.083-108.571-3.3-129.036-40.942-34.4-118.278-22.674-118.278-22.674-20.168-3.775-40.71,52.318-7.137,68.853Z" transform="translate(-93.892 -168.274)"/>
    <path id="Path_10931" data-name="Path 10931" d="M729.808,742.947c11.614,1.874,23.511,18.216,35.164,19.782,8.966,1.185,20.11.006,27.383,2.364,16.9,5.475,20.1,65.091,24.709,85.543,1.99,2.647,6.506,3.008,11.266,2.474a70.09,70.09,0,0,0,1.688-10.416c1.2-10.339,13.946-20.825,12.645-31.125-2.6-20.568-4.619-37.522-17.076-54.1-8.96-11.93-12.271-15.163-22.036-22.236-6.2-4.483-15.286-7.71-22.79-9.907-18.873-5.43-38.237-13.025-57.11-12.252a3.1,3.1,0,0,0-.509.109,1.5,1.5,0,0,0-2.39.077c-9.553,12.5-7.91,26.906,9.057,29.689Z" transform="translate(-103.306 -177.776)"/>
    <path id="Path_10932" data-name="Path 10932" d="M761.525,558.67s7.369,15.389,8.187,28.748c.219,3.588-1.333,15.749-9.276,22.751-1.945-1.14-1.295-7.015-2.4-8.2l.58-20.181,2.9-23.118Z" transform="translate(-118.648 -122.991)"/>
    <path id="Path_10933" data-name="Path 10933" d="M720.993,581.641c-.773,6.706-2.216,15-2.055,18.964.522,12.806,2.841,25.6,7.1,34.417-1.694,2.074-25.972,18.139-44.3,18.8-23.859.857-42.443-8.206-42.675-11.7-.2-3.189,6.57-42.166,6.57-61.626,0-20.735,5.192-37.927,10.654-43.519a11.173,11.173,0,0,1,1.217-1.063,16.748,16.748,0,0,1,7.311-2.551c17.321-2.808,44.169,4.966,54.765,14.261,2.293,8.863,3.234,18.313,1.424,34.017Z" transform="translate(-76.307 -113.781)" fill="#f40"/>
    <path id="Path_10934" data-name="Path 10934" d="M723.49,526.2v7.479s1.939,4.284,0,4.535c-6.583.85-10.3-7.6-10.3-7.6V521.94l10.3,4.271Z" transform="translate(-102.688 -109.921)" fill="#fff"/>
    <path id="Path_10935" data-name="Path 10935" d="M722.258,538.357c-6.255,0-9.675-7.633-9.823-7.975l-.045-.206V520.72l11.337,4.7v7.71c.309.715,1.314,3.208.618,4.451a1.39,1.39,0,0,1-1.069.709,7.764,7.764,0,0,1-1.011.064Zm-8.831-8.3c.432.908,3.981,7.955,9.714,7.2a.363.363,0,0,0,.3-.18c.354-.638-.2-2.5-.7-3.62l-.045-.213v-7.131l-9.263-3.839v7.788Z" transform="translate(-102.404 -109.487)"/>
    <path id="Path_10936" data-name="Path 10936" d="M679.862,558.67s.979,12.986-7.163,20.664-14.551,9.907-14.551,9.907l-1.507,12.31s9.823-3.253,18.571-16.632c3.6-5.507,6.5-16.819,4.651-26.249Z" transform="translate(-82.565 -122.991)"/>
    <path id="Path_10937" data-name="Path 10937" d="M727.035,497.786a51.81,51.81,0,0,1,2.171,14.145c-.039,5.134-9.714,11.717-16.239,3.575s-2.924-18.706-2.924-18.706Z" transform="translate(-101.216 -100.975)" fill="#fff"/>
    <path id="Path_10938" data-name="Path 10938" d="M718.741,519.478a10.108,10.108,0,0,1-6.454-3.949c-6.622-8.271-3.047-19.086-3.008-19.2l.122-.374,17.74,1.031.109.341a52.791,52.791,0,0,1,2.19,14.306c-.019,2.905-2.828,6.145-6.4,7.382a9.09,9.09,0,0,1-4.309.457Zm-8.593-22.436c-.541,1.926-2.635,10.867,2.95,17.843,3.543,4.419,7.543,3.878,9.611,3.156,3.176-1.1,5.681-3.923,5.7-6.416a51.329,51.329,0,0,0-2.042-13.65l-16.22-.94Z" transform="translate(-100.941 -100.676)"/>
    <path id="Path_10939" data-name="Path 10939" d="M705.468,505.51c-.045-.058-.045-.354-.129-.7a5.26,5.26,0,0,1,1.8-5.153,1.389,1.389,0,0,1,1.881.1.215.215,0,0,1,.064,0c2.158.135,1.8,2.738,1.9,4.2.155,2.467,1.243,5.546.148,7.923a3.1,3.1,0,0,1-4.129,1.649c-1.984-.9-1.494-2.783-1.978-4.464a3.676,3.676,0,0,1-.1-2.731,5.306,5.306,0,0,1,.535-.825Z" transform="translate(-99.669 -101.878)"/>
    <path id="Path_10940" data-name="Path 10940" d="M708.51,498.39c1.578,5.276,6,1.939,9.372.844,2.3-.747,5.643-.689,8.123-1.61a1.193,1.193,0,0,0,1.81.683c2.048-1.346,4.593-3.781,2.873-6.441-1.333-2.068-3.672-1.6-5.585-.728-5.372-5.385-19.273-1.681-16.6,7.253Z" transform="translate(-100.9 -98.068)"/>
    <g id="Group_5414" data-name="Group 5414" transform="translate(685.717 670.223)">
      <path id="Path_10941" data-name="Path 10941" d="M849.166,924.786c-1.552-1.784-17.469.419-17.585,1.385-.367,2.957-.657,14.255.928,15.685,1.54,1.379,17.489.664,17.688-2.2.168-2.474.477-13.153-1.024-14.873Z" transform="translate(-830.432 -923.258)" fill="#fff"/>
      <path id="Path_10942" data-name="Path 10942" d="M849.857,940.567a4.933,4.933,0,0,1-1.4.805c-3.884,1.578-15.208,2.255-17,.651-2.222-2.01-1.353-15.266-1.2-16.432.09-.689.792-.966,1.507-1.185,2.383-.728,15.692-2.834,17.579-.663h0c2.016,2.319,1.243,15.363,1.23,15.5a1.946,1.946,0,0,1-.715,1.327Zm-17.939-14.416c-.425,4.039-.348,13.585.7,14.59,1.031.7,10.165.709,14.648-.767,1.424-.464,1.6-.857,1.6-.863.283-4.329.2-13.018-.805-14.223C846.746,923.845,834.23,925.127,831.917,926.151Z" transform="translate(-829.958 -922.787)"/>
    </g>
    <path id="Path_10943" data-name="Path 10943" d="M828.172,940.92s-7.646,10.384-2.557,18.816c0,0,38.436,2.731,50.1,1.2,0,0,.644-14.178-9.289-15.62a146.456,146.456,0,0,0-19.911-1.34s-11.3,4.966-18.345-3.047Z" transform="translate(-142.073 -259.016)" fill="#aab6c2"/>
    <path id="Path_10944" data-name="Path 10944" d="M664.817,762.4c34.455,4.451,56.1-4.528,69.175,3.749,19.2,12.161,23.331,66.141,25.07,82a17.342,17.342,0,0,0,3.092,1.443c7.975,2.8,20.11,1.752,20.11,1.752,4.425-33.122,18.977-102.162-2.164-129.364-32.787-42.185-140.83-28.317-140.83-28.317s-11.62,36.542,2.763,58.1c3.234,4.876,13.4,9.417,22.777,10.628Z" transform="translate(-74.806 -170.253)"/>
    <rect id="Rectangle_4767" data-name="Rectangle 4767" width="586.979" height="4.47" transform="translate(424.62 698.574)"/>
    <path id="Path_10945" data-name="Path 10945" d="M613.23,589.109v-.026a41.434,41.434,0,0,1,4.3-17.952,29.774,29.774,0,0,1,3.034-4.857c.38-.483.76-.96,1.166-1.443l.026-.026c.052-.077.1-.1.155-.18,11.807-14.036,16.613-18.107,26.043-25.792,4.908-3.994,9.8-.264,11.975,5.681,1.565,4.277,5.121,7.9,3.981,14.377a29.879,29.879,0,0,1-10.036,17.27c-1.894,1.643-4.045,3.569-6.119,5.54-.277.258-.528.483-.779.734-5.211,5.005-5.765,16.993-5.765,18.964,0,2.351,2.957,5.6,6.268,6.764,7.678,2.725,22.049,2.841,28.652,2.731,3.131-.309,6.036-.013,9.179-.071a8.54,8.54,0,0,1,5.263,1.6,6.128,6.128,0,0,1,1.862,2.828,11.548,11.548,0,0,1-.116,8.013,3.119,3.119,0,0,1-.857,1.346,1.312,1.312,0,0,1-1.5.168,2,2,0,0,1-.618-1.662c-.032-.747.708-4.161-.316-6.184.908,2.293.052,6.19-.18,7.292a1.8,1.8,0,0,1-.5,1.05,1.3,1.3,0,0,1-1.849-.586c-.341-.657,1.108-4.316.019-6.944,1.056,2.751-.425,6.126-.573,6.809-.084.38-.548,1.192-1.147,1.1a1.517,1.517,0,0,1-1.391-1.2c-.155-.715,1.417-4.561.818-5.83.573,1.784-1.127,6.087-2.158,6.235a1.558,1.558,0,0,1-1.507-.934,4.6,4.6,0,0,1-.335-1.849c-1.926,1.34-4.786.573-6.242-1.269-.747.18-1.688.4-2.8.638-8.748,1.836-25.875,3-39.351-.116-12.161-2.8-18.919-17.424-18.584-32.214Z" transform="translate(-67.117 -115.342)" fill="#fff" stroke="#000" stroke-width="2"/>
    <path id="Path_10946" data-name="Path 10946" d="M649.311,585.728c2.145-2.055,15.653-15.292,17.727-28.458.94-5.991-.915-20.439-8.367-22.172-11.936-2.763-27.892,14.571-38.9,27.653,5.05,11.395,16.129,19.363,29.547,22.977Z" transform="translate(-69.445 -114.499)" fill="#f40"/>
    <g id="Group_5415" data-name="Group 5415" transform="translate(628.931 465.805)">
      <rect id="Rectangle_4768" data-name="Rectangle 4768" width="102.477" height="7.002" rx="3.501" transform="translate(137.7 59.184) rotate(180)"/>
      <path id="Path_10947" data-name="Path 10947" d="M809.38,659.484h94.574l13.553-52.253-2.061-1.791H823.738Z" transform="translate(-765.848 -605.44)"/>
      <path id="Path_10948" data-name="Path 10948" d="M813.73,660.473h91.437l13.888-52.253H827.611Z" transform="translate(-767.396 -606.429)" fill="#fff" stroke="#000" stroke-width="2"/>
      <ellipse id="Ellipse_191" data-name="Ellipse 191" cx="6.164" cy="4.664" rx="6.164" ry="4.664" transform="matrix(0.759, -0.651, 0.651, 0.759, 93.779, 28.346)" fill="#f40"/>
      <rect id="Rectangle_4769" data-name="Rectangle 4769" width="44.015" height="6.332" rx="3.166" transform="translate(44.015 58.508) rotate(180)" fill="#fff" stroke="#000" stroke-width="2"/>
      <rect id="Rectangle_4770" data-name="Rectangle 4770" width="15.575" height="2.879" rx="1.44" transform="translate(19.621 56.782) rotate(180)"/>
      <rect id="Rectangle_4771" data-name="Rectangle 4771" width="8.728" height="2.879" rx="1.44" transform="translate(33.302 56.782) rotate(180)"/>
    </g>
    <g id="Group_5416" data-name="Group 5416" transform="translate(514.092 525.06)">
      <path id="Path_10949" data-name="Path 10949" d="M596.66,697.43l6.306,10.674h298.4l6.3-10.674Z" transform="translate(-575.313 -697.43)" fill="#f40"/>
      <path id="Path_10950" data-name="Path 10950" d="M569.15,876.84h-5.63L594.665,714h11.93Z" transform="translate(-563.52 -703.326)"/>
      <path id="Path_10951" data-name="Path 10951" d="M664.13,876.84H658.5L689.645,714h11.93Z" transform="translate(-597.319 -703.326)" fill="#f40"/>
      <path id="Path_10952" data-name="Path 10952" d="M1079.674,876.84h5.63L1054.16,714h-11.93Z" transform="translate(-733.87 -703.326)" fill="#f40"/>
      <path id="Path_10953" data-name="Path 10953" d="M987.914,876.84h5.63L962.4,714H950.47Z" transform="translate(-701.217 -703.326)"/>
      <path id="Path_10954" data-name="Path 10954" d="M596.66,697.43l6.306,10.674h81.047l3.639-10.674Z" transform="translate(-575.313 -697.43)"/>
    </g>
  </g>
</svg>
