<svg id="Group_1571" data-name="Group 1571" xmlns="http://www.w3.org/2000/svg" width="85.143" height="73.553" viewBox="0 0 85.143 73.553">
  <path id="Path_2317" data-name="Path 2317" d="M104.416,124.914l-.1-.639c-.074-.491-.147-.958-.246-1.449A19.065,19.065,0,0,0,95.3,109.341c-4.3-2.7-9.31-3.66-15.279-2.948a25.5,25.5,0,0,0-6.73,1.548c-2.014.811-4,1.695-5.969,2.579-.295.147-.614.295-.909.467A32.074,32.074,0,0,0,57.328,98.14a19.511,19.511,0,0,0-25.546-.123,29.689,29.689,0,0,0-8.474,11.275,45.552,45.552,0,0,0-1.646,33.21,39.28,39.28,0,0,0,2.309,5.4c.27.565.54,1.105.835,1.744a28.131,28.131,0,0,0,3.881,5.4,29.7,29.7,0,0,0,2.334,2.309c5.92,5.06,12.429,6.559,19.381,4.544a19.441,19.441,0,0,0,7.443,4,24.7,24.7,0,0,0,6.853.958,31.438,31.438,0,0,0,9.825-1.695A44.55,44.55,0,0,0,95.008,150.78a40.451,40.451,0,0,0,8.843-18.005c.172-.835.295-1.646.418-2.481l.172-1.2v-4.2ZM38.34,157.166a19.412,19.412,0,0,1-6.509-4.937,28.212,28.212,0,0,1-3.316-4.643l-.246-.442-.368-.663a41.419,41.419,0,0,1-2.26-31.392,27.443,27.443,0,0,1,8.745-13.657,15.759,15.759,0,0,1,10.047-3.807,15.373,15.373,0,0,1,9.7,3.513,25.312,25.312,0,0,1,7.05,8.794c.467.909.884,1.867,1.277,2.8l.246.59a48.235,48.235,0,0,0-12.65,13.092,83.024,83.024,0,0,1-5.6-18.472,13.739,13.739,0,0,0-.614-2.284,2.676,2.676,0,0,0-2.53-2.063,2.925,2.925,0,0,0-2.8,1.818,27.027,27.027,0,0,0-2.677,11.324h0v.688a20.323,20.323,0,0,0,.688,7.123c.2.663.393,1.3.59,1.965a41.813,41.813,0,0,0,1.449,4.4,85.818,85.818,0,0,1,4.864,15.77l.147.246v.884a14.033,14.033,0,0,0,.614,3.316c.1.344.2.663.27,1.032a18.691,18.691,0,0,0,2.7,6.092,14.512,14.512,0,0,1-8.843-1.081ZM44.9,137.712a5.988,5.988,0,0,0-.147-.639c-.368-1.032-.761-2.063-1.154-3.1-.491-1.326-.983-2.628-1.449-3.979-.688-2.014-1.326-4.053-2.039-6.485a11.625,11.625,0,0,1-.639-5.625c.1-.712.147-1.449.2-2.186a25.93,25.93,0,0,1,.344-3.1,28.142,28.142,0,0,1,.958-3.488,86.118,86.118,0,0,0,3.906,14.271c.516,1.351,1.056,2.7,1.6,4.053.418,1.007.811,2.014,1.2,3.021a2.271,2.271,0,0,0-.123.246,49.95,49.95,0,0,0-2.677,7Zm53.745-1.99C95.008,146.088,88.008,154,77.814,159.23c-5.7,2.948-11.054,3.955-16.384,3.12-6.534-1.007-10.783-4.643-12.65-10.783a21.921,21.921,0,0,1,.639-13.952c4.372-12.306,12.9-20.928,25.35-25.644a17.827,17.827,0,0,1,5.65-1.277h1.5c.712-.049,1.449-.074,2.186-.074a24.137,24.137,0,0,1,2.677.123,14.681,14.681,0,0,1,12.626,10.833,22.936,22.936,0,0,1-.761,14.149Z" transform="translate(-19.298 -93.316)" fill="#ff875c"/>
  <path id="Path_2318" data-name="Path 2318" d="M64.186,102.562l-.54.221a27.669,27.669,0,0,0-3.169,1.4,31.2,31.2,0,0,0-13.313,14c-.737,1.5-1.425,3.046-2.063,4.52-.491,1.13-.983,2.26-1.523,3.39a93.118,93.118,0,0,1-6.952,11.717l-1.056,1.621A6.253,6.253,0,0,0,35,140.587c-.074.172-.147.319-.221.491l-.074.147v.147a3.552,3.552,0,0,0,1.5,2.677,3.193,3.193,0,0,0,1.769.54,3.459,3.459,0,0,0,1.105-.172,20.864,20.864,0,0,0,2.923-1.228,31,31,0,0,0,14.812-16.433,93.44,93.44,0,0,1,9.948-18.668,9,9,0,0,0,.983-1.818,2.615,2.615,0,0,0-.467-3,2.7,2.7,0,0,0-3.12-.688Zm-1.056,4.372c-.516.786-1.032,1.548-1.523,2.309a93.6,93.6,0,0,0-8.032,15.844,28.011,28.011,0,0,1-11.717,14.026,22.4,22.4,0,0,1-2.432,1.2h-.074a101.215,101.215,0,0,0,8.818-15.328l.491-1.105a59.139,59.139,0,0,1,3.242-6.632A25.494,25.494,0,0,1,63.13,106.935Z" transform="translate(3.148 -80.151)" fill="#ff875c"/>
</svg>
