<svg id="Group_2263" data-name="Group 2263" xmlns="http://www.w3.org/2000/svg" xmlns:xlink="http://www.w3.org/1999/xlink" width="75.787" height="75.789" viewBox="0 0 75.787 75.789">
  <defs>
    <clipPath id="clip-path">
      <rect id="Rectangle_1790" data-name="Rectangle 1790" width="75.787" height="75.789" fill="#ffe3d9"/>
    </clipPath>
  </defs>
  <g id="Group_2261" data-name="Group 2261" transform="translate(0 0)" clip-path="url(#clip-path)">
    <path id="Path_6190" data-name="Path 6190" d="M19.865,40.344A8.794,8.794,0,0,1,18.281,36.7l-6.888.74a14.025,14.025,0,0,0,3.642,8.049,12.232,12.232,0,0,0,7.417,3.4v4.8h3.825V48.763a12.709,12.709,0,0,0,8.038-4.012A11.728,11.728,0,0,0,37.2,36.7a10.518,10.518,0,0,0-2.3-7.007q-2.3-2.73-8.631-4.446V14.931a5.377,5.377,0,0,1,3.168,4.222l6.676-.87a11.052,11.052,0,0,0-3.166-6.319A11.328,11.328,0,0,0,26.277,9.1V6.485H22.452V9.1a11.012,11.012,0,0,0-7.271,3.391,10.289,10.289,0,0,0-2.73,7.271,11.23,11.23,0,0,0,2.413,7.271q2.416,2.994,7.588,4.473V42.561a7.207,7.207,0,0,1-2.587-2.217m6.412-7.705A6.667,6.667,0,0,1,29.7,34.6a4.677,4.677,0,0,1,1.042,3.047A5.164,5.164,0,0,1,29.5,41.1a5.378,5.378,0,0,1-3.221,1.835Zm-6.385-10.6a4.437,4.437,0,0,1-.844-2.6,4.628,4.628,0,0,1,.923-2.8,4.947,4.947,0,0,1,2.481-1.8v9.131a5.86,5.86,0,0,1-2.56-1.939" transform="translate(13.71 7.804)" fill="#ffe3d9"/>
    <path id="Path_6191" data-name="Path 6191" d="M37.894,75.789a37.895,37.895,0,1,1,37.894-37.9,37.938,37.938,0,0,1-37.894,37.9m0-72.7A34.809,34.809,0,1,0,72.7,37.894,34.848,34.848,0,0,0,37.894,3.085" transform="translate(0 0)" fill="#ffe3d9"/>
    <path id="Path_6192" data-name="Path 6192" d="M34.263,65.51A31.246,31.246,0,1,1,65.509,34.262,31.283,31.283,0,0,1,34.263,65.51m0-60.95a29.7,29.7,0,1,0,29.7,29.7,29.735,29.735,0,0,0-29.7-29.7" transform="translate(3.631 3.632)" fill="#ffe3d9"/>
  </g>
</svg>
