<svg xmlns="http://www.w3.org/2000/svg" width="64.645" height="93.087" viewBox="0 0 64.645 93.087">
  <path id="Path_2" data-name="Path 2" d="M73.432,113.368a2.222,2.222,0,0,0-.236-.576c-.026-.052-.026-.1-.052-.157L42.983,68.258a2.258,2.258,0,0,0-3.613,0L9.21,112.635a1.03,1.03,0,0,1-.052.157,2.222,2.222,0,0,0-.236.576c0,.079-.052.157-.052.236a2.154,2.154,0,0,0,.34,1.492L39.37,159.474a2.169,2.169,0,0,0,3.613,0L73.144,115.1a2.154,2.154,0,0,0,.34-1.492A.765.765,0,0,0,73.432,113.368Zm-56.08,5.943L40.234,130.2a2.353,2.353,0,0,0,.943.209V125.8L14.263,113,41.177,73.39v52.389l26.914-12.8h0a2.385,2.385,0,0,1,.681,1.728c-.131,1.754-1.257,3.273-3.718,4.529L41.2,130.386v23.956L17.378,119.285Z" transform="translate(-8.854 -67.355)" fill="#ffe3d9"/>
</svg>
