<svg id="Group_1570" data-name="Group 1570" xmlns="http://www.w3.org/2000/svg" width="99.598" height="61.001" viewBox="0 0 99.598 61.001">
  <g id="Group_1567" data-name="Group 1567">
    <path id="Path_2310" data-name="Path 2310" d="M111.98,67.334c-1.364-4.394-2.749-8.767-4.113-13.161a1.666,1.666,0,0,0-1.862-1.364H98.667c-.087-.26-.152-.476-.238-.693C97.2,48.2,95.983,44.28,94.749,40.34a1.686,1.686,0,0,0-1.883-1.407h-16.8a1.688,1.688,0,0,0-1.927,1.429c-.606,1.9-1.191,3.81-1.8,5.736V21.4A12.472,12.472,0,0,0,59.876,8.93H25.089A12.472,12.472,0,0,0,12.62,21.4V57.463A12.472,12.472,0,0,0,25.089,69.932H110.1a2.046,2.046,0,0,0,2.121-1.212v-.866a4.029,4.029,0,0,1-.216-.541ZM73.946,51.921c.974-3.1,1.948-6.191,2.9-9.287.108-.368.26-.455.628-.455H91.437c.325,0,.52.022.628.411,1,3.269,2.035,6.537,3.052,9.806.043.108.043.238.087.39H73.687q.13-.455.26-.844ZM16.105,57.463V21.4a8.989,8.989,0,0,1,8.984-8.984H59.9A8.989,8.989,0,0,1,68.881,21.4V57.463A8.989,8.989,0,0,1,59.9,66.446H25.089a8.989,8.989,0,0,1-8.984-8.984Zm52.213,9.178a12.387,12.387,0,0,0,4.048-9.178V56.056h6.581c1.1,3.507,2.186,7.014,3.312,10.564H68.34Zm16.214-4H84.4c-.671-2.165-1.342-4.329-2.035-6.537h4.221c-.693,2.186-1.364,4.373-2.035,6.537Zm2.165,4c.238-.758.455-1.472.693-2.186.823-2.641,1.667-5.3,2.468-7.944a.539.539,0,0,1,.628-.455h14.092c.325,0,.5.043.628.411,1,3.247,2.013,6.516,3.031,9.763.043.13.065.281.108.433H86.7Z" transform="translate(-12.62 -8.93)" fill="#ff875c"/>
    <path id="Path_2311" data-name="Path 2311" d="M51.51,24.222c1.32-1.3,2.641-2.6,3.94-3.94a3.415,3.415,0,0,0,.541-.952,1.7,1.7,0,0,0-.974-1.732,1.586,1.586,0,0,0-1.84.368c-1.32,1.32-2.663,2.641-3.983,3.983a1.624,1.624,0,1,0,2.316,2.273Z" transform="translate(29.363 0.997)" fill="#ff875c"/>
    <path id="Path_2312" data-name="Path 2312" d="M46.694,24.164a1.648,1.648,0,0,0,1.624-1.732V16.868a1.619,1.619,0,0,0-1.6-1.688,1.647,1.647,0,0,0-1.645,1.71v5.563a1.629,1.629,0,0,0,1.624,1.71Z" transform="translate(25.175 -1.651)" fill="#ff875c"/>
  </g>
  <g id="Group_1568" data-name="Group 1568" transform="translate(9.822 7.728)">
    <path id="Path_2313" data-name="Path 2313" d="M20.757,14.009H17.769c-.325,0-.541-.13-.563-.476l-.043-.476c-.043-.346.152-.476.476-.476h4.438a.511.511,0,0,1,.541.541v.368a1.317,1.317,0,0,1-.346.888c-1.017,1.364-1.58,2.857-1.624,5.672a.479.479,0,0,1-.541.5h-.671a.486.486,0,0,1-.5-.563,9.719,9.719,0,0,1,1.84-5.975Z" transform="translate(-17.157 -12.407)" fill="#ff875c"/>
    <path id="Path_2314" data-name="Path 2314" d="M21.012,19.535a.464.464,0,0,1,.628-.325,4.266,4.266,0,0,0,1.126.152,1.278,1.278,0,0,0,1.256-1.385V17.7a2.14,2.14,0,0,1-1.364.476,2.554,2.554,0,0,1-2.6-2.857A2.7,2.7,0,0,1,22.9,12.5a2.658,2.658,0,0,1,2.814,2.728v2.554a2.82,2.82,0,0,1-2.944,3.009,5.815,5.815,0,0,1-1.472-.195.517.517,0,0,1-.39-.671l.108-.39Zm3.031-3.1V15.228a1.146,1.146,0,0,0-1.126-1.277c-.736,0-1.147.628-1.147,1.385,0,.909.3,1.58,1.147,1.58a1.575,1.575,0,0,0,1.126-.476Z" transform="translate(-13.776 -12.5)" fill="#ff875c"/>
  </g>
  <g id="Group_1569" data-name="Group 1569" transform="translate(17.067 22.535)">
    <path id="Path_2315" data-name="Path 2315" d="M24.8,20.379A1.461,1.461,0,0,1,26.21,19.34h1.927a1.461,1.461,0,0,1,1.407,1.039l4.264,14.179a.8.8,0,0,1-.779,1.147H31.535a1.2,1.2,0,0,1-1.256-.952l-.823-3.009H24.911l-.823,2.966a1.193,1.193,0,0,1-1.234.974H21.34c-.649,0-.974-.476-.779-1.147l4.264-14.179Zm3.853,8.486-.844-3.1c-.216-.758-.433-1.775-.628-2.771-.195,1.017-.433,2.035-.628,2.771l-.844,3.1Z" transform="translate(-20.504 -19.34)" fill="#ff875c"/>
    <path id="Path_2316" data-name="Path 2316" d="M27.613,22.142A1.023,1.023,0,0,1,28.7,21.06h1.256a1.023,1.023,0,0,1,1.082,1.082v6.429c0,1.667.671,2.511,1.732,2.511s1.732-.844,1.732-2.511V22.142a1.023,1.023,0,0,1,1.082-1.082h1.277a1.023,1.023,0,0,1,1.082,1.082V28.7a4.974,4.974,0,0,1-5.2,5.325A4.958,4.958,0,0,1,27.57,28.7V22.142Z" transform="translate(-12.274 -17.337)" fill="#ff875c"/>
  </g>
  <rect id="Rectangle_1741" data-name="Rectangle 1741" width="11.148" height="3.572" rx="0.83" transform="translate(38.9 8.551)" fill="#ff875c"/>
</svg>
