<svg xmlns="http://www.w3.org/2000/svg" xmlns:xlink="http://www.w3.org/1999/xlink" width="1024" height="693" viewBox="0 0 1024 693">
  <defs>
    <clipPath id="clip-path">
      <rect id="Rectangle_804" data-name="Rectangle 804" width="1024" height="693" transform="translate(1812.384)" fill="#fff" stroke="#707070" stroke-width="1"/>
    </clipPath>
    <linearGradient id="linear-gradient" x1="0.578" y1="0.229" x2="1" y2="1" gradientUnits="objectBoundingBox">
      <stop offset="0" stop-color="#f40"/>
      <stop offset="1" stop-color="#ac2e00"/>
    </linearGradient>
    <linearGradient id="linear-gradient-2" x1="0.45" y1="0.1" x2="0.584" y2="0.778" gradientUnits="objectBoundingBox">
      <stop offset="0" stop-color="#e03c00"/>
      <stop offset="1" stop-color="#e03c00" stop-opacity="0"/>
    </linearGradient>
  </defs>
  <g id="Mask_Group_15" data-name="Mask Group 15" transform="translate(-1812.384)" clip-path="url(#clip-path)">
    <g id="Group_464" data-name="Group 464" transform="translate(617.389 -1.348)">
      <g id="Group_41" data-name="Group 41">
        <rect id="Rectangle_73" data-name="Rectangle 73" width="2347" height="949" transform="translate(-0.006 0.348)" fill="url(#linear-gradient)"/>
        <path id="Path_1002" data-name="Path 1002" d="M0,0,933.405,2098.854,0,2063.269Z" transform="translate(248.034 937.449) rotate(-90)" fill="url(#linear-gradient-2)"/>
      </g>
      <g id="Group_102" data-name="Group 102" transform="translate(1202.484 369.454)">
        <path id="Path_60" data-name="Path 60" d="M892.595,556.792a118.85,118.85,0,0,0,9.628-43.385c-.1-1.72-.171-3.446-.171-5.191a85.573,85.573,0,1,1,159.483,43.073h.022l28.787,26.6a124.146,124.146,0,1,0-207.413-2.977,127.4,127.4,0,0,0,9.664-18.124" transform="translate(-654.106 -384.064)" fill="#e03c00"/>
        <path id="Path_61" data-name="Path 61" d="M969.695,430.161V512.61a85.557,85.557,0,0,1-76.645-47.521,130.128,130.128,0,0,1-5.652,15.926A141.128,141.128,0,0,1,873.651,505.7a124.139,124.139,0,0,0,134.7,39.321l.177-.028V520.468l30.723,30.723h52.275c-2.918,0-121.83-121.03-121.83-121.03" transform="translate(-636.177 -302.883)" fill="#e03c00"/>
        <path id="Path_62" data-name="Path 62" d="M1026.133,460.676a129.233,129.233,0,0,0-9.868-18.466,127.374,127.374,0,0,0-9.7,18.466A119.988,119.988,0,0,0,997.1,503.9c-.058,0-.116.006-.174.006q.116,2.365.119,4.771a86.566,86.566,0,0,1-6.643,33.862,88.329,88.329,0,0,1-18.2,27.691,85.67,85.67,0,0,1-26.9,18.67,85.317,85.317,0,0,1-66.771,0,87.932,87.932,0,0,1-27.216-18.83,85.73,85.73,0,0,1-18.355-27.688,88.054,88.054,0,0,1-6.486-34.019,90.662,90.662,0,0,1,6.328-33.7A84.946,84.946,0,0,1,877.9,427.67a82.09,82.09,0,0,1,33.7-6.963A82.982,82.982,0,0,1,972.2,446.5a91.8,91.8,0,0,1,16.324,23.845,131.5,131.5,0,0,1,5.285-14.957,140.835,140.835,0,0,1,13.828-25.065q-4.022-4.9-8.548-9.449a127.5,127.5,0,0,0-39.8-27.039,122.878,122.878,0,0,0-95.9,0,127.017,127.017,0,0,0-66.172,66.843,120.57,120.57,0,0,0-9.573,47.7q0,26.535,9.573,48.871a123.155,123.155,0,0,0,114.375,75.074,121.458,121.458,0,0,0,48.032-9.573,125.354,125.354,0,0,0,66.509-66.007,123.326,123.326,0,0,0,0-96.066" transform="translate(-787.644 -384.015)" fill="#e03c00"/>
      </g>
    </g>
  </g>
</svg>
