<svg xmlns="http://www.w3.org/2000/svg" xmlns:xlink="http://www.w3.org/1999/xlink" width="375" height="703" viewBox="0 0 375 703">
  <defs>
    <clipPath id="clip-path">
      <rect id="Rectangle_1623" data-name="Rectangle 1623" width="375" height="703" transform="translate(0 75)" fill="#fff" stroke="#707070" stroke-width="1"/>
    </clipPath>
    <clipPath id="clip-path-2">
      <rect id="Rectangle_804" data-name="Rectangle 804" width="1920" height="902" transform="translate(0 84)" fill="#fff" stroke="#707070" stroke-width="1"/>
    </clipPath>
    <linearGradient id="linear-gradient" x1="0.578" y1="0.229" x2="1" y2="1" gradientUnits="objectBoundingBox">
      <stop offset="0" stop-color="#f40"/>
      <stop offset="1" stop-color="#ac2e00"/>
    </linearGradient>
    <linearGradient id="linear-gradient-2" x1="0.45" y1="0.1" x2="0.584" y2="0.778" gradientUnits="objectBoundingBox">
      <stop offset="0" stop-color="#e03c00"/>
      <stop offset="1" stop-color="#e03c00" stop-opacity="0"/>
    </linearGradient>
  </defs>
  <g id="Mask_Group_64" data-name="Mask Group 64" transform="translate(0 -75)" clip-path="url(#clip-path)">
    <g id="Mask_Group_15" data-name="Mask Group 15" transform="translate(-1366 -9)" clip-path="url(#clip-path-2)">
      <g id="Group_464" data-name="Group 464">
        <g id="Group_41" data-name="Group 41" transform="translate(242 83)">
          <rect id="Rectangle_73" data-name="Rectangle 73" width="1741" height="704" transform="translate(216)" fill="url(#linear-gradient)"/>
          <path id="Path_1002" data-name="Path 1002" d="M0,0,692.431,1557,0,1530.6Z" transform="translate(400 695.431) rotate(-90)" fill="url(#linear-gradient-2)"/>
        </g>
        <g id="Group_102" data-name="Group 102" transform="translate(562.399 194.624)">
          <path id="Path_60" data-name="Path 60" d="M878.486,473.116a61.276,61.276,0,0,0,4.964-22.367c-.053-.887-.088-1.777-.088-2.676a44.118,44.118,0,1,1,82.223,22.207h.011l14.841,13.716A64,64,0,1,0,873.5,482.459a65.7,65.7,0,0,0,4.982-9.344" transform="translate(32.113 0)" fill="#e03c00"/>
          <path id="Path_61" data-name="Path 61" d="M923.167,430.161v42.507a44.11,44.11,0,0,1-39.515-24.5,67.072,67.072,0,0,1-2.914,8.211,72.753,72.753,0,0,1-7.088,12.726A64,64,0,0,0,943.1,489.377l.091-.014V476.719l15.839,15.839h26.951c-1.5,0-62.811-62.4-62.811-62.4" transform="translate(36.425 19.522)" fill="#e03c00"/>
          <path id="Path_62" data-name="Path 62" d="M910.6,423.576a66.63,66.63,0,0,0-5.088-9.52,65.67,65.67,0,0,0-5,9.52,61.86,61.86,0,0,0-4.881,22.286l-.09,0q.06,1.219.061,2.46a44.631,44.631,0,0,1-3.425,17.458,45.54,45.54,0,0,1-9.381,14.276,44.169,44.169,0,0,1-13.869,9.626,43.987,43.987,0,0,1-34.425,0,45.335,45.335,0,0,1-14.032-9.708,44.2,44.2,0,0,1-9.463-14.275,45.4,45.4,0,0,1-3.344-17.539,46.741,46.741,0,0,1,3.263-17.377,43.794,43.794,0,0,1,23.249-24.227,42.322,42.322,0,0,1,17.377-3.59,42.782,42.782,0,0,1,31.244,13.3,47.327,47.327,0,0,1,8.416,12.293,67.809,67.809,0,0,1,2.725-7.711,72.612,72.612,0,0,1,7.129-12.923q-2.073-2.526-4.407-4.871a65.733,65.733,0,0,0-20.521-13.94,63.35,63.35,0,0,0-49.441,0,65.485,65.485,0,0,0-34.116,34.462,62.161,62.161,0,0,0-4.935,24.592,63.369,63.369,0,0,0,63.9,63.9,62.62,62.62,0,0,0,24.763-4.935A64.627,64.627,0,0,0,910.6,473.1a63.582,63.582,0,0,0,0-49.528" transform="translate(0 0.012)" fill="#e03c00"/>
        </g>
      </g>
    </g>
  </g>
</svg>
