<svg id="Group_682" data-name="Group 682" xmlns="http://www.w3.org/2000/svg" xmlns:xlink="http://www.w3.org/1999/xlink" width="61.263" height="65.396" viewBox="0 0 61.263 65.396">
  <defs>
    <clipPath id="clip-path">
      <rect id="Rectangle_987" data-name="Rectangle 987" width="61.263" height="65.396" fill="#ff7a4a"/>
    </clipPath>
  </defs>
  <g id="Group_681" data-name="Group 681" clip-path="url(#clip-path)">
    <path id="Path_2308" data-name="Path 2308" d="M30.8,56.395c-1.845,1.643-3.469,3.225-5.232,4.63a18.844,18.844,0,0,1-9.392,4.24A14.059,14.059,0,0,1,.2,53.786a15.51,15.51,0,0,1,1.445-9.2Q9.673,26.893,18.735,9.71a31.786,31.786,0,0,1,3.486-5.688A10.913,10.913,0,0,1,39.94,5.136a69.017,69.017,0,0,1,4.279,7.726q7.7,15.665,15.267,31.393a16.463,16.463,0,0,1,1.776,7.395A13.948,13.948,0,0,1,50.595,64.977c-4.59,1.051-8.771-.021-12.7-2.414a33.51,33.51,0,0,1-6.623-5.549,6.555,6.555,0,0,1-.475-.62m2.927-2.955a31.069,31.069,0,0,0,6.69,5.761,12.229,12.229,0,0,0,8.669,1.926,9.746,9.746,0,0,0,7.944-9.367,14.029,14.029,0,0,0-1.839-6.194Q47.276,29.207,39.241,12.91a39.652,39.652,0,0,0-3.584-6.056,6.406,6.406,0,0,0-7.9-1.793A8.551,8.551,0,0,0,23.9,9.143c-1.723,3.264-3.474,6.515-5.112,9.822Q13.6,29.448,8.53,39.992a76.285,76.285,0,0,0-3.753,8.675A9.587,9.587,0,0,0,14.007,61.3a13.593,13.593,0,0,0,7.717-2.659,32.568,32.568,0,0,0,5.967-5.372c-.675-.889-1.323-1.7-1.927-2.547-3-4.193-5.673-8.555-6.331-13.811-.472-3.774.387-7.19,3.243-9.87a11.483,11.483,0,0,1,9.453-2.994,10.941,10.941,0,0,1,9.822,10.6,19.907,19.907,0,0,1-2.876,10.369c-1.617,2.836-3.5,5.523-5.352,8.422m-3.068-3.623c3.064-3.983,5.748-7.971,6.675-12.857.865-4.562-1.294-7.831-5.684-8.579-3.32-.565-7.849,1.4-7.915,6.5a17,17,0,0,0,2.337,8.06,40.049,40.049,0,0,0,4.586,6.87" transform="translate(0 0)" fill="#ff7a4a"/>
  </g>
</svg>
