<svg xmlns="http://www.w3.org/2000/svg" xmlns:xlink="http://www.w3.org/1999/xlink" width="61.784" height="73.366" viewBox="0 0 61.784 73.366">
  <defs>
    <clipPath id="clip-path">
      <rect id="Rectangle_983" data-name="Rectangle 983" width="61.784" height="73.366" fill="#ffe3d9"/>
    </clipPath>
  </defs>
  <g id="Group_672" data-name="Group 672" transform="translate(0 0)">
    <g id="Group_671" data-name="Group 671" transform="translate(0 0)" clip-path="url(#clip-path)">
      <path id="Path_2300" data-name="Path 2300" d="M59.792,29.448c-.109.07-.224.146-.339.22a18.078,18.078,0,0,0-4.847,4.342,14.2,14.2,0,0,0-2.745,6.466,17.162,17.162,0,0,0,.712,8.484,15.329,15.329,0,0,0,3.892,5.945A17.2,17.2,0,0,0,61.618,58.4c.042.018.083.04.165.08-.045.142-.086.281-.133.42a41.227,41.227,0,0,1-6.156,11.557A42.691,42.691,0,0,1,52.6,74.008a14.593,14.593,0,0,1-3.311,2.725,8.688,8.688,0,0,1-5.229,1.21,15.3,15.3,0,0,1-3.736-.867c-.867-.309-1.717-.661-2.584-.971a16.577,16.577,0,0,0-4.356-.957,14.537,14.537,0,0,0-5.32.612c-1.069.323-2.112.733-3.162,1.115A24.429,24.429,0,0,1,21.387,77.9a7.9,7.9,0,0,1-5.9-1.105,15.789,15.789,0,0,1-3.411-2.882A46.021,46.021,0,0,1,3.035,59.429,47.437,47.437,0,0,1,.6,50.869a36.239,36.239,0,0,1-.563-8.08,24.247,24.247,0,0,1,2.21-9.435A19.441,19.441,0,0,1,8.151,25.97a18.126,18.126,0,0,1,7.8-3.424,14.729,14.729,0,0,1,3.83-.238,15.218,15.218,0,0,1,3.353.674c1.507.485,2.993,1.037,4.5,1.533.972.32,1.96.6,2.942.886a2.9,2.9,0,0,0,1.756-.043C33.89,24.846,35.455,24.347,37,23.8a36.549,36.549,0,0,1,4.724-1.385,16.313,16.313,0,0,1,5.7-.14,21.738,21.738,0,0,1,5.156,1.361,16.258,16.258,0,0,1,7,5.459c.062.084.123.171.181.257a.382.382,0,0,1,.024.091" transform="translate(0 -4.699)" fill="#ffe3d9"/>
      <path id="Path_2301" data-name="Path 2301" d="M54.613,0c.026.335.06.622.069.91A14.428,14.428,0,0,1,53,8.291,18.816,18.816,0,0,1,46.239,15.6,11.51,11.51,0,0,1,41.4,17.307a7.371,7.371,0,0,1-2.069.009,10.232,10.232,0,0,1-.069-2.1,15.945,15.945,0,0,1,3.975-9.328A17.086,17.086,0,0,1,53.371.139c.4-.076.8-.091,1.242-.139" transform="translate(-8.344 0)" fill="#ffe3d9"/>
    </g>
  </g>
</svg>
