<svg xmlns="http://www.w3.org/2000/svg" xmlns:xlink="http://www.w3.org/1999/xlink" width="73.218" height="81.509" viewBox="0 0 73.218 81.509">
  <defs>
    <clipPath id="clip-path">
      <path id="Path_209" data-name="Path 209" d="M111.705,210.952l-14.267-4.231-2.063-.612,3.462-11.671,15.078,4.472,1.253.372a5.653,5.653,0,0,1,3.809,7.021l-.251.842a5.641,5.641,0,0,1-7.021,3.807M116.8,189.2l-15.078-4.472,3.119-10.512,2.062.611,13.015,3.86a5.074,5.074,0,0,1,3.417,6.3l-.236.8a5.064,5.064,0,0,1-6.3,3.418m-16.529-26.91L98,161.615l-4.819-1.43L90.3,169.9l4.819,1.43L92,181.84l-2.881,9.715-3.462,11.674-4.819-1.43-2.881,9.715,4.819,1.428,2.264.672-1.323,4.464,9.713,2.881,1.324-4.465,3.98,1.181-1.323,4.465,9.713,2.882,1.324-4.466.371.111a15.8,15.8,0,0,0,19.617-10.642l.25-.843a15.716,15.716,0,0,0-1.582-12.532,15.092,15.092,0,0,0,5.7-7.992l.236-.8a15.206,15.206,0,0,0-9.38-18.588l1.634-5.509-9.715-2.881-1.621,5.466-3.981-1.18L111.6,159.7l-9.713-2.88Z" transform="translate(-77.961 -156.823)" fill="#ffe3d9"/>
    </clipPath>
  </defs>
  <g id="Group_144" data-name="Group 144" transform="translate(0 16.289) rotate(-17)">
    <g id="Group_143" data-name="Group 143" clip-path="url(#clip-path)">
      <rect id="Rectangle_112" data-name="Rectangle 112" width="57.379" height="68.2" transform="translate(0)" fill="#ffe3d9"/>
    </g>
  </g>
</svg>
