<svg id="Group_678" data-name="Group 678" xmlns="http://www.w3.org/2000/svg" xmlns:xlink="http://www.w3.org/1999/xlink" width="60.797" height="60.948" viewBox="0 0 60.797 60.948">
  <defs>
    <clipPath id="clip-path">
      <rect id="Rectangle_985" data-name="Rectangle 985" width="60.797" height="60.948" fill="#ffe3d9"/>
    </clipPath>
  </defs>
  <g id="Group_677" data-name="Group 677" clip-path="url(#clip-path)">
    <path id="Path_2305" data-name="Path 2305" d="M60.8,26.759c-.509.026-.854.058-1.2.058-4.461,0-8.923-.016-13.384.02a1.212,1.212,0,0,1-1.381-.976c-2.058-5.924-6.255-9.52-12.434-10.293a15.03,15.03,0,1,0-3.744,29.826A14.837,14.837,0,0,0,44.766,35.278,1.443,1.443,0,0,1,46.45,34.1c4.431.042,8.863.017,13.3.021,1,0,1.112.113.928,1.059C58.238,47.722,51,56.172,38.713,59.75A30.431,30.431,0,1,1,60.3,23.822c.213.932.319,1.888.493,2.937" transform="translate(0 -0.001)" fill="#ffe3d9"/>
  </g>
</svg>
