<svg xmlns="http://www.w3.org/2000/svg" xmlns:xlink="http://www.w3.org/1999/xlink" width="315" height="376" viewBox="0 0 315 376">
  <defs>
    <clipPath id="clip-path">
      <ellipse id="Ellipse_12" data-name="Ellipse 12" cx="157.5" cy="188" rx="157.5" ry="188" transform="translate(8300 991)" fill="#f40" opacity="0.15"/>
    </clipPath>
  </defs>
  <g id="Group_674" data-name="Group 674" transform="translate(-93 -1439)">
    <circle id="Ellipse_11" data-name="Ellipse 11" cx="157.5" cy="157.5" r="157.5" transform="translate(93 1500)" fill="#f40" opacity="0.15"/>
    <g id="Mask_Group_10" data-name="Mask Group 10" transform="translate(-8207 448)" clip-path="url(#clip-path)">
      <g id="Camada_3" transform="translate(8377.231 1008.879)">
        <path id="Path_1108" data-name="Path 1108" d="M1307.98,886.161s1.386,22.306,5.694,22.628c.578.041,21.885.041,21.885.041l27.208-.157s-.182-6.552-8.129-7.939-21.266-6.974-26.077-17.487c-5.067-11.058-20.581,2.921-20.581,2.921Z" transform="translate(-1181.159 -432.118)" fill="#9b9b9b"/>
        <path id="Path_1109" data-name="Path 1109" d="M1289.362,568.04s12.84,7.3,16.439,7.3,17.71-2.731,21.646-.718,11.058,10.1,12.4,12.741c2.4,4.753-9.672,2.657-15.382-1.395a3.579,3.579,0,0,0-2.855-.586c-2.954.644-9.094,1.758-12.065.66-3.986-1.477-24.988-3.119-24.988-3.119l4.811-14.887Z" transform="translate(-1177.065 -377.775)" fill="#ff936b"/>
        <path id="Path_1110" data-name="Path 1110" d="M1171.97,444.7s13.311,94.63,35.361,103.1c10.877,4.184,58.955,13.666,73.182,14.615,0,0,3.483-2.822,2.632-14.334,0,0-50.372-18.493-57.527-28.553-10.654-14.97,6.61-61.15-6.751-75.2s-35.873-20.1-46.9.363Z" transform="translate(-1157.39 -353.908)" fill="#e03c00"/>
        <path id="Path_1111" data-name="Path 1111" d="M1173.809,677.323a166.323,166.323,0,0,0,13.006,18.609c14.31,18.064,29.89,32.96,32.6,47.038a63.17,63.17,0,0,0,2.517,9.011c1.131,3.227,2.534,6.618,4.151,10.126,6.074,13.187,15.151,27.975,24.221,41.41,15.671,23.222,30.41,42.607,30.41,42.607l27.027-1.155c-1.081-2.707-12.874-34.775-28.644-73.966-6.4-15.91-13.212-32.828-19.781-49.151q-1.312-3.268-2.616-6.5c-2.005-4.993-3.986-9.911-5.917-14.7-14.8-36.8-26.605-66.1-26.605-66.1s-59.186-22.422-65.334-7.889c-5.067,11.982-.941,23.717,14.953,50.67Z" transform="translate(-1154.739 -387.163)" fill="#9b9b9b"/>
        <path id="Path_1112" data-name="Path 1112" d="M1228.509,810.47s-18.8,12.081-16.975,16c.239.52,10.629,19.129,10.629,19.129l13.4,23.676s5.636-3.35,2.971-10.967-4.275-21.968,2.55-31.293c7.188-9.812-12.576-16.546-12.576-16.546Z" transform="translate(-1164.282 -420.143)" fill="#9b9b9b"/>
        <path id="Path_1113" data-name="Path 1113" d="M1228.144,799.321s-11.751-10.365-13.823-17.965c0,0,48.417-58.006,58.922-71.011.478-.594.363-1.254-.281-1.972-7.93-8.937-96.016-27.117-107.536-45.025a55.435,55.435,0,0,1-7.435-17.148c-2.608-10.934-.545-18.477-.545-18.477l87.978-2.542s73.248,45.611,81.55,76.706-98.822,97.435-98.822,97.435Z" transform="translate(-1154.716 -387.761)" fill="#fff"/>
        <path id="Path_1114" data-name="Path 1114" d="M1273.242,709.219c-7.931-8.937-96.016-27.117-107.536-45.025a55.44,55.44,0,0,1-7.435-17.148V635.914l37.391-5.884s10.6,32.63,42.013,44.86c29.411,11.463,34.982,31.8,35.576,34.33Z" transform="translate(-1154.995 -388.608)" fill="#e3e3e3"/>
        <path id="Path_1115" data-name="Path 1115" d="M1225.022,431.572c-17.8,4.6-47.3-11.892-47.3-11.892s11.454-7.7,15.7-24.617c.215-.85.4-1.725.586-2.624,1.865-.4,5.38-1.139,9.144-1.939l13.591,12.18a117.629,117.629,0,0,1-2.013,13.748q-.446,2.278-1.024,4.877a41.956,41.956,0,0,1,11.314,10.258Z" transform="translate(-1158.395 -346.746)" fill="#ff936b"/>
        <path id="Path_1116" data-name="Path 1116" d="M1154.787,510.039c2.55,34.288-.8,86.435,2.088,95.463,2.5,7.79,30.938,3.161,42.285.561,4.2-.966,9.292-2.336,14.549-3.961,14.664-4.539,30.632-11.025,32.349-15.836a3.7,3.7,0,0,0,.157-.553,4.359,4.359,0,0,0-.033-2.014c-.569-2.451-2.773-5.108-3.029-11.182-.289-6.783-.247-14.763-.5-23.354-.016-.966-.025-2.022-.132-2.987v-.355c-.008-.182-.017-.363-.017-.545-.248-9.573-.751-19.641-1.329-29.626-.371-6.272-.792-12.478-1.287-18.428-1.279-15.358-3-29.015-5.281-37.655-3.73-14.078-11.941-23.255-19.426-29.981l-5.413-4.638a31.257,31.257,0,0,1-19.633-2.616c-6.99-3.317-9.4-5.694-10.621-4.8-16.133,12.453-27.744,50.6-24.732,92.517Z" transform="translate(-1154.302 -351.438)" fill="#f40"/>
        <path id="Path_1117" data-name="Path 1117" d="M1217.455,613.195c14.664-4.539,30.633-11.025,32.349-15.836a3.735,3.735,0,0,0,.157-.553c-.008-.668-.017-1.345-.033-2.013-.569-2.451-2.772-5.108-3.028-11.182-.289-6.783-.248-14.763-.5-23.354-.016-.965-.025-2.022-.132-2.987v-.355c-.009-.182-.017-.363-.017-.545l-59.268-75.509S1147.136,563.821,1217.455,613.195Z" transform="translate(-1158.048 -362.538)" fill="#e03c00"/>
        <path id="Path_1118" data-name="Path 1118" d="M1220.071,402.69a117.7,117.7,0,0,1-2.014,13.748c-13.278-4.291-19.294-16.282-21.307-21.365.214-.85.4-1.725.586-2.624,1.865-.4,5.38-1.139,9.143-1.939Z" transform="translate(-1161.72 -346.748)" fill="#f40"/>
        <path id="Path_1119" data-name="Path 1119" d="M1221.68,403.659s-28.949-4.828-25.665-22.809,1.766-30.715,20.383-28.388,20.953,9.837,21.316,16.109-8.417,35.889-16.035,35.1Z" transform="translate(-1161.546 -340.051)" fill="#ff936b"/>
        <g id="Group_431" data-name="Group 431" transform="translate(102.87 150.638)">
          <rect id="Rectangle_707" data-name="Rectangle 707" width="2.682" height="70.285" transform="translate(73.749 67.674) rotate(-162)" fill="#232323"/>
          <rect id="Rectangle_708" data-name="Rectangle 708" width="73.759" height="4.415" transform="translate(73.742 67.715) rotate(-178.78)" fill="#232323"/>
        </g>
        <path id="Path_1120" data-name="Path 1120" d="M1280.78,601.53s23.693,6.247,32.581,5.6,16.273-4.885,17.4-7.089,3.466-6.123-2.583-5.4-14.31,2.005-14.565.842,4.935-1.048,4.935-1.048,1.568-2.278-.4-2.36-7.732-1.642-9.87-.578-4.118,5.018-5.677,4.852-19.83-8.227-19.83-8.227l-1.973,13.41Z" transform="translate(-1176.406 -381.284)" fill="#ff936b"/>
        <path id="Path_1121" data-name="Path 1121" d="M1179.09,449.876s2.8,95.521,23.783,106.381c10.349,5.356,57.09,20.078,71.119,22.595,0,0,3.771-2.426,4.2-13.955,0,0-48.029-23.932-54.028-34.718-8.937-16.051,13.311-60.044,1.576-75.492S1192.3,430.756,1179.09,449.876Z" transform="translate(-1158.634 -355.198)" fill="#f40"/>
        <path id="Path_1122" data-name="Path 1122" d="M1195.456,385.806s-.33-6.173,3.474-9.7c0,0-1.329-6.189,1.122-7.2s2.954,4.184,4.076,3.367,6.115-4.687,8.261-10.4,21.736,1.2,24.023,2.236,9.622-2.74,11.05-5.8a42.99,42.99,0,0,1-5.917-5.711c-1.832-2.451-14.681-18.964-32.63-14.277s-20.392,13.253-19.377,20.6-1.444,24.435,5.909,26.9Z" transform="translate(-1160.426 -337.48)" fill="#f40"/>
      </g>
    </g>
  </g>
</svg>
