<svg id="Group_580" data-name="Group 580" xmlns="http://www.w3.org/2000/svg" xmlns:xlink="http://www.w3.org/1999/xlink" width="31.998" height="58.074" viewBox="0 0 31.998 58.074">
  <defs>
    <clipPath id="clip-path">
      <rect id="Rectangle_847" data-name="Rectangle 847" width="31.998" height="58.074" fill="#ffe3d9"/>
    </clipPath>
  </defs>
  <g id="Group_579" data-name="Group 579" clip-path="url(#clip-path)">
    <path id="Path_1753" data-name="Path 1753" d="M20.517,25.2c0-8.124.01-16.248-.019-24.372,0-.68.2-.783.811-.779,3.437.022,6.875,0,10.312-.019.284,0,.4.055.374.34-.012.149,0,.3,0,.451V58.074c-3.752-.491-7.471-.814-11.2-.95a.75.75,0,0,1-.8-.617q-4.1-11.655-8.232-23.3a1.175,1.175,0,0,0-.268-.474v.647q0,11.51.013,23.02c0,.538-.1.721-.678.743-3.5.129-6.981.458-10.454.89-.307.038-.382-.046-.359-.319.011-.128,0-.258,0-.387Q.014,29.051,0,.776C0,.173.115-.007.754,0q5,.056,9.992,0a.871.871,0,0,1,1,.7q4.242,12.081,8.525,24.148c.047.134.1.264.155.4l.093-.044" transform="translate(0 0)" fill="#ffe3d9"/>
  </g>
</svg>
