<svg xmlns="http://www.w3.org/2000/svg" xmlns:xlink="http://www.w3.org/1999/xlink" width="61.345" height="48.081" viewBox="0 0 61.345 48.081">
  <defs>
    <clipPath id="clip-path">
      <rect id="Rectangle_837" data-name="Rectangle 837" width="61.345" height="48.081" fill="#ff7a4a"/>
    </clipPath>
  </defs>
  <g id="Group_554" data-name="Group 554" transform="translate(-147 9)">
    <g id="Group_553" data-name="Group 553" transform="translate(147 -9)" clip-path="url(#clip-path)">
      <g id="Group_552" data-name="Group 552" transform="translate(0 0)">
        <g id="Group_551" data-name="Group 551" clip-path="url(#clip-path)">
          <g id="Group_550" data-name="Group 550" opacity="0.9">
            <g id="Group_549" data-name="Group 549">
              <g id="Group_548" data-name="Group 548" clip-path="url(#clip-path)">
                <path id="Path_1745" data-name="Path 1745" d="M52.479,0h8.87L42.863,17.326a18.039,18.039,0,0,1-24.206,0L.17,0H9.04L23.05,13.1a11.34,11.34,0,0,0,15.336,0Z" transform="translate(-0.087 0)" fill="#ff7a4a"/>
                <path id="Path_1746" data-name="Path 1746" d="M8.87,75.575H0L18.569,58.166a17.865,17.865,0,0,1,24.206,0L61.345,75.575h-8.87L38.382,62.311a11.341,11.341,0,0,0-15.336,0Z" transform="translate(0 -27.494)" fill="#ff7a4a"/>
              </g>
            </g>
          </g>
        </g>
      </g>
    </g>
  </g>
</svg>
