<svg id="Group_9649" data-name="Group 9649" xmlns="http://www.w3.org/2000/svg" xmlns:xlink="http://www.w3.org/1999/xlink" width="72.181" height="72.181" viewBox="0 0 72.181 72.181">
  <defs>
    <clipPath id="clip-path">
      <rect id="Rectangle_8216" data-name="Rectangle 8216" width="72.181" height="72.181" fill="none"/>
    </clipPath>
  </defs>
  <g id="Group_9649-2" data-name="Group 9649" clip-path="url(#clip-path)">
    <path id="Path_16826" data-name="Path 16826" d="M71.644,64.155,66.75,59.261a1.836,1.836,0,0,0-2.6,2.6l1.762,1.759H8.565V6.266l1.759,1.762a1.836,1.836,0,0,0,2.6-2.6L8.027.538a1.836,1.836,0,0,0-2.6,0L.537,5.432a1.836,1.836,0,0,0,2.6,2.6L4.895,6.266V65.452A1.836,1.836,0,0,0,6.73,67.287H65.916l-1.762,1.762a1.836,1.836,0,0,0,2.6,2.6l4.894-4.894a1.836,1.836,0,0,0,0-2.6" transform="translate(-0.001 0)"/>
    <path id="Path_16827" data-name="Path 16827" d="M7.835,27.692a1.821,1.821,0,0,0,1.3-.538L20.069,16.218l8.49,8.488a1.833,1.833,0,0,0,2.594,0L47.6,8.266v2.909a1.835,1.835,0,1,0,3.67,0V3.835A1.836,1.836,0,0,0,49.431,2H42.09a1.835,1.835,0,0,0,0,3.67H45L29.856,20.814l-8.49-8.488a1.833,1.833,0,0,0-2.594,0L6.538,24.56a1.835,1.835,0,0,0,1.3,3.132" transform="translate(8.681 2.894)"/>
    <path id="Path_16828" data-name="Path 16828" d="M51.58,8.14a1.828,1.828,0,0,0-2,.4L31.3,26.814l-8.49-8.488a1.833,1.833,0,0,0-2.594,0L5.538,33.007A1.827,1.827,0,0,0,5,34.3V46.538a1.836,1.836,0,0,0,1.835,1.835H50.878a1.836,1.836,0,0,0,1.835-1.835V9.836a1.837,1.837,0,0,0-1.133-1.7M49.043,44.7H8.67V35.065L21.516,22.219l8.49,8.488a1.833,1.833,0,0,0,2.594,0l16.443-16.44Z" transform="translate(7.234 11.574)" fill="#f40"/>
  </g>
</svg>
