<svg xmlns="http://www.w3.org/2000/svg" xmlns:xlink="http://www.w3.org/1999/xlink" width="123" height="142" viewBox="0 0 123 142">
  <defs>
    <clipPath id="clip-path">
      <rect id="Rectangle_4648" data-name="Rectangle 4648" width="123" height="142" transform="translate(0 0.231)" fill="#fff" stroke="#707070" stroke-width="1"/>
    </clipPath>
    <clipPath id="clip-path-2">
      <rect id="Rectangle_4641" data-name="Rectangle 4641" width="142.966" height="142.855" fill="none" stroke="#fff" stroke-width="1"/>
    </clipPath>
  </defs>
  <g id="Mask_Group_4517" data-name="Mask Group 4517" transform="translate(0 -0.231)" clip-path="url(#clip-path)">
    <g id="Group_5321" data-name="Group 5321" transform="translate(-19.966 -0.605)">
      <g id="Group_5308" data-name="Group 5308">
        <g id="Group_5307" data-name="Group 5307" clip-path="url(#clip-path-2)">
          <path id="Path_10831" data-name="Path 10831" d="M188.42,399.7,202.652,376H174.188Z" transform="translate(-116.938 -375.684)" fill="none" stroke="#fff" stroke-width="1"/>
        </g>
      </g>
      <path id="Path_10832" data-name="Path 10832" d="M188.42,249.7,202.652,226H174.188Z" transform="translate(-116.938 -178.276)" fill="none" stroke="#fff" stroke-width="1"/>
      <g id="Group_5310" data-name="Group 5310">
        <g id="Group_5309" data-name="Group 5309" clip-path="url(#clip-path-2)">
          <path id="Path_10833" data-name="Path 10833" d="M275.061,399.7,289.293,376H260.829Z" transform="translate(-232.056 -375.684)" fill="none" stroke="#fff" stroke-width="1"/>
          <path id="Path_10834" data-name="Path 10834" d="M101.74,399.7,115.972,376H87.508Z" transform="translate(-1.768 -375.684)" fill="none" stroke="#fff" stroke-width="1"/>
        </g>
      </g>
      <path id="Path_10835" data-name="Path 10835" d="M231.76,324.7,245.992,301H217.528Z" transform="translate(-174.523 -276.98)" fill="none" stroke="#fff" stroke-width="1"/>
      <path id="Path_10836" data-name="Path 10836" d="M145.08,324.7,159.312,301H130.848Z" transform="translate(-59.353 -276.98)" fill="none" stroke="#fff" stroke-width="1"/>
      <path id="Path_10837" data-name="Path 10837" d="M145.1,226l-14.232,23.7h28.464Z" transform="translate(-59.378 -178.276)" fill="none" stroke="#fff" stroke-width="1"/>
      <path id="Path_10838" data-name="Path 10838" d="M101.759,301,87.527,324.7h28.464Z" transform="translate(-1.793 -276.98)" fill="none" stroke="#fff" stroke-width="1"/>
      <g id="Group_5312" data-name="Group 5312">
        <g id="Group_5311" data-name="Group 5311" clip-path="url(#clip-path-2)">
          <path id="Path_10839" data-name="Path 10839" d="M15.1,399.7,29.331,376H.866Z" transform="translate(113.351 -375.684)" fill="none" stroke="#fff" stroke-width="1"/>
        </g>
      </g>
      <path id="Path_10840" data-name="Path 10840" d="M58.438,324.7,72.671,301H44.206Z" transform="translate(55.766 -276.98)" fill="#fff" stroke="#fff" stroke-width="1"/>
      <path id="Path_10841" data-name="Path 10841" d="M58.438,324.7,72.671,301H44.206Z" transform="translate(55.766 -276.98)" fill="none" stroke="#fff" stroke-width="1"/>
      <g id="Group_5314" data-name="Group 5314">
        <g id="Group_5313" data-name="Group 5313" clip-path="url(#clip-path-2)">
          <path id="Path_10842" data-name="Path 10842" d="M15.118,301,.886,324.7H29.35Z" transform="translate(113.325 -276.98)" fill="none" stroke="#fff" stroke-width="1"/>
          <path id="Path_10843" data-name="Path 10843" d="M361.649,399.7,375.881,376H347.417Z" transform="translate(-347.103 -375.684)" fill="none" stroke="#fff" stroke-width="1"/>
        </g>
      </g>
      <path id="Path_10844" data-name="Path 10844" d="M318.328,226,304.1,249.7H332.56Z" transform="translate(-289.544 -178.276)" fill="none" stroke="#fff" stroke-width="1"/>
      <g id="Group_5316" data-name="Group 5316">
        <g id="Group_5315" data-name="Group 5315" clip-path="url(#clip-path-2)">
          <path id="Path_10845" data-name="Path 10845" d="M318.328,376,304.1,399.7H332.56Z" transform="translate(-289.544 -375.684)" fill="none" stroke="#fff" stroke-width="1"/>
        </g>
      </g>
      <path id="Path_10846" data-name="Path 10846" d="M231.687,226l-14.232,23.7h28.464Z" transform="translate(-174.426 -178.276)" fill="none" stroke="#fff" stroke-width="1"/>
      <path id="Path_10847" data-name="Path 10847" d="M274.988,301l-14.232,23.7H289.22Z" transform="translate(-231.959 -276.98)" fill="none" stroke="#fff" stroke-width="1"/>
      <g id="Group_5318" data-name="Group 5318">
        <g id="Group_5317" data-name="Group 5317" clip-path="url(#clip-path-2)">
          <path id="Path_10848" data-name="Path 10848" d="M361.669,301l-14.232,23.7H375.9Z" transform="translate(-347.129 -276.98)" fill="none" stroke="#fff" stroke-width="1"/>
        </g>
      </g>
      <path id="Path_10849" data-name="Path 10849" d="M318.4,174.7,332.629,151H304.165Z" transform="translate(-289.635 -79.573)" fill="none" stroke="#fff" stroke-width="1"/>
      <g id="Group_5320" data-name="Group 5320">
        <g id="Group_5319" data-name="Group 5319" clip-path="url(#clip-path-2)">
          <path id="Path_10850" data-name="Path 10850" d="M318.4,24.7,332.629,1H304.165Z" transform="translate(-289.635 117.835)" fill="none" stroke="#fff" stroke-width="1"/>
          <path id="Path_10851" data-name="Path 10851" d="M361.737,99.7,375.969,76H347.5Z" transform="translate(-347.22 19.131)" fill="none" stroke="#fff" stroke-width="1"/>
          <path id="Path_10852" data-name="Path 10852" d="M275.076,1,260.844,24.7h28.464Z" transform="translate(-232.076 117.835)" fill="none" stroke="#fff" stroke-width="1"/>
        </g>
      </g>
    </g>
  </g>
</svg>
