<svg xmlns="http://www.w3.org/2000/svg" xmlns:xlink="http://www.w3.org/1999/xlink" width="252" height="291" viewBox="0 0 252 291">
  <defs>
    <clipPath id="clip-path">
      <rect id="Rectangle_4640" data-name="Rectangle 4640" width="252" height="291" transform="translate(0 0.231)" fill="#fff" stroke="#707070" stroke-width="1"/>
    </clipPath>
    <clipPath id="clip-path-2">
      <rect id="Rectangle_4633" data-name="Rectangle 4633" width="292.906" height="292.752" fill="none" stroke="#fff" stroke-width="1"/>
    </clipPath>
  </defs>
  <g id="Mask_Group_4516" data-name="Mask Group 4516" transform="translate(0 -0.231)" clip-path="url(#clip-path)">
    <g id="Group_5306" data-name="Group 5306" transform="translate(-40.906 -1.482)">
      <g id="Group_5293" data-name="Group 5293">
        <g id="Group_5292" data-name="Group 5292" clip-path="url(#clip-path-2)">
          <path id="Path_10809" data-name="Path 10809" d="M203.346,424.576,232.5,376H174.188Z" transform="translate(-56.895 -375.352)" fill="none" stroke="#fff" stroke-width="1"/>
        </g>
      </g>
      <path id="Path_10810" data-name="Path 10810" d="M203.346,274.576,232.5,226H174.188Z" transform="translate(-56.895 -128.2)" fill="none" stroke="#fff" stroke-width="1"/>
      <g id="Group_5295" data-name="Group 5295">
        <g id="Group_5294" data-name="Group 5294" clip-path="url(#clip-path-2)">
          <path id="Path_10811" data-name="Path 10811" d="M289.988,424.576,319.146,376H260.829Z" transform="translate(-201.879 -375.352)" fill="none" stroke="#fff" stroke-width="1"/>
          <path id="Path_10812" data-name="Path 10812" d="M116.666,424.576,145.825,376H87.508Z" transform="translate(88.155 -375.352)" fill="none" stroke="#fff" stroke-width="1"/>
        </g>
      </g>
      <path id="Path_10813" data-name="Path 10813" d="M246.686,349.576,275.845,301H217.528Z" transform="translate(-129.42 -251.776)" fill="none" stroke="#fff" stroke-width="1"/>
      <path id="Path_10814" data-name="Path 10814" d="M160.006,349.576,189.165,301H130.848Z" transform="translate(15.63 -251.776)" fill="none" stroke="#fff" stroke-width="1"/>
      <path id="Path_10815" data-name="Path 10815" d="M160.026,226l-29.158,48.576h58.317Z" transform="translate(15.598 -128.2)" fill="none" stroke="#fff" stroke-width="1"/>
      <path id="Path_10816" data-name="Path 10816" d="M116.686,301,87.527,349.576h58.317Z" transform="translate(88.122 -251.776)" fill="none" stroke="#fff" stroke-width="1"/>
      <g id="Group_5297" data-name="Group 5297">
        <g id="Group_5296" data-name="Group 5296" clip-path="url(#clip-path-2)">
          <path id="Path_10817" data-name="Path 10817" d="M30.025,424.576,59.183,376H.866Z" transform="translate(233.14 -375.352)" fill="none" stroke="#fff" stroke-width="1"/>
        </g>
      </g>
      <path id="Path_10818" data-name="Path 10818" d="M73.365,349.576,102.523,301H44.206Z" transform="translate(160.615 -251.776)" fill="#fff" stroke="#fff" stroke-width="1"/>
      <path id="Path_10819" data-name="Path 10819" d="M73.365,349.576,102.523,301H44.206Z" transform="translate(160.615 -251.776)" fill="none" stroke="#fff" stroke-width="1"/>
      <g id="Group_5299" data-name="Group 5299">
        <g id="Group_5298" data-name="Group 5298" clip-path="url(#clip-path-2)">
          <path id="Path_10820" data-name="Path 10820" d="M30.044,301,.886,349.576H59.2Z" transform="translate(233.107 -251.776)" fill="none" stroke="#fff" stroke-width="1"/>
          <path id="Path_10821" data-name="Path 10821" d="M376.575,424.576,405.734,376H347.417Z" transform="translate(-346.775 -375.352)" fill="none" stroke="#fff" stroke-width="1"/>
        </g>
      </g>
      <path id="Path_10822" data-name="Path 10822" d="M333.255,226,304.1,274.576h58.317Z" transform="translate(-274.282 -128.2)" fill="none" stroke="#fff" stroke-width="1"/>
      <g id="Group_5301" data-name="Group 5301">
        <g id="Group_5300" data-name="Group 5300" clip-path="url(#clip-path-2)">
          <path id="Path_10823" data-name="Path 10823" d="M333.255,376,304.1,424.576h58.317Z" transform="translate(-274.282 -375.352)" fill="none" stroke="#fff" stroke-width="1"/>
        </g>
      </g>
      <path id="Path_10824" data-name="Path 10824" d="M246.613,226l-29.158,48.576h58.317Z" transform="translate(-129.297 -128.2)" fill="none" stroke="#fff" stroke-width="1"/>
      <path id="Path_10825" data-name="Path 10825" d="M289.915,301l-29.158,48.576h58.317Z" transform="translate(-201.757 -251.776)" fill="none" stroke="#fff" stroke-width="1"/>
      <g id="Group_5303" data-name="Group 5303">
        <g id="Group_5302" data-name="Group 5302" clip-path="url(#clip-path-2)">
          <path id="Path_10826" data-name="Path 10826" d="M376.595,301l-29.158,48.576h58.317Z" transform="translate(-346.807 -251.776)" fill="none" stroke="#fff" stroke-width="1"/>
        </g>
      </g>
      <path id="Path_10827" data-name="Path 10827" d="M333.323,199.576,362.482,151H304.165Z" transform="translate(-274.397 -4.624)" fill="none" stroke="#fff" stroke-width="1"/>
      <g id="Group_5305" data-name="Group 5305">
        <g id="Group_5304" data-name="Group 5304" clip-path="url(#clip-path-2)">
          <path id="Path_10828" data-name="Path 10828" d="M333.323,49.576,362.482,1H304.165Z" transform="translate(-274.397 242.528)" fill="none" stroke="#fff" stroke-width="1"/>
          <path id="Path_10829" data-name="Path 10829" d="M376.663,124.576,405.822,76H347.5Z" transform="translate(-346.922 118.952)" fill="none" stroke="#fff" stroke-width="1"/>
          <path id="Path_10830" data-name="Path 10830" d="M290,1,260.844,49.576h58.317Z" transform="translate(-201.904 242.528)" fill="none" stroke="#fff" stroke-width="1"/>
        </g>
      </g>
    </g>
  </g>
</svg>
