<svg xmlns="http://www.w3.org/2000/svg" xmlns:xlink="http://www.w3.org/1999/xlink" width="542.127" height="452.054" viewBox="0 0 542.127 452.054">
  <defs>
    <clipPath id="clip-path">
      <path id="Path_8472" data-name="Path 8472" d="M1543.494-589.715c-15.094,78.873,41.01,146.163,161.21,145.661s43.918,97.8,144.282,103.948,149.3-55.3,136.852-191.692-14.648-296.412-221.484-245.761C1633.887-745.611,1557.634-663.6,1543.494-589.715Z" transform="translate(-1541.085 787.147)" fill="none"/>
    </clipPath>
  </defs>
  <g id="Group_3952" data-name="Group 3952" transform="translate(-1466.201 787.147)">
    <g id="Group_3927" data-name="Group 3927" transform="translate(1517.322 -787.147)">
      <rect id="Rectangle_3352" data-name="Rectangle 3352" width="409.709" height="3.111" transform="translate(15.406 447.494)" fill="#040506"/>
      <path id="Path_8462" data-name="Path 8462" d="M1543.494-589.715c-15.094,78.873,41.01,146.163,161.21,145.661s43.918,97.8,144.282,103.948,149.3-55.3,136.852-191.692-14.648-296.412-221.484-245.761C1633.887-745.611,1557.634-663.6,1543.494-589.715Z" transform="translate(-1541.085 787.147)" fill="#e0e7ed"/>
      <path id="Path_8463" data-name="Path 8463" d="M1660.347-257.555c37.262-9.058,110.508-16.679,133.965,18.115s.13,47.565-42.091,30.754S1608.888-245.044,1660.347-257.555Z" transform="translate(-1574.403 621.512)" fill="#e0e7ed"/>
      <g id="Group_3926" data-name="Group 3926" transform="translate(0)">
        <g id="Group_3925" data-name="Group 3925" clip-path="url(#clip-path)">
          <g id="Group_3919" data-name="Group 3919" transform="translate(8.747 26.099)">
            <g id="Group_3918" data-name="Group 3918">
              <g id="Group_3917" data-name="Group 3917">
                <g id="Group_3911" data-name="Group 3911" transform="translate(77.178)">
                  <path id="Path_8464" data-name="Path 8464" d="M1701.125-652.191v-16.736h27.76v-79.99h7.652v79.99h29.9v16.736h16.016v335.385h-115.5V-652.191Z" transform="translate(-1666.95 748.916)" fill="#b8c5d3"/>
                  <rect id="Rectangle_3353" data-name="Rectangle 3353" width="16.015" height="301.692" transform="translate(0.001 96.725)" fill="#99a8b6"/>
                </g>
                <g id="Group_3912" data-name="Group 3912" transform="translate(134.93 176.616)">
                  <rect id="Rectangle_3354" data-name="Rectangle 3354" width="115.502" height="255.494" fill="#b8c5d3"/>
                  <rect id="Rectangle_3355" data-name="Rectangle 3355" width="16.015" height="255.494" fill="#99a8b6"/>
                  <rect id="Rectangle_3356" data-name="Rectangle 3356" width="16.575" height="6.878" transform="translate(82.811 10.885)" fill="#99a8b6"/>
                  <rect id="Rectangle_3357" data-name="Rectangle 3357" width="16.574" height="6.878" transform="translate(54.906 10.885)" fill="#99a8b6"/>
                  <rect id="Rectangle_3358" data-name="Rectangle 3358" width="16.575" height="6.878" transform="translate(82.811 35.932)" fill="#99a8b6"/>
                  <rect id="Rectangle_3359" data-name="Rectangle 3359" width="16.574" height="6.878" transform="translate(54.906 35.932)" fill="#99a8b6"/>
                  <rect id="Rectangle_3360" data-name="Rectangle 3360" width="16.575" height="6.878" transform="translate(27.001 35.932)" fill="#99a8b6"/>
                  <rect id="Rectangle_3361" data-name="Rectangle 3361" width="16.575" height="6.878" transform="translate(82.811 60.977)" fill="#99a8b6"/>
                  <rect id="Rectangle_3362" data-name="Rectangle 3362" width="16.575" height="6.878" transform="translate(27.001 60.977)" fill="#99a8b6"/>
                  <rect id="Rectangle_3363" data-name="Rectangle 3363" width="16.574" height="6.878" transform="translate(54.906 73.501)" fill="#99a8b6"/>
                  <rect id="Rectangle_3364" data-name="Rectangle 3364" width="16.575" height="6.879" transform="translate(82.811 86.025)" fill="#99a8b6"/>
                  <rect id="Rectangle_3365" data-name="Rectangle 3365" width="16.574" height="6.881" transform="translate(54.906 98.547)" fill="#99a8b6"/>
                  <rect id="Rectangle_3366" data-name="Rectangle 3366" width="16.575" height="6.878" transform="translate(82.811 111.07)" fill="#99a8b6"/>
                  <rect id="Rectangle_3367" data-name="Rectangle 3367" width="16.575" height="6.878" transform="translate(27.001 111.07)" fill="#99a8b6"/>
                  <rect id="Rectangle_3368" data-name="Rectangle 3368" width="16.575" height="6.879" transform="translate(82.811 134.217)" fill="#99a8b6"/>
                  <rect id="Rectangle_3369" data-name="Rectangle 3369" width="16.574" height="6.879" transform="translate(54.906 134.217)" fill="#99a8b6"/>
                  <rect id="Rectangle_3370" data-name="Rectangle 3370" width="16.575" height="6.878" transform="translate(82.811 159.262)" fill="#99a8b6"/>
                  <rect id="Rectangle_3371" data-name="Rectangle 3371" width="16.574" height="6.878" transform="translate(54.906 159.262)" fill="#99a8b6"/>
                  <rect id="Rectangle_3372" data-name="Rectangle 3372" width="16.575" height="6.878" transform="translate(27.001 159.262)" fill="#99a8b6"/>
                  <rect id="Rectangle_3373" data-name="Rectangle 3373" width="16.575" height="6.878" transform="translate(82.811 184.31)" fill="#99a8b6"/>
                  <rect id="Rectangle_3374" data-name="Rectangle 3374" width="16.575" height="6.878" transform="translate(27.001 184.31)" fill="#99a8b6"/>
                  <rect id="Rectangle_3375" data-name="Rectangle 3375" width="16.574" height="6.878" transform="translate(54.906 196.832)" fill="#99a8b6"/>
                  <rect id="Rectangle_3376" data-name="Rectangle 3376" width="16.575" height="6.878" transform="translate(27.001 196.832)" fill="#99a8b6"/>
                  <rect id="Rectangle_3377" data-name="Rectangle 3377" width="16.575" height="6.879" transform="translate(82.811 209.356)" fill="#99a8b6"/>
                  <rect id="Rectangle_3378" data-name="Rectangle 3378" width="16.574" height="6.878" transform="translate(54.906 221.88)" fill="#99a8b6"/>
                  <rect id="Rectangle_3379" data-name="Rectangle 3379" width="16.575" height="6.881" transform="translate(82.811 234.401)" fill="#99a8b6"/>
                  <rect id="Rectangle_3380" data-name="Rectangle 3380" width="16.575" height="6.881" transform="translate(27.001 234.401)" fill="#99a8b6"/>
                </g>
                <g id="Group_3913" data-name="Group 3913" transform="translate(411.292 176.616)">
                  <rect id="Rectangle_3381" data-name="Rectangle 3381" width="115.503" height="255.492" fill="#b8c5d3"/>
                  <rect id="Rectangle_3382" data-name="Rectangle 3382" width="16.015" height="255.492" fill="#99a8b6"/>
                </g>
                <g id="Group_3914" data-name="Group 3914" transform="translate(247.216 55.093)">
                  <rect id="Rectangle_3383" data-name="Rectangle 3383" width="154.973" height="377.018" fill="#b8c5d3"/>
                  <rect id="Rectangle_3384" data-name="Rectangle 3384" width="16.016" height="377.018" fill="#99a8b6"/>
                  <rect id="Rectangle_3385" data-name="Rectangle 3385" width="24.203" height="10.045" transform="translate(114.445 18.057)" fill="#99a8b6"/>
                  <rect id="Rectangle_3386" data-name="Rectangle 3386" width="24.203" height="10.045" transform="translate(73.696 18.057)" fill="#99a8b6"/>
                  <rect id="Rectangle_3387" data-name="Rectangle 3387" width="24.203" height="10.046" transform="translate(114.445 54.632)" fill="#99a8b6"/>
                  <rect id="Rectangle_3388" data-name="Rectangle 3388" width="24.203" height="10.046" transform="translate(73.696 54.632)" fill="#99a8b6"/>
                  <rect id="Rectangle_3389" data-name="Rectangle 3389" width="24.202" height="10.046" transform="translate(32.946 54.632)" fill="#99a8b6"/>
                  <rect id="Rectangle_3390" data-name="Rectangle 3390" width="24.203" height="10.045" transform="translate(114.445 91.207)" fill="#99a8b6"/>
                  <rect id="Rectangle_3391" data-name="Rectangle 3391" width="24.202" height="10.045" transform="translate(32.946 91.207)" fill="#99a8b6"/>
                  <rect id="Rectangle_3392" data-name="Rectangle 3392" width="24.203" height="10.045" transform="translate(73.696 109.495)" fill="#99a8b6"/>
                  <rect id="Rectangle_3393" data-name="Rectangle 3393" width="24.203" height="10.046" transform="translate(114.445 127.782)" fill="#99a8b6"/>
                  <rect id="Rectangle_3394" data-name="Rectangle 3394" width="24.203" height="10.046" transform="translate(73.696 146.069)" fill="#99a8b6"/>
                  <rect id="Rectangle_3395" data-name="Rectangle 3395" width="24.203" height="10.045" transform="translate(114.445 164.356)" fill="#99a8b6"/>
                  <rect id="Rectangle_3396" data-name="Rectangle 3396" width="24.202" height="10.045" transform="translate(32.946 164.356)" fill="#99a8b6"/>
                  <rect id="Rectangle_3397" data-name="Rectangle 3397" width="24.203" height="10.045" transform="translate(114.445 198.157)" fill="#99a8b6"/>
                  <rect id="Rectangle_3398" data-name="Rectangle 3398" width="24.203" height="10.045" transform="translate(73.696 198.157)" fill="#99a8b6"/>
                  <rect id="Rectangle_3399" data-name="Rectangle 3399" width="24.203" height="10.045" transform="translate(114.445 234.731)" fill="#99a8b6"/>
                  <rect id="Rectangle_3400" data-name="Rectangle 3400" width="24.203" height="10.045" transform="translate(73.696 234.731)" fill="#99a8b6"/>
                  <rect id="Rectangle_3401" data-name="Rectangle 3401" width="24.202" height="10.045" transform="translate(32.946 234.731)" fill="#99a8b6"/>
                  <rect id="Rectangle_3402" data-name="Rectangle 3402" width="24.203" height="10.045" transform="translate(114.445 271.306)" fill="#99a8b6"/>
                  <rect id="Rectangle_3403" data-name="Rectangle 3403" width="24.202" height="10.045" transform="translate(32.946 271.306)" fill="#99a8b6"/>
                  <rect id="Rectangle_3404" data-name="Rectangle 3404" width="24.203" height="10.045" transform="translate(73.696 289.593)" fill="#99a8b6"/>
                  <rect id="Rectangle_3405" data-name="Rectangle 3405" width="24.202" height="10.045" transform="translate(32.946 289.593)" fill="#99a8b6"/>
                  <rect id="Rectangle_3406" data-name="Rectangle 3406" width="24.203" height="10.045" transform="translate(114.445 307.88)" fill="#99a8b6"/>
                  <rect id="Rectangle_3407" data-name="Rectangle 3407" width="24.203" height="10.047" transform="translate(73.696 326.167)" fill="#99a8b6"/>
                  <rect id="Rectangle_3408" data-name="Rectangle 3408" width="24.203" height="10.047" transform="translate(114.445 344.455)" fill="#99a8b6"/>
                  <rect id="Rectangle_3409" data-name="Rectangle 3409" width="24.202" height="10.047" transform="translate(32.946 344.455)" fill="#99a8b6"/>
                </g>
                <g id="Group_3915" data-name="Group 3915" transform="translate(490.866 83.195)">
                  <rect id="Rectangle_3410" data-name="Rectangle 3410" width="151.89" height="348.915" fill="#b8c5d3"/>
                  <rect id="Rectangle_3411" data-name="Rectangle 3411" width="15.696" height="348.915" fill="#99a8b6"/>
                  <rect id="Rectangle_3412" data-name="Rectangle 3412" width="23.722" height="9.297" transform="translate(112.17 16.711)" fill="#99a8b6"/>
                  <rect id="Rectangle_3413" data-name="Rectangle 3413" width="23.72" height="9.297" transform="translate(72.231 16.711)" fill="#99a8b6"/>
                  <rect id="Rectangle_3414" data-name="Rectangle 3414" width="23.722" height="9.297" transform="translate(112.17 50.559)" fill="#99a8b6"/>
                  <rect id="Rectangle_3415" data-name="Rectangle 3415" width="23.72" height="9.297" transform="translate(72.231 50.559)" fill="#99a8b6"/>
                  <rect id="Rectangle_3416" data-name="Rectangle 3416" width="23.722" height="9.297" transform="translate(32.29 50.559)" fill="#99a8b6"/>
                  <rect id="Rectangle_3417" data-name="Rectangle 3417" width="23.722" height="9.297" transform="translate(112.17 84.408)" fill="#99a8b6"/>
                  <rect id="Rectangle_3418" data-name="Rectangle 3418" width="23.722" height="9.297" transform="translate(32.29 84.408)" fill="#99a8b6"/>
                  <rect id="Rectangle_3419" data-name="Rectangle 3419" width="23.72" height="9.297" transform="translate(72.231 101.332)" fill="#99a8b6"/>
                  <rect id="Rectangle_3420" data-name="Rectangle 3420" width="23.722" height="9.296" transform="translate(112.17 118.258)" fill="#99a8b6"/>
                  <rect id="Rectangle_3421" data-name="Rectangle 3421" width="23.72" height="9.296" transform="translate(72.231 135.181)" fill="#99a8b6"/>
                  <rect id="Rectangle_3422" data-name="Rectangle 3422" width="23.722" height="9.296" transform="translate(112.17 152.107)" fill="#99a8b6"/>
                  <rect id="Rectangle_3423" data-name="Rectangle 3423" width="23.722" height="9.296" transform="translate(32.29 152.107)" fill="#99a8b6"/>
                  <rect id="Rectangle_3424" data-name="Rectangle 3424" width="23.722" height="9.297" transform="translate(112.17 183.386)" fill="#99a8b6"/>
                  <rect id="Rectangle_3425" data-name="Rectangle 3425" width="23.72" height="9.297" transform="translate(72.231 183.386)" fill="#99a8b6"/>
                  <rect id="Rectangle_3426" data-name="Rectangle 3426" width="23.722" height="9.296" transform="translate(112.17 217.235)" fill="#99a8b6"/>
                  <rect id="Rectangle_3427" data-name="Rectangle 3427" width="23.72" height="9.296" transform="translate(72.231 217.235)" fill="#99a8b6"/>
                  <rect id="Rectangle_3428" data-name="Rectangle 3428" width="23.722" height="9.296" transform="translate(32.29 217.235)" fill="#99a8b6"/>
                  <rect id="Rectangle_3429" data-name="Rectangle 3429" width="23.722" height="9.296" transform="translate(112.17 251.083)" fill="#99a8b6"/>
                  <rect id="Rectangle_3430" data-name="Rectangle 3430" width="23.722" height="9.296" transform="translate(32.29 251.083)" fill="#99a8b6"/>
                  <rect id="Rectangle_3431" data-name="Rectangle 3431" width="23.72" height="9.296" transform="translate(72.231 268.007)" fill="#99a8b6"/>
                  <rect id="Rectangle_3432" data-name="Rectangle 3432" width="23.722" height="9.296" transform="translate(32.29 268.007)" fill="#99a8b6"/>
                  <rect id="Rectangle_3433" data-name="Rectangle 3433" width="23.722" height="9.297" transform="translate(112.17 284.932)" fill="#99a8b6"/>
                  <rect id="Rectangle_3434" data-name="Rectangle 3434" width="23.72" height="9.296" transform="translate(72.231 301.856)" fill="#99a8b6"/>
                  <rect id="Rectangle_3435" data-name="Rectangle 3435" width="23.722" height="9.299" transform="translate(112.17 318.779)" fill="#99a8b6"/>
                  <rect id="Rectangle_3436" data-name="Rectangle 3436" width="23.722" height="9.299" transform="translate(32.29 318.779)" fill="#99a8b6"/>
                </g>
                <g id="Group_3916" data-name="Group 3916" transform="translate(0 194.125)">
                  <rect id="Rectangle_3437" data-name="Rectangle 3437" width="97.824" height="237.985" fill="#b8c5d3"/>
                  <rect id="Rectangle_3438" data-name="Rectangle 3438" width="10.11" height="237.985" fill="#99a8b6"/>
                  <rect id="Rectangle_3439" data-name="Rectangle 3439" width="15.278" height="6.34" transform="translate(72.241 11.398)" fill="#99a8b6"/>
                  <rect id="Rectangle_3440" data-name="Rectangle 3440" width="15.278" height="6.34" transform="translate(46.519 11.398)" fill="#99a8b6"/>
                  <rect id="Rectangle_3441" data-name="Rectangle 3441" width="15.278" height="6.341" transform="translate(72.241 34.485)" fill="#99a8b6"/>
                  <rect id="Rectangle_3442" data-name="Rectangle 3442" width="15.278" height="6.341" transform="translate(46.519 34.485)" fill="#99a8b6"/>
                  <rect id="Rectangle_3443" data-name="Rectangle 3443" width="15.278" height="6.341" transform="translate(20.797 34.485)" fill="#99a8b6"/>
                  <rect id="Rectangle_3444" data-name="Rectangle 3444" width="15.278" height="6.341" transform="translate(72.241 57.573)" fill="#99a8b6"/>
                  <rect id="Rectangle_3445" data-name="Rectangle 3445" width="15.278" height="6.341" transform="translate(20.797 57.573)" fill="#99a8b6"/>
                  <rect id="Rectangle_3446" data-name="Rectangle 3446" width="15.278" height="6.341" transform="translate(46.519 69.116)" fill="#99a8b6"/>
                  <rect id="Rectangle_3447" data-name="Rectangle 3447" width="15.278" height="6.341" transform="translate(72.241 80.66)" fill="#99a8b6"/>
                  <rect id="Rectangle_3448" data-name="Rectangle 3448" width="15.278" height="6.341" transform="translate(46.519 92.204)" fill="#99a8b6"/>
                  <rect id="Rectangle_3449" data-name="Rectangle 3449" width="15.278" height="6.341" transform="translate(72.241 103.747)" fill="#99a8b6"/>
                  <rect id="Rectangle_3450" data-name="Rectangle 3450" width="15.278" height="6.341" transform="translate(20.797 103.747)" fill="#99a8b6"/>
                  <rect id="Rectangle_3451" data-name="Rectangle 3451" width="15.278" height="6.339" transform="translate(72.241 125.083)" fill="#99a8b6"/>
                  <rect id="Rectangle_3452" data-name="Rectangle 3452" width="15.278" height="6.339" transform="translate(46.519 125.083)" fill="#99a8b6"/>
                  <rect id="Rectangle_3453" data-name="Rectangle 3453" width="15.278" height="6.341" transform="translate(72.241 148.168)" fill="#99a8b6"/>
                  <rect id="Rectangle_3454" data-name="Rectangle 3454" width="15.278" height="6.341" transform="translate(46.519 148.168)" fill="#99a8b6"/>
                  <rect id="Rectangle_3455" data-name="Rectangle 3455" width="15.278" height="6.341" transform="translate(20.797 148.168)" fill="#99a8b6"/>
                  <rect id="Rectangle_3456" data-name="Rectangle 3456" width="15.278" height="6.339" transform="translate(72.241 171.257)" fill="#99a8b6"/>
                  <rect id="Rectangle_3457" data-name="Rectangle 3457" width="15.278" height="6.339" transform="translate(20.797 171.257)" fill="#99a8b6"/>
                  <rect id="Rectangle_3458" data-name="Rectangle 3458" width="15.278" height="6.341" transform="translate(46.519 182.799)" fill="#99a8b6"/>
                  <rect id="Rectangle_3459" data-name="Rectangle 3459" width="15.278" height="6.341" transform="translate(20.797 182.799)" fill="#99a8b6"/>
                  <rect id="Rectangle_3460" data-name="Rectangle 3460" width="15.278" height="6.341" transform="translate(72.241 194.342)" fill="#99a8b6"/>
                  <rect id="Rectangle_3461" data-name="Rectangle 3461" width="15.278" height="6.341" transform="translate(46.519 205.886)" fill="#99a8b6"/>
                  <rect id="Rectangle_3462" data-name="Rectangle 3462" width="15.278" height="6.341" transform="translate(72.241 217.432)" fill="#99a8b6"/>
                  <rect id="Rectangle_3463" data-name="Rectangle 3463" width="15.278" height="6.341" transform="translate(20.797 217.432)" fill="#99a8b6"/>
                </g>
              </g>
            </g>
          </g>
          <g id="Group_3924" data-name="Group 3924" transform="translate(-57.084 -43.84)">
            <g id="Group_3921" data-name="Group 3921" transform="translate(4.536 9.354)">
              <g id="Group_3920" data-name="Group 3920">
                <rect id="Rectangle_3464" data-name="Rectangle 3464" width="414.572" height="472.683" fill="#fff" opacity="0.35"/>
                <path id="Path_8465" data-name="Path 8465" d="M1658.224-371h-32.175l172.483-458.74h32.175Z" transform="translate(-1515.498 835.149)" fill="#fff" opacity="0.5"/>
                <path id="Path_8466" data-name="Path 8466" d="M1582.48-371h-16.089l172.483-458.74h16.087Z" transform="translate(-1496.567 835.149)" fill="#fff" opacity="0.5"/>
                <path id="Path_8467" data-name="Path 8467" d="M1863.868-348.107h-16.089L1995.657-757.6V-724.6Z" transform="translate(-1585.86 812.255)" fill="#fff" opacity="0.5"/>
              </g>
            </g>
            <g id="Group_3923" data-name="Group 3923" transform="translate(416.949)">
              <g id="Group_3922" data-name="Group 3922">
                <rect id="Rectangle_3465" data-name="Rectangle 3465" width="414.571" height="472.685" transform="translate(4.339)" fill="#fff" opacity="0.35"/>
                <path id="Path_8468" data-name="Path 8468" d="M2160.063-371h-32.175l172.482-458.74h32.175Z" transform="translate(-2087.162 844.504)" fill="#fff" opacity="0.5"/>
                <path id="Path_8469" data-name="Path 8469" d="M2084.318-371h-16.087l172.483-458.74H2256.8Z" transform="translate(-2068.231 844.504)" fill="#fff" opacity="0.5"/>
                <path id="Path_8470" data-name="Path 8470" d="M2471.208-348.107h-16.086L2603-757.6V-724.6Z" transform="translate(-2191.004 821.61)" fill="#fff" opacity="0.6"/>
              </g>
            </g>
            <path id="Path_8471" data-name="Path 8471" d="M2310.615-754.917v-5.408h-14.893v-85.26H1457.465v10.817h9.031v3.818h267.352v70.626H1457.465v5.408h276.383v138.811H1457.465v5.408h276.383v138.811H1457.465v5.41h276.383v90.447H1466.581v3.127h-9.116v12.515h838.254v-1.006h0V-466.477h14.893v-5.41h-14.893V-610.7h14.893v-5.408h-14.893V-754.917ZM1881.148-610.7h129.122v138.811H1881.148Zm0-5.408V-754.917h129.122v138.811Zm0-144.219v-70.626h129.122v70.626Zm0,293.848h129.122v90.447H1881.193v3.127h-.045Zm138.191,90.447v-90.447H2148.46v90.447Zm0-95.857V-610.7H2148.46v138.811Zm0-144.219V-754.917H2148.46v138.811Zm0-144.219v-70.626H2148.46v70.626Zm138.191-70.626h129.122v70.626H2157.529Zm-414.611,0h129.121v70.626H1742.918Zm0,76.034h129.121v138.811H1742.918Zm0,144.219h129.121v138.811H1742.918Zm0,144.221h129.121V-372.9h-.048v-3.127H1742.918ZM2286.651-372.9h-.048v-3.127H2157.529v-90.447h129.122Zm0-98.983H2157.529V-610.7h129.122Zm0-144.219H2157.529V-754.917h129.122Z" transform="translate(-1457.465 849.532)" fill="#fff"/>
          </g>
        </g>
      </g>
    </g>
    <g id="Group_3937" data-name="Group 3937" transform="translate(1846.208 -653.877)">
      <g id="Group_3928" data-name="Group 3928" transform="translate(89.691 296.002)">
        <path id="Path_8473" data-name="Path 8473" d="M2155.222-157.024c.984-1.233,11.632-.2,11.738.434.327,1.961.832,9.468-.184,10.462-.985.963-10.181,3.057-10.389,1.157C2156.209-146.617,2154.271-155.839,2155.222-157.024Z" transform="translate(-2154.466 158.099)" fill="#fff"/>
        <path id="Path_8474" data-name="Path 8474" d="M2158.242-143.941a5.194,5.194,0,0,1-1.666-.211,1.2,1.2,0,0,1-.912-1c-.041-.378-.175-1.156-.346-2.142-1.026-5.96-1.444-9.363-.714-10.276h0c1.136-1.414,9.688-.525,11.633-.021.459.119.914.27.982.684.217,1.3.987,9.613-.326,10.9C2166.031-145.161,2161.2-143.941,2158.242-143.941Zm-2.864-13c-.584.769.508,7.1.919,9.485.174,1.016.312,1.817.354,2.2,0,.048.112.118.259.17,1.922.683,8.6-.948,9.289-1.627s.491-7.092.072-9.839C2164.817-157.178,2156.161-157.742,2155.378-156.943Z" transform="translate(-2154.236 158.33)" fill="#040506"/>
      </g>
      <path id="Path_8475" data-name="Path 8475" d="M2158.506-144.151s4.92,7.038,1.4,12.565c0,0-25.634,1.208-33.374,0,0,0-.2-9.448,6.433-10.252a121.4,121.4,0,0,1,14.11-.69S2153.685-138.922,2158.506-144.151Z" transform="translate(-2055.754 449.833)" fill="#040506"/>
      <g id="Group_3929" data-name="Group 3929" transform="translate(147.866 296.034)">
        <path id="Path_8476" data-name="Path 8476" d="M2240.482-156.973c.984-1.232,10.112-.242,10.219.4.327,1.961.832,9.468-.185,10.462-.984.963-8.995,4.088-9.2,2.187C2241.135-145.571,2239.53-155.785,2240.482-156.973Z" transform="translate(-2239.684 158.054)" fill="#fff"/>
        <path id="Path_8477" data-name="Path 8477" d="M2242.206-143.071a2.556,2.556,0,0,1-.844-.116,1.084,1.084,0,0,1-.772-.917c-.029-.269-.1-.767-.185-1.419-1.071-7.894-1.219-11.145-.542-11.99h0c1.124-1.4,8.311-.55,10.01-.111.621.163,1.019.341,1.085.735.216,1.3.986,9.613-.326,10.9A20.18,20.18,0,0,1,2242.206-143.071Zm-1.568-13.821c-.434.585-.182,4.364.749,11.235.09.663.159,1.171.189,1.444,0,.02,0,.048.12.091,1.437.507,7.405-1.757,8.242-2.578.7-.688.49-7.117.07-9.852-1.334-.651-8.718-1.124-9.369-.341Z" transform="translate(-2239.453 158.283)" fill="#040506"/>
      </g>
      <path id="Path_8478" data-name="Path 8478" d="M2156.479-329.776c-1.207,15.079-.1,45.483,1.106,60.562.071,1.011.076,36.04.076,36.04l-14.174,1.354c-7.717-23.022-22.452-74.65-22.452-97.571s1.979-61.112,10.4-79.231c8.011-17.228,39.6,6.567,43.319,10.789,1.713,1.953-1.532,19.393-6.018,30.95C2163.524-353.493,2157.13-337.883,2156.479-329.776Z" transform="translate(-2054.01 535.72)" fill="#040506"/>
      <g id="Group_3930" data-name="Group 3930" transform="translate(84.644 145.603)">
        <path id="Path_8479" data-name="Path 8479" d="M2166.78-257.841c-.825-15.1-3.317-45.38-2.111-60.459.65-8.107,10.477-31.48,15.689-44.87-1.376-4.125.341-12.986-3.062-15.279-2.822-1.882-13.861,10.592-15.091,14.284-.989,2.919.82,6.61,1.037,9.53a27.35,27.35,0,0,1-3.522,15.3c-3.906,6.926-8.708,12.377-10.9,20.219-4.246,15.245-.843,31.146,2.726,46.154,2.269,9.458,4.682,18.988,5.259,28.735.314,5.6,1.1,17.868.3,23.368l8.746-.835S2167.6-242.8,2166.78-257.841Z" transform="translate(-2146.843 378.641)" fill="#040506"/>
      </g>
      <path id="Path_8480" data-name="Path 8480" d="M2234.694-232.781l-12.586,1.354c-6.564-21.713-24.115-58.813-26.7-81.587-4-35.37-8.84-73.243-9.057-82.558-.027-1.5-.05-2.292-.05-2.292,8.661-10.543,23.343-14.84,29.88-15.611,2.583-.316,4.463.191,5.285,1.544a97.9,97.9,0,0,1,6.345,12.4c10.543,25.043,1.664,40.17,1.856,72.741,0,1.88.023,3.812.073,5.719.337,13.462-3.294,30.041.578,44.1C2237.913-249.379,2234.694-232.781,2234.694-232.781Z" transform="translate(-2074.721 535.327)" fill="#040506"/>
      <g id="Group_3931" data-name="Group 3931" transform="translate(11.481 35.987)">
        <path id="Path_8481" data-name="Path 8481" d="M2040.425-502.416c.58,17.2,5.139,30.5,15.875,29.8a46.273,46.273,0,0,0,24.007-8.081c.6-.41,1.206-.844,1.759-1.277.942-.75,1.81-1.473,2.656-2.219,1.133-1.063,2.169-2.1,3.113-3.139.143-.193.313-.363.456-.53,4.1-4.658,5.936-7.648,6.9-11.989a33.928,33.928,0,0,0,.94-7.578s10.208-33.92,1.956-30.858c-8.348,3.113-19.084,14.959-27.384,27.022-.023.048-.073.1-.1.147-.483.65-.893,1.277-1.327,1.9-.266.386-.553.772-.8,1.135-4.125,6.056-7.262,10.618-8.444,11.17-2.026.894-4.005-7.335-6.009-15.2v-.023c-.24-.966-.48-1.909-.723-2.849-1.424-5.549-2.846-10.327-4.222-10.714,0,0-5.765-5.357-6.2-2.438C2041.607-519.283,2040.184-510.594,2040.425-502.416Z" transform="translate(-2039.901 538.982)" fill="#fff"/>
        <path id="Path_8482" data-name="Path 8482" d="M2055.27-472.328a10.748,10.748,0,0,1-7.423-2.877c-6.159-5.578-7.831-17.992-8.149-27.424v0c-.218-7.44.908-15.133,2.1-23.278l.368-2.529a1.376,1.376,0,0,1,.888-1.214c1.692-.605,5.19,2.486,6.063,3.288,1.324.526,2.506,3.479,4.442,11.025.242.941.483,1.885.724,2.852l.282,1.133c1.55,6.1,3.306,13.014,4.8,13.742a.255.255,0,0,0,.243.014c1.09-.511,4.723-5.842,8.235-11,.141-.211.3-.434.461-.661l.719-1.037c.3-.446.61-.9.953-1.358l.087-.132c9.8-14.24,20.123-24.41,27.62-27.206a2.359,2.359,0,0,1,2.611.347c4.093,3.843-2.963,27.937-3.9,31.046a34.778,34.778,0,0,1-.955,7.62c-.943,4.244-2.713,7.325-7.012,12.205l-.157.178a4.141,4.141,0,0,0-.272.321c-.949,1.047-1.976,2.083-3.172,3.2-.84.743-1.715,1.475-2.686,2.247-.566.442-1.178.883-1.79,1.3a46.966,46.966,0,0,1-24.253,8.167C2055.822-472.337,2055.544-472.328,2055.27-472.328Zm-14.58-30.334c.447,13.251,3.153,22.491,7.823,26.721a9.835,9.835,0,0,0,7.524,2.6,46.005,46.005,0,0,0,23.754-7.992c.6-.408,1.193-.836,1.74-1.262.954-.759,1.815-1.479,2.632-2.2,1.165-1.093,2.174-2.111,3.074-3.1a4.451,4.451,0,0,1,.3-.357l.144-.162c4.229-4.8,5.879-7.662,6.793-11.775a33.782,33.782,0,0,0,.929-7.459l0-.08.024-.075c2.221-7.382,7.3-27.184,4.188-30.108-.24-.227-.665-.485-1.587-.141-8.611,3.211-19.669,15.97-27.147,26.838l-.485-.171.411.278c-.369.5-.667.943-.963,1.378l-.732,1.054c-.156.218-.309.433-.447.641-4.528,6.644-7.366,10.745-8.647,11.344a1.248,1.248,0,0,1-1.088-.024c-1.781-.868-3.2-6.016-5.329-14.391l-.3-1.257c-.226-.845-.465-1.787-.707-2.725-.7-2.733-2.563-9.99-3.876-10.359l-.2-.114c-1.864-1.73-4.358-3.437-5.137-3.151-.049.017-.181.063-.234.421l-.369,2.529c-1.185,8.1-2.305,15.75-2.089,23.1Z" transform="translate(-2039.67 539.212)" fill="#040506"/>
      </g>
      <path id="Path_8483" data-name="Path 8483" d="M2098.286-483.1c2.656-2.583,6.539-5.381,10.037-8.156,1.327-1.06,2.606-2.12,3.74-3.135a20.194,20.194,0,0,0,3.715-4.2,5.964,5.964,0,0,0,.823-1.859,90.8,90.8,0,0,0,.8-10.422c.457-13.392-1.055-31.6-7.236-29.929-10.591,2.865-21.066,16.537-30.017,27.251C2079.492-502.377,2084.776-490.121,2098.286-483.1Z" transform="translate(-2041.016 575.736)" fill="#e13113"/>
      <g id="Group_3932" data-name="Group 3932" transform="translate(137.997 129.272)">
        <path id="Path_8484" data-name="Path 8484" d="M2245.013-274.377c-2.189-14.428-2.677-29.74-2.99-43.2-.05-1.907-.073-3.839-.073-5.719-.192-32.571,8.68-48.485-1.863-73.529,0-5.007-11.839-7.441-11.937-4.4a61,61,0,0,0,.94,10.927c1.039,6.322,2.389,12.571,1.473,19.085-1.424,10.086-4.682,19.614-5.356,29.893-1.231,18.891,3.087,36.238,9.5,53.8,4.005,10.9,7.238,21.762,8.494,33.341a242.975,242.975,0,0,1,.9,25.165l2.866-.277S2250.271-239.7,2245.013-274.377Z" transform="translate(-2224.996 402.563)" fill="#040506"/>
      </g>
      <path id="Path_8485" data-name="Path 8485" d="M2109.906-530.806s-2.412,8.6,1.66,21.111c1.06,3.263,5.461,12.268,7.978,20.022,1.592-1.447,4.676-4.385,5.47-5.711l-7.358-16.383Z" transform="translate(-2050.252 572.531)" fill="#040506"/>
      <path id="Path_8486" data-name="Path 8486" d="M2120.708-503.233c2.968,6.031,5.744,11.508,6.9,15.15,3.643,11.533-6.411,30.376-4.649,38.962,1.616,1.977,24.839,11.737,42.323,12.365,22.767.819,40.5-7.829,40.714-11.158.193-3.039-9.651-42.292-15.61-59.084-6.611-18.648-15.778-36.7-20.99-42.028a10.261,10.261,0,0,0-1.159-1.013,16.048,16.048,0,0,0-6.971-2.436c-16.529-2.68-42.143,4.736-52.252,13.606C2106.83-530.418,2114.292-516.239,2120.708-503.233Z" transform="translate(-2050.071 579.584)" fill="#e13113"/>
      <path id="Path_8487" data-name="Path 8487" d="M2180.7-499.165s9.832,2.645,17.19,1.819c0,0,4.377-22.988-.418-36.881Z" transform="translate(-2072.943 573.617)" fill="#040506"/>
      <g id="Group_3933" data-name="Group 3933" transform="translate(73.267 19.939)">
        <path id="Path_8488" data-name="Path 8488" d="M2131.722-557.562v7.134s-1.848,4.086,0,4.326c6.282.813,9.825-7.251,9.825-7.251v-8.28Z" transform="translate(-2130.406 562.375)" fill="#fff"/>
        <path id="Path_8489" data-name="Path 8489" d="M2132.4-545.891a7.583,7.583,0,0,1-.966-.063,1.319,1.319,0,0,1-1.023-.677c-.663-1.187.293-3.566.591-4.247v-7.361l10.818-4.482-.042,9.221C2141.629-553.174,2138.356-545.892,2132.4-545.891Zm-.407-11.685-.044,7.008c-.483,1.069-1.011,2.848-.673,3.455a.331.331,0,0,0,.285.174c5.495.707,8.857-6,9.265-6.869v-7.427Z" transform="translate(-2130.177 562.72)" fill="#040506"/>
      </g>
      <g id="Group_3934" data-name="Group 3934" transform="translate(67.725 4.375)">
        <path id="Path_8490" data-name="Path 8490" d="M2126.735-584.753a49.241,49.241,0,0,0-3.914,13.083c-.641,4.853,7.632,12.35,14.87,5.513s5.229-17.289,5.229-17.289Z" transform="translate(-2122.29 585.275)" fill="#fff"/>
        <path id="Path_8491" data-name="Path 8491" d="M2131.179-563.155a8.76,8.76,0,0,1-4.008-1c-3.207-1.64-5.435-5.075-5.073-7.823a50.2,50.2,0,0,1,3.959-13.233l.147-.307,16.9,1.365.072.37c.021.108,1.976,10.8-5.375,17.744A9.647,9.647,0,0,1,2131.179-563.155Zm-4.37-21.319a49.052,49.052,0,0,0-3.726,12.626c-.312,2.358,1.682,5.349,4.539,6.809,1.862.951,5.57,1.991,9.5-1.721,6.205-5.861,5.4-14.575,5.14-16.466Z" transform="translate(-2122.06 585.518)" fill="#040506"/>
      </g>
      <path id="Path_8492" data-name="Path 8492" d="M2151.989-574.317c.052-.047.092-.328.212-.638a5.018,5.018,0,0,0-1.025-5.108,1.32,1.32,0,0,0-1.788-.155c-.023,0-.038-.012-.059-.012-2.06-.159-2.064,2.346-2.346,3.719-.474,2.309-1.906,5.08-1.185,7.47a2.959,2.959,0,0,0,3.684,2.1c1.989-.587,1.779-2.434,2.455-3.956a3.5,3.5,0,0,0,.45-2.571A4.368,4.368,0,0,0,2151.989-574.317Z" transform="translate(-2061.804 588.299)" fill="#040506"/>
      <g id="Group_3935" data-name="Group 3935" transform="translate(68.006 0)">
        <path id="Path_8493" data-name="Path 8493" d="M2128.647-590.351c-1.7-1.075-3.84-1.827-5.375-.05-1.976,2.286.109,4.919,1.869,6.463a1.14,1.14,0,0,0,1.8-.408c2.226,1.2,5.4,1.583,7.466,2.592,3.044,1.483,6.781,5.216,8.968.443C2147.079-589.4,2134.431-594.737,2128.647-590.351Z" transform="translate(-2122.47 591.927)" fill="#040506"/>
      </g>
      <g id="Group_3936" data-name="Group 3936" transform="translate(47.543 29.349)">
        <path id="Path_8494" data-name="Path 8494" d="M2100.219-536.109l-6.953,6.792s.232,1.744.787,4.591c1.672,8.367,6.1,26.25,15.264,35.748,8.269,8.572,23.538,6.92,35.478-.612l.023-.013a39.5,39.5,0,0,0,12.575-12.332,28.391,28.391,0,0,0,2.483-4.863c.208-.548.413-1.094.608-1.66l.007-.034c.039-.078.034-.133.072-.21,5.683-16.552,5.317-13.864,6.977-25.354.86-5.976-3.8-15.125-9.732-13.986-4.267.816-8.433-1.948-13.173,2.16a28.494,28.494,0,0,0-9.2,16.693c-.415,2.36-.931,5.061-1.528,7.726-.073.352-.133.672-.216,1-1.537,6.722-11.071,13.061-12.683,14.029-1.923,1.154-4.148-.016-6.414-2.482C2107.609-516.483,2100.219-536.109,2100.219-536.109Z" transform="translate(-2092.74 548.704)" fill="#fff"/>
        <path id="Path_8495" data-name="Path 8495" d="M2123.983-482.9c-5.747,0-11.183-1.727-15.267-5.961-9-9.329-13.509-26.556-15.394-35.994-.552-2.831-.791-4.605-.793-4.623l-.034-.247,7.675-7.5.268.711c.074.2,7.436,19.623,14.279,27.03,2.307,2.51,4.255,3.318,5.8,2.393.107-.065,10.845-6.678,12.454-13.713.065-.26.114-.5.167-.758l.048-.234c.524-2.348,1.037-4.939,1.524-7.711a29.062,29.062,0,0,1,9.362-16.982c3.281-2.845,6.282-2.555,9.181-2.279a14.576,14.576,0,0,0,4.221.007,6.645,6.645,0,0,1,5.932,2.058,15.988,15.988,0,0,1,4.385,12.487c-1.331,9.205-1.37,9.37-4.3,17.7-.709,2.015-1.589,4.514-2.7,7.749a1.861,1.861,0,0,1-.093.263c-.208.617-.4,1.135-.6,1.655a29.221,29.221,0,0,1-2.529,4.956,39.854,39.854,0,0,1-12.73,12.485C2138.75-485.574,2131.127-482.9,2123.983-482.9Zm-30.436-46.465c.085.574.322,2.122.75,4.317,1.863,9.331,6.309,26.352,15.134,35.5,8.387,8.7,23.884,6.235,34.856-.687a38.877,38.877,0,0,0,12.441-12.186,28.147,28.147,0,0,0,2.443-4.785c.2-.537.407-1.079.6-1.64l.1-.3c1.088-3.181,1.968-5.684,2.677-7.7,2.925-8.313,2.925-8.313,4.253-17.509a14.89,14.89,0,0,0-4.086-11.628,5.805,5.805,0,0,0-5.06-1.8,15.721,15.721,0,0,1-4.5.007c-2.816-.272-5.477-.528-8.438,2.041a28.071,28.071,0,0,0-9.034,16.4c-.49,2.785-1.006,5.391-1.531,7.747l-.046.22c-.055.272-.108.53-.174.794-1.726,7.545-12.8,14.265-12.909,14.332-1.995,1.2-4.363.335-7.035-2.572-6.305-6.824-12.8-23.009-14.207-26.645Z" transform="translate(-2092.496 548.936)" fill="#040506"/>
      </g>
      <path id="Path_8496" data-name="Path 8496" d="M2147.514-519.312c.623-2.761,4.821-20.316,14.573-28.471,4.438-3.71,15.969-4.8,21.039.45,8.123,8.41,2.982,25.481-2.316,40.911C2169.009-504.961,2157.051-510.111,2147.514-519.312Z" transform="translate(-2062.412 578.914)" fill="#e13113"/>
      <path id="Path_8497" data-name="Path 8497" d="M2241.559-144.151s4.919,7.038,1.4,12.565c0,0-25.634,1.208-33.374,0,0,0-.2-9.448,6.433-10.252S2231.164-143,2231.164-143,2236.738-138.922,2241.559-144.151Z" transform="translate(-2082.109 449.833)" fill="#040506"/>
      <path id="Path_8498" data-name="Path 8498" d="M2023.7-532.141a1.49,1.49,0,0,1,1.2-1.053,2.985,2.985,0,0,1-.733-2.338c.261-1.1.989-1.255,1.985-1.188a2.785,2.785,0,0,1,.531.09c.016-.071.011-.136.035-.208a.826.826,0,0,1,.646-.537,7.9,7.9,0,0,1,4.593,1.16c4.086,2.023,6.341,1.9,7.894,1.393-1.035-1.164-1.2-1.5-2.222-1.684a1.557,1.557,0,0,1-1.25-1.054c-.185-.724.3-1.042.806-1.24a10.328,10.328,0,0,1,3.644.012,2.383,2.383,0,0,1,1.709,1.016,15,15,0,0,1,2.321,14.346c-.459,1.058-6.67,2.795-6.711,2.5-.109-.758-.838-3.869-.58-5.037-4.308.6-9.046.228-9.3-2.061C2025.54-528.667,2022.988-529.894,2023.7-532.141Z" transform="translate(-2023.084 575.123)" fill="#fff"/>
      <path id="Path_8499" data-name="Path 8499" d="M2037.983-520.631a.531.531,0,0,1-.07,0l-.373-.051-.109-.4c-.022-.159-.073-.425-.137-.755a21.573,21.573,0,0,1-.5-3.781c-3.055.353-6.672.258-8.326-1.025a2.314,2.314,0,0,1-.852-1.2c-2.318-.587-3.808-1.441-4.429-2.539a2.583,2.583,0,0,1-.187-2.137h0a1.916,1.916,0,0,1,.924-1.148,3,3,0,0,1-.463-2.208,2.066,2.066,0,0,1,2.5-1.568c.049,0,.1.007.15.013a1.34,1.34,0,0,1,.949-.663,8.22,8.22,0,0,1,4.893,1.2c3.424,1.7,5.468,1.8,6.768,1.559-.566-.646-.748-.8-1.4-.917a2.055,2.055,0,0,1-1.642-1.419c-.147-.577-.074-1.362,1.106-1.826a8.508,8.508,0,0,1,3.383-.07l.487.049a2.867,2.867,0,0,1,2.059,1.209,15.491,15.491,0,0,1,2.383,14.845C2044.526-522.164,2038.933-520.631,2037.983-520.631Zm0-6.151-.155.7a15.39,15.39,0,0,0,.441,4.056c.026.138.05.265.072.378,1.323-.22,5.471-1.55,5.841-2.21a14.45,14.45,0,0,0-2.263-13.842,1.891,1.891,0,0,0-1.358-.824l-.5-.05a8.218,8.218,0,0,0-2.916.005c-.571.225-.572.406-.508.656a1.072,1.072,0,0,0,.857.688,3.214,3.214,0,0,1,2.152,1.44l.858.969-.721.236c-1.4.455-3.776.806-8.268-1.42a7.516,7.516,0,0,0-4.292-1.115.34.34,0,0,0-.252.194,1.4,1.4,0,0,1-.026.175l-.113.495-.494-.126a2.244,2.244,0,0,0-.433-.076c-1-.07-1.312.107-1.477.806a2.5,2.5,0,0,0,.651,1.933l.442.608-.733.167a1,1,0,0,0-.841.72h0a1.611,1.611,0,0,0,.1,1.347c.5.884,1.92,1.622,4.1,2.139l.339.081.04.347a1.278,1.278,0,0,0,.544.878c1.254.974,4.474,1.265,8.2.747Z" transform="translate(-2022.852 575.353)" fill="#040506"/>
      <path id="Path_8500" data-name="Path 8500" d="M2073.486-532.141a1.494,1.494,0,0,1,1.2-1.053,2.985,2.985,0,0,1-.732-2.338c.261-1.1.989-1.255,1.985-1.188a2.76,2.76,0,0,1,.531.09,1.959,1.959,0,0,1,.035-.208.828.828,0,0,1,.647-.537,7.906,7.906,0,0,1,4.593,1.16c4.086,2.023,6.341,1.9,7.893,1.393-1.034-1.164-1.2-1.5-2.222-1.684a1.556,1.556,0,0,1-1.249-1.054c-.185-.724.3-1.042.806-1.24a10.32,10.32,0,0,1,3.643.012,2.383,2.383,0,0,1,1.71,1.016,15,15,0,0,1,2.322,14.346c-.461,1.058-6.67,2.795-6.711,2.5-.109-.758-.839-3.869-.579-5.037-4.309.6-9.047.228-9.306-2.061C2075.325-528.667,2072.772-529.894,2073.486-532.141Z" transform="translate(-2038.881 575.123)" fill="#fff"/>
      <path id="Path_8501" data-name="Path 8501" d="M2087.768-520.631a.536.536,0,0,1-.071,0l-.372-.051-.109-.4c-.022-.159-.074-.425-.138-.757a21.631,21.631,0,0,1-.5-3.779c-3.053.353-6.672.258-8.325-1.025a2.319,2.319,0,0,1-.852-1.2c-2.317-.589-3.807-1.441-4.428-2.539a2.589,2.589,0,0,1-.188-2.137h0a1.926,1.926,0,0,1,.924-1.148,3.006,3.006,0,0,1-.462-2.208,2.065,2.065,0,0,1,2.5-1.568c.049,0,.1.007.151.014a1.344,1.344,0,0,1,.949-.664,8.247,8.247,0,0,1,4.892,1.2c3.423,1.7,5.469,1.8,6.768,1.559-.566-.644-.748-.8-1.405-.917a2.053,2.053,0,0,1-1.641-1.42c-.148-.576-.075-1.361,1.106-1.825a8.506,8.506,0,0,1,3.382-.07l.486.049a2.867,2.867,0,0,1,2.059,1.209,15.49,15.49,0,0,1,2.384,14.845C2094.311-522.164,2088.718-520.631,2087.768-520.631Zm0-6.151-.155.7a15.358,15.358,0,0,0,.442,4.054c.026.139.051.266.072.38,1.323-.22,5.471-1.55,5.841-2.21A14.454,14.454,0,0,0,2091.7-537.7a1.892,1.892,0,0,0-1.359-.824l-.5-.05a8.22,8.22,0,0,0-2.917.005c-.571.225-.572.406-.508.656a1.068,1.068,0,0,0,.857.688,3.22,3.22,0,0,1,2.154,1.442l.856.967-.721.236c-1.4.455-3.775.806-8.268-1.42a7.55,7.55,0,0,0-4.292-1.115.344.344,0,0,0-.255.2,1.283,1.283,0,0,1-.023.167l-.109.5-.5-.127a2.278,2.278,0,0,0-.436-.076c-.982-.057-1.312.115-1.477.806a2.507,2.507,0,0,0,.651,1.933l.441.608-.731.167a1,1,0,0,0-.842.721,1.61,1.61,0,0,0,.106,1.346c.5.883,1.919,1.622,4.1,2.139l.339.081.04.347a1.278,1.278,0,0,0,.543.878c1.255.974,4.472,1.265,8.2.747Z" transform="translate(-2038.651 575.353)" fill="#040506"/>
      <path id="Path_8502" data-name="Path 8502" d="M2044.289-520.907a23.659,23.659,0,0,0-1.354,6.608c-.444,4.553,7.214,1.681,7.821.35a9.543,9.543,0,0,0,.536-3.479l0-3.852-3.528-.7Z" transform="translate(-2029.22 569.73)" fill="#fff"/>
      <path id="Path_8503" data-name="Path 8503" d="M2094.922-518.667s.537,2.977.909,4.425,7.112-1.156,7.112-4.01v-4.26l-1.159-3.721-5.623,1.9Z" transform="translate(-2045.722 571.08)" fill="#fff"/>
    </g>
    <g id="Group_3948" data-name="Group 3948" transform="translate(1466.201 -650.045)">
      <g id="Group_3938" data-name="Group 3938" transform="translate(86.241 10.066)">
        <path id="Path_8504" data-name="Path 8504" d="M1615.543-528.336c4.285,1.408,27.509-12.113,26.784-27.946-.462-10.073-34.338-14.537-45.556-14.526-1.979,0-3.3,4.912-3.3,4.912-.3-1.18,31.747,9.325,30.842,11.227-2.354,4.953-28.985,14.45-29.727,15.447C1587.54-529.563,1611.278-529.742,1615.543-528.336Z" transform="translate(-1592.771 571.328)" fill="#fff"/>
        <path id="Path_8505" data-name="Path 8505" d="M1616.03-527.961a2.846,2.846,0,0,1-.89-.124h0a37.237,37.237,0,0,0-5.172-.817c-6.5-.787-15.4-1.866-17.138-5.869-.631-1.453-.261-3.133,1.1-5,.278-.373,1.444-.886,6.307-2.923,7.508-3.144,21.387-8.954,23.3-12.3-1.793-2.226-26.7-10.389-29.877-10.714l-.436,1.619-.584-2.3.16-.117c.321-1.1,1.625-5.066,3.736-5.068h.029c9.284,0,45.535,3.9,46.046,15.021.48,10.493-9.172,19-13.344,22.166C1624.245-530.571,1618.781-527.961,1616.03-527.961Zm-.566-1.109c1.7.547,7.417-1.768,13.168-6.139,4.042-3.069,13.393-11.29,12.935-21.29-.417-9.13-32.077-14.031-44.989-14.031-1.082-.055-2.122,2.275-2.647,3.871,5.092.687,27.893,8.735,30.237,10.86.524.472.493.866.375,1.111-1.613,3.393-12.694,8.258-23.906,12.953-2.865,1.2-5.571,2.332-5.908,2.62-1.1,1.525-1.427,2.825-.947,3.93,1.5,3.458,10.414,4.539,16.312,5.253a36.248,36.248,0,0,1,5.37.862Z" transform="translate(-1592.531 571.569)" fill="#040506"/>
      </g>
      <path id="Path_8506" data-name="Path 8506" d="M1571.627-524.192c-.7.6,11.436,12.843,18.743,14.223a5.226,5.226,0,0,0,2.548-.055c.053-.024.233-.1.519-.257h.026c.468-.262,1.17-.679,2.054-1.2a22.738,22.738,0,0,1,3.561-1.561c5.64-2.028,14.089-1.264,14.61-1.759-.13-6.187-7.149-17.609-20.382-21.2-.7.288-3.51,1.535-6.94,3.2a120.116,120.116,0,0,0-11.724,6.37A22.313,22.313,0,0,0,1571.627-524.192Z" transform="translate(-1499.647 570.346)" fill="#e13113"/>
      <path id="Path_8507" data-name="Path 8507" d="M1576.059-524.937a11.351,11.351,0,0,0,1.742,2.961c4.6,5.8,12.736,7.333,17.052,13.182h.026c.468-.261,1.17-.679,2.054-1.2a22.732,22.732,0,0,1,3.561-1.561,9.611,9.611,0,0,0-1.533-8.24,57.146,57.146,0,0,0-11.179-11.515A120.105,120.105,0,0,0,1576.059-524.937Z" transform="translate(-1501.062 568.859)" fill="#040506"/>
      <g id="Group_3939" data-name="Group 3939" transform="translate(79.378)">
        <path id="Path_8508" data-name="Path 8508" d="M1590.782-570.206c3.247-.547,3.569-3.38,4.07-5.031.8-2.641,1.069-5.194-.057-7.579-.276-.574-1.162-.58-1.851-.308a11.328,11.328,0,0,0-2.051-2.156c-1.028-.836-3.4.412-2.367,1.249.122.1.221.205.334.307-.795-.353-1.63-.679-2.488-1.008-1.407-.54-3.331,1.014-1.916,1.559a18.044,18.044,0,0,1,4.2,1.925,9.114,9.114,0,0,0-3.327-1.113c-1.65-.238-2.991,1.528-1.337,1.768,3.276.472,4.567,2.152,4.9,4.139-.261.114-.515.227-.738.353a9.512,9.512,0,0,0-1.876-2.273c-.988-.862-3.357.387-2.367,1.249a7.969,7.969,0,0,1,2.356,3.31,3.181,3.181,0,0,0,.1,1.569C1586.775-570.891,1588.416-569.8,1590.782-570.206Z" transform="translate(-1582.718 586.074)" fill="#fff"/>
        <path id="Path_8509" data-name="Path 8509" d="M1589.545-569.84a3.857,3.857,0,0,1-3.916-2.5,3.728,3.728,0,0,1-.14-1.671,7.544,7.544,0,0,0-2.162-2.967,1.1,1.1,0,0,1-.092-1.636,2.45,2.45,0,0,1,3.14-.4,9.656,9.656,0,0,1,1.649,1.882c-.493-1.8-1.92-2.846-4.348-3.2-.992-.143-1.26-.767-1.188-1.257a2,2,0,0,1,1.393-1.416,1.027,1.027,0,0,1-.606-1.343,2.53,2.53,0,0,1,3.044-1.121q.62.237,1.227.479a1.222,1.222,0,0,1,.25-.483,2.519,2.519,0,0,1,3.184-.463,12.065,12.065,0,0,1,1.918,1.953,1.771,1.771,0,0,1,2.125.689c1.038,2.2,1.067,4.729.085,7.954-.061.2-.118.412-.177.639-.448,1.679-1.125,4.218-4.3,4.754h0A6.47,6.47,0,0,1,1589.545-569.84Zm-4.378-8.546a1.769,1.769,0,0,0-.633.126c-.4.156-.576.377-.584.444a8.661,8.661,0,0,1,2.563,3.586l.049.134-.028.142a2.686,2.686,0,0,0,.089,1.316c.331,1.1,1.754,2.032,3.831,1.681h0c2.521-.425,3.048-2.407,3.474-4,.063-.239.124-.464.186-.671.915-3.006.9-5.229-.03-7.208-.106-.227-.681-.25-1.19-.046l-.375.147-.235-.326a10.9,10.9,0,0,0-1.957-2.056,1.25,1.25,0,0,0-1.176-.041c-.422.158-.588.377-.6.434a3.454,3.454,0,0,1,.3.268l2.58,2.308-3.026-1.343c-.787-.349-1.615-.673-2.464-1a1.6,1.6,0,0,0-1.314.162.868.868,0,0,0-.389.365c0-.012.052.025.16.063l.694.261a14.885,14.885,0,0,1,3.63,1.732l-.57.866a8.668,8.668,0,0,0-3.141-1.051,1.693,1.693,0,0,0-1.28.359.612.612,0,0,0-.219.3h0a1.186,1.186,0,0,0,.311.085c3.111.448,4.906,1.986,5.336,4.568l.067.4-.378.158a7.2,7.2,0,0,0-.685.329l-.437.247-.262-.43a8.907,8.907,0,0,0-1.774-2.152A.787.787,0,0,0,1585.167-578.386Z" transform="translate(-1582.477 586.315)" fill="#040506"/>
      </g>
      <g id="Group_3940" data-name="Group 3940" transform="translate(48.285 187.793)">
        <path id="Path_8510" data-name="Path 8510" d="M1542.265-194.6l9.886,1.232s2.63-10.6,5.06-19.579,21.739-55.326,21.739-55.326c4.6-19.323-20.1-41.949-20.1-41.949L1538.018-293.6s11.116,12.949,10.9,13.78c-.355,1.349-.759,2.805-1.2,4.381a78.889,78.889,0,0,0-3.257,25.983c.288,6.662-.718,27.813-1.476,41.8C1542.587-200.073,1542.265-194.6,1542.265-194.6Z" transform="translate(-1537.276 310.909)" fill="#fff"/>
        <path id="Path_8511" data-name="Path 8511" d="M1552.2-193.118l-10.828-1.348.028-.485s.323-5.472.718-13.051c.549-10.122,1.793-34.448,1.477-41.746a79.219,79.219,0,0,1,3.275-26.143c.428-1.533.821-2.948,1.168-4.267-.447-1.1-5.819-7.664-10.757-13.417l-.351-.41,21.592-17.242.329.3c1.018.933,24.874,23.056,20.257,42.452-.218.543-19.349,46.5-21.742,55.342-2.4,8.866-5.031,19.461-5.058,19.569Zm-9.733-2.257,8.946,1.113c.527-2.114,2.829-11.3,4.953-19.143,2.411-8.909,20.971-53.5,21.76-55.389,4.166-17.54-16.777-38.313-19.653-41.064l-20.053,16.013c10.937,12.765,10.73,13.545,10.653,13.842-.357,1.352-.76,2.809-1.2,4.388a78.271,78.271,0,0,0-3.239,25.819c.316,7.345-.927,31.712-1.476,41.848C1542.831-201.692,1542.553-196.871,1542.468-195.374Z" transform="translate(-1536.931 311.227)" fill="#040506"/>
      </g>
      <g id="Group_3941" data-name="Group 3941" transform="translate(102.989 174.865)">
        <path id="Path_8512" data-name="Path 8512" d="M1629.394-314.136s-6.2,27.277-6.715,34.18a17.022,17.022,0,0,1-.45,2.776,2.4,2.4,0,0,0-.061.363c-1.136,5.94-.517,24.859-2.5,66.854-.018.4-.038.807-.073,1.178a107.022,107.022,0,0,1-1.582,13.576l10.377-1.134s1.617-8.9,3.566-17.992,18.751-56.393,18.751-56.393c6.962-30.686-11.45-58.076-11.45-58.076Z" transform="translate(-1617.365 329.733)" fill="#fff"/>
        <path id="Path_8513" data-name="Path 8513" d="M1617.063-195.049l.141-.695a107.646,107.646,0,0,0,1.572-13.5c.036-.381.055-.776.073-1.172,1-21.274,1.334-36.354,1.576-47.366.235-10.7.363-16.587.933-19.56a2.427,2.427,0,0,1,.072-.417,16.354,16.354,0,0,0,.43-2.659c.511-6.867,6.472-33.146,6.725-34.262l.077-.174,10.294-15.307.43.641c.187.276,18.459,27.927,11.528,58.479-.187.532-16.833,47.43-18.751,56.388-1.925,8.98-3.546,17.887-3.562,17.976l-.069.382Zm12.513-119.31c-.4,1.772-6.19,27.427-6.683,34.008a17.329,17.329,0,0,1-.462,2.859,1.66,1.66,0,0,0-.046.27c-.562,2.959-.7,9.168-.923,19.461-.242,11.016-.572,26.1-1.576,47.391-.018.412-.041.823-.075,1.2a114.412,114.412,0,0,1-1.46,12.935l9.3-1.016c.33-1.8,1.795-9.684,3.5-17.627,1.93-9.023,18.082-54.525,18.769-56.458,6.224-27.453-8.284-52.607-10.973-56.951Z" transform="translate(-1617.063 330.165)" fill="#040506"/>
      </g>
      <path id="Path_8514" data-name="Path 8514" d="M1618.7-149.67s-5.231,7-1.795,13.172c0,0,22.294,1.406,30.7.595,0,0,5.623-7.1-1.46-8.386s-17.258-3.681-17.258-3.681S1623.557-143.746,1618.7-149.67Z" transform="translate(-1513.654 447.753)" fill="#040506"/>
      <path id="Path_8515" data-name="Path 8515" d="M1542.537-149.09s-4.074,6.222-.612,12.377c0,0,22.3,1.314,30.7.468,0,0,5.595-7.126-1.5-8.38s-17.275-3.608-17.275-3.608S1547.416-143.187,1542.537-149.09Z" transform="translate(-1489.788 447.569)" fill="#040506"/>
      <path id="Path_8516" data-name="Path 8516" d="M1552.731-381.129c1.375,1.562,2.862,3.194,4.366,4.872,2.2,2.417,5.048,6,8.234,10.27,11.138,14.892,26.225,37.709,30.5,45.622.278.507.511.976.683,1.353.321-.039.641-.075.96-.114,4.052-.462,7.8-.864,11.285-1.417,11.812-1.78,20.77-5.145,28.279-17.252-9.026-22.987-42.994-79.8-58.433-94.81-14.681-14.261-34.825,29.548-36.944,35.227C1540.845-395.205,1545.874-388.89,1552.731-381.129Z" transform="translate(-1490.118 538.439)" fill="#040506"/>
      <g id="Group_3942" data-name="Group 3942" transform="translate(67.071 135.411)">
        <path id="Path_8517" data-name="Path 8517" d="M1572.591-350.918c11.138,14.892,26.225,37.709,30.5,45.622a12.6,12.6,0,0,0,1.643,1.239c4.052-.462,7.8-.864,11.285-1.417-4.36-10.1-8.4-20.471-13.524-30.173-2.091-4.017-4.855-7.469-7.259-11.282-3.435-5.5-5.063-11.811-7.122-17.93a165.769,165.769,0,0,0-6.072-16.49c-.992-2.154-2.2-4.531-4.411-5.719-5.722-3.1-10.053,2.533-12.487,7.161a1.23,1.23,0,0,0-.52.976c-.014.035-.014.035-.03.069a1.127,1.127,0,0,0,.444,1.529C1567.838-368.611,1569.462-359.547,1572.591-350.918Z" transform="translate(-1564.449 387.958)" fill="#040506"/>
      </g>
      <path id="Path_8518" data-name="Path 8518" d="M1531.731-308.55a29.5,29.5,0,0,0,14.744,7.642c10.353,1.973,21.223-2.065,30.695-8.741-9.562-37.145-25.164-81.218-28.527-90.674-.55-1.515-4.407-5.636-4.407-5.636-12.768-7.287-26.064-9.165-32.943-7.431-2.719.677-4.417,1.909-4.725,3.587a106.083,106.083,0,0,0-1.623,14.92c-.021.454-.018.9-.014,1.343-.27,10.59,1.712,20.659,4.969,30.8C1515.29-345.852,1524.146-328.78,1531.731-308.55Z" transform="translate(-1478.483 531.631)" fill="#040506"/>
      <g id="Group_3943" data-name="Group 3943" transform="translate(22.39 10.575)">
        <path id="Path_8519" data-name="Path 8519" d="M1499-547.749c.775,9.42,13.6,17.981,22.525,13.479,5.573-2.811,14.687-7.125,13.632-18.9-.744-8.3,8.339-16.493,7.713-16.706-17.5-5.91-28.535,17.694-29.778,19.491-3.328,4.8-9.28,2.306-11.932,1.6A1.319,1.319,0,0,0,1499-547.749Z" transform="translate(-1498.999 570.824)" fill="#040506"/>
      </g>
      <path id="Path_8520" data-name="Path 8520" d="M1495.57-454.815a49.044,49.044,0,0,0,13.3,6.922c28.147,9.787,71.875-7.832,71.875-7.832s-10.552-4.886-15.709-19.059c-.5-1.3-.953-2.6-1.4-3.92-2.227-6.5-1.005-10.4,1.337-13.7,3.2-4.544,8.518-7.907,9.854-15.307,2.287-12.776-23.607-27.291-23.607-27.291-40.712-8.108-34.324,17.309-33.1,37.346.118,1.825.189,3.594.165,5.3,0,.367-.027.756-.051,1.122-.016.5-.055.965-.1,1.458C1516.233-470.491,1495.57-454.815,1495.57-454.815Z" transform="translate(-1475.521 570.522)" fill="#e13113"/>
      <path id="Path_8521" data-name="Path 8521" d="M1539.3-496.986c-2.479,3.305-7.261,8.678-11.1,10.826.092-.854.132-1.713.148-2.58.022-1.7-.957-20.546-1.073-22.371,1.4-1.935,16.429-14,16.429-14C1548.077-516.1,1542.917-501.893,1539.3-496.986Z" transform="translate(-1485.583 566.892)" fill="#040506"/>
      <g id="Group_3944" data-name="Group 3944" transform="translate(68.959 23.909)">
        <path id="Path_8522" data-name="Path 8522" d="M1579.239-544.268l-1,7.264s1.456,3.852-.55,3.973c-4.409.266-9.682-7.283-9.682-7.283l1.346-9.744Z" transform="translate(-1567.467 550.9)" fill="#fff"/>
        <path id="Path_8523" data-name="Path 8523" d="M1577.213-532.9c-4.581,0-9.663-7.2-9.882-7.51l-.115-.169.026-.2,1.454-10.515,10.854,6.362-1.031,7.477c.209.593.895,2.752.173,3.867a1.5,1.5,0,0,1-1.221.681C1577.383-532.9,1577.3-532.9,1577.213-532.9Zm-8.913-7.942c.773,1.057,5.216,6.9,8.9,6.9.069,0,.137,0,.205-.006a.46.46,0,0,0,.412-.207c.4-.62-.041-2.332-.317-3.062l-.046-.124.016-.132.953-6.92-8.916-5.222Z" transform="translate(-1567.215 551.291)" fill="#040506"/>
      </g>
      <g id="Group_3945" data-name="Group 3945" transform="translate(67.256 8.178)">
        <path id="Path_8524" data-name="Path 8524" d="M1583.925-572.556s2.782,8.367,2.742,15.794c-.027,5.277-10.456,10.805-17.175,2.444s-3.034-19.224-3.034-19.224Z" transform="translate(-1564.952 574.083)" fill="#fff"/>
        <path id="Path_8525" data-name="Path 8525" d="M1577.553-549.75a11.152,11.152,0,0,1-8.7-4.5c-6.818-8.484-3.158-19.6-3.119-19.714l.126-.376,18.214,1.028.111.334c.029.085,2.809,8.536,2.768,15.961-.014,2.712-2.434,5.447-5.885,6.652A10.64,10.64,0,0,1,1577.553-549.75Zm-10.947-23.5c-.55,1.959-2.71,11.181,3.06,18.358,2.912,3.624,7.045,4.957,11.063,3.555,2.994-1.047,5.175-3.433,5.188-5.676.035-6.427-2.1-13.669-2.608-15.293Z" transform="translate(-1564.72 574.335)" fill="#040506"/>
      </g>
      <path id="Path_8526" data-name="Path 8526" d="M1585.729-575.341c-.483-.4-1.168-.517-1.625-.906-1.437-1.231-.715-1.621-1.49-2.75a6.408,6.408,0,0,0-2.371-2.2,17.077,17.077,0,0,0-9.191-1.811c-.925.1-8.372,1.791-10.266,5.934-1.821,3.975-2.14,9.672-.229,13.7,1.5,3.163,4.748,6.029,7.2,2.447,1.868-2.735,2.009-5.5,2.207-8.677a14.5,14.5,0,0,1,.418-3.016c1.807-1.864,4.078-3.034,6.406-2.727.505.665.88,1.616,1.347,2.275a8.536,8.536,0,0,0,2.64,2.441c1.621.958,3.99,1.438,5.417-.134A3.132,3.132,0,0,0,1585.729-575.341Z" transform="translate(-1495.733 585.287)" fill="#040506"/>
      <path id="Path_8527" data-name="Path 8527" d="M1573.953-562.344s-2.908-1.876-3.871.533,1.1,4.2,2.365,3.908S1574.533-561.2,1573.953-562.344Z" transform="translate(-1499.087 578.929)" fill="#fff"/>
      <g id="Group_3946" data-name="Group 3946" transform="translate(0 4.595)">
        <path id="Path_8528" data-name="Path 8528" d="M1530.312-567.9a56.527,56.527,0,0,0-1.975-5.456s-51.856-13.137-59.374,1.43c-6.127,11.87,2.606,23.529,20.779,35.642,13.655,4.22,17.37-13.109,14.691-14.577-.971-.54-3.267-2.223-3.267-2.223-6.136-4.685-16.662-8.69-14.656-10.945C1489.9-567.839,1529.791-567.707,1530.312-567.9Z" transform="translate(-1466.46 579.331)" fill="#fff"/>
        <path id="Path_8529" data-name="Path 8529" d="M1493.585-535.345a14.447,14.447,0,0,1-4.257-.689l-.134-.065c-20.15-13.431-26.806-24.969-20.951-36.312,7.613-14.769,57.829-2.239,59.962-1.7l.184.046.11.154a49.073,49.073,0,0,1,2.048,5.6l.152.477-.47.17a25.356,25.356,0,0,1-3.812.126c-24.646.426-38.031,1.638-39.78,3.6a.371.371,0,0,0-.113.334c.184,1.124,3.581,3.062,6.865,4.938a73.192,73.192,0,0,1,7.833,4.916c.016.01,2.273,1.663,3.2,2.18,1.651.9,1.26,5.056-.142,8.364C1503.413-541.143,1500.351-535.345,1493.585-535.345Zm-3.877-1.661c8.645,2.638,12.405-3.731,13.62-6.6,1.548-3.656,1.262-6.686.6-7.051-.991-.549-3.23-2.188-3.323-2.259a72.442,72.442,0,0,0-7.725-4.843c-4.543-2.594-7.122-4.136-7.376-5.672a1.409,1.409,0,0,1,.363-1.193c2.6-2.927,23.031-3.649,40.536-3.951,1.245-.023,2.316-.041,2.955-.059-.633-1.945-1.326-3.923-1.616-4.523-3.62-.89-51.567-12.357-58.572,1.216C1463.608-561.167,1470.135-550.066,1489.708-537.006Z" transform="translate(-1466.201 579.583)" fill="#040506"/>
      </g>
      <path id="Path_8530" data-name="Path 8530" d="M1496.574-520.011c1.068-9.59,4.737-19.2,15.352-23.648.876.9,17.3,3.936,21.645,11.752,2.585,4.62-1.257,16.9-7.264,19.154C1518.168-509.676,1497.914-518.753,1496.574-520.011Z" transform="translate(-1475.839 572.779)" fill="#e13113"/>
      <g id="Group_3947" data-name="Group 3947" transform="translate(58.875 1.095)">
        <path id="Path_8531" data-name="Path 8531" d="M1557.019-568.47c-3.181-.61-3.192-3.475-3.513-5.149a10.639,10.639,0,0,1,.888-7.646c.335-.574,1.221-.566,1.882-.28a13.18,13.18,0,0,1,2.284-2.146c1.117-.821,3.346.472,2.225,1.3-.132.1-.241.207-.367.307.834-.343,1.7-.659,2.6-.976,1.464-.524,3.217,1.079,1.742,1.6a19.939,19.939,0,0,0-4.4,1.872,9.8,9.8,0,0,1,3.448-1.067c1.667-.211,2.814,1.594,1.137,1.807-3.322.422-4.8,2.1-5.345,4.095a6.9,6.9,0,0,1,.7.369,10.852,10.852,0,0,1,2.122-2.262c1.083-.852,3.309.446,2.225,1.3a9.06,9.06,0,0,0-2.714,3.3,3.391,3.391,0,0,1-.272,1.582C1561.1-569.1,1559.336-568.026,1557.019-568.47Z" transform="translate(-1552.682 584.47)" fill="#fff"/>
        <path id="Path_8532" data-name="Path 8532" d="M1557.848-568.086a6.116,6.116,0,0,1-1.166-.115h0c-3.147-.6-3.551-3.2-3.817-4.914-.036-.229-.071-.446-.107-.647-.627-3.269-.325-5.812.949-8a1.836,1.836,0,0,1,2.168-.627,13.946,13.946,0,0,1,2.136-1.955,2.426,2.426,0,0,1,3.117.516,1.241,1.241,0,0,1,.225.5q.614-.227,1.249-.45a2.561,2.561,0,0,1,2.435.462,1.32,1.32,0,0,1,.54,1.219,1.18,1.18,0,0,1-.789.864,1.88,1.88,0,0,1,1.241,1.375c.065.517-.229,1.168-1.27,1.3-2.417.308-3.956,1.308-4.68,3.054a10.679,10.679,0,0,1,1.774-1.776,2.359,2.359,0,0,1,3.077.453,1.126,1.126,0,0,1-.209,1.666,8.622,8.622,0,0,0-2.509,2.994,4,4,0,0,1-.318,1.677A4.24,4.24,0,0,1,1557.848-568.086Zm-.971-1.133c2.041.381,3.594-.545,4.056-1.673a2.878,2.878,0,0,0,.235-1.341l-.012-.138.059-.126a9.593,9.593,0,0,1,2.863-3.488c.081-.065.091-.1.091-.1,0-.035-.091-.211-.4-.371a1.259,1.259,0,0,0-1.272-.014,10.274,10.274,0,0,0-2.02,2.158l-.284.4-.416-.262a6.368,6.368,0,0,0-.649-.339l-.392-.188.116-.418c.706-2.57,2.65-4.074,5.779-4.472.3-.038.369-.128.371-.128a.478.478,0,0,0-.15-.259,1.481,1.481,0,0,0-1.227-.389,9.364,9.364,0,0,0-3.269,1.01l-.535-.888a16.423,16.423,0,0,1,3.79-1.675l.732-.255a.447.447,0,0,0,.219-.124.916.916,0,0,0-.314-.316,1.535,1.535,0,0,0-1.3-.186c-.887.314-1.746.627-2.569.967l-3.338,1.375,2.951-2.377c.077-.067.156-.134.242-.2s.1-.1.1-.1a.855.855,0,0,0-.466-.377,1.318,1.318,0,0,0-1.239.01,12.732,12.732,0,0,0-2.193,2.06l-.249.3-.357-.154c-.458-.2-1.058-.221-1.227.065-1.156,1.989-1.412,4.237-.827,7.287.04.211.077.44.115.683.26,1.681.556,3.587,2.985,4.054Z" transform="translate(-1552.443 584.711)" fill="#040506"/>
      </g>
      <path id="Path_8533" data-name="Path 8533" d="M1553.059-573.328s.3,1.1-1.408.886.324,5.322.324,5.322a6.071,6.071,0,0,1,3.16.431c1.3.694,1.72-5.407.6-7.57S1553.059-573.328,1553.059-573.328Z" transform="translate(-1493.101 582.733)" fill="#fff"/>
    </g>
    <g id="Group_3951" data-name="Group 3951" transform="translate(1625.139 -713.181)">
      <g id="Group_3949" data-name="Group 3949" transform="translate(9.761 0)">
        <path id="Path_8534" data-name="Path 8534" d="M1790.187-621.839v17.749h-14.063v16.656h-20.616V-604.09h-42.188v-6.281L1762.061-677h14.063v55.159Zm-49.425,0h14.746v-20.753Z" transform="translate(-1713.319 678.227)" fill="#161615"/>
        <path id="Path_8535" data-name="Path 8535" d="M1843.118-632.65c0-25.8,7.51-46.148,33.723-46.148,25.941,0,33.313,20.343,33.313,46.148,0,25.667-7.373,46.284-33.313,46.284C1850.627-586.366,1843.118-606.983,1843.118-632.65Zm46.421,0c0-15.565-3.14-27.579-12.7-27.579-9.83,0-13.243,12.014-13.243,27.579,0,15.428,3.413,27.579,13.243,27.579C1886.4-605.071,1889.539-617.222,1889.539-632.65Z" transform="translate(-1754.508 678.798)" fill="#161615"/>
        <path id="Path_8536" data-name="Path 8536" d="M2029.783-621.839v17.749h-14.062v16.656H1995.1V-604.09h-42.188v-6.281L2001.658-677h14.063v55.159Zm-49.424,0H1995.1v-20.753Z" transform="translate(-1789.351 678.227)" fill="#161615"/>
      </g>
      <g id="Group_3950" data-name="Group 3950" transform="translate(0 0.341)">
        <path id="Path_8537" data-name="Path 8537" d="M1775.888-621.339v17.749h-14.063v16.656h-20.616V-603.59H1699.02v-6.281l48.742-66.628h14.062v55.159Zm-49.425,0h14.746v-20.753Z" transform="translate(-1699.02 677.727)" fill="#e13113"/>
        <path id="Path_8538" data-name="Path 8538" d="M1828.819-632.15c0-25.8,7.509-46.148,33.723-46.148,25.941,0,33.313,20.344,33.313,46.148,0,25.668-7.372,46.284-33.313,46.284C1836.328-585.866,1828.819-606.483,1828.819-632.15Zm46.421,0c0-15.565-3.14-27.579-12.7-27.579-9.83,0-13.243,12.014-13.243,27.579,0,15.428,3.413,27.58,13.243,27.58C1872.1-604.571,1875.24-616.722,1875.24-632.15Z" transform="translate(-1740.21 678.298)" fill="#e13113"/>
        <path id="Path_8539" data-name="Path 8539" d="M2015.485-621.339v17.749h-14.063v16.656h-20.616V-603.59h-42.188v-6.281l48.742-66.628h14.063v55.159Zm-49.425,0h14.746v-20.753Z" transform="translate(-1775.052 677.727)" fill="#e13113"/>
      </g>
    </g>
  </g>
</svg>
