<svg xmlns="http://www.w3.org/2000/svg" xmlns:xlink="http://www.w3.org/1999/xlink" width="503.715" height="508.17" viewBox="0 0 503.715 508.17">
  <defs>
    <clipPath id="clip-path">
      <path id="Path_8760" data-name="Path 8760" d="M3053.986-988.011c-17.023,88.947,46.249,164.835,181.8,164.269s49.528,110.3,162.714,117.226,168.372-62.36,154.334-216.18-16.519-334.278-249.777-277.156C3155.926-1163.822,3069.933-1071.339,3053.986-988.011Z" transform="translate(-3051.27 1210.665)" fill="none"/>
    </clipPath>
    <clipPath id="clip-path-2">
      <rect id="Rectangle_3927" data-name="Rectangle 3927" width="307.236" height="80.412" rx="40.206" fill="none"/>
    </clipPath>
  </defs>
  <g id="Group_4179" data-name="Group 4179" transform="translate(-3051.27 1210.665)">
    <g id="Group_4133" data-name="Group 4133" transform="translate(3051.27 -1210.665)">
      <rect id="Rectangle_3812" data-name="Rectangle 3812" width="462.048" height="3.509" transform="translate(17.374 504.661)" fill="#040506"/>
      <path id="Path_8750" data-name="Path 8750" d="M3053.986-988.011c-17.023,88.947,46.249,164.835,181.8,164.269s49.528,110.3,162.714,117.226,168.372-62.36,154.334-216.18-16.519-334.278-249.777-277.156C3155.926-1163.822,3069.933-1071.339,3053.986-988.011Z" transform="translate(-3051.27 1210.665)" fill="#e0e7ed"/>
      <path id="Path_8751" data-name="Path 8751" d="M3172.354-680.1c42.021-10.215,124.625-18.81,151.077,20.429s.147,53.642-47.468,34.683S3114.321-665.988,3172.354-680.1Z" transform="translate(-3075.431 1090.549)" fill="#e0e7ed"/>
      <g id="Group_4132" data-name="Group 4132">
        <g id="Group_4131" data-name="Group 4131" clip-path="url(#clip-path)">
          <g id="Group_4125" data-name="Group 4125" transform="translate(9.864 29.433)">
            <g id="Group_4124" data-name="Group 4124">
              <g id="Group_4123" data-name="Group 4123">
                <g id="Group_4117" data-name="Group 4117" transform="translate(87.037)">
                  <path id="Path_8752" data-name="Path 8752" d="M3215.675-1063.352v-18.873h31.306v-90.208h8.629v90.208h33.721v18.873h18.062v378.23H3177.135v-378.23Z" transform="translate(-3177.135 1172.433)" fill="#b8c5d3"/>
                  <rect id="Rectangle_3813" data-name="Rectangle 3813" width="18.061" height="340.233" transform="translate(0.001 109.082)" fill="#99a8b6"/>
                </g>
                <g id="Group_4118" data-name="Group 4118" transform="translate(152.167 199.178)">
                  <rect id="Rectangle_3814" data-name="Rectangle 3814" width="130.257" height="288.133" fill="#b8c5d3"/>
                  <rect id="Rectangle_3815" data-name="Rectangle 3815" width="18.061" height="288.133" fill="#99a8b6"/>
                  <rect id="Rectangle_3816" data-name="Rectangle 3816" width="18.692" height="7.757" transform="translate(93.39 12.275)" fill="#99a8b6"/>
                  <rect id="Rectangle_3817" data-name="Rectangle 3817" width="18.692" height="7.757" transform="translate(61.92 12.275)" fill="#99a8b6"/>
                  <rect id="Rectangle_3818" data-name="Rectangle 3818" width="18.692" height="7.757" transform="translate(93.39 40.522)" fill="#99a8b6"/>
                  <rect id="Rectangle_3819" data-name="Rectangle 3819" width="18.692" height="7.757" transform="translate(61.92 40.522)" fill="#99a8b6"/>
                  <rect id="Rectangle_3820" data-name="Rectangle 3820" width="18.692" height="7.757" transform="translate(30.45 40.522)" fill="#99a8b6"/>
                  <rect id="Rectangle_3821" data-name="Rectangle 3821" width="18.692" height="7.757" transform="translate(93.39 68.767)" fill="#99a8b6"/>
                  <rect id="Rectangle_3822" data-name="Rectangle 3822" width="18.692" height="7.757" transform="translate(30.45 68.767)" fill="#99a8b6"/>
                  <rect id="Rectangle_3823" data-name="Rectangle 3823" width="18.692" height="7.757" transform="translate(61.92 82.891)" fill="#99a8b6"/>
                  <rect id="Rectangle_3824" data-name="Rectangle 3824" width="18.692" height="7.757" transform="translate(93.39 97.014)" fill="#99a8b6"/>
                  <rect id="Rectangle_3825" data-name="Rectangle 3825" width="18.692" height="7.76" transform="translate(61.92 111.136)" fill="#99a8b6"/>
                  <rect id="Rectangle_3826" data-name="Rectangle 3826" width="18.692" height="7.757" transform="translate(93.39 125.259)" fill="#99a8b6"/>
                  <rect id="Rectangle_3827" data-name="Rectangle 3827" width="18.692" height="7.757" transform="translate(30.45 125.259)" fill="#99a8b6"/>
                  <rect id="Rectangle_3828" data-name="Rectangle 3828" width="18.692" height="7.757" transform="translate(93.39 151.362)" fill="#99a8b6"/>
                  <rect id="Rectangle_3829" data-name="Rectangle 3829" width="18.692" height="7.757" transform="translate(61.92 151.362)" fill="#99a8b6"/>
                  <rect id="Rectangle_3830" data-name="Rectangle 3830" width="18.692" height="7.757" transform="translate(93.39 179.608)" fill="#99a8b6"/>
                  <rect id="Rectangle_3831" data-name="Rectangle 3831" width="18.692" height="7.757" transform="translate(61.92 179.608)" fill="#99a8b6"/>
                  <rect id="Rectangle_3832" data-name="Rectangle 3832" width="18.692" height="7.757" transform="translate(30.45 179.608)" fill="#99a8b6"/>
                  <rect id="Rectangle_3833" data-name="Rectangle 3833" width="18.692" height="7.757" transform="translate(93.39 207.855)" fill="#99a8b6"/>
                  <rect id="Rectangle_3834" data-name="Rectangle 3834" width="18.692" height="7.757" transform="translate(30.45 207.855)" fill="#99a8b6"/>
                  <rect id="Rectangle_3835" data-name="Rectangle 3835" width="18.692" height="7.757" transform="translate(61.92 221.977)" fill="#99a8b6"/>
                  <rect id="Rectangle_3836" data-name="Rectangle 3836" width="18.692" height="7.757" transform="translate(30.45 221.977)" fill="#99a8b6"/>
                  <rect id="Rectangle_3837" data-name="Rectangle 3837" width="18.692" height="7.757" transform="translate(93.39 236.1)" fill="#99a8b6"/>
                  <rect id="Rectangle_3838" data-name="Rectangle 3838" width="18.692" height="7.757" transform="translate(61.92 250.224)" fill="#99a8b6"/>
                  <rect id="Rectangle_3839" data-name="Rectangle 3839" width="18.692" height="7.76" transform="translate(93.39 264.346)" fill="#99a8b6"/>
                  <rect id="Rectangle_3840" data-name="Rectangle 3840" width="18.692" height="7.76" transform="translate(30.45 264.346)" fill="#99a8b6"/>
                </g>
                <g id="Group_4119" data-name="Group 4119" transform="translate(463.834 199.178)">
                  <rect id="Rectangle_3841" data-name="Rectangle 3841" width="130.258" height="288.131" fill="#b8c5d3"/>
                  <rect id="Rectangle_3842" data-name="Rectangle 3842" width="18.061" height="288.131" fill="#99a8b6"/>
                </g>
                <g id="Group_4120" data-name="Group 4120" transform="translate(278.797 62.131)">
                  <rect id="Rectangle_3843" data-name="Rectangle 3843" width="174.77" height="425.181" fill="#b8c5d3"/>
                  <rect id="Rectangle_3844" data-name="Rectangle 3844" width="18.062" height="425.181" fill="#99a8b6"/>
                  <rect id="Rectangle_3845" data-name="Rectangle 3845" width="27.295" height="11.328" transform="translate(129.066 20.364)" fill="#99a8b6"/>
                  <rect id="Rectangle_3846" data-name="Rectangle 3846" width="27.295" height="11.328" transform="translate(83.111 20.364)" fill="#99a8b6"/>
                  <rect id="Rectangle_3847" data-name="Rectangle 3847" width="27.295" height="11.329" transform="translate(129.066 61.611)" fill="#99a8b6"/>
                  <rect id="Rectangle_3848" data-name="Rectangle 3848" width="27.295" height="11.329" transform="translate(83.111 61.611)" fill="#99a8b6"/>
                  <rect id="Rectangle_3849" data-name="Rectangle 3849" width="27.294" height="11.329" transform="translate(37.155 61.611)" fill="#99a8b6"/>
                  <rect id="Rectangle_3850" data-name="Rectangle 3850" width="27.295" height="11.328" transform="translate(129.066 102.859)" fill="#99a8b6"/>
                  <rect id="Rectangle_3851" data-name="Rectangle 3851" width="27.294" height="11.328" transform="translate(37.155 102.859)" fill="#99a8b6"/>
                  <rect id="Rectangle_3852" data-name="Rectangle 3852" width="27.295" height="11.328" transform="translate(83.111 123.482)" fill="#99a8b6"/>
                  <rect id="Rectangle_3853" data-name="Rectangle 3853" width="27.295" height="11.329" transform="translate(129.066 144.106)" fill="#99a8b6"/>
                  <rect id="Rectangle_3854" data-name="Rectangle 3854" width="27.295" height="11.329" transform="translate(83.111 164.729)" fill="#99a8b6"/>
                  <rect id="Rectangle_3855" data-name="Rectangle 3855" width="27.295" height="11.328" transform="translate(129.066 185.352)" fill="#99a8b6"/>
                  <rect id="Rectangle_3856" data-name="Rectangle 3856" width="27.294" height="11.328" transform="translate(37.155 185.352)" fill="#99a8b6"/>
                  <rect id="Rectangle_3857" data-name="Rectangle 3857" width="27.295" height="11.328" transform="translate(129.066 223.471)" fill="#99a8b6"/>
                  <rect id="Rectangle_3858" data-name="Rectangle 3858" width="27.295" height="11.328" transform="translate(83.111 223.471)" fill="#99a8b6"/>
                  <rect id="Rectangle_3859" data-name="Rectangle 3859" width="27.295" height="11.328" transform="translate(129.066 264.717)" fill="#99a8b6"/>
                  <rect id="Rectangle_3860" data-name="Rectangle 3860" width="27.295" height="11.328" transform="translate(83.111 264.717)" fill="#99a8b6"/>
                  <rect id="Rectangle_3861" data-name="Rectangle 3861" width="27.294" height="11.328" transform="translate(37.155 264.717)" fill="#99a8b6"/>
                  <rect id="Rectangle_3862" data-name="Rectangle 3862" width="27.295" height="11.328" transform="translate(129.066 305.964)" fill="#99a8b6"/>
                  <rect id="Rectangle_3863" data-name="Rectangle 3863" width="27.294" height="11.328" transform="translate(37.155 305.964)" fill="#99a8b6"/>
                  <rect id="Rectangle_3864" data-name="Rectangle 3864" width="27.295" height="11.328" transform="translate(83.111 326.588)" fill="#99a8b6"/>
                  <rect id="Rectangle_3865" data-name="Rectangle 3865" width="27.294" height="11.328" transform="translate(37.155 326.588)" fill="#99a8b6"/>
                  <rect id="Rectangle_3866" data-name="Rectangle 3866" width="27.295" height="11.328" transform="translate(129.066 347.211)" fill="#99a8b6"/>
                  <rect id="Rectangle_3867" data-name="Rectangle 3867" width="27.295" height="11.33" transform="translate(83.111 367.834)" fill="#99a8b6"/>
                  <rect id="Rectangle_3868" data-name="Rectangle 3868" width="27.295" height="11.33" transform="translate(129.066 388.458)" fill="#99a8b6"/>
                  <rect id="Rectangle_3869" data-name="Rectangle 3869" width="27.294" height="11.33" transform="translate(37.155 388.458)" fill="#99a8b6"/>
                </g>
                <g id="Group_4121" data-name="Group 4121" transform="translate(553.573 93.823)">
                  <rect id="Rectangle_3870" data-name="Rectangle 3870" width="171.293" height="393.489" fill="#b8c5d3"/>
                  <rect id="Rectangle_3871" data-name="Rectangle 3871" width="17.702" height="393.489" fill="#99a8b6"/>
                  <rect id="Rectangle_3872" data-name="Rectangle 3872" width="26.752" height="10.484" transform="translate(126.499 18.846)" fill="#99a8b6"/>
                  <rect id="Rectangle_3873" data-name="Rectangle 3873" width="26.75" height="10.484" transform="translate(81.458 18.846)" fill="#99a8b6"/>
                  <rect id="Rectangle_3874" data-name="Rectangle 3874" width="26.752" height="10.485" transform="translate(126.499 57.018)" fill="#99a8b6"/>
                  <rect id="Rectangle_3875" data-name="Rectangle 3875" width="26.75" height="10.485" transform="translate(81.458 57.018)" fill="#99a8b6"/>
                  <rect id="Rectangle_3876" data-name="Rectangle 3876" width="26.752" height="10.485" transform="translate(36.415 57.018)" fill="#99a8b6"/>
                  <rect id="Rectangle_3877" data-name="Rectangle 3877" width="26.752" height="10.485" transform="translate(126.499 95.191)" fill="#99a8b6"/>
                  <rect id="Rectangle_3878" data-name="Rectangle 3878" width="26.752" height="10.485" transform="translate(36.415 95.191)" fill="#99a8b6"/>
                  <rect id="Rectangle_3879" data-name="Rectangle 3879" width="26.75" height="10.484" transform="translate(81.458 114.277)" fill="#99a8b6"/>
                  <rect id="Rectangle_3880" data-name="Rectangle 3880" width="26.752" height="10.483" transform="translate(126.499 133.365)" fill="#99a8b6"/>
                  <rect id="Rectangle_3881" data-name="Rectangle 3881" width="26.75" height="10.484" transform="translate(81.458 152.45)" fill="#99a8b6"/>
                  <rect id="Rectangle_3882" data-name="Rectangle 3882" width="26.752" height="10.484" transform="translate(126.499 171.538)" fill="#99a8b6"/>
                  <rect id="Rectangle_3883" data-name="Rectangle 3883" width="26.752" height="10.484" transform="translate(36.415 171.538)" fill="#99a8b6"/>
                  <rect id="Rectangle_3884" data-name="Rectangle 3884" width="26.752" height="10.484" transform="translate(126.499 206.813)" fill="#99a8b6"/>
                  <rect id="Rectangle_3885" data-name="Rectangle 3885" width="26.75" height="10.484" transform="translate(81.458 206.813)" fill="#99a8b6"/>
                  <rect id="Rectangle_3886" data-name="Rectangle 3886" width="26.752" height="10.484" transform="translate(126.499 244.986)" fill="#99a8b6"/>
                  <rect id="Rectangle_3887" data-name="Rectangle 3887" width="26.75" height="10.484" transform="translate(81.458 244.986)" fill="#99a8b6"/>
                  <rect id="Rectangle_3888" data-name="Rectangle 3888" width="26.752" height="10.484" transform="translate(36.415 244.986)" fill="#99a8b6"/>
                  <rect id="Rectangle_3889" data-name="Rectangle 3889" width="26.752" height="10.484" transform="translate(126.499 283.159)" fill="#99a8b6"/>
                  <rect id="Rectangle_3890" data-name="Rectangle 3890" width="26.752" height="10.484" transform="translate(36.415 283.159)" fill="#99a8b6"/>
                  <rect id="Rectangle_3891" data-name="Rectangle 3891" width="26.75" height="10.484" transform="translate(81.458 302.244)" fill="#99a8b6"/>
                  <rect id="Rectangle_3892" data-name="Rectangle 3892" width="26.752" height="10.484" transform="translate(36.415 302.244)" fill="#99a8b6"/>
                  <rect id="Rectangle_3893" data-name="Rectangle 3893" width="26.752" height="10.484" transform="translate(126.499 321.331)" fill="#99a8b6"/>
                  <rect id="Rectangle_3894" data-name="Rectangle 3894" width="26.75" height="10.484" transform="translate(81.458 340.417)" fill="#99a8b6"/>
                  <rect id="Rectangle_3895" data-name="Rectangle 3895" width="26.752" height="10.486" transform="translate(126.499 359.502)" fill="#99a8b6"/>
                  <rect id="Rectangle_3896" data-name="Rectangle 3896" width="26.752" height="10.486" transform="translate(36.415 359.502)" fill="#99a8b6"/>
                </g>
                <g id="Group_4122" data-name="Group 4122" transform="translate(0 218.924)">
                  <rect id="Rectangle_3897" data-name="Rectangle 3897" width="110.32" height="268.387" fill="#b8c5d3"/>
                  <rect id="Rectangle_3898" data-name="Rectangle 3898" width="11.402" height="268.387" fill="#99a8b6"/>
                  <rect id="Rectangle_3899" data-name="Rectangle 3899" width="17.23" height="7.15" transform="translate(81.47 12.854)" fill="#99a8b6"/>
                  <rect id="Rectangle_3900" data-name="Rectangle 3900" width="17.23" height="7.15" transform="translate(52.462 12.854)" fill="#99a8b6"/>
                  <rect id="Rectangle_3901" data-name="Rectangle 3901" width="17.23" height="7.151" transform="translate(81.47 38.891)" fill="#99a8b6"/>
                  <rect id="Rectangle_3902" data-name="Rectangle 3902" width="17.23" height="7.151" transform="translate(52.462 38.891)" fill="#99a8b6"/>
                  <rect id="Rectangle_3903" data-name="Rectangle 3903" width="17.23" height="7.151" transform="translate(23.454 38.891)" fill="#99a8b6"/>
                  <rect id="Rectangle_3904" data-name="Rectangle 3904" width="17.23" height="7.151" transform="translate(81.47 64.927)" fill="#99a8b6"/>
                  <rect id="Rectangle_3905" data-name="Rectangle 3905" width="17.23" height="7.151" transform="translate(23.454 64.927)" fill="#99a8b6"/>
                  <rect id="Rectangle_3906" data-name="Rectangle 3906" width="17.23" height="7.151" transform="translate(52.462 77.946)" fill="#99a8b6"/>
                  <rect id="Rectangle_3907" data-name="Rectangle 3907" width="17.23" height="7.151" transform="translate(81.47 90.964)" fill="#99a8b6"/>
                  <rect id="Rectangle_3908" data-name="Rectangle 3908" width="17.23" height="7.151" transform="translate(52.462 103.982)" fill="#99a8b6"/>
                  <rect id="Rectangle_3909" data-name="Rectangle 3909" width="17.23" height="7.151" transform="translate(81.47 117.001)" fill="#99a8b6"/>
                  <rect id="Rectangle_3910" data-name="Rectangle 3910" width="17.23" height="7.151" transform="translate(23.454 117.001)" fill="#99a8b6"/>
                  <rect id="Rectangle_3911" data-name="Rectangle 3911" width="17.23" height="7.149" transform="translate(81.47 141.062)" fill="#99a8b6"/>
                  <rect id="Rectangle_3912" data-name="Rectangle 3912" width="17.23" height="7.149" transform="translate(52.462 141.062)" fill="#99a8b6"/>
                  <rect id="Rectangle_3913" data-name="Rectangle 3913" width="17.23" height="7.151" transform="translate(81.47 167.096)" fill="#99a8b6"/>
                  <rect id="Rectangle_3914" data-name="Rectangle 3914" width="17.23" height="7.151" transform="translate(52.462 167.096)" fill="#99a8b6"/>
                  <rect id="Rectangle_3915" data-name="Rectangle 3915" width="17.23" height="7.151" transform="translate(23.454 167.096)" fill="#99a8b6"/>
                  <rect id="Rectangle_3916" data-name="Rectangle 3916" width="17.23" height="7.149" transform="translate(81.47 193.135)" fill="#99a8b6"/>
                  <rect id="Rectangle_3917" data-name="Rectangle 3917" width="17.23" height="7.149" transform="translate(23.454 193.135)" fill="#99a8b6"/>
                  <rect id="Rectangle_3918" data-name="Rectangle 3918" width="17.23" height="7.151" transform="translate(52.462 206.151)" fill="#99a8b6"/>
                  <rect id="Rectangle_3919" data-name="Rectangle 3919" width="17.23" height="7.151" transform="translate(23.454 206.151)" fill="#99a8b6"/>
                  <rect id="Rectangle_3920" data-name="Rectangle 3920" width="17.23" height="7.151" transform="translate(81.47 219.169)" fill="#99a8b6"/>
                  <rect id="Rectangle_3921" data-name="Rectangle 3921" width="17.23" height="7.151" transform="translate(52.462 232.187)" fill="#99a8b6"/>
                  <rect id="Rectangle_3922" data-name="Rectangle 3922" width="17.23" height="7.151" transform="translate(81.47 245.208)" fill="#99a8b6"/>
                  <rect id="Rectangle_3923" data-name="Rectangle 3923" width="17.23" height="7.151" transform="translate(23.454 245.208)" fill="#99a8b6"/>
                </g>
              </g>
            </g>
          </g>
          <g id="Group_4130" data-name="Group 4130" transform="translate(-64.377 -49.441)">
            <g id="Group_4127" data-name="Group 4127" transform="translate(5.115 10.55)">
              <g id="Group_4126" data-name="Group 4126">
                <rect id="Rectangle_3924" data-name="Rectangle 3924" width="467.533" height="533.068" fill="#fff" opacity="0.35"/>
                <path id="Path_8753" data-name="Path 8753" d="M3172.519-735.916h-36.285l194.517-517.343h36.285Z" transform="translate(-3011.56 1259.358)" fill="#fff" opacity="0.5"/>
                <path id="Path_8754" data-name="Path 8754" d="M3094.719-735.916h-18.144l194.517-517.343h18.143Z" transform="translate(-2997.831 1259.358)" fill="#fff" opacity="0.5"/>
                <path id="Path_8755" data-name="Path 8755" d="M3376.107-719.314h-18.144l166.769-461.8v37.207Z" transform="translate(-3062.585 1242.756)" fill="#fff" opacity="0.5"/>
              </g>
            </g>
            <g id="Group_4129" data-name="Group 4129" transform="translate(470.214)">
              <g id="Group_4128" data-name="Group 4128">
                <rect id="Rectangle_3925" data-name="Rectangle 3925" width="467.532" height="533.069" transform="translate(4.894)" fill="#fff" opacity="0.35"/>
                <path id="Path_8756" data-name="Path 8756" d="M3674.358-735.916h-36.285l194.516-517.343h36.285Z" transform="translate(-3592.144 1269.908)" fill="#fff" opacity="0.5"/>
                <path id="Path_8757" data-name="Path 8757" d="M3596.558-735.916h-18.143l194.517-517.343h18.141Z" transform="translate(-3578.415 1269.908)" fill="#fff" opacity="0.5"/>
                <path id="Path_8758" data-name="Path 8758" d="M3983.447-719.314h-18.142l166.768-461.8v37.207Z" transform="translate(-3667.448 1253.305)" fill="#fff" opacity="0.6"/>
              </g>
            </g>
            <path id="Path_8759" data-name="Path 8759" d="M3929.787-1166.851v-6.1h-16.8V-1269.1H2967.649v12.2h10.185v4.307H3279.34v79.648H2967.649v6.1H3279.34v156.543H2967.649v6.1H3279.34v156.544H2967.649v6.1H3279.34v102H2977.93v3.526h-10.281v14.114h945.34v-1.134h0V-841.564h16.8v-6.1h-16.8v-156.544h16.8v-6.1h-16.8v-156.543Zm-484.331,162.642h145.616v156.544H3445.456Zm0-6.1v-156.543h145.616v156.543Zm0-162.643V-1252.6h145.616v79.648Zm0,331.387h145.616v102H3445.507v3.526h-.051Zm155.845,102v-102h145.616v102Zm0-108.1v-156.544h145.616v156.544Zm0-162.643v-156.543h145.616v156.543Zm0-162.643V-1252.6h145.616v79.648Zm155.844-79.648h145.616v79.648H3757.145Zm-467.577,0h145.616v79.648H3289.568Zm0,85.747h145.616v156.543H3289.568Zm0,162.642h145.616v156.544H3289.568Zm0,162.645h145.616v105.528h-.055v-3.526H3289.568Zm613.193,105.528h-.054v-3.526H3757.145v-102h145.616Zm0-111.628H3757.145v-156.544h145.616Zm0-162.643H3757.145v-156.543h145.616Z" transform="translate(-2967.649 1273.554)" fill="#fff"/>
          </g>
        </g>
      </g>
    </g>
    <g id="Group_4173" data-name="Group 4173" transform="translate(3228.258 -989.866)">
      <g id="Group_4134" data-name="Group 4134" transform="translate(242.048 151.174)">
        <path id="Path_8761" data-name="Path 8761" d="M3621.784-595.106h3.944l-21.812-132.4h-8.356Z" transform="translate(-3595.56 727.506)" fill="#e13113"/>
      </g>
      <g id="Group_4135" data-name="Group 4135" transform="translate(35.968 151.174)">
        <path id="Path_8762" data-name="Path 8762" d="M3331.825-595.106h-3.945l21.812-132.4h8.356Z" transform="translate(-3327.881 727.506)" fill="#e13113"/>
      </g>
      <g id="Group_4152" data-name="Group 4152" transform="translate(206.452)">
        <g id="Group_4143" data-name="Group 4143" transform="translate(16.467 19.04)">
          <g id="Group_4136" data-name="Group 4136">
            <path id="Path_8763" data-name="Path 8763" d="M3570.714-883.093a16.162,16.162,0,0,1,16.251-16.043,16.179,16.179,0,0,1,16.073,16.28,16.106,16.106,0,0,1-4.221,10.774c-3.217,3.524-5.547,8.063-5.581,12.834l0,.481-13.065-.1v-.428c.036-4.792-2.229-9.389-5.4-12.979A16.1,16.1,0,0,1,3570.714-883.093Z" transform="translate(-3570.713 899.136)" fill="#e13113"/>
          </g>
          <g id="Group_4137" data-name="Group 4137" transform="translate(8.216 39.271)">
            <path id="Path_8764" data-name="Path 8764" d="M3582.377-846.129l13.543.1a.994.994,0,0,0,1-.99v0a.993.993,0,0,0-.988-1l-13.546-.1a1,1,0,0,0-1,.992h0A1,1,0,0,0,3582.377-846.129Z" transform="translate(-3581.385 848.127)" fill="#040506"/>
          </g>
          <g id="Group_4138" data-name="Group 4138" transform="translate(9.03 41.277)">
            <path id="Path_8765" data-name="Path 8765" d="M3583.328-843.524l12.095.09a.951.951,0,0,0,.9-.992h0a.947.947,0,0,0-.883-1l-12.094-.09a.952.952,0,0,0-.9.992h0A.95.95,0,0,0,3583.328-843.524Z" transform="translate(-3582.443 845.521)" fill="#99a8b6"/>
          </g>
          <g id="Group_4139" data-name="Group 4139" transform="translate(9.016 43.28)">
            <path id="Path_8766" data-name="Path 8766" d="M3583.307-840.924l12.095.089a.952.952,0,0,0,.9-.993h0a.949.949,0,0,0-.885-1l-12.093-.089a.948.948,0,0,0-.9.991h0A.949.949,0,0,0,3583.307-840.924Z" transform="translate(-3582.424 842.92)" fill="#040506"/>
          </g>
          <g id="Group_4140" data-name="Group 4140" transform="translate(8.998 45.28)">
            <path id="Path_8767" data-name="Path 8767" d="M3583.287-838.326l12.094.09a.949.949,0,0,0,.9-.992h0a.951.951,0,0,0-.883-1.006l-12.095-.087a.95.95,0,0,0-.9.991h0A.952.952,0,0,0,3583.287-838.326Z" transform="translate(-3582.401 840.321)" fill="#99a8b6"/>
          </g>
          <g id="Group_4141" data-name="Group 4141" transform="translate(8.986 47.28)">
            <path id="Path_8768" data-name="Path 8768" d="M3583.268-835.726l12.1.087a.945.945,0,0,0,.9-.99h0a.948.948,0,0,0-.882-1l-12.095-.089a.948.948,0,0,0-.9.992h0A.949.949,0,0,0,3583.268-835.726Z" transform="translate(-3582.386 837.724)" fill="#040506"/>
          </g>
          <g id="Group_4142" data-name="Group 4142" transform="translate(10.72 49.288)">
            <path id="Path_8769" data-name="Path 8769" d="M3593.016-833.055l-6.4-.049a2,2,0,0,1-1.982-2.012h0l10.39.079h0A2,2,0,0,1,3593.016-833.055Z" transform="translate(-3584.638 835.116)" fill="#99a8b6"/>
          </g>
        </g>
        <g id="Group_4151" data-name="Group 4151">
          <g id="Group_4144" data-name="Group 4144" transform="translate(30.728)">
            <path id="Path_8770" data-name="Path 8770" d="M3590.256-913.729a1.337,1.337,0,0,1-1.019-1.309l.057-7.5a1.338,1.338,0,0,1,1.347-1.326,1.339,1.339,0,0,1,1.324,1.347l-.057,7.5a1.337,1.337,0,0,1-1.347,1.326A1.4,1.4,0,0,1,3590.256-913.729Z" transform="translate(-3589.237 923.867)" fill="#e13113"/>
          </g>
          <g id="Group_4145" data-name="Group 4145" transform="translate(13.996 3.407)">
            <path id="Path_8771" data-name="Path 8771" d="M3572.552-910.307a1.331,1.331,0,0,1-.819-.594l-4.031-6.5a1.339,1.339,0,0,1,.431-1.84,1.337,1.337,0,0,1,1.841.433l4.027,6.5a1.335,1.335,0,0,1-.431,1.84A1.334,1.334,0,0,1,3572.552-910.307Z" transform="translate(-3567.503 919.442)" fill="#e13113"/>
          </g>
          <g id="Group_4146" data-name="Group 4146" transform="translate(2.428 16.614)">
            <path id="Path_8772" data-name="Path 8772" d="M3560.5-896.515a1.523,1.523,0,0,1-.232-.08l-7-3.133a1.338,1.338,0,0,1-.674-1.765,1.332,1.332,0,0,1,1.767-.674l7,3.133a1.337,1.337,0,0,1,.674,1.767A1.336,1.336,0,0,1,3560.5-896.515Z" transform="translate(-3552.477 902.287)" fill="#e13113"/>
          </g>
          <g id="Group_4147" data-name="Group 4147" transform="translate(0 35.519)">
            <path id="Path_8773" data-name="Path 8773" d="M3550.344-874.872a1.342,1.342,0,0,1-1.019-1.25,1.336,1.336,0,0,1,1.287-1.383l6.348-.226a1.339,1.339,0,0,1,1.384,1.287,1.339,1.339,0,0,1-1.29,1.383l-6.345.226A1.329,1.329,0,0,1,3550.344-874.872Z" transform="translate(-3549.324 877.731)" fill="#e13113"/>
          </g>
          <g id="Group_4148" data-name="Group 4148" transform="translate(44.332 3.673)">
            <path id="Path_8774" data-name="Path 8774" d="M3607.93-910.025a1.313,1.313,0,0,1-.406-.174,1.335,1.335,0,0,1-.405-1.844l4.127-6.438a1.335,1.335,0,0,1,1.847-.4,1.333,1.333,0,0,1,.4,1.844l-4.127,6.438A1.329,1.329,0,0,1,3607.93-910.025Z" transform="translate(-3606.908 919.096)" fill="#e13113"/>
          </g>
          <g id="Group_4149" data-name="Group 4149" transform="translate(52.778 17.058)">
            <path id="Path_8775" data-name="Path 8775" d="M3618.9-896.05a1.344,1.344,0,0,1-.913-.772,1.336,1.336,0,0,1,.7-1.755l7.041-3.026a1.338,1.338,0,0,1,1.756.7,1.339,1.339,0,0,1-.7,1.756l-7.044,3.024A1.335,1.335,0,0,1,3618.9-896.05Z" transform="translate(-3617.878 901.71)" fill="#e13113"/>
          </g>
          <g id="Group_4150" data-name="Group 4150" transform="translate(55.613 35.898)">
            <path id="Path_8776" data-name="Path 8776" d="M3622.579-874.606a1.334,1.334,0,0,1-1.016-1.366,1.339,1.339,0,0,1,1.4-1.266l6.342.323a1.34,1.34,0,0,1,1.267,1.4,1.338,1.338,0,0,1-1.4,1.266l-6.345-.323A1.37,1.37,0,0,1,3622.579-874.606Z" transform="translate(-3621.561 877.239)" fill="#e13113"/>
          </g>
        </g>
      </g>
      <g id="Group_4155" data-name="Group 4155" transform="translate(0 70.447)">
        <g id="Group_4154" data-name="Group 4154" clip-path="url(#clip-path-2)">
          <g id="Group_4153" data-name="Group 4153" transform="translate(-13.053 -6.425)">
            <rect id="Rectangle_3926" data-name="Rectangle 3926" width="410.349" height="86.392" transform="translate(0 3.081)" fill="#e13113"/>
            <path id="Path_8777" data-name="Path 8777" d="M3364.643-751.336l20.7,1.529,93.071-88.629-20.7-1.529Z" transform="translate(-3287.32 840.537)" fill="#161615"/>
            <path id="Path_8778" data-name="Path 8778" d="M3459.573-751.336l20.7,1.529,93.071-88.629-20.7-1.529Z" transform="translate(-3309.166 840.537)" fill="#161615"/>
            <path id="Path_8779" data-name="Path 8779" d="M3554.5-751.336l20.7,1.529,93.071-88.629-20.7-1.529Z" transform="translate(-3331.011 840.537)" fill="#161615"/>
            <path id="Path_8780" data-name="Path 8780" d="M3649.431-750.063l20.7,1.529,93.071-88.63-20.7-1.529Z" transform="translate(-3352.856 840.244)" fill="#161615"/>
            <path id="Path_8781" data-name="Path 8781" d="M3269.714-752.078l20.7,1.529,93.071-88.629-20.7-1.529Z" transform="translate(-3265.474 840.708)" fill="#161615"/>
          </g>
        </g>
      </g>
      <g id="Group_4172" data-name="Group 4172" transform="translate(35.859 0.059)">
        <g id="Group_4163" data-name="Group 4163" transform="translate(16.468 19.04)">
          <g id="Group_4156" data-name="Group 4156">
            <path id="Path_8782" data-name="Path 8782" d="M3349.13-883.017a16.162,16.162,0,0,1,16.251-16.043,16.178,16.178,0,0,1,16.072,16.28,16.1,16.1,0,0,1-4.22,10.774c-3.218,3.524-5.547,8.063-5.582,12.834l0,.481-13.066-.1v-.428c.037-4.792-2.228-9.389-5.4-12.979A16.1,16.1,0,0,1,3349.13-883.017Z" transform="translate(-3349.129 899.06)" fill="#e13113"/>
          </g>
          <g id="Group_4157" data-name="Group 4157" transform="translate(8.216 39.272)">
            <path id="Path_8783" data-name="Path 8783" d="M3360.793-846.053l13.542.1a1,1,0,0,0,1-.99v0a.994.994,0,0,0-.988-1l-13.546-.1a1,1,0,0,0-1,.991h0A1,1,0,0,0,3360.793-846.053Z" transform="translate(-3359.801 848.05)" fill="#040506"/>
          </g>
          <g id="Group_4158" data-name="Group 4158" transform="translate(9.03 41.277)">
            <path id="Path_8784" data-name="Path 8784" d="M3361.744-843.448l12.095.09a.952.952,0,0,0,.9-.992h0a.948.948,0,0,0-.883-1l-12.094-.09a.952.952,0,0,0-.9.992h0A.949.949,0,0,0,3361.744-843.448Z" transform="translate(-3360.859 845.445)" fill="#99a8b6"/>
          </g>
          <g id="Group_4159" data-name="Group 4159" transform="translate(9.016 43.28)">
            <path id="Path_8785" data-name="Path 8785" d="M3361.723-840.849l12.094.089a.953.953,0,0,0,.9-.993h0a.948.948,0,0,0-.885-1l-12.093-.089a.948.948,0,0,0-.9.991h0A.949.949,0,0,0,3361.723-840.849Z" transform="translate(-3360.84 842.844)" fill="#040506"/>
          </g>
          <g id="Group_4160" data-name="Group 4160" transform="translate(8.998 45.28)">
            <path id="Path_8786" data-name="Path 8786" d="M3361.7-838.25l12.095.09a.949.949,0,0,0,.9-.992h0a.951.951,0,0,0-.883-1.006l-12.094-.087a.95.95,0,0,0-.9.991h0A.951.951,0,0,0,3361.7-838.25Z" transform="translate(-3360.817 840.245)" fill="#99a8b6"/>
          </g>
          <g id="Group_4161" data-name="Group 4161" transform="translate(8.986 47.28)">
            <path id="Path_8787" data-name="Path 8787" d="M3361.684-835.65l12.094.087a.945.945,0,0,0,.9-.99h0a.948.948,0,0,0-.883-1l-12.095-.089a.947.947,0,0,0-.9.992h0A.95.95,0,0,0,3361.684-835.65Z" transform="translate(-3360.801 837.648)" fill="#040506"/>
          </g>
          <g id="Group_4162" data-name="Group 4162" transform="translate(10.72 49.288)">
            <path id="Path_8788" data-name="Path 8788" d="M3371.432-832.979l-6.4-.049a2,2,0,0,1-1.982-2.012h0l10.389.079h0A2,2,0,0,1,3371.432-832.979Z" transform="translate(-3363.054 835.04)" fill="#99a8b6"/>
          </g>
        </g>
        <g id="Group_4171" data-name="Group 4171">
          <g id="Group_4164" data-name="Group 4164" transform="translate(30.729)">
            <path id="Path_8789" data-name="Path 8789" d="M3368.672-913.653a1.336,1.336,0,0,1-1.019-1.309l.057-7.5a1.338,1.338,0,0,1,1.347-1.326,1.339,1.339,0,0,1,1.324,1.347l-.057,7.5a1.337,1.337,0,0,1-1.347,1.326A1.372,1.372,0,0,1,3368.672-913.653Z" transform="translate(-3367.653 923.791)" fill="#e13113"/>
          </g>
          <g id="Group_4165" data-name="Group 4165" transform="translate(13.996 3.407)">
            <path id="Path_8790" data-name="Path 8790" d="M3350.969-910.231a1.329,1.329,0,0,1-.819-.594l-4.031-6.5a1.338,1.338,0,0,1,.431-1.84,1.338,1.338,0,0,1,1.841.433l4.027,6.5a1.337,1.337,0,0,1-.431,1.84A1.336,1.336,0,0,1,3350.969-910.231Z" transform="translate(-3345.918 919.366)" fill="#e13113"/>
          </g>
          <g id="Group_4166" data-name="Group 4166" transform="translate(2.428 16.614)">
            <path id="Path_8791" data-name="Path 8791" d="M3338.914-896.439a1.5,1.5,0,0,1-.232-.08l-7-3.133a1.338,1.338,0,0,1-.674-1.765,1.332,1.332,0,0,1,1.767-.674l7,3.133a1.337,1.337,0,0,1,.674,1.767A1.336,1.336,0,0,1,3338.914-896.439Z" transform="translate(-3330.893 902.211)" fill="#e13113"/>
          </g>
          <g id="Group_4167" data-name="Group 4167" transform="translate(0 35.519)">
            <path id="Path_8792" data-name="Path 8792" d="M3328.759-874.8a1.342,1.342,0,0,1-1.02-1.25,1.337,1.337,0,0,1,1.288-1.383l6.348-.226a1.34,1.34,0,0,1,1.384,1.287,1.339,1.339,0,0,1-1.291,1.383l-6.345.226A1.338,1.338,0,0,1,3328.759-874.8Z" transform="translate(-3327.739 877.655)" fill="#e13113"/>
          </g>
          <g id="Group_4168" data-name="Group 4168" transform="translate(44.333 3.673)">
            <path id="Path_8793" data-name="Path 8793" d="M3386.345-909.949a1.313,1.313,0,0,1-.406-.174,1.335,1.335,0,0,1-.406-1.844l4.128-6.438a1.335,1.335,0,0,1,1.847-.4,1.334,1.334,0,0,1,.4,1.844l-4.127,6.438A1.329,1.329,0,0,1,3386.345-909.949Z" transform="translate(-3385.323 919.02)" fill="#e13113"/>
          </g>
          <g id="Group_4169" data-name="Group 4169" transform="translate(52.778 17.058)">
            <path id="Path_8794" data-name="Path 8794" d="M3397.316-895.974a1.341,1.341,0,0,1-.913-.772,1.335,1.335,0,0,1,.7-1.755l7.042-3.026a1.336,1.336,0,0,1,1.755.7,1.338,1.338,0,0,1-.7,1.756l-7.044,3.024A1.337,1.337,0,0,1,3397.316-895.974Z" transform="translate(-3396.293 901.635)" fill="#e13113"/>
          </g>
          <g id="Group_4170" data-name="Group 4170" transform="translate(55.614 35.898)">
            <path id="Path_8795" data-name="Path 8795" d="M3400.995-874.53a1.334,1.334,0,0,1-1.016-1.366,1.338,1.338,0,0,1,1.4-1.266l6.343.323a1.34,1.34,0,0,1,1.267,1.4,1.338,1.338,0,0,1-1.4,1.266l-6.346-.323A1.372,1.372,0,0,1,3400.995-874.53Z" transform="translate(-3399.977 877.163)" fill="#e13113"/>
          </g>
        </g>
      </g>
    </g>
    <g id="Group_4176" data-name="Group 4176" transform="translate(3117.912 -1172.86)">
      <g id="Group_4174" data-name="Group 4174" transform="translate(1.767 5.853)">
        <path id="Path_8796" data-name="Path 8796" d="M3140.127-1129.206a23.938,23.938,0,0,1,23.709-24.047,23.757,23.757,0,0,1,19.644,10.364l-8.265,5.757a12.4,12.4,0,0,0-10.905-6.1c-7.858,0-13.48,6.3-13.48,14.022s5.419,14.225,13.412,14.225a12.43,12.43,0,0,0,10.973-6.1l8.265,5.758a23.757,23.757,0,0,1-19.644,10.364C3150.695-1104.956,3140.127-1115.929,3140.127-1129.206Z" transform="translate(-3140.127 1153.795)" fill="#161615"/>
        <path id="Path_8797" data-name="Path 8797" d="M3201.017-1117.057c0-10.025,8.129-16.663,17.138-16.663s17.206,6.639,17.206,16.663c0,9.958-8.2,16.6-17.206,16.6S3201.017-1107.1,3201.017-1117.057Zm24.116,0a7.026,7.026,0,0,0-6.978-7.383,7.025,7.025,0,0,0-6.977,7.383,6.967,6.967,0,0,0,6.977,7.316A6.968,6.968,0,0,0,3225.133-1117.057Z" transform="translate(-3154.139 1149.3)" fill="#161615"/>
        <path id="Path_8798" data-name="Path 8798" d="M3305.015-1118.276v17h-10.025V-1118c0-4.877-2.438-6.435-5.013-6.435-3.116,0-5.419,2.167-5.419,7.723v15.445h-10.025V-1117.8c0-4.878-2.44-6.639-4.946-6.639-2.71,0-5.486,1.355-5.486,6.639v16.528h-10.026v-31.634H3264.1v5.012c1.219-4,5.554-5.825,8.535-5.825a10.615,10.615,0,0,1,10.025,6.029c2.168-4.2,7.044-6.029,10.364-6.029C3300.95-1133.72,3305.015-1127.962,3305.015-1118.276Z" transform="translate(-3166.349 1149.3)" fill="#161615"/>
        <path id="Path_8799" data-name="Path 8799" d="M3329.044-1148.132a6.007,6.007,0,0,1,6.232-5.825,5.889,5.889,0,0,1,6.1,5.825,5.975,5.975,0,0,1-6.1,5.826A6.1,6.1,0,0,1,3329.044-1148.132Zm1.219,42.2v-31.634h10.026v31.634Z" transform="translate(-3183.601 1153.957)" fill="#161615"/>
        <path id="Path_8800" data-name="Path 8800" d="M3386.194-1118.276v17h-10.025v-16.393c0-4.877-2.98-6.774-5.487-6.774-2.709,0-6.1,1.423-6.1,6.706v16.461H3354.56v-31.634h10.025v5.486c1.219-4.335,6.165-6.3,9.077-6.3C3382.062-1133.72,3386.194-1127.962,3386.194-1118.276Z" transform="translate(-3189.473 1149.3)" fill="#161615"/>
        <path id="Path_8801" data-name="Path 8801" d="M3428.878-1132.907h9.958v27.84c0,13.413-7.044,20.186-18.492,20.186a16.978,16.978,0,0,1-15.784-10.161l8.265-3.319a8.459,8.459,0,0,0,7.519,4.674c5.216,0,8.535-2.913,8.535-10.161v-.948c-2.37,2.981-6.571,4.335-9.822,4.335-7.857,0-15.309-6.435-15.309-16.663s7.451-16.6,15.309-16.6c3.251,0,7.452,1.287,9.822,4.267Zm-.406,15.783a7.4,7.4,0,0,0-7.249-7.316,7.418,7.418,0,0,0-7.315,7.316,7.477,7.477,0,0,0,7.315,7.383A7.419,7.419,0,0,0,3428.472-1117.124Z" transform="translate(-3200.792 1149.3)" fill="#161615"/>
        <path id="Path_8802" data-name="Path 8802" d="M3479.066-1119.384H3489.7c0,2.981,2.981,5.284,6.639,5.284,3.454,0,6.1-1.762,6.1-4.81,0-1.828-1.016-3.522-5.148-4.877l-5.555-1.694c-10.3-2.777-12.261-9.077-12.261-13.48,0-8.4,7.181-14.293,16.461-14.293,8.941,0,15.783,5.351,15.783,14.428h-10.635c0-2.778-1.694-5.148-5.351-5.148-3.32,0-5.487,2.235-5.487,4.809,0,.948.271,3.048,4.606,4.267l4.877,1.558c6.638,2.032,13.412,5.419,13.412,13.886,0,10.025-8.67,14.5-17.205,14.5C3485.976-1104.956,3479.066-1110.781,3479.066-1119.384Z" transform="translate(-3218.125 1153.795)" fill="#161615"/>
        <path id="Path_8803" data-name="Path 8803" d="M3530.012-1117.057c0-10.025,8.129-16.663,17.139-16.663s17.205,6.639,17.205,16.663c0,9.958-8.2,16.6-17.205,16.6S3530.012-1107.1,3530.012-1117.057Zm24.115,0a7.025,7.025,0,0,0-6.977-7.383,7.026,7.026,0,0,0-6.977,7.383,6.967,6.967,0,0,0,6.977,7.316A6.967,6.967,0,0,0,3554.127-1117.057Z" transform="translate(-3229.849 1149.3)" fill="#161615"/>
        <path id="Path_8804" data-name="Path 8804" d="M3580.694-1117.057c0-10.025,8.129-16.663,17.138-16.663s17.206,6.639,17.206,16.663c0,9.958-8.2,16.6-17.206,16.6S3580.694-1107.1,3580.694-1117.057Zm24.115,0a7.026,7.026,0,0,0-6.978-7.383,7.025,7.025,0,0,0-6.976,7.383,6.967,6.967,0,0,0,6.976,7.316A6.968,6.968,0,0,0,3604.81-1117.057Z" transform="translate(-3241.512 1149.3)" fill="#161615"/>
        <path id="Path_8805" data-name="Path 8805" d="M3665.386-1118.276v17h-10.025v-16.393c0-4.877-2.98-6.774-5.487-6.774-2.71,0-6.1,1.423-6.1,6.706v16.461h-10.026v-31.634h10.026v5.486c1.219-4.335,6.163-6.3,9.076-6.3C3661.254-1133.72,3665.386-1127.962,3665.386-1118.276Z" transform="translate(-3253.722 1149.3)" fill="#161615"/>
      </g>
      <g id="Group_4175" data-name="Group 4175">
        <path id="Path_8806" data-name="Path 8806" d="M3137.832-1136.809a23.939,23.939,0,0,1,23.708-24.047,23.757,23.757,0,0,1,19.644,10.364l-8.264,5.758a12.4,12.4,0,0,0-10.906-6.1c-7.858,0-13.48,6.3-13.48,14.022s5.419,14.225,13.412,14.225a12.434,12.434,0,0,0,10.974-6.1l8.264,5.758a23.759,23.759,0,0,1-19.644,10.364C3148.4-1112.558,3137.832-1123.532,3137.832-1136.809Z" transform="translate(-3137.832 1161.398)" fill="#e13113"/>
        <path id="Path_8807" data-name="Path 8807" d="M3198.722-1124.659c0-10.025,8.128-16.664,17.137-16.664s17.206,6.639,17.206,16.664c0,9.958-8.2,16.6-17.206,16.6S3198.722-1114.7,3198.722-1124.659Zm24.115,0a7.026,7.026,0,0,0-6.978-7.384,7.026,7.026,0,0,0-6.977,7.384,6.968,6.968,0,0,0,6.977,7.316A6.968,6.968,0,0,0,3222.837-1124.659Z" transform="translate(-3151.844 1156.903)" fill="#e13113"/>
        <path id="Path_8808" data-name="Path 8808" d="M3302.719-1125.879v17h-10.024v-16.732c0-4.877-2.439-6.435-5.013-6.435-3.116,0-5.419,2.168-5.419,7.723v15.444h-10.025V-1125.4c0-4.877-2.439-6.639-4.946-6.639-2.709,0-5.486,1.355-5.486,6.639v16.528h-10.026v-31.634h10.026v5.013c1.219-4,5.554-5.826,8.535-5.826a10.616,10.616,0,0,1,10.025,6.029c2.168-4.2,7.045-6.029,10.364-6.029C3298.655-1141.323,3302.719-1135.565,3302.719-1125.879Z" transform="translate(-3164.054 1156.903)" fill="#e13113"/>
        <path id="Path_8809" data-name="Path 8809" d="M3326.748-1155.734a6.007,6.007,0,0,1,6.231-5.826,5.888,5.888,0,0,1,6.1,5.826,5.975,5.975,0,0,1-6.1,5.826A6.1,6.1,0,0,1,3326.748-1155.734Zm1.219,42.2v-31.634h10.025v31.634Z" transform="translate(-3181.306 1161.56)" fill="#e13113"/>
        <path id="Path_8810" data-name="Path 8810" d="M3383.9-1125.879v17h-10.026v-16.393c0-4.877-2.98-6.774-5.486-6.774-2.71,0-6.1,1.423-6.1,6.707v16.461h-10.026v-31.634h10.026v5.487c1.219-4.336,6.164-6.3,9.077-6.3C3379.766-1141.323,3383.9-1135.565,3383.9-1125.879Z" transform="translate(-3187.178 1156.903)" fill="#e13113"/>
        <path id="Path_8811" data-name="Path 8811" d="M3426.582-1140.51h9.958v27.841c0,13.412-7.045,20.186-18.493,20.186a16.977,16.977,0,0,1-15.783-10.161l8.264-3.32a8.459,8.459,0,0,0,7.52,4.674c5.216,0,8.535-2.912,8.535-10.161v-.949c-2.37,2.981-6.57,4.336-9.822,4.336-7.858,0-15.309-6.435-15.309-16.664s7.452-16.6,15.309-16.6c3.252,0,7.452,1.287,9.822,4.267Zm-.406,15.783a7.4,7.4,0,0,0-7.248-7.316,7.418,7.418,0,0,0-7.316,7.316,7.478,7.478,0,0,0,7.316,7.384A7.419,7.419,0,0,0,3426.176-1124.727Z" transform="translate(-3198.497 1156.903)" fill="#e13113"/>
        <path id="Path_8812" data-name="Path 8812" d="M3476.771-1126.987h10.634c0,2.981,2.981,5.284,6.639,5.284,3.455,0,6.1-1.761,6.1-4.809,0-1.828-1.017-3.522-5.148-4.877l-5.554-1.694c-10.3-2.777-12.261-9.077-12.261-13.48,0-8.4,7.18-14.293,16.46-14.293,8.941,0,15.783,5.351,15.783,14.428h-10.635c0-2.777-1.694-5.148-5.351-5.148-3.319,0-5.487,2.236-5.487,4.809,0,.949.271,3.049,4.606,4.268l4.878,1.558c6.638,2.032,13.412,5.419,13.412,13.887,0,10.025-8.671,14.5-17.206,14.5C3483.68-1112.558,3476.771-1118.384,3476.771-1126.987Z" transform="translate(-3215.83 1161.398)" fill="#e13113"/>
        <path id="Path_8813" data-name="Path 8813" d="M3527.717-1124.659c0-10.025,8.128-16.664,17.138-16.664s17.206,6.639,17.206,16.664c0,9.958-8.2,16.6-17.206,16.6S3527.717-1114.7,3527.717-1124.659Zm24.115,0a7.026,7.026,0,0,0-6.977-7.384,7.026,7.026,0,0,0-6.977,7.384,6.968,6.968,0,0,0,6.977,7.316A6.968,6.968,0,0,0,3551.832-1124.659Z" transform="translate(-3227.554 1156.903)" fill="#e13113"/>
        <path id="Path_8814" data-name="Path 8814" d="M3578.4-1124.659c0-10.025,8.129-16.664,17.137-16.664s17.207,6.639,17.207,16.664c0,9.958-8.2,16.6-17.207,16.6S3578.4-1114.7,3578.4-1124.659Zm24.115,0a7.026,7.026,0,0,0-6.977-7.384,7.026,7.026,0,0,0-6.977,7.384,6.968,6.968,0,0,0,6.977,7.316A6.968,6.968,0,0,0,3602.513-1124.659Z" transform="translate(-3239.217 1156.903)" fill="#e13113"/>
        <path id="Path_8815" data-name="Path 8815" d="M3663.091-1125.879v17h-10.026v-16.393c0-4.877-2.98-6.774-5.486-6.774-2.71,0-6.1,1.423-6.1,6.707v16.461h-10.026v-31.634h10.026v5.487c1.219-4.336,6.164-6.3,9.077-6.3C3658.958-1141.323,3663.091-1135.565,3663.091-1125.879Z" transform="translate(-3251.427 1156.903)" fill="#e13113"/>
      </g>
    </g>
    <g id="Group_4178" data-name="Group 4178" transform="translate(3093.184 -1056.204)">
      <g id="Group_4177" data-name="Group 4177" transform="translate(0 0)">
        <path id="Path_8816" data-name="Path 8816" d="M3204.849-585.987c-1.087-1.361-12.847-.225-12.964.481-.362,2.165-.918,10.456.2,11.554,1.088,1.063,11.241,3.374,11.471,1.277C3203.758-574.492,3205.9-584.678,3204.849-585.987Z" transform="translate(-3125.437 912.597)" fill="#fff"/>
        <path id="Path_8817" data-name="Path 8817" d="M3201.169-571.476c-3.25,0-8.693-1.373-9.6-2.261-1.444-1.414-.591-10.584-.352-12.015.072-.442.566-.606,1.063-.735,2.145-.558,11.573-1.547,12.823.015h0c.8,1,.337,4.766-.8,11.359-.186,1.077-.333,1.925-.378,2.336a1.3,1.3,0,0,1-.99,1.079A5.521,5.521,0,0,1,3201.169-571.476Zm-8.956-13.909c-.466,3.026-.7,10.136.084,10.9s8.164,2.564,10.281,1.8c.141-.05.3-.132.3-.209.046-.423.2-1.293.386-2.4.459-2.652,1.677-9.7,1.016-10.527C3203.435-586.738,3193.8-586.1,3192.214-585.385Z" transform="translate(-3125.281 912.755)" fill="#040506"/>
        <path id="Path_8818" data-name="Path 8818" d="M3190.327-573.451s-5.436,7.773-1.548,13.878c0,0,28.312,1.332,36.861,0,0,0,.22-10.434-7.107-11.325a134.466,134.466,0,0,0-15.582-.763S3195.649-567.675,3190.327-573.451Z" transform="translate(-3124.506 909.565)" fill="#040506"/>
        <path id="Path_8819" data-name="Path 8819" d="M3123.185-585.987c-1.087-1.361-12.847-.225-12.964.481-.362,2.165-.918,10.456.2,11.554,1.087,1.063,11.242,3.374,11.471,1.277C3122.094-574.492,3124.233-584.678,3123.185-585.987Z" transform="translate(-3106.644 912.597)" fill="#fff"/>
        <path id="Path_8820" data-name="Path 8820" d="M3119.505-571.476c-3.25,0-8.693-1.373-9.6-2.261-1.445-1.414-.592-10.584-.352-12.015.073-.442.566-.606,1.063-.735,2.145-.558,11.573-1.547,12.823.015h0c.8,1,.336,4.766-.8,11.359-.186,1.077-.333,1.925-.378,2.336a1.3,1.3,0,0,1-.989,1.079A5.519,5.519,0,0,1,3119.505-571.476Zm-8.957-13.909c-.465,3.026-.7,10.136.085,10.9s8.164,2.564,10.281,1.8c.141-.05.3-.132.3-.209.047-.423.2-1.293.387-2.4.459-2.652,1.676-9.7,1.016-10.527C3121.771-586.738,3112.138-586.1,3110.549-585.385Z" transform="translate(-3106.488 912.755)" fill="#040506"/>
        <path id="Path_8821" data-name="Path 8821" d="M3108.662-573.451s-5.435,7.773-1.548,13.878c0,0,28.313,1.332,36.86,0,0,0,.221-10.434-7.107-11.325a134.465,134.465,0,0,0-15.582-.763S3113.984-567.675,3108.662-573.451Z" transform="translate(-3105.713 909.565)" fill="#040506"/>
        <path id="Path_8822" data-name="Path 8822" d="M3185.427-744.6c1.333,16.653.109,50.233-1.223,66.887-.081,1.118-.081,39.806-.081,39.806l15.653,1.5c8.522-25.427,24.8-82.448,24.8-107.763s-2.185-67.495-11.486-87.5c-8.845-19.028-43.738,7.253-47.842,11.914-1.892,2.156,1.692,21.419,6.646,34.183C3177.646-770.8,3184.708-753.558,3185.427-744.6Z" transform="translate(-3119.295 970.562)" fill="#040506"/>
        <path id="Path_8823" data-name="Path 8823" d="M3185.13-629.761l9.656.925c-.879-6.076-.013-19.632.336-25.812.639-10.767,3.3-21.292,5.808-31.737,3.943-16.574,7.7-34.133,3.012-50.975-2.425-8.66-7.729-14.681-12.045-22.328a30.2,30.2,0,0,1-3.888-16.894c.239-3.224,2.237-7.3,1.146-10.525-1.359-4.079-13.551-17.858-16.667-15.779-3.758,2.532-1.861,12.32-3.381,16.876,5.756,14.789,16.609,40.6,17.328,49.556,1.333,16.653-1.42,50.093-2.333,66.776C3183.195-653.069,3185.13-629.761,3185.13-629.761Z" transform="translate(-3120.301 962.413)" fill="#040506"/>
        <path id="Path_8824" data-name="Path 8824" d="M3108.9-637.632l13.9,1.5c7.252-23.981,26.636-64.957,29.488-90.108,4.421-39.065,9.763-80.895,10-91.183.026-1.651.054-2.53.054-2.53-9.568-11.645-25.78-16.394-33-17.245-2.852-.346-4.931.212-5.836,1.706A108.329,108.329,0,0,0,3116.5-821.8c-11.646,27.661-1.84,44.369-2.051,80.341,0,2.079-.028,4.21-.081,6.317-.374,14.868,3.638,33.181-.637,48.712C3105.342-655.964,3108.9-637.632,3108.9-637.632Z" transform="translate(-3106.274 970.284)" fill="#040506"/>
        <path id="Path_8825" data-name="Path 8825" d="M3204.2-995.876c-1.142-.048-2.834,2.168-1.66,3.541a4.732,4.732,0,0,0,2.332,1.1c-.006.086-1.412,1.714.457,2.753,1.671.925,3.887-.6,5.674-.9,5.313-.878,9.426.449,9.583,1.483.148.97-2.185,2.049-3.407,1.91a1.838,1.838,0,0,0-1.771.761c-.452.75-.01,1.269.494,1.667.871.683,4.908.795,6.559-.467,6.776-5.185,7.273,3.247,10.891-5.563.516-1.255-3.913-5.549-9.788-8.951-4.679-2.142-14.315-4.78-15.34-1.12C3205.179-1000.433,3202.559-997.819,3204.2-995.876Z" transform="translate(-3127.903 1008.064)" fill="#fff"/>
        <path id="Path_8826" data-name="Path 8826" d="M3218.365-982.681a5.5,5.5,0,0,1-2.946-.619,1.66,1.66,0,0,1-.619-2.348,2.36,2.36,0,0,1,2.28-1.008,4.024,4.024,0,0,0,2.642-1c.16-.166.193-.276.187-.315-.207-.567-3.838-1.892-8.982-1.047a10.737,10.737,0,0,0-1.741.523c-1.376.5-2.932,1.055-4.271.316a2.241,2.241,0,0,1-1.185-1.391,2.246,2.246,0,0,1,.188-1.477,4.37,4.37,0,0,1-1.938-1.107,2.369,2.369,0,0,1-.215-2.674,3.436,3.436,0,0,1,1.454-1.534,2.433,2.433,0,0,1,.206-2.337,4.335,4.335,0,0,1,4.311-1.717,2.73,2.73,0,0,1,1.353-1.246c3.414-1.592,11.263.992,14.531,2.494,5.488,3.174,10.81,7.786,10.054,9.623-1.922,4.684-3.123,4.93-5.244,4.349-1.295-.351-2.911-.792-5.812,1.43A7.509,7.509,0,0,1,3218.365-982.681Zm-1.581-2.949a1.262,1.262,0,0,0-1.089.52c-.166.275-.237.507.371.988s4.413.681,5.918-.471c3.312-2.534,5.283-2,6.723-1.608s2.22.6,4-3.739c.208-.722-3.188-4.607-9.568-8.3-3.971-1.815-10.955-3.709-13.611-2.471a1.611,1.611,0,0,0-.962,1.041l-.138.492-.494-.128a3.324,3.324,0,0,0-3.624,1.164,1.421,1.421,0,0,0,.128,1.774l.765.908-1.187-.05c-.374-.027-.976.451-1.313,1.141a1.393,1.393,0,0,0,.072,1.539,4.289,4.289,0,0,0,1.968.922l.505.055-.029.641-.127.207a1.675,1.675,0,0,0-.349,1.184,1.255,1.255,0,0,0,.68.731c.922.513,2.185.055,3.409-.383a11.4,11.4,0,0,1,1.924-.571c4.31-.713,8.131-.009,9.542,1.018a1.419,1.419,0,0,1,.642.9,1.393,1.393,0,0,1-.464,1.2,5.036,5.036,0,0,1-3.516,1.314A1.441,1.441,0,0,0,3216.784-985.629Z" transform="translate(-3127.747 1008.222)" fill="#040506"/>
        <path id="Path_8827" data-name="Path 8827" d="M3251.082-915.378c23.511-3.821,15.841-27.328,2.935-44.416-5.981-7.915-13.67-19.575-22.449-24.454-5.988-3.327-5.953-.244-11.868,2.653a142.691,142.691,0,0,1,13.36,24.047c4.614,11.126,3.452,14.8-11.266,10.012-13-4.23-36.978-16.359-47.286-1.537C3154.1-919.73,3237.236-912.948,3251.082-915.378Z" transform="translate(-3120.806 1004.432)" fill="#e13113"/>
        <path id="Path_8828" data-name="Path 8828" d="M3225.991-907.224s.886-14.462-18.955-27.5c0,0-9.582-14.344-23.784-11.7,0,0-.457,31.954,15.455,35.834A120.317,120.317,0,0,0,3225.991-907.224Z" transform="translate(-3123.556 995.47)" fill="#040506"/>
        <path id="Path_8829" data-name="Path 8829" d="M3109.209-840.1c7.246,1.286,14.1,2.238,20.593,2.91.951.112,1.874.222,2.8.278a236.819,236.819,0,0,0,26.135,1.12c.982,0,1.959-.028,2.91-.057,13.431-.363,47.808-22.38,47.808-22.38-.7-5.4-3.261-24.04-4.6-32.211-.17-.979-.336-1.933-.475-2.855-2.073-11.948-4.337-21.938-7.305-30.024-.336-.9-.671-1.788-1.035-2.658-6.521-15.893-16.284-23.813-33.606-24.539a36.824,36.824,0,0,0-27.954,10.24c-.558.5-1.118,1.064-1.651,1.624-5.763,6.014-10.157,13.878-13.488,22.554-.306.838-.642,1.708-.923,2.573a155.578,155.578,0,0,0-7.218,31.453c-.111.893-.222,1.79-.363,2.66-.9,7.695-1.372,14.94-1.6,21.041-.059.978-.085,1.932-.112,2.852C3108.873-846.2,3109.209-840.1,3109.209-840.1Z" transform="translate(-3106.477 996.347)" fill="#e13113"/>
        <path id="Path_8830" data-name="Path 8830" d="M3183.437-953.587s-4.207,7.485-16.985-.319a24.421,24.421,0,0,0,.561-13.927l13.008,3.174S3178.764-959.788,3183.437-953.587Z" transform="translate(-3119.691 1000.322)" fill="#fff"/>
        <path id="Path_8831" data-name="Path 8831" d="M3176.532-950.04c-3.052,0-6.585-1.216-10.543-3.635l-.37-.228.154-.4a24.072,24.072,0,0,0,.547-13.6l-.248-.863,14.391,3.511-.129.513c-.011.045-1.118,4.727,3.328,10.627l.206.273-.168.3a7.514,7.514,0,0,1-4.589,3.186A10.142,10.142,0,0,1,3176.532-950.04Zm-9.638-4.309c4.722,2.815,8.747,3.815,11.953,2.979a6.8,6.8,0,0,0,3.759-2.416c-3.715-5.1-3.574-9.27-3.379-10.7l-11.677-2.851A24.961,24.961,0,0,1,3166.894-954.349Z" transform="translate(-3119.499 1000.537)" fill="#040506"/>
        <path id="Path_8832" data-name="Path 8832" d="M3170.357-1001.006c-6.635,1.464-10.349,10.185-8.3,19.481s9.092,15.642,15.726,14.18,10.346-10.186,8.3-19.482S3176.989-1002.468,3170.357-1001.006Z" transform="translate(-3118.55 1008.004)" fill="#fff"/>
        <path id="Path_8833" data-name="Path 8833" d="M3175.719-966.771c-6.26,0-12.42-6.167-14.326-14.8a21.6,21.6,0,0,1,.922-12.993c1.635-3.839,4.394-6.365,7.772-7.11h0c6.911-1.512,14.238,5.019,16.349,14.578s-1.792,18.58-8.694,20.1A9.349,9.349,0,0,1,3175.719-966.771Zm-5.406-33.88c-3.041.67-5.54,2.979-7.037,6.5a20.556,20.556,0,0,0-.862,12.36c1.987,9,8.772,15.177,15.1,13.782s9.884-9.86,7.9-18.86-8.777-15.173-15.1-13.781Z" transform="translate(-3118.393 1008.159)" fill="#040506"/>
        <path id="Path_8834" data-name="Path 8834" d="M3188.572-983.172s4.467,5.59,5.913,8.861a.887.887,0,0,1-.572,1.218c-1.581.462-4.779,1.327-6.148,1.236C3185.913-971.976,3188.572-983.172,3188.572-983.172Z" transform="translate(-3124.444 1003.852)" fill="#fff"/>
        <path id="Path_8835" data-name="Path 8835" d="M3187.826-971.677c-.086,0-.168,0-.245-.006a.97.97,0,0,1-.729-.415c-1.211-1.638.671-9.9,1.06-11.543l.247-1.043.668.838c.185.23,4.528,5.682,5.985,8.975a1.417,1.417,0,0,1-.009,1.168,1.42,1.42,0,0,1-.9.763A28.154,28.154,0,0,1,3187.826-971.677Zm.858-10.657c-1.075,4.841-1.526,9.129-.981,9.627a23.721,23.721,0,0,0,5.914-1.236.37.37,0,0,0,.239-.2.364.364,0,0,0,0-.3A50.326,50.326,0,0,0,3188.684-982.334Z" transform="translate(-3124.293 1004.2)" fill="#040506"/>
        <path id="Path_8836" data-name="Path 8836" d="M3162.311-990.406a4.357,4.357,0,0,0,4.056-3.334c1.066-3.409,5.511-3.168,8.728-1.467s8.425,2.343,12.029.273c2.756-1.585,6.047-7.187.923-11.022-4.656-3.484-16.647-4.579-20.4-3.878-6.807,1.28-14.852,10.2-13.442,18.47.991,5.834,4.277,15.109,9.026,14.993C3162-982.506,3160.392-986.512,3162.311-990.406Z" transform="translate(-3116.836 1010.033)" fill="#040506"/>
        <path id="Path_8837" data-name="Path 8837" d="M3165.111-980.458s-2.537-2.739-4.473-.551,1.04,9.159,4.352,6.852S3165.111-980.458,3165.111-980.458Z" transform="translate(-3118.211 1003.549)" fill="#fff"/>
        <path id="Path_8838" data-name="Path 8838" d="M3163.487-973.335a3.262,3.262,0,0,1-2.411-1.234c-1.619-1.818-2.42-5.32-.987-6.943a2.784,2.784,0,0,1,2.093-1.025h.031a4.98,4.98,0,0,1,3.125,1.567l.024.03c.073.091,1.777,2.257,1.456,4.468a3.751,3.751,0,0,1-1.686,2.587A2.865,2.865,0,0,1,3163.487-973.335Zm-1.273-8.157h-.023a1.751,1.751,0,0,0-1.32.672c-.941,1.066-.426,3.973.985,5.556a1.9,1.9,0,0,0,2.679.521,2.714,2.714,0,0,0,1.25-1.881,5.669,5.669,0,0,0-1.227-3.651A3.918,3.918,0,0,0,3162.214-981.492Z" transform="translate(-3118.055 1003.706)" fill="#040506"/>
        <path id="Path_8839" data-name="Path 8839" d="M3166.418-969.214a9.909,9.909,0,0,1-1.5-5.668A28.974,28.974,0,0,0,3166-986.776c-.14-1.12,1.619-.463,1.619-.463s6.683,21.9,19.209,13.709c0,0,.691,6.027-.981,8.066-4.11,5.007-13.264,3.022-16.06.817A18.264,18.264,0,0,1,3166.418-969.214Z" transform="translate(-3119.339 1004.832)" fill="#040506"/>
        <path id="Path_8840" data-name="Path 8840" d="M3188.812-983.394s-2.137,9.764-1.991,11.466c0,0-4.469-1.07-3.984-7.239s2.9-8.162,4.415-7.239A3.923,3.923,0,0,1,3188.812-983.394Z" transform="translate(-3123.453 1004.646)" fill="#fff"/>
      </g>
      <path id="Path_8841" data-name="Path 8841" d="M3129.469-866.849c1.489,14,32.209,50.451,32.209,50.451s9.249-6.943,18.4-10.42c-16.031-17.234-27.874-35.2-30.862-48.094-1.789-7.723.146-14.939,2.259-21.642C3151.477-896.555,3128.264-878.187,3129.469-866.849Z" transform="translate(-3111.169 983.919)" fill="#040506"/>
      <path id="Path_8842" data-name="Path 8842" d="M3166.571-797.013c1.466,2.3,8.759,9.486,17.052,13.223a7.375,7.375,0,0,0,3.537.46,4.725,4.725,0,0,0,3.194-1.417,5.019,5.019,0,0,0,1.086-3.654,7.878,7.878,0,0,0-2.426-5.213,1.137,1.137,0,0,1-.391-.539,1.432,1.432,0,0,1,.25-.848,2.736,2.736,0,0,0-.627-2.862,6.679,6.679,0,0,0-2.633-1.585,49.91,49.91,0,0,0-12.006-2.5,9.83,9.83,0,0,0-4.326.13Z" transform="translate(-3119.718 962.189)" fill="#fff"/>
      <path id="Path_8843" data-name="Path 8843" d="M3136.929-939.419c-9.647,6.08-16.919,15.6-21.059,26.223a71.979,71.979,0,0,0-4.039,33.641c2.48,23.317,15.709,46.074,36.64,56.645,1.455.735,3.129,1.424,4.671.894a6.1,6.1,0,0,0,1.877-1.2,56.866,56.866,0,0,0,11.317-12.883,2.19,2.19,0,0,0,.436-1.073,2.254,2.254,0,0,0-.677-1.405c-11.6-14.158-22.36-30.3-23.656-48.557-.486-6.84.634-14.277,5.367-19.24Z" transform="translate(-3107.015 993.783)" fill="#e13113"/>
    </g>
  </g>
</svg>
