<svg id="Group_752" data-name="Group 752" xmlns="http://www.w3.org/2000/svg" width="302.602" height="134.935" viewBox="0 0 302.602 134.935">
  <g id="Group_752-2" data-name="Group 752" transform="translate(66.323)">
    <path id="Path_2665" data-name="Path 2665" d="M467.212,715.843H232.655a.862.862,0,0,0-.861.863v5.337a.989.989,0,0,0,.733.956l5.484,1.466a23.733,23.733,0,0,0,6.131.806H455.725a23.733,23.733,0,0,0,6.131-.806L467.34,723a.989.989,0,0,0,.733-.956v-5.337a.862.862,0,0,0-.861-.863" transform="translate(-231.794 -590.336)" fill="#f40"/>
    <path id="Path_2666" data-name="Path 2666" d="M511.209,296.008H311.542V175.853a5.345,5.345,0,0,1,5.338-5.352H505.872a5.345,5.345,0,0,1,5.338,5.352Z" transform="translate(-293.236 -170.501)" fill="#f40"/>
    <rect id="Rectangle_1012" data-name="Rectangle 1012" width="185.523" height="112.601" transform="translate(25.373 7.224)" fill="#fff"/>
    <rect id="Rectangle_1013" data-name="Rectangle 1013" width="185.523" height="112.601" transform="translate(25.373 7.224)" fill="none" stroke="#000" stroke-width="2"/>
    <path id="Path_2667" data-name="Path 2667" d="M743.924,183.53a1.077,1.077,0,1,1-1.077-1.08,1.078,1.078,0,0,1,1.077,1.08" transform="translate(-624.707 -179.7)" fill="#fff"/>
    <path id="Path_2682" data-name="Path 2682" d="M1.08,0A1.077,1.077,0,1,1,0,1.078,1.077,1.077,0,0,1,1.08,0Z" transform="translate(116.843 4.633) rotate(-76.718)" fill="none" stroke="#000" stroke-width="2"/>
    <path id="Path_2668" data-name="Path 2668" d="M768.629,185.19a.582.582,0,1,1-.582-.583.582.582,0,0,1,.582.583" transform="translate(-644.505 -181.361)"/>
    <path id="Path_2669" data-name="Path 2669" d="M721.55,185.19a.582.582,0,1,1-.582-.583.582.582,0,0,1,.582.583" transform="translate(-608.233 -181.361)"/>
    <line id="Line_60" data-name="Line 60" x2="235.721" transform="translate(0.25 132.082)" fill="none" stroke="#000" stroke-width="1"/>
    <path id="Path_2670" data-name="Path 2670" d="M455.414,704.509H255.747l-16.623,2.608H471.913Z" transform="translate(-237.441 -581.611)"/>
    <path id="Path_2671" data-name="Path 2671" d="M456.9,748.555H245.319a23.748,23.748,0,0,1-6.131-.805l-5.484-1.466a1.047,1.047,0,0,1-.382-.2H468.894a.975.975,0,0,1-.377.2l-5.484,1.466a23.747,23.747,0,0,1-6.131.805" transform="translate(-232.971 -613.62)" fill="#f40"/>
    <path id="Path_2672" data-name="Path 2672" d="M689.977,712.181h-44a.949.949,0,1,0,0,1.685h44a.949.949,0,1,0,0-1.685" transform="translate(-549.839 -587.517)" fill="#fff"/>
    <path id="Path_2673" data-name="Path 2673" d="M689.977,712.181h-44a.949.949,0,1,0,0,1.685h44a.949.949,0,1,0,0-1.685Z" transform="translate(-549.839 -587.517)" fill="none" stroke="#000" stroke-width="2"/>
    <path id="Path_2674" data-name="Path 2674" d="M738.14,398.472a17.839,17.839,0,0,0,1.438-6.5c-.016-.258-.025-.516-.025-.778a12.784,12.784,0,1,1,23.826,6.452h0l4.3,3.985a18.547,18.547,0,1,0-30.987-.446,19.108,19.108,0,0,0,1.444-2.715" transform="translate(-618.558 -326.088)" fill="#e03c00"/>
    <path id="Path_2675" data-name="Path 2675" d="M766.432,455.437v12.35a12.779,12.779,0,0,1-11.451-7.118,19.555,19.555,0,0,1-.844,2.386,21.165,21.165,0,0,1-2.054,3.7,18.511,18.511,0,0,0,20.124,5.89l.026,0v-3.673l4.59,4.6h7.81c-.436,0-18.2-18.129-18.2-18.129" transform="translate(-632.653 -389.861)" fill="#e03c00"/>
    <path id="Path_2676" data-name="Path 2676" d="M633.156,384.121a19.35,19.35,0,0,0-1.474-2.766,19.137,19.137,0,0,0-1.449,2.766,18.009,18.009,0,0,0-1.414,6.475h-.026c.011.236.018.474.018.715a13,13,0,0,1-.993,5.072,13.229,13.229,0,0,1-2.718,4.148,12.8,12.8,0,0,1-4.019,2.8,12.715,12.715,0,0,1-9.975,0,13.134,13.134,0,0,1-4.066-2.82,12.845,12.845,0,0,1-2.742-4.147,13.218,13.218,0,0,1-.969-5.1,13.61,13.61,0,0,1,.945-5.048,12.708,12.708,0,0,1,6.737-7.039,12.239,12.239,0,0,1,5.036-1.043A12.381,12.381,0,0,1,625.1,382a13.753,13.753,0,0,1,2.439,3.572,19.782,19.782,0,0,1,.79-2.24,21.117,21.117,0,0,1,2.066-3.754q-.6-.734-1.277-1.415a19.047,19.047,0,0,0-5.947-4.05,18.314,18.314,0,0,0-14.327,0,19,19,0,0,0-9.886,10.012,18.1,18.1,0,0,0-1.43,7.145,18.373,18.373,0,0,0,18.517,18.565,18.1,18.1,0,0,0,7.176-1.434,18.75,18.75,0,0,0,9.936-9.887,18.518,18.518,0,0,0,0-14.39" transform="translate(-513.575 -326.127)" fill="#f40"/>
    <path id="Path_2677" data-name="Path 2677" d="M749.444,388.7a16.338,16.338,0,0,0-4.561,5.013c-1.858,3.224,2.929,8.837,2.929,8.837a25.4,25.4,0,0,1,1.632-13.85" transform="translate(-626.776 -338.48)" fill="#f40"/>
  </g>
  <g id="Group_753" data-name="Group 753" transform="translate(36.781 12.225)">
    <path id="Path_2657" data-name="Path 2657" d="M217.678,242.663V354.671a5.345,5.345,0,0,1-5.338,5.352h-67A5.345,5.345,0,0,1,140,354.671V242.663a5.345,5.345,0,0,1,5.338-5.352h67a5.345,5.345,0,0,1,5.338,5.352" transform="translate(-140.002 -237.312)" fill="#e03c00"/>
    <rect id="Rectangle_1010" data-name="Rectangle 1010" width="68.843" height="106.771" transform="translate(4.417 7.97)" fill="#fff"/>
    <rect id="Rectangle_1011" data-name="Rectangle 1011" width="68.843" height="106.771" transform="translate(4.417 7.97)" fill="none" stroke="#000" stroke-width="2"/>
    <path id="Path_2658" data-name="Path 2658" d="M303.024,745.794a1.844,1.844,0,1,1-1.839,1.844,1.841,1.841,0,0,1,1.839-1.844" transform="translate(-264.186 -628.77)" fill="#fff"/>
    <path id="Path_2659" data-name="Path 2659" d="M303.024,745.794a1.844,1.844,0,1,1-1.839,1.844A1.841,1.841,0,0,1,303.024,745.794Z" transform="translate(-264.186 -628.77)" fill="none" stroke="#000" stroke-width="2"/>
    <path id="Path_2660" data-name="Path 2660" d="M306.882,252.916a.691.691,0,1,1-.69.691.69.69,0,0,1,.69-.691" transform="translate(-268.044 -249.325)"/>
    <path id="Path_2661" data-name="Path 2661" d="M304,469.574a11.153,11.153,0,0,0,.9-4.062c-.01-.161-.016-.323-.016-.486a7.99,7.99,0,1,1,14.892,4.033h0l2.688,2.49a11.592,11.592,0,1,0-19.367-.279,11.945,11.945,0,0,0,.9-1.7" transform="translate(-264.256 -403.671)" fill="#e03c00"/>
    <path id="Path_2662" data-name="Path 2662" d="M321.679,505.178V512.9a7.987,7.987,0,0,1-7.157-4.449,12.238,12.238,0,0,1-.528,1.491,13.22,13.22,0,0,1-1.283,2.311,11.569,11.569,0,0,0,12.578,3.681l.017,0v-2.3l2.869,2.876h4.881c-.272,0-11.376-11.331-11.376-11.331" transform="translate(-273.066 -443.53)" fill="#e03c00"/>
    <path id="Path_2663" data-name="Path 2663" d="M238.38,460.6a12.138,12.138,0,0,0-.922-1.729,11.952,11.952,0,0,0-.906,1.729,11.249,11.249,0,0,0-.884,4.047h-.017c.007.148.011.3.011.446a8.121,8.121,0,0,1-.62,3.17,8.265,8.265,0,0,1-1.7,2.592,8,8,0,0,1-2.512,1.748,7.949,7.949,0,0,1-6.235,0,8.212,8.212,0,0,1-2.541-1.763,8.024,8.024,0,0,1-1.714-2.592,8.263,8.263,0,0,1-.606-3.185,8.5,8.5,0,0,1,.591-3.155,7.943,7.943,0,0,1,4.21-4.4,7.808,7.808,0,0,1,8.806,1.763,8.591,8.591,0,0,1,1.524,2.232,12.306,12.306,0,0,1,.493-1.4,13.187,13.187,0,0,1,1.291-2.346q-.376-.459-.8-.885a11.909,11.909,0,0,0-3.717-2.532,11.448,11.448,0,0,0-8.955,0A11.879,11.879,0,0,0,217,460.6a11.311,11.311,0,0,0-.894,4.466,11.484,11.484,0,0,0,11.573,11.6,11.317,11.317,0,0,0,4.485-.9,11.722,11.722,0,0,0,6.211-6.18,11.574,11.574,0,0,0,0-8.993" transform="translate(-198.64 -403.696)" fill="#f40"/>
    <path id="Path_2664" data-name="Path 2664" d="M311.061,463.464a10.212,10.212,0,0,0-2.851,3.133c-1.161,2.015,1.831,5.523,1.831,5.523a15.873,15.873,0,0,1,1.02-8.656" transform="translate(-269.392 -411.417)" fill="#f40"/>
  </g>
  <g id="Group_754" data-name="Group 754" transform="translate(0 33.93)">
    <path id="Path_2648" data-name="Path 2648" d="M47.565,420.074H5.338A5.345,5.345,0,0,1,0,414.723v-90.3a5.344,5.344,0,0,1,5.338-5.352H47.565a5.344,5.344,0,0,1,5.338,5.352v90.3a5.345,5.345,0,0,1-5.338,5.352" transform="translate(0 -319.069)" fill="#f40"/>
    <path id="Path_2649" data-name="Path 2649" d="M53.026,326.5H41.937a.968.968,0,0,0-.9.625l-.585,1.54a2.116,2.116,0,0,1-1.977,1.366H26.093a2.117,2.117,0,0,1-1.978-1.366l-.585-1.54a.968.968,0,0,0-.9-.625H11.536a3.974,3.974,0,0,0-3.969,3.98v89.792a3.975,3.975,0,0,0,3.969,3.98h41.49A3.975,3.975,0,0,0,57,420.269V330.478a3.974,3.974,0,0,0-3.969-3.98" transform="translate(-5.83 -324.788)" fill="#fff"/>
    <path id="Path_2650" data-name="Path 2650" d="M53.026,326.5H41.937a.968.968,0,0,0-.9.625l-.585,1.54a2.116,2.116,0,0,1-1.977,1.366H26.093a2.117,2.117,0,0,1-1.978-1.366l-.585-1.54a.968.968,0,0,0-.9-.625H11.536a3.974,3.974,0,0,0-3.969,3.98v89.792a3.975,3.975,0,0,0,3.969,3.98h41.49A3.975,3.975,0,0,0,57,420.269V330.478A3.974,3.974,0,0,0,53.026,326.5Z" transform="translate(-5.83 -324.788)" fill="none" stroke="#000" stroke-width="2"/>
    <path id="Path_2651" data-name="Path 2651" d="M99.218,329.66H88.936a.339.339,0,0,1,0-.679H99.218a.339.339,0,0,1,0,.679" transform="translate(-68.261 -326.7)"/>
    <path id="Path_2652" data-name="Path 2652" d="M139.6,329.321a.338.338,0,1,1-.338-.339.339.339,0,0,1,.338.339" transform="translate(-107.031 -326.701)"/>
    <path id="Path_2653" data-name="Path 2653" d="M111.235,505.081a8.578,8.578,0,0,0,.691-3.122c-.008-.124-.012-.248-.012-.374a6.143,6.143,0,1,1,11.448,3.1h0l2.066,1.915a8.911,8.911,0,1,0-14.888-.214,9.185,9.185,0,0,0,.694-1.3" transform="translate(-84.091 -452.702)" fill="#e03c00"/>
    <path id="Path_2654" data-name="Path 2654" d="M124.829,532.452v5.934a6.14,6.14,0,0,1-5.5-3.42,9.378,9.378,0,0,1-.406,1.146,10.185,10.185,0,0,1-.987,1.776,8.895,8.895,0,0,0,9.669,2.83l.013,0v-1.765l2.205,2.211h3.753c-.21,0-8.745-8.71-8.745-8.71" transform="translate(-90.864 -483.343)" fill="#e03c00"/>
    <path id="Path_2655" data-name="Path 2655" d="M60.793,498.186a9.319,9.319,0,0,0-.708-1.329,9.2,9.2,0,0,0-.7,1.329,8.651,8.651,0,0,0-.68,3.111H58.7c.005.113.008.228.008.343a6.249,6.249,0,0,1-.477,2.437,6.362,6.362,0,0,1-1.306,1.993,6.148,6.148,0,0,1-1.931,1.344,6.108,6.108,0,0,1-4.793,0,6.309,6.309,0,0,1-1.954-1.355,6.172,6.172,0,0,1-1.318-1.993,6.352,6.352,0,0,1-.466-2.448,6.542,6.542,0,0,1,.454-2.426,6.108,6.108,0,0,1,3.237-3.382,6,6,0,0,1,6.77,1.355,6.606,6.606,0,0,1,1.172,1.716,9.507,9.507,0,0,1,.379-1.076,10.129,10.129,0,0,1,.993-1.8q-.289-.353-.614-.68a9.154,9.154,0,0,0-2.857-1.946,8.8,8.8,0,0,0-6.884,0,9.131,9.131,0,0,0-4.75,4.811,8.7,8.7,0,0,0-.687,3.433,8.828,8.828,0,0,0,8.9,8.92,8.7,8.7,0,0,0,3.448-.689,9.01,9.01,0,0,0,4.774-4.75,8.9,8.9,0,0,0,0-6.914" transform="translate(-33.649 -452.72)" fill="#f40"/>
    <path id="Path_2656" data-name="Path 2656" d="M116.666,500.384a7.849,7.849,0,0,0-2.191,2.408c-.893,1.549,1.408,4.246,1.408,4.246a12.2,12.2,0,0,1,.784-6.654" transform="translate(-88.039 -458.656)" fill="#f40"/>
  </g>
</svg>
