<svg id="Group_753" data-name="Group 753" xmlns="http://www.w3.org/2000/svg" width="220.857" height="348.905" viewBox="0 0 220.857 348.905">
  <path id="Path_2657" data-name="Path 2657" d="M360.859,252.528V571a15.2,15.2,0,0,1-15.177,15.216h-190.5A15.2,15.2,0,0,1,140,571V252.528a15.2,15.2,0,0,1,15.177-15.216h190.5a15.2,15.2,0,0,1,15.177,15.216" transform="translate(-140.002 -237.312)" fill="#e03c00"/>
  <rect id="Rectangle_1010" data-name="Rectangle 1010" width="195.742" height="303.585" transform="translate(12.558 22.661)" fill="#fff"/>
  <rect id="Rectangle_1011" data-name="Rectangle 1011" width="195.742" height="303.585" transform="translate(12.558 22.661)" fill="none" stroke="#000" stroke-width="2"/>
  <path id="Path_2658" data-name="Path 2658" d="M306.414,745.794a5.242,5.242,0,1,1-5.229,5.242,5.235,5.235,0,0,1,5.229-5.242" transform="translate(-195.985 -413.057)" fill="#fff"/>
  <path id="Path_2659" data-name="Path 2659" d="M306.414,745.794a5.242,5.242,0,1,1-5.229,5.242A5.235,5.235,0,0,1,306.414,745.794Z" transform="translate(-195.985 -413.057)" fill="none" stroke="#000" stroke-width="2"/>
  <path id="Path_2660" data-name="Path 2660" d="M308.153,252.916a1.966,1.966,0,1,1-1.961,1.966,1.963,1.963,0,0,1,1.961-1.966" transform="translate(-197.724 -242.705)"/>
  <path id="Path_2661" data-name="Path 2661" d="M309.009,499.381a31.717,31.717,0,0,0,2.555-11.548c-.027-.458-.045-.917-.045-1.382a22.72,22.72,0,1,1,42.342,11.466h.006L361.51,505a32.961,32.961,0,1,0-55.067-.792,33.97,33.97,0,0,0,2.566-4.824" transform="translate(-196.017 -311.999)" fill="#e03c00"/>
  <path id="Path_2662" data-name="Path 2662" d="M338.21,505.178v21.947a22.709,22.709,0,0,1-20.349-12.65,34.779,34.779,0,0,1-1.5,4.239,37.6,37.6,0,0,1-3.649,6.571,32.895,32.895,0,0,0,35.762,10.466l.047-.007v-6.528l8.156,8.178h13.878c-.775,0-32.345-32.217-32.345-32.217" transform="translate(-199.988 -329.894)" fill="#e03c00"/>
  <path id="Path_2663" data-name="Path 2663" d="M279.429,473.821a34.516,34.516,0,0,0-2.62-4.916,33.995,33.995,0,0,0-2.575,4.916,31.986,31.986,0,0,0-2.513,11.506l-.047,0c.02.419.031.843.031,1.269a23.091,23.091,0,0,1-1.764,9.014,23.5,23.5,0,0,1-4.831,7.371,22.737,22.737,0,0,1-7.142,4.97,22.6,22.6,0,0,1-17.727,0,23.35,23.35,0,0,1-7.226-5.013,22.817,22.817,0,0,1-4.873-7.37,23.493,23.493,0,0,1-1.722-9.056,24.179,24.179,0,0,1,1.68-8.971,22.586,22.586,0,0,1,11.971-12.508,22.2,22.2,0,0,1,25.038,5.012,24.428,24.428,0,0,1,4.334,6.347,34.994,34.994,0,0,1,1.4-3.981,37.5,37.5,0,0,1,3.671-6.672q-1.068-1.3-2.269-2.515a33.859,33.859,0,0,0-10.569-7.2,32.55,32.55,0,0,0-25.461,0,33.776,33.776,0,0,0-17.567,17.793,32.162,32.162,0,0,0-2.542,12.7,32.652,32.652,0,0,0,32.907,32.993,32.179,32.179,0,0,0,12.752-2.548,33.329,33.329,0,0,0,17.659-17.571,32.91,32.91,0,0,0,0-25.571" transform="translate(-166.437 -312.01)" fill="#f40"/>
  <path id="Path_2664" data-name="Path 2664" d="M316.809,463.464a29.039,29.039,0,0,0-8.1,8.908c-3.3,5.73,5.206,15.7,5.206,15.7s-2.521-10.981,2.9-24.613" transform="translate(-198.332 -315.476)" fill="#f40"/>
</svg>
