<svg id="icons_1-02" data-name="icons 1-02" xmlns="http://www.w3.org/2000/svg" width="45.454" height="35.305" viewBox="0 0 45.454 35.305">
  <path id="Path_4642" data-name="Path 4642" d="M47.727,93.419c-.188-.014-.379,0-.536,0-.046-.1-.072-.128-.072-.159-.006-.95-.006-1.9-.017-2.851-.008-.582-.311-.928-.783-.926s-.777.346-.8.928c-.012.387,0,.774,0,1.162v1.812c-1.735.132-2.091.52-2.091,2.178v7.906c0,.193,0,.387.01.58a1.491,1.491,0,0,0,1.543,1.476c.155,0,.311,0,.538,0v.7c0,1.145-.01,2.288.006,3.433a.776.776,0,0,0,.8.861c.476,0,.77-.311.777-.87.012-1.127,0-2.253,0-3.382v-.752c.29,0,.5.014.708,0a1.424,1.424,0,0,0,1.365-1.307c.023-1.487.025-2.976.021-4.463v-.021c.006-1.584.012-3.17,0-4.755a1.481,1.481,0,0,0-1.47-1.549Zm-.11,9.942v.551H45.045V95.038h2.572v8.325Z" transform="translate(-40.829 -75.214)" fill="#f40"/>
  <path id="Path_4643" data-name="Path 4643" d="M214.227,93.419c-.188-.014-.379,0-.536,0-.046-.1-.072-.128-.072-.159-.006-.95-.006-1.9-.017-2.851-.008-.582-.311-.928-.783-.926s-.777.346-.8.928c-.012.387,0,.774,0,1.162v1.812c-1.735.132-2.091.52-2.091,2.178v7.906c0,.193,0,.387.01.58a1.491,1.491,0,0,0,1.543,1.476c.155,0,.311,0,.538,0v.7c0,1.145-.01,2.288.006,3.433a.776.776,0,0,0,.8.861c.476,0,.77-.311.777-.87.012-1.127,0-2.253,0-3.382v-.752c.29,0,.5.014.708,0a1.424,1.424,0,0,0,1.365-1.307c.023-1.487.025-2.976.021-4.463v-.021c.006-1.584.012-3.17,0-4.755a1.481,1.481,0,0,0-1.47-1.549Zm-.11,9.942v.551h-2.572V95.038h2.572v8.325Z" transform="translate(-172.851 -75.214)" fill="#f40"/>
  <path id="Path_4644" data-name="Path 4644" d="M85.1,61.42c0-1.659-.358-2.046-2.091-2.178V57.429c0-.387.008-.774,0-1.162-.019-.58-.321-.926-.8-.928s-.777.346-.783.926c0,.166,0,.331,0,.495a.806.806,0,0,0-.236-.039H78.658a.828.828,0,0,0,0,1.657h2.533a.816.816,0,0,0,.226-.035c0,.257,0,.516,0,.772,0,.031-.027.062-.072.159-.159,0-.35-.012-.536,0a1.481,1.481,0,0,0-1.47,1.549c-.014,1.584-.008,0,0,1.58,0,.553.292.88.756.895a.8.8,0,0,0,.822-.895c0-.253,0-.393,0-.468V60.894h2.572v9.3H80.913V65.261a2.2,2.2,0,0,0-.031-.524.738.738,0,0,0-.847-.623.7.7,0,0,0-.694.727c-.01,2.147-.021,3.5.015,5.647a1.421,1.421,0,0,0,1.365,1.307c.209.017.42,0,.708,0v.752c0,1.127-.008,2.253,0,3.382.006.559.3.868.777.87a.775.775,0,0,0,.8-.861c.017-1.145.006-2.288.006-3.433v-.7c.228,0,.383,0,.538,0a1.492,1.492,0,0,0,1.543-1.476c.015-.193.01-.387.01-.58V61.418Z" transform="translate(-68.108 -48.144)" fill="#f40"/>
  <path id="Path_4645" data-name="Path 4645" d="M92.72,86.962c0,.344,0-.261,0,0Z" transform="translate(-79.914 -73.164)" fill="#f40"/>
  <path id="Path_4646" data-name="Path 4646" d="M132.431,48.53a1.481,1.481,0,0,0-1.47-1.549l-.108-.006c-.012,0-.025,0-.037,0h-.4c-.043-.091-.07-.122-.07-.153-.006-.95-.006-1.9-.017-2.851-.008-.582-.311-.928-.783-.926s-.777.346-.8.928c-.012.387,0,.774,0,1.162v1.812c-.116.008-.226.019-.331.031h-.139a.843.843,0,0,0-.333.07c-1.046.211-1.29.714-1.29,2.077V62.431c0,.193,0,.387.01.58a1.491,1.491,0,0,0,1.543,1.476c.155,0,.311,0,.538,0v.7c0,1.145-.01,2.288.006,3.433a.776.776,0,0,0,.8.861c.476,0,.77-.311.777-.87.012-1.127,0-2.253,0-3.382v-.752c.29,0,.5.015.708,0a1.424,1.424,0,0,0,1.365-1.307c.031-1.9.025-7.146.017-9.813,0-.027.006-.05.006-.077.006-1.584.012-3.17,0-4.755Zm-1.578,4.359V62.88h-2.572V48.629h2.537a.2.2,0,0,0,.035,0v.59c0,1.129,0,2.259,0,3.388,0,.1,0,.191,0,.286Z" transform="translate(-106.824 -38.391)" fill="#f40"/>
  <path id="Path_4647" data-name="Path 4647" d="M188.54,110.184Z" transform="translate(-155.892 -91.566)" fill="#f40"/>
  <path id="Path_4648" data-name="Path 4648" d="M189.351,85.08a.791.791,0,1,0,.791.791A.791.791,0,0,0,189.351,85.08Z" transform="translate(-155.908 -71.726)" fill="#f40"/>
  <path id="Path_4649" data-name="Path 4649" d="M33.883,62.858a.828.828,0,0,0-.828-.828H31.708a.828.828,0,1,0,0,1.657h1.346A.828.828,0,0,0,33.883,62.858Z" transform="translate(-30.88 -53.449)" fill="#f40"/>
  <path id="Path_4650" data-name="Path 4650" d="M107.531,62.03H105a.828.828,0,0,0,0,1.657h2.533a.828.828,0,1,0,0-1.657Z" transform="translate(-88.993 -53.449)" fill="#f40"/>
  <path id="Path_4651" data-name="Path 4651" d="M210.358,63.687h2.533a.828.828,0,1,0,0-1.657h-2.533a.828.828,0,1,0,0,1.657Z" transform="translate(-172.535 -53.449)" fill="#f40"/>
  <path id="Path_4652" data-name="Path 4652" d="M165.673,29.171h-.667c0-1.17,0-2.328-.008-3.094a1.481,1.481,0,0,0-1.47-1.549c-.188-.014-.379,0-.536,0-.046-.1-.072-.128-.072-.159-.006-.95-.006-1.9-.017-2.851-.008-.582-.311-.928-.783-.926s-.777.346-.8.928c-.012.387,0,.774,0,1.162v1.812c-1.735.133-2.091.52-2.091,2.178v2.5h-1.541a.828.828,0,0,0,0,1.657h1.541v9.153c0,.193,0,.387.01.58a1.491,1.491,0,0,0,1.543,1.476c.155,0,.311,0,.538,0v.7c0,1.145-.01,2.288.006,3.433a.776.776,0,0,0,.8.861c.476,0,.77-.311.777-.87.012-1.127,0-2.253,0-3.382v-.752c.29,0,.5.014.708,0a1.424,1.424,0,0,0,1.365-1.307c.033-2.147.023-.532.014-2.682a.7.7,0,0,0-.694-.727.738.738,0,0,0-.847.623,2.222,2.222,0,0,0-.031.526V40.43h-2.572v-9.9a.812.812,0,0,0,0-1.064V26.15h2.572c0,.124,0,1.53,0,3.023h-.275a.828.828,0,1,0,0,1.657h.277c0,.7,0,1.307.006,1.669a.8.8,0,0,0,.822.895c.464-.014.754-.34.756-.895,0-.447,0-1.031,0-1.671h.669a.828.828,0,0,0,0-1.657Z" transform="translate(-130.772 -20.59)" fill="#f40"/>
  <path id="Path_4653" data-name="Path 4653" d="M54.851,62.03H52.318a.828.828,0,0,0,0,1.657h2.533a.828.828,0,0,0,0-1.657Z" transform="translate(-47.222 -53.449)" fill="#f40"/>
  <path id="Path_4654" data-name="Path 4654" d="M238.054,62.03h-1.346a.828.828,0,0,0,0,1.657h1.346a.828.828,0,0,0,0-1.657Z" transform="translate(-193.429 -53.449)" fill="#f40"/>
</svg>
