<svg xmlns="http://www.w3.org/2000/svg" xmlns:xlink="http://www.w3.org/1999/xlink" width="230" height="238" viewBox="0 0 230 238">
  <defs>
    <clipPath id="clip-path">
      <rect id="Rectangle_1853" data-name="Rectangle 1853" width="230" height="238" transform="translate(794 4221)" fill="#fff" stroke="#707070" stroke-width="1"/>
    </clipPath>
    <clipPath id="clip-path-2">
      <rect id="Rectangle_1338" data-name="Rectangle 1338" width="459.115" height="478.329" fill="none"/>
    </clipPath>
  </defs>
  <g id="Mask_Group_94" data-name="Mask Group 94" transform="translate(-794 -4221)" clip-path="url(#clip-path)">
    <g id="Group_2116" data-name="Group 2116" transform="translate(793.614 3982.05)">
      <g id="Group_1135" data-name="Group 1135">
        <g id="Group_1134" data-name="Group 1134" clip-path="url(#clip-path-2)">
          <path id="Path_3466" data-name="Path 3466" d="M219.892,376l-45.7,79.369H265.6Z" transform="translate(9.668 21.902)" fill="none" stroke="#f40" stroke-width="1"/>
        </g>
      </g>
      <path id="Path_3467" data-name="Path 3467" d="M219.892,226l-45.7,79.369H265.6Z" transform="translate(9.668 13.165)" fill="none" stroke="#f40" stroke-width="1"/>
      <g id="Group_1137" data-name="Group 1137">
        <g id="Group_1136" data-name="Group 1136" clip-path="url(#clip-path-2)">
          <path id="Path_3468" data-name="Path 3468" d="M306.534,376l-45.7,79.369h91.409Z" transform="translate(14.476 21.902)" fill="none" stroke="#f40" stroke-width="1"/>
          <path id="Path_3469" data-name="Path 3469" d="M133.212,376l-45.7,79.369h91.409Z" transform="translate(4.857 21.902)" fill="none" stroke="#f40" stroke-width="1"/>
        </g>
      </g>
      <path id="Path_3470" data-name="Path 3470" d="M263.232,301l-45.7,79.369h91.409Z" transform="translate(12.073 17.533)" fill="none" stroke="#f40" stroke-width="1"/>
      <path id="Path_3471" data-name="Path 3471" d="M176.552,301l-45.7,79.369h91.409Z" transform="translate(7.262 17.533)" fill="none" stroke="#f40" stroke-width="1"/>
      <path id="Path_3472" data-name="Path 3472" d="M176.571,305.369,222.276,226H130.867Z" transform="translate(7.263 13.165)" fill="none" stroke="#f40" stroke-width="1"/>
      <path id="Path_3473" data-name="Path 3473" d="M133.231,380.369,178.936,301H87.527Z" transform="translate(4.858 17.533)" fill="none" stroke="#f40" stroke-width="1"/>
      <g id="Group_1139" data-name="Group 1139">
        <g id="Group_1138" data-name="Group 1138" clip-path="url(#clip-path-2)">
          <path id="Path_3474" data-name="Path 3474" d="M46.571,376,.866,455.369H92.275Z" transform="translate(0.048 21.902)" fill="none" stroke="#f40" stroke-width="1"/>
        </g>
      </g>
      <path id="Path_3475" data-name="Path 3475" d="M89.911,301l-45.7,79.369h91.409Z" transform="translate(2.454 17.533)" fill="#f40"/>
      <path id="Path_3476" data-name="Path 3476" d="M89.911,301l-45.7,79.369h91.409Z" transform="translate(2.454 17.533)" fill="none" stroke="#f40" stroke-width="1"/>
      <g id="Group_1141" data-name="Group 1141">
        <g id="Group_1140" data-name="Group 1140" clip-path="url(#clip-path-2)">
          <path id="Path_3477" data-name="Path 3477" d="M46.59,380.369,92.294,301H.886Z" transform="translate(0.049 17.533)" fill="none" stroke="#f40" stroke-width="1"/>
          <path id="Path_3478" data-name="Path 3478" d="M393.121,376l-45.7,79.369h91.409Z" transform="translate(19.282 21.902)" fill="none" stroke="#f40" stroke-width="1"/>
        </g>
      </g>
      <path id="Path_3479" data-name="Path 3479" d="M349.8,305.369,395.5,226H304.1Z" transform="translate(16.878 13.165)" fill="none" stroke="#f40" stroke-width="1"/>
      <g id="Group_1143" data-name="Group 1143">
        <g id="Group_1142" data-name="Group 1142" clip-path="url(#clip-path-2)">
          <path id="Path_3480" data-name="Path 3480" d="M349.8,455.369,395.5,376H304.1Z" transform="translate(16.878 21.902)" fill="none" stroke="#f40" stroke-width="1"/>
        </g>
      </g>
      <path id="Path_3481" data-name="Path 3481" d="M263.159,305.369,308.863,226H217.455Z" transform="translate(12.069 13.165)" fill="none" stroke="#f40" stroke-width="1"/>
      <path id="Path_3482" data-name="Path 3482" d="M306.461,380.369,352.165,301H260.756Z" transform="translate(14.472 17.533)" fill="none" stroke="#f40" stroke-width="1"/>
      <g id="Group_1145" data-name="Group 1145">
        <g id="Group_1144" data-name="Group 1144" clip-path="url(#clip-path-2)">
          <path id="Path_3483" data-name="Path 3483" d="M393.141,380.369,438.845,301H347.436Z" transform="translate(19.283 17.533)" fill="none" stroke="#f40" stroke-width="1"/>
        </g>
      </g>
      <path id="Path_3484" data-name="Path 3484" d="M349.869,151l-45.7,79.369h91.409Z" transform="translate(16.882 8.796)" fill="none" stroke="#f40" stroke-width="1"/>
      <g id="Group_1147" data-name="Group 1147">
        <g id="Group_1146" data-name="Group 1146" clip-path="url(#clip-path-2)">
          <path id="Path_3485" data-name="Path 3485" d="M349.869,1l-45.7,79.369h91.409Z" transform="translate(16.882 0.058)" fill="none" stroke="#f40" stroke-width="1"/>
          <path id="Path_3486" data-name="Path 3486" d="M393.209,76l-45.7,79.369h91.409Z" transform="translate(19.287 4.427)" fill="none" stroke="#f40" stroke-width="1"/>
          <path id="Path_3487" data-name="Path 3487" d="M306.548,80.369,352.253,1H260.844Z" transform="translate(14.477 0.058)" fill="none" stroke="#f40" stroke-width="1"/>
        </g>
      </g>
    </g>
  </g>
</svg>
