<svg xmlns="http://www.w3.org/2000/svg" xmlns:xlink="http://www.w3.org/1999/xlink" width="290" height="304" viewBox="0 0 290 304">
  <defs>
    <clipPath id="clip-path">
      <rect id="Rectangle_1851" data-name="Rectangle 1851" width="290" height="304" transform="translate(389 5361.773)" fill="#fff" stroke="#707070" stroke-width="1"/>
    </clipPath>
    <clipPath id="clip-path-2">
      <rect id="Rectangle_1145" data-name="Rectangle 1145" width="351.301" height="366.004" fill="none"/>
    </clipPath>
  </defs>
  <g id="Mask_Group_92" data-name="Mask Group 92" transform="translate(-389 -5361.773)" clip-path="url(#clip-path)">
    <g id="Group_2114" data-name="Group 2114" transform="translate(389 5362.007)">
      <g id="Group_877" data-name="Group 877">
        <g id="Group_876" data-name="Group 876" clip-path="url(#clip-path-2)">
          <path id="Path_2786" data-name="Path 2786" d="M209.16,376l-34.972,60.731h69.943Z" transform="translate(-33.507 -71.537)" fill="none" stroke="#f40" stroke-width="1"/>
        </g>
      </g>
      <path id="Path_2787" data-name="Path 2787" d="M209.16,226l-34.972,60.731h69.943Z" transform="translate(-33.507 -42.998)" fill="none" stroke="#f40" stroke-width="1"/>
      <g id="Group_879" data-name="Group 879">
        <g id="Group_878" data-name="Group 878" clip-path="url(#clip-path-2)">
          <path id="Path_2788" data-name="Path 2788" d="M295.8,376l-34.972,60.731h69.943Z" transform="translate(-50.173 -71.537)" fill="none" stroke="#f40" stroke-width="1"/>
          <path id="Path_2789" data-name="Path 2789" d="M122.479,376,87.508,436.731h69.943Z" transform="translate(-16.833 -71.537)" fill="none" stroke="#f40" stroke-width="1"/>
        </g>
      </g>
      <path id="Path_2790" data-name="Path 2790" d="M252.5,301l-34.972,60.731h69.943Z" transform="translate(-41.844 -57.267)" fill="none" stroke="#f40" stroke-width="1"/>
      <path id="Path_2791" data-name="Path 2791" d="M165.819,301l-34.972,60.731h69.943Z" transform="translate(-25.17 -57.267)" fill="none" stroke="#f40" stroke-width="1"/>
      <path id="Path_2792" data-name="Path 2792" d="M165.839,286.731,200.81,226H130.867Z" transform="translate(-25.174 -42.998)" fill="none" stroke="#f40" stroke-width="1"/>
      <path id="Path_2793" data-name="Path 2793" d="M122.5,361.731,157.47,301H87.527Z" transform="translate(-16.837 -57.267)" fill="none" stroke="#f40" stroke-width="1"/>
      <g id="Group_881" data-name="Group 881">
        <g id="Group_880" data-name="Group 880" clip-path="url(#clip-path-2)">
          <path id="Path_2794" data-name="Path 2794" d="M35.838,376,.866,436.731H70.81Z" transform="translate(-0.167 -71.537)" fill="none" stroke="#f40" stroke-width="1"/>
        </g>
      </g>
      <path id="Path_2795" data-name="Path 2795" d="M79.178,301,44.206,361.731H114.15Z" transform="translate(-8.504 -57.267)" fill="#f40"/>
      <path id="Path_2796" data-name="Path 2796" d="M79.178,301,44.206,361.731H114.15Z" transform="translate(-8.504 -57.267)" fill="none" stroke="#f40" stroke-width="1"/>
      <g id="Group_883" data-name="Group 883">
        <g id="Group_882" data-name="Group 882" clip-path="url(#clip-path-2)">
          <path id="Path_2797" data-name="Path 2797" d="M35.857,361.731,70.829,301H.886Z" transform="translate(-0.17 -57.267)" fill="none" stroke="#f40" stroke-width="1"/>
          <path id="Path_2798" data-name="Path 2798" d="M382.389,376l-34.972,60.731H417.36Z" transform="translate(-66.829 -71.537)" fill="none" stroke="#f40" stroke-width="1"/>
        </g>
      </g>
      <path id="Path_2799" data-name="Path 2799" d="M339.068,286.731,374.039,226H304.1Z" transform="translate(-58.496 -42.998)" fill="none" stroke="#f40" stroke-width="1"/>
      <g id="Group_885" data-name="Group 885">
        <g id="Group_884" data-name="Group 884" clip-path="url(#clip-path-2)">
          <path id="Path_2800" data-name="Path 2800" d="M339.068,436.731,374.039,376H304.1Z" transform="translate(-58.496 -71.537)" fill="none" stroke="#f40" stroke-width="1"/>
        </g>
      </g>
      <path id="Path_2801" data-name="Path 2801" d="M252.427,286.731,287.4,226H217.455Z" transform="translate(-41.83 -42.998)" fill="none" stroke="#f40" stroke-width="1"/>
      <path id="Path_2802" data-name="Path 2802" d="M295.728,361.731,330.7,301H260.756Z" transform="translate(-50.159 -57.267)" fill="none" stroke="#f40" stroke-width="1"/>
      <g id="Group_887" data-name="Group 887">
        <g id="Group_886" data-name="Group 886" clip-path="url(#clip-path-2)">
          <path id="Path_2803" data-name="Path 2803" d="M382.408,361.731,417.38,301H347.436Z" transform="translate(-66.833 -57.267)" fill="none" stroke="#f40" stroke-width="1"/>
        </g>
      </g>
      <path id="Path_2804" data-name="Path 2804" d="M339.136,151l-34.972,60.731h69.943Z" transform="translate(-58.509 -28.729)" fill="none" stroke="#f40" stroke-width="1"/>
      <g id="Group_889" data-name="Group 889">
        <g id="Group_888" data-name="Group 888" clip-path="url(#clip-path-2)">
          <path id="Path_2805" data-name="Path 2805" d="M339.136,1,304.165,61.731h69.943Z" transform="translate(-58.509 -0.19)" fill="none" stroke="#f40" stroke-width="1"/>
          <path id="Path_2806" data-name="Path 2806" d="M382.476,76,347.5,136.731h69.943Z" transform="translate(-66.846 -14.46)" fill="none" stroke="#f40" stroke-width="1"/>
          <path id="Path_2807" data-name="Path 2807" d="M295.816,61.731,330.787,1H260.844Z" transform="translate(-50.176 -0.19)" fill="none" stroke="#f40" stroke-width="1"/>
        </g>
      </g>
    </g>
  </g>
</svg>
