<svg xmlns="http://www.w3.org/2000/svg" xmlns:xlink="http://www.w3.org/1999/xlink" width="258" height="297" viewBox="0 0 258 297">
  <defs>
    <clipPath id="clip-path">
      <rect id="Rectangle_1842" data-name="Rectangle 1842" width="258" height="297" transform="translate(510 4521.756)" fill="#fff" stroke="#707070" stroke-width="1"/>
    </clipPath>
    <clipPath id="clip-path-2">
      <rect id="Rectangle_1835" data-name="Rectangle 1835" width="285.432" height="297.377" fill="none"/>
    </clipPath>
  </defs>
  <g id="Mask_Group_90" data-name="Mask Group 90" transform="translate(-510 -4521.756)" clip-path="url(#clip-path)">
    <g id="Group_2098" data-name="Group 2098" transform="translate(795.187 4818.756) rotate(180)">
      <g id="Group_2085" data-name="Group 2085">
        <g id="Group_2084" data-name="Group 2084" clip-path="url(#clip-path-2)">
          <path id="Path_6021" data-name="Path 6021" d="M202.6,425.344,231.017,376H174.188Z" transform="translate(-59.888 -375.342)" fill="none" stroke="#f40" stroke-width="1"/>
        </g>
      </g>
      <path id="Path_6022" data-name="Path 6022" d="M202.6,275.344,231.017,226H174.188Z" transform="translate(-59.888 -126.655)" fill="none" stroke="#f40" stroke-width="1"/>
      <g id="Group_2087" data-name="Group 2087">
        <g id="Group_2086" data-name="Group 2086" clip-path="url(#clip-path-2)">
          <path id="Path_6023" data-name="Path 6023" d="M289.243,425.344,317.658,376H260.829Z" transform="translate(-203.384 -375.342)" fill="none" stroke="#f40" stroke-width="1"/>
          <path id="Path_6024" data-name="Path 6024" d="M115.922,425.344,144.336,376H87.508Z" transform="translate(83.672 -375.342)" fill="none" stroke="#f40" stroke-width="1"/>
        </g>
      </g>
      <path id="Path_6025" data-name="Path 6025" d="M245.942,350.344,274.357,301H217.528Z" transform="translate(-131.668 -250.998)" fill="none" stroke="#f40" stroke-width="1"/>
      <path id="Path_6026" data-name="Path 6026" d="M159.262,350.344,187.676,301H130.848Z" transform="translate(11.892 -250.998)" fill="none" stroke="#f40" stroke-width="1"/>
      <path id="Path_6027" data-name="Path 6027" d="M159.282,226l-28.414,49.344H187.7Z" transform="translate(11.86 -126.655)" fill="none" stroke="#f40" stroke-width="1"/>
      <path id="Path_6028" data-name="Path 6028" d="M115.941,301,87.527,350.344h56.829Z" transform="translate(83.64 -250.998)" fill="none" stroke="#f40" stroke-width="1"/>
      <g id="Group_2089" data-name="Group 2089">
        <g id="Group_2088" data-name="Group 2088" clip-path="url(#clip-path-2)">
          <path id="Path_6029" data-name="Path 6029" d="M29.281,425.344,57.7,376H.866Z" transform="translate(227.168 -375.342)" fill="none" stroke="#f40" stroke-width="1"/>
        </g>
      </g>
      <path id="Path_6030" data-name="Path 6030" d="M72.621,350.344,101.035,301H44.206Z" transform="translate(155.388 -250.998)" fill="#f40"/>
      <path id="Path_6031" data-name="Path 6031" d="M72.621,350.344,101.035,301H44.206Z" transform="translate(155.388 -250.998)" fill="none" stroke="#f40" stroke-width="1"/>
      <g id="Group_2091" data-name="Group 2091">
        <g id="Group_2090" data-name="Group 2090" clip-path="url(#clip-path-2)">
          <path id="Path_6032" data-name="Path 6032" d="M29.3,301,.886,350.344H57.714Z" transform="translate(227.136 -250.998)" fill="none" stroke="#f40" stroke-width="1"/>
          <path id="Path_6033" data-name="Path 6033" d="M375.831,425.344,404.246,376H347.417Z" transform="translate(-346.791 -375.342)" fill="none" stroke="#f40" stroke-width="1"/>
        </g>
      </g>
      <path id="Path_6034" data-name="Path 6034" d="M332.511,226,304.1,275.344h56.829Z" transform="translate(-275.043 -126.655)" fill="none" stroke="#f40" stroke-width="1"/>
      <g id="Group_2093" data-name="Group 2093">
        <g id="Group_2092" data-name="Group 2092" clip-path="url(#clip-path-2)">
          <path id="Path_6035" data-name="Path 6035" d="M332.511,376,304.1,425.344h56.829Z" transform="translate(-275.043 -375.342)" fill="none" stroke="#f40" stroke-width="1"/>
        </g>
      </g>
      <path id="Path_6036" data-name="Path 6036" d="M245.869,226l-28.414,49.344h56.829Z" transform="translate(-131.547 -126.655)" fill="none" stroke="#f40" stroke-width="1"/>
      <path id="Path_6037" data-name="Path 6037" d="M289.171,301l-28.414,49.344h56.829Z" transform="translate(-203.263 -250.998)" fill="none" stroke="#f40" stroke-width="1"/>
      <g id="Group_2095" data-name="Group 2095">
        <g id="Group_2094" data-name="Group 2094" clip-path="url(#clip-path-2)">
          <path id="Path_6038" data-name="Path 6038" d="M375.851,301l-28.414,49.344h56.829Z" transform="translate(-346.823 -250.998)" fill="none" stroke="#f40" stroke-width="1"/>
        </g>
      </g>
      <path id="Path_6039" data-name="Path 6039" d="M332.579,200.344,360.993,151H304.165Z" transform="translate(-275.156 -2.311)" fill="none" stroke="#f40" stroke-width="1"/>
      <g id="Group_2097" data-name="Group 2097">
        <g id="Group_2096" data-name="Group 2096" clip-path="url(#clip-path-2)">
          <path id="Path_6040" data-name="Path 6040" d="M332.579,50.344,360.993,1H304.165Z" transform="translate(-275.156 246.376)" fill="none" stroke="#f40" stroke-width="1"/>
          <path id="Path_6041" data-name="Path 6041" d="M375.919,125.344,404.333,76H347.5Z" transform="translate(-346.936 122.032)" fill="none" stroke="#f40" stroke-width="1"/>
          <path id="Path_6042" data-name="Path 6042" d="M289.258,1,260.844,50.344h56.829Z" transform="translate(-203.408 246.376)" fill="none" stroke="#f40" stroke-width="1"/>
        </g>
      </g>
    </g>
  </g>
</svg>
