<svg xmlns="http://www.w3.org/2000/svg" xmlns:xlink="http://www.w3.org/1999/xlink" width="190" height="285" viewBox="0 0 190 285">
  <defs>
    <clipPath id="clip-path">
      <rect id="Rectangle_1869" data-name="Rectangle 1869" width="190" height="285" transform="translate(0 3866.756)" fill="#fff" stroke="#707070" stroke-width="1"/>
    </clipPath>
    <clipPath id="clip-path-2">
      <rect id="Rectangle_1862" data-name="Rectangle 1862" width="273.552" height="285" fill="none"/>
    </clipPath>
  </defs>
  <g id="Mask_Group_96" data-name="Mask Group 96" transform="translate(0 -3866.756)" clip-path="url(#clip-path)">
    <g id="Group_2146" data-name="Group 2146" transform="translate(-83.498 3866.756)">
      <g id="Group_2133" data-name="Group 2133" transform="translate(0.262)">
        <g id="Group_2132" data-name="Group 2132" clip-path="url(#clip-path-2)">
          <path id="Path_6090" data-name="Path 6090" d="M201.42,423.29,228.651,376H174.188Z" transform="translate(-64.645 -375.369)" fill="none" stroke="#f40" stroke-width="1"/>
        </g>
      </g>
      <path id="Path_6091" data-name="Path 6091" d="M201.42,273.29,228.651,226H174.188Z" transform="translate(-64.384 -130.79)" fill="none" stroke="#f40" stroke-width="1"/>
      <g id="Group_2135" data-name="Group 2135" transform="translate(0.262)">
        <g id="Group_2134" data-name="Group 2134" clip-path="url(#clip-path-2)">
          <path id="Path_6092" data-name="Path 6092" d="M288.061,423.29,315.293,376H260.829Z" transform="translate(-205.775 -375.369)" fill="none" stroke="#f40" stroke-width="1"/>
          <path id="Path_6093" data-name="Path 6093" d="M114.739,423.29,141.971,376H87.508Z" transform="translate(76.547 -375.369)" fill="none" stroke="#f40" stroke-width="1"/>
        </g>
      </g>
      <path id="Path_6094" data-name="Path 6094" d="M244.76,348.29,271.991,301H217.528Z" transform="translate(-134.98 -253.08)" fill="none" stroke="#f40" stroke-width="1"/>
      <path id="Path_6095" data-name="Path 6095" d="M158.079,348.29,185.311,301H130.848Z" transform="translate(6.213 -253.08)" fill="none" stroke="#f40" stroke-width="1"/>
      <path id="Path_6096" data-name="Path 6096" d="M158.1,226l-27.232,47.29h54.464Z" transform="translate(6.181 -130.79)" fill="none" stroke="#f40" stroke-width="1"/>
      <path id="Path_6097" data-name="Path 6097" d="M114.759,301,87.527,348.29h54.463Z" transform="translate(76.778 -253.08)" fill="none" stroke="#f40" stroke-width="1"/>
      <g id="Group_2137" data-name="Group 2137" transform="translate(-2)">
        <g id="Group_2136" data-name="Group 2136" clip-path="url(#clip-path-2)">
          <path id="Path_6098" data-name="Path 6098" d="M28.1,423.29,55.33,376H.866Z" transform="translate(217.677 -375.369)" fill="none" stroke="#f40" stroke-width="1"/>
        </g>
      </g>
      <path id="Path_6099" data-name="Path 6099" d="M71.438,348.29,98.67,301H44.206Z" transform="translate(147.343 -253.08)" fill="#f40"/>
      <path id="Path_6100" data-name="Path 6100" d="M71.438,348.29,98.67,301H44.206Z" transform="translate(147.343 -253.08)" fill="none" stroke="#f40" stroke-width="1"/>
      <g id="Group_2139" data-name="Group 2139" transform="translate(0.262)">
        <g id="Group_2138" data-name="Group 2138" clip-path="url(#clip-path-2)">
          <path id="Path_6101" data-name="Path 6101" d="M28.117,301,.886,348.29H55.349Z" transform="translate(217.646 -253.08)" fill="none" stroke="#f40" stroke-width="1"/>
          <path id="Path_6102" data-name="Path 6102" d="M374.649,423.29,401.881,376H347.417Z" transform="translate(-346.817 -375.369)" fill="none" stroke="#f40" stroke-width="1"/>
        </g>
      </g>
      <path id="Path_6103" data-name="Path 6103" d="M331.328,226,304.1,273.29H358.56Z" transform="translate(-275.99 -130.79)" fill="none" stroke="#f40" stroke-width="1"/>
      <g id="Group_2141" data-name="Group 2141" transform="translate(0.262)">
        <g id="Group_2140" data-name="Group 2140" clip-path="url(#clip-path-2)">
          <path id="Path_6104" data-name="Path 6104" d="M331.328,376,304.1,423.29H358.56Z" transform="translate(-276.252 -375.369)" fill="none" stroke="#f40" stroke-width="1"/>
        </g>
      </g>
      <path id="Path_6105" data-name="Path 6105" d="M244.687,226l-27.232,47.29h54.463Z" transform="translate(-134.861 -130.79)" fill="none" stroke="#f40" stroke-width="1"/>
      <path id="Path_6106" data-name="Path 6106" d="M287.988,301l-27.232,47.29H315.22Z" transform="translate(-205.394 -253.08)" fill="none" stroke="#f40" stroke-width="1"/>
      <g id="Group_2143" data-name="Group 2143" transform="translate(0.262)">
        <g id="Group_2142" data-name="Group 2142" clip-path="url(#clip-path-2)">
          <path id="Path_6107" data-name="Path 6107" d="M374.668,301l-27.232,47.29H401.9Z" transform="translate(-346.849 -253.08)" fill="none" stroke="#f40" stroke-width="1"/>
        </g>
      </g>
      <path id="Path_6108" data-name="Path 6108" d="M331.4,198.29,358.628,151H304.165Z" transform="translate(-276.102 -8.5)" fill="none" stroke="#f40" stroke-width="1"/>
      <g id="Group_2145" data-name="Group 2145" transform="translate(0.262)">
        <g id="Group_2144" data-name="Group 2144" clip-path="url(#clip-path-2)">
          <path id="Path_6109" data-name="Path 6109" d="M331.4,48.29,358.628,1H304.165Z" transform="translate(-276.364 236.08)" fill="none" stroke="#f40" stroke-width="1"/>
          <path id="Path_6110" data-name="Path 6110" d="M374.737,123.29,401.968,76H347.5Z" transform="translate(-346.96 113.79)" fill="none" stroke="#f40" stroke-width="1"/>
          <path id="Path_6111" data-name="Path 6111" d="M288.076,1,260.844,48.29h54.464Z" transform="translate(-205.799 236.08)" fill="none" stroke="#f40" stroke-width="1"/>
        </g>
      </g>
    </g>
  </g>
</svg>
