<svg xmlns="http://www.w3.org/2000/svg" xmlns:xlink="http://www.w3.org/1999/xlink" width="257" height="297" viewBox="0 0 257 297">
  <defs>
    <clipPath id="clip-path">
      <rect id="Rectangle_1877" data-name="Rectangle 1877" width="257" height="297" transform="translate(6474 4411)" fill="#fff" stroke="#707070" stroke-width="1"/>
    </clipPath>
    <clipPath id="clip-path-2">
      <rect id="Rectangle_1870" data-name="Rectangle 1870" width="285.432" height="297.377" fill="none"/>
    </clipPath>
  </defs>
  <g id="Mask_Group_97" data-name="Mask Group 97" transform="translate(-6474 -4411)" clip-path="url(#clip-path)">
    <g id="Group_2161" data-name="Group 2161" transform="translate(6759.187 4708) rotate(180)">
      <g id="Group_2148" data-name="Group 2148">
        <g id="Group_2147" data-name="Group 2147" clip-path="url(#clip-path-2)">
          <path id="Path_6112" data-name="Path 6112" d="M202.6,425.344,231.017,376H174.188Z" transform="translate(-59.888 -375.342)" fill="none" stroke="#f40" stroke-width="1"/>
        </g>
      </g>
      <path id="Path_6113" data-name="Path 6113" d="M202.6,275.344,231.017,226H174.188Z" transform="translate(-59.888 -126.655)" fill="none" stroke="#f40" stroke-width="1"/>
      <g id="Group_2150" data-name="Group 2150">
        <g id="Group_2149" data-name="Group 2149" clip-path="url(#clip-path-2)">
          <path id="Path_6114" data-name="Path 6114" d="M289.243,425.344,317.658,376H260.829Z" transform="translate(-203.384 -375.342)" fill="none" stroke="#f40" stroke-width="1"/>
          <path id="Path_6115" data-name="Path 6115" d="M115.922,425.344,144.336,376H87.508Z" transform="translate(83.672 -375.342)" fill="none" stroke="#f40" stroke-width="1"/>
        </g>
      </g>
      <path id="Path_6116" data-name="Path 6116" d="M245.942,350.344,274.357,301H217.528Z" transform="translate(-131.668 -250.998)" fill="none" stroke="#f40" stroke-width="1"/>
      <path id="Path_6117" data-name="Path 6117" d="M159.262,350.344,187.676,301H130.848Z" transform="translate(11.892 -250.998)" fill="none" stroke="#f40" stroke-width="1"/>
      <path id="Path_6118" data-name="Path 6118" d="M159.282,226l-28.414,49.344H187.7Z" transform="translate(11.86 -126.655)" fill="none" stroke="#f40" stroke-width="1"/>
      <path id="Path_6119" data-name="Path 6119" d="M115.941,301,87.527,350.344h56.829Z" transform="translate(83.64 -250.998)" fill="none" stroke="#f40" stroke-width="1"/>
      <g id="Group_2152" data-name="Group 2152">
        <g id="Group_2151" data-name="Group 2151" clip-path="url(#clip-path-2)">
          <path id="Path_6120" data-name="Path 6120" d="M29.281,425.344,57.7,376H.866Z" transform="translate(227.168 -375.342)" fill="none" stroke="#f40" stroke-width="1"/>
        </g>
      </g>
      <path id="Path_6121" data-name="Path 6121" d="M72.621,350.344,101.035,301H44.206Z" transform="translate(155.388 -250.998)" fill="#f40"/>
      <path id="Path_6122" data-name="Path 6122" d="M72.621,350.344,101.035,301H44.206Z" transform="translate(155.388 -250.998)" fill="none" stroke="#f40" stroke-width="1"/>
      <g id="Group_2154" data-name="Group 2154">
        <g id="Group_2153" data-name="Group 2153" clip-path="url(#clip-path-2)">
          <path id="Path_6123" data-name="Path 6123" d="M29.3,301,.886,350.344H57.714Z" transform="translate(227.136 -250.998)" fill="none" stroke="#f40" stroke-width="1"/>
          <path id="Path_6124" data-name="Path 6124" d="M375.831,425.344,404.246,376H347.417Z" transform="translate(-346.791 -375.342)" fill="none" stroke="#f40" stroke-width="1"/>
        </g>
      </g>
      <path id="Path_6125" data-name="Path 6125" d="M332.511,226,304.1,275.344h56.829Z" transform="translate(-275.043 -126.655)" fill="none" stroke="#f40" stroke-width="1"/>
      <g id="Group_2156" data-name="Group 2156">
        <g id="Group_2155" data-name="Group 2155" clip-path="url(#clip-path-2)">
          <path id="Path_6126" data-name="Path 6126" d="M332.511,376,304.1,425.344h56.829Z" transform="translate(-275.043 -375.342)" fill="none" stroke="#f40" stroke-width="1"/>
        </g>
      </g>
      <path id="Path_6127" data-name="Path 6127" d="M245.869,226l-28.414,49.344h56.829Z" transform="translate(-131.547 -126.655)" fill="none" stroke="#f40" stroke-width="1"/>
      <path id="Path_6128" data-name="Path 6128" d="M289.171,301l-28.414,49.344h56.829Z" transform="translate(-203.263 -250.998)" fill="none" stroke="#f40" stroke-width="1"/>
      <g id="Group_2158" data-name="Group 2158">
        <g id="Group_2157" data-name="Group 2157" clip-path="url(#clip-path-2)">
          <path id="Path_6129" data-name="Path 6129" d="M375.851,301l-28.414,49.344h56.829Z" transform="translate(-346.823 -250.998)" fill="none" stroke="#f40" stroke-width="1"/>
        </g>
      </g>
      <path id="Path_6130" data-name="Path 6130" d="M332.579,200.344,360.993,151H304.165Z" transform="translate(-275.156 -2.311)" fill="none" stroke="#f40" stroke-width="1"/>
      <g id="Group_2160" data-name="Group 2160">
        <g id="Group_2159" data-name="Group 2159" clip-path="url(#clip-path-2)">
          <path id="Path_6131" data-name="Path 6131" d="M332.579,50.344,360.993,1H304.165Z" transform="translate(-275.156 246.376)" fill="none" stroke="#f40" stroke-width="1"/>
          <path id="Path_6132" data-name="Path 6132" d="M375.919,125.344,404.333,76H347.5Z" transform="translate(-346.936 122.032)" fill="none" stroke="#f40" stroke-width="1"/>
          <path id="Path_6133" data-name="Path 6133" d="M289.258,1,260.844,50.344h56.829Z" transform="translate(-203.408 246.376)" fill="none" stroke="#f40" stroke-width="1"/>
        </g>
      </g>
    </g>
  </g>
</svg>
