<svg xmlns="http://www.w3.org/2000/svg" xmlns:xlink="http://www.w3.org/1999/xlink" width="684.11" height="640.262" viewBox="0 0 684.11 640.262">
  <defs>
    <clipPath id="clip-path">
      <path id="Path_12793" data-name="Path 12793" d="M538.833,236.242c-34.628-30.911-68.335-71.7-89.621-137.211-50.926-156.559-504.177-21.7-400.1,380.436,45.779,176.8,186.771,192.267,274.136,195.126,100.708,3.3,281.888-28.561,335.9-219.017,37.106-130.921-43.714-151.094-120.056-219.144" transform="translate(-33.64 -35.474)" fill="none"/>
    </clipPath>
    <clipPath id="clip-path-2">
      <path id="Path_12797" data-name="Path 12797" d="M333.717,674.3c100.708,3.3,281.888-28.56,335.9-219.017C723.588,264.83,527.954,308.735,459.682,98.741c-50.926-156.558-504.177-21.7-400.1,380.436C105.36,655.972,246.352,671.444,333.717,674.3Z" transform="translate(-44.11 -35.184)" fill="none"/>
    </clipPath>
  </defs>
  <g id="Stock_Market_01_metals_1_" data-name="Stock_Market_01_metals (1)" transform="translate(-28.59 -35.184)">
    <g id="Group_6713" data-name="Group 6713" transform="translate(44.635 36.106)">
      <path id="Path_12777" data-name="Path 12777" d="M538.833,236.242c-34.628-30.911-68.335-71.7-89.621-137.211-50.926-156.559-504.177-21.7-400.1,380.436,45.779,176.8,186.771,192.267,274.136,195.126,100.708,3.3,281.888-28.561,335.9-219.017,37.106-130.921-43.714-151.094-120.056-219.144" transform="translate(-33.64 -35.474)" fill="#e6ebf0"/>
      <path id="Path_12778" data-name="Path 12778" d="M243.72,185.373c-72.084-50.8-71.227-90.828-60.171-123.01C196.13,25.67,334.93,90.415,363.84,207.834s-79.995,5.528-118.817-21.539c-.349-.254-.667-.477-1.017-.731l-.254-.191Z" transform="translate(280.692 0.717)" fill="#e6ebf0"/>
      <g id="Group_6712" data-name="Group 6712" clip-path="url(#clip-path)">
        <g id="Group_6711" data-name="Group 6711" transform="translate(-588.811 -38.105)">
          <g id="Group_6707" data-name="Group 6707" transform="translate(318.486 154.938)">
            <rect id="Rectangle_5708" data-name="Rectangle 5708" width="169.997" height="376.02" transform="translate(0 178.86)" fill="#c6d0db"/>
            <g id="Group_6705" data-name="Group 6705" transform="translate(165.263)">
              <rect id="Rectangle_5709" data-name="Rectangle 5709" width="228.071" height="554.88" transform="translate(0)" fill="#c6d0db"/>
              <rect id="Rectangle_5710" data-name="Rectangle 5710" width="23.573" height="554.88" transform="translate(0)" fill="#aab6c2"/>
              <rect id="Rectangle_5711" data-name="Rectangle 5711" width="35.613" height="14.773" transform="translate(168.408 26.591)" fill="#aab6c2"/>
              <rect id="Rectangle_5712" data-name="Rectangle 5712" width="35.613" height="14.773" transform="translate(108.46 26.591)" fill="#aab6c2"/>
              <rect id="Rectangle_5713" data-name="Rectangle 5713" width="35.613" height="14.773" transform="translate(168.408 80.408)" fill="#aab6c2"/>
              <rect id="Rectangle_5714" data-name="Rectangle 5714" width="35.613" height="14.773" transform="translate(108.46 80.408)" fill="#aab6c2"/>
              <rect id="Rectangle_5715" data-name="Rectangle 5715" width="35.613" height="14.773" transform="translate(48.48 80.408)" fill="#aab6c2"/>
              <rect id="Rectangle_5716" data-name="Rectangle 5716" width="35.613" height="14.773" transform="translate(168.408 134.225)" fill="#aab6c2"/>
              <rect id="Rectangle_5717" data-name="Rectangle 5717" width="35.613" height="14.773" transform="translate(48.48 134.225)" fill="#aab6c2"/>
              <rect id="Rectangle_5718" data-name="Rectangle 5718" width="35.613" height="14.773" transform="translate(108.46 161.165)" fill="#aab6c2"/>
              <rect id="Rectangle_5719" data-name="Rectangle 5719" width="35.613" height="14.773" transform="translate(168.408 188.074)" fill="#aab6c2"/>
              <rect id="Rectangle_5720" data-name="Rectangle 5720" width="35.613" height="14.773" transform="translate(108.46 214.982)" fill="#aab6c2"/>
              <rect id="Rectangle_5721" data-name="Rectangle 5721" width="35.613" height="14.773" transform="translate(168.408 241.891)" fill="#aab6c2"/>
              <rect id="Rectangle_5722" data-name="Rectangle 5722" width="35.613" height="14.773" transform="translate(48.48 241.891)" fill="#aab6c2"/>
              <rect id="Rectangle_5723" data-name="Rectangle 5723" width="35.613" height="14.773" transform="translate(168.408 291.641)" fill="#aab6c2"/>
              <rect id="Rectangle_5724" data-name="Rectangle 5724" width="35.613" height="14.773" transform="translate(108.46 291.641)" fill="#aab6c2"/>
              <rect id="Rectangle_5725" data-name="Rectangle 5725" width="35.613" height="14.773" transform="translate(168.408 345.458)" fill="#aab6c2"/>
              <rect id="Rectangle_5726" data-name="Rectangle 5726" width="35.613" height="14.773" transform="translate(108.46 345.458)" fill="#aab6c2"/>
              <rect id="Rectangle_5727" data-name="Rectangle 5727" width="35.613" height="14.773" transform="translate(48.48 345.458)" fill="#aab6c2"/>
              <rect id="Rectangle_5728" data-name="Rectangle 5728" width="35.613" height="14.773" transform="translate(168.408 399.307)" fill="#aab6c2"/>
              <rect id="Rectangle_5729" data-name="Rectangle 5729" width="35.613" height="14.773" transform="translate(48.48 399.307)" fill="#aab6c2"/>
              <rect id="Rectangle_5730" data-name="Rectangle 5730" width="35.613" height="14.773" transform="translate(108.46 426.215)" fill="#aab6c2"/>
              <rect id="Rectangle_5731" data-name="Rectangle 5731" width="35.613" height="14.773" transform="translate(48.48 426.215)" fill="#aab6c2"/>
              <rect id="Rectangle_5732" data-name="Rectangle 5732" width="35.613" height="14.773" transform="translate(168.408 453.124)" fill="#aab6c2"/>
              <rect id="Rectangle_5733" data-name="Rectangle 5733" width="35.613" height="14.773" transform="translate(108.46 480.032)" fill="#aab6c2"/>
              <rect id="Rectangle_5734" data-name="Rectangle 5734" width="35.613" height="14.773" transform="translate(168.408 506.941)" fill="#aab6c2"/>
              <rect id="Rectangle_5735" data-name="Rectangle 5735" width="35.613" height="14.773" transform="translate(48.48 506.941)" fill="#aab6c2"/>
            </g>
            <g id="Group_6706" data-name="Group 6706" transform="translate(344.664 41.363)">
              <path id="Path_12779" data-name="Path 12779" d="M175.592,598.787h-54.8l14.3-513.517h40.506Z" transform="translate(81.738 -85.27)" fill="#c6d0db"/>
              <path id="Path_12780" data-name="Path 12780" d="M205.222,598.787h-54.8l14.3-513.517h40.506Z" transform="translate(146.241 -85.27)" fill="#c6d0db"/>
              <path id="Path_12781" data-name="Path 12781" d="M462.1,188.006V155.57l-81.011,32.436V155.57l-81.011,32.436V155.57l-81.011,32.436V155.57l-81.011,32.436V155.57L57.04,188.006V445.75H543.108V155.57Z" transform="translate(-57.04 67.767)" fill="#c6d0db"/>
              <path id="Path_12782" data-name="Path 12782" d="M57.05,203.172l.1-16.615,81.011-32.436-.1,16.615Z" transform="translate(-57.018 64.611)" fill="#aab6c2"/>
              <path id="Path_12783" data-name="Path 12783" d="M82.51,203.172l.127-16.615,81.011-32.436-.127,16.615Z" transform="translate(-1.594 64.611)" fill="#aab6c2"/>
              <path id="Path_12784" data-name="Path 12784" d="M108.02,203.172l.1-16.615,81.011-32.436-.1,16.615Z" transform="translate(53.939 64.611)" fill="#aab6c2"/>
              <path id="Path_12785" data-name="Path 12785" d="M133.51,203.172l.1-16.615,81.011-32.436-.1,16.615Z" transform="translate(109.429 64.611)" fill="#aab6c2"/>
              <path id="Path_12786" data-name="Path 12786" d="M159.03,203.172l.1-16.615,81.011-32.436-.1,16.615Z" transform="translate(164.984 64.611)" fill="#aab6c2"/>
              <path id="Path_12787" data-name="Path 12787" d="M184.52,203.172l.1-16.615,81.011-32.436-.1,16.615Z" transform="translate(220.473 64.611)" fill="#aab6c2"/>
              <rect id="Rectangle_5736" data-name="Rectangle 5736" width="35.613" height="14.773" transform="translate(38.123 306.096)" fill="#aab6c2"/>
              <rect id="Rectangle_5737" data-name="Rectangle 5737" width="35.613" height="14.773" transform="translate(119.96 306.096)" fill="#aab6c2"/>
              <rect id="Rectangle_5738" data-name="Rectangle 5738" width="35.613" height="14.773" transform="translate(202.528 306.096)" fill="#aab6c2"/>
              <rect id="Rectangle_5739" data-name="Rectangle 5739" width="35.613" height="14.773" transform="translate(284.366 306.096)" fill="#aab6c2"/>
              <rect id="Rectangle_5740" data-name="Rectangle 5740" width="35.613" height="14.773" transform="translate(364.551 306.096)" fill="#aab6c2"/>
            </g>
          </g>
          <g id="Group_6710" data-name="Group 6710">
            <g id="Group_6708" data-name="Group 6708" transform="translate(6.703 13.756)">
              <rect id="Rectangle_5741" data-name="Rectangle 5741" width="610.127" height="695.65" fill="#fff" opacity="0.35"/>
              <path id="Path_12788" data-name="Path 12788" d="M-4.592,655.791H-28.26L189.391,53.13v48.575Z" transform="translate(413.715 27.31)" fill="#fff" opacity="0.5"/>
            </g>
            <g id="Group_6709" data-name="Group 6709" transform="translate(613.653)">
              <rect id="Rectangle_5742" data-name="Rectangle 5742" width="610.127" height="695.65" transform="translate(6.386)" fill="#fff" opacity="0.35"/>
              <path id="Path_12789" data-name="Path 12789" d="M107.666,705.447H60.33L314.166,30.32H361.5Z" transform="translate(-0.382 -8.59)" fill="#fff" opacity="0.5"/>
              <path id="Path_12790" data-name="Path 12790" d="M65.128,705.447H41.46L295.3,30.32h23.668Z" transform="translate(-41.46 -8.59)" fill="#fff" opacity="0.5"/>
              <path id="Path_12791" data-name="Path 12791" d="M187.478,655.791H163.81L381.461,53.13v48.575Z" transform="translate(224.886 41.066)" fill="#fff" opacity="0.6"/>
            </g>
            <path id="Path_12792" data-name="Path 12792" d="M1103.913,158.741v-7.974h-21.921V25.31H-151.7V41.226h13.279V46.85H255.072V150.8H-151.7v7.974H255.072V363.08H-151.7v7.974H255.072V575.362H-151.7v7.974H255.072V716.448H-138.262v4.607h-13.407v18.426H1081.992v-1.493h0V583.336h21.921v-7.974h-21.921V371.054h21.921V363.08h-21.921V158.741ZM471.865,370.99H661.909V575.3H471.865Zm0-7.974V158.741H661.909V363.048H471.865Zm0-212.25V46.85H661.909V150.8H471.865Zm0,432.474H661.909V716.353H471.929v4.607h-.064V583.24ZM675.252,716.353V583.24H865.295V716.353Zm0-141.087V370.959H865.295V575.266Zm0-212.25V158.741H865.295V363.048H675.252Zm0-212.25V46.85H865.295V150.8H675.252ZM878.638,46.818h190.043V150.767H878.638V46.85Zm-610.191,0H458.459V150.767H268.416V46.85Zm0,111.891H458.459V363.016H268.416V158.741Zm0,212.25H458.459V575.266H268.416V370.959Zm0,212.25H458.459V720.928H458.4v-4.607H268.416V583.209Zm800.234,137.719h-.064v-4.607H878.67V583.209h190.043V720.928Zm0-145.662H878.638V370.959h190.043Zm0-212.25H878.638V158.741h190.043V363.048Z" transform="translate(151.7 -19.496)" fill="#fff"/>
          </g>
        </g>
      </g>
    </g>
    <rect id="Rectangle_5743" data-name="Rectangle 5743" width="602.979" height="4.575" transform="translate(93.367 670.777)"/>
    <g id="Group_6714" data-name="Group 6714" transform="translate(77.897 35.184)" clip-path="url(#clip-path-2)">
      <path id="Path_12794" data-name="Path 12794" d="M53.82,83.965A12.485,12.485,0,1,0,66.305,71.48,12.487,12.487,0,0,0,53.82,83.965Z" transform="translate(-22.973 43.829)" fill="#f40"/>
      <path id="Path_12795" data-name="Path 12795" d="M194.2,89.579a8.609,8.609,0,1,0,8.609-8.609A8.6,8.6,0,0,0,194.2,89.579Z" transform="translate(282.622 64.488)" fill="#f40"/>
      <path id="Path_12796" data-name="Path 12796" d="M215.82,79.869a8.609,8.609,0,1,0,8.609-8.609A8.6,8.6,0,0,0,215.82,79.869Z" transform="translate(329.687 43.35)" fill="#f40"/>
    </g>
    <g id="Group_6715" data-name="Group 6715" transform="translate(351.282 631.956)">
      <path id="Path_12798" data-name="Path 12798" d="M131.4,224.283c1.684-2.1,19.824-.349,19.983.762.54,3.336,1.43,16.139-.318,17.823-1.684,1.652-19.792,1.588-20.142-1.652-.318-2.8-1.144-14.9.477-16.9Z" transform="translate(-129.597 -222.441)" fill="#fff"/>
      <path id="Path_12799" data-name="Path 12799" d="M143.685,245.331c-3.939,0-8.228-.413-10.579-1.239-.572-.191-2.287-.826-2.446-2.224,0-.159-1.461-14.9.635-17.537h0c1.938-2.414,16.488-.89,19.824-.032.794.191,1.557.477,1.684,1.175.381,2.224,1.684,16.393-.572,18.553-.89.858-4.543,1.3-8.578,1.3Zm-11.024-19.919c-1.175,1.461-.794,11.532-.286,16.266,0,.064.191.349,1.017.667,4.543,1.874,16.52,1.43,17.7.445,1.175-1.144.826-12.072.127-16.742-2.478-1.08-17.219-2.033-18.553-.667Z" transform="translate(-130.164 -223.03)"/>
    </g>
    <path id="Path_12800" data-name="Path 12800" d="M174.665,228.23s8.387,11.977,2.383,21.412c0,0-43.683,2.065-56.867,0,0,0-.349-16.107,10.96-17.473a168.271,168.271,0,0,1,22.62-.985s12.676,5.941,20.9-2.955Z" transform="translate(199.383 420.245)"/>
    <g id="Group_6716" data-name="Group 6716" transform="translate(447.879 631.958)">
      <path id="Path_12801" data-name="Path 12801" d="M161.809,224.283c1.684-2.1,19.824-.349,19.983.762.572,3.336,1.43,16.139-.318,17.823-1.684,1.652-19.792,1.588-20.142-1.652-.318-2.8-1.144-14.9.445-16.9Z" transform="translate(-159.997 -222.443)" fill="#fff"/>
      <path id="Path_12802" data-name="Path 12802" d="M174.072,245.33c-3.939,0-8.26-.413-10.579-1.239-.572-.191-2.287-.826-2.414-2.224,0-.159-1.493-14.868.635-17.537h0c1.938-2.414,16.52-.89,19.824,0,.794.191,1.557.476,1.684,1.175.381,2.192,1.684,16.361-.572,18.553-.89.858-4.543,1.3-8.578,1.3ZM163.048,225.41c-1.175,1.493-.794,11.532-.286,16.266,0,.064.191.349,1.017.667,4.384,1.811,16.552,1.4,17.7.445,1.175-1.144.794-12.168.127-16.742-2.478-1.08-17.219-2.033-18.553-.667Zm18.49.349Z" transform="translate(-160.57 -223.031)"/>
    </g>
    <path id="Path_12803" data-name="Path 12803" d="M205.075,228.23s8.387,11.977,2.383,21.412c0,0-43.683,2.065-56.867,0,0,0-.349-16.107,10.96-17.473a168.271,168.271,0,0,1,22.62-.985s12.676,5.941,20.9-2.955Z" transform="translate(265.583 420.245)"/>
    <path id="Path_12804" data-name="Path 12804" d="M123.711,281.094c0,39.044,14.773,121.168,24.685,156.59h25.7c.127-.191.286-40.728.254-56.454,0-28.4,7.688-75.1,9.753-100.8,1.112-13.82.7-48.226,9.563-71.036,1.652-4.225,3.209-8.292,4.638-12.168,5.21-14.137,8.546-25.129,6.259-27.734-6.322-7.18-60.806-60.552-74.435-31.2-14.36,30.88-6.417,103.758-6.417,142.8Z" transform="translate(202.302 205.422)"/>
    <path id="Path_12805" data-name="Path 12805" d="M135.161,399.5c6.894.381,10.579,0,13.152,0,0-.032-2.478-25.86,2.224-63.634,12.231-98.167,20.555-172.951,22.016-176.8-3.05-5.846-7.307-11.786-14.455-11.977-5.75-.127-9.531,3.781-10.674,9.15-2.128,10.039,2.256,22.143,2.224,32.468-.032,14.519-3.05,28.688-6,42.857-2.542,12.136-5.02,24.335-5.337,36.789-.413,14.518,1.557,28.942,1.271,43.46-.54,25.352-10.166,62.172-4.384,87.651Z" transform="translate(228.054 243.608)"/>
    <path id="Path_12806" data-name="Path 12806" d="M142.55,158.982s.032,1.366.1,3.908c.127,4.988,1.525,14.137,3.622,26.273.89,5.21,1.62,27.989,2.7,34.247,4.479,25.288,10.579,40.887,14.328,74.054,4.384,38.79,25.161,100.8,35.423,142.167h25.447s-5.433-60.552-8.737-71.925c-3.971-13.947,5.877-32.182,5.75-49.083-.127-12.009.254-23.89.413-34.311.032-3.495.1-6.894.1-10.325-.318-54.611,3.05-77.453-14.01-118.817-.254-.667-.508-1.3-.794-1.97a169.2,169.2,0,0,0-10.8-21.126c-1.4-2.319-4.606-3.177-8.991-2.637-10.611,1.239-27.957,10.643-42.348,27.036-.731.826-1.43,1.652-2.129,2.51Z" transform="translate(248.082 204.841)"/>
    <path id="Path_12807" data-name="Path 12807" d="M159.077,144.217a1.586,1.586,0,0,0,0,1.557c9.531,22.048,15.63,45.684,14.519,69.829-.54,12.358-3.368,24.431-5.21,36.662a351.044,351.044,0,0,0-3.336,37.774c-.858,21.539-2.542,43.969,1.493,65.317,3.971,21.126,4.861,45.875,10.865,66.525h12.644c1.017-6.735,0-38.314-1.811-60.361-1.048-12.644-.858-48.257-1.207-60.616-.381-11.628.159-23.192.413-34.311.032-3.495.1-6.894.1-10.325-.318-54.611,3.05-77.453-14.01-118.817a28.287,28.287,0,0,0-14.36,3.653c-1.43.731-1.112,2.287-.1,3.113Z" transform="translate(282.163 222.592)"/>
    <path id="Path_12808" data-name="Path 12808" d="M165.741,82.67s-31.261,24.272-51.021,88.985l51.021,11.532.508-64.237Z" transform="translate(187.498 103.373)"/>
    <path id="Path_12809" data-name="Path 12809" d="M120.883,268.45c.6,1.938,33.04,5.655,48.956,7.37,29.99,3.209,71.131-5.591,82.377-7.72,4.607-.858,7.561-2.1,8.26-3.59,2.16-4.67-5.337-50.322-4.448-80.63.159-5.877.286-11.85.286-17.664.159-30.5-1.97-59.059-8.864-64.364-1.557-1.239-3.368-2.51-5.4-3.876-1.715-1.175-3.59-2.383-5.623-3.558-1.525-.921-3.113-1.811-4.8-2.669a97.277,97.277,0,0,0-21.508-8.292,89.409,89.409,0,0,0-42.92-.667.031.031,0,0,1-.032.032,85.828,85.828,0,0,0-11.85,3.526c-.953.318-1.874.7-2.891,1.08-13.47,5.433-11.564,34.787-9.372,59.408.985,11.437,2,21.825,1.588,28.306a54.751,54.751,0,0,1-.826,6.481c-3.05,18.14-20.714,73.641-23,86.857Z" transform="translate(200.777 98.645)" fill="#aab6c2"/>
    <g id="Group_6717" data-name="Group 6717" transform="translate(377.619 158.086)">
      <path id="Path_12810" data-name="Path 12810" d="M140.108,81.206V94.39s-3.113,5.718,0,6.354c6.862,1.366,16.742-6.322,16.742-6.322V74.28Z" transform="translate(-137.865 -72.977)" fill="#fff"/>
      <path id="Path_12811" data-name="Path 12811" d="M142.413,102.621a9.7,9.7,0,0,1-1.906-.191,2.373,2.373,0,0,1-1.779-1.334c-.89-1.906.635-5.147,1.112-6.036V81.526l18.426-7.656V95.7l-.318.254C157.566,96.235,149.275,102.621,142.413,102.621Zm-.89-19.983-.1,13.025c-.762,1.366-1.62,3.749-1.175,4.7.064.159.191.318.572.413,5.718,1.144,13.978-4.638,15.726-5.909V76.443L141.523,82.67Z" transform="translate(-138.454 -73.87)"/>
    </g>
    <g id="Group_6718" data-name="Group 6718" transform="translate(365.289 131.4)">
      <path id="Path_12812" data-name="Path 12812" d="M145.678,65.772s-7.656,11.659-10.611,23c-2.1,8.069,11.564,20.777,25.256,10.738,13.661-10.039,12.485-28.147,12.485-28.147l-27.1-5.623Z" transform="translate(-133.965 -64.882)" fill="#fff"/>
      <path id="Path_12813" data-name="Path 12813" d="M150.353,104.673a16.367,16.367,0,0,1-9.245-2.891c-4.8-3.24-7.37-8.419-6.29-12.581,2.955-11.373,10.674-23.16,10.738-23.255l.318-.477,28.306,5.846v.635c.064.191,1.112,18.68-12.771,28.878a18.636,18.636,0,0,1-11.024,3.876Zm-3.685-37.361c-1.461,2.319-7.656,12.454-10.2,22.27-.89,3.431,1.461,7.942,5.591,10.77,5.56,3.781,12.39,3.431,18.3-.921,11.723-8.609,12.2-23.477,12.136-26.75l-25.86-5.369Z" transform="translate(-134.573 -65.47)"/>
    </g>
    <path id="Path_12814" data-name="Path 12814" d="M180.978,96.586c2.129,3.971-2.51,6.481-7.021,7.021a4.4,4.4,0,0,1-.731.985c0,4.575-3.4,8.864-7.911,5.369-6.64,5.274-14.741,9.563-24.24,5.274-4.162-1.874-7.307-8.609-6.163-12.041,1.43-4.352,8.006.54,10.833-2.033a2.211,2.211,0,0,1,3.018.127c2.478,2.955,4.225,4.384,8.482,3.495a15.613,15.613,0,0,0,5.909-2.637c.6-3.177,2.542-6.354,3.495-9.213.254-.794,1.239-4.13,2.1-6.862C158.1,84.609,144.03,82,139.646,72.664c-3.908-8.324,2.764-12.581,9.912-11.5,3.272-2.414,9.118-1.271,10.706,2.669,2.542-1.112,5.528-1.906,7.5.191a3.949,3.949,0,0,1,1.112,3.05,4.591,4.591,0,0,1,2.637.572,6.606,6.606,0,0,1,2.923,3.05c3.24-1.08,6.894,3.368,5.909,7.434a5.939,5.939,0,0,1,1.271,7.974c3.431,3.113,3.209,7.879-.572,10.547Z" transform="translate(230.939 53.811)"/>
    <path id="Path_12815" data-name="Path 12815" d="M166.865,155.641s-46,5.083-50.926-7.307c-4.638-11.628.349-25.86,6.322-41.808C126.867,94.2,165.372,131.4,165.372,131.4l1.493,24.208Z" transform="translate(186.184 149.854)"/>
    <path id="Path_12816" data-name="Path 12816" d="M149.344,169.28c2.986,3.463,2.764,24.494,7.4,24.875,25.892,2.16,43.4-21.952,46.415-23.763,5.528-3.336,28.306-23.859,28.052-29.7-1.271-29.482-2.065-37.869-7.18-48.829-.826-1.811-5.083-4.416-7.084-5.782-1.716-1.175-5.337,6.29-7.4,5.115-14.519-4.448-31.356,6.8-43.81,18.3-7.307,6.767-32.532,40.855-32.945,42.126-2.955,9.181,10.77,11.087,16.552,17.632Z" transform="translate(225.943 110.514)"/>
    <g id="Group_6719" data-name="Group 6719" transform="translate(361.185 159.531)">
      <path id="Path_12817" data-name="Path 12817" d="M156.228,91.318a6.981,6.981,0,0,0-3.272,1.048,3.739,3.739,0,0,1-.349.159c2.573-3.971,3.939-9.213,2.446-13.883-.953-2.986-2.8-3.05-3.082-.191-.572,5.464-1.175,7.974-.6,1.557.127-1.652,0-5.147-1.175-5.369-2.573-.477-2.1,5.242-2.542,7.847-1.4,1.779-1.334-4.448-2.033-5.528-3.145-4.8-3.526,6.83-4.289,7.116-2.16.858-.667-6.957-3.526-4.575-2.16,1.779-.572,9.435-1.3,11.691-.6,1.874-3.971,9.022-2.637,10.9,5.21,7.148,12.326-2.065,15.059-5.274,2.542-.54,6.354-1.525,7.688-2.891.89-.921,1.43-2.51-.381-2.605Z" transform="translate(-132.691 -73.702)" fill="#fff"/>
      <path id="Path_12818" data-name="Path 12818" d="M138.9,106.205h-.191a6.433,6.433,0,0,1-4.956-2.986c-1.239-1.716.159-5.718,1.874-10.007.286-.7.508-1.3.635-1.652a18.064,18.064,0,0,0,.127-3.971c-.127-3.336-.222-6.767,1.43-8.133a2.019,2.019,0,0,1,2-.572c1.048.381,1.271,1.747,1.493,3.177.064.318.127.731.191,1.112.064-.381.159-.826.222-1.239.635-3.558,1.207-6.1,2.764-6.417,1.239-.254,2.1,1.08,2.383,1.525a8.381,8.381,0,0,1,.7,2.955v.127c.159-2.224.381-4.448,1.588-5.369a2.039,2.039,0,0,1,1.715-.381c.921.159,1.43,1.144,1.684,2.256a1.831,1.831,0,0,1,1.048-.54c1.144-.127,2.192.953,2.8,2.859a16.771,16.771,0,0,1-1.271,12.326,4.856,4.856,0,0,1,1.652-.254h0a1.98,1.98,0,0,1,1.906,1.112,2.963,2.963,0,0,1-.953,2.923c-1.112,1.144-3.685,2.16-7.815,3.082l-.318.349c-2.256,2.7-6.449,7.656-10.77,7.656Zm.318-25.67a1.7,1.7,0,0,0-.286.222c-1.017.858-.921,4.257-.826,6.767a16.144,16.144,0,0,1-.191,4.543c-.127.381-.381,1.017-.667,1.747-.794,1.97-2.891,7.275-2.065,8.355a4.678,4.678,0,0,0,3.622,2.287h.159c3.526,0,7.37-4.575,9.467-7.053l.7-.794.286-.064c4.892-1.048,6.64-2.033,7.243-2.637a1.714,1.714,0,0,0,.572-1.08,2.192,2.192,0,0,0-.381-.064h0a6.823,6.823,0,0,0-2.827.953l-.286.127-2.51.985,1.3-2.192c2.764-4.225,3.653-9.15,2.351-13.152-.413-1.334-.921-1.684-1.017-1.684a2.434,2.434,0,0,0-.413,1.334c-.667,6.227-.858,6.227-1.715,6.131-.985-.1-.953-.635-.572-4.734.159-2.033-.159-4.194-.54-4.479-.159,0-.254,0-.318.1-.7.54-.858,3.018-.953,4.67-.064.921-.127,1.747-.222,2.414l-.159.381a1.238,1.238,0,0,1-1.4.6c-.985-.254-1.207-1.525-1.557-3.939a13.276,13.276,0,0,0-.445-2.256,2.422,2.422,0,0,0-.7-.794c-.54.349-1.112,3.622-1.366,5.051-.381,2.192-.508,2.923-1.207,3.209a1.538,1.538,0,0,1-1.334-.064c-.858-.477-1.048-1.747-1.271-3.05a7.659,7.659,0,0,0-.413-1.811Z" transform="translate(-133.281 -74.325)"/>
    </g>
    <path id="Path_12819" data-name="Path 12819" d="M137.166,202.5C102.092,194.562,151.017,82.29,151.017,82.29l11.786,5.4c.7,1.112-19.22,80.154-9.848,77.04,4.1-1.334,33.485-53.4,51.371-64.777,9.022-5.75,18.2-6.735,25.606-6.608,10.293.159,15.345,10.2,13.693,20.332-3.336,20.555-18.553,49.592-38.6,70.464-22.048,22.937-37.551,25.193-67.8,18.331Z" transform="translate(208.799 102.545)" fill="#aab6c2"/>
    <g id="Group_6720" data-name="Group 6720" transform="translate(345.99 292.616)">
      <path id="Path_12820" data-name="Path 12820" d="M152.558,128.749c-.064-1.144-.794-3.209-2.256-3.082a.856.856,0,0,0-.477.159,6.493,6.493,0,0,0,.159-2.351c-.191-1.684-1.334-4.321-3.4-3.177a6.2,6.2,0,0,0-2.065,2,4.679,4.679,0,0,0-2.319-3.812c-2.224-1.3-3.463.254-4.289,2.16-.191-2.065-.921-5.083-3.3-3.908-1.334.635-2.383,2.478-3.145,3.653-1.112,1.716-2.8,4.956-2.7,6.513.127,2.319,2.192,4.734,4.543,3.113a10.7,10.7,0,0,0,1.716-1.493c-.349,1.874-.127,3.558,1.62,4.225,1.843.667,3.558-.667,4.892-2.351v.127c.413.921.953,2.129,2.129,2.256a3.3,3.3,0,0,0,2.446-1.239.744.744,0,0,0,.254.572,3.818,3.818,0,0,0,6.227-3.367Z" transform="translate(-127.931 -115.648)" fill="#fff"/>
      <path id="Path_12821" data-name="Path 12821" d="M149.345,134.464a4.629,4.629,0,0,1-2.891-1.048,3.21,3.21,0,0,1-2.319.762,2.966,2.966,0,0,1-2.256-1.716c-2.033,2.065-3.812,2.065-4.988,1.62a3.357,3.357,0,0,1-2.256-2.986,1.763,1.763,0,0,0-.254.191,3.251,3.251,0,0,1-3.4.349,4.912,4.912,0,0,1-2.478-4.13c-.127-1.938,1.811-5.433,2.827-7.021l.286-.445a8.957,8.957,0,0,1,3.209-3.495,2.636,2.636,0,0,1,2.51-.032,3.991,3.991,0,0,1,1.62,2.383,3.4,3.4,0,0,1,1.461-1.017,3.347,3.347,0,0,1,2.827.477,5.567,5.567,0,0,1,2.319,2.669,5.13,5.13,0,0,1,1.207-.89,2.522,2.522,0,0,1,2.51-.1c1.271.667,2,2.446,2.16,3.939a5.625,5.625,0,0,1,0,1.461,2.418,2.418,0,0,1,1.112.54,5.16,5.16,0,0,1,1.461,3.3h0a4.911,4.911,0,0,1-2.605,4.7,4.286,4.286,0,0,1-2.033.508Zm-1.938-4.289.1,1.906a2.7,2.7,0,0,0,3.082.381,3.2,3.2,0,0,0,1.684-3.082,3.4,3.4,0,0,0-.858-2.129.538.538,0,0,0-.477-.159l-1.652.826.254-1.747a6.627,6.627,0,0,0,.159-2.065,3.7,3.7,0,0,0-1.239-2.605c-.159-.1-.413-.159-.921.1a4.574,4.574,0,0,0-1.747,1.747l-1.334,2-.222-2.383a3.845,3.845,0,0,0-1.906-3.145,1.733,1.733,0,0,0-1.43-.318c-.572.191-1.112.89-1.652,2.1l-1.334,3.082-.286-3.336c-.159-1.716-.6-2.986-1.175-3.336a.96.96,0,0,0-.921.1,8.663,8.663,0,0,0-2.51,2.891l-.286.477c-1.3,1.97-2.637,4.861-2.573,5.973a3.394,3.394,0,0,0,1.525,2.7,1.589,1.589,0,0,0,1.684-.222,8.824,8.824,0,0,0,1.557-1.4l2-2.16-.54,2.891c-.508,2.669.635,3.113,1.08,3.272,1.461.54,2.954-.826,3.939-2.1l1.017-1.3.445,1.588c.445.985.794,1.716,1.43,1.779a2.819,2.819,0,0,0,1.747-.985l1.334-1.334Z" transform="translate(-128.498 -116.216)"/>
    </g>
    <g id="Group_6721" data-name="Group 6721" transform="translate(28.59 254.188)">
      <path id="Path_12822" data-name="Path 12822" d="M118.7,104.177c1.366-.127,1.43,1.048,1.811,1.843,4.575,9.054,9.054,18.172,13.692,27.226.985,1.906.508,2.764-1.08,3.908-4,2.859-8.228,5.433-11.913,8.737-5.655,3.939-11.342,7.847-16.965,11.85-12.962,9.245-25.86,18.585-38.854,27.766-1.112.794-2.1,2.446-3.939,1.557l-15-30.308a10.762,10.762,0,0,1,1.557-1.62c4.8-3.368,9.69-6.672,14.487-10.071,17.092-12.136,34.184-24.24,51.212-36.471,1.779-1.271,4.225-1.938,5.02-4.384Z" transform="translate(10.311 -104.018)"/>
      <path id="Path_12823" data-name="Path 12823" d="M151.052,104.279c-.794,2.446-3.272,3.113-5.02,4.384-17,12.231-34.12,24.367-51.212,36.471-4.8,3.4-9.658,6.672-14.487,10.071a10.763,10.763,0,0,0-1.557,1.62H31.6c4.924-4.384,10.516-7.847,15.853-11.691,18.49-13.311,37.075-26.5,55.6-39.743a5.575,5.575,0,0,1,3.368-1.271c14.487.032,29.005,0,43.492.032a7.071,7.071,0,0,1,1.144.159Z" transform="translate(-22.038 -104.12)" fill="#aab6c2"/>
      <path id="Path_12824" data-name="Path 12824" d="M100.34,151.018c-2.033,1.3-4.321.222-6.417.7-8.768,0-50.164-.064-60.647-.064q-4.861,0-4.67-4.638v.032c.191-.222.413-.445.6-.667,2.605-7.688,5.242-15.408,7.879-23.1.318-.89.731-1.716,1.08-2.573H85.345q7.482,15.154,15,30.308Z" transform="translate(-28.573 -68.005)" fill="#232323"/>
      <path id="Path_12825" data-name="Path 12825" d="M29.194,128.78c-.191.222-.413.445-.6.667C28.781,129.225,29,129,29.194,128.78Z" transform="translate(-28.59 -50.437)" fill="#fab542"/>
    </g>
    <g id="Group_6722" data-name="Group 6722" transform="translate(108.768 254.188)">
      <path id="Path_12826" data-name="Path 12826" d="M143.943,104.177c1.366-.127,1.43,1.048,1.811,1.843,4.575,9.054,9.054,18.172,13.693,27.226.985,1.906.508,2.764-1.08,3.908-4,2.859-8.228,5.433-11.913,8.737-5.655,3.939-11.342,7.847-16.965,11.85-12.962,9.245-25.86,18.585-38.854,27.766-1.112.794-2.1,2.446-3.939,1.557l-15-30.308a10.765,10.765,0,0,1,1.557-1.62c4.8-3.368,9.69-6.672,14.487-10.071,17.092-12.136,34.184-24.24,51.212-36.471,1.779-1.271,4.225-1.938,5.02-4.384Z" transform="translate(-14.921 -104.018)"/>
      <path id="Path_12827" data-name="Path 12827" d="M176.292,104.279c-.794,2.446-3.272,3.113-5.02,4.384-17,12.231-34.12,24.367-51.212,36.471-4.8,3.4-9.658,6.672-14.487,10.071a10.762,10.762,0,0,0-1.557,1.62H56.84c4.924-4.384,10.516-7.847,15.853-11.691,18.49-13.311,37.075-26.5,55.6-39.743a5.575,5.575,0,0,1,3.368-1.271c14.487.032,29.005,0,43.492.032a7.071,7.071,0,0,1,1.144.159Z" transform="translate(-47.27 -104.12)" fill="#aab6c2"/>
      <path id="Path_12828" data-name="Path 12828" d="M125.57,151.018c-2.033,1.3-4.321.222-6.417.7-8.768,0-50.164-.064-60.647-.064q-4.861,0-4.67-4.638v.032c.191-.222.413-.445.6-.667,2.605-7.688,5.242-15.408,7.879-23.1.318-.89.731-1.716,1.08-2.573h47.177q7.482,15.154,15,30.308Z" transform="translate(-53.828 -68.005)" fill="#232323"/>
      <path id="Path_12829" data-name="Path 12829" d="M54.434,128.78c-.191.222-.413.445-.6.667C54.021,129.225,54.243,129,54.434,128.78Z" transform="translate(-53.823 -50.437)" fill="#fab542"/>
    </g>
    <g id="Group_6723" data-name="Group 6723" transform="translate(67.341 216.986)">
      <path id="Path_12830" data-name="Path 12830" d="M130.893,92.466c1.366-.127,1.43,1.048,1.811,1.843,4.575,9.054,9.054,18.172,13.693,27.226.985,1.906.508,2.764-1.08,3.908-4,2.859-8.228,5.433-11.913,8.737-5.655,3.939-11.342,7.847-16.965,11.85-12.962,9.245-25.86,18.585-38.854,27.766-1.112.794-2.1,2.446-3.939,1.557l-15-30.308a10.763,10.763,0,0,1,1.557-1.62c4.8-3.367,9.69-6.672,14.487-10.071,17.092-12.136,34.184-24.24,51.212-36.471,1.779-1.271,4.225-1.938,5.019-4.384Z" transform="translate(-1.903 -92.308)"/>
      <path id="Path_12831" data-name="Path 12831" d="M163.242,92.569c-.794,2.446-3.272,3.113-5.02,4.384-17,12.231-34.12,24.367-51.212,36.471-4.8,3.4-9.658,6.672-14.487,10.071a10.762,10.762,0,0,0-1.557,1.62H43.79c4.924-4.384,10.516-7.847,15.853-11.691,18.49-13.311,37.075-26.5,55.6-39.743a5.575,5.575,0,0,1,3.368-1.271c14.487.032,29.005,0,43.492.032a7.071,7.071,0,0,1,1.144.159Z" transform="translate(-34.252 -92.41)" fill="#aab6c2"/>
      <path id="Path_12832" data-name="Path 12832" d="M112.53,139.318c-2.033,1.3-4.321.222-6.417.7-8.768,0-50.164-.064-60.647-.064q-4.861,0-4.67-4.638v.032c.191-.222.413-.445.6-.667,2.605-7.688,5.242-15.408,7.879-23.1.318-.89.731-1.716,1.08-2.573H97.535q7.482,15.154,15,30.308Z" transform="translate(-40.788 -56.273)" fill="#232323"/>
      <path id="Path_12833" data-name="Path 12833" d="M41.394,117.08c-.191.222-.413.445-.6.667C40.981,117.525,41.2,117.3,41.394,117.08Z" transform="translate(-40.783 -38.705)" fill="#fab542"/>
    </g>
    <g id="Group_6724" data-name="Group 6724" transform="translate(181.304 90.481)">
      <path id="Path_12834" data-name="Path 12834" d="M166.773,52.647c1.366-.127,1.43,1.048,1.811,1.843,4.575,9.054,9.054,18.172,13.693,27.226.985,1.906.508,2.764-1.08,3.908-4,2.859-8.228,5.433-11.913,8.737-5.655,3.939-11.342,7.847-16.965,11.85-12.962,9.245-25.86,18.585-38.854,27.766-1.112.794-2.1,2.446-3.939,1.557l-15-30.308a10.766,10.766,0,0,1,1.557-1.62c4.8-3.368,9.69-6.672,14.487-10.071,17.092-12.136,34.184-24.24,51.212-36.471,1.779-1.271,4.225-1.938,5.02-4.384Z" transform="translate(-37.758 -52.488)" fill="#e03c00"/>
      <path id="Path_12835" data-name="Path 12835" d="M199.122,52.749c-.794,2.446-3.272,3.113-5.02,4.384-17,12.231-34.12,24.367-51.212,36.471-4.8,3.4-9.658,6.672-14.487,10.071a10.762,10.762,0,0,0-1.557,1.62H79.67c4.924-4.384,10.516-7.847,15.853-11.691,18.49-13.311,37.075-26.5,55.6-39.743a5.575,5.575,0,0,1,3.368-1.271c14.487.032,29.005,0,43.492.032a7.074,7.074,0,0,1,1.144.159Z" transform="translate(-70.107 -52.59)" fill="#ff936b"/>
      <path id="Path_12836" data-name="Path 12836" d="M148.41,99.488c-2.033,1.3-4.321.222-6.417.7-8.768,0-50.164-.064-60.647-.064q-4.861,0-4.67-4.638v.032c.191-.222.413-.445.6-.667,2.605-7.688,5.242-15.408,7.879-23.1.318-.89.731-1.716,1.08-2.573h47.177q7.482,15.154,15,30.308Z" transform="translate(-76.643 -16.475)" fill="#f40"/>
      <path id="Path_12837" data-name="Path 12837" d="M77.264,77.25c-.191.222-.413.445-.6.667C76.851,77.695,77.073,77.472,77.264,77.25Z" transform="translate(-76.66 1.093)" fill="#fab542"/>
    </g>
    <g id="Group_6725" data-name="Group 6725" transform="translate(217.204 55.312)">
      <path id="Path_12838" data-name="Path 12838" d="M178.073,41.577c1.366-.127,1.43,1.048,1.811,1.843,4.575,9.054,9.054,18.172,13.693,27.226.985,1.906.508,2.764-1.08,3.908-4,2.859-8.228,5.433-11.913,8.737-5.655,3.939-11.342,7.847-16.965,11.85-12.962,9.245-25.86,18.585-38.854,27.766-1.112.794-2.1,2.446-3.939,1.557l-15-30.308a10.765,10.765,0,0,1,1.557-1.62c4.8-3.368,9.69-6.672,14.487-10.071,17.092-12.136,34.184-24.24,51.212-36.471,1.779-1.271,4.225-1.938,5.02-4.384Z" transform="translate(-49.058 -41.418)" fill="#e03c00"/>
      <path id="Path_12839" data-name="Path 12839" d="M210.422,41.679c-.794,2.446-3.272,3.113-5.02,4.384-17,12.231-34.12,24.367-51.212,36.471-4.8,3.4-9.658,6.672-14.487,10.071a10.762,10.762,0,0,0-1.557,1.62H90.97c4.924-4.384,10.516-7.847,15.853-11.691,18.49-13.311,37.075-26.5,55.6-39.743a5.575,5.575,0,0,1,3.368-1.271c14.487.032,29.005,0,43.492.032a7.074,7.074,0,0,1,1.144.159Z" transform="translate(-81.407 -41.52)" fill="#ff936b"/>
      <path id="Path_12840" data-name="Path 12840" d="M159.71,88.418c-2.033,1.3-4.321.222-6.417.7-8.768,0-50.164-.064-60.647-.064q-4.861,0-4.67-4.638v.032c.191-.222.413-.445.6-.667,2.605-7.688,5.242-15.408,7.879-23.1.318-.89.731-1.716,1.08-2.573h47.177q7.482,15.154,15,30.308Z" transform="translate(-87.943 -5.405)" fill="#f40"/>
      <path id="Path_12841" data-name="Path 12841" d="M88.564,66.18c-.191.222-.413.445-.6.667C88.151,66.625,88.373,66.4,88.564,66.18Z" transform="translate(-87.96 12.163)" fill="#fab542"/>
    </g>
    <g id="Group_6726" data-name="Group 6726" transform="translate(76.276 389.302)">
      <path id="Path_12842" data-name="Path 12842" d="M134.854,173.4V146.65H59.37V173.4H73.476a10.257,10.257,0,0,1,10.261,10.261V195.32a10.257,10.257,0,0,1-10.261,10.261H59.37v26.75h75.484v-26.75H120.748a10.257,10.257,0,0,1-10.261-10.261V183.661A10.257,10.257,0,0,1,120.748,173.4Z" transform="translate(-9.27 -146.65)" fill="#aab6c2"/>
      <path id="Path_12843" data-name="Path 12843" d="M169.162,173.61H81.352L43.61,223.678h75.452Z" transform="translate(-43.578 -87.96)" fill="#aab6c2"/>
      <path id="Path_12844" data-name="Path 12844" d="M43.61,215.29l50.068-50.1v26.75L43.61,242.008Z" transform="translate(-43.578 -106.29)" fill="#aab6c2"/>
      <path id="Path_12845" data-name="Path 12845" d="M67.36,242.008l50.1-50.068V165.19l-50.1,50.1Z" transform="translate(8.124 -106.29)"/>
      <path id="Path_12846" data-name="Path 12846" d="M119.084,189.16V162.41H43.6v26.75H57.706a10.257,10.257,0,0,1,10.261,10.261V211.08a10.257,10.257,0,0,1-10.261,10.261H43.6v26.75h75.484v-26.75H104.978A10.257,10.257,0,0,1,94.717,211.08V199.421a10.257,10.257,0,0,1,10.261-10.261Z" transform="translate(-43.6 -112.342)" fill="#232323"/>
      <path id="Path_12847" data-name="Path 12847" d="M43.61,196.75l50.068-50.1h75.484l-50.1,50.1Z" transform="translate(-43.578 -146.65)" fill="#aab6c2"/>
      <path id="Path_12848" data-name="Path 12848" d="M67.36,223.468l50.1-50.068V146.65l-50.1,50.1Z" transform="translate(8.124 -146.65)"/>
    </g>
    <g id="Group_6727" data-name="Group 6727" transform="translate(133.555 478.827)">
      <path id="Path_12849" data-name="Path 12849" d="M152.884,201.58V174.83H77.4v26.75H91.506a10.257,10.257,0,0,1,10.261,10.261V223.5a10.257,10.257,0,0,1-10.261,10.261H77.4v26.75h75.484v-26.75H138.778A10.257,10.257,0,0,1,128.517,223.5V211.841a10.257,10.257,0,0,1,10.261-10.261Z" transform="translate(-27.3 -174.83)" fill="#aab6c2"/>
      <path id="Path_12850" data-name="Path 12850" d="M187.214,201.79H99.372L61.63,251.89h75.484Z" transform="translate(-61.63 -116.14)" fill="#aab6c2"/>
      <path id="Path_12851" data-name="Path 12851" d="M61.63,243.448l50.1-50.068V220.1l-50.1,50.1Z" transform="translate(-61.63 -134.448)" fill="#aab6c2"/>
      <path id="Path_12852" data-name="Path 12852" d="M85.39,270.2l50.1-50.1V193.38l-50.1,50.068Z" transform="translate(-9.906 -134.448)"/>
      <path id="Path_12853" data-name="Path 12853" d="M137.114,217.35V190.6H61.63v26.75H75.736A10.257,10.257,0,0,1,86,227.611V239.27a10.257,10.257,0,0,1-10.261,10.261H61.63v26.75h75.484v-26.75H123.008a10.257,10.257,0,0,1-10.261-10.261V227.611a10.257,10.257,0,0,1,10.261-10.261Z" transform="translate(-61.63 -140.5)" fill="#232323"/>
      <path id="Path_12854" data-name="Path 12854" d="M61.63,224.93l50.1-50.1h75.484l-50.1,50.1Z" transform="translate(-61.63 -174.83)" fill="#aab6c2"/>
      <path id="Path_12855" data-name="Path 12855" d="M85.39,251.68l50.1-50.1V174.83l-50.1,50.1Z" transform="translate(-9.906 -174.83)"/>
    </g>
    <g id="Group_6728" data-name="Group 6728" transform="translate(498.52 392.113)">
      <path id="Path_12856" data-name="Path 12856" d="M227.378,192.692c0,11.691-49.528,11.691-49.528,0V183.67c0,7.275,49.528,7.275,49.528,0Z" transform="translate(-173.593 -68.872)" fill="#aab6c2"/>
      <path id="Path_12857" data-name="Path 12857" d="M234.489,245.775c0,18.331-57.979,18.331-57.979,0v-91.3h57.979Z" transform="translate(-176.51 -132.438)" fill="#f40"/>
      <path id="Path_12858" data-name="Path 12858" d="M191.28,154.47V256.83c6.513-2.256,11.056-5.941,11.056-11.056v-91.3Z" transform="translate(-144.357 -132.438)" fill="#e03c00"/>
      <path id="Path_12859" data-name="Path 12859" d="M179.052,154.47H176.51v91.3a8.721,8.721,0,0,0,2.542,6V154.5Z" transform="translate(-176.51 -132.438)" fill="#ff936b"/>
      <path id="Path_12860" data-name="Path 12860" d="M178.44,152.825c0-7.053,45.748-7.053,45.748,0v4.448c0,1.207-45.748,1.207-45.748,0Z" transform="translate(-172.309 -147.535)" fill="#aab6c2"/>
      <path id="Path_12861" data-name="Path 12861" d="M224.188,153.618c0,7.053-45.748,7.053-45.748,0V149.17c0,6.735,45.748,6.735,45.748,0Z" transform="translate(-172.309 -143.976)" fill="#232323"/>
      <path id="Path_12862" data-name="Path 12862" d="M178.666,152.028c3.431-5.814,41.586-5.75,44.413.159.1.222-1.43,1.747-3.558,2.224-8.514-2.637-28.719-2.732-37.2-.1C180.572,154.093,178.507,152.314,178.666,152.028Z" transform="translate(-171.836 -147.152)" fill="#232323"/>
      <path id="Path_12863" data-name="Path 12863" d="M234.489,162.982c0,8.514-57.979,8.514-57.979,0l6.1-12.422c0,6.767,45.748,6.767,45.748,0l6.1,12.422Z" transform="translate(-176.51 -140.95)" fill="#aab6c2"/>
    </g>
    <g id="Group_6729" data-name="Group 6729" transform="translate(552.273 423.088)">
      <path id="Path_12864" data-name="Path 12864" d="M244.3,202.442c0,11.691-49.528,11.691-49.528,0V193.42c0,7.275,49.528,7.275,49.528,0Z" transform="translate(-190.513 -78.622)" fill="#aab6c2"/>
      <path id="Path_12865" data-name="Path 12865" d="M251.409,255.525c0,18.331-57.979,18.331-57.979,0v-91.3h57.979Z" transform="translate(-193.43 -142.188)" fill="#f40"/>
      <path id="Path_12866" data-name="Path 12866" d="M208.2,164.22V266.58c6.513-2.256,11.056-5.941,11.056-11.056v-91.3Z" transform="translate(-161.277 -142.188)" fill="#e03c00"/>
      <path id="Path_12867" data-name="Path 12867" d="M195.972,164.22H193.43v91.3a8.721,8.721,0,0,0,2.542,6V164.252Z" transform="translate(-193.43 -142.188)" fill="#ff936b"/>
      <path id="Path_12868" data-name="Path 12868" d="M195.36,162.575c0-7.053,45.748-7.053,45.748,0v4.448c0,1.207-45.748,1.207-45.748,0Z" transform="translate(-189.229 -157.285)" fill="#aab6c2"/>
      <path id="Path_12869" data-name="Path 12869" d="M241.118,163.368c0,7.053-45.748,7.053-45.748,0V158.92c0,6.735,45.748,6.735,45.748,0Z" transform="translate(-189.207 -153.726)" fill="#232323"/>
      <path id="Path_12870" data-name="Path 12870" d="M195.6,161.778c3.431-5.814,41.586-5.75,44.413.159.1.222-1.43,1.747-3.558,2.224-8.514-2.637-28.719-2.732-37.2-.1C197.5,163.843,195.437,162.064,195.6,161.778Z" transform="translate(-188.734 -156.902)" fill="#232323"/>
      <path id="Path_12871" data-name="Path 12871" d="M251.409,172.732c0,8.514-57.979,8.514-57.979,0l6.1-12.422c0,6.767,45.748,6.767,45.748,0l6.1,12.422Z" transform="translate(-193.43 -150.7)" fill="#aab6c2"/>
    </g>
    <g id="Group_6730" data-name="Group 6730" transform="translate(508.209 458.416)">
      <path id="Path_12872" data-name="Path 12872" d="M230.428,213.562c0,11.691-49.528,11.691-49.528,0V204.54c0,7.275,49.528,7.275,49.528,0Z" transform="translate(-176.643 -89.742)" fill="#aab6c2"/>
      <path id="Path_12873" data-name="Path 12873" d="M237.539,266.645c0,18.331-57.979,18.331-57.979,0v-91.3h57.979Z" transform="translate(-179.56 -153.308)" fill="#f40"/>
      <path id="Path_12874" data-name="Path 12874" d="M194.33,175.34V277.7c6.513-2.256,11.056-5.941,11.056-11.056v-91.3Z" transform="translate(-147.407 -153.308)" fill="#e03c00"/>
      <path id="Path_12875" data-name="Path 12875" d="M182.1,175.34H179.56v91.3a8.722,8.722,0,0,0,2.542,6V175.372Z" transform="translate(-179.56 -153.308)" fill="#ff936b"/>
      <path id="Path_12876" data-name="Path 12876" d="M181.49,173.695c0-7.053,45.748-7.053,45.748,0v4.448c0,1.207-45.748,1.207-45.748,0Z" transform="translate(-175.359 -168.405)" fill="#aab6c2"/>
      <path id="Path_12877" data-name="Path 12877" d="M227.238,174.488c0,7.053-45.748,7.053-45.748,0V170.04c0,6.735,45.748,6.735,45.748,0Z" transform="translate(-175.359 -164.846)" fill="#232323"/>
      <path id="Path_12878" data-name="Path 12878" d="M181.716,172.9c3.431-5.814,41.586-5.75,44.413.159.1.222-1.43,1.747-3.558,2.224-8.514-2.637-28.719-2.732-37.2-.1C183.622,174.963,181.557,173.184,181.716,172.9Z" transform="translate(-174.886 -168.022)" fill="#232323"/>
      <path id="Path_12879" data-name="Path 12879" d="M237.539,183.852c0,8.514-57.979,8.514-57.979,0l6.1-12.422c0,6.767,45.748,6.767,45.748,0l6.1,12.422Z" transform="translate(-179.56 -161.82)" fill="#aab6c2"/>
    </g>
    <g id="Group_6735" data-name="Group 6735" transform="translate(482.095 102.495)">
      <g id="Group_6731" data-name="Group 6731" transform="translate(0.615 51.53)">
        <path id="Path_12880" data-name="Path 12880" d="M300.548,76.971,175.06,202.459l24.081,24.081L324.629,101.052c6.195-6.195,5.814-16.584-.826-23.223S306.743,70.807,300.58,77Z" transform="translate(-163.857 -72.592)"/>
        <ellipse id="Ellipse_225" data-name="Ellipse 225" cx="15.821" cy="17.028" rx="15.821" ry="17.028" transform="translate(0 141.074) rotate(-45)" fill="#aab6c2"/>
        <ellipse id="Ellipse_226" data-name="Ellipse 226" cx="9.721" cy="10.452" rx="9.721" ry="10.452" transform="translate(8.963 141.411) rotate(-45)" fill="#232323"/>
      </g>
      <g id="Group_6732" data-name="Group 6732" transform="translate(32.212 51.53)">
        <path id="Path_12881" data-name="Path 12881" d="M310.5,76.971,185.01,202.459l24.081,24.081L334.579,101.052c6.195-6.195,5.814-16.584-.826-23.223S316.693,70.807,310.53,77Z" transform="translate(-173.794 -72.592)" fill="#e03c00"/>
        <ellipse id="Ellipse_227" data-name="Ellipse 227" cx="15.821" cy="17.028" rx="15.821" ry="17.028" transform="translate(0 141.055) rotate(-45)" fill="#ff936b"/>
        <ellipse id="Ellipse_228" data-name="Ellipse 228" cx="9.721" cy="10.452" rx="9.721" ry="10.452" transform="translate(8.963 141.392) rotate(-45)" fill="#e03c00"/>
      </g>
      <g id="Group_6733" data-name="Group 6733" transform="translate(0)">
        <path id="Path_12882" data-name="Path 12882" d="M300.358,60.751,174.87,186.239l24.081,24.081L324.439,84.832c6.2-6.195,5.814-16.584-.826-23.223s-17.06-7.021-23.223-.826Z" transform="translate(-163.656 -56.372)" fill="#e03c00"/>
        <ellipse id="Ellipse_229" data-name="Ellipse 229" cx="15.821" cy="17.028" rx="15.821" ry="17.028" transform="translate(0 141.058) rotate(-45)" fill="#ff936b"/>
        <ellipse id="Ellipse_230" data-name="Ellipse 230" cx="9.721" cy="10.452" rx="9.721" ry="10.452" transform="translate(8.963 141.395) rotate(-45)" fill="#e03c00"/>
      </g>
      <g id="Group_6734" data-name="Group 6734" transform="translate(17.062 19.379)">
        <path id="Path_12883" data-name="Path 12883" d="M305.718,66.851,180.23,192.339l24.081,24.081L329.8,90.932c6.2-6.195,5.814-16.584-.826-23.223s-17.06-7.021-23.223-.826Z" transform="translate(-169.049 -62.472)" fill="#232323"/>
        <ellipse id="Ellipse_231" data-name="Ellipse 231" cx="15.821" cy="17.028" rx="15.821" ry="17.028" transform="translate(0 141.046) rotate(-45)" fill="#aab6c2"/>
        <ellipse id="Ellipse_232" data-name="Ellipse 232" cx="9.721" cy="10.452" rx="9.721" ry="10.452" transform="translate(8.963 141.383) rotate(-45)" fill="#232323"/>
      </g>
    </g>
  </g>
</svg>
