<svg xmlns="http://www.w3.org/2000/svg" xmlns:xlink="http://www.w3.org/1999/xlink" width="692.852" height="638.242" viewBox="0 0 692.852 638.242">
  <defs>
    <clipPath id="clip-path">
      <path id="Path_6872" data-name="Path 6872" d="M342.082,22.426c93.844,18.486,141.757,124.78,292.883,219.347S752.828,705.651,514.146,645.415C286.436,587.945,275.9,592.5,126.79,597.785-59.892,604.45,45.113-36.081,342.082,22.426Z" transform="translate(-33.612 -18.649)" fill="none"/>
    </clipPath>
  </defs>
  <g id="Stock_Market_01_energie" transform="translate(-33.612 -18.648)">
    <g id="Layer_1" transform="translate(33.612 18.648)">
      <path id="Path_6863" data-name="Path 6863" d="M263.154,193.641c-44.046-35.054-80.734-96.2-59.859-155.15,20.844-58.947,63.915,50.773,98.56,87.305,50.145,52.88,53.477,141.191-38.7,67.845Z" transform="translate(317.261 -12.706)" fill="#e6ebf0"/>
      <rect id="Rectangle_2710" data-name="Rectangle 2710" width="651.22" height="4.527" transform="translate(29.673 633.557)"/>
      <path id="Path_6864" data-name="Path 6864" d="M342.082,22.426c93.844,18.486,141.757,124.78,292.883,219.347S752.828,705.651,514.146,645.415C286.436,587.945,275.9,592.5,126.79,597.785-59.892,604.45,45.113-36.081,342.082,22.426Z" transform="translate(-33.612 -18.649)" fill="#e6ebf0"/>
      <g id="Group_2771" data-name="Group 2771" clip-path="url(#clip-path)">
        <g id="Group_2767" data-name="Group 2767" transform="translate(-11.103 54.489)">
          <g id="Group_2761" data-name="Group 2761" transform="translate(112.425)">
            <path id="Path_6865" data-name="Path 6865" d="M115.607,176.857V152.492h40.43V35.98h11.129V152.492h43.574v24.365h23.327V665.319H65.84V176.857Z" transform="translate(-65.84 -35.98)" fill="#c6d0db"/>
            <rect id="Rectangle_2711" data-name="Rectangle 2711" width="23.327" height="439.387" transform="translate(0 140.877)" fill="#aab6c2"/>
          </g>
          <g id="Group_2762" data-name="Group 2762" transform="translate(196.523 257.231)">
            <rect id="Rectangle_2712" data-name="Rectangle 2712" width="168.228" height="372.108" fill="#c6d0db"/>
            <rect id="Rectangle_2713" data-name="Rectangle 2713" width="23.327" height="372.108" fill="#aab6c2"/>
            <rect id="Rectangle_2714" data-name="Rectangle 2714" width="24.145" height="10.029" transform="translate(120.63 15.845)" fill="#aab6c2"/>
            <rect id="Rectangle_2715" data-name="Rectangle 2715" width="24.145" height="10.029" transform="translate(79.98 15.845)" fill="#aab6c2"/>
            <rect id="Rectangle_2716" data-name="Rectangle 2716" width="24.145" height="10.029" transform="translate(120.63 52.345)" fill="#aab6c2"/>
            <rect id="Rectangle_2717" data-name="Rectangle 2717" width="24.145" height="10.029" transform="translate(79.98 52.345)" fill="#aab6c2"/>
            <rect id="Rectangle_2718" data-name="Rectangle 2718" width="24.145" height="10.029" transform="translate(39.33 52.345)" fill="#aab6c2"/>
            <rect id="Rectangle_2719" data-name="Rectangle 2719" width="24.145" height="10.029" transform="translate(120.63 88.814)" fill="#aab6c2"/>
            <rect id="Rectangle_2720" data-name="Rectangle 2720" width="24.145" height="10.029" transform="translate(39.33 88.814)" fill="#aab6c2"/>
            <rect id="Rectangle_2721" data-name="Rectangle 2721" width="24.145" height="10.029" transform="translate(79.98 107.049)" fill="#aab6c2"/>
            <rect id="Rectangle_2722" data-name="Rectangle 2722" width="24.145" height="10.029" transform="translate(120.63 125.283)" fill="#aab6c2"/>
            <rect id="Rectangle_2723" data-name="Rectangle 2723" width="24.145" height="10.029" transform="translate(79.98 143.517)" fill="#aab6c2"/>
            <rect id="Rectangle_2724" data-name="Rectangle 2724" width="24.145" height="10.029" transform="translate(120.63 161.752)" fill="#aab6c2"/>
            <rect id="Rectangle_2725" data-name="Rectangle 2725" width="24.145" height="10.029" transform="translate(39.33 161.752)" fill="#aab6c2"/>
            <rect id="Rectangle_2726" data-name="Rectangle 2726" width="24.145" height="10.029" transform="translate(120.63 195.486)" fill="#aab6c2"/>
            <rect id="Rectangle_2727" data-name="Rectangle 2727" width="24.145" height="10.029" transform="translate(79.98 195.486)" fill="#aab6c2"/>
            <rect id="Rectangle_2728" data-name="Rectangle 2728" width="24.145" height="10.029" transform="translate(120.63 231.954)" fill="#aab6c2"/>
            <rect id="Rectangle_2729" data-name="Rectangle 2729" width="24.145" height="10.029" transform="translate(79.98 231.954)" fill="#aab6c2"/>
            <rect id="Rectangle_2730" data-name="Rectangle 2730" width="24.145" height="10.029" transform="translate(39.33 231.954)" fill="#aab6c2"/>
            <rect id="Rectangle_2731" data-name="Rectangle 2731" width="24.145" height="10.029" transform="translate(120.63 268.423)" fill="#aab6c2"/>
            <rect id="Rectangle_2732" data-name="Rectangle 2732" width="24.145" height="10.029" transform="translate(39.33 268.423)" fill="#aab6c2"/>
            <rect id="Rectangle_2733" data-name="Rectangle 2733" width="24.145" height="10.029" transform="translate(79.98 286.658)" fill="#aab6c2"/>
            <rect id="Rectangle_2734" data-name="Rectangle 2734" width="24.145" height="10.029" transform="translate(39.33 286.658)" fill="#aab6c2"/>
            <rect id="Rectangle_2735" data-name="Rectangle 2735" width="24.145" height="10.029" transform="translate(120.63 304.924)" fill="#aab6c2"/>
            <rect id="Rectangle_2736" data-name="Rectangle 2736" width="24.145" height="10.029" transform="translate(79.98 323.158)" fill="#aab6c2"/>
            <rect id="Rectangle_2737" data-name="Rectangle 2737" width="24.145" height="10.029" transform="translate(120.63 341.392)" fill="#aab6c2"/>
            <rect id="Rectangle_2738" data-name="Rectangle 2738" width="24.145" height="10.029" transform="translate(39.33 341.392)" fill="#aab6c2"/>
          </g>
          <g id="Group_2763" data-name="Group 2763" transform="translate(599.032 257.231)">
            <rect id="Rectangle_2739" data-name="Rectangle 2739" width="168.228" height="372.108" fill="#c6d0db"/>
            <rect id="Rectangle_2740" data-name="Rectangle 2740" width="23.327" height="372.108" fill="#aab6c2"/>
          </g>
          <g id="Group_2764" data-name="Group 2764" transform="translate(360.067 80.231)">
            <rect id="Rectangle_2741" data-name="Rectangle 2741" width="225.698" height="549.108" fill="#c6d0db"/>
            <rect id="Rectangle_2742" data-name="Rectangle 2742" width="23.327" height="549.108" fill="#aab6c2"/>
            <rect id="Rectangle_2743" data-name="Rectangle 2743" width="35.243" height="14.619" transform="translate(166.688 26.314)" fill="#aab6c2"/>
            <rect id="Rectangle_2744" data-name="Rectangle 2744" width="35.243" height="14.619" transform="translate(107.332 26.314)" fill="#aab6c2"/>
            <rect id="Rectangle_2745" data-name="Rectangle 2745" width="35.243" height="14.619" transform="translate(166.688 79.571)" fill="#aab6c2"/>
            <rect id="Rectangle_2746" data-name="Rectangle 2746" width="35.243" height="14.619" transform="translate(107.332 79.571)" fill="#aab6c2"/>
            <rect id="Rectangle_2747" data-name="Rectangle 2747" width="35.243" height="14.619" transform="translate(47.975 79.571)" fill="#aab6c2"/>
            <rect id="Rectangle_2748" data-name="Rectangle 2748" width="35.243" height="14.619" transform="translate(166.688 132.86)" fill="#aab6c2"/>
            <rect id="Rectangle_2749" data-name="Rectangle 2749" width="35.243" height="14.619" transform="translate(47.975 132.86)" fill="#aab6c2"/>
            <rect id="Rectangle_2750" data-name="Rectangle 2750" width="35.243" height="14.619" transform="translate(107.332 159.488)" fill="#aab6c2"/>
            <rect id="Rectangle_2751" data-name="Rectangle 2751" width="35.243" height="14.619" transform="translate(166.688 186.117)" fill="#aab6c2"/>
            <rect id="Rectangle_2752" data-name="Rectangle 2752" width="35.243" height="14.619" transform="translate(107.332 212.745)" fill="#aab6c2"/>
            <rect id="Rectangle_2753" data-name="Rectangle 2753" width="35.243" height="14.619" transform="translate(166.688 239.374)" fill="#aab6c2"/>
            <rect id="Rectangle_2754" data-name="Rectangle 2754" width="35.243" height="14.619" transform="translate(47.975 239.374)" fill="#aab6c2"/>
            <rect id="Rectangle_2755" data-name="Rectangle 2755" width="35.243" height="14.619" transform="translate(166.688 288.607)" fill="#aab6c2"/>
            <rect id="Rectangle_2756" data-name="Rectangle 2756" width="35.243" height="14.619" transform="translate(107.332 288.607)" fill="#aab6c2"/>
            <rect id="Rectangle_2757" data-name="Rectangle 2757" width="35.243" height="14.619" transform="translate(166.688 341.864)" fill="#aab6c2"/>
            <rect id="Rectangle_2758" data-name="Rectangle 2758" width="35.243" height="14.619" transform="translate(107.332 341.864)" fill="#aab6c2"/>
            <rect id="Rectangle_2759" data-name="Rectangle 2759" width="35.243" height="14.619" transform="translate(47.975 341.864)" fill="#aab6c2"/>
            <rect id="Rectangle_2760" data-name="Rectangle 2760" width="35.243" height="14.619" transform="translate(166.688 395.152)" fill="#aab6c2"/>
            <rect id="Rectangle_2761" data-name="Rectangle 2761" width="35.243" height="14.619" transform="translate(47.975 395.152)" fill="#aab6c2"/>
            <rect id="Rectangle_2762" data-name="Rectangle 2762" width="35.243" height="14.619" transform="translate(107.332 421.781)" fill="#aab6c2"/>
            <rect id="Rectangle_2763" data-name="Rectangle 2763" width="35.243" height="14.619" transform="translate(47.975 421.781)" fill="#aab6c2"/>
            <rect id="Rectangle_2764" data-name="Rectangle 2764" width="35.243" height="14.619" transform="translate(166.688 448.41)" fill="#aab6c2"/>
            <rect id="Rectangle_2765" data-name="Rectangle 2765" width="35.243" height="14.619" transform="translate(107.332 475.038)" fill="#aab6c2"/>
            <rect id="Rectangle_2766" data-name="Rectangle 2766" width="35.243" height="14.619" transform="translate(166.688 501.698)" fill="#aab6c2"/>
            <rect id="Rectangle_2767" data-name="Rectangle 2767" width="35.243" height="14.619" transform="translate(47.975 501.698)" fill="#aab6c2"/>
          </g>
          <g id="Group_2765" data-name="Group 2765" transform="translate(714.915 121.165)">
            <rect id="Rectangle_2768" data-name="Rectangle 2768" width="221.202" height="508.174" fill="#c6d0db"/>
            <rect id="Rectangle_2769" data-name="Rectangle 2769" width="22.856" height="508.174" fill="#aab6c2"/>
            <rect id="Rectangle_2770" data-name="Rectangle 2770" width="34.551" height="13.55" transform="translate(47.032 73.629)" fill="#aab6c2"/>
            <rect id="Rectangle_2771" data-name="Rectangle 2771" width="34.551" height="13.55" transform="translate(47.032 122.957)" fill="#aab6c2"/>
            <rect id="Rectangle_2772" data-name="Rectangle 2772" width="34.551" height="13.55" transform="translate(47.032 221.548)" fill="#aab6c2"/>
            <rect id="Rectangle_2773" data-name="Rectangle 2773" width="34.551" height="13.55" transform="translate(47.032 316.399)" fill="#aab6c2"/>
            <rect id="Rectangle_2774" data-name="Rectangle 2774" width="34.551" height="13.55" transform="translate(47.032 365.694)" fill="#aab6c2"/>
            <rect id="Rectangle_2775" data-name="Rectangle 2775" width="34.551" height="13.55" transform="translate(47.032 390.342)" fill="#aab6c2"/>
            <rect id="Rectangle_2776" data-name="Rectangle 2776" width="34.551" height="13.55" transform="translate(47.032 464.286)" fill="#aab6c2"/>
          </g>
          <g id="Group_2766" data-name="Group 2766" transform="translate(0 282.728)">
            <rect id="Rectangle_2777" data-name="Rectangle 2777" width="142.48" height="346.611" fill="#c6d0db"/>
            <rect id="Rectangle_2778" data-name="Rectangle 2778" width="14.713" height="346.611" fill="#aab6c2"/>
            <rect id="Rectangle_2779" data-name="Rectangle 2779" width="22.259" height="9.243" transform="translate(105.225 16.6)" fill="#aab6c2"/>
            <rect id="Rectangle_2780" data-name="Rectangle 2780" width="22.259" height="9.243" transform="translate(67.75 16.6)" fill="#aab6c2"/>
            <rect id="Rectangle_2781" data-name="Rectangle 2781" width="22.259" height="9.243" transform="translate(105.225 50.239)" fill="#aab6c2"/>
            <rect id="Rectangle_2782" data-name="Rectangle 2782" width="22.259" height="9.243" transform="translate(67.75 50.239)" fill="#aab6c2"/>
            <rect id="Rectangle_2783" data-name="Rectangle 2783" width="22.259" height="9.243" transform="translate(30.307 50.239)" fill="#aab6c2"/>
            <rect id="Rectangle_2784" data-name="Rectangle 2784" width="22.259" height="9.243" transform="translate(105.225 83.847)" fill="#aab6c2"/>
            <rect id="Rectangle_2785" data-name="Rectangle 2785" width="22.259" height="9.243" transform="translate(30.307 83.847)" fill="#aab6c2"/>
            <rect id="Rectangle_2786" data-name="Rectangle 2786" width="22.259" height="9.243" transform="translate(67.75 100.667)" fill="#aab6c2"/>
            <rect id="Rectangle_2787" data-name="Rectangle 2787" width="22.259" height="9.243" transform="translate(105.225 117.486)" fill="#aab6c2"/>
            <rect id="Rectangle_2788" data-name="Rectangle 2788" width="22.259" height="9.243" transform="translate(67.75 134.306)" fill="#aab6c2"/>
            <rect id="Rectangle_2789" data-name="Rectangle 2789" width="22.259" height="9.243" transform="translate(105.225 151.094)" fill="#aab6c2"/>
            <rect id="Rectangle_2790" data-name="Rectangle 2790" width="22.259" height="9.243" transform="translate(30.307 151.094)" fill="#aab6c2"/>
            <rect id="Rectangle_2791" data-name="Rectangle 2791" width="22.259" height="9.243" transform="translate(105.225 182.187)" fill="#aab6c2"/>
            <rect id="Rectangle_2792" data-name="Rectangle 2792" width="22.259" height="9.243" transform="translate(67.75 182.187)" fill="#aab6c2"/>
            <rect id="Rectangle_2793" data-name="Rectangle 2793" width="22.259" height="9.243" transform="translate(105.225 215.795)" fill="#aab6c2"/>
            <rect id="Rectangle_2794" data-name="Rectangle 2794" width="22.259" height="9.243" transform="translate(67.75 215.795)" fill="#aab6c2"/>
            <rect id="Rectangle_2795" data-name="Rectangle 2795" width="22.259" height="9.243" transform="translate(30.307 215.795)" fill="#aab6c2"/>
            <rect id="Rectangle_2796" data-name="Rectangle 2796" width="22.259" height="9.243" transform="translate(105.225 249.434)" fill="#aab6c2"/>
            <rect id="Rectangle_2797" data-name="Rectangle 2797" width="22.259" height="9.243" transform="translate(30.307 249.434)" fill="#aab6c2"/>
            <rect id="Rectangle_2798" data-name="Rectangle 2798" width="22.259" height="9.243" transform="translate(67.75 266.254)" fill="#aab6c2"/>
            <rect id="Rectangle_2799" data-name="Rectangle 2799" width="22.259" height="9.243" transform="translate(30.307 266.254)" fill="#aab6c2"/>
            <rect id="Rectangle_2800" data-name="Rectangle 2800" width="22.259" height="9.243" transform="translate(105.225 283.042)" fill="#aab6c2"/>
            <rect id="Rectangle_2801" data-name="Rectangle 2801" width="22.259" height="9.243" transform="translate(67.75 299.862)" fill="#aab6c2"/>
            <rect id="Rectangle_2802" data-name="Rectangle 2802" width="22.259" height="9.243" transform="translate(105.225 316.682)" fill="#aab6c2"/>
            <rect id="Rectangle_2803" data-name="Rectangle 2803" width="22.259" height="9.243" transform="translate(30.307 316.682)" fill="#aab6c2"/>
          </g>
        </g>
        <g id="Group_2770" data-name="Group 2770" transform="translate(-106.96 -47.373)">
          <g id="Group_2768" data-name="Group 2768" transform="translate(6.602 13.644)">
            <rect id="Rectangle_2804" data-name="Rectangle 2804" width="603.779" height="688.412" fill="#fff" opacity="0.35"/>
            <path id="Path_6866" data-name="Path 6866" d="M99.775,678.554H52.9L304.126,10.42H350.97Z" transform="translate(108.097 -2.56)" fill="#fff" opacity="0.5"/>
            <path id="Path_6867" data-name="Path 6867" d="M57.462,678.554H34.04L285.235,10.42h23.422Z" transform="translate(67.664 -2.56)" fill="#fff" opacity="0.5"/>
            <path id="Path_6868" data-name="Path 6868" d="M146.473,629.631H123.02L338.406,33.24V81.278Z" transform="translate(258.425 46.363)" fill="#fff" opacity="0.5"/>
          </g>
          <g id="Group_2769" data-name="Group 2769" transform="translate(607.238 0)">
            <rect id="Rectangle_2805" data-name="Rectangle 2805" width="603.779" height="688.412" transform="translate(6.319)" fill="#fff" opacity="0.35"/>
            <path id="Path_6869" data-name="Path 6869" d="M258.454,678.554H211.61L462.8,10.42H509.68Z" transform="translate(-152.285 11.084)" fill="#fff" opacity="0.5"/>
            <path id="Path_6870" data-name="Path 6870" d="M216.193,678.554H192.74L443.966,10.42h23.422Z" transform="translate(-192.74 11.084)" fill="#fff" opacity="0.5"/>
          </g>
          <path id="Path_6871" data-name="Path 6871" d="M1242.109,137.452v-7.891h-21.693V5.41H-.41V21.161H12.731v5.565H402.1V129.593H-.41v7.891H402.1V339.634H-.41v7.891H402.1V549.676H-.41v7.891H402.1V689.3H12.857v4.559H-.41v18.234H1220.416v-1.478h0V557.567h21.693v-7.891h-21.693V347.494h21.693V339.6h-21.693V137.452ZM616.637,347.494H804.7V549.645H616.636V347.494Zm0-7.891V137.452H804.7V339.634H616.636Zm0-210.042V26.725H804.7V129.593H616.636Zm0,427.974H804.7V689.264h-188v4.559h-.063V557.536Zm201.27,131.728V557.536h188.066V689.264Zm0-139.619V347.494h188.066V549.645Zm0-210.042V137.452h188.066V339.634H817.907Zm0-210.042V26.725h188.066V129.593H817.907Zm201.27-102.836h188.066V129.593H1019.177Zm-603.842,0H603.4V129.593H415.335Zm0,110.727H603.4V339.634H415.335Zm0,210.042H603.4V549.645H415.335Zm0,210.042H603.4V693.822h-.063v-4.559H415.366V557.536Zm791.908,136.287h-.063v-4.559H1019.208V557.536h188.066V693.822Zm0-144.178H1019.177V347.494h188.066Zm0-210.042H1019.177V137.452h188.066V339.634Z" transform="translate(0.41 0.343)" fill="#fff"/>
        </g>
      </g>
    </g>
    <g id="Camada_5" transform="translate(37.141 158.839)">
      <g id="Group_2777" data-name="Group 2777" transform="translate(19.07)">
        <path id="Path_6873" data-name="Path 6873" d="M53.091,450A12.069,12.069,0,0,1,41.05,437.924V79.115A15.638,15.638,0,0,1,56.644,63.49H437.334a15.638,15.638,0,0,1,15.625,15.594V437.924A12.076,12.076,0,0,1,440.887,450Z" transform="translate(-40.264 -62.704)" fill="#fff"/>
        <path id="Path_6874" data-name="Path 6874" d="M454.281,119.735H40.8V79.651A16.423,16.423,0,0,1,57.211,63.24H437.9a16.423,16.423,0,0,1,16.411,16.411v40.084Z" transform="translate(-40.8 -63.24)"/>
        <g id="Group_2773" data-name="Group 2773" transform="translate(23.579 19.586)">
          <path id="Path_6875" data-name="Path 6875" d="M69.54,78.147a8.677,8.677,0,1,1,8.677,8.677A8.694,8.694,0,0,1,69.54,78.147Z" transform="translate(-2.764 -69.47)" fill="#aab6c2"/>
          <path id="Path_6876" data-name="Path 6876" d="M58.92,78.147A8.677,8.677,0,1,1,67.6,86.824,8.694,8.694,0,0,1,58.92,78.147Z" transform="translate(-25.532 -69.47)" fill="#f40"/>
          <g id="Group_2772" data-name="Group 2772">
            <path id="Path_6877" data-name="Path 6877" d="M56.441,85.492A7.891,7.891,0,1,1,64.332,77.6,7.9,7.9,0,0,1,56.441,85.492Z" transform="translate(-47.764 -68.955)" fill="#fff"/>
            <path id="Path_6878" data-name="Path 6878" d="M56.977,71.042a7.105,7.105,0,1,1-7.105,7.105,7.118,7.118,0,0,1,7.105-7.105Zm0-1.572a8.677,8.677,0,1,0,8.677,8.677,8.694,8.694,0,0,0-8.677-8.677Z" transform="translate(-48.3 -69.47)"/>
          </g>
        </g>
        <path id="Path_6879" data-name="Path 6879" d="M74.73,238.447H246.039S223.561,161.8,154.207,161.8,74.73,238.447,74.73,238.447Z" transform="translate(31.941 148.059)" fill="#f40"/>
        <g id="Group_2774" data-name="Group 2774" transform="translate(276.482 162.203)">
          <path id="Path_6880" data-name="Path 6880" d="M157.909,137.6a3.252,3.252,0,0,0-1.949.44,8.623,8.623,0,0,1-7.451.534c-.692-.252-1.006.094-1.415.472-.5.44-.849,1.1-1.6,1.132-.063,2.672-1.7,63.915-1.981,74.227-.189,6.571-.44,13.141-.66,19.712h17.763c-.5-16.883-2.421-87.305-2.672-96.548Z" transform="translate(-98.501 -66.089)" fill="#9b9b9b"/>
          <path id="Path_6881" data-name="Path 6881" d="M148.913,168.28h17.763c2.515,0,5.062.031,7.577,0,.912,0,1.258.22,1.32,1.226.22,4.716.252,4.716-4.464,4.716-9.62,0-19.24-.031-28.829.031-1.7,0-2.358-.283-2.264-2.169.157-3.8.031-3.8,3.93-3.8h5Z" transform="translate(-104.595 -0.251)" fill="#232323"/>
          <path id="Path_6882" data-name="Path 6882" d="M143.671,146.467c-.063-.723,0-5.879-.031-6.6a12.075,12.075,0,0,1,.849-.943c.912-.943,1.54-1.792,3.364-1.132a7.157,7.157,0,0,0,6.193-.723,1.694,1.694,0,0,1,2.3.189c0,.723.063,5.91,0,6.634a3.654,3.654,0,0,0-2.075.44,8.623,8.623,0,0,1-7.451.534c-.692-.251-1.006.094-1.415.472-.5.44-.943,1.1-1.729,1.132Z" transform="translate(-96.807 -67.944)" fill="#232323"/>
          <path id="Path_6883" data-name="Path 6883" d="M178.776,216.411a48.636,48.636,0,1,1,48.636-48.636A48.691,48.691,0,0,1,178.776,216.411Zm0-93.5a44.863,44.863,0,1,0,44.863,44.863,44.908,44.908,0,0,0-44.863-44.863Z" transform="translate(-125.749 -105.601)" fill="#ff936b"/>
          <path id="Path_6884" data-name="Path 6884" d="M172.215,200.221a39.015,39.015,0,1,1,39.015-39.015A39.071,39.071,0,0,1,172.215,200.221Zm0-74.227a35.211,35.211,0,1,0,35.211,35.211A35.254,35.254,0,0,0,172.215,125.994Z" transform="translate(-119.189 -99.062)" fill="#ff936b"/>
          <path id="Path_6885" data-name="Path 6885" d="M234.241,204.2c-.6-.755-1.163-1.572-1.761-2.358-1.478-1.666-2.987-3.364-4.464-5.03l-4.464-4.087c-1.823-1.383-3.647-2.8-5.47-4.181a72.443,72.443,0,0,0-24.051-10.5c-.189-.031-.377-.252-.534-.157-5.407,3.93-12.733-4.873-8.74-10.469.063-9.62.063-19.209.094-28.829V120.8c0-.786-.063-1.6-.063-2.389a3.1,3.1,0,0,0-2.389-3.458c-1.572-.44-3.05.409-3.8,2.138-.6,1.352-1.1,2.7-1.666,4.056-.629,1.981-1.226,3.961-1.855,5.973a3.33,3.33,0,0,1-.314.377h0a29.224,29.224,0,0,1-1.1,5.91c-.251,2.075-.5,4.181-.755,6.256a74.3,74.3,0,0,0,3.238,26c.094.283.063.692.314.88,3.521,2.609,2.861,8.614.22,11.444a6.379,6.379,0,0,0-4.684.6q-12.167,7.357-24.3,14.682a3.92,3.92,0,0,1-.849.314,16.376,16.376,0,0,1-4.527,2.767,40.1,40.1,0,0,1-5.093,3.112,32.4,32.4,0,0,1-5.125,3.05c-.566.377-1.1.786-1.666,1.132a2.936,2.936,0,0,0-1.415,3.9,3.05,3.05,0,0,0,3.71,1.949c.975-.157,1.918-.251,2.892-.377,2.2-.5,4.37-.975,6.571-1.478l5.753-1.918c2.106-.912,4.213-1.823,6.319-2.767A72.622,72.622,0,0,0,175.1,187.037c.126-.126.251-.283.377-.409,1.823-1.572,4.339-3.584,3.993-5.69,3.615-.66,8.143.817,8.551,3.836q12.308,7.074,24.648,14.116a6.291,6.291,0,0,1,.692.6,18.072,18.072,0,0,1,4.621,2.609,36.766,36.766,0,0,1,5.187,2.955,32.52,32.52,0,0,1,5.156,3.018,19.178,19.178,0,0,1,1.792.912,2.915,2.915,0,0,0,4.087-.66,3.063,3.063,0,0,0-.094-4.181Z" transform="translate(-128.743 -114.833)" fill="#9b9b9b"/>
          <circle id="Ellipse_130" data-name="Ellipse 130" cx="10.438" cy="10.438" r="10.438" transform="translate(42.589 51.737)" fill="#9b9b9b"/>
        </g>
        <g id="Group_2775" data-name="Group 2775" transform="translate(177.94 118.464)">
          <path id="Path_6886" data-name="Path 6886" d="M138.4,132.885a4.416,4.416,0,0,0-2.735.629c-3.364,1.981-6.885,1.949-10.469.723-.975-.346-1.415.157-2.012.66-.692.629-1.195,1.54-2.264,1.6-.094,3.773-2.389,89.82-2.8,104.345-.251,9.243-.629,18.454-.943,27.7h24.962c-.692-23.736-3.4-122.674-3.773-135.658Z" transform="translate(-54.991 -32.441)" fill="#9b9b9b"/>
          <path id="Path_6887" data-name="Path 6887" d="M125.738,176.02H150.7c3.553,0,7.105.031,10.658,0,1.289,0,1.792.314,1.855,1.729.314,6.634.346,6.634-6.288,6.634-13.519,0-27.037-.063-40.524.063-2.389,0-3.3-.377-3.207-3.05.22-5.313.063-5.345,5.533-5.345h7.011Z" transform="translate(-63.55 60.082)" fill="#232323"/>
          <path id="Path_6888" data-name="Path 6888" d="M118.363,145.372c-.063-1.006,0-8.268-.063-9.274.377-.44.755-.912,1.163-1.352,1.289-1.32,2.169-2.515,4.716-1.6a10.141,10.141,0,0,0,8.708-1.006,2.369,2.369,0,0,1,3.207.251c-.031,1.038.094,8.3.031,9.337a4.848,4.848,0,0,0-2.892.629c-3.364,1.981-6.885,1.949-10.469.723-.975-.346-1.415.157-2.012.66-.692.629-1.352,1.541-2.452,1.6Z" transform="translate(-52.59 -35.088)" fill="#232323"/>
          <path id="Path_6889" data-name="Path 6889" d="M167.688,243.655a68.348,68.348,0,1,1,68.348-68.348,68.415,68.415,0,0,1-68.348,68.348Zm0-131.414a63.035,63.035,0,1,0,63.035,63.035A63.108,63.108,0,0,0,167.688,112.242Z" transform="translate(-93.238 -87.974)" fill="#ff936b"/>
          <path id="Path_6890" data-name="Path 6890" d="M158.448,220.865a54.8,54.8,0,1,1,54.8-54.8,54.863,54.863,0,0,1-54.8,54.8Zm0-104.313a49.516,49.516,0,1,0,49.516,49.516A49.57,49.57,0,0,0,158.448,116.552Z" transform="translate(-83.998 -78.734)" fill="#ff936b"/>
          <path id="Path_6891" data-name="Path 6891" d="M245.572,226.453c-.849-1.069-1.635-2.2-2.452-3.3-2.106-2.358-4.181-4.716-6.288-7.074-2.075-1.918-4.181-3.836-6.256-5.753-2.578-1.949-5.125-3.93-7.7-5.879a103.116,103.116,0,0,0-33.8-14.776c-.252-.063-.534-.346-.755-.22-7.608,5.533-17.889-6.854-12.261-14.682q.094-20.231.126-40.493V109.249c0-1.1-.094-2.232-.063-3.332.063-2.452-.912-4.181-3.332-4.842-2.232-.6-4.276.566-5.345,2.987-.817,1.886-1.54,3.8-2.326,5.722-.849,2.8-1.729,5.6-2.578,8.363-.157.189-.283.346-.44.534h.031a39.407,39.407,0,0,1-1.54,8.3l-1.038,8.771c-.5,12.45.692,24.679,4.559,36.563.126.409.063.975.409,1.226,4.967,3.678,4.024,12.072.314,16.1a8.8,8.8,0,0,0-6.571.849q-17.071,10.328-34.174,20.624a7.047,7.047,0,0,1-1.226.44,24.672,24.672,0,0,1-6.382,3.9,51.944,51.944,0,0,1-7.168,4.37,45.249,45.249,0,0,1-7.231,4.307c-.786.534-1.54,1.1-2.326,1.6-2.138,1.32-2.892,3.144-1.981,5.47s2.767,3.112,5.187,2.735c1.352-.22,2.7-.377,4.087-.534l9.243-2.075,8.08-2.672,8.866-3.867a101.791,101.791,0,0,0,29.3-22.384c.157-.189.346-.377.534-.566,2.578-2.2,6.1-5.062,5.628-8.017,5.093-.912,11.412,1.132,12.041,5.407q17.307,9.9,34.645,19.869a6.291,6.291,0,0,1,.975.849,24.64,24.64,0,0,1,6.508,3.678,50.672,50.672,0,0,1,7.294,4.15,46.446,46.446,0,0,1,7.262,4.213c.849.409,1.7.786,2.515,1.258,2.169,1.226,4.15,1.006,5.753-.943s1.383-3.93-.126-5.879Z" transform="translate(-97.399 -100.921)" fill="#9b9b9b"/>
          <circle id="Ellipse_131" data-name="Ellipse 131" cx="14.682" cy="14.682" r="14.682" transform="translate(59.768 72.621)" fill="#9b9b9b"/>
        </g>
        <path id="Path_6892" data-name="Path 6892" d="M92.318,120.14c.534-10.343,10.029-19.9,20.467-20.655,1.635-.126,2.2.283,2.044,2.012-.88,10.626-10.092,19.806-20.624,20.5-1.918.126-2.012.031-1.918-1.855Z" transform="translate(69.528 14.418)" fill="#f40"/>
        <path id="Path_6893" data-name="Path 6893" d="M154.394,169.89c.283,1.823-1.163,1.32-2.138,1.226a22.781,22.781,0,0,1-19.964-17.92c-1.006-4.9-.817-5.156,4.118-4.118A22.727,22.727,0,0,1,154.394,169.89Z" transform="translate(154.303 119.723)" fill="#f40"/>
        <path id="Path_6894" data-name="Path 6894" d="M78.293,113.921c10.563.314,20.529,10.312,20.97,20.812.063,1.289-.22,1.792-1.635,1.729-10.406-.283-20.781-10.658-20.938-20.97,0-1.446.472-1.823,1.6-1.6Z" transform="translate(36.143 45.221)" fill="#f40"/>
        <g id="Group_2776" data-name="Group 2776" transform="translate(90.421 269.272)">
          <path id="Path_6895" data-name="Path 6895" d="M155.92,239.345c-2.672,0-5.313,0-7.985.031a6.311,6.311,0,0,1,.6-2.955c1.509-4.59,3.018-9.211,4.621-13.8.566-1.6.189-2.075-1.478-2.044-3.93.063-7.828,0-11.758.031-2.735.063-6.1-1.1-7.985.472-1.761,1.446-2.044,4.747-2.8,7.294-1.1,3.647-2.829,7.137-3.332,10.972-2.672,0-5.313,0-7.985.031a6.311,6.311,0,0,1,.6-2.955c1.509-4.59,3.018-9.211,4.621-13.8.566-1.6.189-2.075-1.478-2.044-3.93.063-7.828,0-11.758.031-2.735.063-6.1-1.1-7.985.472-1.761,1.446-2.044,4.747-2.8,7.294-1.1,3.647-2.829,7.137-3.332,10.972-2.672,0-5.313,0-7.985.031a7.381,7.381,0,0,1,.66-3.175c1.635-5.062,3.3-10.092,4.936-15.122-.692-.786-1.6-.44-2.421-.44H73.959c-.817,0-1.761.283-2.389-.534a41.872,41.872,0,0,1,2.389-7.011c6.728,0,13.456,0,20.184.063a2.225,2.225,0,0,0,2.515-1.823c1.132-3.647,2.358-7.294,3.647-10.878.66-1.792.44-2.484-1.7-2.452-5.722.126-11.444.063-17.134,0-.817,0-1.761.283-2.389-.534a41.872,41.872,0,0,1,2.389-7.011c6.728,0,13.456,0,20.184.063a2.225,2.225,0,0,0,2.515-1.823c1.132-3.647,2.358-7.294,3.647-10.878.66-1.792.44-2.484-1.7-2.452-5.722.126-11.444.063-17.134,0-.817,0-1.761.283-2.389-.534a41.874,41.874,0,0,1,2.389-7.011c6.665,0,13.33-.031,19.995.063a2.48,2.48,0,0,0,2.8-2.075c1.761-5.6,3.678-11.129,5.5-16.694h7.954c-1.855,5.628-3.71,11.286-5.6,16.914-.5,1.446-.22,1.918,1.383,1.886,6.036-.063,12.072-.094,18.109,0a2.5,2.5,0,0,0,2.8-2.106c1.761-5.6,3.678-11.129,5.5-16.694.472-.031.912-.094,1.383-.126,2.2.031,4.37.094,6.571.126-1.855,5.565-3.678,11.129-5.533,16.694-.44,1.352-.629,2.138,1.32,2.106,6.131-.094,12.23-.063,18.36,0a2.11,2.11,0,0,0,2.389-1.7c1.823-5.722,3.741-11.444,5.628-17.166h8.017c-.755,3.332-2.547,6.382-2.829,9.872h0l-.472.472c-.755,2.2-1.446,4.4-2.326,6.571-.66,1.666,0,1.949,1.509,1.949,6-.063,12.041-.063,18.046,0a2.381,2.381,0,0,0,2.641-1.981c1.792-5.659,3.71-11.255,5.6-16.883h3.993c4.056,0,3.993,0,2.767,3.867-1.918,6.1-4.307,12.041-5.879,18.234a31.429,31.429,0,0,0-2.358,7.105,44.877,44.877,0,0,0-2.609,7.482c-.755,2.326-1.509,4.653-2.3,7.011-4.967,14.713-9.966,29.427-14.808,44.2-.66,1.949-1.478,2.829-3.584,2.578a43.1,43.1,0,0,0-4.936-.094,6.311,6.311,0,0,1,.6-2.955c1.509-4.59,3.018-9.211,4.621-13.8.566-1.6.189-2.075-1.478-2.043-3.93.063-7.828,0-11.758.031-2.735.063-6.1-1.1-7.985.472-1.761,1.446-2.044,4.747-2.8,7.294-1.1,3.647-2.829,7.137-3.332,10.972Zm-12.23-53.6-.472.472c-.692.472-.409,1.289-.723,1.918-.849,1.7-.534,2.421,1.6,2.358,5.942-.126,11.884-.063,17.826,0,1.226,0,2.044-.22,2.484-1.541,1.226-3.93,2.515-7.891,3.9-11.758.534-1.509,0-1.792-1.352-1.761-2.735.031-5.47,0-8.206,0h-10.28c-.723,0-1.635-.283-1.949.786-.943,3.175-2.515,6.193-2.829,9.557h0ZM125.8,198H110.994c-.786,0-1.761-.377-2.169.817-1.446,4.37-2.892,8.74-4.4,13.11-.409,1.226.377,1.069,1.1,1.1,6.256,0,12.481,0,18.737.063a2.2,2.2,0,0,0,2.515-1.792c.817-2.767,1.823-5.47,2.735-8.206q1.7-5.124-3.741-5.093Zm-3.05-7.545c3.05,0,6.131-.063,9.18,0a2.08,2.08,0,0,0,2.389-1.666c1.226-3.867,2.484-7.734,3.836-11.569.6-1.635-.063-1.886-1.446-1.855q-9.29.047-18.58,0a1.821,1.821,0,0,0-2.012,1.478c-1.289,4.024-2.609,8.017-3.993,12.01-.472,1.32-.063,1.635,1.226,1.635,3.144-.063,6.256,0,9.4,0ZM187.924,175.4c-3.05,0-6.1.063-9.18,0-1.258-.031-2.012.251-2.421,1.572-1.226,3.961-2.547,7.891-3.93,11.789-.472,1.383-.126,1.761,1.289,1.761q9.29-.094,18.58,0a2.15,2.15,0,0,0,2.326-1.761c1.195-3.8,2.421-7.608,3.8-11.349.629-1.729,0-2.043-1.54-1.981-2.987.063-5.942,0-8.929,0Zm-42.6,37.664c3.05,0,6.1-.063,9.18,0a2.115,2.115,0,0,0,2.421-1.635c1.226-3.867,2.484-7.734,3.836-11.569.566-1.6.031-1.918-1.415-1.886q-9.29.047-18.58,0a1.791,1.791,0,0,0-2.012,1.446c-1.289,4.024-2.609,8.017-3.993,12.01-.44,1.258-.157,1.666,1.195,1.635,3.144-.063,6.256,0,9.4,0Zm29.992,0c3.05,0,6.1-.063,9.18,0a2.2,2.2,0,0,0,2.578-1.729c1.163-3.8,2.421-7.608,3.773-11.349.6-1.635.126-2.044-1.509-2.044-6.1.063-12.23.063-18.329,0a1.941,1.941,0,0,0-2.2,1.541c-1.258,3.961-2.578,7.891-3.93,11.789-.44,1.32-.251,1.823,1.258,1.792,3.05-.094,6.1,0,9.18,0Z" transform="translate(-65.254 -148.676)" fill="#9b9b9b"/>
          <path id="Path_6896" data-name="Path 6896" d="M115.181,180.181c0,3.05.157,6.131.031,9.18-.094,1.855.566,2.232,2.264,2.169,3.678-.126,7.357,0,11.066-.063,1.258,0,1.761.283,1.823,1.666.189,5.879.252,5.879-5.6,5.879-12.387,0-24.774-.031-37.16.031-1.855,0-2.609-.314-2.547-2.389.126-5.187,0-5.187,5.125-5.187,2.578,0,5.187-.094,7.765.031,1.7.094,2.358-.346,2.264-2.169-.126-3.05,0-6.1.031-9.18h14.9Z" transform="translate(-36.336 -81.873)" fill="#9b9b9b"/>
          <path id="Path_6897" data-name="Path 6897" d="M105.425,149.116c-1.855,5.565-3.773,11.129-5.5,16.694a2.435,2.435,0,0,1-2.8,2.075c-6.665-.094-13.33-.063-19.995-.063,1.918-5.879,3.836-11.727,5.69-17.606.346-1.037.975-1.226,1.949-1.226,6.885.063,13.77.063,20.655.094Z" transform="translate(-53.334 -148.676)" fill="#232323"/>
          <path id="Path_6898" data-name="Path 6898" d="M98.421,190.741c.534-3.836,2.232-7.294,3.332-10.972.786-2.547,1.069-5.848,2.8-7.294,1.886-1.541,5.282-.409,7.985-.472,3.93-.063,7.828.031,11.758-.031,1.666-.031,2.044.44,1.478,2.044-1.6,4.559-3.112,9.18-4.621,13.8a6.391,6.391,0,0,0-.6,2.955q-11.082,0-22.164-.031Z" transform="translate(-7.756 -100.072)" fill="#1a1a1a"/>
          <path id="Path_6899" data-name="Path 6899" d="M114.817,149.03c-1.855,5.565-3.741,11.1-5.5,16.694-.472,1.509-1.132,2.138-2.8,2.106q-9.054-.141-18.109,0c-1.6,0-1.855-.44-1.383-1.886,1.918-5.628,3.741-11.255,5.6-16.914h22.164Z" transform="translate(-32.577 -148.59)" fill="#232323"/>
          <path id="Path_6900" data-name="Path 6900" d="M88.863,190.741c.534-3.836,2.232-7.294,3.332-10.972.786-2.547,1.069-5.848,2.8-7.294,1.886-1.541,5.282-.409,7.985-.472,3.93-.063,7.828.031,11.758-.031,1.666-.031,2.044.44,1.478,2.044-1.6,4.559-3.112,9.18-4.621,13.8a6.391,6.391,0,0,0-.6,2.955c-1.258,0-2.484.063-3.741.063H92.07c-1.1-.031-2.169-.094-3.27-.126Z" transform="translate(-28.316 -100.072)" fill="#1a1a1a"/>
          <path id="Path_6901" data-name="Path 6901" d="M79.251,190.741c.534-3.836,2.232-7.294,3.332-10.972.786-2.547,1.069-5.848,2.8-7.294,1.886-1.541,5.282-.409,7.985-.472,3.93-.063,7.828.031,11.758-.031,1.666-.031,2.044.44,1.478,2.044-1.6,4.559-3.112,9.18-4.621,13.8a6.391,6.391,0,0,0-.6,2.955q-11.082,0-22.164-.031Z" transform="translate(-48.854 -100.072)" fill="#1a1a1a"/>
          <path id="Path_6902" data-name="Path 6902" d="M79.855,157.22c.66.817,1.572.534,2.389.534,5.722,0,11.444.094,17.134,0,2.138-.031,2.358.629,1.7,2.452-1.32,3.584-2.515,7.231-3.647,10.878a2.225,2.225,0,0,1-2.515,1.823c-6.728-.063-13.456-.031-20.184-.063,1.7-5.187,3.427-10.406,5.124-15.594Z" transform="translate(-58.48 -131.032)" fill="#232323"/>
          <path id="Path_6903" data-name="Path 6903" d="M77.465,164.41c.66.817,1.572.534,2.389.534,5.722,0,11.444.094,17.134,0,2.138-.031,2.358.629,1.7,2.452-1.32,3.584-2.515,7.231-3.647,10.878a2.225,2.225,0,0,1-2.515,1.823c-6.728-.063-13.456-.031-20.184-.063,1.7-5.187,3.427-10.406,5.124-15.594Z" transform="translate(-63.604 -115.617)" fill="#232323"/>
          <path id="Path_6904" data-name="Path 6904" d="M75.877,171.611c.66.817,1.572.534,2.389.534H95.18c.817,0,1.729-.314,2.421.44a6.254,6.254,0,0,0-1.069.409c-6.382,4.339-12.8,8.677-19.146,13.078-2.232,1.541-4.4,3.207-6.571,4.81-1.918.346-1.132-.88-.88-1.635q2.405-7.309,4.873-14.619c.346-1.037.723-2.044,1.069-3.05Z" transform="translate(-69.561 -100.246)" fill="#232323"/>
          <path id="Path_6905" data-name="Path 6905" d="M69.96,190.217c2.2-1.6,4.339-3.27,6.571-4.81,6.351-4.37,12.764-8.708,19.146-13.078a4.415,4.415,0,0,1,1.069-.409c-1.666,5.03-3.3,10.092-4.936,15.122a6.565,6.565,0,0,0-.66,3.175Z" transform="translate(-68.706 -99.517)" fill="#1a1a1a"/>
          <path id="Path_6906" data-name="Path 6906" d="M89.85,177.77h15.185c-.031,2.515-.094,5-.126,7.514h-14.9c-.031-2.515-.094-5-.126-7.514Z" transform="translate(-26.065 -86.975)" fill="#232323"/>
          <path id="Path_6907" data-name="Path 6907" d="M102.221,149.33c.629-.063,1.258-.094,1.918-.157,2.044,0,4.118.377,6.131-.283,3.05.755,6.162.189,9.212.346,1.635.063,3.27,0,4.9,0-1.886,5.722-3.8,11.444-5.628,17.166a2.135,2.135,0,0,1-2.389,1.7c-6.131-.063-12.23-.094-18.36,0-1.949.031-1.761-.755-1.32-2.106,1.886-5.565,3.71-11.129,5.533-16.694Z" transform="translate(-12.027 -148.89)" fill="#232323"/>
          <path id="Path_6908" data-name="Path 6908" d="M134.029,149.1c-1.886,5.628-3.8,11.224-5.6,16.883a2.34,2.34,0,0,1-2.641,1.981c-6-.063-12.041-.063-18.046,0-1.54,0-2.169-.283-1.509-1.949.849-2.138,1.54-4.37,2.326-6.571l.472-.472h0A100.681,100.681,0,0,0,119.5,152.02c1.163-.817,2.829-1.132,3.238-2.829,3.71-.063,7.42-.126,11.129-.22.063.031.157.094.22.126Z" transform="translate(8.51 -148.718)" fill="#1a1a1a"/>
          <path id="Path_6909" data-name="Path 6909" d="M95.216,172.492c-3.144,0-6.256-.031-9.4,0-1.289,0-1.666-.314-1.226-1.635,1.383-3.993,2.7-7.985,3.993-12.01a1.821,1.821,0,0,1,2.012-1.478c6.193.063,12.387.031,18.58,0,1.415,0,2.044.22,1.446,1.855-1.383,3.836-2.641,7.7-3.836,11.569a2.08,2.08,0,0,1-2.389,1.666c-3.05-.063-6.1,0-9.18,0Z" transform="translate(-37.719 -130.71)" fill="#232323"/>
          <path id="Path_6910" data-name="Path 6910" d="M119.315,157.413c2.987,0,5.942.063,8.929,0,1.54-.031,2.169.251,1.54,1.981-1.352,3.741-2.578,7.545-3.8,11.349a2.064,2.064,0,0,1-2.326,1.761q-9.29-.094-18.58,0c-1.415,0-1.792-.346-1.289-1.761,1.352-3.9,2.672-7.828,3.93-11.789.409-1.32,1.163-1.6,2.421-1.572,3.05.094,6.1,0,9.18,0Z" transform="translate(3.355 -130.69)" fill="#1a1a1a"/>
          <path id="Path_6911" data-name="Path 6911" d="M102.386,179.661c-3.144,0-6.256-.031-9.4,0-1.352,0-1.635-.409-1.195-1.635,1.383-3.993,2.7-7.985,3.993-12.01A1.791,1.791,0,0,1,97.8,164.57q9.29.094,18.58,0c1.478,0,2.012.314,1.415,1.886-1.383,3.836-2.641,7.7-3.836,11.569a2.09,2.09,0,0,1-2.421,1.635c-3.05-.063-6.1,0-9.18,0Z" transform="translate(-22.315 -115.274)" fill="#1a1a1a"/>
          <path id="Path_6912" data-name="Path 6912" d="M111.829,179.682c-3.05,0-6.1-.063-9.18,0-1.509.031-1.7-.472-1.258-1.792,1.352-3.9,2.672-7.86,3.93-11.789a1.941,1.941,0,0,1,2.2-1.541c6.1.063,12.23.063,18.329,0,1.635,0,2.075.377,1.509,2.044-1.352,3.741-2.609,7.545-3.773,11.349a2.2,2.2,0,0,1-2.578,1.729c-3.05-.063-6.1,0-9.18,0Z" transform="translate(-1.766 -115.296)" fill="#1a1a1a"/>
          <path id="Path_6913" data-name="Path 6913" d="M110.682,157.421h8.206c1.32,0,1.886.283,1.352,1.761-1.383,3.9-2.672,7.828-3.9,11.758-.409,1.32-1.226,1.572-2.484,1.54-5.942-.031-11.884-.094-17.826,0-2.138.031-2.452-.66-1.6-2.358.314-.629,0-1.446.723-1.918l.472-.472h0a123.975,123.975,0,0,0,15.059-10.343Z" transform="translate(-17.187 -130.667)" fill="#1a1a1a"/>
          <path id="Path_6914" data-name="Path 6914" d="M102.626,164.6q5.439-.063,3.741,5.093c-.912,2.735-1.918,5.439-2.735,8.206a2.173,2.173,0,0,1-2.515,1.792c-6.256-.063-12.481-.031-18.737-.063,0-.975.786-1.258,1.415-1.7,5.722-3.93,11.412-7.86,17.134-11.789a4.019,4.019,0,0,0,1.666-1.572Z" transform="translate(-42.079 -115.274)" fill="#1a1a1a"/>
          <path id="Path_6915" data-name="Path 6915" d="M103.432,164.6a4.215,4.215,0,0,1-1.666,1.572c-5.722,3.9-11.412,7.86-17.134,11.789-.629.44-1.415.723-1.415,1.7-.723,0-1.509.126-1.1-1.1,1.478-4.37,2.924-8.74,4.4-13.11.409-1.195,1.383-.817,2.169-.817h14.808Z" transform="translate(-42.885 -115.27)" fill="#232323"/>
          <path id="Path_6916" data-name="Path 6916" d="M109.569,157.414A133.05,133.05,0,0,1,94.51,167.757c.314-3.364,1.918-6.382,2.829-9.557.314-1.069,1.226-.755,1.949-.786Z" transform="translate(-16.074 -130.659)" fill="#232323"/>
          <path id="Path_6917" data-name="Path 6917" d="M120.637,149.094c-.409,1.7-2.075,2.012-3.238,2.829a92.953,92.953,0,0,1-10.469,6.948c.314-3.49,2.075-6.539,2.829-9.872H116.9l3.71.094Z" transform="translate(10.553 -148.654)" fill="#232323"/>
          <path id="Path_6918" data-name="Path 6918" d="M94.832,160.68l-.472.472Z" transform="translate(-16.396 -123.614)" fill="#60d0df"/>
          <path id="Path_6919" data-name="Path 6919" d="M107.262,152.14l-.472.472Z" transform="translate(10.253 -141.922)" fill="#60d0df"/>
        </g>
        <path id="Path_6920" data-name="Path 6920" d="M114.59,104.892l.377-.472Z" transform="translate(117.396 25.044)" fill="#fefefe"/>
        <path id="Path_6921" data-name="Path 6921" d="M163.825,177.832c-1.163,1.446-1.761,0-2.358-.755a22.789,22.789,0,0,1-.094-26.817c2.987-4.056,3.3-4.056,5.848.283a22.7,22.7,0,0,1-3.4,27.289Z" transform="translate(208.44 116.874)" fill="#f40"/>
        <path id="Path_6922" data-name="Path 6922" d="M115.2,230.151H282.674a11.311,11.311,0,0,0,11.318-11.318V201.227c-5.942-17.134-41.971-35.557-81.615-35.557-74.2,0-97.177,64.481-97.177,64.481Z" transform="translate(118.704 156.356)" fill="#f40"/>
        <path id="Path_6923" data-name="Path 6923" d="M437.87,64.843a14.84,14.84,0,0,1,14.839,14.808V438.492a11.264,11.264,0,0,1-11.255,11.255H53.627a11.284,11.284,0,0,1-11.255-11.255V79.651A14.84,14.84,0,0,1,57.18,64.812H437.87Zm0-1.572H57.18A16.4,16.4,0,0,0,40.8,79.682V438.492A12.867,12.867,0,0,0,53.627,451.35h387.8a12.874,12.874,0,0,0,12.858-12.858V79.62A16.4,16.4,0,0,0,437.87,63.24h0Z" transform="translate(-40.8 -63.24)"/>
        <circle id="Ellipse_132" data-name="Ellipse 132" cx="32.476" cy="32.476" r="32.476" transform="translate(33.168 86.016)" fill="#f40"/>
      </g>
      <g id="Group_2786" data-name="Group 2786" transform="translate(326.002 21.138)">
        <path id="Path_6924" data-name="Path 6924" d="M138.558,106.185a2.321,2.321,0,0,1,1.918-1.666,4.729,4.729,0,0,1-1.163-3.71c.409-1.761,1.572-1.981,3.144-1.886a2.7,2.7,0,0,1,.849.157.517.517,0,0,1,.063-.314,1.268,1.268,0,0,1,1.037-.849c2.515-.409,5.093.755,7.262,1.823,6.476,3.207,10.06,3.018,12.513,2.2-1.635-1.855-1.918-2.358-3.521-2.672a2.538,2.538,0,0,1-1.981-1.666c-.283-1.163.472-1.635,1.289-1.949,1.383-.534,4.244-.126,5.785,0,1.1.094,2.892,1.6,3.836,2.326,2.515,1.855,3.961,3.018,4.747,5.407.943,2.861,6.193,3.521,6.193,3.521l-3.018,10.155s-12.953-1.7-16.914-1.1c-6.822.943-14.336.346-14.745-3.27-4.307-1.006-8.363-2.955-7.231-6.539Z" transform="translate(-138.429 -15.464)" fill="#fff" stroke="#000" stroke-width="0.5"/>
        <g id="Group_2778" data-name="Group 2778" transform="translate(178.987 440.451)">
          <path id="Path_6925" data-name="Path 6925" d="M195.835,211.741c1.446-2.075,18.517-1.572,18.737-.566.723,3.081,2.358,15,.849,16.694-1.478,1.635-14.588,7.985-15.122,5-.472-2.609-5.848-19.115-4.464-21.1Z" transform="translate(-194.832 -209.547)" fill="#fff"/>
          <path id="Path_6926" data-name="Path 6926" d="M202.211,234.923a3.6,3.6,0,0,1-.88-.094,1.64,1.64,0,0,1-1.289-1.32c-.126-.66-.629-2.452-1.195-4.5-2.892-10.218-4.15-15.688-3.144-17.166h0c1.635-2.389,15.373-1.886,18.517-1.289.755.157,1.478.346,1.635.975.283,1.226,2.735,15.059.66,17.386-1.32,1.509-10.406,6.036-14.336,6.036ZM197.024,212.7c-.723,1.352,2.138,11.507,3.333,15.845.629,2.264,1.1,3.93,1.226,4.653a1.346,1.346,0,0,0,.692.157c3.4,0,12.072-4.4,13.078-5.533,1.037-1.163,0-11.349-.943-15.688-2.389-.849-16.222-.817-17.417.534Z" transform="translate(-195.361 -210.062)"/>
        </g>
        <path id="Path_6927" data-name="Path 6927" d="M232.974,214.711s8.331,11.381,3.333,20.561c0,0-32.759,1.7-45.24.6,0,0-8.426-10.438,2.043-12.45s20.5-4.622,20.5-4.622,12.23,4.747,19.366-4.118Z" transform="translate(-32.454 240.289)"/>
        <g id="Group_2779" data-name="Group 2779" transform="translate(118.48 441.289)">
          <path id="Path_6928" data-name="Path 6928" d="M177.294,211.459c1.572-1.949,18.58-.189,18.737.817.5,3.144,1.226,15.122-.409,16.694-1.572,1.509-18.549,1.352-18.863-1.7-.252-2.641-.975-13.959.534-15.845Z" transform="translate(-175.58 -209.788)" fill="#fff"/>
          <path id="Path_6929" data-name="Path 6929" d="M189.052,231.24c-3.8,0-8.048-.409-10.28-1.258-.534-.189-2.106-.786-2.264-2.075,0-.126-1.258-13.959.723-16.411h0c1.823-2.232,15.468-.723,18.58.094.723.189,1.446.44,1.572,1.1.346,2.075,1.478,15.374-.66,17.386-.786.786-4.024,1.163-7.64,1.163ZM178.458,212.5c-1.1,1.383-.817,10.815-.377,15.279,0,.063.189.346.943.66,4.276,1.792,15.5,1.446,16.6.534,1.132-1.1.849-11.318.22-15.719-2.326-1.037-16.159-2.012-17.417-.755Z" transform="translate(-176.115 -210.329)"/>
        </g>
        <path id="Path_6930" data-name="Path 6930" d="M214.256,215.27s7.765,11.286,2.106,20.089c0,0-33.1-.094-45.46-2.106,0,0-7.64-11.066,2.987-12.261,10.595-1.195,20.781-3.081,20.781-3.081s11.852,5.659,19.618-2.641Z" transform="translate(-74.508 241.554)"/>
        <path id="Path_6931" data-name="Path 6931" d="M185.788,401.741l11.758,1.195,15.5,1.572h.031a1.838,1.838,0,0,1,.157-.409s0-.031.063-.063c1.352-3.05-.126-28.389-.283-49.484-.126-26.251,11.286-63.192,13.2-88.971.189-2.169.346-4.15.5-6,1.037-12.953,11.255-37.884,19.586-59.262,1.195-3.112,2.389-6.162,3.458-9.054,5.407-14.367,9.023-25.78,6.728-28.358-5.942-6.728-39.361-55.9-59.545-33.2C173.9,155.7,170.1,223.609,170.1,260.2s9.84,104.942,15.688,141.568Z" transform="translate(-70.53 45.368)"/>
        <path id="Path_6932" data-name="Path 6932" d="M178.947,363.245l15.5,1.572h.031a1.836,1.836,0,0,1,.157-.409s0-.031.063-.063c1.6-2.735.692-19.586,4.213-52.377,2.829-26.126,6.445-60.3,8.708-86.079.189-2.169.346-4.15.5-6,1.037-12.953,11.255-37.884,19.586-59.262,1.195-3.112,2.389-6.162,3.458-9.054-.189-.157-.409-.283-.629-.44a1.96,1.96,0,0,0-1.855-.157c-5.156-6.885-16.285-13.644-22.2-3.615-3.3,5.628.472,12.261.817,18.077.723,11.758-6.7,22.321-11.286,32.6-16.348,36.689-3.081,77.15-7.545,115.474-2.3,20.058-11.1,29.238-9.526,49.736Z" transform="translate(-51.963 85.059)"/>
        <path id="Path_6933" data-name="Path 6933" d="M191.654,279.859c-.346,36.595-1.478,98.466,13.424,126.981,0,0,20.687.377,21.127-1.6,2.7-12.638,5.156-49.579,7.954-73.881,6.319-54.8,7.262-42.757,10.092-66.744,5.69-48.29,20.907-70.863,13.2-107.74-.534-2.578-1.195-5.187-1.949-7.923-1.823-6.445-11.475-17.763-14.808-25.308-.5-1.069-30.307-.912-44.989,11.381-1.572,1.289-3.49,88-4.056,144.838Z" transform="translate(-24.68 44.231)"/>
        <path id="Path_6934" data-name="Path 6934" d="M252.354,119.279c-4.056.5-13.267,2.955-17.2-4.747-1.478-2.892-1.666-7.954-1.949-11.381-.409-4.873-.44-9.777-1.446-14.588-1.226-5.91-3.678-12.261-8.771-15.939-8.048-5.848-23.327-1.446-27.6,7.262a4.55,4.55,0,0,0,.66,2.641c4.9,5.753,10.595,5.942,12.481,15.279.975,4.81-.283,9.872-.189,14.713.189,8.866,3.553,18.737,11.161,23.988,12.2,8.426,32.759-1.54,35.809-15.216.409-1.792-1.6-2.641-2.955-1.949Z" transform="translate(-16.78 -69.964)"/>
        <path id="Path_6935" data-name="Path 6935" d="M192.449,148.26c-19.649-7.545-42.819-17.669-42.819-17.669l7.074-16.914c.44.786,60.425,9.557,66.933,7.765,2.861-.755,29.018-39.644,60.237-29.3,6.7,2.2,4.716,2.515,3.207,9.4-3.05,13.927-22.321,39.393-41,49.642-22.007,12.072-31.879,5.376-53.634-2.987Z" transform="translate(-114.415 -26.164)" fill="#f40"/>
        <path id="Path_6936" data-name="Path 6936" d="M180.006,99.84s-.88,17.511,5.848,28.138c0,0,10.469-6.256,13.613-13.141S180.006,99.84,180.006,99.84Z" transform="translate(-49.375 -5.913)"/>
        <path id="Path_6937" data-name="Path 6937" d="M295.949,217.46a72.636,72.636,0,0,1-20.907,7.482C231.72,233.62,175.13,212.65,175.13,212.65s12.45-18.8,22.887-38.575c1.006-1.823,1.918-3.615,2.861-5.47,4.59-9.086,3.584-15.059.817-20.372-3.773-7.325-10.909-13.33-11.381-24.459-.786-19.24,40.179-35.306,40.179-35.306,61.4-3.678,46.906,32.35,41.027,61.525-.534,2.672-1.006,5.25-1.32,7.734-.063.534-.126,1.132-.157,1.666-.063.723-.126,1.415-.157,2.169-1.132,28.7,26.031,55.9,26.031,55.9Z" transform="translate(-59.747 -30.852)" fill="#f40"/>
        <path id="Path_6938" data-name="Path 6938" d="M216.632,155.511c0-.5.063-.975.094-1.478.063-.786.094-1.572.189-2.358.314-2.515,6.634-30.307,6.917-37.192-1.666-3.112-7.042,18.014-11.286,14.085C201.384,118,202.767,91.03,202.767,91.03c-2.547,12.953-4.59,38.418-.283,46.341.943,1.7,4.213,8.237,4.4,8.551,3.144,9.746.849,19.523,1.352,29.521.472,8.771,3.553,16.914,6.7,25.057,1.7,4.276,3.553,13.613,6.791,18.423a72.3,72.3,0,0,0,20.907-7.482s-27.163-27.194-26.031-55.9Z" transform="translate(-6.461 -24.8)"/>
        <g id="Group_2780" data-name="Group 2780" transform="translate(162.279 41.613)">
          <path id="Path_6939" data-name="Path 6939" d="M191.6,90.078v10.878s-2.924,5.345,0,5.942c6.414,1.289,15.688-8.74,15.688-8.74V83.57Z" transform="translate(-189.51 -82.407)" fill="#fff"/>
          <path id="Path_6940" data-name="Path 6940" d="M193.3,108.571a6.072,6.072,0,0,1-1.32-.126,2.246,2.246,0,0,1-1.666-1.258c-.849-1.792.6-4.81,1.037-5.659V90.337l17.26-7.137V99.265l-.22.22C208.009,99.894,199.9,108.571,193.3,108.571Zm-.377-17.2-.094,10.721c-.692,1.289-1.509,3.521-1.1,4.4.063.157.189.314.566.377,5.439,1.1,13.361-6.822,14.745-8.268V85.526l-14.116,5.848Z" transform="translate(-190.047 -83.2)"/>
        </g>
        <g id="Group_2781" data-name="Group 2781" transform="translate(152.426 16.745)">
          <path id="Path_6941" data-name="Path 6941" d="M194.448,75.55s-5.785,11.727-7.231,22.636c-1.038,7.765,13.173,17.983,24.711,7.074,11.569-10.909,8.363-27.6,8.363-27.6l-25.843-2.075Z" transform="translate(-186.376 -74.733)" fill="#fff"/>
          <path id="Path_6942" data-name="Path 6942" d="M201.366,111.382a15.2,15.2,0,0,1-7.074-1.761c-4.842-2.484-7.828-6.979-7.325-10.972,1.446-10.909,7.231-22.762,7.294-22.887l.252-.472,26.974,2.169.126.6c.031.157,3.144,17.228-8.583,28.326a16.9,16.9,0,0,1-11.664,4.967Zm-5.91-34.425c-1.069,2.3-5.659,12.481-6.917,21.913-.44,3.3,2.295,7.231,6.476,9.369,5.6,2.861,11.915,1.761,16.945-2.987,9.9-9.369,8.614-23.3,8.206-26.314l-24.679-2.012Z" transform="translate(-186.912 -75.29)"/>
        </g>
        <path id="Path_6943" data-name="Path 6943" d="M189.371,81.172c.786-.5,1.823-.534,2.578-1.006,2.358-1.509,1.383-2.232,2.735-3.741a9.285,9.285,0,0,1,3.93-2.735c4.213-1.572,9.086-.943,13.33.063a1.63,1.63,0,0,1,1.006,2.515c4.213.849,8.771,4.842,10.563,7.577,3.553,5.407,4.024,14.462.377,19.995-2.829,4.339-8.206,7.891-11.066,2.138-2.2-4.4-1.823-8.488-1.478-13.2a21.393,21.393,0,0,0,0-4.5c-2.264-3.112-5.376-5.282-8.866-5.313-.88.88-1.6,2.2-2.452,3.081a12.477,12.477,0,0,1-4.37,3.05c-2.578,1.069-6.13,1.289-7.923-1.289a4.653,4.653,0,0,1,1.6-6.634Z" transform="translate(-34.437 -64.018)"/>
        <g id="Group_2782" data-name="Group 2782" transform="translate(174.473 28.536)">
          <path id="Path_6944" data-name="Path 6944" d="M194.733,79.927s4.653-2.169,5.565,1.572-2.484,5.942-4.276,5.25-2.389-5.25-1.32-6.822Z" transform="translate(-193.398 -78.481)" fill="#fff"/>
          <path id="Path_6945" data-name="Path 6945" d="M197.3,88.22a2.723,2.723,0,0,1-1.006-.189,3.793,3.793,0,0,1-1.981-2.578c-.534-1.666-.6-4.15.283-5.439l.126-.189.189-.094s2.829-1.289,4.842-.346a3.538,3.538,0,0,1,1.855,2.421,5.079,5.079,0,0,1-1.509,5.187,4.3,4.3,0,0,1-2.8,1.163Zm-1.478-7.105a6.28,6.28,0,0,0,0,3.9,1.745,1.745,0,0,0,3.238.88,3.527,3.527,0,0,0,1.006-3.647,1.9,1.9,0,0,0-1.006-1.383,4.765,4.765,0,0,0-3.27.252Z" transform="translate(-193.925 -79.04)"/>
        </g>
        <path id="Path_6946" data-name="Path 6946" d="M207.589,81.4c-1.761-4.653-6.036-7.042-10.5-8.646-2.326-.817-3.93,2.672-1.6,3.49,3.427,1.226,7.105,2.8,8.488,6.413.88,2.326,4.5,1.037,3.615-1.289Z" transform="translate(-18.545 -64.245)" fill="#f40"/>
        <path id="Path_6947" data-name="Path 6947" d="M192.95,111.992a8.792,8.792,0,1,0,10.092-7.262A8.785,8.785,0,0,0,192.95,111.992Zm3.081.5a5.688,5.688,0,1,1,4.684,6.539A5.673,5.673,0,0,1,196.031,112.5Z" transform="translate(-21.794 4.319)" fill-rule="evenodd"/>
        <path id="Path_6948" data-name="Path 6948" d="M189.891,178.95l37.821,6.193a7.085,7.085,0,0,0,8.143-5.848l9.589-58.476a7.085,7.085,0,0,0-5.848-8.143l-37.821-6.193a7.085,7.085,0,0,0-8.143,5.848l-9.589,58.476A7.085,7.085,0,0,0,189.891,178.95Z" transform="translate(-40.837 8.13)" fill="#e6ebf0" fill-rule="evenodd"/>
        <g id="Group_2783" data-name="Group 2783" transform="translate(157.367 140.865)">
          <path id="Path_6949" data-name="Path 6949" d="M189.5,128.21c-2.138-2.735.849-13.078.817-13.11,6.539,1.32,14.462,1.226,16.757,4.15,1.069,1.383-4.118,9.935-4.527,9.809-.975-.283-12.921-.692-13.016-.849Z" transform="translate(-187.969 -114.062)" fill="#fff"/>
          <path id="Path_6950" data-name="Path 6950" d="M203.09,130.584a1.012,1.012,0,0,1-.252-.031c-.566-.157-5.03-.377-7.985-.5-5.125-.251-5.156-.251-5.439-.6-1.792-2.3-.66-8.614.6-13.519h0l-.44-1.163,1.446.283c1.918.377,3.961.66,5.942.912,5.093.66,9.463,1.226,11.255,3.553,1.509,1.981-3.678,9.777-3.741,9.84-.44.66-.849,1.226-1.383,1.226Zm-12.607-2.358c.723.063,2.672.157,4.433.252,4.527.22,6.917.346,7.923.5,1.132-1.352,4.464-7.388,4.118-8.52-1.383-1.761-5.659-2.326-10.186-2.892-1.761-.22-3.584-.472-5.313-.786-1.446,5.69-1.792,9.9-.943,11.475Z" transform="translate(-188.484 -114.77)"/>
        </g>
        <path id="Path_6951" data-name="Path 6951" d="M278,188.566c10.532-24.271-4.779-59.073-11.412-71.051-9.369-16.977-34.583-34.3-45.083-25.528-4.024,3.364-1.886,13.236-1.226,16.254,5.313,24.774,23.642,60.048,23.453,65.109-.252,6.193-43.26-8.834-46.686-4.056,0,0-7.734,15.436-4.653,17.731,0,0,65.77,47.158,85.607,1.572Z" transform="translate(-24.288 -27.801)" fill="#f40"/>
        <g id="Group_2784" data-name="Group 2784" transform="translate(143.191 136.709)">
          <path id="Path_6952" data-name="Path 6952" d="M185.606,125.749a3.463,3.463,0,0,1-.157-3.867,4.456,4.456,0,0,1,.377-.409,2.622,2.622,0,0,1-.692-2.987,3.246,3.246,0,0,1,2.452-1.823,3.53,3.53,0,0,1,.094-.975c1.258-4.464,8.551-.157,10.909.723a1.573,1.573,0,0,1,1.1,1.54,3.456,3.456,0,0,1,.566.44c2.169,2.3,2.2,7.011,1.163,9.777-1.352,3.647-4.747,5.093-8.457,4.684-2.641-.283-8.205-1.195-8.708-4.559a2.179,2.179,0,0,1,1.32-2.547Z" transform="translate(-183.452 -112.916)" fill="#fff"/>
          <path id="Path_6953" data-name="Path 6953" d="M194.68,134.235a8.427,8.427,0,0,1-1.258-.063c-3.993-.409-8.866-1.666-9.4-5.219A2.946,2.946,0,0,1,185.091,126a4.009,4.009,0,0,1,.22-3.993,3.2,3.2,0,0,1-.377-3.27,3.879,3.879,0,0,1,2.421-2.106,2.477,2.477,0,0,1,.126-.629,3.28,3.28,0,0,1,1.792-2.2c2.389-1.1,6.193.629,8.708,1.792.566.252,1.069.5,1.446.629A2.311,2.311,0,0,1,201,118.075c.157.126.251.22.377.314,2.326,2.484,2.515,7.42,1.32,10.595a8.018,8.018,0,0,1-7.985,5.25Zm-3.615-19.24a2.51,2.51,0,0,0-1.132.22,1.971,1.971,0,0,0-1.006,1.918v.66l-.6.157a2.629,2.629,0,0,0-1.949,1.383,1.79,1.79,0,0,0,.534,2.138l.472.5-.472.534a1.883,1.883,0,0,0-.189.22,2.644,2.644,0,0,0,.063,3.144l.472.786-.849.346a1.369,1.369,0,0,0-.849,1.729c.409,2.8,5.722,3.647,7.985,3.867,3.71.409,6.476-1.132,7.64-4.181,1.006-2.672.817-7.011-1.006-8.96-.094-.094-.189-.157-.283-.252l-.314-.22-.126-.5a.8.8,0,0,0-.6-.817c-.409-.157-.943-.377-1.541-.66-1.729-.786-4.37-2.012-6.256-2.012Z" transform="translate(-183.975 -113.448)"/>
        </g>
        <g id="Group_2785" data-name="Group 2785" transform="translate(148.285 131.363)">
          <path id="Path_6954" data-name="Path 6954" d="M187.022,112.509c2.609-.755,5.313-.817,7.671.786,2.232,1.54,4.9,6.508,5.816,8.929,1.258.755-.409.723-2.326,1.1-2.3.44-4.936,0-5.6-2.609-.283-1.163,0-2.232-.912-3.175-1.1-1.1-2.829-1.258-4.276-1.383-1.855-.157-2.169-3.144-.377-3.678Z" transform="translate(-185.09 -111.213)" fill="#fff"/>
          <path id="Path_6955" data-name="Path 6955" d="M197.148,124.834c-2.484,0-4.307-1.226-4.81-3.364a8.318,8.318,0,0,1-.157-1.195,2.378,2.378,0,0,0-.534-1.635c-.88-.88-2.421-1.037-3.773-1.163a2.563,2.563,0,0,1-2.264-2.421,2.476,2.476,0,0,1,1.761-2.767h0c3.27-.943,6.068-.66,8.331.88,2.389,1.635,5.03,6.571,6,9.054a1.1,1.1,0,0,1,.566,1.1c-.157.755-.912.88-2.169,1.069-.377.063-.786.126-1.226.22a8.252,8.252,0,0,1-1.7.189Zm-6.288-11.507a10.667,10.667,0,0,0-3.112.5h0a1,1,0,0,0-.629,1.132.985.985,0,0,0,.849,1.006c1.572.157,3.49.314,4.779,1.6a3.8,3.8,0,0,1,1.006,2.578,4.855,4.855,0,0,0,.126.943c.66,2.609,3.741,2.2,4.684,2.012.44-.094.88-.157,1.289-.22a1.58,1.58,0,0,0,.377-.063c-.975-2.389-3.458-6.979-5.439-8.363a6.632,6.632,0,0,0-3.9-1.163Z" transform="translate(-185.595 -111.748)"/>
        </g>
        <path id="Path_6956" data-name="Path 6956" d="M199.986,118.85a3.574,3.574,0,0,1-2.735-2.138c-.692-1.886-4.779-2.955-6.319-1.886-.912.66-1.761-.472-3.4-.786-1.6-.346,0,5.628,0,5.628l4.81,11.035a7.254,7.254,0,0,1,3.521-.6c2.358.063,5.313-8.646,5.313-8.646l-1.258-2.609Z" transform="translate(-34.678 24.499)" fill="#fff"/>
        <path id="Path_6957" data-name="Path 6957" d="M206.463,104.545s-.943-1.478-1.163.534-6.476,2.609-6.539,1.572-1.478-4.527-.063-7.388c1.446-2.861,2.169-3.615,3.207-5.659s1.478-2.672,1.981-2.861S211.4,89.36,211.4,89.36L221.8,91.969s-4.779,7.011-4.841,7.137c-.063.157-10.5,5.439-10.5,5.439Z" transform="translate(-10.565 -28.38)" fill="#f40"/>
        <path id="Path_6958" data-name="Path 6958" d="M199.153,80.528l.252,6.036-.126,1.226a1.74,1.74,0,0,0-.126,1.352c.189.943-5.093,1.132-5.093,1.132a8.975,8.975,0,0,1-1.415-4.873c.157-2.609.157-4.653,1.132-5.533s1.195-1.761,2.547-1.258c1.32.5,2.515,1.037,2.515,1.037l.314.88Z" transform="translate(-22.212 -51.742)" fill="#fff"/>
        <path id="Path_6959" data-name="Path 6959" d="M189.89,131.7l6.539.943,3.93,36.437-6.131-3.49Z" transform="translate(-28.103 62.391)"/>
      </g>
      <g id="Group_2790" data-name="Group 2790" transform="translate(57.47 378.998)">
        <path id="Path_6960" data-name="Path 6960" d="M82.205,215.005a9.625,9.625,0,0,0,5.376-1.761,46.906,46.906,0,0,1-.786,9.84c-2.106,3.4-7.954,9.652-7.545,9.62a18.166,18.166,0,0,0,4.684-1.1,35.988,35.988,0,0,1-3.584,5.848c-2.829,3.773-6.885,6.822-8.394,11.412a.2.2,0,0,1-.189.189.343.343,0,0,1-.566.252c-7.64-7.231-8.991-18.234-10.123-28.169-.063-.472-.094-.943-.157-1.415a30.81,30.81,0,0,0,7.042,5.5c.377.189-4.779-8.017-7.294-11.821a21.812,21.812,0,0,1,1.32-7.042c1.792-4.779,4.842-9.243,7.828-13.361.126-.157.252-.346.377-.5a23.806,23.806,0,0,0,3.27,5.942c.252.314-.534-6-1.037-8.929.755-.912,1.478-1.855,2.264-2.735,1.006-1.195,2.264-3.238,4.087-2.955,1.761.252,5.816,7.514,6.319,9.589.22.88.409,1.792.6,2.7.094.377.157.786.22,1.195a110.1,110.1,0,0,1,1.352,11.035c-.126.189-.252.377-.409.6-1.478,2.012-5.062,6.1-4.716,6.1Z" transform="translate(-36.601 -183.792)" fill="#aab6c2"/>
        <path id="Path_6961" data-name="Path 6961" d="M70.26,204.937c3.773-.566,6.634-2.955,9.4-5.407.409-.377-.094-1.069-.5-.692-2.578,2.295-5.282,4.59-8.8,5.187q1.179-8.394,2.829-16.757a.429.429,0,0,0-.849-.126q-2.169,11.035-3.553,22.227a36.246,36.246,0,0,1-4.967-10c-.157-.534-.975-.22-.786.314a37.988,37.988,0,0,0,5.345,10.563.348.348,0,0,0,.314.157c-.189,1.635-.377,3.27-.566,4.873a23.6,23.6,0,0,1-3.71-6.476c-.189-.5-1.006-.189-.786.314a23.538,23.538,0,0,0,4.213,7.168.656.656,0,0,0,.189.126c-.566,5.376-.975,10.752-1.258,16.128a.447.447,0,0,1-.063.189c-.126,1.981-.189,3.93-.22,5.91l-.094,3.867a.306.306,0,0,0,.126.283,185.915,185.915,0,0,0,4.59,36.029l.849-.189c-2.892-13.424-4.81-27.006-4.559-40.776.063-1.446.126-2.892.189-4.37a.416.416,0,0,0,.377-.063,14.1,14.1,0,0,0,3.93-4.024c.314-.472-.377-1.006-.66-.534a13.657,13.657,0,0,1-3.615,3.741c.472-9.274,1.383-18.517,2.672-27.729h.031Z" transform="translate(-31.604 -177.371)"/>
        <path id="Path_6962" data-name="Path 6962" d="M61.772,217.451a9.357,9.357,0,0,1-5.062.44,32.179,32.179,0,0,0,3.553,7.137c2.767,1.855,9.557,4.622,9.212,4.747a18.427,18.427,0,0,1-4.307.723,26.2,26.2,0,0,0,4.747,3.207c3.521,1.918,7.828,2.861,10.469,5.816a.285.285,0,0,0,.22.094.3.3,0,0,0,.534,0c4.37-7.954,2.326-16.663.409-24.491-.094-.377-.189-.723-.283-1.1a29.134,29.134,0,0,1-4.37,6.445c-.252.283,1.729-7.608,2.767-11.286a15.692,15.692,0,0,0-3.175-4.873c-2.892-3.018-6.822-5.376-10.532-7.482-.157-.094-.314-.157-.472-.252a17.978,17.978,0,0,1-1.069,5.533c-.126.314-1.289-4.684-1.729-7.042-.912-.44-1.792-.912-2.735-1.32-1.226-.566-2.861-1.7-4.339-.88-1.446.786-2.767,7.545-2.578,9.274.063.755.157,1.478.283,2.232.031.314.094.629.157.975a80.277,80.277,0,0,0,2.044,8.74c.157.094.314.22.5.314,1.855,1.037,6.1,2.924,5.785,3.05Z" transform="translate(-53.014 -164.953)" fill="#aab6c2"/>
        <g id="Group_2787" data-name="Group 2787" transform="translate(0.27 34.579)">
          <path id="Path_6963" data-name="Path 6963" d="M84.854,263.483a135.7,135.7,0,0,0-6.571-28.578.239.239,0,0,0,0-.251c-.409-.943-.786-1.918-1.195-2.861-.6-1.478-1.226-2.924-1.886-4.37,0-.063-.063-.094-.094-.126q-2.688-5.942-5.753-11.7a.687.687,0,0,0,.126-.157,18.944,18.944,0,0,0,1.478-6.759c0-.472-.755-.44-.786,0a18.509,18.509,0,0,1-1.258,6.068l-1.886-3.49a.38.38,0,0,0,.22-.22,29.535,29.535,0,0,0,1.478-9.715c0-.44-.786-.44-.786,0a28.534,28.534,0,0,1-1.32,9.149c-2.955-5.282-6.1-10.469-9.494-15.531-.252-.377-.943,0-.692.377q3.82,5.706,7.262,11.664c-3.144.692-6.131-.126-8.991-1.006-.472-.126-.692.566-.252.692,3.05.943,6.193,1.792,9.557.975h0q5.659,9.714,10.312,19.964a11.36,11.36,0,0,1-4.15-1.635c-.377-.252-.817.377-.409.629a12.335,12.335,0,0,0,4.527,1.729.45.45,0,0,0,.346-.094l1.415,3.207c4.213,10.249,6.539,21.1,7.985,32.13.252-.031.5-.094.755-.126Z" transform="translate(-50.711 -194.79)"/>
          <path id="Path_6964" data-name="Path 6964" d="M59.8,198.949a19.852,19.852,0,0,1-6.7-2.609c.031.314.094.629.157.975a21.162,21.162,0,0,0,6.319,2.358c.472.094.723-.6.252-.692Z" transform="translate(-53.1 -191.468)"/>
        </g>
        <path id="Path_6965" data-name="Path 6965" d="M105.63,203.113c-.031,3.112-7.231,4.622-9.494,5.439-5.03,1.855-9.966,3.741-13.707,7.8-4.4,4.779-8.174,10.312-11.978,15.594a.834.834,0,0,1-.88.377,14,14,0,0,1-1.037-2.264c-1.32-3.207-3.3-9.117-2.8-12.481a20.155,20.155,0,0,1,2.3-6.7,5.805,5.805,0,0,0,1.446,2.829c.189.189.566-4.244.817-6.256.346-.409.66-.786,1.037-1.195a24.39,24.39,0,0,1,2.641-2.452c.189-.157.409-.314.6-.472.786-.566,1.572-1.1,2.421-1.6l.66-.377a24.674,24.674,0,0,1,2.421-1.195,17.114,17.114,0,0,0,1.32,4.433,31.388,31.388,0,0,0,.534-5.156c.786-.283,1.572-.534,2.389-.786a13.365,13.365,0,0,0,.975,2.861c.094.22,1.163-2.358,1.572-3.458a32.1,32.1,0,0,1,7.7-.6,4.644,4.644,0,0,1,.66.031c.692.063,1.383.126,2.044.22,2.484.377,8.3,1.949,8.426,5.282v.094Z" transform="translate(-25.915 -154.576)" fill="#aab6c2"/>
        <g id="Group_2788" data-name="Group 2788" transform="translate(41.95 46.807)">
          <path id="Path_6966" data-name="Path 6966" d="M76.519,207.373c-6.1,6-7.985,17.071-8.394,20.215a14.405,14.405,0,0,0-1.258,4.087c-.723,4.967-.5,10.186-.377,15.185.031,1.635.126,3.3.189,4.936.283-.063.566-.094.849-.157-.063-1.037-.094-2.075-.126-3.112-.157-4.464-.157-8.96.063-13.424a19.226,19.226,0,0,1,1.226-6.791,1.018,1.018,0,0,0,.283-.251c3.8-5.282,7.577-10.783,11.978-15.594,3.741-4.056,8.646-5.942,13.707-7.8,2.3-.849,9.463-2.358,9.494-5.439-9.557,1.132-20.592,1.226-27.6,8.143Z" transform="translate(-66.358 -197.501)"/>
          <path id="Path_6967" data-name="Path 6967" d="M70.18,205.6a19.684,19.684,0,0,1-.126-6.917l-.66.377a19.79,19.79,0,0,0,.189,6.665c.063.409.692.252.629-.126Z" transform="translate(-60.27 -198.68)"/>
          <path id="Path_6968" data-name="Path 6968" d="M69.768,205.482a25.8,25.8,0,0,1-.88-6.162c-.22.157-.409.314-.6.472a26.3,26.3,0,0,0,.88,5.848.325.325,0,0,0,.629-.157Z" transform="translate(-62.216 -197.308)"/>
        </g>
        <g id="Group_2789" data-name="Group 2789" transform="translate(14.983 87.678)">
          <path id="Path_6969" data-name="Path 6969" d="M66.691,237.777a22.247,22.247,0,0,1-8.3-13.078,22.083,22.083,0,0,1,.063-9.369,20.39,20.39,0,0,1,1.1-3.49h40.619a21.852,21.852,0,0,1,1.635,8.268,21.786,21.786,0,0,1-8.929,17.669H66.754Z" transform="translate(-57.48 -211.337)" fill="#fff"/>
          <path id="Path_6970" data-name="Path 6970" d="M100.128,212.592a18.109,18.109,0,0,1,.943,3.144,21.373,21.373,0,0,1,.5,4.684,20.963,20.963,0,0,1-.472,4.5,21.3,21.3,0,0,1-8.174,12.7H67.274a21.363,21.363,0,0,1-8.646-17.2,21.791,21.791,0,0,1,.5-4.684,18.966,18.966,0,0,1,.943-3.144h39.99Zm.629-.912H59.541a19.8,19.8,0,0,0-1.226,3.867,22.691,22.691,0,0,0-.534,4.873,20.577,20.577,0,0,0,.5,4.684,22.264,22.264,0,0,0,8.771,13.424H93.306a22.494,22.494,0,0,0,8.771-13.424,22.275,22.275,0,0,0-.031-9.557,22.185,22.185,0,0,0-1.226-3.867h0Z" transform="translate(-57.78 -211.68)"/>
        </g>
        <path id="Path_6971" data-name="Path 6971" d="M96.236,220.441a20.97,20.97,0,0,1-.5,4.684,22.264,22.264,0,0,1-8.771,13.424H60.71c34.3,1.7,33.734-26.88,33.734-26.88a19.8,19.8,0,0,1,1.226,3.867,22.691,22.691,0,0,1,.534,4.873Z" transform="translate(-36.516 -124.024)"/>
      </g>
      <g id="Group_2795" data-name="Group 2795" transform="translate(0 304.575)">
        <path id="Path_6972" data-name="Path 6972" d="M76.075,204.324a13.258,13.258,0,0,0,7.577-2.515,64.6,64.6,0,0,1-1.132,13.927c-2.987,4.81-11.255,13.644-10.689,13.581a26.139,26.139,0,0,0,6.634-1.54,49.352,49.352,0,0,1-5.062,8.268c-4.024,5.345-9.715,9.62-11.884,16.159a.387.387,0,0,1-.252.283.473.473,0,0,1-.786.346c-10.783-10.249-12.733-25.811-14.3-39.864-.063-.66-.157-1.32-.22-1.981a43.42,43.42,0,0,0,9.935,7.765c.534.283-6.759-11.349-10.312-16.725a31.212,31.212,0,0,1,1.855-9.966c2.515-6.759,6.854-13.11,11.066-18.926.157-.252.377-.472.534-.723a32.483,32.483,0,0,0,4.653,8.426c.346.44-.755-8.52-1.446-12.607,1.069-1.32,2.106-2.609,3.207-3.9,1.446-1.7,3.207-4.559,5.785-4.181,2.515.346,8.205,10.626,8.96,13.55.314,1.258.6,2.547.849,3.8.126.534.22,1.1.314,1.666A154.705,154.705,0,0,1,83.275,194.8a7.541,7.541,0,0,1-.566.817c-2.106,2.861-7.168,8.646-6.665,8.646Z" transform="translate(-11.483 -160.119)" fill="#aab6c2"/>
        <path id="Path_6973" data-name="Path 6973" d="M59.207,190.024c5.313-.817,9.4-4.181,13.3-7.64.6-.534-.126-1.509-.723-.975-3.647,3.238-7.482,6.508-12.45,7.357q1.7-11.884,3.993-23.7c.157-.786-1.037-.975-1.195-.189-2.075,10.406-3.741,20.907-5.062,31.439a51.975,51.975,0,0,1-7.042-14.179c-.252-.755-1.383-.283-1.132.44a52.859,52.859,0,0,0,7.577,14.965.589.589,0,0,0,.44.252c-.283,2.295-.534,4.621-.786,6.917a32.253,32.253,0,0,1-5.219-9.149.608.608,0,0,0-1.132.44,33.683,33.683,0,0,0,5.942,10.155.757.757,0,0,0,.252.189q-1.179,11.365-1.761,22.824a.592.592,0,0,0-.063.251c-.157,2.8-.252,5.565-.283,8.363-.063,1.823-.126,3.647-.157,5.439a.467.467,0,0,0,.189.409c.314,17.166,2.861,34.174,6.476,50.993.409-.094.786-.189,1.195-.283-4.087-18.989-6.791-38.229-6.445-57.69.063-2.044.157-4.118.252-6.162a.557.557,0,0,0,.534-.063A19.314,19.314,0,0,0,61.47,224.7c.44-.66-.534-1.415-.943-.755a19.518,19.518,0,0,1-5.093,5.313q1.037-19.712,3.773-39.235h.063Z" transform="translate(-4.454 -151.006)"/>
        <path id="Path_6974" data-name="Path 6974" d="M47.17,207.741A13.417,13.417,0,0,1,40,208.37a46.432,46.432,0,0,0,5,10.092c3.93,2.641,13.519,6.539,13.047,6.7a25.5,25.5,0,0,1-6.1,1.006,38.075,38.075,0,0,0,6.7,4.559c4.967,2.7,11.066,4.024,14.808,8.237.094.094.189.157.283.126a.43.43,0,0,0,.755,0c6.193-11.255,3.3-23.579.6-34.645-.126-.534-.252-1.037-.409-1.572a39.6,39.6,0,0,1-6.193,9.117c-.377.377,2.452-10.752,3.9-15.971a22.531,22.531,0,0,0-4.464-6.885c-4.118-4.244-9.62-7.577-14.9-10.595-.22-.126-.44-.22-.66-.346a25.409,25.409,0,0,1-1.509,7.86c-.157.44-1.823-6.665-2.421-9.966-1.289-.629-2.547-1.258-3.867-1.855-1.729-.817-4.056-2.389-6.131-1.258-2.044,1.1-3.9,10.689-3.678,13.141.094,1.037.22,2.106.377,3.144.063.44.126.912.22,1.352a116.233,116.233,0,0,0,2.892,12.387,5.538,5.538,0,0,0,.723.44c2.609,1.446,8.614,4.118,8.174,4.307Z" transform="translate(-34.734 -133.418)" fill="#aab6c2"/>
        <g id="Group_2791" data-name="Group 2791" transform="translate(0.395 49.014)">
          <path id="Path_6975" data-name="Path 6975" d="M79.791,272.856c-1.823-13.833-4.59-27.415-9.306-40.43a.327.327,0,0,0,0-.377l-1.7-4.056c-.849-2.075-1.729-4.15-2.672-6.193a.685.685,0,0,0-.126-.157c-2.547-5.6-5.282-11.129-8.143-16.568a.564.564,0,0,0,.157-.22,26.322,26.322,0,0,0,2.106-9.589c0-.629-1.069-.6-1.1.031a25.547,25.547,0,0,1-1.792,8.583c-.88-1.666-1.761-3.3-2.672-4.936a.613.613,0,0,0,.314-.314,41.322,41.322,0,0,0,2.075-13.739c0-.629-1.1-.6-1.1.031a39.8,39.8,0,0,1-1.886,12.953q-6.272-11.224-13.424-21.944c-.346-.534-1.32,0-.975.534,3.615,5.407,7.011,10.909,10.28,16.474-4.464,1.006-8.646-.189-12.7-1.415-.66-.189-.975.786-.346.975,4.339,1.32,8.771,2.515,13.519,1.352h.031A315.412,315.412,0,0,1,64.92,222.083a16.526,16.526,0,0,1-5.879-2.3c-.566-.346-1.132.534-.6.88a17.24,17.24,0,0,0,6.413,2.452.5.5,0,0,0,.472-.126c.692,1.509,1.352,3.018,2.012,4.527,5.973,14.525,9.243,29.867,11.286,45.46.377-.063.723-.126,1.1-.189Z" transform="translate(-31.469 -175.71)"/>
          <path id="Path_6976" data-name="Path 6976" d="M44.354,181.59a27.858,27.858,0,0,1-9.494-3.71c.063.44.126.912.22,1.352a29.27,29.27,0,0,0,8.929,3.333C44.7,182.69,45.015,181.715,44.354,181.59Z" transform="translate(-34.86 -171.056)"/>
        </g>
        <path id="Path_6977" data-name="Path 6977" d="M109.249,187.474c-.063,4.4-10.218,6.508-13.456,7.7-7.137,2.641-14.116,5.313-19.4,11.035-6.225,6.759-11.569,14.588-16.945,22.039a1.216,1.216,0,0,1-1.258.534,17.965,17.965,0,0,1-1.478-3.207c-1.855-4.559-4.684-12.89-3.993-17.669a29.055,29.055,0,0,1,3.238-9.495A8.619,8.619,0,0,0,58,202.438c.252.252.817-6,1.163-8.834.472-.566.943-1.132,1.446-1.666a30.109,30.109,0,0,1,3.741-3.458l.849-.66a35.865,35.865,0,0,1,3.427-2.264c.314-.189.629-.377.943-.534,1.1-.6,2.232-1.195,3.427-1.7a23.173,23.173,0,0,0,1.886,6.256c.189.409.66-4.936.755-7.325,1.1-.409,2.232-.755,3.364-1.1a17.263,17.263,0,0,0,1.415,4.056c.157.314,1.666-3.332,2.2-4.9a44.174,44.174,0,0,1,10.878-.849,4.3,4.3,0,0,1,.912.063c.975.063,1.949.189,2.892.314,3.49.534,11.727,2.767,11.915,7.482v.126Z" transform="translate(3.602 -118.778)" fill="#aab6c2"/>
        <g id="Group_2792" data-name="Group 2792" transform="translate(59.424 66.244)">
          <path id="Path_6978" data-name="Path 6978" d="M67.985,193.465c-8.614,8.52-11.318,24.145-11.852,28.609a19.37,19.37,0,0,0-1.761,5.785c-1.037,7.011-.723,14.43-.566,21.5q.094,3.49.283,6.979c.409-.063.786-.157,1.195-.22-.063-1.478-.157-2.924-.189-4.4-.22-6.319-.22-12.67.094-19.02a27.534,27.534,0,0,1,1.729-9.589,1.3,1.3,0,0,0,.377-.346c5.376-7.451,10.721-15.279,16.945-22.038,5.282-5.753,12.261-8.394,19.4-11.035,3.238-1.195,13.393-3.332,13.456-7.7-13.519,1.572-29.144,1.729-39.078,11.538Z" transform="translate(-53.636 -179.475)"/>
          <path id="Path_6979" data-name="Path 6979" d="M59.037,191a28.565,28.565,0,0,1-.189-9.809c-.314.189-.66.377-.943.534a28.187,28.187,0,0,0,.283,9.463c.126.566.975.346.88-.189Z" transform="translate(-45.065 -181.19)"/>
          <path id="Path_6980" data-name="Path 6980" d="M58.466,190.83a37.364,37.364,0,0,1-1.258-8.74l-.849.66a37.064,37.064,0,0,0,1.258,8.268c.157.534,1.006.346.88-.189Z" transform="translate(-47.796 -179.261)"/>
        </g>
        <g id="Group_2793" data-name="Group 2793" transform="translate(21.255 112.647)">
          <path id="Path_6981" data-name="Path 6981" d="M91.99,227.852c-15.625-17.7-7.137-31.722-7.137-31.722H56.684s8.488,14.022-7.137,31.722c-7.765,8.8-14.085,28.452,2.924,40.524.817.6,2.138,1.509,2.012,2.767h32.57c-.126-1.258,1.195-2.2,2.012-2.767C106.074,256.3,99.755,236.654,91.99,227.852Z" transform="translate(-41.107 -195.564)" fill="#fff"/>
          <path id="Path_6982" data-name="Path 6982" d="M88.071,272.094h-33.8l.063-.6c.094-.943-1.037-1.729-1.792-2.264-6.413-4.559-10.06-10.438-10.878-17.511-1.132-9.777,3.521-18.957,7.86-23.862,15.153-17.134,7.168-30.9,7.074-31.061l-.5-.849h30.15l-.5.849c-.094.126-8.048,13.9,7.074,31.061,4.339,4.9,8.96,14.084,7.86,23.862C99.86,258.8,96.214,264.675,89.8,269.2c-.755.534-1.886,1.352-1.792,2.264l.063.6Zm-32.665-1.132h31.5c.22-1.258,1.446-2.106,2.232-2.672,6.131-4.37,9.652-9.966,10.406-16.725,1.1-9.4-3.4-18.266-7.577-22.982h0c-13.55-15.342-9.149-28.169-7.64-31.533H57.953c1.54,3.333,5.91,16.191-7.64,31.533-4.181,4.716-8.646,13.582-7.577,22.982.786,6.728,4.276,12.355,10.406,16.725.786.566,2.012,1.415,2.232,2.672Z" transform="translate(-41.495 -195.95)"/>
        </g>
        <g id="Group_2794" data-name="Group 2794" transform="translate(23.943 113.213)">
          <path id="Path_6983" data-name="Path 6983" d="M90.734,227.852C75.109,210.152,83.6,196.13,83.6,196.13H77.656c-7.2,8.708-17.763,10.626-21.535,2.2,3.018,8.52.912,16.883-4.779,25.214,2.326-2.2,9.9-4.4,15.279-3.678,12.89,1.729,22.7,13.016,24.491,25.717,1.163,8.206-5.753,22.1-23.045,22.1-16.159,0-22.73-6.508-25.717-9.809a25.425,25.425,0,0,0,8.866,10.5c.817.6,2.138,1.509,2.012,2.767H85.8c-.126-1.258,1.195-2.2,2.012-2.767,17.008-12.072,10.689-31.722,2.924-40.524Z" transform="translate(-42.35 -196.13)"/>
          <path id="Path_6984" data-name="Path 6984" d="M44.17,209.157c1.195-1.446,2.264-2.861,3.27-4.307A15.772,15.772,0,0,0,44.17,209.157Z" transform="translate(-38.448 -177.435)"/>
          <path id="Path_6985" data-name="Path 6985" d="M47.33,198.341c-.252-.723-.566-1.478-.88-2.2C46.733,196.926,47.047,197.649,47.33,198.341Z" transform="translate(-33.56 -196.109)"/>
        </g>
      </g>
    </g>
  </g>
</svg>
