<svg xmlns="http://www.w3.org/2000/svg" xmlns:xlink="http://www.w3.org/1999/xlink" width="816" height="738" viewBox="0 0 816 738">
  <defs>
    <clipPath id="clip-path">
      <rect id="Rectangle_7144" data-name="Rectangle 7144" width="816" height="738" transform="translate(1012.815 173.815)" fill="none"/>
    </clipPath>
    <clipPath id="clip-path-2">
      <path id="Path_15885" data-name="Path 15885" d="M417.939,134.464C520.93,154.743,573.5,271.38,739.342,375.17S868.689,884.22,606.767,818.106c-249.872-63.058-261.435-58.093-425.088-52.259C-23.157,773.174,92.057,70.26,417.939,134.464Z" transform="translate(-79.44 -130.319)" fill="none"/>
    </clipPath>
    <clipPath id="clip-path-3">
      <circle id="Ellipse_277" data-name="Ellipse 277" cx="22.848" cy="22.848" r="22.848" fill="none"/>
    </clipPath>
  </defs>
  <g id="Mask_Group_4573" data-name="Mask Group 4573" transform="translate(-1012.815 -173.815)" clip-path="url(#clip-path)">
    <g id="Oqtima_ETF" transform="translate(1012.964 191.056)">
      <g id="Group_9149" data-name="Group 9149" transform="translate(5.266 0)">
        <path id="Path_15877" data-name="Path 15877" d="M417.939,134.464C520.93,154.743,573.5,271.38,739.342,375.17S868.689,884.22,606.767,818.106c-249.872-63.058-261.435-58.093-425.088-52.259C-23.157,773.174,92.057,70.26,417.939,134.464Z" transform="translate(-79.44 -130.319)" fill="#e6ebf0"/>
        <g id="Group_9148" data-name="Group 9148" clip-path="url(#clip-path-2)">
          <g id="Group_9137" data-name="Group 9137" transform="translate(-12.176 59.808)">
            <g id="Group_9131" data-name="Group 9131" transform="translate(123.374)">
              <path id="Path_15878" data-name="Path 15878" d="M239.589,341.668V314.931h44.342V187.078h12.223V314.931h47.815v26.737H369.56V877.7H184.969V341.668Z" transform="translate(-184.969 -187.078)" fill="#c6d0db"/>
              <rect id="Rectangle_7597" data-name="Rectangle 7597" width="25.591" height="482.174" transform="translate(0 154.59)" fill="#aab6c2"/>
            </g>
            <g id="Group_9132" data-name="Group 9132" transform="translate(215.669 282.27)">
              <rect id="Rectangle_7598" data-name="Rectangle 7598" width="184.592" height="408.352" fill="#c6d0db"/>
              <rect id="Rectangle_7599" data-name="Rectangle 7599" width="25.591" height="408.352" fill="#aab6c2"/>
              <rect id="Rectangle_7600" data-name="Rectangle 7600" width="26.494" height="11.007" transform="translate(132.332 17.397)" fill="#aab6c2"/>
              <rect id="Rectangle_7601" data-name="Rectangle 7601" width="26.494" height="11.007" transform="translate(87.747 17.397)" fill="#aab6c2"/>
              <rect id="Rectangle_7602" data-name="Rectangle 7602" width="26.494" height="11.007" transform="translate(132.332 57.433)" fill="#aab6c2"/>
              <rect id="Rectangle_7603" data-name="Rectangle 7603" width="26.494" height="11.007" transform="translate(87.747 57.433)" fill="#aab6c2"/>
              <rect id="Rectangle_7604" data-name="Rectangle 7604" width="26.494" height="11.007" transform="translate(43.162 57.433)" fill="#aab6c2"/>
              <rect id="Rectangle_7605" data-name="Rectangle 7605" width="26.494" height="11.007" transform="translate(132.332 97.47)" fill="#aab6c2"/>
              <rect id="Rectangle_7606" data-name="Rectangle 7606" width="26.494" height="11.007" transform="translate(43.162 97.47)" fill="#aab6c2"/>
              <rect id="Rectangle_7607" data-name="Rectangle 7607" width="26.494" height="11.007" transform="translate(87.747 117.471)" fill="#aab6c2"/>
              <rect id="Rectangle_7608" data-name="Rectangle 7608" width="26.494" height="11.007" transform="translate(132.332 137.506)" fill="#aab6c2"/>
              <rect id="Rectangle_7609" data-name="Rectangle 7609" width="26.494" height="11.007" transform="translate(87.747 157.507)" fill="#aab6c2"/>
              <rect id="Rectangle_7610" data-name="Rectangle 7610" width="26.494" height="11.007" transform="translate(132.332 177.508)" fill="#aab6c2"/>
              <rect id="Rectangle_7611" data-name="Rectangle 7611" width="26.494" height="11.007" transform="translate(43.162 177.508)" fill="#aab6c2"/>
              <rect id="Rectangle_7612" data-name="Rectangle 7612" width="26.494" height="11.007" transform="translate(132.332 214.523)" fill="#aab6c2"/>
              <rect id="Rectangle_7613" data-name="Rectangle 7613" width="26.494" height="11.007" transform="translate(87.747 214.523)" fill="#aab6c2"/>
              <rect id="Rectangle_7614" data-name="Rectangle 7614" width="26.494" height="11.007" transform="translate(132.332 254.56)" fill="#aab6c2"/>
              <rect id="Rectangle_7615" data-name="Rectangle 7615" width="26.494" height="11.007" transform="translate(87.747 254.56)" fill="#aab6c2"/>
              <rect id="Rectangle_7616" data-name="Rectangle 7616" width="26.494" height="11.007" transform="translate(43.162 254.56)" fill="#aab6c2"/>
              <rect id="Rectangle_7617" data-name="Rectangle 7617" width="26.494" height="11.007" transform="translate(132.332 294.562)" fill="#aab6c2"/>
              <rect id="Rectangle_7618" data-name="Rectangle 7618" width="26.494" height="11.007" transform="translate(43.162 294.562)" fill="#aab6c2"/>
              <rect id="Rectangle_7619" data-name="Rectangle 7619" width="26.494" height="11.007" transform="translate(87.747 314.597)" fill="#aab6c2"/>
              <rect id="Rectangle_7620" data-name="Rectangle 7620" width="26.494" height="11.007" transform="translate(43.162 314.597)" fill="#aab6c2"/>
              <rect id="Rectangle_7621" data-name="Rectangle 7621" width="26.494" height="11.007" transform="translate(132.332 334.598)" fill="#aab6c2"/>
              <rect id="Rectangle_7622" data-name="Rectangle 7622" width="26.494" height="11.007" transform="translate(87.747 354.634)" fill="#aab6c2"/>
              <rect id="Rectangle_7623" data-name="Rectangle 7623" width="26.494" height="11.007" transform="translate(132.332 374.635)" fill="#aab6c2"/>
              <rect id="Rectangle_7624" data-name="Rectangle 7624" width="26.494" height="11.007" transform="translate(43.162 374.635)" fill="#aab6c2"/>
            </g>
            <g id="Group_9133" data-name="Group 9133" transform="translate(657.356 282.27)">
              <rect id="Rectangle_7625" data-name="Rectangle 7625" width="184.592" height="408.352" fill="#c6d0db"/>
              <rect id="Rectangle_7626" data-name="Rectangle 7626" width="25.591" height="408.352" fill="#aab6c2"/>
            </g>
            <g id="Group_9134" data-name="Group 9134" transform="translate(395.122 88.06)">
              <rect id="Rectangle_7627" data-name="Rectangle 7627" width="247.685" height="602.562" transform="translate(0)" fill="#c6d0db"/>
              <rect id="Rectangle_7628" data-name="Rectangle 7628" width="25.591" height="602.562" transform="translate(0)" fill="#aab6c2"/>
              <rect id="Rectangle_7629" data-name="Rectangle 7629" width="38.682" height="16.042" transform="translate(182.925 28.855)" fill="#aab6c2"/>
              <rect id="Rectangle_7630" data-name="Rectangle 7630" width="38.682" height="16.042" transform="translate(117.783 28.855)" fill="#aab6c2"/>
              <rect id="Rectangle_7631" data-name="Rectangle 7631" width="38.682" height="16.042" transform="translate(182.925 87.296)" fill="#aab6c2"/>
              <rect id="Rectangle_7632" data-name="Rectangle 7632" width="38.682" height="16.042" transform="translate(117.783 87.296)" fill="#aab6c2"/>
              <rect id="Rectangle_7633" data-name="Rectangle 7633" width="38.682" height="16.042" transform="translate(52.641 87.296)" fill="#aab6c2"/>
              <rect id="Rectangle_7634" data-name="Rectangle 7634" width="38.682" height="16.042" transform="translate(182.925 145.77)" fill="#aab6c2"/>
              <rect id="Rectangle_7635" data-name="Rectangle 7635" width="38.682" height="16.042" transform="translate(52.641 145.77)" fill="#aab6c2"/>
              <rect id="Rectangle_7636" data-name="Rectangle 7636" width="38.682" height="16.042" transform="translate(117.783 175.008)" fill="#aab6c2"/>
              <rect id="Rectangle_7637" data-name="Rectangle 7637" width="38.682" height="16.042" transform="translate(182.925 204.211)" fill="#aab6c2"/>
              <rect id="Rectangle_7638" data-name="Rectangle 7638" width="38.682" height="16.042" transform="translate(117.783 233.448)" fill="#aab6c2"/>
              <rect id="Rectangle_7639" data-name="Rectangle 7639" width="38.682" height="16.042" transform="translate(182.925 262.685)" fill="#aab6c2"/>
              <rect id="Rectangle_7640" data-name="Rectangle 7640" width="38.682" height="16.042" transform="translate(52.641 262.685)" fill="#aab6c2"/>
              <rect id="Rectangle_7641" data-name="Rectangle 7641" width="38.682" height="16.042" transform="translate(182.925 316.681)" fill="#aab6c2"/>
              <rect id="Rectangle_7642" data-name="Rectangle 7642" width="38.682" height="16.042" transform="translate(117.783 316.681)" fill="#aab6c2"/>
              <rect id="Rectangle_7643" data-name="Rectangle 7643" width="38.682" height="16.042" transform="translate(182.925 375.156)" fill="#aab6c2"/>
              <rect id="Rectangle_7644" data-name="Rectangle 7644" width="38.682" height="16.042" transform="translate(117.783 375.156)" fill="#aab6c2"/>
              <rect id="Rectangle_7645" data-name="Rectangle 7645" width="38.682" height="16.042" transform="translate(52.641 375.156)" fill="#aab6c2"/>
              <rect id="Rectangle_7646" data-name="Rectangle 7646" width="38.682" height="16.042" transform="translate(182.925 433.596)" fill="#aab6c2"/>
              <rect id="Rectangle_7647" data-name="Rectangle 7647" width="38.682" height="16.042" transform="translate(52.641 433.596)" fill="#aab6c2"/>
              <rect id="Rectangle_7648" data-name="Rectangle 7648" width="38.682" height="16.042" transform="translate(117.783 462.833)" fill="#aab6c2"/>
              <rect id="Rectangle_7649" data-name="Rectangle 7649" width="38.682" height="16.042" transform="translate(52.641 462.833)" fill="#aab6c2"/>
              <rect id="Rectangle_7650" data-name="Rectangle 7650" width="38.682" height="16.042" transform="translate(182.925 492.071)" fill="#aab6c2"/>
              <rect id="Rectangle_7651" data-name="Rectangle 7651" width="38.682" height="16.042" transform="translate(117.783 521.273)" fill="#aab6c2"/>
              <rect id="Rectangle_7652" data-name="Rectangle 7652" width="38.682" height="16.042" transform="translate(182.925 550.511)" fill="#aab6c2"/>
              <rect id="Rectangle_7653" data-name="Rectangle 7653" width="38.682" height="16.042" transform="translate(52.641 550.511)" fill="#aab6c2"/>
            </g>
            <g id="Group_9135" data-name="Group 9135" transform="translate(784.514 132.957)">
              <rect id="Rectangle_7654" data-name="Rectangle 7654" width="242.754" height="557.629" fill="#c6d0db"/>
              <rect id="Rectangle_7655" data-name="Rectangle 7655" width="25.071" height="557.629" fill="#aab6c2"/>
              <rect id="Rectangle_7656" data-name="Rectangle 7656" width="37.918" height="14.862" transform="translate(115.457 26.703)" fill="#aab6c2"/>
              <rect id="Rectangle_7657" data-name="Rectangle 7657" width="37.918" height="14.862" transform="translate(115.457 80.802)" fill="#aab6c2"/>
              <rect id="Rectangle_7658" data-name="Rectangle 7658" width="37.918" height="14.862" transform="translate(51.634 80.802)" fill="#aab6c2"/>
              <rect id="Rectangle_7659" data-name="Rectangle 7659" width="37.918" height="14.862" transform="translate(51.634 134.902)" fill="#aab6c2"/>
              <rect id="Rectangle_7660" data-name="Rectangle 7660" width="37.918" height="14.862" transform="translate(115.457 161.952)" fill="#aab6c2"/>
              <rect id="Rectangle_7661" data-name="Rectangle 7661" width="37.918" height="14.862" transform="translate(115.457 216.051)" fill="#aab6c2"/>
              <rect id="Rectangle_7662" data-name="Rectangle 7662" width="37.918" height="14.862" transform="translate(51.634 243.101)" fill="#aab6c2"/>
              <rect id="Rectangle_7663" data-name="Rectangle 7663" width="37.918" height="14.862" transform="translate(115.457 293.103)" fill="#aab6c2"/>
              <rect id="Rectangle_7664" data-name="Rectangle 7664" width="37.918" height="14.862" transform="translate(115.457 347.203)" fill="#aab6c2"/>
              <rect id="Rectangle_7665" data-name="Rectangle 7665" width="37.918" height="14.862" transform="translate(51.634 347.203)" fill="#aab6c2"/>
              <rect id="Rectangle_7666" data-name="Rectangle 7666" width="37.918" height="14.862" transform="translate(51.634 401.303)" fill="#aab6c2"/>
              <rect id="Rectangle_7667" data-name="Rectangle 7667" width="37.918" height="14.862" transform="translate(115.457 428.353)" fill="#aab6c2"/>
              <rect id="Rectangle_7668" data-name="Rectangle 7668" width="37.918" height="14.862" transform="translate(51.634 428.353)" fill="#aab6c2"/>
              <rect id="Rectangle_7669" data-name="Rectangle 7669" width="37.918" height="14.862" transform="translate(115.457 482.452)" fill="#aab6c2"/>
              <rect id="Rectangle_7670" data-name="Rectangle 7670" width="37.918" height="14.862" transform="translate(51.634 509.502)" fill="#aab6c2"/>
            </g>
            <g id="Group_9136" data-name="Group 9136" transform="translate(0 310.257)">
              <rect id="Rectangle_7671" data-name="Rectangle 7671" width="156.361" height="380.364" fill="#c6d0db"/>
              <rect id="Rectangle_7672" data-name="Rectangle 7672" width="16.147" height="380.364" fill="#aab6c2"/>
              <rect id="Rectangle_7673" data-name="Rectangle 7673" width="24.411" height="10.139" transform="translate(115.491 18.23)" fill="#aab6c2"/>
              <rect id="Rectangle_7674" data-name="Rectangle 7674" width="24.411" height="10.139" transform="translate(74.378 18.23)" fill="#aab6c2"/>
              <rect id="Rectangle_7675" data-name="Rectangle 7675" width="24.411" height="10.139" transform="translate(115.491 55.107)" fill="#aab6c2"/>
              <rect id="Rectangle_7676" data-name="Rectangle 7676" width="24.411" height="10.139" transform="translate(74.378 55.107)" fill="#aab6c2"/>
              <rect id="Rectangle_7677" data-name="Rectangle 7677" width="24.411" height="10.139" transform="translate(33.265 55.107)" fill="#aab6c2"/>
              <rect id="Rectangle_7678" data-name="Rectangle 7678" width="24.411" height="10.139" transform="translate(115.491 92.018)" fill="#aab6c2"/>
              <rect id="Rectangle_7679" data-name="Rectangle 7679" width="24.411" height="10.139" transform="translate(33.265 92.018)" fill="#aab6c2"/>
              <rect id="Rectangle_7680" data-name="Rectangle 7680" width="24.411" height="10.139" transform="translate(74.378 110.456)" fill="#aab6c2"/>
              <rect id="Rectangle_7681" data-name="Rectangle 7681" width="24.411" height="10.139" transform="translate(115.491 128.929)" fill="#aab6c2"/>
              <rect id="Rectangle_7682" data-name="Rectangle 7682" width="24.411" height="10.139" transform="translate(74.378 147.368)" fill="#aab6c2"/>
              <rect id="Rectangle_7683" data-name="Rectangle 7683" width="24.411" height="10.139" transform="translate(115.491 165.806)" fill="#aab6c2"/>
              <rect id="Rectangle_7684" data-name="Rectangle 7684" width="24.411" height="10.139" transform="translate(33.265 165.806)" fill="#aab6c2"/>
              <rect id="Rectangle_7685" data-name="Rectangle 7685" width="24.411" height="10.139" transform="translate(115.491 199.905)" fill="#aab6c2"/>
              <rect id="Rectangle_7686" data-name="Rectangle 7686" width="24.411" height="10.139" transform="translate(74.378 199.905)" fill="#aab6c2"/>
              <rect id="Rectangle_7687" data-name="Rectangle 7687" width="24.411" height="10.139" transform="translate(115.491 236.816)" fill="#aab6c2"/>
              <rect id="Rectangle_7688" data-name="Rectangle 7688" width="24.411" height="10.139" transform="translate(74.378 236.816)" fill="#aab6c2"/>
              <rect id="Rectangle_7689" data-name="Rectangle 7689" width="24.411" height="10.139" transform="translate(33.265 236.816)" fill="#aab6c2"/>
              <rect id="Rectangle_7690" data-name="Rectangle 7690" width="24.411" height="10.139" transform="translate(115.491 273.693)" fill="#aab6c2"/>
              <rect id="Rectangle_7691" data-name="Rectangle 7691" width="24.411" height="10.139" transform="translate(33.265 273.693)" fill="#aab6c2"/>
              <rect id="Rectangle_7692" data-name="Rectangle 7692" width="24.411" height="10.139" transform="translate(74.378 292.166)" fill="#aab6c2"/>
              <rect id="Rectangle_7693" data-name="Rectangle 7693" width="24.411" height="10.139" transform="translate(33.265 292.166)" fill="#aab6c2"/>
              <rect id="Rectangle_7694" data-name="Rectangle 7694" width="24.411" height="10.139" transform="translate(115.491 310.604)" fill="#aab6c2"/>
              <rect id="Rectangle_7695" data-name="Rectangle 7695" width="24.411" height="10.139" transform="translate(74.378 329.043)" fill="#aab6c2"/>
              <rect id="Rectangle_7696" data-name="Rectangle 7696" width="24.411" height="10.139" transform="translate(115.491 347.516)" fill="#aab6c2"/>
              <rect id="Rectangle_7697" data-name="Rectangle 7697" width="24.411" height="10.139" transform="translate(33.265 347.516)" fill="#aab6c2"/>
            </g>
          </g>
          <g id="Group_9147" data-name="Group 9147" transform="translate(-117.39 -51.968)">
            <g id="Group_9142" data-name="Group 9142" transform="translate(7.257 14.966)">
              <g id="Group_9138" data-name="Group 9138" opacity="0.35">
                <rect id="Rectangle_7698" data-name="Rectangle 7698" width="662.564" height="755.451" fill="#fff"/>
              </g>
              <g id="Group_9139" data-name="Group 9139" transform="translate(176.675 8.646)" opacity="0.5">
                <path id="Path_15879" data-name="Path 15879" d="M194.016,836.566H142.59L418.262,103.409h51.426Z" transform="translate(-142.59 -103.409)" fill="#fff"/>
              </g>
              <g id="Group_9140" data-name="Group 9140" transform="translate(111.602 8.646)" opacity="0.5">
                <path id="Path_15880" data-name="Path 15880" d="M106.531,836.566h-25.7L356.507,103.409h25.7Z" transform="translate(-80.835 -103.409)" fill="#fff"/>
              </g>
              <g id="Group_9141" data-name="Group 9141" transform="translate(418.595 87.33)" opacity="0.5">
                <path id="Path_15881" data-name="Path 15881" d="M397.909,832.555h-25.73L608.543,178.081v52.745Z" transform="translate(-372.178 -178.081)" fill="#fff"/>
              </g>
            </g>
            <g id="Group_9146" data-name="Group 9146" transform="translate(666.384)">
              <g id="Group_9143" data-name="Group 9143" transform="translate(6.945)" opacity="0.35">
                <rect id="Rectangle_7699" data-name="Rectangle 7699" width="662.564" height="755.451" fill="#fff"/>
              </g>
              <g id="Group_9144" data-name="Group 9144" transform="translate(65.107 23.612)" opacity="0.5">
                <path id="Path_15882" data-name="Path 15882" d="M713.662,836.566H662.236L937.908,103.409h51.426Z" transform="translate(-662.236 -103.409)" fill="#fff"/>
              </g>
              <g id="Group_9145" data-name="Group 9145" transform="translate(0 23.612)" opacity="0.5">
                <path id="Path_15883" data-name="Path 15883" d="M626.178,836.566h-25.73L876.12,103.409h25.73Z" transform="translate(-600.448 -103.409)" fill="#fff"/>
              </g>
            </g>
            <path id="Path_15884" data-name="Path 15884" d="M1331.568,231.9v-8.646h-23.786V87H-31.965V104.29H-17.52V110.4H409.756V223.288H-31.965v8.646H409.756v221.85H-31.965v8.646H409.756v221.85H-31.965v8.646H409.756V837.483H-17.381v5H-31.965v20H1307.748v-1.6h0V692.928h23.786v-8.646h-23.786V462.431h23.786v-8.646h-23.786V231.935h23.786ZM645.183,462.4H851.547v221.85H645.184V462.4Zm0-8.646V231.9H851.547V453.75H645.184Zm0-230.5V110.367H851.547V223.254H645.184Zm0,469.639H851.547V837.448H645.253v5h-.069ZM866.061,837.448V692.893h206.363V837.448Zm0-153.2V462.4h206.363v221.85Zm0-230.5V231.9h206.363V453.75Zm0-230.5V110.367h206.363V223.254Zm220.878-112.887H1293.3V223.254H1086.939Zm-662.634,0H630.669V223.254H424.306V110.367Zm0,121.533H630.669V453.75H424.306V231.9Zm0,230.5H630.669v221.85H424.306V462.4Zm0,230.5H630.669V842.448h-.07v-5H424.306Zm869,149.555h-.069v-5H1086.939V692.893H1293.3Zm0-158.2H1086.939V462.4H1293.3Zm0-230.5H1086.939V231.9H1293.3Z" transform="translate(31.965 -80.678)" fill="#fff"/>
          </g>
        </g>
      </g>
      <rect id="Rectangle_7700" data-name="Rectangle 7700" width="763.055" height="5.07" transform="translate(1.806 698.447)"/>
      <path id="Path_15886" data-name="Path 15886" d="M351.569,343.237s1.007,1.389-.868,6.945c-1.91,5.556,14.133,6.424,14.341,2.465.208-3.924.521-8.681.521-8.681a3.629,3.629,0,0,1,1.6-3.715c2.188-1.736,0-5.764-5.278-4.306s-10.313,7.327-10.313,7.327Z" transform="translate(-59.611 -119.29)" fill="#fff"/>
      <path id="Path_15887" data-name="Path 15887" d="M399.245,575.074l-11.216,19.445H410.5Z" transform="translate(-57.598 -106.428)" fill="#fff"/>
      <g id="Group_9189" data-name="Group 9189" transform="translate(33.925 111.546)">
        <g id="Group_9151" data-name="Group 9151">
          <rect id="Rectangle_7701" data-name="Rectangle 7701" width="100.873" height="283.45" transform="translate(318.556 284.179)" fill="#aab6c2"/>
          <rect id="Rectangle_7702" data-name="Rectangle 7702" width="100.873" height="47.363" transform="translate(318.556 412.067)"/>
          <path id="Path_15888" data-name="Path 15888" d="M613.2,796.491c-7.6-18.855-78.615-33.647-165.146-33.647s-157.542,14.792-165.146,33.647H613.234Z" transform="translate(-97.169 -207.888)"/>
          <path id="Path_15889" data-name="Path 15889" d="M131.287,277.292V635.606A41.063,41.063,0,0,0,172.4,676.685H807.151a41.109,41.109,0,0,0,41.113-41.113V277.257a41,41,0,0,0-41.113-41.078H172.4c-.833,0-1.667,0-2.465.069a41.169,41.169,0,0,0-38.648,41.044Z" transform="translate(-105.314 -236.179)"/>
          <path id="Path_15890" data-name="Path 15890" d="M106.638,277.29V635.6a41.977,41.977,0,0,0,1.146,9.653,41.088,41.088,0,0,0,39.967,31.495h635.48a41.1,41.1,0,0,0,40.418-41.113V277.325a41.109,41.109,0,0,0-41.113-41.113H147.751a28.944,28.944,0,0,0-3.021.1,41.123,41.123,0,0,0-38.092,40.974Z" transform="translate(-106.638 -236.177)" fill="#aab6c2"/>
          <g id="Group_9150" data-name="Group 9150" transform="translate(28.092 23.195)">
            <rect id="Rectangle_7703" data-name="Rectangle 7703" width="658.884" height="392.24" rx="34.601" transform="translate(1.007 0.972)" fill="#fff"/>
            <path id="Path_15891" data-name="Path 15891" d="M756.728,260.171a35.492,35.492,0,0,1,35.453,35.453v319.32A35.492,35.492,0,0,1,756.728,650.4H170.764a35.492,35.492,0,0,1-35.453-35.453V295.624a35.492,35.492,0,0,1,35.453-35.453Zm0-1.979H170.764A37.463,37.463,0,0,0,133.3,295.659v319.32a37.463,37.463,0,0,0,37.467,37.467H756.728A37.463,37.463,0,0,0,794.2,614.979V295.659a37.463,37.463,0,0,0-37.467-37.467h0Z" transform="translate(-133.297 -258.192)"/>
          </g>
          <path id="Path_15892" data-name="Path 15892" d="M194.945,527.091l-3.715-2.257,60.662-46.46,62.919,29.064,55.072-60.072L490.132,488.93l56.947-78.684,58.961,24.133L724.935,303.47l4.236,1.806-121.5,133.756-58.51-23.994-56.808,78.476-120.665-41.7L316.27,512.195l-63.579-29.342Z" transform="translate(-102.094 -232.564)" fill="#cfcfcf"/>
          <rect id="Rectangle_7704" data-name="Rectangle 7704" width="21.077" height="75.628" transform="translate(198.863 312.132)" fill="#cfcfcf"/>
          <rect id="Rectangle_7705" data-name="Rectangle 7705" width="21.077" height="129.034" transform="translate(258.032 258.727)" fill="#e6e6e6"/>
          <rect id="Rectangle_7706" data-name="Rectangle 7706" width="21.077" height="110.526" transform="translate(317.236 277.269)" fill="#cfcfcf"/>
          <rect id="Rectangle_7707" data-name="Rectangle 7707" width="21.077" height="95.872" transform="translate(376.441 291.923)" fill="#cfcfcf"/>
          <rect id="Rectangle_7708" data-name="Rectangle 7708" width="21.077" height="154.729" transform="translate(435.645 233.066)" fill="#e6e6e6"/>
          <rect id="Rectangle_7709" data-name="Rectangle 7709" width="21.077" height="145.666" transform="translate(494.814 242.094)" fill="#cfcfcf"/>
          <rect id="Rectangle_7710" data-name="Rectangle 7710" width="21.077" height="199.731" transform="translate(554.018 188.064)" fill="#e6e6e6"/>
          <rect id="Rectangle_7711" data-name="Rectangle 7711" width="21.077" height="268.866" transform="translate(613.222 118.894)" fill="#cfcfcf"/>
          <path id="Path_15893" data-name="Path 15893" d="M711.927,305.314a11.6,11.6,0,1,1-11.6-11.6A11.6,11.6,0,0,1,711.927,305.314Z" transform="translate(-75.37 -233.088)" fill="#cfcfcf"/>
          <path id="Path_15894" data-name="Path 15894" d="M595.1,430.617a7.986,7.986,0,1,1-7.987-7.986A7.988,7.988,0,0,1,595.1,430.617Z" transform="translate(-81.258 -226.163)" fill="#cfcfcf"/>
          <path id="Path_15895" data-name="Path 15895" d="M538.486,406.791A7.987,7.987,0,1,1,530.5,398.8,7.988,7.988,0,0,1,538.486,406.791Z" transform="translate(-84.299 -227.443)" fill="#cfcfcf"/>
          <path id="Path_15896" data-name="Path 15896" d="M484.738,481.1a7.986,7.986,0,1,1-7.987-7.986A7.988,7.988,0,0,1,484.738,481.1Z" transform="translate(-87.186 -223.451)" fill="#cfcfcf"/>
          <path id="Path_15897" data-name="Path 15897" d="M371.18,443.238a7.986,7.986,0,1,1-7.986-7.986A7.988,7.988,0,0,1,371.18,443.238Z" transform="translate(-93.286 -225.485)" fill="#cfcfcf"/>
          <path id="Path_15898" data-name="Path 15898" d="M318.158,499.721a7.986,7.986,0,1,1-7.986-7.986A7.988,7.988,0,0,1,318.158,499.721Z" transform="translate(-96.134 -222.451)" fill="#cfcfcf"/>
        </g>
        <g id="Group_9188" data-name="Group 9188" transform="translate(34.446 85.308)">
          <g id="Group_9155" data-name="Group 9155" transform="translate(231.156 79.039)">
            <g id="Group_9152" data-name="Group 9152" transform="translate(0 80.768)">
              <path id="Path_15899" data-name="Path 15899" d="M539.523,470.02s.313.278.451.417c-35,45.453-94.726,61.5-147.958,44.169q7.969-13.542,15.9-27.085c40.731,21.286,93.372,16.529,131.6-17.535Z" transform="translate(-356.911 -468.735)"/>
              <path id="Path_15900" data-name="Path 15900" d="M395.542,529.416q13.594-25.678,27.189-51.322a234.968,234.968,0,0,1-64.031-6.528c4.757,24.376,18.334,44.794,36.807,57.85Z" transform="translate(-358.7 -468.65)"/>
              <path id="Path_15901" data-name="Path 15901" d="M358.733,471.713l3.09-2.882c1.944,2.084,3.924,4.132,5.972,6.042-.139,1.736-.243,3.438-.278,5.174q-4.531-3.906-8.75-8.334Z" transform="translate(-358.699 -468.797)"/>
              <path id="Path_15902" data-name="Path 15902" d="M539.405,469.952s.313.278.451.417c-35.349,44.308-94.344,59.2-146.291,41.46q7.969-13.542,15.9-27.085C448.915,506.412,500.862,502.8,539.405,469.952Z" transform="translate(-356.828 -468.736)" fill="#aab6c2"/>
              <path id="Path_15903" data-name="Path 15903" d="M396.808,526.857Q410.4,501.178,424,475.535a233.537,233.537,0,0,1-62.364-6.736C365.765,493.105,378.787,513.627,396.808,526.857Z" transform="translate(-358.543 -468.798)" fill="#aab6c2"/>
            </g>
            <g id="Group_9154" data-name="Group 9154" transform="translate(0.382)">
              <path id="Path_15904" data-name="Path 15904" d="M359.658,441.038c2.118-1.84,4.2-3.715,6.25-5.66,37.849-32.12,89.448-42.849,137.576-30.383-2.465,8.4-4.861,16.772-7.257,25.071a150.353,150.353,0,0,0-136.6,10.973Z" transform="translate(-359.033 -391.73)"/>
              <path id="Path_15905" data-name="Path 15905" d="M492.719,392.148q-6.615,23.8-12.848,46.981a485.688,485.688,0,0,1,57.294,1.6c-11.494-21.355-27.154-37.814-44.446-48.544Z" transform="translate(-352.573 -392.148)"/>
              <path id="Path_15906" data-name="Path 15906" d="M534.717,438.54c-.451,1.042-.868,2.049-1.32,3.09-2.153-1.632-4.306-3.195-6.493-4.688-.451-1.6-.938-3.16-1.458-4.722q4.74,2.969,9.271,6.354Z" transform="translate(-350.125 -389.996)"/>
              <g id="Group_9153" data-name="Group 9153" transform="translate(0 2.5)">
                <path id="Path_15907" data-name="Path 15907" d="M359.063,441.489c2.118-1.84,4.2-3.715,6.285-5.625,38.231-31.46,89.8-41.46,137.471-28.4-2.431,8.4-4.861,16.737-7.223,25.036A150.131,150.131,0,0,0,359.063,441.489Z" transform="translate(-359.063 -394.126)" fill="#f40"/>
                <path id="Path_15908" data-name="Path 15908" d="M492.058,394.521c-4.41,15.834-8.646,31.46-12.813,46.912a508.668,508.668,0,0,1,56.634,2.222c-11.251-21.529-26.7-38.2-43.821-49.134Z" transform="translate(-352.607 -394.521)" fill="#f40"/>
              </g>
            </g>
          </g>
          <g id="Group_9182" data-name="Group 9182" transform="translate(9.947)">
            <g id="Group_9157" data-name="Group 9157" transform="translate(71.796 111.993)">
              <path id="Path_15909" data-name="Path 15909" d="M243.254,471.618c-8.993-.278-17.64-7.813-20.7-18.82-3.021-10.9.486-21.772,7.952-26.668l-.208-.764,4.861-1.354c10.521-2.917,21.98,5.278,25.557,18.23,3.577,12.987-2.049,25.869-12.6,28.751l-4.653,1.424-.243-.833Z" transform="translate(-216.659 -423.422)"/>
              <path id="Path_15910" data-name="Path 15910" d="M217.977,454.05c3.577,12.987,15.244,21.216,25.765,18.3s15.973-15.869,12.4-28.855-15.035-21.147-25.557-18.23-16.181,15.8-12.6,28.751Z" transform="translate(-216.904 -423.355)" fill="#f40"/>
              <g id="Group_9156" data-name="Group 9156" transform="translate(3.409 5.455)">
                <path id="Path_15911" data-name="Path 15911" d="M221.2,452.925c2.952,10.66,12.5,17.431,21.147,15.035s13.126-13.021,10.174-23.682-12.327-17.362-21.008-15c-8.646,2.4-13.3,12.952-10.348,23.612Z" transform="translate(-220.132 -428.588)" fill="#f40"/>
                <path id="Path_15912" data-name="Path 15912" d="M244.708,449.387a5.694,5.694,0,0,0-.9-1.493,5.131,5.131,0,0,0-1.25-1.007,5.665,5.665,0,0,0-1.493-.625,11.837,11.837,0,0,0-1.667-.312,15.141,15.141,0,0,0-1.771-.1h-1.806l-3.056-7.153a4.2,4.2,0,0,1,2.465.1,6.032,6.032,0,0,1,2.153,1.528l2.57-1.111a7.313,7.313,0,0,0-1.736-1.945,6.693,6.693,0,0,0-2.014-1.076,6.048,6.048,0,0,0-2.222-.312,8.425,8.425,0,0,0-2.257.312l-.972-2.292-2.6,1.111.972,2.292a8.312,8.312,0,0,0-1.875,1.563,7.873,7.873,0,0,0-1.285,1.945,5.931,5.931,0,0,0-.521,2.153v.521a5.091,5.091,0,0,0,.417,1.7,7.348,7.348,0,0,0,.382.729,4.38,4.38,0,0,0,1.007,1.215,5.6,5.6,0,0,0,1.945,1.076c.347.1.694.208,1.042.278.174.035.347.069.556.1.208,0,.382.069.59.069h.1c.833.069,1.667.1,2.5.139l2.57,6.007.1.278h0l.1.243.521,1.25a5.171,5.171,0,0,1-1.458-.1,3.987,3.987,0,0,1-1.007-.382,1.406,1.406,0,0,1-.312-.174h0a.108.108,0,0,1-.069-.035c-.069-.035-.139-.1-.208-.139a4.948,4.948,0,0,1-1.042-.868,5.969,5.969,0,0,1-1.076-1.354l-2.743,1.146a9.217,9.217,0,0,0,1.632,2.014s0,.035.069.069l.139.139h0l.069.069c.069.035.1.1.174.139l.069.069a8.216,8.216,0,0,0,1.91,1.25,2.689,2.689,0,0,0,.556.243,1.107,1.107,0,0,0,.313.1l.313.1a8.114,8.114,0,0,0,1.319.313,6.915,6.915,0,0,0,2.535-.035l1.563,3.646,2.6-1.111L241.1,458.1a11.847,11.847,0,0,0,2.049-1.493,7.189,7.189,0,0,0,1.528-2.014,6.491,6.491,0,0,0,.66-2.431,5.743,5.743,0,0,0-.521-2.743ZM228.526,443.9a2.726,2.726,0,0,1-.035-2.153,3.856,3.856,0,0,1,1.7-1.91l2.6,6.146a9,9,0,0,1-1.424-.139,5.583,5.583,0,0,1-1.215-.347,3.119,3.119,0,0,1-.972-.625,2.68,2.68,0,0,1-.66-.938Zm13.82,8.056a3.776,3.776,0,0,1-.278,1.354,4.026,4.026,0,0,1-.8,1.25,5.831,5.831,0,0,1-1.319,1.042L237,448.693a12.473,12.473,0,0,1,1.632.1,10.355,10.355,0,0,1,1.493.313,5.308,5.308,0,0,1,1.181.556,2.235,2.235,0,0,1,.764.938,3.456,3.456,0,0,1,.278,1.319Z" transform="translate(-219.855 -428.314)"/>
                <path id="Path_15913" data-name="Path 15913" d="M244.957,467.173a13.179,13.179,0,0,1-2.535.972,15.092,15.092,0,0,1-12.882-2.639,23.625,23.625,0,0,1-7.674-27.605,15.04,15.04,0,0,1,9.653-8.82c8.75-2.4,18.265,4.375,21.251,15.14a22.939,22.939,0,0,1-.764,15.07,15.469,15.469,0,0,1-7.049,7.882Zm-23.543-14.306a22.222,22.222,0,0,0,8.368,12.292,14.708,14.708,0,0,0,12.535,2.6,14.44,14.44,0,0,0,9.306-8.612,22.663,22.663,0,0,0,.729-14.827c-2.917-10.521-12.223-17.188-20.73-14.827a14.544,14.544,0,0,0-9.375,8.612,22.121,22.121,0,0,0-.8,14.792h0Z" transform="translate(-220.139 -428.599)"/>
              </g>
            </g>
            <g id="Group_9159" data-name="Group 9159">
              <path id="Path_15914" data-name="Path 15914" d="M222.575,405.046c13.751-11.98,17.049-34.238,6.771-54.377-10.243-19.966-30.626-31.46-49.1-29.133l-.729-1.424-9.48,4.271c-20.591,9.237-27.4,36.009-15.244,59.794,12.153,23.751,38.717,35.522,59.308,26.286l9.271-3.889-.764-1.528Z" transform="translate(-148.768 -316.979)"/>
              <path id="Path_15915" data-name="Path 15915" d="M238.345,346.557c12.188,23.751,5.1,50.905-15.487,60.176-20.591,9.236-46.912-2.882-59.1-26.633S158.411,329.577,179,320.306s47.155,2.5,59.308,26.286Z" transform="translate(-148.288 -317.138)" fill="#f40"/>
              <g id="Group_9158" data-name="Group 9158" transform="translate(16.778 7.891)">
                <path id="Path_15916" data-name="Path 15916" d="M231.282,349.156c10,19.515,4.2,41.807-12.709,49.412s-38.543-2.361-48.544-21.876-4.375-41.495,12.535-49.1,38.717,2.049,48.717,21.563Z" transform="translate(-164.67 -324.607)" fill="#f40"/>
                <path id="Path_15917" data-name="Path 15917" d="M219.878,364.3a10.154,10.154,0,0,0-1.771-2.986,10.772,10.772,0,0,0-2.465-2.083,15.132,15.132,0,0,0-3.056-1.354,27.462,27.462,0,0,0-3.438-.764,32.231,32.231,0,0,0-3.681-.382l-3.785-.208-5.66-14.271a9.677,9.677,0,0,1,5.139.417,11.312,11.312,0,0,1,4.306,3.195l5.452-1.91a14.383,14.383,0,0,0-3.438-3.993,14,14,0,0,0-4.132-2.326,14.65,14.65,0,0,0-4.584-.833,18.389,18.389,0,0,0-4.757.417l-1.806-4.584-5.521,1.91,1.806,4.584a17.378,17.378,0,0,0-4.1,2.882,14.039,14.039,0,0,0-2.847,3.646,10.589,10.589,0,0,0-1.285,4.167,9.766,9.766,0,0,0-.035,1.007,8.825,8.825,0,0,0,.694,3.333,9.412,9.412,0,0,0,.694,1.458,8.82,8.82,0,0,0,2.014,2.465,12.557,12.557,0,0,0,3.924,2.292,22.081,22.081,0,0,0,2.153.66c.382.069.764.174,1.146.243l1.25.208h.208c1.7.208,3.438.382,5.209.486l4.757,12.014.208.521h0l.208.521.972,2.465a10.087,10.087,0,0,1-3.056-.347,11.378,11.378,0,0,1-2.049-.8c-.208-.1-.417-.243-.625-.347h0a.509.509,0,0,0-.139-.069l-.417-.312a14.089,14.089,0,0,1-2.083-1.771,13.758,13.758,0,0,1-2.118-2.743l-5.834,2.014a20.594,20.594,0,0,0,3.195,4.1.156.156,0,0,0,.1.1l.278.278h0c.035.035.1.069.139.139a2.249,2.249,0,0,0,.313.278c0,.035.069.1.139.139a18.544,18.544,0,0,0,3.854,2.639,6.481,6.481,0,0,0,1.111.521,2.328,2.328,0,0,0,.625.243,4.641,4.641,0,0,0,.625.243,17.265,17.265,0,0,0,2.708.729,16.067,16.067,0,0,0,5.313.139l2.882,7.292,5.521-1.91-2.813-7.153a24.483,24.483,0,0,0,4.41-2.743,14.444,14.444,0,0,0,3.368-3.785,11.659,11.659,0,0,0,1.632-4.653,11.168,11.168,0,0,0-.833-5.452Zm-33.231-12.258a5.077,5.077,0,0,1,.139-4.2,8.061,8.061,0,0,1,3.75-3.611l4.827,12.257c-1.042-.1-2.049-.243-2.986-.417a10.842,10.842,0,0,1-2.535-.8,7.015,7.015,0,0,1-1.945-1.285,4.818,4.818,0,0,1-1.25-1.91Zm28.022,17.015a6.626,6.626,0,0,1-.694,2.6,9.28,9.28,0,0,1-1.771,2.4A11.5,11.5,0,0,1,209.391,376l-5.452-13.785c1.181.069,2.292.208,3.4.382a18.766,18.766,0,0,1,3.056.729,8.61,8.61,0,0,1,2.4,1.215,4.257,4.257,0,0,1,1.458,1.875,6.929,6.929,0,0,1,.451,2.639Z" transform="translate(-163.857 -324.196)"/>
                <path id="Path_15918" data-name="Path 15918" d="M191.544,398.171a46.543,46.543,0,0,1-21.876-21.286c-10.07-19.688-4.375-41.946,12.709-49.62,8.3-3.715,17.987-3.507,27.328.625a45.845,45.845,0,0,1,21.98,21.147c4.861,9.514,6.216,19.966,3.75,29.446s-8.368,16.772-16.667,20.487a29.378,29.378,0,0,1-5.347,1.806,33.974,33.974,0,0,1-21.876-2.57Zm39.377-48.822a45.111,45.111,0,0,0-21.563-20.765c-9.1-4.028-18.542-4.236-26.6-.625-16.667,7.5-22.188,29.272-12.327,48.579a45.9,45.9,0,0,0,21.459,20.938c9.063,4.1,18.473,4.375,26.494.764,8.056-3.611,13.82-10.73,16.216-19.966,2.4-9.306,1.076-19.549-3.715-28.925h0Z" transform="translate(-164.691 -324.627)"/>
              </g>
            </g>
            <g id="Group_9168" data-name="Group 9168" transform="translate(106.944 41.097)">
              <g id="Group_9160" data-name="Group 9160" transform="translate(0 3.611)">
                <circle id="Ellipse_274" data-name="Ellipse 274" cx="31.147" cy="31.147" r="31.147" transform="translate(0.961 0.996)"/>
                <path id="Path_15919" data-name="Path 15919" d="M266.326,419.525a32.132,32.132,0,1,1,43.891-11.771A32.167,32.167,0,0,1,266.326,419.525Zm31.147-53.961a30.173,30.173,0,1,0,11.042,41.217A30.195,30.195,0,0,0,297.474,365.564Z" transform="translate(-250.26 -359.567)" fill="#1a1a1a"/>
              </g>
              <g id="Group_9167" data-name="Group 9167" transform="translate(2.083)">
                <g id="Group_9163" data-name="Group 9163">
                  <g id="Group_9161" data-name="Group 9161">
                    <circle id="Ellipse_275" data-name="Ellipse 275" cx="31.633" cy="31.633" r="31.633" transform="translate(0.475 0.475)" fill="#f40"/>
                    <path id="Path_15920" data-name="Path 15920" d="M299.937,361.269a31.161,31.161,0,1,1-42.571,11.389,31.157,31.157,0,0,1,42.571-11.389m.486-.833a32.132,32.132,0,1,0,11.771,43.891,32.167,32.167,0,0,0-11.771-43.891Z" transform="translate(-252.237 -356.14)" fill="#1a1a1a"/>
                  </g>
                  <g id="Group_9162" data-name="Group 9162" transform="translate(2.177 8.045)" opacity="0.24">
                    <path id="Path_15921" data-name="Path 15921" d="M260.962,366.732l13.577,50.662c.486.139.938.278,1.424.417l-13.994-52.19c-.347.347-.694.729-1.042,1.076Z" transform="translate(-253.947 -363.676)" fill="#e3e3e3"/>
                    <path id="Path_15922" data-name="Path 15922" d="M303.2,365.3c-.556-.521-1.146-1.042-1.736-1.528l9.41,35.106q.417-1.094.729-2.188l-8.4-31.356Z" transform="translate(-251.77 -363.775)" fill="#e3e3e3"/>
                    <path id="Path_15923" data-name="Path 15923" d="M254.3,379.189l8.195,30.522a31.593,31.593,0,0,0,7.986,5.695L258.4,370.3a31,31,0,0,0-4.063,8.924Z" transform="translate(-254.303 -363.425)" fill="#e3e3e3"/>
                  </g>
                </g>
                <circle id="Ellipse_276" data-name="Ellipse 276" cx="22.848" cy="22.848" r="22.848" transform="translate(9.26 9.26)" fill="#f40"/>
                <g id="Group_9165" data-name="Group 9165" transform="translate(9.26 9.26)" clip-path="url(#clip-path-3)">
                  <g id="Group_9164" data-name="Group 9164" transform="translate(-3.542 1.597)" opacity="0.24">
                    <path id="Path_15924" data-name="Path 15924" d="M263.563,369.1l12.014,44.863c.417.139.833.243,1.285.382l-12.4-46.217A11.976,11.976,0,0,0,263.563,369.1Z" transform="translate(-257.348 -366.354)" fill="#e3e3e3"/>
                    <path id="Path_15925" data-name="Path 15925" d="M300.978,367.8a18.536,18.536,0,0,0-1.528-1.354l8.334,31.078c.243-.625.451-1.285.66-1.944L301.012,367.8Z" transform="translate(-255.42 -366.444)" fill="#ff936b"/>
                    <path id="Path_15926" data-name="Path 15926" d="M257.664,380.094l7.257,27.015a27.408,27.408,0,0,0,7.084,5.035L261.31,372.211a28.477,28.477,0,0,0-3.611,7.882Z" transform="translate(-257.664 -366.135)" fill="#e3e3e3"/>
                  </g>
                </g>
                <path id="Path_15927" data-name="Path 15927" d="M293.682,384.036A11.267,11.267,0,0,0,289.2,378.9l-3.924,6.806,1.424,2.674c2.153,3.854,2.188,6.632.59,9.41-2.014,3.472-6.077,5.382-10.9,3.333l-2.361,4.1-1.7-.972,2.292-3.993a17.939,17.939,0,0,1-5.486-5.1l2.778-4.827a12,12,0,0,0,4.931,5.8l.1.069,4.1-7.084-1.632-2.986c-2.083-3.681-1.91-6.32-.347-9.028,1.771-3.09,5.486-5.313,10.73-3.125l1.945-3.4,1.7.972-1.875,3.264h.069a14.508,14.508,0,0,1,4.722,4.549L293.647,384Zm-9.48-.347,3.195-5.521a3.144,3.144,0,0,0-3.646,1.458c-.625,1.076-.451,2.4.451,4.063Zm-2.049,7.5-3.333,5.764a3.337,3.337,0,0,0,3.75-1.563C283.2,394.349,283.091,393,282.154,391.19Z" transform="translate(-251.33 -355.365)" fill="#1a1a1a"/>
                <path id="Path_15928" data-name="Path 15928" d="M277.454,365.627s-.243.069-.347.1c12.084-3.021,25.105,3.959,28.335,16.042s-4.549,24.654-16.529,28.057a1.235,1.235,0,0,0,.347-.069c12.188-3.264,19.862-15.765,16.6-27.953a23.308,23.308,0,0,0-28.4-16.181Z" transform="translate(-250.901 -355.673)" fill="#ff936b"/>
                <g id="Group_9166" data-name="Group 9166" transform="translate(8.928 9.171)">
                  <path id="Path_15929" data-name="Path 15929" d="M277.454,365.628s-.243.069-.347.1a22.839,22.839,0,0,1,11.841,44.1,1.235,1.235,0,0,0,.347-.069,22.847,22.847,0,0,0-11.841-44.134Z" transform="translate(-259.829 -364.843)" fill="#1a1a1a"/>
                  <path id="Path_15930" data-name="Path 15930" d="M262.189,393.57a22.834,22.834,0,0,1,15.8-27.883,1.234,1.234,0,0,0-.347.069,22.847,22.847,0,1,0,11.841,44.134,1.323,1.323,0,0,0,.347-.1,22.855,22.855,0,0,1-27.64-16.251Z" transform="translate(-260.71 -364.798)" fill="#1a1a1a"/>
                </g>
              </g>
            </g>
            <g id="Group_9170" data-name="Group 9170" transform="translate(496.78 117.028)">
              <path id="Path_15931" data-name="Path 15931" d="M646.573,476.4c-8.994-.278-17.64-7.813-20.7-18.82-3.021-10.9.486-21.772,7.952-26.668l-.208-.764,4.861-1.354c10.521-2.917,21.98,5.278,25.557,18.23,3.577,12.987-2.049,25.869-12.6,28.751l-4.653,1.424-.243-.833Z" transform="translate(-619.978 -428.2)"/>
              <path id="Path_15932" data-name="Path 15932" d="M621.3,458.861c3.577,12.987,15.244,21.216,25.765,18.3s15.973-15.869,12.4-28.855-15.035-21.147-25.557-18.23-16.181,15.8-12.6,28.751Z" transform="translate(-620.224 -428.132)" fill="#f40"/>
              <g id="Group_9169" data-name="Group 9169" transform="translate(3.409 5.49)">
                <path id="Path_15933" data-name="Path 15933" d="M624.518,457.7c2.952,10.66,12.5,17.431,21.147,15.035s13.126-13.021,10.174-23.682-12.327-17.362-21.008-15c-8.646,2.4-13.3,12.952-10.348,23.612Z" transform="translate(-623.451 -433.401)" fill="#f40"/>
                <path id="Path_15934" data-name="Path 15934" d="M647.3,456.364a4.488,4.488,0,0,0-.382-1.458,5.075,5.075,0,0,0-.764-1.146,6.74,6.74,0,0,0-1.076-.9,11.766,11.766,0,0,0-1.32-.695,14.214,14.214,0,0,0-1.458-.556c-.521-.174-1.007-.312-1.528-.486l-.729-6.771a3.9,3.9,0,0,1,2.049.695,4.856,4.856,0,0,1,1.389,1.84l2.431-.278a6.405,6.405,0,0,0-.972-2.083,5.54,5.54,0,0,0-1.424-1.424,5.893,5.893,0,0,0-1.771-.833,9.414,9.414,0,0,0-1.979-.313l-.243-2.188-2.465.278.243,2.188a6.657,6.657,0,0,0-1.979.833,8.119,8.119,0,0,0-1.563,1.285,4.78,4.78,0,0,0-.972,1.667c-.035.139-.1.278-.139.451A4.491,4.491,0,0,0,632.58,448a2.247,2.247,0,0,0,.139.694,3.9,3.9,0,0,0,.556,1.285,4.69,4.69,0,0,0,1.354,1.389c.243.174.521.347.8.521.139.069.278.139.452.208.139.069.313.139.486.208,0,0,.069,0,.069.035a18.36,18.36,0,0,0,2.083.729l.625,5.695V459h0v.243l.139,1.181a4.382,4.382,0,0,1-1.181-.451,4.03,4.03,0,0,1-.729-.556l-.208-.208h0a.107.107,0,0,0-.035-.069c-.035-.069-.1-.1-.139-.174a9.538,9.538,0,0,1-.66-.972,6.821,6.821,0,0,1-.556-1.389l-2.57.278a8.762,8.762,0,0,0,.868,2.118v.069c0,.069.069.1.069.139h0a.108.108,0,0,0,.035.069c0,.07.069.1.1.139a.108.108,0,0,0,.035.069,7.886,7.886,0,0,0,1.285,1.528c.139.1.243.243.382.347a.623.623,0,0,0,.243.174,1.465,1.465,0,0,0,.243.174,5.87,5.87,0,0,0,1.007.59,7.675,7.675,0,0,0,2.153.625l.382,3.438,2.465-.278-.382-3.4a9.3,9.3,0,0,0,2.083-.729,6.117,6.117,0,0,0,1.771-1.285,5.228,5.228,0,0,0,1.181-1.875,5.123,5.123,0,0,0,.243-2.465Zm-12.188-8.716a2.466,2.466,0,0,1,.521-1.806,3.418,3.418,0,0,1,1.91-1.181l.625,5.8a12,12,0,0,1-1.181-.486,6.177,6.177,0,0,1-.937-.59,3.359,3.359,0,0,1-.66-.764,2.145,2.145,0,0,1-.312-.972Zm9.549,10.243a3.019,3.019,0,0,1-.556,1.042,5.955,5.955,0,0,1-.972.868,4.812,4.812,0,0,1-1.354.556l-.694-6.528a8.684,8.684,0,0,1,1.319.521,4.47,4.47,0,0,1,1.146.625,3.58,3.58,0,0,1,.833.764,1.979,1.979,0,0,1,.382.972,3.336,3.336,0,0,1-.1,1.181Z" transform="translate(-622.971 -433.069)"/>
                <path id="Path_15935" data-name="Path 15935" d="M648.277,471.984a13.179,13.179,0,0,1-2.535.972,15.092,15.092,0,0,1-12.883-2.639,23.625,23.625,0,0,1-7.674-27.605,15.04,15.04,0,0,1,9.653-8.82c8.75-2.4,18.265,4.375,21.251,15.14a22.939,22.939,0,0,1-.764,15.07,15.47,15.47,0,0,1-7.049,7.882Zm-23.543-14.306A22.222,22.222,0,0,0,633.1,469.97a14.708,14.708,0,0,0,12.535,2.6,14.44,14.44,0,0,0,9.306-8.611,22.663,22.663,0,0,0,.729-14.827c-2.917-10.521-12.223-17.188-20.73-14.827a14.544,14.544,0,0,0-9.375,8.611,22.121,22.121,0,0,0-.8,14.792h0Z" transform="translate(-623.459 -433.41)"/>
              </g>
            </g>
            <g id="Group_9172" data-name="Group 9172" transform="translate(510.926 0.139)">
              <path id="Path_15936" data-name="Path 15936" d="M707.455,405.145c13.751-11.98,17.049-34.238,6.771-54.377-10.244-19.966-30.626-31.46-49.1-29.133l-.729-1.424-9.48,4.271c-20.591,9.237-27.4,36.009-15.244,59.794,12.153,23.751,38.717,35.522,59.308,26.286l9.271-3.889-.764-1.528Z" transform="translate(-633.648 -317.112)"/>
              <path id="Path_15937" data-name="Path 15937" d="M723.224,346.689c12.188,23.751,5.1,50.905-15.487,60.176-20.591,9.237-46.912-2.882-59.1-26.633s-5.347-50.523,15.244-59.794,47.155,2.5,59.308,26.286Z" transform="translate(-633.167 -317.27)" fill="#f40"/>
              <g id="Group_9171" data-name="Group 9171" transform="translate(16.778 7.891)">
                <path id="Path_15938" data-name="Path 15938" d="M716.162,349.255c10,19.515,4.2,41.807-12.709,49.412s-38.543-2.361-48.544-21.876-4.375-41.495,12.535-49.1S706.162,329.74,716.162,349.255Z" transform="translate(-649.55 -324.74)" fill="#f40"/>
                <path id="Path_15939" data-name="Path 15939" d="M704.758,364.4a10.157,10.157,0,0,0-1.771-2.986,10.771,10.771,0,0,0-2.465-2.083,15.138,15.138,0,0,0-3.056-1.354,27.468,27.468,0,0,0-3.438-.764,32.224,32.224,0,0,0-3.681-.382l-3.785-.208-5.66-14.271a9.676,9.676,0,0,1,5.139.417,11.312,11.312,0,0,1,4.306,3.195l5.452-1.91a14.382,14.382,0,0,0-3.438-3.993,14,14,0,0,0-4.132-2.327,14.652,14.652,0,0,0-4.584-.833,18.391,18.391,0,0,0-4.757.417l-1.806-4.584-5.521,1.91,1.806,4.584a17.378,17.378,0,0,0-4.1,2.882,14.039,14.039,0,0,0-2.847,3.646,10.588,10.588,0,0,0-1.285,4.167,9.773,9.773,0,0,0-.035,1.007,8.826,8.826,0,0,0,.694,3.333,9.4,9.4,0,0,0,.695,1.458,8.821,8.821,0,0,0,2.014,2.465,12.559,12.559,0,0,0,3.924,2.292,22.1,22.1,0,0,0,2.153.66c.382.069.764.174,1.146.243l1.25.208h.208c1.7.208,3.438.382,5.209.486l4.757,12.014.208.521h0l.208.521.972,2.465a10.086,10.086,0,0,1-3.056-.347,11.374,11.374,0,0,1-2.049-.8c-.208-.1-.417-.243-.625-.347h0a.509.509,0,0,0-.139-.069l-.417-.312a14.091,14.091,0,0,1-2.084-1.771,13.761,13.761,0,0,1-2.118-2.743l-5.834,2.014a20.6,20.6,0,0,0,3.195,4.1.157.157,0,0,0,.1.1l.278.278h0c.035.035.1.069.139.139a2.244,2.244,0,0,0,.313.278c0,.035.069.1.139.139a18.549,18.549,0,0,0,3.854,2.639,6.482,6.482,0,0,0,1.111.521,2.327,2.327,0,0,0,.625.243,4.645,4.645,0,0,0,.625.243,17.262,17.262,0,0,0,2.708.729,16.066,16.066,0,0,0,5.313.139l2.882,7.292,5.521-1.91L696.216,381a24.485,24.485,0,0,0,4.41-2.743,14.445,14.445,0,0,0,3.368-3.785,11.661,11.661,0,0,0,1.632-4.653,11.167,11.167,0,0,0-.833-5.452Zm-33.231-12.258a5.077,5.077,0,0,1,.139-4.2,8.061,8.061,0,0,1,3.75-3.611l4.827,12.257c-1.042-.1-2.049-.243-2.986-.417a10.842,10.842,0,0,1-2.535-.8,7.019,7.019,0,0,1-1.945-1.285,4.818,4.818,0,0,1-1.25-1.91Zm28.022,17.015a6.628,6.628,0,0,1-.695,2.6,9.277,9.277,0,0,1-1.771,2.4,11.5,11.5,0,0,1-2.813,1.945l-5.452-13.785c1.181.069,2.292.208,3.4.382a18.775,18.775,0,0,1,3.056.729,8.612,8.612,0,0,1,2.4,1.215,4.257,4.257,0,0,1,1.458,1.875,6.93,6.93,0,0,1,.451,2.639Z" transform="translate(-648.737 -324.33)"/>
                <path id="Path_15940" data-name="Path 15940" d="M676.424,398.3a46.542,46.542,0,0,1-21.876-21.286c-10.07-19.688-4.375-41.946,12.709-49.62,8.3-3.715,17.987-3.507,27.328.625a45.845,45.845,0,0,1,21.98,21.147c4.861,9.514,6.216,19.966,3.75,29.446s-8.368,16.772-16.667,20.487a29.371,29.371,0,0,1-5.348,1.806,33.974,33.974,0,0,1-21.876-2.569ZM715.8,349.481a45.111,45.111,0,0,0-21.564-20.765c-9.1-4.028-18.542-4.236-26.6-.625-16.667,7.5-22.189,29.272-12.327,48.579a45.9,45.9,0,0,0,21.459,20.938c9.063,4.1,18.473,4.375,26.494.764,8.056-3.611,13.82-10.73,16.216-19.966,2.4-9.306,1.076-19.549-3.716-28.925h0Z" transform="translate(-649.571 -324.758)"/>
              </g>
            </g>
            <g id="Group_9181" data-name="Group 9181" transform="translate(433.139 48.701)">
              <g id="Group_9173" data-name="Group 9173" transform="translate(0 3.577)">
                <circle id="Ellipse_278" data-name="Ellipse 278" cx="31.147" cy="31.147" r="31.147" transform="translate(0.996 0.996)"/>
                <path id="Path_15941" data-name="Path 15941" d="M575.893,426.708a32.132,32.132,0,1,1,43.891-11.771A32.167,32.167,0,0,1,575.893,426.708Zm31.147-53.961a30.173,30.173,0,1,0,11.042,41.217,30.195,30.195,0,0,0-11.042-41.217Z" transform="translate(-559.827 -366.751)" fill="#1a1a1a"/>
              </g>
              <g id="Group_9180" data-name="Group 9180" transform="translate(2.118)">
                <g id="Group_9176" data-name="Group 9176">
                  <g id="Group_9174" data-name="Group 9174">
                    <circle id="Ellipse_279" data-name="Ellipse 279" cx="31.633" cy="31.633" r="31.633" transform="translate(0.475 0.475)" fill="#f40"/>
                    <path id="Path_15942" data-name="Path 15942" d="M609.537,368.485a31.161,31.161,0,1,1-42.571,11.389,31.157,31.157,0,0,1,42.571-11.389m.486-.833a32.132,32.132,0,1,0,11.771,43.891,32.167,32.167,0,0,0-11.771-43.891Z" transform="translate(-561.837 -363.357)" fill="#1a1a1a"/>
                  </g>
                  <g id="Group_9175" data-name="Group 9175" transform="translate(2.177 8.01)" opacity="0.24">
                    <path id="Path_15943" data-name="Path 15943" d="M570.528,373.916l13.577,50.662c.486.139.938.278,1.424.417L571.535,372.8c-.347.347-.694.729-1.042,1.076Z" transform="translate(-563.549 -370.86)" fill="#e3e3e3"/>
                    <path id="Path_15944" data-name="Path 15944" d="M612.8,372.487c-.556-.521-1.146-1.042-1.736-1.528l9.41,35.106q.417-1.094.729-2.188l-8.4-31.356Z" transform="translate(-561.37 -370.959)" fill="#e3e3e3"/>
                    <path id="Path_15945" data-name="Path 15945" d="M563.9,386.373,572.1,416.9a31.591,31.591,0,0,0,7.986,5.695L568,377.484a31,31,0,0,0-4.063,8.924Z" transform="translate(-563.903 -370.609)" fill="#e3e3e3"/>
                  </g>
                </g>
                <circle id="Ellipse_280" data-name="Ellipse 280" cx="22.848" cy="22.848" r="22.848" transform="translate(9.261 9.26)" fill="#f40"/>
                <g id="Group_9178" data-name="Group 9178" transform="translate(9.261 9.26)" clip-path="url(#clip-path-3)">
                  <g id="Group_9177" data-name="Group 9177" transform="translate(-3.542 1.597)" opacity="0.24">
                    <path id="Path_15946" data-name="Path 15946" d="M573.163,376.281l12.014,44.863c.417.139.833.243,1.285.382l-12.4-46.217A11.938,11.938,0,0,0,573.163,376.281Z" transform="translate(-566.947 -373.573)" fill="#e3e3e3"/>
                    <path id="Path_15947" data-name="Path 15947" d="M610.577,375.016a18.559,18.559,0,0,0-1.528-1.354l8.334,31.078c.243-.625.451-1.285.66-1.945l-7.431-27.779Z" transform="translate(-565.019 -373.661)" fill="#ff936b"/>
                    <path id="Path_15948" data-name="Path 15948" d="M567.264,387.277l7.257,27.015a27.407,27.407,0,0,0,7.084,5.035L570.91,379.4a28.474,28.474,0,0,0-3.611,7.882Z" transform="translate(-567.264 -373.353)" fill="#e3e3e3"/>
                  </g>
                </g>
                <path id="Path_15949" data-name="Path 15949" d="M603.281,391.22a11.267,11.267,0,0,0-4.479-5.139l-3.924,6.806,1.424,2.674c2.153,3.854,2.188,6.632.59,9.41-2.014,3.472-6.077,5.382-10.9,3.333l-2.361,4.1-1.7-.972,2.292-3.993a17.939,17.939,0,0,1-5.486-5.1l2.778-4.827a12,12,0,0,0,4.931,5.8l.1.069,4.1-7.084L589.01,393.3c-2.083-3.681-1.91-6.32-.347-9.028,1.771-3.09,5.486-5.313,10.73-3.125l1.945-3.4,1.7.972-1.875,3.264h.07a14.507,14.507,0,0,1,4.722,4.549l-2.708,4.653Zm-9.48-.347L597,385.352a3.144,3.144,0,0,0-3.646,1.458C592.725,387.887,592.9,389.206,593.8,390.873Zm-2.049,7.5-3.333,5.764a3.337,3.337,0,0,0,3.75-1.563c.625-1.042.521-2.4-.417-4.2Z" transform="translate(-560.929 -362.584)" fill="#1a1a1a"/>
                <path id="Path_15950" data-name="Path 15950" d="M587.054,372.811s-.243.069-.347.1c12.084-3.021,25.105,3.959,28.335,16.042s-4.549,24.654-16.529,28.057a1.236,1.236,0,0,0,.347-.069c12.188-3.264,19.862-15.765,16.6-27.953a23.308,23.308,0,0,0-28.4-16.181Z" transform="translate(-560.501 -362.891)" fill="#ff936b"/>
                <g id="Group_9179" data-name="Group 9179" transform="translate(8.928 9.136)">
                  <path id="Path_15951" data-name="Path 15951" d="M587.054,372.812s-.243.069-.347.1a22.839,22.839,0,0,1,11.841,44.1,1.235,1.235,0,0,0,.347-.069,22.847,22.847,0,0,0-11.841-44.134Z" transform="translate(-569.429 -372.027)" fill="#1a1a1a"/>
                  <path id="Path_15952" data-name="Path 15952" d="M571.788,400.754a22.834,22.834,0,0,1,15.8-27.883,1.233,1.233,0,0,0-.347.069,22.847,22.847,0,1,0,11.841,44.134,1.324,1.324,0,0,0,.347-.1,22.855,22.855,0,0,1-27.64-16.251Z" transform="translate(-570.309 -371.982)" fill="#1a1a1a"/>
                </g>
              </g>
            </g>
          </g>
          <g id="Group_9187" data-name="Group 9187" transform="translate(0 177.655)">
            <g id="Group_9183" data-name="Group 9183" transform="translate(0 3.507)">
              <path id="Path_15953" data-name="Path 15953" d="M140.122,551.911a2.179,2.179,0,0,0,2.188,2.188h22.883a46.06,46.06,0,0,0,23.057,31.217,10.5,10.5,0,0,0-.59,3.333,10.918,10.918,0,0,0,16.772,9.237,10.828,10.828,0,0,0,5.834,1.7,10.946,10.946,0,0,0,10.695-8.716h38.509a10.975,10.975,0,0,0,10.695,8.716,10.623,10.623,0,0,0,5.8-1.7,10.8,10.8,0,0,0,5.8,1.7A10.937,10.937,0,0,0,292.7,588.648a8.459,8.459,0,0,0-.174-1.667,45.755,45.755,0,0,0,16.945-12.813h.035a45.423,45.423,0,0,0,8.855-17.154h5.452a12.709,12.709,0,1,0,0-25.418h-5.973a46.176,46.176,0,0,0-6.979-13.577,9.561,9.561,0,0,0,7.118-9.1V489.79a19.175,19.175,0,0,0-19.029,17.049,45.033,45.033,0,0,0-3.959-2.292V489.79a19.124,19.124,0,0,0-16.737,9.861c-1.354-.1-2.708-.208-4.063-.208H209.917a45.264,45.264,0,0,0-26.425,8.507h0c-.069.035-.1.1-.174.139-.729.521-1.424,1.042-2.118,1.6-.243.174-.451.417-.66.59-1.007.833-1.979,1.736-2.952,2.674l-.139.139c-7.952,7.848-13.23,18.508-13.23,30.349v1.736a39.507,39.507,0,0,0,.243,4.549h-3.611a8.108,8.108,0,0,0,.938-3.75,8.195,8.195,0,1,0-16.39,0,8.027,8.027,0,0,0,.972,3.75h-4.132a2.179,2.179,0,0,0-2.188,2.188Zm13.82-2.188h-.278a3.75,3.75,0,1,1,3.75-3.75A3.8,3.8,0,0,1,153.942,549.723Z" transform="translate(-139.289 -489.026)"/>
              <path id="Path_15954" data-name="Path 15954" d="M281.8,600.494a11.8,11.8,0,0,1-5.8-1.563,11.732,11.732,0,0,1-17.188-7.153H221.658a11.732,11.732,0,0,1-17.188,7.153,11.572,11.572,0,0,1-5.834,1.563,11.818,11.818,0,0,1-11.806-11.806,11.153,11.153,0,0,1,.417-2.917,48.207,48.207,0,0,1-10.1-7.674,46.409,46.409,0,0,1-12.6-23.057H142.384a3.056,3.056,0,1,1,0-6.111H145.2a8.244,8.244,0,0,1-.486-2.882,9.063,9.063,0,1,1,17.64,2.882h1.32c-.1-1.25-.139-2.5-.139-3.681v-1.736c0-11.389,4.792-22.362,13.473-30.939,1.215-1.181,2.188-2.049,3.16-2.847l.278-.243s.278-.243.417-.347c.625-.521,1.285-.972,1.91-1.458l.243-.174s.1-.069.174-.1h0a45.915,45.915,0,0,1,26.946-8.681H274.4a33.17,33.17,0,0,1,3.577.174,20,20,0,0,1,17.223-9.827.86.86,0,0,1,.868.868V504.17c.833.417,1.632.9,2.4,1.354a19.951,19.951,0,0,1,19.688-16.459.86.86,0,0,1,.868.868v19.133a10.505,10.505,0,0,1-6.6,9.549,45.847,45.847,0,0,1,6.216,12.257h5.347a13.577,13.577,0,0,1,0,27.154H319.2a46.776,46.776,0,0,1-8.855,16.841c-.035.069-.1.1-.139.139a47.282,47.282,0,0,1-6.632,6.528,46.651,46.651,0,0,1-9.931,6.146c.035.382.069.764.069,1.146A11.818,11.818,0,0,1,281.9,600.632Zm-5.8-3.438a1.194,1.194,0,0,1,.451.139,9.885,9.885,0,0,0,5.347,1.563,10.077,10.077,0,0,0,10.07-10.07,7.976,7.976,0,0,0-.174-1.563.866.866,0,0,1,.521-.938,44,44,0,0,0,10.139-6.181,47.174,47.174,0,0,0,6.493-6.389c.035-.035.069-.1.139-.139a44.838,44.838,0,0,0,8.611-16.7.854.854,0,0,1,.833-.625h5.486a11.841,11.841,0,1,0,0-23.682h-5.972a.855.855,0,0,1-.833-.625,45.429,45.429,0,0,0-6.841-13.334.938.938,0,0,1-.139-.8.8.8,0,0,1,.59-.556,8.712,8.712,0,0,0,6.459-8.264v-18.23a18.214,18.214,0,0,0-17.292,16.251.845.845,0,0,1-1.319.625,42.178,42.178,0,0,0-3.889-2.257.9.9,0,0,1-.486-.764V490.662a18.251,18.251,0,0,0-15.1,9.41.875.875,0,0,1-.833.451c-1.528-.139-2.778-.208-3.993-.208H209.991a44.4,44.4,0,0,0-25.939,8.334.108.108,0,0,0-.069.035.5.5,0,0,1-.1.069l-.243.174c-.625.451-1.25.9-1.84,1.389a2.245,2.245,0,0,0-.313.278,3.135,3.135,0,0,1-.347.313,38.419,38.419,0,0,0-2.882,2.639c-8.507,8.4-13.126,18.959-13.126,29.863v1.736a39.409,39.409,0,0,0,.243,4.445,1.068,1.068,0,0,1-.208.66.949.949,0,0,1-.66.278h-3.611a.846.846,0,0,1-.729-.417.789.789,0,0,1,0-.868,6.979,6.979,0,0,0,.833-3.333,7.327,7.327,0,0,0-14.653,0,6.826,6.826,0,0,0,.868,3.333.956.956,0,0,1,0,.868.892.892,0,0,1-.729.417h-4.132a1.319,1.319,0,1,0,0,2.639h22.883a.889.889,0,0,1,.868.695,44.459,44.459,0,0,0,12.292,22.883,45.848,45.848,0,0,0,10.313,7.743.893.893,0,0,1,.417,1.042,10.257,10.257,0,0,0-.521,3.056,10.039,10.039,0,0,0,15.417,8.507.909.909,0,0,1,.938,0,9.886,9.886,0,0,0,5.347,1.563,10.1,10.1,0,0,0,9.862-8.021.861.861,0,0,1,.868-.694h38.509a.889.889,0,0,1,.868.694,10.035,10.035,0,0,0,15.209,6.459.764.764,0,0,1,.451-.139ZM153.981,550.6H153.7a4.448,4.448,0,1,1,.347,0Zm-.278-7.5a2.882,2.882,0,0,0,0,5.764h.243a2.928,2.928,0,0,0,2.639-2.882A2.875,2.875,0,0,0,153.7,543.1Z" transform="translate(-139.328 -489.065)"/>
            </g>
            <g id="Group_9184" data-name="Group 9184" transform="translate(4.306 0.799)">
              <path id="Path_15955" data-name="Path 15955" d="M156.922,543.34H145.6a2.188,2.188,0,1,0,0,4.375h11.32a2.188,2.188,0,1,0,0-4.375Z" transform="translate(-143.414 -483.441)" fill="#e03c00"/>
              <path id="Path_15956" data-name="Path 15956" d="M148.522,540.2a8.21,8.21,0,0,0,8.195,8.195h12.431v-4.41h-5.174a8.109,8.109,0,0,0,.938-3.75,8.195,8.195,0,1,0-16.39,0Zm4.41,0a3.75,3.75,0,1,1,7.5,0,3.8,3.8,0,0,1-3.472,3.75h-.278A3.757,3.757,0,0,1,152.932,540.2Z" transform="translate(-143.14 -484.048)" fill="#e03c00"/>
              <path id="Path_15957" data-name="Path 15957" d="M318.8,526.171h-7.5a12.709,12.709,0,1,0,0,25.418h7.5a12.709,12.709,0,0,0,0-25.418Z" transform="translate(-135.079 -484.363)" fill="#e03c00"/>
              <path id="Path_15958" data-name="Path 15958" d="M294.078,505.627a9.585,9.585,0,0,0,19.168,0h0V486.495a19.147,19.147,0,0,0-19.133,19.133Z" transform="translate(-135.321 -486.495)" fill="#e03c00"/>
              <path id="Path_15959" data-name="Path 15959" d="M298.3,505.334a5.139,5.139,0,0,0,10.278-.035V491.306A14.707,14.707,0,0,0,298.3,505.334Z" transform="translate(-135.095 -486.236)" fill="#f40"/>
              <path id="Path_15960" data-name="Path 15960" d="M199.466,569.966A10.938,10.938,0,1,0,210.4,580.9,10.937,10.937,0,0,0,199.466,569.966Z" transform="translate(-140.991 -482.011)" fill="#e03c00"/>
              <path id="Path_15961" data-name="Path 15961" d="M210.505,569.966A10.938,10.938,0,1,0,221.443,580.9,10.937,10.937,0,0,0,210.505,569.966Z" transform="translate(-140.398 -482.011)" fill="#f40"/>
              <path id="Path_15962" data-name="Path 15962" d="M267.35,569.966A10.938,10.938,0,1,0,278.288,580.9,10.937,10.937,0,0,0,267.35,569.966Z" transform="translate(-137.344 -482.011)" fill="#e03c00"/>
              <path id="Path_15963" data-name="Path 15963" d="M278.39,569.966A10.938,10.938,0,1,0,289.328,580.9,10.937,10.937,0,0,0,278.39,569.966Z" transform="translate(-136.751 -482.011)" fill="#f40"/>
              <path id="Path_15964" data-name="Path 15964" d="M322.017,541.387A45.616,45.616,0,0,1,311.6,570.381h-.035a45.654,45.654,0,0,1-35.245,16.7H212.046a45.822,45.822,0,0,1-45.7-45.731c0-12.57,6.632-27.085,16.98-35.488a45.408,45.408,0,0,1,28.717-10.209H276.32a45.762,45.762,0,0,1,45.7,45.7Z" transform="translate(-142.182 -486.002)" fill="#f40"/>
              <path id="Path_15965" data-name="Path 15965" d="M311.532,569.948a45.654,45.654,0,0,1-35.245,16.7H212.013a45.822,45.822,0,0,1-45.7-45.731v-1.736c0-14.653,8.021-27.571,19.272-35.453-.521.729-1.215,1.424-1.7,2.222-4.1,6.736-6.945,14.41-6.945,22.709v3.959c0,23.925,19.723,43.509,43.821,43.509h68.371a43.453,43.453,0,0,0,22.4-6.181Z" transform="translate(-142.184 -485.569)" fill="#e03c00"/>
              <path id="Path_15966" data-name="Path 15966" d="M272.3,505.627a9.585,9.585,0,0,0,19.168,0h0V486.495a19.124,19.124,0,0,0-19.133,19.133Z" transform="translate(-136.491 -486.495)" fill="#e03c00"/>
              <path id="Path_15967" data-name="Path 15967" d="M276.514,505.334a5.139,5.139,0,0,0,10.278-.035V491.306a14.707,14.707,0,0,0-10.278,14.028Z" transform="translate(-136.265 -486.236)" fill="#f40"/>
              <path id="Path_15968" data-name="Path 15968" d="M301.727,518.822a3.316,3.316,0,1,0,3.3,3.334A3.327,3.327,0,0,0,301.727,518.822Z" transform="translate(-135.087 -484.758)" fill="#e03c00"/>
              <path id="Path_15969" data-name="Path 15969" d="M249.84,495.689,257.2,511.87l-13.126-1.7,3.681,17.64H235.533l10.834,25-34.377-38.2,19.619,4.2-9.445-19.168,12.4,4.375-7.778-8.334Z" transform="translate(-139.731 -486.001)"/>
            </g>
            <g id="Group_9185" data-name="Group 9185" transform="translate(434.082 3.403)">
              <path id="Path_15970" data-name="Path 15970" d="M748.569,551.911a2.179,2.179,0,0,1-2.188,2.188H723.5a46.06,46.06,0,0,1-23.057,31.217,10.5,10.5,0,0,1,.59,3.333,10.937,10.937,0,0,1-10.938,10.938,10.828,10.828,0,0,1-5.834-1.7,10.828,10.828,0,0,1-5.834,1.7,10.946,10.946,0,0,1-10.695-8.716H629.223a10.975,10.975,0,0,1-10.695,8.716,10.623,10.623,0,0,1-5.8-1.7,10.8,10.8,0,0,1-5.8,1.7,10.937,10.937,0,0,1-10.938-10.938,8.466,8.466,0,0,1,.174-1.667,45.757,45.757,0,0,1-16.945-12.813h-.035a45.423,45.423,0,0,1-8.855-17.154H564.88a12.709,12.709,0,1,1,0-25.418h5.972a46.177,46.177,0,0,1,6.979-13.577,9.561,9.561,0,0,1-7.118-9.1V489.79a19.175,19.175,0,0,1,19.029,17.049,45.05,45.05,0,0,1,3.958-2.292V489.79a19.124,19.124,0,0,1,16.737,9.861c1.354-.1,2.708-.208,4.063-.208h64.274a45.264,45.264,0,0,1,26.425,8.507h0c.069.035.1.1.174.139.729.521,1.424,1.042,2.118,1.6.243.174.451.417.66.59,1.007.833,1.979,1.736,2.952,2.674l.139.139c7.952,7.848,13.23,18.508,13.23,30.349v1.736a39.5,39.5,0,0,1-.243,4.549h3.611a8.108,8.108,0,0,1-.938-3.75,8.195,8.195,0,1,1,16.39,0,8.028,8.028,0,0,1-.972,3.75h4.132a2.179,2.179,0,0,1,2.188,2.188Zm-13.82-2.188h.278a3.75,3.75,0,1,0-3.75-3.75A3.8,3.8,0,0,0,734.749,549.723Z" transform="translate(-551.234 -488.922)"/>
              <path id="Path_15971" data-name="Path 15971" d="M690.142,600.5a12.034,12.034,0,0,1-5.834-1.563,11.572,11.572,0,0,1-5.834,1.563,11.856,11.856,0,0,1-11.389-8.716H629.931a11.732,11.732,0,0,1-17.188,7.153,11.75,11.75,0,0,1-17.6-10.244,6.35,6.35,0,0,1,.069-1.146,46.647,46.647,0,0,1-9.931-6.146,45.437,45.437,0,0,1-6.632-6.528c-.035-.035-.1-.069-.139-.139a46.75,46.75,0,0,1-8.854-16.841h-4.792a13.577,13.577,0,0,1,0-27.154h5.347a46.88,46.88,0,0,1,6.216-12.258,10.5,10.5,0,0,1-6.6-9.514V489.834a.86.86,0,0,1,.868-.868,19.978,19.978,0,0,1,19.688,16.459q1.2-.729,2.4-1.354V489.834a.86.86,0,0,1,.868-.868,20,20,0,0,1,17.223,9.827c1.32-.1,2.5-.174,3.577-.174h64.274a46.1,46.1,0,0,1,26.842,8.611.123.123,0,0,1,.1.069h0l-.139.347.278-.243.035.035h0l.208.139,1.979,1.458c.139.1.278.243.417.347.1.069.174.174.278.243.972.8,1.945,1.667,2.986,2.708l.174.174c8.681,8.542,13.473,19.549,13.473,30.939v1.736c0,1.215-.035,2.431-.139,3.681h1.32a9.063,9.063,0,1,1,17.154,0H746.5a3.056,3.056,0,1,1,0,6.111H724.345a46.529,46.529,0,0,1-12.6,23.057,47.059,47.059,0,0,1-10.1,7.674,11.151,11.151,0,0,1,.417,2.917,11.818,11.818,0,0,1-11.806,11.806Zm-5.834-3.438a1.194,1.194,0,0,1,.451.139,9.886,9.886,0,0,0,5.347,1.563,10.077,10.077,0,0,0,10.07-10.07,10.257,10.257,0,0,0-.521-3.056.868.868,0,0,1,.417-1.042,43.86,43.86,0,0,0,10.313-7.743,44.71,44.71,0,0,0,12.292-22.883.861.861,0,0,1,.868-.694h22.883a1.32,1.32,0,0,0,0-2.639H742.3a.846.846,0,0,1-.729-.417.863.863,0,0,1,0-.868,7.3,7.3,0,1,0-13.785-3.334,6.881,6.881,0,0,0,.833,3.334.957.957,0,0,1,0,.868.856.856,0,0,1-.729.417h-3.611a.948.948,0,0,1-.66-.278.768.768,0,0,1-.208-.66c.139-1.493.243-3.021.243-4.445v-1.736c0-10.9-4.618-21.459-12.987-29.724-1.146-1.146-2.118-1.979-3.021-2.743a3.121,3.121,0,0,1-.347-.312c-.1-.1-.208-.174-.312-.278-.625-.486-1.25-.972-1.875-1.424l-.208-.139h0s-.1-.069-.174-.1a44.4,44.4,0,0,0-25.939-8.334H614.513c-1.181,0-2.465.069-3.993.208a.9.9,0,0,1-.833-.451,18.346,18.346,0,0,0-15.1-9.41v13.855a.833.833,0,0,1-.486.764c-1.354.694-2.639,1.458-3.889,2.257a.886.886,0,0,1-.833.069.858.858,0,0,1-.486-.694,18.214,18.214,0,0,0-17.292-16.251v18.23a8.753,8.753,0,0,0,6.459,8.264.86.86,0,0,1,.59.556.82.82,0,0,1-.139.8,43.8,43.8,0,0,0-6.841,13.334.9.9,0,0,1-.833.625h-5.973a11.841,11.841,0,1,0,0,23.682h5.452a.9.9,0,0,1,.833.625,44.318,44.318,0,0,0,8.612,16.7s.069.035.069.069a45.371,45.371,0,0,0,16.667,12.639.933.933,0,0,1,.521.938,11.317,11.317,0,0,0-.174,1.563,10.077,10.077,0,0,0,10.07,10.07,10.192,10.192,0,0,0,5.347-1.563.909.909,0,0,1,.938,0,9.885,9.885,0,0,0,5.347,1.563,10.1,10.1,0,0,0,9.862-8.021.861.861,0,0,1,.868-.695H667.78a.889.889,0,0,1,.868.695,10.035,10.035,0,0,0,15.209,6.459.764.764,0,0,1,.451-.139Zm50.766-46.46h-.347a4.8,4.8,0,1,1,.347,0Zm-.243-1.736h.243a2.763,2.763,0,1,0-.243,0Z" transform="translate(-551.281 -488.966)"/>
            </g>
            <g id="Group_9186" data-name="Group 9186" transform="translate(436.235)">
              <path id="Path_15972" data-name="Path 15972" d="M727.32,545.661a2.215,2.215,0,0,0,2.222,2.222h11.494a2.222,2.222,0,0,0,0-4.445H729.542A2.238,2.238,0,0,0,727.32,545.661Z" transform="translate(-543.978 -482.637)" fill="#aab6c2"/>
              <path id="Path_15973" data-name="Path 15973" d="M730.071,531.971a8.284,8.284,0,0,0-8.264,8.264,8.393,8.393,0,0,0,.938,3.82h-5.278v4.479h12.64a8.264,8.264,0,1,0-.035-16.529Zm.035,12.084h-.312a3.943,3.943,0,1,1,.313,0Z" transform="translate(-544.507 -483.253)" fill="#aab6c2"/>
              <path id="Path_15974" data-name="Path 15974" d="M553.324,538.855a12.923,12.923,0,0,0,12.883,12.883h7.6a12.883,12.883,0,1,0,0-25.765h-7.6A12.923,12.923,0,0,0,553.324,538.855Z" transform="translate(-553.324 -483.575)" fill="#6d6e71"/>
              <path id="Path_15975" data-name="Path 15975" d="M571.22,485.737v19.411h0a9.688,9.688,0,0,0,19.376,0,19.4,19.4,0,0,0-19.411-19.411Z" transform="translate(-552.365 -485.737)" fill="#aab6c2"/>
              <path id="Path_15976" data-name="Path 15976" d="M575.438,490.648v14.167a5.209,5.209,0,0,0,10.417.035A15,15,0,0,0,575.4,490.614Z" transform="translate(-552.139 -485.475)" fill="#6d6e71"/>
              <path id="Path_15977" data-name="Path 15977" d="M675.648,581.5a11.077,11.077,0,1,0,11.077-11.077A11.085,11.085,0,0,0,675.648,581.5Z" transform="translate(-546.754 -481.187)" fill="#aab6c2"/>
              <path id="Path_15978" data-name="Path 15978" d="M664.444,581.5a11.077,11.077,0,1,0,11.077-11.077A11.085,11.085,0,0,0,664.444,581.5Z" transform="translate(-547.356 -481.187)" fill="#aab6c2"/>
              <path id="Path_15979" data-name="Path 15979" d="M606.775,581.5a11.077,11.077,0,1,0,11.077-11.077A11.085,11.085,0,0,0,606.775,581.5Z" transform="translate(-550.453 -481.187)" fill="#aab6c2"/>
              <path id="Path_15980" data-name="Path 15980" d="M595.571,581.5a11.077,11.077,0,1,0,11.077-11.077A11.085,11.085,0,0,0,595.571,581.5Z" transform="translate(-551.055 -481.187)" fill="#aab6c2"/>
              <path id="Path_15981" data-name="Path 15981" d="M582.917,508.641a46.082,46.082,0,0,1,32.745-13.612h65.176a46.391,46.391,0,0,1,0,92.782H615.661a46.2,46.2,0,0,1-35.731-16.945H579.9a46.219,46.219,0,0,1,3.056-62.156Z" transform="translate(-552.464 -485.237)" fill="#aab6c2"/>
              <path id="Path_15982" data-name="Path 15982" d="M602.131,576.641h69.343c24.446,0,44.446-19.862,44.446-44.134v-4.028c0-8.438-2.917-16.216-7.049-23.022-.486-.8-1.181-1.493-1.7-2.222,11.424,8.021,19.549,21.147,19.549,35.974v1.771a46.534,46.534,0,0,1-46.356,46.391H615.188a46.2,46.2,0,0,1-35.731-16.945,43.968,43.968,0,0,0,22.709,6.25Z" transform="translate(-551.921 -484.797)" fill="#6d6e71"/>
              <path id="Path_15983" data-name="Path 15983" d="M593.3,485.737v19.411h0a9.689,9.689,0,0,0,19.376,0,19.4,19.4,0,0,0-19.411-19.411Z" transform="translate(-551.179 -485.737)" fill="#aab6c2"/>
              <path id="Path_15984" data-name="Path 15984" d="M597.55,490.648v14.167a5.209,5.209,0,0,0,10.417.035,15,15,0,0,0-10.452-14.237Z" transform="translate(-550.951 -485.475)" fill="#6d6e71"/>
              <path id="Path_15985" data-name="Path 15985" d="M578.864,521.894a3.368,3.368,0,1,0,3.368-3.368A3.349,3.349,0,0,0,578.864,521.894Z" transform="translate(-551.953 -483.975)" fill="#6d6e71"/>
              <path id="Path_15986" data-name="Path 15986" d="M660.182,495.062l-7.813,8.473L664.9,499.09l-9.549,19.445,19.9-4.306-34.9,38.786,11.007-25.383H638.931l3.75-17.848-13.3,1.667,7.431-16.39Z" transform="translate(-549.239 -485.236)" fill="#6d6e71"/>
            </g>
          </g>
        </g>
      </g>
      <g id="Group_9205" data-name="Group 9205" transform="translate(551.689 595.084)">
        <g id="Group_9197" data-name="Group 9197" transform="translate(87.922 3.532)">
          <g id="Group_9190" data-name="Group 9190" transform="translate(10.938 86.775)">
            <path id="Path_15987" data-name="Path 15987" d="M692.257,793.177a2.75,2.75,0,0,0,2.847,2.6l20.452.07,95.039.278a2.7,2.7,0,0,0,2.847-2.57v-9.375a2.675,2.675,0,0,0-2.813-2.6h-9.9l-84.9-.278-20.7-.07a3.273,3.273,0,0,0-1.042.174,2.634,2.634,0,0,0-1.806,2.4v9.375Z" transform="translate(-691.805 -780.746)" fill="#f40"/>
            <path id="Path_15988" data-name="Path 15988" d="M810.619,796.57a3.205,3.205,0,0,0,3.368-3.056v-9.375a3.164,3.164,0,0,0-3.3-3.056L695.2,780.771a3.934,3.934,0,0,0-1.25.208,3.092,3.092,0,0,0-2.118,2.813v9.375a3.164,3.164,0,0,0,3.3,3.056l115.491.312ZM695.2,781.708l115.491.313a2.25,2.25,0,0,1,2.326,2.153v9.375a2.287,2.287,0,0,1-2.4,2.118l-115.491-.312A2.25,2.25,0,0,1,692.8,793.2v-9.375a2.259,2.259,0,0,1,1.528-1.979A2.4,2.4,0,0,1,695.2,781.708Z" transform="translate(-691.828 -780.771)"/>
          </g>
          <g id="Group_9191" data-name="Group 9191" transform="translate(0 72.399)">
            <path id="Path_15989" data-name="Path 15989" d="M681.91,779.534a2.75,2.75,0,0,0,2.847,2.6h9.9l21.355.1,84.205.243a2.707,2.707,0,0,0,1.077-.208,2.6,2.6,0,0,0,1.771-2.4v-9.375a2.7,2.7,0,0,0-2.813-2.6l-76.7-.208-38.752-.1a2.722,2.722,0,0,0-2.847,2.57v9.375Z" transform="translate(-681.423 -767.103)" fill="#f40"/>
            <path id="Path_15990" data-name="Path 15990" d="M800.273,782.927a3.252,3.252,0,0,0,1.285-.243,3.023,3.023,0,0,0,2.083-2.813V770.5a2.923,2.923,0,0,0-.938-2.153,3.481,3.481,0,0,0-2.4-.9l-115.457-.313a3.76,3.76,0,0,0-2.4.868,3,3,0,0,0-1.007,2.153v9.375a3.174,3.174,0,0,0,3.333,3.056l115.491.313ZM684.816,768.065h0l115.457.313a2.6,2.6,0,0,1,1.667.625,1.866,1.866,0,0,1,.66,1.493v9.375a2.172,2.172,0,0,1-1.493,1.979,2.417,2.417,0,0,1-.868.174l-115.491-.312a2.246,2.246,0,0,1-2.326-2.118v-9.375a2.2,2.2,0,0,1,.729-1.528,2.509,2.509,0,0,1,1.632-.625Z" transform="translate(-681.448 -767.128)"/>
          </g>
          <g id="Group_9192" data-name="Group 9192" transform="translate(7.675 57.885)">
            <path id="Path_15991" data-name="Path 15991" d="M689.192,765.726a2.75,2.75,0,0,0,2.847,2.6l31.182.1h0l84.275.208a2.755,2.755,0,0,0,2.882-2.57V756.7a2.545,2.545,0,0,0-1.91-2.465,2.587,2.587,0,0,0-.9-.139l-68.232-.208-39.724-.1h-7.5a2.731,2.731,0,0,0-2.882,2.57v9.375Z" transform="translate(-688.706 -753.33)" fill="#f40"/>
            <path id="Path_15992" data-name="Path 15992" d="M807.521,769.118a3.223,3.223,0,0,0,3.368-3.021v-9.375a3,3,0,0,0-2.257-2.882,4.085,4.085,0,0,0-1.076-.174L692.1,753.353a3.223,3.223,0,0,0-3.368,3.021v9.375a2.923,2.923,0,0,0,.938,2.153,3.457,3.457,0,0,0,2.361.9l115.457.313ZM692.1,754.256l115.457.313a2.1,2.1,0,0,1,.764.139,2.16,2.16,0,0,1,1.6,2.014V766.1a2.287,2.287,0,0,1-2.4,2.118l-84.17-.243-.208-.069-.1.069-30.974-.1a2.228,2.228,0,0,1-2.326-2.153v-9.375a2.31,2.31,0,0,1,2.4-2.118Z" transform="translate(-688.731 -753.353)"/>
          </g>
          <g id="Group_9193" data-name="Group 9193" transform="translate(10.938)">
            <path id="Path_15993" data-name="Path 15993" d="M692.257,710.791a2.75,2.75,0,0,0,2.847,2.6l20.452.069,95.039.278a2.7,2.7,0,0,0,2.847-2.57V701.8a2.675,2.675,0,0,0-2.813-2.6h-9.9l-84.9-.243-20.7-.069a3.273,3.273,0,0,0-1.042.174,2.634,2.634,0,0,0-1.806,2.4v9.375Z" transform="translate(-691.805 -698.395)" fill="#f40"/>
            <path id="Path_15994" data-name="Path 15994" d="M810.619,714.219a3.205,3.205,0,0,0,3.368-3.056v-9.375a3.164,3.164,0,0,0-3.3-3.056L695.2,698.419a3.934,3.934,0,0,0-1.25.208,3.092,3.092,0,0,0-2.118,2.813v9.375a3.164,3.164,0,0,0,3.3,3.056l115.491.313ZM695.2,699.357l115.491.313a2.25,2.25,0,0,1,2.326,2.153V711.2a2.287,2.287,0,0,1-2.4,2.118L695.127,713a2.25,2.25,0,0,1-2.326-2.153v-9.375a2.259,2.259,0,0,1,1.528-1.979A2.4,2.4,0,0,1,695.2,699.357Z" transform="translate(-691.828 -698.419)"/>
          </g>
          <g id="Group_9194" data-name="Group 9194" transform="translate(16.111 43.474)">
            <path id="Path_15995" data-name="Path 15995" d="M697.2,752.051a2.618,2.618,0,0,0,1.945,2.465,2.59,2.59,0,0,0,.9.139l38.578.1,69.378.208h7.5a2.679,2.679,0,0,0,2.847-2.57v-9.375a2.675,2.675,0,0,0-2.813-2.6H800.017l-70-.243h0l-29.932-.069a1.922,1.922,0,0,0-.625.069,2.656,2.656,0,0,0-2.222,2.5v9.375Z" transform="translate(-696.713 -739.654)" fill="#f40"/>
            <path id="Path_15996" data-name="Path 15996" d="M815.563,755.477a3.227,3.227,0,0,0,3.368-3.056v-9.376a3.174,3.174,0,0,0-3.334-3.056l-86.045-.243h0l-29.446-.069a2.848,2.848,0,0,0-.764.069,3.1,3.1,0,0,0-2.6,2.952v9.375a2.982,2.982,0,0,0,2.222,2.882,3.675,3.675,0,0,0,1.076.174l115.491.347Zm-85.386-14.792,85.421.243a2.246,2.246,0,0,1,2.326,2.118v9.375a2.287,2.287,0,0,1-2.4,2.118l-115.491-.313a2.708,2.708,0,0,1-.764-.1,2.2,2.2,0,0,1-1.6-2.014v-9.375a2.241,2.241,0,0,1,1.875-2.049,2.684,2.684,0,0,1,.521-.069l29.724.069.1.07.243-.07Z" transform="translate(-696.738 -739.677)"/>
          </g>
          <g id="Group_9195" data-name="Group 9195" transform="translate(0.035 28.96)">
            <path id="Path_15997" data-name="Path 15997" d="M681.91,738.272a2.75,2.75,0,0,0,2.847,2.6h15.522l30.418.139,69.517.208a1.92,1.92,0,0,0,.625-.07,2.622,2.622,0,0,0,2.222-2.5v-9.375a2.557,2.557,0,0,0-2.153-2.5,2.137,2.137,0,0,0-.66-.069l-65.871-.174-49.62-.139a2.747,2.747,0,0,0-2.847,2.57v9.375Z" transform="translate(-681.458 -725.876)" fill="#f40"/>
            <path id="Path_15998" data-name="Path 15998" d="M800.271,741.667a2.851,2.851,0,0,0,.764-.069,3.131,3.131,0,0,0,2.6-2.952v-9.375a3,3,0,0,0-2.535-2.951,2.619,2.619,0,0,0-.8-.1L684.849,725.9a2.388,2.388,0,0,0-.868.1,3.125,3.125,0,0,0-2.5,2.951v9.375a3.174,3.174,0,0,0,3.333,3.056l115.491.313ZM684.849,726.806l115.457.313a1.44,1.44,0,0,1,.555.069,2.173,2.173,0,0,1,1.806,2.083v9.375a2.206,2.206,0,0,1-1.84,2.049,2.68,2.68,0,0,1-.521.069l-115.491-.312a2.246,2.246,0,0,1-2.326-2.118v-9.375a2.243,2.243,0,0,1,1.771-2.049,3.058,3.058,0,0,1,.59-.069Z" transform="translate(-681.481 -725.903)"/>
          </g>
          <g id="Group_9196" data-name="Group 9196" transform="translate(0.034 14.549)">
            <path id="Path_15999" data-name="Path 15999" d="M681.91,724.635a2.59,2.59,0,0,0,2.153,2.5,2.137,2.137,0,0,0,.66.069l49.308.139,66.149.174a2.6,2.6,0,0,0,.729-.069,2.691,2.691,0,0,0,2.153-2.5v-9.375a2.7,2.7,0,0,0-2.813-2.6H787.921l-39.481-.139-63.649-.174h-.451a2.707,2.707,0,0,0-2.431,2.535v9.375Z" transform="translate(-681.457 -712.204)" fill="#f40"/>
            <path id="Path_16000" data-name="Path 16000" d="M800.271,728.026a2.39,2.39,0,0,0,.868-.1,3.126,3.126,0,0,0,2.5-2.952V715.6a2.923,2.923,0,0,0-.938-2.153,3.481,3.481,0,0,0-2.4-.9l-115.457-.312a2.463,2.463,0,0,0-.521.035,3.216,3.216,0,0,0-2.847,2.986v9.376a3,3,0,0,0,2.535,2.951,2.621,2.621,0,0,0,.8.1l115.491.313ZM684.849,713.164l115.457.313a2.426,2.426,0,0,1,1.667.625,1.866,1.866,0,0,1,.66,1.493v9.375a2.2,2.2,0,0,1-1.771,2.049,3.051,3.051,0,0,1-.59.069l-115.491-.312a1.185,1.185,0,0,1-.521-.07,2.173,2.173,0,0,1-1.806-2.083v-9.375a2.259,2.259,0,0,1,2.014-2.083h.347Z" transform="translate(-681.48 -712.227)"/>
          </g>
        </g>
        <g id="Group_9202" data-name="Group 9202" transform="translate(0 46.694)">
          <g id="Group_9198" data-name="Group 9198" transform="translate(0.036 43.37)">
            <path id="Path_16001" data-name="Path 16001" d="M601.315,795.517l115.491.313a2.777,2.777,0,0,0,2.882-2.569v-9.376a2.7,2.7,0,0,0-2.813-2.6l-115.491-.312a2.723,2.723,0,0,0-2.847,2.57v9.375a2.7,2.7,0,0,0,2.813,2.6Z" transform="translate(-598.016 -780.517)" fill="#f40"/>
            <path id="Path_16002" data-name="Path 16002" d="M716.833,796.339a3.4,3.4,0,0,0,2.361-.9,2.882,2.882,0,0,0,1.007-2.153v-9.375a2.8,2.8,0,0,0-.938-2.153,3.4,3.4,0,0,0-2.361-.9l-115.491-.313h0a3.227,3.227,0,0,0-3.368,3.056v9.375a3.174,3.174,0,0,0,3.333,3.056l115.491.312h0ZM601.376,781.477h0l115.491.312a2.6,2.6,0,0,1,1.667.625,2.018,2.018,0,0,1,.695,1.493v9.375a2,2,0,0,1-.729,1.493,2.6,2.6,0,0,1-1.667.625h0l-115.491-.312a2.224,2.224,0,0,1-2.327-2.118V783.6a2.287,2.287,0,0,1,2.4-2.118Z" transform="translate(-598.042 -780.54)"/>
          </g>
          <g id="Group_9199" data-name="Group 9199" transform="translate(23.334)">
            <path id="Path_16003" data-name="Path 16003" d="M623.427,754.325l115.491.313a2.777,2.777,0,0,0,2.882-2.57v-9.375a2.7,2.7,0,0,0-2.813-2.6L623.5,739.776a2.723,2.723,0,0,0-2.847,2.57v9.375a2.7,2.7,0,0,0,2.813,2.6Z" transform="translate(-620.126 -739.36)" fill="#f40"/>
            <path id="Path_16004" data-name="Path 16004" d="M738.945,755.145a3.223,3.223,0,0,0,3.368-3.021v-9.375a2.75,2.75,0,0,0-.938-2.153,3.458,3.458,0,0,0-2.361-.9l-115.491-.312h0a3.532,3.532,0,0,0-2.361.868,3.138,3.138,0,0,0-1.007,2.153v9.375a2.749,2.749,0,0,0,.938,2.153,3.457,3.457,0,0,0,2.361.9l115.491.312h0ZM623.488,740.284h0l115.491.313a2.425,2.425,0,0,1,1.667.625,2.018,2.018,0,0,1,.694,1.493v9.375a2,2,0,0,1-.729,1.493,2.6,2.6,0,0,1-1.667.625h0L623.453,753.9a2.426,2.426,0,0,1-1.667-.625,2.018,2.018,0,0,1-.694-1.493V742.4a2,2,0,0,1,.729-1.493A2.6,2.6,0,0,1,623.488,740.284Z" transform="translate(-620.152 -739.381)"/>
          </g>
          <g id="Group_9200" data-name="Group 9200" transform="translate(0 28.994)">
            <path id="Path_16005" data-name="Path 16005" d="M601.315,781.875l115.491.312a2.777,2.777,0,0,0,2.882-2.57v-9.375a2.7,2.7,0,0,0-2.813-2.6l-115.491-.312a2.723,2.723,0,0,0-2.847,2.57v9.375a2.7,2.7,0,0,0,2.813,2.6Z" transform="translate(-597.979 -766.874)" fill="#f40"/>
            <path id="Path_16006" data-name="Path 16006" d="M716.834,782.7a3.227,3.227,0,0,0,3.368-3.056v-9.375a2.8,2.8,0,0,0-.938-2.153,3.4,3.4,0,0,0-2.361-.9L601.413,766.9a3.69,3.69,0,0,0-2.4.868,3.138,3.138,0,0,0-1.007,2.153v9.375a2.8,2.8,0,0,0,.938,2.153,3.457,3.457,0,0,0,2.361.9l115.491.313h0ZM601.378,767.835h0l115.491.313a2.6,2.6,0,0,1,1.667.625,2.018,2.018,0,0,1,.695,1.493v9.375a2,2,0,0,1-.729,1.493,2.6,2.6,0,0,1-1.667.625h0l-115.491-.312a2.425,2.425,0,0,1-1.667-.625,2.018,2.018,0,0,1-.694-1.493v-9.375a2,2,0,0,1,.729-1.493A2.6,2.6,0,0,1,601.378,767.835Z" transform="translate(-598.007 -766.897)"/>
          </g>
          <g id="Group_9201" data-name="Group 9201" transform="translate(7.259 14.445)">
            <path id="Path_16007" data-name="Path 16007" d="M608.171,768.067l115.491.312a2.722,2.722,0,0,0,2.847-2.57v-9.375a2.7,2.7,0,0,0-2.813-2.6l-115.491-.312a2.722,2.722,0,0,0-2.847,2.57v9.375A2.7,2.7,0,0,0,608.171,768.067Z" transform="translate(-604.872 -753.066)" fill="#f40"/>
            <path id="Path_16008" data-name="Path 16008" d="M723.687,768.889a3.227,3.227,0,0,0,3.368-3.056v-9.375a2.8,2.8,0,0,0-.938-2.153,3.457,3.457,0,0,0-2.361-.9l-115.491-.312h0a3.223,3.223,0,0,0-3.368,3.021v9.375a3.174,3.174,0,0,0,3.333,3.056l115.491.313h0ZM608.231,754.027h0l115.491.312a2.224,2.224,0,0,1,2.326,2.118v9.375a2.287,2.287,0,0,1-2.4,2.118h0l-115.491-.313a2.246,2.246,0,0,1-2.326-2.118v-9.375a2.277,2.277,0,0,1,2.361-2.118Z" transform="translate(-604.896 -753.089)"/>
          </g>
        </g>
        <g id="Group_9204" data-name="Group 9204" transform="translate(156.2)">
          <path id="Path_16009" data-name="Path 16009" d="M829.815,791.345c15.556-13.125,19.306-37.5,7.639-59.551-11.6-21.876-34.689-34.481-55.593-31.911l-.8-1.562-10.73,4.688c-23.3,10.139-31.043,39.446-17.258,65.489,13.785,26.008,43.856,38.891,67.156,28.786l10.487-4.271-.868-1.667Z" transform="translate(-746.245 -694.893)"/>
          <path id="Path_16010" data-name="Path 16010" d="M847.671,727.316c13.785,26.043,5.8,55.766-17.5,65.871-23.3,10.139-53.127-3.16-66.913-29.168-13.785-26.043-6.042-55.35,17.258-65.489S833.886,701.273,847.671,727.316Z" transform="translate(-745.698 -695.067)" fill="#f40"/>
          <g id="Group_9203" data-name="Group 9203" transform="translate(19.02 8.576)">
            <path id="Path_16011" data-name="Path 16011" d="M839.688,730.153c11.32,21.39,4.757,45.8-14.376,54.1-19.168,8.334-43.648-2.6-54.933-23.959-11.32-21.39-4.966-45.453,14.167-53.787s43.856,2.257,55.176,23.647Z" transform="translate(-764.269 -703.181)" fill="#f40"/>
            <path id="Path_16012" data-name="Path 16012" d="M827.721,752.691a12.226,12.226,0,0,1-1.84,5.1,15.89,15.89,0,0,1-3.82,4.132,24.424,24.424,0,0,1-5,2.986l3.195,7.848-6.25,2.083-3.264-7.986a18.352,18.352,0,0,1-6.007-.174,23.255,23.255,0,0,1-3.056-.8,3290.709,3290.709,0,0,1-1.389-.556c-.417-.174-.833-.347-1.25-.556a22.149,22.149,0,0,1-4.375-2.882c-.069-.035-.1-.1-.139-.139a3.03,3.03,0,0,1-.382-.312L794,761.3h0a2.66,2.66,0,0,1-.312-.312c-.035,0-.1-.069-.139-.139a21.512,21.512,0,0,1-3.611-4.479l6.6-2.188a14.515,14.515,0,0,0,2.431,2.986,13.777,13.777,0,0,0,2.361,1.945,3.8,3.8,0,0,0,.486.312c.035,0,.1.07.174.1h0a7.373,7.373,0,0,0,.729.382,11.128,11.128,0,0,0,2.326.9,10.369,10.369,0,0,0,3.438.382l-1.111-2.708-.243-.556h0l-.243-.59-5.382-13.16c-2.014-.139-3.993-.312-5.9-.521h-.243c-.486-.07-.938-.139-1.389-.208-.452-.1-.868-.174-1.285-.278a24.865,24.865,0,0,1-2.431-.729,13.917,13.917,0,0,1-4.445-2.5,9.589,9.589,0,0,1-2.257-2.709,7.546,7.546,0,0,1-.764-1.6,10.607,10.607,0,0,1-.8-3.646,5.8,5.8,0,0,1,.069-1.111,11.294,11.294,0,0,1,1.458-4.549,15.134,15.134,0,0,1,3.229-3.993,19.265,19.265,0,0,1,4.653-3.16l-2.049-5.035,6.285-2.118,2.049,5.035a21.7,21.7,0,0,1,5.382-.451,16.8,16.8,0,0,1,9.862,3.472,16.87,16.87,0,0,1,3.889,4.341l-6.181,2.083A13.176,13.176,0,0,0,805.776,723a11.549,11.549,0,0,0-5.834-.486l6.389,15.626c1.458.069,2.882.139,4.306.243a40.315,40.315,0,0,1,4.167.417,33.487,33.487,0,0,1,3.889.833,16.779,16.779,0,0,1,3.438,1.458,12.716,12.716,0,0,1,2.813,2.292,12.536,12.536,0,0,1,2.951,9.237ZM790.567,735.4a8.807,8.807,0,0,0,2.188,1.424,13.046,13.046,0,0,0,2.847.868c1.042.208,2.188.347,3.368.486l-5.452-13.4a8.938,8.938,0,0,0-4.236,3.959,5.731,5.731,0,0,0,1.25,6.7Zm29.793,13.646a4.85,4.85,0,0,0-1.667-2.083,9.886,9.886,0,0,0-2.708-1.354,19.62,19.62,0,0,0-3.472-.8,33.611,33.611,0,0,0-3.854-.417l6.146,15.1A12.786,12.786,0,0,0,818,757.378a10.533,10.533,0,0,0,2.014-2.6,6.646,6.646,0,0,0,.8-2.847,6.948,6.948,0,0,0-.521-2.882Z" transform="translate(-763.344 -702.732)"/>
            <path id="Path_16013" data-name="Path 16013" d="M819.47,786.638a33.247,33.247,0,0,0,6.042-1.979c9.41-4.1,16.112-12.049,18.89-22.466,2.778-10.382,1.25-21.841-4.271-32.258a51.249,51.249,0,0,0-24.862-23.161c-10.556-4.514-21.529-4.757-30.939-.66-19.341,8.4-25.8,32.814-14.41,54.377a52,52,0,0,0,24.758,23.334c8.3,3.646,16.911,4.618,24.758,2.813Zm19.793-56.287c5.417,10.243,6.91,21.494,4.2,31.668-2.708,10.139-9.237,17.883-18.369,21.876-9.1,3.959-19.758,3.646-30-.833a50.96,50.96,0,0,1-24.307-22.918c-11.181-21.112-4.931-45,13.959-53.2,9.132-3.958,19.827-3.715,30.105.694a50.21,50.21,0,0,1,24.411,22.744h0Z" transform="translate(-764.295 -703.206)"/>
          </g>
        </g>
      </g>
      <g id="Group_9211" data-name="Group 9211" transform="translate(0 479.085)">
        <g id="Group_9210" data-name="Group 9210">
          <path id="Path_16014" data-name="Path 16014" d="M137.383,645.1a18.057,18.057,0,0,1-10.313-3.4,89.186,89.186,0,0,0,1.528,18.994c4.063,6.528,15.313,18.577,14.549,18.508a34.567,34.567,0,0,1-9.028-2.118,67.728,67.728,0,0,0,6.875,11.25c5.452,7.292,13.23,13.126,16.216,22.015a.553.553,0,0,0,.347.382.658.658,0,0,0,1.076.486c14.688-13.959,17.327-35.14,19.48-54.273.1-.9.208-1.806.278-2.708a59.126,59.126,0,0,1-13.542,10.591c-.694.382,9.2-15.487,14.063-22.779a42.862,42.862,0,0,0-2.535-13.577c-3.438-9.2-9.341-17.848-15.07-25.765-.243-.312-.486-.625-.729-.972a44.543,44.543,0,0,1-6.32,11.459c-.451.625,1.042-11.6,1.979-17.188-1.424-1.771-2.882-3.576-4.375-5.278-1.945-2.326-4.375-6.216-7.882-5.695-3.4.486-11.181,14.48-12.188,18.473q-.625,2.552-1.146,5.209c-.174.764-.313,1.528-.451,2.257a210.693,210.693,0,0,0-2.6,21.286,12.552,12.552,0,0,0,.764,1.111c2.847,3.889,9.757,11.771,9.063,11.771Z" transform="translate(-71.616 -584.981)" fill="#cfcfcf"/>
          <path id="Path_16015" data-name="Path 16015" d="M206.4,683.394a18.132,18.132,0,0,0,9.757.833,63.394,63.394,0,0,1-6.806,13.751c-5.347,3.577-18.4,8.924-17.744,9.133a38.06,38.06,0,0,0,8.3,1.389,50.229,50.229,0,0,1-9.132,6.181c-6.771,3.681-15.07,5.486-20.175,11.216a.423.423,0,0,1-.417.174.6.6,0,0,1-1.042,0c-8.438-15.313-4.514-32.12-.8-47.19.174-.729.347-1.424.556-2.118a53.277,53.277,0,0,0,8.438,12.4c.486.521-3.333-14.653-5.313-21.737a31.717,31.717,0,0,1,6.077-9.375c5.591-5.8,13.126-10.348,20.279-14.41.278-.174.59-.312.9-.486a34.928,34.928,0,0,0,2.049,10.7c.208.625,2.5-9.063,3.3-13.542,1.736-.868,3.472-1.736,5.243-2.535,2.326-1.076,5.521-3.229,8.368-1.7,2.778,1.493,5.313,14.549,5,17.883-.139,1.424-.312,2.847-.521,4.306-.069.625-.174,1.25-.278,1.84a152.179,152.179,0,0,1-3.958,16.841,9.05,9.05,0,0,1-.972.59c-3.542,1.979-11.737,5.625-11.146,5.868Z" transform="translate(-69.625 -582.265)" fill="#cfcfcf"/>
          <path id="Path_16016" data-name="Path 16016" d="M74.477,674.27c.1,5.972,13.924,8.889,18.3,10.487,9.723,3.611,19.2,7.223,26.39,15.035,8.473,9.237,15.765,19.862,23.091,30.036a1.673,1.673,0,0,0,1.736.729,28.465,28.465,0,0,0,2.014-4.375c2.535-6.216,6.389-17.57,5.417-24.064a38.774,38.774,0,0,0-4.41-12.917,11.213,11.213,0,0,1-2.778,5.452c-.347.347-1.111-8.16-1.6-12.049-.625-.8-1.285-1.528-1.979-2.292a43.976,43.976,0,0,0-5.1-4.722c-.382-.313-.764-.625-1.181-.9a51.456,51.456,0,0,0-4.653-3.09c-.417-.243-.868-.486-1.32-.764-1.493-.833-3.056-1.6-4.653-2.292a30.843,30.843,0,0,1-2.57,8.507c-.278.556-.9-6.736-1.007-9.966-1.493-.556-3.021-1.042-4.584-1.493a24.189,24.189,0,0,1-1.91,5.521c-.208.417-2.257-4.514-3.021-6.7a58.028,58.028,0,0,0-14.827-1.146,7.54,7.54,0,0,0-1.25.07c-1.319.1-2.639.243-3.924.451-4.757.729-15.973,3.75-16.216,10.209v.174Z" transform="translate(-74.442 -580.78)" fill="#cfcfcf"/>
          <g id="Group_9209" data-name="Group 9209" transform="translate(0.104 18.148)">
            <path id="Path_16017" data-name="Path 16017" d="M150.483,637.126c-7.257-1.111-12.778-5.66-18.126-10.417-.8-.694.174-2.049,1.007-1.32,5,4.41,10.174,8.855,16.945,10q-2.292-16.2-5.452-32.258c-.208-1.042,1.424-1.32,1.632-.243,2.813,14.2,5.07,28.473,6.875,42.814a71.14,71.14,0,0,0,9.584-19.306c.313-1.007,1.875-.382,1.528.625A72.716,72.716,0,0,1,154.163,647.4a.682.682,0,0,1-.59.312c.382,3.125.729,6.285,1.076,9.41a45.338,45.338,0,0,0,7.118-12.466.826.826,0,0,1,1.528.625,45.773,45.773,0,0,1-8.091,13.82,1.248,1.248,0,0,1-.347.243q1.615,15.521,2.4,31.078a.587.587,0,0,1,.1.347c.208,3.785.347,7.6.382,11.389.069,2.465.139,4.965.208,7.431a.651.651,0,0,1-.243.556c-.417,23.4-3.889,46.53-8.82,69.413-.521-.139-1.076-.243-1.6-.382,5.556-25.869,9.271-52.051,8.785-78.58-.1-2.813-.208-5.591-.347-8.4a.808.808,0,0,1-.729-.1,27.966,27.966,0,0,1-7.6-7.778c-.59-.9.729-1.945,1.285-1.042a26.953,26.953,0,0,0,6.945,7.223q-1.406-26.824-5.139-53.44h-.069Z" transform="translate(-71.451 -602.204)"/>
            <g id="Group_9206" data-name="Group 9206" transform="translate(87.122 48.51)">
              <path id="Path_16018" data-name="Path 16018" d="M157.361,780.563c2.465-18.82,6.25-37.328,12.674-55.072A.483.483,0,0,1,170,725c.764-1.84,1.528-3.681,2.326-5.521q1.719-4.219,3.646-8.438a.623.623,0,0,1,.174-.243c3.472-7.6,7.188-15.14,11.077-22.57a.54.54,0,0,1-.208-.278,36.672,36.672,0,0,1-2.882-13.056c0-.868,1.458-.833,1.493.035a34.387,34.387,0,0,0,2.431,11.7c1.181-2.257,2.4-4.479,3.646-6.736a.681.681,0,0,1-.417-.451,56.815,56.815,0,0,1-2.847-18.682c0-.868,1.493-.833,1.493.035a54.981,54.981,0,0,0,2.57,17.64c5.695-10.174,11.771-20.175,18.265-29.9.486-.729,1.806,0,1.32.729-4.9,7.361-9.549,14.827-14.028,22.432,6.077,1.354,11.771-.243,17.327-1.945.9-.278,1.354,1.077.451,1.32-5.9,1.806-11.945,3.438-18.438,1.875h-.069q-10.886,18.751-19.9,38.439a22.592,22.592,0,0,0,7.986-3.125c.764-.486,1.563.729.8,1.215a23.476,23.476,0,0,1-8.716,3.333.721.721,0,0,1-.66-.174c-.938,2.049-1.84,4.132-2.743,6.181-8.125,19.758-12.57,40.661-15.383,61.912-.486-.069-.972-.174-1.493-.243Z" transform="translate(-157.222 -648.241)"/>
              <path id="Path_16019" data-name="Path 16019" d="M207.534,662.131a38.577,38.577,0,0,0,12.917-5.035c-.069.625-.174,1.25-.278,1.84a39.892,39.892,0,0,1-12.153,4.514c-.938.174-1.389-1.146-.451-1.319Z" transform="translate(-154.545 -647.765)"/>
            </g>
            <g id="Group_9207" data-name="Group 9207" transform="translate(0 72.007)">
              <path id="Path_16020" data-name="Path 16020" d="M127.668,689.4c11.737,11.6,15.383,32.883,16.147,38.925a27.474,27.474,0,0,1,2.431,7.882c1.389,9.549.972,19.654.764,29.272-.069,3.16-.208,6.32-.382,9.479-.556-.1-1.076-.208-1.632-.312.1-1.979.208-3.993.278-6.007.278-8.612.278-17.258-.1-25.9-.208-4.445-.625-8.924-2.326-13.056a1.709,1.709,0,0,1-.521-.486C135,719.022,127.7,708.4,119.231,699.16c-7.188-7.813-16.667-11.459-26.39-15.035-4.375-1.632-18.23-4.514-18.3-10.487,18.438,2.153,39.689,2.361,53.2,15.73Z" transform="translate(-74.541 -670.374)"/>
              <path id="Path_16021" data-name="Path 16021" d="M125.455,683.875a38.239,38.239,0,0,0,.243-13.334c.451.243.868.486,1.32.764a39.2,39.2,0,0,1-.382,12.883c-.139.764-1.32.486-1.181-.278Z" transform="translate(-71.807 -670.541)"/>
              <path id="Path_16022" data-name="Path 16022" d="M129.707,686.076a51.088,51.088,0,0,0,1.7-11.91c.382.278.8.59,1.181.9a51.558,51.558,0,0,1-1.7,11.25c-.208.764-1.389.486-1.181-.278Z" transform="translate(-71.579 -670.346)"/>
            </g>
            <g id="Group_9208" data-name="Group 9208" transform="translate(38.474 150.761)">
              <path id="Path_16023" data-name="Path 16023" d="M179.171,796.137a42.357,42.357,0,0,0,16.32-25.175,41.9,41.9,0,0,0,.938-8.855,43.671,43.671,0,0,0-1.007-9.2,39.813,39.813,0,0,0-2.118-6.736H115.036a42.087,42.087,0,0,0-2.118,6.736,42.936,42.936,0,0,0-1.007,9.2,41.185,41.185,0,0,0,.938,8.855,42.279,42.279,0,0,0,16.32,25.209h50.037Z" transform="translate(-111.008 -745.232)" fill="#fff"/>
              <path id="Path_16024" data-name="Path 16024" d="M115.672,747.05h77.087a43.073,43.073,0,0,1,1.84,6.042,41.352,41.352,0,0,1,1.007,9.028,41.824,41.824,0,0,1-.9,8.681,41.243,41.243,0,0,1-15.73,24.48H129.527A41.243,41.243,0,0,1,113.8,770.8a41.56,41.56,0,0,1,.1-17.709,40.875,40.875,0,0,1,1.84-6.077h0Zm-1.181-1.771a44.2,44.2,0,0,0-2.4,7.431,43.466,43.466,0,0,0-.1,18.438,43.264,43.264,0,0,0,16.876,25.9H179.46a43.134,43.134,0,0,0,16.772-44.342,41.165,41.165,0,0,0-2.361-7.431H114.422Z" transform="translate(-111.054 -745.279)"/>
            </g>
          </g>
        </g>
        <path id="Path_16025" data-name="Path 16025" d="M111.418,762.8a42.5,42.5,0,0,0,17.64,34.55h50.037c-65.385,3.229-64.308-51.183-64.308-51.183a40.461,40.461,0,0,0-2.361,7.361,43.18,43.18,0,0,0-1.042,9.306Z" transform="translate(-72.458 -576.322)"/>
      </g>
      <g id="Group_9212" data-name="Group 9212" transform="translate(327.758 174.049)">
        <path id="Path_16026" data-name="Path 16026" d="M397.853,338.968h23.161v10.8H385.492V295.528h34.793v10.8H397.853v11.181h19.688V328.62H397.853V339Z" transform="translate(-385.492 -295.493)"/>
        <path id="Path_16027" data-name="Path 16027" d="M465.355,295.5v10.8H451.014v43.474H438.652V306.294H424.311V295.5H465.32Z" transform="translate(-383.406 -295.495)"/>
        <path id="Path_16028" data-name="Path 16028" d="M504.986,306.293h-21.98v11.424h17.4v10.695h-17.4v21.355H470.644V295.528h34.342v10.8Z" transform="translate(-380.918 -295.493)"/>
      </g>
      <g id="Group_9213" data-name="Group 9213" transform="translate(323.556 170.576)">
        <path id="Path_16029" data-name="Path 16029" d="M393.866,335.672h23.161v10.8H381.5V292.233H416.3v10.8H393.866v11.181h19.688v11.112H393.866v10.382Z" transform="translate(-381.504 -292.198)" fill="#f40"/>
        <path id="Path_16030" data-name="Path 16030" d="M461.367,292.2V303H447.026v43.474H434.665V303H420.324V292.2h41.009Z" transform="translate(-379.419 -292.2)" fill="#f40"/>
        <path id="Path_16031" data-name="Path 16031" d="M501.031,303h-21.98v11.424h17.4v10.695h-17.4v21.32H466.689V292.2h34.342Z" transform="translate(-376.928 -292.2)" fill="#f40"/>
      </g>
    </g>
  </g>
</svg>
