<svg xmlns="http://www.w3.org/2000/svg" xmlns:xlink="http://www.w3.org/1999/xlink" width="684.012" height="660.204" viewBox="0 0 684.012 660.204">
  <defs>
    <clipPath id="clip-path">
      <path id="Path_6659" data-name="Path 6659" d="M342.9,682.557c103.86,3.407,290.711-29.454,346.409-225.872C744.972,260.268,543.214,305.547,472.8,88.98,420.285-72.478-47.185,66.6,60.181,481.324,107.393,663.653,252.8,679.609,342.9,682.557Z" transform="translate(-44.218 -23.434)" fill="none"/>
    </clipPath>
  </defs>
  <g id="Stock_Market_01_indices" transform="translate(-44.218 -23.434)">
    <g id="Camada_5" transform="translate(44.218 23.434)">
      <path id="Path_6650" data-name="Path 6650" d="M342.9,682.557c103.86,3.407,290.711-29.454,346.409-225.872C744.972,260.268,543.214,305.547,472.8,88.98,420.285-72.478-47.185,66.6,60.181,481.324,107.393,663.653,252.8,679.609,342.9,682.557Z" transform="translate(-44.218 -23.434)" fill="#e6ebf0"/>
      <g id="Group_2680" data-name="Group 2680" clip-path="url(#clip-path)">
        <g id="Group_2679" data-name="Group 2679" transform="translate(-275.403 -89)">
          <g id="Group_2675" data-name="Group 2675" transform="translate(99.929 106.154)">
            <g id="Group_2669" data-name="Group 2669" transform="translate(117.13)">
              <path id="Path_6651" data-name="Path 6651" d="M78.275,175.451V150.059h42.134V28.67H132.04V150.059h45.378v25.392h24.311V684.5H26.41V175.451Z" transform="translate(-26.41 -28.67)" fill="#c6d0db"/>
              <rect id="Rectangle_2478" data-name="Rectangle 2478" width="24.311" height="457.903" transform="translate(0 146.781)" fill="#aab6c2"/>
            </g>
            <g id="Group_2670" data-name="Group 2670" transform="translate(204.772 268.039)">
              <rect id="Rectangle_2479" data-name="Rectangle 2479" width="175.318" height="387.789" transform="translate(0)" fill="#c6d0db"/>
              <rect id="Rectangle_2480" data-name="Rectangle 2480" width="24.311" height="387.789" transform="translate(0)" fill="#aab6c2"/>
              <rect id="Rectangle_2481" data-name="Rectangle 2481" width="25.162" height="10.452" transform="translate(125.714 16.546)" fill="#aab6c2"/>
              <rect id="Rectangle_2482" data-name="Rectangle 2482" width="25.162" height="10.452" transform="translate(83.35 16.546)" fill="#aab6c2"/>
              <rect id="Rectangle_2483" data-name="Rectangle 2483" width="25.162" height="10.452" transform="translate(125.714 54.551)" fill="#aab6c2"/>
              <rect id="Rectangle_2484" data-name="Rectangle 2484" width="25.162" height="10.452" transform="translate(83.35 54.551)" fill="#aab6c2"/>
              <rect id="Rectangle_2485" data-name="Rectangle 2485" width="25.162" height="10.452" transform="translate(40.987 54.551)" fill="#aab6c2"/>
              <rect id="Rectangle_2486" data-name="Rectangle 2486" width="25.162" height="10.452" transform="translate(125.714 92.557)" fill="#aab6c2"/>
              <rect id="Rectangle_2487" data-name="Rectangle 2487" width="25.162" height="10.452" transform="translate(40.987 92.557)" fill="#aab6c2"/>
              <rect id="Rectangle_2488" data-name="Rectangle 2488" width="25.162" height="10.452" transform="translate(83.35 111.56)" fill="#aab6c2"/>
              <rect id="Rectangle_2489" data-name="Rectangle 2489" width="25.162" height="10.452" transform="translate(125.714 130.595)" fill="#aab6c2"/>
              <rect id="Rectangle_2490" data-name="Rectangle 2490" width="25.162" height="10.452" transform="translate(83.35 149.598)" fill="#aab6c2"/>
              <rect id="Rectangle_2491" data-name="Rectangle 2491" width="25.162" height="10.452" transform="translate(125.714 168.601)" fill="#aab6c2"/>
              <rect id="Rectangle_2492" data-name="Rectangle 2492" width="25.162" height="10.452" transform="translate(40.987 168.601)" fill="#aab6c2"/>
              <rect id="Rectangle_2493" data-name="Rectangle 2493" width="25.162" height="10.452" transform="translate(125.714 203.724)" fill="#aab6c2"/>
              <rect id="Rectangle_2494" data-name="Rectangle 2494" width="25.162" height="10.452" transform="translate(83.35 203.724)" fill="#aab6c2"/>
              <rect id="Rectangle_2495" data-name="Rectangle 2495" width="25.162" height="10.452" transform="translate(125.714 241.729)" fill="#aab6c2"/>
              <rect id="Rectangle_2496" data-name="Rectangle 2496" width="25.162" height="10.452" transform="translate(83.35 241.729)" fill="#aab6c2"/>
              <rect id="Rectangle_2497" data-name="Rectangle 2497" width="25.162" height="10.452" transform="translate(40.987 241.729)" fill="#aab6c2"/>
              <rect id="Rectangle_2498" data-name="Rectangle 2498" width="25.162" height="10.452" transform="translate(125.714 279.768)" fill="#aab6c2"/>
              <rect id="Rectangle_2499" data-name="Rectangle 2499" width="25.162" height="10.452" transform="translate(40.987 279.768)" fill="#aab6c2"/>
              <rect id="Rectangle_2500" data-name="Rectangle 2500" width="25.162" height="10.452" transform="translate(83.35 298.771)" fill="#aab6c2"/>
              <rect id="Rectangle_2501" data-name="Rectangle 2501" width="25.162" height="10.452" transform="translate(40.987 298.771)" fill="#aab6c2"/>
              <rect id="Rectangle_2502" data-name="Rectangle 2502" width="25.162" height="10.452" transform="translate(125.714 317.774)" fill="#aab6c2"/>
              <rect id="Rectangle_2503" data-name="Rectangle 2503" width="25.162" height="10.452" transform="translate(83.35 336.777)" fill="#aab6c2"/>
              <rect id="Rectangle_2504" data-name="Rectangle 2504" width="25.162" height="10.452" transform="translate(125.714 355.779)" fill="#aab6c2"/>
              <rect id="Rectangle_2505" data-name="Rectangle 2505" width="25.162" height="10.452" transform="translate(40.987 355.779)" fill="#aab6c2"/>
            </g>
            <g id="Group_2671" data-name="Group 2671" transform="translate(624.244 268.039)">
              <rect id="Rectangle_2506" data-name="Rectangle 2506" width="175.318" height="387.789" fill="#c6d0db"/>
              <rect id="Rectangle_2507" data-name="Rectangle 2507" width="24.311" height="387.789" fill="#aab6c2"/>
            </g>
            <g id="Group_2672" data-name="Group 2672" transform="translate(375.208 83.613)">
              <rect id="Rectangle_2508" data-name="Rectangle 2508" width="235.21" height="572.248" fill="#c6d0db"/>
              <rect id="Rectangle_2509" data-name="Rectangle 2509" width="24.311" height="572.248" fill="#aab6c2"/>
              <rect id="Rectangle_2510" data-name="Rectangle 2510" width="36.728" height="15.235" transform="translate(173.712 27.39)" fill="#aab6c2"/>
              <rect id="Rectangle_2511" data-name="Rectangle 2511" width="36.728" height="15.235" transform="translate(111.855 27.39)" fill="#aab6c2"/>
              <rect id="Rectangle_2512" data-name="Rectangle 2512" width="36.728" height="15.235" transform="translate(173.712 82.925)" fill="#aab6c2"/>
              <rect id="Rectangle_2513" data-name="Rectangle 2513" width="36.728" height="15.235" transform="translate(111.855 82.925)" fill="#aab6c2"/>
              <rect id="Rectangle_2514" data-name="Rectangle 2514" width="36.728" height="15.235" transform="translate(49.997 82.925)" fill="#aab6c2"/>
              <rect id="Rectangle_2515" data-name="Rectangle 2515" width="36.728" height="15.235" transform="translate(173.712 138.426)" fill="#aab6c2"/>
              <rect id="Rectangle_2516" data-name="Rectangle 2516" width="36.728" height="15.235" transform="translate(49.997 138.426)" fill="#aab6c2"/>
              <rect id="Rectangle_2517" data-name="Rectangle 2517" width="36.728" height="15.235" transform="translate(111.855 166.177)" fill="#aab6c2"/>
              <rect id="Rectangle_2518" data-name="Rectangle 2518" width="36.728" height="15.235" transform="translate(173.712 193.927)" fill="#aab6c2"/>
              <rect id="Rectangle_2519" data-name="Rectangle 2519" width="36.728" height="15.235" transform="translate(111.855 221.711)" fill="#aab6c2"/>
              <rect id="Rectangle_2520" data-name="Rectangle 2520" width="36.728" height="15.235" transform="translate(173.712 249.462)" fill="#aab6c2"/>
              <rect id="Rectangle_2521" data-name="Rectangle 2521" width="36.728" height="15.235" transform="translate(49.997 249.462)" fill="#aab6c2"/>
              <rect id="Rectangle_2522" data-name="Rectangle 2522" width="36.728" height="15.235" transform="translate(173.712 300.737)" fill="#aab6c2"/>
              <rect id="Rectangle_2523" data-name="Rectangle 2523" width="36.728" height="15.235" transform="translate(111.855 300.737)" fill="#aab6c2"/>
              <rect id="Rectangle_2524" data-name="Rectangle 2524" width="36.728" height="15.235" transform="translate(173.712 356.271)" fill="#aab6c2"/>
              <rect id="Rectangle_2525" data-name="Rectangle 2525" width="36.728" height="15.235" transform="translate(111.855 356.271)" fill="#aab6c2"/>
              <rect id="Rectangle_2526" data-name="Rectangle 2526" width="36.728" height="15.235" transform="translate(49.997 356.271)" fill="#aab6c2"/>
              <rect id="Rectangle_2527" data-name="Rectangle 2527" width="36.728" height="15.235" transform="translate(173.712 411.772)" fill="#aab6c2"/>
              <rect id="Rectangle_2528" data-name="Rectangle 2528" width="36.728" height="15.235" transform="translate(49.997 411.772)" fill="#aab6c2"/>
              <rect id="Rectangle_2529" data-name="Rectangle 2529" width="36.728" height="15.235" transform="translate(111.855 439.523)" fill="#aab6c2"/>
              <rect id="Rectangle_2530" data-name="Rectangle 2530" width="36.728" height="15.235" transform="translate(49.997 439.523)" fill="#aab6c2"/>
              <rect id="Rectangle_2531" data-name="Rectangle 2531" width="36.728" height="15.235" transform="translate(173.712 467.307)" fill="#aab6c2"/>
              <rect id="Rectangle_2532" data-name="Rectangle 2532" width="36.728" height="15.235" transform="translate(111.855 495.057)" fill="#aab6c2"/>
              <rect id="Rectangle_2533" data-name="Rectangle 2533" width="36.728" height="15.235" transform="translate(173.712 522.808)" fill="#aab6c2"/>
              <rect id="Rectangle_2534" data-name="Rectangle 2534" width="36.728" height="15.235" transform="translate(49.997 522.808)" fill="#aab6c2"/>
            </g>
            <g id="Group_2673" data-name="Group 2673" transform="translate(745.01 126.271)">
              <rect id="Rectangle_2535" data-name="Rectangle 2535" width="230.524" height="529.59" fill="#c6d0db"/>
              <rect id="Rectangle_2536" data-name="Rectangle 2536" width="23.819" height="529.59" fill="#aab6c2"/>
              <rect id="Rectangle_2537" data-name="Rectangle 2537" width="36.007" height="14.121" transform="translate(170.272 25.359)" fill="#aab6c2"/>
              <rect id="Rectangle_2538" data-name="Rectangle 2538" width="36.007" height="14.121" transform="translate(109.66 25.359)" fill="#aab6c2"/>
              <rect id="Rectangle_2539" data-name="Rectangle 2539" width="36.007" height="14.121" transform="translate(170.272 76.732)" fill="#aab6c2"/>
              <rect id="Rectangle_2540" data-name="Rectangle 2540" width="36.007" height="14.121" transform="translate(109.66 76.732)" fill="#aab6c2"/>
              <rect id="Rectangle_2541" data-name="Rectangle 2541" width="36.007" height="14.121" transform="translate(49.014 76.732)" fill="#aab6c2"/>
              <rect id="Rectangle_2542" data-name="Rectangle 2542" width="36.007" height="14.121" transform="translate(170.272 128.105)" fill="#aab6c2"/>
              <rect id="Rectangle_2543" data-name="Rectangle 2543" width="36.007" height="14.121" transform="translate(49.014 128.105)" fill="#aab6c2"/>
              <rect id="Rectangle_2544" data-name="Rectangle 2544" width="36.007" height="14.121" transform="translate(109.66 153.792)" fill="#aab6c2"/>
              <rect id="Rectangle_2545" data-name="Rectangle 2545" width="36.007" height="14.121" transform="translate(170.272 179.479)" fill="#aab6c2"/>
              <rect id="Rectangle_2546" data-name="Rectangle 2546" width="36.007" height="14.121" transform="translate(109.66 205.165)" fill="#aab6c2"/>
              <rect id="Rectangle_2547" data-name="Rectangle 2547" width="36.007" height="14.121" transform="translate(170.272 230.852)" fill="#aab6c2"/>
              <rect id="Rectangle_2548" data-name="Rectangle 2548" width="36.007" height="14.121" transform="translate(49.014 230.852)" fill="#aab6c2"/>
              <rect id="Rectangle_2549" data-name="Rectangle 2549" width="36.007" height="14.121" transform="translate(170.272 278.326)" fill="#aab6c2"/>
              <rect id="Rectangle_2550" data-name="Rectangle 2550" width="36.007" height="14.121" transform="translate(109.66 278.326)" fill="#aab6c2"/>
              <rect id="Rectangle_2551" data-name="Rectangle 2551" width="36.007" height="14.121" transform="translate(170.272 329.7)" fill="#aab6c2"/>
              <rect id="Rectangle_2552" data-name="Rectangle 2552" width="36.007" height="14.121" transform="translate(109.66 329.7)" fill="#aab6c2"/>
              <rect id="Rectangle_2553" data-name="Rectangle 2553" width="36.007" height="14.121" transform="translate(49.014 329.7)" fill="#aab6c2"/>
              <rect id="Rectangle_2554" data-name="Rectangle 2554" width="36.007" height="14.121" transform="translate(170.272 381.073)" fill="#aab6c2"/>
              <rect id="Rectangle_2555" data-name="Rectangle 2555" width="36.007" height="14.121" transform="translate(49.014 381.073)" fill="#aab6c2"/>
              <rect id="Rectangle_2556" data-name="Rectangle 2556" width="36.007" height="14.121" transform="translate(109.66 406.759)" fill="#aab6c2"/>
              <rect id="Rectangle_2557" data-name="Rectangle 2557" width="36.007" height="14.121" transform="translate(49.014 406.759)" fill="#aab6c2"/>
              <rect id="Rectangle_2558" data-name="Rectangle 2558" width="36.007" height="14.121" transform="translate(170.272 432.446)" fill="#aab6c2"/>
              <rect id="Rectangle_2559" data-name="Rectangle 2559" width="36.007" height="14.121" transform="translate(109.66 458.133)" fill="#aab6c2"/>
              <rect id="Rectangle_2560" data-name="Rectangle 2560" width="36.007" height="14.121" transform="translate(170.272 483.819)" fill="#aab6c2"/>
              <rect id="Rectangle_2561" data-name="Rectangle 2561" width="36.007" height="14.121" transform="translate(49.014 483.819)" fill="#aab6c2"/>
            </g>
            <g id="Group_2674" data-name="Group 2674" transform="translate(0 294.643)">
              <rect id="Rectangle_2562" data-name="Rectangle 2562" width="148.484" height="361.218" fill="#c6d0db"/>
              <rect id="Rectangle_2563" data-name="Rectangle 2563" width="23.197" height="9.632" transform="translate(109.627 17.299)" fill="#aab6c2"/>
              <rect id="Rectangle_2564" data-name="Rectangle 2564" width="23.197" height="9.632" transform="translate(70.605 17.299)" fill="#aab6c2"/>
              <rect id="Rectangle_2565" data-name="Rectangle 2565" width="23.197" height="9.632" transform="translate(109.627 52.323)" fill="#aab6c2"/>
              <rect id="Rectangle_2566" data-name="Rectangle 2566" width="23.197" height="9.632" transform="translate(70.605 52.323)" fill="#aab6c2"/>
              <rect id="Rectangle_2567" data-name="Rectangle 2567" width="23.197" height="9.632" transform="translate(31.551 52.323)" fill="#aab6c2"/>
              <rect id="Rectangle_2568" data-name="Rectangle 2568" width="23.197" height="9.632" transform="translate(109.627 87.38)" fill="#aab6c2"/>
              <rect id="Rectangle_2569" data-name="Rectangle 2569" width="23.197" height="9.632" transform="translate(31.551 87.38)" fill="#aab6c2"/>
              <rect id="Rectangle_2570" data-name="Rectangle 2570" width="23.197" height="9.632" transform="translate(70.605 104.876)" fill="#aab6c2"/>
              <rect id="Rectangle_2571" data-name="Rectangle 2571" width="23.197" height="9.632" transform="translate(109.627 122.405)" fill="#aab6c2"/>
              <rect id="Rectangle_2572" data-name="Rectangle 2572" width="23.197" height="9.632" transform="translate(70.605 139.933)" fill="#aab6c2"/>
              <rect id="Rectangle_2573" data-name="Rectangle 2573" width="23.197" height="9.632" transform="translate(109.627 157.462)" fill="#aab6c2"/>
              <rect id="Rectangle_2574" data-name="Rectangle 2574" width="23.197" height="9.632" transform="translate(31.551 157.462)" fill="#aab6c2"/>
              <rect id="Rectangle_2575" data-name="Rectangle 2575" width="23.197" height="9.632" transform="translate(109.627 189.832)" fill="#aab6c2"/>
              <rect id="Rectangle_2576" data-name="Rectangle 2576" width="23.197" height="9.632" transform="translate(70.605 189.832)" fill="#aab6c2"/>
              <rect id="Rectangle_2577" data-name="Rectangle 2577" width="23.197" height="9.632" transform="translate(109.627 224.889)" fill="#aab6c2"/>
              <rect id="Rectangle_2578" data-name="Rectangle 2578" width="23.197" height="9.632" transform="translate(70.605 224.889)" fill="#aab6c2"/>
              <rect id="Rectangle_2579" data-name="Rectangle 2579" width="23.197" height="9.632" transform="translate(31.551 224.889)" fill="#aab6c2"/>
              <rect id="Rectangle_2580" data-name="Rectangle 2580" width="23.197" height="9.632" transform="translate(109.627 259.913)" fill="#aab6c2"/>
              <rect id="Rectangle_2581" data-name="Rectangle 2581" width="23.197" height="9.632" transform="translate(31.551 259.913)" fill="#aab6c2"/>
              <rect id="Rectangle_2582" data-name="Rectangle 2582" width="23.197" height="9.632" transform="translate(70.605 277.442)" fill="#aab6c2"/>
              <rect id="Rectangle_2583" data-name="Rectangle 2583" width="23.197" height="9.632" transform="translate(31.551 277.442)" fill="#aab6c2"/>
              <rect id="Rectangle_2584" data-name="Rectangle 2584" width="23.197" height="9.632" transform="translate(109.627 294.97)" fill="#aab6c2"/>
              <rect id="Rectangle_2585" data-name="Rectangle 2585" width="23.197" height="9.632" transform="translate(70.605 312.466)" fill="#aab6c2"/>
              <rect id="Rectangle_2586" data-name="Rectangle 2586" width="23.197" height="9.632" transform="translate(109.627 329.994)" fill="#aab6c2"/>
              <rect id="Rectangle_2587" data-name="Rectangle 2587" width="23.197" height="9.632" transform="translate(31.551 329.994)" fill="#aab6c2"/>
            </g>
          </g>
          <g id="Group_2678" data-name="Group 2678" transform="translate(0)">
            <g id="Group_2676" data-name="Group 2676" transform="translate(6.88 14.187)">
              <rect id="Rectangle_2588" data-name="Rectangle 2588" width="629.224" height="717.423" transform="translate(0 0)" fill="#fff" opacity="0.35"/>
              <path id="Path_6652" data-name="Path 6652" d="M62.3,699.368H13.48L275.261,3.11h48.818Z" transform="translate(154.335 5.114)" fill="#fff" opacity="0.5"/>
              <path id="Path_6653" data-name="Path 6653" d="M19.019,699.368H-5.39L256.391,3.11H280.8Z" transform="translate(111.38 5.114)" fill="#fff" opacity="0.5"/>
              <path id="Path_6654" data-name="Path 6654" d="M108.009,647.445H83.6L308.03,25.92V75.983Z" transform="translate(313.953 57.037)" fill="#fff" opacity="0.5"/>
            </g>
            <g id="Group_2677" data-name="Group 2677" transform="translate(632.861)">
              <rect id="Rectangle_2589" data-name="Rectangle 2589" width="629.224" height="717.423" transform="translate(6.585)" fill="#fff" opacity="0.35"/>
              <path id="Path_6655" data-name="Path 6655" d="M221.03,699.368H172.18L433.994,3.11h48.818Z" transform="translate(-110.388 19.3)" fill="#fff" opacity="0.5"/>
              <path id="Path_6656" data-name="Path 6656" d="M177.729,699.368H153.32L415.1,3.11H439.51Z" transform="translate(-153.32 19.3)" fill="#fff" opacity="0.5"/>
              <path id="Path_6657" data-name="Path 6657" d="M300.079,647.445H275.67L500.1,25.92V75.983Z" transform="translate(125.192 71.224)" fill="#fff" opacity="0.6"/>
            </g>
            <path id="Path_6658" data-name="Path 6658" d="M1255.074,135.73v-8.224h-22.607V-1.91H-39.84V14.537h13.7v5.8H379.664v107.17H-39.84v8.224h419.5V346.4H-39.84v8.224h419.5v210.67H-39.84v8.224h419.5V710.8H-26.014v4.751H-39.84v19H1232.467v-1.54h0V573.516h22.607v-8.224h-22.607V354.623h22.607V346.4h-22.607V135.73h22.607ZM603.21,354.623H799.2v210.67H603.21Zm0-8.224V135.73H799.2V346.4Zm0-218.893V20.3H799.2v107.2H603.21Zm0,446.01H799.2V710.8H603.276v4.751h-.066ZM812.962,710.8V573.516h195.992V710.8Zm0-145.5V354.623h195.992v210.67H812.962Zm0-218.893V135.73h195.992V346.4H812.962Zm0-218.893V20.3h195.992v107.2H812.962ZM1022.715,20.3h195.992v107.2H1022.715Zm-629.29,0H589.417v107.2H393.425Zm0,115.393H589.417V346.4H393.425V135.73Zm0,218.893H589.417V565.26H393.425V354.623Zm0,218.893H589.417v142.03h-.066v-4.751H393.458V573.483Zm825.281,142.03h-.066v-4.751H1022.747V573.483h195.992v142.03Zm0-150.254H1022.715V354.623h195.992v210.67Zm0-218.893H1022.715V135.73h195.992V346.4Z" transform="translate(39.84 7.873)" fill="#fff"/>
          </g>
        </g>
      </g>
      <path id="Path_6660" data-name="Path 6660" d="M253.112,177.015C177.4,124.167,178.28,82.59,189.714,49.2c12.974-37.842,156.118,28.93,185.933,150.024S293.149,204.93,253.112,177.015Z" transform="translate(274.061 11.132)" fill="#e6ebf0"/>
      <rect id="Rectangle_2590" data-name="Rectangle 2590" width="621.852" height="4.718" transform="translate(15.963 655.487)"/>
      <g id="Group_2687" data-name="Group 2687" transform="translate(75.541 187.191)">
        <g id="Group_2681" data-name="Group 2681" transform="translate(84.496 435.673)">
          <path id="Path_6661" data-name="Path 6661" d="M110.689,214.586c-1.409-1.769-16.644-.295-16.808.623-.459,2.818-1.179,13.564.262,14.973,1.409,1.376,16.644,1.343,16.939-1.409.262-2.359.983-12.516-.393-14.219Z" transform="translate(-92.551 -213.056)" fill="#fff"/>
          <path id="Path_6662" data-name="Path 6662" d="M94.132,231.193c-1.868-1.835-.786-13.761-.459-15.6.1-.59.754-.819,1.409-.983,2.785-.721,15.038-2,16.644,0h0c1.769,2.228.557,14.613.557,14.744-.131,1.179-1.573,1.7-2.031,1.868a31.5,31.5,0,0,1-8.879,1.048c-3.309,0-6.487-.36-7.208-1.081Zm.885-15.1c-.59,3.932-.885,13.105.1,14.055.983.819,11.074,1.18,14.875-.393.688-.295.852-.524.852-.557.426-4,.754-12.45-.229-13.7-1.114-1.147-13.5-.328-15.6.557Z" transform="translate(-93.064 -213.543)"/>
        </g>
        <path id="Path_6663" data-name="Path 6663" d="M95.873,217.77s-7.044,10.091-2,17.987c0,0,36.7,1.736,47.8,0,0,0,.295-13.531-9.207-14.678a140.74,140.74,0,0,0-19-.819s-10.648,4.98-17.561-2.49Z" transform="translate(-10.866 231.752)"/>
        <g id="Group_2682" data-name="Group 2682" transform="translate(3.294 435.673)">
          <path id="Path_6664" data-name="Path 6664" d="M85.909,214.586c-1.409-1.769-16.644-.295-16.808.623-.459,2.818-1.179,13.564.262,14.973,1.409,1.376,16.644,1.343,16.939-1.409.262-2.359.983-12.516-.393-14.219Z" transform="translate(-67.757 -213.056)" fill="#fff"/>
          <path id="Path_6665" data-name="Path 6665" d="M69.361,231.193c-1.9-1.835-.786-13.761-.459-15.6.1-.59.754-.819,1.409-.983,2.785-.721,15.038-2,16.677,0h0c1.8,2.228.557,14.613.524,14.744-.131,1.179-1.573,1.7-2.031,1.868a31.5,31.5,0,0,1-8.879,1.048c-3.309,0-6.487-.36-7.208-1.081Zm.885-15.1c-.59,3.833-.885,13.105.1,14.055.983.786,11.205,1.147,14.875-.393.688-.295.852-.524.852-.557.426-4,.754-12.45-.229-13.7-1.147-1.147-13.5-.328-15.6.557Zm.033-.262Z" transform="translate(-68.28 -213.543)"/>
        </g>
        <path id="Path_6666" data-name="Path 6666" d="M71.093,217.77s-7.044,10.091-2,17.987c0,0,36.7,1.736,47.8,0,0,0,.295-13.531-9.207-14.678a140.74,140.74,0,0,0-19-.819s-10.648,4.98-17.561-2.49Z" transform="translate(-67.274 231.752)"/>
        <path id="Path_6667" data-name="Path 6667" d="M153.2,264.721c0,32.829-12.417,101.862-20.739,131.611H110.865c-.1-.164-.262-34.238-.229-47.442,0-23.885-6.454-63.135-8.191-84.727-.917-11.6-.59-40.528-8.06-59.7-1.376-3.571-2.687-6.979-3.9-10.222-4.39-11.893-7.175-21.1-5.242-23.328,5.308-6.061,51.111-50.882,62.578-26.211,12.057,25.949,5.406,87.217,5.406,120.013Z" transform="translate(-27.791 48.701)"/>
        <path id="Path_6668" data-name="Path 6668" d="M114.138,290.133c-.229-12.188,1.409-24.311,1.081-36.531-.295-10.484-2.359-20.739-4.489-30.929-2.49-11.926-5.013-23.852-5.046-36.04-.033-8.682,3.67-18.872,1.868-27.292-.983-4.521-4.161-7.8-8.977-7.7-6,.131-9.6,5.144-12.155,10.058,1.212,3.244,8.224,66.084,18.479,148.615,3.964,31.748,1.868,53.47,1.868,53.5,2.162,0,5.242.295,11.041,0C122.689,342.391,114.564,311.462,114.138,290.133Z" transform="translate(-23.692 81.215)"/>
        <path id="Path_6669" data-name="Path 6669" d="M136.637,162.11s-.033,1.147-.066,3.276c-.1,4.194-1.278,11.893-3.047,22.083-.754,4.39-1.376,23.524-2.261,28.8-3.768,21.231-8.912,34.369-12.057,62.251-3.7,32.6-21.132,84.727-29.782,119.489H68.03s4.587-50.882,7.339-60.449c3.342-11.7-4.947-27.03-4.816-41.249.1-10.091-.2-20.084-.36-28.832-.033-2.949-.065-5.8-.065-8.682.262-45.9-2.556-65.1,11.795-99.9.2-.557.426-1.114.655-1.671a140.8,140.8,0,0,1,9.076-17.758c1.179-1.933,3.866-2.654,7.568-2.228,8.912,1.048,23.491,8.944,35.581,22.738.623.688,1.212,1.376,1.8,2.1Z" transform="translate(-65.554 48.173)"/>
        <path id="Path_6670" data-name="Path 6670" d="M94.224,146.858a23.5,23.5,0,0,0-12.057-3.08c-14.35,34.795-11.5,53.962-11.795,99.9,0,2.883.033,5.734.066,8.682.2,9.37.655,19.068.36,28.832-.262,10.386-.131,40.332-1.016,50.947-1.507,18.544-2.359,45.083-1.507,50.751H78.89c5.046-17.365,5.766-38.17,9.141-55.927,3.375-17.922,1.966-36.793,1.245-54.912A302.963,302.963,0,0,0,86.491,240.3c-1.54-10.288-3.932-20.412-4.39-30.831-.917-20.313,4.194-40.168,12.188-58.712a1.413,1.413,0,0,0,0-1.311c.852-.688,1.147-2-.066-2.621Z" transform="translate(-65.767 63.293)"/>
        <path id="Path_6671" data-name="Path 6671" d="M98.856,99.14s26.276,20.412,42.887,74.8l-42.887,9.7-.426-53.994Z" transform="translate(3.647 -38.292)"/>
        <path id="Path_6672" data-name="Path 6672" d="M188.409,255.367c-.524,1.638-27.751,4.751-41.151,6.192-25.2,2.687-59.793-4.685-69.229-6.487-3.866-.721-6.356-1.769-6.946-3.014-1.835-3.932,4.489-42.3,3.735-67.788-.131-4.947-.229-9.96-.229-14.842-.131-25.621,1.671-49.637,7.47-54.093,1.311-1.048,2.85-2.1,4.521-3.244,1.442-.983,3.014-2,4.718-3.014q1.917-1.13,4.03-2.261a83.6,83.6,0,0,1,18.053-6.979,75.091,75.091,0,0,1,36.073-.557.032.032,0,0,0,.033.033,74.094,74.094,0,0,1,9.96,2.981c.786.262,1.573.59,2.424.917,11.336,4.554,9.7,29.225,7.863,49.932-.819,9.6-1.7,18.348-1.343,23.819a50.947,50.947,0,0,0,.688,5.471c2.556,15.235,17.43,61.923,19.331,73Z" transform="translate(-59.368 -42.365)" fill="#aab6c2"/>
        <g id="Group_2683" data-name="Group 2683" transform="translate(65.349 37.324)">
          <path id="Path_6673" data-name="Path 6673" d="M101.5,98.1v11.074s2.621,4.816,0,5.34c-5.766,1.147-14.056-5.308-14.056-5.308V92.3L101.5,98.132Z" transform="translate(-86.719 -91.186)" fill="#fff"/>
          <path id="Path_6674" data-name="Path 6674" d="M87.482,110.537l-.262-.229V91.96l15.5,6.422v11.369c.393.754,1.671,3.473.917,5.078a2.113,2.113,0,0,1-1.507,1.147,8.6,8.6,0,0,1-1.605.164c-5.766,0-12.745-5.373-13.073-5.6Zm1.147-16.415v15.5c1.474,1.081,8.42,5.93,13.2,4.98a.592.592,0,0,0,.491-.328c.36-.786-.36-2.785-.983-3.964l-.1-10.943L88.6,94.122Z" transform="translate(-87.22 -91.96)"/>
        </g>
        <g id="Group_2684" data-name="Group 2684" transform="translate(59.043 14.848)">
          <path id="Path_6675" data-name="Path 6675" d="M108.3,85.373s6.454,9.8,8.944,19.33c1.769,6.782-9.731,17.463-21.231,9.01-11.5-8.42-10.484-23.655-10.484-23.655L108.3,85.34Z" transform="translate(-84.823 -84.554)" fill="#fff"/>
          <path id="Path_6676" data-name="Path 6676" d="M96.09,114.849c-11.664-8.584-10.779-24.114-10.779-24.278v-.557L109.13,85.1l.262.393s6.52,9.993,9.043,19.56c.917,3.506-1.278,7.863-5.308,10.583a13.622,13.622,0,0,1-7.765,2.457,15.644,15.644,0,0,1-9.272-3.244Zm-9.37-23.623c-.033,2.752.36,15.268,10.222,22.476,4.98,3.637,10.746,3.932,15.4.786,3.473-2.359,5.471-6.16,4.718-9.043-2.162-8.256-7.339-16.775-8.584-18.741L86.752,91.194Z" transform="translate(-85.295 -85.1)"/>
        </g>
        <path id="Path_6677" data-name="Path 6677" d="M85.265,111.438c-1.769,3.342,2.13,5.439,5.9,5.9a3.015,3.015,0,0,0,.623.819c0,3.866,2.85,7.47,6.651,4.489,5.6,4.456,12.385,8.06,20.379,4.423,3.473-1.573,6.16-7.241,5.177-10.124-1.212-3.67-6.717.459-9.108-1.7a1.865,1.865,0,0,0-2.523.1c-2.064,2.49-3.571,3.67-7.142,2.949a12.847,12.847,0,0,1-4.947-2.228c-.524-2.654-2.13-5.34-2.949-7.732-.229-.655-1.048-3.473-1.769-5.766,8.944-1.245,20.772-3.407,24.474-11.271,3.309-6.979-2.326-10.583-8.322-9.665-2.752-2.031-7.667-1.048-9.01,2.261-2.13-.95-4.652-1.605-6.291.164a3.2,3.2,0,0,0-.917,2.556,4.082,4.082,0,0,0-2.228.459A5.606,5.606,0,0,0,90.8,89.617c-2.719-.885-5.8,2.818-4.98,6.258a4.956,4.956,0,0,0-1.048,6.684,5.447,5.447,0,0,0,.491,8.846Z" transform="translate(-32.071 -80.568)"/>
        <path id="Path_6678" data-name="Path 6678" d="M98.6,159.923s38.661,4.292,42.822-6.16c3.9-9.764-.295-21.755-5.308-35.123-3.866-10.353-36.236,20.9-36.236,20.9L98.6,159.89Z" transform="translate(4.034 1.313)"/>
        <path id="Path_6679" data-name="Path 6679" d="M140.682,171.863c-2.523,2.916-2.326,20.576-6.225,20.9C112.7,194.6,97.991,174.32,95.468,172.78c-4.652-2.818-23.786-20.051-23.557-24.966,1.081-24.769,1.736-31.813,6.028-41.02.721-1.507,4.259-3.735,5.963-4.882,1.442-.983,4.489,5.308,6.225,4.292,12.188-3.735,26.342,5.7,36.826,15.4,6.16,5.7,27.358,34.336,27.685,35.417,2.49,7.7-9.043,9.338-13.925,14.809Z" transform="translate(-56.724 -32.218)"/>
        <g id="Group_2685" data-name="Group 2685" transform="translate(74.278 38.533)">
          <path id="Path_6680" data-name="Path 6680" d="M91.215,106.609a5.932,5.932,0,0,1,2.752.885,1.164,1.164,0,0,1,.295.131C92.1,104.282,90.952,99.892,92.2,95.96c.819-2.523,2.359-2.556,2.588-.164.491,4.587.983,6.717.524,1.311-.131-1.376,0-4.325.983-4.521,2.162-.393,1.769,4.423,2.13,6.585,1.179,1.507,1.114-3.735,1.7-4.652,2.621-4.03,2.949,5.734,3.6,6,1.8.721.557-5.832,2.981-3.833,1.8,1.507.459,7.929,1.081,9.829.491,1.573,3.342,7.6,2.2,9.141-4.358,6.028-10.353-1.736-12.68-4.423-2.13-.459-5.34-1.278-6.454-2.424-.754-.754-1.212-2.13.328-2.2Z" transform="translate(-89.462 -91.796)" fill="#fff"/>
          <path id="Path_6681" data-name="Path 6681" d="M97.693,112.711l-.262-.295c-3.506-.754-5.635-1.605-6.585-2.588a2.437,2.437,0,0,1-.786-2.457,1.664,1.664,0,0,1,1.605-.95h0a3.893,3.893,0,0,1,1.376.2A14.133,14.133,0,0,1,91.96,96.264c.524-1.605,1.409-2.523,2.359-2.424a1.343,1.343,0,0,1,.885.426c.229-.95.623-1.736,1.409-1.9a1.722,1.722,0,0,1,1.442.328c1.016.786,1.212,2.654,1.343,4.521v-.1a7.956,7.956,0,0,1,.59-2.457c.229-.36.95-1.474,2-1.278,1.311.262,1.8,2.392,2.326,5.373.066.328.131.721.2,1.048.066-.328.131-.655.164-.95.2-1.212.36-2.359,1.245-2.687a1.746,1.746,0,0,1,1.671.459c1.409,1.147,1.311,4.03,1.212,6.848a14.547,14.547,0,0,0,.1,3.342c.1.295.295.786.524,1.376,1.442,3.6,2.621,6.946,1.573,8.387a5.4,5.4,0,0,1-4.161,2.523h-.164c-3.637,0-7.142-4.161-9.043-6.422Zm8.453-13.63c-.164,1.114-.36,2.162-1.048,2.556a1.247,1.247,0,0,1-1.114.066c-.557-.229-.688-.852-1.016-2.687-.2-1.179-.688-3.932-1.147-4.227,0,0-.2.066-.59.655a10.307,10.307,0,0,0-.36,1.9c-.295,2.031-.491,3.08-1.311,3.309a1.069,1.069,0,0,1-1.179-.524L98.25,99.8c-.1-.557-.131-1.278-.2-2.031-.1-1.376-.229-3.473-.819-3.932a.508.508,0,0,0-.262-.066c-.328.229-.623,2.064-.459,3.768.295,3.44.36,3.9-.491,3.964-.721.066-.917.1-1.442-5.144a2.663,2.663,0,0,0-.328-1.114c-.1,0-.524.328-.852,1.442-1.081,3.375-.328,7.5,2,11.041l1.114,1.835-2.1-.819-.229-.1a6,6,0,0,0-2.392-.786h0a1.162,1.162,0,0,0-.328.033,1.645,1.645,0,0,0,.491.917c.524.524,2,1.343,6.094,2.228l.229.065.59.688c1.769,2.064,5.013,5.93,7.962,5.93h.131a3.97,3.97,0,0,0,3.047-1.933c.688-.917-1.081-5.373-1.736-7.044-.262-.623-.459-1.147-.557-1.474a13.436,13.436,0,0,1-.164-3.833c.066-2.1.164-4.98-.688-5.7-.131-.1-.229-.164-.262-.2a7.134,7.134,0,0,0-.36,1.54Z" transform="translate(-89.945 -92.329)"/>
        </g>
        <path id="Path_6682" data-name="Path 6682" d="M162.759,199.873c29.487-6.684-11.631-101.043-11.631-101.043l-9.895,4.554c-.59.917,16.152,67.362,8.289,64.774-3.44-1.114-28.144-44.886-43.182-54.453-7.568-4.816-15.3-5.668-21.526-5.537-8.65.131-12.909,8.551-11.5,17.1,2.818,17.3,15.6,41.675,32.469,59.237,18.544,19.3,31.584,21.2,57.009,15.4Z" transform="translate(-54.129 -38.998)" fill="#aab6c2"/>
        <g id="Group_2686" data-name="Group 2686" transform="translate(87.162 150.369)">
          <path id="Path_6683" data-name="Path 6683" d="M99.369,139.83a1.209,1.209,0,0,0,.2-.491,2.767,2.767,0,0,0,2.031,1.048c.983-.1,1.442-1.147,1.769-1.9v-.1c1.114,1.442,2.588,2.556,4.128,1.966,1.442-.524,1.638-1.966,1.343-3.538a8.764,8.764,0,0,0,1.442,1.278c1.966,1.343,3.7-.655,3.833-2.621.065-1.311-1.311-4-2.261-5.471-.655-.983-1.507-2.523-2.654-3.08-2.031-.983-2.621,1.573-2.785,3.309-.688-1.605-1.736-2.916-3.6-1.835a3.883,3.883,0,0,0-1.933,3.178,5.375,5.375,0,0,0-1.736-1.7c-1.769-.95-2.719,1.245-2.883,2.654a6.488,6.488,0,0,0,.131,1.966,1.846,1.846,0,0,0-.393-.131c-1.245-.1-1.835,1.638-1.9,2.588a3.207,3.207,0,0,0,5.242,2.818Z" transform="translate(-93.399 -125.917)" fill="#fff"/>
          <path id="Path_6684" data-name="Path 6684" d="M96.081,141.425a4.077,4.077,0,0,1-2.2-3.932h0a4.342,4.342,0,0,1,1.212-2.785,2.2,2.2,0,0,1,.917-.459,7.891,7.891,0,0,1,0-1.245,4.379,4.379,0,0,1,1.8-3.309,2.156,2.156,0,0,1,2.1.066,5.432,5.432,0,0,1,1.016.754,4.471,4.471,0,0,1,1.933-2.261,2.953,2.953,0,0,1,2.392-.393,2.749,2.749,0,0,1,1.245.852,3.422,3.422,0,0,1,1.343-2,2.289,2.289,0,0,1,2.1,0,7.3,7.3,0,0,1,2.687,2.949l.262.393c.852,1.343,2.49,4.259,2.392,5.9a4.176,4.176,0,0,1-2.1,3.473,2.745,2.745,0,0,1-2.85-.295,1.386,1.386,0,0,0-.229-.164,2.89,2.89,0,0,1-1.9,2.523c-.983.36-2.457.393-4.194-1.343a2.652,2.652,0,0,1-1.9,1.442,2.71,2.71,0,0,1-1.966-.655,3.818,3.818,0,0,1-2.424.885,3.55,3.55,0,0,1-1.7-.426Zm4.456-2.064a2.436,2.436,0,0,0,1.442.852c.524-.066.819-.655,1.212-1.507l.393-1.343.852,1.114c.819,1.048,2.1,2.2,3.309,1.736.36-.131,1.311-.491.885-2.752l-.459-2.425,1.671,1.835a8.207,8.207,0,0,0,1.311,1.147,1.42,1.42,0,0,0,1.409.2,2.674,2.674,0,0,0,1.278-2.261c.065-.95-1.081-3.375-2.162-5.013l-.262-.393a7.307,7.307,0,0,0-2.1-2.425c-.491-.229-.721-.131-.786-.065-.459.262-.852,1.343-.983,2.785l-.262,2.818-1.114-2.588c-.426-1.016-.885-1.605-1.376-1.736a1.643,1.643,0,0,0-1.212.262,3.275,3.275,0,0,0-1.605,2.654l-.164,2-1.114-1.671a4.5,4.5,0,0,0-1.474-1.474.706.706,0,0,0-.754-.066,3.115,3.115,0,0,0-1.048,2.2,5.32,5.32,0,0,0,.131,1.736l.2,1.442-1.376-.688a.707.707,0,0,0-.393.131,2.971,2.971,0,0,0-.721,1.769,2.656,2.656,0,0,0,1.409,2.588,2.233,2.233,0,0,0,2.588-.328l.1-1.605,1.147,1.114Z" transform="translate(-93.878 -126.463)"/>
        </g>
      </g>
      <path id="Path_6685" data-name="Path 6685" d="M134.258,459.915a12.578,12.578,0,0,1-12.548-12.581V73.4A16.3,16.3,0,0,1,137.961,57.12H534.695a16.3,16.3,0,0,1,16.283,16.251V447.334A12.584,12.584,0,0,1,538.4,459.915Z" transform="translate(132.182 53.247)" fill="#fff"/>
      <path id="Path_6686" data-name="Path 6686" d="M535.3,58.508A15.465,15.465,0,0,1,550.761,73.94V447.9a11.739,11.739,0,0,1-11.729,11.729h-404.2A11.76,11.76,0,0,1,123.1,447.9V73.973A15.465,15.465,0,0,1,138.53,58.508H535.264Zm0-1.638H138.53a17.087,17.087,0,0,0-17.07,17.1V447.9a13.41,13.41,0,0,0,13.368,13.4H538.966a13.416,13.416,0,0,0,13.4-13.4V73.94a17.087,17.087,0,0,0-17.1-17.07h0Z" transform="translate(131.613 52.678)"/>
      <path id="Path_6687" data-name="Path 6687" d="M533.2,361.8H518.588V327.559H533.56v-1.933H518.588V291.388h17.2s.033-.295.033-.426c0-.491.033-.983.066-1.507h-17.3V255.217h17.987v-1.933h-18.02v-30.8H536.64v-1.933H518.555V186.316h17.07v-1.933h-17.1V150.145H536.64c0-.655,0-1.278.033-1.933H518.522V113.974h19.56v-1.933h-19.56V80.26a.774.774,0,1,0-1.507,0v31.781H493.032V80.26a.774.774,0,1,0-1.507,0v31.781H467.542V80.26a.774.774,0,1,0-1.507,0v31.781H442.052V80.26a.774.774,0,1,0-1.507,0v31.781H416V80.26a.774.774,0,1,0-1.507,0v31.781H390.515V80.26a.863.863,0,0,0-.754-.95h0a.863.863,0,0,0-.754.95v31.781H365.025V80.26a.774.774,0,1,0-1.507,0v31.781H339.535V80.26a.774.774,0,1,0-1.507,0v31.781H314.045V80.26a.774.774,0,1,0-1.507,0v31.781H288.555V80.26a.774.774,0,1,0-1.507,0v31.781H263.065V80.26a.774.774,0,1,0-1.507,0v31.781H237.575V80.26a.774.774,0,1,0-1.507,0v31.781H212.085V80.26a.774.774,0,1,0-1.507,0v31.781H186.595V80.26a.774.774,0,1,0-1.507,0v31.781h-24.54V80.26a.774.774,0,1,0-1.507,0v31.781H135.058V80.26a.774.774,0,1,0-1.507,0v31.781h-8.617a.976.976,0,0,0,0,1.9h8.617v34.238h-8.617a.976.976,0,0,0,0,1.9h8.617v34.238h-8.617a.976.976,0,0,0,0,1.9h8.617v34.238h-8.617a.976.976,0,0,0,0,1.9h8.617v30.8h-8.617a.976.976,0,0,0,0,1.9h8.617v34.238h-8.617a.976.976,0,0,0,0,1.9h8.617V325.43h-8.617a.976.976,0,0,0,0,1.9h8.617v34.238h-8.617a.976.976,0,0,0,0,1.9h8.617v24.54a.774.774,0,1,0,1.507,0v-24.54H159.04v24.54a.774.774,0,1,0,1.507,0v-24.54h24.54v24.54a.774.774,0,1,0,1.507,0v-24.54h23.983v24.54a.774.774,0,1,0,1.507,0v-24.54h23.983v24.54a.774.774,0,1,0,1.507,0v-24.54h23.983v24.54a.774.774,0,1,0,1.507,0v-24.54h23.983v24.54a.774.774,0,1,0,1.507,0v-24.54h23.983v24.54a.774.774,0,1,0,1.507,0v-24.54h23.983v24.54a.774.774,0,1,0,1.507,0v-24.54h23.983v24.54a.774.774,0,1,0,1.507,0v-24.54h23.983v24.54a.863.863,0,0,0,.754.95h0a.863.863,0,0,0,.754-.95v-24.54H414.5v24.54a.774.774,0,1,0,1.507,0v-24.54h24.54v24.54a.774.774,0,1,0,1.507,0v-24.54h23.983v24.54a.774.774,0,1,0,1.507,0v-24.54h23.983v24.54a.774.774,0,1,0,1.507,0v-24.54h23.983v24.54a.774.774,0,1,0,1.507,0v-24.54h14.613v-1.933Zm-374.16,0H135.057V327.559H159.04Zm0-36.171H135.057V291.388H159.04Zm0-36.171H135.057V255.217H159.04Zm0-36.171H135.057v-30.8H159.04Zm0-32.731H135.057V186.316H159.04Zm0-36.171H135.057V150.145H159.04Zm0-36.171H135.057V113.974H159.04Zm26.047,213.553h-24.54V327.527h24.54Zm0-36.171h-24.54V291.356h24.54Zm0-36.171h-24.54V255.185h24.54Zm0-36.171h-24.54v-30.8h24.54Zm0-32.731h-24.54V186.283h24.54Zm0-36.171h-24.54V150.112h24.54Zm0-36.171h-24.54V113.941h24.54Zm25.49,213.553H186.594V327.494h23.983Zm0-36.171H186.594V291.323h23.983Zm0-36.171H186.594V255.152h23.983Zm0-36.171H186.594v-30.8h23.983Zm0-32.731H186.594V186.25h23.983Zm0-36.171H186.594V150.079h23.983Zm0-36.171H186.594V113.908h23.983ZM236.067,361.7H212.085V327.461h23.983Zm0-36.171H212.085V291.29h23.983Zm0-36.171H212.085V255.119h23.983Zm0-36.171H212.085v-30.8h23.983Zm0-32.731H212.085V186.218h23.983Zm0-36.171H212.085V150.047h23.983Zm0-36.171H212.085V113.876h23.983Zm25.49,213.553H237.575V327.429h23.983Zm0-36.171H237.575V291.258h23.983Zm0-36.171H237.575V255.087h23.983Zm0-36.171H237.575v-30.8h23.983Zm0-32.731H237.575V186.185h23.983Zm0-36.171H237.575V150.014h23.983Zm0-36.171H237.575V113.843h23.983Zm25.49,213.553H263.065V327.4h23.983Zm0-36.171H263.065V291.225h23.983Zm0-36.171H263.065V255.054h23.983Zm0-36.171H263.065v-30.8h23.983Zm0-32.731H263.065V186.152h23.983Zm0-36.171H263.065V149.981h23.983Zm0-36.171H263.065V113.81h23.983ZM312.538,361.6H288.555V327.363h23.983Zm0-36.171H288.555V291.192h23.983Zm0-36.171H288.555V255.021h23.983Zm0-36.171H288.555v-30.8h23.983Zm0-32.731H288.555V186.12h23.983Zm0-36.171H288.555V149.949h23.983Zm0-36.171H288.555V113.778h23.983Zm25.49,213.553H314.045V327.331h23.983Zm0-36.171H314.045V291.16h23.983Zm0-36.171H314.045V254.989h23.983Zm0-36.171H314.045v-30.8h23.983Zm0-32.731H314.045V186.087h23.983Zm0-36.171H314.045V149.916h23.983Zm0-36.171H314.045V113.745h23.983Zm25.49,213.553H339.535V327.3h23.983Zm0-36.171H339.535V291.127h23.983Zm0-36.171H339.535V254.956h23.983Zm0-36.171H339.535v-30.8h23.983Zm0-32.731H339.535V186.054h23.983Zm0-36.171H339.535V149.883h23.983Zm0-36.171H339.535V113.712h23.983ZM389.008,361.5H365.025V327.265h23.983Zm0-36.171H365.025V291.094h23.983Zm0-36.171H365.025V254.923h23.983Zm0-36.171H365.025v-30.8h23.983Zm0-32.731H365.025V186.022h23.983Zm0-36.171H365.025V149.851h23.983Zm0-36.171H365.025V113.68h23.983ZM414.5,361.47H390.515V327.232H414.5Zm0-36.171H390.515V291.061H414.5Zm0-36.171H390.515V254.891H414.5Zm0-36.171H390.515v-30.8H414.5Zm0-32.731H390.515V185.989H414.5Zm0-36.171H390.515V149.818H414.5Zm0-36.171H390.515V113.647H414.5Zm26.047,213.553H416V327.2h24.54Zm0-36.171H416V291.029h24.54Zm0-36.171H416V254.858h24.54Zm0-36.171H416v-30.8h24.54Zm0-32.731H416V185.956h24.54Zm0-36.171H416V149.785h24.54Zm0-36.171H416V113.614h24.54ZM466.035,361.4H442.052V327.167h23.983Zm0-36.171H442.052V291h23.983Zm0-36.171H442.052V254.825h23.983Zm0-36.171H442.052v-30.8h23.983Zm0-32.731H442.052V185.923h23.983Zm0-36.171H442.052V149.752h23.983Zm0-36.171H442.052V113.582h23.983Zm25.49,213.553H467.542V327.134h23.983Zm0-36.171H467.542V290.963h23.983Zm0-36.171H467.542V254.792h23.983Zm0-36.171H467.542v-30.8h23.983Zm0-32.731H467.542V185.891h23.983Zm0-36.171H467.542V149.72h23.983Zm0-36.171H467.542V113.549h23.983Zm25.49,213.553H493.032V327.1h23.983Zm0-36.171H493.032V290.931h23.983Zm0-36.171H493.032V254.76h23.983Zm0-36.171H493.032v-30.8h23.983Zm0-32.731H493.032V185.858h23.983Zm0-36.171H493.032V149.687h23.983Zm0-36.171H493.032V113.516h23.983Z" transform="translate(137.804 103.759)" fill="#aab6c2" opacity="0.5"/>
      <path id="Path_6688" data-name="Path 6688" d="M552.366,115.736H121.46V73.963a17.115,17.115,0,0,1,17.1-17.1H535.3a17.115,17.115,0,0,1,17.1,17.1v41.774Z" transform="translate(131.613 52.655)"/>
      <g id="Group_2689" data-name="Group 2689" transform="translate(277.645 129.926)">
        <path id="Path_6689" data-name="Path 6689" d="M150.2,72.133a9.043,9.043,0,1,1,9.043,9.043A9.061,9.061,0,0,1,150.2,72.133Z" transform="translate(-80.61 -63.09)" fill="#aab6c2"/>
        <path id="Path_6690" data-name="Path 6690" d="M139.58,72.133a9.043,9.043,0,1,1,9.043,9.043A9.061,9.061,0,0,1,139.58,72.133Z" transform="translate(-104.785 -63.09)" fill="#f40"/>
        <g id="Group_2688" data-name="Group 2688">
          <path id="Path_6691" data-name="Path 6691" d="M137.434,79.787a8.224,8.224,0,1,1,8.224-8.224A8.229,8.229,0,0,1,137.434,79.787Z" transform="translate(-128.391 -62.521)" fill="#fff"/>
          <path id="Path_6692" data-name="Path 6692" d="M138,64.728a7.4,7.4,0,1,1-7.4,7.4,7.418,7.418,0,0,1,7.4-7.4Zm0-1.638a9.043,9.043,0,1,0,9.043,9.043A9.061,9.061,0,0,0,138,63.09Z" transform="translate(-128.96 -63.09)"/>
        </g>
      </g>
      <g id="Group_2690" data-name="Group 2690" transform="translate(294.65 202.596)">
        <path id="Path_6693" data-name="Path 6693" d="M138.021,223.411,135.76,222l36.957-28.275,38.333,17.692,33.55-36.6,73.227,25.326,34.7-47.933,35.909,14.711,72.44-79.746,2.556,1.114-74.013,81.45-35.647-14.58L319.2,202.934l-73.521-25.392-33.746,36.793-38.727-17.889Z" transform="translate(-130.485 -80.922)" fill="#f40"/>
        <rect id="Rectangle_2591" data-name="Rectangle 2591" width="18.085" height="133.446" transform="translate(0 161.131)" fill="#f40"/>
        <rect id="Rectangle_2592" data-name="Rectangle 2592" width="18.085" height="150.188" transform="translate(36.63 144.389)"/>
        <rect id="Rectangle_2593" data-name="Rectangle 2593" width="18.085" height="141.375" transform="translate(73.259 153.202)" fill="#f40"/>
        <rect id="Rectangle_2594" data-name="Rectangle 2594" width="18.085" height="173.909" transform="translate(109.889 120.668)"/>
        <rect id="Rectangle_2595" data-name="Rectangle 2595" width="18.085" height="162.638" transform="translate(146.519 131.939)" fill="#f40"/>
        <rect id="Rectangle_2596" data-name="Rectangle 2596" width="18.085" height="153.694" transform="translate(183.148 140.883)" fill="#f40"/>
        <rect id="Rectangle_2597" data-name="Rectangle 2597" width="18.085" height="189.537" transform="translate(219.778 105.04)"/>
        <rect id="Rectangle_2598" data-name="Rectangle 2598" width="18.085" height="184.033" transform="translate(256.44 110.544)" fill="#f40"/>
        <rect id="Rectangle_2599" data-name="Rectangle 2599" width="18.085" height="216.96" transform="translate(293.07 77.617)"/>
        <rect id="Rectangle_2600" data-name="Rectangle 2600" width="18.085" height="259.061" transform="translate(329.7 35.516)" fill="#f40"/>
        <path id="Path_6694" data-name="Path 6694" d="M247.374,92.347A7.077,7.077,0,1,1,240.3,85.27,7.089,7.089,0,0,1,247.374,92.347Z" transform="translate(91.368 -85.27)" fill="#f40"/>
        <path id="Path_6695" data-name="Path 6695" d="M221.5,115.4a4.882,4.882,0,1,1-4.882-4.882A4.894,4.894,0,0,1,221.5,115.4Z" transform="translate(42.472 -27.792)" fill="#f40"/>
        <path id="Path_6696" data-name="Path 6696" d="M210.414,110.732a4.882,4.882,0,1,1-4.882-4.882A4.894,4.894,0,0,1,210.414,110.732Z" transform="translate(17.228 -38.423)" fill="#f40"/>
        <path id="Path_6697" data-name="Path 6697" d="M199.884,125.292A4.882,4.882,0,1,1,195,120.41,4.894,4.894,0,0,1,199.884,125.292Z" transform="translate(-6.742 -5.279)" fill="#f40"/>
        <path id="Path_6698" data-name="Path 6698" d="M177.634,117.872a4.882,4.882,0,1,1-4.882-4.882A4.894,4.894,0,0,1,177.634,117.872Z" transform="translate(-57.391 -22.169)" fill="#f40"/>
        <path id="Path_6699" data-name="Path 6699" d="M167.254,128.932a4.882,4.882,0,1,1-4.882-4.882A4.894,4.894,0,0,1,167.254,128.932Z" transform="translate(-81.02 3.007)" fill="#f40"/>
        <path id="Path_6700" data-name="Path 6700" d="M155.384,123.6a4.882,4.882,0,1,1-4.882-4.882A4.894,4.894,0,0,1,155.384,123.6Z" transform="translate(-108.04 -9.126)" fill="#f40"/>
      </g>
      <g id="Group_2700" data-name="Group 2700" transform="translate(503.059 472.384)">
        <path id="Path_6701" data-name="Path 6701" d="M238.814,196.171a8.712,8.712,0,0,0,4.915-1.605,41.951,41.951,0,0,1-.721,9.043c-1.933,3.113-7.274,8.846-6.913,8.813a17.1,17.1,0,0,0,4.292-1.016,29.54,29.54,0,0,1-3.276,5.34c-2.588,3.473-6.291,6.225-7.7,10.484,0,.1-.1.164-.164.2a.316.316,0,0,1-.524.229c-6.979-6.651-8.256-16.709-9.272-25.818-.066-.426-.1-.852-.131-1.278a28.56,28.56,0,0,0,6.454,5.046c.328.2-4.39-7.372-6.684-10.845a20.088,20.088,0,0,1,1.212-6.454c1.638-4.39,4.456-8.486,7.175-12.254a4.4,4.4,0,0,1,.36-.459,20.072,20.072,0,0,0,3.014,5.439c.229.295-.491-5.5-.95-8.158.688-.852,1.376-1.7,2.064-2.523.95-1.114,2.1-2.949,3.768-2.719,1.638.229,5.34,6.88,5.8,8.781.2.819.393,1.638.557,2.49l.2,1.081a97.037,97.037,0,0,1,1.245,10.124c-.131.2-.229.36-.36.524-1.343,1.835-4.652,5.6-4.325,5.6Z" transform="translate(-149.205 -167.614)" fill="#aab6c2"/>
        <path id="Path_6702" data-name="Path 6702" d="M227.8,186.839c3.44-.524,6.094-2.687,8.617-4.947.393-.328-.1-.983-.459-.623-2.359,2.1-4.849,4.226-8.06,4.751.721-5.144,1.573-10.255,2.588-15.333.1-.491-.688-.623-.786-.131q-2.015,10.124-3.276,20.379a32.889,32.889,0,0,1-4.554-9.174c-.164-.491-.885-.2-.721.295a33.832,33.832,0,0,0,4.914,9.7.391.391,0,0,0,.295.164c-.2,1.507-.36,2.982-.491,4.489a20.893,20.893,0,0,1-3.375-5.93.389.389,0,0,0-.721.295,21.523,21.523,0,0,0,3.866,6.585.18.18,0,0,0,.164.1c-.491,4.915-.885,9.862-1.147,14.776a1.414,1.414,0,0,0-.033.164q-.147,2.7-.2,5.406-.049,1.769-.1,3.539a.323.323,0,0,0,.1.262,172.575,172.575,0,0,0,4.194,33.026c.262-.066.524-.131.754-.2-2.654-12.319-4.39-24.769-4.161-37.383.033-1.343.1-2.654.164-4a.475.475,0,0,0,.36-.033,12.935,12.935,0,0,0,3.6-3.7c.262-.426-.328-.917-.623-.491a13.214,13.214,0,0,1-3.309,3.44c.426-8.519,1.245-16.972,2.424-25.424h0Z" transform="translate(-144.578 -161.624)"/>
        <path id="Path_6703" data-name="Path 6703" d="M220.4,198.125a8.746,8.746,0,0,1-4.652.393,29.071,29.071,0,0,0,3.244,6.553c2.556,1.7,8.748,4.259,8.453,4.325a18.259,18.259,0,0,1-3.932.655A26.476,26.476,0,0,0,227.838,213c3.211,1.736,7.175,2.621,9.6,5.34a.283.283,0,0,0,.2.1.278.278,0,0,0,.491,0c4.03-7.274,2.13-15.268.36-22.443-.1-.328-.164-.688-.262-1.016a25.124,25.124,0,0,1-4.03,5.9c-.229.262,1.573-6.979,2.523-10.353a14.446,14.446,0,0,0-2.883-4.456c-2.654-2.752-6.258-4.915-9.665-6.848-.131-.066-.295-.164-.426-.229a16.227,16.227,0,0,1-.983,5.078,46.058,46.058,0,0,1-1.573-6.454c-.819-.426-1.671-.819-2.49-1.212-1.114-.524-2.621-1.54-4-.819-1.311.721-2.523,6.913-2.359,8.519.066.688.164,1.376.262,2.031.033.295.1.59.131.885a81.63,81.63,0,0,0,1.868,8.027c.164.1.295.2.459.295,1.7.95,5.57,2.687,5.308,2.785Z" transform="translate(-164.604 -150.041)" fill="#aab6c2"/>
        <g id="Group_2691" data-name="Group 2691" transform="translate(47.999 31.731)">
          <path id="Path_6704" data-name="Path 6704" d="M241.489,240.209A125.285,125.285,0,0,0,235.461,214a.2.2,0,0,0,0-.229c-.36-.885-.721-1.736-1.114-2.621-.557-1.343-1.114-2.687-1.736-4a.148.148,0,0,0-.1-.1c-1.671-3.637-3.407-7.208-5.275-10.746a.453.453,0,0,0,.1-.131,17.3,17.3,0,0,0,1.376-6.192c0-.426-.688-.393-.721,0a17.421,17.421,0,0,1-1.147,5.57c-.557-1.081-1.147-2.13-1.736-3.211a.3.3,0,0,0,.2-.2,26.825,26.825,0,0,0,1.343-8.879c0-.426-.721-.393-.721,0a26.4,26.4,0,0,1-1.212,8.387q-4.079-7.273-8.682-14.219c-.229-.328-.852,0-.623.36,2.326,3.506,4.554,7.044,6.651,10.681-2.883.655-5.6-.131-8.224-.917a.332.332,0,0,0-.229.623c2.818.852,5.668,1.638,8.748.885h0c3.44,5.93,6.618,12.024,9.469,18.282a10.394,10.394,0,0,1-3.8-1.507c-.36-.229-.754.36-.393.59a11.845,11.845,0,0,0,4.161,1.605c.131,0,.229,0,.295-.066.459.983.885,1.966,1.311,2.949a116.169,116.169,0,0,1,7.306,29.454,5.084,5.084,0,0,0,.688-.131Z" transform="translate(-210.167 -177.299)"/>
          <path id="Path_6705" data-name="Path 6705" d="M218.57,181.032a18.438,18.438,0,0,1-6.16-2.392c.033.295.1.59.131.885a18.941,18.941,0,0,0,5.8,2.162c.459.066.655-.557.229-.623Z" transform="translate(-212.41 -174.246)"/>
        </g>
        <path id="Path_6706" data-name="Path 6706" d="M260.127,184.771c-.033,2.85-6.618,4.226-8.715,4.98-4.62,1.7-9.141,3.44-12.548,7.175a150.15,150.15,0,0,0-10.976,14.285.877.877,0,0,1-.819.36,10.5,10.5,0,0,1-.95-2.064c-1.212-2.949-3.047-8.355-2.588-11.435a18.372,18.372,0,0,1,2.1-6.127,5.274,5.274,0,0,0,1.31,2.588c.164.164.524-3.9.754-5.734.295-.36.623-.721.95-1.081a22.2,22.2,0,0,1,2.425-2.228,6.308,6.308,0,0,1,.557-.426,26.21,26.21,0,0,1,2.228-1.474c.2-.131.393-.229.623-.36a23.369,23.369,0,0,1,2.228-1.081,14.875,14.875,0,0,0,1.212,4.063,28,28,0,0,0,.491-4.751c.721-.262,1.442-.491,2.2-.721a10.84,10.84,0,0,0,.917,2.621c.1.2,1.081-2.162,1.442-3.178a30.353,30.353,0,0,1,7.044-.557,3.56,3.56,0,0,1,.59.033c.622.033,1.245.131,1.868.2,2.261.36,7.6,1.8,7.7,4.849v.1Z" transform="translate(-139.262 -140.324)" fill="#aab6c2"/>
        <g id="Group_2692" data-name="Group 2692" transform="translate(86.226 42.842)">
          <path id="Path_6707" data-name="Path 6707" d="M233.39,188.65c-5.6,5.5-7.339,15.661-7.7,18.544a12.726,12.726,0,0,0-1.147,3.735,85.909,85.909,0,0,0-.36,13.924q.049,2.261.2,4.521a6.54,6.54,0,0,1,.786-.131c-.066-.95-.1-1.9-.131-2.85-.131-4.1-.131-8.224.066-12.319a18.191,18.191,0,0,1,1.114-6.225,1.64,1.64,0,0,0,.262-.229,150.124,150.124,0,0,1,10.976-14.285c3.407-3.735,7.929-5.439,12.548-7.175,2.1-.786,8.682-2.162,8.715-4.98C249.936,182.2,239.845,182.294,233.39,188.65Z" transform="translate(-224.078 -179.575)"/>
          <path id="Path_6708" data-name="Path 6708" d="M227.5,187.046a18.83,18.83,0,0,1-.131-6.356c-.2.131-.426.229-.623.36a18.357,18.357,0,0,0,.164,6.127c.066.36.623.229.557-.131Z" transform="translate(-218.418 -180.69)"/>
          <path id="Path_6709" data-name="Path 6709" d="M227.156,186.918a25.454,25.454,0,0,1-.819-5.668c-.2.131-.36.295-.557.426a23.2,23.2,0,0,0,.819,5.373C226.7,187.41,227.254,187.279,227.156,186.918Z" transform="translate(-220.203 -179.415)"/>
        </g>
        <g id="Group_2693" data-name="Group 2693" transform="translate(61.464 80.323)">
          <path id="Path_6710" data-name="Path 6710" d="M224.733,216.069a20.475,20.475,0,0,1-7.634-11.992,19.782,19.782,0,0,1,.033-8.617,16.592,16.592,0,0,1,1.016-3.211H255.4a21.517,21.517,0,0,1,1.016,3.211,20.13,20.13,0,0,1-7.732,20.608h-23.95Z" transform="translate(-216.247 -191.857)" fill="#fff"/>
          <path id="Path_6711" data-name="Path 6711" d="M255.378,192.982a21.011,21.011,0,0,1,.885,2.883,20.266,20.266,0,0,1,.033,8.42,19.591,19.591,0,0,1-7.5,11.664H225.268a19.6,19.6,0,0,1-7.47-11.664,19.19,19.19,0,0,1-.426-4.128,21.238,21.238,0,0,1,.459-4.292,16.162,16.162,0,0,1,.885-2.883h36.662Zm.557-.852H218.125a19.288,19.288,0,0,0-1.114,3.538,20.264,20.264,0,0,0-.491,4.489,20.042,20.042,0,0,0,.459,4.292,20.515,20.515,0,0,0,8.027,12.319h24.081a20.544,20.544,0,0,0,7.994-21.1,18.6,18.6,0,0,0-1.147-3.538h0Z" transform="translate(-216.52 -192.13)"/>
        </g>
        <path id="Path_6712" data-name="Path 6712" d="M251.677,200.157a20.551,20.551,0,0,1-8.486,16.611H219.11c31.453,1.573,30.929-24.638,30.929-24.638a22.3,22.3,0,0,1,1.147,3.538,20.265,20.265,0,0,1,.491,4.489Z" transform="translate(-149.16 -111.807)"/>
        <path id="Path_6713" data-name="Path 6713" d="M266.4,246.013H213.978A16.213,16.213,0,0,1,197.76,229.8h0a16.185,16.185,0,0,1,16.218-16.185H266.4Z" transform="translate(-197.76 -62.911)" fill="#f40"/>
        <path id="Path_6714" data-name="Path 6714" d="M197.79,228a16.184,16.184,0,0,1,16.087-14.383H266.3v12.712c-6.291,2.424-13.368,5.275-15.661,1.7-2.621-4.128-11.336-10.648-11.336-10.648s-16.808-.131-28.242-.131-13.2,10.583-13.236,10.746Z" transform="translate(-197.692 -62.888)" fill="#fa8921"/>
        <g id="Group_2695" data-name="Group 2695" transform="translate(35.778 150.699)">
          <g id="Group_2694" data-name="Group 2694" transform="translate(2.195 2.785)">
            <path id="Path_6715" data-name="Path 6715" d="M222.076,239.7a12.516,12.516,0,1,1,0-25.031h93.245V239.7H222.076Z" transform="translate(-208.872 -213.982)" fill="#fff"/>
            <path id="Path_6716" data-name="Path 6716" d="M315.111,215.8v23.721H222.554a11.86,11.86,0,1,1,0-23.721h92.557Zm1.343-1.343h-93.9a13.2,13.2,0,1,0,0,26.407h93.9V214.493h0Z" transform="translate(-209.35 -214.46)"/>
          </g>
          <path id="Path_6717" data-name="Path 6717" d="M323.549,240.476H224.865a10.648,10.648,0,0,1,0-21.3h98.684v-5.57H224.865a16.2,16.2,0,0,0,0,32.4h98.684v-5.57Z" transform="translate(-208.68 -213.61)"/>
        </g>
        <path id="Path_6718" data-name="Path 6718" d="M260.495,218.759H216.33a9.592,9.592,0,0,1-9.6-9.6h0a9.592,9.592,0,0,1,9.6-9.6h44.165Z" transform="translate(-177.341 -94.894)" fill="#aab6c2"/>
        <g id="Group_2697" data-name="Group 2697" transform="translate(70.114 104.601)">
          <g id="Group_2696" data-name="Group 2696" transform="translate(1.278 1.704)">
            <path id="Path_6719" data-name="Path 6719" d="M226.9,214.555a7.142,7.142,0,0,1,0-14.285H297.41v14.318H226.9Z" transform="translate(-219.072 -199.582)" fill="#fff"/>
            <path id="Path_6720" data-name="Path 6720" d="M297.2,201.4v12.974H227.381a6.487,6.487,0,1,1,0-12.974H297.2Zm1.343-1.343H227.381a7.83,7.83,0,1,0,0,15.661h71.162V200.06Z" transform="translate(-219.55 -200.06)"/>
          </g>
          <path id="Path_6721" data-name="Path 6721" d="M302.74,215.5H228.76a6.323,6.323,0,0,1,0-12.647h73.98V199.54H228.76a9.6,9.6,0,0,0,0,19.2h73.98V215.43Z" transform="translate(-219.16 -199.54)"/>
        </g>
        <path id="Path_6722" data-name="Path 6722" d="M211.8,232.276h80.664A13.43,13.43,0,0,0,305.9,218.843h0a13.43,13.43,0,0,0-13.433-13.433H211.8v26.866Z" transform="translate(-165.8 -81.577)" fill="#aab6c2"/>
        <path id="Path_6723" data-name="Path 6723" d="M286.318,205.42a13.43,13.43,0,0,1,13.433,13.433,10.623,10.623,0,0,1-.065,1.442,16.319,16.319,0,0,0-14.711-9.239c-10.845-.1-57.729,0-57.729,0L214.5,205.42h71.883Z" transform="translate(-159.654 -81.554)"/>
        <g id="Group_2699" data-name="Group 2699" transform="translate(8.748 123.866)">
          <g id="Group_2698" data-name="Group 2698" transform="translate(4.587 2.261)">
            <path id="Path_6724" data-name="Path 6724" d="M202.04,226.84V206.33h46.426a10.255,10.255,0,1,1,0,20.51Z" transform="translate(-201.352 -205.609)" fill="#fff"/>
            <path id="Path_6725" data-name="Path 6725" d="M248.944,207.486a9.6,9.6,0,0,1,0,19.2H203.173V207.519h45.771Zm0-1.343H201.83V228h47.114a10.943,10.943,0,0,0,0-21.886h0Z" transform="translate(-201.83 -206.11)"/>
          </g>
          <path id="Path_6726" data-name="Path 6726" d="M200.43,227.666h51.046a8.813,8.813,0,0,0,0-17.627H200.43v-4.62h51.046a13.433,13.433,0,1,1,0,26.866H200.43Z" transform="translate(-200.43 -205.42)"/>
        </g>
      </g>
      <path id="Path_6727" data-name="Path 6727" d="M209.767,218.359a13.47,13.47,0,0,0,7.634-2.523,62.862,62.862,0,0,1-1.147,14.023c-3.014,4.849-11.3,13.728-10.746,13.662a27.215,27.215,0,0,0,6.684-1.573,49.144,49.144,0,0,1-5.078,8.322c-4.03,5.373-9.8,9.7-11.959,16.251a.352.352,0,0,1-.262.295.482.482,0,0,1-.786.36c-10.845-10.32-12.811-25.949-14.383-40.07-.066-.655-.164-1.343-.229-2a42.787,42.787,0,0,0,9.993,7.8c.524.295-6.782-11.435-10.386-16.84a32.273,32.273,0,0,1,1.868-10.026c2.523-6.815,6.88-13.171,11.107-19.036.164-.229.36-.491.524-.721a31.85,31.85,0,0,0,4.685,8.453c.36.459-.754-8.551-1.442-12.679,1.048-1.311,2.13-2.621,3.211-3.9,1.442-1.7,3.244-4.587,5.832-4.226,2.523.36,8.256,10.681,9.01,13.63.328,1.245.59,2.556.852,3.833.131.557.229,1.114.328,1.671.95,5.177,1.507,10.517,1.933,15.727a7.191,7.191,0,0,1-.557.819c-2.1,2.85-7.208,8.682-6.684,8.682Z" transform="translate(262.822 319.081)" fill="#aab6c2"/>
      <path id="Path_6728" data-name="Path 6728" d="M192.664,203.792c5.34-.819,9.436-4.194,13.368-7.7.59-.524-.131-1.507-.721-.983-3.67,3.276-7.536,6.553-12.516,7.4,1.147-7.962,2.457-15.923,4.03-23.819.164-.786-1.048-.95-1.212-.2q-3.1,15.726-5.078,31.617a52.667,52.667,0,0,1-7.077-14.252c-.229-.754-1.376-.295-1.147.459a53.713,53.713,0,0,0,7.6,15.038.572.572,0,0,0,.459.229c-.295,2.326-.524,4.62-.786,6.946a33.791,33.791,0,0,1-5.275-9.207c-.262-.721-1.409-.295-1.147.459a34.957,34.957,0,0,0,6,10.222.45.45,0,0,0,.262.164q-1.18,11.451-1.769,22.967a.617.617,0,0,0-.066.262c-.164,2.818-.262,5.6-.295,8.42-.066,1.835-.1,3.669-.131,5.5a.566.566,0,0,0,.164.426c.328,17.266,2.883,34.369,6.52,51.275l1.179-.295c-4.1-19.1-6.848-38.464-6.487-58.024.066-2.064.164-4.128.262-6.192a.581.581,0,0,0,.557-.066,20.739,20.739,0,0,0,5.6-5.734c.426-.655-.524-1.442-.95-.754a19.468,19.468,0,0,1-5.144,5.34q1.032-19.806,3.8-39.447h.066Z" transform="translate(270.062 328.438)"/>
      <path id="Path_6729" data-name="Path 6729" d="M181.049,221.267a13.312,13.312,0,0,1-7.208.623,46.618,46.618,0,0,0,5.046,10.157c3.964,2.654,13.6,6.585,13.105,6.749a26.319,26.319,0,0,1-6.127,1.016,40.1,40.1,0,0,0,6.749,4.587c4.98,2.719,11.14,4.063,14.907,8.289a.4.4,0,0,0,.295.131.447.447,0,0,0,.786,0c6.225-11.3,3.342-23.721.59-34.86l-.393-1.573a40.14,40.14,0,0,1-6.225,9.174c-.36.393,2.457-10.812,3.932-16.054a23.436,23.436,0,0,0-4.489-6.913c-4.128-4.292-9.7-7.634-14.973-10.648-.229-.131-.459-.229-.655-.36a25.526,25.526,0,0,1-1.507,7.9c-.164.459-1.835-6.684-2.457-10.026-1.278-.623-2.556-1.278-3.866-1.868-1.736-.819-4.1-2.392-6.192-1.245-2.031,1.081-3.932,10.746-3.669,13.2.1,1.048.229,2.13.393,3.178l.2,1.376a112.708,112.708,0,0,0,2.916,12.45,5.218,5.218,0,0,0,.721.426c2.621,1.474,8.65,4.161,8.224,4.325Z" transform="translate(239.085 346.479)" fill="#aab6c2"/>
      <g id="Group_2701" data-name="Group 2701" transform="translate(408.077 542.269)">
        <path id="Path_6730" data-name="Path 6730" d="M213.886,286.665c-1.835-13.892-4.62-27.587-9.37-40.66a.294.294,0,0,0,0-.36c-.557-1.376-1.147-2.719-1.7-4.063-.852-2.1-1.736-4.161-2.687-6.225a.716.716,0,0,0-.131-.164c-2.556-5.635-5.308-11.172-8.191-16.677a.588.588,0,0,0,.164-.229,26.991,26.991,0,0,0,2.13-9.632c0-.655-1.081-.623-1.114,0a25.676,25.676,0,0,1-1.8,8.65c-.885-1.671-1.769-3.309-2.687-4.98a.493.493,0,0,0,.295-.328,41.761,41.761,0,0,0,2.1-13.793c0-.655-1.114-.623-1.114,0a39.693,39.693,0,0,1-1.9,13.04q-6.291-11.3-13.5-22.083c-.36-.524-1.343,0-.983.557q5.455,8.158,10.353,16.578c-4.489,1.016-8.715-.2-12.778-1.442a.518.518,0,0,0-.328.983c4.358,1.343,8.813,2.523,13.6,1.376h.033c5.373,9.207,10.255,18.708,14.678,28.373a16.593,16.593,0,0,1-5.9-2.326c-.557-.36-1.147.524-.59.885a17.572,17.572,0,0,0,6.422,2.457.525.525,0,0,0,.491-.131c.688,1.507,1.376,3.047,2.031,4.554,6,14.613,9.3,30.044,11.369,45.738l1.081-.2Z" transform="translate(-165.33 -188.944)"/>
        <path id="Path_6731" data-name="Path 6731" d="M178.3,194.775a27.618,27.618,0,0,1-9.534-3.735l.2,1.376a29.526,29.526,0,0,0,8.977,3.342C178.632,195.889,178.959,194.906,178.3,194.775Z" transform="translate(-168.77 -184.173)"/>
      </g>
      <path id="Path_6732" data-name="Path 6732" d="M242.831,200.606c-.066,4.423-10.288,6.553-13.531,7.765-7.175,2.654-14.187,5.34-19.494,11.107-6.258,6.815-11.664,14.678-17.037,22.181a1.253,1.253,0,0,1-1.278.557,21.746,21.746,0,0,1-1.474-3.244c-1.868-4.587-4.718-12.974-4-17.758a28.591,28.591,0,0,1,3.244-9.534,8.572,8.572,0,0,0,2.031,4.03c.262.262.819-6.028,1.179-8.879.459-.59.95-1.147,1.442-1.671a31.569,31.569,0,0,1,3.768-3.473c.295-.229.557-.459.852-.655,1.081-.819,2.261-1.573,3.44-2.293.328-.2.623-.36.95-.557,1.114-.623,2.261-1.179,3.44-1.7a22.828,22.828,0,0,0,1.9,6.291c.2.426.688-4.98.754-7.372,1.114-.426,2.228-.754,3.375-1.081a18.1,18.1,0,0,0,1.409,4.063c.164.328,1.671-3.342,2.228-4.947a44.437,44.437,0,0,1,10.943-.852,4.177,4.177,0,0,1,.917.066,28.359,28.359,0,0,1,2.916.328c3.506.557,11.828,2.785,11.959,7.536v.131Z" transform="translate(278.313 361.472)" fill="#aab6c2"/>
      <g id="Group_2702" data-name="Group 2702" transform="translate(467.428 559.62)">
        <path id="Path_6733" data-name="Path 6733" d="M201.317,206.611c-8.682,8.551-11.369,24.311-11.926,28.766a19.915,19.915,0,0,0-1.769,5.8c-1.048,7.044-.721,14.514-.557,21.624.066,2.326.164,4.685.295,7.011.393-.066.819-.164,1.212-.229l-.2-4.423q-.344-9.534.1-19.134a28.159,28.159,0,0,1,1.736-9.632,1.962,1.962,0,0,0,.393-.36c5.406-7.5,10.779-15.366,17.037-22.181,5.308-5.766,12.319-8.453,19.494-11.107,3.244-1.212,13.466-3.342,13.531-7.765-13.6,1.605-29.323,1.736-39.283,11.6Z" transform="translate(-186.885 -192.556)"/>
        <path id="Path_6734" data-name="Path 6734" d="M192.149,204.1a29.311,29.311,0,0,1-.2-9.862c-.328.2-.655.36-.95.557a29.852,29.852,0,0,0,.262,9.5c.1.557.983.36.885-.2Z" transform="translate(-178.109 -194.24)"/>
        <path id="Path_6735" data-name="Path 6735" d="M191.64,203.891a37.888,37.888,0,0,1-1.278-8.781,8.407,8.407,0,0,0-.852.655,37.857,37.857,0,0,0,1.245,8.322.454.454,0,0,0,.885-.2Z" transform="translate(-180.909 -192.26)"/>
      </g>
      <g id="Group_2703" data-name="Group 2703" transform="translate(428.947 617.808)">
        <path id="Path_6736" data-name="Path 6736" d="M187.856,249.147a31.616,31.616,0,0,1-11.828-18.61,31.111,31.111,0,0,1-.688-6.553,32.171,32.171,0,0,1,.754-6.815,31.132,31.132,0,0,1,1.54-4.98h57.795A32.571,32.571,0,0,1,237,217.17a31.478,31.478,0,0,1,.754,6.815,30.433,30.433,0,0,1-.688,6.553,31.174,31.174,0,0,1-12.057,18.61H187.856Z" transform="translate(-174.685 -211.568)" fill="#fff"/>
        <path id="Path_6737" data-name="Path 6737" d="M235.458,213.311a33.934,33.934,0,0,1,1.376,4.489,30.193,30.193,0,0,1,.721,6.651,29.668,29.668,0,0,1-.688,6.422,30.468,30.468,0,0,1-11.631,18.086H188.7a30.468,30.468,0,0,1-11.631-18.086,30.11,30.11,0,0,1-.688-6.422,33.373,33.373,0,0,1,.721-6.684,30.32,30.32,0,0,1,1.343-4.456h56.943Zm.885-1.311h-58.68a31.717,31.717,0,0,0-1.769,5.5,32.231,32.231,0,0,0-.754,6.946,31.446,31.446,0,0,0,.688,6.684,31.946,31.946,0,0,0,12.483,19.134h37.383a31.657,31.657,0,0,0,13.171-25.818,32.921,32.921,0,0,0-.754-6.946,31.721,31.721,0,0,0-1.769-5.5h0Z" transform="translate(-175.14 -212)"/>
      </g>
      <path id="Path_6738" data-name="Path 6738" d="M229.714,224.427a31.658,31.658,0,0,1-13.171,25.818H179.16c48.85,2.424,48.031-38.235,48.031-38.235a31.718,31.718,0,0,1,1.769,5.5,32.231,32.231,0,0,1,.754,6.946Z" transform="translate(262.958 405.831)"/>
    </g>
  </g>
</svg>
