<svg id="Group_35" data-name="Group 35" xmlns="http://www.w3.org/2000/svg" width="74.787" height="74.787" viewBox="0 0 74.787 74.787">
  <path id="Path_138" data-name="Path 138" d="M84.028,67.944a37.4,37.4,0,1,0,.037,48.7l2.018-2.592c.574-.8,1.111-1.611,1.611-2.462l.852-1.388a37.291,37.291,0,0,0,0-35.783l-.833-1.37c-.518-.852-1.055-1.685-1.629-2.481l-2.055-2.61Zm-28.3,58.534A34.173,34.173,0,1,1,89.9,92.305,34.209,34.209,0,0,1,55.724,126.478Z" transform="translate(-18.33 -54.93)" fill="#ff875c"/>
  <path id="Path_139" data-name="Path 139" d="M52.95,120.88A31.34,31.34,0,1,1,84.29,89.54,31.376,31.376,0,0,1,52.95,120.88Zm0-61.163A29.822,29.822,0,1,0,82.773,89.54,29.863,29.863,0,0,0,52.95,59.718Z" transform="translate(-15.538 -52.147)" fill="#ff875c"/>
  <path id="Path_140" data-name="Path 140" d="M57.384,66.012,55.847,73.25c-1.481-1.481-3.647-2.221-6.479-2.221a8.7,8.7,0,0,0-6.9,3.054,9.931,9.931,0,0,0-2.11,4.313H54.718l-.833,4.054H39.816c0,.407-.019.907-.019,1.536s0,1.24.056,1.907h13.31l-.833,4.054H40.409a10.288,10.288,0,0,0,2.018,4.387,8.48,8.48,0,0,0,6.794,3.091,10.6,10.6,0,0,0,8-3.091v8a17.526,17.526,0,0,1-7.923,1.7,16.481,16.481,0,0,1-12.551-5.22,17.912,17.912,0,0,1-4.424-8.867H28.45l.833-4.054h2.555c0-.426-.019-.87-.019-1.333,0-.8,0-1.5.056-2.11H28.45l.833-4.054h3.11a17.9,17.9,0,0,1,4.369-8.7q4.943-5.276,13-5.276a17.156,17.156,0,0,1,7.627,1.592Z" transform="translate(-9.716 -46.852)" fill="#ff875c"/>
</svg>
