<svg id="Group_34" data-name="Group 34" xmlns="http://www.w3.org/2000/svg" width="137.457" height="29.519" viewBox="0 0 137.457 29.519">
  <path id="Path_114" data-name="Path 114" d="M79.184,70.318h8.462L74.31,83.732a2.987,2.987,0,0,0,1.4.117c.546-.078.78.195.975.663,1.677,4.484,3.354,8.93,5.03,13.375.117.273.234.546.39,1.014.117-.39.234-.624.273-.858l6.083-22.578c.468-1.755.9-3.471,1.326-5.225h20.823c-.468,1.755-.936,3.471-1.365,5.225-.117.546-.351.7-.9.7H96.576c-1.521,0-1.17-.195-1.56,1.131-.429,1.56-.819,3.12-1.287,4.8h12.205l-1.443,5.42H92.248L90.61,93.676h13.882l-1.6,6.044H74a4.535,4.535,0,0,0-.156-.7C72.36,94.495,70.878,90.01,69.4,85.487c-.546-1.716-.546-1.677-2.379-1.716a.843.843,0,0,0-.975.7c-.741,2.808-1.521,5.654-2.262,8.462L62.027,99.72H46.819a5.082,5.082,0,0,0-.156-.819C45.22,94.456,43.738,90.01,42.3,85.565c-.585-1.794-.585-1.755-2.457-1.794-.507,0-.741.117-.858.663-1.365,5.108-2.73,10.178-4.094,15.286H27.75a1.838,1.838,0,0,1,.078-.195Q31.747,84.9,35.7,70.279h7.136L39.526,82.523a.458.458,0,0,0,.39-.156c3.9-3.9,7.838-7.76,11.737-11.659a4.089,4.089,0,0,0,.312-.429h8.462c-.117.117-.234.273-.351.39q-6.142,6.2-12.283,12.361c-.195.234-.429.429-.78.819h1.56a.82.82,0,0,1,.936.624c1.17,3.12,2.34,6.239,3.51,9.4.624,1.716,1.287,3.393,1.989,5.264.117-.39.234-.663.312-.9,2.184-8.072,4.328-16.183,6.512-24.255.312-1.209.624-2.457.9-3.666h7.136a1.981,1.981,0,0,1-.117.663c-.975,3.666-1.95,7.292-2.925,10.958-.039.234-.117.429-.195.819.273-.234.429-.351.546-.468l11.7-11.582a2.143,2.143,0,0,0,.273-.351Z" transform="translate(15.106 -70.24)" fill="#ff875c"/>
  <path id="Path_115" data-name="Path 115" d="M23.9,99.73H16.76a2.208,2.208,0,0,1,.117-.7l4.8-17.9c.975-3.588,1.911-7.214,2.886-10.841h8.618l6.239,18.8c.975-3.042,1.794-6.005,2.574-9.008.858-3.276,1.716-6.551,2.613-9.827h7.136a.664.664,0,0,1-.039.273c-2.418,8.891-4.8,17.821-7.175,26.712-.234.819-.39,1.638-.546,2.457H36.063a2.775,2.775,0,0,0-.156-.819c-1.755-5.342-3.51-10.646-5.264-15.988-.39-1.17-.78-2.34-1.209-3.666a7.173,7.173,0,0,0-.234.7L24.871,96.065c-.312,1.209-.624,2.457-.9,3.666Z" transform="translate(-16.76 -70.211)" fill="#ff875c"/>
  <path id="Path_116" data-name="Path 116" d="M32.629,70.26h7.253c-.039.156-.117.273-.156.429-1.989,7.292-3.939,14.623-5.888,21.915-.624,2.379-1.248,4.718-1.872,7.1H24.83s.078-.351.117-.507c2.535-9.437,5.069-18.835,7.6-28.271a3.434,3.434,0,0,0,.078-.663Z" transform="translate(6.639 -70.182)" fill="#ff875c"/>
  <path id="Path_117" data-name="Path 117" d="M48.18,99.73c.507-1.989,1.014-4.016,1.56-6.005C51.807,86.043,53.873,78.4,55.9,70.718c.039-.156.039-.312.078-.468h7.136a.989.989,0,0,1-.078.468c-2.184,8.189-4.406,16.339-6.59,24.528-.39,1.482-.741,2.964-1.131,4.445H48.18Z" transform="translate(74.342 -70.211)" fill="#ff875c"/>
</svg>
