<svg id="Group_38" data-name="Group 38" xmlns="http://www.w3.org/2000/svg" width="74.787" height="74.787" viewBox="0 0 74.787 74.787">
  <path id="Path_144" data-name="Path 144" d="M84.028,116.374a37.4,37.4,0,1,0,.037,48.7l2.018-2.592c.574-.8,1.111-1.61,1.611-2.462l.852-1.388a37.291,37.291,0,0,0,0-35.783l-.833-1.37c-.518-.852-1.055-1.685-1.629-2.481l-2.055-2.61Zm-28.3,58.534A34.173,34.173,0,1,1,89.9,140.735,34.209,34.209,0,0,1,55.724,174.908Z" transform="translate(-18.33 -103.36)" fill="#ffe3d9"/>
  <path id="Path_145" data-name="Path 145" d="M52.95,169.3a31.34,31.34,0,1,1,31.34-31.34A31.376,31.376,0,0,1,52.95,169.3Zm0-61.163A29.822,29.822,0,1,0,82.773,137.96,29.863,29.863,0,0,0,52.95,108.138Z" transform="translate(-15.538 -100.585)" fill="#ffe3d9"/>
  <g id="Group_37" data-name="Group 37" transform="translate(11.422 25.768)">
    <path id="Path_146" data-name="Path 146" d="M37.477,132.5l3.758,1.462A10.459,10.459,0,0,1,38.31,139.7a7.345,7.345,0,0,1-5.035,1.814,7.465,7.465,0,0,1-6.09-2.888c-1.8-2.221-2.684-5.239-2.684-9.015q0-6,2.7-9.385a7.661,7.661,0,0,1,6.312-2.943,7.314,7.314,0,0,1,5.405,2.2,9.519,9.519,0,0,1,2.277,4.646l-3.832,1.111a5.293,5.293,0,0,0-1.462-2.925,3.636,3.636,0,0,0-2.592-1.018,4.119,4.119,0,0,0-3.48,1.851c-.907,1.24-1.351,3.277-1.351,6.127s.444,5.054,1.314,6.294a3.99,3.99,0,0,0,3.406,1.87,3.494,3.494,0,0,0,2.647-1.185,7.637,7.637,0,0,0,1.611-3.776Z" transform="translate(-24.5 -117.28)" fill="#ffe3d9"/>
    <path id="Path_147" data-name="Path 147" d="M33.79,140.917V117.5h3.776l7.867,15.642V117.5h3.61v23.417H45.138L37.4,125.645v15.272Z" transform="translate(-16.593 -117.093)" fill="#ffe3d9"/>
    <path id="Path_148" data-name="Path 148" d="M49.14,136.566H43.216V133.03H49.14V131.1H43.216v-3.536h4.165L42.42,117.48h4.924l3.2,6.812a14.486,14.486,0,0,1,.87,2.258,14,14,0,0,1,.87-2.258l3.258-6.812h4.924l-5.035,10.089h4.239V131.1H53.657v1.925h6.016v3.536H53.657v4.369h-4.5v-4.369Z" transform="translate(-9.247 -117.11)" fill="#ffe3d9"/>
  </g>
</svg>
