<svg id="Group_5" data-name="Group 5" xmlns="http://www.w3.org/2000/svg" width="66.989" height="74.85" viewBox="0 0 66.989 74.85">
  <path id="Path_43" data-name="Path 43" d="M72.336,323.9c-1.752-2.074-4.069-2.639-6.465-2.961-5.136-.7-9.245,1.269-12.609,5.015-.3.342-.6.7-.947,1.128-2.9-5.337-7.271-8.4-13.374-8.379s-10.474,3.1-13.354,8.54c-.342-.4-.645-.765-.967-1.128a14.542,14.542,0,0,0-15.066-4.673,7.035,7.035,0,0,0-3.988,2.316c-.06-.544-.121-.947-.141-1.349a32.467,32.467,0,0,1,4.008-16.657,1.143,1.143,0,0,0-.141-1.511,10.564,10.564,0,0,1-1.531-2.437,21.813,21.813,0,0,1-2.075-8.258,121.163,121.163,0,0,1,.947-18.53c.242-1.712.906-1.853,2.357-1.37a8.222,8.222,0,0,1,2.095,1.067,122.007,122.007,0,0,1,13.6,10.9,5.422,5.422,0,0,1,1.148,1.309c.5.947,1.067.866,1.974.524a31.935,31.935,0,0,1,22.538.081c.3.1.6.222.846.322,4.29-5.257,9.728-9.124,15.207-12.891a11.486,11.486,0,0,1,2.739-1.329c1.39-.483,1.873-.141,2.054,1.309a39.741,39.741,0,0,1,.423,4.351c.1,5.056.383,10.131.06,15.146a18.843,18.843,0,0,1-3.4,10.252.863.863,0,0,0,.04.765,42.479,42.479,0,0,1,4.048,15.851c.06.866,0,1.732,0,2.6Zm-7.412-23.646a6.991,6.991,0,0,0,3.424-5.317A62.64,62.64,0,0,0,68.69,281.2a2.475,2.475,0,0,0-.2-.846c-.383-1.128-1.067-1.49-2.175-1.027a7.637,7.637,0,0,0-2.135,1.188c-2.88,2.518-5.7,5.1-8.52,7.674a17.707,17.707,0,0,0-1.249,1.41,47.112,47.112,0,0,1,10.514,10.655Zm-41.31-10.876c-.4-.423-.7-.786-1.047-1.088-1.853-1.732-3.686-3.484-5.619-5.156a35.084,35.084,0,0,0-4.169-3.182q-3.6-2.3-3.686,2.054c-.06,3.243-.1,6.486.02,9.728a20.9,20.9,0,0,0,.866,4.713,5.827,5.827,0,0,0,2.78,3.5A32.341,32.341,0,0,1,23.594,289.4Zm-6.385,21.753a4.515,4.515,0,0,0,3.223,4.492c2.276.786,4.633,1.349,6.969,1.974a8.434,8.434,0,0,0,2.256.262c.967,0,1.208-.524.665-1.309a6.3,6.3,0,0,0-1.329-1.49c-2.336-1.732-4.713-3.444-7.13-5.076a9.554,9.554,0,0,0-2.659-1.068,1.4,1.4,0,0,0-1.853,1.148,9.245,9.245,0,0,0-.161,1.068Zm43.425.242a4.036,4.036,0,0,0-.04-.745c-.181-1.531-.927-2.054-2.4-1.631a7,7,0,0,0-1.913.806q-3.354,2.206-6.647,4.532a10.75,10.75,0,0,0-1.873,1.833,4.012,4.012,0,0,0-.463,1.249,3.836,3.836,0,0,0,1.349.4,22.482,22.482,0,0,0,3.444-.624c1.913-.524,3.827-1.047,5.66-1.752a4.326,4.326,0,0,0,2.9-4.089Zm-5.76-3.948c.846,0,1.692.02,2.538,0a2.639,2.639,0,0,0,2.457-1.813,2.71,2.71,0,0,0-.7-3.041,6.487,6.487,0,0,0-8.5,0,2.652,2.652,0,0,0-.725,2.961,2.705,2.705,0,0,0,2.5,1.893c.826.04,1.631,0,2.457,0Zm-31.924,0c.826,0,1.631.04,2.457,0a2.61,2.61,0,0,0,2.477-1.893,2.652,2.652,0,0,0-.725-2.961,6.46,6.46,0,0,0-8.48,0,2.7,2.7,0,0,0-.745,2.961,2.66,2.66,0,0,0,2.477,1.893C21.277,307.469,22.123,307.429,22.969,307.429Z" transform="translate(-5.394 -273.41)" fill="#ff7a4a"/>
  <path id="Path_44" data-name="Path 44" d="M51.3,306.61c.926-1.188,1.712-2.377,2.679-3.424a12.142,12.142,0,0,1,13.414-3.767c2.82.866,3.424,2.075,2.4,4.874a21.12,21.12,0,0,1-4.29,6.767c-6.123,6.848-13.535,11.5-22.659,13.152a28.276,28.276,0,0,1-15.892-1.853A39.693,39.693,0,0,1,8.314,307.537a18.906,18.906,0,0,1-2.034-4.33c-.6-1.793-.06-2.759,1.712-3.4a12.81,12.81,0,0,1,14.522,3.545c.967,1.047,1.793,2.216,2.759,3.444.363-.826.685-1.591,1.067-2.336,2.477-5.076,6.546-7.815,12.186-7.755,5.035.06,8.822,2.518,11.3,6.929.544.947.967,1.974,1.47,3Zm-11.521,3.625c0-1.128.04-2.034,0-2.941a1.073,1.073,0,0,1,.725-1.188,4.493,4.493,0,0,0,2.921-3.646,2.332,2.332,0,0,0-2.377-2.719c-1.833-.02-3.686-.02-5.519,0a2.267,2.267,0,0,0-2.377,2.538c.081,2.034,1.43,3.082,3.041,3.928.222.121.564.282.564.443.04,1.148.02,2.3.02,3.605l-6.627-.6v6.4a4.908,4.908,0,0,0,2.518-3.5,17.405,17.405,0,0,0,11.44,0,4.917,4.917,0,0,0,2.316,3.485V309.47l-6.627.745Z" transform="translate(-4.737 -249.791)" fill="#ff7a4a"/>
</svg>
