<svg id="Group_33" data-name="Group 33" xmlns="http://www.w3.org/2000/svg" width="90.001" height="77.913" viewBox="0 0 90.001 77.913">
  <path id="Path_108" data-name="Path 108" d="M60.758,46.69c-3.12.117-6.044-.195-8.5-2.184a1.307,1.307,0,0,0-1.872-.039,13.578,13.578,0,0,1-7.331,2.3,13.306,13.306,0,0,1-7.643-1.482A10.138,10.138,0,0,1,30.3,37.176a10.006,10.006,0,0,1,2.457-8.54,39.544,39.544,0,0,1,4.172-3.393,2.5,2.5,0,0,1,.39-.234c-.507-1.56-1.092-3.042-1.482-4.6a7.116,7.116,0,0,1,4.679-8.423,11.011,11.011,0,0,1,9.671.975A6.775,6.775,0,0,1,53.076,19.2c-.234,3.432-2.457,5.381-5.147,7.019-.507.312-1.014.585-1.716.936l5.3,6.9h.351l2.769-6.473,6.239,2.028a24.839,24.839,0,0,1-4.406,8.852c1.209,1.209,2.769,1.248,4.328,1.365v6.746ZM40.052,30.078a5.861,5.861,0,0,0-3.042,5.03A5.382,5.382,0,0,0,40.052,40.3a6.622,6.622,0,0,0,6.629-.741l-6.668-9.437Zm3.471-7.136a7.467,7.467,0,0,0,3.51-3.237,2.87,2.87,0,0,0-.507-3.081,2.759,2.759,0,0,0-3.12-.663A2.265,2.265,0,0,0,41.768,18.5c0,1.677,1.014,2.964,1.794,4.445Z" transform="translate(-1.525 -11.255)" fill="#ffe3d9"/>
  <path id="Path_109" data-name="Path 109" d="M58.152,39.315A23.235,23.235,0,0,1,56.2,49.1c-2.73,5.615-7.877,7.682-13.219,7.253-5.927-.507-9.71-3.783-11.465-9.359a24.377,24.377,0,0,1,.273-15.715c3.939-10.958,17.626-10.646,22.656-4.094A18.386,18.386,0,0,1,58,36.819C58.074,37.716,58.113,38.652,58.152,39.315ZM50.9,39.159c-.039-.741-.078-1.911-.234-3.081a11.8,11.8,0,0,0-2.028-5.654,5.291,5.291,0,0,0-8.579-.078,10.987,10.987,0,0,0-1.482,2.847,21.915,21.915,0,0,0-.7,9.4,19.5,19.5,0,0,0,1.092,4.445,5.692,5.692,0,0,0,3.51,3.627A5.5,5.5,0,0,0,49.3,47.7c1.326-2.535,1.56-5.3,1.6-8.54Z" transform="translate(-1.064 21.467)" fill="#ffe3d9"/>
  <path id="Path_110" data-name="Path 110" d="M38.4,39.573a29.078,29.078,0,0,1,1.638-8.384A12.738,12.738,0,0,1,52.516,22.61a12.526,12.526,0,0,1,12.361,8.579,23.778,23.778,0,0,1,.156,16.339c-2.028,5.927-6.863,9.086-13.141,8.852C45.809,56.146,41.247,52.6,39.57,46.4a67.409,67.409,0,0,1-1.17-6.824Zm20.9,0h-.312c0-.858.078-1.677,0-2.5a13.625,13.625,0,0,0-1.833-6.239,5.347,5.347,0,0,0-9.281,0,11.589,11.589,0,0,0-1.209,2.652,23.951,23.951,0,0,0-.507,9.983,11.661,11.661,0,0,0,1.794,5.03,5.356,5.356,0,0,0,8.969.039,7.228,7.228,0,0,0,1.209-2.535c.468-2.106.78-4.289,1.131-6.434Z" transform="translate(22.276 21.521)" fill="#ffe3d9"/>
  <path id="Path_111" data-name="Path 111" d="M22.84,46.5h6.2c.234,0,.507.39.624.7a6.067,6.067,0,0,0,6.083,3.783,5.988,5.988,0,0,0,5.888-4.055,5.794,5.794,0,0,0-5.42-7.643,6.942,6.942,0,0,0-6.278,2.73,1.07,1.07,0,0,1-.7.39H23.464L25.024,22.6H46.315v6.044H30.756l-.78,8.774a1.206,1.206,0,0,0,.312-.078C32.9,33.987,38.282,33.6,42.065,35a10.187,10.187,0,0,1,6.707,9.281,10.708,10.708,0,0,1-8.15,11.27A16.166,16.166,0,0,1,27.87,54.342a9.306,9.306,0,0,1-4.952-7.916Z" transform="translate(-22.84 21.492)" fill="#ffe3d9"/>
  <path id="Path_112" data-name="Path 112" d="M45.992,17.6c-1.833,1.209-3.588,2.379-5.342,3.51-.156.078-.624-.117-.78-.351A6.666,6.666,0,0,0,34.917,17.6a3.767,3.767,0,0,0-3.744,1.443,2.475,2.475,0,0,0,0,3.2,9.536,9.536,0,0,0,2.886,2.067c1.755.78,3.588,1.326,5.381,2.028,3.2,1.287,5.849,3.2,6.863,6.707,1.833,6.4-1.521,12.439-8.618,13.492a16.276,16.276,0,0,1-9.32-1.014,11.916,11.916,0,0,1-5.3-5.342.607.607,0,0,1,.156-.624c1.794-1.209,3.627-2.418,5.225-3.432a32.375,32.375,0,0,0,3.471,3.471,5.611,5.611,0,0,0,6.161,0c1.56-1.053,2.106-4.367-.117-5.459-2.184-1.092-4.484-1.989-6.707-2.964a14.81,14.81,0,0,1-5.42-3.588,9.424,9.424,0,0,1-2.223-5.615A9.986,9.986,0,0,1,24.7,16.234c1.6-2.886,4.289-4.172,7.409-4.718a14.286,14.286,0,0,1,6.668.39,13.182,13.182,0,0,1,7.136,5.615Z" transform="translate(-22.283 -11.293)" fill="#ffe3d9"/>
  <path id="Path_113" data-name="Path 113" d="M47.318,32.846V45.168H39.87V11.555c.312,0,.663-.039,1.014-.039,3.12,0,6.239-.078,9.32,0a37.793,37.793,0,0,1,6.278.741c4.172.9,6.512,4.289,6.9,8.345a12.12,12.12,0,0,1-.936,6.512A9.053,9.053,0,0,1,55.117,32.3c-2.535.312-5.108.39-7.8.585Zm.039-5.927c1.17,0,2.184.078,3.237,0,1.521-.117,3.042-.312,4.016-1.677a6.286,6.286,0,0,0,.78-4.874,2.955,2.955,0,0,0-2.535-2.73c-1.794-.273-3.627-.273-5.5-.39v9.71Z" transform="translate(26.538 -10.747)" fill="#ffe3d9"/>
</svg>
