<svg id="Group_9646" data-name="Group 9646" xmlns="http://www.w3.org/2000/svg" xmlns:xlink="http://www.w3.org/1999/xlink" width="59.094" height="74.182" viewBox="0 0 59.094 74.182">
  <defs>
    <clipPath id="clip-path">
      <rect id="Rectangle_8213" data-name="Rectangle 8213" width="59.094" height="74.182" fill="none"/>
    </clipPath>
  </defs>
  <g id="Group_9646-2" data-name="Group 9646" clip-path="url(#clip-path)">
    <path id="Path_16808" data-name="Path 16808" d="M57.067,16.682,42.412,2.027A6.863,6.863,0,0,0,37.523,0H6.915A6.921,6.921,0,0,0,0,6.915V67.266a6.921,6.921,0,0,0,6.915,6.915H52.179a6.921,6.921,0,0,0,6.915-6.915V21.573a6.864,6.864,0,0,0-2.027-4.891M41.491,6.44,52.654,17.6H44.635a3.148,3.148,0,0,1-3.143-3.143Zm13.83,60.826a3.148,3.148,0,0,1-3.143,3.143H6.915a3.148,3.148,0,0,1-3.143-3.143V6.915A3.148,3.148,0,0,1,6.915,3.772H37.523c.068,0,.128.035.2.04V14.459a6.923,6.923,0,0,0,6.915,6.915H55.282c.005.068.04.128.04.2Z"/>
    <path id="Path_16809" data-name="Path 16809" d="M20.459,14a14.459,14.459,0,1,0,7.285,26.929c.048-.025.1-.035.148-.063s.055-.058.088-.083A14.443,14.443,0,0,0,20.459,14m10.5,12.573h-8.61v-8.61a10.681,10.681,0,0,1,8.61,8.61M9.772,28.459a10.684,10.684,0,0,1,8.8-10.5v10.5a1.91,1.91,0,0,0,.267.971l5.389,8.995a10.567,10.567,0,0,1-3.769.722A10.7,10.7,0,0,1,9.772,28.459m17.685,8.012-3.669-6.126h7.167a10.619,10.619,0,0,1-3.5,6.126" transform="translate(9.088 21.205)" fill="#f40"/>
    <path id="Path_16810" data-name="Path 16810" d="M5.886,7.772h17.6a1.886,1.886,0,0,0,0-3.772H5.886a1.886,1.886,0,0,0,0,3.772" transform="translate(6.059 6.059)"/>
    <path id="Path_16811" data-name="Path 16811" d="M5.886,10.772h17.6a1.886,1.886,0,0,0,0-3.772H5.886a1.886,1.886,0,1,0,0,3.772" transform="translate(6.059 10.602)" fill="#f40"/>
    <path id="Path_16812" data-name="Path 16812" d="M17.83,11.886A1.887,1.887,0,0,0,15.945,10H5.886a1.886,1.886,0,1,0,0,3.772H15.945a1.887,1.887,0,0,0,1.886-1.886" transform="translate(6.059 15.146)"/>
  </g>
</svg>
