<svg id="Group_9648" data-name="Group 9648" xmlns="http://www.w3.org/2000/svg" xmlns:xlink="http://www.w3.org/1999/xlink" width="62.587" height="67.139" viewBox="0 0 62.587 67.139">
  <defs>
    <clipPath id="clip-path">
      <rect id="Rectangle_8215" data-name="Rectangle 8215" width="62.587" height="67.139" fill="none"/>
    </clipPath>
  </defs>
  <g id="Group_9648-2" data-name="Group 9648" clip-path="url(#clip-path)">
    <path id="Path_16823" data-name="Path 16823" d="M42.673,45.29A1.708,1.708,0,0,0,40.966,47v3.072H3.414V12.517H40.966V24.693a1.707,1.707,0,1,0,3.414,0V6.259A6.264,6.264,0,0,0,38.121,0H6.259A6.264,6.264,0,0,0,0,6.259V60.88a6.264,6.264,0,0,0,6.259,6.259H38.121A6.264,6.264,0,0,0,44.38,60.88V47a1.708,1.708,0,0,0-1.707-1.707M6.259,3.414H38.121a2.849,2.849,0,0,1,2.845,2.845V9.1H3.414V6.259A2.849,2.849,0,0,1,6.259,3.414M38.121,63.725H6.259A2.849,2.849,0,0,1,3.414,60.88v-7.4H40.966v7.4a2.849,2.849,0,0,1-2.845,2.845"/>
    <path id="Path_16824" data-name="Path 16824" d="M10.707,25a1.707,1.707,0,1,0,1.707,1.707A1.708,1.708,0,0,0,10.707,25" transform="translate(11.483 31.897)" fill="#f40"/>
    <path id="Path_16825" data-name="Path 16825" d="M52.5,5a6.232,6.232,0,0,0-4.622,10.442l-5.034,8.036a5.967,5.967,0,0,0-5.61,1.122l-6.172-4.422a6.145,6.145,0,0,0,.387-2.092,6.259,6.259,0,0,0-12.517,0,6.194,6.194,0,0,0,1.393,3.887L15.9,28.146a5.96,5.96,0,0,0-5.121.428L5.913,23.708A1.706,1.706,0,1,0,3.5,26.12l4.866,4.868a6.192,6.192,0,0,0-.815,3.029,6.259,6.259,0,1,0,12.517,0,6.194,6.194,0,0,0-1.393-3.887L23.1,23.958a6.028,6.028,0,0,0,5.979-1.006l6.172,4.422a6.145,6.145,0,0,0-.387,2.092,6.259,6.259,0,1,0,10.881-4.183l5.034-8.036a6.169,6.169,0,0,0,1.723.271A6.259,6.259,0,1,0,52.5,5M13.81,36.862a2.845,2.845,0,1,1,2.845-2.845,2.849,2.849,0,0,1-2.845,2.845M25.19,20.931a2.845,2.845,0,1,1,2.845-2.845,2.849,2.849,0,0,1-2.845,2.845M41.121,32.311a2.845,2.845,0,1,1,2.845-2.845,2.849,2.849,0,0,1-2.845,2.845M52.5,14.1a2.845,2.845,0,1,1,2.845-2.845A2.849,2.849,0,0,1,52.5,14.1" transform="translate(3.828 6.379)" fill="#f40"/>
  </g>
</svg>
