<svg id="Group_9647" data-name="Group 9647" xmlns="http://www.w3.org/2000/svg" xmlns:xlink="http://www.w3.org/1999/xlink" width="57.846" height="72.615" viewBox="0 0 57.846 72.615">
  <defs>
    <clipPath id="clip-path">
      <rect id="Rectangle_8214" data-name="Rectangle 8214" width="57.846" height="72.615" fill="none"/>
    </clipPath>
  </defs>
  <g id="Group_9647-2" data-name="Group 9647" clip-path="url(#clip-path)">
    <path id="Path_16813" data-name="Path 16813" d="M51.077,4.923H40.615V4.308A4.312,4.312,0,0,0,36.308,0H21.538a4.312,4.312,0,0,0-4.308,4.308v.615H6.769A6.775,6.775,0,0,0,0,11.692V65.846a6.775,6.775,0,0,0,6.769,6.769H51.077a6.775,6.775,0,0,0,6.769-6.769V11.692a6.775,6.775,0,0,0-6.769-6.769M20.923,4.308a.616.616,0,0,1,.615-.615H36.308a.616.616,0,0,1,.615.615V9.231a.616.616,0,0,1-.615.615H21.538a.616.616,0,0,1-.615-.615ZM54.154,65.846a3.081,3.081,0,0,1-3.077,3.077H6.769a3.081,3.081,0,0,1-3.077-3.077V11.692A3.081,3.081,0,0,1,6.769,8.615H17.231v.615a4.312,4.312,0,0,0,4.308,4.308H36.308a4.312,4.312,0,0,0,4.308-4.308V8.615H51.077a3.081,3.081,0,0,1,3.077,3.077Z"/>
    <path id="Path_16814" data-name="Path 16814" d="M14.692,7A11.692,11.692,0,1,0,26.385,18.692,11.706,11.706,0,0,0,14.692,7m7.764,9.846H16.538V10.929a8,8,0,0,1,5.918,5.918m-7.764,9.846a7.989,7.989,0,0,1-1.846-15.764v7.764a1.847,1.847,0,0,0,1.846,1.846h7.764a8,8,0,0,1-7.764,6.154" transform="translate(4.385 10.231)" fill="#f40"/>
    <path id="Path_16815" data-name="Path 16815" d="M28.154,8H15.846a1.846,1.846,0,0,0,0,3.692H28.154a1.846,1.846,0,1,0,0-3.692" transform="translate(20.461 11.692)"/>
    <path id="Path_16816" data-name="Path 16816" d="M28.154,11H15.846a1.846,1.846,0,0,0,0,3.692H28.154a1.846,1.846,0,1,0,0-3.692" transform="translate(20.461 16.077)" fill="#f40"/>
    <path id="Path_16817" data-name="Path 16817" d="M23.231,14H15.846a1.846,1.846,0,0,0,0,3.692h7.385a1.846,1.846,0,1,0,0-3.692" transform="translate(20.461 20.461)"/>
    <path id="Path_16818" data-name="Path 16818" d="M12.846,19A1.847,1.847,0,0,0,11,20.846V33.154a1.846,1.846,0,0,0,3.692,0V20.846A1.847,1.847,0,0,0,12.846,19" transform="translate(16.077 27.769)"/>
    <path id="Path_16819" data-name="Path 16819" d="M15.846,21A1.847,1.847,0,0,0,14,22.846v7.385a1.846,1.846,0,0,0,3.692,0V22.846A1.847,1.847,0,0,0,15.846,21" transform="translate(20.461 30.692)" fill="#f40"/>
    <path id="Path_16820" data-name="Path 16820" d="M9.846,20A1.847,1.847,0,0,0,8,21.846v9.846a1.846,1.846,0,1,0,3.692,0V21.846A1.847,1.847,0,0,0,9.846,20" transform="translate(11.692 29.231)" fill="#f40"/>
    <path id="Path_16821" data-name="Path 16821" d="M6.846,23A1.847,1.847,0,0,0,5,24.846v2.462a1.846,1.846,0,0,0,3.692,0V24.846A1.847,1.847,0,0,0,6.846,23" transform="translate(7.308 33.615)"/>
    <path id="Path_16822" data-name="Path 16822" d="M18.846,18A1.847,1.847,0,0,0,17,19.846V34.615a1.846,1.846,0,1,0,3.692,0V19.846A1.847,1.847,0,0,0,18.846,18" transform="translate(24.846 26.308)"/>
  </g>
</svg>
