<svg xmlns="http://www.w3.org/2000/svg" xmlns:xlink="http://www.w3.org/1999/xlink" width="239" height="247" viewBox="0 0 239 247">
  <defs>
    <clipPath id="clip-path">
      <rect id="Rectangle_1852" data-name="Rectangle 1852" width="239" height="247" transform="translate(0 6460)" fill="#fff" stroke="#707070" stroke-width="1"/>
    </clipPath>
    <clipPath id="clip-path-2">
      <rect id="Rectangle_1003" data-name="Rectangle 1003" width="284.042" height="295.161" fill="none" stroke="#9b9b9b" stroke-width="1"/>
    </clipPath>
  </defs>
  <g id="Mask_Group_93" data-name="Mask Group 93" transform="translate(0 -6460)" clip-path="url(#clip-path)">
    <g id="Group_2115" data-name="Group 2115" transform="translate(-45.509 6459.547)" opacity="0.16">
      <g id="Group_714" data-name="Group 714">
        <g id="Group_713" data-name="Group 713" clip-path="url(#clip-path-2)">
          <path id="Path_2311" data-name="Path 2311" d="M202.464,376l28.276,48.976H174.188Z" transform="translate(-60.444 -130.468)" fill="none" stroke="#9b9b9b" stroke-width="1"/>
        </g>
      </g>
      <path id="Path_2312" data-name="Path 2312" d="M202.464,226l28.276,48.976H174.188Z" transform="translate(-60.444 -78.419)" fill="none" stroke="#9b9b9b" stroke-width="1"/>
      <g id="Group_716" data-name="Group 716">
        <g id="Group_715" data-name="Group 715" clip-path="url(#clip-path-2)">
          <path id="Path_2313" data-name="Path 2313" d="M289.105,376l28.276,48.976H260.829Z" transform="translate(-203.663 -130.468)" fill="none" stroke="#9b9b9b" stroke-width="1"/>
          <path id="Path_2314" data-name="Path 2314" d="M115.784,376l28.276,48.976H87.508Z" transform="translate(82.839 -130.468)" fill="none" stroke="#9b9b9b" stroke-width="1"/>
        </g>
      </g>
      <path id="Path_2315" data-name="Path 2315" d="M245.8,301l28.276,48.976H217.528Z" transform="translate(-132.086 -104.444)" fill="none" stroke="#9b9b9b" stroke-width="1"/>
      <path id="Path_2316" data-name="Path 2316" d="M159.124,301,187.4,349.976H130.848Z" transform="translate(11.197 -104.444)" fill="none" stroke="#9b9b9b" stroke-width="1"/>
      <path id="Path_2317" data-name="Path 2317" d="M159.143,274.976,130.867,226h56.552Z" transform="translate(11.165 -78.419)" fill="none" stroke="#9b9b9b" stroke-width="1"/>
      <path id="Path_2318" data-name="Path 2318" d="M115.8,349.976,87.527,301h56.552Z" transform="translate(82.807 -104.444)" fill="none" stroke="#9b9b9b" stroke-width="1"/>
      <g id="Group_718" data-name="Group 718">
        <g id="Group_717" data-name="Group 717" clip-path="url(#clip-path-2)">
          <path id="Path_2319" data-name="Path 2319" d="M29.142,376l28.276,48.976H.866Z" transform="translate(226.058 -130.468)" fill="none" stroke="#9b9b9b" stroke-width="1"/>
        </g>
      </g>
      <path id="Path_2320" data-name="Path 2320" d="M72.482,301l28.276,48.976H44.206Z" transform="translate(154.417 -104.444)" fill="none" stroke="#9b9b9b" stroke-width="1"/>
      <path id="Path_2321" data-name="Path 2321" d="M72.482,301l28.276,48.976H44.206Z" transform="translate(154.417 -104.444)" fill="none" stroke="#9b9b9b" stroke-width="1"/>
      <g id="Group_720" data-name="Group 720">
        <g id="Group_719" data-name="Group 719" clip-path="url(#clip-path-2)">
          <path id="Path_2322" data-name="Path 2322" d="M29.162,349.976.886,301H57.438Z" transform="translate(226.026 -104.444)" fill="none" stroke="#9b9b9b" stroke-width="1"/>
          <path id="Path_2323" data-name="Path 2323" d="M375.693,376l28.276,48.976H347.417Z" transform="translate(-346.794 -130.468)" fill="none" stroke="#9b9b9b" stroke-width="1"/>
        </g>
      </g>
      <path id="Path_2324" data-name="Path 2324" d="M332.372,274.976,304.1,226h56.552Z" transform="translate(-275.184 -78.419)" fill="none" stroke="#9b9b9b" stroke-width="1"/>
      <g id="Group_722" data-name="Group 722">
        <g id="Group_721" data-name="Group 721" clip-path="url(#clip-path-2)">
          <path id="Path_2325" data-name="Path 2325" d="M332.372,424.976,304.1,376h56.552Z" transform="translate(-275.184 -130.468)" fill="none" stroke="#9b9b9b" stroke-width="1"/>
        </g>
      </g>
      <path id="Path_2326" data-name="Path 2326" d="M245.731,274.976,217.455,226h56.552Z" transform="translate(-131.965 -78.419)" fill="none" stroke="#9b9b9b" stroke-width="1"/>
      <path id="Path_2327" data-name="Path 2327" d="M289.032,349.976,260.756,301h56.552Z" transform="translate(-203.543 -104.444)" fill="none" stroke="#9b9b9b" stroke-width="1"/>
      <g id="Group_724" data-name="Group 724">
        <g id="Group_723" data-name="Group 723" clip-path="url(#clip-path-2)">
          <path id="Path_2328" data-name="Path 2328" d="M375.712,349.976,347.436,301h56.552Z" transform="translate(-346.826 -104.444)" fill="none" stroke="#9b9b9b" stroke-width="1"/>
        </g>
      </g>
      <path id="Path_2329" data-name="Path 2329" d="M332.441,151l28.276,48.976H304.165Z" transform="translate(-275.297 -52.395)" fill="none" stroke="#9b9b9b" stroke-width="1"/>
      <g id="Group_726" data-name="Group 726">
        <g id="Group_725" data-name="Group 725" clip-path="url(#clip-path-2)">
          <path id="Path_2330" data-name="Path 2330" d="M332.441,1l28.276,48.976H304.165Z" transform="translate(-275.297 -0.347)" fill="none" stroke="#9b9b9b" stroke-width="1"/>
          <path id="Path_2331" data-name="Path 2331" d="M375.781,76l28.276,48.976H347.5Z" transform="translate(-346.939 -26.371)" fill="none" stroke="#9b9b9b" stroke-width="1"/>
          <path id="Path_2332" data-name="Path 2332" d="M289.12,49.976,260.844,1H317.4Z" transform="translate(-203.688 -0.347)" fill="none" stroke="#9b9b9b" stroke-width="1"/>
        </g>
      </g>
    </g>
  </g>
</svg>
