<svg xmlns="http://www.w3.org/2000/svg" xmlns:xlink="http://www.w3.org/1999/xlink" width="215" height="236" viewBox="0 0 215 236">
  <defs>
    <clipPath id="clip-path">
      <rect id="Rectangle_1883" data-name="Rectangle 1883" width="215" height="236" transform="translate(0 5033)" fill="#fff" stroke="#707070" stroke-width="1"/>
    </clipPath>
    <clipPath id="clip-path-2">
      <rect id="Rectangle_1003" data-name="Rectangle 1003" width="273.364" height="284.064" fill="none" stroke="#9b9b9b" stroke-width="1"/>
    </clipPath>
  </defs>
  <g id="Mask_Group_98" data-name="Mask Group 98" transform="translate(0 -5033)" clip-path="url(#clip-path)">
    <g id="Group_2166" data-name="Group 2166" transform="translate(-58.433 5033)" opacity="0.16">
      <g id="Group_714" data-name="Group 714">
        <g id="Group_713" data-name="Group 713" clip-path="url(#clip-path-2)">
          <path id="Path_2311" data-name="Path 2311" d="M201.4,376l27.213,47.135H174.188Z" transform="translate(-64.721 -139.699)" fill="none" stroke="#9b9b9b" stroke-width="1"/>
        </g>
      </g>
      <path id="Path_2312" data-name="Path 2312" d="M201.4,226l27.213,47.135H174.188Z" transform="translate(-64.721 -83.968)" fill="none" stroke="#9b9b9b" stroke-width="1"/>
      <g id="Group_716" data-name="Group 716">
        <g id="Group_715" data-name="Group 715" clip-path="url(#clip-path-2)">
          <path id="Path_2313" data-name="Path 2313" d="M288.042,376l27.213,47.135H260.829Z" transform="translate(-205.813 -139.699)" fill="none" stroke="#9b9b9b" stroke-width="1"/>
          <path id="Path_2314" data-name="Path 2314" d="M114.721,376l27.213,47.135H87.508Z" transform="translate(76.435 -139.699)" fill="none" stroke="#9b9b9b" stroke-width="1"/>
        </g>
      </g>
      <path id="Path_2315" data-name="Path 2315" d="M244.741,301l27.213,47.135H217.528Z" transform="translate(-135.298 -111.833)" fill="none" stroke="#9b9b9b" stroke-width="1"/>
      <path id="Path_2316" data-name="Path 2316" d="M158.061,301l27.213,47.135H130.848Z" transform="translate(5.857 -111.833)" fill="none" stroke="#9b9b9b" stroke-width="1"/>
      <path id="Path_2317" data-name="Path 2317" d="M158.08,273.135,130.867,226h54.426Z" transform="translate(5.826 -83.968)" fill="none" stroke="#9b9b9b" stroke-width="1"/>
      <path id="Path_2318" data-name="Path 2318" d="M114.74,348.135,87.527,301h54.426Z" transform="translate(76.403 -111.833)" fill="none" stroke="#9b9b9b" stroke-width="1"/>
      <g id="Group_718" data-name="Group 718">
        <g id="Group_717" data-name="Group 717" clip-path="url(#clip-path-2)">
          <path id="Path_2319" data-name="Path 2319" d="M28.079,376l27.213,47.135H.866Z" transform="translate(217.527 -139.699)" fill="none" stroke="#9b9b9b" stroke-width="1"/>
        </g>
      </g>
      <path id="Path_2320" data-name="Path 2320" d="M71.419,301l27.213,47.135H44.206Z" transform="translate(146.949 -111.833)" fill="none" stroke="#9b9b9b" stroke-width="1"/>
      <path id="Path_2321" data-name="Path 2321" d="M71.419,301l27.213,47.135H44.206Z" transform="translate(146.949 -111.833)" fill="none" stroke="#9b9b9b" stroke-width="1"/>
      <g id="Group_720" data-name="Group 720">
        <g id="Group_719" data-name="Group 719" clip-path="url(#clip-path-2)">
          <path id="Path_2322" data-name="Path 2322" d="M28.1,348.135.886,301H55.312Z" transform="translate(217.495 -111.833)" fill="none" stroke="#9b9b9b" stroke-width="1"/>
          <path id="Path_2323" data-name="Path 2323" d="M374.63,376l27.213,47.135H347.417Z" transform="translate(-346.817 -139.699)" fill="none" stroke="#9b9b9b" stroke-width="1"/>
        </g>
      </g>
      <path id="Path_2324" data-name="Path 2324" d="M331.309,273.135,304.1,226h54.426Z" transform="translate(-276.271 -83.968)" fill="none" stroke="#9b9b9b" stroke-width="1"/>
      <g id="Group_722" data-name="Group 722">
        <g id="Group_721" data-name="Group 721" clip-path="url(#clip-path-2)">
          <path id="Path_2325" data-name="Path 2325" d="M331.309,423.135,304.1,376h54.426Z" transform="translate(-276.271 -139.699)" fill="none" stroke="#9b9b9b" stroke-width="1"/>
        </g>
      </g>
      <path id="Path_2326" data-name="Path 2326" d="M244.668,273.135,217.455,226h54.426Z" transform="translate(-135.179 -83.968)" fill="none" stroke="#9b9b9b" stroke-width="1"/>
      <path id="Path_2327" data-name="Path 2327" d="M287.969,348.135,260.756,301h54.426Z" transform="translate(-205.694 -111.833)" fill="none" stroke="#9b9b9b" stroke-width="1"/>
      <g id="Group_724" data-name="Group 724">
        <g id="Group_723" data-name="Group 723" clip-path="url(#clip-path-2)">
          <path id="Path_2328" data-name="Path 2328" d="M374.649,348.135,347.436,301h54.426Z" transform="translate(-346.849 -111.833)" fill="none" stroke="#9b9b9b" stroke-width="1"/>
        </g>
      </g>
      <path id="Path_2329" data-name="Path 2329" d="M331.378,151l27.213,47.135H304.165Z" transform="translate(-276.383 -56.102)" fill="none" stroke="#9b9b9b" stroke-width="1"/>
      <g id="Group_726" data-name="Group 726">
        <g id="Group_725" data-name="Group 725" clip-path="url(#clip-path-2)">
          <path id="Path_2330" data-name="Path 2330" d="M331.378,1l27.213,47.135H304.165Z" transform="translate(-276.383 -0.372)" fill="none" stroke="#9b9b9b" stroke-width="1"/>
          <path id="Path_2331" data-name="Path 2331" d="M374.718,76l27.213,47.135H347.5Z" transform="translate(-346.96 -28.237)" fill="none" stroke="#9b9b9b" stroke-width="1"/>
          <path id="Path_2332" data-name="Path 2332" d="M288.057,48.135,260.844,1H315.27Z" transform="translate(-205.837 -0.372)" fill="none" stroke="#9b9b9b" stroke-width="1"/>
        </g>
      </g>
    </g>
  </g>
</svg>
