<svg xmlns="http://www.w3.org/2000/svg" xmlns:xlink="http://www.w3.org/1999/xlink" width="175" height="227" viewBox="0 0 175 227">
  <defs>
    <clipPath id="clip-path">
      <rect id="Rectangle_1818" data-name="Rectangle 1818" width="175" height="227" transform="translate(1737 5463)" fill="#fff" stroke="#707070" stroke-width="1"/>
    </clipPath>
    <clipPath id="clip-path-2">
      <rect id="Rectangle_1003" data-name="Rectangle 1003" width="218.35" height="226.897" fill="none" stroke="#9b9b9b" stroke-width="1"/>
    </clipPath>
  </defs>
  <g id="Mask_Group_87" data-name="Mask Group 87" transform="translate(-1737 -5463)" clip-path="url(#clip-path)">
    <g id="Group_2053" data-name="Group 2053" transform="translate(1693.771 5462.758)" opacity="0.16">
      <g id="Group_714" data-name="Group 714">
        <g id="Group_713" data-name="Group 713" clip-path="url(#clip-path-2)">
          <path id="Path_2311" data-name="Path 2311" d="M195.924,376l21.736,37.649H174.188Z" transform="translate(-86.751 -187.254)" fill="none" stroke="#9b9b9b" stroke-width="1"/>
        </g>
      </g>
      <path id="Path_2312" data-name="Path 2312" d="M195.924,226l21.736,37.649H174.188Z" transform="translate(-86.751 -112.551)" fill="none" stroke="#9b9b9b" stroke-width="1"/>
      <g id="Group_716" data-name="Group 716">
        <g id="Group_715" data-name="Group 715" clip-path="url(#clip-path-2)">
          <path id="Path_2313" data-name="Path 2313" d="M282.566,376,304.3,413.649H260.829Z" transform="translate(-216.884 -187.254)" fill="none" stroke="#9b9b9b" stroke-width="1"/>
          <path id="Path_2314" data-name="Path 2314" d="M109.244,376l21.736,37.649H87.508Z" transform="translate(43.442 -187.254)" fill="none" stroke="#9b9b9b" stroke-width="1"/>
        </g>
      </g>
      <path id="Path_2315" data-name="Path 2315" d="M239.264,301,261,338.649H217.528Z" transform="translate(-151.847 -149.903)" fill="none" stroke="#9b9b9b" stroke-width="1"/>
      <path id="Path_2316" data-name="Path 2316" d="M152.584,301l21.736,37.649H130.848Z" transform="translate(-21.654 -149.903)" fill="none" stroke="#9b9b9b" stroke-width="1"/>
      <path id="Path_2317" data-name="Path 2317" d="M152.6,263.649,130.867,226H174.34Z" transform="translate(-21.684 -112.551)" fill="none" stroke="#9b9b9b" stroke-width="1"/>
      <path id="Path_2318" data-name="Path 2318" d="M109.264,338.649,87.527,301H131Z" transform="translate(43.413 -149.903)" fill="none" stroke="#9b9b9b" stroke-width="1"/>
      <g id="Group_718" data-name="Group 718">
        <g id="Group_717" data-name="Group 717" clip-path="url(#clip-path-2)">
          <path id="Path_2319" data-name="Path 2319" d="M22.6,376l21.736,37.649H.866Z" transform="translate(173.576 -187.254)" fill="none" stroke="#9b9b9b" stroke-width="1"/>
        </g>
      </g>
      <path id="Path_2320" data-name="Path 2320" d="M65.943,301l21.736,37.649H44.206Z" transform="translate(108.48 -149.903)" fill="none" stroke="#9b9b9b" stroke-width="1"/>
      <path id="Path_2321" data-name="Path 2321" d="M65.943,301l21.736,37.649H44.206Z" transform="translate(108.48 -149.903)" fill="none" stroke="#9b9b9b" stroke-width="1"/>
      <g id="Group_720" data-name="Group 720">
        <g id="Group_719" data-name="Group 719" clip-path="url(#clip-path-2)">
          <path id="Path_2322" data-name="Path 2322" d="M22.622,338.649.886,301H44.359Z" transform="translate(173.547 -149.903)" fill="none" stroke="#9b9b9b" stroke-width="1"/>
          <path id="Path_2323" data-name="Path 2323" d="M369.153,376l21.736,37.649H347.417Z" transform="translate(-346.938 -187.254)" fill="none" stroke="#9b9b9b" stroke-width="1"/>
        </g>
      </g>
      <path id="Path_2324" data-name="Path 2324" d="M325.833,263.649,304.1,226h43.473Z" transform="translate(-281.871 -112.551)" fill="none" stroke="#9b9b9b" stroke-width="1"/>
      <g id="Group_722" data-name="Group 722">
        <g id="Group_721" data-name="Group 721" clip-path="url(#clip-path-2)">
          <path id="Path_2325" data-name="Path 2325" d="M325.833,413.649,304.1,376h43.473Z" transform="translate(-281.871 -187.254)" fill="none" stroke="#9b9b9b" stroke-width="1"/>
        </g>
      </g>
      <path id="Path_2326" data-name="Path 2326" d="M239.191,263.649,217.455,226h43.473Z" transform="translate(-151.737 -112.551)" fill="none" stroke="#9b9b9b" stroke-width="1"/>
      <path id="Path_2327" data-name="Path 2327" d="M282.493,338.649,260.756,301h43.473Z" transform="translate(-216.775 -149.903)" fill="none" stroke="#9b9b9b" stroke-width="1"/>
      <g id="Group_724" data-name="Group 724">
        <g id="Group_723" data-name="Group 723" clip-path="url(#clip-path-2)">
          <path id="Path_2328" data-name="Path 2328" d="M369.173,338.649,347.436,301h43.473Z" transform="translate(-346.967 -149.903)" fill="none" stroke="#9b9b9b" stroke-width="1"/>
        </g>
      </g>
      <path id="Path_2329" data-name="Path 2329" d="M325.9,151l21.737,37.649H304.165Z" transform="translate(-281.974 -75.2)" fill="none" stroke="#9b9b9b" stroke-width="1"/>
      <g id="Group_726" data-name="Group 726">
        <g id="Group_725" data-name="Group 725" clip-path="url(#clip-path-2)">
          <path id="Path_2330" data-name="Path 2330" d="M325.9,1l21.737,37.649H304.165Z" transform="translate(-281.974 -0.498)" fill="none" stroke="#9b9b9b" stroke-width="1"/>
          <path id="Path_2331" data-name="Path 2331" d="M369.241,76l21.737,37.649H347.5Z" transform="translate(-347.07 -37.849)" fill="none" stroke="#9b9b9b" stroke-width="1"/>
          <path id="Path_2332" data-name="Path 2332" d="M282.581,38.649,260.844,1h43.473Z" transform="translate(-216.907 -0.498)" fill="none" stroke="#9b9b9b" stroke-width="1"/>
        </g>
      </g>
    </g>
  </g>
</svg>
