<svg xmlns="http://www.w3.org/2000/svg" viewBox="0 0 21.486 16.172">
  <path fill="#009b3a" d="M0 0h21.49v16.17H0z"/>
  <path fill="#fee000" d="m10.68 2.01 9.3 5.96-9.3 5.94L1.6 7.96l-.12-.08Z"/>
  <path fill="#027" d="M14.6 7.93A3.93 3.93 0 1 1 10.68 4a3.93 3.93 0 0 1 3.92 3.93Z"/>
  <path fill="#fff" d="m14.58 8.6-.16.63a9.17 9.17 0 0 0-7.6-2.24l.23-.65a9.59 9.59 0 0 1 7.53 2.25Z"/>
  <path fill="#f7fafd" d="m11.94 6.55.04.12h.13l-.1.07.03.12-.1-.07-.1.07.04-.12-.1-.07h.13Zm1.56 2.62.03.12h.13l-.1.08.04.12-.1-.07-.1.07.04-.12-.1-.08h.12Zm-2.73.37.04.12h.13l-.1.07.04.12-.1-.07-.1.07.04-.12-.1-.07h.12Zm2.05.78.03.1h.1l-.08.07.04.1-.09-.07-.09.07.04-.1-.09-.07h.1Zm.56-.54.03.1h.1l-.08.06.04.1-.09-.06-.08.06.03-.1-.09-.06h.1Zm.18-.22.03.1h.1l-.08.06.03.1-.08-.06-.09.06.03-.1-.08-.06h.1Zm-1.83-1.89.02.09h.1l-.08.05.03.09-.07-.06-.07.06.02-.09-.07-.05h.09Zm-1.01.71.03.1h.1l-.08.06.03.1-.08-.06-.09.06.03-.1-.08-.06h.1ZM9.3 7.93l.03.1h.1l-.08.07.03.1-.08-.07-.08.07.03-.1-.08-.07h.1Zm-1.45.73.04.13h.13l-.1.08.04.13-.1-.08-.1.08.04-.13-.1-.08h.12Zm-.37-1.63.04.12h.13l-.1.08.03.13-.1-.08-.1.08.04-.13-.1-.08h.12Zm1.75 2.85.03.12h.13l-.1.07.04.13-.1-.08-.1.08.03-.13-.1-.07h.13Zm1.96-1.08.03.1h.1l-.08.05.03.1-.09-.06-.08.06.03-.1-.08-.06h.1Zm.81 1.73.02.08h.09l-.07.05.02.09-.07-.05-.07.05.03-.09-.07-.05h.09Zm.23-.55.03.09h.09l-.07.05.02.09-.07-.05-.07.05.03-.09-.07-.05h.08Zm-1.86-1.2.02.08h.1l-.08.05.03.09-.07-.05-.07.05.02-.09-.07-.05h.09Zm-2.14-.3.02.08h.07l-.05.04.02.07-.06-.04-.06.04.02-.07-.06-.04h.08Zm4.59 1.5.03.09h.08l-.07.05.03.09-.07-.05-.07.05.02-.09-.07-.05h.1Zm0 .67.02.08h.08l-.06.04.02.08-.06-.05-.06.05.02-.08-.06-.04h.08ZM8.65 9.04l.03.1h.1l-.08.06.03.1-.08-.06-.08.06.03-.1-.08-.06h.1Zm-1.29 0 .03.1h.1l-.08.06.03.1-.08-.06-.08.06.03-.1-.08-.06h.1Zm3.29.05.02.07h.08l-.07.05.03.07-.07-.04-.06.04.03-.07-.06-.05h.07Zm-2.11.47.02.07h.08l-.06.05.02.07-.06-.04-.06.04.02-.07-.06-.05h.08Zm5.48-.31.02.08h.08l-.07.04.03.08-.06-.05-.07.05.03-.08-.06-.04h.07Zm-.91.73.03.09h.09l-.07.05.02.09-.07-.05-.07.05.03-.09-.07-.05h.08Zm-1.45-.02.03.09h.09l-.08.05.03.08-.07-.05-.07.05.03-.08-.07-.05h.08Zm-.91.85.02.05h.04l-.04.02.02.04-.04-.02-.03.02.01-.04-.03-.02h.04Z"/>
  <path fill="#231f20" d="M7.39 6.6a.21.21 0 0 1 .01-.1.17.17 0 0 1 .04-.04.14.14 0 0 1 .05-.04.21.21 0 0 1 .08-.01.18.18 0 1 1-.13.32.17.17 0 0 1-.05-.14Zm.07 0a.13.13 0 0 0 .03.08.1.1 0 0 0 .15 0 .13.13 0 0 0 .03-.09.13.13 0 0 0-.03-.09.1.1 0 0 0-.15 0 .13.13 0 0 0-.03.1m3.94.6a.21.21 0 0 1 .02-.09.17.17 0 0 1 .04-.04.15.15 0 0 1 .04-.03.22.22 0 0 1 .08-.02.18.18 0 1 1-.13.32.17.17 0 0 1-.05-.13Zm.08 0a.13.13 0 0 0 .03.1.1.1 0 0 0 .15 0 .13.13 0 0 0 .03-.1.13.13 0 0 0-.03-.09.1.1 0 0 0-.15 0 .13.13 0 0 0-.03.1M7.9 6.76V6.4h.18a.38.38 0 0 1 .1 0 .1.1 0 0 1 .05.04.1.1 0 0 1 .02.06.09.09 0 0 1-.03.07.15.15 0 0 1-.09.03.2.2 0 0 1 .05.03.43.43 0 0 1 .05.06l.05.07h-.1l-.06-.08a.52.52 0 0 0-.05-.05.07.07 0 0 0-.02-.02.17.17 0 0 0-.05 0h-.02v.16H7.9Zm.08-.21h.07a.4.4 0 0 0 .07 0 .05.05 0 0 0 .03-.02.04.04 0 0 0 0-.02.04.04 0 0 0 0-.03.06.06 0 0 0-.04-.02h-.13Zm2.94.61.12-.34.18.05a.38.38 0 0 1 .09.04.1.1 0 0 1 .03.05.1.1 0 0 1 0 .06.09.09 0 0 1-.04.06.15.15 0 0 1-.1 0 .2.2 0 0 1 .04.05.43.43 0 0 1 .03.07l.03.09-.1-.04-.04-.1a.5.5 0 0 0-.03-.06.07.07 0 0 0-.02-.03.17.17 0 0 0-.04-.01l-.01-.01-.05.14-.09-.02Zm.15-.17.07.02a.4.4 0 0 0 .07.02.05.05 0 0 0 .03 0 .04.04 0 0 0 .02-.03.04.04 0 0 0 0-.03.06.06 0 0 0-.03-.02l-.06-.02-.07-.03Zm1.19.69.17-.33.17.09a.38.38 0 0 1 .08.06.1.1 0 0 1 .03.05.1.1 0 0 1-.01.06.09.09 0 0 1-.06.05.15.15 0 0 1-.09-.01.2.2 0 0 1 .03.05.43.43 0 0 1 .01.07l.02.1-.1-.06-.02-.1a.5.5 0 0 0-.01-.07.07.07 0 0 0-.02-.02.17.17 0 0 0-.03-.03h-.02l-.07.13-.08-.04Zm.18-.15.05.03a.4.4 0 0 0 .08.03.05.05 0 0 0 .03 0 .04.04 0 0 0 .02-.02.04.04 0 0 0 0-.03.06.06 0 0 0-.03-.03l-.05-.03-.06-.03ZM8.38 6.4h.16a.33.33 0 0 1 .08 0 .14.14 0 0 1 .06.04.16.16 0 0 1 .04.06.24.24 0 0 1 .01.09.22.22 0 0 1-.01.08.16.16 0 0 1-.05.06.15.15 0 0 1-.06.03.28.28 0 0 1-.07 0h-.16Zm.09.06v.25h.06a.25.25 0 0 0 .05 0 .08.08 0 0 0 .04-.02.08.08 0 0 0 .02-.03.21.21 0 0 0 0-.07.2.2 0 0 0 0-.07.08.08 0 0 0-.06-.05.43.43 0 0 0-.07 0h-.04Zm.39.32.02-.37.3.01v.07l-.22-.01v.08h.2v.07h-.2v.1h.23v.06Zm3.82 1.12.17-.33.27.14-.03.06-.2-.1-.04.07.18.1-.03.05-.18-.1-.05.1.2.1-.03.06ZM10 6.93l.05-.3.25.05-.01.05-.18-.03-.02.06.17.04v.05l-.18-.04-.01.09.19.03-.01.05Zm-.69-.1.04-.37.12.01.03.26.1-.24.12.01-.05.37-.07-.01.04-.29-.11.28h-.07l-.04-.3-.04.28Zm4.55 1.67a.21.21 0 0 1 .05-.09.17.17 0 0 1 .05-.03.14.14 0 0 1 .05 0 .22.22 0 0 1 .08 0 .18.18 0 1 1-.24.25.17.17 0 0 1 0-.14Zm.07.02a.13.13 0 0 0 0 .1.1.1 0 0 0 .13.05.13.13 0 0 0 .06-.08.13.13 0 0 0 .01-.09.1.1 0 0 0-.14-.06.13.13 0 0 0-.06.08Zm-.46-.32.07.05a.08.08 0 0 0 0 .06.1.1 0 0 0 .03.05.1.1 0 0 0 .06.02.04.04 0 0 0 .04-.02.03.03 0 0 0 0-.02.07.07 0 0 0-.01-.03l-.05-.05a.24.24 0 0 1-.06-.08.09.09 0 0 1 .01-.09.08.08 0 0 1 .05-.03.11.11 0 0 1 .06 0 .23.23 0 0 1 .07.04.2.2 0 0 1 .08.09.1.1 0 0 1 0 .09l-.08-.05a.06.06 0 0 0 0-.04.1.1 0 0 0-.03-.04.1.1 0 0 0-.06-.02.03.03 0 0 0-.02 0 .03.03 0 0 0 0 .03.24.24 0 0 0 .05.06.46.46 0 0 1 .06.08.11.11 0 0 1 .01.05.1.1 0 0 1-.06.1.12.12 0 0 1-.07 0 .26.26 0 0 1-.08-.05.2.2 0 0 1-.08-.09.13.13 0 0 1 0-.1Zm-.37-.22.06.04a.08.08 0 0 0 0 .06.1.1 0 0 0 .04.05.1.1 0 0 0 .06.02.04.04 0 0 0 .03-.02.03.03 0 0 0 0-.02.07.07 0 0 0 0-.03l-.05-.05a.24.24 0 0 1-.06-.08.09.09 0 0 1 .01-.08.08.08 0 0 1 .04-.03.1.1 0 0 1 .07 0 .23.23 0 0 1 .07.03.2.2 0 0 1 .08.1.1.1 0 0 1-.01.08l-.07-.04a.06.06 0 0 0 0-.05.1.1 0 0 0-.04-.04.1.1 0 0 0-.05-.02.03.03 0 0 0-.02 0 .03.03 0 0 0 0 .03.24.24 0 0 0 .04.07.44.44 0 0 1 .06.07.11.11 0 0 1 .02.05.1.1 0 0 1-.07.1.12.12 0 0 1-.07 0 .27.27 0 0 1-.08-.04.2.2 0 0 1-.08-.1.13.13 0 0 1 .01-.1Zm-1.08-.55.03-.05.15.07-.06.13a.22.22 0 0 1-.08 0 .28.28 0 0 1-.1-.02.22.22 0 0 1-.08-.07.15.15 0 0 1-.03-.09.2.2 0 0 1 .02-.1.2.2 0 0 1 .06-.08.17.17 0 0 1 .1-.03.21.21 0 0 1 .1.02.2.2 0 0 1 .09.08.13.13 0 0 1 .01.09l-.08-.02a.08.08 0 0 0 0-.05.1.1 0 0 0-.05-.04.11.11 0 0 0-.09 0 .12.12 0 0 0-.06.06.14.14 0 0 0-.02.1.1.1 0 0 0 .06.07.14.14 0 0 0 .05 0 .18.18 0 0 0 .05 0l.02-.03Zm-1.51-.39.12-.35.11.04a.43.43 0 0 1 .09.03.1.1 0 0 1 .03.05.12.12 0 0 1 0 .08.12.12 0 0 1-.02.05.1.1 0 0 1-.05.02.1.1 0 0 1-.04 0 .42.42 0 0 1-.07-.02l-.05-.01-.04.13-.07-.03Zm.17-.27-.03.1.04.01a.19.19 0 0 0 .05.02.05.05 0 0 0 .03-.01.05.05 0 0 0 .02-.03.05.05 0 0 0 0-.03.05.05 0 0 0-.02-.03.35.35 0 0 0-.05-.02l-.04-.01Z"/>
</svg>