<svg xmlns="http://www.w3.org/2000/svg" viewBox="0 0 640 480">
  <path fill="#AA151B" d="M0 0h640v480H0z"/>
  <path fill="#F1BF00" d="M0 120h640v240H0z"/>
  <path fill="#c8b100" d="M124 223h21.4v-5.5H124v5.6z"/>
  <path fill="none" stroke="#000" stroke-width=".4" d="M124 223h21.4v-5.5H124v5.6z"/>
  <path fill="#c8b100" d="M126.2 226.8a1 1 0 0 1 .4 0h16.5a1.4 1.4 0 0 1-1-1.2c0-.6.5-1.1 1-1.3a1.7 1.7 0 0 1-.4 0h-16a1.4 1.4 0 0 1-.5 0c.6.2 1 .7 1 1.3a1.3 1.3 0 0 1-1 1.2"/>
  <path fill="none" stroke="#000" stroke-linejoin="round" stroke-width=".4" d="M126.2 226.8a1 1 0 0 1 .4 0h16.5a1.4 1.4 0 0 1-1-1.2c0-.6.5-1.1 1-1.3a1.7 1.7 0 0 1-.4 0h-16a1.4 1.4 0 0 1-.5 0c.6.2 1 .7 1 1.3a1.3 1.3 0 0 1-1 1.2z"/>
  <path fill="#c8b100" d="M126.6 226.8h16c.6 0 1 .3 1 .7 0 .4-.4.8-1 .8h-16c-.5 0-1-.4-1-.8s.5-.8 1-.8"/>
  <path fill="none" stroke="#000" stroke-width=".4" d="M126.6 226.8h16c.6 0 1 .3 1 .7 0 .4-.4.8-1 .8h-16c-.5 0-1-.4-1-.8s.5-.8 1-.8z"/>
  <path fill="#c8b100" d="M126.6 223h16c.6 0 1 .4 1 .7 0 .4-.4.6-1 .6h-16c-.5 0-1-.2-1-.6 0-.3.5-.6 1-.6"/>
  <path fill="none" stroke="#000" stroke-width=".4" d="M126.6 223h16c.6 0 1 .4 1 .7 0 .4-.4.6-1 .6h-16c-.5 0-1-.2-1-.6 0-.3.5-.6 1-.6z"/>
  <path fill="#005bbf" d="M149.6 317.4c-1.4 0-2.8-.3-3.7-.8a8.4 8.4 0 0 0-3.8-.8c-1.4 0-2.7.3-3.7.8a8.3 8.3 0 0 1-3.8.8c-1.5 0-2.8-.3-3.7-.8a8.4 8.4 0 0 0-3.7-.8 8 8 0 0 0-3.7.8 8.3 8.3 0 0 1-3.8.8v2.4c1.5 0 2.8-.4 3.8-.9a8.2 8.2 0 0 1 3.7-.8c1.4 0 2.7.3 3.7.8s2.2.9 3.7.9a8.4 8.4 0 0 0 3.8-.9c1-.5 2.3-.8 3.7-.8 1.5 0 2.8.3 3.8.8s2.2.9 3.7.9v-2.4"/>
  <path fill="none" stroke="#000" stroke-width=".4" d="M149.6 317.4c-1.4 0-2.8-.3-3.7-.8a8.4 8.4 0 0 0-3.8-.8c-1.4 0-2.7.3-3.7.8a8.3 8.3 0 0 1-3.8.8c-1.5 0-2.8-.3-3.7-.8a8.4 8.4 0 0 0-3.7-.8 8 8 0 0 0-3.7.8 8.3 8.3 0 0 1-3.8.8v2.4c1.5 0 2.8-.4 3.8-.9a8.2 8.2 0 0 1 3.7-.8c1.4 0 2.7.3 3.7.8s2.2.9 3.7.9a8.4 8.4 0 0 0 3.8-.9c1-.5 2.3-.8 3.7-.8 1.5 0 2.8.3 3.8.8s2.2.9 3.7.9v-2.4z"/>
  <path fill="#ccc" d="M149.6 319.8a8 8 0 0 1-3.7-.9 8.3 8.3 0 0 0-3.8-.8c-1.4 0-2.7.3-3.7.8s-2.3.9-3.8.9-2.8-.4-3.7-.9a8.4 8.4 0 0 0-3.7-.8 8.2 8.2 0 0 0-3.7.8c-1 .5-2.3.9-3.8.9v2.3c1.5 0 2.8-.4 3.8-.9a8.1 8.1 0 0 1 3.7-.7c1.4 0 2.7.2 3.7.7a8.3 8.3 0 0 0 7.5 0 8.5 8.5 0 0 1 7.5.1 8.1 8.1 0 0 0 3.7.8v-2.3"/>
  <path fill="none" stroke="#000" stroke-width=".4" d="M149.6 319.8a8 8 0 0 1-3.7-.9 8.3 8.3 0 0 0-3.8-.8c-1.4 0-2.7.3-3.7.8s-2.3.9-3.8.9-2.8-.4-3.7-.9a8.4 8.4 0 0 0-3.7-.8 8.2 8.2 0 0 0-3.7.8c-1 .5-2.3.9-3.8.9v2.3c1.5 0 2.8-.4 3.8-.9a8.1 8.1 0 0 1 3.7-.7c1.4 0 2.7.2 3.7.7a8.3 8.3 0 0 0 7.5 0 8.5 8.5 0 0 1 7.5.1 8.1 8.1 0 0 0 3.7.8v-2.3"/>
  <path fill="#005bbf" d="M149.6 322a7 7 0 0 1-3.7-.8 8.3 8.3 0 0 0-3.8-.7c-1.4 0-2.7.2-3.7.7-1 .6-2.3.9-3.8.9s-2.8-.4-3.7-.9a8.4 8.4 0 0 0-3.7-.8 8 8 0 0 0-3.7.8c-1 .5-2.3.9-3.8.9v2.3c1.5 0 2.8-.3 3.8-.9a10.2 10.2 0 0 1 7.4 0 7 7 0 0 0 3.7.9 8.4 8.4 0 0 0 3.8-.8c1-.5 2.3-.8 3.7-.8 1.5 0 2.8.3 3.8.8s2.2.8 3.7.8V322"/>
  <path fill="none" stroke="#000" stroke-width=".4" d="M149.6 322a7 7 0 0 1-3.7-.8 8.3 8.3 0 0 0-3.8-.7c-1.4 0-2.7.2-3.7.7-1 .6-2.3.9-3.8.9s-2.8-.4-3.7-.9a8.4 8.4 0 0 0-3.7-.8 8 8 0 0 0-3.7.8c-1 .5-2.3.9-3.8.9v2.3c1.5 0 2.8-.3 3.8-.9a10.2 10.2 0 0 1 7.4 0 7 7 0 0 0 3.7.9 8.4 8.4 0 0 0 3.8-.8c1-.5 2.3-.8 3.7-.8 1.5 0 2.8.3 3.8.8s2.2.8 3.7.8V322"/>
  <path fill="#ccc" d="M149.6 326.7a8 8 0 0 1-3.7-.8c-1-.5-2.3-.8-3.7-.8a8.4 8.4 0 0 0-3.8.8c-1 .5-2.3.8-3.8.8a7 7 0 0 1-3.7-.9 8.4 8.4 0 0 0-3.7-.7c-1.4 0-2.7.3-3.7.8s-2.3.8-3.8.8v-2.3a8.3 8.3 0 0 0 3.8-.9 10.2 10.2 0 0 1 7.4 0 8 8 0 0 0 3.7.9 8.4 8.4 0 0 0 3.8-.8c1-.5 2.3-.8 3.8-.8 1.4 0 2.7.3 3.7.8s2.3.8 3.7.8v2.3"/>
  <path fill="none" stroke="#000" stroke-width=".4" d="M149.6 326.7a8 8 0 0 1-3.7-.8c-1-.5-2.3-.8-3.7-.8a8.4 8.4 0 0 0-3.8.8c-1 .5-2.3.8-3.8.8a7 7 0 0 1-3.7-.9 8.4 8.4 0 0 0-3.7-.7c-1.4 0-2.7.3-3.7.8s-2.3.8-3.8.8v-2.3a8.3 8.3 0 0 0 3.8-.9 10.2 10.2 0 0 1 7.4 0 8 8 0 0 0 3.7.9 8.4 8.4 0 0 0 3.8-.8c1-.5 2.3-.8 3.8-.8 1.4 0 2.7.3 3.7.8s2.3.8 3.7.8v2.3"/>
  <path fill="#005bbf" d="M149.6 329a8.1 8.1 0 0 1-3.7-.8c-1-.5-2.3-.8-3.7-.8a8.4 8.4 0 0 0-3.8.8c-1 .5-2.3.8-3.8.8a7 7 0 0 1-3.7-.9 8.4 8.4 0 0 0-3.7-.7c-1.4 0-2.7.3-3.7.8s-2.3.8-3.8.8v-2.3a8.3 8.3 0 0 0 3.8-.8c1-.5 2.3-.8 3.7-.8 1.4 0 2.7.3 3.7.7a8.4 8.4 0 0 0 7.5 0c1-.4 2.3-.7 3.8-.7 1.4 0 2.7.3 3.7.8s2.2.8 3.7.8v2.3"/>
  <path fill="none" stroke="#000" stroke-width=".4" d="M149.6 329a8.1 8.1 0 0 1-3.7-.8c-1-.5-2.3-.8-3.7-.8a8.4 8.4 0 0 0-3.8.8c-1 .5-2.3.8-3.8.8a7 7 0 0 1-3.7-.9 8.4 8.4 0 0 0-3.7-.7c-1.4 0-2.7.3-3.7.8s-2.3.8-3.8.8v-2.3a8.3 8.3 0 0 0 3.8-.8c1-.5 2.3-.8 3.7-.8 1.4 0 2.7.3 3.7.7a8.4 8.4 0 0 0 7.5 0c1-.4 2.3-.7 3.8-.7 1.4 0 2.7.3 3.7.8s2.2.8 3.7.8v2.3z"/>
  <path fill="#c8b100" d="m126.2 308 .2.5c0 1.5-1.3 2.6-2.7 2.6h22a2.7 2.7 0 0 1-2.7-2.6v-.5a1.3 1.3 0 0 1-.3 0h-16a1.4 1.4 0 0 1-.5 0"/>
  <path fill="none" stroke="#000" stroke-linejoin="round" stroke-width=".4" d="m126.2 308 .2.5c0 1.5-1.3 2.6-2.7 2.6h22a2.7 2.7 0 0 1-2.7-2.6v-.5a1.3 1.3 0 0 1-.3 0h-16a1.4 1.4 0 0 1-.5 0z"/>
  <path fill="#c8b100" d="M126.6 306.5h16c.6 0 1 .3 1 .8 0 .4-.4.7-1 .7h-16c-.5 0-1-.3-1-.8 0-.4.5-.7 1-.7"/>
  <path fill="none" stroke="#000" stroke-width=".4" d="M126.6 306.5h16c.6 0 1 .3 1 .8 0 .4-.4.7-1 .7h-16c-.5 0-1-.3-1-.8 0-.4.5-.7 1-.7z"/>
  <path fill="#c8b100" d="M123.7 316.7h22V311h-22v5.6z"/>
  <path fill="none" stroke="#000" stroke-width=".4" d="M123.7 316.7h22V311h-22v5.6z"/>
  <path fill="#ad1519" d="M122 286.7c-2.2 1.2-3.7 2.5-3.4 3.2 0 .6.8 1 1.8 1.6 1.5 1.1 2.5 3 1.7 4a5.5 5.5 0 0 0-.1-8.8"/>
  <path fill="none" stroke="#000" stroke-width=".4" d="M122 286.7c-2.2 1.2-3.7 2.5-3.4 3.2 0 .6.8 1 1.8 1.6 1.5 1.1 2.5 3 1.7 4a5.5 5.5 0 0 0-.1-8.8z"/>
  <path fill="#ccc" d="M126.8 305.6h15.6V229h-15.6v76.5z"/>
  <path fill="none" stroke="#000" stroke-width=".4" d="M138 229.2v76.3m1.7-76.3v76.3m-12.9 0h15.6v-76.4h-15.6v76.5z"/>
  <path fill="#ad1519" d="M158.4 257.7a49.6 49.6 0 0 0-23.3-2c-9.4 1.6-16.5 5.3-15.9 8.4v.2l-3.5-8.2c-.6-3.3 7.2-7.5 17.6-9.2a43 43 0 0 1 9.2-.7c6.6 0 12.4.8 15.8 2.1v9.4"/>
  <path fill="none" stroke="#000" stroke-linejoin="round" stroke-width=".4" d="M158.4 257.7a49.6 49.6 0 0 0-23.3-2c-9.4 1.6-16.5 5.3-15.9 8.4v.2l-3.5-8.2c-.6-3.3 7.2-7.5 17.6-9.2a43 43 0 0 1 9.2-.7c6.6 0 12.4.8 15.8 2.1v9.4"/>
  <path fill="#ad1519" d="M126.8 267.3c-4.3-.3-7.3-1.4-7.6-3.2-.3-1.5 1.2-3 3.8-4.5 1.2.1 2.5.3 3.8.3v7.4"/>
  <path fill="none" stroke="#000" stroke-width=".4" d="M126.8 267.3c-4.3-.3-7.3-1.4-7.6-3.2-.3-1.5 1.2-3 3.8-4.5 1.2.1 2.5.3 3.8.3v7.4"/>
  <path fill="#ad1519" d="M142.5 261.5c2.7.4 4.7 1 5.7 1.9l.1.2c.5 1-1.9 3-5.9 5.4v-7.5"/>
  <path fill="none" stroke="#000" stroke-width=".4" d="M142.5 261.5c2.7.4 4.7 1 5.7 1.9l.1.2c.5 1-1.9 3-5.9 5.4v-7.5"/>
  <path fill="#ad1519" d="M117.1 282c-.4-1.2 3.8-3.6 9.8-5.8l7.8-3.2c8.3-3.7 14.4-7.9 13.6-9.4v-.2c.4.4 1 8 1 8 .8 1.3-4.8 5.5-12.4 9.1-2.5 1.2-7.6 3-10 4-4.4 1.4-8.7 4.3-8.3 5.3l-1.5-7.7"/>
  <path fill="#c8b100" d="M267.2 223h21.4v-5.5h-21.4v5.6z"/>
  <path fill="none" stroke="#000" stroke-width=".4" d="M267.2 223h21.4v-5.5h-21.4v5.6z"/>
  <path fill="#c8b100" d="M286.3 226.8a1 1 0 0 0-.4 0h-16.5c.6-.2 1-.7 1-1.2 0-.6-.4-1.1-1-1.3h17-.1c-.6.2-1 .7-1 1.3 0 .5.4 1 1 1.2"/>
  <path fill="none" stroke="#000" stroke-linejoin="round" stroke-width=".4" d="M286.3 226.8a1 1 0 0 0-.4 0h-16.5c.6-.2 1-.7 1-1.2 0-.6-.4-1.1-1-1.3h17-.1c-.6.2-1 .7-1 1.3 0 .5.4 1 1 1.2z"/>
  <path fill="#c8b100" d="M269.9 226.8h16c.6 0 1 .3 1 .7 0 .4-.4.8-1 .8h-16c-.6 0-1-.4-1-.8s.5-.8 1-.8"/>
  <path fill="none" stroke="#000" stroke-width=".4" d="M269.9 226.8h16c.6 0 1 .3 1 .7 0 .4-.4.8-1 .8h-16c-.6 0-1-.4-1-.8s.5-.8 1-.8z"/>
  <path fill="#c8b100" d="M269.9 223h16c.6 0 1 .4 1 .7 0 .4-.4.6-1 .6h-16c-.6 0-1-.2-1-.6 0-.3.4-.6 1-.6"/>
  <path fill="none" stroke="#000" stroke-width=".4" d="M269.9 223h16c.6 0 1 .4 1 .7 0 .4-.4.6-1 .6h-16c-.6 0-1-.2-1-.6 0-.3.4-.6 1-.6z"/>
  <path fill="#005bbf" d="M263 317.4c1.4 0 2.7-.3 3.7-.8a8.4 8.4 0 0 1 3.7-.8c1.4 0 2.8.3 3.8.8s2.3.8 3.7.8c1.5 0 2.8-.3 3.8-.8a8.4 8.4 0 0 1 3.6-.8 8 8 0 0 1 3.7.8c1 .5 2.4.8 3.8.8v2.4a8.3 8.3 0 0 1-3.8-.9 8.2 8.2 0 0 0-3.7-.8c-1.4 0-2.7.3-3.6.8-1 .5-2.3.9-3.8.9a8 8 0 0 1-3.7-.9 8.4 8.4 0 0 0-3.8-.8 8.3 8.3 0 0 0-3.7.8c-1 .5-2.3.9-3.8.9v-2.4"/>
  <path fill="none" stroke="#000" stroke-width=".4" d="M263 317.4c1.4 0 2.7-.3 3.7-.8a8.4 8.4 0 0 1 3.7-.8c1.4 0 2.8.3 3.8.8s2.3.8 3.7.8c1.5 0 2.8-.3 3.8-.8a8.4 8.4 0 0 1 3.6-.8 8 8 0 0 1 3.7.8c1 .5 2.4.8 3.8.8v2.4a8.3 8.3 0 0 1-3.8-.9 8.2 8.2 0 0 0-3.7-.8c-1.4 0-2.7.3-3.6.8-1 .5-2.3.9-3.8.9a8 8 0 0 1-3.7-.9 8.4 8.4 0 0 0-3.8-.8 8.3 8.3 0 0 0-3.7.8c-1 .5-2.3.9-3.8.9v-2.4z"/>
  <path fill="#ccc" d="M263 319.8c1.4 0 2.7-.4 3.7-.9s2.3-.8 3.7-.8c1.4 0 2.8.3 3.8.8s2.3.9 3.7.9a8.2 8.2 0 0 0 3.8-.9 8.4 8.4 0 0 1 3.6-.8c1.5 0 2.8.3 3.7.8 1 .5 2.4.9 3.8.9v2.3a8.3 8.3 0 0 1-3.8-.9 8.1 8.1 0 0 0-3.7-.7c-1.4 0-2.7.2-3.6.7-1 .5-2.3.9-3.8.9a7 7 0 0 1-3.7-.9c-1-.4-2.3-.7-3.8-.7a8.3 8.3 0 0 0-3.7.7 8.1 8.1 0 0 1-3.8.9v-2.3"/>
  <path fill="none" stroke="#000" stroke-width=".4" d="M263 319.8c1.4 0 2.7-.4 3.7-.9s2.3-.8 3.7-.8c1.4 0 2.8.3 3.8.8s2.3.9 3.7.9a8.2 8.2 0 0 0 3.8-.9 8.4 8.4 0 0 1 3.6-.8c1.5 0 2.8.3 3.7.8 1 .5 2.4.9 3.8.9v2.3a8.3 8.3 0 0 1-3.8-.9 8.1 8.1 0 0 0-3.7-.7c-1.4 0-2.7.2-3.6.7-1 .5-2.3.9-3.8.9a7 7 0 0 1-3.7-.9c-1-.4-2.3-.7-3.8-.7a8.3 8.3 0 0 0-3.7.7 8.1 8.1 0 0 1-3.8.9v-2.3"/>
  <path fill="#005bbf" d="M263 322c1.4 0 2.7-.2 3.7-.8 1-.4 2.3-.7 3.7-.7 1.4 0 2.8.2 3.8.7s2.3.9 3.7.9a8.2 8.2 0 0 0 3.8-.9 8.4 8.4 0 0 1 3.6-.8 8 8 0 0 1 3.7.8c1 .5 2.4.9 3.8.9v2.3a8.3 8.3 0 0 1-3.8-.9 8.2 8.2 0 0 0-3.7-.7c-1.4 0-2.7.3-3.6.7-1 .6-2.3.9-3.8.9-1.4 0-2.8-.3-3.7-.8a8.4 8.4 0 0 0-3.8-.8 8.3 8.3 0 0 0-3.7.8c-1 .5-2.3.8-3.8.8V322"/>
  <path fill="none" stroke="#000" stroke-width=".4" d="M263 322c1.4 0 2.7-.2 3.7-.8 1-.4 2.3-.7 3.7-.7 1.4 0 2.8.2 3.8.7s2.3.9 3.7.9a8.2 8.2 0 0 0 3.8-.9 8.4 8.4 0 0 1 3.6-.8 8 8 0 0 1 3.7.8c1 .5 2.4.9 3.8.9v2.3a8.3 8.3 0 0 1-3.8-.9 8.2 8.2 0 0 0-3.7-.7c-1.4 0-2.7.3-3.6.7-1 .6-2.3.9-3.8.9-1.4 0-2.8-.3-3.7-.8a8.4 8.4 0 0 0-3.8-.8 8.3 8.3 0 0 0-3.7.8c-1 .5-2.3.8-3.8.8V322"/>
  <path fill="#ccc" d="M263 326.7a8 8 0 0 0 3.7-.8c1-.5 2.3-.8 3.7-.8 1.4 0 2.8.3 3.8.8s2.3.8 3.7.8c1.5 0 2.8-.3 3.8-.9a8.4 8.4 0 0 1 3.6-.7c1.5 0 2.8.3 3.7.8a8.3 8.3 0 0 0 3.8.8v-2.3a8.3 8.3 0 0 1-3.8-.9 8.2 8.2 0 0 0-3.7-.7c-1.4 0-2.7.3-3.6.7-1 .5-2.3.9-3.8.9-1.4 0-2.8-.3-3.7-.8a8.4 8.4 0 0 0-3.8-.8 8.3 8.3 0 0 0-3.7.8c-1 .5-2.3.8-3.8.8v2.3"/>
  <path fill="none" stroke="#000" stroke-width=".4" d="M263 326.7a8 8 0 0 0 3.7-.8c1-.5 2.3-.8 3.7-.8 1.4 0 2.8.3 3.8.8s2.3.8 3.7.8c1.5 0 2.8-.3 3.8-.9a8.4 8.4 0 0 1 3.6-.7c1.5 0 2.8.3 3.7.8a8.3 8.3 0 0 0 3.8.8v-2.3a8.3 8.3 0 0 1-3.8-.9 8.2 8.2 0 0 0-3.7-.7c-1.4 0-2.7.3-3.6.7-1 .5-2.3.9-3.8.9-1.4 0-2.8-.3-3.7-.8a8.4 8.4 0 0 0-3.8-.8 8.3 8.3 0 0 0-3.7.8c-1 .5-2.3.8-3.8.8v2.3"/>
  <path fill="#005bbf" d="M263 329a8.1 8.1 0 0 0 3.7-.8c1-.5 2.3-.8 3.7-.8 1.4 0 2.8.3 3.8.8s2.3.8 3.7.8a8.2 8.2 0 0 0 3.8-.9 8.4 8.4 0 0 1 3.6-.7c1.5 0 2.8.3 3.7.8 1 .5 2.4.8 3.8.8v-2.3a8.3 8.3 0 0 1-3.8-.8 8.2 8.2 0 0 0-3.7-.8 8.4 8.4 0 0 0-3.6.7 8.2 8.2 0 0 1-3.8.9c-1.4 0-2.8-.3-3.7-.8-1-.5-2.3-.8-3.8-.8-1.4 0-2.7.3-3.7.8s-2.3.8-3.8.8v2.3"/>
  <path fill="none" stroke="#000" stroke-width=".4" d="M263 329a8.1 8.1 0 0 0 3.7-.8c1-.5 2.3-.8 3.7-.8 1.4 0 2.8.3 3.8.8s2.3.8 3.7.8a8.2 8.2 0 0 0 3.8-.9 8.4 8.4 0 0 1 3.6-.7c1.5 0 2.8.3 3.7.8 1 .5 2.4.8 3.8.8v-2.3a8.3 8.3 0 0 1-3.8-.8 8.2 8.2 0 0 0-3.7-.8 8.4 8.4 0 0 0-3.6.7 8.2 8.2 0 0 1-3.8.9c-1.4 0-2.8-.3-3.7-.8-1-.5-2.3-.8-3.8-.8-1.4 0-2.7.3-3.7.8s-2.3.8-3.8.8v2.3z"/>
  <path fill="#c8b100" d="m286.3 308-.1.5c0 1.5 1.2 2.6 2.7 2.6h-22c1.5 0 2.7-1.2 2.7-2.6l-.1-.5h16.8"/>
  <path fill="none" stroke="#000" stroke-linejoin="round" stroke-width=".4" d="m286.3 308-.1.5c0 1.5 1.2 2.6 2.7 2.6h-22c1.5 0 2.7-1.2 2.7-2.6l-.1-.5h16.8z"/>
  <path fill="#c8b100" d="M269.9 306.5h16c.6 0 1 .3 1 .8 0 .4-.4.7-1 .7h-16c-.6 0-1-.3-1-.8 0-.4.5-.7 1-.7"/>
  <path fill="none" stroke="#000" stroke-width=".4" d="M269.9 306.5h16c.6 0 1 .3 1 .8 0 .4-.4.7-1 .7h-16c-.6 0-1-.3-1-.8 0-.4.5-.7 1-.7z"/>
  <path fill="#c8b100" d="M266.9 316.7h22V311h-22v5.6z"/>
  <path fill="none" stroke="#000" stroke-width=".4" d="M266.9 316.7h22V311h-22v5.6z"/>
  <path fill="#ad1519" d="M290.6 286.7c2.1 1.2 3.6 2.5 3.4 3.2-.1.6-.8 1-1.8 1.6-1.6 1.1-2.5 3-1.8 4a5.5 5.5 0 0 1 .2-8.8"/>
  <path fill="none" stroke="#000" stroke-width=".4" d="M290.6 286.7c2.1 1.2 3.6 2.5 3.4 3.2-.1.6-.8 1-1.8 1.6-1.6 1.1-2.5 3-1.8 4a5.5 5.5 0 0 1 .2-8.8z"/>
  <path fill="#ccc" d="M270.1 305.6h15.6V229h-15.6v76.5z"/>
  <path fill="none" stroke="#000" stroke-width=".4" d="M281.4 229.1v76.3m1.8-76.3v76.3m-13 .2h15.5V229h-15.6v76.5z"/>
  <path fill="#ad1519" d="M254.2 257.7a49.6 49.6 0 0 1 23.3-2c9.3 1.6 16.4 5.3 15.9 8.4v.2l3.5-8.2c.6-3.3-7.3-7.5-17.6-9.2a53.5 53.5 0 0 0-9.2-.7c-6.7 0-12.4.8-15.9 2.1v9.4"/>
  <path fill="none" stroke="#000" stroke-linejoin="round" stroke-width=".4" d="M254.2 257.7a49.6 49.6 0 0 1 23.3-2c9.3 1.6 16.4 5.3 15.9 8.4v.2l3.5-8.2c.6-3.3-7.3-7.5-17.6-9.2a53.5 53.5 0 0 0-9.2-.7c-6.7 0-12.4.8-15.9 2.1v9.4"/>
  <path fill="#ad1519" d="M285.7 267.3c4.4-.3 7.3-1.4 7.7-3.2.2-1.5-1.2-3-3.8-4.5-1.2.1-2.5.3-3.9.3v7.4"/>
  <path fill="none" stroke="#000" stroke-width=".4" d="M285.7 267.3c4.4-.3 7.3-1.4 7.7-3.2.2-1.5-1.2-3-3.8-4.5-1.2.1-2.5.3-3.9.3v7.4"/>
  <path fill="#ad1519" d="M270 261.5a13 13 0 0 0-5.7 1.9v.2c-.5 1 1.8 3 5.8 5.4v-7.5"/>
  <path fill="none" stroke="#000" stroke-width=".4" d="M270 261.5a13 13 0 0 0-5.7 1.9v.2c-.5 1 1.8 3 5.8 5.4v-7.5"/>
  <path fill="#ad1519" d="M295.4 282c.4-1.2-3.8-3.6-9.7-5.8-2.8-1-5-2-7.8-3.2-8.3-3.7-14.4-7.9-13.6-9.4v-.2c-.4.4-1 8-1 8-.8 1.3 4.8 5.5 12.4 9.1 2.4 1.2 7.6 3 10 4 4.3 1.4 8.7 4.3 8.3 5.3l1.4-7.7"/>
  <path fill="none" stroke="#000" stroke-linejoin="round" stroke-width=".4" d="M295.4 282c.4-1.2-3.8-3.6-9.7-5.8-2.8-1-5-2-7.8-3.2-8.3-3.7-14.4-7.9-13.6-9.4v-.2c-.4.4-1 8-1 8-.8 1.3 4.8 5.5 12.4 9.1 2.4 1.2 7.6 3 10 4 4.3 1.4 8.7 4.3 8.3 5.3l1.4-7.7z"/>
  <path fill="none" stroke="#000" stroke-width=".1" d="M182.2 192.4c0-1 1-2 2-2s2.2 1 2.2 2c0 1.1-1 2-2.1 2a2 2 0 0 1-2.1-2z"/>
  <path fill="#ad1519" stroke="#000" stroke-width=".3" d="M205.7 175.4c6.3 0 12 1 15.7 2.4a31.7 31.7 0 0 0 14.6 2.3c2.7 0 6.5.8 10.3 2.4a27.3 27.3 0 0 1 7.4 4.7l-1.5 1.4-.4 3.8-4.1 4.7-2 1.8-5 3.9-2.5.2-.7 2.1-31.6-3.7-31.7 3.7-.8-2.1-2.5-.2-4.9-4-2-1.7-4.1-4.7-.5-3.8-1.5-1.4a27.6 27.6 0 0 1 7.5-4.7 26 26 0 0 1 10.2-2.4c2 .2 4.2.1 6.6-.2a30 30 0 0 0 8-2c3.7-1.5 9-2.5 15.5-2.5z"/>
  <path fill="#c8b100" stroke="#000" stroke-width=".4" d="M206.2 217.1c-11.8 0-22.4-1.4-29.9-3.6a1.1 1.1 0 0 1-.8-1.2c0-.5.3-1 .8-1.2a109 109 0 0 1 29.9-3.6c11.7 0 22.3 1.4 29.8 3.6a1.3 1.3 0 0 1 0 2.4c-7.5 2.2-18 3.6-29.8 3.6"/>
  <path fill="#ad1519" d="M206.1 215.6c-10.6 0-20.2-1.2-27.5-3.1 7.3-2 16.9-3 27.5-3.1a115 115 0 0 1 27.6 3c-7.3 2-17 3.2-27.6 3.2"/>
  <path fill="#c8b100" stroke="#000" stroke-width=".4" d="M206 207.4a108 108 0 0 0-30 3.9c.6-.3.5-1-.3-3-1-2.5-2.4-2.4-2.4-2.4 8.3-2.5 20-4 32.8-4a123 123 0 0 1 33 4s-1.5-.1-2.5 2.3c-.8 2-.8 2.8-.2 3-7.5-2.2-18.4-3.7-30.3-3.7"/>
  <path fill="#c8b100" stroke="#000" stroke-width=".4" d="M206.1 201.9c-12.9 0-24.5 1.5-32.8 4a1 1 0 0 1-1.3-.6 1 1 0 0 1 .7-1.3 121 121 0 0 1 33.4-4.2c13.2 0 25.2 1.7 33.5 4.2.6.2.9.8.7 1.3-.2.5-.8.8-1.3.6-8.4-2.5-20-4-32.9-4"/>
  <path fill="none" stroke="#000" stroke-linejoin="round" stroke-width=".4" d="M206.1 215.6c-10.6 0-20.2-1.2-27.5-3.1 7.3-2 16.9-3 27.5-3.1a115 115 0 0 1 27.6 3c-7.3 2-17 3.2-27.6 3.2z"/>
  <path fill="#ad1519" stroke="#000" stroke-width=".4" d="m238.2 208.5-1.1-1.6-3.3.4 2.6 2 1.8-.8"/>
  <path fill="none" stroke="#000" stroke-width=".4" d="M177.3 212.8c7.4-2.1 17.6-3.4 28.8-3.4 11.3 0 21.4 1.3 28.9 3.4"/>
  <path fill="#c8b100" d="m182.3 183.8 1.4 1 2-3.2a7.4 7.4 0 0 1-3.6-7.2c.2-4.1 5.2-7.6 11.7-7.6 3.3 0 6.3 1 8.5 2.4 0-.6 0-1.2.2-1.8a17.4 17.4 0 0 0-8.7-2.1c-7.4 0-13.2 4.1-13.5 9.1a8.9 8.9 0 0 0 3 7.6l-1 1.8"/>
  <path fill="none" stroke="#000" stroke-width=".4" d="m182.3 183.8 1.4 1 2-3.2a7.4 7.4 0 0 1-3.6-7.2c.2-4.1 5.2-7.6 11.7-7.6 3.3 0 6.3 1 8.5 2.4 0-.6 0-1.2.2-1.8a17.4 17.4 0 0 0-8.7-2.1c-7.4 0-13.2 4.1-13.5 9.1a8.9 8.9 0 0 0 3 7.6l-1 1.8"/>
  <path fill="#c8b100" d="M182.4 183.8a9.3 9.3 0 0 1-4-7.3c0-3.2 2-6.1 5.3-8a8.5 8.5 0 0 0-3.4 6.8 8.9 8.9 0 0 0 3 6.7l-.9 1.8"/>
  <path fill="none" stroke="#000" stroke-width=".4" d="M182.4 183.8a9.3 9.3 0 0 1-4-7.3c0-3.2 2-6.1 5.3-8a8.5 8.5 0 0 0-3.4 6.8 8.9 8.9 0 0 0 3 6.7l-.9 1.8"/>
  <path fill="#c8b100" d="M160.1 187.1a8.8 8.8 0 0 1-2.3-5.9c0-1.3.3-2.6 1-3.8 2-4.2 8.4-7.2 16-7.2 2 0 4 .2 5.9.6l-1 1.4a25.5 25.5 0 0 0-4.9-.4c-7 0-12.8 2.7-14.5 6.3a7 7 0 0 0-.7 3.1 7.3 7.3 0 0 0 2.7 5.6l-2.6 4.1-1.3-1 1.7-2.8"/>
  <path fill="none" stroke="#000" stroke-width=".4" d="M160.1 187.1a8.8 8.8 0 0 1-2.3-5.9c0-1.3.3-2.6 1-3.8 2-4.2 8.4-7.2 16-7.2 2 0 4 .2 5.9.6l-1 1.4a25.5 25.5 0 0 0-4.9-.4c-7 0-12.8 2.7-14.5 6.3a7 7 0 0 0-.7 3.1 7.3 7.3 0 0 0 2.7 5.6l-2.6 4.1-1.3-1 1.7-2.8z"/>
  <path fill="#c8b100" d="M162.7 173.3a10.5 10.5 0 0 0-4 4.1 8.6 8.6 0 0 0-.9 3.8c0 2.3.9 4.3 2.3 5.9l-1.5 2.5a10.4 10.4 0 0 1-2.3-6.5c0-4 2.5-7.5 6.4-9.8"/>
  <path fill="none" stroke="#000" stroke-width=".4" d="M162.7 173.3a10.5 10.5 0 0 0-4 4.1 8.6 8.6 0 0 0-.9 3.8c0 2.3.9 4.3 2.3 5.9l-1.5 2.5a10.4 10.4 0 0 1-2.3-6.5c0-4 2.5-7.5 6.4-9.8z"/>
  <path fill="#c8b100" d="M206 164.4c1.7 0 3.2 1.1 3.5 2.6.3 1.4.4 2.9.4 4.5v1.1c.1 3.3.6 6.3 1.3 8.1l-5.2 5-5.2-5c.7-1.8 1.2-4.8 1.3-8.1v-1.1c0-1.6.2-3.1.4-4.5.3-1.5 1.8-2.6 3.5-2.6"/>
  <path fill="none" stroke="#000" stroke-width=".4" d="M206 164.4c1.7 0 3.2 1.1 3.5 2.6.3 1.4.4 2.9.4 4.5v1.1c.1 3.3.6 6.3 1.3 8.1l-5.2 5-5.2-5c.7-1.8 1.2-4.8 1.3-8.1v-1.1c0-1.6.2-3.1.4-4.5.3-1.5 1.8-2.6 3.5-2.6z"/>
  <path fill="#c8b100" d="M206 166c1 0 1.7.6 1.8 1.4.2 1.2.4 2.6.4 4.2v1c.1 3.2.6 6 1.2 7.7l-3.4 3.2-3.4-3.2c.7-1.7 1.1-4.5 1.2-7.7v-1a28.1 28.1 0 0 1 .4-4.2 2 2 0 0 1 1.8-1.4"/>
  <path fill="none" stroke="#000" stroke-width=".4" d="M206 166c1 0 1.7.6 1.8 1.4.2 1.2.4 2.6.4 4.2v1c.1 3.2.6 6 1.2 7.7l-3.4 3.2-3.4-3.2c.7-1.7 1.1-4.5 1.2-7.7v-1a28.1 28.1 0 0 1 .4-4.2 2 2 0 0 1 1.8-1.4z"/>
  <path fill="#c8b100" d="m229.7 183.8-1.3 1-2-3.2a7.4 7.4 0 0 0 3.6-6.3 7 7 0 0 0 0-.9c-.2-4.1-5.3-7.6-11.7-7.6a15 15 0 0 0-8.5 2.4 23 23 0 0 0-.2-1.8 17.4 17.4 0 0 1 8.7-2.1c7.4 0 13.2 4.1 13.4 9.1a8.9 8.9 0 0 1-3 7.6l1 1.8"/>
  <path fill="none" stroke="#000" stroke-width=".4" d="m229.7 183.8-1.3 1-2-3.2a7.4 7.4 0 0 0 3.6-6.3 7 7 0 0 0 0-.9c-.2-4.1-5.3-7.6-11.7-7.6a15 15 0 0 0-8.5 2.4 23 23 0 0 0-.2-1.8 17.4 17.4 0 0 1 8.7-2.1c7.4 0 13.2 4.1 13.4 9.1a8.9 8.9 0 0 1-3 7.6l1 1.8"/>
  <path fill="#c8b100" d="M229.6 183.8a9.1 9.1 0 0 0 4.1-7.3c0-3.2-2.1-6.1-5.3-8a8.5 8.5 0 0 1 3.4 6.8 8.9 8.9 0 0 1-3.2 6.7l1 1.8"/>
  <path fill="none" stroke="#000" stroke-width=".4" d="M229.6 183.8a9.1 9.1 0 0 0 4.1-7.3c0-3.2-2.1-6.1-5.3-8a8.5 8.5 0 0 1 3.4 6.8 8.9 8.9 0 0 1-3.2 6.7l1 1.8"/>
  <path fill="#c8b100" d="M252 187.1a8.8 8.8 0 0 0 2.2-5.9 8.7 8.7 0 0 0-.9-3.8c-2-4.2-8.4-7.2-16-7.2a29 29 0 0 0-6 .6l1 1.4a25.4 25.4 0 0 1 5-.4c7 0 12.8 2.7 14.4 6.3.5 1 .7 2 .7 3.1a7.3 7.3 0 0 1-2.6 5.6l2.5 4.1 1.3-1-1.7-2.8"/>
  <path fill="none" stroke="#000" stroke-width=".4" d="M252 187.1a8.8 8.8 0 0 0 2.2-5.9 8.7 8.7 0 0 0-.9-3.8c-2-4.2-8.4-7.2-16-7.2a29 29 0 0 0-6 .6l1 1.4a25.4 25.4 0 0 1 5-.4c7 0 12.8 2.7 14.4 6.3.5 1 .7 2 .7 3.1a7.3 7.3 0 0 1-2.6 5.6l2.5 4.1 1.3-1-1.7-2.8z"/>
  <path fill="#c8b100" d="M249.3 173.3a10.6 10.6 0 0 1 4 4.1 8.7 8.7 0 0 1 .9 3.8 8.8 8.8 0 0 1-2.3 5.9l1.6 2.5a10.4 10.4 0 0 0 2.3-6.5c0-4-2.6-7.5-6.5-9.8"/>
  <path fill="none" stroke="#000" stroke-width=".4" d="M249.3 173.3a10.6 10.6 0 0 1 4 4.1 8.7 8.7 0 0 1 .9 3.8 8.8 8.8 0 0 1-2.3 5.9l1.6 2.5a10.4 10.4 0 0 0 2.3-6.5c0-4-2.6-7.5-6.5-9.8z"/>
  <path fill="#c8b100" stroke="#000" stroke-width=".4" d="m206.2 191.8 1.2.2a4.6 4.6 0 0 0 4.5 6 4.7 4.7 0 0 0 4.4-3c.1 0 .5-1.7.7-1.7.2 0 .1 1.8.2 1.7.3 2.3 2.4 3.8 4.7 3.8a4.6 4.6 0 0 0 4.7-5l1.5-1.5.7 2a4 4 0 0 0-.4 1.9 4.4 4.4 0 0 0 4.5 4.2c1.6 0 3-.7 3.8-1.9l.9-1.2v1.5c0 1.5.6 2.8 2 3 0 0 1.7.1 4-1.6 2.1-1.7 3.3-3.1 3.3-3.1l.2 1.7s-1.8 2.8-3.8 4c-1 .6-2.7 1.3-4 1-1.4-.2-2.4-1.3-3-2.6a6.7 6.7 0 0 1-3.3 1 6.5 6.5 0 0 1-6.1-3.7 7 7 0 0 1-10.4-.3 7 7 0 0 1-4.6 1.8 6.9 6.9 0 0 1-5.7-3 6.9 6.9 0 0 1-5.7 3 7 7 0 0 1-4.7-1.8 7 7 0 0 1-10.4.3 6.5 6.5 0 0 1-6 3.7 6.7 6.7 0 0 1-3.4-1c-.6 1.3-1.5 2.4-3 2.7-1.2.2-2.9-.5-4-1.1-2-1.2-3.8-4-3.8-4l.2-1.7s1.2 1.4 3.4 3.1c2.2 1.8 3.9 1.6 3.9 1.6 1.4-.2 2-1.5 2-3v-1.5l1 1.2a4.6 4.6 0 0 0 3.7 2c2.5 0 4.5-2 4.5-4.3a4 4 0 0 0-.4-2l.8-1.9 1.5 1.5a4.4 4.4 0 0 0 0 .6c0 2.4 2 4.4 4.6 4.4 2.4 0 4.4-1.5 4.7-3.8 0 0 0-1.6.2-1.7.2 0 .6 1.7.7 1.6a4.7 4.7 0 0 0 4.5 3.1 4.6 4.6 0 0 0 4.5-6l1.2-.2"/>
  <path fill="#fff" stroke="#000" stroke-width=".4" d="M238.6 197.7c.3-.8 0-1.6-.6-1.8-.5-.2-1.2.3-1.5 1.1-.3.8 0 1.6.6 1.8.5.2 1.2-.3 1.5-1.1m-20.5-4c0-.8-.3-1.6-1-1.6-.5-.1-1 .5-1.2 1.4-.1.8.3 1.5.9 1.6.6 0 1.2-.6 1.3-1.4m-23.9 0c0-.8.4-1.6 1-1.6.6-.1 1.1.5 1.2 1.4.1.8-.3 1.5-.9 1.6-.6 0-1.1-.6-1.2-1.4m-20.6 4c-.2-.8 0-1.6.6-1.8.6-.2 1.2.3 1.5 1.1.3.8 0 1.6-.5 1.8-.6.2-1.3-.3-1.6-1.1"/>
  <path fill="#c8b100" stroke="#000" stroke-width=".4" d="M182.7 184a5.1 5.1 0 0 1 2.2 2.9s0-.3.6-.6 1-.3 1-.3l-.1 1.3-.3 2.2a7.4 7.4 0 0 1-.7 1.6 1.9 1.9 0 0 0-1.5-.4 1.8 1.8 0 0 0-1.2.9s-.7-.6-1.2-1.3l-1.1-2-.7-1.1s.5-.2 1.1 0c.6 0 .8.2.8.2a4.9 4.9 0 0 1 1-3.4m.4 9.8a1.8 1.8 0 0 1-.6-1c0-.5 0-.9.3-1.2 0 0-.9-.5-1.8-.7-.7-.2-2-.2-2.3-.2h-1l.2.5c.2.5.5.7.5.7a5 5 0 0 0-3 2 5.3 5.3 0 0 0 3.5 1l-.2.8v.6l1-.4c.3-.1 1.5-.5 2-1 .8-.4 1.5-1.1 1.5-1.1m2.7-.5a1.6 1.6 0 0 0 .2-1.1 1.7 1.7 0 0 0-.6-1l1.4-1.3a10 10 0 0 1 2-.9l1.1-.4v.6a5.7 5.7 0 0 1-.2.8 5 5 0 0 1 3.4 1 5 5 0 0 1-2.9 2 6.4 6.4 0 0 0 .7 1.2h-1c-.4 0-1.6 0-2.3-.2a11 11 0 0 1-1.8-.7"/>
  <path fill="#ad1519" stroke="#000" stroke-width=".4" d="M182.2 192.4c0-1 1-2 2-2s2.2 1 2.2 2c0 1.1-1 2-2.1 2a2 2 0 0 1-2.1-2"/>
  <path fill="#c8b100" stroke="#000" stroke-width=".4" d="M206.1 180.8a5.7 5.7 0 0 1 1.9 3.7s.2-.3.9-.5c.7-.3 1.2-.2 1.2-.2l-.5 1.4-.8 2.4a8.2 8.2 0 0 1-1 1.7 2.1 2.1 0 0 0-1.7-.7c-.6 0-1.2.3-1.6.7 0 0-.6-.7-1-1.7l-.8-2.4-.5-1.4 1.2.2c.7.2.9.5.9.5 0-1.4.8-2.8 1.8-3.7"/>
  <path fill="#c8b100" stroke="#000" stroke-width=".4" d="M204.6 191.8a2 2 0 0 1-.5-1.2c0-.5.1-1 .4-1.3 0 0-.8-.7-1.8-1-.7-.4-2-.7-2.5-.7l-1.2-.2.2.6.4.9a5.9 5.9 0 0 0-3.7 1.7c1 .9 2.3 1.6 3.7 1.6l-.4 1-.2.6 1.2-.2c.4-.1 1.8-.4 2.5-.7 1-.4 1.9-1 1.9-1m3 0a1.9 1.9 0 0 0 .1-2.6s.9-.7 1.8-1a8 8 0 0 1 2.5-.7l1.2-.3-.1.7-.4.9c1.4 0 2.7.8 3.6 1.7a5.9 5.9 0 0 1-3.6 1.6 6.9 6.9 0 0 0 .5 1.6l-1.2-.2-2.5-.7c-1-.4-1.8-1-1.8-1m22-8a5.2 5.2 0 0 0-2.2 3l-.7-.6c-.6-.3-1-.3-1-.3l.2 1.3c0 .3 0 1.3.3 2.2.2 1 .6 1.6.6 1.6a2 2 0 0 1 1.5-.4c.6.1 1 .5 1.3.9l1.1-1.3c.6-.8 1-1.7 1.1-2l.7-1.1s-.4-.2-1 0c-.7 0-1 .2-1 .2a4.9 4.9 0 0 0-1-3.4m-.3 9.8c.3-.3.5-.6.6-1a1.6 1.6 0 0 0-.2-1.2s.8-.5 1.7-.7c.7-.2 2-.2 2.3-.2h1.1l-.3.5a6.2 6.2 0 0 1-.4.7 5 5 0 0 1 2.9 2 5.3 5.3 0 0 1-3.5 1l.2.8v.6l-1-.4c-.3-.1-1.4-.5-2-1-.8-.4-1.4-1.1-1.4-1.1m-2.8-.5a1.7 1.7 0 0 1-.2-1.1c0-.5.3-.8.6-1 0 0-.6-.8-1.4-1.3-.6-.4-1.7-.8-2-.9a171.4 171.4 0 0 1-1-.4v.6c0 .5.2.8.2.8a5.2 5.2 0 0 0-3.5 1c.7.9 1.7 1.7 3 2 0 0-.3.2-.5.7l-.3.5h1c.4 0 1.7 0 2.3-.2a11.1 11.1 0 0 0 1.8-.7"/>
  <path fill="#ad1519" stroke="#000" stroke-width=".4" d="M226 192.4c0-1 1-2 2-2s2.1 1 2.1 2a2 2 0 0 1-2 2 2 2 0 0 1-2.1-2m23.2 4.4c-.4-.5-1.4-.4-2.2.2-.8.7-1 1.6-.5 2.2.5.5 1.5.4 2.3-.3.7-.6 1-1.6.5-2"/>
  <path fill="#c8b100" stroke="#000" stroke-width=".4" d="m246.3 198 .7-1c.7-.6 1.8-.7 2.3-.2l.1.2s1-2 2.3-2.6c1.3-.7 3.4-.5 3.4-.5a2.8 2.8 0 0 0-2.9-2.8 3 3 0 0 0-2.4 1l-.2-1s-1.3.3-1.9 1.8c-.6 1.5 0 3.6 0 3.6s-.3-.9-.7-1.5a8 8 0 0 0-2.4-1.6l-1.3-.7-.1.5a5 5 0 0 0 0 .8 7.9 7.9 0 0 0-3.7.5 4.7 4.7 0 0 0 2.5 2.2l-.8.7a4 4 0 0 0-.4.5l1.3.2 2.5.2a14.5 14.5 0 0 0 1.7-.2m-80.3 0c0-.4-.3-.7-.7-1-.7-.7-1.7-.8-2.2-.3l-.2.3s-1-2-2.3-2.7c-1.2-.7-3.3-.5-3.3-.5a2.8 2.8 0 0 1 2.8-2.8c1 0 1.9.4 2.4 1l.2-1s1.3.3 2 1.8c.5 1.5-.1 3.6-.1 3.6s.3-.9.8-1.5a8 8 0 0 1 2.4-1.6l1.3-.7v1.3a7.9 7.9 0 0 1 3.7.5 4.7 4.7 0 0 1-2.5 2.2l.8.7.4.5-1.2.2-2.6.2a14.7 14.7 0 0 1-1.7-.2"/>
  <path fill="#ad1519" stroke="#000" stroke-width=".4" d="M163 196.8c.6-.5 1.6-.4 2.4.3.7.6 1 1.5.4 2-.5.6-1.5.5-2.2-.2-.8-.6-1-1.6-.5-2m41-6.3c0-1.1.9-2 2-2s2.1.9 2.1 2c0 1-1 2-2 2a2 2 0 0 1-2.1-2"/>
  <path fill="#005bbf" stroke="#000" stroke-width=".3" d="M201.8 160.6c0-2.2 1.9-4 4.3-4s4.2 1.8 4.2 4-1.9 4-4.3 4a4.1 4.1 0 0 1-4.2-4"/>
  <path fill="#c8b100" stroke="#000" stroke-width=".3" d="M205 149.3v2.2h-2.4v2.2h2.3v6.3H202l-.2.6c0 .6.1 1.1.3 1.6h7.9c.2-.5.3-1 .3-1.6l-.2-.6h-2.8v-6.3h2.3v-2.2h-2.3v-2.2h-2.4z"/>
  <path fill="#ccc" d="M206.5 330.6a82 82 0 0 1-35.5-8.2 22.7 22.7 0 0 1-12.8-20.4v-32h96.4v32a22.7 22.7 0 0 1-12.8 20.4 81 81 0 0 1-35.3 8.2"/>
  <path fill="none" stroke="#000" stroke-width=".5" d="M206.5 330.6a82 82 0 0 1-35.5-8.2 22.7 22.7 0 0 1-12.8-20.4v-32h96.4v32a22.7 22.7 0 0 1-12.8 20.4 81 81 0 0 1-35.3 8.2z"/>
  <path fill="#ccc" d="M206.3 270h48.3v-53.5h-48.3V270z"/>
  <path fill="none" stroke="#000" stroke-width=".5" d="M206.3 270h48.3v-53.5h-48.3V270z"/>
  <path fill="#ad1519" d="M206.3 302c0 12.6-10.7 22.9-24 22.9s-24.2-10.3-24.2-23v-32h48.2v32"/>
  <path fill="#c8b100" stroke="#000" stroke-width=".5" d="M168.6 320.9c1.5.8 3.6 2 5.8 2.6l-.1-54.7h-5.7v52z"/>
  <path fill="#c8b100" stroke="#000" stroke-linejoin="round" stroke-width=".5" d="M158 301.6a24.4 24.4 0 0 0 5.5 15v-47.5h-5.4v32.5z"/>
  <path fill="#c7b500" stroke="#000" stroke-width=".5" d="M179.4 324.7a26.6 26.6 0 0 0 5.6 0v-55.9h-5.6v56z"/>
  <path fill="#c8b100" stroke="#000" stroke-width=".5" d="M190 323.5a19 19 0 0 0 5.8-2.5v-52.2H190l-.1 54.7z"/>
  <path fill="#ad1519" d="M158.1 270h48.2v-53.5H158V270z"/>
  <path fill="none" stroke="#000" stroke-width=".5" d="M158.1 270h48.2v-53.5H158V270z"/>
  <path fill="#c8b100" stroke="#000" stroke-width=".5" d="M201 316c2.4-2 4.6-6.8 5.4-12.2l.1-35H201l.1 47.3z"/>
  <path fill="none" stroke="#000" stroke-width=".5" d="M206.3 302c0 12.6-10.7 22.9-24 22.9s-24.2-10.3-24.2-23v-32h48.2v32"/>
  <path fill="#ad1519" d="M254.6 270v32c0 12.6-10.8 22.9-24.1 22.9s-24.2-10.3-24.2-23v-32h48.3"/>
  <path fill="none" stroke="#000" stroke-width=".5" d="M254.6 270v32c0 12.6-10.8 22.9-24.1 22.9s-24.2-10.3-24.2-23v-32h48.3"/>
  <path fill="#ad1519" d="M190.8 269.8c0-9.7 7-17.6 15.6-17.6s15.6 7.9 15.6 17.6-7 17.5-15.6 17.5-15.6-7.8-15.6-17.5"/>
  <path fill="none" stroke="#000" stroke-width=".6" d="M190.8 269.8c0-9.7 7-17.6 15.6-17.6s15.6 7.9 15.6 17.6-7 17.5-15.6 17.5-15.6-7.8-15.6-17.5z"/>
  <path fill="#005bbf" d="M195.4 269.7c0-7 5-12.8 11-12.8s11 5.7 11 12.8c0 7.2-5 13-11 13s-11-5.8-11-13"/>
  <path fill="none" stroke="#000" stroke-width=".6" d="M195.4 269.7c0-7 5-12.8 11-12.8s11 5.7 11 12.8c0 7.2-5 13-11 13s-11-5.8-11-13z"/>
</svg>