<svg xmlns="http://www.w3.org/2000/svg" width="77.451" height="77.913" viewBox="0 0 77.451 77.913">
  <g id="icons_section_2_dow_jones-06" data-name="icons section 2 dow jones-06" transform="translate(-17.96 -11.201)">
    <path id="Path_128" data-name="Path 128" d="M26.35,36.979V12.106a.784.784,0,0,1,.887-.887c8.353,0,16.705-.041,25.037,0a16.591,16.591,0,0,1,13.179,6.373,17.009,17.009,0,0,1,3.774,9.652v.412c.062.495-.124.66-.639.66-2.351-.021-4.7,0-7.053,0-.8,0-.8,0-.907-.825a8.575,8.575,0,0,0-4.352-6.6,8.456,8.456,0,0,0-4.352-1.176H35.61c-.742,0-.742,0-.742.763V53.457c0,.784,0,.784.8.784h7.115c.495,0,.681.124.681.639-.021,2.434,0,4.867,0,7.28,0,.454-.144.6-.6.6h-15.9c-.619,0-.619-.33-.619-.763V36.958Z" transform="translate(8.913)" fill="#ff875c"/>
    <path id="Path_129" data-name="Path 129" d="M57.062,28.827v4.331a16.872,16.872,0,0,1-7.8,14.478,17.79,17.79,0,0,1-11.013,2.949c-.33,0-.433-.124-.433-.454V42.5c0-.392.206-.433.516-.433a23.036,23.036,0,0,0,2.929-.227,8.963,8.963,0,0,0,7.321-8.971V23.341c0-.516.124-.7.681-.681,2.413.021,4.826.021,7.218,0,.495,0,.619.165.619.619-.021,1.856,0,3.692,0,5.548Z" transform="translate(21.099 12.173)" fill="#ff875c"/>
    <path id="Path_130" data-name="Path 130" d="M30.055,50.274c.412-1.361.825-2.722,1.217-4.084a8.958,8.958,0,0,0,.289-.99c.082-.516.351-.681.866-.66a.6.6,0,0,1,.681.516c.454,1.567.928,3.135,1.4,4.7.062.186.124.351.227.681.33-1.815.66-3.444.928-5.094.1-.6.289-.907.949-.8a7.178,7.178,0,0,0,1.155,0c-.247,1.2-.454,2.269-.681,3.362-.351,1.712-.7,3.444-1.031,5.156-.062.351-.186.474-.557.474-1.609.021-1.609.041-2.083-1.485-.33-1.052-.66-2.083-1.011-3.135,0-.021-.062-.041-.144-.1l-1.485,4.7H28.694l-1.774-8.93h1.918l1.072,5.672h.1Z" transform="translate(9.519 35.398)" fill="#ff875c"/>
    <path id="Path_131" data-name="Path 131" d="M50.963,44.594v8.951c-.577,0-1.134.021-1.712,0-.165,0-.33-.227-.433-.392-.969-1.506-1.9-3.032-2.867-4.558-.1-.165-.206-.309-.412-.6v5.527H43.621c0-.186-.041-.351-.041-.516V45.151c0-.454.144-.557.6-.6a1.817,1.817,0,0,1,2.062,1.114c.742,1.382,1.629,2.66,2.454,3.98a1.306,1.306,0,0,0,.412.412V44.615h1.856Z" transform="translate(27.218 35.406)" fill="#ff875c"/>
    <path id="Path_132" data-name="Path 132" d="M18,53.523c0-.247-.041-.433-.041-.619V45.211c0-.536.165-.7.681-.681,1.258.041,2.516,0,3.754.082a3.053,3.053,0,0,1,2.949,3.279v2.186a3.089,3.089,0,0,1-3.011,3.4c-1.423.124-2.846.021-4.331.021Zm1.9-1.732H22A1.565,1.565,0,0,0,23.467,50.2c.021-.763.021-1.547,0-2.31a1.482,1.482,0,0,0-1.382-1.526,10.909,10.909,0,0,0-1.836,0c-.124,0-.309.227-.309.33-.021,1.671,0,3.341,0,5.094Z" transform="translate(0 35.407)" fill="#ff875c"/>
    <path id="Path_133" data-name="Path 133" d="M46.38,49.111c-.062.722-.062,1.464-.186,2.186a2.644,2.644,0,0,1-1.526,1.98,4.61,4.61,0,0,1-4.063,0,2.941,2.941,0,0,1-1.671-2.764c-.021-.846,0-1.691,0-2.537a3.134,3.134,0,0,1,3.094-3.465,6.511,6.511,0,0,1,2,.144,2.955,2.955,0,0,1,2.31,2.825c.041.536,0,1.072,0,1.609H46.4Zm-2,0h0c0-.474.021-.969,0-1.444a1.787,1.787,0,0,0-3.506-.082,28.133,28.133,0,0,0,0,2.949c.041.887.763,1.423,1.794,1.4a1.545,1.545,0,0,0,1.712-1.506v-1.32Z" transform="translate(22.274 35.364)" fill="#ff875c"/>
    <path id="Path_134" data-name="Path 134" d="M29.9,49.17v1.382a3.047,3.047,0,0,1-2.537,3.073,4.886,4.886,0,0,1-2.722-.124,3,3,0,0,1-2.1-2.929V47.623a2.946,2.946,0,0,1,2.083-2.887,5.115,5.115,0,0,1,3.238,0,2.992,2.992,0,0,1,2.062,2.908v1.506Zm-1.918-.041V47.87a1.593,1.593,0,0,0-1.712-1.629,1.607,1.607,0,0,0-1.815,1.464,22.48,22.48,0,0,0,0,2.887,1.6,1.6,0,0,0,1.9,1.4,1.549,1.549,0,0,0,1.629-1.588V49.149Z" transform="translate(4.866 35.347)" fill="#ff875c"/>
    <path id="Path_135" data-name="Path 135" d="M58.842,47.111h-1.65a.417.417,0,0,1-.289-.165,1.673,1.673,0,0,0-1.9-.639c-.412.082-.722.247-.784.722-.062.516.268.742.681.866.742.227,1.506.371,2.227.6a2.624,2.624,0,0,1,1.856,3.3,2.155,2.155,0,0,1-1.32,1.588,4.667,4.667,0,0,1-3.96-.1,2.8,2.8,0,0,1-1.547-2.516h1.794c.1,0,.206.206.268.33a1.832,1.832,0,0,0,2.5.681.89.89,0,0,0,.371-.7.985.985,0,0,0-.495-.681,13.921,13.921,0,0,0-1.65-.495,6.748,6.748,0,0,1-1.093-.351,2.551,2.551,0,0,1-1.588-2.516A2.42,2.42,0,0,1,54,44.74a4.441,4.441,0,0,1,3.217.062,2.478,2.478,0,0,1,1.609,2.289Z" transform="translate(36.334 35.343)" fill="#ff875c"/>
    <path id="Path_136" data-name="Path 136" d="M48.36,44.54h5.465c.33,0,.495.1.474.454-.021,1.629.186,1.3-1.237,1.32H50.691c-.309,0-.433.1-.454.433-.082,1.382-.1,1.382,1.3,1.382h1.856c.33,0,.495.082.474.454-.041,1.567.206,1.237-1.217,1.279H50.3v1.918h3.96v1.732h-5.9Z" transform="translate(32.297 35.419)" fill="#ff875c"/>
    <path id="Path_137" data-name="Path 137" d="M35.05,50.983h1.691a1,1,0,0,0,.536.949,1.588,1.588,0,0,0,1.072-.062,1.047,1.047,0,0,0,.557-1.011c0-1.877.021-3.733,0-5.61,0-.557.144-.784.7-.7a11.552,11.552,0,0,0,1.2,0c0,.247.041.433.041.619v5.775a2.431,2.431,0,0,1-2.619,2.7,5,5,0,0,1-1.361-.124,2.25,2.25,0,0,1-1.794-2.557Z" transform="translate(18.156 35.41)" fill="#ff875c"/>
  </g>
</svg>
