<svg id="Group_1572" data-name="Group 1572" xmlns="http://www.w3.org/2000/svg" width="73.757" height="77.164" viewBox="0 0 73.757 77.164">
  <path id="Path_2319" data-name="Path 2319" d="M42.993,59.327l-.686-.907-.735.858c-.245.294-5.981,7.158-5.981,12.133a6.692,6.692,0,1,0,13.384,0c0-4.363-5.736-11.79-5.981-12.109Z" transform="translate(-5.416 -28.368)" fill="#ff875c"/>
  <circle id="Ellipse_64" data-name="Ellipse 64" cx="1.128" cy="1.128" r="1.128" transform="translate(55.054 23.605)" fill="#ff875c"/>
  <path id="Path_2320" data-name="Path 2320" d="M92.306,111.485v-7.6a4.364,4.364,0,0,0,0-8.285V77.045a4.364,4.364,0,0,0,0-8.285v-7.6a5.989,5.989,0,0,0-1.275-11.839H81.913c-.515-1.275-1.838-3.162-5.27-3.162H69.314c-4,0-5.368,1.887-5.834,3.162H29.261a5.989,5.989,0,0,0-1.275,11.839v7.6a4.364,4.364,0,0,0,0,8.285V95.6a4.364,4.364,0,0,0,0,8.285v7.6a5.989,5.989,0,0,0,1.275,11.839H91.056a5.989,5.989,0,0,0,1.275-11.839ZM90.982,53h.049a2.3,2.3,0,1,1,0,4.608H29.236a2.3,2.3,0,1,1,0-4.608H90.982Zm-.1,47.455H86.178a1.228,1.228,0,0,0,0,2.451h2.451v9.658H31.639v-9.658h7.7a1.232,1.232,0,1,0,0-2.451H29.384a.711.711,0,0,1,0-1.422h17.06a16.716,16.716,0,0,0,1.5,1.446H43.478a1.228,1.228,0,1,0,0,2.451h8.064a18.612,18.612,0,0,0,17.207,0H82.035a1.227,1.227,0,1,0,0-2.451H72.353a20.647,20.647,0,0,0,1.5-1.446H90.933l.1.049a.761.761,0,0,1,.441.221.651.651,0,0,1,0,.931.76.76,0,0,1-.441.221c-.025,0-.049.049-.1.049ZM29.359,72.192H47.915a20.647,20.647,0,0,0-1.5,1.446H39.458a1.227,1.227,0,0,0,0,2.451h5.025a18.663,18.663,0,0,0,0,20.492H31.614V76.114h2.623a1.226,1.226,0,1,0,0-2.451H29.359a.711.711,0,1,1,0-1.422Zm55.887,0h5.638l.1.049a.641.641,0,0,1,.441.221.651.651,0,0,1,0,.931.761.761,0,0,1-.441.221c-.024,0-.049.049-.1.049H73.8a16.715,16.715,0,0,0-1.5-1.446h3.162a1.226,1.226,0,1,0,0-2.451H68.7a18.612,18.612,0,0,0-17.207,0H31.59V60.107H88.58v9.658H85.222a1.229,1.229,0,0,0,0,2.451ZM78.8,86.335a18.593,18.593,0,0,0-3.064-10.246H88.6V96.557H75.736A18.593,18.593,0,0,0,78.8,86.311ZM60.1,102.587A16.251,16.251,0,1,1,76.349,86.335,16.272,16.272,0,0,1,60.1,102.587Zm-30.64,17.085h-.27a2.3,2.3,0,0,1,0-4.608h61.77a2.3,2.3,0,0,1,0,4.608H29.506Z" transform="translate(-23.28 -46.16)" fill="#ff875c"/>
</svg>
