<svg xmlns="http://www.w3.org/2000/svg" width="142" height="142" viewBox="0 0 142 142">
  <g id="Group_5681" data-name="Group 5681" transform="translate(-1637 -3007)">
    <rect id="Rectangle_4910" data-name="Rectangle 4910" width="142" height="142" rx="71" transform="translate(1637 3007)" fill="#fff"/>
    <rect id="Rectangle_4942" data-name="Rectangle 4942" width="142" height="142" rx="71" transform="translate(1637 3007)" fill="#fff"/>
    <g id="Group_5517" data-name="Group 5517" transform="translate(1438.867 2448.971)">
      <g id="Group_5525" data-name="Group 5525" transform="translate(231.111 674.072)">
        <g id="Group_5520" data-name="Group 5520" transform="translate(53.556)">
          <g id="Group_5519" data-name="Group 5519">
            <g id="Group_5517-2" data-name="Group 5517">
              <path id="Path_11127" data-name="Path 11127" d="M251.188,613.209h-8.68a.929.929,0,1,1,0-1.858h8.68a.929.929,0,1,1,0,1.858Z" transform="translate(-241.579 -611.351)" fill="#f40" stroke="#f40" stroke-width="1.5"/>
            </g>
            <g id="Group_5518" data-name="Group 5518" transform="translate(16.012)">
              <path id="Path_11128" data-name="Path 11128" d="M251.012,613.209h-3.52a.929.929,0,1,1,0-1.858h3.52a.929.929,0,0,1,0,1.858Z" transform="translate(-246.56 -611.351)" fill="#f40" stroke="#f40" stroke-width="1.5"/>
            </g>
          </g>
        </g>
        <g id="Group_5524" data-name="Group 5524">
          <g id="Group_5523" data-name="Group 5523">
            <g id="Group_5521" data-name="Group 5521" transform="translate(10.856)">
              <path id="Path_11129" data-name="Path 11129" d="M237.9,613.209h-8.676a.929.929,0,1,1,0-1.858H237.9a.929.929,0,1,1,0,1.858Z" transform="translate(-228.296 -611.351)" fill="#f40" stroke="#f40" stroke-width="1.5"/>
            </g>
            <g id="Group_5522" data-name="Group 5522">
              <path id="Path_11130" data-name="Path 11130" d="M229.371,613.209h-3.523a.929.929,0,1,1,0-1.858h3.523a.929.929,0,1,1,0,1.858Z" transform="translate(-224.919 -611.351)" fill="#f40" stroke="#f40" stroke-width="1.5"/>
            </g>
          </g>
        </g>
      </g>
      <g id="Group_5526" data-name="Group 5526" transform="translate(238.341 583.03)">
        <path id="Path_11131" data-name="Path 11131" d="M257.411,650.856a24.61,24.61,0,0,1-24.579-24.583V586.791a1.9,1.9,0,1,0-3.806,0,.929.929,0,0,1-1.858,0,3.761,3.761,0,0,1,7.522,0v39.482a22.721,22.721,0,1,0,45.443,0V586.791a3.761,3.761,0,0,1,7.522,0,.929.929,0,0,1-1.858,0,1.9,1.9,0,1,0-3.8,0v39.482A24.613,24.613,0,0,1,257.411,650.856Z" transform="translate(-227.168 -583.03)" fill="#f40" stroke="#f40" stroke-width="1.5"/>
      </g>
      <g id="Group_5527" data-name="Group 5527" transform="translate(250.695 657.109)">
        <path id="Path_11132" data-name="Path 11132" d="M265.864,624.9H231.94a.932.932,0,0,1-.929-.929,17.893,17.893,0,1,1,35.786,0A.932.932,0,0,1,265.864,624.9Zm-32.97-1.858h32.018a16.036,16.036,0,0,0-32.018,0Z" transform="translate(-231.011 -606.074)" fill="#f40" stroke="#f40" stroke-width="1.5"/>
      </g>
      <g id="Group_5528" data-name="Group 5528" transform="translate(267.655 648.998)">
        <path id="Path_11133" data-name="Path 11133" d="M237.216,613.536a.932.932,0,0,1-.929-.929V604.48a.929.929,0,1,1,1.858,0v8.126A.932.932,0,0,1,237.216,613.536Z" transform="translate(-236.287 -603.551)" fill="#f40" stroke="#f40" stroke-width="1.5"/>
      </g>
      <g id="Group_5530" data-name="Group 5530" transform="translate(222.123 595.442)">
        <g id="Group_5529" data-name="Group 5529">
          <path id="Path_11134" data-name="Path 11134" d="M244.934,620.87h-5.822a16.99,16.99,0,1,1,0-33.979h5.822a.932.932,0,0,1,.929.929v6.568a.932.932,0,0,1-.929.929h-5.822a8.564,8.564,0,0,0,0,17.128h5.822a.931.931,0,0,1,.929.929v6.567A.932.932,0,0,1,244.934,620.87Zm-5.822-32.121a15.131,15.131,0,1,0,0,30.263h4.893V614.3h-4.893a10.422,10.422,0,1,1,0-20.844h4.893v-4.709Z" transform="translate(-222.123 -586.891)" fill="#f40" stroke="#f40" stroke-width="1.5"/>
        </g>
      </g>
      <g id="Group_5532" data-name="Group 5532" transform="translate(291.306 595.442)">
        <g id="Group_5531" data-name="Group 5531">
          <path id="Path_11135" data-name="Path 11135" d="M250.4,620.87h-5.822a.932.932,0,0,1-.932-.929v-6.567a.932.932,0,0,1,.932-.929H250.4a8.564,8.564,0,0,0,0-17.128h-5.822a.932.932,0,0,1-.932-.929V587.82a.932.932,0,0,1,.932-.929H250.4a16.99,16.99,0,1,1,0,33.979Zm-4.893-1.858H250.4a15.131,15.131,0,1,0,0-30.263h-4.893v4.709H250.4a10.422,10.422,0,1,1,0,20.844h-4.893Z" transform="translate(-243.644 -586.891)" fill="#f40" stroke="#f40" stroke-width="1.5"/>
        </g>
      </g>
      <g id="Group_5533" data-name="Group 5533" transform="translate(249.808 585.576)">
        <path id="Path_11136" data-name="Path 11136" d="M233.738,585.68h-2.073a.929.929,0,0,1,0-1.858h2.073a.929.929,0,0,1,0,1.858Z" transform="translate(-230.735 -583.822)" fill="#f40" stroke="#f40" stroke-width="1.5"/>
      </g>
      <g id="Group_5534" data-name="Group 5534" transform="translate(256.767 585.576)">
        <path id="Path_11137" data-name="Path 11137" d="M241.387,585.68h-7.558a.929.929,0,0,1,0-1.858h7.558a.929.929,0,0,1,0,1.858Z" transform="translate(-232.9 -583.822)" fill="#f40" stroke="#f40" stroke-width="1.5"/>
      </g>
      <g id="Group_5535" data-name="Group 5535" transform="translate(270.433 585.576)">
        <path id="Path_11138" data-name="Path 11138" d="M258.956,585.68H238.08a.929.929,0,0,1,0-1.858h20.876a.929.929,0,0,1,0,1.858Z" transform="translate(-237.151 -583.822)" fill="#f40" stroke="#f40" stroke-width="1.5"/>
      </g>
      <g id="Group_5536" data-name="Group 5536" transform="translate(255.253 604.452)">
        <path id="Path_11139" data-name="Path 11139" d="M238.965,615.286a2.342,2.342,0,0,1-2.3-2.736l1.045-6.108a.473.473,0,0,0-.135-.424l-4.44-4.321a2.344,2.344,0,0,1,1.3-3.993l6.127-.89a.464.464,0,0,0,.36-.26L243.668,591a2.325,2.325,0,0,1,2.089-1.305h0a2.323,2.323,0,0,1,2.1,1.305l2.742,5.555a.483.483,0,0,0,.36.26l6.137.89h0a2.343,2.343,0,0,1,1.292,3.993l-4.433,4.321a.474.474,0,0,0-.141.424l1.048,6.108a2.336,2.336,0,0,1-3.391,2.462l-5.487-2.88a.454.454,0,0,0-.444,0l-5.481,2.88A2.333,2.333,0,0,1,238.965,615.286Zm6.8-23.734h0a.467.467,0,0,0-.428.267l-2.745,5.558a2.331,2.331,0,0,1-1.762,1.276l-6.124.893a.48.48,0,0,0-.267.82l4.436,4.32a2.356,2.356,0,0,1,.672,2.07l-1.048,6.1a.472.472,0,0,0,.193.472.452.452,0,0,0,.5.036l5.481-2.884a2.353,2.353,0,0,1,2.18,0l5.484,2.884a.48.48,0,0,0,.694-.508l-1.048-6.1a2.336,2.336,0,0,1,.678-2.07l4.43-4.32a.488.488,0,0,0,.125-.495.477.477,0,0,0-.389-.325l-6.134-.893a2.342,2.342,0,0,1-1.762-1.276l-2.736-5.558A.477.477,0,0,0,245.76,591.552Z" transform="translate(-232.429 -589.694)" fill="#f40" stroke="#f40" stroke-width="1.5"/>
      </g>
    </g>
  </g>
</svg>
