<svg xmlns="http://www.w3.org/2000/svg" width="142" height="142" viewBox="0 0 142 142">
  <g id="Group_5676" data-name="Group 5676" transform="translate(-141 -3007)">
    <rect id="Rectangle_4905" data-name="Rectangle 4905" width="142" height="142" rx="71" transform="translate(141 3007)" fill="#fff"/>
    <g id="Group_5516" data-name="Group 5516" transform="translate(-1.949)">
      <g id="Group_761" data-name="Group 761" transform="translate(-1460.062 4176.742)">
        <path id="Path_41" data-name="Path 41" d="M376.782,138.906a22.977,22.977,0,0,0,1.861-8.387c-.02-.333-.033-.666-.033-1a16.542,16.542,0,1,1,30.83,8.326h0l5.565,5.143a24,24,0,1,0-40.094-.575,24.68,24.68,0,0,0,1.868-3.5" transform="translate(1297.145 -1228.258)" fill="#e03c00"/>
        <path id="Path_42" data-name="Path 42" d="M399.9,151.613v15.938a16.539,16.539,0,0,1-14.816-9.186,25.134,25.134,0,0,1-1.093,3.079,27.274,27.274,0,0,1-2.657,4.772,24,24,0,0,0,26.039,7.6l.034-.005V169.07l5.939,5.939H423.45c-.564,0-23.551-23.4-23.551-23.4" transform="translate(1292.398 -1249.751)" fill="#e03c00"/>
        <path id="Path_43" data-name="Path 43" d="M341.427,120.348a24.919,24.919,0,0,0-1.908-3.57,24.633,24.633,0,0,0-1.875,3.57,23.194,23.194,0,0,0-1.83,8.356h-.034q.022.457.023.922a16.734,16.734,0,0,1-1.284,6.546A17.076,17.076,0,0,1,331,141.527a16.561,16.561,0,0,1-5.2,3.609,16.493,16.493,0,0,1-12.908,0,17,17,0,0,1-5.261-3.64,16.572,16.572,0,0,1-3.548-5.352,17.022,17.022,0,0,1-1.254-6.576,17.527,17.527,0,0,1,1.223-6.515,16.424,16.424,0,0,1,8.717-9.084A16.192,16.192,0,0,1,331,117.608a17.745,17.745,0,0,1,3.155,4.609,25.443,25.443,0,0,1,1.022-2.891,27.233,27.233,0,0,1,2.673-4.845q-.777-.947-1.652-1.826a24.648,24.648,0,0,0-7.694-5.227,23.754,23.754,0,0,0-18.538,0,24.555,24.555,0,0,0-12.792,12.921,23.308,23.308,0,0,0-1.851,9.221,23.76,23.76,0,0,0,23.96,23.96,23.478,23.478,0,0,0,9.285-1.851,24.232,24.232,0,0,0,12.857-12.76,23.84,23.84,0,0,0,0-18.571" transform="translate(1332.5 -1228.271)" fill="#f40"/>
        <path id="Path_44" data-name="Path 44" d="M383.543,114.473a21.11,21.11,0,0,0-5.9,6.469c-2.4,4.161,3.79,11.405,3.79,11.405a32.7,32.7,0,0,1,2.111-17.874" transform="translate(1294.378 -1232.434)" fill="#f40"/>
      </g>
      <g id="clean_code" data-name="clean code" transform="translate(142 3003.191)">
        <line id="Line_94" data-name="Line 94" y2="17.709" transform="translate(109.279 38.1)" fill="none" stroke="#f40" stroke-linecap="round" stroke-linejoin="round" stroke-width="4"/>
        <line id="Line_95" data-name="Line 95" x1="15.938" transform="translate(102.195 46.955)" fill="none" stroke="#f40" stroke-linecap="round" stroke-linejoin="round" stroke-width="4"/>
      </g>
    </g>
  </g>
</svg>
