<svg xmlns="http://www.w3.org/2000/svg" width="142" height="142" viewBox="0 0 142 142">
  <g id="Group_5677" data-name="Group 5677" transform="translate(-440 -3007)">
    <rect id="Rectangle_4906" data-name="Rectangle 4906" width="142" height="142" rx="71" transform="translate(440 3007)" fill="#fff"/>
    <g id="Group_5556" data-name="Group 5556" transform="translate(365.488 2452.459)">
      <g id="Group_5550" data-name="Group 5550" transform="translate(92.042 587.317)">
        <path id="Path_11151" data-name="Path 11151" d="M193.71,642.6H150.682a1.079,1.079,0,0,1,0-2.158H193.71a3.939,3.939,0,0,0,3.937-3.933,10.836,10.836,0,0,0-10.822-10.826,1.078,1.078,0,0,1-1.077-1.077A19.372,19.372,0,0,0,166.4,605.259h-9.379a1.078,1.078,0,0,1-1.077-1.077,14.707,14.707,0,0,0-29.413,0,1.078,1.078,0,0,1-1.077,1.077,9.709,9.709,0,0,0-9.7,9.7,1.079,1.079,0,0,1-1.077,1.081,9.711,9.711,0,0,0-9.7,9.7,1.078,1.078,0,0,1-1.077,1.077,9.709,9.709,0,0,0-9.7,9.7,3.937,3.937,0,0,0,3.937,3.933h43.028a1.079,1.079,0,0,1,0,2.158H98.133a6.1,6.1,0,0,1-6.091-6.091A11.867,11.867,0,0,1,102.86,624.7a11.878,11.878,0,0,1,10.777-10.777,11.866,11.866,0,0,1,10.763-10.77,16.863,16.863,0,0,1,33.66-.048H166.4a21.531,21.531,0,0,1,21.48,20.47A12.994,12.994,0,0,1,199.8,636.511,6.1,6.1,0,0,1,193.71,642.6Z" transform="translate(-92.042 -587.317)" fill="#f40" stroke="#f40" stroke-width="1.5"/>
      </g>
      <g id="Group_5551" data-name="Group 5551" transform="translate(131.405 612.137)">
        <path id="Path_11152" data-name="Path 11152" d="M121.879,633.51a1.078,1.078,0,0,1-1.077-1.077V615.869a3.71,3.71,0,0,1,3.7-3.709h3.422a1.546,1.546,0,0,0,1.189-2.535l-10.807-12.939a1.6,1.6,0,0,0-2.378,0l-10.807,12.939a1.546,1.546,0,0,0,1.189,2.535h3.422a3.713,3.713,0,0,1,3.7,3.709v16.563a1.077,1.077,0,1,1-2.155,0V615.869a1.549,1.549,0,0,0-1.547-1.551h-3.422a3.7,3.7,0,0,1-2.844-6.077l10.811-12.94a3.678,3.678,0,0,1,2.841-1.327h0a3.684,3.684,0,0,1,2.841,1.327l10.807,12.94a3.7,3.7,0,0,1-2.841,6.077H124.5a1.549,1.549,0,0,0-1.547,1.551v16.563A1.078,1.078,0,0,1,121.879,633.51Z" transform="translate(-102.601 -593.975)" fill="#f40" stroke="#f40" stroke-width="1.5"/>
      </g>
      <g id="Group_5552" data-name="Group 5552" transform="translate(140.084 653.917)">
        <path id="Path_11153" data-name="Path 11153" d="M106.006,609.611a1.078,1.078,0,0,1-1.077-1.078v-2.274a1.077,1.077,0,0,1,2.155,0v2.274A1.08,1.08,0,0,1,106.006,609.611Z" transform="translate(-104.929 -605.182)" fill="#f40" stroke="#f40" stroke-width="1.5"/>
      </g>
      <g id="Group_5553" data-name="Group 5553" transform="translate(140.084 660.358)">
        <path id="Path_11154" data-name="Path 11154" d="M106.006,609.643a1.079,1.079,0,0,1-1.077-1.081v-.574a1.077,1.077,0,0,1,2.155,0v.574A1.081,1.081,0,0,1,106.006,609.643Z" transform="translate(-104.929 -606.91)" fill="#f40" stroke="#f40" stroke-width="1.5"/>
      </g>
      <g id="Group_5554" data-name="Group 5554" transform="translate(149.478 653.917)">
        <path id="Path_11155" data-name="Path 11155" d="M108.526,609.611a1.078,1.078,0,0,1-1.077-1.078v-2.274a1.077,1.077,0,0,1,2.155,0v2.274A1.08,1.08,0,0,1,108.526,609.611Z" transform="translate(-107.449 -605.182)" fill="#f40" stroke="#f40" stroke-width="1.5"/>
      </g>
      <g id="Group_5555" data-name="Group 5555" transform="translate(149.478 660.358)">
        <path id="Path_11156" data-name="Path 11156" d="M108.526,609.643a1.079,1.079,0,0,1-1.077-1.081v-.574a1.077,1.077,0,0,1,2.155,0v.574A1.081,1.081,0,0,1,108.526,609.643Z" transform="translate(-107.449 -606.91)" fill="#f40" stroke="#f40" stroke-width="1.5"/>
      </g>
    </g>
  </g>
</svg>
