<svg xmlns="http://www.w3.org/2000/svg" width="142" height="142" viewBox="0 0 142 142">
  <g id="Group_5678" data-name="Group 5678" transform="translate(-739 -3007)">
    <rect id="Rectangle_4907" data-name="Rectangle 4907" width="142" height="142" rx="71" transform="translate(739 3007)" fill="#fff"/>
    <g id="Group_5546" data-name="Group 5546" transform="translate(599.643 2496)">
      <g id="Group_5546-2" data-name="Group 5546" transform="translate(198.762 539.666)">
        <path id="Path_11148" data-name="Path 11148" d="M205.316,599.308a.8.8,0,0,1-.143-.012,19.311,19.311,0,0,1-16.063-19.077v-21.2a19.357,19.357,0,0,1,38.714,0v21.2a.846.846,0,1,1-1.693,0v-21.2a17.664,17.664,0,0,0-35.328,0v21.2a17.625,17.625,0,0,0,14.654,17.407.847.847,0,0,1-.141,1.681Zm0-7.176a.935.935,0,0,1-.234-.032,12.4,12.4,0,0,1-8.963-11.88v-21.2a12.35,12.35,0,0,1,24.7,0v21.2a12.375,12.375,0,0,1-8.213,11.64.847.847,0,0,1-.568-1.6,10.676,10.676,0,0,0,7.085-10.044v-21.2a10.656,10.656,0,1,0-21.312,0v21.2a10.7,10.7,0,0,0,7.736,10.252.847.847,0,0,1-.231,1.661Z" transform="translate(-189.109 -539.666)" fill="#f40" stroke="#f40" stroke-width="1"/>
      </g>
      <g id="Group_5547" data-name="Group 5547" transform="translate(184.105 564.69)">
        <path id="Path_11149" data-name="Path 11149" d="M203.463,607.853A19.38,19.38,0,0,1,184.105,588.5V571.954a.848.848,0,0,1,1.7,0V588.5a17.662,17.662,0,1,0,35.325,0V567.3a17.618,17.618,0,0,0-14.651-17.411.849.849,0,0,1-.691-.978.839.839,0,0,1,.978-.691,19.312,19.312,0,0,1,16.057,19.08V588.5A19.38,19.38,0,0,1,203.463,607.853Zm0-7A12.366,12.366,0,0,1,191.114,588.5V567.3a12.376,12.376,0,0,1,8.213-11.643.847.847,0,1,1,.565,1.6,10.674,10.674,0,0,0-7.085,10.047V588.5a10.656,10.656,0,1,0,21.312,0V567.3a10.7,10.7,0,0,0-7.712-10.246.851.851,0,0,1-.583-1.049.864.864,0,0,1,1.052-.58,12.4,12.4,0,0,1,8.94,11.875V588.5A12.367,12.367,0,0,1,203.463,600.85Zm-18.512-32.7a.849.849,0,0,1-.847-.846,19.2,19.2,0,0,1,1.555-7.6.846.846,0,1,1,1.555.668A17.544,17.544,0,0,0,185.8,567.3.849.849,0,0,1,184.952,568.15Zm3.612-10.972a.836.836,0,0,1-.5-.167.846.846,0,0,1-.182-1.183q.448-.61.949-1.186a.847.847,0,1,1,1.28,1.11c-.3.349-.592.709-.867,1.078A.84.84,0,0,1,188.563,557.177Zm3.512-3.615a.846.846,0,0,1-.521-1.511,19.415,19.415,0,0,1,7.879-3.688.848.848,0,1,1,.354,1.658,17.741,17.741,0,0,0-7.191,3.363A.844.844,0,0,1,192.075,553.563Z" transform="translate(-184.105 -548.209)" fill="#f40" stroke="#f40" stroke-width="1"/>
      </g>
      <g id="Group_5548" data-name="Group 5548" transform="translate(198.762 539.666)">
        <path id="Path_11150" data-name="Path 11150" d="M212.319,599.2a.827.827,0,0,1-.533-.19.843.843,0,0,1-.313-.656l0-7.29a.85.85,0,0,1,.562-.8,10.676,10.676,0,0,0,7.085-10.044v-21.2a10.656,10.656,0,1,0-21.312,0v21.2a.847.847,0,1,1-1.693,0v-21.2a12.35,12.35,0,0,1,24.7,0v21.2a12.374,12.374,0,0,1-7.651,11.424l0,5.641a17.685,17.685,0,0,0,12.964-17.065v-21.2a17.664,17.664,0,0,0-35.328,0v21.2a.846.846,0,1,1-1.693,0v-21.2a19.357,19.357,0,0,1,38.714,0v21.2a19.356,19.356,0,0,1-15.334,18.963A.811.811,0,0,1,212.319,599.2Z" transform="translate(-189.109 -539.666)" fill="#f40" stroke="#f40" stroke-width="1"/>
      </g>
    </g>
  </g>
</svg>
