<svg xmlns="http://www.w3.org/2000/svg" xmlns:xlink="http://www.w3.org/1999/xlink" width="261" height="299" viewBox="0 0 261 299">
  <defs>
    <clipPath id="clip-path">
      <rect id="Rectangle_2898" data-name="Rectangle 2898" width="261" height="299" transform="translate(0 -0.225)" fill="#fff" stroke="#707070" stroke-width="1"/>
    </clipPath>
    <clipPath id="clip-path-2">
      <rect id="Rectangle_2891" data-name="Rectangle 2891" width="302.874" height="300.695" fill="none" stroke="rgba(0,0,0,0)" stroke-width="1"/>
    </clipPath>
  </defs>
  <g id="Mask_Group_151" data-name="Mask Group 151" transform="translate(0 0.225)" clip-path="url(#clip-path)">
    <g id="Group_2987" data-name="Group 2987" transform="translate(-42.392 -2.396)">
      <g id="Group_2974" data-name="Group 2974">
        <g id="Group_2973" data-name="Group 2973" clip-path="url(#clip-path-2)">
          <path id="Path_7175" data-name="Path 7175" d="M204.339,425.894,234.489,376h-60.3Z" transform="translate(-52.903 -375.335)" fill="none" stroke="#f40" stroke-width="1"/>
        </g>
      </g>
      <path id="Path_7176" data-name="Path 7176" d="M204.339,275.894,234.489,226h-60.3Z" transform="translate(-52.903 -125.547)" fill="none" stroke="#f40" stroke-width="1"/>
      <g id="Group_2976" data-name="Group 2976">
        <g id="Group_2975" data-name="Group 2975" clip-path="url(#clip-path-2)">
          <path id="Path_7177" data-name="Path 7177" d="M290.98,425.894,321.131,376h-60.3Z" transform="translate(-199.873 -375.335)" fill="none" stroke="#f40" stroke-width="1"/>
          <path id="Path_7178" data-name="Path 7178" d="M117.658,425.894,147.809,376h-60.3Z" transform="translate(94.133 -375.335)" fill="none" stroke="#f40" stroke-width="1"/>
        </g>
      </g>
      <path id="Path_7179" data-name="Path 7179" d="M247.679,350.894,277.829,301h-60.3Z" transform="translate(-126.421 -250.441)" fill="none" stroke="#f40" stroke-width="1"/>
      <path id="Path_7180" data-name="Path 7180" d="M161,350.894,191.149,301h-60.3Z" transform="translate(20.615 -250.441)" fill="none" stroke="#f40" stroke-width="1"/>
      <path id="Path_7181" data-name="Path 7181" d="M161.018,226l-30.151,49.894h60.3Z" transform="translate(20.582 -125.547)" fill="none" stroke="#f40" stroke-width="1"/>
      <path id="Path_7182" data-name="Path 7182" d="M117.678,301,87.527,350.894h60.3Z" transform="translate(94.1 -250.441)" fill="none" stroke="#f40" stroke-width="1"/>
      <g id="Group_2978" data-name="Group 2978">
        <g id="Group_2977" data-name="Group 2977" clip-path="url(#clip-path-2)">
          <path id="Path_7183" data-name="Path 7183" d="M31.017,425.894,61.168,376H.866Z" transform="translate(241.103 -375.335)" fill="none" stroke="#f40" stroke-width="1"/>
        </g>
      </g>
      <path id="Path_7184" data-name="Path 7184" d="M74.357,350.894,104.508,301h-60.3Z" transform="translate(167.585 -250.441)" fill="#f40" stroke="rgba(0,0,0,0)" stroke-width="1"/>
      <path id="Path_7185" data-name="Path 7185" d="M74.357,350.894,104.508,301h-60.3Z" transform="translate(167.585 -250.441)" fill="none" stroke="#f40" stroke-width="1"/>
      <g id="Group_2980" data-name="Group 2980">
        <g id="Group_2979" data-name="Group 2979" clip-path="url(#clip-path-2)">
          <path id="Path_7186" data-name="Path 7186" d="M31.036,301,.886,350.894h60.3Z" transform="translate(241.07 -250.441)" fill="none" stroke="#f40" stroke-width="1"/>
          <path id="Path_7187" data-name="Path 7187" d="M377.568,425.894,407.718,376h-60.3Z" transform="translate(-346.753 -375.335)" fill="none" stroke="#f40" stroke-width="1"/>
        </g>
      </g>
      <path id="Path_7188" data-name="Path 7188" d="M334.247,226,304.1,275.894h60.3Z" transform="translate(-273.267 -125.547)" fill="none" stroke="#f40" stroke-width="1"/>
      <g id="Group_2982" data-name="Group 2982">
        <g id="Group_2981" data-name="Group 2981" clip-path="url(#clip-path-2)">
          <path id="Path_7189" data-name="Path 7189" d="M334.247,376,304.1,425.894h60.3Z" transform="translate(-273.267 -375.335)" fill="none" stroke="#f40" stroke-width="1"/>
        </g>
      </g>
      <path id="Path_7190" data-name="Path 7190" d="M247.606,226l-30.151,49.894h60.3Z" transform="translate(-126.297 -125.547)" fill="none" stroke="#f40" stroke-width="1"/>
      <path id="Path_7191" data-name="Path 7191" d="M290.907,301l-30.151,49.894h60.3Z" transform="translate(-199.75 -250.441)" fill="none" stroke="#f40" stroke-width="1"/>
      <g id="Group_2984" data-name="Group 2984">
        <g id="Group_2983" data-name="Group 2983" clip-path="url(#clip-path-2)">
          <path id="Path_7192" data-name="Path 7192" d="M377.587,301l-30.151,49.894h60.3Z" transform="translate(-346.786 -250.441)" fill="none" stroke="#f40" stroke-width="1"/>
        </g>
      </g>
      <path id="Path_7193" data-name="Path 7193" d="M334.315,200.894,364.466,151h-60.3Z" transform="translate(-273.384 -0.653)" fill="none" stroke="#f40" stroke-width="1"/>
      <g id="Group_2986" data-name="Group 2986">
        <g id="Group_2985" data-name="Group 2985" clip-path="url(#clip-path-2)">
          <path id="Path_7194" data-name="Path 7194" d="M334.315,50.894,364.466,1h-60.3Z" transform="translate(-273.384 249.136)" fill="none" stroke="#f40" stroke-width="1"/>
          <path id="Path_7195" data-name="Path 7195" d="M377.656,125.894,407.806,76H347.5Z" transform="translate(-346.902 124.242)" fill="none" stroke="#f40" stroke-width="1"/>
          <path id="Path_7196" data-name="Path 7196" d="M290.995,1,260.844,50.894h60.3Z" transform="translate(-199.899 249.136)" fill="none" stroke="#f40" stroke-width="1"/>
        </g>
      </g>
    </g>
  </g>
</svg>
