<svg xmlns="http://www.w3.org/2000/svg" xmlns:xlink="http://www.w3.org/1999/xlink" width="377" height="592" viewBox="0 0 377 592">
  <defs>
    <clipPath id="clip-path">
      <rect id="Rectangle_2858" data-name="Rectangle 2858" width="377" height="592" transform="translate(1543 5718)" fill="#fff" stroke="#707070" stroke-width="1"/>
    </clipPath>
    <clipPath id="clip-path-2">
      <rect id="Rectangle_2851" data-name="Rectangle 2851" width="474.229" height="494.076" fill="none"/>
    </clipPath>
  </defs>
  <g id="Mask_Group_144" data-name="Mask Group 144" transform="translate(-1543 -5718)" clip-path="url(#clip-path)">
    <g id="Group_2919" data-name="Group 2919" transform="translate(1543.5 5815.924)">
      <g id="Group_2906" data-name="Group 2906">
        <g id="Group_2905" data-name="Group 2905" clip-path="url(#clip-path-2)">
          <path id="Path_7058" data-name="Path 7058" d="M221.4,376l-47.209,81.982h94.418Z" transform="translate(15.72 35.001)" fill="none" stroke="#f40" stroke-width="1"/>
        </g>
      </g>
      <path id="Path_7059" data-name="Path 7059" d="M221.4,226l-47.209,81.982h94.418Z" transform="translate(15.72 21.038)" fill="none" stroke="#f40" stroke-width="1"/>
      <g id="Group_2908" data-name="Group 2908">
        <g id="Group_2907" data-name="Group 2907" clip-path="url(#clip-path-2)">
          <path id="Path_7060" data-name="Path 7060" d="M308.038,376l-47.209,81.982h94.418Z" transform="translate(23.54 35.001)" fill="none" stroke="#f40" stroke-width="1"/>
          <path id="Path_7061" data-name="Path 7061" d="M134.717,376,87.508,457.982h94.418Z" transform="translate(7.898 35.001)" fill="none" stroke="#f40" stroke-width="1"/>
        </g>
      </g>
      <path id="Path_7062" data-name="Path 7062" d="M264.737,301l-47.209,81.982h94.418Z" transform="translate(19.632 28.02)" fill="none" stroke="#f40" stroke-width="1"/>
      <path id="Path_7063" data-name="Path 7063" d="M178.057,301l-47.209,81.982h94.418Z" transform="translate(11.809 28.02)" fill="none" stroke="#f40" stroke-width="1"/>
      <path id="Path_7064" data-name="Path 7064" d="M178.076,307.982,225.285,226H130.867Z" transform="translate(11.811 21.038)" fill="none" stroke="#f40" stroke-width="1"/>
      <path id="Path_7065" data-name="Path 7065" d="M134.736,382.982,181.945,301H87.527Z" transform="translate(7.899 28.02)" fill="none" stroke="#f40" stroke-width="1"/>
      <g id="Group_2910" data-name="Group 2910">
        <g id="Group_2909" data-name="Group 2909" clip-path="url(#clip-path-2)">
          <path id="Path_7066" data-name="Path 7066" d="M48.075,376,.866,457.982H95.284Z" transform="translate(0.078 35.001)" fill="none" stroke="#f40" stroke-width="1"/>
        </g>
      </g>
      <path id="Path_7067" data-name="Path 7067" d="M91.415,301,44.206,382.982h94.418Z" transform="translate(3.99 28.02)" fill="#f40"/>
      <path id="Path_7068" data-name="Path 7068" d="M91.415,301,44.206,382.982h94.418Z" transform="translate(3.99 28.02)" fill="none" stroke="#f40" stroke-width="1"/>
      <g id="Group_2912" data-name="Group 2912">
        <g id="Group_2911" data-name="Group 2911" clip-path="url(#clip-path-2)">
          <path id="Path_7069" data-name="Path 7069" d="M48.095,382.982,95.3,301H.886Z" transform="translate(0.08 28.02)" fill="none" stroke="#f40" stroke-width="1"/>
          <path id="Path_7070" data-name="Path 7070" d="M394.626,376l-47.209,81.982h94.418Z" transform="translate(31.354 35.001)" fill="none" stroke="#f40" stroke-width="1"/>
        </g>
      </g>
      <path id="Path_7071" data-name="Path 7071" d="M351.305,307.982,398.514,226H304.1Z" transform="translate(27.445 21.038)" fill="none" stroke="#f40" stroke-width="1"/>
      <g id="Group_2914" data-name="Group 2914">
        <g id="Group_2913" data-name="Group 2913" clip-path="url(#clip-path-2)">
          <path id="Path_7072" data-name="Path 7072" d="M351.305,457.982,398.514,376H304.1Z" transform="translate(27.445 35.001)" fill="none" stroke="#f40" stroke-width="1"/>
        </g>
      </g>
      <path id="Path_7073" data-name="Path 7073" d="M264.664,307.982,311.873,226H217.455Z" transform="translate(19.625 21.038)" fill="none" stroke="#f40" stroke-width="1"/>
      <path id="Path_7074" data-name="Path 7074" d="M307.965,382.982,355.174,301H260.756Z" transform="translate(23.533 28.02)" fill="none" stroke="#f40" stroke-width="1"/>
      <g id="Group_2916" data-name="Group 2916">
        <g id="Group_2915" data-name="Group 2915" clip-path="url(#clip-path-2)">
          <path id="Path_7075" data-name="Path 7075" d="M394.645,382.982,441.854,301H347.436Z" transform="translate(31.356 28.02)" fill="none" stroke="#f40" stroke-width="1"/>
        </g>
      </g>
      <path id="Path_7076" data-name="Path 7076" d="M351.374,151l-47.209,81.982h94.418Z" transform="translate(27.451 14.056)" fill="none" stroke="#f40" stroke-width="1"/>
      <g id="Group_2918" data-name="Group 2918">
        <g id="Group_2917" data-name="Group 2917" clip-path="url(#clip-path-2)">
          <path id="Path_7077" data-name="Path 7077" d="M351.374,1,304.165,82.982h94.418Z" transform="translate(27.451 0.093)" fill="none" stroke="#f40" stroke-width="1"/>
          <path id="Path_7078" data-name="Path 7078" d="M394.714,76,347.5,157.982h94.418Z" transform="translate(31.362 7.075)" fill="none" stroke="#f40" stroke-width="1"/>
          <path id="Path_7079" data-name="Path 7079" d="M308.053,82.982,355.262,1H260.844Z" transform="translate(23.541 0.093)" fill="none" stroke="#f40" stroke-width="1"/>
        </g>
      </g>
    </g>
  </g>
</svg>
