<svg xmlns="http://www.w3.org/2000/svg" xmlns:xlink="http://www.w3.org/1999/xlink" width="261" height="299" viewBox="0 0 261 299">
  <defs>
    <clipPath id="clip-path">
      <rect id="Rectangle_2906" data-name="Rectangle 2906" width="261" height="299" transform="translate(0 -0.225)" fill="#fff" stroke="#707070" stroke-width="1"/>
    </clipPath>
    <clipPath id="clip-path-2">
      <rect id="Rectangle_2899" data-name="Rectangle 2899" width="302.874" height="300.695" fill="none" stroke="rgba(0,0,0,0)" stroke-width="1"/>
    </clipPath>
  </defs>
  <g id="Mask_Group_152" data-name="Mask Group 152" transform="translate(0 0.225)" clip-path="url(#clip-path)">
    <g id="Group_3002" data-name="Group 3002" transform="translate(0.518 -2.396)">
      <g id="Group_2989" data-name="Group 2989">
        <g id="Group_2988" data-name="Group 2988" clip-path="url(#clip-path-2)">
          <path id="Path_7197" data-name="Path 7197" d="M204.339,425.894,174.188,376h60.3Z" transform="translate(-52.9 -375.335)" fill="none" stroke="#f40" stroke-width="1"/>
        </g>
      </g>
      <path id="Path_7198" data-name="Path 7198" d="M204.339,275.894,174.188,226h60.3Z" transform="translate(-52.9 -125.547)" fill="none" stroke="#f40" stroke-width="1"/>
      <g id="Group_2991" data-name="Group 2991">
        <g id="Group_2990" data-name="Group 2990" clip-path="url(#clip-path-2)">
          <path id="Path_7199" data-name="Path 7199" d="M290.98,425.894,260.829,376h60.3Z" transform="translate(-79.212 -375.335)" fill="none" stroke="#f40" stroke-width="1"/>
          <path id="Path_7200" data-name="Path 7200" d="M117.658,425.894,87.508,376h60.3Z" transform="translate(-26.576 -375.335)" fill="none" stroke="#f40" stroke-width="1"/>
        </g>
      </g>
      <path id="Path_7201" data-name="Path 7201" d="M247.679,350.894,217.528,301h60.3Z" transform="translate(-66.062 -250.441)" fill="none" stroke="#f40" stroke-width="1"/>
      <path id="Path_7202" data-name="Path 7202" d="M161,350.894,130.848,301h60.3Z" transform="translate(-39.738 -250.441)" fill="none" stroke="#f40" stroke-width="1"/>
      <path id="Path_7203" data-name="Path 7203" d="M161.018,226l30.151,49.894h-60.3Z" transform="translate(-39.744 -125.547)" fill="none" stroke="#f40" stroke-width="1"/>
      <path id="Path_7204" data-name="Path 7204" d="M117.678,301l30.151,49.894h-60.3Z" transform="translate(-26.582 -250.441)" fill="none" stroke="#f40" stroke-width="1"/>
      <g id="Group_2993" data-name="Group 2993">
        <g id="Group_2992" data-name="Group 2992" clip-path="url(#clip-path-2)">
          <path id="Path_7205" data-name="Path 7205" d="M31.017,425.894.866,376h60.3Z" transform="translate(-0.263 -375.335)" fill="none" stroke="#f40" stroke-width="1"/>
        </g>
      </g>
      <path id="Path_7206" data-name="Path 7206" d="M74.357,350.894,44.206,301h60.3Z" transform="translate(-13.425 -250.441)" fill="#f40" stroke="rgba(0,0,0,0)" stroke-width="1"/>
      <path id="Path_7207" data-name="Path 7207" d="M74.357,350.894,44.206,301h60.3Z" transform="translate(-13.425 -250.441)" fill="none" stroke="#f40" stroke-width="1"/>
      <g id="Group_2995" data-name="Group 2995">
        <g id="Group_2994" data-name="Group 2994" clip-path="url(#clip-path-2)">
          <path id="Path_7208" data-name="Path 7208" d="M31.036,301l30.151,49.894H.886Z" transform="translate(-0.269 -250.441)" fill="none" stroke="#f40" stroke-width="1"/>
          <path id="Path_7209" data-name="Path 7209" d="M377.568,425.894,347.417,376h60.3Z" transform="translate(-105.509 -375.335)" fill="none" stroke="#f40" stroke-width="1"/>
        </g>
      </g>
      <path id="Path_7210" data-name="Path 7210" d="M334.247,226,364.4,275.894H304.1Z" transform="translate(-92.352 -125.547)" fill="none" stroke="#f40" stroke-width="1"/>
      <g id="Group_2997" data-name="Group 2997">
        <g id="Group_2996" data-name="Group 2996" clip-path="url(#clip-path-2)">
          <path id="Path_7211" data-name="Path 7211" d="M334.247,376,364.4,425.894H304.1Z" transform="translate(-92.352 -375.335)" fill="none" stroke="#f40" stroke-width="1"/>
        </g>
      </g>
      <path id="Path_7212" data-name="Path 7212" d="M247.606,226l30.151,49.894h-60.3Z" transform="translate(-66.04 -125.547)" fill="none" stroke="#f40" stroke-width="1"/>
      <path id="Path_7213" data-name="Path 7213" d="M290.907,301l30.151,49.894h-60.3Z" transform="translate(-79.19 -250.441)" fill="none" stroke="#f40" stroke-width="1"/>
      <g id="Group_2999" data-name="Group 2999">
        <g id="Group_2998" data-name="Group 2998" clip-path="url(#clip-path-2)">
          <path id="Path_7214" data-name="Path 7214" d="M377.587,301l30.151,49.894h-60.3Z" transform="translate(-105.515 -250.441)" fill="none" stroke="#f40" stroke-width="1"/>
        </g>
      </g>
      <path id="Path_7215" data-name="Path 7215" d="M334.315,200.894,304.165,151h60.3Z" transform="translate(-92.373 -0.653)" fill="none" stroke="#f40" stroke-width="1"/>
      <g id="Group_3001" data-name="Group 3001">
        <g id="Group_3000" data-name="Group 3000" clip-path="url(#clip-path-2)">
          <path id="Path_7216" data-name="Path 7216" d="M334.315,50.894,304.165,1h60.3Z" transform="translate(-92.373 249.136)" fill="none" stroke="#f40" stroke-width="1"/>
          <path id="Path_7217" data-name="Path 7217" d="M377.656,125.894,347.5,76h60.3Z" transform="translate(-105.535 124.242)" fill="none" stroke="#f40" stroke-width="1"/>
          <path id="Path_7218" data-name="Path 7218" d="M290.995,1l30.151,49.894h-60.3Z" transform="translate(-79.217 249.136)" fill="none" stroke="#f40" stroke-width="1"/>
        </g>
      </g>
    </g>
  </g>
</svg>
