<svg xmlns="http://www.w3.org/2000/svg" xmlns:xlink="http://www.w3.org/1999/xlink" width="174" height="227" viewBox="0 0 174 227">
  <defs>
    <clipPath id="clip-path">
      <rect id="Rectangle_1809" data-name="Rectangle 1809" width="174" height="227" transform="translate(201 4657)" fill="#fff" stroke="#707070" stroke-width="1"/>
    </clipPath>
    <clipPath id="clip-path-2">
      <rect id="Rectangle_1802" data-name="Rectangle 1802" width="218.346" height="227.484" fill="none"/>
    </clipPath>
  </defs>
  <g id="Mask_Group_85" data-name="Mask Group 85" transform="translate(-201 -4657)" clip-path="url(#clip-path)">
    <g id="Group_2037" data-name="Group 2037" transform="translate(201.442 4656.516)">
      <g id="Group_2024" data-name="Group 2024">
        <g id="Group_2023" data-name="Group 2023" clip-path="url(#clip-path-2)">
          <path id="Path_5955" data-name="Path 5955" d="M195.924,376l-21.736,37.746H217.66Z" transform="translate(-86.75 -186.766)" fill="none" stroke="#f40" stroke-width="1"/>
        </g>
      </g>
      <path id="Path_5956" data-name="Path 5956" d="M195.924,226l-21.736,37.746H217.66Z" transform="translate(-86.75 -112.258)" fill="none" stroke="#f40" stroke-width="1"/>
      <g id="Group_2026" data-name="Group 2026">
        <g id="Group_2025" data-name="Group 2025" clip-path="url(#clip-path-2)">
          <path id="Path_5957" data-name="Path 5957" d="M282.565,376l-21.736,37.746H304.3Z" transform="translate(-129.899 -186.766)" fill="none" stroke="#f40" stroke-width="1"/>
          <path id="Path_5958" data-name="Path 5958" d="M109.244,376,87.508,413.746H130.98Z" transform="translate(-43.581 -186.766)" fill="none" stroke="#f40" stroke-width="1"/>
        </g>
      </g>
      <path id="Path_5959" data-name="Path 5959" d="M239.264,301l-21.736,37.746H261Z" transform="translate(-108.334 -149.512)" fill="none" stroke="#f40" stroke-width="1"/>
      <path id="Path_5960" data-name="Path 5960" d="M152.584,301l-21.736,37.746H174.32Z" transform="translate(-65.165 -149.512)" fill="none" stroke="#f40" stroke-width="1"/>
      <path id="Path_5961" data-name="Path 5961" d="M152.6,263.746,174.339,226H130.867Z" transform="translate(-65.175 -112.258)" fill="none" stroke="#f40" stroke-width="1"/>
      <path id="Path_5962" data-name="Path 5962" d="M109.263,338.746,131,301H87.527Z" transform="translate(-43.591 -149.512)" fill="none" stroke="#f40" stroke-width="1"/>
      <g id="Group_2028" data-name="Group 2028">
        <g id="Group_2027" data-name="Group 2027" clip-path="url(#clip-path-2)">
          <path id="Path_5963" data-name="Path 5963" d="M22.6,376,.866,413.746H44.338Z" transform="translate(-0.431 -186.766)" fill="none" stroke="#f40" stroke-width="1"/>
        </g>
      </g>
      <path id="Path_5964" data-name="Path 5964" d="M65.942,301,44.206,338.746H87.679Z" transform="translate(-22.016 -149.512)" fill="#f40"/>
      <path id="Path_5965" data-name="Path 5965" d="M65.942,301,44.206,338.746H87.679Z" transform="translate(-22.016 -149.512)" fill="none" stroke="#f40" stroke-width="1"/>
      <g id="Group_2030" data-name="Group 2030">
        <g id="Group_2029" data-name="Group 2029" clip-path="url(#clip-path-2)">
          <path id="Path_5966" data-name="Path 5966" d="M22.622,338.746,44.358,301H.886Z" transform="translate(-0.441 -149.512)" fill="none" stroke="#f40" stroke-width="1"/>
          <path id="Path_5967" data-name="Path 5967" d="M369.153,376l-21.736,37.746h43.472Z" transform="translate(-173.022 -186.766)" fill="none" stroke="#f40" stroke-width="1"/>
        </g>
      </g>
      <path id="Path_5968" data-name="Path 5968" d="M325.832,263.746,347.568,226H304.1Z" transform="translate(-151.447 -112.258)" fill="none" stroke="#f40" stroke-width="1"/>
      <g id="Group_2032" data-name="Group 2032">
        <g id="Group_2031" data-name="Group 2031" clip-path="url(#clip-path-2)">
          <path id="Path_5969" data-name="Path 5969" d="M325.832,413.746,347.568,376H304.1Z" transform="translate(-151.447 -186.766)" fill="none" stroke="#f40" stroke-width="1"/>
        </g>
      </g>
      <path id="Path_5970" data-name="Path 5970" d="M239.191,263.746,260.927,226H217.455Z" transform="translate(-108.298 -112.258)" fill="none" stroke="#f40" stroke-width="1"/>
      <path id="Path_5971" data-name="Path 5971" d="M282.492,338.746,304.228,301H260.756Z" transform="translate(-129.863 -149.512)" fill="none" stroke="#f40" stroke-width="1"/>
      <g id="Group_2034" data-name="Group 2034">
        <g id="Group_2033" data-name="Group 2033" clip-path="url(#clip-path-2)">
          <path id="Path_5972" data-name="Path 5972" d="M369.172,338.746,390.909,301H347.436Z" transform="translate(-173.032 -149.512)" fill="none" stroke="#f40" stroke-width="1"/>
        </g>
      </g>
      <path id="Path_5973" data-name="Path 5973" d="M325.9,151l-21.736,37.746h43.472Z" transform="translate(-151.481 -75.004)" fill="none" stroke="#f40" stroke-width="1"/>
      <g id="Group_2036" data-name="Group 2036">
        <g id="Group_2035" data-name="Group 2035" clip-path="url(#clip-path-2)">
          <path id="Path_5974" data-name="Path 5974" d="M325.9,1,304.165,38.746h43.472Z" transform="translate(-151.481 -0.497)" fill="none" stroke="#f40" stroke-width="1"/>
          <path id="Path_5975" data-name="Path 5975" d="M369.241,76,347.5,113.746h43.472Z" transform="translate(-173.066 -37.75)" fill="none" stroke="#f40" stroke-width="1"/>
          <path id="Path_5976" data-name="Path 5976" d="M282.58,38.746,304.316,1H260.844Z" transform="translate(-129.907 -0.497)" fill="none" stroke="#f40" stroke-width="1"/>
        </g>
      </g>
    </g>
  </g>
</svg>
