<svg xmlns="http://www.w3.org/2000/svg" xmlns:xlink="http://www.w3.org/1999/xlink" width="252" height="291" viewBox="0 0 252 291">
  <defs>
    <clipPath id="clip-path">
      <rect id="Rectangle_2890" data-name="Rectangle 2890" width="252" height="291" transform="translate(0 -0.025)" fill="#fff" stroke="#707070" stroke-width="1"/>
    </clipPath>
    <clipPath id="clip-path-2">
      <rect id="Rectangle_2883" data-name="Rectangle 2883" width="292.548" height="290.502" fill="none" stroke="rgba(0,0,0,0)" stroke-width="1"/>
    </clipPath>
  </defs>
  <g id="Mask_Group_150" data-name="Mask Group 150" transform="translate(0 0.025)" clip-path="url(#clip-path)">
    <g id="Group_2971" data-name="Group 2971" transform="translate(0.308 0.642)">
      <g id="Group_2958" data-name="Group 2958">
        <g id="Group_2957" data-name="Group 2957" clip-path="url(#clip-path-2)">
          <path id="Path_7153" data-name="Path 7153" d="M203.311,376l-29.123,48.2h58.246Z" transform="translate(-57.035 -134.343)" fill="none" stroke="#f40" stroke-width="1"/>
        </g>
      </g>
      <path id="Path_7154" data-name="Path 7154" d="M203.311,226l-29.123,48.2h58.246Z" transform="translate(-57.035 -80.749)" fill="none" stroke="#f40" stroke-width="1"/>
      <g id="Group_2960" data-name="Group 2960">
        <g id="Group_2959" data-name="Group 2959" clip-path="url(#clip-path-2)">
          <path id="Path_7155" data-name="Path 7155" d="M289.952,376l-29.123,48.2h58.246Z" transform="translate(-85.404 -134.343)" fill="none" stroke="#f40" stroke-width="1"/>
          <path id="Path_7156" data-name="Path 7156" d="M116.63,376,87.508,424.2h58.246Z" transform="translate(-28.653 -134.343)" fill="none" stroke="#f40" stroke-width="1"/>
        </g>
      </g>
      <path id="Path_7157" data-name="Path 7157" d="M246.651,301l-29.123,48.2h58.246Z" transform="translate(-71.226 -107.546)" fill="none" stroke="#f40" stroke-width="1"/>
      <path id="Path_7158" data-name="Path 7158" d="M159.971,301l-29.123,48.2h58.246Z" transform="translate(-42.844 -107.546)" fill="none" stroke="#f40" stroke-width="1"/>
      <path id="Path_7159" data-name="Path 7159" d="M159.99,274.2,189.113,226H130.867Z" transform="translate(-42.85 -80.749)" fill="none" stroke="#f40" stroke-width="1"/>
      <path id="Path_7160" data-name="Path 7160" d="M116.65,349.2,145.773,301H87.527Z" transform="translate(-28.659 -107.546)" fill="none" stroke="#f40" stroke-width="1"/>
      <g id="Group_2962" data-name="Group 2962">
        <g id="Group_2961" data-name="Group 2961" clip-path="url(#clip-path-2)">
          <path id="Path_7161" data-name="Path 7161" d="M29.989,376,.866,424.2H59.112Z" transform="translate(-0.284 -134.343)" fill="none" stroke="#f40" stroke-width="1"/>
        </g>
      </g>
      <path id="Path_7162" data-name="Path 7162" d="M73.329,301,44.206,349.2h58.246Z" transform="translate(-14.475 -107.546)" fill="#f40" stroke="rgba(0,0,0,0)" stroke-width="1"/>
      <path id="Path_7163" data-name="Path 7163" d="M73.329,301,44.206,349.2h58.246Z" transform="translate(-14.475 -107.546)" fill="none" stroke="#f40" stroke-width="1"/>
      <g id="Group_2964" data-name="Group 2964">
        <g id="Group_2963" data-name="Group 2963" clip-path="url(#clip-path-2)">
          <path id="Path_7164" data-name="Path 7164" d="M30.008,349.2,59.131,301H.886Z" transform="translate(-0.29 -107.546)" fill="none" stroke="#f40" stroke-width="1"/>
          <path id="Path_7165" data-name="Path 7165" d="M376.54,376l-29.123,48.2h58.246Z" transform="translate(-113.756 -134.343)" fill="none" stroke="#f40" stroke-width="1"/>
        </g>
      </g>
      <path id="Path_7166" data-name="Path 7166" d="M333.219,274.2,362.342,226H304.1Z" transform="translate(-99.572 -80.749)" fill="none" stroke="#f40" stroke-width="1"/>
      <g id="Group_2966" data-name="Group 2966">
        <g id="Group_2965" data-name="Group 2965" clip-path="url(#clip-path-2)">
          <path id="Path_7167" data-name="Path 7167" d="M333.219,424.2,362.342,376H304.1Z" transform="translate(-99.572 -134.343)" fill="none" stroke="#f40" stroke-width="1"/>
        </g>
      </g>
      <path id="Path_7168" data-name="Path 7168" d="M246.578,274.2,275.7,226H217.455Z" transform="translate(-71.202 -80.749)" fill="none" stroke="#f40" stroke-width="1"/>
      <path id="Path_7169" data-name="Path 7169" d="M289.879,349.2,319,301H260.756Z" transform="translate(-85.381 -107.546)" fill="none" stroke="#f40" stroke-width="1"/>
      <g id="Group_2968" data-name="Group 2968">
        <g id="Group_2967" data-name="Group 2967" clip-path="url(#clip-path-2)">
          <path id="Path_7170" data-name="Path 7170" d="M376.559,349.2,405.682,301H347.436Z" transform="translate(-113.763 -107.546)" fill="none" stroke="#f40" stroke-width="1"/>
        </g>
      </g>
      <path id="Path_7171" data-name="Path 7171" d="M333.288,151l-29.123,48.2H362.41Z" transform="translate(-99.594 -53.952)" fill="none" stroke="#f40" stroke-width="1"/>
      <g id="Group_2970" data-name="Group 2970">
        <g id="Group_2969" data-name="Group 2969" clip-path="url(#clip-path-2)">
          <path id="Path_7172" data-name="Path 7172" d="M333.288,1,304.165,49.2H362.41Z" transform="translate(-99.594 -0.357)" fill="none" stroke="#f40" stroke-width="1"/>
          <path id="Path_7173" data-name="Path 7173" d="M376.628,76,347.5,124.2H405.75Z" transform="translate(-113.785 -27.155)" fill="none" stroke="#f40" stroke-width="1"/>
          <path id="Path_7174" data-name="Path 7174" d="M289.967,49.2,319.09,1H260.844Z" transform="translate(-85.409 -0.357)" fill="none" stroke="#f40" stroke-width="1"/>
        </g>
      </g>
    </g>
  </g>
</svg>
