<svg xmlns="http://www.w3.org/2000/svg" xmlns:xlink="http://www.w3.org/1999/xlink" width="124" height="161" viewBox="0 0 124 161">
  <defs>
    <clipPath id="clip-path">
      <rect id="Rectangle_2870" data-name="Rectangle 2870" width="124" height="161" transform="translate(200.667 4657.335)" fill="#fff" stroke="#707070" stroke-width="1"/>
    </clipPath>
    <clipPath id="clip-path-2">
      <rect id="Rectangle_2863" data-name="Rectangle 2863" width="155.184" height="161.679" fill="none"/>
    </clipPath>
  </defs>
  <g id="Mask_Group_147" data-name="Mask Group 147" transform="translate(324.667 4818.335) rotate(180)" clip-path="url(#clip-path)">
    <g id="Group_2938" data-name="Group 2938" transform="translate(201.314 4656.656)">
      <g id="Group_2925" data-name="Group 2925">
        <g id="Group_2924" data-name="Group 2924" clip-path="url(#clip-path-2)">
          <path id="Path_7108" data-name="Path 7108" d="M189.636,376l-15.448,26.827h30.9Z" transform="translate(-112.043 -241.506)" fill="none" stroke="#f40" stroke-width="1"/>
        </g>
      </g>
      <path id="Path_7109" data-name="Path 7109" d="M189.636,226l-15.448,26.827h30.9Z" transform="translate(-112.043 -145.16)" fill="none" stroke="#f40" stroke-width="1"/>
      <g id="Group_2927" data-name="Group 2927">
        <g id="Group_2926" data-name="Group 2926" clip-path="url(#clip-path-2)">
          <path id="Path_7110" data-name="Path 7110" d="M276.278,376l-15.448,26.827h30.9Z" transform="translate(-167.774 -241.506)" fill="none" stroke="#f40" stroke-width="1"/>
          <path id="Path_7111" data-name="Path 7111" d="M102.956,376,87.508,402.827h30.9Z" transform="translate(-56.288 -241.506)" fill="none" stroke="#f40" stroke-width="1"/>
        </g>
      </g>
      <path id="Path_7112" data-name="Path 7112" d="M232.976,301l-15.448,26.827h30.9Z" transform="translate(-139.921 -193.333)" fill="none" stroke="#f40" stroke-width="1"/>
      <path id="Path_7113" data-name="Path 7113" d="M146.3,301l-15.448,26.827h30.9Z" transform="translate(-84.166 -193.333)" fill="none" stroke="#f40" stroke-width="1"/>
      <path id="Path_7114" data-name="Path 7114" d="M146.316,252.827,161.764,226h-30.9Z" transform="translate(-84.178 -145.16)" fill="none" stroke="#f40" stroke-width="1"/>
      <path id="Path_7115" data-name="Path 7115" d="M102.976,327.827,118.424,301h-30.9Z" transform="translate(-56.3 -193.333)" fill="none" stroke="#f40" stroke-width="1"/>
      <g id="Group_2929" data-name="Group 2929">
        <g id="Group_2928" data-name="Group 2928" clip-path="url(#clip-path-2)">
          <path id="Path_7116" data-name="Path 7116" d="M16.315,376,.866,402.827h30.9Z" transform="translate(-0.557 -241.506)" fill="none" stroke="#f40" stroke-width="1"/>
        </g>
      </g>
      <path id="Path_7117" data-name="Path 7117" d="M59.655,301,44.206,327.827H75.1Z" transform="translate(-28.435 -193.333)" fill="#f40"/>
      <path id="Path_7118" data-name="Path 7118" d="M59.655,301,44.206,327.827H75.1Z" transform="translate(-28.435 -193.333)" fill="none" stroke="#f40" stroke-width="1"/>
      <g id="Group_2931" data-name="Group 2931">
        <g id="Group_2930" data-name="Group 2930" clip-path="url(#clip-path-2)">
          <path id="Path_7119" data-name="Path 7119" d="M16.334,327.827,31.783,301H.886Z" transform="translate(-0.57 -193.333)" fill="none" stroke="#f40" stroke-width="1"/>
          <path id="Path_7120" data-name="Path 7120" d="M362.865,376l-15.448,26.827h30.9Z" transform="translate(-223.47 -241.506)" fill="none" stroke="#f40" stroke-width="1"/>
        </g>
      </g>
      <path id="Path_7121" data-name="Path 7121" d="M319.545,252.827,334.993,226H304.1Z" transform="translate(-195.604 -145.16)" fill="none" stroke="#f40" stroke-width="1"/>
      <g id="Group_2933" data-name="Group 2933">
        <g id="Group_2932" data-name="Group 2932" clip-path="url(#clip-path-2)">
          <path id="Path_7122" data-name="Path 7122" d="M319.545,402.827,334.993,376H304.1Z" transform="translate(-195.604 -241.506)" fill="none" stroke="#f40" stroke-width="1"/>
        </g>
      </g>
      <path id="Path_7123" data-name="Path 7123" d="M232.9,252.827,248.352,226h-30.9Z" transform="translate(-139.874 -145.16)" fill="none" stroke="#f40" stroke-width="1"/>
      <path id="Path_7124" data-name="Path 7124" d="M276.2,327.827,291.653,301h-30.9Z" transform="translate(-167.727 -193.333)" fill="none" stroke="#f40" stroke-width="1"/>
      <g id="Group_2935" data-name="Group 2935">
        <g id="Group_2934" data-name="Group 2934" clip-path="url(#clip-path-2)">
          <path id="Path_7125" data-name="Path 7125" d="M362.885,327.827,378.333,301h-30.9Z" transform="translate(-223.482 -193.333)" fill="none" stroke="#f40" stroke-width="1"/>
        </g>
      </g>
      <path id="Path_7126" data-name="Path 7126" d="M319.613,151l-15.448,26.827h30.9Z" transform="translate(-195.648 -96.988)" fill="none" stroke="#f40" stroke-width="1"/>
      <g id="Group_2937" data-name="Group 2937">
        <g id="Group_2936" data-name="Group 2936" clip-path="url(#clip-path-2)">
          <path id="Path_7127" data-name="Path 7127" d="M319.613,1,304.165,27.827h30.9Z" transform="translate(-195.648 -0.642)" fill="none" stroke="#f40" stroke-width="1"/>
          <path id="Path_7128" data-name="Path 7128" d="M362.953,76,347.5,102.827h30.9Z" transform="translate(-223.526 -48.815)" fill="none" stroke="#f40" stroke-width="1"/>
          <path id="Path_7129" data-name="Path 7129" d="M276.293,27.827,291.741,1h-30.9Z" transform="translate(-167.783 -0.642)" fill="none" stroke="#f40" stroke-width="1"/>
        </g>
      </g>
    </g>
  </g>
</svg>
