<svg xmlns="http://www.w3.org/2000/svg" xmlns:xlink="http://www.w3.org/1999/xlink" width="252" height="291" viewBox="0 0 252 291">
  <defs>
    <clipPath id="clip-path">
      <rect id="Rectangle_2842" data-name="Rectangle 2842" width="252" height="291" transform="translate(0 -0.055)" fill="#fff" stroke="#707070" stroke-width="1"/>
    </clipPath>
    <clipPath id="clip-path-2">
      <rect id="Rectangle_2835" data-name="Rectangle 2835" width="292.548" height="290.443" fill="none" stroke="rgba(0,0,0,0)" stroke-width="1"/>
    </clipPath>
  </defs>
  <g id="Mask_Group_142" data-name="Mask Group 142" transform="translate(0 0.055)" clip-path="url(#clip-path)">
    <g id="Group_2889" data-name="Group 2889" transform="translate(-40.856 0.641)">
      <g id="Group_2876" data-name="Group 2876" transform="translate(0 0)">
        <g id="Group_2875" data-name="Group 2875" clip-path="url(#clip-path-2)">
          <path id="Path_7014" data-name="Path 7014" d="M203.311,376l29.123,48.193H174.188Z" transform="translate(-57.038 -134.393)" fill="none" stroke="#f40" stroke-width="1"/>
        </g>
      </g>
      <path id="Path_7015" data-name="Path 7015" d="M203.311,226l29.123,48.193H174.188Z" transform="translate(-57.038 -80.779)" fill="none" stroke="#f40" stroke-width="1"/>
      <g id="Group_2878" data-name="Group 2878" transform="translate(0 0)">
        <g id="Group_2877" data-name="Group 2877" clip-path="url(#clip-path-2)">
          <path id="Path_7016" data-name="Path 7016" d="M289.952,376l29.123,48.193H260.829Z" transform="translate(-201.952 -134.393)" fill="none" stroke="#f40" stroke-width="1"/>
          <path id="Path_7017" data-name="Path 7017" d="M116.63,376l29.123,48.193H87.508Z" transform="translate(87.94 -134.393)" fill="none" stroke="#f40" stroke-width="1"/>
        </g>
      </g>
      <path id="Path_7018" data-name="Path 7018" d="M246.651,301l29.123,48.193H217.528Z" transform="translate(-129.527 -107.586)" fill="none" stroke="#f40" stroke-width="1"/>
      <path id="Path_7019" data-name="Path 7019" d="M159.971,301l29.123,48.193H130.848Z" transform="translate(15.451 -107.586)" fill="none" stroke="#f40" stroke-width="1"/>
      <path id="Path_7020" data-name="Path 7020" d="M159.99,274.193,130.867,226h58.246Z" transform="translate(15.418 -80.779)" fill="none" stroke="#f40" stroke-width="1"/>
      <path id="Path_7021" data-name="Path 7021" d="M116.65,349.193,87.527,301h58.246Z" transform="translate(87.908 -107.586)" fill="none" stroke="#f40" stroke-width="1"/>
      <g id="Group_2880" data-name="Group 2880" transform="translate(0 0)">
        <g id="Group_2879" data-name="Group 2879" clip-path="url(#clip-path-2)">
          <path id="Path_7022" data-name="Path 7022" d="M29.989,376l29.123,48.193H.866Z" transform="translate(232.854 -134.393)" fill="none" stroke="#f40" stroke-width="1"/>
        </g>
      </g>
      <path id="Path_7023" data-name="Path 7023" d="M73.329,301l29.123,48.193H44.206Z" transform="translate(160.364 -107.586)" fill="#f40" stroke="rgba(0,0,0,0)" stroke-width="1"/>
      <path id="Path_7024" data-name="Path 7024" d="M73.329,301l29.123,48.193H44.206Z" transform="translate(160.364 -107.586)" fill="none" stroke="#f40" stroke-width="1"/>
      <g id="Group_2882" data-name="Group 2882" transform="translate(0 0)">
        <g id="Group_2881" data-name="Group 2881" clip-path="url(#clip-path-2)">
          <path id="Path_7025" data-name="Path 7025" d="M30.008,349.193.886,301H59.131Z" transform="translate(232.821 -107.586)" fill="none" stroke="#f40" stroke-width="1"/>
          <path id="Path_7026" data-name="Path 7026" d="M376.54,376l29.123,48.193H347.417Z" transform="translate(-346.775 -134.393)" fill="none" stroke="#f40" stroke-width="1"/>
        </g>
      </g>
      <path id="Path_7027" data-name="Path 7027" d="M333.219,274.193,304.1,226h58.246Z" transform="translate(-274.318 -80.779)" fill="none" stroke="#f40" stroke-width="1"/>
      <g id="Group_2884" data-name="Group 2884" transform="translate(0 0)">
        <g id="Group_2883" data-name="Group 2883" clip-path="url(#clip-path-2)">
          <path id="Path_7028" data-name="Path 7028" d="M333.219,424.193,304.1,376h58.246Z" transform="translate(-274.318 -134.393)" fill="none" stroke="#f40" stroke-width="1"/>
        </g>
      </g>
      <path id="Path_7029" data-name="Path 7029" d="M246.578,274.193,217.455,226H275.7Z" transform="translate(-129.405 -80.779)" fill="none" stroke="#f40" stroke-width="1"/>
      <path id="Path_7030" data-name="Path 7030" d="M289.879,349.193,260.756,301H319Z" transform="translate(-201.83 -107.586)" fill="none" stroke="#f40" stroke-width="1"/>
      <g id="Group_2886" data-name="Group 2886" transform="translate(0 0)">
        <g id="Group_2885" data-name="Group 2885" clip-path="url(#clip-path-2)">
          <path id="Path_7031" data-name="Path 7031" d="M376.559,349.193,347.436,301h58.246Z" transform="translate(-346.808 -107.586)" fill="none" stroke="#f40" stroke-width="1"/>
        </g>
      </g>
      <path id="Path_7032" data-name="Path 7032" d="M333.287,151l29.123,48.193H304.165Z" transform="translate(-274.433 -53.972)" fill="none" stroke="#f40" stroke-width="1"/>
      <g id="Group_2888" data-name="Group 2888" transform="translate(0 0)">
        <g id="Group_2887" data-name="Group 2887" clip-path="url(#clip-path-2)">
          <path id="Path_7033" data-name="Path 7033" d="M333.287,1,362.41,49.193H304.165Z" transform="translate(-274.433 -0.357)" fill="none" stroke="#f40" stroke-width="1"/>
          <path id="Path_7034" data-name="Path 7034" d="M376.628,76l29.123,48.193H347.5Z" transform="translate(-346.922 -27.164)" fill="none" stroke="#f40" stroke-width="1"/>
          <path id="Path_7035" data-name="Path 7035" d="M289.967,49.193,260.844,1H319.09Z" transform="translate(-201.977 -0.357)" fill="none" stroke="#f40" stroke-width="1"/>
        </g>
      </g>
    </g>
  </g>
</svg>
