<svg xmlns="http://www.w3.org/2000/svg" xmlns:xlink="http://www.w3.org/1999/xlink" width="123" height="142" viewBox="0 0 123 142">
  <defs>
    <clipPath id="clip-path">
      <rect id="Rectangle_2842" data-name="Rectangle 2842" width="123" height="142" transform="translate(0 -0.331)" fill="#fff" stroke="#707070" stroke-width="1"/>
    </clipPath>
    <clipPath id="clip-path-2">
      <rect id="Rectangle_2835" data-name="Rectangle 2835" width="142.846" height="141.818" fill="none" stroke="rgba(0,0,0,0)" stroke-width="1"/>
    </clipPath>
  </defs>
  <g id="Mask_Group_142" data-name="Mask Group 142" transform="translate(0 0.331)" clip-path="url(#clip-path)">
    <g id="Group_2889" data-name="Group 2889" transform="translate(-19.949 -0.018)">
      <g id="Group_2876" data-name="Group 2876" transform="translate(0 0)">
        <g id="Group_2875" data-name="Group 2875" clip-path="url(#clip-path-2)">
          <path id="Path_7014" data-name="Path 7014" d="M188.408,376l14.22,23.532h-28.44Z" transform="translate(-116.986 -258.028)" fill="none" stroke="#f40" stroke-width="1"/>
        </g>
      </g>
      <path id="Path_7015" data-name="Path 7015" d="M188.408,226l14.22,23.532h-28.44Z" transform="translate(-116.986 -155.091)" fill="none" stroke="#f40" stroke-width="1"/>
      <g id="Group_2878" data-name="Group 2878" transform="translate(0 0)">
        <g id="Group_2877" data-name="Group 2877" clip-path="url(#clip-path-2)">
          <path id="Path_7016" data-name="Path 7016" d="M275.049,376l14.22,23.532h-28.44Z" transform="translate(-232.08 -258.028)" fill="none" stroke="#f40" stroke-width="1"/>
          <path id="Path_7017" data-name="Path 7017" d="M101.728,376l14.22,23.532H87.508Z" transform="translate(-1.84 -258.028)" fill="none" stroke="#f40" stroke-width="1"/>
        </g>
      </g>
      <path id="Path_7018" data-name="Path 7018" d="M231.748,301l14.22,23.532h-28.44Z" transform="translate(-174.559 -206.559)" fill="none" stroke="#f40" stroke-width="1"/>
      <path id="Path_7019" data-name="Path 7019" d="M145.068,301l14.22,23.532h-28.44Z" transform="translate(-59.413 -206.559)" fill="none" stroke="#f40" stroke-width="1"/>
      <path id="Path_7020" data-name="Path 7020" d="M145.087,249.532,130.867,226h28.44Z" transform="translate(-59.439 -155.091)" fill="none" stroke="#f40" stroke-width="1"/>
      <path id="Path_7021" data-name="Path 7021" d="M101.747,324.532,87.527,301h28.44Z" transform="translate(-1.866 -206.559)" fill="none" stroke="#f40" stroke-width="1"/>
      <g id="Group_2880" data-name="Group 2880" transform="translate(0 0)">
        <g id="Group_2879" data-name="Group 2879" clip-path="url(#clip-path-2)">
          <path id="Path_7022" data-name="Path 7022" d="M15.086,376l14.22,23.532H.866Z" transform="translate(113.255 -258.028)" fill="none" stroke="#f40" stroke-width="1"/>
        </g>
      </g>
      <path id="Path_7023" data-name="Path 7023" d="M58.427,301l14.22,23.532H44.206Z" transform="translate(55.682 -206.559)" fill="#f40" stroke="rgba(0,0,0,0)" stroke-width="1"/>
      <path id="Path_7024" data-name="Path 7024" d="M58.427,301l14.22,23.532H44.206Z" transform="translate(55.682 -206.559)" fill="none" stroke="#f40" stroke-width="1"/>
      <g id="Group_2882" data-name="Group 2882" transform="translate(0 0)">
        <g id="Group_2881" data-name="Group 2881" clip-path="url(#clip-path-2)">
          <path id="Path_7025" data-name="Path 7025" d="M15.106,324.532.886,301h28.44Z" transform="translate(113.229 -206.559)" fill="none" stroke="#f40" stroke-width="1"/>
          <path id="Path_7026" data-name="Path 7026" d="M361.637,376l14.22,23.532h-28.44Z" transform="translate(-347.104 -258.028)" fill="none" stroke="#f40" stroke-width="1"/>
        </g>
      </g>
      <path id="Path_7027" data-name="Path 7027" d="M318.316,249.532,304.1,226h28.44Z" transform="translate(-289.556 -155.091)" fill="none" stroke="#f40" stroke-width="1"/>
      <g id="Group_2884" data-name="Group 2884" transform="translate(0 0)">
        <g id="Group_2883" data-name="Group 2883" clip-path="url(#clip-path-2)">
          <path id="Path_7028" data-name="Path 7028" d="M318.316,399.532,304.1,376h28.44Z" transform="translate(-289.556 -258.028)" fill="none" stroke="#f40" stroke-width="1"/>
        </g>
      </g>
      <path id="Path_7029" data-name="Path 7029" d="M231.675,249.532,217.455,226H245.9Z" transform="translate(-174.462 -155.091)" fill="none" stroke="#f40" stroke-width="1"/>
      <path id="Path_7030" data-name="Path 7030" d="M274.976,324.532,260.756,301H289.2Z" transform="translate(-231.983 -206.559)" fill="none" stroke="#f40" stroke-width="1"/>
      <g id="Group_2886" data-name="Group 2886" transform="translate(0 0)">
        <g id="Group_2885" data-name="Group 2885" clip-path="url(#clip-path-2)">
          <path id="Path_7031" data-name="Path 7031" d="M361.656,324.532,347.436,301h28.44Z" transform="translate(-347.129 -206.559)" fill="none" stroke="#f40" stroke-width="1"/>
        </g>
      </g>
      <path id="Path_7032" data-name="Path 7032" d="M318.385,151l14.22,23.532h-28.44Z" transform="translate(-289.647 -103.623)" fill="none" stroke="#f40" stroke-width="1"/>
      <g id="Group_2888" data-name="Group 2888" transform="translate(0 0)">
        <g id="Group_2887" data-name="Group 2887" clip-path="url(#clip-path-2)">
          <path id="Path_7033" data-name="Path 7033" d="M318.385,1,332.6,24.532h-28.44Z" transform="translate(-289.647 -0.686)" fill="none" stroke="#f40" stroke-width="1"/>
          <path id="Path_7034" data-name="Path 7034" d="M361.725,76l14.22,23.532H347.5Z" transform="translate(-347.22 -52.155)" fill="none" stroke="#f40" stroke-width="1"/>
          <path id="Path_7035" data-name="Path 7035" d="M275.064,24.532,260.844,1h28.44Z" transform="translate(-232.1 -0.686)" fill="none" stroke="#f40" stroke-width="1"/>
        </g>
      </g>
    </g>
  </g>
</svg>
