<svg xmlns="http://www.w3.org/2000/svg" xmlns:xlink="http://www.w3.org/1999/xlink" width="408" height="468" viewBox="0 0 408 468">
  <defs>
    <clipPath id="clip-path">
      <rect id="Rectangle_2842" data-name="Rectangle 2842" width="408" height="468" transform="translate(0 0.23)" fill="#fff" stroke="#707070" stroke-width="1"/>
    </clipPath>
    <clipPath id="clip-path-2">
      <rect id="Rectangle_2835" data-name="Rectangle 2835" width="474.229" height="470.816" fill="none" stroke="rgba(0,0,0,0)" stroke-width="1"/>
    </clipPath>
  </defs>
  <g id="Mask_Group_142" data-name="Mask Group 142" transform="translate(0 -0.23)" clip-path="url(#clip-path)">
    <g id="Group_2889" data-name="Group 2889" transform="translate(-66.229 0.168)">
      <g id="Group_2876" data-name="Group 2876" transform="translate(0 0)">
        <g id="Group_2875" data-name="Group 2875" clip-path="url(#clip-path-2)">
          <path id="Path_7014" data-name="Path 7014" d="M221.4,376l47.209,78.122H174.188Z" transform="translate(15.715 15.653)" fill="none" stroke="#f40" stroke-width="1"/>
        </g>
      </g>
      <path id="Path_7015" data-name="Path 7015" d="M221.4,226l47.209,78.122H174.188Z" transform="translate(15.715 9.408)" fill="none" stroke="#f40" stroke-width="1"/>
      <g id="Group_2878" data-name="Group 2878" transform="translate(0 0)">
        <g id="Group_2877" data-name="Group 2877" clip-path="url(#clip-path-2)">
          <path id="Path_7016" data-name="Path 7016" d="M308.038,376l47.209,78.122H260.829Z" transform="translate(-165.387 15.653)" fill="none" stroke="#f40" stroke-width="1"/>
          <path id="Path_7017" data-name="Path 7017" d="M134.717,376l47.209,78.122H87.508Z" transform="translate(196.898 15.653)" fill="none" stroke="#f40" stroke-width="1"/>
        </g>
      </g>
      <path id="Path_7018" data-name="Path 7018" d="M264.737,301l47.209,78.122H217.528Z" transform="translate(-74.876 12.53)" fill="none" stroke="#f40" stroke-width="1"/>
      <path id="Path_7019" data-name="Path 7019" d="M178.057,301l47.209,78.122H130.848Z" transform="translate(106.307 12.53)" fill="none" stroke="#f40" stroke-width="1"/>
      <path id="Path_7020" data-name="Path 7020" d="M178.076,304.122,130.867,226h94.418Z" transform="translate(106.266 9.408)" fill="none" stroke="#f40" stroke-width="1"/>
      <path id="Path_7021" data-name="Path 7021" d="M134.736,379.122,87.527,301h94.418Z" transform="translate(196.858 12.53)" fill="none" stroke="#f40" stroke-width="1"/>
      <g id="Group_2880" data-name="Group 2880" transform="translate(0 0)">
        <g id="Group_2879" data-name="Group 2879" clip-path="url(#clip-path-2)">
          <path id="Path_7022" data-name="Path 7022" d="M48.075,376l47.209,78.122H.866Z" transform="translate(378.001 15.653)" fill="none" stroke="#f40" stroke-width="1"/>
        </g>
      </g>
      <path id="Path_7023" data-name="Path 7023" d="M91.415,301l47.209,78.122H44.206Z" transform="translate(287.409 12.53)" fill="#f40" stroke="rgba(0,0,0,0)" stroke-width="1"/>
      <path id="Path_7024" data-name="Path 7024" d="M91.415,301l47.209,78.122H44.206Z" transform="translate(287.409 12.53)" fill="none" stroke="#f40" stroke-width="1"/>
      <g id="Group_2882" data-name="Group 2882" transform="translate(0 0)">
        <g id="Group_2881" data-name="Group 2881" clip-path="url(#clip-path-2)">
          <path id="Path_7025" data-name="Path 7025" d="M48.095,379.122.886,301H95.3Z" transform="translate(377.96 12.53)" fill="none" stroke="#f40" stroke-width="1"/>
          <path id="Path_7026" data-name="Path 7026" d="M394.626,376l47.209,78.122H347.417Z" transform="translate(-346.377 15.653)" fill="none" stroke="#f40" stroke-width="1"/>
        </g>
      </g>
      <path id="Path_7027" data-name="Path 7027" d="M351.305,304.122,304.1,226h94.418Z" transform="translate(-255.826 9.408)" fill="none" stroke="#f40" stroke-width="1"/>
      <g id="Group_2884" data-name="Group 2884" transform="translate(0 0)">
        <g id="Group_2883" data-name="Group 2883" clip-path="url(#clip-path-2)">
          <path id="Path_7028" data-name="Path 7028" d="M351.305,454.122,304.1,376h94.418Z" transform="translate(-255.826 15.653)" fill="none" stroke="#f40" stroke-width="1"/>
        </g>
      </g>
      <path id="Path_7029" data-name="Path 7029" d="M264.664,304.122,217.455,226h94.418Z" transform="translate(-74.724 9.408)" fill="none" stroke="#f40" stroke-width="1"/>
      <path id="Path_7030" data-name="Path 7030" d="M307.965,379.122,260.756,301h94.418Z" transform="translate(-165.234 12.53)" fill="none" stroke="#f40" stroke-width="1"/>
      <g id="Group_2886" data-name="Group 2886" transform="translate(0 0)">
        <g id="Group_2885" data-name="Group 2885" clip-path="url(#clip-path-2)">
          <path id="Path_7031" data-name="Path 7031" d="M394.645,379.122,347.436,301h94.418Z" transform="translate(-346.417 12.53)" fill="none" stroke="#f40" stroke-width="1"/>
        </g>
      </g>
      <path id="Path_7032" data-name="Path 7032" d="M351.374,151l47.209,78.122H304.165Z" transform="translate(-255.969 6.286)" fill="none" stroke="#f40" stroke-width="1"/>
      <g id="Group_2888" data-name="Group 2888" transform="translate(0 0)">
        <g id="Group_2887" data-name="Group 2887" clip-path="url(#clip-path-2)">
          <path id="Path_7033" data-name="Path 7033" d="M351.374,1l47.209,78.122H304.165Z" transform="translate(-255.969 0.042)" fill="none" stroke="#f40" stroke-width="1"/>
          <path id="Path_7034" data-name="Path 7034" d="M394.714,76l47.209,78.122H347.5Z" transform="translate(-346.56 3.164)" fill="none" stroke="#f40" stroke-width="1"/>
          <path id="Path_7035" data-name="Path 7035" d="M308.053,79.122,260.844,1h94.418Z" transform="translate(-165.418 0.042)" fill="none" stroke="#f40" stroke-width="1"/>
        </g>
      </g>
    </g>
  </g>
</svg>
