<svg id="Group_737" data-name="Group 737" xmlns="http://www.w3.org/2000/svg" width="169.03" height="43.453" viewBox="0 0 169.03 43.453">
  <path id="Path_2341" data-name="Path 2341" d="M759.8,38.141h4.455l-5.52,12.268h4.4c.222-2.363.451-4.784.69-7.321l3.287-.708v7.981l2.1.293v3.357l-2.068.174v5.3l-3.938.42V54.125h-9.486c.579-6.077,4.352-10.622,6.084-15.984" transform="translate(-600.182 -25.563)" fill="#f0853c"/>
  <path id="Path_2342" data-name="Path 2342" d="M605.539,40.992h3.643c.759,2.753,1.54,5.587,2.392,8.675.84-3.073,1.594-5.832,2.367-8.656h3.671c.419,4.585.84,9.182,1.27,13.889h-2.776l-.719-9.074c-1.05,3.542-1.862,6.276-2.7,9.085h-2.46l-2.523-8.957c-.248,3.372-.452,6.147-.658,8.958h-2.821c.438-4.651.866-9.2,1.31-13.92" transform="translate(-552.07 -26.475)" fill="#010101"/>
  <path id="Path_2343" data-name="Path 2343" d="M548.559,67.043c-5.667,3.479-9.816,3.118-14.88-1.3-6.255-.039-7.652-2.24-5.262-8.23a2.658,2.658,0,0,0,.037-1.365c-1.109-6.381.687-10.149,6.425-13.418a6.115,6.115,0,0,1,.705-.759c1.412-.725,3.01-.866,4.479-1.422.715-.243,1.487-.061,2.2-.307a5.308,5.308,0,0,1,3.476.192,2.928,2.928,0,0,1,.5,2.444c-.18.612-.321,1.238-.487,1.737a3.307,3.307,0,0,1-2.26,1.075,3.064,3.064,0,0,0-1.019.18c-.593.239-1.2.441-1.79.694a8.3,8.3,0,0,0-1.43.744c-.061.041-.125.081-.185.123-.121.079-.248.149-.376.216-.18.107-.361.215-.531.339-.1.092-.215.177-.324.264s-.215.182-.327.267c-.512.379-.412,1.084-.806,1.526a1.654,1.654,0,0,1-1.746.616.612.612,0,0,1-.259-.394,3.46,3.46,0,0,1,1.926-2.714c.059-.014.123-.031.182-.046,0-.062.006-.124.009-.187a.284.284,0,0,1-.28.2.815.815,0,0,1-.745-.687,1.474,1.474,0,0,1,.645-1,19.125,19.125,0,0,1,6.814-3.267c-2.061-.384-3.954.492-5.926.7a9.89,9.89,0,0,0-7.764,12.352.929.929,0,0,0,.307.424,1.03,1.03,0,0,1,.335.908,3.123,3.123,0,0,1-.939,1.445,4.315,4.315,0,0,0-.609,4.572c.863,1.492,2.325,1.845,3.908,1.8a4.23,4.23,0,0,1,1.554-.059,3.615,3.615,0,0,1,1.1.763c3.316,2.971,7.01,3.247,10.979,1.538a4.976,4.976,0,0,1,1.655-.577c.351.068.788.038.711.606" transform="translate(-527.317 -26.174)" fill="#7d7632"/>
  <path id="Path_2344" data-name="Path 2344" d="M539.209,35.823l-.743.379c-.1-6.707,1.888-9.6,8.615-12.524.852-2.151,2.108-3.97,4.719-4.035s3.967,1.669,4.953,4c6.458,1.625,9.292,6.068,9.21,12.622.492.655.142,1.325.038,1.99a18.788,18.788,0,0,0-.631,2.577c-.128.5-.13,1.012-.224,1.512a.705.705,0,0,1-.233.313c-.11.1-.358-.085-.389.192a2.648,2.648,0,0,1-.075.361,7.334,7.334,0,0,1-.369.923c-.117.258-.241.511-.366.764-.2.394-.389.794-.61,1.178a4.349,4.349,0,0,1-.4.561,2.466,2.466,0,0,1-.5.49c-.95.345-1.386-.558-2.075-.853-.574-.529-1.387-.856-1.524-1.764a4.323,4.323,0,0,1,.273-1.386c.041-.148.094-.293.148-.436a5.486,5.486,0,0,0,.425-1.52,13.471,13.471,0,0,1,.164-1.61,5.762,5.762,0,0,1,.174-.672c.03-.228.04-.459.048-.689,0-.309,0-.618,0-.927a3.86,3.86,0,0,0-.186-1.372,2.79,2.79,0,0,1-.077-.921c.012-.194.148-.386.02-.587a.325.325,0,0,1-.258.262.611.611,0,0,1-.6-.323,1.379,1.379,0,0,1,.779-1.751c1.284.517,1.356,1.815,1.843,2.849a2.511,2.511,0,0,1,.129.532c.09,1.35.039,2.7.046,4.053a11.45,11.45,0,0,1-.545,2.867c-.053.229-.054-.061-.036.165.03.377.172.007.266,0a8.007,8.007,0,0,0,1.149-2.729,4.07,4.07,0,0,1,2.077-2.767,11.377,11.377,0,0,0-.868-7.614,9.832,9.832,0,0,0-3.171-3.529c-1.07-.449-1.974-1.453-3.318-.98a1.266,1.266,0,0,1-.906-.39c-.567-.566-.536-1.4-.926-2.053-.713-1.189-1.521-2.144-3.1-2.181a3.634,3.634,0,0,0-3.42,1.987,11.509,11.509,0,0,1-.968,1.658,3.917,3.917,0,0,1-1.706.873c-3.969,1.442-5.892,4.432-6.371,8.477a4.574,4.574,0,0,1-.48,2.023" transform="translate(-530.904 -19.641)" fill="#355a30"/>
  <path id="Path_2345" data-name="Path 2345" d="M677.923,43.354h-3.346V54.906h-2.914V43.351h-3.421V41.016h10.126l-.444,2.338" transform="translate(-572.672 -26.483)" fill="#010101"/>
  <path id="Path_2346" data-name="Path 2346" d="M568.86,46.1q.165-1.009.33-2.017c5.364,2.822,7.985,7.039,6.773,13.239a2.153,2.153,0,0,0,.209,1.305c2.726,5.22.82,8.324-5.113,8.286-5.869,4.9-9.354,5.212-15.685,1.418L554.732,68c-1.534-.6-2.407-1.9-3.361-3.124-.178-.26-.342-.529-.514-.793-.136-.188-.271-.378-.414-.562a19.309,19.309,0,0,1-1.592-2.339,3.476,3.476,0,0,1-.214-.445,1.812,1.812,0,0,1-.143-.742c.618-1.537,2.169-1.553,3.159-2.125a3.492,3.492,0,0,1,2.1,1.261c.179.167.347.348.514.528.422.462.866.9,1.309,1.346a9.672,9.672,0,0,0,1.133,1.08,5.534,5.534,0,0,0,.771.451,18.237,18.237,0,0,0,2.084.837.736.736,0,0,0,.719-.237.682.682,0,0,1,.654-.112c.663.488,1.629.706,1.6,1.806-.559.664-1.31.5-2.03.477a19.242,19.242,0,0,1-3.019-1.021,24.766,24.766,0,0,1-3.342-2.322c-.543-.522-1.036-1.1-1.612-1.586a1.263,1.263,0,0,0-1.95.011c.321,1.7,1.56,2.864,2.589,4.15a19.53,19.53,0,0,0,3.473,3.2,10.432,10.432,0,0,0,3.4,1.6c.157.032.312.074.466.118.237.052.474.1.715.127a14.771,14.771,0,0,0,3.453-.085c2.015-.624,3.918-1.424,5.185-3.246a1.657,1.657,0,0,1,1.166-.461c.587-.029,1.176,0,1.763-.023a3.525,3.525,0,0,0,3.058-5.5c-.338-.613-.917-1.091-1.026-1.832a14.133,14.133,0,0,1,.206-2.451,22.717,22.717,0,0,1,.008-2.718A2.982,2.982,0,0,0,574.882,52a4.269,4.269,0,0,1-.143-.473,9.931,9.931,0,0,0-3.011-4.426,2.276,2.276,0,0,0-2.222-.707.7.7,0,0,1-.646-.288" transform="translate(-534.132 -27.466)" fill="#155168"/>
  <path id="Path_2347" data-name="Path 2347" d="M646.907,53.451l1.975.124c.083.423.175.9.252,1.3-1.85,1.993-5.139-.039-5.149-3.031,0-1.523,0-3.046,0-4.634-1.323-.835-1.748-1.746-.039-2.659.04-.662.079-1.3.127-2.083l2.747-.685v3.016l2.242.18c-.2.657-.369,1.189-.544,1.751l-1.611.139Z" transform="translate(-564.491 -26.727)" fill="#010101"/>
  <path id="Path_2348" data-name="Path 2348" d="M688.774,48.475c-.962.015-1.821-.1-2.482.923v7.1h-2.861v-9.9l1.965-.578.756,1.127c.86-.677,1.718-1.43,3.221-.927-.183.69-.378,1.425-.6,2.261" transform="translate(-577.56 -28.083)" fill="#030303"/>
  <path id="Path_2349" data-name="Path 2349" d="M740.649,46.547l1.975-.526.735,1.136a2.908,2.908,0,0,1,3.183-.948c-.171.7-.342,1.409-.521,2.147-.775.33-1.822-.16-2.57,1.124v7.044h-2.8Z" transform="translate(-595.975 -28.085)" fill="#030303"/>
  <path id="Path_2350" data-name="Path 2350" d="M714.3,39.693v4.674c-2.169-.669-4.026-.507-5.228,1.287a6.555,6.555,0,0,0-.4,7c2.041,3.862,5.624,1.019,8.271,1.975V39.969l-2.646-.276m-.1,12.188c-.92.793-2.006,1.088-2.625.065a4.764,4.764,0,0,1,.135-5.14c.673-1.05,1.737-.549,2.49.155Z" transform="translate(-585.417 -26.06)" fill="#010101"/>
  <path id="Path_2351" data-name="Path 2351" d="M661.774,51.345c-.085-1.8.666-3.973-1.616-4.952-2.307-.99-4.43-.214-6.5,1.129l1.15,1.786c1.339-.54,2.439-1.553,4.021-.777.082.451.173.947.291,1.591-2.275.259-4.649-.118-5.528,2.495a2.977,2.977,0,0,0,1.008,3.64,4.08,4.08,0,0,0,5.044-.2l1.607,1.048,1.369-1.6c-1.282-1.219-.773-2.739-.84-4.161m-4.852,3.439a1.922,1.922,0,0,1-.212-2.336l2.228-.542c0,.883,0,1.569,0,2.261a1.571,1.571,0,0,1-2.018.617" transform="translate(-567.883 -28.061)" fill="#010101"/>
  <path id="Path_2352" data-name="Path 2352" d="M700.869,51.3c-.107-1.742.668-3.867-1.471-4.861-2.345-1.089-4.532-.277-6.646,1.074l1.171,1.792c1.33-.547,2.429-1.551,4.007-.784.076.456.159.951.266,1.591-2.268.271-4.622-.105-5.509,2.518a2.985,2.985,0,0,0,1.018,3.632,4.1,4.1,0,0,0,5.05-.212l1.6,1.039,1.346-1.6c-1.282-1.239-.745-2.764-.833-4.184M698,54.257c-.553.665-1.211.847-2.305.326-.051-.583-.1-1.19-.147-1.676A2.644,2.644,0,0,1,698,52.056Z" transform="translate(-580.468 -28.057)" fill="#010101"/>
  <path id="Path_2353" data-name="Path 2353" d="M634.4,46.207c-2.2-.707-4.295-.15-5.362,2.111-1.242,2.631-1.291,5.4,1.085,7.385,2.245,1.875,4.741,1.366,7.1-.324l-1.048-1.549c-2.095,1.118-4.019,1.786-5.032-1.572h6.157c.037-2.639-.05-5.133-2.9-6.051m.012,4.011h-2.951c-.115-1.146.156-2.091,1.4-2.177,1.338-.093,1.617.882,1.552,2.177" transform="translate(-559.785 -28.052)" fill="#010101"/>
  <path id="Path_2354" data-name="Path 2354" d="M548.333,73.848l3.181,3.492c-5.351,2.771-10.2,2.389-13.021-1.026.083-.152.164-.379.314-.4,2.354-.249,4.133-1.878,6.288-2.6a4.924,4.924,0,0,1,3.238.533" transform="translate(-530.914 -36.807)" fill="#cabc3d"/>
  <path id="Path_2355" data-name="Path 2355" d="M535.526,51.814l1.721-.638a.554.554,0,0,1,.493.591c-.191.466.268.485.481.679a1.818,1.818,0,0,1,.694,1.516c-.329.894-1.229,1.118-1.895,1.619-.886.488-1.79-.1-2.719.065a10.707,10.707,0,0,0-4.014,1.86,8.149,8.149,0,0,1,.474-8.316,10.266,10.266,0,0,1,7.2-5.018c-.222,1.1-1.324,1.108-2.012,1.63a9.558,9.558,0,0,0-4.253,3.665c-.042.1.129.058.3.013,1.3.073,2,1.041,2.751,1.772.4.662-.17,1.378.318,1.881-.243-.547-.256-1.052.464-1.32" transform="translate(-527.974 -27.493)" fill="#e6d840"/>
  <path id="Path_2356" data-name="Path 2356" d="M550.328,46.145l2.233-.511.587-1.641c.389.151.544.58.909.757a11.9,11.9,0,0,0,3.856.027c.68-.463.218-1.447.875-1.919a.593.593,0,0,1,.492.075c.587.659.2,1.558.579,2.312.494.579,1.541.421,1.888,1.277-1.169,2.463-4.139,3.7-7.276,3.016a5.861,5.861,0,0,1-3.632-1.889c-.345-.437-.9-.815-.512-1.5" transform="translate(-534.681 -27.065)" fill="#4a7f3b"/>
  <path id="Path_2357" data-name="Path 2357" d="M539.56,37.974c-.136-6.233,1.964-9.148,8.367-11.61a.757.757,0,0,1,.024,1.18,1.714,1.714,0,0,1-.447.254,9.839,9.839,0,0,0-3.689,1.679c-.12.094-.246.181-.37.269-.057.05-.118.095-.175.143a11.864,11.864,0,0,0-1.278,1.541c-.125.187-.246.377-.355.575-.064.143-.135.281-.206.42a9.8,9.8,0,0,0-.7,1.992c.349-.526.442-1.1.741-1.579a4.137,4.137,0,0,1,.262-.429A3.979,3.979,0,0,1,542.04,32a1.718,1.718,0,0,1,1.088-.648c1.361.177,2.359,1.067,3.435,1.583.153.844-.315,1.24-.637,1.7a8.759,8.759,0,0,1-1.847,1.969Z" transform="translate(-531.255 -21.793)" fill="#5f944f"/>
  <path id="Path_2358" data-name="Path 2358" d="M547.1,35.586l.873-1.236-3.358-1.65c-.179-.683.354-1.033.688-1.478a4.2,4.2,0,0,1,.349-.354,3.774,3.774,0,0,1,.383-.322c.787-.44,1.5-1.142,2.53-.767.627,1.022.507,2.255.941,3.33.07.118.142.237.221.347s.165.205.248.307c.044.046.085.1.128.143.089.088.173.183.257.276.043.044.084.091.128.135.089.084.172.175.256.265.044.043.085.088.129.131.092.084.177.174.264.264.046.043.089.089.135.133.1.087.186.179.275.273.047.048.09.1.138.145a3.656,3.656,0,0,1,.265.313c.044.056.083.112.128.168.091.113.175.228.263.343.336.556,1.072.925.817,1.755-.239.291-.62.447-.778.815-.361.6.024,1.483-.736,1.925q-.152-.533-.3-1.066V37.524a6.179,6.179,0,0,0-3.828.112,1.464,1.464,0,0,1-.41-2.05" transform="translate(-532.874 -22.852)" fill="#6ca25a"/>
  <path id="Path_2359" data-name="Path 2359" d="M534.316,71.9c-2.3.761-4.517.664-5.867-1.566-1.541-2.544-.233-4.651,1.6-6.5.578-1.187,1.719-1.43,2.844-1.7a4.875,4.875,0,0,1,3.353.5,3.86,3.86,0,0,1,.452.273,4.713,4.713,0,0,1,1.883,2.763,3,3,0,0,1,.081.526,5.2,5.2,0,0,1-.814,3.321,6.131,6.131,0,0,1-3.011,2.448,1.69,1.69,0,0,1-.521-.06" transform="translate(-527.462 -33.206)" fill="#f5f4ec"/>
  <path id="Path_2360" data-name="Path 2360" d="M536.775,52.68c-.174.485-.348.97-.655,1.826a4.352,4.352,0,0,0-2.882-3.933,5.056,5.056,0,0,1,4.182-3.693c.684.3,1.273.665,1.1,1.566l-.684.719c.091,1.208-1.085,1.99-1.069,3.173a2,2,0,0,0,.009.343" transform="translate(-529.223 -28.359)" fill="#d4c53f"/>
  <path id="Path_2361" data-name="Path 2361" d="M542.671,51.025l.389-.333a.191.191,0,0,0,.322-.035l-.006,0c1-.506,1.558.116,1.96.866a5.027,5.027,0,0,1,.734,2.9,3.443,3.443,0,0,1-2.447,1.66c-1.947-1.746-2.379-3.292-1.325-4.691l.06-.054q.159-.158.313-.321" transform="translate(-531.958 -29.511)" fill="#487b3a"/>
  <path id="Path_2362" data-name="Path 2362" d="M533.861,61.931,531,63.252l-.277-.615c.848-1.823,2.552-2.178,4.69-2.431l1.959.258a4.9,4.9,0,0,1,3.781.557c.587.831.088,1.3-.6,1.607a3.655,3.655,0,0,1-3.185-.011l-.062-.1c.252-1,1.138-.728,1.825-.855.21-.078-.179-.269-.047-.074-1.714.519-3.558-.972-5.221.338" transform="translate(-528.415 -32.625)" fill="#898035"/>
  <path id="Path_2363" data-name="Path 2363" d="M550.055,47.7c2.078,4.207,8.089,4.381,11.287.326a.516.516,0,0,1,.781.054c-2.827,4.513-9.847,4.73-12.463.387a.643.643,0,0,0-.295-.437h-.014l.705-.33" transform="translate(-534.408 -28.624)" fill="#395c33"/>
  <path id="Path_2364" data-name="Path 2364" d="M542.057,50.989c-.88,1.864.35,3.055,1.372,4.482l2.107-1.574c-.625-1.365-.262-3.283-2.4-3.649L544.9,49.19l.374,1.443a3.372,3.372,0,0,1,.736,1.122c.859,2.424.524,3.285-1.733,4.5-.887.479-1.562.425-1.847-.691l-.753-1.456c-.235-.188-.578-.329-.315-.731l-.371-.6c.034-.789-.13-1.7,1.066-1.793" transform="translate(-531.718 -29.099)" fill="#35572a"/>
  <path id="Path_2365" data-name="Path 2365" d="M538.911,44.881l2.121-1.3,7.084-1.25c.4.85.146,1.084-.345,1.182a25.425,25.425,0,0,0-5.214,1.407,4.447,4.447,0,0,1-3.049.544.9.9,0,0,1-.6-.585" transform="translate(-531.048 -26.905)" fill="#cec37c"/>
  <path id="Path_2366" data-name="Path 2366" d="M539.452,45.8c2.84-.483,5.47-2,8.462-1.743a23.223,23.223,0,0,0-7.427,3.476l-1.071-1.4a.222.222,0,0,1,.037-.332" transform="translate(-531.192 -27.447)" fill="#b5a93d"/>
  <path id="Path_2367" data-name="Path 2367" d="M537.424,75.293l.319-.17a5.005,5.005,0,0,0,3.316-1.653,2.059,2.059,0,0,1,3.436.14c-1.946,1.263-3.927,2.438-6.346,2.493l-.724-.81" transform="translate(-530.57 -36.596)" fill="#b8ab38"/>
  <path id="Path_2368" data-name="Path 2368" d="M538.358,53.412c-.588-1.376.456-2.2,1.069-3.173l1.049.351.005.005-2.123,2.817" transform="translate(-530.815 -29.435)" fill="#b5a93d"/>
  <path id="Path_2369" data-name="Path 2369" d="M547.632,38.37q.2,1.025.41,2.051l-1.815.027,1.406-2.077" transform="translate(-533.403 -25.636)" fill="#365b2e"/>
  <path id="Path_2370" data-name="Path 2370" d="M542.059,50.073l-.023.044c.6-.309.321-.166.044-.023Z" transform="translate(-532.054 -29.277)" fill="#b5a93d"/>
  <path id="Path_2371" data-name="Path 2371" d="M542.965,51.283l-.313.322.313-.322" transform="translate(-532.253 -29.769)" fill="#35572a"/>
  <path id="Path_2372" data-name="Path 2372" d="M544.009,50.742l-.322.035c.108-.007.215-.02.322-.035" transform="translate(-532.586 -29.596)" fill="#35572a"/>
  <path id="Path_2373" data-name="Path 2373" d="M541.929,50.248l-.359.343-.005-.005.344-.359.021.021" transform="translate(-531.902 -29.431)" fill="#b5a93d"/>
  <path id="Path_2374" data-name="Path 2374" d="M730.41,46.153c-2.149-.634-4.222-.043-5.229,2.152-1.175,2.557-1.3,5.28.978,7.3,2.262,2,4.765,1.422,7.218-.174l-1.039-1.61c-2.144,1.113-4.067,1.841-5.018-1.509h6.09c.083-2.816-.106-5.305-3-6.159m.151,4.01h-3.044c-.018-1.127.278-2.108,1.526-2.139s1.651.872,1.518,2.139" transform="translate(-590.731 -28.05)" fill="#010101"/>
  <path id="Path_2375" data-name="Path 2375" d="M554.968,37.234l-1.419-1.714c.092-.083.118-.162.08-.235s-.071-.107-.105-.107l.017.01a1.471,1.471,0,0,0-.364-.364l.011.011a1.482,1.482,0,0,0-.364-.364l.011.011a1.509,1.509,0,0,0-.363-.365l.012.012a1.541,1.541,0,0,0-.365-.365l.013.012a1.553,1.553,0,0,0-.365-.365l.012.012a1.525,1.525,0,0,0-.365-.364l.01.015c-.841-1.267-.7-2.792-1.107-4.175a.473.473,0,0,1,.336-.6.886.886,0,0,1,.494.082c.945,1.885,1.564,4,3.621,5.1a5.735,5.735,0,0,1,1.16,2.177c.1.2.173.127.237-.05a7.827,7.827,0,0,1,1.145-2.48,6.236,6.236,0,0,0,2.4-4.145c.1-.562-.006-1.2.587-1.581l.624.357c1.575.628,1.594,2.132,1.948,3.449-.192,1.374.5,2.626.552,3.967l-.705,1.754c-1,.978-2.562.095-3.564,1.07l-.278-.01a1.761,1.761,0,0,1-.805-.09c-1-.356-2.228.311-3.1-.662" transform="translate(-534.713 -22.124)" fill="#457139"/>
  <path id="Path_2376" data-name="Path 2376" d="M577.885,68.462l-1.146.348c-2.459.742-3.693-.879-4.909-2.54-.282-.73-.437-1.505-.763-2.222-.448-1.3-1.021-2.563-1.375-3.9a1.726,1.726,0,0,1,.1-.784,2.045,2.045,0,0,1,.868-.948c.84-.411,1.83-.385,2.647-.875.256-.643-.519-.878-.525-1.4l.744-1.4a.881.881,0,0,1,.6-.245c-.056-.164-.224-.251-.247-.411q.2-.524.394-1.048c.137-.241.493-.1.621-.36q.035-.709.068-1.417a.319.319,0,0,1,.426-.07,18.11,18.11,0,0,1,2.012,4.551,1.632,1.632,0,0,0,1.111,1.414,2.527,2.527,0,0,1,.462.176.735.735,0,0,1,.313.381,1.434,1.434,0,0,1-1.273,1.093c-1.556-.867-3.031.215-4.456.2.444.057,1.065-.208,1.487.368-.7,1.214-1.006,1.272-3.248.619.521,1.027,1.851,1.655,1.56,3.1-.4.479-.7.1-1.015-.1,1.013,3.409,2.144,4.581,4.574,4.726.444.092.88.194.968.746" transform="translate(-540.953 -29.722)" fill="#1e5f7f"/>
  <path id="Path_2377" data-name="Path 2377" d="M574.419,34.171a11.3,11.3,0,0,1,1,8.783c-2.848.763-1.6,4.051-3.488,5.291-.831-1,.044-1.889.229-2.8a14.334,14.334,0,0,0-.832-7.338c.158-1.324,1.416-1.514,2.239-2.147.376-.561.1-1.425.855-1.794" transform="translate(-541.481 -24.292)" fill="#508341"/>
  <path id="Path_2378" data-name="Path 2378" d="M573.361,32.528c-.05.713-.1,1.426-.142,2l-2.668,1.513c-.613.823.969,1.645,0,2.467l-1.421-2.818c-1.164-1.081-1.168-2.471-1.036-3.9a3.836,3.836,0,0,1,2.329-1.5c.2-.026.379.174.585.038a.451.451,0,0,1-.372-.049c-.476-.3-.853-.632-.452-1.247a8.665,8.665,0,0,1,3.177,3.491" transform="translate(-540.422 -22.649)" fill="#679c55"/>
  <path id="Path_2379" data-name="Path 2379" d="M560.591,25.2c-.031,2.449-.5,4.693-2.835,6.064a1.97,1.97,0,0,1-2.862.306c-2.419-.945-3.186-3-3.58-5.313a.481.481,0,0,1,.1-.694q.132-.533.263-1.066c.64-2.173,1.773-3.946,4.276-3.966,3.014-.023,3.919,2.285,4.637,4.669" transform="translate(-535.007 -19.926)" fill="#e9f0eb"/>
  <path id="Path_2380" data-name="Path 2380" d="M563.353,42.428c.631-2.214,2.433-.525,3.564-1.07l.586.022c.292-.1.323.188.464.313l.016,1.067c.432.88-.247,1.045-.816,1.139a2.825,2.825,0,0,1-2.362-.373c-.321-.536-.323-.987.424-1.348-1.21.5-.62,1.261-.555,1.891,1.075,1.016,2.76.619,3.615,1.848l-.324.448-1.336-.349-.781-.054-2.307-.645c-.063-.97-.126-1.93-.189-2.89" transform="translate(-538.915 -26.557)" fill="#124d61"/>
  <path id="Path_2381" data-name="Path 2381" d="M571.184,41.812c.52-.823-1.072-1.645,0-2.467A13.966,13.966,0,0,1,571.5,49.9L570,52.1c.58-2.648.875-4,1.17-5.347a13.611,13.611,0,0,0,.009-4.944Z" transform="translate(-541.055 -25.948)" fill="#82a373"/>
  <path id="Path_2382" data-name="Path 2382" d="M560.425,62.7c-2.07-4.651.909-9.82,6.317-10.959l-.548,1.458a4.749,4.749,0,0,0-3.573,2.074,7.961,7.961,0,0,0-1.333,2.627,11.848,11.848,0,0,0-.137,4.211c-.124.341-.17.782-.726.587" transform="translate(-537.76 -29.916)" fill="#1b566e"/>
  <path id="Path_2383" data-name="Path 2383" d="M569.517,28.416l.718,1.36h0l-2.808,1.4-1.464-3.519c1.568-1.55,2.353.582,3.554.757" transform="translate(-539.755 -22.028)" fill="#75aa61"/>
  <path id="Path_2384" data-name="Path 2384" d="M563.488,55.566c.986-1.284,1.99-2.531,3.9-1.783l-.087,0a1.144,1.144,0,0,0-.385,1.367l1.524,1.721c-.043.067-.085.133-.128.2a.98.98,0,0,1-.686.076,2,2,0,0,0-1.544.058,3.628,3.628,0,0,1-2.6-1.635" transform="translate(-538.958 -30.497)" fill="#2a78a0"/>
  <path id="Path_2385" data-name="Path 2385" d="M568.444,46.369l-4.073-1.157V42.658h3.09l-3.632.642c2.291.6,3.331,1.25,4.308-.088l.305,1.473a1.286,1.286,0,0,1-1.183.268,1.8,1.8,0,0,1,1.192.719c0,.233,0,.465-.007.7" transform="translate(-539.068 -27.008)" fill="#1a5f82"/>
  <path id="Path_2386" data-name="Path 2386" d="M573.068,58.472l2.361,1.562-4.377.953c-.39-.452.014-1.055-.293-1.522a1.2,1.2,0,0,1-.164-.881c.041-.054.083-.107.126-.16l1.726.807a2.056,2.056,0,0,1,.333-.375l.288-.385" transform="translate(-541.234 -32.055)" fill="#2e7ca3"/>
  <path id="Path_2387" data-name="Path 2387" d="M569.1,46.441l-3.253-.84.075-.54,3.169.393q0,.493.009.987" transform="translate(-539.718 -27.778)" fill="#a8bbcc"/>
  <path id="Path_2388" data-name="Path 2388" d="M577.749,49.964l-.277-.02.714-2.9.665-.016c.913,1.1.037,1.87-.482,2.711-.161.2-.33.382-.621.222" transform="translate(-543.459 -28.408)" fill="#436979"/>
  <path id="Path_2389" data-name="Path 2389" d="M571.739,42.973a7.1,7.1,0,0,1-.008,4.944q0-2.472.008-4.944" transform="translate(-541.611 -27.109)" fill="#679c55"/>
  <path id="Path_2390" data-name="Path 2390" d="M567.967,55.249l-1.229-.623,1.613-.744-.385,1.367" transform="translate(-540.004 -30.601)" fill="#5e8fb0"/>
  <path id="Path_2391" data-name="Path 2391" d="M575.707,55.47l1.547.657h-1.9l.352-.657" transform="translate(-542.777 -31.109)" fill="#8ca3b7"/>
  <path id="Path_2392" data-name="Path 2392" d="M577.076,53.316v.509l-.62-.15c.02-.178.039-.357.058-.535a.644.644,0,0,0,.252.022,1.043,1.043,0,0,0,.311.154" transform="translate(-543.131 -30.363)" fill="#98b2bb"/>
  <path id="Path_2393" data-name="Path 2393" d="M569.938,41.674l-.464-.313.345-.175.119.488" transform="translate(-540.885 -26.537)" fill="#718a77"/>
  <path id="Path_2394" data-name="Path 2394" d="M576.792,53.127c-.085-.006-.17-.013-.253-.021l.132-.077Z" transform="translate(-543.158 -30.328)" fill="#1e5f7f"/>
  <path id="Path_2395" data-name="Path 2395" d="M573.675,59.059l-.333.375.333-.375" transform="translate(-542.13 -32.258)" fill="#1e5f7f"/>
  <path id="Path_2396" data-name="Path 2396" d="M577.88,51.156l.414-.4c1.284-.1,1.158,1.478,2.151,1.8.808.014,1.311-.929,2.455-.77.73.212,1.035,1.208,1.711,1.811a2.911,2.911,0,0,1,.039.344c.182.336-.077.8.319,1.077q.013,1.57.026,3.139a2.022,2.022,0,0,1-3.185-.673c-.1-.023-.194-.042-.292-.057a.4.4,0,0,0-.441-.014c-2.473-1.366-1.935-4.271-3.2-6.256" transform="translate(-543.59 -29.6)" fill="#4a95c0"/>
  <path id="Path_2397" data-name="Path 2397" d="M544.647,70.559c-1.549-.948-2.6-.551-3.741.889a2.391,2.391,0,0,1-3.01.625l2.8-2.206a3.781,3.781,0,0,0,1.489-3.192c-.032-.216-.45-.1-.633-.3a.672.672,0,0,1-.065-.335,3.394,3.394,0,0,1,2.243-2.952.915.915,0,0,1,.76.642c.014,1.25-.141,2.567,1.238,3.31l1.642,2.431a.426.426,0,0,0,.283.432l.494.687Z" transform="translate(-530.722 -33.547)" fill="#898032"/>
  <path id="Path_2398" data-name="Path 2398" d="M572.205,72.99a6.344,6.344,0,0,0,4.664,2.766c-.953,2.131-2.952,2.681-4.929,3.266-1.841-.33-1.629-1.867-1.852-3.147-.01-.784.876-1.14.909-1.907a1.659,1.659,0,0,1,.355-.878c.261-.229.532-.385.853-.1" transform="translate(-541.082 -36.668)" fill="#5fa6d4"/>
  <path id="Path_2399" data-name="Path 2399" d="M560.1,66.607l.464-.59a2.743,2.743,0,0,1,1.933-2.074c1.194.684,3.155.449,3.394,2.64a2.6,2.6,0,0,1-.162.468,6.074,6.074,0,0,1-.345.636c-.5.56-.591,1.481-1.49,1.688l-.335.481a.445.445,0,0,1-.455.362l-2.572-1.063a1.072,1.072,0,0,1,.181-.7c.28-.276.412-.669.722-.923-.257.138-.343.439-.564.613a1.6,1.6,0,0,1-1.067.541l-1.055-.91,1.352-1.166" transform="translate(-537.432 -33.821)" fill="#7f7833"/>
  <path id="Path_2400" data-name="Path 2400" d="M584.807,52.311l-2.149-1.533-2.285,1.479-1.883-2.783.689-2.535c2.375-.872,3.023,1.345,4.165,2.48a10.251,10.251,0,0,1,1.463,2.892" transform="translate(-543.786 -28.315)" fill="#3882aa"/>
  <path id="Path_2401" data-name="Path 2401" d="M560.627,72.833l2.829,1.036c-.207,1.119-1.08.4-1.641.624.483.434,1.219.648,1.382,1.408.2.966.682,1.94-.089,2.874l-3.562-1.7c-.638-.662-.317-1.533-.5-2.294-.126-.544-.654-.782-.925-1.217a.826.826,0,0,1-.071-.469,1.411,1.411,0,0,1,1.244-.867c.42-.1.668.823,1.332.6" transform="translate(-537.206 -36.472)" fill="#3d86af"/>
  <path id="Path_2402" data-name="Path 2402" d="M579.547,71.944l-1.091-.343a4.82,4.82,0,0,1-3.609-3.825c.053-.356.152-.682.553-.8.735.24.709,1.05,1.14,1.518a6.374,6.374,0,0,0,1.453,1.469,4.059,4.059,0,0,0,2.334.838c1.532.067,3-.129,3.627-1.766.71-1.856-.236-3.239-1.573-4.428-1.34-.9-2.734-1.565-4.411-1.044a1.536,1.536,0,0,1-.793-.178.555.555,0,0,1-.211-.739c.845-1.123,1.967-.4,2.973-.449a3.411,3.411,0,0,1,3.754,1.989c1.415,1.635,2.372,3.424,1.295,5.587-1.139,2.287-3.235,2.425-5.44,2.167" transform="translate(-542.614 -33.204)" fill="#ebf0f4"/>
  <path id="Path_2403" data-name="Path 2403" d="M565.342,80.118q-.179-1.576-.357-3.151a1.4,1.4,0,0,1,.46-.349,7.54,7.54,0,0,1,3.417,0c.084,1.344.244,2.656,1.436,3.553l-4.259.245a2.2,2.2,0,0,1-.384-.252.849.849,0,0,1-.311-.044" transform="translate(-539.44 -37.814)" fill="#4b96c2"/>
  <path id="Path_2404" data-name="Path 2404" d="M553.391,71.813l-3.521-4.556,2.616-1.47,2.346,2.823c.029.8-.557,1.453-.493,2.3.034.45-.209,1.048-.947.907" transform="translate(-534.575 -34.411)" fill="#1c6b93"/>
  <path id="Path_2405" data-name="Path 2405" d="M555.062,73.142c.746-.636.968-1.35.174-2.135l1.266-1.068,3.166,2.163c-.626.649-.937-.4-1.568-.245l-.9.564-.007.007,1.391.976c0,.992,0,1.968,0,2.943l-3.524-3.206" transform="translate(-536.246 -35.74)" fill="#2c79a1"/>
  <path id="Path_2406" data-name="Path 2406" d="M548.588,66.382c-2.125-.275-1.979-1.611-1.463-3.124a.342.342,0,0,1,.4-.141c.38.193.656.624,1.17.505a3.047,3.047,0,0,0,.779-.283,2.6,2.6,0,0,0,.665-.514,3.945,3.945,0,0,1,.6-.728c.977-.566,1.891-1.334,3.153-.955.468,1.446.556,2.815-.78,3.9l-1.585-1.45c-1.053.784-2.648.64-3.318,2.077a2.137,2.137,0,0,1,.263.39,1.24,1.24,0,0,1,.121.324" transform="translate(-533.587 -32.892)" fill="#a99e38"/>
  <path id="Path_2407" data-name="Path 2407" d="M566.333,70.723l1.251-2.04c.092-.131.188-.258.288-.383l-.016.007c1.217-.531,1.767.478,2.493,1.08q.323,1.053.648,2.105l-.645.355c-.68.471-1.317,1.172-2.228.42l-1.791-1.544" transform="translate(-539.874 -35.17)" fill="#6eb2e0"/>
  <path id="Path_2408" data-name="Path 2408" d="M553.269,61.927c.65-1.261,1.153-2.537.38-3.936-.7-.561-.789-1.475-1.263-2.167-.08-.131-.153-.265-.227-.4a5.844,5.844,0,0,0-.408-.558,6.591,6.591,0,0,0-4.178-2.491q-.133-.532-.266-1.064c5.477.56,9.084,6.8,6.4,11.063l-.432-.448" transform="translate(-533.75 -29.778)" fill="#837c3c"/>
  <path id="Path_2409" data-name="Path 2409" d="M566.6,74l2.229-.42-.349.728c-.3,1.032-1.188,1.154-2.036,1.191a5.758,5.758,0,0,0-2.173.548l-.376.01c-.682-.635-1.932-.5-2.288-1.755h2.993l2-.3" transform="translate(-538.355 -36.907)" fill="#5a95bb"/>
  <path id="Path_2410" data-name="Path 2410" d="M586.031,63.754l-3.54-1.784c-.151-.081-.368-.084-.377-.328l1.059-.991a4.51,4.51,0,0,0,3.185.673q-.164,1.215-.326,2.429" transform="translate(-544.953 -32.767)" fill="#2e7093"/>
  <path id="Path_2411" data-name="Path 2411" d="M587.993,56.516l-.717.092c.166-.487.281-.827.4-1.169q.159.539.319,1.077" transform="translate(-546.614 -31.099)" fill="#3882aa"/>
  <path id="Path_2412" data-name="Path 2412" d="M561.375,70.706l-.347.371-.727-.471.644-.657c.359.131.409.437.431.758" transform="translate(-537.932 -35.743)" fill="#939379"/>
  <path id="Path_2413" data-name="Path 2413" d="M551.768,72.905l-1.07.507.787-.94.282.432" transform="translate(-534.842 -36.551)" fill="#9ea58e"/>
  <path id="Path_2414" data-name="Path 2414" d="M565.168,73l.455-.362.608.8L565.168,73" transform="translate(-539.499 -36.605)" fill="#98afb4"/>
  <path id="Path_2415" data-name="Path 2415" d="M549.132,68.235l-.264-.39.264.39" transform="translate(-534.253 -35.07)" fill="#898032"/>
  <path id="Path_2416" data-name="Path 2416" d="M565.972,81.924l.384.253-.384-.253" transform="translate(-539.758 -39.576)" fill="#3d86af"/>
  <path id="Path_2417" data-name="Path 2417" d="M549.372,48.19l.295.436-.295-.436" transform="translate(-534.415 -28.779)" fill="#4a7f3b"/>
  <path id="Path_2418" data-name="Path 2418" d="M545.391,52.805c2.327-.666,3.445.984,4.664,2.438a1.96,1.96,0,0,1,.295.365l.112.336c-.541,1.19-1.9,1.155-2.77,1.856-.868.222-1.067-1.147-1.974-.826a1.743,1.743,0,0,0-1.038.672c-.3.307-.253.819-.628,1.083l-3.522-.683,1.752-1.372.882.816,2.96-2.2-.732-2.487" transform="translate(-531.569 -30.208)" fill="#dacc40"/>
  <path id="Path_2419" data-name="Path 2419" d="M536.727,46.457c-.009.111-.02.222-.035.332a10.394,10.394,0,0,0-4.209,3.527L530.891,52.4c1.229-3.634,2.818-5.441,5.439-6.325l.4.377" transform="translate(-528.467 -28.103)" fill="#ded267"/>
  <path id="Path_2420" data-name="Path 2420" d="M540.376,55.352l.315.731h-2.765l2.45-.731" transform="translate(-530.732 -31.071)" fill="#ddd67c"/>
  <path id="Path_2421" data-name="Path 2421" d="M555,44.947q.224-1.231.447-2.463l.188.173c.3.428.271,1,.656,1.462,1,.581,2.228.053,3.3.489.241.134.451.287.37.614-1.659-.005-3.347.491-4.964-.275" transform="translate(-536.226 -26.953)" fill="#edf0ec"/>
  <path id="Path_2422" data-name="Path 2422" d="M561.953,45.214l-.321-.312a1.774,1.774,0,0,1-.293-1.925.847.847,0,0,1,.665-.521l.372.349c-.227.788.442,1.734-.424,2.409" transform="translate(-538.217 -26.944)" fill="#b9b39a"/>
  <path id="Path_2423" data-name="Path 2423" d="M548.882,28.613l-.2.394c.092.152.047.252-.117.305l-2.466,1.07a1.235,1.235,0,0,1-.347.324l-.016.013c-.722.4-1,.123-.975-.63l.014-.022a.547.547,0,0,1,.3-.3,6.83,6.83,0,0,1,3.877-1.847c.185.252.242.49-.07.691" transform="translate(-532.93 -22.292)" fill="#cad9c4"/>
  <path id="Path_2424" data-name="Path 2424" d="M543.873,31.109l.975.63-1.06,1.42-.718.709a1.922,1.922,0,0,1-.3.368c-.581.1-.844-.13-.738-.73.028-.1.054-.209.077-.315.093-.134.188-.265.287-.4Z" transform="translate(-532.045 -23.312)" fill="#afc5a5"/>
  <path id="Path_2425" data-name="Path 2425" d="M541.587,34.636l.738.73c-.419,1.065-.839,2.13-1.424,3.615a4.564,4.564,0,0,1,.686-4.345" transform="translate(-531.602 -24.441)" fill="#94b186"/>
  <path id="Path_2426" data-name="Path 2426" d="M550.84,28.613c.024-.23.047-.46.07-.691l.385.007q-.05.347-.1.694l-.355-.01" transform="translate(-534.888 -22.292)" fill="#355a30"/>
  <path id="Path_2427" data-name="Path 2427" d="M542.441,33.591l-.287.4.287-.4" transform="translate(-532.092 -24.106)" fill="#94b186"/>
  <path id="Path_2428" data-name="Path 2428" d="M545.084,30.638l-.3.3.3-.3" transform="translate(-532.937 -23.161)" fill="#afc5a5"/>
  <path id="Path_2429" data-name="Path 2429" d="M543.128,35.536l.3-.368-.3.368" transform="translate(-532.406 -24.611)" fill="#94b186"/>
  <path id="Path_2430" data-name="Path 2430" d="M550.368,29.822a1.059,1.059,0,0,1,.117-.305q.48,2.117.961,4.233c-1.227-1.071-1.04-2.53-1.078-3.928" transform="translate(-534.736 -22.802)" fill="#3c6334"/>
  <path id="Path_2431" data-name="Path 2431" d="M560.226,42.266l-.292.26a4.888,4.888,0,0,1-4.278-.239v0l1.036-.422,3.533.4" transform="translate(-536.438 -26.754)" fill="#f4f5f2"/>
  <path id="Path_2432" data-name="Path 2432" d="M546.221,31.864l.347-.324-.347.324" transform="translate(-533.401 -23.45)" fill="#afc5a5"/>
  <path id="Path_2433" data-name="Path 2433" d="M554.543,38.318l.363.364-.363-.364" transform="translate(-536.079 -25.619)" fill="#3c6334"/>
  <path id="Path_2434" data-name="Path 2434" d="M554.023,37.8l.363.364-.363-.364" transform="translate(-535.912 -25.453)" fill="#3c6334"/>
  <path id="Path_2435" data-name="Path 2435" d="M553.5,37.279l.364.364-.364-.364" transform="translate(-535.744 -25.286)" fill="#3c6334"/>
  <path id="Path_2436" data-name="Path 2436" d="M552.982,36.759l.365.365-.365-.365" transform="translate(-535.577 -25.12)" fill="#3c6334"/>
  <path id="Path_2437" data-name="Path 2437" d="M555.052,38.839a1.817,1.817,0,0,1,.147.239c.006.014-.079.068-.122.1a.845.845,0,0,1-.025-.342" transform="translate(-536.241 -25.786)" fill="#3c6334"/>
  <path id="Path_2438" data-name="Path 2438" d="M552.462,36.24l.365.365-.365-.365" transform="translate(-535.41 -24.954)" fill="#3c6334"/>
  <path id="Path_2439" data-name="Path 2439" d="M551.942,35.722l.365.364-.365-.364" transform="translate(-535.242 -24.788)" fill="#3c6334"/>
  <path id="Path_2440" data-name="Path 2440" d="M536.767,71.254a3.6,3.6,0,0,1-2.838.895c-.492-.557-.137-1.11.063-1.618a4.3,4.3,0,0,0-.366-4.289,2.09,2.09,0,0,1-.419-1.791l2.12-.674c2.274,2.29,2.742,4.719,1.44,7.478" transform="translate(-529.191 -33.768)" fill="#a99e38"/>
  <path id="Path_2441" data-name="Path 2441" d="M537.8,71.234a10.47,10.47,0,0,0-1.44-7.478c1.834-.215,3.286.383,3.9,2.193.69,2.03-.136,3.62-1.8,4.84a.979.979,0,0,1-.332.26l-.332.184" transform="translate(-530.229 -33.748)" fill="#8d8535"/>
  <path id="Path_2442" data-name="Path 2442" d="M532.235,64.768a6.418,6.418,0,0,1,.722,7.7l-1.772-.352a1.3,1.3,0,0,1-.308-.689,12.726,12.726,0,0,1,.3-1.986,2.8,2.8,0,0,0,.078-1.786c-.014-.615-1.3-.159-1.115-1.1a3.254,3.254,0,0,1,2.1-1.783" transform="translate(-528.219 -34.085)" fill="#c2b53f"/>
  <path id="Path_2443" data-name="Path 2443" d="M544.049,60.9c-.04-.479-.5-1.023.215-1.385a.719.719,0,0,1,.477-.078c.22,1.165,1.331,2.068,1,3.394a.493.493,0,0,1-.458-.1.731.731,0,0,1-.18.015c-2.069-.787-1.729,1.576-2.777,2.125l-1.808-2.5c2.7-.059,3.59-.428,3.531-1.471" transform="translate(-531.566 -32.374)" fill="#cecaba"/>
  <path id="Path_2444" data-name="Path 2444" d="M535.349,62.22c1.447-1.431,1.447-1.431,5.606-.265l-2.162.857-3.444-.592" transform="translate(-529.902 -32.914)" fill="#cbbd3e"/>
  <path id="Path_2445" data-name="Path 2445" d="M542.874,67.265l1.855-1.386c-1.083,2.061-.188,4.282-2.711,4.882q.428-1.747.856-3.5" transform="translate(-532.048 -34.441)" fill="#b2a53a"/>
  <path id="Path_2446" data-name="Path 2446" d="M530.753,72.322l.016.632c-2.451-1.459-2.319-3.4-1.046-5.564l1.358.432a2.048,2.048,0,0,1,.073,2.375c-.458-.135-.463-.8-1.042-.864-.717,1.2.44,2,.641,2.988" transform="translate(-527.803 -34.924)" fill="#e1d450"/>
  <path id="Path_2447" data-name="Path 2447" d="M538.978,74.381l.332-.26-.332.26" transform="translate(-531.07 -37.079)" fill="#a99e38"/>
  <path id="Path_2448" data-name="Path 2448" d="M556.643,36.622l2.861-.305-1.162,2.819a.449.449,0,0,1-.6-.024Z" transform="translate(-536.755 -24.979)" fill="#7d8f75"/>
  <path id="Path_2449" data-name="Path 2449" d="M558.269,40.427l.6.024c-.02.192-.039.383-.09.881l-.506-.9" transform="translate(-537.278 -26.294)" fill="#b5bab7"/>
  <path id="Path_2450" data-name="Path 2450" d="M568.536,66.69l-2.493-1.08c.387-2.544-2.2-1.524-3.139-3.13l-1.714,2.187a5.746,5.746,0,0,1,.014-4.652c1.251-.768,1.967.194,2.778.855a1.483,1.483,0,0,1,.264.708c.213,1.563,1.224,1.513,2.378,1.172a.7.7,0,0,1,.464.048l1.449,3.89" transform="translate(-538.061 -32.473)" fill="#5aa2ce"/>
  <path id="Path_2451" data-name="Path 2451" d="M574.4,69.219c.41,1.851,1.882,2.783,3.272,3.785l-2.1-.226c-1.731-2.032-3.033-3.789-3.156-6.378l1.6,1.7c.473.256.076.813.389,1.124" transform="translate(-541.831 -34.607)" fill="#4a82ad"/>
  <path id="Path_2452" data-name="Path 2452" d="M574.255,68.18l-.389-1.124c.066-1.488-1.508-2.008-1.9-3.268,1.13-.952,2.732.939,3.775-.576a.2.2,0,0,1,.318.058l.363.291c-.812,1.2-1.134,2.644-1.87,3.884l-.3.734" transform="translate(-541.686 -33.569)" fill="#d7dde1"/>
  <path id="Path_2453" data-name="Path 2453" d="M576,62.515a3.15,3.15,0,0,1-.318-.058h-3.891l5.9-1.662,1.1.893.376.328-3.166.5" transform="translate(-541.631 -32.813)" fill="#4881ab"/>
  <path id="Path_2454" data-name="Path 2454" d="M570.862,59.471c.927.635.033,1.235-.036,1.85l-.627.757a.434.434,0,0,1-.331-.3,3.827,3.827,0,0,1,.61-2.035.742.742,0,0,1,.383-.273" transform="translate(-541.008 -32.39)" fill="#cad3d5"/>
  <path id="Path_2455" data-name="Path 2455" d="M569.9,63.9a1.667,1.667,0,0,1-.264.048l-.168-.156c-.07-.342-.029-.611.408-.618a.477.477,0,0,0,.189.088l-.165.638" transform="translate(-540.874 -33.576)" fill="#dadfdf"/>
  <path id="Path_2456" data-name="Path 2456" d="M582.593,60.546l.441.014-.441-.014" transform="translate(-545.107 -32.734)" fill="#2e7093"/>
  <path id="Path_2457" data-name="Path 2457" d="M572.262,31.037l.134.075-.134-.075Z" transform="translate(-541.782 -23.289)" fill="#75aa61"/>
  <path id="Path_2458" data-name="Path 2458" d="M560.087,25.274c.883,2.82.776,5.478-2.144,6.97-2.054,1.05-3.564-.116-4.482-2.068-.281-.38-.256-.743.148-1.217,2.737.908,4.145-.691,5.191-2.972.22-.481.477-1.174,1.288-.713" transform="translate(-535.671 -21.396)" fill="#4c803d"/>
  <path id="Path_2459" data-name="Path 2459" d="M559.933,24.192c-.789,1.1-1.516,2.257-2.384,3.293a2.771,2.771,0,0,1-4.1.658c-.06.4-.1.677-.142.951q-.194-.5-.39-.992c-.29-1.044-.125-1.757,1.187-1.635a.578.578,0,0,1,.29.479s.089-.092.176-.2a3.879,3.879,0,0,0,2.511-2.785,3.457,3.457,0,0,1,.142-.42,1.8,1.8,0,0,0,.148-.609,3.724,3.724,0,0,0-.313-.8.384.384,0,0,1,.125-.4c1.51.151,2.224,1.193,2.748,2.45" transform="translate(-535.517 -20.314)" fill="#5f954e"/>
  <path id="Path_2460" data-name="Path 2460" d="M554.252,27.65c-1.346-.765-1.282.308-1.434,1.1a4.365,4.365,0,0,1,1.083-4.98c.062.051.123.1.187.15.433.666,1.04.541,1.673.388.538-.129,1.057-.468,1.646-.205-.058,2.064-.9,3.43-3.149,3.553Z" transform="translate(-535.418 -20.963)" fill="#7aac65"/>
  <path id="Path_2461" data-name="Path 2461" d="M557.754,21.7c0,.1,0,.2,0,.3a4.005,4.005,0,0,1-3.19,1.074l.005,0c.6-1.533,1.828-1.6,3.185-1.379" transform="translate(-536.086 -20.27)" fill="#7aac65"/>
  <path id="Path_2462" data-name="Path 2462" d="M564.226,60.043l-2.784-1.057,1.387-2.476,2.679,1.36c.427.332.139.679.026,1.025a3.558,3.558,0,0,1-.709.873,1.5,1.5,0,0,1-.378.239c-.073.013-.148.024-.222.036" transform="translate(-538.3 -31.442)" fill="#408cb6"/>
  <path id="Path_2463" data-name="Path 2463" d="M566.917,59.168l.354-.965.769-.653.823.558a.656.656,0,0,1-.208.412,4.364,4.364,0,0,1-1.389.884.328.328,0,0,1-.349-.236" transform="translate(-540.062 -31.775)" fill="#c0cacb"/>
  <path id="Path_2464" data-name="Path 2464" d="M570.256,58.567l.493.552c-.063.059-.125.121-.184.184-.648.2-.967-.093-1.058-.718a1.26,1.26,0,0,0,.189-.214l.56.2" transform="translate(-540.895 -32.038)" fill="#ced7d8"/>
  <path id="Path_2465" data-name="Path 2465" d="M565.54,76.393c.909-1.775,3.12-.4,4.209-1.739.747.965-.578.878-.709,1.4Z" transform="translate(-539.619 -37.249)" fill="#7ea8c8"/>
  <path id="Path_2466" data-name="Path 2466" d="M561.681,69.658l-.43-.758,2.083-2.226.5.412-2.152,2.572" transform="translate(-538.238 -34.695)" fill="#d1cdac"/>
  <path id="Path_2467" data-name="Path 2467" d="M568.465,68.367l-.288.383.288-.383" transform="translate(-540.467 -35.237)" fill="#5aa2ce"/>
  <path id="Path_2468" data-name="Path 2468" d="M579.381,63.619A4.492,4.492,0,0,1,584,64.656c.448,2.807.016,5.3-2.5,7.058l-2.473-1.038c.63-1.752,2.273-2.847,2.9-4.866a1.181,1.181,0,0,0-.795-1.083c-.525-.46-1.649.021-1.747-1.108" transform="translate(-543.958 -33.634)" fill="#2c78a0"/>
  <path id="Path_2469" data-name="Path 2469" d="M582.67,72.324c1.88-1.981,2.111-4.547,2.5-7.056,1.693,1.271,2.58,2.909,1.836,5-.722,2.028-2.466,2.266-4.339,2.057" transform="translate(-545.132 -34.245)" fill="#165e84"/>
  <path id="Path_2470" data-name="Path 2470" d="M580.765,64.772c1.506-.121.144,1.812,1.313,1.855l-3.788,4.5L576.9,69.675c-.441-.711.151-.937.6-1.138a2.394,2.394,0,0,0,1.413-2.052,1.541,1.541,0,0,1,.6-.4c.788-.084.73-.983,1.262-1.313" transform="translate(-543.224 -34.085)" fill="#4a91bb"/>
  <path id="Path_2471" data-name="Path 2471" d="M580.449,64.444c-.035.791.128,1.711-1.114,1.718-.475-.6-.909-1.4-1.794-.453.326.506.867.19,1.146.529,1.154,2.293-1.621,1.926-2.1,3.109q-.4-.857-.808-1.713a3.906,3.906,0,0,1,1.87-3.884l.688-.008,2.118.7" transform="translate(-542.908 -33.757)" fill="#5fa2cd"/>
  <path id="Path_2472" data-name="Path 2472" d="M558.144,73.564l-.138-.082.146.074-.008.007" transform="translate(-537.194 -36.874)" fill="#3d86af"/>
  <path id="Path_2473" data-name="Path 2473" d="M550.828,59.255c.484-1.367,2.012-1.025,2.881-1.762l1.006,2.476-2.757,1.419c-.8-.146-1.027-.819-1.322-1.432a.7.7,0,0,1,.192-.7" transform="translate(-534.815 -31.757)" fill="#c2b53c"/>
  <path id="Path_2474" data-name="Path 2474" d="M550.916,61.028l1.038,1.492-.331.8a.942.942,0,0,1-.4-.231,2.572,2.572,0,0,1-.612-1.731.511.511,0,0,1,.3-.328" transform="translate(-534.811 -32.888)" fill="#e7e1cd"/>
  <path id="Path_2475" data-name="Path 2475" d="M547.545,64.272l.43-.011a1.363,1.363,0,0,1,1.029.384.726.726,0,0,1,.2.4c-1.036.787-1.3-.091-1.662-.768" transform="translate(-533.827 -33.921)" fill="#eae3d3"/>
  <path id="Path_2476" data-name="Path 2476" d="M551.688,64.281l-.718.349-.163-.173c.083-.406.329-.5.7-.361.064.06.125.122.186.186" transform="translate(-534.877 -33.851)" fill="#e4e0cb"/>
  <path id="Path_2477" data-name="Path 2477" d="M550.642,64.794l-.713.339a1.056,1.056,0,0,1-.14-.179c.1-.409.349-.487.71-.335.047.058.094.118.142.175" transform="translate(-534.55 -34.014)" fill="#e4e0cb"/>
  <path id="Path_2478" data-name="Path 2478" d="M554.872,56.828l-.295-.365.295.365" transform="translate(-536.09 -31.427)" fill="#c2b53c"/>
  <path id="Path_2479" data-name="Path 2479" d="M549.895,59.392c.031.214.06.428.092.642a1.93,1.93,0,0,1-.182.142c-.994-.047-1.166-1.109-1.874-1.51a.8.8,0,0,1-.215-.4c1.482-1.093,1.478.7,2.179,1.123" transform="translate(-533.882 -31.894)" fill="#e6dcc8"/>
  <path id="Path_2480" data-name="Path 2480" d="M546.532,59.214l-.488-.02,1.134-.76c.05.062.1.122.159.18-.075.46-.25.785-.805.6" transform="translate(-533.344 -32.058)" fill="#e7e1cc"/>
  <path id="Path_2481" data-name="Path 2481" d="M555.656,42.487l4.278.239-.081,2.185h-4.2Z" transform="translate(-536.438 -26.954)" fill="#e37927"/>
  <path id="Path_2482" data-name="Path 2482" d="M530.982,72.675c-1.841-1.067-1.653-2.5-.9-4.18,1.114.433,1.175,1.263,1.3,2.055q-.2,1.063-.4,2.125" transform="translate(-528.033 -35.278)" fill="#e8df9b"/>
  <path id="Path_2483" data-name="Path 2483" d="M546.653,59.28l.8-.6c1.436-.31,1.136,1.319,1.929,1.727q.351.981.7,1.962l-.675.359-.71.336-1.092-.6c-.171-1.106-1.784-1.777-.96-3.183" transform="translate(-533.465 -32.124)" fill="#e37b2a"/>
  <path id="Path_2484" data-name="Path 2484" d="M568.2,63.769c-.546,1.343-1.438.594-2.158.284-.544-.235-1.553-.413-.784-1.443l.231.053a6.756,6.756,0,0,0,2.586.988Z" transform="translate(-539.438 -33.395)" fill="#cdd4d7"/>
  <path id="Path_2485" data-name="Path 2485" d="M565.772,60.744l.654-.814a1.2,1.2,0,0,0,.193.186,1.258,1.258,0,0,1-1.04,1.783c-.063-.048-.125-.1-.188-.146l.106-.615-.014,0q.152-.191.289-.39" transform="translate(-539.571 -32.537)" fill="#ced3d3"/>
  <path id="Path_2486" data-name="Path 2486" d="M565.668,61.46l1.04-1.783c.521-.346.554-1.429,1.564-1.032l1.058.717-.667,2.336-.366.656c-1.245.787-2.053.287-2.628-.894" transform="translate(-539.66 -32.098)" fill="#e1792b"/>
  <path id="Path_2487" data-name="Path 2487" d="M554.515,23.259l3.19-1.074c.143.42,1.389.129.7,1.085a3.67,3.67,0,0,1-.375.33l0,0-2.934,1.1c-1.062-.417-.554-.985-.576-1.441" transform="translate(-536.037 -20.456)" fill="#bfd5b0"/>
  <path id="Path_2488" data-name="Path 2488" d="M555.059,29.482l-.08.139.075-.144.005.005" transform="translate(-536.22 -22.79)" fill="#7aac65"/>
  <path id="Path_2489" data-name="Path 2489" d="M559.744,24.112l.375-.33-.375.33" transform="translate(-537.753 -20.967)" fill="#7aac65"/>
  <path id="Path_2490" data-name="Path 2490" d="M565.816,61.127l-.289.39.289-.39" transform="translate(-539.614 -32.92)" fill="#5aa2ce"/>
  <path id="Path_2491" data-name="Path 2491" d="M579.082,66.593l-2.092.7c.168-1.753.953-2.455,2.741-2.446v1.667l-.649.075" transform="translate(-543.304 -34.112)" fill="#abc5dd"/>
</svg>
